<?xml version="1.0" encoding="UTF-8" standalone="no"?>
<!DOCTYPE svg PUBLIC "-//W3C//DTD SVG 1.1//EN"
 "http://www.w3.org/Graphics/SVG/1.1/DTD/svg11.dtd">
<!-- Generated by graphviz version 2.42.4 (0)
 -->
<!-- Title: CoreClassDiagram Pages: 1 -->
<svg width="1384pt" height="745pt"
 viewBox="0.00 0.00 1384.00 745.00" xmlns="http://www.w3.org/2000/svg" xmlns:xlink="http://www.w3.org/1999/xlink">
<g id="graph0" class="graph" transform="scale(1 1) rotate(0) translate(4 741)">
<title>CoreClassDiagram</title>
<polygon fill="white" stroke="transparent" points="-4,4 -4,-741 1380,-741 1380,4 -4,4"/>
<text text-anchor="middle" x="688" y="-718.6" font-family="Noto Sans CJK KR" font-size="18.00">UML Class Diagram 1 &#45; Stat System Core</text>
<!-- IStatOwner -->
<g id="node1" class="node">
<title>IStatOwner</title>
<polygon fill="#f7f7f7" stroke="transparent" points="0.5,-341.5 0.5,-379.5 139.5,-379.5 139.5,-341.5 0.5,-341.5"/>
<polygon fill="none" stroke="#3b4a5a" points="0.5,-341.5 0.5,-379.5 139.5,-379.5 139.5,-341.5 0.5,-341.5"/>
<text text-anchor="start" x="31.5" y="-363.9" font-family="Noto Sans CJK KR" font-size="12.00">&lt;&lt;interface&gt;&gt;</text>
<text text-anchor="start" x="36.5" y="-351.9" font-family="Noto Sans CJK KR" font-weight="bold" font-size="12.00">IStatOwner</text>
<polygon fill="none" stroke="#3b4a5a" points="0.5,-316.5 0.5,-341.5 139.5,-341.5 139.5,-316.5 0.5,-316.5"/>
<text text-anchor="start" x="7.5" y="-326.5" font-family="Noto Sans CJK KR" font-size="10.00">+ ownerId: EntityId</text>
<polygon fill="none" stroke="#3b4a5a" points="0.5,-291.5 0.5,-316.5 139.5,-316.5 139.5,-291.5 0.5,-291.5"/>
<text text-anchor="start" x="7.5" y="-301.5" font-family="Noto Sans CJK KR" font-size="10.00">+ tags: TagSet</text>
<polygon fill="none" stroke="#3b4a5a" points="0.5,-266.5 0.5,-291.5 139.5,-291.5 139.5,-266.5 0.5,-266.5"/>
<text text-anchor="start" x="7.5" y="-276.5" font-family="Noto Sans CJK KR" font-size="10.00">+ getStatBlock(): StatBlock</text>
</g>
<!-- StatBlock -->
<g id="node2" class="node">
<title>StatBlock</title>
<polygon fill="#e8f0fe" stroke="transparent" points="233.5,-397.5 233.5,-424.5 448.5,-424.5 448.5,-397.5 233.5,-397.5"/>
<polygon fill="none" stroke="#3b4a5a" points="233.5,-397.5 233.5,-424.5 448.5,-424.5 448.5,-397.5 233.5,-397.5"/>
<text text-anchor="start" x="312.5" y="-408.9" font-family="Noto Sans CJK KR" font-weight="bold" font-size="12.00">StatBlock</text>
<polygon fill="none" stroke="#3b4a5a" points="233.5,-372.5 233.5,-397.5 448.5,-397.5 448.5,-372.5 233.5,-372.5"/>
<text text-anchor="start" x="240.5" y="-382.5" font-family="Noto Sans CJK KR" font-size="10.00">&#45; ownerId: EntityId</text>
<polygon fill="none" stroke="#3b4a5a" points="233.5,-347.5 233.5,-372.5 448.5,-372.5 448.5,-347.5 233.5,-347.5"/>
<text text-anchor="start" x="240.5" y="-357.5" font-family="Noto Sans CJK KR" font-size="10.00">&#45; stats: Map&lt;StatId, StatInstance&gt;</text>
<polygon fill="none" stroke="#3b4a5a" points="233.5,-322.5 233.5,-347.5 448.5,-347.5 448.5,-322.5 233.5,-322.5"/>
<text text-anchor="start" x="240.5" y="-332.5" font-family="Noto Sans CJK KR" font-size="10.00">&#45; dependencyGraph: StatDependencyGraph</text>
<polygon fill="none" stroke="#3b4a5a" points="233.5,-297.5 233.5,-322.5 448.5,-322.5 448.5,-297.5 233.5,-297.5"/>
<text text-anchor="start" x="240.5" y="-307.5" font-family="Noto Sans CJK KR" font-size="10.00">+ getValue(statId, ctx): StatValue</text>
<polygon fill="none" stroke="#3b4a5a" points="233.5,-272.5 233.5,-297.5 448.5,-297.5 448.5,-272.5 233.5,-272.5"/>
<text text-anchor="start" x="240.5" y="-282.5" font-family="Noto Sans CJK KR" font-size="10.00">+ addModifier(modifier)</text>
<polygon fill="none" stroke="#3b4a5a" points="233.5,-247.5 233.5,-272.5 448.5,-272.5 448.5,-247.5 233.5,-247.5"/>
<text text-anchor="start" x="240.5" y="-257.5" font-family="Noto Sans CJK KR" font-size="10.00">+ removeBySource(sourceId)</text>
<polygon fill="none" stroke="#3b4a5a" points="233.5,-222.5 233.5,-247.5 448.5,-247.5 448.5,-222.5 233.5,-222.5"/>
<text text-anchor="start" x="240.5" y="-232.5" font-family="Noto Sans CJK KR" font-size="10.00">+ markDirty(statId)</text>
</g>
<!-- IStatOwner&#45;&gt;StatBlock -->
<g id="edge1" class="edge">
<title>IStatOwner&#45;&gt;StatBlock</title>
<path fill="none" stroke="#425466" d="M139.29,-323.5C139.29,-323.5 224.8,-323.5 224.8,-323.5"/>
<polygon fill="#425466" stroke="#425466" points="232.8,-323.5 224.8,-327.1 228.8,-323.5 224.8,-323.5 224.8,-323.5 224.8,-323.5 228.8,-323.5 224.8,-319.9 232.8,-323.5 232.8,-323.5"/>
<text text-anchor="middle" x="186" y="-326.5" font-family="Noto Sans CJK KR" font-size="10.00">1 owns 1</text>
</g>
<!-- StatInstance -->
<g id="node3" class="node">
<title>StatInstance</title>
<polygon fill="#e8f0fe" stroke="transparent" points="636.5,-537.5 636.5,-564.5 789.5,-564.5 789.5,-537.5 636.5,-537.5"/>
<polygon fill="none" stroke="#3b4a5a" points="636.5,-537.5 636.5,-564.5 789.5,-564.5 789.5,-537.5 636.5,-537.5"/>
<text text-anchor="start" x="676.5" y="-548.9" font-family="Noto Sans CJK KR" font-weight="bold" font-size="12.00">StatInstance</text>
<polygon fill="none" stroke="#3b4a5a" points="636.5,-512.5 636.5,-537.5 789.5,-537.5 789.5,-512.5 636.5,-512.5"/>
<text text-anchor="start" x="643.5" y="-522.5" font-family="Noto Sans CJK KR" font-size="10.00">&#45; definition: StatDefinition</text>
<polygon fill="none" stroke="#3b4a5a" points="636.5,-487.5 636.5,-512.5 789.5,-512.5 789.5,-487.5 636.5,-487.5"/>
<text text-anchor="start" x="643.5" y="-497.5" font-family="Noto Sans CJK KR" font-size="10.00">&#45; baseValue: decimal</text>
<polygon fill="none" stroke="#3b4a5a" points="636.5,-462.5 636.5,-487.5 789.5,-487.5 789.5,-462.5 636.5,-462.5"/>
<text text-anchor="start" x="643.5" y="-472.5" font-family="Noto Sans CJK KR" font-size="10.00">&#45; cachedValue: StatValue</text>
<polygon fill="none" stroke="#3b4a5a" points="636.5,-437.5 636.5,-462.5 789.5,-462.5 789.5,-437.5 636.5,-437.5"/>
<text text-anchor="start" x="643.5" y="-447.5" font-family="Noto Sans CJK KR" font-size="10.00">&#45; dirty: bool</text>
<polygon fill="none" stroke="#3b4a5a" points="636.5,-412.5 636.5,-437.5 789.5,-437.5 789.5,-412.5 636.5,-412.5"/>
<text text-anchor="start" x="643.5" y="-422.5" font-family="Noto Sans CJK KR" font-size="10.00">&#45; modifiers: List&lt;StatModifier&gt;</text>
<polygon fill="none" stroke="#3b4a5a" points="636.5,-387.5 636.5,-412.5 789.5,-412.5 789.5,-387.5 636.5,-387.5"/>
<text text-anchor="start" x="643.5" y="-397.5" font-family="Noto Sans CJK KR" font-size="10.00">+ evaluate(ctx): StatValue</text>
<polygon fill="none" stroke="#3b4a5a" points="636.5,-362.5 636.5,-387.5 789.5,-387.5 789.5,-362.5 636.5,-362.5"/>
<text text-anchor="start" x="643.5" y="-372.5" font-family="Noto Sans CJK KR" font-size="10.00">+ setBaseValue(value)</text>
<polygon fill="none" stroke="#3b4a5a" points="636.5,-337.5 636.5,-362.5 789.5,-362.5 789.5,-337.5 636.5,-337.5"/>
<text text-anchor="start" x="643.5" y="-347.5" font-family="Noto Sans CJK KR" font-size="10.00">+ addModifier(modifier)</text>
<polygon fill="none" stroke="#3b4a5a" points="636.5,-312.5 636.5,-337.5 789.5,-337.5 789.5,-312.5 636.5,-312.5"/>
<text text-anchor="start" x="643.5" y="-322.5" font-family="Noto Sans CJK KR" font-size="10.00">+ buildBreakdown(ctx)</text>
</g>
<!-- StatBlock&#45;&gt;StatInstance -->
<g id="edge2" class="edge">
<title>StatBlock&#45;&gt;StatInstance</title>
<path fill="none" stroke="#425466" d="M448.1,-368.5C448.1,-368.5 626.24,-368.5 626.24,-368.5"/>
<polygon fill="#425466" stroke="#425466" points="626.24,-368.5 631.04,-365.3 635.84,-368.5 631.04,-371.7 626.24,-368.5"/>
<text text-anchor="middle" x="524.5" y="-397.5" font-family="Noto Sans CJK KR" font-size="10.00">1 contains 0..*</text>
</g>
<!-- CalculationPipeline -->
<g id="node8" class="node">
<title>CalculationPipeline</title>
<polygon fill="#e0f7fa" stroke="transparent" points="601.5,-244.5 601.5,-271.5 824.5,-271.5 824.5,-244.5 601.5,-244.5"/>
<polygon fill="none" stroke="#3b4a5a" points="601.5,-244.5 601.5,-271.5 824.5,-271.5 824.5,-244.5 601.5,-244.5"/>
<text text-anchor="start" x="644" y="-255.9" font-family="Noto Sans CJK KR" font-weight="bold" font-size="12.00">StatCalculationPipeline</text>
<polygon fill="none" stroke="#3b4a5a" points="601.5,-219.5 601.5,-244.5 824.5,-244.5 824.5,-219.5 601.5,-219.5"/>
<text text-anchor="start" x="608.5" y="-229.5" font-family="Noto Sans CJK KR" font-size="10.00">&#45; phases: List&lt;CalculationPhase&gt;</text>
<polygon fill="none" stroke="#3b4a5a" points="601.5,-194.5 601.5,-219.5 824.5,-219.5 824.5,-194.5 601.5,-194.5"/>
<text text-anchor="start" x="608.5" y="-204.5" font-family="Noto Sans CJK KR" font-size="10.00">&#45; operationOrder: ModifierOperation[]</text>
<polygon fill="none" stroke="#3b4a5a" points="601.5,-169.5 601.5,-194.5 824.5,-194.5 824.5,-169.5 601.5,-169.5"/>
<text text-anchor="start" x="608.5" y="-179.5" font-family="Noto Sans CJK KR" font-size="10.00">+ calculate(base, modifiers, ctx): StatValue</text>
<polygon fill="none" stroke="#3b4a5a" points="601.5,-144.5 601.5,-169.5 824.5,-169.5 824.5,-144.5 601.5,-144.5"/>
<text text-anchor="start" x="608.5" y="-154.5" font-family="Noto Sans CJK KR" font-size="10.00">+ buildBreakdown(...): StatDebugBreakdown</text>
</g>
<!-- StatBlock&#45;&gt;CalculationPipeline -->
<g id="edge6" class="edge">
<title>StatBlock&#45;&gt;CalculationPipeline</title>
<path fill="none" stroke="#425466" d="M448.1,-247.25C448.1,-247.25 592.94,-247.25 592.94,-247.25"/>
<polygon fill="#425466" stroke="#425466" points="600.94,-247.25 592.94,-250.85 596.94,-247.25 592.94,-247.25 592.94,-247.25 592.94,-247.25 596.94,-247.25 592.94,-243.65 600.94,-247.25 600.94,-247.25"/>
<text text-anchor="middle" x="524.5" y="-298.5" font-family="Noto Sans CJK KR" font-size="10.00">delegates calculation</text>
</g>
<!-- StatDefinition -->
<g id="node4" class="node">
<title>StatDefinition</title>
<polygon fill="#fff3cd" stroke="transparent" points="952,-681.5 952,-708.5 1124,-708.5 1124,-681.5 952,-681.5"/>
<polygon fill="none" stroke="#3b4a5a" points="952,-681.5 952,-708.5 1124,-708.5 1124,-681.5 952,-681.5"/>
<text text-anchor="start" x="997" y="-692.9" font-family="Noto Sans CJK KR" font-weight="bold" font-size="12.00">StatDefinition</text>
<polygon fill="none" stroke="#3b4a5a" points="952,-656.5 952,-681.5 1124,-681.5 1124,-656.5 952,-656.5"/>
<text text-anchor="start" x="959" y="-666.5" font-family="Noto Sans CJK KR" font-size="10.00">+ id: StatId</text>
<polygon fill="none" stroke="#3b4a5a" points="952,-631.5 952,-656.5 1124,-656.5 1124,-631.5 952,-631.5"/>
<text text-anchor="start" x="959" y="-641.5" font-family="Noto Sans CJK KR" font-size="10.00">+ displayName: string</text>
<polygon fill="none" stroke="#3b4a5a" points="952,-606.5 952,-631.5 1124,-631.5 1124,-606.5 952,-606.5"/>
<text text-anchor="start" x="959" y="-616.5" font-family="Noto Sans CJK KR" font-size="10.00">+ valueType: StatValueType</text>
<polygon fill="none" stroke="#3b4a5a" points="952,-581.5 952,-606.5 1124,-606.5 1124,-581.5 952,-581.5"/>
<text text-anchor="start" x="959" y="-591.5" font-family="Noto Sans CJK KR" font-size="10.00">+ defaultValue: decimal</text>
<polygon fill="none" stroke="#3b4a5a" points="952,-556.5 952,-581.5 1124,-581.5 1124,-556.5 952,-556.5"/>
<text text-anchor="start" x="959" y="-566.5" font-family="Noto Sans CJK KR" font-size="10.00">+ min/max: decimal?</text>
<polygon fill="none" stroke="#3b4a5a" points="952,-531.5 952,-556.5 1124,-556.5 1124,-531.5 952,-531.5"/>
<text text-anchor="start" x="959" y="-541.5" font-family="Noto Sans CJK KR" font-size="10.00">+ roundingPolicy: RoundingPolicy</text>
<polygon fill="none" stroke="#3b4a5a" points="952,-506.5 952,-531.5 1124,-531.5 1124,-506.5 952,-506.5"/>
<text text-anchor="start" x="959" y="-516.5" font-family="Noto Sans CJK KR" font-size="10.00">+ validate(value): decimal</text>
<polygon fill="none" stroke="#3b4a5a" points="952,-481.5 952,-506.5 1124,-506.5 1124,-481.5 952,-481.5"/>
<text text-anchor="start" x="959" y="-491.5" font-family="Noto Sans CJK KR" font-size="10.00">+ format(value): string</text>
</g>
<!-- StatInstance&#45;&gt;StatDefinition -->
<g id="edge3" class="edge">
<title>StatInstance&#45;&gt;StatDefinition</title>
<path fill="none" stroke="#425466" d="M789.23,-523.25C789.23,-523.25 943.75,-523.25 943.75,-523.25"/>
<polygon fill="#425466" stroke="#425466" points="951.75,-523.25 943.75,-526.85 947.75,-523.25 943.75,-523.25 943.75,-523.25 943.75,-523.25 947.75,-523.25 943.75,-519.65 951.75,-523.25 951.75,-523.25"/>
<text text-anchor="middle" x="888" y="-598.5" font-family="Noto Sans CJK KR" font-size="10.00">1 uses 1</text>
</g>
<!-- StatModifier -->
<g id="node5" class="node">
<title>StatModifier</title>
<polygon fill="#dff7e4" stroke="transparent" points="960,-414.5 960,-441.5 1117,-441.5 1117,-414.5 960,-414.5"/>
<polygon fill="none" stroke="#3b4a5a" points="960,-414.5 960,-441.5 1117,-441.5 1117,-414.5 960,-414.5"/>
<text text-anchor="start" x="1002" y="-425.9" font-family="Noto Sans CJK KR" font-weight="bold" font-size="12.00">StatModifier</text>
<polygon fill="none" stroke="#3b4a5a" points="960,-389.5 960,-414.5 1117,-414.5 1117,-389.5 960,-389.5"/>
<text text-anchor="start" x="967" y="-399.5" font-family="Noto Sans CJK KR" font-size="10.00">+ id: ModifierId</text>
<polygon fill="none" stroke="#3b4a5a" points="960,-364.5 960,-389.5 1117,-389.5 1117,-364.5 960,-364.5"/>
<text text-anchor="start" x="967" y="-374.5" font-family="Noto Sans CJK KR" font-size="10.00">+ targetStat: StatId</text>
<polygon fill="none" stroke="#3b4a5a" points="960,-339.5 960,-364.5 1117,-364.5 1117,-339.5 960,-339.5"/>
<text text-anchor="start" x="967" y="-349.5" font-family="Noto Sans CJK KR" font-size="10.00">+ operation: ModifierOperation</text>
<polygon fill="none" stroke="#3b4a5a" points="960,-314.5 960,-339.5 1117,-339.5 1117,-314.5 960,-314.5"/>
<text text-anchor="start" x="967" y="-324.5" font-family="Noto Sans CJK KR" font-size="10.00">+ value: decimal</text>
<polygon fill="none" stroke="#3b4a5a" points="960,-289.5 960,-314.5 1117,-314.5 1117,-289.5 960,-289.5"/>
<text text-anchor="start" x="967" y="-299.5" font-family="Noto Sans CJK KR" font-size="10.00">+ source: ModifierSource</text>
<polygon fill="none" stroke="#3b4a5a" points="960,-264.5 960,-289.5 1117,-289.5 1117,-264.5 960,-264.5"/>
<text text-anchor="start" x="967" y="-274.5" font-family="Noto Sans CJK KR" font-size="10.00">+ priority: int</text>
<polygon fill="none" stroke="#3b4a5a" points="960,-239.5 960,-264.5 1117,-264.5 1117,-239.5 960,-239.5"/>
<text text-anchor="start" x="967" y="-249.5" font-family="Noto Sans CJK KR" font-size="10.00">+ duration: Duration?</text>
<polygon fill="none" stroke="#3b4a5a" points="960,-214.5 960,-239.5 1117,-239.5 1117,-214.5 960,-214.5"/>
<text text-anchor="start" x="967" y="-224.5" font-family="Noto Sans CJK KR" font-size="10.00">+ stackRule: StackRule</text>
<polygon fill="none" stroke="#3b4a5a" points="960,-189.5 960,-214.5 1117,-214.5 1117,-189.5 960,-189.5"/>
<text text-anchor="start" x="967" y="-199.5" font-family="Noto Sans CJK KR" font-size="10.00">+ isActive(now): bool</text>
<polygon fill="none" stroke="#3b4a5a" points="960,-164.5 960,-189.5 1117,-189.5 1117,-164.5 960,-164.5"/>
<text text-anchor="start" x="967" y="-174.5" font-family="Noto Sans CJK KR" font-size="10.00">+ canApply(ctx): bool</text>
</g>
<!-- StatInstance&#45;&gt;StatModifier -->
<g id="edge4" class="edge">
<title>StatInstance&#45;&gt;StatModifier</title>
<path fill="none" stroke="#425466" d="M789.23,-377.25C789.23,-377.25 949.64,-377.25 949.64,-377.25"/>
<polygon fill="#425466" stroke="#425466" points="949.64,-377.25 954.44,-374.05 959.24,-377.25 954.44,-380.45 949.64,-377.25"/>
<text text-anchor="middle" x="888" y="-351.5" font-family="Noto Sans CJK KR" font-size="10.00">0..* applied</text>
</g>
<!-- StatContext -->
<g id="node6" class="node">
<title>StatContext</title>
<polygon fill="#fce8e6" stroke="transparent" points="1244,-199.5 1244,-226.5 1376,-226.5 1376,-199.5 1244,-199.5"/>
<polygon fill="none" stroke="#3b4a5a" points="1244,-199.5 1244,-226.5 1376,-226.5 1376,-199.5 1244,-199.5"/>
<text text-anchor="start" x="1275.5" y="-210.9" font-family="Noto Sans CJK KR" font-weight="bold" font-size="12.00">StatContext</text>
<polygon fill="none" stroke="#3b4a5a" points="1244,-174.5 1244,-199.5 1376,-199.5 1376,-174.5 1244,-174.5"/>
<text text-anchor="start" x="1251" y="-184.5" font-family="Noto Sans CJK KR" font-size="10.00">+ owner: EntityId</text>
<polygon fill="none" stroke="#3b4a5a" points="1244,-149.5 1244,-174.5 1376,-174.5 1376,-149.5 1244,-149.5"/>
<text text-anchor="start" x="1251" y="-159.5" font-family="Noto Sans CJK KR" font-size="10.00">+ target: EntityId?</text>
<polygon fill="none" stroke="#3b4a5a" points="1244,-124.5 1244,-149.5 1376,-149.5 1376,-124.5 1244,-124.5"/>
<text text-anchor="start" x="1251" y="-134.5" font-family="Noto Sans CJK KR" font-size="10.00">+ skillId: SkillId?</text>
<polygon fill="none" stroke="#3b4a5a" points="1244,-99.5 1244,-124.5 1376,-124.5 1376,-99.5 1244,-99.5"/>
<text text-anchor="start" x="1251" y="-109.5" font-family="Noto Sans CJK KR" font-size="10.00">+ tags: TagSet</text>
<polygon fill="none" stroke="#3b4a5a" points="1244,-74.5 1244,-99.5 1376,-99.5 1376,-74.5 1244,-74.5"/>
<text text-anchor="start" x="1251" y="-84.5" font-family="Noto Sans CJK KR" font-size="10.00">+ moment: GameMoment</text>
<polygon fill="none" stroke="#3b4a5a" points="1244,-49.5 1244,-74.5 1376,-74.5 1376,-49.5 1244,-49.5"/>
<text text-anchor="start" x="1251" y="-59.5" font-family="Noto Sans CJK KR" font-size="10.00">+ custom: Map</text>
<polygon fill="none" stroke="#3b4a5a" points="1244,-24.5 1244,-49.5 1376,-49.5 1376,-24.5 1244,-24.5"/>
<text text-anchor="start" x="1251" y="-34.5" font-family="Noto Sans CJK KR" font-size="10.00">+ hasTag(tag): bool</text>
<polygon fill="none" stroke="#3b4a5a" points="1244,0.5 1244,-24.5 1376,-24.5 1376,0.5 1244,0.5"/>
<text text-anchor="start" x="1251" y="-9.5" font-family="Noto Sans CJK KR" font-size="10.00">+ get(key): object?</text>
</g>
<!-- StatModifier&#45;&gt;StatContext -->
<g id="edge8" class="edge">
<title>StatModifier&#45;&gt;StatContext</title>
<path fill="none" stroke="#425466" d="M1116.67,-196C1116.67,-196 1235.91,-196 1235.91,-196"/>
<polygon fill="#425466" stroke="#425466" points="1243.91,-196 1235.91,-199.6 1239.91,-196 1235.91,-196 1235.91,-196 1235.91,-196 1239.91,-196 1235.91,-192.4 1243.91,-196 1243.91,-196"/>
<text text-anchor="middle" x="1184" y="-220.5" font-family="Noto Sans CJK KR" font-size="10.00">canApply(ctx)</text>
</g>
<!-- IModifierCondition -->
<g id="node7" class="node">
<title>IModifierCondition</title>
<polygon fill="#f7f7f7" stroke="transparent" points="1247,-317.5 1247,-355.5 1373,-355.5 1373,-317.5 1247,-317.5"/>
<polygon fill="none" stroke="#3b4a5a" points="1247,-317.5 1247,-355.5 1373,-355.5 1373,-317.5 1247,-317.5"/>
<text text-anchor="start" x="1271.5" y="-339.9" font-family="Noto Sans CJK KR" font-size="12.00">&lt;&lt;interface&gt;&gt;</text>
<text text-anchor="start" x="1254" y="-327.9" font-family="Noto Sans CJK KR" font-weight="bold" font-size="12.00">IModifierCondition</text>
<polygon fill="none" stroke="#3b4a5a" points="1247,-292.5 1247,-317.5 1373,-317.5 1373,-292.5 1247,-292.5"/>
<text text-anchor="start" x="1254" y="-302.5" font-family="Noto Sans CJK KR" font-size="10.00">+ id: ConditionId</text>
<polygon fill="none" stroke="#3b4a5a" points="1247,-267.5 1247,-292.5 1373,-292.5 1373,-267.5 1247,-267.5"/>
<text text-anchor="start" x="1254" y="-277.5" font-family="Noto Sans CJK KR" font-size="10.00">+ evaluate(ctx): bool</text>
</g>
<!-- StatModifier&#45;&gt;IModifierCondition -->
<g id="edge5" class="edge">
<title>StatModifier&#45;&gt;IModifierCondition</title>
<path fill="none" stroke="#425466" d="M1116.67,-311.5C1116.67,-311.5 1238.58,-311.5 1238.58,-311.5"/>
<polygon fill="#425466" stroke="#425466" points="1246.58,-311.5 1238.58,-315.1 1242.58,-311.5 1238.58,-311.5 1238.58,-311.5 1238.58,-311.5 1242.58,-311.5 1238.58,-307.9 1246.58,-311.5 1246.58,-311.5"/>
<text text-anchor="middle" x="1184" y="-314.5" font-family="Noto Sans CJK KR" font-size="10.00">0..* conditions</text>
</g>
<!-- CalculationPipeline&#45;&gt;StatModifier -->
<g id="edge9" class="edge">
<title>CalculationPipeline&#45;&gt;StatModifier</title>
<path fill="none" stroke="#425466" d="M824.06,-218.5C824.06,-218.5 951.42,-218.5 951.42,-218.5"/>
<polygon fill="#425466" stroke="#425466" points="959.42,-218.5 951.42,-222.1 955.42,-218.5 951.42,-218.5 951.42,-218.5 951.42,-218.5 955.42,-218.5 951.42,-214.9 959.42,-218.5 959.42,-218.5"/>
<text text-anchor="middle" x="888" y="-261.5" font-family="Noto Sans CJK KR" font-size="10.00">sort/filter/apply</text>
</g>
<!-- CalculationPipeline&#45;&gt;StatContext -->
<g id="edge7" class="edge">
<title>CalculationPipeline&#45;&gt;StatContext</title>
<path fill="none" stroke="#425466" d="M824.18,-155C824.18,-155 1235.76,-155 1235.76,-155"/>
<polygon fill="#425466" stroke="#425466" points="1243.76,-155 1235.76,-158.6 1239.76,-155 1235.76,-155 1235.76,-155 1235.76,-155 1239.76,-155 1235.76,-151.4 1243.76,-155 1243.76,-155"/>
<text text-anchor="middle" x="1038" y="-116.5" font-family="Noto Sans CJK KR" font-size="10.00">reads context</text>
</g>
</g>
</svg>
