<?xml version="1.0" encoding="UTF-8" standalone="no"?>
<!DOCTYPE svg PUBLIC "-//W3C//DTD SVG 1.1//EN"
 "http://www.w3.org/Graphics/SVG/1.1/DTD/svg11.dtd">
<!-- Generated by graphviz version 15.1.0 (20260618.0150)
 -->
<!-- Title: CoreClassDiagram Pages: 1 -->
<svg width="2172pt" height="1100pt"
 viewBox="0.00 0.00 2172.00 1100.00" xmlns="http://www.w3.org/2000/svg" xmlns:xlink="http://www.w3.org/1999/xlink">
<g id="graph0" class="graph" transform="scale(1.33333 1.33333) rotate(0) translate(4 820.75)">
<title>CoreClassDiagram</title>
<polygon fill="white" stroke="none" points="-4,4 -4,-820.75 1625.25,-820.75 1625.25,4 -4,4"/>
<text xml:space="preserve" text-anchor="middle" x="810.62" y="-795.65" font-family="Noto Sans KR" font-size="18.00">UML Class Diagram 1 &#45; Stat System Core</text>
<!-- IStatOwner&#45;&gt;StatBlock -->
<g id="edge1" class="edge">
<title>IStatOwner:e&#45;&gt;StatBlock:w</title>
<path fill="none" stroke="#5b6f8f" stroke-width="1.2" d="M129.5,-342.5C129.5,-342.5 237.46,-342.5 270.35,-342.5"/>
<polygon fill="#5b6f8f" stroke="#5b6f8f" stroke-width="1.2" points="278.29,-342.5 270.29,-346.1 275.75,-342.6 270.29,-342.6 270.29,-342.5 270.29,-342.4 275.75,-342.4 270.29,-338.9 278.29,-342.5"/>
<text xml:space="preserve" text-anchor="middle" x="204.62" y="-345.2" font-family="Noto Sans KR" font-size="9.00">owns StatBlock (1)</text>
</g>
<!-- StatBlock&#45;&gt;StatInstance -->
<g id="edge2" class="edge">
<title>StatBlock:e&#45;&gt;StatInstance:w</title>
<path fill="none" stroke="#5b6f8f" stroke-width="1.2" d="M485.75,-342.5C485.75,-342.5 650.33,-370.32 694.05,-377.72"/>
<polygon fill="#5b6f8f" stroke="#5b6f8f" stroke-width="1.2" points="694.08,-377.72 699.34,-375.36 703.54,-379.32 698.28,-381.67 694.08,-377.72"/>
<text xml:space="preserve" text-anchor="middle" x="576.25" y="-369.18" font-family="Noto Sans KR" font-size="9.00">contains StatInstance (0..*)</text>
</g>
<!-- StatBlock&#45;&gt;CalculationPipeline -->
<g id="edge6" class="edge">
<title>StatBlock:s&#45;&gt;CalculationPipeline:w</title>
<path fill="none" stroke="#397b8c" stroke-width="1.2" d="M382.75,-233.48C382.75,-233.48 610,-146.28 657.94,-127.88"/>
<polygon fill="#397b8c" stroke="#397b8c" stroke-width="1.2" points="665.38,-125.02 659.21,-131.25 663.05,-126.03 657.95,-127.98 657.92,-127.89 657.88,-127.8 662.98,-125.84 656.63,-124.53 665.38,-125.02"/>
<text xml:space="preserve" text-anchor="middle" x="576.25" y="-181.69" font-family="Noto Sans KR" font-size="9.00">delegates value calculation</text>
</g>
<!-- StatInstance&#45;&gt;StatDefinition -->
<g id="edge3" class="edge">
<title>StatInstance:ne&#45;&gt;StatDefinition:w</title>
<path fill="none" stroke="#8a6d3b" stroke-width="1.2" d="M847.89,-451.14C847.89,-451.14 848.89,-514.38 848.89,-514.38 848.89,-514.38 1023.11,-633.72 1061.91,-660.3"/>
<polygon fill="#8a6d3b" stroke="#8a6d3b" stroke-width="1.2" points="1068.29,-664.67 1059.66,-663.12 1066.14,-663.32 1061.64,-660.23 1061.69,-660.15 1061.75,-660.07 1066.26,-663.16 1063.73,-657.18 1068.29,-664.67"/>
<text xml:space="preserve" text-anchor="middle" x="978.62" y="-640.84" font-family="Noto Sans KR" font-size="9.00">uses definition (1)</text>
</g>
<!-- StatInstance&#45;&gt;StatModifier -->
<g id="edge4" class="edge">
<title>StatInstance:e&#45;&gt;StatModifier:w</title>
<path fill="none" stroke="#3d8b6d" stroke-width="1.2" d="M849.89,-379.5C849.89,-379.5 1020.81,-352.31 1065.54,-345.19"/>
<polygon fill="#3d8b6d" stroke="#3d8b6d" stroke-width="1.2" points="1065.6,-345.18 1069.83,-341.26 1075.08,-343.67 1070.84,-347.58 1065.6,-345.18"/>
<text xml:space="preserve" text-anchor="middle" x="978.62" y="-369.53" font-family="Noto Sans KR" font-size="9.00">holds active modifiers (0..*)</text>
</g>
<!-- StatModifier&#45;&gt;StatContext -->
<g id="edge8" class="edge">
<title>StatModifier:se&#45;&gt;StatContext:nw</title>
<path fill="none" stroke="#8292a8" stroke-width="1.2" stroke-dasharray="5,2" d="M1228.35,-268.4C1228.35,-268.4 1359.81,-239.53 1395.76,-231.64"/>
<polygon fill="#8292a8" stroke="#8292a8" stroke-width="1.2" points="1403.32,-229.97 1396.28,-235.21 1400.86,-230.62 1395.53,-231.79 1395.51,-231.69 1395.49,-231.59 1400.82,-230.42 1394.74,-228.17 1403.32,-229.97"/>
<text xml:space="preserve" text-anchor="middle" x="1319.88" y="-260.71" font-family="Noto Sans KR" font-size="9.00">evaluates CanApply(ctx)</text>
</g>
<!-- StatModifier&#45;&gt;IModifierCondition -->
<g id="edge5" class="edge">
<title>StatModifier:e&#45;&gt;IModifierCondition:w</title>
<path fill="none" stroke="#7257a6" stroke-width="1.2" d="M1228.35,-343.5C1228.35,-343.5 1404.73,-343.5 1447.44,-343.5"/>
<polygon fill="#7257a6" stroke="#7257a6" stroke-width="1.2" points="1455.22,-343.5 1447.22,-347.1 1452.68,-343.6 1447.22,-343.6 1447.22,-343.5 1447.22,-343.4 1452.68,-343.4 1447.22,-339.9 1455.22,-343.5"/>
<text xml:space="preserve" text-anchor="middle" x="1319.88" y="-346.2" font-family="Noto Sans KR" font-size="9.00">checks conditions (0..*)</text>
</g>
<!-- CalculationPipeline&#45;&gt;StatModifier -->
<g id="edge9" class="edge">
<title>CalculationPipeline:n&#45;&gt;StatModifier:s</title>
<path fill="none" stroke="#3d8b6d" stroke-width="1.2" stroke-dasharray="5,2" d="M777.25,-193.11C777.25,-193.11 1085.23,-194.16 1142.98,-194.36"/>
<polygon fill="#3d8b6d" stroke="#3d8b6d" stroke-width="1.2" points="1150.79,-194.39 1142.78,-197.96 1148.25,-194.48 1142.79,-194.46 1142.79,-194.36 1142.79,-194.26 1148.25,-194.28 1142.8,-190.76 1150.79,-194.39"/>
<text xml:space="preserve" text-anchor="middle" x="978.62" y="-196.67" font-family="Noto Sans KR" font-size="9.00">collects, sorts, applies</text>
</g>
<!-- CalculationPipeline&#45;&gt;StatContext -->
<g id="edge7" class="edge">
<title>CalculationPipeline:e&#45;&gt;StatContext:w</title>
<path fill="none" stroke="#8292a8" stroke-width="1.2" stroke-dasharray="5,2" d="M887.75,-124.5C887.75,-124.5 1325.26,-121.96 1395.34,-121.55"/>
<polygon fill="#8292a8" stroke="#8292a8" stroke-width="1.2" points="1403.29,-121.51 1395.31,-125.15 1400.75,-121.62 1395.29,-121.66 1395.29,-121.56 1395.29,-121.46 1400.75,-121.42 1395.27,-117.96 1403.29,-121.51"/>
<text xml:space="preserve" text-anchor="middle" x="1152.25" y="-126.14" font-family="Noto Sans KR" font-size="9.00">reads query context</text>
</g>
<!-- IStatOwner -->
<g id="node1" class="node">
<title>IStatOwner</title>
<polygon fill="#f7f7f7" stroke="none" points="0,-363.62 0,-401.62 129.5,-401.62 129.5,-363.62 0,-363.62"/>
<polygon fill="none" stroke="#3b4a5a" points="0,-363.62 0,-401.62 129.5,-401.62 129.5,-363.62 0,-363.62"/>
<text xml:space="preserve" text-anchor="start" x="30.25" y="-384.23" font-family="Noto Sans KR" font-size="12.00">&lt;&lt;interface&gt;&gt;</text>
<text xml:space="preserve" text-anchor="start" x="36.25" y="-372.23" font-family="Noto Sans KR" font-weight="bold" font-size="12.00">IStatOwner</text>
<polygon fill="none" stroke="#3b4a5a" points="0,-336.88 0,-363.62 129.5,-363.62 129.5,-336.88 0,-336.88"/>
<text xml:space="preserve" text-anchor="start" x="7" y="-346.12" font-family="Noto Sans KR" font-size="10.00">+ OwnerId: EntityId</text>
<polygon fill="none" stroke="#3b4a5a" points="0,-310.12 0,-336.88 129.5,-336.88 129.5,-310.12 0,-310.12"/>
<text xml:space="preserve" text-anchor="start" x="7" y="-319.38" font-family="Noto Sans KR" font-size="10.00">+ Tags: TagSet</text>
<polygon fill="none" stroke="#3b4a5a" points="0,-283.38 0,-310.12 129.5,-310.12 129.5,-283.38 0,-283.38"/>
<text xml:space="preserve" text-anchor="start" x="7" y="-292.62" font-family="Noto Sans KR" font-size="10.00">+ GetStatBlock(): StatBlock</text>
</g>
<!-- StatBlock -->
<g id="node2" class="node">
<title>StatBlock</title>
<polygon fill="#e8f0fe" stroke="none" points="279.75,-421.62 279.75,-450.62 485.75,-450.62 485.75,-421.62 279.75,-421.62"/>
<polygon fill="none" stroke="#3b4a5a" points="279.75,-421.62 279.75,-450.62 485.75,-450.62 485.75,-421.62 279.75,-421.62"/>
<text xml:space="preserve" text-anchor="start" x="358" y="-433.23" font-family="Noto Sans KR" font-weight="bold" font-size="12.00">StatBlock</text>
<polygon fill="none" stroke="#3b4a5a" points="279.75,-394.88 279.75,-421.62 485.75,-421.62 485.75,-394.88 279.75,-394.88"/>
<text xml:space="preserve" text-anchor="start" x="286.75" y="-404.12" font-family="Noto Sans KR" font-size="10.00">&#45; ownerId: EntityId</text>
<polygon fill="none" stroke="#3b4a5a" points="279.75,-368.12 279.75,-394.88 485.75,-394.88 485.75,-368.12 279.75,-368.12"/>
<text xml:space="preserve" text-anchor="start" x="286.75" y="-377.38" font-family="Noto Sans KR" font-size="10.00">&#45; stats: Dictionary&lt;StatId, StatInstance&gt;</text>
<polygon fill="none" stroke="#3b4a5a" points="279.75,-341.38 279.75,-368.12 485.75,-368.12 485.75,-341.38 279.75,-341.38"/>
<text xml:space="preserve" text-anchor="start" x="286.75" y="-350.62" font-family="Noto Sans KR" font-size="10.00">&#45; dependencyGraph: StatDependencyGraph</text>
<polygon fill="none" stroke="#3b4a5a" points="279.75,-314.62 279.75,-341.38 485.75,-341.38 485.75,-314.62 279.75,-314.62"/>
<text xml:space="preserve" text-anchor="start" x="286.75" y="-323.88" font-family="Noto Sans KR" font-size="10.00">+ GetValue(statId, ctx): StatValue</text>
<polygon fill="none" stroke="#3b4a5a" points="279.75,-287.88 279.75,-314.62 485.75,-314.62 485.75,-287.88 279.75,-287.88"/>
<text xml:space="preserve" text-anchor="start" x="286.75" y="-297.12" font-family="Noto Sans KR" font-size="10.00">+ AddModifier(modifier)</text>
<polygon fill="none" stroke="#3b4a5a" points="279.75,-261.12 279.75,-287.88 485.75,-287.88 485.75,-261.12 279.75,-261.12"/>
<text xml:space="preserve" text-anchor="start" x="286.75" y="-270.38" font-family="Noto Sans KR" font-size="10.00">+ RemoveBySource(sourceId)</text>
<polygon fill="none" stroke="#3b4a5a" points="279.75,-234.38 279.75,-261.12 485.75,-261.12 485.75,-234.38 279.75,-234.38"/>
<text xml:space="preserve" text-anchor="start" x="286.75" y="-243.62" font-family="Noto Sans KR" font-size="10.00">+ MarkDirty(statId)</text>
</g>
<!-- StatInstance -->
<g id="node3" class="node">
<title>StatInstance</title>
<polygon fill="#e8f0fe" stroke="none" points="705.38,-485.38 705.38,-514.38 849.12,-514.38 849.12,-485.38 705.38,-485.38"/>
<polygon fill="none" stroke="#3b4a5a" points="705.38,-485.38 705.38,-514.38 849.12,-514.38 849.12,-485.38 705.38,-485.38"/>
<text xml:space="preserve" text-anchor="start" x="745" y="-496.98" font-family="Noto Sans KR" font-weight="bold" font-size="12.00">StatInstance</text>
<polygon fill="none" stroke="#3b4a5a" points="705.38,-458.62 705.38,-485.38 849.12,-485.38 849.12,-458.62 705.38,-458.62"/>
<text xml:space="preserve" text-anchor="start" x="712.38" y="-467.88" font-family="Noto Sans KR" font-size="10.00">&#45; definition: StatDefinition</text>
<polygon fill="none" stroke="#3b4a5a" points="705.38,-431.88 705.38,-458.62 849.12,-458.62 849.12,-431.88 705.38,-431.88"/>
<text xml:space="preserve" text-anchor="start" x="712.38" y="-441.12" font-family="Noto Sans KR" font-size="10.00">&#45; baseValue: decimal</text>
<polygon fill="none" stroke="#3b4a5a" points="705.38,-405.12 705.38,-431.88 849.12,-431.88 849.12,-405.12 705.38,-405.12"/>
<text xml:space="preserve" text-anchor="start" x="712.38" y="-414.38" font-family="Noto Sans KR" font-size="10.00">&#45; cachedValue: StatValue</text>
<polygon fill="none" stroke="#3b4a5a" points="705.38,-378.38 705.38,-405.12 849.12,-405.12 849.12,-378.38 705.38,-378.38"/>
<text xml:space="preserve" text-anchor="start" x="712.38" y="-387.62" font-family="Noto Sans KR" font-size="10.00">&#45; dirty: bool</text>
<polygon fill="none" stroke="#3b4a5a" points="705.38,-351.62 705.38,-378.38 849.12,-378.38 849.12,-351.62 705.38,-351.62"/>
<text xml:space="preserve" text-anchor="start" x="712.38" y="-360.88" font-family="Noto Sans KR" font-size="10.00">&#45; modifiers: List&lt;StatModifier&gt;</text>
<polygon fill="none" stroke="#3b4a5a" points="705.38,-324.88 705.38,-351.62 849.12,-351.62 849.12,-324.88 705.38,-324.88"/>
<text xml:space="preserve" text-anchor="start" x="712.38" y="-334.12" font-family="Noto Sans KR" font-size="10.00">+ Evaluate(ctx): StatValue</text>
<polygon fill="none" stroke="#3b4a5a" points="705.38,-298.12 705.38,-324.88 849.12,-324.88 849.12,-298.12 705.38,-298.12"/>
<text xml:space="preserve" text-anchor="start" x="712.38" y="-307.38" font-family="Noto Sans KR" font-size="10.00">+ SetBaseValue(value)</text>
<polygon fill="none" stroke="#3b4a5a" points="705.38,-271.38 705.38,-298.12 849.12,-298.12 849.12,-271.38 705.38,-271.38"/>
<text xml:space="preserve" text-anchor="start" x="712.38" y="-280.62" font-family="Noto Sans KR" font-size="10.00">+ AddModifier(modifier)</text>
<polygon fill="none" stroke="#3b4a5a" points="705.38,-244.62 705.38,-271.38 849.12,-271.38 849.12,-244.62 705.38,-244.62"/>
<text xml:space="preserve" text-anchor="start" x="712.38" y="-253.88" font-family="Noto Sans KR" font-size="10.00">+ BuildBreakdown(ctx)</text>
</g>
<!-- StatDefinition -->
<g id="node4" class="node">
<title>StatDefinition</title>
<polygon fill="#fff3cd" stroke="none" points="1069.5,-758 1069.5,-787 1235,-787 1235,-758 1069.5,-758"/>
<polygon fill="none" stroke="#3b4a5a" points="1069.5,-758 1069.5,-787 1235,-787 1235,-758 1069.5,-758"/>
<text xml:space="preserve" text-anchor="start" x="1117" y="-769.6" font-family="Noto Sans KR" font-weight="bold" font-size="12.00">StatDefinition</text>
<polygon fill="none" stroke="#3b4a5a" points="1069.5,-731.25 1069.5,-758 1235,-758 1235,-731.25 1069.5,-731.25"/>
<text xml:space="preserve" text-anchor="start" x="1076.5" y="-740.5" font-family="Noto Sans KR" font-size="10.00">+ Id: StatId</text>
<polygon fill="none" stroke="#3b4a5a" points="1069.5,-704.5 1069.5,-731.25 1235,-731.25 1235,-704.5 1069.5,-704.5"/>
<text xml:space="preserve" text-anchor="start" x="1076.5" y="-713.75" font-family="Noto Sans KR" font-size="10.00">+ DisplayName: string</text>
<polygon fill="none" stroke="#3b4a5a" points="1069.5,-677.75 1069.5,-704.5 1235,-704.5 1235,-677.75 1069.5,-677.75"/>
<text xml:space="preserve" text-anchor="start" x="1076.5" y="-687" font-family="Noto Sans KR" font-size="10.00">+ ValueType: StatValueType</text>
<polygon fill="none" stroke="#3b4a5a" points="1069.5,-651 1069.5,-677.75 1235,-677.75 1235,-651 1069.5,-651"/>
<text xml:space="preserve" text-anchor="start" x="1076.5" y="-660.25" font-family="Noto Sans KR" font-size="10.00">+ DefaultValue: decimal</text>
<polygon fill="none" stroke="#3b4a5a" points="1069.5,-624.25 1069.5,-651 1235,-651 1235,-624.25 1069.5,-624.25"/>
<text xml:space="preserve" text-anchor="start" x="1076.5" y="-633.5" font-family="Noto Sans KR" font-size="10.00">+ Min/Max: decimal?</text>
<polygon fill="none" stroke="#3b4a5a" points="1069.5,-597.5 1069.5,-624.25 1235,-624.25 1235,-597.5 1069.5,-597.5"/>
<text xml:space="preserve" text-anchor="start" x="1076.5" y="-606.75" font-family="Noto Sans KR" font-size="10.00">+ RoundingPolicy: RoundingPolicy</text>
<polygon fill="none" stroke="#3b4a5a" points="1069.5,-570.75 1069.5,-597.5 1235,-597.5 1235,-570.75 1069.5,-570.75"/>
<text xml:space="preserve" text-anchor="start" x="1076.5" y="-580" font-family="Noto Sans KR" font-size="10.00">+ Validate(value): decimal</text>
<polygon fill="none" stroke="#3b4a5a" points="1069.5,-544 1069.5,-570.75 1235,-570.75 1235,-544 1069.5,-544"/>
<text xml:space="preserve" text-anchor="start" x="1076.5" y="-553.25" font-family="Noto Sans KR" font-size="10.00">+ Format(value): string</text>
</g>
<!-- StatModifier -->
<g id="node5" class="node">
<title>StatModifier</title>
<polygon fill="#dff7e4" stroke="none" points="1077,-462.75 1077,-491.75 1227.5,-491.75 1227.5,-462.75 1077,-462.75"/>
<polygon fill="none" stroke="#3b4a5a" points="1077,-462.75 1077,-491.75 1227.5,-491.75 1227.5,-462.75 1077,-462.75"/>
<text xml:space="preserve" text-anchor="start" x="1121.12" y="-474.35" font-family="Noto Sans KR" font-weight="bold" font-size="12.00">StatModifier</text>
<polygon fill="none" stroke="#3b4a5a" points="1077,-436 1077,-462.75 1227.5,-462.75 1227.5,-436 1077,-436"/>
<text xml:space="preserve" text-anchor="start" x="1084" y="-445.25" font-family="Noto Sans KR" font-size="10.00">+ Id: ModifierId</text>
<polygon fill="none" stroke="#3b4a5a" points="1077,-409.25 1077,-436 1227.5,-436 1227.5,-409.25 1077,-409.25"/>
<text xml:space="preserve" text-anchor="start" x="1084" y="-418.5" font-family="Noto Sans KR" font-size="10.00">+ TargetStat: StatId</text>
<polygon fill="none" stroke="#3b4a5a" points="1077,-382.5 1077,-409.25 1227.5,-409.25 1227.5,-382.5 1077,-382.5"/>
<text xml:space="preserve" text-anchor="start" x="1084" y="-391.75" font-family="Noto Sans KR" font-size="10.00">+ Operation: ModifierOperation</text>
<polygon fill="none" stroke="#3b4a5a" points="1077,-355.75 1077,-382.5 1227.5,-382.5 1227.5,-355.75 1077,-355.75"/>
<text xml:space="preserve" text-anchor="start" x="1084" y="-365" font-family="Noto Sans KR" font-size="10.00">+ Value: decimal</text>
<polygon fill="none" stroke="#3b4a5a" points="1077,-329 1077,-355.75 1227.5,-355.75 1227.5,-329 1077,-329"/>
<text xml:space="preserve" text-anchor="start" x="1084" y="-338.25" font-family="Noto Sans KR" font-size="10.00">+ Source: ModifierSource</text>
<polygon fill="none" stroke="#3b4a5a" points="1077,-302.25 1077,-329 1227.5,-329 1227.5,-302.25 1077,-302.25"/>
<text xml:space="preserve" text-anchor="start" x="1084" y="-311.5" font-family="Noto Sans KR" font-size="10.00">+ Priority: int</text>
<polygon fill="none" stroke="#3b4a5a" points="1077,-275.5 1077,-302.25 1227.5,-302.25 1227.5,-275.5 1077,-275.5"/>
<text xml:space="preserve" text-anchor="start" x="1084" y="-284.75" font-family="Noto Sans KR" font-size="10.00">+ Duration: Duration?</text>
<polygon fill="none" stroke="#3b4a5a" points="1077,-248.75 1077,-275.5 1227.5,-275.5 1227.5,-248.75 1077,-248.75"/>
<text xml:space="preserve" text-anchor="start" x="1084" y="-258" font-family="Noto Sans KR" font-size="10.00">+ StackRule: StackRule</text>
<polygon fill="none" stroke="#3b4a5a" points="1077,-222 1077,-248.75 1227.5,-248.75 1227.5,-222 1077,-222"/>
<text xml:space="preserve" text-anchor="start" x="1084" y="-231.25" font-family="Noto Sans KR" font-size="10.00">+ IsActive(now): bool</text>
<polygon fill="none" stroke="#3b4a5a" points="1077,-195.25 1077,-222 1227.5,-222 1227.5,-195.25 1077,-195.25"/>
<text xml:space="preserve" text-anchor="start" x="1084" y="-204.5" font-family="Noto Sans KR" font-size="10.00">+ CanApply(ctx): bool</text>
</g>
<!-- StatContext -->
<g id="node6" class="node">
<title>StatContext</title>
<polygon fill="#fce8e6" stroke="none" points="1404.75,-214 1404.75,-243 1621.25,-243 1621.25,-214 1404.75,-214"/>
<polygon fill="none" stroke="#3b4a5a" points="1404.75,-214 1404.75,-243 1621.25,-243 1621.25,-214 1404.75,-214"/>
<text xml:space="preserve" text-anchor="start" x="1483" y="-225.6" font-family="Noto Sans KR" font-weight="bold" font-size="12.00">StatContext</text>
<polygon fill="none" stroke="#3b4a5a" points="1404.75,-187.25 1404.75,-214 1621.25,-214 1621.25,-187.25 1404.75,-187.25"/>
<text xml:space="preserve" text-anchor="start" x="1411.75" y="-196.5" font-family="Noto Sans KR" font-size="10.00">+ Owner: EntityId</text>
<polygon fill="none" stroke="#3b4a5a" points="1404.75,-160.5 1404.75,-187.25 1621.25,-187.25 1621.25,-160.5 1404.75,-160.5"/>
<text xml:space="preserve" text-anchor="start" x="1411.75" y="-169.75" font-family="Noto Sans KR" font-size="10.00">+ Target: EntityId?</text>
<polygon fill="none" stroke="#3b4a5a" points="1404.75,-133.75 1404.75,-160.5 1621.25,-160.5 1621.25,-133.75 1404.75,-133.75"/>
<text xml:space="preserve" text-anchor="start" x="1411.75" y="-143" font-family="Noto Sans KR" font-size="10.00">+ SkillId: SkillId?</text>
<polygon fill="none" stroke="#3b4a5a" points="1404.75,-107 1404.75,-133.75 1621.25,-133.75 1621.25,-107 1404.75,-107"/>
<text xml:space="preserve" text-anchor="start" x="1411.75" y="-116.25" font-family="Noto Sans KR" font-size="10.00">+ Tags: TagSet</text>
<polygon fill="none" stroke="#3b4a5a" points="1404.75,-80.25 1404.75,-107 1621.25,-107 1621.25,-80.25 1404.75,-80.25"/>
<text xml:space="preserve" text-anchor="start" x="1411.75" y="-89.5" font-family="Noto Sans KR" font-size="10.00">+ Moment: GameMoment</text>
<polygon fill="none" stroke="#3b4a5a" points="1404.75,-53.5 1404.75,-80.25 1621.25,-80.25 1621.25,-53.5 1404.75,-53.5"/>
<text xml:space="preserve" text-anchor="start" x="1411.75" y="-62.75" font-family="Noto Sans KR" font-size="10.00">+ Custom: IReadOnlyDictionary&lt;string, object&gt;</text>
<polygon fill="none" stroke="#3b4a5a" points="1404.75,-26.75 1404.75,-53.5 1621.25,-53.5 1621.25,-26.75 1404.75,-26.75"/>
<text xml:space="preserve" text-anchor="start" x="1411.75" y="-36" font-family="Noto Sans KR" font-size="10.00">+ HasTag(tag): bool</text>
<polygon fill="none" stroke="#3b4a5a" points="1404.75,0 1404.75,-26.75 1621.25,-26.75 1621.25,0 1404.75,0"/>
<text xml:space="preserve" text-anchor="start" x="1411.75" y="-9.25" font-family="Noto Sans KR" font-size="10.00">+ Get(key): object?</text>
</g>
<!-- IModifierCondition -->
<g id="node7" class="node">
<title>IModifierCondition</title>
<polygon fill="#f7f7f7" stroke="none" points="1457.62,-351.25 1457.62,-389.25 1568.38,-389.25 1568.38,-351.25 1457.62,-351.25"/>
<polygon fill="none" stroke="#3b4a5a" points="1457.62,-351.25 1457.62,-389.25 1568.38,-389.25 1568.38,-351.25 1457.62,-351.25"/>
<text xml:space="preserve" text-anchor="start" x="1478.5" y="-371.85" font-family="Noto Sans KR" font-size="12.00">&lt;&lt;interface&gt;&gt;</text>
<text xml:space="preserve" text-anchor="start" x="1464.62" y="-359.85" font-family="Noto Sans KR" font-weight="bold" font-size="12.00">IModifierCondition</text>
<polygon fill="none" stroke="#3b4a5a" points="1457.62,-324.5 1457.62,-351.25 1568.38,-351.25 1568.38,-324.5 1457.62,-324.5"/>
<text xml:space="preserve" text-anchor="start" x="1464.62" y="-333.75" font-family="Noto Sans KR" font-size="10.00">+ Id: ConditionId</text>
<polygon fill="none" stroke="#3b4a5a" points="1457.62,-297.75 1457.62,-324.5 1568.38,-324.5 1568.38,-297.75 1457.62,-297.75"/>
<text xml:space="preserve" text-anchor="start" x="1464.62" y="-307" font-family="Noto Sans KR" font-size="10.00">+ Evaluate(ctx): bool</text>
</g>
<!-- CalculationPipeline -->
<g id="node8" class="node">
<title>CalculationPipeline</title>
<polygon fill="#e0f7fa" stroke="none" points="666.75,-163.5 666.75,-192.5 887.75,-192.5 887.75,-163.5 666.75,-163.5"/>
<polygon fill="none" stroke="#3b4a5a" points="666.75,-163.5 666.75,-192.5 887.75,-192.5 887.75,-163.5 666.75,-163.5"/>
<text xml:space="preserve" text-anchor="start" x="716.12" y="-175.1" font-family="Noto Sans KR" font-weight="bold" font-size="12.00">StatCalculationPipeline</text>
<polygon fill="none" stroke="#3b4a5a" points="666.75,-136.75 666.75,-163.5 887.75,-163.5 887.75,-136.75 666.75,-136.75"/>
<text xml:space="preserve" text-anchor="start" x="673.75" y="-146" font-family="Noto Sans KR" font-size="10.00">&#45; phases: List&lt;CalculationPhase&gt;</text>
<polygon fill="none" stroke="#3b4a5a" points="666.75,-110 666.75,-136.75 887.75,-136.75 887.75,-110 666.75,-110"/>
<text xml:space="preserve" text-anchor="start" x="673.75" y="-119.25" font-family="Noto Sans KR" font-size="10.00">&#45; operationOrder: ModifierOperation[]</text>
<polygon fill="none" stroke="#3b4a5a" points="666.75,-83.25 666.75,-110 887.75,-110 887.75,-83.25 666.75,-83.25"/>
<text xml:space="preserve" text-anchor="start" x="673.75" y="-92.5" font-family="Noto Sans KR" font-size="10.00">+ Calculate(baseValue, modifiers, ctx): StatValue</text>
<polygon fill="none" stroke="#3b4a5a" points="666.75,-56.5 666.75,-83.25 887.75,-83.25 887.75,-56.5 666.75,-56.5"/>
<text xml:space="preserve" text-anchor="start" x="673.75" y="-65.75" font-family="Noto Sans KR" font-size="10.00">+ BuildBreakdown(...): StatDebugBreakdown</text>
</g>
</g>
</svg>
