<?xml version="1.0" encoding="UTF-8" standalone="no"?>
<!DOCTYPE svg PUBLIC "-//W3C//DTD SVG 1.1//EN"
 "http://www.w3.org/Graphics/SVG/1.1/DTD/svg11.dtd">
<!-- Generated by graphviz version 15.0.0 (20260523.1842)
 -->
<!-- Title: CoreClassDiagram Pages: 1 -->
<svg width="1361pt" height="772pt"
 viewBox="0.00 0.00 1361.00 772.00" xmlns="http://www.w3.org/2000/svg" xmlns:xlink="http://www.w3.org/1999/xlink">
<style>.node text { font-size: 90%; }</style>
<g id="graph0" class="graph" transform="scale(1 1) rotate(0) translate(4 768)">
<title>CoreClassDiagram</title>
<polygon fill="white" stroke="none" points="-4,4 -4,-768 1357.21,-768 1357.21,4 -4,4"/>
<text xml:space="preserve" text-anchor="middle" x="676.6" y="-743.8" font-family="Noto Sans CJK KR" font-size="18.00">UML Class Diagram 1 &#45; Stat System Core</text>
<!-- IStatOwner -->
<g id="node1" class="node">
<title>IStatOwner</title>
<polygon fill="#f7f7f7" stroke="none" points="0,-309.2 0,-347.2 127.4,-347.2 127.4,-309.2 0,-309.2"/>
<polygon fill="none" stroke="#3b4a5a" points="0,-309.2 0,-347.2 127.4,-347.2 127.4,-309.2 0,-309.2"/>
<text xml:space="preserve" text-anchor="start" x="29.18" y="-330.4" font-family="Noto Sans CJK KR" font-size="12.00">&lt;&lt;interface&gt;&gt;</text>
<text xml:space="preserve" text-anchor="start" x="33.37" y="-318.4" font-family="Noto Sans CJK KR" font-weight="bold" font-size="12.00">IStatOwner</text>
<polygon fill="none" stroke="#3b4a5a" points="0,-283.2 0,-309.2 127.4,-309.2 127.4,-283.2 0,-283.2"/>
<text xml:space="preserve" text-anchor="start" x="7" y="-292.2" font-family="Noto Sans CJK KR" font-size="10.00">+ OwnerId: EntityId</text>
<polygon fill="none" stroke="#3b4a5a" points="0,-257.2 0,-283.2 127.4,-283.2 127.4,-257.2 0,-257.2"/>
<text xml:space="preserve" text-anchor="start" x="7" y="-266.2" font-family="Noto Sans CJK KR" font-size="10.00">+ Tags: TagSet</text>
<polygon fill="none" stroke="#3b4a5a" points="0,-231.2 0,-257.2 127.4,-257.2 127.4,-231.2 0,-231.2"/>
<text xml:space="preserve" text-anchor="start" x="7" y="-240.2" font-family="Noto Sans CJK KR" font-size="10.00">+ GetStatBlock(): StatBlock</text>
</g>
<!-- StatBlock -->
<g id="node2" class="node">
<title>StatBlock</title>
<polygon fill="#e8f0fe" stroke="none" points="217.52,-366 217.52,-394.4 405.89,-394.4 405.89,-366 217.52,-366"/>
<polygon fill="none" stroke="#3b4a5a" points="217.52,-366 217.52,-394.4 405.89,-394.4 405.89,-366 217.52,-366"/>
<text xml:space="preserve" text-anchor="start" x="286.7" y="-377.6" font-family="Noto Sans CJK KR" font-weight="bold" font-size="12.00">StatBlock</text>
<polygon fill="none" stroke="#3b4a5a" points="217.52,-340 217.52,-366 405.89,-366 405.89,-340 217.52,-340"/>
<text xml:space="preserve" text-anchor="start" x="224.52" y="-349" font-family="Noto Sans CJK KR" font-size="10.00">&#45; ownerId: EntityId</text>
<polygon fill="none" stroke="#3b4a5a" points="217.52,-314 217.52,-340 405.89,-340 405.89,-314 217.52,-314"/>
<text xml:space="preserve" text-anchor="start" x="224.52" y="-323" font-family="Noto Sans CJK KR" font-size="10.00">&#45; stats: Dictionary&lt;StatId, StatInstance&gt;</text>
<polygon fill="none" stroke="#3b4a5a" points="217.52,-288 217.52,-314 405.89,-314 405.89,-288 217.52,-288"/>
<text xml:space="preserve" text-anchor="start" x="224.52" y="-297" font-family="Noto Sans CJK KR" font-size="10.00">&#45; dependencyGraph: StatDependencyGraph</text>
<polygon fill="none" stroke="#3b4a5a" points="217.52,-262 217.52,-288 405.89,-288 405.89,-262 217.52,-262"/>
<text xml:space="preserve" text-anchor="start" x="224.52" y="-271" font-family="Noto Sans CJK KR" font-size="10.00">+ GetValue(statId, ctx): StatValue</text>
<polygon fill="none" stroke="#3b4a5a" points="217.52,-236 217.52,-262 405.89,-262 405.89,-236 217.52,-236"/>
<text xml:space="preserve" text-anchor="start" x="224.52" y="-245" font-family="Noto Sans CJK KR" font-size="10.00">+ AddModifier(modifier)</text>
<polygon fill="none" stroke="#3b4a5a" points="217.52,-210 217.52,-236 405.89,-236 405.89,-210 217.52,-210"/>
<text xml:space="preserve" text-anchor="start" x="224.52" y="-219" font-family="Noto Sans CJK KR" font-size="10.00">+ RemoveBySource(sourceId)</text>
<polygon fill="none" stroke="#3b4a5a" points="217.52,-184 217.52,-210 405.89,-210 405.89,-184 217.52,-184"/>
<text xml:space="preserve" text-anchor="start" x="224.52" y="-193" font-family="Noto Sans CJK KR" font-size="10.00">+ MarkDirty(statId)</text>
</g>
<!-- IStatOwner&#45;&gt;StatBlock -->
<g id="edge1" class="edge">
<title>IStatOwner&#45;&gt;StatBlock</title>
<path fill="none" stroke="#425466" d="M127.25,-289.2C127.25,-289.2 208.68,-289.2 208.68,-289.2"/>
<polygon fill="#425466" stroke="#425466" points="216.68,-289.2 208.68,-292.8 213.9,-289.2 208.68,-289.2 208.68,-289.2 208.68,-289.2 213.9,-289.2 208.68,-285.6 216.68,-289.2"/>
<text xml:space="preserve" text-anchor="middle" x="172.46" y="-292.2" font-family="Noto Sans CJK KR" font-size="10.00">1 owns 1</text>
</g>
<!-- StatInstance -->
<g id="node3" class="node">
<title>StatInstance</title>
<polygon fill="#e8f0fe" stroke="none" points="579.5,-511 579.5,-539.4 720.88,-539.4 720.88,-511 579.5,-511"/>
<polygon fill="none" stroke="#3b4a5a" points="579.5,-511 579.5,-539.4 720.88,-539.4 720.88,-511 579.5,-511"/>
<text xml:space="preserve" text-anchor="start" x="618.19" y="-522.6" font-family="Noto Sans CJK KR" font-weight="bold" font-size="12.00">StatInstance</text>
<polygon fill="none" stroke="#3b4a5a" points="579.5,-485 579.5,-511 720.88,-511 720.88,-485 579.5,-485"/>
<text xml:space="preserve" text-anchor="start" x="586.5" y="-494" font-family="Noto Sans CJK KR" font-size="10.00">&#45; definition: StatDefinition</text>
<polygon fill="none" stroke="#3b4a5a" points="579.5,-459 579.5,-485 720.88,-485 720.88,-459 579.5,-459"/>
<text xml:space="preserve" text-anchor="start" x="586.5" y="-468" font-family="Noto Sans CJK KR" font-size="10.00">&#45; baseValue: decimal</text>
<polygon fill="none" stroke="#3b4a5a" points="579.5,-433 579.5,-459 720.88,-459 720.88,-433 579.5,-433"/>
<text xml:space="preserve" text-anchor="start" x="586.5" y="-442" font-family="Noto Sans CJK KR" font-size="10.00">&#45; cachedValue: StatValue</text>
<polygon fill="none" stroke="#3b4a5a" points="579.5,-407 579.5,-433 720.88,-433 720.88,-407 579.5,-407"/>
<text xml:space="preserve" text-anchor="start" x="586.5" y="-416" font-family="Noto Sans CJK KR" font-size="10.00">&#45; dirty: bool</text>
<polygon fill="none" stroke="#3b4a5a" points="579.5,-381 579.5,-407 720.88,-407 720.88,-381 579.5,-381"/>
<text xml:space="preserve" text-anchor="start" x="586.5" y="-390" font-family="Noto Sans CJK KR" font-size="10.00">&#45; modifiers: List&lt;StatModifier&gt;</text>
<polygon fill="none" stroke="#3b4a5a" points="579.5,-355 579.5,-381 720.88,-381 720.88,-355 579.5,-355"/>
<text xml:space="preserve" text-anchor="start" x="586.5" y="-364" font-family="Noto Sans CJK KR" font-size="10.00">+ Evaluate(ctx): StatValue</text>
<polygon fill="none" stroke="#3b4a5a" points="579.5,-329 579.5,-355 720.88,-355 720.88,-329 579.5,-329"/>
<text xml:space="preserve" text-anchor="start" x="586.5" y="-338" font-family="Noto Sans CJK KR" font-size="10.00">+ SetBaseValue(value)</text>
<polygon fill="none" stroke="#3b4a5a" points="579.5,-303 579.5,-329 720.88,-329 720.88,-303 579.5,-303"/>
<text xml:space="preserve" text-anchor="start" x="586.5" y="-312" font-family="Noto Sans CJK KR" font-size="10.00">+ AddModifier(modifier)</text>
<polygon fill="none" stroke="#3b4a5a" points="579.5,-277 579.5,-303 720.88,-303 720.88,-277 579.5,-277"/>
<text xml:space="preserve" text-anchor="start" x="586.5" y="-286" font-family="Noto Sans CJK KR" font-size="10.00">+ BuildBreakdown(ctx)</text>
</g>
<!-- StatBlock&#45;&gt;StatInstance -->
<g id="edge2" class="edge">
<title>StatBlock&#45;&gt;StatInstance</title>
<path fill="none" stroke="#425466" d="M405.54,-335.7C405.54,-335.7 568.92,-335.7 568.92,-335.7"/>
<polygon fill="#425466" stroke="#425466" points="569.07,-335.7 573.87,-332.5 578.67,-335.7 573.87,-338.9 569.07,-335.7"/>
<text xml:space="preserve" text-anchor="middle" x="474.68" y="-366.2" font-family="Noto Sans CJK KR" font-size="10.00">1 contains 0..*</text>
</g>
<!-- CalculationPipeline -->
<g id="node8" class="node">
<title>CalculationPipeline</title>
<polygon fill="#e0f7fa" stroke="none" points="543.46,-209 543.46,-237.4 756.92,-237.4 756.92,-209 543.46,-209"/>
<polygon fill="none" stroke="#3b4a5a" points="543.46,-209 543.46,-237.4 756.92,-237.4 756.92,-209 543.46,-209"/>
<text xml:space="preserve" text-anchor="start" x="589.52" y="-220.6" font-family="Noto Sans CJK KR" font-weight="bold" font-size="12.00">StatCalculationPipeline</text>
<polygon fill="none" stroke="#3b4a5a" points="543.46,-183 543.46,-209 756.92,-209 756.92,-183 543.46,-183"/>
<text xml:space="preserve" text-anchor="start" x="550.46" y="-192" font-family="Noto Sans CJK KR" font-size="10.00">&#45; phases: List&lt;CalculationPhase&gt;</text>
<polygon fill="none" stroke="#3b4a5a" points="543.46,-157 543.46,-183 756.92,-183 756.92,-157 543.46,-157"/>
<text xml:space="preserve" text-anchor="start" x="550.46" y="-166" font-family="Noto Sans CJK KR" font-size="10.00">&#45; operationOrder: ModifierOperation[]</text>
<polygon fill="none" stroke="#3b4a5a" points="543.46,-131 543.46,-157 756.92,-157 756.92,-131 543.46,-131"/>
<text xml:space="preserve" text-anchor="start" x="550.46" y="-140" font-family="Noto Sans CJK KR" font-size="10.00">+ Calculate(baseValue, modifiers, ctx): StatValue</text>
<polygon fill="none" stroke="#3b4a5a" points="543.46,-105 543.46,-131 756.92,-131 756.92,-105 543.46,-105"/>
<text xml:space="preserve" text-anchor="start" x="550.46" y="-114" font-family="Noto Sans CJK KR" font-size="10.00">+ BuildBreakdown(...): StatDebugBreakdown</text>
</g>
<!-- StatBlock&#45;&gt;CalculationPipeline -->
<g id="edge6" class="edge">
<title>StatBlock&#45;&gt;CalculationPipeline</title>
<path fill="none" stroke="#425466" d="M405.54,-210.7C405.54,-210.7 534.41,-210.7 534.41,-210.7"/>
<polygon fill="#425466" stroke="#425466" points="542.41,-210.7 534.41,-214.3 539.63,-210.7 534.41,-210.7 534.41,-210.7 534.41,-210.7 539.63,-210.7 534.41,-207.1 542.41,-210.7"/>
<text xml:space="preserve" text-anchor="middle" x="474.68" y="-264.2" font-family="Noto Sans CJK KR" font-size="10.00">delegates calculation</text>
</g>
<!-- StatDefinition -->
<g id="node4" class="node">
<title>StatDefinition</title>
<polygon fill="#fff3cd" stroke="none" points="873.13,-706 873.13,-734.4 1030.55,-734.4 1030.55,-706 873.13,-706"/>
<polygon fill="none" stroke="#3b4a5a" points="873.13,-706 873.13,-734.4 1030.55,-734.4 1030.55,-706 873.13,-706"/>
<text xml:space="preserve" text-anchor="start" x="915.84" y="-717.6" font-family="Noto Sans CJK KR" font-weight="bold" font-size="12.00">StatDefinition</text>
<polygon fill="none" stroke="#3b4a5a" points="873.13,-680 873.13,-706 1030.55,-706 1030.55,-680 873.13,-680"/>
<text xml:space="preserve" text-anchor="start" x="880.13" y="-689" font-family="Noto Sans CJK KR" font-size="10.00">+ Id: StatId</text>
<polygon fill="none" stroke="#3b4a5a" points="873.13,-654 873.13,-680 1030.55,-680 1030.55,-654 873.13,-654"/>
<text xml:space="preserve" text-anchor="start" x="880.13" y="-663" font-family="Noto Sans CJK KR" font-size="10.00">+ DisplayName: string</text>
<polygon fill="none" stroke="#3b4a5a" points="873.13,-628 873.13,-654 1030.55,-654 1030.55,-628 873.13,-628"/>
<text xml:space="preserve" text-anchor="start" x="880.13" y="-637" font-family="Noto Sans CJK KR" font-size="10.00">+ ValueType: StatValueType</text>
<polygon fill="none" stroke="#3b4a5a" points="873.13,-602 873.13,-628 1030.55,-628 1030.55,-602 873.13,-602"/>
<text xml:space="preserve" text-anchor="start" x="880.13" y="-611" font-family="Noto Sans CJK KR" font-size="10.00">+ DefaultValue: decimal</text>
<polygon fill="none" stroke="#3b4a5a" points="873.13,-576 873.13,-602 1030.55,-602 1030.55,-576 873.13,-576"/>
<text xml:space="preserve" text-anchor="start" x="880.13" y="-585" font-family="Noto Sans CJK KR" font-size="10.00">+ Min/Max: decimal?</text>
<polygon fill="none" stroke="#3b4a5a" points="873.13,-550 873.13,-576 1030.55,-576 1030.55,-550 873.13,-550"/>
<text xml:space="preserve" text-anchor="start" x="880.13" y="-559" font-family="Noto Sans CJK KR" font-size="10.00">+ RoundingPolicy: RoundingPolicy</text>
<polygon fill="none" stroke="#3b4a5a" points="873.13,-524 873.13,-550 1030.55,-550 1030.55,-524 873.13,-524"/>
<text xml:space="preserve" text-anchor="start" x="880.13" y="-533" font-family="Noto Sans CJK KR" font-size="10.00">+ Validate(value): decimal</text>
<polygon fill="none" stroke="#3b4a5a" points="873.13,-498 873.13,-524 1030.55,-524 1030.55,-498 873.13,-498"/>
<text xml:space="preserve" text-anchor="start" x="880.13" y="-507" font-family="Noto Sans CJK KR" font-size="10.00">+ Format(value): string</text>
</g>
<!-- StatInstance&#45;&gt;StatDefinition -->
<g id="edge3" class="edge">
<title>StatInstance&#45;&gt;StatDefinition</title>
<path fill="none" stroke="#425466" d="M720.53,-518.7C720.53,-518.7 863.93,-518.7 863.93,-518.7"/>
<polygon fill="#425466" stroke="#425466" points="871.93,-518.7 863.93,-522.3 869.15,-518.7 863.93,-518.7 863.93,-518.7 863.93,-518.7 869.15,-518.7 863.93,-515.1 871.93,-518.7"/>
<text xml:space="preserve" text-anchor="middle" x="815.02" y="-619.2" font-family="Noto Sans CJK KR" font-size="10.00">1 uses 1</text>
</g>
<!-- StatModifier -->
<g id="node5" class="node">
<title>StatModifier</title>
<polygon fill="#dff7e4" stroke="none" points="880.37,-430 880.37,-458.4 1023.31,-458.4 1023.31,-430 880.37,-430"/>
<polygon fill="none" stroke="#3b4a5a" points="880.37,-430 880.37,-458.4 1023.31,-458.4 1023.31,-430 880.37,-430"/>
<text xml:space="preserve" text-anchor="start" x="918.85" y="-441.6" font-family="Noto Sans CJK KR" font-weight="bold" font-size="12.00">StatModifier</text>
<polygon fill="none" stroke="#3b4a5a" points="880.37,-404 880.37,-430 1023.31,-430 1023.31,-404 880.37,-404"/>
<text xml:space="preserve" text-anchor="start" x="887.37" y="-413" font-family="Noto Sans CJK KR" font-size="10.00">+ Id: ModifierId</text>
<polygon fill="none" stroke="#3b4a5a" points="880.37,-378 880.37,-404 1023.31,-404 1023.31,-378 880.37,-378"/>
<text xml:space="preserve" text-anchor="start" x="887.37" y="-387" font-family="Noto Sans CJK KR" font-size="10.00">+ TargetStat: StatId</text>
<polygon fill="none" stroke="#3b4a5a" points="880.37,-352 880.37,-378 1023.31,-378 1023.31,-352 880.37,-352"/>
<text xml:space="preserve" text-anchor="start" x="887.37" y="-361" font-family="Noto Sans CJK KR" font-size="10.00">+ Operation: ModifierOperation</text>
<polygon fill="none" stroke="#3b4a5a" points="880.37,-326 880.37,-352 1023.31,-352 1023.31,-326 880.37,-326"/>
<text xml:space="preserve" text-anchor="start" x="887.37" y="-335" font-family="Noto Sans CJK KR" font-size="10.00">+ Value: decimal</text>
<polygon fill="none" stroke="#3b4a5a" points="880.37,-300 880.37,-326 1023.31,-326 1023.31,-300 880.37,-300"/>
<text xml:space="preserve" text-anchor="start" x="887.37" y="-309" font-family="Noto Sans CJK KR" font-size="10.00">+ Source: ModifierSource</text>
<polygon fill="none" stroke="#3b4a5a" points="880.37,-274 880.37,-300 1023.31,-300 1023.31,-274 880.37,-274"/>
<text xml:space="preserve" text-anchor="start" x="887.37" y="-283" font-family="Noto Sans CJK KR" font-size="10.00">+ Priority: int</text>
<polygon fill="none" stroke="#3b4a5a" points="880.37,-248 880.37,-274 1023.31,-274 1023.31,-248 880.37,-248"/>
<text xml:space="preserve" text-anchor="start" x="887.37" y="-257" font-family="Noto Sans CJK KR" font-size="10.00">+ Duration: Duration?</text>
<polygon fill="none" stroke="#3b4a5a" points="880.37,-222 880.37,-248 1023.31,-248 1023.31,-222 880.37,-222"/>
<text xml:space="preserve" text-anchor="start" x="887.37" y="-231" font-family="Noto Sans CJK KR" font-size="10.00">+ StackRule: StackRule</text>
<polygon fill="none" stroke="#3b4a5a" points="880.37,-196 880.37,-222 1023.31,-222 1023.31,-196 880.37,-196"/>
<text xml:space="preserve" text-anchor="start" x="887.37" y="-205" font-family="Noto Sans CJK KR" font-size="10.00">+ IsActive(now): bool</text>
<polygon fill="none" stroke="#3b4a5a" points="880.37,-170 880.37,-196 1023.31,-196 1023.31,-170 880.37,-170"/>
<text xml:space="preserve" text-anchor="start" x="887.37" y="-179" font-family="Noto Sans CJK KR" font-size="10.00">+ CanApply(ctx): bool</text>
</g>
<!-- StatInstance&#45;&gt;StatModifier -->
<g id="edge4" class="edge">
<title>StatInstance&#45;&gt;StatModifier</title>
<path fill="none" stroke="#425466" d="M720.53,-367.7C720.53,-367.7 869.95,-367.7 869.95,-367.7"/>
<polygon fill="#425466" stroke="#425466" points="870.1,-367.7 874.9,-364.5 879.7,-367.7 874.9,-370.9 870.1,-367.7"/>
<text xml:space="preserve" text-anchor="middle" x="815.02" y="-366.2" font-family="Noto Sans CJK KR" font-size="10.00">0..* applied</text>
</g>
<!-- StatContext -->
<g id="node6" class="node">
<title>StatContext</title>
<polygon fill="#fce8e6" stroke="none" points="1144.54,-208 1144.54,-236.4 1353.21,-236.4 1353.21,-208 1144.54,-208"/>
<polygon fill="none" stroke="#3b4a5a" points="1144.54,-208 1144.54,-236.4 1353.21,-236.4 1353.21,-208 1144.54,-208"/>
<text xml:space="preserve" text-anchor="start" x="1218.21" y="-219.6" font-family="Noto Sans CJK KR" font-weight="bold" font-size="12.00">StatContext</text>
<polygon fill="none" stroke="#3b4a5a" points="1144.54,-182 1144.54,-208 1353.21,-208 1353.21,-182 1144.54,-182"/>
<text xml:space="preserve" text-anchor="start" x="1151.54" y="-191" font-family="Noto Sans CJK KR" font-size="10.00">+ Owner: EntityId</text>
<polygon fill="none" stroke="#3b4a5a" points="1144.54,-156 1144.54,-182 1353.21,-182 1353.21,-156 1144.54,-156"/>
<text xml:space="preserve" text-anchor="start" x="1151.54" y="-165" font-family="Noto Sans CJK KR" font-size="10.00">+ Target: EntityId?</text>
<polygon fill="none" stroke="#3b4a5a" points="1144.54,-130 1144.54,-156 1353.21,-156 1353.21,-130 1144.54,-130"/>
<text xml:space="preserve" text-anchor="start" x="1151.54" y="-139" font-family="Noto Sans CJK KR" font-size="10.00">+ SkillId: SkillId?</text>
<polygon fill="none" stroke="#3b4a5a" points="1144.54,-104 1144.54,-130 1353.21,-130 1353.21,-104 1144.54,-104"/>
<text xml:space="preserve" text-anchor="start" x="1151.54" y="-113" font-family="Noto Sans CJK KR" font-size="10.00">+ Tags: TagSet</text>
<polygon fill="none" stroke="#3b4a5a" points="1144.54,-78 1144.54,-104 1353.21,-104 1353.21,-78 1144.54,-78"/>
<text xml:space="preserve" text-anchor="start" x="1151.54" y="-87" font-family="Noto Sans CJK KR" font-size="10.00">+ Moment: GameMoment</text>
<polygon fill="none" stroke="#3b4a5a" points="1144.54,-52 1144.54,-78 1353.21,-78 1353.21,-52 1144.54,-52"/>
<text xml:space="preserve" text-anchor="start" x="1151.54" y="-61" font-family="Noto Sans CJK KR" font-size="10.00">+ Custom: IReadOnlyDictionary&lt;string, object&gt;</text>
<polygon fill="none" stroke="#3b4a5a" points="1144.54,-26 1144.54,-52 1353.21,-52 1353.21,-26 1144.54,-26"/>
<text xml:space="preserve" text-anchor="start" x="1151.54" y="-35" font-family="Noto Sans CJK KR" font-size="10.00">+ HasTag(tag): bool</text>
<polygon fill="none" stroke="#3b4a5a" points="1144.54,0 1144.54,-26 1353.21,-26 1353.21,0 1144.54,0"/>
<text xml:space="preserve" text-anchor="start" x="1151.54" y="-9" font-family="Noto Sans CJK KR" font-size="10.00">+ Get(key): object?</text>
</g>
<!-- StatModifier&#45;&gt;StatContext -->
<g id="edge8" class="edge">
<title>StatModifier&#45;&gt;StatContext</title>
<path fill="none" stroke="#425466" d="M1022.99,-203.2C1022.99,-203.2 1135.36,-203.2 1135.36,-203.2"/>
<polygon fill="#425466" stroke="#425466" points="1143.36,-203.2 1135.36,-206.8 1140.57,-203.2 1135.36,-203.2 1135.36,-203.2 1135.36,-203.2 1140.57,-203.2 1135.36,-199.6 1143.36,-203.2"/>
<text xml:space="preserve" text-anchor="middle" x="1087.55" y="-227.2" font-family="Noto Sans CJK KR" font-size="10.00">CanApply(ctx)</text>
</g>
<!-- IModifierCondition -->
<g id="node7" class="node">
<title>IModifierCondition</title>
<polygon fill="#f7f7f7" stroke="none" points="1191.2,-328.2 1191.2,-366.2 1306.54,-366.2 1306.54,-328.2 1191.2,-328.2"/>
<polygon fill="none" stroke="#3b4a5a" points="1191.2,-328.2 1191.2,-366.2 1306.54,-366.2 1306.54,-328.2 1191.2,-328.2"/>
<text xml:space="preserve" text-anchor="start" x="1214.36" y="-349.4" font-family="Noto Sans CJK KR" font-size="12.00">&lt;&lt;interface&gt;&gt;</text>
<text xml:space="preserve" text-anchor="start" x="1198.2" y="-337.4" font-family="Noto Sans CJK KR" font-weight="bold" font-size="12.00">IModifierCondition</text>
<polygon fill="none" stroke="#3b4a5a" points="1191.2,-302.2 1191.2,-328.2 1306.54,-328.2 1306.54,-302.2 1191.2,-302.2"/>
<text xml:space="preserve" text-anchor="start" x="1198.2" y="-311.2" font-family="Noto Sans CJK KR" font-size="10.00">+ Id: ConditionId</text>
<polygon fill="none" stroke="#3b4a5a" points="1191.2,-276.2 1191.2,-302.2 1306.54,-302.2 1306.54,-276.2 1191.2,-276.2"/>
<text xml:space="preserve" text-anchor="start" x="1198.2" y="-285.2" font-family="Noto Sans CJK KR" font-size="10.00">+ Evaluate(ctx): bool</text>
</g>
<!-- StatModifier&#45;&gt;IModifierCondition -->
<g id="edge5" class="edge">
<title>StatModifier&#45;&gt;IModifierCondition</title>
<path fill="none" stroke="#425466" d="M1022.99,-321.2C1022.99,-321.2 1182.03,-321.2 1182.03,-321.2"/>
<polygon fill="#425466" stroke="#425466" points="1190.03,-321.2 1182.03,-324.8 1187.24,-321.2 1182.03,-321.2 1182.03,-321.2 1182.03,-321.2 1187.24,-321.2 1182.03,-317.6 1190.03,-321.2"/>
<text xml:space="preserve" text-anchor="middle" x="1087.55" y="-324.2" font-family="Noto Sans CJK KR" font-size="10.00">0..* conditions</text>
</g>
<!-- CalculationPipeline&#45;&gt;StatModifier -->
<g id="edge9" class="edge">
<title>CalculationPipeline&#45;&gt;StatModifier</title>
<path fill="none" stroke="#425466" d="M756.54,-203.7C756.54,-203.7 871.22,-203.7 871.22,-203.7"/>
<polygon fill="#425466" stroke="#425466" points="879.22,-203.7 871.22,-207.3 876.43,-203.7 871.22,-203.7 871.22,-203.7 871.22,-203.7 876.43,-203.7 871.22,-200.1 879.22,-203.7"/>
<text xml:space="preserve" text-anchor="middle" x="815.02" y="-264.2" font-family="Noto Sans CJK KR" font-size="10.00">sort/filter/apply</text>
</g>
<!-- CalculationPipeline&#45;&gt;StatContext -->
<g id="edge7" class="edge">
<title>CalculationPipeline&#45;&gt;StatContext</title>
<path fill="none" stroke="#425466" d="M756.88,-137.5C756.88,-137.5 1135.43,-137.5 1135.43,-137.5"/>
<polygon fill="#425466" stroke="#425466" points="1143.43,-137.5 1135.43,-141.1 1140.65,-137.5 1135.43,-137.5 1135.43,-137.5 1135.43,-137.5 1140.65,-137.5 1135.43,-133.9 1143.43,-137.5"/>
<text xml:space="preserve" text-anchor="middle" x="951.84" y="-121.2" font-family="Noto Sans CJK KR" font-size="10.00">reads context</text>
</g>
</g>
</svg>
