<?xml version="1.0" encoding="UTF-8" standalone="no"?>
<!DOCTYPE svg PUBLIC "-//W3C//DTD SVG 1.1//EN"
 "http://www.w3.org/Graphics/SVG/1.1/DTD/svg11.dtd">
<!-- Generated by graphviz version 15.1.0 (20260618.0150)
 -->
<!-- Title: ExtensionClassDiagram Pages: 1 -->
<svg width="1845pt" height="1581pt"
 viewBox="0.00 0.00 1845.00 1581.00" xmlns="http://www.w3.org/2000/svg" xmlns:xlink="http://www.w3.org/1999/xlink">
<g id="graph0" class="graph" transform="scale(1.33333 1.33333) rotate(0) translate(4 1181.75)">
<title>ExtensionClassDiagram</title>
<polygon fill="white" stroke="none" points="-4,4 -4,-1181.75 1379.75,-1181.75 1379.75,4 -4,4"/>
<text xml:space="preserve" text-anchor="middle" x="687.88" y="-1156.65" font-family="Noto Sans KR" font-size="18.00">UML Class Diagram 2 &#45; Resources, Derived Stats, Events, Persistence</text>
<g id="clust1" class="cluster">
<title>cluster_derived</title>
<path fill="white" stroke="#e7d59a" stroke-dasharray="5,2" d="M439.62,-224C439.62,-224 1355.75,-224 1355.75,-224 1361.75,-224 1367.75,-230 1367.75,-236 1367.75,-236 1367.75,-538 1367.75,-538 1367.75,-544 1361.75,-550 1355.75,-550 1355.75,-550 439.62,-550 439.62,-550 433.62,-550 427.62,-544 427.62,-538 427.62,-538 427.62,-236 427.62,-236 427.62,-230 433.62,-224 439.62,-224"/>
<text xml:space="preserve" text-anchor="middle" x="897.69" y="-528.9" font-family="Noto Sans KR" font-size="18.00">Derived Stat Definitions</text>
</g>
<g id="clust2" class="cluster">
<title>cluster_resource</title>
<path fill="white" stroke="#b7dce5" stroke-dasharray="5,2" d="M20,-662C20,-662 991.25,-662 991.25,-662 997.25,-662 1003.25,-668 1003.25,-674 1003.25,-674 1003.25,-1128 1003.25,-1128 1003.25,-1134 997.25,-1140 991.25,-1140 991.25,-1140 20,-1140 20,-1140 14,-1140 8,-1134 8,-1128 8,-1128 8,-674 8,-674 8,-668 14,-662 20,-662"/>
<text xml:space="preserve" text-anchor="middle" x="505.62" y="-1118.9" font-family="Noto Sans KR" font-size="18.00">Resources and Events</text>
</g>
<g id="clust3" class="cluster">
<title>cluster_persistence</title>
<path fill="white" stroke="#c7ddb0" stroke-dasharray="5,2" d="M20,-8C20,-8 668,-8 668,-8 674,-8 680,-14 680,-20 680,-20 680,-204 680,-204 680,-210 674,-216 668,-216 668,-216 20,-216 20,-216 14,-216 8,-210 8,-204 8,-204 8,-20 8,-20 8,-14 14,-8 20,-8"/>
<text xml:space="preserve" text-anchor="middle" x="344" y="-194.9" font-family="Noto Sans KR" font-size="18.00">Persistence</text>
</g>
<!-- StatDefinitionRepository&#45;&gt;DerivedStatDefinition -->
<g id="edge1" class="edge">
<title>StatDefinitionRepository:e&#45;&gt;DerivedStatDefinition:w</title>
<path fill="none" stroke="#8a6d3b" stroke-width="1.2" d="M660.43,-363.94C703.52,-376.13 865.75,-422 865.75,-422"/>
<polygon fill="none" stroke="#8a6d3b" stroke-width="1.2" points="660.3,-363.91 654.81,-365.68 651.06,-361.29 656.55,-359.52 660.3,-363.91"/>
<text xml:space="preserve" text-anchor="middle" x="768.88" y="-413.03" font-family="Noto Sans KR" font-size="9.00">stores derived definitions (0..*)</text>
</g>
<!-- DerivedStatDefinition&#45;&gt;IStatFormula -->
<g id="edge2" class="edge">
<title>DerivedStatDefinition:e&#45;&gt;IStatFormula:w</title>
<path fill="none" stroke="#7257a6" stroke-width="1.2" d="M1011,-422C1011,-422 1164.13,-445.52 1203.61,-451.59"/>
<polygon fill="#7257a6" stroke="#7257a6" stroke-width="1.2" points="1211.37,-452.78 1202.91,-455.12 1208.84,-452.49 1203.44,-451.66 1203.46,-451.56 1203.47,-451.46 1208.87,-452.29 1204,-448.01 1211.37,-452.78"/>
<text xml:space="preserve" text-anchor="middle" x="1103" y="-446.54" font-family="Noto Sans KR" font-size="9.00">evaluates with formula</text>
</g>
<!-- DerivedStatDefinition&#45;&gt;StatDependencyGraph -->
<g id="edge3" class="edge">
<title>DerivedStatDefinition:s&#45;&gt;StatDependencyGraph:n</title>
<path fill="none" stroke="#8a6d3b" stroke-width="1.2" d="M938.38,-339.7C938.38,-339.7 1213.2,-341.9 1267.95,-342.33"/>
<polygon fill="#8a6d3b" stroke="#8a6d3b" stroke-width="1.2" points="1275.91,-342.4 1267.88,-345.93 1273.37,-342.48 1267.91,-342.43 1267.91,-342.33 1267.91,-342.23 1273.38,-342.28 1267.94,-338.73 1275.91,-342.4"/>
<text xml:space="preserve" text-anchor="middle" x="1103" y="-344.08" font-family="Noto Sans KR" font-size="9.00">registers dependency graph</text>
</g>
<!-- ResourceController&#45;&gt;ResourcePolicy -->
<g id="edge4" class="edge">
<title>ResourceController:e&#45;&gt;ResourcePolicy:w</title>
<path fill="none" stroke="#b45d69" stroke-width="1.2" d="M186,-765C186,-765 373.26,-871.61 414.95,-895.35"/>
<polygon fill="#b45d69" stroke="#b45d69" stroke-width="1.2" points="421.84,-899.28 413.11,-898.45 419.59,-898.11 414.84,-895.41 414.89,-895.32 414.94,-895.23 419.69,-897.93 416.67,-892.19 421.84,-899.28"/>
<text xml:space="preserve" text-anchor="middle" x="299.38" y="-873.54" font-family="Noto Sans KR" font-size="9.00">applies resource clamp policy</text>
</g>
<!-- ResourceController&#45;&gt;StatEventBus -->
<g id="edge5" class="edge">
<title>ResourceController:s&#45;&gt;StatEventBus:n</title>
<path fill="none" stroke="#397b8c" stroke-width="1.2" d="M101,-669.34C101,-669.34 186,-670.34 186,-670.34 186,-670.34 422.12,-779.24 422.12,-779.24 422.12,-779.24 504.59,-779.93 532.94,-780.16"/>
<polygon fill="#397b8c" stroke="#397b8c" stroke-width="1.2" points="540.91,-780.23 532.88,-783.76 538.37,-780.31 532.91,-780.26 532.91,-780.16 532.91,-780.06 538.38,-780.11 532.94,-776.56 540.91,-780.23"/>
<text xml:space="preserve" text-anchor="middle" x="299.38" y="-758.42" font-family="Noto Sans KR" font-size="9.00">publishes committed resource change</text>
</g>
<!-- StatEventBus&#45;&gt;StatChangedEvent -->
<g id="edge6" class="edge">
<title>StatEventBus:e&#45;&gt;StatChangedEvent:w</title>
<path fill="none" stroke="#397b8c" stroke-width="1.2" stroke-dasharray="5,2" d="M663.51,-725C663.51,-725 830.49,-755.76 871.58,-763.33"/>
<polygon fill="#397b8c" stroke="#397b8c" stroke-width="1.2" points="879.2,-764.74 870.68,-766.83 876.68,-764.37 871.31,-763.38 871.33,-763.29 871.35,-763.19 876.72,-764.18 871.98,-759.75 879.2,-764.74"/>
<text xml:space="preserve" text-anchor="middle" x="768.88" y="-756.97" font-family="Noto Sans KR" font-size="9.00">delivers StatChangedEvent</text>
</g>
<!-- StatSaveAdapter&#45;&gt;StatDefinitionRepository -->
<g id="edge8" class="edge">
<title>StatSaveAdapter:n&#45;&gt;StatDefinitionRepository:s</title>
<path fill="none" stroke="#8292a8" stroke-width="1.2" stroke-dasharray="5,2" d="M101,-172.99C101,-172.99 471.35,-273.13 533.56,-289.96"/>
<polygon fill="#8292a8" stroke="#8292a8" stroke-width="1.2" points="540.96,-291.96 532.3,-293.35 538.49,-291.39 533.21,-289.97 533.24,-289.87 533.27,-289.77 538.54,-291.2 534.18,-286.4 540.96,-291.96"/>
<text xml:space="preserve" text-anchor="middle" x="299.38" y="-247.23" font-family="Noto Sans KR" font-size="9.00">validates definition version</text>
</g>
<!-- StatSaveAdapter&#45;&gt;StatSnapshot -->
<g id="edge7" class="edge">
<title>StatSaveAdapter:e&#45;&gt;StatSnapshot:w</title>
<path fill="none" stroke="#5b7f4a" stroke-width="1.2" d="M186,-104C186,-104 224,-98.75 224,-98.75 224,-98.75 365.3,-97.44 403.39,-97.09"/>
<polygon fill="#5b7f4a" stroke="#5b7f4a" stroke-width="1.2" points="411.29,-97.01 403.32,-100.69 408.75,-97.14 403.29,-97.19 403.29,-97.09 403.29,-96.99 408.75,-96.94 403.25,-93.49 411.29,-97.01"/>
<text xml:space="preserve" text-anchor="middle" x="299.38" y="-101.45" font-family="Noto Sans KR" font-size="9.00">snapshot round&#45;trip</text>
</g>
<!-- DebugBreakdown&#45;&gt;StatEventBus -->
<g id="edge9" class="edge">
<title>DebugBreakdown:e&#45;&gt;StatEventBus:w</title>
<path fill="none" stroke="#8292a8" stroke-width="1.2" stroke-dasharray="1,5" d="M177.33,-1007C177.33,-1007 374.75,-895 374.75,-895 374.75,-895 409.4,-768.31 418.87,-733.66"/>
<polygon fill="#8292a8" stroke="#8292a8" stroke-width="1.2" points="420.85,-726.41 422.22,-735.08 420.28,-728.88 418.84,-734.15 418.74,-734.13 418.65,-734.1 420.09,-728.83 415.27,-733.18 420.85,-726.41"/>
<text xml:space="preserve" text-anchor="middle" x="299.38" y="-982.63" font-family="Noto Sans KR" font-size="9.00">optional debug observation</text>
</g>
<!-- StatDependencyGraph&#45;&gt;StatEventBus -->
<g id="edge10" class="edge">
<title>StatDependencyGraph:e&#45;&gt;StatEventBus:w</title>
<path fill="none" stroke="#8292a8" stroke-width="1.2" stroke-dasharray="5,2" d="M1360.67,-287C1360.67,-287 1359.67,-341.62 1359.67,-341.62 1359.67,-341.62 1195,-369 1195,-369 1195,-369 1157,-468 1157,-468 1157,-468 865.75,-632.75 865.75,-632.75 865.75,-632.75 710,-721 710,-721 710,-721 662.62,-779.62 662.62,-779.62 662.62,-779.62 422.24,-779.62 422.24,-779.62 422.24,-779.62 421.69,-749.54 421.4,-734.02"/>
<polygon fill="#8292a8" stroke="#8292a8" stroke-width="1.2" points="421.27,-726.46 425.01,-734.39 421.41,-729 421.51,-734.46 421.41,-734.46 421.31,-734.46 421.21,-729 417.81,-734.53 421.27,-726.46"/>
<text xml:space="preserve" text-anchor="middle" x="938.38" y="-635.45" font-family="Noto Sans KR" font-size="9.00">publishes dirty notification</text>
</g>
<!-- StatDefinitionRepository -->
<g id="node1" class="node">
<title>StatDefinitionRepository</title>
<polygon fill="#fff3cd" stroke="none" points="435.62,-400 435.62,-429 649.12,-429 649.12,-400 435.62,-400"/>
<polygon fill="none" stroke="#3b4a5a" points="435.62,-400 435.62,-429 649.12,-429 649.12,-400 435.62,-400"/>
<text xml:space="preserve" text-anchor="start" x="479.38" y="-411.6" font-family="Noto Sans KR" font-weight="bold" font-size="12.00">StatDefinitionRepository</text>
<polygon fill="none" stroke="#3b4a5a" points="435.62,-373.25 435.62,-400 649.12,-400 649.12,-373.25 435.62,-373.25"/>
<text xml:space="preserve" text-anchor="start" x="442.62" y="-382.5" font-family="Noto Sans KR" font-size="10.00">&#45; definitions: Dictionary&lt;StatId, StatDefinition&gt;</text>
<polygon fill="none" stroke="#3b4a5a" points="435.62,-346.5 435.62,-373.25 649.12,-373.25 649.12,-346.5 435.62,-346.5"/>
<text xml:space="preserve" text-anchor="start" x="442.62" y="-355.75" font-family="Noto Sans KR" font-size="10.00">+ Get(id): StatDefinition</text>
<polygon fill="none" stroke="#3b4a5a" points="435.62,-319.75 435.62,-346.5 649.12,-346.5 649.12,-319.75 435.62,-319.75"/>
<text xml:space="preserve" text-anchor="start" x="442.62" y="-329" font-family="Noto Sans KR" font-size="10.00">+ Load(dataSource)</text>
<polygon fill="none" stroke="#3b4a5a" points="435.62,-293 435.62,-319.75 649.12,-319.75 649.12,-293 435.62,-293"/>
<text xml:space="preserve" text-anchor="start" x="442.62" y="-302.25" font-family="Noto Sans KR" font-size="10.00">+ ValidateAll()</text>
</g>
<!-- DerivedStatDefinition -->
<g id="node2" class="node">
<title>DerivedStatDefinition</title>
<polygon fill="#fff3cd" stroke="none" points="865.75,-474.38 865.75,-503.38 1011,-503.38 1011,-474.38 865.75,-474.38"/>
<polygon fill="none" stroke="#3b4a5a" points="865.75,-474.38 865.75,-503.38 1011,-503.38 1011,-474.38 865.75,-474.38"/>
<text xml:space="preserve" text-anchor="start" x="883.25" y="-485.98" font-family="Noto Sans KR" font-weight="bold" font-size="12.00">DerivedStatDefinition</text>
<polygon fill="none" stroke="#3b4a5a" points="865.75,-447.62 865.75,-474.38 1011,-474.38 1011,-447.62 865.75,-447.62"/>
<text xml:space="preserve" text-anchor="start" x="872.75" y="-456.88" font-family="Noto Sans KR" font-size="10.00">+ Id: StatId</text>
<polygon fill="none" stroke="#3b4a5a" points="865.75,-420.88 865.75,-447.62 1011,-447.62 1011,-420.88 865.75,-420.88"/>
<text xml:space="preserve" text-anchor="start" x="872.75" y="-430.12" font-family="Noto Sans KR" font-size="10.00">+ Dependencies: StatId[]</text>
<polygon fill="none" stroke="#3b4a5a" points="865.75,-394.12 865.75,-420.88 1011,-420.88 1011,-394.12 865.75,-394.12"/>
<text xml:space="preserve" text-anchor="start" x="872.75" y="-403.38" font-family="Noto Sans KR" font-size="10.00">+ Formula: IStatFormula</text>
<polygon fill="none" stroke="#3b4a5a" points="865.75,-367.38 865.75,-394.12 1011,-394.12 1011,-367.38 865.75,-367.38"/>
<text xml:space="preserve" text-anchor="start" x="872.75" y="-376.62" font-family="Noto Sans KR" font-size="10.00">+ CachePolicy: CachePolicy</text>
<polygon fill="none" stroke="#3b4a5a" points="865.75,-340.62 865.75,-367.38 1011,-367.38 1011,-340.62 865.75,-340.62"/>
<text xml:space="preserve" text-anchor="start" x="872.75" y="-349.88" font-family="Noto Sans KR" font-size="10.00">+ Evaluate(block, ctx): decimal</text>
</g>
<!-- IStatFormula -->
<g id="node3" class="node">
<title>IStatFormula</title>
<polygon fill="#f7f7f7" stroke="none" points="1213.75,-474.12 1213.75,-512.12 1341,-512.12 1341,-474.12 1213.75,-474.12"/>
<polygon fill="none" stroke="#3b4a5a" points="1213.75,-474.12 1213.75,-512.12 1341,-512.12 1341,-474.12 1213.75,-474.12"/>
<text xml:space="preserve" text-anchor="start" x="1242.88" y="-494.73" font-family="Noto Sans KR" font-size="12.00">&lt;&lt;interface&gt;&gt;</text>
<text xml:space="preserve" text-anchor="start" x="1244" y="-482.73" font-family="Noto Sans KR" font-weight="bold" font-size="12.00">IStatFormula</text>
<polygon fill="none" stroke="#3b4a5a" points="1213.75,-447.38 1213.75,-474.12 1341,-474.12 1341,-447.38 1213.75,-447.38"/>
<text xml:space="preserve" text-anchor="start" x="1220.75" y="-456.62" font-family="Noto Sans KR" font-size="10.00">+ Id: FormulaId</text>
<polygon fill="none" stroke="#3b4a5a" points="1213.75,-420.62 1213.75,-447.38 1341,-447.38 1341,-420.62 1213.75,-420.62"/>
<text xml:space="preserve" text-anchor="start" x="1220.75" y="-429.88" font-family="Noto Sans KR" font-size="10.00">+ Evaluate(input): decimal</text>
<polygon fill="none" stroke="#3b4a5a" points="1213.75,-393.88 1213.75,-420.62 1341,-420.62 1341,-393.88 1213.75,-393.88"/>
<text xml:space="preserve" text-anchor="start" x="1220.75" y="-403.12" font-family="Noto Sans KR" font-size="10.00">+ Dependencies(): StatId[]</text>
</g>
<!-- ResourceController -->
<g id="node4" class="node">
<title>ResourceController</title>
<polygon fill="#fce8e6" stroke="none" points="16,-830.75 16,-859.75 186,-859.75 186,-830.75 16,-830.75"/>
<polygon fill="none" stroke="#3b4a5a" points="16,-830.75 16,-859.75 186,-859.75 186,-830.75 16,-830.75"/>
<text xml:space="preserve" text-anchor="start" x="41.75" y="-842.35" font-family="Noto Sans KR" font-weight="bold" font-size="12.00">ResourceStatController</text>
<polygon fill="none" stroke="#3b4a5a" points="16,-804 16,-830.75 186,-830.75 186,-804 16,-804"/>
<text xml:space="preserve" text-anchor="start" x="23" y="-813.25" font-family="Noto Sans KR" font-size="10.00">&#45; currentStatId: StatId</text>
<polygon fill="none" stroke="#3b4a5a" points="16,-777.25 16,-804 186,-804 186,-777.25 16,-777.25"/>
<text xml:space="preserve" text-anchor="start" x="23" y="-786.5" font-family="Noto Sans KR" font-size="10.00">&#45; maxStatId: StatId</text>
<polygon fill="none" stroke="#3b4a5a" points="16,-750.5 16,-777.25 186,-777.25 186,-750.5 16,-750.5"/>
<text xml:space="preserve" text-anchor="start" x="23" y="-759.75" font-family="Noto Sans KR" font-size="10.00">&#45; policy: ResourcePolicy</text>
<polygon fill="none" stroke="#3b4a5a" points="16,-723.75 16,-750.5 186,-750.5 186,-723.75 16,-723.75"/>
<text xml:space="preserve" text-anchor="start" x="23" y="-733" font-family="Noto Sans KR" font-size="10.00">+ Spend(amount): bool</text>
<polygon fill="none" stroke="#3b4a5a" points="16,-697 16,-723.75 186,-723.75 186,-697 16,-697"/>
<text xml:space="preserve" text-anchor="start" x="23" y="-706.25" font-family="Noto Sans KR" font-size="10.00">+ Restore(amount)</text>
<polygon fill="none" stroke="#3b4a5a" points="16,-670.25 16,-697 186,-697 186,-670.25 16,-670.25"/>
<text xml:space="preserve" text-anchor="start" x="23" y="-679.5" font-family="Noto Sans KR" font-size="10.00">+ OnMaxChanged(oldMax, newMax)</text>
</g>
<!-- ResourcePolicy -->
<g id="node5" class="node">
<title>ResourcePolicy</title>
<polygon fill="#fce8e6" stroke="none" points="424,-939 424,-968 660.75,-968 660.75,-939 424,-939"/>
<polygon fill="none" stroke="#3b4a5a" points="424,-939 424,-968 660.75,-968 660.75,-939 424,-939"/>
<text xml:space="preserve" text-anchor="start" x="503.38" y="-950.6" font-family="Noto Sans KR" font-weight="bold" font-size="12.00">ResourcePolicy</text>
<polygon fill="none" stroke="#3b4a5a" points="424,-912.25 424,-939 660.75,-939 660.75,-912.25 424,-912.25"/>
<text xml:space="preserve" text-anchor="start" x="431" y="-921.5" font-family="Noto Sans KR" font-size="10.00">+ MaxChanged: MaxChangedPolicy</text>
<polygon fill="none" stroke="#3b4a5a" points="424,-885.5 424,-912.25 660.75,-912.25 660.75,-885.5 424,-885.5"/>
<text xml:space="preserve" text-anchor="start" x="431" y="-894.75" font-family="Noto Sans KR" font-size="10.00">+ AllowOvercap: bool</text>
<polygon fill="none" stroke="#3b4a5a" points="424,-858.75 424,-885.5 660.75,-885.5 660.75,-858.75 424,-858.75"/>
<text xml:space="preserve" text-anchor="start" x="431" y="-868" font-family="Noto Sans KR" font-size="10.00">+ RegenRule: RegenRule?</text>
<polygon fill="none" stroke="#3b4a5a" points="424,-832 424,-858.75 660.75,-858.75 660.75,-832 424,-832"/>
<text xml:space="preserve" text-anchor="start" x="431" y="-841.25" font-family="Noto Sans KR" font-size="10.00">+ AdjustCurrent(oldMax, newMax, current): decimal</text>
</g>
<!-- StatEventBus -->
<g id="node6" class="node">
<title>StatEventBus</title>
<polygon fill="#e0f7fa" stroke="none" points="422.12,-750.62 422.12,-779.62 662.62,-779.62 662.62,-750.62 422.12,-750.62"/>
<polygon fill="none" stroke="#3b4a5a" points="422.12,-750.62 422.12,-779.62 662.62,-779.62 662.62,-750.62 422.12,-750.62"/>
<text xml:space="preserve" text-anchor="start" x="508.25" y="-762.23" font-family="Noto Sans KR" font-weight="bold" font-size="12.00">StatEventBus</text>
<polygon fill="none" stroke="#3b4a5a" points="422.12,-723.88 422.12,-750.62 662.62,-750.62 662.62,-723.88 422.12,-723.88"/>
<text xml:space="preserve" text-anchor="start" x="429.12" y="-733.12" font-family="Noto Sans KR" font-size="10.00">&#45; subscribers: Dictionary&lt;EventType, List&lt;Handler&gt;&gt;</text>
<polygon fill="none" stroke="#3b4a5a" points="422.12,-697.12 422.12,-723.88 662.62,-723.88 662.62,-697.12 422.12,-697.12"/>
<text xml:space="preserve" text-anchor="start" x="429.12" y="-706.38" font-family="Noto Sans KR" font-size="10.00">+ Publish(domainEvent)</text>
<polygon fill="none" stroke="#3b4a5a" points="422.12,-670.38 422.12,-697.12 662.62,-697.12 662.62,-670.38 422.12,-670.38"/>
<text xml:space="preserve" text-anchor="start" x="429.12" y="-679.62" font-family="Noto Sans KR" font-size="10.00">+ Subscribe(type, handler)</text>
</g>
<!-- StatChangedEvent -->
<g id="node7" class="node">
<title>StatChangedEvent</title>
<polygon fill="#e0f7fa" stroke="none" points="881.5,-830.75 881.5,-859.75 995.25,-859.75 995.25,-830.75 881.5,-830.75"/>
<polygon fill="none" stroke="#3b4a5a" points="881.5,-830.75 881.5,-859.75 995.25,-859.75 995.25,-830.75 881.5,-830.75"/>
<text xml:space="preserve" text-anchor="start" x="890.38" y="-842.35" font-family="Noto Sans KR" font-weight="bold" font-size="12.00">StatChangedEvent</text>
<polygon fill="none" stroke="#3b4a5a" points="881.5,-804 881.5,-830.75 995.25,-830.75 995.25,-804 881.5,-804"/>
<text xml:space="preserve" text-anchor="start" x="888.5" y="-813.25" font-family="Noto Sans KR" font-size="10.00">+ OwnerId: EntityId</text>
<polygon fill="none" stroke="#3b4a5a" points="881.5,-777.25 881.5,-804 995.25,-804 995.25,-777.25 881.5,-777.25"/>
<text xml:space="preserve" text-anchor="start" x="888.5" y="-786.5" font-family="Noto Sans KR" font-size="10.00">+ StatId: StatId</text>
<polygon fill="none" stroke="#3b4a5a" points="881.5,-750.5 881.5,-777.25 995.25,-777.25 995.25,-750.5 881.5,-750.5"/>
<text xml:space="preserve" text-anchor="start" x="888.5" y="-759.75" font-family="Noto Sans KR" font-size="10.00">+ OldValue: decimal</text>
<polygon fill="none" stroke="#3b4a5a" points="881.5,-723.75 881.5,-750.5 995.25,-750.5 995.25,-723.75 881.5,-723.75"/>
<text xml:space="preserve" text-anchor="start" x="888.5" y="-733" font-family="Noto Sans KR" font-size="10.00">+ NewValue: decimal</text>
<polygon fill="none" stroke="#3b4a5a" points="881.5,-697 881.5,-723.75 995.25,-723.75 995.25,-697 881.5,-697"/>
<text xml:space="preserve" text-anchor="start" x="888.5" y="-706.25" font-family="Noto Sans KR" font-size="10.00">+ Cause: ChangeCause</text>
<polygon fill="none" stroke="#3b4a5a" points="881.5,-670.25 881.5,-697 995.25,-697 995.25,-670.25 881.5,-670.25"/>
<text xml:space="preserve" text-anchor="start" x="888.5" y="-679.5" font-family="Noto Sans KR" font-size="10.00"> </text>
</g>
<!-- StatSnapshot -->
<g id="node8" class="node">
<title>StatSnapshot</title>
<polygon fill="#f1f8e9" stroke="none" points="412.75,-149.38 412.75,-178.38 672,-178.38 672,-149.38 412.75,-149.38"/>
<polygon fill="none" stroke="#3b4a5a" points="412.75,-149.38 412.75,-178.38 672,-178.38 672,-149.38 412.75,-149.38"/>
<text xml:space="preserve" text-anchor="start" x="507.12" y="-160.97" font-family="Noto Sans KR" font-weight="bold" font-size="12.00">StatSnapshot</text>
<polygon fill="none" stroke="#3b4a5a" points="412.75,-122.62 412.75,-149.38 672,-149.38 672,-122.62 412.75,-122.62"/>
<text xml:space="preserve" text-anchor="start" x="419.75" y="-131.88" font-family="Noto Sans KR" font-size="10.00">+ OwnerId: EntityId</text>
<polygon fill="none" stroke="#3b4a5a" points="412.75,-95.88 412.75,-122.62 672,-122.62 672,-95.88 412.75,-95.88"/>
<text xml:space="preserve" text-anchor="start" x="419.75" y="-105.12" font-family="Noto Sans KR" font-size="10.00">+ BaseValues: IReadOnlyDictionary&lt;StatId, decimal&gt;</text>
<polygon fill="none" stroke="#3b4a5a" points="412.75,-69.12 412.75,-95.88 672,-95.88 672,-69.12 412.75,-69.12"/>
<text xml:space="preserve" text-anchor="start" x="419.75" y="-78.38" font-family="Noto Sans KR" font-size="10.00">+ ActiveModifiers: ModifierState[]</text>
<polygon fill="none" stroke="#3b4a5a" points="412.75,-42.38 412.75,-69.12 672,-69.12 672,-42.38 412.75,-42.38"/>
<text xml:space="preserve" text-anchor="start" x="419.75" y="-51.62" font-family="Noto Sans KR" font-size="10.00">+ ResourceValues: IReadOnlyDictionary&lt;StatId, decimal&gt;</text>
<polygon fill="none" stroke="#3b4a5a" points="412.75,-15.62 412.75,-42.38 672,-42.38 672,-15.62 412.75,-15.62"/>
<text xml:space="preserve" text-anchor="start" x="419.75" y="-24.88" font-family="Noto Sans KR" font-size="10.00">+ Restore(targetBlock)</text>
</g>
<!-- StatSaveAdapter -->
<g id="node9" class="node">
<title>StatSaveAdapter</title>
<polygon fill="#f1f8e9" stroke="none" points="16,-143 16,-172 186,-172 186,-143 16,-143"/>
<polygon fill="none" stroke="#3b4a5a" points="16,-143 16,-172 186,-172 186,-143 16,-143"/>
<text xml:space="preserve" text-anchor="start" x="57.88" y="-154.6" font-family="Noto Sans KR" font-weight="bold" font-size="12.00">StatSaveAdapter</text>
<polygon fill="none" stroke="#3b4a5a" points="16,-116.25 16,-143 186,-143 186,-116.25 16,-116.25"/>
<text xml:space="preserve" text-anchor="start" x="23" y="-125.5" font-family="Noto Sans KR" font-size="10.00">+ Version: int</text>
<polygon fill="none" stroke="#3b4a5a" points="16,-89.5 16,-116.25 186,-116.25 186,-89.5 16,-89.5"/>
<text xml:space="preserve" text-anchor="start" x="23" y="-98.75" font-family="Noto Sans KR" font-size="10.00">+ ToSnapshot(block): StatSnapshot</text>
<polygon fill="none" stroke="#3b4a5a" points="16,-62.75 16,-89.5 186,-89.5 186,-62.75 16,-62.75"/>
<text xml:space="preserve" text-anchor="start" x="23" y="-72" font-family="Noto Sans KR" font-size="10.00">+ ApplySnapshot(snapshot, block)</text>
<polygon fill="none" stroke="#3b4a5a" points="16,-36 16,-62.75 186,-62.75 186,-36 16,-36"/>
<text xml:space="preserve" text-anchor="start" x="23" y="-45.25" font-family="Noto Sans KR" font-size="10.00">+ Migrate(snapshot)</text>
</g>
<!-- DebugBreakdown -->
<g id="node10" class="node">
<title>DebugBreakdown</title>
<polygon fill="#f3e5f5" stroke="none" points="25.38,-1072.75 25.38,-1101.75 176.62,-1101.75 176.62,-1072.75 25.38,-1072.75"/>
<polygon fill="none" stroke="#3b4a5a" points="25.38,-1072.75 25.38,-1101.75 176.62,-1101.75 176.62,-1072.75 25.38,-1072.75"/>
<text xml:space="preserve" text-anchor="start" x="44" y="-1084.35" font-family="Noto Sans KR" font-weight="bold" font-size="12.00">StatDebugBreakdown</text>
<polygon fill="none" stroke="#3b4a5a" points="25.38,-1046 25.38,-1072.75 176.62,-1072.75 176.62,-1046 25.38,-1046"/>
<text xml:space="preserve" text-anchor="start" x="32.38" y="-1055.25" font-family="Noto Sans KR" font-size="10.00">+ StatId: StatId</text>
<polygon fill="none" stroke="#3b4a5a" points="25.38,-1019.25 25.38,-1046 176.62,-1046 176.62,-1019.25 25.38,-1019.25"/>
<text xml:space="preserve" text-anchor="start" x="32.38" y="-1028.5" font-family="Noto Sans KR" font-size="10.00">+ BaseValue: decimal</text>
<polygon fill="none" stroke="#3b4a5a" points="25.38,-992.5 25.38,-1019.25 176.62,-1019.25 176.62,-992.5 25.38,-992.5"/>
<text xml:space="preserve" text-anchor="start" x="32.38" y="-1001.75" font-family="Noto Sans KR" font-size="10.00">+ PhaseLines: BreakdownLine[]</text>
<polygon fill="none" stroke="#3b4a5a" points="25.38,-965.75 25.38,-992.5 176.62,-992.5 176.62,-965.75 25.38,-965.75"/>
<text xml:space="preserve" text-anchor="start" x="32.38" y="-975" font-family="Noto Sans KR" font-size="10.00">+ FinalValue: decimal</text>
<polygon fill="none" stroke="#3b4a5a" points="25.38,-939 25.38,-965.75 176.62,-965.75 176.62,-939 25.38,-939"/>
<text xml:space="preserve" text-anchor="start" x="32.38" y="-948.25" font-family="Noto Sans KR" font-size="10.00">+ ToText()</text>
<polygon fill="none" stroke="#3b4a5a" points="25.38,-912.25 25.38,-939 176.62,-939 176.62,-912.25 25.38,-912.25"/>
<text xml:space="preserve" text-anchor="start" x="32.38" y="-921.5" font-family="Noto Sans KR" font-size="10.00">+ ToTableRows()</text>
</g>
<!-- StatDependencyGraph -->
<g id="node11" class="node">
<title>StatDependencyGraph</title>
<polygon fill="#fffde7" stroke="none" points="1195,-312.62 1195,-341.62 1359.75,-341.62 1359.75,-312.62 1195,-312.62"/>
<polygon fill="none" stroke="#3b4a5a" points="1195,-312.62 1195,-341.62 1359.75,-341.62 1359.75,-312.62 1195,-312.62"/>
<text xml:space="preserve" text-anchor="start" x="1217.75" y="-324.23" font-family="Noto Sans KR" font-weight="bold" font-size="12.00">StatDependencyGraph</text>
<polygon fill="none" stroke="#3b4a5a" points="1195,-285.88 1195,-312.62 1359.75,-312.62 1359.75,-285.88 1195,-285.88"/>
<text xml:space="preserve" text-anchor="start" x="1202" y="-295.12" font-family="Noto Sans KR" font-size="10.00">&#45; edges: Dictionary&lt;StatId, StatId[]&gt;</text>
<polygon fill="none" stroke="#3b4a5a" points="1195,-259.12 1195,-285.88 1359.75,-285.88 1359.75,-259.12 1195,-259.12"/>
<text xml:space="preserve" text-anchor="start" x="1202" y="-268.38" font-family="Noto Sans KR" font-size="10.00">+ MarkDependentsDirty(statId)</text>
<polygon fill="none" stroke="#3b4a5a" points="1195,-232.38 1195,-259.12 1359.75,-259.12 1359.75,-232.38 1195,-232.38"/>
<text xml:space="preserve" text-anchor="start" x="1202" y="-241.62" font-family="Noto Sans KR" font-size="10.00">+ DetectCycles()</text>
</g>
</g>
</svg>
