<?xml version="1.0" encoding="UTF-8" standalone="no"?>
<!DOCTYPE svg PUBLIC "-//W3C//DTD SVG 1.1//EN"
 "http://www.w3.org/Graphics/SVG/1.1/DTD/svg11.dtd">
<!-- Generated by graphviz version 2.42.4 (0)
 -->
<!-- Title: ExtensionClassDiagram Pages: 1 -->
<svg width="1679pt" height="829pt"
 viewBox="0.00 0.00 1679.00 828.50" xmlns="http://www.w3.org/2000/svg" xmlns:xlink="http://www.w3.org/1999/xlink">
<g id="graph0" class="graph" transform="scale(1 1) rotate(0) translate(4 824.5)">
<title>ExtensionClassDiagram</title>
<polygon fill="white" stroke="transparent" points="-4,4 -4,-824.5 1675,-824.5 1675,4 -4,4"/>
<text text-anchor="middle" x="835.5" y="-802.1" font-family="Noto Sans CJK KR" font-size="18.00">UML Class Diagram 2 &#45; Resources, Derived Stats, Events, Persistence</text>
<!-- StatDefinitionRepository -->
<g id="node1" class="node">
<title>StatDefinitionRepository</title>
<polygon fill="#fff3cd" stroke="transparent" points="311,-284 311,-311 515,-311 515,-284 311,-284"/>
<polygon fill="none" stroke="#3b4a5a" points="311,-284 311,-311 515,-311 515,-284 311,-284"/>
<text text-anchor="start" x="340" y="-295.4" font-family="Noto Sans CJK KR" font-weight="bold" font-size="12.00">StatDefinitionRepository</text>
<polygon fill="none" stroke="#3b4a5a" points="311,-259 311,-284 515,-284 515,-259 311,-259"/>
<text text-anchor="start" x="318" y="-269" font-family="Noto Sans CJK KR" font-size="10.00">&#45; definitions: Map&lt;StatId, StatDefinition&gt;</text>
<polygon fill="none" stroke="#3b4a5a" points="311,-234 311,-259 515,-259 515,-234 311,-234"/>
<text text-anchor="start" x="318" y="-244" font-family="Noto Sans CJK KR" font-size="10.00">+ get(id): StatDefinition</text>
<polygon fill="none" stroke="#3b4a5a" points="311,-209 311,-234 515,-234 515,-209 311,-209"/>
<text text-anchor="start" x="318" y="-219" font-family="Noto Sans CJK KR" font-size="10.00">+ load(dataSource)</text>
<polygon fill="none" stroke="#3b4a5a" points="311,-184 311,-209 515,-209 515,-184 311,-184"/>
<text text-anchor="start" x="318" y="-194" font-family="Noto Sans CJK KR" font-size="10.00">+ validateAll()</text>
</g>
<!-- DerivedStatDefinition -->
<g id="node2" class="node">
<title>DerivedStatDefinition</title>
<polygon fill="#fff3cd" stroke="transparent" points="610,-297 610,-324 768,-324 768,-297 610,-297"/>
<polygon fill="none" stroke="#3b4a5a" points="610,-297 610,-324 768,-324 768,-297 610,-297"/>
<text text-anchor="start" x="625.5" y="-308.4" font-family="Noto Sans CJK KR" font-weight="bold" font-size="12.00">DerivedStatDefinition</text>
<polygon fill="none" stroke="#3b4a5a" points="610,-272 610,-297 768,-297 768,-272 610,-272"/>
<text text-anchor="start" x="617" y="-282" font-family="Noto Sans CJK KR" font-size="10.00">+ id: StatId</text>
<polygon fill="none" stroke="#3b4a5a" points="610,-247 610,-272 768,-272 768,-247 610,-247"/>
<text text-anchor="start" x="617" y="-257" font-family="Noto Sans CJK KR" font-size="10.00">+ dependencies: StatId[]</text>
<polygon fill="none" stroke="#3b4a5a" points="610,-222 610,-247 768,-247 768,-222 610,-222"/>
<text text-anchor="start" x="617" y="-232" font-family="Noto Sans CJK KR" font-size="10.00">+ formula: IStatFormula</text>
<polygon fill="none" stroke="#3b4a5a" points="610,-197 610,-222 768,-222 768,-197 610,-197"/>
<text text-anchor="start" x="617" y="-207" font-family="Noto Sans CJK KR" font-size="10.00">+ cachePolicy: CachePolicy</text>
<polygon fill="none" stroke="#3b4a5a" points="610,-172 610,-197 768,-197 768,-172 610,-172"/>
<text text-anchor="start" x="617" y="-182" font-family="Noto Sans CJK KR" font-size="10.00">+ evaluate(block, ctx): decimal</text>
</g>
<!-- StatDefinitionRepository&#45;&gt;DerivedStatDefinition -->
<g id="edge1" class="edge">
<title>StatDefinitionRepository&#45;&gt;DerivedStatDefinition</title>
<path fill="none" stroke="#425466" d="M515.38,-248C515.38,-248 600.05,-248 600.05,-248"/>
<polygon fill="#425466" stroke="#425466" points="600.05,-248 604.85,-244.8 609.65,-248 604.85,-251.2 600.05,-248"/>
<text text-anchor="middle" x="562.5" y="-251" font-family="Noto Sans CJK KR" font-size="10.00">stores 0..*</text>
</g>
<!-- IStatFormula -->
<g id="node3" class="node">
<title>IStatFormula</title>
<polygon fill="#f7f7f7" stroke="transparent" points="893.5,-336 893.5,-374 1030.5,-374 1030.5,-336 893.5,-336"/>
<polygon fill="none" stroke="#3b4a5a" points="893.5,-336 893.5,-374 1030.5,-374 1030.5,-336 893.5,-336"/>
<text text-anchor="start" x="923.5" y="-358.4" font-family="Noto Sans CJK KR" font-size="12.00">&lt;&lt;interface&gt;&gt;</text>
<text text-anchor="start" x="924" y="-346.4" font-family="Noto Sans CJK KR" font-weight="bold" font-size="12.00">IStatFormula</text>
<polygon fill="none" stroke="#3b4a5a" points="893.5,-311 893.5,-336 1030.5,-336 1030.5,-311 893.5,-311"/>
<text text-anchor="start" x="900.5" y="-321" font-family="Noto Sans CJK KR" font-size="10.00">+ id: FormulaId</text>
<polygon fill="none" stroke="#3b4a5a" points="893.5,-286 893.5,-311 1030.5,-311 1030.5,-286 893.5,-286"/>
<text text-anchor="start" x="900.5" y="-296" font-family="Noto Sans CJK KR" font-size="10.00">+ evaluate(input): decimal</text>
<polygon fill="none" stroke="#3b4a5a" points="893.5,-261 893.5,-286 1030.5,-286 1030.5,-261 893.5,-261"/>
<text text-anchor="start" x="900.5" y="-271" font-family="Noto Sans CJK KR" font-size="10.00">+ dependencies(): StatId[]</text>
</g>
<!-- DerivedStatDefinition&#45;&gt;IStatFormula -->
<g id="edge2" class="edge">
<title>DerivedStatDefinition&#45;&gt;IStatFormula</title>
<path fill="none" stroke="#425466" d="M768.18,-292.75C768.18,-292.75 884.76,-292.75 884.76,-292.75"/>
<polygon fill="#425466" stroke="#425466" points="892.76,-292.75 884.76,-296.35 888.76,-292.75 884.76,-292.75 884.76,-292.75 884.76,-292.75 888.76,-292.75 884.76,-289.15 892.76,-292.75 892.76,-292.75"/>
<text text-anchor="middle" x="825" y="-321" font-family="Noto Sans CJK KR" font-size="10.00">uses</text>
</g>
<!-- StatDependencyGraph -->
<g id="node11" class="node">
<title>StatDependencyGraph</title>
<polygon fill="#fffde7" stroke="transparent" points="883.5,-202 883.5,-229 1040.5,-229 1040.5,-202 883.5,-202"/>
<polygon fill="none" stroke="#3b4a5a" points="883.5,-202 883.5,-229 1040.5,-229 1040.5,-202 883.5,-202"/>
<text text-anchor="start" x="897" y="-213.4" font-family="Noto Sans CJK KR" font-weight="bold" font-size="12.00">StatDependencyGraph</text>
<polygon fill="none" stroke="#3b4a5a" points="883.5,-177 883.5,-202 1040.5,-202 1040.5,-177 883.5,-177"/>
<text text-anchor="start" x="890.5" y="-187" font-family="Noto Sans CJK KR" font-size="10.00">&#45; edges: Map&lt;StatId, StatId[]&gt;</text>
<polygon fill="none" stroke="#3b4a5a" points="883.5,-152 883.5,-177 1040.5,-177 1040.5,-152 883.5,-152"/>
<text text-anchor="start" x="890.5" y="-162" font-family="Noto Sans CJK KR" font-size="10.00">+ markDependentsDirty(statId)</text>
<polygon fill="none" stroke="#3b4a5a" points="883.5,-127 883.5,-152 1040.5,-152 1040.5,-127 883.5,-127"/>
<text text-anchor="start" x="890.5" y="-137" font-family="Noto Sans CJK KR" font-size="10.00">+ detectCycles()</text>
</g>
<!-- DerivedStatDefinition&#45;&gt;StatDependencyGraph -->
<g id="edge3" class="edge">
<title>DerivedStatDefinition&#45;&gt;StatDependencyGraph</title>
<path fill="none" stroke="#425466" d="M768.18,-200.5C768.18,-200.5 874.59,-200.5 874.59,-200.5"/>
<polygon fill="#425466" stroke="#425466" points="882.59,-200.5 874.59,-204.1 878.59,-200.5 874.59,-200.5 874.59,-200.5 874.59,-200.5 878.59,-200.5 874.59,-196.9 882.59,-200.5 882.59,-200.5"/>
<text text-anchor="middle" x="825" y="-227" font-family="Noto Sans CJK KR" font-size="10.00">registers deps</text>
</g>
<!-- ResourceController -->
<g id="node4" class="node">
<title>ResourceController</title>
<polygon fill="#fce8e6" stroke="transparent" points="885.5,-765 885.5,-792 1037.5,-792 1037.5,-765 885.5,-765"/>
<polygon fill="none" stroke="#3b4a5a" points="885.5,-765 885.5,-792 1037.5,-792 1037.5,-765 885.5,-765"/>
<text text-anchor="start" x="892.5" y="-776.4" font-family="Noto Sans CJK KR" font-weight="bold" font-size="12.00">ResourceStatController</text>
<polygon fill="none" stroke="#3b4a5a" points="885.5,-740 885.5,-765 1037.5,-765 1037.5,-740 885.5,-740"/>
<text text-anchor="start" x="892.5" y="-750" font-family="Noto Sans CJK KR" font-size="10.00">&#45; currentStatId: StatId</text>
<polygon fill="none" stroke="#3b4a5a" points="885.5,-715 885.5,-740 1037.5,-740 1037.5,-715 885.5,-715"/>
<text text-anchor="start" x="892.5" y="-725" font-family="Noto Sans CJK KR" font-size="10.00">&#45; maxStatId: StatId</text>
<polygon fill="none" stroke="#3b4a5a" points="885.5,-690 885.5,-715 1037.5,-715 1037.5,-690 885.5,-690"/>
<text text-anchor="start" x="892.5" y="-700" font-family="Noto Sans CJK KR" font-size="10.00">&#45; policy: ResourcePolicy</text>
<polygon fill="none" stroke="#3b4a5a" points="885.5,-665 885.5,-690 1037.5,-690 1037.5,-665 885.5,-665"/>
<text text-anchor="start" x="892.5" y="-675" font-family="Noto Sans CJK KR" font-size="10.00">+ spend(amount): bool</text>
<polygon fill="none" stroke="#3b4a5a" points="885.5,-640 885.5,-665 1037.5,-665 1037.5,-640 885.5,-640"/>
<text text-anchor="start" x="892.5" y="-650" font-family="Noto Sans CJK KR" font-size="10.00">+ restore(amount)</text>
<polygon fill="none" stroke="#3b4a5a" points="885.5,-615 885.5,-640 1037.5,-640 1037.5,-615 885.5,-615"/>
<text text-anchor="start" x="892.5" y="-625" font-family="Noto Sans CJK KR" font-size="10.00">+ onMaxChanged(old,max)</text>
</g>
<!-- ResourcePolicy -->
<g id="node5" class="node">
<title>ResourcePolicy</title>
<polygon fill="#fce8e6" stroke="transparent" points="1213.5,-740 1213.5,-767 1462.5,-767 1462.5,-740 1213.5,-740"/>
<polygon fill="none" stroke="#3b4a5a" points="1213.5,-740 1213.5,-767 1462.5,-767 1462.5,-740 1213.5,-740"/>
<text text-anchor="start" x="1293" y="-751.4" font-family="Noto Sans CJK KR" font-weight="bold" font-size="12.00">ResourcePolicy</text>
<polygon fill="none" stroke="#3b4a5a" points="1213.5,-715 1213.5,-740 1462.5,-740 1462.5,-715 1213.5,-715"/>
<text text-anchor="start" x="1220.5" y="-725" font-family="Noto Sans CJK KR" font-size="10.00">+ maxChanged: MaxChangedPolicy</text>
<polygon fill="none" stroke="#3b4a5a" points="1213.5,-690 1213.5,-715 1462.5,-715 1462.5,-690 1213.5,-690"/>
<text text-anchor="start" x="1220.5" y="-700" font-family="Noto Sans CJK KR" font-size="10.00">+ allowOvercap: bool</text>
<polygon fill="none" stroke="#3b4a5a" points="1213.5,-665 1213.5,-690 1462.5,-690 1462.5,-665 1213.5,-665"/>
<text text-anchor="start" x="1220.5" y="-675" font-family="Noto Sans CJK KR" font-size="10.00">+ regenRule: RegenRule?</text>
<polygon fill="none" stroke="#3b4a5a" points="1213.5,-640 1213.5,-665 1462.5,-665 1462.5,-640 1213.5,-640"/>
<text text-anchor="start" x="1220.5" y="-650" font-family="Noto Sans CJK KR" font-size="10.00">+ adjustCurrent(oldMax,newMax,current): decimal</text>
</g>
<!-- ResourceController&#45;&gt;ResourcePolicy -->
<g id="edge4" class="edge">
<title>ResourceController&#45;&gt;ResourcePolicy</title>
<path fill="none" stroke="#425466" d="M1037.59,-704C1037.59,-704 1204.67,-704 1204.67,-704"/>
<polygon fill="#425466" stroke="#425466" points="1212.67,-704 1204.67,-707.6 1208.67,-704 1204.67,-704 1204.67,-704 1204.67,-704 1208.67,-704 1204.67,-700.4 1212.67,-704 1212.67,-704"/>
<text text-anchor="middle" x="1127" y="-707" font-family="Noto Sans CJK KR" font-size="10.00">uses</text>
</g>
<!-- StatEventBus -->
<g id="node6" class="node">
<title>StatEventBus</title>
<polygon fill="#e0f7fa" stroke="transparent" points="1225.5,-519 1225.5,-546 1450.5,-546 1450.5,-519 1225.5,-519"/>
<polygon fill="none" stroke="#3b4a5a" points="1225.5,-519 1225.5,-546 1450.5,-546 1450.5,-519 1225.5,-519"/>
<text text-anchor="start" x="1298.5" y="-530.4" font-family="Noto Sans CJK KR" font-weight="bold" font-size="12.00">StatEventBus</text>
<polygon fill="none" stroke="#3b4a5a" points="1225.5,-494 1225.5,-519 1450.5,-519 1450.5,-494 1225.5,-494"/>
<text text-anchor="start" x="1232.5" y="-504" font-family="Noto Sans CJK KR" font-size="10.00">&#45; subscribers: Multimap&lt;EventType, Handler&gt;</text>
<polygon fill="none" stroke="#3b4a5a" points="1225.5,-469 1225.5,-494 1450.5,-494 1450.5,-469 1225.5,-469"/>
<text text-anchor="start" x="1232.5" y="-479" font-family="Noto Sans CJK KR" font-size="10.00">+ publish(event)</text>
<polygon fill="none" stroke="#3b4a5a" points="1225.5,-444 1225.5,-469 1450.5,-469 1450.5,-444 1225.5,-444"/>
<text text-anchor="start" x="1232.5" y="-454" font-family="Noto Sans CJK KR" font-size="10.00">+ subscribe(type, handler)</text>
</g>
<!-- ResourceController&#45;&gt;StatEventBus -->
<g id="edge5" class="edge">
<title>ResourceController&#45;&gt;StatEventBus</title>
<path fill="none" stroke="#425466" d="M1037.69,-628C1147.7,-628 1338,-628 1338,-628 1338,-628 1338,-554.04 1338,-554.04"/>
<polygon fill="#425466" stroke="#425466" points="1338,-546.04 1341.6,-554.04 1338,-550.04 1338,-554.04 1338,-554.04 1338,-554.04 1338,-550.04 1334.4,-554.04 1338,-546.04 1338,-546.04"/>
<text text-anchor="middle" x="1127" y="-603" font-family="Noto Sans CJK KR" font-size="10.00">publishes resource change</text>
</g>
<!-- StatChangedEvent -->
<g id="node7" class="node">
<title>StatChangedEvent</title>
<polygon fill="#e0f7fa" stroke="transparent" points="1549,-556 1549,-583 1671,-583 1671,-556 1549,-556"/>
<polygon fill="none" stroke="#3b4a5a" points="1549,-556 1549,-583 1671,-583 1671,-556 1549,-556"/>
<text text-anchor="start" x="1556" y="-567.4" font-family="Noto Sans CJK KR" font-weight="bold" font-size="12.00">StatChangedEvent</text>
<polygon fill="none" stroke="#3b4a5a" points="1549,-531 1549,-556 1671,-556 1671,-531 1549,-531"/>
<text text-anchor="start" x="1556" y="-541" font-family="Noto Sans CJK KR" font-size="10.00">+ ownerId: EntityId</text>
<polygon fill="none" stroke="#3b4a5a" points="1549,-506 1549,-531 1671,-531 1671,-506 1549,-506"/>
<text text-anchor="start" x="1556" y="-516" font-family="Noto Sans CJK KR" font-size="10.00">+ statId: StatId</text>
<polygon fill="none" stroke="#3b4a5a" points="1549,-481 1549,-506 1671,-506 1671,-481 1549,-481"/>
<text text-anchor="start" x="1556" y="-491" font-family="Noto Sans CJK KR" font-size="10.00">+ oldValue: decimal</text>
<polygon fill="none" stroke="#3b4a5a" points="1549,-456 1549,-481 1671,-481 1671,-456 1549,-456"/>
<text text-anchor="start" x="1556" y="-466" font-family="Noto Sans CJK KR" font-size="10.00">+ newValue: decimal</text>
<polygon fill="none" stroke="#3b4a5a" points="1549,-431 1549,-456 1671,-456 1671,-431 1549,-431"/>
<text text-anchor="start" x="1556" y="-441" font-family="Noto Sans CJK KR" font-size="10.00">+ cause: ChangeCause</text>
<polygon fill="none" stroke="#3b4a5a" points="1549,-406 1549,-431 1671,-431 1671,-406 1549,-406"/>
<text text-anchor="start" x="1556" y="-416" font-family="Noto Sans CJK KR" font-size="10.00"> </text>
</g>
<!-- StatEventBus&#45;&gt;StatChangedEvent -->
<g id="edge6" class="edge">
<title>StatEventBus&#45;&gt;StatChangedEvent</title>
<path fill="none" stroke="#425466" d="M1450.3,-495C1450.3,-495 1539.08,-495 1539.08,-495"/>
<polygon fill="#425466" stroke="#425466" points="1539.08,-495 1543.88,-491.8 1548.68,-495 1543.88,-498.2 1539.08,-495"/>
<text text-anchor="middle" x="1505.5" y="-498" font-family="Noto Sans CJK KR" font-size="10.00">delivers</text>
</g>
<!-- StatSnapshot -->
<g id="node8" class="node">
<title>StatSnapshot</title>
<polygon fill="#f1f8e9" stroke="transparent" points="329,-125 329,-152 497,-152 497,-125 329,-125"/>
<polygon fill="none" stroke="#3b4a5a" points="329,-125 329,-152 497,-152 497,-125 329,-125"/>
<text text-anchor="start" x="373.5" y="-136.4" font-family="Noto Sans CJK KR" font-weight="bold" font-size="12.00">StatSnapshot</text>
<polygon fill="none" stroke="#3b4a5a" points="329,-100 329,-125 497,-125 497,-100 329,-100"/>
<text text-anchor="start" x="336" y="-110" font-family="Noto Sans CJK KR" font-size="10.00">+ ownerId: EntityId</text>
<polygon fill="none" stroke="#3b4a5a" points="329,-75 329,-100 497,-100 497,-75 329,-75"/>
<text text-anchor="start" x="336" y="-85" font-family="Noto Sans CJK KR" font-size="10.00">+ baseValues: Map</text>
<polygon fill="none" stroke="#3b4a5a" points="329,-50 329,-75 497,-75 497,-50 329,-50"/>
<text text-anchor="start" x="336" y="-60" font-family="Noto Sans CJK KR" font-size="10.00">+ activeModifiers: ModifierState[]</text>
<polygon fill="none" stroke="#3b4a5a" points="329,-25 329,-50 497,-50 497,-25 329,-25"/>
<text text-anchor="start" x="336" y="-35" font-family="Noto Sans CJK KR" font-size="10.00">+ resourceValues: Map</text>
<polygon fill="none" stroke="#3b4a5a" points="329,0 329,-25 497,-25 497,0 329,0"/>
<text text-anchor="start" x="336" y="-10" font-family="Noto Sans CJK KR" font-size="10.00">+ restore(targetBlock)</text>
</g>
<!-- StatSaveAdapter -->
<g id="node9" class="node">
<title>StatSaveAdapter</title>
<polygon fill="#f1f8e9" stroke="transparent" points="0.5,-136 0.5,-163 177.5,-163 177.5,-136 0.5,-136"/>
<polygon fill="none" stroke="#3b4a5a" points="0.5,-136 0.5,-163 177.5,-163 177.5,-136 0.5,-136"/>
<text text-anchor="start" x="40.5" y="-147.4" font-family="Noto Sans CJK KR" font-weight="bold" font-size="12.00">StatSaveAdapter</text>
<polygon fill="none" stroke="#3b4a5a" points="0.5,-111 0.5,-136 177.5,-136 177.5,-111 0.5,-111"/>
<text text-anchor="start" x="7.5" y="-121" font-family="Noto Sans CJK KR" font-size="10.00">+ version: int</text>
<polygon fill="none" stroke="#3b4a5a" points="0.5,-86 0.5,-111 177.5,-111 177.5,-86 0.5,-86"/>
<text text-anchor="start" x="7.5" y="-96" font-family="Noto Sans CJK KR" font-size="10.00">+ toSnapshot(block): StatSnapshot</text>
<polygon fill="none" stroke="#3b4a5a" points="0.5,-61 0.5,-86 177.5,-86 177.5,-61 0.5,-61"/>
<text text-anchor="start" x="7.5" y="-71" font-family="Noto Sans CJK KR" font-size="10.00">+ applySnapshot(snapshot, block)</text>
<polygon fill="none" stroke="#3b4a5a" points="0.5,-36 0.5,-61 177.5,-61 177.5,-36 0.5,-36"/>
<text text-anchor="start" x="7.5" y="-46" font-family="Noto Sans CJK KR" font-size="10.00">+ migrate(snapshot)</text>
</g>
<!-- StatSaveAdapter&#45;&gt;StatDefinitionRepository -->
<g id="edge8" class="edge">
<title>StatSaveAdapter&#45;&gt;StatDefinitionRepository</title>
<path fill="none" stroke="#425466" d="M177.01,-157.75C242.36,-157.75 320,-157.75 320,-157.75 320,-157.75 320,-176.34 320,-176.34"/>
<polygon fill="#425466" stroke="#425466" points="320,-184.34 316.4,-176.34 320,-180.34 320,-176.34 320,-176.34 320,-176.34 320,-180.34 323.6,-176.34 320,-184.34 320,-184.34"/>
<text text-anchor="middle" x="244" y="-189" font-family="Noto Sans CJK KR" font-size="10.00">version validation</text>
</g>
<!-- StatSaveAdapter&#45;&gt;StatSnapshot -->
<g id="edge7" class="edge">
<title>StatSaveAdapter&#45;&gt;StatSnapshot</title>
<path fill="none" stroke="#425466" d="M177.17,-94.25C177.17,-94.25 320.91,-94.25 320.91,-94.25"/>
<polygon fill="#425466" stroke="#425466" points="328.91,-94.25 320.91,-97.85 324.91,-94.25 320.91,-94.25 320.91,-94.25 320.91,-94.25 324.91,-94.25 320.91,-90.65 328.91,-94.25 328.91,-94.25"/>
<text text-anchor="middle" x="244" y="-79" font-family="Noto Sans CJK KR" font-size="10.00">creates/restores</text>
</g>
<!-- DebugBreakdown -->
<g id="node10" class="node">
<title>DebugBreakdown</title>
<polygon fill="#f3e5f5" stroke="transparent" points="882.5,-556 882.5,-583 1041.5,-583 1041.5,-556 882.5,-556"/>
<polygon fill="none" stroke="#3b4a5a" points="882.5,-556 882.5,-583 1041.5,-583 1041.5,-556 882.5,-556"/>
<text text-anchor="start" x="898" y="-567.4" font-family="Noto Sans CJK KR" font-weight="bold" font-size="12.00">StatDebugBreakdown</text>
<polygon fill="none" stroke="#3b4a5a" points="882.5,-531 882.5,-556 1041.5,-556 1041.5,-531 882.5,-531"/>
<text text-anchor="start" x="889.5" y="-541" font-family="Noto Sans CJK KR" font-size="10.00">+ statId: StatId</text>
<polygon fill="none" stroke="#3b4a5a" points="882.5,-506 882.5,-531 1041.5,-531 1041.5,-506 882.5,-506"/>
<text text-anchor="start" x="889.5" y="-516" font-family="Noto Sans CJK KR" font-size="10.00">+ base: decimal</text>
<polygon fill="none" stroke="#3b4a5a" points="882.5,-481 882.5,-506 1041.5,-506 1041.5,-481 882.5,-481"/>
<text text-anchor="start" x="889.5" y="-491" font-family="Noto Sans CJK KR" font-size="10.00">+ phaseLines: BreakdownLine[]</text>
<polygon fill="none" stroke="#3b4a5a" points="882.5,-456 882.5,-481 1041.5,-481 1041.5,-456 882.5,-456"/>
<text text-anchor="start" x="889.5" y="-466" font-family="Noto Sans CJK KR" font-size="10.00">+ final: decimal</text>
<polygon fill="none" stroke="#3b4a5a" points="882.5,-431 882.5,-456 1041.5,-456 1041.5,-431 882.5,-431"/>
<text text-anchor="start" x="889.5" y="-441" font-family="Noto Sans CJK KR" font-size="10.00">+ toText()</text>
<polygon fill="none" stroke="#3b4a5a" points="882.5,-406 882.5,-431 1041.5,-431 1041.5,-406 882.5,-406"/>
<text text-anchor="start" x="889.5" y="-416" font-family="Noto Sans CJK KR" font-size="10.00">+ toTableRows()</text>
</g>
<!-- DebugBreakdown&#45;&gt;StatEventBus -->
<g id="edge9" class="edge">
<title>DebugBreakdown&#45;&gt;StatEventBus</title>
<path fill="none" stroke="#425466" stroke-dasharray="5,2" d="M1041.24,-495C1041.24,-495 1216.71,-495 1216.71,-495"/>
<polygon fill="#425466" stroke="#425466" points="1224.71,-495 1216.71,-498.6 1220.71,-495 1216.71,-495 1216.71,-495 1216.71,-495 1220.71,-495 1216.71,-491.4 1224.71,-495 1224.71,-495"/>
<text text-anchor="middle" x="1127" y="-498" font-family="Noto Sans CJK KR" font-size="10.00">optional diagnostic event</text>
</g>
<!-- StatDependencyGraph&#45;&gt;StatEventBus -->
<g id="edge10" class="edge">
<title>StatDependencyGraph&#45;&gt;StatEventBus</title>
<path fill="none" stroke="#425466" stroke-dasharray="5,2" d="M1040.43,-178C1150.83,-178 1338,-178 1338,-178 1338,-178 1338,-435.72 1338,-435.72"/>
<polygon fill="#425466" stroke="#425466" points="1338,-443.72 1334.4,-435.72 1338,-439.72 1338,-435.72 1338,-435.72 1338,-435.72 1338,-439.72 1341.6,-435.72 1338,-443.72 1338,-443.72"/>
<text text-anchor="middle" x="1127" y="-315" font-family="Noto Sans CJK KR" font-size="10.00">dirty notifications</text>
</g>
</g>
</svg>
