<?xml version="1.0" encoding="UTF-8" standalone="no"?>
<!DOCTYPE svg PUBLIC "-//W3C//DTD SVG 1.1//EN"
 "http://www.w3.org/Graphics/SVG/1.1/DTD/svg11.dtd">
<!-- Generated by graphviz version 15.0.0 (20260523.1842)
 -->
<!-- Title: ExtensionClassDiagram Pages: 1 -->
<svg width="1618pt" height="856pt"
 viewBox="0.00 0.00 1618.00 856.00" xmlns="http://www.w3.org/2000/svg" xmlns:xlink="http://www.w3.org/1999/xlink">
<style>.node text { font-size: 90%; }</style>
<g id="graph0" class="graph" transform="scale(1 1) rotate(0) translate(4 852)">
<title>ExtensionClassDiagram</title>
<polygon fill="white" stroke="none" points="-4,4 -4,-852 1614.11,-852 1614.11,4 -4,4"/>
<text xml:space="preserve" text-anchor="middle" x="805.05" y="-827.8" font-family="Noto Sans CJK KR" font-size="18.00">UML Class Diagram 2 &#45; Resources, Derived Stats, Events, Persistence</text>
<!-- StatDefinitionRepository -->
<g id="node1" class="node">
<title>StatDefinitionRepository</title>
<polygon fill="#fff3cd" stroke="none" points="299.92,-294 299.92,-322.4 507.39,-322.4 507.39,-294 299.92,-294"/>
<polygon fill="none" stroke="#3b4a5a" points="299.92,-294 299.92,-322.4 507.39,-322.4 507.39,-294 299.92,-294"/>
<text xml:space="preserve" text-anchor="start" x="339.66" y="-305.6" font-family="Noto Sans CJK KR" font-weight="bold" font-size="12.00">StatDefinitionRepository</text>
<polygon fill="none" stroke="#3b4a5a" points="299.92,-268 299.92,-294 507.39,-294 507.39,-268 299.92,-268"/>
<text xml:space="preserve" text-anchor="start" x="306.92" y="-277" font-family="Noto Sans CJK KR" font-size="10.00">&#45; definitions: Dictionary&lt;StatId, StatDefinition&gt;</text>
<polygon fill="none" stroke="#3b4a5a" points="299.92,-242 299.92,-268 507.39,-268 507.39,-242 299.92,-242"/>
<text xml:space="preserve" text-anchor="start" x="306.92" y="-251" font-family="Noto Sans CJK KR" font-size="10.00">+ Get(id): StatDefinition</text>
<polygon fill="none" stroke="#3b4a5a" points="299.92,-216 299.92,-242 507.39,-242 507.39,-216 299.92,-216"/>
<text xml:space="preserve" text-anchor="start" x="306.92" y="-225" font-family="Noto Sans CJK KR" font-size="10.00">+ Load(dataSource)</text>
<polygon fill="none" stroke="#3b4a5a" points="299.92,-190 299.92,-216 507.39,-216 507.39,-190 299.92,-190"/>
<text xml:space="preserve" text-anchor="start" x="306.92" y="-199" font-family="Noto Sans CJK KR" font-size="10.00">+ ValidateAll()</text>
</g>
<!-- DerivedStatDefinition -->
<g id="node2" class="node">
<title>DerivedStatDefinition</title>
<polygon fill="#fff3cd" stroke="none" points="619.91,-307 619.91,-335.4 760.05,-335.4 760.05,-307 619.91,-307"/>
<polygon fill="none" stroke="#3b4a5a" points="619.91,-307 619.91,-335.4 760.05,-335.4 760.05,-307 619.91,-307"/>
<text xml:space="preserve" text-anchor="start" x="633.65" y="-318.6" font-family="Noto Sans CJK KR" font-weight="bold" font-size="12.00">DerivedStatDefinition</text>
<polygon fill="none" stroke="#3b4a5a" points="619.91,-281 619.91,-307 760.05,-307 760.05,-281 619.91,-281"/>
<text xml:space="preserve" text-anchor="start" x="626.91" y="-290" font-family="Noto Sans CJK KR" font-size="10.00">+ Id: StatId</text>
<polygon fill="none" stroke="#3b4a5a" points="619.91,-255 619.91,-281 760.05,-281 760.05,-255 619.91,-255"/>
<text xml:space="preserve" text-anchor="start" x="626.91" y="-264" font-family="Noto Sans CJK KR" font-size="10.00">+ Dependencies: StatId[]</text>
<polygon fill="none" stroke="#3b4a5a" points="619.91,-229 619.91,-255 760.05,-255 760.05,-229 619.91,-229"/>
<text xml:space="preserve" text-anchor="start" x="626.91" y="-238" font-family="Noto Sans CJK KR" font-size="10.00">+ Formula: IStatFormula</text>
<polygon fill="none" stroke="#3b4a5a" points="619.91,-203 619.91,-229 760.05,-229 760.05,-203 619.91,-203"/>
<text xml:space="preserve" text-anchor="start" x="626.91" y="-212" font-family="Noto Sans CJK KR" font-size="10.00">+ CachePolicy: CachePolicy</text>
<polygon fill="none" stroke="#3b4a5a" points="619.91,-177 619.91,-203 760.05,-203 760.05,-177 619.91,-177"/>
<text xml:space="preserve" text-anchor="start" x="626.91" y="-186" font-family="Noto Sans CJK KR" font-size="10.00">+ Evaluate(block, ctx): decimal</text>
</g>
<!-- StatDefinitionRepository&#45;&gt;DerivedStatDefinition -->
<g id="edge1" class="edge">
<title>StatDefinitionRepository&#45;&gt;DerivedStatDefinition</title>
<path fill="none" stroke="#425466" d="M507.02,-256.2C507.02,-256.2 609.67,-256.2 609.67,-256.2"/>
<polygon fill="#425466" stroke="#425466" points="609.82,-256.2 614.62,-253 619.42,-256.2 614.62,-259.4 609.82,-256.2"/>
<text xml:space="preserve" text-anchor="middle" x="574.49" y="-259.2" font-family="Noto Sans CJK KR" font-size="10.00">stores 0..*</text>
</g>
<!-- IStatFormula -->
<g id="node3" class="node">
<title>IStatFormula</title>
<polygon fill="#f7f7f7" stroke="none" points="887.12,-348.2 887.12,-386.2 1008.39,-386.2 1008.39,-348.2 887.12,-348.2"/>
<polygon fill="none" stroke="#3b4a5a" points="887.12,-348.2 887.12,-386.2 1008.39,-386.2 1008.39,-348.2 887.12,-348.2"/>
<text xml:space="preserve" text-anchor="start" x="913.24" y="-369.4" font-family="Noto Sans CJK KR" font-size="12.00">&lt;&lt;interface&gt;&gt;</text>
<text xml:space="preserve" text-anchor="start" x="912.76" y="-357.4" font-family="Noto Sans CJK KR" font-weight="bold" font-size="12.00">IStatFormula</text>
<polygon fill="none" stroke="#3b4a5a" points="887.12,-322.2 887.12,-348.2 1008.39,-348.2 1008.39,-322.2 887.12,-322.2"/>
<text xml:space="preserve" text-anchor="start" x="894.12" y="-331.2" font-family="Noto Sans CJK KR" font-size="10.00">+ Id: FormulaId</text>
<polygon fill="none" stroke="#3b4a5a" points="887.12,-296.2 887.12,-322.2 1008.39,-322.2 1008.39,-296.2 887.12,-296.2"/>
<text xml:space="preserve" text-anchor="start" x="894.12" y="-305.2" font-family="Noto Sans CJK KR" font-size="10.00">+ Evaluate(input): decimal</text>
<polygon fill="none" stroke="#3b4a5a" points="887.12,-270.2 887.12,-296.2 1008.39,-296.2 1008.39,-270.2 887.12,-270.2"/>
<text xml:space="preserve" text-anchor="start" x="894.12" y="-279.2" font-family="Noto Sans CJK KR" font-size="10.00">+ Dependencies(): StatId[]</text>
</g>
<!-- DerivedStatDefinition&#45;&gt;IStatFormula -->
<g id="edge2" class="edge">
<title>DerivedStatDefinition&#45;&gt;IStatFormula</title>
<path fill="none" stroke="#425466" d="M759.74,-302.8C759.74,-302.8 877.93,-302.8 877.93,-302.8"/>
<polygon fill="#425466" stroke="#425466" points="885.93,-302.8 877.93,-306.4 883.15,-302.8 877.93,-302.8 877.93,-302.8 877.93,-302.8 883.15,-302.8 877.93,-299.2 885.93,-302.8"/>
<text xml:space="preserve" text-anchor="middle" x="812.41" y="-331.2" font-family="Noto Sans CJK KR" font-size="10.00">uses</text>
</g>
<!-- StatDependencyGraph -->
<g id="node11" class="node">
<title>StatDependencyGraph</title>
<polygon fill="#fffde7" stroke="none" points="867.08,-210 867.08,-238.4 1028.43,-238.4 1028.43,-210 867.08,-210"/>
<polygon fill="none" stroke="#3b4a5a" points="867.08,-210 867.08,-238.4 1028.43,-238.4 1028.43,-210 867.08,-210"/>
<text xml:space="preserve" text-anchor="start" x="889.09" y="-221.6" font-family="Noto Sans CJK KR" font-weight="bold" font-size="12.00">StatDependencyGraph</text>
<polygon fill="none" stroke="#3b4a5a" points="867.08,-184 867.08,-210 1028.43,-210 1028.43,-184 867.08,-184"/>
<text xml:space="preserve" text-anchor="start" x="874.08" y="-193" font-family="Noto Sans CJK KR" font-size="10.00">&#45; edges: Dictionary&lt;StatId, StatId[]&gt;</text>
<polygon fill="none" stroke="#3b4a5a" points="867.08,-158 867.08,-184 1028.43,-184 1028.43,-158 867.08,-158"/>
<text xml:space="preserve" text-anchor="start" x="874.08" y="-167" font-family="Noto Sans CJK KR" font-size="10.00">+ MarkDependentsDirty(statId)</text>
<polygon fill="none" stroke="#3b4a5a" points="867.08,-132 867.08,-158 1028.43,-158 1028.43,-132 867.08,-132"/>
<text xml:space="preserve" text-anchor="start" x="874.08" y="-141" font-family="Noto Sans CJK KR" font-size="10.00">+ DetectCycles()</text>
</g>
<!-- DerivedStatDefinition&#45;&gt;StatDependencyGraph -->
<g id="edge3" class="edge">
<title>DerivedStatDefinition&#45;&gt;StatDependencyGraph</title>
<path fill="none" stroke="#425466" d="M759.74,-207.7C759.74,-207.7 858.23,-207.7 858.23,-207.7"/>
<polygon fill="#425466" stroke="#425466" points="866.23,-207.7 858.23,-211.3 863.45,-207.7 858.23,-207.7 858.23,-207.7 858.23,-207.7 863.45,-207.7 858.23,-204.1 866.23,-207.7"/>
<text xml:space="preserve" text-anchor="middle" x="812.41" y="-235.2" font-family="Noto Sans CJK KR" font-size="10.00">registers deps</text>
</g>
<!-- ResourceController -->
<g id="node4" class="node">
<title>ResourceController</title>
<polygon fill="#fce8e6" stroke="none" points="864.76,-790 864.76,-818.4 1030.76,-818.4 1030.76,-790 864.76,-790"/>
<polygon fill="none" stroke="#3b4a5a" points="864.76,-790 864.76,-818.4 1030.76,-818.4 1030.76,-790 864.76,-790"/>
<text xml:space="preserve" text-anchor="start" x="886.78" y="-801.6" font-family="Noto Sans CJK KR" font-weight="bold" font-size="12.00">ResourceStatController</text>
<polygon fill="none" stroke="#3b4a5a" points="864.76,-764 864.76,-790 1030.76,-790 1030.76,-764 864.76,-764"/>
<text xml:space="preserve" text-anchor="start" x="871.76" y="-773" font-family="Noto Sans CJK KR" font-size="10.00">&#45; currentStatId: StatId</text>
<polygon fill="none" stroke="#3b4a5a" points="864.76,-738 864.76,-764 1030.76,-764 1030.76,-738 864.76,-738"/>
<text xml:space="preserve" text-anchor="start" x="871.76" y="-747" font-family="Noto Sans CJK KR" font-size="10.00">&#45; maxStatId: StatId</text>
<polygon fill="none" stroke="#3b4a5a" points="864.76,-712 864.76,-738 1030.76,-738 1030.76,-712 864.76,-712"/>
<text xml:space="preserve" text-anchor="start" x="871.76" y="-721" font-family="Noto Sans CJK KR" font-size="10.00">&#45; policy: ResourcePolicy</text>
<polygon fill="none" stroke="#3b4a5a" points="864.76,-686 864.76,-712 1030.76,-712 1030.76,-686 864.76,-686"/>
<text xml:space="preserve" text-anchor="start" x="871.76" y="-695" font-family="Noto Sans CJK KR" font-size="10.00">+ Spend(amount): bool</text>
<polygon fill="none" stroke="#3b4a5a" points="864.76,-660 864.76,-686 1030.76,-686 1030.76,-660 864.76,-660"/>
<text xml:space="preserve" text-anchor="start" x="871.76" y="-669" font-family="Noto Sans CJK KR" font-size="10.00">+ Restore(amount)</text>
<polygon fill="none" stroke="#3b4a5a" points="864.76,-634 864.76,-660 1030.76,-660 1030.76,-634 864.76,-634"/>
<text xml:space="preserve" text-anchor="start" x="871.76" y="-643" font-family="Noto Sans CJK KR" font-size="10.00">+ OnMaxChanged(oldMax, newMax)</text>
</g>
<!-- ResourcePolicy -->
<g id="node5" class="node">
<title>ResourcePolicy</title>
<polygon fill="#fce8e6" stroke="none" points="1188.07,-764 1188.07,-792.4 1415.42,-792.4 1415.42,-764 1188.07,-764"/>
<polygon fill="none" stroke="#3b4a5a" points="1188.07,-764 1188.07,-792.4 1415.42,-792.4 1415.42,-764 1188.07,-764"/>
<text xml:space="preserve" text-anchor="start" x="1262.43" y="-775.6" font-family="Noto Sans CJK KR" font-weight="bold" font-size="12.00">ResourcePolicy</text>
<polygon fill="none" stroke="#3b4a5a" points="1188.07,-738 1188.07,-764 1415.42,-764 1415.42,-738 1188.07,-738"/>
<text xml:space="preserve" text-anchor="start" x="1195.07" y="-747" font-family="Noto Sans CJK KR" font-size="10.00">+ MaxChanged: MaxChangedPolicy</text>
<polygon fill="none" stroke="#3b4a5a" points="1188.07,-712 1188.07,-738 1415.42,-738 1415.42,-712 1188.07,-712"/>
<text xml:space="preserve" text-anchor="start" x="1195.07" y="-721" font-family="Noto Sans CJK KR" font-size="10.00">+ AllowOvercap: bool</text>
<polygon fill="none" stroke="#3b4a5a" points="1188.07,-686 1188.07,-712 1415.42,-712 1415.42,-686 1188.07,-686"/>
<text xml:space="preserve" text-anchor="start" x="1195.07" y="-695" font-family="Noto Sans CJK KR" font-size="10.00">+ RegenRule: RegenRule?</text>
<polygon fill="none" stroke="#3b4a5a" points="1188.07,-660 1188.07,-686 1415.42,-686 1415.42,-660 1188.07,-660"/>
<text xml:space="preserve" text-anchor="start" x="1195.07" y="-669" font-family="Noto Sans CJK KR" font-size="10.00">+ AdjustCurrent(oldMax, newMax, current): decimal</text>
</g>
<!-- ResourceController&#45;&gt;ResourcePolicy -->
<g id="edge4" class="edge">
<title>ResourceController&#45;&gt;ResourcePolicy</title>
<path fill="none" stroke="#425466" d="M1030.75,-726.2C1030.75,-726.2 1178.9,-726.2 1178.9,-726.2"/>
<polygon fill="#425466" stroke="#425466" points="1186.9,-726.2 1178.9,-729.8 1184.12,-726.2 1178.9,-726.2 1178.9,-726.2 1178.9,-726.2 1184.12,-726.2 1178.9,-722.6 1186.9,-726.2"/>
<text xml:space="preserve" text-anchor="middle" x="1108.24" y="-729.2" font-family="Noto Sans CJK KR" font-size="10.00">uses</text>
</g>
<!-- StatEventBus -->
<g id="node6" class="node">
<title>StatEventBus</title>
<polygon fill="#e0f7fa" stroke="none" points="1185.72,-535 1185.72,-563.4 1417.77,-563.4 1417.77,-535 1185.72,-535"/>
<polygon fill="none" stroke="#3b4a5a" points="1185.72,-535 1185.72,-563.4 1417.77,-563.4 1417.77,-535 1185.72,-535"/>
<text xml:space="preserve" text-anchor="start" x="1266.74" y="-546.6" font-family="Noto Sans CJK KR" font-weight="bold" font-size="12.00">StatEventBus</text>
<polygon fill="none" stroke="#3b4a5a" points="1185.72,-509 1185.72,-535 1417.77,-535 1417.77,-509 1185.72,-509"/>
<text xml:space="preserve" text-anchor="start" x="1192.72" y="-518" font-family="Noto Sans CJK KR" font-size="10.00">&#45; subscribers: Dictionary&lt;EventType, List&lt;Handler&gt;&gt;</text>
<polygon fill="none" stroke="#3b4a5a" points="1185.72,-483 1185.72,-509 1417.77,-509 1417.77,-483 1185.72,-483"/>
<text xml:space="preserve" text-anchor="start" x="1192.72" y="-492" font-family="Noto Sans CJK KR" font-size="10.00">+ Publish(domainEvent)</text>
<polygon fill="none" stroke="#3b4a5a" points="1185.72,-457 1185.72,-483 1417.77,-483 1417.77,-457 1185.72,-457"/>
<text xml:space="preserve" text-anchor="start" x="1192.72" y="-466" font-family="Noto Sans CJK KR" font-size="10.00">+ Subscribe(type, handler)</text>
</g>
<!-- ResourceController&#45;&gt;StatEventBus -->
<g id="edge5" class="edge">
<title>ResourceController&#45;&gt;StatEventBus</title>
<path fill="none" stroke="#425466" d="M1025.11,-634.27C1025.11,-586.02 1025.11,-536.8 1025.11,-536.8 1025.11,-536.8 1176.81,-536.8 1176.81,-536.8"/>
<polygon fill="#425466" stroke="#425466" points="1184.81,-536.8 1176.81,-540.4 1182.03,-536.8 1176.81,-536.8 1176.81,-536.8 1176.81,-536.8 1182.03,-536.8 1176.81,-533.2 1184.81,-536.8"/>
<text xml:space="preserve" text-anchor="middle" x="1108.24" y="-621.2" font-family="Noto Sans CJK KR" font-size="10.00">publishes resource change</text>
</g>
<!-- StatChangedEvent -->
<g id="node7" class="node">
<title>StatChangedEvent</title>
<polygon fill="#e0f7fa" stroke="none" points="1499.43,-574 1499.43,-602.4 1610.11,-602.4 1610.11,-574 1499.43,-574"/>
<polygon fill="none" stroke="#3b4a5a" points="1499.43,-574 1499.43,-602.4 1610.11,-602.4 1610.11,-574 1499.43,-574"/>
<text xml:space="preserve" text-anchor="start" x="1506.43" y="-585.6" font-family="Noto Sans CJK KR" font-weight="bold" font-size="12.00">StatChangedEvent</text>
<polygon fill="none" stroke="#3b4a5a" points="1499.43,-548 1499.43,-574 1610.11,-574 1610.11,-548 1499.43,-548"/>
<text xml:space="preserve" text-anchor="start" x="1506.43" y="-557" font-family="Noto Sans CJK KR" font-size="10.00">+ OwnerId: EntityId</text>
<polygon fill="none" stroke="#3b4a5a" points="1499.43,-522 1499.43,-548 1610.11,-548 1610.11,-522 1499.43,-522"/>
<text xml:space="preserve" text-anchor="start" x="1506.43" y="-531" font-family="Noto Sans CJK KR" font-size="10.00">+ StatId: StatId</text>
<polygon fill="none" stroke="#3b4a5a" points="1499.43,-496 1499.43,-522 1610.11,-522 1610.11,-496 1499.43,-496"/>
<text xml:space="preserve" text-anchor="start" x="1506.43" y="-505" font-family="Noto Sans CJK KR" font-size="10.00">+ OldValue: decimal</text>
<polygon fill="none" stroke="#3b4a5a" points="1499.43,-470 1499.43,-496 1610.11,-496 1610.11,-470 1499.43,-470"/>
<text xml:space="preserve" text-anchor="start" x="1506.43" y="-479" font-family="Noto Sans CJK KR" font-size="10.00">+ NewValue: decimal</text>
<polygon fill="none" stroke="#3b4a5a" points="1499.43,-444 1499.43,-470 1610.11,-470 1610.11,-444 1499.43,-444"/>
<text xml:space="preserve" text-anchor="start" x="1506.43" y="-453" font-family="Noto Sans CJK KR" font-size="10.00">+ Cause: ChangeCause</text>
<polygon fill="none" stroke="#3b4a5a" points="1499.43,-418 1499.43,-444 1610.11,-444 1610.11,-418 1499.43,-418"/>
<text xml:space="preserve" text-anchor="start" x="1506.43" y="-427" font-family="Noto Sans CJK KR" font-size="10.00"> </text>
</g>
<!-- StatEventBus&#45;&gt;StatChangedEvent -->
<g id="edge6" class="edge">
<title>StatEventBus&#45;&gt;StatChangedEvent</title>
<path fill="none" stroke="#425466" d="M1417.52,-510.2C1417.52,-510.2 1489.05,-510.2 1489.05,-510.2"/>
<polygon fill="#425466" stroke="#425466" points="1489.2,-510.2 1494,-507 1498.8,-510.2 1494,-513.4 1489.2,-510.2"/>
<text xml:space="preserve" text-anchor="middle" x="1458.6" y="-513.2" font-family="Noto Sans CJK KR" font-size="10.00">delivers</text>
</g>
<!-- StatSnapshot -->
<g id="node8" class="node">
<title>StatSnapshot</title>
<polygon fill="#f1f8e9" stroke="none" points="278.23,-130 278.23,-158.4 529.08,-158.4 529.08,-130 278.23,-130"/>
<polygon fill="none" stroke="#3b4a5a" points="278.23,-130 278.23,-158.4 529.08,-158.4 529.08,-130 278.23,-130"/>
<text xml:space="preserve" text-anchor="start" x="369.64" y="-141.6" font-family="Noto Sans CJK KR" font-weight="bold" font-size="12.00">StatSnapshot</text>
<polygon fill="none" stroke="#3b4a5a" points="278.23,-104 278.23,-130 529.08,-130 529.08,-104 278.23,-104"/>
<text xml:space="preserve" text-anchor="start" x="285.23" y="-113" font-family="Noto Sans CJK KR" font-size="10.00">+ OwnerId: EntityId</text>
<polygon fill="none" stroke="#3b4a5a" points="278.23,-78 278.23,-104 529.08,-104 529.08,-78 278.23,-78"/>
<text xml:space="preserve" text-anchor="start" x="285.23" y="-87" font-family="Noto Sans CJK KR" font-size="10.00">+ BaseValues: IReadOnlyDictionary&lt;StatId, decimal&gt;</text>
<polygon fill="none" stroke="#3b4a5a" points="278.23,-52 278.23,-78 529.08,-78 529.08,-52 278.23,-52"/>
<text xml:space="preserve" text-anchor="start" x="285.23" y="-61" font-family="Noto Sans CJK KR" font-size="10.00">+ ActiveModifiers: ModifierState[]</text>
<polygon fill="none" stroke="#3b4a5a" points="278.23,-26 278.23,-52 529.08,-52 529.08,-26 278.23,-26"/>
<text xml:space="preserve" text-anchor="start" x="285.23" y="-35" font-family="Noto Sans CJK KR" font-size="10.00">+ ResourceValues: IReadOnlyDictionary&lt;StatId, decimal&gt;</text>
<polygon fill="none" stroke="#3b4a5a" points="278.23,0 278.23,-26 529.08,-26 529.08,0 278.23,0"/>
<text xml:space="preserve" text-anchor="start" x="285.23" y="-9" font-family="Noto Sans CJK KR" font-size="10.00">+ Restore(targetBlock)</text>
</g>
<!-- StatSaveAdapter -->
<g id="node9" class="node">
<title>StatSaveAdapter</title>
<polygon fill="#f1f8e9" stroke="none" points="0,-141 0,-169.4 156.3,-169.4 156.3,-141 0,-141"/>
<polygon fill="none" stroke="#3b4a5a" points="0,-141 0,-169.4 156.3,-169.4 156.3,-141 0,-141"/>
<text xml:space="preserve" text-anchor="start" x="34.49" y="-152.6" font-family="Noto Sans CJK KR" font-weight="bold" font-size="12.00">StatSaveAdapter</text>
<polygon fill="none" stroke="#3b4a5a" points="0,-115 0,-141 156.3,-141 156.3,-115 0,-115"/>
<text xml:space="preserve" text-anchor="start" x="7" y="-124" font-family="Noto Sans CJK KR" font-size="10.00">+ Version: int</text>
<polygon fill="none" stroke="#3b4a5a" points="0,-89 0,-115 156.3,-115 156.3,-89 0,-89"/>
<text xml:space="preserve" text-anchor="start" x="7" y="-98" font-family="Noto Sans CJK KR" font-size="10.00">+ ToSnapshot(block): StatSnapshot</text>
<polygon fill="none" stroke="#3b4a5a" points="0,-63 0,-89 156.3,-89 156.3,-63 0,-63"/>
<text xml:space="preserve" text-anchor="start" x="7" y="-72" font-family="Noto Sans CJK KR" font-size="10.00">+ ApplySnapshot(snapshot, block)</text>
<polygon fill="none" stroke="#3b4a5a" points="0,-37 0,-63 156.3,-63 156.3,-37 0,-37"/>
<text xml:space="preserve" text-anchor="start" x="7" y="-46" font-family="Noto Sans CJK KR" font-size="10.00">+ Migrate(snapshot)</text>
</g>
<!-- StatSaveAdapter&#45;&gt;StatDefinitionRepository -->
<g id="edge8" class="edge">
<title>StatSaveAdapter&#45;&gt;StatDefinitionRepository</title>
<path fill="none" stroke="#425466" d="M156.23,-163.9C252.66,-163.9 404.11,-163.9 404.11,-163.9 404.11,-163.9 404.11,-180.88 404.11,-180.88"/>
<polygon fill="#425466" stroke="#425466" points="404.11,-188.88 400.51,-180.88 404.11,-186.1 404.11,-180.88 404.11,-180.88 404.11,-180.88 404.11,-186.1 407.71,-180.88 404.11,-188.88"/>
<text xml:space="preserve" text-anchor="middle" x="217.26" y="-195.2" font-family="Noto Sans CJK KR" font-size="10.00">version validation</text>
</g>
<!-- StatSaveAdapter&#45;&gt;StatSnapshot -->
<g id="edge7" class="edge">
<title>StatSaveAdapter&#45;&gt;StatSnapshot</title>
<path fill="none" stroke="#425466" d="M156.12,-97.7C156.12,-97.7 269.13,-97.7 269.13,-97.7"/>
<polygon fill="#425466" stroke="#425466" points="277.13,-97.7 269.13,-101.3 274.34,-97.7 269.13,-97.7 269.13,-97.7 269.13,-97.7 274.34,-97.7 269.13,-94.1 277.13,-97.7"/>
<text xml:space="preserve" text-anchor="middle" x="217.26" y="-82.2" font-family="Noto Sans CJK KR" font-size="10.00">creates/restores</text>
</g>
<!-- DebugBreakdown -->
<g id="node10" class="node">
<title>DebugBreakdown</title>
<polygon fill="#f3e5f5" stroke="none" points="875.73,-574 875.73,-602.4 1019.78,-602.4 1019.78,-574 875.73,-574"/>
<polygon fill="none" stroke="#3b4a5a" points="875.73,-574 875.73,-602.4 1019.78,-602.4 1019.78,-574 875.73,-574"/>
<text xml:space="preserve" text-anchor="start" x="891.08" y="-585.6" font-family="Noto Sans CJK KR" font-weight="bold" font-size="12.00">StatDebugBreakdown</text>
<polygon fill="none" stroke="#3b4a5a" points="875.73,-548 875.73,-574 1019.78,-574 1019.78,-548 875.73,-548"/>
<text xml:space="preserve" text-anchor="start" x="882.73" y="-557" font-family="Noto Sans CJK KR" font-size="10.00">+ StatId: StatId</text>
<polygon fill="none" stroke="#3b4a5a" points="875.73,-522 875.73,-548 1019.78,-548 1019.78,-522 875.73,-522"/>
<text xml:space="preserve" text-anchor="start" x="882.73" y="-531" font-family="Noto Sans CJK KR" font-size="10.00">+ BaseValue: decimal</text>
<polygon fill="none" stroke="#3b4a5a" points="875.73,-496 875.73,-522 1019.78,-522 1019.78,-496 875.73,-496"/>
<text xml:space="preserve" text-anchor="start" x="882.73" y="-505" font-family="Noto Sans CJK KR" font-size="10.00">+ PhaseLines: BreakdownLine[]</text>
<polygon fill="none" stroke="#3b4a5a" points="875.73,-470 875.73,-496 1019.78,-496 1019.78,-470 875.73,-470"/>
<text xml:space="preserve" text-anchor="start" x="882.73" y="-479" font-family="Noto Sans CJK KR" font-size="10.00">+ FinalValue: decimal</text>
<polygon fill="none" stroke="#3b4a5a" points="875.73,-444 875.73,-470 1019.78,-470 1019.78,-444 875.73,-444"/>
<text xml:space="preserve" text-anchor="start" x="882.73" y="-453" font-family="Noto Sans CJK KR" font-size="10.00">+ ToText()</text>
<polygon fill="none" stroke="#3b4a5a" points="875.73,-418 875.73,-444 1019.78,-444 1019.78,-418 875.73,-418"/>
<text xml:space="preserve" text-anchor="start" x="882.73" y="-427" font-family="Noto Sans CJK KR" font-size="10.00">+ ToTableRows()</text>
</g>
<!-- DebugBreakdown&#45;&gt;StatEventBus -->
<g id="edge9" class="edge">
<title>DebugBreakdown&#45;&gt;StatEventBus</title>
<path fill="none" stroke="#425466" stroke-dasharray="5,2" d="M1019.39,-510.2C1019.39,-510.2 1176.75,-510.2 1176.75,-510.2"/>
<polygon fill="#425466" stroke="#425466" points="1184.75,-510.2 1176.75,-513.8 1181.97,-510.2 1176.75,-510.2 1176.75,-510.2 1176.75,-510.2 1181.97,-510.2 1176.75,-506.6 1184.75,-510.2"/>
<text xml:space="preserve" text-anchor="middle" x="1108.24" y="-513.2" font-family="Noto Sans CJK KR" font-size="10.00">optional diagnostic event</text>
</g>
<!-- StatDependencyGraph&#45;&gt;StatEventBus -->
<g id="edge10" class="edge">
<title>StatDependencyGraph&#45;&gt;StatEventBus</title>
<path fill="none" stroke="#425466" stroke-dasharray="5,2" d="M1023.11,-238.2C1023.11,-323.95 1023.11,-483.6 1023.11,-483.6 1023.11,-483.6 1176.78,-483.6 1176.78,-483.6"/>
<polygon fill="#425466" stroke="#425466" points="1184.78,-483.6 1176.78,-487.2 1182,-483.6 1176.78,-483.6 1176.78,-483.6 1176.78,-483.6 1182,-483.6 1176.78,-480 1184.78,-483.6"/>
<text xml:space="preserve" text-anchor="middle" x="1108.24" y="-326.2" font-family="Noto Sans CJK KR" font-size="10.00">dirty notifications</text>
</g>
</g>
</svg>
