<?xml version="1.0" encoding="UTF-8" standalone="no"?>
<!DOCTYPE svg PUBLIC "-//W3C//DTD SVG 1.1//EN"
 "http://www.w3.org/Graphics/SVG/1.1/DTD/svg11.dtd">
<!-- Generated by graphviz version 15.1.0 (20260618.0150)
 -->
<!-- Title: ComponentDiagram Pages: 1 -->
<svg width="2269pt" height="986pt"
 viewBox="0.00 0.00 2269.00 986.00" xmlns="http://www.w3.org/2000/svg" xmlns:xlink="http://www.w3.org/1999/xlink">
<g id="graph0" class="graph" transform="scale(1.33333 1.33333) rotate(0) translate(4 735.75)">
<title>ComponentDiagram</title>
<polygon fill="white" stroke="none" points="-4,4 -4,-735.75 1697.75,-735.75 1697.75,4 -4,4"/>
<text xml:space="preserve" text-anchor="middle" x="846.88" y="-710.65" font-family="Noto Sans KR" font-size="18.00">UML Component Diagram &#45; Reusable Stat Framework Boundary</text>
<g id="clust1" class="cluster">
<title>cluster_content</title>
<path fill="white" stroke="#d0d7de" d="M20,-136C20,-136 179.5,-136 179.5,-136 185.5,-136 191.5,-142 191.5,-148 191.5,-148 191.5,-358 191.5,-358 191.5,-364 185.5,-370 179.5,-370 179.5,-370 20,-370 20,-370 14,-370 8,-364 8,-358 8,-358 8,-148 8,-148 8,-142 14,-136 20,-136"/>
<text xml:space="preserve" text-anchor="middle" x="99.75" y="-348.9" font-family="Noto Sans KR" font-size="18.00">Content / Data Layer</text>
</g>
<g id="clust2" class="cluster">
<title>cluster_stat</title>
<path fill="white" stroke="#8aa4f5" stroke-width="2" d="M363.5,-198C363.5,-198 1414.75,-198 1414.75,-198 1420.75,-198 1426.75,-204 1426.75,-210 1426.75,-210 1426.75,-420 1426.75,-420 1426.75,-426 1420.75,-432 1414.75,-432 1414.75,-432 363.5,-432 363.5,-432 357.5,-432 351.5,-426 351.5,-420 351.5,-420 351.5,-210 351.5,-210 351.5,-204 357.5,-198 363.5,-198"/>
<text xml:space="preserve" text-anchor="middle" x="889.12" y="-410.9" font-family="Noto Sans KR" font-size="18.00">Reusable Stat Framework</text>
</g>
<g id="clust3" class="cluster">
<title>cluster_game</title>
<path fill="white" stroke="#d0d7de" d="M1503.75,-220C1503.75,-220 1681.75,-220 1681.75,-220 1687.75,-220 1693.75,-226 1693.75,-232 1693.75,-232 1693.75,-682 1693.75,-682 1693.75,-688 1687.75,-694 1681.75,-694 1681.75,-694 1503.75,-694 1503.75,-694 1497.75,-694 1491.75,-688 1491.75,-682 1491.75,-682 1491.75,-232 1491.75,-232 1491.75,-226 1497.75,-220 1503.75,-220"/>
<text xml:space="preserve" text-anchor="middle" x="1592.75" y="-672.9" font-family="Noto Sans KR" font-size="18.00">Game&#45;Specific Systems</text>
</g>
<!-- StatDefs&#45;&gt;Repo -->
<g id="edge1" class="edge">
<title>StatDefs:e&#45;&gt;Repo:w</title>
<path fill="none" stroke="#8a6d3b" stroke-width="1.2" d="M184.5,-314C184.5,-314 320.82,-318.45 358.63,-319.69"/>
<polygon fill="#8a6d3b" stroke="#8a6d3b" stroke-width="1.2" points="358.35,-322.48 366.43,-319.94 358.53,-316.88 358.35,-322.48"/>
<text xml:space="preserve" text-anchor="middle" x="271.5" y="-321.09" font-family="Noto Sans KR" font-size="9.00">load stat definitions</text>
</g>
<!-- ModifierDefs&#45;&gt;ModReg -->
<g id="edge2" class="edge">
<title>ModifierDefs:e&#45;&gt;ModReg:w</title>
<path fill="none" stroke="#8a6d3b" stroke-width="1.2" d="M177,-238C177,-238 311.04,-238 348.74,-238"/>
<polygon fill="#8a6d3b" stroke="#8a6d3b" stroke-width="1.2" points="348.68,-240.8 356.68,-238 348.68,-235.2 348.68,-240.8"/>
<text xml:space="preserve" text-anchor="middle" x="271.5" y="-240.7" font-family="Noto Sans KR" font-size="9.00">load modifier definitions</text>
</g>
<!-- FormulaDefs&#45;&gt;Pipeline -->
<g id="edge3" class="edge">
<title>FormulaDefs:e&#45;&gt;Pipeline:w</title>
<path fill="none" stroke="#8a6d3b" stroke-width="1.2" d="M172.88,-162C172.88,-162 540,0 540,0 540,0 619.5,0 619.5,0 619.5,0 906.13,-184.76 958.75,-218.68"/>
<polygon fill="#8a6d3b" stroke="#8a6d3b" stroke-width="1.2" points="957.23,-221.03 965.47,-223.02 960.27,-216.33 957.23,-221.03"/>
</g>
<!-- Repo&#45;&gt;Block -->
<g id="edge4" class="edge">
<title>Repo:e&#45;&gt;Block:nw</title>
<path fill="none" stroke="#5b6f8f" stroke-width="1.2" d="M491.25,-320C491.25,-320 615.51,-288.98 650.45,-280.26"/>
<polygon fill="#5b6f8f" stroke="#5b6f8f" stroke-width="1.2" points="650.65,-283.09 657.74,-278.44 649.3,-277.66 650.65,-283.09"/>
<text xml:space="preserve" text-anchor="middle" x="579.75" y="-310.29" font-family="Noto Sans KR" font-size="9.00">definition lookup</text>
</g>
<!-- Block&#45;&gt;Pipeline -->
<g id="edge6" class="edge">
<title>Block:e&#45;&gt;Pipeline:nw</title>
<path fill="none" stroke="#397b8c" stroke-width="1.2" d="M822.5,-260C822.5,-260 862.5,-251.75 862.5,-251.75 862.5,-251.75 931.49,-245.31 957.36,-242.9"/>
<polygon fill="#397b8c" stroke="#397b8c" stroke-width="1.2" points="957.49,-245.7 965.19,-242.17 956.97,-240.12 957.49,-245.7"/>
<text xml:space="preserve" text-anchor="middle" x="894.75" y="-254.45" font-family="Noto Sans KR" font-size="9.00">calculate value</text>
</g>
<!-- Block&#45;&gt;Commit -->
<g id="edge9" class="edge">
<title>Block:e&#45;&gt;Commit:sw</title>
<path fill="none" stroke="#3d8b6d" stroke-width="1.2" d="M692.24,-350.62C727.77,-330.81 822.5,-278 822.5,-278 822.5,-278 823.5,-260 823.5,-260"/>
<polygon fill="#3d8b6d" stroke="#3d8b6d" stroke-width="1.2" points="686.21,-350.77 680.59,-357.12 688.94,-355.67 686.21,-350.77"/>
</g>
<!-- Block&#45;&gt;Save -->
<g id="edge11" class="edge">
<title>Block:e&#45;&gt;Save:w</title>
<path fill="none" stroke="#5b7f4a" stroke-width="1.2" d="M822.5,-260C822.5,-260 926.96,-288.74 958.78,-297.5"/>
<polygon fill="#5b7f4a" stroke="#5b7f4a" stroke-width="1.2" points="957.67,-300.1 966.12,-299.52 959.15,-294.7 957.67,-300.1"/>
<text xml:space="preserve" text-anchor="middle" x="894.75" y="-290.88" font-family="Noto Sans KR" font-size="9.00">snapshot state</text>
</g>
<!-- ModReg&#45;&gt;Block -->
<g id="edge5" class="edge">
<title>ModReg:e&#45;&gt;Block:sw</title>
<path fill="none" stroke="#3d8b6d" stroke-width="1.2" d="M500,-238C500,-238 616.39,-240.9 650.94,-241.76"/>
<polygon fill="#3d8b6d" stroke="#3d8b6d" stroke-width="1.2" points="650.62,-244.55 658.68,-241.95 650.76,-238.96 650.62,-244.55"/>
<text xml:space="preserve" text-anchor="middle" x="579.75" y="-243.63" font-family="Noto Sans KR" font-size="9.00">active modifier view</text>
</g>
<!-- ModReg&#45;&gt;Commit -->
<g id="edge8" class="edge">
<title>ModReg:e&#45;&gt;Commit:nw</title>
<path fill="none" stroke="#3d8b6d" stroke-width="1.2" d="M500,-238C500,-238 540,-261 540,-261 540,-261 619.5,-278 619.5,-278 619.5,-278 660,-358.3 673.6,-385.28"/>
<polygon fill="#3d8b6d" stroke="#3d8b6d" stroke-width="1.2" points="671.08,-386.5 677.18,-392.38 676.08,-383.97 671.08,-386.5"/>
</g>
<!-- Pipeline&#45;&gt;Debug -->
<g id="edge7" class="edge">
<title>Pipeline:e&#45;&gt;Debug:w</title>
<path fill="none" stroke="#7257a6" stroke-width="1.2" d="M1106,-224C1106,-224 1233.74,-240.17 1270.16,-244.79"/>
<polygon fill="#7257a6" stroke="#7257a6" stroke-width="1.2" points="1269.66,-247.54 1277.95,-245.77 1270.36,-241.99 1269.66,-247.54"/>
<text xml:space="preserve" text-anchor="middle" x="1192.88" y="-243.38" font-family="Noto Sans KR" font-size="9.00">pure value + breakdown</text>
</g>
<!-- Commit&#45;&gt;Events -->
<g id="edge10" class="edge">
<title>Commit:e&#45;&gt;Events:w</title>
<path fill="none" stroke="#397b8c" stroke-width="1.2" d="M804,-376C804,-376 944.85,-376 983.37,-376"/>
<polygon fill="#397b8c" stroke="#397b8c" stroke-width="1.2" points="983.18,-378.8 991.18,-376 983.18,-373.2 983.18,-378.8"/>
<text xml:space="preserve" text-anchor="middle" x="894.75" y="-378.7" font-family="Noto Sans KR" font-size="9.00">committed facts</text>
</g>
<!-- Debug&#45;&gt;Skill -->
<!-- Skill&#45;&gt;Block -->
<g id="edge14" class="edge">
<title>Skill:w&#45;&gt;Block:e</title>
<path fill="none" stroke="#5b6f8f" stroke-width="1.2" stroke-dasharray="5,2" d="M1518.75,-246C1518.75,-246 1426.75,-198 1426.75,-198 1426.75,-198 1106,-186 1106,-186 1106,-186 967,-186 967,-186 967,-186 862.5,-236 862.5,-236 862.5,-236 842.28,-248.13 830.59,-255.14"/>
<polygon fill="#5b6f8f" stroke="#5b6f8f" stroke-width="1.2" points="829.48,-252.55 824.06,-259.07 832.36,-257.35 829.48,-252.55"/>
</g>
<!-- Combat&#45;&gt;Block -->
<g id="edge15" class="edge">
<title>Combat:w&#45;&gt;Block:e</title>
<path fill="none" stroke="#8292a8" stroke-width="1.2" stroke-dasharray="5,2" d="M1531.5,-328C1531.5,-328 1491.75,-284 1491.75,-284 1491.75,-284 1426.75,-198 1426.75,-198 1426.75,-198 1239.75,-178 1239.75,-178 1239.75,-178 1106,-176 1106,-176 1106,-176 967,-176 967,-176 967,-176 862.5,-195 862.5,-195 862.5,-195 838.33,-234.28 827.57,-251.77"/>
<polygon fill="#8292a8" stroke="#8292a8" stroke-width="1.2" points="825.26,-250.17 823.45,-258.45 830.03,-253.11 825.26,-250.17"/>
</g>
<!-- Equip&#45;&gt;ModReg -->
<g id="edge17" class="edge">
<title>Equip:w&#45;&gt;ModReg:e</title>
<path fill="none" stroke="#3d8b6d" stroke-width="1.2" d="M1513.12,-410C1513.12,-410 1491.75,-372 1491.75,-372 1491.75,-372 1426.75,-166 1426.75,-166 1426.75,-166 1239.75,-156 1239.75,-156 1239.75,-156 967,-156 967,-156 967,-156 862.5,-159 862.5,-159 862.5,-159 540,-229 540,-229 540,-229 521.09,-233.25 509.28,-235.91"/>
<polygon fill="#3d8b6d" stroke="#3d8b6d" stroke-width="1.2" points="508.96,-233.11 501.77,-237.6 510.19,-238.58 508.96,-233.11"/>
</g>
<!-- Status&#45;&gt;ModReg -->
<g id="edge18" class="edge">
<title>Status:w&#45;&gt;ModReg:e</title>
<path fill="none" stroke="#3d8b6d" stroke-width="1.2" d="M1507.88,-486C1507.88,-486 1491.75,-448 1491.75,-448 1491.75,-448 1426.75,-166 1426.75,-166 1426.75,-166 1239.75,-146 1239.75,-146 1239.75,-146 967,-146 967,-146 967,-146 862.5,-147 862.5,-147 862.5,-147 659.5,-158 659.5,-158 659.5,-158 540,-202 540,-202 540,-202 518.43,-221.42 506.97,-231.73"/>
<polygon fill="#3d8b6d" stroke="#3d8b6d" stroke-width="1.2" points="505.42,-229.35 501.35,-236.78 509.17,-233.51 505.42,-229.35"/>
</g>
<!-- UI&#45;&gt;Events -->
<g id="edge13" class="edge">
<title>UI:w&#45;&gt;Events:e</title>
<path fill="none" stroke="#8292a8" stroke-width="1.2" stroke-dasharray="5,2" d="M1510.5,-562C1510.5,-562 1491.75,-524 1491.75,-524 1491.75,-524 1426.75,-208 1426.75,-208 1426.75,-208 1279.75,-208 1279.75,-208 1279.75,-208 1146,-219 1146,-219 1146,-219 1106,-338 1106,-338 1106,-338 1093.15,-356.79 1085.51,-367.94"/>
<polygon fill="#8292a8" stroke="#8292a8" stroke-width="1.2" points="1083.23,-366.32 1081.03,-374.5 1087.85,-369.48 1083.23,-366.32"/>
</g>
<!-- AI&#45;&gt;Block -->
<g id="edge16" class="edge">
<title>AI:w&#45;&gt;Block:e</title>
<path fill="none" stroke="#8292a8" stroke-width="1.2" stroke-dasharray="5,2" d="M1534.12,-638C1534.12,-638 1491.75,-600 1491.75,-600 1491.75,-600 1426.75,-208 1426.75,-208 1426.75,-208 1239.75,-167 1239.75,-167 1239.75,-167 1106,-166 1106,-166 1106,-166 967,-166 967,-166 967,-166 862.5,-173 862.5,-173 862.5,-173 836.6,-229.33 826.48,-251.34"/>
<polygon fill="#8292a8" stroke="#8292a8" stroke-width="1.2" points="824.06,-249.91 823.26,-258.35 829.14,-252.25 824.06,-249.91"/>
</g>
<!-- StatDefs -->
<g id="node1" class="node">
<title>StatDefs</title>
<path fill="#fff3cd" stroke="#425466" d="M171.5,-332C171.5,-332 28,-332 28,-332 22,-332 16,-326 16,-320 16,-320 16,-308 16,-308 16,-302 22,-296 28,-296 28,-296 171.5,-296 171.5,-296 177.5,-296 183.5,-302 183.5,-308 183.5,-308 183.5,-320 183.5,-320 183.5,-326 177.5,-332 171.5,-332"/>
<text xml:space="preserve" text-anchor="middle" x="99.75" y="-317.05" font-family="Noto Sans KR" font-size="11.00">StatDefinition Data</text>
<text xml:space="preserve" text-anchor="middle" x="99.75" y="-303.55" font-family="Noto Sans KR" font-size="11.00">(JSON / CSV / ScriptableObject)</text>
</g>
<!-- ModifierDefs -->
<g id="node2" class="node">
<title>ModifierDefs</title>
<path fill="#fff3cd" stroke="#425466" d="M164,-256C164,-256 35.5,-256 35.5,-256 29.5,-256 23.5,-250 23.5,-244 23.5,-244 23.5,-232 23.5,-232 23.5,-226 29.5,-220 35.5,-220 35.5,-220 164,-220 164,-220 170,-220 176,-226 176,-232 176,-232 176,-244 176,-244 176,-250 170,-256 164,-256"/>
<text xml:space="preserve" text-anchor="middle" x="99.75" y="-234.3" font-family="Noto Sans KR" font-size="11.00">Modifier / Status / Item Data</text>
</g>
<!-- FormulaDefs -->
<g id="node3" class="node">
<title>FormulaDefs</title>
<path fill="#fff3cd" stroke="#425466" d="M159.88,-180C159.88,-180 39.62,-180 39.62,-180 33.62,-180 27.62,-174 27.62,-168 27.62,-168 27.62,-156 27.62,-156 27.62,-150 33.62,-144 39.62,-144 39.62,-144 159.88,-144 159.88,-144 165.88,-144 171.88,-150 171.88,-156 171.88,-156 171.88,-168 171.88,-168 171.88,-174 165.88,-180 159.88,-180"/>
<text xml:space="preserve" text-anchor="middle" x="99.75" y="-165.05" font-family="Noto Sans KR" font-size="11.00">Derived Stat Formula Data</text>
<text xml:space="preserve" text-anchor="middle" x="99.75" y="-151.55" font-family="Noto Sans KR" font-size="11.00">loads Calculation Pipeline</text>
</g>
<!-- Repo -->
<g id="node4" class="node">
<title>Repo</title>
<path fill="#e8f0fe" stroke="#425466" d="M478.25,-338C478.25,-338 381.25,-338 381.25,-338 375.25,-338 369.25,-332 369.25,-326 369.25,-326 369.25,-314 369.25,-314 369.25,-308 375.25,-302 381.25,-302 381.25,-302 478.25,-302 478.25,-302 484.25,-302 490.25,-308 490.25,-314 490.25,-314 490.25,-326 490.25,-326 490.25,-332 484.25,-338 478.25,-338"/>
<text xml:space="preserve" text-anchor="middle" x="429.75" y="-316.3" font-family="Noto Sans KR" font-size="11.00">Definition Repository</text>
</g>
<!-- Block -->
<g id="node5" class="node">
<title>Block</title>
<path fill="#e8f0fe" stroke="#425466" d="M810.5,-278C810.5,-278 671.5,-278 671.5,-278 665.5,-278 659.5,-272 659.5,-266 659.5,-266 659.5,-254 659.5,-254 659.5,-248 665.5,-242 671.5,-242 671.5,-242 810.5,-242 810.5,-242 816.5,-242 822.5,-248 822.5,-254 822.5,-254 822.5,-266 822.5,-266 822.5,-272 816.5,-278 810.5,-278"/>
<text xml:space="preserve" text-anchor="middle" x="741" y="-263.05" font-family="Noto Sans KR" font-size="11.00">StatBlock + StatInstance</text>
<text xml:space="preserve" text-anchor="middle" x="741" y="-249.55" font-family="Noto Sans KR" font-size="11.00">stat/resource mutation source</text>
</g>
<!-- ModReg -->
<g id="node6" class="node">
<title>ModReg</title>
<path fill="#dff7e4" stroke="#425466" d="M488,-262.25C488,-262.25 371.5,-262.25 371.5,-262.25 365.5,-262.25 359.5,-256.25 359.5,-250.25 359.5,-250.25 359.5,-225.75 359.5,-225.75 359.5,-219.75 365.5,-213.75 371.5,-213.75 371.5,-213.75 488,-213.75 488,-213.75 494,-213.75 500,-219.75 500,-225.75 500,-225.75 500,-250.25 500,-250.25 500,-256.25 494,-262.25 488,-262.25"/>
<text xml:space="preserve" text-anchor="middle" x="429.75" y="-247.8" font-family="Noto Sans KR" font-size="11.00">Modifier Registry</text>
<text xml:space="preserve" text-anchor="middle" x="429.75" y="-234.3" font-family="Noto Sans KR" font-size="11.00">Stack / Source / Duration</text>
<text xml:space="preserve" text-anchor="middle" x="429.75" y="-220.8" font-family="Noto Sans KR" font-size="11.00">modifier mutation source</text>
</g>
<!-- Pipeline -->
<g id="node7" class="node">
<title>Pipeline</title>
<path fill="#e0f7fa" stroke="#425466" d="M1094,-242C1094,-242 979,-242 979,-242 973,-242 967,-236 967,-230 967,-230 967,-218 967,-218 967,-212 973,-206 979,-206 979,-206 1094,-206 1094,-206 1100,-206 1106,-212 1106,-218 1106,-218 1106,-230 1106,-230 1106,-236 1100,-242 1094,-242"/>
<text xml:space="preserve" text-anchor="middle" x="1036.5" y="-227.05" font-family="Noto Sans KR" font-size="11.00">Calculation Pipeline</text>
<text xml:space="preserve" text-anchor="middle" x="1036.5" y="-213.55" font-family="Noto Sans KR" font-size="11.00">Operation Order + Clamp</text>
</g>
<!-- Events -->
<g id="node8" class="node">
<title>Events</title>
<path fill="#e0f7fa" stroke="#425466" d="M1067,-394C1067,-394 1006,-394 1006,-394 1000,-394 994,-388 994,-382 994,-382 994,-370 994,-370 994,-364 1000,-358 1006,-358 1006,-358 1067,-358 1067,-358 1073,-358 1079,-364 1079,-370 1079,-370 1079,-382 1079,-382 1079,-388 1073,-394 1067,-394"/>
<text xml:space="preserve" text-anchor="middle" x="1036.5" y="-372.3" font-family="Noto Sans KR" font-size="11.00">Stat Event Bus</text>
</g>
<!-- Commit -->
<g id="node9" class="node">
<title>Commit</title>
<path fill="#dff7e4" stroke="#425466" d="M791,-394C791,-394 691,-394 691,-394 685,-394 679,-388 679,-382 679,-382 679,-370 679,-370 679,-364 685,-358 691,-358 691,-358 791,-358 791,-358 797,-358 803,-364 803,-370 803,-370 803,-382 803,-382 803,-388 797,-394 791,-394"/>
<text xml:space="preserve" text-anchor="middle" x="741" y="-379.05" font-family="Noto Sans KR" font-size="11.00">Stat Mutation Commit</text>
<text xml:space="preserve" text-anchor="middle" x="741" y="-365.55" font-family="Noto Sans KR" font-size="11.00">state + outbox atomic</text>
</g>
<!-- Debug -->
<g id="node10" class="node">
<title>Debug</title>
<path fill="#f3e5f5" stroke="#425466" d="M1406.75,-264C1406.75,-264 1291.75,-264 1291.75,-264 1285.75,-264 1279.75,-258 1279.75,-252 1279.75,-252 1279.75,-240 1279.75,-240 1279.75,-234 1285.75,-228 1291.75,-228 1291.75,-228 1406.75,-228 1406.75,-228 1412.75,-228 1418.75,-234 1418.75,-240 1418.75,-240 1418.75,-252 1418.75,-252 1418.75,-258 1412.75,-264 1406.75,-264"/>
<text xml:space="preserve" text-anchor="middle" x="1349.25" y="-242.3" font-family="Noto Sans KR" font-size="11.00">Debug Breakdown + Logs</text>
</g>
<!-- Save -->
<g id="node11" class="node">
<title>Save</title>
<path fill="#f1f8e9" stroke="#425466" d="M1092.12,-318C1092.12,-318 980.88,-318 980.88,-318 974.88,-318 968.88,-312 968.88,-306 968.88,-306 968.88,-294 968.88,-294 968.88,-288 974.88,-282 980.88,-282 980.88,-282 1092.12,-282 1092.12,-282 1098.12,-282 1104.12,-288 1104.12,-294 1104.12,-294 1104.12,-306 1104.12,-306 1104.12,-312 1098.12,-318 1092.12,-318"/>
<text xml:space="preserve" text-anchor="middle" x="1036.5" y="-296.3" font-family="Noto Sans KR" font-size="11.00">Snapshot / Save Adapter</text>
</g>
<!-- Skill -->
<g id="node12" class="node">
<title>Skill</title>
<path fill="#fce8e6" stroke="#425466" d="M1652.75,-264C1652.75,-264 1531.75,-264 1531.75,-264 1525.75,-264 1519.75,-258 1519.75,-252 1519.75,-252 1519.75,-240 1519.75,-240 1519.75,-234 1525.75,-228 1531.75,-228 1531.75,-228 1652.75,-228 1652.75,-228 1658.75,-228 1664.75,-234 1664.75,-240 1664.75,-240 1664.75,-252 1664.75,-252 1664.75,-258 1658.75,-264 1652.75,-264"/>
<text xml:space="preserve" text-anchor="middle" x="1592.25" y="-249.05" font-family="Noto Sans KR" font-size="11.00">Skill / Effect System</text>
<text xml:space="preserve" text-anchor="middle" x="1592.25" y="-235.55" font-family="Noto Sans KR" font-size="11.00">query values / submit plan</text>
</g>
<!-- Combat -->
<g id="node13" class="node">
<title>Combat</title>
<path fill="#fce8e6" stroke="#425466" d="M1640,-352.25C1640,-352.25 1544.5,-352.25 1544.5,-352.25 1538.5,-352.25 1532.5,-346.25 1532.5,-340.25 1532.5,-340.25 1532.5,-315.75 1532.5,-315.75 1532.5,-309.75 1538.5,-303.75 1544.5,-303.75 1544.5,-303.75 1640,-303.75 1640,-303.75 1646,-303.75 1652,-309.75 1652,-315.75 1652,-315.75 1652,-340.25 1652,-340.25 1652,-346.25 1646,-352.25 1640,-352.25"/>
<text xml:space="preserve" text-anchor="middle" x="1592.25" y="-337.8" font-family="Noto Sans KR" font-size="11.00">Combat Formula</text>
<text xml:space="preserve" text-anchor="middle" x="1592.25" y="-324.3" font-family="Noto Sans KR" font-size="11.00">Damage / Hit / Crit</text>
<text xml:space="preserve" text-anchor="middle" x="1592.25" y="-310.8" font-family="Noto Sans KR" font-size="11.00">reads final stat values</text>
</g>
<!-- Equip -->
<g id="node14" class="node">
<title>Equip</title>
<path fill="#fce8e6" stroke="#425466" d="M1658.38,-428C1658.38,-428 1526.12,-428 1526.12,-428 1520.12,-428 1514.12,-422 1514.12,-416 1514.12,-416 1514.12,-404 1514.12,-404 1514.12,-398 1520.12,-392 1526.12,-392 1526.12,-392 1658.38,-392 1658.38,-392 1664.38,-392 1670.38,-398 1670.38,-404 1670.38,-404 1670.38,-416 1670.38,-416 1670.38,-422 1664.38,-428 1658.38,-428"/>
<text xml:space="preserve" text-anchor="middle" x="1592.25" y="-413.05" font-family="Noto Sans KR" font-size="11.00">Equipment System</text>
<text xml:space="preserve" text-anchor="middle" x="1592.25" y="-399.55" font-family="Noto Sans KR" font-size="11.00">modifier source add/remove</text>
</g>
<!-- Status -->
<g id="node15" class="node">
<title>Status</title>
<path fill="#fce8e6" stroke="#425466" d="M1663.62,-504C1663.62,-504 1520.88,-504 1520.88,-504 1514.88,-504 1508.88,-498 1508.88,-492 1508.88,-492 1508.88,-480 1508.88,-480 1508.88,-474 1514.88,-468 1520.88,-468 1520.88,-468 1663.62,-468 1663.62,-468 1669.62,-468 1675.62,-474 1675.62,-480 1675.62,-480 1675.62,-492 1675.62,-492 1675.62,-498 1669.62,-504 1663.62,-504"/>
<text xml:space="preserve" text-anchor="middle" x="1592.25" y="-489.05" font-family="Noto Sans KR" font-size="11.00">Status / Buff System</text>
<text xml:space="preserve" text-anchor="middle" x="1592.25" y="-475.55" font-family="Noto Sans KR" font-size="11.00">StatusInstanceId modifier plan</text>
</g>
<!-- UI -->
<g id="node16" class="node">
<title>UI</title>
<path fill="#fce8e6" stroke="#425466" d="M1661,-580C1661,-580 1523.5,-580 1523.5,-580 1517.5,-580 1511.5,-574 1511.5,-568 1511.5,-568 1511.5,-556 1511.5,-556 1511.5,-550 1517.5,-544 1523.5,-544 1523.5,-544 1661,-544 1661,-544 1667,-544 1673,-550 1673,-556 1673,-556 1673,-568 1673,-568 1673,-574 1667,-580 1661,-580"/>
<text xml:space="preserve" text-anchor="middle" x="1592.25" y="-565.05" font-family="Noto Sans KR" font-size="11.00">UI / HUD / Tooltip</text>
<text xml:space="preserve" text-anchor="middle" x="1592.25" y="-551.55" font-family="Noto Sans KR" font-size="11.00">subscribes to committed facts</text>
</g>
<!-- AI -->
<g id="node17" class="node">
<title>AI</title>
<path fill="#fce8e6" stroke="#425466" d="M1637.38,-656C1637.38,-656 1547.12,-656 1547.12,-656 1541.12,-656 1535.12,-650 1535.12,-644 1535.12,-644 1535.12,-632 1535.12,-632 1535.12,-626 1541.12,-620 1547.12,-620 1547.12,-620 1637.38,-620 1637.38,-620 1643.38,-620 1649.38,-626 1649.38,-632 1649.38,-632 1649.38,-644 1649.38,-644 1649.38,-650 1643.38,-656 1637.38,-656"/>
<text xml:space="preserve" text-anchor="middle" x="1592.25" y="-641.05" font-family="Noto Sans KR" font-size="11.00">AI / Decision System</text>
<text xml:space="preserve" text-anchor="middle" x="1592.25" y="-627.55" font-family="Noto Sans KR" font-size="11.00">queries StatContext</text>
</g>
</g>
</svg>
