<?xml version="1.0" encoding="UTF-8" standalone="no"?>
<!DOCTYPE svg PUBLIC "-//W3C//DTD SVG 1.1//EN"
 "http://www.w3.org/Graphics/SVG/1.1/DTD/svg11.dtd">
<!-- Generated by graphviz version 15.0.0 (20260523.1842)
 -->
<!-- Title: ComponentDiagram Pages: 1 -->
<svg width="1424pt" height="579pt"
 viewBox="0.00 0.00 1424.00 579.00" xmlns="http://www.w3.org/2000/svg" xmlns:xlink="http://www.w3.org/1999/xlink">
<g id="graph0" class="graph" transform="scale(1 1) rotate(0) translate(4 574.8)">
<title>ComponentDiagram</title>
<polygon fill="white" stroke="none" points="-4,4 -4,-574.8 1420,-574.8 1420,4 -4,4"/>
<text xml:space="preserve" text-anchor="middle" x="708" y="-550.6" font-family="Noto Sans CJK KR" font-size="18.00">UML Component Diagram &#45; Reusable Stat Framework Boundary</text>
<g id="clust1" class="cluster">
<title>cluster_content</title>
<path fill="white" stroke="#d0d7de" d="M20,-451.6C20,-451.6 530,-451.6 530,-451.6 536,-451.6 542,-457.6 542,-463.6 542,-463.6 542,-521.2 542,-521.2 542,-527.2 536,-533.2 530,-533.2 530,-533.2 20,-533.2 20,-533.2 14,-533.2 8,-527.2 8,-521.2 8,-521.2 8,-463.6 8,-463.6 8,-457.6 14,-451.6 20,-451.6"/>
<text xml:space="preserve" text-anchor="middle" x="275" y="-513" font-family="Noto Sans CJK KR" font-size="18.00">Content / Data Layer</text>
</g>
<g id="clust2" class="cluster">
<title>cluster_stat</title>
<path fill="white" stroke="#8aa4f5" stroke-width="2" d="M533,-8C533,-8 974,-8 974,-8 980,-8 986,-14 986,-20 986,-20 986,-396.6 986,-396.6 986,-402.6 980,-408.6 974,-408.6 974,-408.6 533,-408.6 533,-408.6 527,-408.6 521,-402.6 521,-396.6 521,-396.6 521,-20 521,-20 521,-14 527,-8 533,-8"/>
<text xml:space="preserve" text-anchor="middle" x="753.5" y="-388.4" font-family="Noto Sans CJK KR" font-size="18.00">Reusable Stat Framework</text>
</g>
<g id="clust3" class="cluster">
<title>cluster_game</title>
<path fill="white" stroke="#d0d7de" d="M578,-451.6C578,-451.6 1396,-451.6 1396,-451.6 1402,-451.6 1408,-457.6 1408,-463.6 1408,-463.6 1408,-521.2 1408,-521.2 1408,-527.2 1402,-533.2 1396,-533.2 1396,-533.2 578,-533.2 578,-533.2 572,-533.2 566,-527.2 566,-521.2 566,-521.2 566,-463.6 566,-463.6 566,-457.6 572,-451.6 578,-451.6"/>
<text xml:space="preserve" text-anchor="middle" x="987" y="-513" font-family="Noto Sans CJK KR" font-size="18.00">Game&#45;Specific Systems</text>
</g>
<!-- StatDefs -->
<g id="node1" class="node">
<title>StatDefs</title>
<path fill="#fff3cd" stroke="#425466" d="M340.02,-495.6C340.02,-495.6 201.98,-495.6 201.98,-495.6 195.98,-495.6 189.98,-489.6 189.98,-483.6 189.98,-483.6 189.98,-471.6 189.98,-471.6 189.98,-465.6 195.98,-459.6 201.98,-459.6 201.98,-459.6 340.02,-459.6 340.02,-459.6 346.02,-459.6 352.02,-465.6 352.02,-471.6 352.02,-471.6 352.02,-483.6 352.02,-483.6 352.02,-489.6 346.02,-495.6 340.02,-495.6"/>
<text xml:space="preserve" text-anchor="middle" x="271" y="-480.9" font-family="Noto Sans CJK KR" font-size="11.00">StatDefinition Data</text>
<text xml:space="preserve" text-anchor="middle" x="271" y="-467.7" font-family="Noto Sans CJK KR" font-size="11.00">(JSON / CSV / ScriptableObject)</text>
</g>
<!-- Repo -->
<g id="node4" class="node">
<title>Repo</title>
<path fill="#e8f0fe" stroke="#425466" d="M630.12,-371C630.12,-371 541.88,-371 541.88,-371 535.88,-371 529.88,-365 529.88,-359 529.88,-359 529.88,-347 529.88,-347 529.88,-341 535.88,-335 541.88,-335 541.88,-335 630.12,-335 630.12,-335 636.12,-335 642.12,-341 642.12,-347 642.12,-347 642.12,-359 642.12,-359 642.12,-365 636.12,-371 630.12,-371"/>
<text xml:space="preserve" text-anchor="middle" x="586" y="-349.7" font-family="Noto Sans CJK KR" font-size="11.00">Definition Repository</text>
</g>
<!-- StatDefs&#45;&gt;Repo -->
<g id="edge1" class="edge">
<title>StatDefs&#45;&gt;Repo</title>
<path fill="none" stroke="#425466" d="M271,-459.21C271,-424.56 271,-353 271,-353 271,-353 520.17,-353 520.17,-353"/>
<polygon fill="#425466" stroke="#425466" points="520.17,-355.8 528.17,-353 520.17,-350.2 520.17,-355.8"/>
</g>
<!-- ModifierDefs -->
<g id="node2" class="node">
<title>ModifierDefs</title>
<path fill="#fff3cd" stroke="#425466" d="M522.39,-495.6C522.39,-495.6 403.61,-495.6 403.61,-495.6 397.61,-495.6 391.61,-489.6 391.61,-483.6 391.61,-483.6 391.61,-471.6 391.61,-471.6 391.61,-465.6 397.61,-459.6 403.61,-459.6 403.61,-459.6 522.39,-459.6 522.39,-459.6 528.39,-459.6 534.39,-465.6 534.39,-471.6 534.39,-471.6 534.39,-483.6 534.39,-483.6 534.39,-489.6 528.39,-495.6 522.39,-495.6"/>
<text xml:space="preserve" text-anchor="middle" x="463" y="-474.3" font-family="Noto Sans CJK KR" font-size="11.00">Modifier / Status / Item Data</text>
</g>
<!-- ModReg -->
<g id="node6" class="node">
<title>ModReg</title>
<path fill="#dff7e4" stroke="#425466" d="M798.6,-371C798.6,-371 695.4,-371 695.4,-371 689.4,-371 683.4,-365 683.4,-359 683.4,-359 683.4,-347 683.4,-347 683.4,-341 689.4,-335 695.4,-335 695.4,-335 798.6,-335 798.6,-335 804.6,-335 810.6,-341 810.6,-347 810.6,-347 810.6,-359 810.6,-359 810.6,-365 804.6,-371 798.6,-371"/>
<text xml:space="preserve" text-anchor="middle" x="747" y="-356.3" font-family="Noto Sans CJK KR" font-size="11.00">Modifier Registry</text>
<text xml:space="preserve" text-anchor="middle" x="747" y="-343.1" font-family="Noto Sans CJK KR" font-size="11.00">Stack / Source / Duration</text>
</g>
<!-- ModifierDefs&#45;&gt;ModReg -->
<g id="edge2" class="edge">
<title>ModifierDefs&#45;&gt;ModReg</title>
<path fill="none" stroke="#425466" d="M460.45,-459.16C460.45,-440.69 460.45,-415 460.45,-415 460.45,-415 698.51,-415 698.51,-415 698.51,-415 698.51,-380.78 698.51,-380.78"/>
<polygon fill="#425466" stroke="#425466" points="701.31,-380.78 698.51,-372.78 695.71,-380.78 701.31,-380.78"/>
</g>
<!-- FormulaDefs -->
<g id="node3" class="node">
<title>FormulaDefs</title>
<path fill="#fff3cd" stroke="#425466" d="M138.42,-495.6C138.42,-495.6 27.58,-495.6 27.58,-495.6 21.58,-495.6 15.58,-489.6 15.58,-483.6 15.58,-483.6 15.58,-471.6 15.58,-471.6 15.58,-465.6 21.58,-459.6 27.58,-459.6 27.58,-459.6 138.42,-459.6 138.42,-459.6 144.42,-459.6 150.42,-465.6 150.42,-471.6 150.42,-471.6 150.42,-483.6 150.42,-483.6 150.42,-489.6 144.42,-495.6 138.42,-495.6"/>
<text xml:space="preserve" text-anchor="middle" x="83" y="-474.3" font-family="Noto Sans CJK KR" font-size="11.00">Derived Stat Formula Data</text>
</g>
<!-- Pipeline -->
<g id="node7" class="node">
<title>Pipeline</title>
<path fill="#e0f7fa" stroke="#425466" d="M646.71,-162C646.71,-162 541.29,-162 541.29,-162 535.29,-162 529.29,-156 529.29,-150 529.29,-150 529.29,-138 529.29,-138 529.29,-132 535.29,-126 541.29,-126 541.29,-126 646.71,-126 646.71,-126 652.71,-126 658.71,-132 658.71,-138 658.71,-138 658.71,-150 658.71,-150 658.71,-156 652.71,-162 646.71,-162"/>
<text xml:space="preserve" text-anchor="middle" x="594" y="-147.3" font-family="Noto Sans CJK KR" font-size="11.00">Calculation Pipeline</text>
<text xml:space="preserve" text-anchor="middle" x="594" y="-134.1" font-family="Noto Sans CJK KR" font-size="11.00">Operation Order + Clamp</text>
</g>
<!-- FormulaDefs&#45;&gt;Pipeline -->
<g id="edge3" class="edge">
<title>FormulaDefs&#45;&gt;Pipeline</title>
<path fill="none" stroke="#425466" d="M83,-459.19C83,-389.25 83,-144 83,-144 83,-144 519.51,-144 519.51,-144"/>
<polygon fill="#425466" stroke="#425466" points="519.51,-146.8 527.51,-144 519.51,-141.2 519.51,-146.8"/>
</g>
<!-- Block -->
<g id="node5" class="node">
<title>Block</title>
<path fill="#e8f0fe" stroke="#425466" d="M966.43,-272C966.43,-272 865.57,-272 865.57,-272 859.57,-272 853.57,-266 853.57,-260 853.57,-260 853.57,-248 853.57,-248 853.57,-242 859.57,-236 865.57,-236 865.57,-236 966.43,-236 966.43,-236 972.43,-236 978.43,-242 978.43,-248 978.43,-248 978.43,-260 978.43,-260 978.43,-266 972.43,-272 966.43,-272"/>
<text xml:space="preserve" text-anchor="middle" x="916" y="-250.7" font-family="Noto Sans CJK KR" font-size="11.00">StatBlock + StatInstance</text>
</g>
<!-- Repo&#45;&gt;Block -->
<g id="edge4" class="edge">
<title>Repo&#45;&gt;Block</title>
<path fill="none" stroke="#425466" d="M586,-334.79C586,-308.49 586,-263 586,-263 586,-263 843.64,-263 843.64,-263"/>
<polygon fill="#425466" stroke="#425466" points="843.64,-265.8 851.64,-263 843.64,-260.2 843.64,-265.8"/>
</g>
<!-- Block&#45;&gt;Pipeline -->
<g id="edge6" class="edge">
<title>Block&#45;&gt;Pipeline</title>
<path fill="none" stroke="#425466" d="M853.4,-254C774.88,-254 650.42,-254 650.42,-254 650.42,-254 650.42,-171.68 650.42,-171.68"/>
<polygon fill="#425466" stroke="#425466" points="653.22,-171.68 650.42,-163.68 647.62,-171.68 653.22,-171.68"/>
</g>
<!-- Commit -->
<g id="node9" class="node">
<title>Commit</title>
<path fill="#dff7e4" stroke="#425466" d="M801.5,-162C801.5,-162 710.5,-162 710.5,-162 704.5,-162 698.5,-156 698.5,-150 698.5,-150 698.5,-138 698.5,-138 698.5,-132 704.5,-126 710.5,-126 710.5,-126 801.5,-126 801.5,-126 807.5,-126 813.5,-132 813.5,-138 813.5,-138 813.5,-150 813.5,-150 813.5,-156 807.5,-162 801.5,-162"/>
<text xml:space="preserve" text-anchor="middle" x="756" y="-147.3" font-family="Noto Sans CJK KR" font-size="11.00">Stat Mutation Commit</text>
<text xml:space="preserve" text-anchor="middle" x="756" y="-134.1" font-family="Noto Sans CJK KR" font-size="11.00">state + outbox atomic</text>
</g>
<!-- Block&#45;&gt;Commit -->
<g id="edge10" class="edge">
<title>Block&#45;&gt;Commit</title>
<path fill="none" stroke="#425466" d="M853.38,-245C815.02,-245 773.23,-245 773.23,-245 773.23,-245 773.23,-171.57 773.23,-171.57"/>
<polygon fill="#425466" stroke="#425466" points="776.03,-171.57 773.23,-163.57 770.43,-171.57 776.03,-171.57"/>
<text xml:space="preserve" text-anchor="middle" x="860.29" y="-196" font-family="Noto Sans CJK KR" font-size="10.00">resource/stat mutation</text>
</g>
<!-- Save -->
<g id="node11" class="node">
<title>Save</title>
<path fill="#f1f8e9" stroke="#425466" d="M966.23,-162C966.23,-162 865.77,-162 865.77,-162 859.77,-162 853.77,-156 853.77,-150 853.77,-150 853.77,-138 853.77,-138 853.77,-132 859.77,-126 865.77,-126 865.77,-126 966.23,-126 966.23,-126 972.23,-126 978.23,-132 978.23,-138 978.23,-138 978.23,-150 978.23,-150 978.23,-156 972.23,-162 966.23,-162"/>
<text xml:space="preserve" text-anchor="middle" x="916" y="-140.7" font-family="Noto Sans CJK KR" font-size="11.00">Snapshot / Save Adapter</text>
</g>
<!-- Block&#45;&gt;Save -->
<g id="edge12" class="edge">
<title>Block&#45;&gt;Save</title>
<path fill="none" stroke="#425466" d="M916,-235.84C916,-235.84 916,-171.7 916,-171.7"/>
<polygon fill="#425466" stroke="#425466" points="918.8,-171.7 916,-163.7 913.2,-171.7 918.8,-171.7"/>
</g>
<!-- ModReg&#45;&gt;Block -->
<g id="edge5" class="edge">
<title>ModReg&#45;&gt;Block</title>
<path fill="none" stroke="#425466" d="M811.1,-353C835.34,-353 857.19,-353 857.19,-353 857.19,-353 857.19,-281.67 857.19,-281.67"/>
<polygon fill="#425466" stroke="#425466" points="859.99,-281.67 857.19,-273.67 854.39,-281.67 859.99,-281.67"/>
</g>
<!-- ModReg&#45;&gt;Commit -->
<g id="edge9" class="edge">
<title>ModReg&#45;&gt;Commit</title>
<path fill="none" stroke="#425466" d="M735.86,-334.82C735.86,-334.82 735.86,-171.8 735.86,-171.8"/>
<polygon fill="#425466" stroke="#425466" points="738.66,-171.8 735.86,-163.8 733.06,-171.8 738.66,-171.8"/>
<text xml:space="preserve" text-anchor="middle" x="780.46" y="-251" font-family="Noto Sans CJK KR" font-size="10.00">add/remove plan</text>
</g>
<!-- Debug -->
<g id="node10" class="node">
<title>Debug</title>
<path fill="#f3e5f5" stroke="#425466" d="M708.24,-52C708.24,-52 599.76,-52 599.76,-52 593.76,-52 587.76,-46 587.76,-40 587.76,-40 587.76,-28 587.76,-28 587.76,-22 593.76,-16 599.76,-16 599.76,-16 708.24,-16 708.24,-16 714.24,-16 720.24,-22 720.24,-28 720.24,-28 720.24,-40 720.24,-40 720.24,-46 714.24,-52 708.24,-52"/>
<text xml:space="preserve" text-anchor="middle" x="654" y="-30.7" font-family="Noto Sans CJK KR" font-size="11.00">Debug Breakdown + Logs</text>
</g>
<!-- Pipeline&#45;&gt;Debug -->
<g id="edge7" class="edge">
<title>Pipeline&#45;&gt;Debug</title>
<path fill="none" stroke="#425466" d="M635.06,-125.84C635.06,-125.84 635.06,-61.7 635.06,-61.7"/>
<polygon fill="#425466" stroke="#425466" points="637.86,-61.7 635.06,-53.7 632.26,-61.7 637.86,-61.7"/>
</g>
<!-- Pipeline&#45;&gt;Debug -->
<g id="edge8" class="edge">
<title>Pipeline&#45;&gt;Debug</title>
<path fill="none" stroke="#425466" d="M611.41,-125.84C611.41,-125.84 611.41,-61.7 611.41,-61.7"/>
<polygon fill="#425466" stroke="#425466" points="614.21,-61.7 611.41,-53.7 608.61,-61.7 614.21,-61.7"/>
<text xml:space="preserve" text-anchor="middle" x="630.5" y="-86" font-family="Noto Sans CJK KR" font-size="10.00">pure value + breakdown</text>
</g>
<!-- Events -->
<g id="node8" class="node">
<title>Events</title>
<path fill="#e0f7fa" stroke="#425466" d="M858.69,-52C858.69,-52 801.31,-52 801.31,-52 795.31,-52 789.31,-46 789.31,-40 789.31,-40 789.31,-28 789.31,-28 789.31,-22 795.31,-16 801.31,-16 801.31,-16 858.69,-16 858.69,-16 864.69,-16 870.69,-22 870.69,-28 870.69,-28 870.69,-40 870.69,-40 870.69,-46 864.69,-52 858.69,-52"/>
<text xml:space="preserve" text-anchor="middle" x="830" y="-30.7" font-family="Noto Sans CJK KR" font-size="11.00">Stat Event Bus</text>
</g>
<!-- Commit&#45;&gt;Events -->
<g id="edge11" class="edge">
<title>Commit&#45;&gt;Events</title>
<path fill="none" stroke="#425466" d="M801.4,-125.84C801.4,-125.84 801.4,-61.7 801.4,-61.7"/>
<polygon fill="#425466" stroke="#425466" points="804.2,-61.7 801.4,-53.7 798.6,-61.7 804.2,-61.7"/>
<text xml:space="preserve" text-anchor="middle" x="818.07" y="-86" font-family="Noto Sans CJK KR" font-size="10.00">committed facts</text>
</g>
<!-- Skill -->
<g id="node12" class="node">
<title>Skill</title>
<path fill="#fce8e6" stroke="#425466" d="M1247.68,-495.6C1247.68,-495.6 1164.32,-495.6 1164.32,-495.6 1158.32,-495.6 1152.32,-489.6 1152.32,-483.6 1152.32,-483.6 1152.32,-471.6 1152.32,-471.6 1152.32,-465.6 1158.32,-459.6 1164.32,-459.6 1164.32,-459.6 1247.68,-459.6 1247.68,-459.6 1253.68,-459.6 1259.68,-465.6 1259.68,-471.6 1259.68,-471.6 1259.68,-483.6 1259.68,-483.6 1259.68,-489.6 1253.68,-495.6 1247.68,-495.6"/>
<text xml:space="preserve" text-anchor="middle" x="1206" y="-474.3" font-family="Noto Sans CJK KR" font-size="11.00">Skill / Effect System</text>
</g>
<!-- Skill&#45;&gt;Block -->
<g id="edge13" class="edge">
<title>Skill&#45;&gt;Block</title>
<path fill="none" stroke="#425466" d="M1206,-459.3C1206,-405.9 1206,-254 1206,-254 1206,-254 988.08,-254 988.08,-254"/>
<polygon fill="#425466" stroke="#425466" points="988.08,-251.2 980.08,-254 988.08,-256.8 988.08,-251.2"/>
<text xml:space="preserve" text-anchor="middle" x="1229.38" y="-350" font-family="Noto Sans CJK KR" font-size="10.00">query / apply</text>
</g>
<!-- Combat -->
<g id="node13" class="node">
<title>Combat</title>
<path fill="#fce8e6" stroke="#425466" d="M1100.46,-495.6C1100.46,-495.6 1023.54,-495.6 1023.54,-495.6 1017.54,-495.6 1011.54,-489.6 1011.54,-483.6 1011.54,-483.6 1011.54,-471.6 1011.54,-471.6 1011.54,-465.6 1017.54,-459.6 1023.54,-459.6 1023.54,-459.6 1100.46,-459.6 1100.46,-459.6 1106.46,-459.6 1112.46,-465.6 1112.46,-471.6 1112.46,-471.6 1112.46,-483.6 1112.46,-483.6 1112.46,-489.6 1106.46,-495.6 1100.46,-495.6"/>
<text xml:space="preserve" text-anchor="middle" x="1062" y="-480.9" font-family="Noto Sans CJK KR" font-size="11.00">Combat Formula</text>
<text xml:space="preserve" text-anchor="middle" x="1062" y="-467.7" font-family="Noto Sans CJK KR" font-size="11.00">Damage / Hit / Crit</text>
</g>
<!-- Combat&#45;&gt;Block -->
<g id="edge16" class="edge">
<title>Combat&#45;&gt;Block</title>
<path fill="none" stroke="#425466" d="M1011.28,-478C992.1,-478 974.81,-478 974.81,-478 974.81,-478 974.81,-281.84 974.81,-281.84"/>
<polygon fill="#425466" stroke="#425466" points="977.61,-281.84 974.81,-273.84 972.01,-281.84 977.61,-281.84"/>
<text xml:space="preserve" text-anchor="middle" x="1088.04" y="-350" font-family="Noto Sans CJK KR" font-size="10.00">read final values</text>
</g>
<!-- Equip -->
<g id="node14" class="node">
<title>Equip</title>
<path fill="#fce8e6" stroke="#425466" d="M661.71,-495.6C661.71,-495.6 586.29,-495.6 586.29,-495.6 580.29,-495.6 574.29,-489.6 574.29,-483.6 574.29,-483.6 574.29,-471.6 574.29,-471.6 574.29,-465.6 580.29,-459.6 586.29,-459.6 586.29,-459.6 661.71,-459.6 661.71,-459.6 667.71,-459.6 673.71,-465.6 673.71,-471.6 673.71,-471.6 673.71,-483.6 673.71,-483.6 673.71,-489.6 667.71,-495.6 661.71,-495.6"/>
<text xml:space="preserve" text-anchor="middle" x="624" y="-474.3" font-family="Noto Sans CJK KR" font-size="11.00">Equipment System</text>
</g>
<!-- Equip&#45;&gt;ModReg -->
<g id="edge14" class="edge">
<title>Equip&#45;&gt;ModReg</title>
<path fill="none" stroke="#425466" d="M666.21,-459.21C666.21,-424.56 666.21,-353 666.21,-353 666.21,-353 673.44,-353 673.44,-353"/>
<polygon fill="#425466" stroke="#425466" points="673.44,-355.8 681.44,-353 673.44,-350.2 673.44,-355.8"/>
<text xml:space="preserve" text-anchor="middle" x="670.15" y="-419.6" font-family="Noto Sans CJK KR" font-size="10.00">add/remove by source</text>
</g>
<!-- Status -->
<g id="node15" class="node">
<title>Status</title>
<path fill="#fce8e6" stroke="#425466" d="M808.38,-495.6C808.38,-495.6 725.62,-495.6 725.62,-495.6 719.62,-495.6 713.62,-489.6 713.62,-483.6 713.62,-483.6 713.62,-471.6 713.62,-471.6 713.62,-465.6 719.62,-459.6 725.62,-459.6 725.62,-459.6 808.38,-459.6 808.38,-459.6 814.38,-459.6 820.38,-465.6 820.38,-471.6 820.38,-471.6 820.38,-483.6 820.38,-483.6 820.38,-489.6 814.38,-495.6 808.38,-495.6"/>
<text xml:space="preserve" text-anchor="middle" x="767" y="-474.3" font-family="Noto Sans CJK KR" font-size="11.00">Status / Buff System</text>
</g>
<!-- Status&#45;&gt;ModReg -->
<g id="edge15" class="edge">
<title>Status&#45;&gt;ModReg</title>
<path fill="none" stroke="#425466" d="M762.11,-459.21C762.11,-459.21 762.11,-380.97 762.11,-380.97"/>
<polygon fill="#425466" stroke="#425466" points="764.91,-380.97 762.11,-372.97 759.31,-380.97 764.91,-380.97"/>
<text xml:space="preserve" text-anchor="middle" x="811.16" y="-419.6" font-family="Noto Sans CJK KR" font-size="10.00">plan by StatusInstanceId</text>
</g>
<!-- UI -->
<g id="node16" class="node">
<title>UI</title>
<path fill="#fce8e6" stroke="#425466" d="M1388.47,-495.6C1388.47,-495.6 1311.53,-495.6 1311.53,-495.6 1305.53,-495.6 1299.53,-489.6 1299.53,-483.6 1299.53,-483.6 1299.53,-471.6 1299.53,-471.6 1299.53,-465.6 1305.53,-459.6 1311.53,-459.6 1311.53,-459.6 1388.47,-459.6 1388.47,-459.6 1394.47,-459.6 1400.47,-465.6 1400.47,-471.6 1400.47,-471.6 1400.47,-483.6 1400.47,-483.6 1400.47,-489.6 1394.47,-495.6 1388.47,-495.6"/>
<text xml:space="preserve" text-anchor="middle" x="1350" y="-474.3" font-family="Noto Sans CJK KR" font-size="11.00">UI / HUD / Tooltip</text>
</g>
<!-- UI&#45;&gt;Events -->
<g id="edge17" class="edge">
<title>UI&#45;&gt;Events</title>
<path fill="none" stroke="#425466" d="M1350,-459.1C1350,-375.15 1350,-34 1350,-34 1350,-34 880.32,-34 880.32,-34"/>
<polygon fill="#425466" stroke="#425466" points="880.32,-31.2 872.32,-34 880.32,-36.8 880.32,-31.2"/>
<text xml:space="preserve" text-anchor="middle" x="1351.88" y="-251" font-family="Noto Sans CJK KR" font-size="10.00">subscribe</text>
</g>
<!-- AI -->
<g id="node17" class="node">
<title>AI</title>
<path fill="#fce8e6" stroke="#425466" d="M959.2,-495.6C959.2,-495.6 872.8,-495.6 872.8,-495.6 866.8,-495.6 860.8,-489.6 860.8,-483.6 860.8,-483.6 860.8,-471.6 860.8,-471.6 860.8,-465.6 866.8,-459.6 872.8,-459.6 872.8,-459.6 959.2,-459.6 959.2,-459.6 965.2,-459.6 971.2,-465.6 971.2,-471.6 971.2,-471.6 971.2,-483.6 971.2,-483.6 971.2,-489.6 965.2,-495.6 959.2,-495.6"/>
<text xml:space="preserve" text-anchor="middle" x="916" y="-474.3" font-family="Noto Sans CJK KR" font-size="11.00">AI / Decision System</text>
</g>
<!-- AI&#45;&gt;Block -->
<g id="edge18" class="edge">
<title>AI&#45;&gt;Block</title>
<path fill="none" stroke="#425466" d="M916,-459.3C916,-459.3 916,-281.75 916,-281.75"/>
<polygon fill="#425466" stroke="#425466" points="918.8,-281.75 916,-273.75 913.2,-281.75 918.8,-281.75"/>
<text xml:space="preserve" text-anchor="middle" x="943.35" y="-350" font-family="Noto Sans CJK KR" font-size="10.00">query context</text>
</g>
</g>
</svg>
