<?xml version="1.0" encoding="UTF-8" standalone="no"?>
<!DOCTYPE svg PUBLIC "-//W3C//DTD SVG 1.1//EN"
 "http://www.w3.org/Graphics/SVG/1.1/DTD/svg11.dtd">
<!-- Generated by graphviz version 2.42.4 (0)
 -->
<!-- Title: ComponentDiagram Pages: 1 -->
<svg width="1531pt" height="551pt"
 viewBox="0.00 0.00 1531.00 551.00" xmlns="http://www.w3.org/2000/svg" xmlns:xlink="http://www.w3.org/1999/xlink">
<g id="graph0" class="graph" transform="scale(1 1) rotate(0) translate(4 547)">
<title>ComponentDiagram</title>
<polygon fill="white" stroke="transparent" points="-4,4 -4,-547 1527,-547 1527,4 -4,4"/>
<text text-anchor="middle" x="761.5" y="-524.6" font-family="Noto Sans CJK KR" font-size="18.00">UML Component Diagram &#45; Reusable Stat Framework Boundary</text>
<g id="clust1" class="cluster">
<title>cluster_content</title>
<path fill="white" stroke="#d0d7de" d="M20,-427C20,-427 576,-427 576,-427 582,-427 588,-433 588,-439 588,-439 588,-495 588,-495 588,-501 582,-507 576,-507 576,-507 20,-507 20,-507 14,-507 8,-501 8,-495 8,-495 8,-439 8,-439 8,-433 14,-427 20,-427"/>
<text text-anchor="middle" x="298" y="-488.6" font-family="Noto Sans CJK KR" font-size="18.00">Content / Data Layer</text>
</g>
<g id="clust2" class="cluster">
<title>cluster_stat</title>
<path fill="white" stroke="#8aa4f5" stroke-width="2" d="M601,-8C601,-8 921,-8 921,-8 927,-8 933,-14 933,-20 933,-20 933,-373 933,-373 933,-379 927,-385 921,-385 921,-385 601,-385 601,-385 595,-385 589,-379 589,-373 589,-373 589,-20 589,-20 589,-14 595,-8 601,-8"/>
<text text-anchor="middle" x="761" y="-366.6" font-family="Noto Sans CJK KR" font-size="18.00">Reusable Stat Framework</text>
</g>
<g id="clust3" class="cluster">
<title>cluster_game</title>
<path fill="white" stroke="#d0d7de" d="M624,-427C624,-427 1503,-427 1503,-427 1509,-427 1515,-433 1515,-439 1515,-439 1515,-495 1515,-495 1515,-501 1509,-507 1503,-507 1503,-507 624,-507 624,-507 618,-507 612,-501 612,-495 612,-495 612,-439 612,-439 612,-433 618,-427 624,-427"/>
<text text-anchor="middle" x="1063.5" y="-488.6" font-family="Noto Sans CJK KR" font-size="18.00">Game&#45;Specific Systems</text>
</g>
<!-- StatDefs -->
<g id="node1" class="node">
<title>StatDefs</title>
<path fill="#fff3cd" stroke="#425466" d="M370,-471C370,-471 218,-471 218,-471 212,-471 206,-465 206,-459 206,-459 206,-447 206,-447 206,-441 212,-435 218,-435 218,-435 370,-435 370,-435 376,-435 382,-441 382,-447 382,-447 382,-459 382,-459 382,-465 376,-471 370,-471"/>
<text text-anchor="middle" x="294" y="-456.2" font-family="Noto Sans CJK KR" font-size="11.00">StatDefinition Data</text>
<text text-anchor="middle" x="294" y="-444.2" font-family="Noto Sans CJK KR" font-size="11.00">(JSON / CSV / ScriptableObject)</text>
</g>
<!-- Repo -->
<g id="node4" class="node">
<title>Repo</title>
<path fill="#e8f0fe" stroke="#425466" d="M710.5,-349C710.5,-349 609.5,-349 609.5,-349 603.5,-349 597.5,-343 597.5,-337 597.5,-337 597.5,-325 597.5,-325 597.5,-319 603.5,-313 609.5,-313 609.5,-313 710.5,-313 710.5,-313 716.5,-313 722.5,-319 722.5,-325 722.5,-325 722.5,-337 722.5,-337 722.5,-343 716.5,-349 710.5,-349"/>
<text text-anchor="middle" x="660" y="-328.2" font-family="Noto Sans CJK KR" font-size="11.00">Definition Repository</text>
</g>
<!-- StatDefs&#45;&gt;Repo -->
<g id="edge1" class="edge">
<title>StatDefs&#45;&gt;Repo</title>
<path fill="none" stroke="#425466" d="M294,-435C294,-401.06 294,-331 294,-331 294,-331 589.5,-331 589.5,-331"/>
<polygon fill="#425466" stroke="#425466" points="589.5,-333.8 597.5,-331 589.5,-328.2 589.5,-333.8"/>
</g>
<!-- ModifierDefs -->
<g id="node2" class="node">
<title>ModifierDefs</title>
<path fill="#fff3cd" stroke="#425466" d="M568,-471C568,-471 434,-471 434,-471 428,-471 422,-465 422,-459 422,-459 422,-447 422,-447 422,-441 428,-435 434,-435 434,-435 568,-435 568,-435 574,-435 580,-441 580,-447 580,-447 580,-459 580,-459 580,-465 574,-471 568,-471"/>
<text text-anchor="middle" x="501" y="-450.2" font-family="Noto Sans CJK KR" font-size="11.00">Modifier / Status / Item Data</text>
</g>
<!-- ModReg -->
<g id="node6" class="node">
<title>ModReg</title>
<path fill="#dff7e4" stroke="#425466" d="M893.5,-349C893.5,-349 774.5,-349 774.5,-349 768.5,-349 762.5,-343 762.5,-337 762.5,-337 762.5,-325 762.5,-325 762.5,-319 768.5,-313 774.5,-313 774.5,-313 893.5,-313 893.5,-313 899.5,-313 905.5,-319 905.5,-325 905.5,-325 905.5,-337 905.5,-337 905.5,-343 899.5,-349 893.5,-349"/>
<text text-anchor="middle" x="834" y="-334.2" font-family="Noto Sans CJK KR" font-size="11.00">Modifier Registry</text>
<text text-anchor="middle" x="834" y="-322.2" font-family="Noto Sans CJK KR" font-size="11.00">Stack / Source / Duration</text>
</g>
<!-- ModifierDefs&#45;&gt;ModReg -->
<g id="edge2" class="edge">
<title>ModifierDefs&#45;&gt;ModReg</title>
<path fill="none" stroke="#425466" d="M501,-434.7C501,-416.73 501,-392 501,-392 501,-392 768.5,-392 768.5,-392 768.5,-392 768.5,-357.3 768.5,-357.3"/>
<polygon fill="#425466" stroke="#425466" points="771.3,-357.3 768.5,-349.3 765.7,-357.3 771.3,-357.3"/>
</g>
<!-- FormulaDefs -->
<g id="node3" class="node">
<title>FormulaDefs</title>
<path fill="#fff3cd" stroke="#425466" d="M154,-471C154,-471 28,-471 28,-471 22,-471 16,-465 16,-459 16,-459 16,-447 16,-447 16,-441 22,-435 28,-435 28,-435 154,-435 154,-435 160,-435 166,-441 166,-447 166,-447 166,-459 166,-459 166,-465 160,-471 154,-471"/>
<text text-anchor="middle" x="91" y="-450.2" font-family="Noto Sans CJK KR" font-size="11.00">Derived Stat Formula Data</text>
</g>
<!-- Pipeline -->
<g id="node7" class="node">
<title>Pipeline</title>
<path fill="#e0f7fa" stroke="#425466" d="M729,-151C729,-151 609,-151 609,-151 603,-151 597,-145 597,-139 597,-139 597,-127 597,-127 597,-121 603,-115 609,-115 609,-115 729,-115 729,-115 735,-115 741,-121 741,-127 741,-127 741,-139 741,-139 741,-145 735,-151 729,-151"/>
<text text-anchor="middle" x="669" y="-136.2" font-family="Noto Sans CJK KR" font-size="11.00">Calculation Pipeline</text>
<text text-anchor="middle" x="669" y="-124.2" font-family="Noto Sans CJK KR" font-size="11.00">Operation Order + Clamp</text>
</g>
<!-- FormulaDefs&#45;&gt;Pipeline -->
<g id="edge3" class="edge">
<title>FormulaDefs&#45;&gt;Pipeline</title>
<path fill="none" stroke="#425466" d="M91,-434.88C91,-367.18 91,-133 91,-133 91,-133 588.96,-133 588.96,-133"/>
<polygon fill="#425466" stroke="#425466" points="588.96,-135.8 596.96,-133 588.96,-130.2 588.96,-135.8"/>
</g>
<!-- Block -->
<g id="node5" class="node">
<title>Block</title>
<path fill="#e8f0fe" stroke="#425466" d="M910.5,-250C910.5,-250 795.5,-250 795.5,-250 789.5,-250 783.5,-244 783.5,-238 783.5,-238 783.5,-226 783.5,-226 783.5,-220 789.5,-214 795.5,-214 795.5,-214 910.5,-214 910.5,-214 916.5,-214 922.5,-220 922.5,-226 922.5,-226 922.5,-238 922.5,-238 922.5,-244 916.5,-250 910.5,-250"/>
<text text-anchor="middle" x="853" y="-229.2" font-family="Noto Sans CJK KR" font-size="11.00">StatBlock + StatInstance</text>
</g>
<!-- Repo&#45;&gt;Block -->
<g id="edge4" class="edge">
<title>Repo&#45;&gt;Block</title>
<path fill="none" stroke="#425466" d="M660,-312.63C660,-285.52 660,-238 660,-238 660,-238 775.32,-238 775.32,-238"/>
<polygon fill="#425466" stroke="#425466" points="775.32,-240.8 783.32,-238 775.32,-235.2 775.32,-240.8"/>
</g>
<!-- Block&#45;&gt;Pipeline -->
<g id="edge6" class="edge">
<title>Block&#45;&gt;Pipeline</title>
<path fill="none" stroke="#425466" d="M783.48,-226C759.02,-226 737.5,-226 737.5,-226 737.5,-226 737.5,-159.37 737.5,-159.37"/>
<polygon fill="#425466" stroke="#425466" points="740.3,-159.37 737.5,-151.37 734.7,-159.37 740.3,-159.37"/>
</g>
<!-- Save -->
<g id="node10" class="node">
<title>Save</title>
<path fill="#f1f8e9" stroke="#425466" d="M912.5,-151C912.5,-151 793.5,-151 793.5,-151 787.5,-151 781.5,-145 781.5,-139 781.5,-139 781.5,-127 781.5,-127 781.5,-121 787.5,-115 793.5,-115 793.5,-115 912.5,-115 912.5,-115 918.5,-115 924.5,-121 924.5,-127 924.5,-127 924.5,-139 924.5,-139 924.5,-145 918.5,-151 912.5,-151"/>
<text text-anchor="middle" x="853" y="-130.2" font-family="Noto Sans CJK KR" font-size="11.00">Snapshot / Save Adapter</text>
</g>
<!-- Block&#45;&gt;Save -->
<g id="edge9" class="edge">
<title>Block&#45;&gt;Save</title>
<path fill="none" stroke="#425466" d="M853,-213.84C853,-213.84 853,-159.04 853,-159.04"/>
<polygon fill="#425466" stroke="#425466" points="855.8,-159.04 853,-151.04 850.2,-159.04 855.8,-159.04"/>
</g>
<!-- ModReg&#45;&gt;Block -->
<g id="edge5" class="edge">
<title>ModReg&#45;&gt;Block</title>
<path fill="none" stroke="#425466" d="M844.5,-312.84C844.5,-312.84 844.5,-258.04 844.5,-258.04"/>
<polygon fill="#425466" stroke="#425466" points="847.3,-258.04 844.5,-250.04 841.7,-258.04 847.3,-258.04"/>
</g>
<!-- Events -->
<g id="node8" class="node">
<title>Events</title>
<path fill="#e0f7fa" stroke="#425466" d="M887,-52C887,-52 821,-52 821,-52 815,-52 809,-46 809,-40 809,-40 809,-28 809,-28 809,-22 815,-16 821,-16 821,-16 887,-16 887,-16 893,-16 899,-22 899,-28 899,-28 899,-40 899,-40 899,-46 893,-52 887,-52"/>
<text text-anchor="middle" x="854" y="-31.2" font-family="Noto Sans CJK KR" font-size="11.00">Stat Event Bus</text>
</g>
<!-- Pipeline&#45;&gt;Events -->
<g id="edge8" class="edge">
<title>Pipeline&#45;&gt;Events</title>
<path fill="none" stroke="#425466" d="M741.1,-133C748.15,-133 752.75,-133 752.75,-133 752.75,-133 752.75,-34 752.75,-34 752.75,-34 800.71,-34 800.71,-34"/>
<polygon fill="#425466" stroke="#425466" points="800.71,-36.8 808.71,-34 800.71,-31.2 800.71,-36.8"/>
</g>
<!-- Debug -->
<g id="node9" class="node">
<title>Debug</title>
<path fill="#f3e5f5" stroke="#425466" d="M731,-52C731,-52 609,-52 609,-52 603,-52 597,-46 597,-40 597,-40 597,-28 597,-28 597,-22 603,-16 609,-16 609,-16 731,-16 731,-16 737,-16 743,-22 743,-28 743,-28 743,-40 743,-40 743,-46 737,-52 731,-52"/>
<text text-anchor="middle" x="670" y="-31.2" font-family="Noto Sans CJK KR" font-size="11.00">Debug Breakdown + Logs</text>
</g>
<!-- Pipeline&#45;&gt;Debug -->
<g id="edge7" class="edge">
<title>Pipeline&#45;&gt;Debug</title>
<path fill="none" stroke="#425466" d="M669,-114.84C669,-114.84 669,-60.04 669,-60.04"/>
<polygon fill="#425466" stroke="#425466" points="671.8,-60.04 669,-52.04 666.2,-60.04 671.8,-60.04"/>
</g>
<!-- Skill -->
<g id="node11" class="node">
<title>Skill</title>
<path fill="#fce8e6" stroke="#425466" d="M1189.5,-471C1189.5,-471 1096.5,-471 1096.5,-471 1090.5,-471 1084.5,-465 1084.5,-459 1084.5,-459 1084.5,-447 1084.5,-447 1084.5,-441 1090.5,-435 1096.5,-435 1096.5,-435 1189.5,-435 1189.5,-435 1195.5,-435 1201.5,-441 1201.5,-447 1201.5,-447 1201.5,-459 1201.5,-459 1201.5,-465 1195.5,-471 1189.5,-471"/>
<text text-anchor="middle" x="1143" y="-450.2" font-family="Noto Sans CJK KR" font-size="11.00">Skill / Effect System</text>
</g>
<!-- Skill&#45;&gt;Block -->
<g id="edge10" class="edge">
<title>Skill&#45;&gt;Block</title>
<path fill="none" stroke="#425466" d="M1143,-434.67C1143,-382.68 1143,-238 1143,-238 1143,-238 930.83,-238 930.83,-238"/>
<polygon fill="#425466" stroke="#425466" points="930.83,-235.2 922.83,-238 930.83,-240.8 930.83,-235.2"/>
<text text-anchor="middle" x="1174" y="-328.5" font-family="Noto Sans CJK KR" font-size="10.00">query / apply</text>
</g>
<!-- Combat -->
<g id="node12" class="node">
<title>Combat</title>
<path fill="#fce8e6" stroke="#425466" d="M1032.5,-471C1032.5,-471 945.5,-471 945.5,-471 939.5,-471 933.5,-465 933.5,-459 933.5,-459 933.5,-447 933.5,-447 933.5,-441 939.5,-435 945.5,-435 945.5,-435 1032.5,-435 1032.5,-435 1038.5,-435 1044.5,-441 1044.5,-447 1044.5,-447 1044.5,-459 1044.5,-459 1044.5,-465 1038.5,-471 1032.5,-471"/>
<text text-anchor="middle" x="989" y="-456.2" font-family="Noto Sans CJK KR" font-size="11.00">Combat Formula</text>
<text text-anchor="middle" x="989" y="-444.2" font-family="Noto Sans CJK KR" font-size="11.00">Damage / Hit / Crit</text>
</g>
<!-- Combat&#45;&gt;Block -->
<g id="edge13" class="edge">
<title>Combat&#45;&gt;Block</title>
<path fill="none" stroke="#425466" d="M933.31,-453C922.27,-453 914,-453 914,-453 914,-453 914,-258.09 914,-258.09"/>
<polygon fill="#425466" stroke="#425466" points="916.8,-258.09 914,-250.09 911.2,-258.09 916.8,-258.09"/>
<text text-anchor="middle" x="1024.5" y="-328.5" font-family="Noto Sans CJK KR" font-size="10.00">read final values</text>
</g>
<!-- Equip -->
<g id="node13" class="node">
<title>Equip</title>
<path fill="#fce8e6" stroke="#425466" d="M722,-471C722,-471 632,-471 632,-471 626,-471 620,-465 620,-459 620,-459 620,-447 620,-447 620,-441 626,-435 632,-435 632,-435 722,-435 722,-435 728,-435 734,-441 734,-447 734,-447 734,-459 734,-459 734,-465 728,-471 722,-471"/>
<text text-anchor="middle" x="677" y="-450.2" font-family="Noto Sans CJK KR" font-size="11.00">Equipment System</text>
</g>
<!-- Equip&#45;&gt;ModReg -->
<g id="edge11" class="edge">
<title>Equip&#45;&gt;ModReg</title>
<path fill="none" stroke="#425466" d="M728.25,-435C728.25,-401.06 728.25,-331 728.25,-331 728.25,-331 754.29,-331 754.29,-331"/>
<polygon fill="#425466" stroke="#425466" points="754.29,-333.8 762.29,-331 754.29,-328.2 754.29,-333.8"/>
<text text-anchor="middle" x="732.5" y="-396" font-family="Noto Sans CJK KR" font-size="10.00">add/remove by source</text>
</g>
<!-- Status -->
<g id="node14" class="node">
<title>Status</title>
<path fill="#fce8e6" stroke="#425466" d="M881.5,-471C881.5,-471 786.5,-471 786.5,-471 780.5,-471 774.5,-465 774.5,-459 774.5,-459 774.5,-447 774.5,-447 774.5,-441 780.5,-435 786.5,-435 786.5,-435 881.5,-435 881.5,-435 887.5,-435 893.5,-441 893.5,-447 893.5,-447 893.5,-459 893.5,-459 893.5,-465 887.5,-471 881.5,-471"/>
<text text-anchor="middle" x="834" y="-450.2" font-family="Noto Sans CJK KR" font-size="11.00">Status / Buff System</text>
</g>
<!-- Status&#45;&gt;ModReg -->
<g id="edge12" class="edge">
<title>Status&#45;&gt;ModReg</title>
<path fill="none" stroke="#425466" d="M834,-435C834,-435 834,-357.08 834,-357.08"/>
<polygon fill="#425466" stroke="#425466" points="836.8,-357.08 834,-349.08 831.2,-357.08 836.8,-357.08"/>
<text text-anchor="middle" x="871.5" y="-396" font-family="Noto Sans CJK KR" font-size="10.00">duration + stack</text>
</g>
<!-- UI -->
<g id="node15" class="node">
<title>UI</title>
<path fill="#fce8e6" stroke="#425466" d="M1495.5,-471C1495.5,-471 1412.5,-471 1412.5,-471 1406.5,-471 1400.5,-465 1400.5,-459 1400.5,-459 1400.5,-447 1400.5,-447 1400.5,-441 1406.5,-435 1412.5,-435 1412.5,-435 1495.5,-435 1495.5,-435 1501.5,-435 1507.5,-441 1507.5,-447 1507.5,-447 1507.5,-459 1507.5,-459 1507.5,-465 1501.5,-471 1495.5,-471"/>
<text text-anchor="middle" x="1454" y="-450.2" font-family="Noto Sans CJK KR" font-size="11.00">UI / HUD / Tooltip</text>
</g>
<!-- UI&#45;&gt;Events -->
<g id="edge14" class="edge">
<title>UI&#45;&gt;Events</title>
<path fill="none" stroke="#425466" d="M1454,-435C1454,-354.8 1454,-34 1454,-34 1454,-34 907.1,-34 907.1,-34"/>
<polygon fill="#425466" stroke="#425466" points="907.1,-31.2 899.1,-34 907.1,-36.8 907.1,-31.2"/>
<text text-anchor="middle" x="1458.5" y="-229.5" font-family="Noto Sans CJK KR" font-size="10.00">subscribe</text>
</g>
<!-- AI -->
<g id="node16" class="node">
<title>AI</title>
<path fill="#fce8e6" stroke="#425466" d="M1348.5,-471C1348.5,-471 1253.5,-471 1253.5,-471 1247.5,-471 1241.5,-465 1241.5,-459 1241.5,-459 1241.5,-447 1241.5,-447 1241.5,-441 1247.5,-435 1253.5,-435 1253.5,-435 1348.5,-435 1348.5,-435 1354.5,-435 1360.5,-441 1360.5,-447 1360.5,-447 1360.5,-459 1360.5,-459 1360.5,-465 1354.5,-471 1348.5,-471"/>
<text text-anchor="middle" x="1301" y="-450.2" font-family="Noto Sans CJK KR" font-size="11.00">AI / Decision System</text>
</g>
<!-- AI&#45;&gt;Block -->
<g id="edge15" class="edge">
<title>AI&#45;&gt;Block</title>
<path fill="none" stroke="#425466" d="M1301,-434.81C1301,-380.94 1301,-226 1301,-226 1301,-226 930.51,-226 930.51,-226"/>
<polygon fill="#425466" stroke="#425466" points="930.51,-223.2 922.51,-226 930.51,-228.8 930.51,-223.2"/>
<text text-anchor="middle" x="1325" y="-328.5" font-family="Noto Sans CJK KR" font-size="10.00">query context</text>
</g>
</g>
</svg>
