<?xml version="1.0" encoding="UTF-8" standalone="no"?>
<!DOCTYPE svg PUBLIC "-//W3C//DTD SVG 1.1//EN"
 "http://www.w3.org/Graphics/SVG/1.1/DTD/svg11.dtd">
<!-- Generated by graphviz version 15.0.0 (20260523.1842)
 -->
<!-- Title: ActivityDiagram Pages: 1 -->
<svg width="475pt" height="1037pt"
 viewBox="0.00 0.00 475.00 1037.00" xmlns="http://www.w3.org/2000/svg" xmlns:xlink="http://www.w3.org/1999/xlink">
<g id="graph0" class="graph" transform="scale(1 1) rotate(0) translate(4 1033.29)">
<title>ActivityDiagram</title>
<polygon fill="white" stroke="none" points="-4,4 -4,-1033.29 470.51,-1033.29 470.51,4 -4,4"/>
<text xml:space="preserve" text-anchor="middle" x="233.25" y="-1009.09" font-family="Noto Sans CJK KR" font-size="18.00">UML Activity Diagram &#45; GetFinalValue(statId, context)</text>
<!-- start -->
<g id="node1" class="node">
<title>start</title>
<ellipse fill="#111827" stroke="#425466" cx="93.7" cy="-973.69" rx="26" ry="26"/>
<text xml:space="preserve" text-anchor="middle" x="93.7" y="-970.39" font-family="Noto Sans CJK KR" font-size="11.00" fill="white">Start</text>
</g>
<!-- query -->
<g id="node2" class="node">
<title>query</title>
<path fill="#e8f0fe" stroke="#425466" d="M168.66,-906.69C168.66,-906.69 18.74,-906.69 18.74,-906.69 12.74,-906.69 6.74,-900.69 6.74,-894.69 6.74,-894.69 6.74,-882.69 6.74,-882.69 6.74,-876.69 12.74,-870.69 18.74,-870.69 18.74,-870.69 168.66,-870.69 168.66,-870.69 174.66,-870.69 180.66,-876.69 180.66,-882.69 180.66,-882.69 180.66,-894.69 180.66,-894.69 180.66,-900.69 174.66,-906.69 168.66,-906.69"/>
<text xml:space="preserve" text-anchor="middle" x="93.7" y="-885.39" font-family="Noto Sans CJK KR" font-size="11.00">StatBlock.GetValue(statId, context)</text>
</g>
<!-- start&#45;&gt;query -->
<g id="edge1" class="edge">
<title>start&#45;&gt;query</title>
<path fill="none" stroke="#425466" d="M93.7,-947.26C93.7,-947.26 93.7,-916.53 93.7,-916.53"/>
<polygon fill="#425466" stroke="#425466" points="96.5,-916.53 93.7,-908.53 90.9,-916.53 96.5,-916.53"/>
</g>
<!-- exists -->
<g id="node3" class="node">
<title>exists</title>
<path fill="#fff3cd" stroke="#425466" d="M81.94,-827.32C81.94,-827.32 15.83,-814.05 15.83,-814.05 9.95,-812.87 9.95,-810.5 15.83,-809.32 15.83,-809.32 81.94,-796.05 81.94,-796.05 87.82,-794.87 99.58,-794.87 105.47,-796.05 105.47,-796.05 171.57,-809.32 171.57,-809.32 177.45,-810.5 177.45,-812.87 171.57,-814.05 171.57,-814.05 105.47,-827.32 105.47,-827.32 99.58,-828.5 87.82,-828.5 81.94,-827.32"/>
<text xml:space="preserve" text-anchor="middle" x="93.7" y="-808.39" font-family="Noto Sans CJK KR" font-size="11.00">StatInstance exists?</text>
</g>
<!-- query&#45;&gt;exists -->
<g id="edge2" class="edge">
<title>query&#45;&gt;exists</title>
<path fill="none" stroke="#425466" d="M93.7,-870.44C93.7,-870.44 93.7,-839.58 93.7,-839.58"/>
<polygon fill="#425466" stroke="#425466" points="96.5,-839.58 93.7,-831.58 90.9,-839.58 96.5,-839.58"/>
</g>
<!-- default -->
<g id="node4" class="node">
<title>default</title>
<path fill="#fce8e6" stroke="#425466" d="M127.4,-685.69C127.4,-685.69 12,-685.69 12,-685.69 6,-685.69 0,-679.69 0,-673.69 0,-673.69 0,-661.69 0,-661.69 0,-655.69 6,-649.69 12,-649.69 12,-649.69 127.4,-649.69 127.4,-649.69 133.4,-649.69 139.4,-655.69 139.4,-661.69 139.4,-661.69 139.4,-673.69 139.4,-673.69 139.4,-679.69 133.4,-685.69 127.4,-685.69"/>
<text xml:space="preserve" text-anchor="middle" x="69.7" y="-664.39" font-family="Noto Sans CJK KR" font-size="11.00">Return default / error policy</text>
</g>
<!-- exists&#45;&gt;default -->
<g id="edge3" class="edge">
<title>exists&#45;&gt;default</title>
<path fill="none" stroke="#425466" d="M61.42,-799.9C61.42,-799.9 61.42,-695.36 61.42,-695.36"/>
<polygon fill="#425466" stroke="#425466" points="64.22,-695.36 61.42,-687.36 58.62,-695.36 64.22,-695.36"/>
<text xml:space="preserve" text-anchor="middle" x="75.81" y="-764.69" font-family="Noto Sans CJK KR" font-size="10.00">No</text>
</g>
<!-- dirty -->
<g id="node5" class="node">
<title>dirty</title>
<path fill="#fff3cd" stroke="#425466" d="M247.8,-740.17C247.8,-740.17 130.67,-725.21 130.67,-725.21 124.71,-724.45 124.71,-722.93 130.67,-722.17 130.67,-722.17 247.8,-707.21 247.8,-707.21 253.75,-706.45 265.65,-706.45 271.6,-707.21 271.6,-707.21 388.73,-722.17 388.73,-722.17 394.69,-722.93 394.69,-724.45 388.73,-725.21 388.73,-725.21 271.6,-740.17 271.6,-740.17 265.65,-740.93 253.75,-740.93 247.8,-740.17"/>
<text xml:space="preserve" text-anchor="middle" x="259.7" y="-720.39" font-family="Noto Sans CJK KR" font-size="11.00">Cache dirty or context&#45;sensitive?</text>
</g>
<!-- exists&#45;&gt;dirty -->
<g id="edge5" class="edge">
<title>exists&#45;&gt;dirty</title>
<path fill="none" stroke="#425466" d="M151.05,-804.78C151.05,-804.78 151.05,-737.63 151.05,-737.63"/>
<polygon fill="#425466" stroke="#425466" points="153.85,-737.63 151.05,-729.63 148.25,-737.63 153.85,-737.63"/>
<text xml:space="preserve" text-anchor="middle" x="196.48" y="-764.69" font-family="Noto Sans CJK KR" font-size="10.00">Yes</text>
</g>
<!-- end -->
<g id="node14" class="node">
<title>end</title>
<ellipse fill="#111827" stroke="#425466" cx="135.7" cy="-27.84" rx="23.84" ry="23.84"/>
<ellipse fill="none" stroke="#425466" cx="135.7" cy="-27.84" rx="27.84" ry="27.84"/>
<text xml:space="preserve" text-anchor="middle" x="135.7" y="-24.54" font-family="Noto Sans CJK KR" font-size="11.00" fill="white">End</text>
</g>
<!-- default&#45;&gt;end -->
<g id="edge4" class="edge">
<title>default&#45;&gt;end</title>
<path fill="none" stroke="#425466" d="M53.93,-649.23C53.93,-544.35 53.93,-28 53.93,-28 53.93,-28 98.05,-28 98.05,-28"/>
<polygon fill="#425466" stroke="#425466" points="98.05,-30.8 106.05,-28 98.05,-25.2 98.05,-30.8"/>
</g>
<!-- cache -->
<g id="node6" class="node">
<title>cache</title>
<path fill="#f1f8e9" stroke="#425466" d="M203.59,-573.69C203.59,-573.69 121.81,-573.69 121.81,-573.69 115.81,-573.69 109.81,-567.69 109.81,-561.69 109.81,-561.69 109.81,-549.69 109.81,-549.69 109.81,-543.69 115.81,-537.69 121.81,-537.69 121.81,-537.69 203.59,-537.69 203.59,-537.69 209.59,-537.69 215.59,-543.69 215.59,-549.69 215.59,-549.69 215.59,-561.69 215.59,-561.69 215.59,-567.69 209.59,-573.69 203.59,-573.69"/>
<text xml:space="preserve" text-anchor="middle" x="162.7" y="-552.39" font-family="Noto Sans CJK KR" font-size="11.00">Return cached value</text>
</g>
<!-- dirty&#45;&gt;cache -->
<g id="edge6" class="edge">
<title>dirty&#45;&gt;cache</title>
<path fill="none" stroke="#425466" d="M177.5,-716.03C177.5,-716.03 177.5,-583.63 177.5,-583.63"/>
<polygon fill="#425466" stroke="#425466" points="180.3,-583.63 177.5,-575.63 174.7,-583.63 180.3,-583.63"/>
<text xml:space="preserve" text-anchor="middle" x="185.81" y="-664.69" font-family="Noto Sans CJK KR" font-size="10.00">No</text>
</g>
<!-- collect -->
<g id="node7" class="node">
<title>collect</title>
<path fill="#dff7e4" stroke="#425466" d="M376.74,-629.69C376.74,-629.69 246.66,-629.69 246.66,-629.69 240.66,-629.69 234.66,-623.69 234.66,-617.69 234.66,-617.69 234.66,-605.69 234.66,-605.69 234.66,-599.69 240.66,-593.69 246.66,-593.69 246.66,-593.69 376.74,-593.69 376.74,-593.69 382.74,-593.69 388.74,-599.69 388.74,-605.69 388.74,-605.69 388.74,-617.69 388.74,-617.69 388.74,-623.69 382.74,-629.69 376.74,-629.69"/>
<text xml:space="preserve" text-anchor="middle" x="311.7" y="-614.99" font-family="Noto Sans CJK KR" font-size="11.00">Collect active modifiers</text>
<text xml:space="preserve" text-anchor="middle" x="311.7" y="-601.79" font-family="Noto Sans CJK KR" font-size="11.00"> filter expired without mutation</text>
</g>
<!-- dirty&#45;&gt;collect -->
<g id="edge8" class="edge">
<title>dirty&#45;&gt;collect</title>
<path fill="none" stroke="#425466" d="M311.7,-712.12C311.7,-712.12 311.7,-639.53 311.7,-639.53"/>
<polygon fill="#425466" stroke="#425466" points="314.5,-639.53 311.7,-631.53 308.9,-639.53 314.5,-639.53"/>
<text xml:space="preserve" text-anchor="middle" x="293.48" y="-664.69" font-family="Noto Sans CJK KR" font-size="10.00">Yes</text>
</g>
<!-- cache&#45;&gt;end -->
<g id="edge7" class="edge">
<title>cache&#45;&gt;end</title>
<path fill="none" stroke="#425466" d="M127.72,-537.21C127.72,-537.21 127.72,-64.35 127.72,-64.35"/>
<polygon fill="#425466" stroke="#425466" points="130.52,-64.35 127.72,-56.35 124.92,-64.35 130.52,-64.35"/>
</g>
<!-- filter -->
<g id="node8" class="node">
<title>filter</title>
<path fill="#dff7e4" stroke="#425466" d="M402.33,-517.69C402.33,-517.69 245.07,-517.69 245.07,-517.69 239.07,-517.69 233.07,-511.69 233.07,-505.69 233.07,-505.69 233.07,-493.69 233.07,-493.69 233.07,-487.69 239.07,-481.69 245.07,-481.69 245.07,-481.69 402.33,-481.69 402.33,-481.69 408.33,-481.69 414.33,-487.69 414.33,-493.69 414.33,-493.69 414.33,-505.69 414.33,-505.69 414.33,-511.69 408.33,-517.69 402.33,-517.69"/>
<text xml:space="preserve" text-anchor="middle" x="323.7" y="-496.39" font-family="Noto Sans CJK KR" font-size="11.00">Filter by Condition.Evaluate(context)</text>
</g>
<!-- collect&#45;&gt;filter -->
<g id="edge9" class="edge">
<title>collect&#45;&gt;filter</title>
<path fill="none" stroke="#425466" d="M311.7,-593.19C311.7,-593.19 311.7,-527.35 311.7,-527.35"/>
<polygon fill="#425466" stroke="#425466" points="314.5,-527.35 311.7,-519.35 308.9,-527.35 314.5,-527.35"/>
</g>
<!-- sort -->
<g id="node9" class="node">
<title>sort</title>
<path fill="#e0f7fa" stroke="#425466" d="M393.41,-440.69C393.41,-440.69 255.99,-440.69 255.99,-440.69 249.99,-440.69 243.99,-434.69 243.99,-428.69 243.99,-428.69 243.99,-416.69 243.99,-416.69 243.99,-410.69 249.99,-404.69 255.99,-404.69 255.99,-404.69 393.41,-404.69 393.41,-404.69 399.41,-404.69 405.41,-410.69 405.41,-416.69 405.41,-416.69 405.41,-428.69 405.41,-428.69 405.41,-434.69 399.41,-440.69 393.41,-440.69"/>
<text xml:space="preserve" text-anchor="middle" x="324.7" y="-419.39" font-family="Noto Sans CJK KR" font-size="11.00">Sort by phase, operation, priority</text>
</g>
<!-- filter&#45;&gt;sort -->
<g id="edge10" class="edge">
<title>filter&#45;&gt;sort</title>
<path fill="none" stroke="#425466" d="M324.7,-481.44C324.7,-481.44 324.7,-450.58 324.7,-450.58"/>
<polygon fill="#425466" stroke="#425466" points="327.5,-450.58 324.7,-442.58 321.9,-450.58 327.5,-450.58"/>
</g>
<!-- apply -->
<g id="node10" class="node">
<title>apply</title>
<path fill="#e0f7fa" stroke="#425466" d="M454.51,-363.69C454.51,-363.69 196.89,-363.69 196.89,-363.69 190.89,-363.69 184.89,-357.69 184.89,-351.69 184.89,-351.69 184.89,-339.69 184.89,-339.69 184.89,-333.69 190.89,-327.69 196.89,-327.69 196.89,-327.69 454.51,-327.69 454.51,-327.69 460.51,-327.69 466.51,-333.69 466.51,-339.69 466.51,-339.69 466.51,-351.69 466.51,-351.69 466.51,-357.69 460.51,-363.69 454.51,-363.69"/>
<text xml:space="preserve" text-anchor="middle" x="325.7" y="-348.99" font-family="Noto Sans CJK KR" font-size="11.00">Apply calculation phases</text>
<text xml:space="preserve" text-anchor="middle" x="325.7" y="-335.79" font-family="Noto Sans CJK KR" font-size="11.00">Base &#45;&gt; Add &#45;&gt; Percent &#45;&gt; More/Less &#45;&gt; Override &#45;&gt; Clamp</text>
</g>
<!-- sort&#45;&gt;apply -->
<g id="edge11" class="edge">
<title>sort&#45;&gt;apply</title>
<path fill="none" stroke="#425466" d="M324.7,-404.44C324.7,-404.44 324.7,-373.58 324.7,-373.58"/>
<polygon fill="#425466" stroke="#425466" points="327.5,-373.58 324.7,-365.58 321.9,-373.58 327.5,-373.58"/>
</g>
<!-- derived -->
<g id="node11" class="node">
<title>derived</title>
<path fill="#fffde7" stroke="#425466" d="M365.32,-286.69C365.32,-286.69 226.08,-286.69 226.08,-286.69 220.08,-286.69 214.08,-280.69 214.08,-274.69 214.08,-274.69 214.08,-262.69 214.08,-262.69 214.08,-256.69 220.08,-250.69 226.08,-250.69 226.08,-250.69 365.32,-250.69 365.32,-250.69 371.32,-250.69 377.32,-256.69 377.32,-262.69 377.32,-262.69 377.32,-274.69 377.32,-274.69 377.32,-280.69 371.32,-286.69 365.32,-286.69"/>
<text xml:space="preserve" text-anchor="middle" x="295.7" y="-271.99" font-family="Noto Sans CJK KR" font-size="11.00">Evaluate derived dependencies</text>
<text xml:space="preserve" text-anchor="middle" x="295.7" y="-258.79" font-family="Noto Sans CJK KR" font-size="11.00">when formula requires other stats</text>
</g>
<!-- apply&#45;&gt;derived -->
<g id="edge12" class="edge">
<title>apply&#45;&gt;derived</title>
<path fill="none" stroke="#425466" d="M295.7,-327.44C295.7,-327.44 295.7,-296.58 295.7,-296.58"/>
<polygon fill="#425466" stroke="#425466" points="298.5,-296.58 295.7,-288.58 292.9,-296.58 298.5,-296.58"/>
</g>
<!-- breakdown -->
<g id="node12" class="node">
<title>breakdown</title>
<path fill="#f3e5f5" stroke="#425466" d="M319.55,-209.69C319.55,-209.69 221.85,-209.69 221.85,-209.69 215.85,-209.69 209.85,-203.69 209.85,-197.69 209.85,-197.69 209.85,-185.69 209.85,-185.69 209.85,-179.69 215.85,-173.69 221.85,-173.69 221.85,-173.69 319.55,-173.69 319.55,-173.69 325.55,-173.69 331.55,-179.69 331.55,-185.69 331.55,-185.69 331.55,-197.69 331.55,-197.69 331.55,-203.69 325.55,-209.69 319.55,-209.69"/>
<text xml:space="preserve" text-anchor="middle" x="270.7" y="-194.99" font-family="Noto Sans CJK KR" font-size="11.00">Build debug breakdown</text>
<text xml:space="preserve" text-anchor="middle" x="270.7" y="-181.79" font-family="Noto Sans CJK KR" font-size="11.00">and update cache</text>
</g>
<!-- derived&#45;&gt;breakdown -->
<g id="edge13" class="edge">
<title>derived&#45;&gt;breakdown</title>
<path fill="none" stroke="#425466" d="M272.82,-250.44C272.82,-250.44 272.82,-219.58 272.82,-219.58"/>
<polygon fill="#425466" stroke="#425466" points="275.62,-219.58 272.82,-211.58 270.02,-219.58 275.62,-219.58"/>
</g>
<!-- return -->
<g id="node13" class="node">
<title>return</title>
<path fill="#f1f8e9" stroke="#425466" d="M284.73,-132.69C284.73,-132.69 216.67,-132.69 216.67,-132.69 210.67,-132.69 204.67,-126.69 204.67,-120.69 204.67,-120.69 204.67,-108.69 204.67,-108.69 204.67,-102.69 210.67,-96.69 216.67,-96.69 216.67,-96.69 284.73,-96.69 284.73,-96.69 290.73,-96.69 296.73,-102.69 296.73,-108.69 296.73,-108.69 296.73,-120.69 296.73,-120.69 296.73,-126.69 290.73,-132.69 284.73,-132.69"/>
<text xml:space="preserve" text-anchor="middle" x="250.7" y="-111.39" font-family="Noto Sans CJK KR" font-size="11.00">Return StatValue</text>
</g>
<!-- breakdown&#45;&gt;return -->
<g id="edge14" class="edge">
<title>breakdown&#45;&gt;return</title>
<path fill="none" stroke="#425466" d="M253.29,-173.44C253.29,-173.44 253.29,-142.58 253.29,-142.58"/>
<polygon fill="#425466" stroke="#425466" points="256.09,-142.58 253.29,-134.58 250.49,-142.58 256.09,-142.58"/>
</g>
<!-- return&#45;&gt;end -->
<g id="edge15" class="edge">
<title>return&#45;&gt;end</title>
<path fill="none" stroke="#425466" d="M204.31,-115C176.16,-115 145.63,-115 145.63,-115 145.63,-115 145.63,-63.51 145.63,-63.51"/>
<polygon fill="#425466" stroke="#425466" points="148.43,-63.51 145.63,-55.51 142.83,-63.51 148.43,-63.51"/>
</g>
</g>
</svg>
