<?xml version="1.0" encoding="UTF-8" standalone="no"?>
<!DOCTYPE svg PUBLIC "-//W3C//DTD SVG 1.1//EN"
 "http://www.w3.org/Graphics/SVG/1.1/DTD/svg11.dtd">
<!-- Generated by graphviz version 15.0.0 (20260523.1842)
 -->
<!-- Title: ActivityDiagram Pages: 1 -->
<svg width="475pt" height="1114pt"
 viewBox="0.00 0.00 475.00 1114.00" xmlns="http://www.w3.org/2000/svg" xmlns:xlink="http://www.w3.org/1999/xlink">
<style>.node text { font-size: 90%; }</style>
<g id="graph0" class="graph" transform="scale(1 1) rotate(0) translate(4 1110.29)">
<title>ActivityDiagram</title>
<polygon fill="white" stroke="none" points="-4,4 -4,-1110.29 470.51,-1110.29 470.51,4 -4,4"/>
<text xml:space="preserve" text-anchor="middle" x="233.25" y="-1086.09" font-family="Noto Sans CJK KR" font-size="18.00">UML Activity Diagram &#45; GetFinalValue(statId, context)</text>
<!-- start -->
<g id="node1" class="node">
<title>start</title>
<ellipse fill="#111827" stroke="#425466" cx="93.7" cy="-1050.69" rx="26" ry="26"/>
<text xml:space="preserve" text-anchor="middle" x="93.7" y="-1047.39" font-family="Noto Sans CJK KR" font-size="11.00" fill="white">Start</text>
</g>
<!-- query -->
<g id="node2" class="node">
<title>query</title>
<path fill="#e8f0fe" stroke="#425466" d="M168.66,-983.69C168.66,-983.69 18.74,-983.69 18.74,-983.69 12.74,-983.69 6.74,-977.69 6.74,-971.69 6.74,-971.69 6.74,-959.69 6.74,-959.69 6.74,-953.69 12.74,-947.69 18.74,-947.69 18.74,-947.69 168.66,-947.69 168.66,-947.69 174.66,-947.69 180.66,-953.69 180.66,-959.69 180.66,-959.69 180.66,-971.69 180.66,-971.69 180.66,-977.69 174.66,-983.69 168.66,-983.69"/>
<text xml:space="preserve" text-anchor="middle" x="93.7" y="-962.39" font-family="Noto Sans CJK KR" font-size="11.00">StatBlock.GetValue(statId, context)</text>
</g>
<!-- start&#45;&gt;query -->
<g id="edge1" class="edge">
<title>start&#45;&gt;query</title>
<path fill="none" stroke="#425466" d="M93.7,-1024.26C93.7,-1024.26 93.7,-993.53 93.7,-993.53"/>
<polygon fill="#425466" stroke="#425466" points="96.5,-993.53 93.7,-985.53 90.9,-993.53 96.5,-993.53"/>
</g>
<!-- exists -->
<g id="node3" class="node">
<title>exists</title>
<path fill="#fff3cd" stroke="#425466" d="M81.94,-904.32C81.94,-904.32 15.83,-891.05 15.83,-891.05 9.95,-889.87 9.95,-887.5 15.83,-886.32 15.83,-886.32 81.94,-873.05 81.94,-873.05 87.82,-871.87 99.58,-871.87 105.47,-873.05 105.47,-873.05 171.57,-886.32 171.57,-886.32 177.45,-887.5 177.45,-889.87 171.57,-891.05 171.57,-891.05 105.47,-904.32 105.47,-904.32 99.58,-905.5 87.82,-905.5 81.94,-904.32"/>
<text xml:space="preserve" text-anchor="middle" x="93.7" y="-885.39" font-family="Noto Sans CJK KR" font-size="11.00">StatInstance exists?</text>
</g>
<!-- query&#45;&gt;exists -->
<g id="edge2" class="edge">
<title>query&#45;&gt;exists</title>
<path fill="none" stroke="#425466" d="M93.7,-947.44C93.7,-947.44 93.7,-916.58 93.7,-916.58"/>
<polygon fill="#425466" stroke="#425466" points="96.5,-916.58 93.7,-908.58 90.9,-916.58 96.5,-916.58"/>
</g>
<!-- default -->
<g id="node4" class="node">
<title>default</title>
<path fill="#fce8e6" stroke="#425466" d="M127.4,-762.69C127.4,-762.69 12,-762.69 12,-762.69 6,-762.69 0,-756.69 0,-750.69 0,-750.69 0,-738.69 0,-738.69 0,-732.69 6,-726.69 12,-726.69 12,-726.69 127.4,-726.69 127.4,-726.69 133.4,-726.69 139.4,-732.69 139.4,-738.69 139.4,-738.69 139.4,-750.69 139.4,-750.69 139.4,-756.69 133.4,-762.69 127.4,-762.69"/>
<text xml:space="preserve" text-anchor="middle" x="69.7" y="-741.39" font-family="Noto Sans CJK KR" font-size="11.00">Return default / error policy</text>
</g>
<!-- exists&#45;&gt;default -->
<g id="edge3" class="edge">
<title>exists&#45;&gt;default</title>
<path fill="none" stroke="#425466" d="M61.42,-876.9C61.42,-876.9 61.42,-772.36 61.42,-772.36"/>
<polygon fill="#425466" stroke="#425466" points="64.22,-772.36 61.42,-764.36 58.62,-772.36 64.22,-772.36"/>
<text xml:space="preserve" text-anchor="middle" x="75.81" y="-841.69" font-family="Noto Sans CJK KR" font-size="10.00">No</text>
</g>
<!-- dirty -->
<g id="node5" class="node">
<title>dirty</title>
<path fill="#fff3cd" stroke="#425466" d="M247.8,-817.17C247.8,-817.17 130.67,-802.21 130.67,-802.21 124.71,-801.45 124.71,-799.93 130.67,-799.17 130.67,-799.17 247.8,-784.21 247.8,-784.21 253.75,-783.45 265.65,-783.45 271.6,-784.21 271.6,-784.21 388.73,-799.17 388.73,-799.17 394.69,-799.93 394.69,-801.45 388.73,-802.21 388.73,-802.21 271.6,-817.17 271.6,-817.17 265.65,-817.93 253.75,-817.93 247.8,-817.17"/>
<text xml:space="preserve" text-anchor="middle" x="259.7" y="-797.39" font-family="Noto Sans CJK KR" font-size="11.00">Cache dirty or context&#45;sensitive?</text>
</g>
<!-- exists&#45;&gt;dirty -->
<g id="edge5" class="edge">
<title>exists&#45;&gt;dirty</title>
<path fill="none" stroke="#425466" d="M151.05,-881.78C151.05,-881.78 151.05,-814.63 151.05,-814.63"/>
<polygon fill="#425466" stroke="#425466" points="153.85,-814.63 151.05,-806.63 148.25,-814.63 153.85,-814.63"/>
<text xml:space="preserve" text-anchor="middle" x="196.48" y="-841.69" font-family="Noto Sans CJK KR" font-size="10.00">Yes</text>
</g>
<!-- end -->
<g id="node15" class="node">
<title>end</title>
<ellipse fill="#111827" stroke="#425466" cx="135.7" cy="-27.84" rx="23.84" ry="23.84"/>
<ellipse fill="none" stroke="#425466" cx="135.7" cy="-27.84" rx="27.84" ry="27.84"/>
<text xml:space="preserve" text-anchor="middle" x="135.7" y="-24.54" font-family="Noto Sans CJK KR" font-size="11.00" fill="white">End</text>
</g>
<!-- default&#45;&gt;end -->
<g id="edge4" class="edge">
<title>default&#45;&gt;end</title>
<path fill="none" stroke="#425466" d="M53.93,-726.25C53.93,-614.07 53.93,-28 53.93,-28 53.93,-28 98.05,-28 98.05,-28"/>
<polygon fill="#425466" stroke="#425466" points="98.05,-30.8 106.05,-28 98.05,-25.2 98.05,-30.8"/>
</g>
<!-- cache -->
<g id="node6" class="node">
<title>cache</title>
<path fill="#f1f8e9" stroke="#425466" d="M203.59,-650.69C203.59,-650.69 121.81,-650.69 121.81,-650.69 115.81,-650.69 109.81,-644.69 109.81,-638.69 109.81,-638.69 109.81,-626.69 109.81,-626.69 109.81,-620.69 115.81,-614.69 121.81,-614.69 121.81,-614.69 203.59,-614.69 203.59,-614.69 209.59,-614.69 215.59,-620.69 215.59,-626.69 215.59,-626.69 215.59,-638.69 215.59,-638.69 215.59,-644.69 209.59,-650.69 203.59,-650.69"/>
<text xml:space="preserve" text-anchor="middle" x="162.7" y="-629.39" font-family="Noto Sans CJK KR" font-size="11.00">Return cached value</text>
</g>
<!-- dirty&#45;&gt;cache -->
<g id="edge6" class="edge">
<title>dirty&#45;&gt;cache</title>
<path fill="none" stroke="#425466" d="M177.5,-793.03C177.5,-793.03 177.5,-660.63 177.5,-660.63"/>
<polygon fill="#425466" stroke="#425466" points="180.3,-660.63 177.5,-652.63 174.7,-660.63 180.3,-660.63"/>
<text xml:space="preserve" text-anchor="middle" x="186.81" y="-741.69" font-family="Noto Sans CJK KR" font-size="10.00">No</text>
</g>
<!-- collect -->
<g id="node7" class="node">
<title>collect</title>
<path fill="#dff7e4" stroke="#425466" d="M363.99,-706.69C363.99,-706.69 249.41,-706.69 249.41,-706.69 243.41,-706.69 237.41,-700.69 237.41,-694.69 237.41,-694.69 237.41,-682.69 237.41,-682.69 237.41,-676.69 243.41,-670.69 249.41,-670.69 249.41,-670.69 363.99,-670.69 363.99,-670.69 369.99,-670.69 375.99,-676.69 375.99,-682.69 375.99,-682.69 375.99,-694.69 375.99,-694.69 375.99,-700.69 369.99,-706.69 363.99,-706.69"/>
<text xml:space="preserve" text-anchor="middle" x="306.7" y="-691.99" font-family="Noto Sans CJK KR" font-size="11.00">Collect active modifiers&#13;</text>
<text xml:space="preserve" text-anchor="middle" x="306.7" y="-678.79" font-family="Noto Sans CJK KR" font-size="11.00">+ remove expired modifiers</text>
</g>
<!-- dirty&#45;&gt;collect -->
<g id="edge8" class="edge">
<title>dirty&#45;&gt;collect</title>
<path fill="none" stroke="#425466" d="M306.7,-788.27C306.7,-788.27 306.7,-716.6 306.7,-716.6"/>
<polygon fill="#425466" stroke="#425466" points="309.5,-716.6 306.7,-708.6 303.9,-716.6 309.5,-716.6"/>
<text xml:space="preserve" text-anchor="middle" x="290.48" y="-741.69" font-family="Noto Sans CJK KR" font-size="10.00">Yes</text>
</g>
<!-- cache&#45;&gt;end -->
<g id="edge7" class="edge">
<title>cache&#45;&gt;end</title>
<path fill="none" stroke="#425466" d="M127.72,-614.25C127.72,-614.25 127.72,-64.42 127.72,-64.42"/>
<polygon fill="#425466" stroke="#425466" points="130.52,-64.42 127.72,-56.42 124.92,-64.42 130.52,-64.42"/>
</g>
<!-- filter -->
<g id="node8" class="node">
<title>filter</title>
<path fill="#dff7e4" stroke="#425466" d="M401.33,-594.69C401.33,-594.69 244.07,-594.69 244.07,-594.69 238.07,-594.69 232.07,-588.69 232.07,-582.69 232.07,-582.69 232.07,-570.69 232.07,-570.69 232.07,-564.69 238.07,-558.69 244.07,-558.69 244.07,-558.69 401.33,-558.69 401.33,-558.69 407.33,-558.69 413.33,-564.69 413.33,-570.69 413.33,-570.69 413.33,-582.69 413.33,-582.69 413.33,-588.69 407.33,-594.69 401.33,-594.69"/>
<text xml:space="preserve" text-anchor="middle" x="322.7" y="-573.39" font-family="Noto Sans CJK KR" font-size="11.00">Filter by Condition.Evaluate(context)</text>
</g>
<!-- collect&#45;&gt;filter -->
<g id="edge9" class="edge">
<title>collect&#45;&gt;filter</title>
<path fill="none" stroke="#425466" d="M306.7,-670.19C306.7,-670.19 306.7,-604.35 306.7,-604.35"/>
<polygon fill="#425466" stroke="#425466" points="309.5,-604.35 306.7,-596.35 303.9,-604.35 309.5,-604.35"/>
</g>
<!-- sort -->
<g id="node9" class="node">
<title>sort</title>
<path fill="#e0f7fa" stroke="#425466" d="M393.41,-517.69C393.41,-517.69 255.99,-517.69 255.99,-517.69 249.99,-517.69 243.99,-511.69 243.99,-505.69 243.99,-505.69 243.99,-493.69 243.99,-493.69 243.99,-487.69 249.99,-481.69 255.99,-481.69 255.99,-481.69 393.41,-481.69 393.41,-481.69 399.41,-481.69 405.41,-487.69 405.41,-493.69 405.41,-493.69 405.41,-505.69 405.41,-505.69 405.41,-511.69 399.41,-517.69 393.41,-517.69"/>
<text xml:space="preserve" text-anchor="middle" x="324.7" y="-496.39" font-family="Noto Sans CJK KR" font-size="11.00">Sort by phase, operation, priority</text>
</g>
<!-- filter&#45;&gt;sort -->
<g id="edge10" class="edge">
<title>filter&#45;&gt;sort</title>
<path fill="none" stroke="#425466" d="M324.7,-558.44C324.7,-558.44 324.7,-527.58 324.7,-527.58"/>
<polygon fill="#425466" stroke="#425466" points="327.5,-527.58 324.7,-519.58 321.9,-527.58 327.5,-527.58"/>
</g>
<!-- apply -->
<g id="node10" class="node">
<title>apply</title>
<path fill="#e0f7fa" stroke="#425466" d="M454.51,-440.69C454.51,-440.69 196.89,-440.69 196.89,-440.69 190.89,-440.69 184.89,-434.69 184.89,-428.69 184.89,-428.69 184.89,-416.69 184.89,-416.69 184.89,-410.69 190.89,-404.69 196.89,-404.69 196.89,-404.69 454.51,-404.69 454.51,-404.69 460.51,-404.69 466.51,-410.69 466.51,-416.69 466.51,-416.69 466.51,-428.69 466.51,-428.69 466.51,-434.69 460.51,-440.69 454.51,-440.69"/>
<text xml:space="preserve" text-anchor="middle" x="325.7" y="-425.99" font-family="Noto Sans CJK KR" font-size="11.00">Apply calculation phases&#13;</text>
<text xml:space="preserve" text-anchor="middle" x="325.7" y="-412.79" font-family="Noto Sans CJK KR" font-size="11.00">Base &#45;&gt; Add &#45;&gt; Percent &#45;&gt; More/Less &#45;&gt; Override &#45;&gt; Clamp</text>
</g>
<!-- sort&#45;&gt;apply -->
<g id="edge11" class="edge">
<title>sort&#45;&gt;apply</title>
<path fill="none" stroke="#425466" d="M324.7,-481.44C324.7,-481.44 324.7,-450.58 324.7,-450.58"/>
<polygon fill="#425466" stroke="#425466" points="327.5,-450.58 324.7,-442.58 321.9,-450.58 327.5,-450.58"/>
</g>
<!-- derived -->
<g id="node11" class="node">
<title>derived</title>
<path fill="#fffde7" stroke="#425466" d="M365.32,-363.69C365.32,-363.69 226.08,-363.69 226.08,-363.69 220.08,-363.69 214.08,-357.69 214.08,-351.69 214.08,-351.69 214.08,-339.69 214.08,-339.69 214.08,-333.69 220.08,-327.69 226.08,-327.69 226.08,-327.69 365.32,-327.69 365.32,-327.69 371.32,-327.69 377.32,-333.69 377.32,-339.69 377.32,-339.69 377.32,-351.69 377.32,-351.69 377.32,-357.69 371.32,-363.69 365.32,-363.69"/>
<text xml:space="preserve" text-anchor="middle" x="295.7" y="-348.99" font-family="Noto Sans CJK KR" font-size="11.00">Evaluate derived dependencies&#13;</text>
<text xml:space="preserve" text-anchor="middle" x="295.7" y="-335.79" font-family="Noto Sans CJK KR" font-size="11.00">when formula requires other stats</text>
</g>
<!-- apply&#45;&gt;derived -->
<g id="edge12" class="edge">
<title>apply&#45;&gt;derived</title>
<path fill="none" stroke="#425466" d="M295.7,-404.44C295.7,-404.44 295.7,-373.58 295.7,-373.58"/>
<polygon fill="#425466" stroke="#425466" points="298.5,-373.58 295.7,-365.58 292.9,-373.58 298.5,-373.58"/>
</g>
<!-- breakdown -->
<g id="node12" class="node">
<title>breakdown</title>
<path fill="#f3e5f5" stroke="#425466" d="M319.55,-286.69C319.55,-286.69 221.85,-286.69 221.85,-286.69 215.85,-286.69 209.85,-280.69 209.85,-274.69 209.85,-274.69 209.85,-262.69 209.85,-262.69 209.85,-256.69 215.85,-250.69 221.85,-250.69 221.85,-250.69 319.55,-250.69 319.55,-250.69 325.55,-250.69 331.55,-256.69 331.55,-262.69 331.55,-262.69 331.55,-274.69 331.55,-274.69 331.55,-280.69 325.55,-286.69 319.55,-286.69"/>
<text xml:space="preserve" text-anchor="middle" x="270.7" y="-271.99" font-family="Noto Sans CJK KR" font-size="11.00">Build debug breakdown&#13;</text>
<text xml:space="preserve" text-anchor="middle" x="270.7" y="-258.79" font-family="Noto Sans CJK KR" font-size="11.00">and update cache</text>
</g>
<!-- derived&#45;&gt;breakdown -->
<g id="edge13" class="edge">
<title>derived&#45;&gt;breakdown</title>
<path fill="none" stroke="#425466" d="M272.82,-327.44C272.82,-327.44 272.82,-296.58 272.82,-296.58"/>
<polygon fill="#425466" stroke="#425466" points="275.62,-296.58 272.82,-288.58 270.02,-296.58 275.62,-296.58"/>
</g>
<!-- publish -->
<g id="node13" class="node">
<title>publish</title>
<path fill="#e0f7fa" stroke="#425466" d="M306.41,-209.69C306.41,-209.69 208.99,-209.69 208.99,-209.69 202.99,-209.69 196.99,-203.69 196.99,-197.69 196.99,-197.69 196.99,-185.69 196.99,-185.69 196.99,-179.69 202.99,-173.69 208.99,-173.69 208.99,-173.69 306.41,-173.69 306.41,-173.69 312.41,-173.69 318.41,-179.69 318.41,-185.69 318.41,-185.69 318.41,-197.69 318.41,-197.69 318.41,-203.69 312.41,-209.69 306.41,-209.69"/>
<text xml:space="preserve" text-anchor="middle" x="257.7" y="-194.99" font-family="Noto Sans CJK KR" font-size="11.00">Publish OnStatChanged&#13;</text>
<text xml:space="preserve" text-anchor="middle" x="257.7" y="-181.79" font-family="Noto Sans CJK KR" font-size="11.00">when value changed</text>
</g>
<!-- breakdown&#45;&gt;publish -->
<g id="edge14" class="edge">
<title>breakdown&#45;&gt;publish</title>
<path fill="none" stroke="#425466" d="M264.13,-250.44C264.13,-250.44 264.13,-219.58 264.13,-219.58"/>
<polygon fill="#425466" stroke="#425466" points="266.93,-219.58 264.13,-211.58 261.33,-219.58 266.93,-219.58"/>
</g>
<!-- return -->
<g id="node14" class="node">
<title>return</title>
<path fill="#f1f8e9" stroke="#425466" d="M277.73,-132.69C277.73,-132.69 209.67,-132.69 209.67,-132.69 203.67,-132.69 197.67,-126.69 197.67,-120.69 197.67,-120.69 197.67,-108.69 197.67,-108.69 197.67,-102.69 203.67,-96.69 209.67,-96.69 209.67,-96.69 277.73,-96.69 277.73,-96.69 283.73,-96.69 289.73,-102.69 289.73,-108.69 289.73,-108.69 289.73,-120.69 289.73,-120.69 289.73,-126.69 283.73,-132.69 277.73,-132.69"/>
<text xml:space="preserve" text-anchor="middle" x="243.7" y="-111.39" font-family="Noto Sans CJK KR" font-size="11.00">Return StatValue</text>
</g>
<!-- publish&#45;&gt;return -->
<g id="edge15" class="edge">
<title>publish&#45;&gt;return</title>
<path fill="none" stroke="#425466" d="M243.7,-173.44C243.7,-173.44 243.7,-142.58 243.7,-142.58"/>
<polygon fill="#425466" stroke="#425466" points="246.5,-142.58 243.7,-134.58 240.9,-142.58 246.5,-142.58"/>
</g>
<!-- return&#45;&gt;end -->
<g id="edge16" class="edge">
<title>return&#45;&gt;end</title>
<path fill="none" stroke="#425466" d="M197.25,-115C171.9,-115 145.63,-115 145.63,-115 145.63,-115 145.63,-63.51 145.63,-63.51"/>
<polygon fill="#425466" stroke="#425466" points="148.43,-63.51 145.63,-55.51 142.83,-63.51 148.43,-63.51"/>
</g>
</g>
</svg>
