<?xml version="1.0" encoding="UTF-8" standalone="no"?>
<!DOCTYPE svg PUBLIC "-//W3C//DTD SVG 1.1//EN"
 "http://www.w3.org/Graphics/SVG/1.1/DTD/svg11.dtd">
<!-- Generated by graphviz version 15.1.0 (20260618.0150)
 -->
<!-- Title: ActivityDiagram Pages: 1 -->
<svg width="600pt" height="1497pt"
 viewBox="0.00 0.00 600.00 1497.00" xmlns="http://www.w3.org/2000/svg" xmlns:xlink="http://www.w3.org/1999/xlink">
<g id="graph0" class="graph" transform="scale(1.33333 1.33333) rotate(0) translate(4 1118.71)">
<title>ActivityDiagram</title>
<polygon fill="white" stroke="none" points="-4,4 -4,-1118.71 446.08,-1118.71 446.08,4 -4,4"/>
<text xml:space="preserve" text-anchor="middle" x="221.04" y="-1093.61" font-family="Noto Sans KR" font-size="18.00">UML Activity Diagram &#45; GetFinalValue(statId, context)</text>
<!-- start -->
<g id="node1" class="node">
<title>start</title>
<ellipse fill="#111827" stroke="#425466" cx="104.12" cy="-1057.21" rx="27.75" ry="27.75"/>
<text xml:space="preserve" text-anchor="middle" x="104.12" y="-1053.51" font-family="Noto Sans KR" font-size="11.00" fill="white">Start</text>
</g>
<!-- query -->
<g id="node2" class="node">
<title>query</title>
<path fill="#e8f0fe" stroke="#425466" d="M184.5,-982.45C184.5,-982.45 23.75,-982.45 23.75,-982.45 17.75,-982.45 11.75,-976.45 11.75,-970.45 11.75,-970.45 11.75,-958.45 11.75,-958.45 11.75,-952.45 17.75,-946.45 23.75,-946.45 23.75,-946.45 184.5,-946.45 184.5,-946.45 190.5,-946.45 196.5,-952.45 196.5,-958.45 196.5,-958.45 196.5,-970.45 196.5,-970.45 196.5,-976.45 190.5,-982.45 184.5,-982.45"/>
<text xml:space="preserve" text-anchor="middle" x="104.12" y="-960.75" font-family="Noto Sans KR" font-size="11.00">StatBlock.GetValue(statId, context)</text>
</g>
<!-- start&#45;&gt;query -->
<g id="edge1" class="edge">
<title>start&#45;&gt;query</title>
<path fill="none" stroke="#425466" d="M104.12,-1028.98C104.12,-1017.31 104.12,-1003.73 104.12,-992.13"/>
<polygon fill="#425466" stroke="#425466" points="106.93,-992.44 104.13,-984.44 101.33,-992.44 106.93,-992.44"/>
</g>
<!-- exists -->
<g id="node3" class="node">
<title>exists</title>
<path fill="#fff3cd" stroke="#425466" d="M92.32,-897.27C92.32,-897.27 18.51,-883.63 18.51,-883.63 12.61,-882.54 12.61,-880.36 18.51,-879.27 18.51,-879.27 92.32,-865.63 92.32,-865.63 98.22,-864.54 110.03,-864.54 115.93,-865.63 115.93,-865.63 189.74,-879.27 189.74,-879.27 195.64,-880.36 195.64,-882.54 189.74,-883.63 189.74,-883.63 115.93,-897.27 115.93,-897.27 110.03,-898.36 98.22,-898.36 92.32,-897.27"/>
<text xml:space="preserve" text-anchor="middle" x="104.12" y="-877.75" font-family="Noto Sans KR" font-size="11.00">StatInstance exists?</text>
</g>
<!-- query&#45;&gt;exists -->
<g id="edge2" class="edge">
<title>query&#45;&gt;exists</title>
<path fill="none" stroke="#425466" d="M104.12,-946.28C104.12,-935.5 104.12,-921.39 104.12,-909.18"/>
<polygon fill="#425466" stroke="#425466" points="106.93,-909.4 104.13,-901.4 101.33,-909.4 106.93,-909.4"/>
</g>
<!-- default -->
<g id="node4" class="node">
<title>default</title>
<path fill="#fce8e6" stroke="#425466" d="M138.25,-745.7C138.25,-745.7 12,-745.7 12,-745.7 6,-745.7 0,-739.7 0,-733.7 0,-733.7 0,-721.7 0,-721.7 0,-715.7 6,-709.7 12,-709.7 12,-709.7 138.25,-709.7 138.25,-709.7 144.25,-709.7 150.25,-715.7 150.25,-721.7 150.25,-721.7 150.25,-733.7 150.25,-733.7 150.25,-739.7 144.25,-745.7 138.25,-745.7"/>
<text xml:space="preserve" text-anchor="middle" x="75.12" y="-724" font-family="Noto Sans KR" font-size="11.00">Return default / error policy</text>
</g>
<!-- exists&#45;&gt;default -->
<g id="edge3" class="edge">
<title>exists&#45;&gt;default</title>
<path fill="none" stroke="#425466" d="M100.91,-863.63C95.89,-837.34 86.13,-786.28 80.16,-755.07"/>
<polygon fill="#425466" stroke="#425466" points="82.98,-754.88 78.73,-747.55 77.48,-755.94 82.98,-754.88"/>
<text xml:space="preserve" text-anchor="middle" x="102.61" y="-830.95" font-family="Noto Sans KR" font-size="10.00">No</text>
</g>
<!-- dirty -->
<g id="node5" class="node">
<title>dirty</title>
<path fill="#fff3cd" stroke="#425466" d="M277.21,-803.3C277.21,-803.3 148.09,-788.11 148.09,-788.11 142.13,-787.41 142.13,-786 148.09,-785.3 148.09,-785.3 277.21,-770.11 277.21,-770.11 283.17,-769.41 295.08,-769.41 301.04,-770.11 301.04,-770.11 430.16,-785.3 430.16,-785.3 436.12,-786 436.12,-787.41 430.16,-788.11 430.16,-788.11 301.04,-803.3 301.04,-803.3 295.08,-804 283.17,-804 277.21,-803.3"/>
<text xml:space="preserve" text-anchor="middle" x="289.12" y="-783" font-family="Noto Sans KR" font-size="11.00">Cache dirty or context&#45;sensitive?</text>
</g>
<!-- exists&#45;&gt;dirty -->
<g id="edge5" class="edge">
<title>exists&#45;&gt;dirty</title>
<path fill="none" stroke="#425466" d="M129.46,-867.75C161.34,-851.77 216.32,-824.21 252.7,-805.96"/>
<polygon fill="#425466" stroke="#425466" points="253.82,-808.53 259.72,-802.45 251.32,-803.53 253.82,-808.53"/>
<text xml:space="preserve" text-anchor="middle" x="214.83" y="-830.95" font-family="Noto Sans KR" font-size="10.00">Yes</text>
</g>
<!-- end -->
<g id="node14" class="node">
<title>end</title>
<ellipse fill="#111827" stroke="#425466" cx="181.12" cy="-29.1" rx="25.1" ry="25.1"/>
<ellipse fill="none" stroke="#425466" cx="181.12" cy="-29.1" rx="29.1" ry="29.1"/>
<text xml:space="preserve" text-anchor="middle" x="181.12" y="-25.4" font-family="Noto Sans KR" font-size="11.00" fill="white">End</text>
</g>
<!-- default&#45;&gt;end -->
<g id="edge4" class="edge">
<title>default&#45;&gt;end</title>
<path fill="none" stroke="#425466" d="M76.92,-709.34C80.27,-676.98 87.12,-610.7 87.12,-610.7 87.12,-610.7 87.12,-610.7 87.12,-122.2 87.12,-122.2 126.18,-83.94 153.94,-56.73"/>
<polygon fill="#425466" stroke="#425466" points="155.89,-58.75 159.65,-51.15 151.97,-54.75 155.89,-58.75"/>
</g>
<!-- cache -->
<g id="node6" class="node">
<title>cache</title>
<path fill="#f1f8e9" stroke="#425466" d="M233.25,-627.7C233.25,-627.7 143,-627.7 143,-627.7 137,-627.7 131,-621.7 131,-615.7 131,-615.7 131,-603.7 131,-603.7 131,-597.7 137,-591.7 143,-591.7 143,-591.7 233.25,-591.7 233.25,-591.7 239.25,-591.7 245.25,-597.7 245.25,-603.7 245.25,-603.7 245.25,-615.7 245.25,-615.7 245.25,-621.7 239.25,-627.7 233.25,-627.7"/>
<text xml:space="preserve" text-anchor="middle" x="188.12" y="-606" font-family="Noto Sans KR" font-size="11.00">Return cached value</text>
</g>
<!-- dirty&#45;&gt;cache -->
<g id="edge6" class="edge">
<title>dirty&#45;&gt;cache</title>
<path fill="none" stroke="#425466" d="M279.8,-769.55C262.22,-739.08 224.01,-672.89 202.9,-636.3"/>
<polygon fill="#425466" stroke="#425466" points="205.35,-634.94 198.92,-629.41 200.5,-637.74 205.35,-634.94"/>
<text xml:space="preserve" text-anchor="middle" x="271.84" y="-724.58" font-family="Noto Sans KR" font-size="10.00">No</text>
</g>
<!-- collect -->
<g id="node7" class="node">
<title>collect</title>
<path fill="#dff7e4" stroke="#425466" d="M411.88,-686.7C411.88,-686.7 268.38,-686.7 268.38,-686.7 262.38,-686.7 256.38,-680.7 256.38,-674.7 256.38,-674.7 256.38,-662.7 256.38,-662.7 256.38,-656.7 262.38,-650.7 268.38,-650.7 268.38,-650.7 411.88,-650.7 411.88,-650.7 417.88,-650.7 423.88,-656.7 423.88,-662.7 423.88,-662.7 423.88,-674.7 423.88,-674.7 423.88,-680.7 417.88,-686.7 411.88,-686.7"/>
<text xml:space="preserve" text-anchor="middle" x="340.12" y="-671.75" font-family="Noto Sans KR" font-size="11.00">Collect active modifiers</text>
<text xml:space="preserve" text-anchor="middle" x="340.12" y="-658.25" font-family="Noto Sans KR" font-size="11.00"> filter expired without mutation</text>
</g>
<!-- dirty&#45;&gt;collect -->
<g id="edge8" class="edge">
<title>dirty&#45;&gt;collect</title>
<path fill="none" stroke="#425466" d="M296.43,-769.08C304.86,-749.92 318.81,-718.19 328.68,-695.74"/>
<polygon fill="#425466" stroke="#425466" points="331.23,-696.89 331.89,-688.44 326.11,-694.63 331.23,-696.89"/>
<text xml:space="preserve" text-anchor="middle" x="329.3" y="-724.58" font-family="Noto Sans KR" font-size="10.00">Yes</text>
</g>
<!-- cache&#45;&gt;end -->
<g id="edge7" class="edge">
<title>cache&#45;&gt;end</title>
<path fill="none" stroke="#425466" d="M186.91,-591.46C184.9,-563.1 181.12,-509.7 181.12,-509.7 181.12,-509.7 181.12,-509.7 181.12,-122.2 181.12,-122.2 181.12,-93.38 181.12,-67.99"/>
<polygon fill="#425466" stroke="#425466" points="183.93,-68 181.13,-60 178.33,-68 183.93,-68"/>
</g>
<!-- filter -->
<g id="node8" class="node">
<title>filter</title>
<path fill="#dff7e4" stroke="#425466" d="M425.75,-568.7C425.75,-568.7 254.5,-568.7 254.5,-568.7 248.5,-568.7 242.5,-562.7 242.5,-556.7 242.5,-556.7 242.5,-544.7 242.5,-544.7 242.5,-538.7 248.5,-532.7 254.5,-532.7 254.5,-532.7 425.75,-532.7 425.75,-532.7 431.75,-532.7 437.75,-538.7 437.75,-544.7 437.75,-544.7 437.75,-556.7 437.75,-556.7 437.75,-562.7 431.75,-568.7 425.75,-568.7"/>
<text xml:space="preserve" text-anchor="middle" x="340.12" y="-547" font-family="Noto Sans KR" font-size="11.00">Filter by Condition.Evaluate(context)</text>
</g>
<!-- collect&#45;&gt;filter -->
<g id="edge9" class="edge">
<title>collect&#45;&gt;filter</title>
<path fill="none" stroke="#425466" d="M340.12,-650.34C340.12,-631.37 340.12,-600.76 340.12,-578.67"/>
<polygon fill="#425466" stroke="#425466" points="342.93,-578.7 340.13,-570.7 337.33,-578.7 342.93,-578.7"/>
</g>
<!-- sort -->
<g id="node9" class="node">
<title>sort</title>
<path fill="#e0f7fa" stroke="#425466" d="M396.25,-485.7C396.25,-485.7 282,-485.7 282,-485.7 276,-485.7 270,-479.7 270,-473.7 270,-473.7 270,-461.7 270,-461.7 270,-455.7 276,-449.7 282,-449.7 282,-449.7 396.25,-449.7 396.25,-449.7 402.25,-449.7 408.25,-455.7 408.25,-461.7 408.25,-461.7 408.25,-473.7 408.25,-473.7 408.25,-479.7 402.25,-485.7 396.25,-485.7"/>
<text xml:space="preserve" text-anchor="middle" x="339.12" y="-470.75" font-family="Noto Sans KR" font-size="11.00">Sort by phase, operation,</text>
<text xml:space="preserve" text-anchor="middle" x="339.12" y="-457.25" font-family="Noto Sans KR" font-size="11.00">priority</text>
</g>
<!-- filter&#45;&gt;sort -->
<g id="edge10" class="edge">
<title>filter&#45;&gt;sort</title>
<path fill="none" stroke="#425466" d="M339.91,-532.53C339.78,-521.75 339.61,-507.64 339.45,-495.43"/>
<polygon fill="#425466" stroke="#425466" points="342.26,-495.62 339.36,-487.65 336.66,-495.68 342.26,-495.62"/>
</g>
<!-- apply -->
<g id="node10" class="node">
<title>apply</title>
<path fill="#e0f7fa" stroke="#425466" d="M419.38,-402.7C419.38,-402.7 254.88,-402.7 254.88,-402.7 248.88,-402.7 242.88,-396.7 242.88,-390.7 242.88,-390.7 242.88,-366.2 242.88,-366.2 242.88,-360.2 248.88,-354.2 254.88,-354.2 254.88,-354.2 419.38,-354.2 419.38,-354.2 425.38,-354.2 431.38,-360.2 431.38,-366.2 431.38,-366.2 431.38,-390.7 431.38,-390.7 431.38,-396.7 425.38,-402.7 419.38,-402.7"/>
<text xml:space="preserve" text-anchor="middle" x="337.12" y="-388.25" font-family="Noto Sans KR" font-size="11.00">Apply calculation phases</text>
<text xml:space="preserve" text-anchor="middle" x="337.12" y="-374.75" font-family="Noto Sans KR" font-size="11.00">Base &#45;&gt; Add &#45;&gt; Percent &#45;&gt; More/Less</text>
<text xml:space="preserve" text-anchor="middle" x="337.12" y="-361.25" font-family="Noto Sans KR" font-size="11.00">&#45;&gt; Override &#45;&gt; Clamp</text>
</g>
<!-- sort&#45;&gt;apply -->
<g id="edge11" class="edge">
<title>sort&#45;&gt;apply</title>
<path fill="none" stroke="#425466" d="M338.73,-449.47C338.49,-438.86 338.17,-424.92 337.88,-412.28"/>
<polygon fill="#425466" stroke="#425466" points="340.68,-412.38 337.7,-404.45 335.08,-412.51 340.68,-412.38"/>
</g>
<!-- derived -->
<g id="node11" class="node">
<title>derived</title>
<path fill="#fffde7" stroke="#425466" d="M411.12,-307.2C411.12,-307.2 257.12,-307.2 257.12,-307.2 251.12,-307.2 245.12,-301.2 245.12,-295.2 245.12,-295.2 245.12,-283.2 245.12,-283.2 245.12,-277.2 251.12,-271.2 257.12,-271.2 257.12,-271.2 411.12,-271.2 411.12,-271.2 417.12,-271.2 423.12,-277.2 423.12,-283.2 423.12,-283.2 423.12,-295.2 423.12,-295.2 423.12,-301.2 417.12,-307.2 411.12,-307.2"/>
<text xml:space="preserve" text-anchor="middle" x="334.12" y="-292.25" font-family="Noto Sans KR" font-size="11.00">Evaluate derived dependencies</text>
<text xml:space="preserve" text-anchor="middle" x="334.12" y="-278.75" font-family="Noto Sans KR" font-size="11.00">when formula requires other stats</text>
</g>
<!-- apply&#45;&gt;derived -->
<g id="edge12" class="edge">
<title>apply&#45;&gt;derived</title>
<path fill="none" stroke="#425466" d="M336.32,-354.07C335.93,-342.64 335.45,-328.82 335.04,-316.96"/>
<polygon fill="#425466" stroke="#425466" points="337.85,-316.97 334.77,-309.07 332.25,-317.16 337.85,-316.97"/>
</g>
<!-- breakdown -->
<g id="node12" class="node">
<title>breakdown</title>
<path fill="#f3e5f5" stroke="#425466" d="M375.62,-224.2C375.62,-224.2 266.62,-224.2 266.62,-224.2 260.62,-224.2 254.62,-218.2 254.62,-212.2 254.62,-212.2 254.62,-200.2 254.62,-200.2 254.62,-194.2 260.62,-188.2 266.62,-188.2 266.62,-188.2 375.62,-188.2 375.62,-188.2 381.62,-188.2 387.62,-194.2 387.62,-200.2 387.62,-200.2 387.62,-212.2 387.62,-212.2 387.62,-218.2 381.62,-224.2 375.62,-224.2"/>
<text xml:space="preserve" text-anchor="middle" x="321.12" y="-209.25" font-family="Noto Sans KR" font-size="11.00">Build debug breakdown</text>
<text xml:space="preserve" text-anchor="middle" x="321.12" y="-195.75" font-family="Noto Sans KR" font-size="11.00">and update cache</text>
</g>
<!-- derived&#45;&gt;breakdown -->
<g id="edge13" class="edge">
<title>derived&#45;&gt;breakdown</title>
<path fill="none" stroke="#425466" d="M331.37,-271.03C329.64,-260.25 327.37,-246.14 325.41,-233.93"/>
<polygon fill="#425466" stroke="#425466" points="328.2,-233.59 324.16,-226.13 322.67,-234.47 328.2,-233.59"/>
</g>
<!-- return -->
<g id="node13" class="node">
<title>return</title>
<path fill="#f1f8e9" stroke="#425466" d="M342.62,-141.2C342.62,-141.2 269.62,-141.2 269.62,-141.2 263.62,-141.2 257.62,-135.2 257.62,-129.2 257.62,-129.2 257.62,-117.2 257.62,-117.2 257.62,-111.2 263.62,-105.2 269.62,-105.2 269.62,-105.2 342.62,-105.2 342.62,-105.2 348.62,-105.2 354.62,-111.2 354.62,-117.2 354.62,-117.2 354.62,-129.2 354.62,-129.2 354.62,-135.2 348.62,-141.2 342.62,-141.2"/>
<text xml:space="preserve" text-anchor="middle" x="306.12" y="-119.5" font-family="Noto Sans KR" font-size="11.00">Return StatValue</text>
</g>
<!-- breakdown&#45;&gt;return -->
<g id="edge14" class="edge">
<title>breakdown&#45;&gt;return</title>
<path fill="none" stroke="#425466" d="M317.94,-188.03C315.95,-177.25 313.34,-163.14 311.07,-150.93"/>
<polygon fill="#425466" stroke="#425466" points="313.84,-150.48 309.63,-143.13 308.33,-151.5 313.84,-150.48"/>
</g>
<!-- return&#45;&gt;end -->
<g id="edge15" class="edge">
<title>return&#45;&gt;end</title>
<path fill="none" stroke="#425466" d="M282.61,-104.88C262.5,-90.06 233.41,-68.62 211.52,-52.5"/>
<polygon fill="#425466" stroke="#425466" points="213.43,-50.43 205.33,-47.93 210.11,-54.93 213.43,-50.43"/>
</g>
</g>
</svg>
