<?xml version="1.0" encoding="UTF-8" standalone="no"?>
<!DOCTYPE svg PUBLIC "-//W3C//DTD SVG 1.1//EN"
 "http://www.w3.org/Graphics/SVG/1.1/DTD/svg11.dtd">
<!-- Generated by graphviz version 15.1.0 (20260618.0150)
 -->
<!-- Title: ActivityDiagram Pages: 1 -->
<svg width="811pt" height="1938pt"
 viewBox="0.00 0.00 811.00 1938.00" xmlns="http://www.w3.org/2000/svg" xmlns:xlink="http://www.w3.org/1999/xlink">
<g id="graph0" class="graph" transform="scale(1.33333 1.33333) rotate(0) translate(4 1449.46)">
<title>ActivityDiagram</title>
<polygon fill="white" stroke="none" points="-4,4 -4,-1449.46 604.5,-1449.46 604.5,4 -4,4"/>
<text xml:space="preserve" text-anchor="middle" x="300.25" y="-1424.36" font-family="Noto Sans KR" font-size="18.00">Executable C# Reference &#45; Derived Stat Evaluation</text>
<!-- start -->
<g id="node1" class="node">
<title>start</title>
<ellipse fill="#111827" stroke="#425466" cx="159.25" cy="-1387.96" rx="27.75" ry="27.75"/>
<text xml:space="preserve" text-anchor="middle" x="159.25" y="-1384.26" font-family="Noto Sans KR" font-size="11.00" fill="white">Start</text>
</g>
<!-- query -->
<g id="node2" class="node">
<title>query</title>
<path fill="#e8f0fe" stroke="#425466" d="M256.12,-1313.2C256.12,-1313.2 62.38,-1313.2 62.38,-1313.2 56.38,-1313.2 50.38,-1307.2 50.38,-1301.2 50.38,-1301.2 50.38,-1289.2 50.38,-1289.2 50.38,-1283.2 56.38,-1277.2 62.38,-1277.2 62.38,-1277.2 256.12,-1277.2 256.12,-1277.2 262.12,-1277.2 268.12,-1283.2 268.12,-1289.2 268.12,-1289.2 268.12,-1301.2 268.12,-1301.2 268.12,-1307.2 262.12,-1313.2 256.12,-1313.2"/>
<text xml:space="preserve" text-anchor="middle" x="159.25" y="-1298.25" font-family="Noto Sans KR" font-size="11.00">ReferenceDerivedStatEvaluator.GetScalar</text>
<text xml:space="preserve" text-anchor="middle" x="159.25" y="-1284.75" font-family="Noto Sans KR" font-size="11.00">(ownerId, statId, context, versions)</text>
</g>
<!-- start&#45;&gt;query -->
<g id="edge1" class="edge">
<title>start&#45;&gt;query</title>
<path fill="none" stroke="#425466" d="M159.25,-1359.73C159.25,-1348.06 159.25,-1334.48 159.25,-1322.88"/>
<polygon fill="#425466" stroke="#425466" points="162.05,-1323.19 159.25,-1315.19 156.45,-1323.19 162.05,-1323.19"/>
</g>
<!-- valid -->
<g id="node3" class="node">
<title>valid</title>
<path fill="#fff3cd" stroke="#425466" d="M147.53,-1227.63C147.53,-1227.63 11.72,-1197.78 11.72,-1197.78 5.86,-1196.49 5.86,-1193.92 11.72,-1192.63 11.72,-1192.63 147.53,-1162.78 147.53,-1162.78 153.39,-1161.49 165.11,-1161.49 170.97,-1162.78 170.97,-1162.78 306.78,-1192.63 306.78,-1192.63 312.64,-1193.92 312.64,-1196.49 306.78,-1197.78 306.78,-1197.78 170.97,-1227.63 170.97,-1227.63 165.11,-1228.92 153.39,-1228.92 147.53,-1227.63"/>
<text xml:space="preserve" text-anchor="middle" x="159.25" y="-1198.25" font-family="Noto Sans KR" font-size="11.00">IDs valid and</text>
<text xml:space="preserve" text-anchor="middle" x="159.25" y="-1184.75" font-family="Noto Sans KR" font-size="11.00">ownerId == context.OwnerId?</text>
</g>
<!-- query&#45;&gt;valid -->
<g id="edge2" class="edge">
<title>query&#45;&gt;valid</title>
<path fill="none" stroke="#425466" d="M159.25,-1277.13C159.25,-1266.81 159.25,-1253.13 159.25,-1239.96"/>
<polygon fill="#425466" stroke="#425466" points="162.05,-1240.04 159.25,-1232.04 156.45,-1240.04 162.05,-1240.04"/>
</g>
<!-- reject -->
<g id="node4" class="node">
<title>reject</title>
<path fill="#fce8e6" stroke="#425466" d="M175.38,-1029.95C175.38,-1029.95 85.12,-1029.95 85.12,-1029.95 79.12,-1029.95 73.12,-1023.95 73.12,-1017.95 73.12,-1017.95 73.12,-1005.95 73.12,-1005.95 73.12,-999.95 79.12,-993.95 85.12,-993.95 85.12,-993.95 175.38,-993.95 175.38,-993.95 181.38,-993.95 187.38,-999.95 187.38,-1005.95 187.38,-1005.95 187.38,-1017.95 187.38,-1017.95 187.38,-1023.95 181.38,-1029.95 175.38,-1029.95"/>
<text xml:space="preserve" text-anchor="middle" x="130.25" y="-1015" font-family="Noto Sans KR" font-size="11.00">Reject invalid query</text>
<text xml:space="preserve" text-anchor="middle" x="130.25" y="-1001.5" font-family="Noto Sans KR" font-size="11.00">(no cache mutation)</text>
</g>
<!-- valid&#45;&gt;reject -->
<g id="edge3" class="edge">
<title>valid&#45;&gt;reject</title>
<path fill="none" stroke="#425466" d="M153.93,-1160.96C148.33,-1125.95 139.62,-1071.53 134.47,-1039.35"/>
<polygon fill="#425466" stroke="#425466" points="137.26,-1039.08 133.24,-1031.62 131.74,-1039.96 137.26,-1039.08"/>
<text xml:space="preserve" text-anchor="middle" x="156.01" y="-1127.7" font-family="Noto Sans KR" font-size="10.00">No</text>
</g>
<!-- key -->
<g id="node5" class="node">
<title>key</title>
<path fill="#e8f0fe" stroke="#425466" d="M374.88,-1101.45C374.88,-1101.45 203.62,-1101.45 203.62,-1101.45 197.62,-1101.45 191.62,-1095.45 191.62,-1089.45 191.62,-1089.45 191.62,-1064.95 191.62,-1064.95 191.62,-1058.95 197.62,-1052.95 203.62,-1052.95 203.62,-1052.95 374.88,-1052.95 374.88,-1052.95 380.88,-1052.95 386.88,-1058.95 386.88,-1064.95 386.88,-1064.95 386.88,-1089.45 386.88,-1089.45 386.88,-1095.45 380.88,-1101.45 374.88,-1101.45"/>
<text xml:space="preserve" text-anchor="middle" x="289.25" y="-1087" font-family="Noto Sans KR" font-size="11.00">Build correctness key</text>
<text xml:space="preserve" text-anchor="middle" x="289.25" y="-1073.5" font-family="Noto Sans KR" font-size="11.00">StatId + full canonical StatContext</text>
<text xml:space="preserve" text-anchor="middle" x="289.25" y="-1060" font-family="Noto Sans KR" font-size="11.00">+ owner/definition/numeric versions</text>
</g>
<!-- valid&#45;&gt;key -->
<g id="edge5" class="edge">
<title>valid&#45;&gt;key</title>
<path fill="none" stroke="#425466" d="M190.06,-1166.71C209.94,-1148.97 235.79,-1125.91 256.11,-1107.78"/>
<polygon fill="#425466" stroke="#425466" points="257.82,-1110.01 261.92,-1102.59 254.09,-1105.83 257.82,-1110.01"/>
<text xml:space="preserve" text-anchor="middle" x="243.02" y="-1127.7" font-family="Noto Sans KR" font-size="10.00">Yes</text>
</g>
<!-- end -->
<g id="node17" class="node">
<title>end</title>
<ellipse fill="#111827" stroke="#425466" cx="212.25" cy="-29.1" rx="25.1" ry="25.1"/>
<ellipse fill="none" stroke="#425466" cx="212.25" cy="-29.1" rx="29.1" ry="29.1"/>
<text xml:space="preserve" text-anchor="middle" x="212.25" y="-25.4" font-family="Noto Sans KR" font-size="11.00" fill="white">End</text>
</g>
<!-- reject&#45;&gt;end -->
<g id="edge4" class="edge">
<title>reject&#45;&gt;end</title>
<path fill="none" stroke="#425466" d="M130.25,-993.72C130.25,-964.07 130.25,-906.58 130.25,-906.58 130.25,-906.58 130.25,-906.58 130.25,-122.2 130.25,-122.2 162.91,-85.52 187.01,-58.46"/>
<polygon fill="#425466" stroke="#425466" points="189,-60.43 192.23,-52.59 184.81,-56.71 189,-60.43"/>
</g>
<!-- hit -->
<g id="node6" class="node">
<title>hit</title>
<path fill="#fff3cd" stroke="#425466" d="M278.44,-968.8C278.44,-968.8 203.32,-955.11 203.32,-955.11 197.41,-954.03 197.41,-951.88 203.32,-950.8 203.32,-950.8 278.44,-937.11 278.44,-937.11 284.35,-936.03 296.15,-936.03 302.06,-937.11 302.06,-937.11 377.18,-950.8 377.18,-950.8 383.09,-951.88 383.09,-954.03 377.18,-955.11 377.18,-955.11 302.06,-968.8 302.06,-968.8 296.15,-969.88 284.35,-969.88 278.44,-968.8"/>
<text xml:space="preserve" text-anchor="middle" x="290.25" y="-949.25" font-family="Noto Sans KR" font-size="11.00">Exact cache&#45;key hit?</text>
</g>
<!-- key&#45;&gt;hit -->
<g id="edge6" class="edge">
<title>key&#45;&gt;hit</title>
<path fill="none" stroke="#425466" d="M289.44,-1052.63C289.61,-1032.03 289.86,-1002.13 290.03,-980.65"/>
<polygon fill="#425466" stroke="#425466" points="292.83,-980.68 290.1,-972.66 287.23,-980.64 292.83,-980.68"/>
</g>
<!-- cache -->
<g id="node7" class="node">
<title>cache</title>
<path fill="#f1f8e9" stroke="#425466" d="M285,-817.2C285,-817.2 171.5,-817.2 171.5,-817.2 165.5,-817.2 159.5,-811.2 159.5,-805.2 159.5,-805.2 159.5,-793.2 159.5,-793.2 159.5,-787.2 165.5,-781.2 171.5,-781.2 171.5,-781.2 285,-781.2 285,-781.2 291,-781.2 297,-787.2 297,-793.2 297,-793.2 297,-805.2 297,-805.2 297,-811.2 291,-817.2 285,-817.2"/>
<text xml:space="preserve" text-anchor="middle" x="228.25" y="-795.5" font-family="Noto Sans KR" font-size="11.00">Return cached StatScalar</text>
</g>
<!-- hit&#45;&gt;cache -->
<g id="edge7" class="edge">
<title>hit&#45;&gt;cache</title>
<path fill="none" stroke="#425466" d="M283.61,-935.71C272.87,-909.41 251.57,-857.27 238.75,-825.89"/>
<polygon fill="#425466" stroke="#425466" points="241.41,-825 235.79,-818.65 236.22,-827.12 241.41,-825"/>
<text xml:space="preserve" text-anchor="middle" x="280.51" y="-902.45" font-family="Noto Sans KR" font-size="10.00">Yes</text>
</g>
<!-- order -->
<g id="node8" class="node">
<title>order</title>
<path fill="#fffde7" stroke="#425466" d="M475.5,-876.2C475.5,-876.2 311,-876.2 311,-876.2 305,-876.2 299,-870.2 299,-864.2 299,-864.2 299,-852.2 299,-852.2 299,-846.2 305,-840.2 311,-840.2 311,-840.2 475.5,-840.2 475.5,-840.2 481.5,-840.2 487.5,-846.2 487.5,-852.2 487.5,-852.2 487.5,-864.2 487.5,-864.2 487.5,-870.2 481.5,-876.2 475.5,-876.2"/>
<text xml:space="preserve" text-anchor="middle" x="393.25" y="-861.25" font-family="Noto Sans KR" font-size="11.00">Get dependency closure in</text>
<text xml:space="preserve" text-anchor="middle" x="393.25" y="-847.75" font-family="Noto Sans KR" font-size="11.00">dependency&#45;first topological order</text>
</g>
<!-- hit&#45;&gt;order -->
<g id="edge9" class="edge">
<title>hit&#45;&gt;order</title>
<path fill="none" stroke="#425466" d="M306.34,-937.46C322.6,-922.82 347.98,-899.97 367.12,-882.74"/>
<polygon fill="#425466" stroke="#425466" points="368.92,-884.88 372.99,-877.45 365.17,-880.72 368.92,-884.88"/>
<text xml:space="preserve" text-anchor="middle" x="354.29" y="-902.45" font-family="Noto Sans KR" font-size="10.00">No</text>
</g>
<!-- cache&#45;&gt;end -->
<g id="edge8" class="edge">
<title>cache&#45;&gt;end</title>
<path fill="none" stroke="#425466" d="M225.46,-780.96C220.88,-752.6 212.25,-699.2 212.25,-699.2 212.25,-699.2 212.25,-699.2 212.25,-122.2 212.25,-122.2 212.25,-93.38 212.25,-67.99"/>
<polygon fill="#425466" stroke="#425466" points="215.05,-68 212.25,-60 209.45,-68 215.05,-68"/>
</g>
<!-- next -->
<g id="node9" class="node">
<title>next</title>
<path fill="#fffde7" stroke="#425466" d="M462.75,-758.2C462.75,-758.2 335.75,-758.2 335.75,-758.2 329.75,-758.2 323.75,-752.2 323.75,-746.2 323.75,-746.2 323.75,-734.2 323.75,-734.2 323.75,-728.2 329.75,-722.2 335.75,-722.2 335.75,-722.2 462.75,-722.2 462.75,-722.2 468.75,-722.2 474.75,-728.2 474.75,-734.2 474.75,-734.2 474.75,-746.2 474.75,-746.2 474.75,-752.2 468.75,-758.2 462.75,-758.2"/>
<text xml:space="preserve" text-anchor="middle" x="399.25" y="-736.5" font-family="Noto Sans KR" font-size="11.00">Next ordered stat definition</text>
</g>
<!-- order&#45;&gt;next -->
<g id="edge10" class="edge">
<title>order&#45;&gt;next</title>
<path fill="none" stroke="#425466" d="M394.15,-839.84C395.13,-820.87 396.71,-790.26 397.86,-768.17"/>
<polygon fill="#425466" stroke="#425466" points="400.65,-768.34 398.27,-760.2 395.06,-768.05 400.65,-768.34"/>
</g>
<!-- formula -->
<g id="node10" class="node">
<title>formula</title>
<path fill="#dff7e4" stroke="#425466" d="M508.88,-675.2C508.88,-675.2 289.62,-675.2 289.62,-675.2 283.62,-675.2 277.62,-669.2 277.62,-663.2 277.62,-663.2 277.62,-651.2 277.62,-651.2 277.62,-645.2 283.62,-639.2 289.62,-639.2 289.62,-639.2 508.88,-639.2 508.88,-639.2 514.88,-639.2 520.88,-645.2 520.88,-651.2 520.88,-651.2 520.88,-663.2 520.88,-663.2 520.88,-669.2 514.88,-675.2 508.88,-675.2"/>
<text xml:space="preserve" text-anchor="middle" x="399.25" y="-660.25" font-family="Noto Sans KR" font-size="11.00">Read already&#45;resolved declared dependencies</text>
<text xml:space="preserve" text-anchor="middle" x="399.25" y="-646.75" font-family="Noto Sans KR" font-size="11.00">Evaluate formula(base, dependencies, context)</text>
</g>
<!-- next&#45;&gt;formula -->
<g id="edge11" class="edge">
<title>next&#45;&gt;formula</title>
<path fill="none" stroke="#425466" d="M399.25,-722.03C399.25,-711.25 399.25,-697.14 399.25,-684.93"/>
<polygon fill="#425466" stroke="#425466" points="402.05,-685.15 399.25,-677.15 396.45,-685.15 402.05,-685.15"/>
</g>
<!-- filter -->
<g id="node11" class="node">
<title>filter</title>
<path fill="#dff7e4" stroke="#425466" d="M463.88,-592.2C463.88,-592.2 334.62,-592.2 334.62,-592.2 328.62,-592.2 322.62,-586.2 322.62,-580.2 322.62,-580.2 322.62,-568.2 322.62,-568.2 322.62,-562.2 328.62,-556.2 334.62,-556.2 334.62,-556.2 463.88,-556.2 463.88,-556.2 469.88,-556.2 475.88,-562.2 475.88,-568.2 475.88,-568.2 475.88,-580.2 475.88,-580.2 475.88,-586.2 469.88,-592.2 463.88,-592.2"/>
<text xml:space="preserve" text-anchor="middle" x="399.25" y="-577.25" font-family="Noto Sans KR" font-size="11.00">Filter local modifiers by</text>
<text xml:space="preserve" text-anchor="middle" x="399.25" y="-563.75" font-family="Noto Sans KR" font-size="11.00">Condition.Evaluate(context)</text>
</g>
<!-- formula&#45;&gt;filter -->
<g id="edge12" class="edge">
<title>formula&#45;&gt;filter</title>
<path fill="none" stroke="#425466" d="M399.25,-639.03C399.25,-628.25 399.25,-614.14 399.25,-601.93"/>
<polygon fill="#425466" stroke="#425466" points="402.05,-602.15 399.25,-594.15 396.45,-602.15 402.05,-602.15"/>
</g>
<!-- apply -->
<g id="node12" class="node">
<title>apply</title>
<path fill="#e0f7fa" stroke="#425466" d="M513.38,-497.45C513.38,-497.45 285.12,-497.45 285.12,-497.45 279.12,-497.45 273.12,-491.45 273.12,-485.45 273.12,-485.45 273.12,-460.95 273.12,-460.95 273.12,-454.95 279.12,-448.95 285.12,-448.95 285.12,-448.95 513.38,-448.95 513.38,-448.95 519.38,-448.95 525.38,-454.95 525.38,-460.95 525.38,-460.95 525.38,-485.45 525.38,-485.45 525.38,-491.45 519.38,-497.45 513.38,-497.45"/>
<text xml:space="preserve" text-anchor="middle" x="399.25" y="-483" font-family="Noto Sans KR" font-size="11.00">Apply local modifier phases</text>
<text xml:space="preserve" text-anchor="middle" x="399.25" y="-469.5" font-family="Noto Sans KR" font-size="11.00">Add &#45;&gt; PercentAdd &#45;&gt; More &#45;&gt; Less &#45;&gt; Override</text>
<text xml:space="preserve" text-anchor="middle" x="399.25" y="-456" font-family="Noto Sans KR" font-size="11.00">order: Operation &#45;&gt; Priority &#45;&gt; ModifierId Ordinal</text>
</g>
<!-- filter&#45;&gt;apply -->
<g id="edge13" class="edge">
<title>filter&#45;&gt;apply</title>
<path fill="none" stroke="#425466" d="M399.25,-555.96C399.25,-542.53 399.25,-523.49 399.25,-507.16"/>
<polygon fill="#425466" stroke="#425466" points="402.05,-507.44 399.25,-499.44 396.45,-507.44 402.05,-507.44"/>
</g>
<!-- clamp -->
<g id="node13" class="node">
<title>clamp</title>
<path fill="#e0f7fa" stroke="#425466" d="M483.75,-401.95C483.75,-401.95 314.75,-401.95 314.75,-401.95 308.75,-401.95 302.75,-395.95 302.75,-389.95 302.75,-389.95 302.75,-377.95 302.75,-377.95 302.75,-371.95 308.75,-365.95 314.75,-365.95 314.75,-365.95 483.75,-365.95 483.75,-365.95 489.75,-365.95 495.75,-371.95 495.75,-377.95 495.75,-377.95 495.75,-389.95 495.75,-389.95 495.75,-395.95 489.75,-401.95 483.75,-401.95"/>
<text xml:space="preserve" text-anchor="middle" x="399.25" y="-387" font-family="Noto Sans KR" font-size="11.00">Clamp this stat to declared min/max</text>
<text xml:space="preserve" text-anchor="middle" x="399.25" y="-373.5" font-family="Noto Sans KR" font-size="11.00">then add it to resolved values</text>
</g>
<!-- apply&#45;&gt;clamp -->
<g id="edge14" class="edge">
<title>apply&#45;&gt;clamp</title>
<path fill="none" stroke="#425466" d="M399.25,-448.82C399.25,-437.39 399.25,-423.57 399.25,-411.71"/>
<polygon fill="#425466" stroke="#425466" points="402.05,-411.82 399.25,-403.82 396.45,-411.82 402.05,-411.82"/>
</g>
<!-- more -->
<g id="node14" class="node">
<title>more</title>
<path fill="#fff3cd" stroke="#425466" d="M387.44,-316.84C387.44,-316.84 310.34,-303.07 310.34,-303.07 304.43,-302.01 304.43,-299.9 310.34,-298.84 310.34,-298.84 387.44,-285.07 387.44,-285.07 393.34,-284.01 405.16,-284.01 411.06,-285.07 411.06,-285.07 488.16,-298.84 488.16,-298.84 494.07,-299.9 494.07,-302.01 488.16,-303.07 488.16,-303.07 411.06,-316.84 411.06,-316.84 405.16,-317.9 393.34,-317.9 387.44,-316.84"/>
<text xml:space="preserve" text-anchor="middle" x="399.25" y="-297.25" font-family="Noto Sans KR" font-size="11.00">More required stats?</text>
</g>
<!-- clamp&#45;&gt;more -->
<g id="edge15" class="edge">
<title>clamp&#45;&gt;more</title>
<path fill="none" stroke="#425466" d="M399.25,-365.78C399.25,-355 399.25,-340.89 399.25,-328.68"/>
<polygon fill="#425466" stroke="#425466" points="402.05,-328.9 399.25,-320.9 396.45,-328.9 402.05,-328.9"/>
</g>
<!-- more&#45;&gt;next -->
<g id="edge16" class="edge">
<title>more&#45;&gt;next</title>
<path fill="none" stroke="#425466" d="M427.65,-314.26C479.96,-336.92 586.25,-382.95 586.25,-382.95 586.25,-658.2 586.25,-658.2 586.25,-658.2 586.25,-658.2 503.41,-694.09 448.01,-718.09"/>
<polygon fill="#425466" stroke="#425466" points="446.98,-715.48 440.76,-721.23 449.21,-720.62 446.98,-715.48"/>
<text xml:space="preserve" text-anchor="middle" x="593.38" y="-523.7" font-family="Noto Sans KR" font-size="10.00">Yes</text>
</g>
<!-- store -->
<g id="node15" class="node">
<title>store</title>
<path fill="#f3e5f5" stroke="#425466" d="M464.12,-224.2C464.12,-224.2 330.38,-224.2 330.38,-224.2 324.38,-224.2 318.38,-218.2 318.38,-212.2 318.38,-212.2 318.38,-200.2 318.38,-200.2 318.38,-194.2 324.38,-188.2 330.38,-188.2 330.38,-188.2 464.12,-188.2 464.12,-188.2 470.12,-188.2 476.12,-194.2 476.12,-200.2 476.12,-200.2 476.12,-212.2 476.12,-212.2 476.12,-218.2 470.12,-224.2 464.12,-224.2"/>
<text xml:space="preserve" text-anchor="middle" x="397.25" y="-209.25" font-family="Noto Sans KR" font-size="11.00">Store requested StatScalar</text>
<text xml:space="preserve" text-anchor="middle" x="397.25" y="-195.75" font-family="Noto Sans KR" font-size="11.00">under the full correctness key</text>
</g>
<!-- more&#45;&gt;store -->
<g id="edge17" class="edge">
<title>more&#45;&gt;store</title>
<path fill="none" stroke="#425466" d="M398.88,-282.94C398.59,-269.17 398.16,-249.53 397.82,-233.7"/>
<polygon fill="#425466" stroke="#425466" points="400.63,-233.87 397.65,-225.94 395.03,-233.99 400.63,-233.87"/>
<text xml:space="preserve" text-anchor="middle" x="404.74" y="-250.45" font-family="Noto Sans KR" font-size="10.00">No</text>
</g>
<!-- return -->
<g id="node16" class="node">
<title>return</title>
<path fill="#f1f8e9" stroke="#425466" d="M492,-141.2C492,-141.2 288.5,-141.2 288.5,-141.2 282.5,-141.2 276.5,-135.2 276.5,-129.2 276.5,-129.2 276.5,-117.2 276.5,-117.2 276.5,-111.2 282.5,-105.2 288.5,-105.2 288.5,-105.2 492,-105.2 492,-105.2 498,-105.2 504,-111.2 504,-117.2 504,-117.2 504,-129.2 504,-129.2 504,-135.2 498,-141.2 492,-141.2"/>
<text xml:space="preserve" text-anchor="middle" x="390.25" y="-119.5" font-family="Noto Sans KR" font-size="11.00">Return requested StatScalar.Value (decimal)</text>
</g>
<!-- store&#45;&gt;return -->
<g id="edge18" class="edge">
<title>store&#45;&gt;return</title>
<path fill="none" stroke="#425466" d="M395.77,-188.03C394.83,-177.25 393.61,-163.14 392.56,-150.93"/>
<polygon fill="#425466" stroke="#425466" points="395.37,-150.87 391.89,-143.15 389.79,-151.36 395.37,-150.87"/>
</g>
<!-- return&#45;&gt;end -->
<g id="edge19" class="edge">
<title>return&#45;&gt;end</title>
<path fill="none" stroke="#425466" d="M356.77,-104.88C325.15,-88.52 277.97,-64.11 246.2,-47.67"/>
<polygon fill="#425466" stroke="#425466" points="247.81,-45.35 239.42,-44.16 245.24,-50.32 247.81,-45.35"/>
</g>
</g>
</svg>
