<?xml version="1.0" encoding="UTF-8" standalone="no"?>
<!DOCTYPE svg PUBLIC "-//W3C//DTD SVG 1.1//EN"
 "http://www.w3.org/Graphics/SVG/1.1/DTD/svg11.dtd">
<!-- Generated by graphviz version 2.42.4 (0)
 -->
<!-- Title: ActivityDiagram Pages: 1 -->
<svg width="507pt" height="1122pt"
 viewBox="0.00 0.00 506.50 1122.31" xmlns="http://www.w3.org/2000/svg" xmlns:xlink="http://www.w3.org/1999/xlink">
<g id="graph0" class="graph" transform="scale(1 1) rotate(0) translate(4 1118.31)">
<title>ActivityDiagram</title>
<polygon fill="white" stroke="transparent" points="-4,4 -4,-1118.31 502.5,-1118.31 502.5,4 -4,4"/>
<text text-anchor="middle" x="249.25" y="-1095.91" font-family="Noto Sans CJK KR" font-size="18.00">UML Activity Diagram &#45; GetFinalValue(statId, context)</text>
<!-- start -->
<g id="node1" class="node">
<title>start</title>
<ellipse fill="#111827" stroke="#425466" cx="104.5" cy="-1057.32" rx="28.98" ry="28.98"/>
<text text-anchor="middle" x="104.5" y="-1054.52" font-family="Noto Sans CJK KR" font-size="11.00" fill="white">Start</text>
</g>
<!-- query -->
<g id="node2" class="node">
<title>query</title>
<path fill="#e8f0fe" stroke="#425466" d="M189,-987.33C189,-987.33 20,-987.33 20,-987.33 14,-987.33 8,-981.33 8,-975.33 8,-975.33 8,-963.33 8,-963.33 8,-957.33 14,-951.33 20,-951.33 20,-951.33 189,-951.33 189,-951.33 195,-951.33 201,-957.33 201,-963.33 201,-963.33 201,-975.33 201,-975.33 201,-981.33 195,-987.33 189,-987.33"/>
<text text-anchor="middle" x="104.5" y="-966.53" font-family="Noto Sans CJK KR" font-size="11.00">StatBlock.getValue(statId, context)</text>
</g>
<!-- start&#45;&gt;query -->
<g id="edge1" class="edge">
<title>start&#45;&gt;query</title>
<path fill="none" stroke="#425466" d="M104.5,-1028.02C104.5,-1028.02 104.5,-995.48 104.5,-995.48"/>
<polygon fill="#425466" stroke="#425466" points="107.3,-995.48 104.5,-987.48 101.7,-995.48 107.3,-995.48"/>
</g>
<!-- exists -->
<g id="node3" class="node">
<title>exists</title>
<path fill="#fff3cd" stroke="#425466" d="M92.69,-908.18C92.69,-908.18 17.51,-894.48 17.51,-894.48 11.61,-893.4 11.61,-891.25 17.51,-890.18 17.51,-890.18 92.69,-876.48 92.69,-876.48 98.6,-875.4 110.4,-875.4 116.31,-876.48 116.31,-876.48 191.49,-890.18 191.49,-890.18 197.39,-891.25 197.39,-893.4 191.49,-894.48 191.49,-894.48 116.31,-908.18 116.31,-908.18 110.4,-909.25 98.6,-909.25 92.69,-908.18"/>
<text text-anchor="middle" x="104.5" y="-889.53" font-family="Noto Sans CJK KR" font-size="11.00">StatInstance exists?</text>
</g>
<!-- query&#45;&gt;exists -->
<g id="edge2" class="edge">
<title>query&#45;&gt;exists</title>
<path fill="none" stroke="#425466" d="M104.5,-951.08C104.5,-951.08 104.5,-918.44 104.5,-918.44"/>
<polygon fill="#425466" stroke="#425466" points="107.3,-918.44 104.5,-910.44 101.7,-918.44 107.3,-918.44"/>
</g>
<!-- default -->
<g id="node4" class="node">
<title>default</title>
<path fill="#fce8e6" stroke="#425466" d="M147,-767.33C147,-767.33 12,-767.33 12,-767.33 6,-767.33 0,-761.33 0,-755.33 0,-755.33 0,-743.33 0,-743.33 0,-737.33 6,-731.33 12,-731.33 12,-731.33 147,-731.33 147,-731.33 153,-731.33 159,-737.33 159,-743.33 159,-743.33 159,-755.33 159,-755.33 159,-761.33 153,-767.33 147,-767.33"/>
<text text-anchor="middle" x="79.5" y="-746.53" font-family="Noto Sans CJK KR" font-size="11.00">Return default / error policy</text>
</g>
<!-- exists&#45;&gt;default -->
<g id="edge3" class="edge">
<title>exists&#45;&gt;default</title>
<path fill="none" stroke="#425466" d="M67.29,-881.1C67.29,-881.1 67.29,-775.52 67.29,-775.52"/>
<polygon fill="#425466" stroke="#425466" points="70.09,-775.52 67.29,-767.52 64.49,-775.52 70.09,-775.52"/>
<text text-anchor="middle" x="86.5" y="-846.33" font-family="Noto Sans CJK KR" font-size="10.00">No</text>
</g>
<!-- dirty -->
<g id="node5" class="node">
<title>dirty</title>
<path fill="#fff3cd" stroke="#425466" d="M271.58,-821.94C271.58,-821.94 140.87,-806.71 140.87,-806.71 134.91,-806.02 134.91,-804.63 140.87,-803.94 140.87,-803.94 271.58,-788.71 271.58,-788.71 277.54,-788.02 289.46,-788.02 295.42,-788.71 295.42,-788.71 426.13,-803.94 426.13,-803.94 432.09,-804.63 432.09,-806.02 426.13,-806.71 426.13,-806.71 295.42,-821.94 295.42,-821.94 289.46,-822.63 277.54,-822.63 271.58,-821.94"/>
<text text-anchor="middle" x="283.5" y="-802.53" font-family="Noto Sans CJK KR" font-size="11.00">Cache dirty or context&#45;sensitive?</text>
</g>
<!-- exists&#45;&gt;dirty -->
<g id="edge5" class="edge">
<title>exists&#45;&gt;dirty</title>
<path fill="none" stroke="#425466" d="M165.94,-885.5C165.94,-885.5 165.94,-817.71 165.94,-817.71"/>
<polygon fill="#425466" stroke="#425466" points="168.74,-817.71 165.94,-809.71 163.14,-817.71 168.74,-817.71"/>
<text text-anchor="middle" x="214" y="-846.33" font-family="Noto Sans CJK KR" font-size="10.00">Yes</text>
</g>
<!-- end -->
<g id="node15" class="node">
<title>end</title>
<ellipse fill="#111827" stroke="#425466" cx="145.5" cy="-30.16" rx="26.31" ry="26.31"/>
<ellipse fill="none" stroke="#425466" cx="145.5" cy="-30.16" rx="30.33" ry="30.33"/>
<text text-anchor="middle" x="145.5" y="-27.36" font-family="Noto Sans CJK KR" font-size="11.00" fill="white">End</text>
</g>
<!-- default&#45;&gt;end -->
<g id="edge4" class="edge">
<title>default&#45;&gt;end</title>
<path fill="none" stroke="#425466" d="M119.67,-731.19C119.67,-731.19 119.67,-54.03 119.67,-54.03"/>
<polygon fill="#425466" stroke="#425466" points="122.47,-54.03 119.67,-46.03 116.87,-54.03 122.47,-54.03"/>
</g>
<!-- cache -->
<g id="node6" class="node">
<title>cache</title>
<path fill="#f1f8e9" stroke="#425466" d="M231,-655.33C231,-655.33 136,-655.33 136,-655.33 130,-655.33 124,-649.33 124,-643.33 124,-643.33 124,-631.33 124,-631.33 124,-625.33 130,-619.33 136,-619.33 136,-619.33 231,-619.33 231,-619.33 237,-619.33 243,-625.33 243,-631.33 243,-631.33 243,-643.33 243,-643.33 243,-649.33 237,-655.33 231,-655.33"/>
<text text-anchor="middle" x="183.5" y="-634.53" font-family="Noto Sans CJK KR" font-size="11.00">Return cached value</text>
</g>
<!-- dirty&#45;&gt;cache -->
<g id="edge6" class="edge">
<title>dirty&#45;&gt;cache</title>
<path fill="none" stroke="#425466" d="M201,-796.76C201,-796.76 201,-663.45 201,-663.45"/>
<polygon fill="#425466" stroke="#425466" points="203.8,-663.45 201,-655.45 198.2,-663.45 203.8,-663.45"/>
<text text-anchor="middle" x="213.5" y="-746.83" font-family="Noto Sans CJK KR" font-size="10.00">No</text>
</g>
<!-- collect -->
<g id="node7" class="node">
<title>collect</title>
<path fill="#dff7e4" stroke="#425466" d="M407,-711.33C407,-711.33 274,-711.33 274,-711.33 268,-711.33 262,-705.33 262,-699.33 262,-699.33 262,-687.33 262,-687.33 262,-681.33 268,-675.33 274,-675.33 274,-675.33 407,-675.33 407,-675.33 413,-675.33 419,-681.33 419,-687.33 419,-687.33 419,-699.33 419,-699.33 419,-705.33 413,-711.33 407,-711.33"/>
<text text-anchor="middle" x="340.5" y="-696.53" font-family="Noto Sans CJK KR" font-size="11.00">Collect active modifiers</text>
<text text-anchor="middle" x="340.5" y="-684.53" font-family="Noto Sans CJK KR" font-size="11.00">+ remove expired modifiers</text>
</g>
<!-- dirty&#45;&gt;collect -->
<g id="edge8" class="edge">
<title>dirty&#45;&gt;collect</title>
<path fill="none" stroke="#425466" d="M340.5,-793.76C340.5,-793.76 340.5,-719.65 340.5,-719.65"/>
<polygon fill="#425466" stroke="#425466" points="343.3,-719.65 340.5,-711.65 337.7,-719.65 343.3,-719.65"/>
<text text-anchor="middle" x="319" y="-746.83" font-family="Noto Sans CJK KR" font-size="10.00">Yes</text>
</g>
<!-- cache&#45;&gt;end -->
<g id="edge7" class="edge">
<title>cache&#45;&gt;end</title>
<path fill="none" stroke="#425466" d="M141.22,-619.15C141.22,-619.15 141.22,-68.3 141.22,-68.3"/>
<polygon fill="#425466" stroke="#425466" points="144.02,-68.3 141.22,-60.3 138.42,-68.3 144.02,-68.3"/>
</g>
<!-- filter -->
<g id="node8" class="node">
<title>filter</title>
<path fill="#dff7e4" stroke="#425466" d="M410,-599.33C410,-599.33 279,-599.33 279,-599.33 273,-599.33 267,-593.33 267,-587.33 267,-587.33 267,-575.33 267,-575.33 267,-569.33 273,-563.33 279,-563.33 279,-563.33 410,-563.33 410,-563.33 416,-563.33 422,-569.33 422,-575.33 422,-575.33 422,-587.33 422,-587.33 422,-593.33 416,-599.33 410,-599.33"/>
<text text-anchor="middle" x="344.5" y="-578.53" font-family="Noto Sans CJK KR" font-size="11.00">Filter by condition(context)</text>
</g>
<!-- collect&#45;&gt;filter -->
<g id="edge9" class="edge">
<title>collect&#45;&gt;filter</title>
<path fill="none" stroke="#425466" d="M343,-674.83C343,-674.83 343,-607.48 343,-607.48"/>
<polygon fill="#425466" stroke="#425466" points="345.8,-607.48 343,-599.48 340.2,-607.48 345.8,-607.48"/>
</g>
<!-- sort -->
<g id="node9" class="node">
<title>sort</title>
<path fill="#e0f7fa" stroke="#425466" d="M427,-522.33C427,-522.33 264,-522.33 264,-522.33 258,-522.33 252,-516.33 252,-510.33 252,-510.33 252,-498.33 252,-498.33 252,-492.33 258,-486.33 264,-486.33 264,-486.33 427,-486.33 427,-486.33 433,-486.33 439,-492.33 439,-498.33 439,-498.33 439,-510.33 439,-510.33 439,-516.33 433,-522.33 427,-522.33"/>
<text text-anchor="middle" x="345.5" y="-501.53" font-family="Noto Sans CJK KR" font-size="11.00">Sort by phase, operation, priority</text>
</g>
<!-- filter&#45;&gt;sort -->
<g id="edge10" class="edge">
<title>filter&#45;&gt;sort</title>
<path fill="none" stroke="#425466" d="M344.5,-563.08C344.5,-563.08 344.5,-530.44 344.5,-530.44"/>
<polygon fill="#425466" stroke="#425466" points="347.3,-530.44 344.5,-522.44 341.7,-530.44 347.3,-530.44"/>
</g>
<!-- apply -->
<g id="node10" class="node">
<title>apply</title>
<path fill="#e0f7fa" stroke="#425466" d="M486.5,-445.33C486.5,-445.33 206.5,-445.33 206.5,-445.33 200.5,-445.33 194.5,-439.33 194.5,-433.33 194.5,-433.33 194.5,-421.33 194.5,-421.33 194.5,-415.33 200.5,-409.33 206.5,-409.33 206.5,-409.33 486.5,-409.33 486.5,-409.33 492.5,-409.33 498.5,-415.33 498.5,-421.33 498.5,-421.33 498.5,-433.33 498.5,-433.33 498.5,-439.33 492.5,-445.33 486.5,-445.33"/>
<text text-anchor="middle" x="346.5" y="-430.53" font-family="Noto Sans CJK KR" font-size="11.00">Apply calculation phases</text>
<text text-anchor="middle" x="346.5" y="-418.53" font-family="Noto Sans CJK KR" font-size="11.00">Base &#45;&gt; Add &#45;&gt; Percent &#45;&gt; More/Less &#45;&gt; Override &#45;&gt; Clamp</text>
</g>
<!-- sort&#45;&gt;apply -->
<g id="edge11" class="edge">
<title>sort&#45;&gt;apply</title>
<path fill="none" stroke="#425466" d="M345.5,-486.08C345.5,-486.08 345.5,-453.44 345.5,-453.44"/>
<polygon fill="#425466" stroke="#425466" points="348.3,-453.44 345.5,-445.44 342.7,-453.44 348.3,-453.44"/>
</g>
<!-- derived -->
<g id="node11" class="node">
<title>derived</title>
<path fill="#fffde7" stroke="#425466" d="M402,-368.33C402,-368.33 235,-368.33 235,-368.33 229,-368.33 223,-362.33 223,-356.33 223,-356.33 223,-344.33 223,-344.33 223,-338.33 229,-332.33 235,-332.33 235,-332.33 402,-332.33 402,-332.33 408,-332.33 414,-338.33 414,-344.33 414,-344.33 414,-356.33 414,-356.33 414,-362.33 408,-368.33 402,-368.33"/>
<text text-anchor="middle" x="318.5" y="-353.53" font-family="Noto Sans CJK KR" font-size="11.00">Evaluate derived dependencies</text>
<text text-anchor="middle" x="318.5" y="-341.53" font-family="Noto Sans CJK KR" font-size="11.00">when formula requires other stats</text>
</g>
<!-- apply&#45;&gt;derived -->
<g id="edge12" class="edge">
<title>apply&#45;&gt;derived</title>
<path fill="none" stroke="#425466" d="M318.5,-409.08C318.5,-409.08 318.5,-376.44 318.5,-376.44"/>
<polygon fill="#425466" stroke="#425466" points="321.3,-376.44 318.5,-368.44 315.7,-376.44 321.3,-376.44"/>
</g>
<!-- breakdown -->
<g id="node12" class="node">
<title>breakdown</title>
<path fill="#f3e5f5" stroke="#425466" d="M349,-291.33C349,-291.33 234,-291.33 234,-291.33 228,-291.33 222,-285.33 222,-279.33 222,-279.33 222,-267.33 222,-267.33 222,-261.33 228,-255.33 234,-255.33 234,-255.33 349,-255.33 349,-255.33 355,-255.33 361,-261.33 361,-267.33 361,-267.33 361,-279.33 361,-279.33 361,-285.33 355,-291.33 349,-291.33"/>
<text text-anchor="middle" x="291.5" y="-276.53" font-family="Noto Sans CJK KR" font-size="11.00">Build debug breakdown</text>
<text text-anchor="middle" x="291.5" y="-264.53" font-family="Noto Sans CJK KR" font-size="11.00">and update cache</text>
</g>
<!-- derived&#45;&gt;breakdown -->
<g id="edge13" class="edge">
<title>derived&#45;&gt;breakdown</title>
<path fill="none" stroke="#425466" d="M292,-332.08C292,-332.08 292,-299.44 292,-299.44"/>
<polygon fill="#425466" stroke="#425466" points="294.8,-299.44 292,-291.44 289.2,-299.44 294.8,-299.44"/>
</g>
<!-- publish -->
<g id="node13" class="node">
<title>publish</title>
<path fill="#e0f7fa" stroke="#425466" d="M334,-214.33C334,-214.33 221,-214.33 221,-214.33 215,-214.33 209,-208.33 209,-202.33 209,-202.33 209,-190.33 209,-190.33 209,-184.33 215,-178.33 221,-178.33 221,-178.33 334,-178.33 334,-178.33 340,-178.33 346,-184.33 346,-190.33 346,-190.33 346,-202.33 346,-202.33 346,-208.33 340,-214.33 334,-214.33"/>
<text text-anchor="middle" x="277.5" y="-199.53" font-family="Noto Sans CJK KR" font-size="11.00">Publish OnStatChanged</text>
<text text-anchor="middle" x="277.5" y="-187.53" font-family="Noto Sans CJK KR" font-size="11.00">when value changed</text>
</g>
<!-- breakdown&#45;&gt;publish -->
<g id="edge14" class="edge">
<title>breakdown&#45;&gt;publish</title>
<path fill="none" stroke="#425466" d="M284,-255.08C284,-255.08 284,-222.44 284,-222.44"/>
<polygon fill="#425466" stroke="#425466" points="286.8,-222.44 284,-214.44 281.2,-222.44 286.8,-222.44"/>
</g>
<!-- return -->
<g id="node14" class="node">
<title>return</title>
<path fill="#f1f8e9" stroke="#425466" d="M300.5,-137.33C300.5,-137.33 222.5,-137.33 222.5,-137.33 216.5,-137.33 210.5,-131.33 210.5,-125.33 210.5,-125.33 210.5,-113.33 210.5,-113.33 210.5,-107.33 216.5,-101.33 222.5,-101.33 222.5,-101.33 300.5,-101.33 300.5,-101.33 306.5,-101.33 312.5,-107.33 312.5,-113.33 312.5,-113.33 312.5,-125.33 312.5,-125.33 312.5,-131.33 306.5,-137.33 300.5,-137.33"/>
<text text-anchor="middle" x="261.5" y="-116.53" font-family="Noto Sans CJK KR" font-size="11.00">Return StatValue</text>
</g>
<!-- publish&#45;&gt;return -->
<g id="edge15" class="edge">
<title>publish&#45;&gt;return</title>
<path fill="none" stroke="#425466" d="M261.5,-178.08C261.5,-178.08 261.5,-145.44 261.5,-145.44"/>
<polygon fill="#425466" stroke="#425466" points="264.3,-145.44 261.5,-137.44 258.7,-145.44 264.3,-145.44"/>
</g>
<!-- return&#45;&gt;end -->
<g id="edge16" class="edge">
<title>return&#45;&gt;end</title>
<path fill="none" stroke="#425466" d="M210.27,-119C184.41,-119 158.44,-119 158.44,-119 158.44,-119 158.44,-65.78 158.44,-65.78"/>
<polygon fill="#425466" stroke="#425466" points="161.24,-65.78 158.44,-57.78 155.64,-65.78 161.24,-65.78"/>
</g>
</g>
</svg>
