<?xml version="1.0" encoding="UTF-8" standalone="no"?>
<!DOCTYPE svg PUBLIC "-//W3C//DTD SVG 1.1//EN"
 "http://www.w3.org/Graphics/SVG/1.1/DTD/svg11.dtd">
<!-- Generated by graphviz version 2.42.4 (0)
 -->
<!-- Title: ModifierStateDiagram Pages: 1 -->
<svg width="1007pt" height="505pt"
 viewBox="0.00 0.00 1007.31 505.00" xmlns="http://www.w3.org/2000/svg" xmlns:xlink="http://www.w3.org/1999/xlink">
<g id="graph0" class="graph" transform="scale(1 1) rotate(0) translate(4 501)">
<title>ModifierStateDiagram</title>
<polygon fill="white" stroke="transparent" points="-4,4 -4,-501 1003.31,-501 1003.31,4 -4,4"/>
<text text-anchor="middle" x="499.65" y="-478.6" font-family="Noto Sans CJK KR" font-size="18.00">UML State Diagram &#45; StatModifier Lifecycle</text>
<!-- created -->
<g id="node1" class="node">
<title>created</title>
<path fill="#fff3cd" stroke="#425466" d="M85,-51C85,-51 12,-51 12,-51 6,-51 0,-45 0,-39 0,-39 0,-27 0,-27 0,-21 6,-15 12,-15 12,-15 85,-15 85,-15 91,-15 97,-21 97,-27 97,-27 97,-39 97,-39 97,-45 91,-51 85,-51"/>
<text text-anchor="middle" x="48.5" y="-36.2" font-family="Noto Sans CJK KR" font-size="11.00">Created</text>
<text text-anchor="middle" x="48.5" y="-24.2" font-family="Noto Sans CJK KR" font-size="11.00">데이터에서 생성됨</text>
</g>
<!-- pending -->
<g id="node2" class="node">
<title>pending</title>
<path fill="#e8f0fe" stroke="#425466" d="M310,-51C310,-51 230,-51 230,-51 224,-51 218,-45 218,-39 218,-39 218,-27 218,-27 218,-21 224,-15 230,-15 230,-15 310,-15 310,-15 316,-15 322,-21 322,-27 322,-27 322,-39 322,-39 322,-45 316,-51 310,-51"/>
<text text-anchor="middle" x="270" y="-36.2" font-family="Noto Sans CJK KR" font-size="11.00">Pending</text>
<text text-anchor="middle" x="270" y="-24.2" font-family="Noto Sans CJK KR" font-size="11.00">조건/대상 검증 대기</text>
</g>
<!-- created&#45;&gt;pending -->
<g id="edge1" class="edge">
<title>created&#45;&gt;pending</title>
<path fill="none" stroke="#425466" d="M97.11,-33C97.11,-33 209.64,-33 209.64,-33"/>
<polygon fill="#425466" stroke="#425466" points="209.64,-35.8 217.64,-33 209.64,-30.2 209.64,-35.8"/>
<text text-anchor="middle" x="157.5" y="-36" font-family="Noto Sans CJK KR" font-size="10.00">attach(owner)</text>
</g>
<!-- active -->
<g id="node3" class="node">
<title>active</title>
<path fill="#dff7e4" stroke="#425466" d="M582,-252C582,-252 517,-252 517,-252 511,-252 505,-246 505,-240 505,-240 505,-228 505,-228 505,-222 511,-216 517,-216 517,-216 582,-216 582,-216 588,-216 594,-222 594,-228 594,-228 594,-240 594,-240 594,-246 588,-252 582,-252"/>
<text text-anchor="middle" x="549.5" y="-237.2" font-family="Noto Sans CJK KR" font-size="11.00">Active</text>
<text text-anchor="middle" x="549.5" y="-225.2" font-family="Noto Sans CJK KR" font-size="11.00">계산 대상에 포함</text>
</g>
<!-- pending&#45;&gt;active -->
<g id="edge2" class="edge">
<title>pending&#45;&gt;active</title>
<path fill="none" stroke="#425466" d="M322.07,-43.33C397.26,-43.33 527.31,-43.33 527.31,-43.33 527.31,-43.33 527.31,-207.72 527.31,-207.72"/>
<polygon fill="#425466" stroke="#425466" points="524.51,-207.72 527.31,-215.72 530.11,-207.72 524.51,-207.72"/>
<text text-anchor="middle" x="413.5" y="-153" font-family="Noto Sans CJK KR" font-size="10.00">valid target + condition true</text>
</g>
<!-- removed -->
<g id="node7" class="node">
<title>removed</title>
<path fill="#fce8e6" stroke="#425466" d="M875,-64C875,-64 780,-64 780,-64 774,-64 768,-58 768,-52 768,-52 768,-40 768,-40 768,-34 774,-28 780,-28 780,-28 875,-28 875,-28 881,-28 887,-34 887,-40 887,-40 887,-52 887,-52 887,-58 881,-64 875,-64"/>
<text text-anchor="middle" x="827.5" y="-49.2" font-family="Noto Sans CJK KR" font-size="11.00">Removed</text>
<text text-anchor="middle" x="827.5" y="-37.2" font-family="Noto Sans CJK KR" font-size="11.00">source 제거/장비 해제</text>
</g>
<!-- pending&#45;&gt;removed -->
<g id="edge3" class="edge">
<title>pending&#45;&gt;removed</title>
<path fill="none" stroke="#425466" d="M322.2,-35.67C322.2,-35.67 759.61,-35.67 759.61,-35.67"/>
<polygon fill="#425466" stroke="#425466" points="759.61,-38.47 767.61,-35.67 759.61,-32.87 759.61,-38.47"/>
<text text-anchor="middle" x="549.5" y="-3" font-family="Noto Sans CJK KR" font-size="10.00">invalid target</text>
</g>
<!-- suspended -->
<g id="node4" class="node">
<title>suspended</title>
<path fill="#f3e5f5" stroke="#425466" d="M866.5,-438C866.5,-438 788.5,-438 788.5,-438 782.5,-438 776.5,-432 776.5,-426 776.5,-426 776.5,-414 776.5,-414 776.5,-408 782.5,-402 788.5,-402 788.5,-402 866.5,-402 866.5,-402 872.5,-402 878.5,-408 878.5,-414 878.5,-414 878.5,-426 878.5,-426 878.5,-432 872.5,-438 866.5,-438"/>
<text text-anchor="middle" x="827.5" y="-423.2" font-family="Noto Sans CJK KR" font-size="11.00">Suspended</text>
<text text-anchor="middle" x="827.5" y="-411.2" font-family="Noto Sans CJK KR" font-size="11.00">조건 불충족, 보존됨</text>
</g>
<!-- active&#45;&gt;suspended -->
<g id="edge4" class="edge">
<title>active&#45;&gt;suspended</title>
<path fill="none" stroke="#425466" d="M535.31,-252.06C535.31,-299.86 535.31,-426 535.31,-426 535.31,-426 768.27,-426 768.27,-426"/>
<polygon fill="#425466" stroke="#425466" points="768.27,-428.8 776.27,-426 768.27,-423.2 768.27,-428.8"/>
<text text-anchor="middle" x="681" y="-461" font-family="Noto Sans CJK KR" font-size="10.00">condition false</text>
</g>
<!-- stacked -->
<g id="node5" class="node">
<title>stacked</title>
<path fill="#e0f7fa" stroke="#425466" d="M874,-234C874,-234 781,-234 781,-234 775,-234 769,-228 769,-222 769,-222 769,-210 769,-210 769,-204 775,-198 781,-198 781,-198 874,-198 874,-198 880,-198 886,-204 886,-210 886,-210 886,-222 886,-222 886,-228 880,-234 874,-234"/>
<text text-anchor="middle" x="827.5" y="-219.2" font-family="Noto Sans CJK KR" font-size="11.00">Stacked / Refreshed</text>
<text text-anchor="middle" x="827.5" y="-207.2" font-family="Noto Sans CJK KR" font-size="11.00">중첩 규칙 적용</text>
</g>
<!-- active&#45;&gt;stacked -->
<g id="edge6" class="edge">
<title>active&#45;&gt;stacked</title>
<path fill="none" stroke="#425466" d="M594.17,-222C594.17,-222 760.91,-222 760.91,-222"/>
<polygon fill="#425466" stroke="#425466" points="760.91,-224.8 768.91,-222 760.91,-219.2 760.91,-224.8"/>
<text text-anchor="middle" x="681" y="-237" font-family="Noto Sans CJK KR" font-size="10.00">same source/id reapplied</text>
</g>
<!-- expired -->
<g id="node6" class="node">
<title>expired</title>
<path fill="#fce8e6" stroke="#425466" d="M856.5,-140C856.5,-140 798.5,-140 798.5,-140 792.5,-140 786.5,-134 786.5,-128 786.5,-128 786.5,-116 786.5,-116 786.5,-110 792.5,-104 798.5,-104 798.5,-104 856.5,-104 856.5,-104 862.5,-104 868.5,-110 868.5,-116 868.5,-116 868.5,-128 868.5,-128 868.5,-134 862.5,-140 856.5,-140"/>
<text text-anchor="middle" x="827.5" y="-125.2" font-family="Noto Sans CJK KR" font-size="11.00">Expired</text>
<text text-anchor="middle" x="827.5" y="-113.2" font-family="Noto Sans CJK KR" font-size="11.00">시간/횟수 종료</text>
</g>
<!-- active&#45;&gt;expired -->
<g id="edge8" class="edge">
<title>active&#45;&gt;expired</title>
<path fill="none" stroke="#425466" d="M572.31,-215.51C572.31,-183.69 572.31,-122 572.31,-122 572.31,-122 778.5,-122 778.5,-122"/>
<polygon fill="#425466" stroke="#425466" points="778.5,-124.8 786.5,-122 778.5,-119.2 778.5,-124.8"/>
<text text-anchor="middle" x="681" y="-125" font-family="Noto Sans CJK KR" font-size="10.00">duration &lt;= 0 or uses = 0</text>
</g>
<!-- active&#45;&gt;removed -->
<g id="edge9" class="edge">
<title>active&#45;&gt;removed</title>
<path fill="none" stroke="#425466" d="M550.31,-215.78C550.31,-170.68 550.31,-57.5 550.31,-57.5 550.31,-57.5 759.7,-57.5 759.7,-57.5"/>
<polygon fill="#425466" stroke="#425466" points="759.7,-60.3 767.7,-57.5 759.7,-54.7 759.7,-60.3"/>
<text text-anchor="middle" x="681" y="-69" font-family="Noto Sans CJK KR" font-size="10.00">removeBySource / dispel</text>
</g>
<!-- serialized -->
<g id="node8" class="node">
<title>serialized</title>
<path fill="#f1f8e9" stroke="#425466" d="M860,-345C860,-345 795,-345 795,-345 789,-345 783,-339 783,-333 783,-333 783,-321 783,-321 783,-315 789,-309 795,-309 795,-309 860,-309 860,-309 866,-309 872,-315 872,-321 872,-321 872,-333 872,-333 872,-339 866,-345 860,-345"/>
<text text-anchor="middle" x="827.5" y="-330.2" font-family="Noto Sans CJK KR" font-size="11.00">Serialized</text>
<text text-anchor="middle" x="827.5" y="-318.2" font-family="Noto Sans CJK KR" font-size="11.00">저장 가능한 상태</text>
</g>
<!-- active&#45;&gt;serialized -->
<g id="edge10" class="edge">
<title>active&#45;&gt;serialized</title>
<path fill="none" stroke="#425466" d="M594.25,-246C669.52,-246 813.31,-246 813.31,-246 813.31,-246 813.31,-300.62 813.31,-300.62"/>
<polygon fill="#425466" stroke="#425466" points="810.51,-300.62 813.31,-308.62 816.11,-300.62 810.51,-300.62"/>
<text text-anchor="middle" x="681" y="-293" font-family="Noto Sans CJK KR" font-size="10.00">save snapshot</text>
</g>
<!-- suspended&#45;&gt;active -->
<g id="edge5" class="edge">
<title>suspended&#45;&gt;active</title>
<path fill="none" stroke="#425466" d="M776.32,-414C700.02,-414 565.31,-414 565.31,-414 565.31,-414 565.31,-260.25 565.31,-260.25"/>
<polygon fill="#425466" stroke="#425466" points="568.11,-260.25 565.31,-252.25 562.51,-260.25 568.11,-260.25"/>
<text text-anchor="middle" x="681" y="-405" font-family="Noto Sans CJK KR" font-size="10.00">condition true</text>
</g>
<!-- stacked&#45;&gt;active -->
<g id="edge7" class="edge">
<title>stacked&#45;&gt;active</title>
<path fill="none" stroke="#425466" d="M768.88,-228C768.88,-228 602.33,-228 602.33,-228"/>
<polygon fill="#425466" stroke="#425466" points="602.33,-225.2 594.33,-228 602.33,-230.8 602.33,-225.2"/>
<text text-anchor="middle" x="681" y="-181" font-family="Noto Sans CJK KR" font-size="10.00">merge/refresh/recalculate</text>
</g>
<!-- final -->
<g id="node9" class="node">
<title>final</title>
<ellipse fill="#111827" stroke="#425466" cx="970.65" cy="-83" rx="24.79" ry="24.79"/>
<ellipse fill="none" stroke="#425466" cx="970.65" cy="-83" rx="28.81" ry="28.81"/>
<text text-anchor="middle" x="970.65" y="-80.2" font-family="Noto Sans CJK KR" font-size="11.00" fill="white">Final</text>
</g>
<!-- expired&#45;&gt;final -->
<g id="edge12" class="edge">
<title>expired&#45;&gt;final</title>
<path fill="none" stroke="#425466" d="M868.52,-107.83C868.52,-107.83 948.18,-107.83 948.18,-107.83"/>
<polygon fill="#425466" stroke="#425466" points="948.18,-110.63 956.18,-107.83 948.18,-105.03 948.18,-110.63"/>
</g>
<!-- removed&#45;&gt;final -->
<g id="edge13" class="edge">
<title>removed&#45;&gt;final</title>
<path fill="none" stroke="#425466" d="M887.38,-59.17C887.38,-59.17 946.65,-59.17 946.65,-59.17"/>
<polygon fill="#425466" stroke="#425466" points="946.65,-61.97 954.65,-59.17 946.65,-56.37 946.65,-61.97"/>
</g>
<!-- serialized&#45;&gt;active -->
<g id="edge11" class="edge">
<title>serialized&#45;&gt;active</title>
<path fill="none" stroke="#425466" d="M843.31,-308.97C843.31,-283.49 843.31,-240 843.31,-240 843.31,-240 602.12,-240 602.12,-240"/>
<polygon fill="#425466" stroke="#425466" points="602.12,-237.2 594.12,-240 602.12,-242.8 602.12,-237.2"/>
<text text-anchor="middle" x="681" y="-349" font-family="Noto Sans CJK KR" font-size="10.00">load snapshot</text>
</g>
</g>
</svg>
