<?xml version="1.0" encoding="UTF-8" standalone="no"?>
<!DOCTYPE svg PUBLIC "-//W3C//DTD SVG 1.1//EN"
 "http://www.w3.org/Graphics/SVG/1.1/DTD/svg11.dtd">
<!-- Generated by graphviz version 15.1.0 (20260618.0150)
 -->
<!-- Title: ModifierStateDiagram Pages: 1 -->
<svg width="1439pt" height="768pt"
 viewBox="0.00 0.00 1439.00 768.00" xmlns="http://www.w3.org/2000/svg" xmlns:xlink="http://www.w3.org/1999/xlink">
<g id="graph0" class="graph" transform="scale(1.33333 1.33333) rotate(0) translate(4 572.21)">
<title>ModifierStateDiagram</title>
<polygon fill="white" stroke="none" points="-4,4 -4,-572.21 1075.31,-572.21 1075.31,4 -4,4"/>
<text xml:space="preserve" text-anchor="middle" x="535.65" y="-547.11" font-family="Noto Sans KR" font-size="18.00">UML State Diagram &#45; StatModifier Lifecycle</text>
<!-- created&#45;&gt;pending -->
<g id="edge1" class="edge">
<title>created:e&#45;&gt;pending:w</title>
<path fill="none" stroke="#5b6f8f" stroke-width="1.2" d="M96.25,-47.72C151.7,-47.72 167.92,-47.72 218.92,-47.72"/>
<polygon fill="#5b6f8f" stroke="#5b6f8f" stroke-width="1.2" points="218.68,-50.52 226.68,-47.72 218.68,-44.92 218.68,-50.52"/>
<text xml:space="preserve" text-anchor="middle" x="162.38" y="-50.42" font-family="Noto Sans KR" font-size="9.00">Attach(owner)</text>
</g>
<!-- pending&#45;&gt;active -->
<g id="edge2" class="edge">
<title>pending:e&#45;&gt;active:w</title>
<path fill="none" stroke="#3d8b6d" stroke-width="1.2" d="M331.5,-47.72C543.89,-47.72 327.83,-474.08 526.83,-487.4"/>
<polygon fill="#3d8b6d" stroke="#3d8b6d" stroke-width="1.2" points="526.72,-490.2 534.81,-487.66 526.91,-484.6 526.72,-490.2"/>
<text xml:space="preserve" text-anchor="middle" x="428.75" y="-478.1" font-family="Noto Sans KR" font-size="9.00">target valid and condition true</text>
</g>
<!-- pending&#45;&gt;removed -->
<g id="edge3" class="edge">
<title>pending:e&#45;&gt;removed:w</title>
<path fill="none" stroke="#b45d69" stroke-width="1.2" d="M331.5,-47.72C348.96,-47.72 352.27,-40.58 369.5,-37.72 487.32,-18.16 532.34,29.22 638,-26.47 761.46,-91.54 680.83,-282.48 810.08,-291.4"/>
<polygon fill="#b45d69" stroke="#b45d69" stroke-width="1.2" points="809.85,-294.19 817.93,-291.66 810.03,-288.6 809.85,-294.19"/>
<text xml:space="preserve" text-anchor="middle" x="582" y="-29.17" font-family="Noto Sans KR" font-size="9.00">reject invalid target</text>
</g>
<!-- active&#45;&gt;suspended -->
<g id="edge4" class="edge">
<title>active:n&#45;&gt;suspended:s</title>
<path fill="none" stroke="#7257a6" stroke-width="1.2" d="M582,-506.72C582,-612.13 457.19,-427.22 428.75,-325.72 411.48,-264.1 404.84,-241.09 428.75,-181.72 485.26,-41.4 571.88,-13.04 581.18,-63.23"/>
<polygon fill="#7257a6" stroke="#7257a6" stroke-width="1.2" points="578.37,-63.18 581.84,-70.91 583.95,-62.7 578.37,-63.18"/>
<text xml:space="preserve" text-anchor="middle" x="591.41" y="-47.72" font-family="Noto Sans KR" font-size="9.00" fill="#7257a6">condition becomes false</text>
</g>
<!-- active&#45;&gt;stacked -->
<g id="edge6" class="edge">
<title>active:s&#45;&gt;stacked:n</title>
<path fill="none" stroke="#397b8c" stroke-width="1.2" d="M582,-468.72C582,-375.56 465.88,-411.16 428.75,-325.72 422.37,-311.05 420.14,-303.2 428.75,-289.72 447.14,-260.93 559,-256.82 578.96,-228.02"/>
<polygon fill="#397b8c" stroke="#397b8c" stroke-width="1.2" points="581.61,-228.92 581.44,-220.45 576.29,-227.18 581.61,-228.92"/>
<text xml:space="preserve" text-anchor="middle" x="564.56" y="-235.08" font-family="Noto Sans KR" font-size="9.00" fill="#397b8c">same source/id reapplied</text>
</g>
<!-- active&#45;&gt;expired -->
<g id="edge8" class="edge">
<title>active:se&#45;&gt;expired:w</title>
<path fill="none" stroke="#b45d69" stroke-width="1.2" d="M627.38,-469.72C654.48,-442.61 642.1,-416.38 676,-398.47 735.93,-366.81 762.37,-396.64 826.29,-399.5"/>
<polygon fill="#b45d69" stroke="#b45d69" stroke-width="1.2" points="826.12,-402.3 834.18,-399.68 826.25,-396.7 826.12,-402.3"/>
<text xml:space="preserve" text-anchor="middle" x="728.88" y="-401.17" font-family="Noto Sans KR" font-size="9.00">duration or uses exhausted</text>
</g>
<!-- active&#45;&gt;removed -->
<g id="edge9" class="edge">
<title>active:e&#45;&gt;removed:w</title>
<path fill="none" stroke="#b45d69" stroke-width="1.2" d="M627.38,-487.72C703.85,-487.72 731.9,-469.72 781.75,-411.72 815.79,-372.11 770.63,-301.87 810.01,-292.71"/>
<polygon fill="#b45d69" stroke="#b45d69" stroke-width="1.2" points="810.27,-295.5 817.94,-291.91 809.7,-289.93 810.27,-295.5"/>
<text xml:space="preserve" text-anchor="middle" x="728.88" y="-486.38" font-family="Noto Sans KR" font-size="9.00">RemoveBySource / Dispel</text>
</g>
<!-- active&#45;&gt;serialized -->
<g id="edge10" class="edge">
<title>active:s&#45;&gt;serialized:n</title>
<path fill="none" stroke="#5b7f4a" stroke-width="1.2" d="M582,-335.11C582,-391.47 582,-408.97 582,-469.72"/>
<polygon fill="#5b7f4a" stroke="#5b7f4a" stroke-width="1.2" points="584.8,-335.54 582,-327.54 579.2,-335.54 584.8,-335.54"/>
<text xml:space="preserve" text-anchor="middle" x="591.76" y="-444.87" font-family="Noto Sans KR" font-size="9.00" fill="#5b7f4a">save runtime snapshot</text>
</g>
<!-- suspended&#45;&gt;active -->
<g id="edge5" class="edge">
<title>suspended:e&#45;&gt;active:e</title>
<path fill="none" stroke="#7257a6" stroke-width="1.2" stroke-dasharray="5,2" d="M633.38,-91.72C674.46,-91.72 671.96,-436.87 635.64,-482.71"/>
<polygon fill="#7257a6" stroke="#7257a6" stroke-width="1.2" points="634.32,-480.24 628.93,-486.78 637.22,-485.03 634.32,-480.24"/>
<text xml:space="preserve" text-anchor="middle" x="656.72" y="-94.34" font-family="Noto Sans KR" font-size="9.00" fill="#7257a6">condition becomes true</text>
</g>
<!-- stacked&#45;&gt;active -->
<g id="edge7" class="edge">
<title>stacked:w&#45;&gt;active:w</title>
<path fill="none" stroke="#397b8c" stroke-width="1.2" stroke-dasharray="5,2" d="M526,-199.72C467.11,-199.72 452.34,-235.76 428.75,-289.72 390.47,-377.31 463.9,-477.41 527,-486.98"/>
<polygon fill="#397b8c" stroke="#397b8c" stroke-width="1.2" points="526.62,-489.76 534.81,-487.58 527.05,-484.17 526.62,-489.76"/>
<text xml:space="preserve" text-anchor="middle" x="502.98" y="-208.89" font-family="Noto Sans KR" font-size="9.00" fill="#397b8c">merge / refresh / recalculate</text>
</g>
<!-- expired&#45;&gt;final -->
<g id="edge12" class="edge">
<title>expired:e&#45;&gt;final:w</title>
<path fill="none" stroke="#425466" stroke-width="1.2" d="M919.25,-399.72C963.98,-399.72 964.55,-352.18 1003.07,-345.5"/>
<polygon fill="#425466" stroke="#425466" stroke-width="1.2" points="1002.95,-348.32 1010.69,-344.87 1002.49,-342.74 1002.95,-348.32"/>
</g>
<!-- removed&#45;&gt;final -->
<g id="edge13" class="edge">
<title>removed:e&#45;&gt;final:w</title>
<path fill="none" stroke="#425466" stroke-width="1.2" d="M935.5,-291.72C973.48,-291.72 971.65,-336 1002.78,-343.61"/>
<polygon fill="#425466" stroke="#425466" stroke-width="1.2" points="1002.43,-346.39 1010.7,-344.52 1003.06,-340.83 1002.43,-346.39"/>
</g>
<!-- serialized&#45;&gt;active -->
<g id="edge11" class="edge">
<title>serialized:e&#45;&gt;active:e</title>
<path fill="none" stroke="#5b7f4a" stroke-width="1.2" stroke-dasharray="5,2" d="M636.02,-484.6C667.13,-460.69 664.25,-307.72 627.38,-307.72"/>
<polygon fill="#5b7f4a" stroke="#5b7f4a" stroke-width="1.2" points="635.65,-481.75 629.08,-487.1 637.56,-487.02 635.65,-481.75"/>
<text xml:space="preserve" text-anchor="middle" x="644.68" y="-468.16" font-family="Noto Sans KR" font-size="9.00" fill="#5b7f4a">restore snapshot</text>
</g>
<!-- created -->
<g id="node1" class="node">
<title>created</title>
<path fill="#fff3cd" stroke="#425466" d="M84.25,-65.72C84.25,-65.72 12,-65.72 12,-65.72 6,-65.72 0,-59.72 0,-53.72 0,-53.72 0,-41.72 0,-41.72 0,-35.72 6,-29.72 12,-29.72 12,-29.72 84.25,-29.72 84.25,-29.72 90.25,-29.72 96.25,-35.72 96.25,-41.72 96.25,-41.72 96.25,-53.72 96.25,-53.72 96.25,-59.72 90.25,-65.72 84.25,-65.72"/>
<text xml:space="preserve" text-anchor="middle" x="48.12" y="-50.77" font-family="Noto Sans KR" font-size="11.00">Created</text>
<text xml:space="preserve" text-anchor="middle" x="48.12" y="-37.27" font-family="Noto Sans KR" font-size="11.00">데이터에서 생성됨</text>
</g>
<!-- pending -->
<g id="node2" class="node">
<title>pending</title>
<path fill="#e8f0fe" stroke="#425466" d="M319.5,-65.72C319.5,-65.72 240.5,-65.72 240.5,-65.72 234.5,-65.72 228.5,-59.72 228.5,-53.72 228.5,-53.72 228.5,-41.72 228.5,-41.72 228.5,-35.72 234.5,-29.72 240.5,-29.72 240.5,-29.72 319.5,-29.72 319.5,-29.72 325.5,-29.72 331.5,-35.72 331.5,-41.72 331.5,-41.72 331.5,-53.72 331.5,-53.72 331.5,-59.72 325.5,-65.72 319.5,-65.72"/>
<text xml:space="preserve" text-anchor="middle" x="280" y="-50.77" font-family="Noto Sans KR" font-size="11.00">Pending</text>
<text xml:space="preserve" text-anchor="middle" x="280" y="-37.27" font-family="Noto Sans KR" font-size="11.00">조건/대상 검증 대기</text>
</g>
<!-- active -->
<g id="node3" class="node">
<title>active</title>
<path fill="#dff7e4" stroke="#425466" d="M614.38,-505.72C614.38,-505.72 549.62,-505.72 549.62,-505.72 543.62,-505.72 537.62,-499.72 537.62,-493.72 537.62,-493.72 537.62,-481.72 537.62,-481.72 537.62,-475.72 543.62,-469.72 549.62,-469.72 549.62,-469.72 614.38,-469.72 614.38,-469.72 620.38,-469.72 626.38,-475.72 626.38,-481.72 626.38,-481.72 626.38,-493.72 626.38,-493.72 626.38,-499.72 620.38,-505.72 614.38,-505.72"/>
<text xml:space="preserve" text-anchor="middle" x="582" y="-490.77" font-family="Noto Sans KR" font-size="11.00">Active</text>
<text xml:space="preserve" text-anchor="middle" x="582" y="-477.27" font-family="Noto Sans KR" font-size="11.00">계산 대상에 포함</text>
</g>
<!-- suspended -->
<g id="node4" class="node">
<title>suspended</title>
<path fill="#f3e5f5" stroke="#425466" d="M620.38,-109.72C620.38,-109.72 543.62,-109.72 543.62,-109.72 537.62,-109.72 531.62,-103.72 531.62,-97.72 531.62,-97.72 531.62,-85.72 531.62,-85.72 531.62,-79.72 537.62,-73.72 543.62,-73.72 543.62,-73.72 620.38,-73.72 620.38,-73.72 626.38,-73.72 632.38,-79.72 632.38,-85.72 632.38,-85.72 632.38,-97.72 632.38,-97.72 632.38,-103.72 626.38,-109.72 620.38,-109.72"/>
<text xml:space="preserve" text-anchor="middle" x="582" y="-94.77" font-family="Noto Sans KR" font-size="11.00">Suspended</text>
<text xml:space="preserve" text-anchor="middle" x="582" y="-81.27" font-family="Noto Sans KR" font-size="11.00">조건 불충족, 보존됨</text>
</g>
<!-- stacked -->
<g id="node5" class="node">
<title>stacked</title>
<path fill="#e0f7fa" stroke="#425466" d="M626,-217.72C626,-217.72 538,-217.72 538,-217.72 532,-217.72 526,-211.72 526,-205.72 526,-205.72 526,-193.72 526,-193.72 526,-187.72 532,-181.72 538,-181.72 538,-181.72 626,-181.72 626,-181.72 632,-181.72 638,-187.72 638,-193.72 638,-193.72 638,-205.72 638,-205.72 638,-211.72 632,-217.72 626,-217.72"/>
<text xml:space="preserve" text-anchor="middle" x="582" y="-202.77" font-family="Noto Sans KR" font-size="11.00">Stacked / Refreshed</text>
<text xml:space="preserve" text-anchor="middle" x="582" y="-189.27" font-family="Noto Sans KR" font-size="11.00">중첩 규칙 적용</text>
</g>
<!-- expired -->
<g id="node6" class="node">
<title>expired</title>
<path fill="#fce8e6" stroke="#425466" d="M906.25,-417.72C906.25,-417.72 849,-417.72 849,-417.72 843,-417.72 837,-411.72 837,-405.72 837,-405.72 837,-393.72 837,-393.72 837,-387.72 843,-381.72 849,-381.72 849,-381.72 906.25,-381.72 906.25,-381.72 912.25,-381.72 918.25,-387.72 918.25,-393.72 918.25,-393.72 918.25,-405.72 918.25,-405.72 918.25,-411.72 912.25,-417.72 906.25,-417.72"/>
<text xml:space="preserve" text-anchor="middle" x="877.62" y="-402.77" font-family="Noto Sans KR" font-size="11.00">Expired</text>
<text xml:space="preserve" text-anchor="middle" x="877.62" y="-389.27" font-family="Noto Sans KR" font-size="11.00">시간/횟수 종료</text>
</g>
<!-- removed -->
<g id="node7" class="node">
<title>removed</title>
<path fill="#fce8e6" stroke="#425466" d="M923.5,-309.72C923.5,-309.72 831.75,-309.72 831.75,-309.72 825.75,-309.72 819.75,-303.72 819.75,-297.72 819.75,-297.72 819.75,-285.72 819.75,-285.72 819.75,-279.72 825.75,-273.72 831.75,-273.72 831.75,-273.72 923.5,-273.72 923.5,-273.72 929.5,-273.72 935.5,-279.72 935.5,-285.72 935.5,-285.72 935.5,-297.72 935.5,-297.72 935.5,-303.72 929.5,-309.72 923.5,-309.72"/>
<text xml:space="preserve" text-anchor="middle" x="877.62" y="-294.77" font-family="Noto Sans KR" font-size="11.00">Removed</text>
<text xml:space="preserve" text-anchor="middle" x="877.62" y="-281.27" font-family="Noto Sans KR" font-size="11.00">source 제거/장비 해제</text>
</g>
<!-- serialized -->
<g id="node8" class="node">
<title>serialized</title>
<path fill="#f1f8e9" stroke="#425466" d="M614.38,-325.72C614.38,-325.72 549.62,-325.72 549.62,-325.72 543.62,-325.72 537.62,-319.72 537.62,-313.72 537.62,-313.72 537.62,-301.72 537.62,-301.72 537.62,-295.72 543.62,-289.72 549.62,-289.72 549.62,-289.72 614.38,-289.72 614.38,-289.72 620.38,-289.72 626.38,-295.72 626.38,-301.72 626.38,-301.72 626.38,-313.72 626.38,-313.72 626.38,-319.72 620.38,-325.72 614.38,-325.72"/>
<text xml:space="preserve" text-anchor="middle" x="582" y="-310.77" font-family="Noto Sans KR" font-size="11.00">Serialized</text>
<text xml:space="preserve" text-anchor="middle" x="582" y="-297.27" font-family="Noto Sans KR" font-size="11.00">저장 가능한 상태</text>
</g>
<!-- final -->
<g id="node9" class="node">
<title>final</title>
<ellipse fill="#111827" stroke="#425466" cx="1041.9" cy="-344.72" rx="25.4" ry="25.4"/>
<ellipse fill="none" stroke="#425466" cx="1041.9" cy="-344.72" rx="29.4" ry="29.4"/>
<text xml:space="preserve" text-anchor="middle" x="1041.9" y="-341.02" font-family="Noto Sans KR" font-size="11.00" fill="white">Final</text>
</g>
</g>
</svg>
