<?xml version="1.0" encoding="UTF-8" standalone="no"?>
<!DOCTYPE svg PUBLIC "-//W3C//DTD SVG 1.1//EN"
 "http://www.w3.org/Graphics/SVG/1.1/DTD/svg11.dtd">
<!-- Generated by graphviz version 15.0.0 (20260523.1842)
 -->
<!-- Title: ModifierStateDiagram Pages: 1 -->
<svg width="916pt" height="515pt"
 viewBox="0.00 0.00 916.00 515.00" xmlns="http://www.w3.org/2000/svg" xmlns:xlink="http://www.w3.org/1999/xlink">
<style>.node text { font-size: 90%; }</style>
<g id="graph0" class="graph" transform="scale(1 1) rotate(0) translate(4 510.6)">
<title>ModifierStateDiagram</title>
<polygon fill="white" stroke="none" points="-4,4 -4,-510.6 911.97,-510.6 911.97,4 -4,4"/>
<text xml:space="preserve" text-anchor="middle" x="453.99" y="-486.4" font-family="Noto Sans CJK KR" font-size="18.00">UML State Diagram &#45; StatModifier Lifecycle</text>
<!-- created -->
<g id="node1" class="node">
<title>created</title>
<path fill="#fff3cd" stroke="#425466" d="M72.75,-51C72.75,-51 12,-51 12,-51 6,-51 0,-45 0,-39 0,-39 0,-27 0,-27 0,-21 6,-15 12,-15 12,-15 72.75,-15 72.75,-15 78.75,-15 84.75,-21 84.75,-27 84.75,-27 84.75,-39 84.75,-39 84.75,-45 78.75,-51 72.75,-51"/>
<text xml:space="preserve" text-anchor="middle" x="42.38" y="-36.3" font-family="Noto Sans CJK KR" font-size="11.00">Created&#13;</text>
<text xml:space="preserve" text-anchor="middle" x="42.38" y="-23.1" font-family="Noto Sans CJK KR" font-size="11.00">데이터에서 생성됨</text>
</g>
<!-- pending -->
<g id="node2" class="node">
<title>pending</title>
<path fill="#e8f0fe" stroke="#425466" d="M275.61,-51C275.61,-51 209.06,-51 209.06,-51 203.06,-51 197.06,-45 197.06,-39 197.06,-39 197.06,-27 197.06,-27 197.06,-21 203.06,-15 209.06,-15 209.06,-15 275.61,-15 275.61,-15 281.61,-15 287.61,-21 287.61,-27 287.61,-27 287.61,-39 287.61,-39 287.61,-45 281.61,-51 275.61,-51"/>
<text xml:space="preserve" text-anchor="middle" x="242.33" y="-36.3" font-family="Noto Sans CJK KR" font-size="11.00">Pending&#13;</text>
<text xml:space="preserve" text-anchor="middle" x="242.33" y="-23.1" font-family="Noto Sans CJK KR" font-size="11.00">조건/대상 검증 대기</text>
</g>
<!-- created&#45;&gt;pending -->
<g id="edge1" class="edge">
<title>created&#45;&gt;pending</title>
<path fill="none" stroke="#425466" d="M84.78,-33C84.78,-33 187.34,-33 187.34,-33"/>
<polygon fill="#425466" stroke="#425466" points="187.34,-35.8 195.34,-33 187.34,-30.2 187.34,-35.8"/>
<text xml:space="preserve" text-anchor="middle" x="140.9" y="-36" font-family="Noto Sans CJK KR" font-size="10.00">Attach(owner)</text>
</g>
<!-- active -->
<g id="node3" class="node">
<title>active</title>
<path fill="#dff7e4" stroke="#425466" d="M520.58,-255C520.58,-255 465.33,-255 465.33,-255 459.33,-255 453.33,-249 453.33,-243 453.33,-243 453.33,-231 453.33,-231 453.33,-225 459.33,-219 465.33,-219 465.33,-219 520.58,-219 520.58,-219 526.58,-219 532.58,-225 532.58,-231 532.58,-231 532.58,-243 532.58,-243 532.58,-249 526.58,-255 520.58,-255"/>
<text xml:space="preserve" text-anchor="middle" x="492.96" y="-240.3" font-family="Noto Sans CJK KR" font-size="11.00">Active&#13;</text>
<text xml:space="preserve" text-anchor="middle" x="492.96" y="-227.1" font-family="Noto Sans CJK KR" font-size="11.00">계산 대상에 포함</text>
</g>
<!-- pending&#45;&gt;active -->
<g id="edge2" class="edge">
<title>pending&#45;&gt;active</title>
<path fill="none" stroke="#425466" d="M287.9,-43.67C355.12,-43.67 472.97,-43.67 472.97,-43.67 472.97,-43.67 472.97,-209.3 472.97,-209.3"/>
<polygon fill="#425466" stroke="#425466" points="470.17,-209.3 472.97,-217.3 475.77,-209.3 470.17,-209.3"/>
<text xml:space="preserve" text-anchor="middle" x="370.47" y="-154" font-family="Noto Sans CJK KR" font-size="10.00">valid target + condition true</text>
</g>
<!-- removed -->
<g id="node7" class="node">
<title>removed</title>
<path fill="#fce8e6" stroke="#425466" d="M784.6,-65C784.6,-65 705.83,-65 705.83,-65 699.83,-65 693.83,-59 693.83,-53 693.83,-53 693.83,-41 693.83,-41 693.83,-35 699.83,-29 705.83,-29 705.83,-29 784.6,-29 784.6,-29 790.6,-29 796.6,-35 796.6,-41 796.6,-41 796.6,-53 796.6,-53 796.6,-59 790.6,-65 784.6,-65"/>
<text xml:space="preserve" text-anchor="middle" x="745.21" y="-50.3" font-family="Noto Sans CJK KR" font-size="11.00">Removed&#13;</text>
<text xml:space="preserve" text-anchor="middle" x="745.21" y="-37.1" font-family="Noto Sans CJK KR" font-size="11.00">source 제거/장비 해제</text>
</g>
<!-- pending&#45;&gt;removed -->
<g id="edge3" class="edge">
<title>pending&#45;&gt;removed</title>
<path fill="none" stroke="#425466" d="M287.85,-36.33C287.85,-36.33 683.96,-36.33 683.96,-36.33"/>
<polygon fill="#425466" stroke="#425466" points="683.96,-39.13 691.96,-36.33 683.96,-33.53 683.96,-39.13"/>
<text xml:space="preserve" text-anchor="middle" x="492.96" y="-3" font-family="Noto Sans CJK KR" font-size="10.00">invalid target</text>
</g>
<!-- suspended -->
<g id="node4" class="node">
<title>suspended</title>
<path fill="#f3e5f5" stroke="#425466" d="M778.34,-445C778.34,-445 712.09,-445 712.09,-445 706.09,-445 700.09,-439 700.09,-433 700.09,-433 700.09,-421 700.09,-421 700.09,-415 706.09,-409 712.09,-409 712.09,-409 778.34,-409 778.34,-409 784.34,-409 790.34,-415 790.34,-421 790.34,-421 790.34,-433 790.34,-433 790.34,-439 784.34,-445 778.34,-445"/>
<text xml:space="preserve" text-anchor="middle" x="745.21" y="-430.3" font-family="Noto Sans CJK KR" font-size="11.00">Suspended&#13;</text>
<text xml:space="preserve" text-anchor="middle" x="745.21" y="-417.1" font-family="Noto Sans CJK KR" font-size="11.00">조건 불충족, 보존됨</text>
</g>
<!-- active&#45;&gt;suspended -->
<g id="edge4" class="edge">
<title>active&#45;&gt;suspended</title>
<path fill="none" stroke="#425466" d="M479.97,-255.44C479.97,-304.23 479.97,-433 479.97,-433 479.97,-433 690.1,-433 690.1,-433"/>
<polygon fill="#425466" stroke="#425466" points="690.1,-435.8 698.1,-433 690.1,-430.2 690.1,-435.8"/>
<text xml:space="preserve" text-anchor="middle" x="612.91" y="-468" font-family="Noto Sans CJK KR" font-size="10.00">condition false</text>
</g>
<!-- stacked -->
<g id="node5" class="node">
<title>stacked</title>
<path fill="#e0f7fa" stroke="#425466" d="M785.2,-236C785.2,-236 705.23,-236 705.23,-236 699.23,-236 693.23,-230 693.23,-224 693.23,-224 693.23,-212 693.23,-212 693.23,-206 699.23,-200 705.23,-200 705.23,-200 785.2,-200 785.2,-200 791.2,-200 797.2,-206 797.2,-212 797.2,-212 797.2,-224 797.2,-224 797.2,-230 791.2,-236 785.2,-236"/>
<text xml:space="preserve" text-anchor="middle" x="745.21" y="-221.3" font-family="Noto Sans CJK KR" font-size="11.00">Stacked / Refreshed&#13;</text>
<text xml:space="preserve" text-anchor="middle" x="745.21" y="-208.1" font-family="Noto Sans CJK KR" font-size="11.00">중첩 규칙 적용</text>
</g>
<!-- active&#45;&gt;stacked -->
<g id="edge6" class="edge">
<title>active&#45;&gt;stacked</title>
<path fill="none" stroke="#425466" d="M532.93,-230.33C532.93,-230.33 683.67,-230.33 683.67,-230.33"/>
<polygon fill="#425466" stroke="#425466" points="683.67,-233.13 691.67,-230.33 683.67,-227.53 683.67,-233.13"/>
<text xml:space="preserve" text-anchor="middle" x="612.91" y="-240" font-family="Noto Sans CJK KR" font-size="10.00">same source/id reapplied</text>
</g>
<!-- expired -->
<g id="node6" class="node">
<title>expired</title>
<path fill="#fce8e6" stroke="#425466" d="M768.87,-141C768.87,-141 721.56,-141 721.56,-141 715.56,-141 709.56,-135 709.56,-129 709.56,-129 709.56,-117 709.56,-117 709.56,-111 715.56,-105 721.56,-105 721.56,-105 768.87,-105 768.87,-105 774.87,-105 780.87,-111 780.87,-117 780.87,-117 780.87,-129 780.87,-129 780.87,-135 774.87,-141 768.87,-141"/>
<text xml:space="preserve" text-anchor="middle" x="745.21" y="-126.3" font-family="Noto Sans CJK KR" font-size="11.00">Expired&#13;</text>
<text xml:space="preserve" text-anchor="middle" x="745.21" y="-113.1" font-family="Noto Sans CJK KR" font-size="11.00">시간/횟수 종료</text>
</g>
<!-- active&#45;&gt;expired -->
<g id="edge8" class="edge">
<title>active&#45;&gt;expired</title>
<path fill="none" stroke="#425466" d="M512.97,-218.68C512.97,-186.46 512.97,-123 512.97,-123 512.97,-123 699.67,-123 699.67,-123"/>
<polygon fill="#425466" stroke="#425466" points="699.67,-125.8 707.67,-123 699.67,-120.2 699.67,-125.8"/>
<text xml:space="preserve" text-anchor="middle" x="612.91" y="-126" font-family="Noto Sans CJK KR" font-size="10.00">duration &lt;= 0 or uses = 0</text>
</g>
<!-- active&#45;&gt;removed -->
<g id="edge9" class="edge">
<title>active&#45;&gt;removed</title>
<path fill="none" stroke="#425466" d="M492.97,-218.52C492.97,-172.78 492.97,-58 492.97,-58 492.97,-58 684.05,-58 684.05,-58"/>
<polygon fill="#425466" stroke="#425466" points="684.05,-60.8 692.05,-58 684.05,-55.2 684.05,-60.8"/>
<text xml:space="preserve" text-anchor="middle" x="612.91" y="-69" font-family="Noto Sans CJK KR" font-size="10.00">RemoveBySource / Dispel</text>
</g>
<!-- serialized -->
<g id="node8" class="node">
<title>serialized</title>
<path fill="#f1f8e9" stroke="#425466" d="M772.84,-350C772.84,-350 717.59,-350 717.59,-350 711.59,-350 705.59,-344 705.59,-338 705.59,-338 705.59,-326 705.59,-326 705.59,-320 711.59,-314 717.59,-314 717.59,-314 772.84,-314 772.84,-314 778.84,-314 784.84,-320 784.84,-326 784.84,-326 784.84,-338 784.84,-338 784.84,-344 778.84,-350 772.84,-350"/>
<text xml:space="preserve" text-anchor="middle" x="745.21" y="-335.3" font-family="Noto Sans CJK KR" font-size="11.00">Serialized&#13;</text>
<text xml:space="preserve" text-anchor="middle" x="745.21" y="-322.1" font-family="Noto Sans CJK KR" font-size="11.00">저장 가능한 상태</text>
</g>
<!-- active&#45;&gt;serialized -->
<g id="edge10" class="edge">
<title>active&#45;&gt;serialized</title>
<path fill="none" stroke="#425466" d="M532.92,-242.33C606.95,-242.33 757.97,-242.33 757.97,-242.33 757.97,-242.33 757.97,-304.34 757.97,-304.34"/>
<polygon fill="#425466" stroke="#425466" points="755.17,-304.34 757.97,-312.34 760.77,-304.34 755.17,-304.34"/>
<text xml:space="preserve" text-anchor="middle" x="612.91" y="-297" font-family="Noto Sans CJK KR" font-size="10.00">save snapshot</text>
</g>
<!-- suspended&#45;&gt;active -->
<g id="edge5" class="edge">
<title>suspended&#45;&gt;active</title>
<path fill="none" stroke="#425466" d="M699.65,-421C630.24,-421 505.97,-421 505.97,-421 505.97,-421 505.97,-264.83 505.97,-264.83"/>
<polygon fill="#425466" stroke="#425466" points="508.77,-264.83 505.97,-256.83 503.17,-264.83 508.77,-264.83"/>
<text xml:space="preserve" text-anchor="middle" x="612.91" y="-411" font-family="Noto Sans CJK KR" font-size="10.00">condition true</text>
</g>
<!-- stacked&#45;&gt;active -->
<g id="edge7" class="edge">
<title>stacked&#45;&gt;active</title>
<path fill="none" stroke="#425466" d="M692.95,-224.67C692.95,-224.67 542.26,-224.67 542.26,-224.67"/>
<polygon fill="#425466" stroke="#425466" points="542.26,-221.87 534.26,-224.67 542.26,-227.47 542.26,-221.87"/>
<text xml:space="preserve" text-anchor="middle" x="612.91" y="-183" font-family="Noto Sans CJK KR" font-size="10.00">merge/refresh/recalculate</text>
</g>
<!-- final -->
<g id="node9" class="node">
<title>final</title>
<ellipse fill="#111827" stroke="#425466" cx="880.09" cy="-84" rx="23.89" ry="23.89"/>
<ellipse fill="none" stroke="#425466" cx="880.09" cy="-84" rx="27.89" ry="27.89"/>
<text xml:space="preserve" text-anchor="middle" x="880.09" y="-80.7" font-family="Noto Sans CJK KR" font-size="11.00" fill="white">Final</text>
</g>
<!-- expired&#45;&gt;final -->
<g id="edge12" class="edge">
<title>expired&#45;&gt;final</title>
<path fill="none" stroke="#425466" d="M781.33,-126.44C821.24,-126.44 879.97,-126.44 879.97,-126.44 879.97,-126.44 879.97,-121.59 879.97,-121.59"/>
<polygon fill="#425466" stroke="#425466" points="882.77,-121.59 879.97,-113.59 877.17,-121.59 882.77,-121.59"/>
</g>
<!-- removed&#45;&gt;final -->
<g id="edge13" class="edge">
<title>removed&#45;&gt;final</title>
<path fill="none" stroke="#425466" d="M796.97,-60.56C796.97,-60.56 854.61,-60.56 854.61,-60.56"/>
<polygon fill="#425466" stroke="#425466" points="854.61,-63.36 862.61,-60.56 854.61,-57.76 854.61,-63.36"/>
</g>
<!-- serialized&#45;&gt;active -->
<g id="edge11" class="edge">
<title>serialized&#45;&gt;active</title>
<path fill="none" stroke="#425466" d="M731.97,-313.51C731.97,-288.95 731.97,-248.67 731.97,-248.67 731.97,-248.67 542.48,-248.67 542.48,-248.67"/>
<polygon fill="#425466" stroke="#425466" points="542.48,-245.87 534.48,-248.67 542.48,-251.47 542.48,-245.87"/>
<text xml:space="preserve" text-anchor="middle" x="612.91" y="-354" font-family="Noto Sans CJK KR" font-size="10.00">load snapshot</text>
</g>
</g>
</svg>
