<?xml version="1.0" encoding="UTF-8" standalone="no"?>
<!DOCTYPE svg PUBLIC "-//W3C//DTD SVG 1.1//EN"
 "http://www.w3.org/Graphics/SVG/1.1/DTD/svg11.dtd">
<!-- Generated by graphviz version 15.0.0 (20260523.1842)
 -->
<!-- Title: G Pages: 1 -->
<svg width="500pt" height="849pt"
 viewBox="9.00 9.00 491.00 840.00" xmlns="http://www.w3.org/2000/svg" xmlns:xlink="http://www.w3.org/1999/xlink">
<g id="graph0" class="graph" transform="scale(1 1) rotate(0) translate(26.64 822)">
<title>G</title>
<polygon fill="#ffffff" stroke="none" points="-18,18 -18,-813.36 464.5,-813.36 464.5,18 -18,18"/>
<!-- start -->
<g id="node1" class="node">
<title>start</title>
<ellipse fill="#182033" stroke="#182033" stroke-width="1.4" cx="220.27" cy="-786" rx="9.36" ry="9.36"/>
</g>
<!-- status -->
<g id="node2" class="node">
<title>status</title>
<path fill="#eefbf6" stroke="#5ac39b" stroke-width="1.4" d="M291.77,-729.64C291.77,-729.64 148.77,-729.64 148.77,-729.64 142.77,-729.64 136.77,-723.64 136.77,-717.64 136.77,-717.64 136.77,-676.84 136.77,-676.84 136.77,-670.84 142.77,-664.84 148.77,-664.84 148.77,-664.84 291.77,-664.84 291.77,-664.84 297.77,-664.84 303.77,-670.84 303.77,-676.84 303.77,-676.84 303.77,-717.64 303.77,-717.64 303.77,-723.64 297.77,-729.64 291.77,-729.64"/>
<text xml:space="preserve" text-anchor="middle" x="220.27" y="-709.84" font-family="Noto Sans CJK KR" font-size="14.00" fill="#182033">StatusSystem</text>
<text xml:space="preserve" text-anchor="middle" x="220.27" y="-693.04" font-family="Noto Sans CJK KR" font-size="14.00" fill="#182033">Build AddModifier plan</text>
<text xml:space="preserve" text-anchor="middle" x="220.27" y="-676.24" font-family="Noto Sans CJK KR" font-size="14.00" fill="#182033">source = StatusInstanceId</text>
</g>
<!-- start&#45;&gt;status -->
<g id="edge1" class="edge">
<title>start&#45;&gt;status</title>
<path fill="none" stroke="#59687e" stroke-width="1.3" d="M220.27,-776.04C220.27,-767.33 220.27,-753.46 220.27,-739.82"/>
<polygon fill="#59687e" stroke="#59687e" stroke-width="1.3" points="223.07,-739.97 220.27,-731.97 217.47,-739.97 223.07,-739.97"/>
</g>
<!-- commit -->
<g id="node3" class="node">
<title>commit</title>
<path fill="#eaf0ff" stroke="#8292f7" stroke-width="1.4" d="M330.53,-617.84C330.53,-617.84 110.01,-617.84 110.01,-617.84 104.01,-617.84 98.01,-611.84 98.01,-605.84 98.01,-605.84 98.01,-565.04 98.01,-565.04 98.01,-559.04 104.01,-553.04 110.01,-553.04 110.01,-553.04 330.53,-553.04 330.53,-553.04 336.53,-553.04 342.53,-559.04 342.53,-565.04 342.53,-565.04 342.53,-605.84 342.53,-605.84 342.53,-611.84 336.53,-617.84 330.53,-617.84"/>
<text xml:space="preserve" text-anchor="middle" x="220.27" y="-598.04" font-family="Noto Sans CJK KR" font-size="14.00" fill="#182033">RuntimeCommitter</text>
<text xml:space="preserve" text-anchor="middle" x="220.27" y="-581.24" font-family="Noto Sans CJK KR" font-size="14.00" fill="#182033">ModifierRegistry + dirty state + outbox</text>
<text xml:space="preserve" text-anchor="middle" x="220.27" y="-564.44" font-family="Noto Sans CJK KR" font-size="14.00" fill="#182033">atomic commit</text>
</g>
<!-- status&#45;&gt;commit -->
<g id="edge2" class="edge">
<title>status&#45;&gt;commit</title>
<path fill="none" stroke="#59687e" stroke-width="1.3" d="M220.27,-664.19C220.27,-652.91 220.27,-640.07 220.27,-628.12"/>
<polygon fill="#59687e" stroke="#59687e" stroke-width="1.3" points="223.07,-628.31 220.27,-620.31 217.47,-628.31 223.07,-628.31"/>
</g>
<!-- event -->
<g id="node4" class="node">
<title>event</title>
<path fill="#f8fafc" stroke="#bac7db" stroke-width="1.4" d="M224.55,-506.04C224.55,-506.04 55.99,-506.04 55.99,-506.04 49.99,-506.04 43.99,-500.04 43.99,-494.04 43.99,-494.04 43.99,-470.04 43.99,-470.04 43.99,-464.04 49.99,-458.04 55.99,-458.04 55.99,-458.04 224.55,-458.04 224.55,-458.04 230.55,-458.04 236.55,-464.04 236.55,-470.04 236.55,-470.04 236.55,-494.04 236.55,-494.04 236.55,-500.04 230.55,-506.04 224.55,-506.04"/>
<text xml:space="preserve" text-anchor="middle" x="140.27" y="-486.24" font-family="Noto Sans CJK KR" font-size="14.00" fill="#182033">Committed facts dispatch</text>
<text xml:space="preserve" text-anchor="middle" x="140.27" y="-469.44" font-family="Noto Sans CJK KR" font-size="14.00" fill="#182033">ModifierAdded / StatChanged</text>
</g>
<!-- commit&#45;&gt;event -->
<g id="edge3" class="edge">
<title>commit&#45;&gt;event</title>
<path fill="none" stroke="#59687e" stroke-width="1.3" d="M194.96,-552.36C185.35,-540.17 174.42,-526.32 164.87,-514.22"/>
<polygon fill="#59687e" stroke="#59687e" stroke-width="1.3" points="167.2,-512.65 160.05,-508.1 162.8,-516.12 167.2,-512.65"/>
</g>
<!-- query -->
<g id="node5" class="node">
<title>query</title>
<path fill="#f4efff" stroke="#a884e8" stroke-width="1.4" d="M397.75,-411.04C397.75,-411.04 202.79,-411.04 202.79,-411.04 196.79,-411.04 190.79,-405.04 190.79,-399.04 190.79,-399.04 190.79,-375.04 190.79,-375.04 190.79,-369.04 196.79,-363.04 202.79,-363.04 202.79,-363.04 397.75,-363.04 397.75,-363.04 403.75,-363.04 409.75,-369.04 409.75,-375.04 409.75,-375.04 409.75,-399.04 409.75,-399.04 409.75,-405.04 403.75,-411.04 397.75,-411.04"/>
<text xml:space="preserve" text-anchor="middle" x="300.27" y="-391.24" font-family="Noto Sans CJK KR" font-size="14.00" fill="#182033">UI / Combat</text>
<text xml:space="preserve" text-anchor="middle" x="300.27" y="-374.44" font-family="Noto Sans CJK KR" font-size="14.00" fill="#182033">GetValue(ownerId, statId, context)</text>
</g>
<!-- commit&#45;&gt;query -->
<g id="edge9" class="edge">
<title>commit&#45;&gt;query</title>
<path fill="none" stroke="#59687e" stroke-width="1.3" stroke-dasharray="5,2" d="M233.36,-552.4C239.16,-538.2 246.06,-521.29 252.27,-506.04 264.06,-477.11 277.45,-444.18 287.09,-420.47"/>
<polygon fill="#59687e" stroke="#59687e" stroke-width="1.3" points="289.56,-421.84 289.98,-413.37 284.37,-419.73 289.56,-421.84"/>
<text xml:space="preserve" text-anchor="middle" x="309.61" y="-477.84" font-family="Noto Sans CJK KR" font-size="14.00" fill="#46566e">new snapshot</text>
</g>
<!-- event&#45;&gt;query -->
<g id="edge4" class="edge">
<title>event&#45;&gt;query</title>
<path fill="none" stroke="#59687e" stroke-width="1.3" d="M180.65,-457.57C202.07,-445.12 228.57,-429.72 251.18,-416.58"/>
<polygon fill="#59687e" stroke="#59687e" stroke-width="1.3" points="252.42,-419.09 257.93,-412.65 249.61,-414.25 252.42,-419.09"/>
</g>
<!-- observe -->
<g id="node8" class="node">
<title>observe</title>
<path fill="#f4efff" stroke="#a884e8" stroke-width="1.4" d="M250.54,-126.04C250.54,-126.04 12,-126.04 12,-126.04 6,-126.04 0,-120.04 0,-114.04 0,-114.04 0,-90.04 0,-90.04 0,-84.04 6,-78.04 12,-78.04 12,-78.04 250.54,-78.04 250.54,-78.04 256.54,-78.04 262.54,-84.04 262.54,-90.04 262.54,-90.04 262.54,-114.04 262.54,-114.04 262.54,-120.04 256.54,-126.04 250.54,-126.04"/>
<text xml:space="preserve" text-anchor="middle" x="131.27" y="-106.24" font-family="Noto Sans CJK KR" font-size="14.00" fill="#182033">UI refreshes from committed fact</text>
<text xml:space="preserve" text-anchor="middle" x="131.27" y="-89.44" font-family="Noto Sans CJK KR" font-size="14.00" fill="#182033">Combat consumes returned snapshot value</text>
</g>
<!-- event&#45;&gt;observe -->
<g id="edge10" class="edge">
<title>event&#45;&gt;observe</title>
<path fill="none" stroke="#59687e" stroke-width="1.3" stroke-dasharray="5,2" d="M129.04,-457.54C121.25,-439.08 112.27,-412.49 112.27,-388.04 112.27,-388.04 112.27,-388.04 112.27,-196.04 112.27,-175.74 116.67,-153.44 121.24,-135.77"/>
<polygon fill="#59687e" stroke="#59687e" stroke-width="1.3" points="123.85,-136.82 123.25,-128.37 118.45,-135.35 123.85,-136.82"/>
<text xml:space="preserve" text-anchor="middle" x="144.93" y="-287.84" font-family="Noto Sans CJK KR" font-size="14.00" fill="#46566e">observation</text>
</g>
<!-- pipe -->
<g id="node6" class="node">
<title>pipe</title>
<path fill="#ffffff" stroke="#bac7db" stroke-width="1.4" d="M434.5,-316.04C434.5,-316.04 222.05,-316.04 222.05,-316.04 216.05,-316.04 210.05,-310.04 210.05,-304.04 210.05,-304.04 210.05,-280.04 210.05,-280.04 210.05,-274.04 216.05,-268.04 222.05,-268.04 222.05,-268.04 434.5,-268.04 434.5,-268.04 440.5,-268.04 446.5,-274.04 446.5,-280.04 446.5,-280.04 446.5,-304.04 446.5,-304.04 446.5,-310.04 440.5,-316.04 434.5,-316.04"/>
<text xml:space="preserve" text-anchor="middle" x="328.27" y="-296.24" font-family="Noto Sans CJK KR" font-size="14.00" fill="#182033">CalculationPipeline (pure query)</text>
<text xml:space="preserve" text-anchor="middle" x="328.27" y="-279.44" font-family="Noto Sans CJK KR" font-size="14.00" fill="#182033">collect · filter · stable sort · calculate</text>
</g>
<!-- query&#45;&gt;pipe -->
<g id="edge5" class="edge">
<title>query&#45;&gt;pipe</title>
<path fill="none" stroke="#59687e" stroke-width="1.3" d="M307.34,-362.57C310.69,-351.45 314.74,-337.97 318.39,-325.85"/>
<polygon fill="#59687e" stroke="#59687e" stroke-width="1.3" points="321.02,-326.85 320.64,-318.38 315.65,-325.24 321.02,-326.85"/>
</g>
<!-- result -->
<g id="node7" class="node">
<title>result</title>
<path fill="#eefbf6" stroke="#5ac39b" stroke-width="1.4" d="M378.77,-221.04C378.77,-221.04 207.77,-221.04 207.77,-221.04 201.77,-221.04 195.77,-215.04 195.77,-209.04 195.77,-209.04 195.77,-185.04 195.77,-185.04 195.77,-179.04 201.77,-173.04 207.77,-173.04 207.77,-173.04 378.77,-173.04 378.77,-173.04 384.77,-173.04 390.77,-179.04 390.77,-185.04 390.77,-185.04 390.77,-209.04 390.77,-209.04 390.77,-215.04 384.77,-221.04 378.77,-221.04"/>
<text xml:space="preserve" text-anchor="middle" x="293.27" y="-201.24" font-family="Noto Sans CJK KR" font-size="14.00" fill="#182033">StatValue + DebugBreakdown</text>
<text xml:space="preserve" text-anchor="middle" x="293.27" y="-184.44" font-family="Noto Sans CJK KR" font-size="14.00" fill="#182033">no domain event</text>
</g>
<!-- pipe&#45;&gt;result -->
<g id="edge6" class="edge">
<title>pipe&#45;&gt;result</title>
<path fill="none" stroke="#59687e" stroke-width="1.3" d="M319.44,-267.57C315.21,-256.34 310.08,-242.7 305.49,-230.5"/>
<polygon fill="#59687e" stroke="#59687e" stroke-width="1.3" points="308.23,-229.84 302.79,-223.34 302.99,-231.82 308.23,-229.84"/>
</g>
<!-- result&#45;&gt;observe -->
<g id="edge7" class="edge">
<title>result&#45;&gt;observe</title>
<path fill="none" stroke="#59687e" stroke-width="1.3" d="M252.39,-172.57C230.7,-160.12 203.87,-144.72 180.98,-131.58"/>
<polygon fill="#59687e" stroke="#59687e" stroke-width="1.3" points="182.46,-129.2 174.13,-127.64 179.67,-134.05 182.46,-129.2"/>
</g>
<!-- end -->
<g id="node9" class="node">
<title>end</title>
<ellipse fill="#ffffff" stroke="#182033" stroke-width="1.4" cx="131.27" cy="-15.52" rx="11.52" ry="11.52"/>
<ellipse fill="none" stroke="#182033" stroke-width="1.4" cx="131.27" cy="-15.52" rx="15.52" ry="15.52"/>
</g>
<!-- observe&#45;&gt;end -->
<g id="edge8" class="edge">
<title>observe&#45;&gt;end</title>
<path fill="none" stroke="#59687e" stroke-width="1.3" d="M131.27,-77.5C131.27,-66.28 131.27,-52.85 131.27,-41.46"/>
<polygon fill="#59687e" stroke="#59687e" stroke-width="1.3" points="134.07,-41.66 131.27,-33.66 128.47,-41.66 134.07,-41.66"/>
</g>
</g>
</svg>
