<?xml version="1.0" encoding="UTF-8" standalone="no"?>
<!DOCTYPE svg PUBLIC "-//W3C//DTD SVG 1.1//EN"
 "http://www.w3.org/Graphics/SVG/1.1/DTD/svg11.dtd">
<!-- Generated by graphviz version 15.0.0 (20260523.1842)
 -->
<!-- Title: G Pages: 1 -->
<svg width="431pt" height="1100pt"
 viewBox="9.00 9.00 422.00 1091.00" xmlns="http://www.w3.org/2000/svg" xmlns:xlink="http://www.w3.org/1999/xlink">
<style>.node text { font-size: 90%; }</style>
<g id="graph0" class="graph" transform="scale(1 1) rotate(0) translate(26.64 1073.4)">
<title>G</title>
<polygon fill="#ffffff" stroke="none" points="-18,18 -18,-1064.76 395.24,-1064.76 395.24,18 -18,18"/>
<!-- start -->
<g id="node1" class="node">
<title>start</title>
<ellipse fill="#182033" stroke="#182033" stroke-width="1.4" cx="194.56" cy="-1037.4" rx="9.36" ry="9.36"/>
</g>
<!-- status -->
<g id="node2" class="node">
<title>status</title>
<path fill="#eefbf6" stroke="#5ac39b" stroke-width="1.4" d="M286.66,-981.04C286.66,-981.04 102.46,-981.04 102.46,-981.04 96.46,-981.04 90.46,-975.04 90.46,-969.04 90.46,-969.04 90.46,-945.04 90.46,-945.04 90.46,-939.04 96.46,-933.04 102.46,-933.04 102.46,-933.04 286.66,-933.04 286.66,-933.04 292.66,-933.04 298.66,-939.04 298.66,-945.04 298.66,-945.04 298.66,-969.04 298.66,-969.04 298.66,-975.04 292.66,-981.04 286.66,-981.04"/>
<text xml:space="preserve" text-anchor="middle" x="194.56" y="-961.24" font-family="Noto Sans CJK KR" font-size="14.00" fill="#182033">StatusSystem&#13;</text>
<text xml:space="preserve" text-anchor="middle" x="194.56" y="-944.44" font-family="Noto Sans CJK KR" font-size="14.00" fill="#182033"> AddModifier(rageAttack +30%)</text>
</g>
<!-- start&#45;&gt;status -->
<g id="edge1" class="edge">
<title>start&#45;&gt;status</title>
<path fill="none" stroke="#59687e" stroke-width="1.3" d="M194.56,-1027.41C194.56,-1018.57 194.56,-1004.52 194.56,-991.38"/>
<polygon fill="#59687e" stroke="#59687e" stroke-width="1.3" points="197.36,-991.56 194.56,-983.56 191.76,-991.56 197.36,-991.56"/>
</g>
<!-- stat -->
<g id="node3" class="node">
<title>stat</title>
<path fill="#eaf0ff" stroke="#8292f7" stroke-width="1.4" d="M262.1,-886.04C262.1,-886.04 127.02,-886.04 127.02,-886.04 121.02,-886.04 115.02,-880.04 115.02,-874.04 115.02,-874.04 115.02,-850.04 115.02,-850.04 115.02,-844.04 121.02,-838.04 127.02,-838.04 127.02,-838.04 262.1,-838.04 262.1,-838.04 268.1,-838.04 274.1,-844.04 274.1,-850.04 274.1,-850.04 274.1,-874.04 274.1,-874.04 274.1,-880.04 268.1,-886.04 262.1,-886.04"/>
<text xml:space="preserve" text-anchor="middle" x="194.56" y="-866.24" font-family="Noto Sans CJK KR" font-size="14.00" fill="#182033">StatBlock&#13;</text>
<text xml:space="preserve" text-anchor="middle" x="194.56" y="-849.44" font-family="Noto Sans CJK KR" font-size="14.00" fill="#182033">receive modifier request</text>
</g>
<!-- status&#45;&gt;stat -->
<g id="edge2" class="edge">
<title>status&#45;&gt;stat</title>
<path fill="none" stroke="#59687e" stroke-width="1.3" d="M194.56,-932.57C194.56,-921.56 194.56,-908.24 194.56,-896.21"/>
<polygon fill="#59687e" stroke="#59687e" stroke-width="1.3" points="197.36,-896.47 194.56,-888.47 191.76,-896.47 197.36,-896.47"/>
</g>
<!-- reg -->
<g id="node4" class="node">
<title>reg</title>
<path fill="#fff8e7" stroke="#e4ad4f" stroke-width="1.4" d="M275.39,-791.04C275.39,-791.04 113.73,-791.04 113.73,-791.04 107.73,-791.04 101.73,-785.04 101.73,-779.04 101.73,-779.04 101.73,-755.04 101.73,-755.04 101.73,-749.04 107.73,-743.04 113.73,-743.04 113.73,-743.04 275.39,-743.04 275.39,-743.04 281.39,-743.04 287.39,-749.04 287.39,-755.04 287.39,-755.04 287.39,-779.04 287.39,-779.04 287.39,-785.04 281.39,-791.04 275.39,-791.04"/>
<text xml:space="preserve" text-anchor="middle" x="194.56" y="-771.24" font-family="Noto Sans CJK KR" font-size="14.00" fill="#182033">ModifierRegistry&#13;</text>
<text xml:space="preserve" text-anchor="middle" x="194.56" y="-754.44" font-family="Noto Sans CJK KR" font-size="14.00" fill="#182033">merge by source + stackRule</text>
</g>
<!-- stat&#45;&gt;reg -->
<g id="edge3" class="edge">
<title>stat&#45;&gt;reg</title>
<path fill="none" stroke="#59687e" stroke-width="1.3" d="M194.56,-837.57C194.56,-826.56 194.56,-813.24 194.56,-801.21"/>
<polygon fill="#59687e" stroke="#59687e" stroke-width="1.3" points="197.36,-801.47 194.56,-793.47 191.76,-801.47 197.36,-801.47"/>
</g>
<!-- dirty -->
<g id="node5" class="node">
<title>dirty</title>
<path fill="#eaf0ff" stroke="#8292f7" stroke-width="1.4" d="M198.13,-696.04C198.13,-696.04 50.99,-696.04 50.99,-696.04 44.99,-696.04 38.99,-690.04 38.99,-684.04 38.99,-684.04 38.99,-660.04 38.99,-660.04 38.99,-654.04 44.99,-648.04 50.99,-648.04 50.99,-648.04 198.13,-648.04 198.13,-648.04 204.13,-648.04 210.13,-654.04 210.13,-660.04 210.13,-660.04 210.13,-684.04 210.13,-684.04 210.13,-690.04 204.13,-696.04 198.13,-696.04"/>
<text xml:space="preserve" text-anchor="middle" x="124.56" y="-676.24" font-family="Noto Sans CJK KR" font-size="14.00" fill="#182033">StatBlock&#13;</text>
<text xml:space="preserve" text-anchor="middle" x="124.56" y="-659.44" font-family="Noto Sans CJK KR" font-size="14.00" fill="#182033"> MarkDirty(attack_power)</text>
</g>
<!-- reg&#45;&gt;dirty -->
<g id="edge4" class="edge">
<title>reg&#45;&gt;dirty</title>
<path fill="none" stroke="#59687e" stroke-width="1.3" d="M176.9,-742.57C168.19,-731.01 157.57,-716.9 148.18,-704.42"/>
<polygon fill="#59687e" stroke="#59687e" stroke-width="1.3" points="150.45,-702.78 143.4,-698.07 145.98,-706.15 150.45,-702.78"/>
</g>
<!-- event1 -->
<g id="node6" class="node">
<title>event1</title>
<path fill="#f8fafc" stroke="#bac7db" stroke-width="1.4" d="M185.04,-601.04C185.04,-601.04 44.08,-601.04 44.08,-601.04 38.08,-601.04 32.08,-595.04 32.08,-589.04 32.08,-589.04 32.08,-565.04 32.08,-565.04 32.08,-559.04 38.08,-553.04 44.08,-553.04 44.08,-553.04 185.04,-553.04 185.04,-553.04 191.04,-553.04 197.04,-559.04 197.04,-565.04 197.04,-565.04 197.04,-589.04 197.04,-589.04 197.04,-595.04 191.04,-601.04 185.04,-601.04"/>
<text xml:space="preserve" text-anchor="middle" x="114.56" y="-581.24" font-family="Noto Sans CJK KR" font-size="14.00" fill="#182033">EventBus&#13;</text>
<text xml:space="preserve" text-anchor="middle" x="114.56" y="-564.44" font-family="Noto Sans CJK KR" font-size="14.00" fill="#182033"> Publish(ModifierAdded)</text>
</g>
<!-- dirty&#45;&gt;event1 -->
<g id="edge5" class="edge">
<title>dirty&#45;&gt;event1</title>
<path fill="none" stroke="#59687e" stroke-width="1.3" d="M122.04,-647.57C120.85,-636.56 119.42,-623.24 118.13,-611.21"/>
<polygon fill="#59687e" stroke="#59687e" stroke-width="1.3" points="120.93,-611.11 117.29,-603.46 115.36,-611.71 120.93,-611.11"/>
</g>
<!-- query -->
<g id="node7" class="node">
<title>query</title>
<path fill="#f4efff" stroke="#a884e8" stroke-width="1.4" d="M201.12,-506.04C201.12,-506.04 12,-506.04 12,-506.04 6,-506.04 0,-500.04 0,-494.04 0,-494.04 0,-470.04 0,-470.04 0,-464.04 6,-458.04 12,-458.04 12,-458.04 201.12,-458.04 201.12,-458.04 207.12,-458.04 213.12,-464.04 213.12,-470.04 213.12,-470.04 213.12,-494.04 213.12,-494.04 213.12,-500.04 207.12,-506.04 201.12,-506.04"/>
<text xml:space="preserve" text-anchor="middle" x="106.56" y="-486.24" font-family="Noto Sans CJK KR" font-size="14.00" fill="#182033">UI / Combat&#13;</text>
<text xml:space="preserve" text-anchor="middle" x="106.56" y="-469.44" font-family="Noto Sans CJK KR" font-size="14.00" fill="#182033"> GetValue(attack_power, context)</text>
</g>
<!-- event1&#45;&gt;query -->
<g id="edge6" class="edge">
<title>event1&#45;&gt;query</title>
<path fill="none" stroke="#59687e" stroke-width="1.3" d="M112.54,-552.57C111.59,-541.56 110.45,-528.24 109.41,-516.21"/>
<polygon fill="#59687e" stroke="#59687e" stroke-width="1.3" points="112.22,-516.19 108.75,-508.46 106.64,-516.67 112.22,-516.19"/>
</g>
<!-- pipe -->
<g id="node8" class="node">
<title>pipe</title>
<path fill="#ffffff" stroke="#bac7db" stroke-width="1.4" d="M269.42,-411.04C269.42,-411.04 99.7,-411.04 99.7,-411.04 93.7,-411.04 87.7,-405.04 87.7,-399.04 87.7,-399.04 87.7,-375.04 87.7,-375.04 87.7,-369.04 93.7,-363.04 99.7,-363.04 99.7,-363.04 269.42,-363.04 269.42,-363.04 275.42,-363.04 281.42,-369.04 281.42,-375.04 281.42,-375.04 281.42,-399.04 281.42,-399.04 281.42,-405.04 275.42,-411.04 269.42,-411.04"/>
<text xml:space="preserve" text-anchor="middle" x="184.56" y="-391.24" font-family="Noto Sans CJK KR" font-size="14.00" fill="#182033">CalculationPipeline&#13;</text>
<text xml:space="preserve" text-anchor="middle" x="184.56" y="-374.44" font-family="Noto Sans CJK KR" font-size="14.00" fill="#182033">collect · filter · sort modifiers</text>
</g>
<!-- query&#45;&gt;pipe -->
<g id="edge7" class="edge">
<title>query&#45;&gt;pipe</title>
<path fill="none" stroke="#59687e" stroke-width="1.3" d="M126.24,-457.57C136.03,-445.9 148,-431.63 158.54,-419.07"/>
<polygon fill="#59687e" stroke="#59687e" stroke-width="1.3" points="160.62,-420.94 163.62,-413.01 156.33,-417.34 160.62,-420.94"/>
</g>
<!-- pipe&#45;&gt;reg -->
<g id="edge12" class="edge">
<title>pipe&#45;&gt;reg</title>
<path fill="none" stroke="#59687e" stroke-width="1.3" stroke-dasharray="5,2" d="M220.36,-411.66C240.87,-428.28 262.56,-452.59 262.56,-481.04 262.56,-673.04 262.56,-673.04 262.56,-673.04 262.56,-697.19 247.43,-719.25 231.45,-735.82"/>
<polygon fill="#59687e" stroke="#59687e" stroke-width="1.3" points="229.72,-733.58 225.99,-741.19 233.65,-737.57 229.72,-733.58"/>
<text xml:space="preserve" text-anchor="middle" x="319.9" y="-572.84" font-family="Noto Sans CJK KR" font-size="14.00" fill="#46566e">applicable modifiers</text>
</g>
<!-- result -->
<g id="node9" class="node">
<title>result</title>
<path fill="#eefbf6" stroke="#5ac39b" stroke-width="1.4" d="M252.36,-316.04C252.36,-316.04 116.76,-316.04 116.76,-316.04 110.76,-316.04 104.76,-310.04 104.76,-304.04 104.76,-304.04 104.76,-280.04 104.76,-280.04 104.76,-274.04 110.76,-268.04 116.76,-268.04 116.76,-268.04 252.36,-268.04 252.36,-268.04 258.36,-268.04 264.36,-274.04 264.36,-280.04 264.36,-280.04 264.36,-304.04 264.36,-304.04 264.36,-310.04 258.36,-316.04 252.36,-316.04"/>
<text xml:space="preserve" text-anchor="middle" x="184.56" y="-296.24" font-family="Noto Sans CJK KR" font-size="14.00" fill="#182033">StatValue&#13;</text>
<text xml:space="preserve" text-anchor="middle" x="184.56" y="-279.44" font-family="Noto Sans CJK KR" font-size="14.00" fill="#182033">final value + breakdown</text>
</g>
<!-- pipe&#45;&gt;result -->
<g id="edge8" class="edge">
<title>pipe&#45;&gt;result</title>
<path fill="none" stroke="#59687e" stroke-width="1.3" d="M184.56,-362.57C184.56,-351.56 184.56,-338.24 184.56,-326.21"/>
<polygon fill="#59687e" stroke="#59687e" stroke-width="1.3" points="187.36,-326.47 184.56,-318.47 181.76,-326.47 187.36,-326.47"/>
</g>
<!-- event2 -->
<g id="node10" class="node">
<title>event2</title>
<path fill="#f8fafc" stroke="#bac7db" stroke-width="1.4" d="M278.37,-221.04C278.37,-221.04 90.75,-221.04 90.75,-221.04 84.75,-221.04 78.75,-215.04 78.75,-209.04 78.75,-209.04 78.75,-185.04 78.75,-185.04 78.75,-179.04 84.75,-173.04 90.75,-173.04 90.75,-173.04 278.37,-173.04 278.37,-173.04 284.37,-173.04 290.37,-179.04 290.37,-185.04 290.37,-185.04 290.37,-209.04 290.37,-209.04 290.37,-215.04 284.37,-221.04 278.37,-221.04"/>
<text xml:space="preserve" text-anchor="middle" x="184.56" y="-201.24" font-family="Noto Sans CJK KR" font-size="14.00" fill="#182033">EventBus&#13;</text>
<text xml:space="preserve" text-anchor="middle" x="184.56" y="-184.44" font-family="Noto Sans CJK KR" font-size="14.00" fill="#182033"> Publish(StatChanged) if changed</text>
</g>
<!-- result&#45;&gt;event2 -->
<g id="edge9" class="edge">
<title>result&#45;&gt;event2</title>
<path fill="none" stroke="#59687e" stroke-width="1.3" d="M184.56,-267.57C184.56,-256.56 184.56,-243.24 184.56,-231.21"/>
<polygon fill="#59687e" stroke="#59687e" stroke-width="1.3" points="187.36,-231.47 184.56,-223.47 181.76,-231.47 187.36,-231.47"/>
</g>
<!-- cache -->
<g id="node11" class="node">
<title>cache</title>
<path fill="#f4efff" stroke="#a884e8" stroke-width="1.4" d="M267.27,-126.04C267.27,-126.04 101.85,-126.04 101.85,-126.04 95.85,-126.04 89.85,-120.04 89.85,-114.04 89.85,-114.04 89.85,-90.04 89.85,-90.04 89.85,-84.04 95.85,-78.04 101.85,-78.04 101.85,-78.04 267.27,-78.04 267.27,-78.04 273.27,-78.04 279.27,-84.04 279.27,-90.04 279.27,-90.04 279.27,-114.04 279.27,-114.04 279.27,-120.04 273.27,-126.04 267.27,-126.04"/>
<text xml:space="preserve" text-anchor="middle" x="184.56" y="-106.24" font-family="Noto Sans CJK KR" font-size="14.00" fill="#182033">UI / Combat&#13;</text>
<text xml:space="preserve" text-anchor="middle" x="184.56" y="-89.44" font-family="Noto Sans CJK KR" font-size="14.00" fill="#182033">refresh tooltip / combat cache</text>
</g>
<!-- event2&#45;&gt;cache -->
<g id="edge10" class="edge">
<title>event2&#45;&gt;cache</title>
<path fill="none" stroke="#59687e" stroke-width="1.3" d="M184.56,-172.57C184.56,-161.56 184.56,-148.24 184.56,-136.21"/>
<polygon fill="#59687e" stroke="#59687e" stroke-width="1.3" points="187.36,-136.47 184.56,-128.47 181.76,-136.47 187.36,-136.47"/>
</g>
<!-- end -->
<g id="node12" class="node">
<title>end</title>
<ellipse fill="#ffffff" stroke="#182033" stroke-width="1.4" cx="184.56" cy="-15.52" rx="11.52" ry="11.52"/>
<ellipse fill="none" stroke="#182033" stroke-width="1.4" cx="184.56" cy="-15.52" rx="15.52" ry="15.52"/>
</g>
<!-- cache&#45;&gt;end -->
<g id="edge11" class="edge">
<title>cache&#45;&gt;end</title>
<path fill="none" stroke="#59687e" stroke-width="1.3" d="M184.56,-77.5C184.56,-66.28 184.56,-52.85 184.56,-41.46"/>
<polygon fill="#59687e" stroke="#59687e" stroke-width="1.3" points="187.36,-41.66 184.56,-33.66 181.76,-41.66 187.36,-41.66"/>
</g>
</g>
</svg>
