<?xml version="1.0" encoding="UTF-8" standalone="no"?>
<!DOCTYPE svg PUBLIC "-//W3C//DTD SVG 1.1//EN"
 "http://www.w3.org/Graphics/SVG/1.1/DTD/svg11.dtd">
<!-- Generated by graphviz version 15.1.0 (20260618.0150)
 -->
<!-- Title: G Pages: 1 -->
<svg width="718pt" height="1141pt"
 viewBox="12.00 12.00 707.00 1130.00" xmlns="http://www.w3.org/2000/svg" xmlns:xlink="http://www.w3.org/1999/xlink">
<g id="graph0" class="graph" transform="scale(1.33333 1.33333) rotate(0) translate(26.64 829.2)">
<title>G</title>
<polygon fill="#ffffff" stroke="none" points="-18,18 -18,-820.56 503.41,-820.56 503.41,18 -18,18"/>
<!-- start -->
<g id="node1" class="node">
<title>start</title>
<ellipse fill="#182033" stroke="#182033" stroke-width="1.4" cx="242.14" cy="-793.2" rx="9.36" ry="9.36"/>
</g>
<!-- status -->
<g id="node2" class="node">
<title>status</title>
<path fill="#eefbf6" stroke="#5ac39b" stroke-width="1.4" d="M320.41,-736.84C320.41,-736.84 163.88,-736.84 163.88,-736.84 157.88,-736.84 151.88,-730.84 151.88,-724.84 151.88,-724.84 151.88,-682.69 151.88,-682.69 151.88,-676.69 157.88,-670.69 163.88,-670.69 163.88,-670.69 320.41,-670.69 320.41,-670.69 326.41,-670.69 332.41,-676.69 332.41,-682.69 332.41,-682.69 332.41,-724.84 332.41,-724.84 332.41,-730.84 326.41,-736.84 320.41,-736.84"/>
<text xml:space="preserve" text-anchor="middle" x="242.14" y="-716.34" font-family="Noto Sans KR" font-size="14.00" fill="#182033">StatusSystem</text>
<text xml:space="preserve" text-anchor="middle" x="242.14" y="-699.09" font-family="Noto Sans KR" font-size="14.00" fill="#182033">Build AddModifier plan</text>
<text xml:space="preserve" text-anchor="middle" x="242.14" y="-681.84" font-family="Noto Sans KR" font-size="14.00" fill="#182033">source = StatusInstanceId</text>
</g>
<!-- start&#45;&gt;status -->
<g id="edge1" class="edge">
<title>start&#45;&gt;status</title>
<path fill="none" stroke="#59687e" stroke-width="1.3" d="M242.14,-783.17C242.14,-774.46 242.14,-760.63 242.14,-747"/>
<polygon fill="#59687e" stroke="#59687e" stroke-width="1.3" points="244.95,-747.14 242.15,-739.14 239.35,-747.14 244.95,-747.14"/>
</g>
<!-- commit -->
<g id="node3" class="node">
<title>commit</title>
<path fill="#eaf0ff" stroke="#8292f7" stroke-width="1.4" d="M357.16,-623.69C357.16,-623.69 127.12,-623.69 127.12,-623.69 121.12,-623.69 115.12,-617.69 115.12,-611.69 115.12,-611.69 115.12,-569.54 115.12,-569.54 115.12,-563.54 121.12,-557.54 127.12,-557.54 127.12,-557.54 357.16,-557.54 357.16,-557.54 363.16,-557.54 369.16,-563.54 369.16,-569.54 369.16,-569.54 369.16,-611.69 369.16,-611.69 369.16,-617.69 363.16,-623.69 357.16,-623.69"/>
<text xml:space="preserve" text-anchor="middle" x="242.14" y="-603.19" font-family="Noto Sans KR" font-size="14.00" fill="#182033">RuntimeCommitter</text>
<text xml:space="preserve" text-anchor="middle" x="242.14" y="-585.94" font-family="Noto Sans KR" font-size="14.00" fill="#182033">ModifierRegistry + dirty state + outbox</text>
<text xml:space="preserve" text-anchor="middle" x="242.14" y="-568.69" font-family="Noto Sans KR" font-size="14.00" fill="#182033">atomic commit</text>
</g>
<!-- status&#45;&gt;commit -->
<g id="edge2" class="edge">
<title>status&#45;&gt;commit</title>
<path fill="none" stroke="#59687e" stroke-width="1.3" d="M242.14,-670.02C242.14,-658.71 242.14,-645.88 242.14,-633.92"/>
<polygon fill="#59687e" stroke="#59687e" stroke-width="1.3" points="244.95,-634.1 242.15,-626.1 239.35,-634.1 244.95,-634.1"/>
</g>
<!-- event -->
<g id="node4" class="node">
<title>event</title>
<path fill="#f8fafc" stroke="#bac7db" stroke-width="1.4" d="M249.79,-510.54C249.79,-510.54 68.5,-510.54 68.5,-510.54 62.5,-510.54 56.5,-504.54 56.5,-498.54 56.5,-498.54 56.5,-473.64 56.5,-473.64 56.5,-467.64 62.5,-461.64 68.5,-461.64 68.5,-461.64 249.79,-461.64 249.79,-461.64 255.79,-461.64 261.79,-467.64 261.79,-473.64 261.79,-473.64 261.79,-498.54 261.79,-498.54 261.79,-504.54 255.79,-510.54 249.79,-510.54"/>
<text xml:space="preserve" text-anchor="middle" x="159.14" y="-490.04" font-family="Noto Sans KR" font-size="14.00" fill="#182033">Committed facts dispatch</text>
<text xml:space="preserve" text-anchor="middle" x="159.14" y="-472.79" font-family="Noto Sans KR" font-size="14.00" fill="#182033">ModifierAdded / StatChanged</text>
</g>
<!-- commit&#45;&gt;event -->
<g id="edge3" class="edge">
<title>commit&#45;&gt;event</title>
<path fill="none" stroke="#59687e" stroke-width="1.3" d="M215.66,-556.89C205.77,-544.68 194.57,-530.85 184.77,-518.74"/>
<polygon fill="#59687e" stroke="#59687e" stroke-width="1.3" points="187,-517.05 179.79,-512.59 182.65,-520.57 187,-517.05"/>
</g>
<!-- query -->
<g id="node5" class="node">
<title>query</title>
<path fill="#f4efff" stroke="#a884e8" stroke-width="1.4" d="M429.54,-414.64C429.54,-414.64 222.75,-414.64 222.75,-414.64 216.75,-414.64 210.75,-408.64 210.75,-402.64 210.75,-402.64 210.75,-377.74 210.75,-377.74 210.75,-371.74 216.75,-365.74 222.75,-365.74 222.75,-365.74 429.54,-365.74 429.54,-365.74 435.54,-365.74 441.54,-371.74 441.54,-377.74 441.54,-377.74 441.54,-402.64 441.54,-402.64 441.54,-408.64 435.54,-414.64 429.54,-414.64"/>
<text xml:space="preserve" text-anchor="middle" x="326.14" y="-394.14" font-family="Noto Sans KR" font-size="14.00" fill="#182033">UI / Combat</text>
<text xml:space="preserve" text-anchor="middle" x="326.14" y="-376.89" font-family="Noto Sans KR" font-size="14.00" fill="#182033">GetValue(ownerId, statId, context)</text>
</g>
<!-- commit&#45;&gt;query -->
<g id="edge9" class="edge">
<title>commit&#45;&gt;query</title>
<path fill="none" stroke="#59687e" stroke-width="1.3" stroke-dasharray="5,2" d="M257.36,-557.06C263.91,-542.84 271.55,-525.93 278.14,-510.54 290.57,-481.54 303.9,-448.21 313.35,-424.15"/>
<polygon fill="#59687e" stroke="#59687e" stroke-width="1.3" points="315.87,-425.4 316.18,-416.93 310.65,-423.36 315.87,-425.4"/>
<text xml:space="preserve" text-anchor="middle" x="341.21" y="-481.41" font-family="Noto Sans KR" font-size="14.00" fill="#46566e">new snapshot</text>
</g>
<!-- event&#45;&gt;query -->
<g id="edge4" class="edge">
<title>event&#45;&gt;query</title>
<path fill="none" stroke="#59687e" stroke-width="1.3" d="M201.72,-461.15C224.01,-448.62 251.47,-433.18 274.92,-419.99"/>
<polygon fill="#59687e" stroke="#59687e" stroke-width="1.3" points="276.04,-422.57 281.64,-416.21 273.3,-417.69 276.04,-422.57"/>
</g>
<!-- observe -->
<g id="node8" class="node">
<title>observe</title>
<path fill="#f4efff" stroke="#a884e8" stroke-width="1.4" d="M280.29,-126.94C280.29,-126.94 12,-126.94 12,-126.94 6,-126.94 0,-120.94 0,-114.94 0,-114.94 0,-90.04 0,-90.04 0,-84.04 6,-78.04 12,-78.04 12,-78.04 280.29,-78.04 280.29,-78.04 286.29,-78.04 292.29,-84.04 292.29,-90.04 292.29,-90.04 292.29,-114.94 292.29,-114.94 292.29,-120.94 286.29,-126.94 280.29,-126.94"/>
<text xml:space="preserve" text-anchor="middle" x="146.14" y="-106.44" font-family="Noto Sans KR" font-size="14.00" fill="#182033">UI refreshes from committed fact</text>
<text xml:space="preserve" text-anchor="middle" x="146.14" y="-89.19" font-family="Noto Sans KR" font-size="14.00" fill="#182033">Combat consumes returned snapshot value</text>
</g>
<!-- event&#45;&gt;observe -->
<g id="edge10" class="edge">
<title>event&#45;&gt;observe</title>
<path fill="none" stroke="#59687e" stroke-width="1.3" stroke-dasharray="5,2" d="M146.13,-461.14C137.27,-442.6 127.14,-415.99 127.14,-391.19 127.14,-391.19 127.14,-391.19 127.14,-197.39 127.14,-177.04 131.48,-154.7 136.02,-136.91"/>
<polygon fill="#59687e" stroke="#59687e" stroke-width="1.3" points="138.65,-137.89 138.02,-129.44 133.24,-136.44 138.65,-137.89"/>
<text xml:space="preserve" text-anchor="middle" x="163.89" y="-289.61" font-family="Noto Sans KR" font-size="14.00" fill="#46566e">observation</text>
</g>
<!-- pipe -->
<g id="node6" class="node">
<title>pipe</title>
<path fill="#ffffff" stroke="#bac7db" stroke-width="1.4" d="M473.41,-318.74C473.41,-318.74 244.88,-318.74 244.88,-318.74 238.88,-318.74 232.88,-312.74 232.88,-306.74 232.88,-306.74 232.88,-281.84 232.88,-281.84 232.88,-275.84 238.88,-269.84 244.88,-269.84 244.88,-269.84 473.41,-269.84 473.41,-269.84 479.41,-269.84 485.41,-275.84 485.41,-281.84 485.41,-281.84 485.41,-306.74 485.41,-306.74 485.41,-312.74 479.41,-318.74 473.41,-318.74"/>
<text xml:space="preserve" text-anchor="middle" x="359.14" y="-298.24" font-family="Noto Sans KR" font-size="14.00" fill="#182033">CalculationPipeline (pure query)</text>
<text xml:space="preserve" text-anchor="middle" x="359.14" y="-280.99" font-family="Noto Sans KR" font-size="14.00" fill="#182033">collect · filter · stable sort · calculate</text>
</g>
<!-- query&#45;&gt;pipe -->
<g id="edge5" class="edge">
<title>query&#45;&gt;pipe</title>
<path fill="none" stroke="#59687e" stroke-width="1.3" d="M334.47,-365.5C338.39,-354.35 343.13,-340.86 347.4,-328.7"/>
<polygon fill="#59687e" stroke="#59687e" stroke-width="1.3" points="350.04,-329.64 350.05,-321.16 344.76,-327.78 350.04,-329.64"/>
</g>
<!-- result -->
<g id="node7" class="node">
<title>result</title>
<path fill="#eefbf6" stroke="#5ac39b" stroke-width="1.4" d="M410.16,-222.84C410.16,-222.84 228.12,-222.84 228.12,-222.84 222.12,-222.84 216.12,-216.84 216.12,-210.84 216.12,-210.84 216.12,-185.94 216.12,-185.94 216.12,-179.94 222.12,-173.94 228.12,-173.94 228.12,-173.94 410.16,-173.94 410.16,-173.94 416.16,-173.94 422.16,-179.94 422.16,-185.94 422.16,-185.94 422.16,-210.84 422.16,-210.84 422.16,-216.84 416.16,-222.84 410.16,-222.84"/>
<text xml:space="preserve" text-anchor="middle" x="319.14" y="-202.34" font-family="Noto Sans KR" font-size="14.00" fill="#182033">StatValue + DebugBreakdown</text>
<text xml:space="preserve" text-anchor="middle" x="319.14" y="-185.09" font-family="Noto Sans KR" font-size="14.00" fill="#182033">no domain event</text>
</g>
<!-- pipe&#45;&gt;result -->
<g id="edge6" class="edge">
<title>pipe&#45;&gt;result</title>
<path fill="none" stroke="#59687e" stroke-width="1.3" d="M349.05,-269.6C344.26,-258.34 338.44,-244.7 333.22,-232.44"/>
<polygon fill="#59687e" stroke="#59687e" stroke-width="1.3" points="335.86,-231.48 330.15,-225.21 330.71,-233.67 335.86,-231.48"/>
</g>
<!-- result&#45;&gt;observe -->
<g id="edge7" class="edge">
<title>result&#45;&gt;observe</title>
<path fill="none" stroke="#59687e" stroke-width="1.3" d="M275.04,-173.45C251.95,-160.92 223.5,-145.48 199.21,-132.29"/>
<polygon fill="#59687e" stroke="#59687e" stroke-width="1.3" points="200.56,-129.84 192.2,-128.49 197.89,-134.76 200.56,-129.84"/>
</g>
<!-- end -->
<g id="node9" class="node">
<title>end</title>
<ellipse fill="#ffffff" stroke="#182033" stroke-width="1.4" cx="146.14" cy="-15.52" rx="11.52" ry="11.52"/>
<ellipse fill="none" stroke="#182033" stroke-width="1.4" cx="146.14" cy="-15.52" rx="15.52" ry="15.52"/>
</g>
<!-- observe&#45;&gt;end -->
<g id="edge8" class="edge">
<title>observe&#45;&gt;end</title>
<path fill="none" stroke="#59687e" stroke-width="1.3" d="M146.14,-77.37C146.14,-66.1 146.14,-52.69 146.14,-41.34"/>
<polygon fill="#59687e" stroke="#59687e" stroke-width="1.3" points="148.95,-41.57 146.15,-33.57 143.35,-41.57 148.95,-41.57"/>
</g>
</g>
</svg>
