<?xml version="1.0" encoding="UTF-8" standalone="no"?>
<!DOCTYPE svg PUBLIC "-//W3C//DTD SVG 1.1//EN"
 "http://www.w3.org/Graphics/SVG/1.1/DTD/svg11.dtd">
<!-- Generated by graphviz version 2.42.4 (0)
 -->
<!-- Title: DataModelDiagram Pages: 1 -->
<svg width="979pt" height="727pt"
 viewBox="0.00 0.00 979.00 726.50" xmlns="http://www.w3.org/2000/svg" xmlns:xlink="http://www.w3.org/1999/xlink">
<g id="graph0" class="graph" transform="scale(1 1) rotate(0) translate(4 722.5)">
<title>DataModelDiagram</title>
<polygon fill="white" stroke="transparent" points="-4,4 -4,-722.5 975,-722.5 975,4 -4,4"/>
<text text-anchor="middle" x="485.5" y="-700.1" font-family="Noto Sans CJK KR" font-size="18.00">UML Data Model Diagram &#45; Definition Data and Runtime State</text>
<!-- StatDefinitionData -->
<g id="node1" class="node">
<title>StatDefinitionData</title>
<polygon fill="#fff3cd" stroke="transparent" points="848.5,-356 848.5,-383 971.5,-383 971.5,-356 848.5,-356"/>
<polygon fill="none" stroke="#3b4a5a" points="848.5,-356 848.5,-383 971.5,-383 971.5,-356 848.5,-356"/>
<text text-anchor="start" x="855.5" y="-367.4" font-family="Noto Sans CJK KR" font-weight="bold" font-size="12.00">StatDefinitionData</text>
<polygon fill="none" stroke="#3b4a5a" points="848.5,-331 848.5,-356 971.5,-356 971.5,-331 848.5,-331"/>
<text text-anchor="start" x="855.5" y="-341" font-family="Noto Sans CJK KR" font-size="10.00">statId PK</text>
<polygon fill="none" stroke="#3b4a5a" points="848.5,-306 848.5,-331 971.5,-331 971.5,-306 848.5,-306"/>
<text text-anchor="start" x="855.5" y="-316" font-family="Noto Sans CJK KR" font-size="10.00">name</text>
<polygon fill="none" stroke="#3b4a5a" points="848.5,-281 848.5,-306 971.5,-306 971.5,-281 848.5,-281"/>
<text text-anchor="start" x="855.5" y="-291" font-family="Noto Sans CJK KR" font-size="10.00">default/min/max</text>
<polygon fill="none" stroke="#3b4a5a" points="848.5,-256 848.5,-281 971.5,-281 971.5,-256 848.5,-256"/>
<text text-anchor="start" x="855.5" y="-266" font-family="Noto Sans CJK KR" font-size="10.00">valueType</text>
<polygon fill="none" stroke="#3b4a5a" points="848.5,-231 848.5,-256 971.5,-256 971.5,-231 848.5,-231"/>
<text text-anchor="start" x="855.5" y="-241" font-family="Noto Sans CJK KR" font-size="10.00">displayFormat</text>
<polygon fill="none" stroke="#3b4a5a" points="848.5,-206 848.5,-231 971.5,-231 971.5,-206 848.5,-206"/>
<text text-anchor="start" x="855.5" y="-216" font-family="Noto Sans CJK KR" font-size="10.00"> </text>
</g>
<!-- DerivedFormulaData -->
<g id="node2" class="node">
<title>DerivedFormulaData</title>
<polygon fill="#fff3cd" stroke="transparent" points="541.5,-561 541.5,-588 676.5,-588 676.5,-561 541.5,-561"/>
<polygon fill="none" stroke="#3b4a5a" points="541.5,-561 541.5,-588 676.5,-588 676.5,-561 541.5,-561"/>
<text text-anchor="start" x="548.5" y="-572.4" font-family="Noto Sans CJK KR" font-weight="bold" font-size="12.00">DerivedFormulaData</text>
<polygon fill="none" stroke="#3b4a5a" points="541.5,-536 541.5,-561 676.5,-561 676.5,-536 541.5,-536"/>
<text text-anchor="start" x="548.5" y="-546" font-family="Noto Sans CJK KR" font-size="10.00">statId FK</text>
<polygon fill="none" stroke="#3b4a5a" points="541.5,-511 541.5,-536 676.5,-536 676.5,-511 541.5,-511"/>
<text text-anchor="start" x="548.5" y="-521" font-family="Noto Sans CJK KR" font-size="10.00">formulaId</text>
<polygon fill="none" stroke="#3b4a5a" points="541.5,-486 541.5,-511 676.5,-511 676.5,-486 541.5,-486"/>
<text text-anchor="start" x="548.5" y="-496" font-family="Noto Sans CJK KR" font-size="10.00">dependencyStatIds[]</text>
<polygon fill="none" stroke="#3b4a5a" points="541.5,-461 541.5,-486 676.5,-486 676.5,-461 541.5,-461"/>
<text text-anchor="start" x="548.5" y="-471" font-family="Noto Sans CJK KR" font-size="10.00">cachePolicy</text>
<polygon fill="none" stroke="#3b4a5a" points="541.5,-436 541.5,-461 676.5,-461 676.5,-436 541.5,-436"/>
<text text-anchor="start" x="548.5" y="-446" font-family="Noto Sans CJK KR" font-size="10.00"> </text>
</g>
<!-- DerivedFormulaData&#45;&gt;StatDefinitionData -->
<g id="edge1" class="edge">
<title>DerivedFormulaData&#45;&gt;StatDefinitionData</title>
<path fill="none" stroke="#425466" d="M676.16,-512C765.05,-512 910,-512 910,-512 910,-512 910,-391.58 910,-391.58"/>
<polygon fill="#425466" stroke="#425466" points="912.8,-391.58 910,-383.58 907.2,-391.58 912.8,-391.58"/>
<text text-anchor="middle" x="765.5" y="-515" font-family="Noto Sans CJK KR" font-size="10.00">extends stat definition</text>
</g>
<!-- ModifierDefinitionData -->
<g id="node3" class="node">
<title>ModifierDefinitionData</title>
<polygon fill="#dff7e4" stroke="transparent" points="534.5,-369 534.5,-396 683.5,-396 683.5,-369 534.5,-369"/>
<polygon fill="none" stroke="#3b4a5a" points="534.5,-369 534.5,-396 683.5,-396 683.5,-369 534.5,-369"/>
<text text-anchor="start" x="541.5" y="-380.4" font-family="Noto Sans CJK KR" font-weight="bold" font-size="12.00">ModifierDefinitionData</text>
<polygon fill="none" stroke="#3b4a5a" points="534.5,-344 534.5,-369 683.5,-369 683.5,-344 534.5,-344"/>
<text text-anchor="start" x="541.5" y="-354" font-family="Noto Sans CJK KR" font-size="10.00">modifierId PK</text>
<polygon fill="none" stroke="#3b4a5a" points="534.5,-319 534.5,-344 683.5,-344 683.5,-319 534.5,-319"/>
<text text-anchor="start" x="541.5" y="-329" font-family="Noto Sans CJK KR" font-size="10.00">targetStatId FK</text>
<polygon fill="none" stroke="#3b4a5a" points="534.5,-294 534.5,-319 683.5,-319 683.5,-294 534.5,-294"/>
<text text-anchor="start" x="541.5" y="-304" font-family="Noto Sans CJK KR" font-size="10.00">operation</text>
<polygon fill="none" stroke="#3b4a5a" points="534.5,-269 534.5,-294 683.5,-294 683.5,-269 534.5,-269"/>
<text text-anchor="start" x="541.5" y="-279" font-family="Noto Sans CJK KR" font-size="10.00">valueExpression</text>
<polygon fill="none" stroke="#3b4a5a" points="534.5,-244 534.5,-269 683.5,-269 683.5,-244 534.5,-244"/>
<text text-anchor="start" x="541.5" y="-254" font-family="Noto Sans CJK KR" font-size="10.00">stackRule</text>
<polygon fill="none" stroke="#3b4a5a" points="534.5,-219 534.5,-244 683.5,-244 683.5,-219 534.5,-219"/>
<text text-anchor="start" x="541.5" y="-229" font-family="Noto Sans CJK KR" font-size="10.00">conditionIds[]</text>
<polygon fill="none" stroke="#3b4a5a" points="534.5,-194 534.5,-219 683.5,-219 683.5,-194 534.5,-194"/>
<text text-anchor="start" x="541.5" y="-204" font-family="Noto Sans CJK KR" font-size="10.00"> </text>
</g>
<!-- ModifierDefinitionData&#45;&gt;StatDefinitionData -->
<g id="edge2" class="edge">
<title>ModifierDefinitionData&#45;&gt;StatDefinitionData</title>
<path fill="none" stroke="#425466" d="M683.29,-295C683.29,-295 839.77,-295 839.77,-295"/>
<polygon fill="#425466" stroke="#425466" points="839.77,-297.8 847.77,-295 839.77,-292.2 839.77,-297.8"/>
<text text-anchor="middle" x="765.5" y="-298" font-family="Noto Sans CJK KR" font-size="10.00">targets</text>
</g>
<!-- StatusDefinitionData -->
<g id="node4" class="node">
<title>StatusDefinitionData</title>
<polygon fill="#fce8e6" stroke="transparent" points="253,-446 253,-473 389,-473 389,-446 253,-446"/>
<polygon fill="none" stroke="#3b4a5a" points="253,-446 253,-473 389,-473 389,-446 253,-446"/>
<text text-anchor="start" x="260" y="-457.4" font-family="Noto Sans CJK KR" font-weight="bold" font-size="12.00">StatusDefinitionData</text>
<polygon fill="none" stroke="#3b4a5a" points="253,-421 253,-446 389,-446 389,-421 253,-421"/>
<text text-anchor="start" x="260" y="-431" font-family="Noto Sans CJK KR" font-size="10.00">statusId PK</text>
<polygon fill="none" stroke="#3b4a5a" points="253,-396 253,-421 389,-421 389,-396 253,-396"/>
<text text-anchor="start" x="260" y="-406" font-family="Noto Sans CJK KR" font-size="10.00">duration</text>
<polygon fill="none" stroke="#3b4a5a" points="253,-371 253,-396 389,-396 389,-371 253,-371"/>
<text text-anchor="start" x="260" y="-381" font-family="Noto Sans CJK KR" font-size="10.00">tickPolicy</text>
<polygon fill="none" stroke="#3b4a5a" points="253,-346 253,-371 389,-371 389,-346 253,-346"/>
<text text-anchor="start" x="260" y="-356" font-family="Noto Sans CJK KR" font-size="10.00">modifierIds[]</text>
<polygon fill="none" stroke="#3b4a5a" points="253,-321 253,-346 389,-346 389,-321 253,-321"/>
<text text-anchor="start" x="260" y="-331" font-family="Noto Sans CJK KR" font-size="10.00">periodicEffectIds[]</text>
<polygon fill="none" stroke="#3b4a5a" points="253,-296 253,-321 389,-321 389,-296 253,-296"/>
<text text-anchor="start" x="260" y="-306" font-family="Noto Sans CJK KR" font-size="10.00"> </text>
</g>
<!-- StatusDefinitionData&#45;&gt;ModifierDefinitionData -->
<g id="edge3" class="edge">
<title>StatusDefinitionData&#45;&gt;ModifierDefinitionData</title>
<path fill="none" stroke="#425466" d="M389.13,-346.25C389.13,-346.25 525.79,-346.25 525.79,-346.25"/>
<polygon fill="#425466" stroke="#425466" points="525.79,-349.05 533.79,-346.25 525.79,-343.45 525.79,-349.05"/>
<text text-anchor="middle" x="463.5" y="-388" font-family="Noto Sans CJK KR" font-size="10.00">contains 0..*</text>
</g>
<!-- ItemDefinitionData -->
<g id="node5" class="node">
<title>ItemDefinitionData</title>
<polygon fill="#fce8e6" stroke="transparent" points="258,-229 258,-256 384,-256 384,-229 258,-229"/>
<polygon fill="none" stroke="#3b4a5a" points="258,-229 258,-256 384,-256 384,-229 258,-229"/>
<text text-anchor="start" x="265" y="-240.4" font-family="Noto Sans CJK KR" font-weight="bold" font-size="12.00">ItemDefinitionData</text>
<polygon fill="none" stroke="#3b4a5a" points="258,-204 258,-229 384,-229 384,-204 258,-204"/>
<text text-anchor="start" x="265" y="-214" font-family="Noto Sans CJK KR" font-size="10.00">itemId PK</text>
<polygon fill="none" stroke="#3b4a5a" points="258,-179 258,-204 384,-204 384,-179 258,-179"/>
<text text-anchor="start" x="265" y="-189" font-family="Noto Sans CJK KR" font-size="10.00">slot</text>
<polygon fill="none" stroke="#3b4a5a" points="258,-154 258,-179 384,-179 384,-154 258,-154"/>
<text text-anchor="start" x="265" y="-164" font-family="Noto Sans CJK KR" font-size="10.00">modifierIds[]</text>
<polygon fill="none" stroke="#3b4a5a" points="258,-129 258,-154 384,-154 384,-129 258,-129"/>
<text text-anchor="start" x="265" y="-139" font-family="Noto Sans CJK KR" font-size="10.00">tags[]</text>
<polygon fill="none" stroke="#3b4a5a" points="258,-104 258,-129 384,-129 384,-104 258,-104"/>
<text text-anchor="start" x="265" y="-114" font-family="Noto Sans CJK KR" font-size="10.00"> </text>
</g>
<!-- ItemDefinitionData&#45;&gt;ModifierDefinitionData -->
<g id="edge4" class="edge">
<title>ItemDefinitionData&#45;&gt;ModifierDefinitionData</title>
<path fill="none" stroke="#425466" d="M384.09,-225C384.09,-225 525.84,-225 525.84,-225"/>
<polygon fill="#425466" stroke="#425466" points="525.84,-227.8 533.84,-225 525.84,-222.2 525.84,-227.8"/>
<text text-anchor="middle" x="463.5" y="-183" font-family="Noto Sans CJK KR" font-size="10.00">grants 0..*</text>
</g>
<!-- StatRuntimeState -->
<g id="node6" class="node">
<title>StatRuntimeState</title>
<polygon fill="#e8f0fe" stroke="transparent" points="0.5,-125 0.5,-152 117.5,-152 117.5,-125 0.5,-125"/>
<polygon fill="none" stroke="#3b4a5a" points="0.5,-125 0.5,-152 117.5,-152 117.5,-125 0.5,-125"/>
<text text-anchor="start" x="7.5" y="-136.4" font-family="Noto Sans CJK KR" font-weight="bold" font-size="12.00">StatRuntimeState</text>
<polygon fill="none" stroke="#3b4a5a" points="0.5,-100 0.5,-125 117.5,-125 117.5,-100 0.5,-100"/>
<text text-anchor="start" x="7.5" y="-110" font-family="Noto Sans CJK KR" font-size="10.00">ownerId PK</text>
<polygon fill="none" stroke="#3b4a5a" points="0.5,-75 0.5,-100 117.5,-100 117.5,-75 0.5,-75"/>
<text text-anchor="start" x="7.5" y="-85" font-family="Noto Sans CJK KR" font-size="10.00">baseValues</text>
<polygon fill="none" stroke="#3b4a5a" points="0.5,-50 0.5,-75 117.5,-75 117.5,-50 0.5,-50"/>
<text text-anchor="start" x="7.5" y="-60" font-family="Noto Sans CJK KR" font-size="10.00">currentResources</text>
<polygon fill="none" stroke="#3b4a5a" points="0.5,-25 0.5,-50 117.5,-50 117.5,-25 0.5,-25"/>
<text text-anchor="start" x="7.5" y="-35" font-family="Noto Sans CJK KR" font-size="10.00">activeModifierStates[]</text>
<polygon fill="none" stroke="#3b4a5a" points="0.5,0 0.5,-25 117.5,-25 117.5,0 0.5,0"/>
<text text-anchor="start" x="7.5" y="-10" font-family="Noto Sans CJK KR" font-size="10.00"> </text>
</g>
<!-- StatRuntimeState&#45;&gt;StatDefinitionData -->
<g id="edge5" class="edge">
<title>StatRuntimeState&#45;&gt;StatDefinitionData</title>
<path fill="none" stroke="#425466" d="M117.03,-52C309.41,-52 910,-52 910,-52 910,-52 910,-198.24 910,-198.24"/>
<polygon fill="#425466" stroke="#425466" points="907.2,-198.24 910,-206.24 912.8,-198.24 907.2,-198.24"/>
<text text-anchor="middle" x="463.5" y="-46" font-family="Noto Sans CJK KR" font-size="10.00">references values</text>
</g>
<!-- ModifierRuntimeState -->
<g id="node7" class="node">
<title>ModifierRuntimeState</title>
<polygon fill="#e8f0fe" stroke="transparent" points="249,-663 249,-690 393,-690 393,-663 249,-663"/>
<polygon fill="none" stroke="#3b4a5a" points="249,-663 249,-690 393,-690 393,-663 249,-663"/>
<text text-anchor="start" x="256" y="-674.4" font-family="Noto Sans CJK KR" font-weight="bold" font-size="12.00">ModifierRuntimeState</text>
<polygon fill="none" stroke="#3b4a5a" points="249,-638 249,-663 393,-663 393,-638 249,-638"/>
<text text-anchor="start" x="256" y="-648" font-family="Noto Sans CJK KR" font-size="10.00">modifierId FK</text>
<polygon fill="none" stroke="#3b4a5a" points="249,-613 249,-638 393,-638 393,-613 249,-613"/>
<text text-anchor="start" x="256" y="-623" font-family="Noto Sans CJK KR" font-size="10.00">sourceId</text>
<polygon fill="none" stroke="#3b4a5a" points="249,-588 249,-613 393,-613 393,-588 249,-588"/>
<text text-anchor="start" x="256" y="-598" font-family="Noto Sans CJK KR" font-size="10.00">remainingDuration</text>
<polygon fill="none" stroke="#3b4a5a" points="249,-563 249,-588 393,-588 393,-563 249,-563"/>
<text text-anchor="start" x="256" y="-573" font-family="Noto Sans CJK KR" font-size="10.00">stackCount</text>
<polygon fill="none" stroke="#3b4a5a" points="249,-538 249,-563 393,-563 393,-538 249,-538"/>
<text text-anchor="start" x="256" y="-548" font-family="Noto Sans CJK KR" font-size="10.00">enabled</text>
<polygon fill="none" stroke="#3b4a5a" points="249,-513 249,-538 393,-538 393,-513 249,-513"/>
<text text-anchor="start" x="256" y="-523" font-family="Noto Sans CJK KR" font-size="10.00"> </text>
</g>
<!-- StatRuntimeState&#45;&gt;ModifierRuntimeState -->
<g id="edge6" class="edge">
<title>StatRuntimeState&#45;&gt;ModifierRuntimeState</title>
<path fill="none" stroke="#425466" d="M59,-152.2C59,-297.98 59,-602 59,-602 59,-602 240.71,-602 240.71,-602"/>
<polygon fill="#425466" stroke="#425466" points="240.71,-604.8 248.71,-602 240.71,-599.2 240.71,-604.8"/>
<text text-anchor="middle" x="183" y="-358" font-family="Noto Sans CJK KR" font-size="10.00">contains states</text>
</g>
<!-- ModifierRuntimeState&#45;&gt;ModifierDefinitionData -->
<g id="edge7" class="edge">
<title>ModifierRuntimeState&#45;&gt;ModifierDefinitionData</title>
<path fill="none" stroke="#425466" d="M393.26,-550.75C456.38,-550.75 538,-550.75 538,-550.75 538,-550.75 538,-404.08 538,-404.08"/>
<polygon fill="#425466" stroke="#425466" points="540.8,-404.08 538,-396.08 535.2,-404.08 540.8,-404.08"/>
<text text-anchor="middle" x="463.5" y="-524" font-family="Noto Sans CJK KR" font-size="10.00">definition</text>
</g>
</g>
</svg>
