<?xml version="1.0" encoding="UTF-8" standalone="no"?>
<!DOCTYPE svg PUBLIC "-//W3C//DTD SVG 1.1//EN"
 "http://www.w3.org/Graphics/SVG/1.1/DTD/svg11.dtd">
<!-- Generated by graphviz version 15.1.0 (20260618.0150)
 -->
<!-- Title: DataModelDiagram Pages: 1 -->
<svg width="1143pt" height="1115pt"
 viewBox="0.00 0.00 1143.00 1115.00" xmlns="http://www.w3.org/2000/svg" xmlns:xlink="http://www.w3.org/1999/xlink">
<g id="graph0" class="graph" transform="scale(1.33333 1.33333) rotate(0) translate(4 831.88)">
<title>DataModelDiagram</title>
<polygon fill="white" stroke="none" points="-4,4 -4,-831.88 853.5,-831.88 853.5,4 -4,4"/>
<text xml:space="preserve" text-anchor="middle" x="424.75" y="-806.77" font-family="Noto Sans KR" font-size="18.00">UML Data Model Diagram &#45; Definition Data and Runtime State</text>
<!-- StatDefinitionData -->
<g id="node1" class="node">
<title>StatDefinitionData</title>
<polygon fill="#fff3cd" stroke="none" points="740.25,-437.12 740.25,-466.12 849.5,-466.12 849.5,-437.12 740.25,-437.12"/>
<polygon fill="none" stroke="#3b4a5a" points="740.25,-437.12 740.25,-466.12 849.5,-466.12 849.5,-437.12 740.25,-437.12"/>
<text xml:space="preserve" text-anchor="start" x="747.25" y="-448.73" font-family="Noto Sans KR" font-weight="bold" font-size="12.00">StatDefinitionData</text>
<polygon fill="none" stroke="#3b4a5a" points="740.25,-410.38 740.25,-437.12 849.5,-437.12 849.5,-410.38 740.25,-410.38"/>
<text xml:space="preserve" text-anchor="start" x="747.25" y="-419.62" font-family="Noto Sans KR" font-size="10.00">statId PK</text>
<polygon fill="none" stroke="#3b4a5a" points="740.25,-383.62 740.25,-410.38 849.5,-410.38 849.5,-383.62 740.25,-383.62"/>
<text xml:space="preserve" text-anchor="start" x="747.25" y="-392.88" font-family="Noto Sans KR" font-size="10.00">name</text>
<polygon fill="none" stroke="#3b4a5a" points="740.25,-356.88 740.25,-383.62 849.5,-383.62 849.5,-356.88 740.25,-356.88"/>
<text xml:space="preserve" text-anchor="start" x="747.25" y="-366.12" font-family="Noto Sans KR" font-size="10.00">default/min/max</text>
<polygon fill="none" stroke="#3b4a5a" points="740.25,-330.12 740.25,-356.88 849.5,-356.88 849.5,-330.12 740.25,-330.12"/>
<text xml:space="preserve" text-anchor="start" x="747.25" y="-339.38" font-family="Noto Sans KR" font-size="10.00">valueType</text>
<polygon fill="none" stroke="#3b4a5a" points="740.25,-303.38 740.25,-330.12 849.5,-330.12 849.5,-303.38 740.25,-303.38"/>
<text xml:space="preserve" text-anchor="start" x="747.25" y="-312.62" font-family="Noto Sans KR" font-size="10.00">displayFormat</text>
<polygon fill="none" stroke="#3b4a5a" points="740.25,-276.62 740.25,-303.38 849.5,-303.38 849.5,-276.62 740.25,-276.62"/>
<text xml:space="preserve" text-anchor="start" x="747.25" y="-285.88" font-family="Noto Sans KR" font-size="10.00"> </text>
</g>
<!-- DerivedFormulaData -->
<g id="node2" class="node">
<title>DerivedFormulaData</title>
<polygon fill="#fff3cd" stroke="none" points="490,-662.75 490,-691.75 612,-691.75 612,-662.75 490,-662.75"/>
<polygon fill="none" stroke="#3b4a5a" points="490,-662.75 490,-691.75 612,-691.75 612,-662.75 490,-662.75"/>
<text xml:space="preserve" text-anchor="start" x="497" y="-674.35" font-family="Noto Sans KR" font-weight="bold" font-size="12.00">DerivedFormulaData</text>
<polygon fill="none" stroke="#3b4a5a" points="490,-636 490,-662.75 612,-662.75 612,-636 490,-636"/>
<text xml:space="preserve" text-anchor="start" x="497" y="-645.25" font-family="Noto Sans KR" font-size="10.00">statId FK</text>
<polygon fill="none" stroke="#3b4a5a" points="490,-609.25 490,-636 612,-636 612,-609.25 490,-609.25"/>
<text xml:space="preserve" text-anchor="start" x="497" y="-618.5" font-family="Noto Sans KR" font-size="10.00">formulaId</text>
<polygon fill="none" stroke="#3b4a5a" points="490,-582.5 490,-609.25 612,-609.25 612,-582.5 490,-582.5"/>
<text xml:space="preserve" text-anchor="start" x="497" y="-591.75" font-family="Noto Sans KR" font-size="10.00">dependencyStatIds[]</text>
<polygon fill="none" stroke="#3b4a5a" points="490,-555.75 490,-582.5 612,-582.5 612,-555.75 490,-555.75"/>
<text xml:space="preserve" text-anchor="start" x="497" y="-565" font-family="Noto Sans KR" font-size="10.00">cachePolicy</text>
<polygon fill="none" stroke="#3b4a5a" points="490,-529 490,-555.75 612,-555.75 612,-529 490,-529"/>
<text xml:space="preserve" text-anchor="start" x="497" y="-538.25" font-family="Noto Sans KR" font-size="10.00"> </text>
</g>
<!-- DerivedFormulaData&#45;&gt;StatDefinitionData -->
<g id="edge1" class="edge">
<title>DerivedFormulaData&#45;&gt;StatDefinitionData</title>
<path fill="none" stroke="#425466" d="M611.79,-551.3C649.08,-514.45 696.9,-467.2 734.18,-430.36"/>
<polygon fill="#425466" stroke="#425466" points="735.74,-432.76 739.46,-425.14 731.8,-428.77 735.74,-432.76"/>
<text xml:space="preserve" text-anchor="middle" x="678.38" y="-521.18" font-family="Noto Sans KR" font-size="10.00">extends stat</text>
<text xml:space="preserve" text-anchor="middle" x="678.38" y="-508.43" font-family="Noto Sans KR" font-size="10.00">definition</text>
</g>
<!-- ModifierDefinitionData -->
<g id="node3" class="node">
<title>ModifierDefinitionData</title>
<polygon fill="#dff7e4" stroke="none" points="485.5,-450.5 485.5,-479.5 616.5,-479.5 616.5,-450.5 485.5,-450.5"/>
<polygon fill="none" stroke="#3b4a5a" points="485.5,-450.5 485.5,-479.5 616.5,-479.5 616.5,-450.5 485.5,-450.5"/>
<text xml:space="preserve" text-anchor="start" x="492.5" y="-462.1" font-family="Noto Sans KR" font-weight="bold" font-size="12.00">ModifierDefinitionData</text>
<polygon fill="none" stroke="#3b4a5a" points="485.5,-423.75 485.5,-450.5 616.5,-450.5 616.5,-423.75 485.5,-423.75"/>
<text xml:space="preserve" text-anchor="start" x="492.5" y="-433" font-family="Noto Sans KR" font-size="10.00">modifierId PK</text>
<polygon fill="none" stroke="#3b4a5a" points="485.5,-397 485.5,-423.75 616.5,-423.75 616.5,-397 485.5,-397"/>
<text xml:space="preserve" text-anchor="start" x="492.5" y="-406.25" font-family="Noto Sans KR" font-size="10.00">targetStatId FK</text>
<polygon fill="none" stroke="#3b4a5a" points="485.5,-370.25 485.5,-397 616.5,-397 616.5,-370.25 485.5,-370.25"/>
<text xml:space="preserve" text-anchor="start" x="492.5" y="-379.5" font-family="Noto Sans KR" font-size="10.00">operation</text>
<polygon fill="none" stroke="#3b4a5a" points="485.5,-343.5 485.5,-370.25 616.5,-370.25 616.5,-343.5 485.5,-343.5"/>
<text xml:space="preserve" text-anchor="start" x="492.5" y="-352.75" font-family="Noto Sans KR" font-size="10.00">valueExpression</text>
<polygon fill="none" stroke="#3b4a5a" points="485.5,-316.75 485.5,-343.5 616.5,-343.5 616.5,-316.75 485.5,-316.75"/>
<text xml:space="preserve" text-anchor="start" x="492.5" y="-326" font-family="Noto Sans KR" font-size="10.00">stackRule</text>
<polygon fill="none" stroke="#3b4a5a" points="485.5,-290 485.5,-316.75 616.5,-316.75 616.5,-290 485.5,-290"/>
<text xml:space="preserve" text-anchor="start" x="492.5" y="-299.25" font-family="Noto Sans KR" font-size="10.00">conditionIds[]</text>
<polygon fill="none" stroke="#3b4a5a" points="485.5,-263.25 485.5,-290 616.5,-290 616.5,-263.25 485.5,-263.25"/>
<text xml:space="preserve" text-anchor="start" x="492.5" y="-272.5" font-family="Noto Sans KR" font-size="10.00"> </text>
</g>
<!-- ModifierDefinitionData&#45;&gt;StatDefinitionData -->
<g id="edge2" class="edge">
<title>ModifierDefinitionData&#45;&gt;StatDefinitionData</title>
<path fill="none" stroke="#425466" d="M616.18,-371.38C651.77,-371.38 695.84,-371.38 731.18,-371.38"/>
<polygon fill="#425466" stroke="#425466" points="730.92,-374.18 738.92,-371.38 730.92,-368.58 730.92,-374.18"/>
<text xml:space="preserve" text-anchor="middle" x="678.38" y="-374.62" font-family="Noto Sans KR" font-size="10.00">targets</text>
</g>
<!-- StatusDefinitionData -->
<g id="node4" class="node">
<title>StatusDefinitionData</title>
<polygon fill="#fce8e6" stroke="none" points="244.25,-769.12 244.25,-798.12 365.5,-798.12 365.5,-769.12 244.25,-769.12"/>
<polygon fill="none" stroke="#3b4a5a" points="244.25,-769.12 244.25,-798.12 365.5,-798.12 365.5,-769.12 244.25,-769.12"/>
<text xml:space="preserve" text-anchor="start" x="251.25" y="-780.73" font-family="Noto Sans KR" font-weight="bold" font-size="12.00">StatusDefinitionData</text>
<polygon fill="none" stroke="#3b4a5a" points="244.25,-742.38 244.25,-769.12 365.5,-769.12 365.5,-742.38 244.25,-742.38"/>
<text xml:space="preserve" text-anchor="start" x="251.25" y="-751.62" font-family="Noto Sans KR" font-size="10.00">statusId PK</text>
<polygon fill="none" stroke="#3b4a5a" points="244.25,-715.62 244.25,-742.38 365.5,-742.38 365.5,-715.62 244.25,-715.62"/>
<text xml:space="preserve" text-anchor="start" x="251.25" y="-724.88" font-family="Noto Sans KR" font-size="10.00">duration</text>
<polygon fill="none" stroke="#3b4a5a" points="244.25,-688.88 244.25,-715.62 365.5,-715.62 365.5,-688.88 244.25,-688.88"/>
<text xml:space="preserve" text-anchor="start" x="251.25" y="-698.12" font-family="Noto Sans KR" font-size="10.00">tickPolicy</text>
<polygon fill="none" stroke="#3b4a5a" points="244.25,-662.12 244.25,-688.88 365.5,-688.88 365.5,-662.12 244.25,-662.12"/>
<text xml:space="preserve" text-anchor="start" x="251.25" y="-671.38" font-family="Noto Sans KR" font-size="10.00">modifierIds[]</text>
<polygon fill="none" stroke="#3b4a5a" points="244.25,-635.38 244.25,-662.12 365.5,-662.12 365.5,-635.38 244.25,-635.38"/>
<text xml:space="preserve" text-anchor="start" x="251.25" y="-644.62" font-family="Noto Sans KR" font-size="10.00">periodicEffectIds[]</text>
<polygon fill="none" stroke="#3b4a5a" points="244.25,-608.62 244.25,-635.38 365.5,-635.38 365.5,-608.62 244.25,-608.62"/>
<text xml:space="preserve" text-anchor="start" x="251.25" y="-617.88" font-family="Noto Sans KR" font-size="10.00"> </text>
</g>
<!-- StatusDefinitionData&#45;&gt;ModifierDefinitionData -->
<g id="edge3" class="edge">
<title>StatusDefinitionData&#45;&gt;ModifierDefinitionData</title>
<path fill="none" stroke="#425466" d="M365.28,-622.58C399.92,-575.48 443.79,-515.82 480.08,-466.46"/>
<polygon fill="#425466" stroke="#425466" points="482.23,-468.27 484.71,-460.16 477.72,-464.95 482.23,-468.27"/>
<text xml:space="preserve" text-anchor="middle" x="426.62" y="-583.11" font-family="Noto Sans KR" font-size="10.00">contains</text>
<text xml:space="preserve" text-anchor="middle" x="426.62" y="-570.36" font-family="Noto Sans KR" font-size="10.00">0..*</text>
</g>
<!-- ItemDefinitionData -->
<g id="node5" class="node">
<title>ItemDefinitionData</title>
<polygon fill="#fce8e6" stroke="none" points="248.75,-530.75 248.75,-559.75 361,-559.75 361,-530.75 248.75,-530.75"/>
<polygon fill="none" stroke="#3b4a5a" points="248.75,-530.75 248.75,-559.75 361,-559.75 361,-530.75 248.75,-530.75"/>
<text xml:space="preserve" text-anchor="start" x="255.75" y="-542.35" font-family="Noto Sans KR" font-weight="bold" font-size="12.00">ItemDefinitionData</text>
<polygon fill="none" stroke="#3b4a5a" points="248.75,-504 248.75,-530.75 361,-530.75 361,-504 248.75,-504"/>
<text xml:space="preserve" text-anchor="start" x="255.75" y="-513.25" font-family="Noto Sans KR" font-size="10.00">itemId PK</text>
<polygon fill="none" stroke="#3b4a5a" points="248.75,-477.25 248.75,-504 361,-504 361,-477.25 248.75,-477.25"/>
<text xml:space="preserve" text-anchor="start" x="255.75" y="-486.5" font-family="Noto Sans KR" font-size="10.00">slot</text>
<polygon fill="none" stroke="#3b4a5a" points="248.75,-450.5 248.75,-477.25 361,-477.25 361,-450.5 248.75,-450.5"/>
<text xml:space="preserve" text-anchor="start" x="255.75" y="-459.75" font-family="Noto Sans KR" font-size="10.00">modifierIds[]</text>
<polygon fill="none" stroke="#3b4a5a" points="248.75,-423.75 248.75,-450.5 361,-450.5 361,-423.75 248.75,-423.75"/>
<text xml:space="preserve" text-anchor="start" x="255.75" y="-433" font-family="Noto Sans KR" font-size="10.00">tags[]</text>
<polygon fill="none" stroke="#3b4a5a" points="248.75,-397 248.75,-423.75 361,-423.75 361,-397 248.75,-397"/>
<text xml:space="preserve" text-anchor="start" x="255.75" y="-406.25" font-family="Noto Sans KR" font-size="10.00"> </text>
</g>
<!-- ItemDefinitionData&#45;&gt;ModifierDefinitionData -->
<g id="edge4" class="edge">
<title>ItemDefinitionData&#45;&gt;ModifierDefinitionData</title>
<path fill="none" stroke="#425466" d="M360.97,-454.23C395.35,-439.16 440.01,-419.59 477.28,-403.25"/>
<polygon fill="#425466" stroke="#425466" points="478.01,-405.98 484.22,-400.21 475.76,-400.86 478.01,-405.98"/>
<text xml:space="preserve" text-anchor="middle" x="426.62" y="-450.46" font-family="Noto Sans KR" font-size="10.00">grants</text>
<text xml:space="preserve" text-anchor="middle" x="426.62" y="-437.71" font-family="Noto Sans KR" font-size="10.00">0..*</text>
</g>
<!-- StatRuntimeState -->
<g id="node6" class="node">
<title>StatRuntimeState</title>
<polygon fill="#e8f0fe" stroke="none" points="0,-133.75 0,-162.75 107,-162.75 107,-133.75 0,-133.75"/>
<polygon fill="none" stroke="#3b4a5a" points="0,-133.75 0,-162.75 107,-162.75 107,-133.75 0,-133.75"/>
<text xml:space="preserve" text-anchor="start" x="8.5" y="-145.35" font-family="Noto Sans KR" font-weight="bold" font-size="12.00">StatRuntimeState</text>
<polygon fill="none" stroke="#3b4a5a" points="0,-107 0,-133.75 107,-133.75 107,-107 0,-107"/>
<text xml:space="preserve" text-anchor="start" x="7" y="-116.25" font-family="Noto Sans KR" font-size="10.00">ownerId PK</text>
<polygon fill="none" stroke="#3b4a5a" points="0,-80.25 0,-107 107,-107 107,-80.25 0,-80.25"/>
<text xml:space="preserve" text-anchor="start" x="7" y="-89.5" font-family="Noto Sans KR" font-size="10.00">baseValues</text>
<polygon fill="none" stroke="#3b4a5a" points="0,-53.5 0,-80.25 107,-80.25 107,-53.5 0,-53.5"/>
<text xml:space="preserve" text-anchor="start" x="7" y="-62.75" font-family="Noto Sans KR" font-size="10.00">currentResources</text>
<polygon fill="none" stroke="#3b4a5a" points="0,-26.75 0,-53.5 107,-53.5 107,-26.75 0,-26.75"/>
<text xml:space="preserve" text-anchor="start" x="7" y="-36" font-family="Noto Sans KR" font-size="10.00">activeModifierStates[]</text>
<polygon fill="none" stroke="#3b4a5a" points="0,0 0,-26.75 107,-26.75 107,0 0,0"/>
<text xml:space="preserve" text-anchor="start" x="7" y="-9.25" font-family="Noto Sans KR" font-size="10.00"> </text>
</g>
<!-- StatRuntimeState&#45;&gt;StatDefinitionData -->
<g id="edge5" class="edge">
<title>StatRuntimeState:e&#45;&gt;StatDefinitionData:s</title>
<path fill="none" stroke="#425466" d="M107,-81.38C107,-81.38 367.75,-134.38 367.75,-134.38 367.75,-134.38 724.62,-252.47 785.95,-272.76"/>
<polygon fill="#425466" stroke="#425466" points="784.96,-275.38 793.44,-275.24 786.72,-270.07 784.96,-275.38"/>
<text xml:space="preserve" text-anchor="middle" x="426.62" y="-176.89" font-family="Noto Sans KR" font-size="10.00">references</text>
<text xml:space="preserve" text-anchor="middle" x="426.62" y="-164.14" font-family="Noto Sans KR" font-size="10.00">stat values</text>
</g>
<!-- ModifierRuntimeState -->
<g id="node7" class="node">
<title>ModifierRuntimeState</title>
<polygon fill="#e8f0fe" stroke="none" points="242,-319.12 242,-348.12 367.75,-348.12 367.75,-319.12 242,-319.12"/>
<polygon fill="none" stroke="#3b4a5a" points="242,-319.12 242,-348.12 367.75,-348.12 367.75,-319.12 242,-319.12"/>
<text xml:space="preserve" text-anchor="start" x="249" y="-330.73" font-family="Noto Sans KR" font-weight="bold" font-size="12.00">ModifierRuntimeState</text>
<polygon fill="none" stroke="#3b4a5a" points="242,-292.38 242,-319.12 367.75,-319.12 367.75,-292.38 242,-292.38"/>
<text xml:space="preserve" text-anchor="start" x="249" y="-301.62" font-family="Noto Sans KR" font-size="10.00">modifierId FK</text>
<polygon fill="none" stroke="#3b4a5a" points="242,-265.62 242,-292.38 367.75,-292.38 367.75,-265.62 242,-265.62"/>
<text xml:space="preserve" text-anchor="start" x="249" y="-274.88" font-family="Noto Sans KR" font-size="10.00">sourceId</text>
<polygon fill="none" stroke="#3b4a5a" points="242,-238.88 242,-265.62 367.75,-265.62 367.75,-238.88 242,-238.88"/>
<text xml:space="preserve" text-anchor="start" x="249" y="-248.12" font-family="Noto Sans KR" font-size="10.00">remainingDuration</text>
<polygon fill="none" stroke="#3b4a5a" points="242,-212.12 242,-238.88 367.75,-238.88 367.75,-212.12 242,-212.12"/>
<text xml:space="preserve" text-anchor="start" x="249" y="-221.38" font-family="Noto Sans KR" font-size="10.00">stackCount</text>
<polygon fill="none" stroke="#3b4a5a" points="242,-185.38 242,-212.12 367.75,-212.12 367.75,-185.38 242,-185.38"/>
<text xml:space="preserve" text-anchor="start" x="249" y="-194.62" font-family="Noto Sans KR" font-size="10.00">enabled</text>
<polygon fill="none" stroke="#3b4a5a" points="242,-158.62 242,-185.38 367.75,-185.38 367.75,-158.62 242,-158.62"/>
<text xml:space="preserve" text-anchor="start" x="249" y="-167.88" font-family="Noto Sans KR" font-size="10.00"> </text>
</g>
<!-- StatRuntimeState&#45;&gt;ModifierRuntimeState -->
<g id="edge6" class="edge">
<title>StatRuntimeState:n&#45;&gt;ModifierRuntimeState:s</title>
<path fill="none" stroke="#425466" d="M53.5,-163.67C53.5,-163.67 107,-162.67 107,-162.67 107,-162.67 242,-158.71 242,-158.71 242,-158.71 278.11,-158.14 295.6,-157.86"/>
<polygon fill="#425466" stroke="#425466" points="295.41,-160.67 303.36,-157.74 295.32,-155.07 295.41,-160.67"/>
<text xml:space="preserve" text-anchor="middle" x="174.5" y="-177.61" font-family="Noto Sans KR" font-size="10.00">contains</text>
<text xml:space="preserve" text-anchor="middle" x="174.5" y="-164.86" font-family="Noto Sans KR" font-size="10.00">runtime states</text>
</g>
<!-- ModifierRuntimeState&#45;&gt;ModifierDefinitionData -->
<g id="edge7" class="edge">
<title>ModifierRuntimeState:e&#45;&gt;ModifierDefinitionData:n</title>
<path fill="none" stroke="#425466" d="M367.75,-253.38C367.75,-253.38 449.5,-380.88 449.5,-380.88 449.5,-380.88 485.5,-479.4 485.5,-479.4 485.5,-479.4 523.5,-479.98 541.62,-480.25"/>
<polygon fill="#425466" stroke="#425466" points="541.44,-483.05 549.49,-480.37 541.53,-477.45 541.44,-483.05"/>
<text xml:space="preserve" text-anchor="middle" x="426.62" y="-396.88" font-family="Noto Sans KR" font-size="10.00">definition</text>
<text xml:space="preserve" text-anchor="middle" x="426.62" y="-384.12" font-family="Noto Sans KR" font-size="10.00">reference</text>
</g>
</g>
</svg>
