<?xml version="1.0" encoding="UTF-8" standalone="no"?>
<!DOCTYPE svg PUBLIC "-//W3C//DTD SVG 1.1//EN"
 "http://www.w3.org/Graphics/SVG/1.1/DTD/svg11.dtd">
<!-- Generated by graphviz version 2.42.4 (0)
 -->
<!-- Title: G Pages: 1 -->
<svg width="1235pt" height="755pt"
 viewBox="8.64 8.64 1226.14 746.64" xmlns="http://www.w3.org/2000/svg" xmlns:xlink="http://www.w3.org/1999/xlink">
<g id="graph0" class="graph" transform="scale(1 1) rotate(0) translate(26.64 728.64)">
<title>G</title>
<polygon fill="#ffffff" stroke="transparent" points="-18,18 -18,-720 1199.5,-720 1199.5,18 -18,18"/>
<g id="clust1" class="cluster">
<title>cluster_core</title>
<path fill="#ffffff" stroke="#dfe5ee" stroke-dasharray="5,2" d="M72.5,-470C72.5,-470 1154,-470 1154,-470 1160,-470 1166,-476 1166,-482 1166,-482 1166,-682 1166,-682 1166,-688 1160,-694 1154,-694 1154,-694 72.5,-694 72.5,-694 66.5,-694 60.5,-688 60.5,-682 60.5,-682 60.5,-482 60.5,-482 60.5,-476 66.5,-470 72.5,-470"/>
<text text-anchor="middle" x="613.25" y="-675.6" font-family="Noto Sans CJK KR" font-size="18.00" fill="#607086">Core Layer: 재사용성이 가장 높은 계층</text>
</g>
<g id="clust2" class="cluster">
<title>cluster_bridge</title>
<path fill="#ffffff" stroke="#dfe5ee" stroke-dasharray="5,2" d="M471,-295C471,-295 787,-295 787,-295 793,-295 799,-301 799,-307 799,-307 799,-353 799,-353 799,-359 793,-365 787,-365 787,-365 471,-365 471,-365 465,-365 459,-359 459,-353 459,-353 459,-307 459,-307 459,-301 465,-295 471,-295"/>
<text text-anchor="middle" x="629" y="-346.6" font-family="Noto Sans CJK KR" font-size="18.00" fill="#607086">Bridge Layer: 시스템을 연결하는 효과 계층</text>
</g>
<g id="clust3" class="cluster">
<title>cluster_game</title>
<path fill="#ffffff" stroke="#dfe5ee" stroke-dasharray="5,2" d="M12,-8C12,-8 272,-8 272,-8 278,-8 284,-14 284,-20 284,-20 284,-451 284,-451 284,-457 278,-463 272,-463 272,-463 12,-463 12,-463 6,-463 0,-457 0,-451 0,-451 0,-20 0,-20 0,-14 6,-8 12,-8"/>
<text text-anchor="middle" x="142" y="-444.6" font-family="Noto Sans CJK KR" font-size="18.00" fill="#607086">Game Layer: 장르/프로젝트별 규칙</text>
</g>
<!-- Entity -->
<g id="node1" class="node">
<title>Entity</title>
<path fill="#edf5ff" stroke="#7aa7df" stroke-width="1.4" d="M211.5,-666C211.5,-666 72.5,-666 72.5,-666 66.5,-666 60.5,-660 60.5,-654 60.5,-654 60.5,-636 60.5,-636 60.5,-630 66.5,-624 72.5,-624 72.5,-624 211.5,-624 211.5,-624 217.5,-624 223.5,-630 223.5,-636 223.5,-636 223.5,-654 223.5,-654 223.5,-660 217.5,-666 211.5,-666"/>
<text text-anchor="middle" x="142" y="-648.8" font-family="Noto Sans CJK KR" font-size="14.00" fill="#182033">Entity / Owner</text>
<text text-anchor="middle" x="142" y="-633.8" font-family="Noto Sans CJK KR" font-size="14.00" fill="#182033">플레이어·몬스터·소환수</text>
</g>
<!-- Stat -->
<g id="node2" class="node">
<title>Stat</title>
<path fill="#eaf0ff" stroke="#8292f7" stroke-width="1.4" d="M697.5,-512C697.5,-512 560.5,-512 560.5,-512 554.5,-512 548.5,-506 548.5,-500 548.5,-500 548.5,-482 548.5,-482 548.5,-476 554.5,-470 560.5,-470 560.5,-470 697.5,-470 697.5,-470 703.5,-470 709.5,-476 709.5,-482 709.5,-482 709.5,-500 709.5,-500 709.5,-506 703.5,-512 697.5,-512"/>
<text text-anchor="middle" x="629" y="-494.8" font-family="Noto Sans CJK KR" font-size="14.00" fill="#182033">Stat System</text>
<text text-anchor="middle" x="629" y="-479.8" font-family="Noto Sans CJK KR" font-size="14.00" fill="#182033">값·Modifier·Resource</text>
</g>
<!-- Entity&#45;&gt;Stat -->
<g id="edge1" class="edge">
<title>Entity&#45;&gt;Stat</title>
<path fill="none" stroke="#59687e" stroke-width="1.3" d="M223.6,-645C362.38,-645 629.5,-645 629.5,-645 629.5,-645 629.5,-520.09 629.5,-520.09"/>
<polygon fill="#59687e" stroke="#59687e" stroke-width="1.3" points="632.3,-520.09 629.5,-512.09 626.7,-520.09 632.3,-520.09"/>
<text text-anchor="middle" x="371.5" y="-637.8" font-family="Noto Sans CJK KR" font-size="14.00" fill="#46566e">owns</text>
</g>
<!-- Event -->
<g id="node3" class="node">
<title>Event</title>
<path fill="#eefbf6" stroke="#61b99a" stroke-width="1.4" d="M1154,-512C1154,-512 962,-512 962,-512 956,-512 950,-506 950,-500 950,-500 950,-482 950,-482 950,-476 956,-470 962,-470 962,-470 1154,-470 1154,-470 1160,-470 1166,-476 1166,-482 1166,-482 1166,-500 1166,-500 1166,-506 1160,-512 1154,-512"/>
<text text-anchor="middle" x="1058" y="-494.8" font-family="Noto Sans CJK KR" font-size="14.00" fill="#182033">Event Bus</text>
<text text-anchor="middle" x="1058" y="-479.8" font-family="Noto Sans CJK KR" font-size="14.00" fill="#182033">OnHit·OnKill·OnStatChanged</text>
</g>
<!-- Stat&#45;&gt;Event -->
<g id="edge15" class="edge">
<title>Stat&#45;&gt;Event</title>
<path fill="none" stroke="#59687e" stroke-width="1.3" d="M709.69,-498C709.69,-498 941.73,-498 941.73,-498"/>
<polygon fill="#59687e" stroke="#59687e" stroke-width="1.3" points="941.73,-500.8 949.73,-498 941.73,-495.2 941.73,-500.8"/>
<text text-anchor="middle" x="866.5" y="-508.8" font-family="Noto Sans CJK KR" font-size="14.00" fill="#46566e">StatChanged</text>
</g>
<!-- Effect -->
<g id="node6" class="node">
<title>Effect</title>
<path fill="#fff0f3" stroke="#e07b91" stroke-width="2.2" d="M696,-337C696,-337 562,-337 562,-337 556,-337 550,-331 550,-325 550,-325 550,-307 550,-307 550,-301 556,-295 562,-295 562,-295 696,-295 696,-295 702,-295 708,-301 708,-307 708,-307 708,-325 708,-325 708,-331 702,-337 696,-337"/>
<text text-anchor="middle" x="629" y="-319.8" font-family="Noto Sans CJK KR" font-size="14.00" fill="#182033">Effect System</text>
<text text-anchor="middle" x="629" y="-304.8" font-family="Noto Sans CJK KR" font-size="14.00" fill="#182033">대상·값·결과 적용</text>
</g>
<!-- Stat&#45;&gt;Effect -->
<g id="edge2" class="edge">
<title>Stat&#45;&gt;Effect</title>
<path fill="none" stroke="#59687e" stroke-width="1.3" d="M668.5,-469.89C668.5,-469.89 668.5,-345.18 668.5,-345.18"/>
<polygon fill="#59687e" stroke="#59687e" stroke-width="1.3" points="671.3,-345.18 668.5,-337.18 665.7,-345.18 671.3,-345.18"/>
</g>
<!-- Debug -->
<g id="node13" class="node">
<title>Debug</title>
<path fill="#f0f3f9" stroke="#99a8bd" stroke-width="1.4" d="M1169.5,-306C1169.5,-306 946.5,-306 946.5,-306 940.5,-306 934.5,-300 934.5,-294 934.5,-294 934.5,-276 934.5,-276 934.5,-270 940.5,-264 946.5,-264 946.5,-264 1169.5,-264 1169.5,-264 1175.5,-264 1181.5,-270 1181.5,-276 1181.5,-276 1181.5,-294 1181.5,-294 1181.5,-300 1175.5,-306 1169.5,-306"/>
<text text-anchor="middle" x="1058" y="-288.8" font-family="Noto Sans CJK KR" font-size="14.00" fill="#182033">Debug / Balance Tools</text>
<text text-anchor="middle" x="1058" y="-273.8" font-family="Noto Sans CJK KR" font-size="14.00" fill="#182033">Breakdown·CombatLog·Simulator</text>
</g>
<!-- Stat&#45;&gt;Debug -->
<g id="edge16" class="edge">
<title>Stat&#45;&gt;Debug</title>
<path fill="none" stroke="#59687e" stroke-width="1.3" d="M709.73,-484C802.62,-484 942.5,-484 942.5,-484 942.5,-484 942.5,-314.3 942.5,-314.3"/>
<polygon fill="#59687e" stroke="#59687e" stroke-width="1.3" points="945.3,-314.3 942.5,-306.3 939.7,-314.3 945.3,-314.3"/>
<text text-anchor="middle" x="866.5" y="-453.8" font-family="Noto Sans CJK KR" font-size="14.00" fill="#46566e">Breakdown</text>
</g>
<!-- Event&#45;&gt;Effect -->
<g id="edge3" class="edge">
<title>Event&#45;&gt;Effect</title>
<path fill="none" stroke="#59687e" stroke-width="1.3" d="M1022.5,-469.85C1022.5,-425.47 1022.5,-326.67 1022.5,-326.67 1022.5,-326.67 716.16,-326.67 716.16,-326.67"/>
<polygon fill="#59687e" stroke="#59687e" stroke-width="1.3" points="716.16,-323.87 708.16,-326.67 716.16,-329.47 716.16,-323.87"/>
<text text-anchor="middle" x="866.5" y="-398.8" font-family="Noto Sans CJK KR" font-size="14.00" fill="#46566e">트리거</text>
</g>
<!-- Condition -->
<g id="node4" class="node">
<title>Condition</title>
<path fill="#fff7e6" stroke="#e0ad4e" stroke-width="1.4" d="M209,-589C209,-589 75,-589 75,-589 69,-589 63,-583 63,-577 63,-577 63,-559 63,-559 63,-553 69,-547 75,-547 75,-547 209,-547 209,-547 215,-547 221,-553 221,-559 221,-559 221,-577 221,-577 221,-583 215,-589 209,-589"/>
<text text-anchor="middle" x="142" y="-571.8" font-family="Noto Sans CJK KR" font-size="14.00" fill="#182033">Condition / Context</text>
<text text-anchor="middle" x="142" y="-556.8" font-family="Noto Sans CJK KR" font-size="14.00" fill="#182033">조건·문맥 검사</text>
</g>
<!-- Condition&#45;&gt;Effect -->
<g id="edge4" class="edge">
<title>Condition&#45;&gt;Effect</title>
<path fill="none" stroke="#59687e" stroke-width="1.3" d="M221.21,-568C322.09,-568 483.5,-568 483.5,-568 483.5,-568 483.5,-330 483.5,-330 483.5,-330 541.86,-330 541.86,-330"/>
<polygon fill="#59687e" stroke="#59687e" stroke-width="1.3" points="541.86,-332.8 549.86,-330 541.86,-327.2 541.86,-332.8"/>
<text text-anchor="middle" x="371.5" y="-571.8" font-family="Noto Sans CJK KR" font-size="14.00" fill="#46566e">검증</text>
</g>
<!-- Tag -->
<g id="node5" class="node">
<title>Tag</title>
<path fill="#f3eefc" stroke="#ab8fe0" stroke-width="1.4" d="M209.5,-512C209.5,-512 74.5,-512 74.5,-512 68.5,-512 62.5,-506 62.5,-500 62.5,-500 62.5,-482 62.5,-482 62.5,-476 68.5,-470 74.5,-470 74.5,-470 209.5,-470 209.5,-470 215.5,-470 221.5,-476 221.5,-482 221.5,-482 221.5,-500 221.5,-500 221.5,-506 215.5,-512 209.5,-512"/>
<text text-anchor="middle" x="142" y="-494.8" font-family="Noto Sans CJK KR" font-size="14.00" fill="#182033">Tag System</text>
<text text-anchor="middle" x="142" y="-479.8" font-family="Noto Sans CJK KR" font-size="14.00" fill="#182033">fire·melee·boss·skill</text>
</g>
<!-- Tag&#45;&gt;Effect -->
<g id="edge5" class="edge">
<title>Tag&#45;&gt;Effect</title>
<path fill="none" stroke="#59687e" stroke-width="1.3" d="M221.6,-501.5C303.29,-501.5 418.5,-501.5 418.5,-501.5 418.5,-501.5 418.5,-323 418.5,-323 418.5,-323 541.72,-323 541.72,-323"/>
<polygon fill="#59687e" stroke="#59687e" stroke-width="1.3" points="541.72,-325.8 549.72,-323 541.72,-320.2 541.72,-325.8"/>
<text text-anchor="middle" x="371.5" y="-516.8" font-family="Noto Sans CJK KR" font-size="14.00" fill="#46566e">분류</text>
</g>
<!-- Effect&#45;&gt;Event -->
<g id="edge14" class="edge">
<title>Effect&#45;&gt;Event</title>
<path fill="none" stroke="#59687e" stroke-width="1.3" d="M708.23,-316.33C841.11,-316.33 1094.5,-316.33 1094.5,-316.33 1094.5,-316.33 1094.5,-461.93 1094.5,-461.93"/>
<polygon fill="#59687e" stroke="#59687e" stroke-width="1.3" points="1091.7,-461.93 1094.5,-469.93 1097.3,-461.93 1091.7,-461.93"/>
<text text-anchor="middle" x="866.5" y="-343.8" font-family="Noto Sans CJK KR" font-size="14.00" fill="#46566e">EffectApplied</text>
</g>
<!-- Combat -->
<g id="node8" class="node">
<title>Combat</title>
<path fill="#f7f9fc" stroke="#bac7db" stroke-width="1.4" d="M209,-50C209,-50 75,-50 75,-50 69,-50 63,-44 63,-38 63,-38 63,-20 63,-20 63,-14 69,-8 75,-8 75,-8 209,-8 209,-8 215,-8 221,-14 221,-20 221,-20 221,-38 221,-38 221,-44 215,-50 209,-50"/>
<text text-anchor="middle" x="142" y="-32.8" font-family="Noto Sans CJK KR" font-size="14.00" fill="#182033">Combat Resolution</text>
<text text-anchor="middle" x="142" y="-17.8" font-family="Noto Sans CJK KR" font-size="14.00" fill="#182033">명중·치명타·피해</text>
</g>
<!-- Effect&#45;&gt;Combat -->
<g id="edge7" class="edge">
<title>Effect&#45;&gt;Combat</title>
<path fill="none" stroke="#59687e" stroke-width="1.3" d="M676.5,-294.95C676.5,-229.84 676.5,-36 676.5,-36 676.5,-36 229.15,-36 229.15,-36"/>
<polygon fill="#59687e" stroke="#59687e" stroke-width="1.3" points="229.15,-33.2 221.15,-36 229.15,-38.8 229.15,-33.2"/>
<text text-anchor="middle" x="371.5" y="-76.8" font-family="Noto Sans CJK KR" font-size="14.00" fill="#46566e">DamageRequest</text>
</g>
<!-- Status -->
<g id="node9" class="node">
<title>Status</title>
<path fill="#f7f9fc" stroke="#bac7db" stroke-width="1.4" d="M209,-204C209,-204 75,-204 75,-204 69,-204 63,-198 63,-192 63,-192 63,-174 63,-174 63,-168 69,-162 75,-162 75,-162 209,-162 209,-162 215,-162 221,-168 221,-174 221,-174 221,-192 221,-192 221,-198 215,-204 209,-204"/>
<text text-anchor="middle" x="142" y="-186.8" font-family="Noto Sans CJK KR" font-size="14.00" fill="#182033">Status System</text>
<text text-anchor="middle" x="142" y="-171.8" font-family="Noto Sans CJK KR" font-size="14.00" fill="#182033">버프·디버프·틱</text>
</g>
<!-- Effect&#45;&gt;Status -->
<g id="edge8" class="edge">
<title>Effect&#45;&gt;Status</title>
<path fill="none" stroke="#59687e" stroke-width="1.3" d="M613.5,-294.74C613.5,-255.57 613.5,-176 613.5,-176 613.5,-176 229.18,-176 229.18,-176"/>
<polygon fill="#59687e" stroke="#59687e" stroke-width="1.3" points="229.18,-173.2 221.18,-176 229.18,-178.8 229.18,-173.2"/>
<text text-anchor="middle" x="371.5" y="-186.8" font-family="Noto Sans CJK KR" font-size="14.00" fill="#46566e">ApplyStatus</text>
</g>
<!-- Effect&#45;&gt;Debug -->
<g id="edge17" class="edge">
<title>Effect&#45;&gt;Debug</title>
<path fill="none" stroke="#59687e" stroke-width="1.3" d="M708.19,-300.5C708.19,-300.5 926.19,-300.5 926.19,-300.5"/>
<polygon fill="#59687e" stroke="#59687e" stroke-width="1.3" points="926.19,-303.3 934.19,-300.5 926.19,-297.7 926.19,-303.3"/>
<text text-anchor="middle" x="866.5" y="-288.8" font-family="Noto Sans CJK KR" font-size="14.00" fill="#46566e">EffectLog</text>
</g>
<!-- Skill -->
<g id="node7" class="node">
<title>Skill</title>
<path fill="#f7f9fc" stroke="#bac7db" stroke-width="1.4" d="M209,-127C209,-127 75,-127 75,-127 69,-127 63,-121 63,-115 63,-115 63,-97 63,-97 63,-91 69,-85 75,-85 75,-85 209,-85 209,-85 215,-85 221,-91 221,-97 221,-97 221,-115 221,-115 221,-121 215,-127 209,-127"/>
<text text-anchor="middle" x="142" y="-109.8" font-family="Noto Sans CJK KR" font-size="14.00" fill="#182033">Skill / Action</text>
<text text-anchor="middle" x="142" y="-94.8" font-family="Noto Sans CJK KR" font-size="14.00" fill="#182033">비용·타임라인·입력</text>
</g>
<!-- Skill&#45;&gt;Effect -->
<g id="edge6" class="edge">
<title>Skill&#45;&gt;Effect</title>
<path fill="none" stroke="#59687e" stroke-width="1.3" d="M221.23,-106C363.02,-106 645.5,-106 645.5,-106 645.5,-106 645.5,-286.71 645.5,-286.71"/>
<polygon fill="#59687e" stroke="#59687e" stroke-width="1.3" points="642.7,-286.71 645.5,-294.71 648.3,-286.71 642.7,-286.71"/>
<text text-anchor="middle" x="371.5" y="-131.8" font-family="Noto Sans CJK KR" font-size="14.00" fill="#46566e">효과 묶음 실행</text>
</g>
<!-- Combat&#45;&gt;Debug -->
<g id="edge18" class="edge">
<title>Combat&#45;&gt;Debug</title>
<path fill="none" stroke="#59687e" stroke-width="1.3" d="M221.33,-22C443.98,-22 1058.5,-22 1058.5,-22 1058.5,-22 1058.5,-255.92 1058.5,-255.92"/>
<polygon fill="#59687e" stroke="#59687e" stroke-width="1.3" points="1055.7,-255.92 1058.5,-263.92 1061.3,-255.92 1055.7,-255.92"/>
<text text-anchor="middle" x="629" y="-18.8" font-family="Noto Sans CJK KR" font-size="14.00" fill="#46566e">CombatLog</text>
</g>
<!-- Status&#45;&gt;Stat -->
<g id="edge9" class="edge">
<title>Status&#45;&gt;Stat</title>
<path fill="none" stroke="#59687e" stroke-width="1.3" d="M221.06,-190C281.13,-190 353.5,-190 353.5,-190 353.5,-190 353.5,-480.5 353.5,-480.5 353.5,-480.5 540.2,-480.5 540.2,-480.5"/>
<polygon fill="#59687e" stroke="#59687e" stroke-width="1.3" points="540.2,-483.3 548.2,-480.5 540.2,-477.7 540.2,-483.3"/>
<text text-anchor="middle" x="371.5" y="-241.8" font-family="Noto Sans CJK KR" font-size="14.00" fill="#46566e">Modifier 제공</text>
</g>
<!-- Equipment -->
<g id="node10" class="node">
<title>Equipment</title>
<path fill="#f7f9fc" stroke="#bac7db" stroke-width="1.4" d="M209,-358C209,-358 75,-358 75,-358 69,-358 63,-352 63,-346 63,-346 63,-328 63,-328 63,-322 69,-316 75,-316 75,-316 209,-316 209,-316 215,-316 221,-322 221,-328 221,-328 221,-346 221,-346 221,-352 215,-358 209,-358"/>
<text text-anchor="middle" x="142" y="-340.8" font-family="Noto Sans CJK KR" font-size="14.00" fill="#182033">Equipment / Item</text>
<text text-anchor="middle" x="142" y="-325.8" font-family="Noto Sans CJK KR" font-size="14.00" fill="#182033">장비·Affix·Set</text>
</g>
<!-- Equipment&#45;&gt;Stat -->
<g id="edge10" class="edge">
<title>Equipment&#45;&gt;Stat</title>
<path fill="none" stroke="#59687e" stroke-width="1.3" d="M221.14,-347.5C359.19,-347.5 629.5,-347.5 629.5,-347.5 629.5,-347.5 629.5,-461.83 629.5,-461.83"/>
<polygon fill="#59687e" stroke="#59687e" stroke-width="1.3" points="626.7,-461.83 629.5,-469.83 632.3,-461.83 626.7,-461.83"/>
<text text-anchor="middle" x="371.5" y="-406.8" font-family="Noto Sans CJK KR" font-size="14.00" fill="#46566e">Modifier source</text>
</g>
<!-- Progression -->
<g id="node11" class="node">
<title>Progression</title>
<path fill="#f7f9fc" stroke="#bac7db" stroke-width="1.4" d="M209,-435C209,-435 75,-435 75,-435 69,-435 63,-429 63,-423 63,-423 63,-405 63,-405 63,-399 69,-393 75,-393 75,-393 209,-393 209,-393 215,-393 221,-399 221,-405 221,-405 221,-423 221,-423 221,-429 215,-435 209,-435"/>
<text text-anchor="middle" x="142" y="-417.8" font-family="Noto Sans CJK KR" font-size="14.00" fill="#182033">Progression</text>
<text text-anchor="middle" x="142" y="-402.8" font-family="Noto Sans CJK KR" font-size="14.00" fill="#182033">레벨·성장·해금</text>
</g>
<!-- Progression&#45;&gt;Stat -->
<g id="edge11" class="edge">
<title>Progression&#45;&gt;Stat</title>
<path fill="none" stroke="#59687e" stroke-width="1.3" d="M221.23,-414C349.76,-414 589.5,-414 589.5,-414 589.5,-414 589.5,-461.96 589.5,-461.96"/>
<polygon fill="#59687e" stroke="#59687e" stroke-width="1.3" points="586.7,-461.96 589.5,-469.96 592.3,-461.96 586.7,-461.96"/>
<text text-anchor="middle" x="371.5" y="-461.8" font-family="Noto Sans CJK KR" font-size="14.00" fill="#46566e">base 변경</text>
</g>
<!-- Reward -->
<g id="node12" class="node">
<title>Reward</title>
<path fill="#f7f9fc" stroke="#bac7db" stroke-width="1.4" d="M209,-281C209,-281 75,-281 75,-281 69,-281 63,-275 63,-269 63,-269 63,-251 63,-251 63,-245 69,-239 75,-239 75,-239 209,-239 209,-239 215,-239 221,-245 221,-251 221,-251 221,-269 221,-269 221,-275 215,-281 209,-281"/>
<text text-anchor="middle" x="142" y="-263.8" font-family="Noto Sans CJK KR" font-size="14.00" fill="#182033">Reward / Roguelite</text>
<text text-anchor="middle" x="142" y="-248.8" font-family="Noto Sans CJK KR" font-size="14.00" fill="#182033">선택지·업그레이드</text>
</g>
<!-- Reward&#45;&gt;Stat -->
<g id="edge13" class="edge">
<title>Reward&#45;&gt;Stat</title>
<path fill="none" stroke="#59687e" stroke-width="1.3" d="M221.25,-275.33C255.77,-275.33 288.5,-275.33 288.5,-275.33 288.5,-275.33 288.5,-491 288.5,-491 288.5,-491 540.31,-491 540.31,-491"/>
<polygon fill="#59687e" stroke="#59687e" stroke-width="1.3" points="540.31,-493.8 548.31,-491 540.31,-488.2 540.31,-493.8"/>
<text text-anchor="middle" x="371.5" y="-351.8" font-family="Noto Sans CJK KR" font-size="14.00" fill="#46566e">런 중 Modifier</text>
</g>
<!-- Reward&#45;&gt;Effect -->
<g id="edge12" class="edge">
<title>Reward&#45;&gt;Effect</title>
<path fill="none" stroke="#59687e" stroke-width="1.3" d="M221.01,-269.67C347.77,-269.67 582.5,-269.67 582.5,-269.67 582.5,-269.67 582.5,-286.73 582.5,-286.73"/>
<polygon fill="#59687e" stroke="#59687e" stroke-width="1.3" points="579.7,-286.73 582.5,-294.73 585.3,-286.73 579.7,-286.73"/>
<text text-anchor="middle" x="371.5" y="-296.8" font-family="Noto Sans CJK KR" font-size="14.00" fill="#46566e">Effect/Reaction 제공</text>
</g>
</g>
</svg>
