<?xml version="1.0" encoding="UTF-8" standalone="no"?>
<!DOCTYPE svg PUBLIC "-//W3C//DTD SVG 1.1//EN"
 "http://www.w3.org/Graphics/SVG/1.1/DTD/svg11.dtd">
<!-- Generated by graphviz version 15.1.0 (20260618.0150)
 -->
<!-- Title: G Pages: 1 -->
<svg width="2433pt" height="895pt"
 viewBox="12.00 12.00 2421.00 884.00" xmlns="http://www.w3.org/2000/svg" xmlns:xlink="http://www.w3.org/1999/xlink">
<g id="graph0" class="graph" transform="scale(1.33333 1.33333) rotate(0) translate(30.24 641.08)">
<title>G</title>
<polygon fill="#ffffff" stroke="none" points="-21.6,21.6 -21.6,-632.44 1785.6,-632.44 1785.6,21.6 -21.6,21.6"/>
<g id="clust1" class="cluster">
<title>cluster_core</title>
<path fill="#ffffff" stroke="#dfe5ee" stroke-dasharray="5,2" d="M835,-192.46C835,-192.46 1685,-192.46 1685,-192.46 1691,-192.46 1697,-198.46 1697,-204.46 1697,-204.46 1697,-441.5 1697,-441.5 1697,-447.5 1691,-453.5 1685,-453.5 1685,-453.5 835,-453.5 835,-453.5 829,-453.5 823,-447.5 823,-441.5 823,-441.5 823,-204.46 823,-204.46 823,-198.46 829,-192.46 835,-192.46"/>
<text xml:space="preserve" text-anchor="middle" x="1260" y="-432.4" font-family="Noto Sans KR" font-size="18.00" fill="#607086">Core Runtime · contracts and commit boundary</text>
</g>
<g id="clust4" class="cluster">
<title>cluster_bridge</title>
<path fill="#ffffff" stroke="#dfe5ee" stroke-dasharray="5,2" d="M25,-350.42C25,-350.42 759,-350.42 759,-350.42 765,-350.42 771,-356.42 771,-362.42 771,-362.42 771,-450.13 771,-450.13 771,-456.13 765,-462.13 759,-462.13 759,-462.13 25,-462.13 25,-462.13 19,-462.13 13,-456.13 13,-450.13 13,-450.13 13,-362.42 13,-362.42 13,-356.42 19,-350.42 25,-350.42"/>
<text xml:space="preserve" text-anchor="middle" x="392" y="-441.03" font-family="Noto Sans KR" font-size="18.00" fill="#607086">Effect Bridge · public execution and composition planning</text>
</g>
<g id="clust6" class="cluster">
<title>cluster_game</title>
<path fill="#ffffff" stroke="#dfe5ee" stroke-dasharray="5,2" d="M395,-508.38C395,-508.38 1353,-508.38 1353,-508.38 1359,-508.38 1365,-514.38 1365,-520.38 1365,-520.38 1365,-590.84 1365,-590.84 1365,-596.84 1359,-602.84 1353,-602.84 1353,-602.84 395,-602.84 395,-602.84 389,-602.84 383,-596.84 383,-590.84 383,-590.84 383,-520.38 383,-520.38 383,-514.38 389,-508.38 395,-508.38"/>
<text xml:space="preserve" text-anchor="middle" x="874" y="-581.74" font-family="Noto Sans KR" font-size="18.00" fill="#607086">Game layer · commands and policies</text>
</g>
<!-- Entity&#45;&gt;Stat -->
<g id="edge1" class="edge">
<title>Entity:e&#45;&gt;Stat:w</title>
<path fill="none" stroke="#5b6f8f" stroke-width="1.3" d="M1437.2,-391.4C1437.2,-391.4 1457,-391.4 1472.15,-391.4"/>
<polygon fill="#5b6f8f" stroke="#5b6f8f" stroke-width="1.3" points="1479.2,-394.2 1487.2,-391.4 1479.2,-388.6 1479.2,-394.2"/>
</g>
<!-- Stat&#45;&gt;Commit -->
<g id="edge15" class="edge">
<title>Stat:s&#45;&gt;Commit:nw</title>
<path fill="none" stroke="#3d8b6d" stroke-width="1.3" d="M1593,-358.04C1593,-358.04 921.47,-285.16 832.29,-275.48"/>
<polygon fill="#3d8b6d" stroke="#3d8b6d" stroke-width="1.3" points="832.76,-272.71 824.5,-274.63 832.15,-278.28 832.76,-272.71"/>
</g>
<!-- Stat&#45;&gt;Effect -->
<g id="edge2" class="edge">
<title>Stat:n&#45;&gt;Effect:s</title>
<path fill="none" stroke="#8292a8" stroke-width="1.3" stroke-dasharray="5,2" d="M1593,-424.75C1593,-424.75 1437,-485.25 1437,-485.25 1437,-485.25 349,-485.25 349,-485.25 349,-485.25 323,-462.13 323,-462.13 323,-462.13 296.71,-350.42 296.71,-350.42 296.71,-350.42 196.76,-349.71 164.74,-349.49"/>
<polygon fill="#8292a8" stroke="#8292a8" stroke-width="1.3" points="164.99,-346.69 156.97,-349.43 164.95,-352.29 164.99,-346.69"/>
</g>
<!-- Stat&#45;&gt;Debug -->
<g id="edge21" class="edge">
<title>Stat:se&#45;&gt;Debug:nw</title>
<path fill="none" stroke="#8292a8" stroke-width="1.3" stroke-dasharray="1,5" d="M1696.83,-358.04C1696.83,-358.04 1764,-274.42 1764,-274.42 1764,-274.42 1764,-192.46 1764,-192.46 1764,-192.46 1170.9,-105.27 1087.5,-93.01"/>
<polygon fill="#8292a8" stroke="#8292a8" stroke-width="1.3" points="1088.06,-90.26 1079.74,-91.87 1087.25,-95.81 1088.06,-90.26"/>
</g>
<!-- Condition&#45;&gt;Effect -->
<g id="edge3" class="edge">
<title>Condition:s&#45;&gt;Effect:nw</title>
<path fill="none" stroke="#8292a8" stroke-width="1.3" stroke-dasharray="5,2" d="M913,-358.04C913,-358.04 758,-282.67 758,-282.67 758,-282.67 349,-282.67 349,-282.67 349,-282.67 75.66,-405.38 22.27,-429.35"/>
<polygon fill="#8292a8" stroke="#8292a8" stroke-width="1.3" points="21.24,-426.74 15.09,-432.57 23.54,-431.85 21.24,-426.74"/>
</g>
<!-- Tag&#45;&gt;Effect -->
<g id="edge4" class="edge">
<title>Tag:s&#45;&gt;Effect:ne</title>
<path fill="none" stroke="#8292a8" stroke-width="1.3" stroke-dasharray="5,2" d="M1141,-358.04C1141,-358.04 1003,-282.67 1003,-282.67 1003,-282.67 349,-282.67 349,-282.67 349,-282.67 323,-320.67 323,-320.67 323,-320.67 305.31,-396.51 298.95,-423.77"/>
<polygon fill="#8292a8" stroke="#8292a8" stroke-width="1.3" points="296.24,-423.04 297.15,-431.46 301.7,-424.31 296.24,-423.04"/>
</g>
<!-- Commit&#45;&gt;Event -->
<g id="edge16" class="edge">
<title>Commit:e&#45;&gt;Event:w</title>
<path fill="none" stroke="#397b8c" stroke-width="1.3" d="M1005.45,-233.44C1005.45,-233.44 1025.44,-233.44 1040.74,-233.44"/>
<polygon fill="#397b8c" stroke="#397b8c" stroke-width="1.3" points="1047.95,-236.24 1055.95,-233.44 1047.95,-230.64 1047.95,-236.24"/>
</g>
<!-- Event&#45;&gt;Reaction -->
<g id="edge17" class="edge">
<title>Event:e&#45;&gt;Reaction:w</title>
<path fill="none" stroke="#7257a6" stroke-width="1.3" d="M1312.08,-233.44C1312.08,-233.44 1331.48,-233.44 1346.49,-233.44"/>
<polygon fill="#7257a6" stroke="#7257a6" stroke-width="1.3" points="1353.7,-236.24 1361.7,-233.44 1353.7,-230.64 1353.7,-236.24"/>
</g>
<!-- Event&#45;&gt;Debug -->
<g id="edge20" class="edge">
<title>Event:s&#45;&gt;Debug:n</title>
<path fill="none" stroke="#8292a8" stroke-width="1.3" stroke-dasharray="1,5" d="M1185,-192.46C1185,-192.46 1185,-126.51 1185,-101.26"/>
<polygon fill="#8292a8" stroke="#8292a8" stroke-width="1.3" points="1187.8,-101.55 1185,-93.55 1182.2,-101.55 1187.8,-101.55"/>
</g>
<!-- Reaction&#45;&gt;Effect -->
<g id="edge18" class="edge">
<title>Reaction:nw&#45;&gt;Effect:se</title>
<path fill="none" stroke="#7257a6" stroke-width="1.3" d="M1363.67,-266.79C1363.67,-266.79 1338,-274.42 1338,-274.42 1338,-274.42 411.32,-342.05 306.35,-349.72"/>
<polygon fill="#7257a6" stroke="#7257a6" stroke-width="1.3" points="306.44,-346.9 298.67,-350.28 306.85,-352.49 306.44,-346.9"/>
</g>
<!-- Reaction&#45;&gt;Status -->
<g id="edge19" class="edge">
<title>Reaction:n&#45;&gt;Status:s</title>
<path fill="none" stroke="#7257a6" stroke-width="1.3" d="M1502,-266.79C1502,-266.79 782.55,-346.66 689.8,-356.96"/>
<polygon fill="#7257a6" stroke="#7257a6" stroke-width="1.3" points="689.6,-354.16 681.96,-357.83 690.22,-359.73 689.6,-354.16"/>
</g>
<!-- Effect&#45;&gt;Commit -->
<g id="edge9" class="edge">
<title>Effect:s&#45;&gt;Commit:n</title>
<path fill="none" stroke="#3d8b6d" stroke-width="1.3" d="M155,-350.42C155,-350.42 815.16,-284.32 904.13,-275.41"/>
<polygon fill="#3d8b6d" stroke="#3d8b6d" stroke-width="1.3" points="904.36,-278.2 912.04,-274.62 903.8,-272.63 904.36,-278.2"/>
</g>
<!-- Effect&#45;&gt;Combat -->
<g id="edge6" class="edge">
<title>Effect:e&#45;&gt;Combat:w</title>
<path fill="none" stroke="#c45c6d" stroke-width="1.3" d="M296.71,-391.4C296.71,-391.4 316.59,-391.4 331.82,-391.4"/>
<polygon fill="#c45c6d" stroke="#c45c6d" stroke-width="1.3" points="338.95,-394.2 346.95,-391.4 338.95,-388.6 338.95,-394.2"/>
</g>
<!-- Combat&#45;&gt;Effect -->
<g id="edge7" class="edge">
<title>Combat:s&#45;&gt;Effect:s</title>
<path fill="none" stroke="#c45c6d" stroke-width="1.3" stroke-dasharray="5,2" d="M443,-358.04C443,-358.04 296.71,-350.42 296.71,-350.42 296.71,-350.42 209.78,-349.81 172.09,-349.54"/>
<polygon fill="#c45c6d" stroke="#c45c6d" stroke-width="1.3" points="164.99,-346.69 156.97,-349.43 164.95,-352.29 164.99,-346.69"/>
</g>
<!-- Combat&#45;&gt;Debug -->
<g id="edge22" class="edge">
<title>Combat:se&#45;&gt;Debug:ne</title>
<path fill="none" stroke="#8292a8" stroke-width="1.3" stroke-dasharray="1,5" d="M537.08,-358.04C537.08,-358.04 563,-350.42 563,-350.42 563,-350.42 1693,-274.42 1693,-274.42 1693,-274.42 1693,-192.46 1693,-192.46 1693,-192.46 1318,-116.46 1318,-116.46 1318,-116.46 1306.89,-105.75 1299.25,-98.38"/>
<polygon fill="#8292a8" stroke="#8292a8" stroke-width="1.3" points="1301.32,-96.49 1293.62,-92.95 1297.44,-100.52 1301.32,-96.49"/>
</g>
<!-- Status&#45;&gt;Commit -->
<g id="edge10" class="edge">
<title>Status:s&#45;&gt;Commit:ne</title>
<path fill="none" stroke="#3d8b6d" stroke-width="1.3" d="M680,-358.04C680,-358.04 942.7,-290.54 996.07,-276.83"/>
<polygon fill="#3d8b6d" stroke="#3d8b6d" stroke-width="1.3" points="996.5,-279.61 1003.55,-274.91 995.1,-274.19 996.5,-279.61"/>
</g>
<!-- Skill&#45;&gt;Commit -->
<g id="edge8" class="edge">
<title>Skill:se&#45;&gt;Commit:nw</title>
<path fill="none" stroke="#3d8b6d" stroke-width="1.3" d="M588.71,-508.38C588.71,-508.38 0,-462.13 0,-462.13 0,-462.13 0,-350.42 0,-350.42 0,-350.42 719.93,-283.9 812.73,-275.33"/>
<polygon fill="#3d8b6d" stroke="#3d8b6d" stroke-width="1.3" points="812.88,-278.13 820.59,-274.6 812.36,-272.55 812.88,-278.13"/>
</g>
<!-- Skill&#45;&gt;Effect -->
<g id="edge5" class="edge">
<title>Skill:s&#45;&gt;Effect:n</title>
<path fill="none" stroke="#7257a6" stroke-width="1.3" d="M486,-508.38C486,-508.38 218.82,-447.84 164.55,-435.54"/>
<polygon fill="#7257a6" stroke="#7257a6" stroke-width="1.3" points="165.34,-432.85 156.92,-433.81 164.1,-438.31 165.34,-432.85"/>
</g>
<!-- Equipment&#45;&gt;Stat -->
<g id="edge11" class="edge">
<title>Equipment:s&#45;&gt;Stat:nw</title>
<path fill="none" stroke="#3d8b6d" stroke-width="1.3" d="M750,-516C750,-516 1463,-462.13 1463,-462.13 1463,-462.13 1475.94,-443.65 1483.62,-432.68"/>
<polygon fill="#3d8b6d" stroke="#3d8b6d" stroke-width="1.3" points="1485.75,-434.53 1488.04,-426.37 1481.16,-431.31 1485.75,-434.53"/>
</g>
<!-- Progression&#45;&gt;Stat -->
<g id="edge12" class="edge">
<title>Progression:s&#45;&gt;Stat:n</title>
<path fill="none" stroke="#3d8b6d" stroke-width="1.3" d="M1016,-516C1016,-516 1463,-462.13 1463,-462.13 1463,-462.13 1553.84,-436.01 1583.65,-427.44"/>
<polygon fill="#3d8b6d" stroke="#3d8b6d" stroke-width="1.3" points="1584.19,-430.2 1591.11,-425.3 1582.65,-424.82 1584.19,-430.2"/>
</g>
<!-- Reward&#45;&gt;Stat -->
<g id="edge14" class="edge">
<title>Reward:sw&#45;&gt;Stat:ne</title>
<path fill="none" stroke="#3d8b6d" stroke-width="1.3" d="M1173.05,-508.38C1173.05,-508.38 1463,-462.13 1463,-462.13 1463,-462.13 1642.83,-433.39 1687.08,-426.31"/>
<polygon fill="#3d8b6d" stroke="#3d8b6d" stroke-width="1.3" points="1687.43,-429.09 1694.89,-425.07 1686.55,-423.56 1687.43,-429.09"/>
</g>
<!-- Reward&#45;&gt;Effect -->
<g id="edge13" class="edge">
<title>Reward:s&#45;&gt;Effect:nw</title>
<path fill="none" stroke="#8a6d3b" stroke-width="1.3" d="M1269,-508.38C1269,-508.38 323,-462.13 323,-462.13 323,-462.13 75.18,-439.12 22.9,-434.27"/>
<polygon fill="#8a6d3b" stroke="#8a6d3b" stroke-width="1.3" points="23.48,-431.51 15.25,-433.56 22.96,-437.09 23.48,-431.51"/>
</g>
<!-- Entity -->
<g id="node1" class="node">
<title>Entity</title>
<path fill="#edf5ff" stroke="#7aa7df" stroke-width="1.4" d="M1425.2,-415.13C1425.2,-415.13 1290.8,-415.13 1290.8,-415.13 1284.8,-415.13 1278.8,-409.13 1278.8,-403.13 1278.8,-403.13 1278.8,-379.67 1278.8,-379.67 1278.8,-373.67 1284.8,-367.67 1290.8,-367.67 1290.8,-367.67 1425.2,-367.67 1425.2,-367.67 1431.2,-367.67 1437.2,-373.67 1437.2,-379.67 1437.2,-379.67 1437.2,-403.13 1437.2,-403.13 1437.2,-409.13 1431.2,-415.13 1425.2,-415.13"/>
<text xml:space="preserve" text-anchor="middle" x="1358" y="-395.35" font-family="Noto Sans KR" font-size="14.00" fill="#182033">Entity / Owner</text>
<text xml:space="preserve" text-anchor="middle" x="1358" y="-378.1" font-family="Noto Sans KR" font-size="14.00" fill="#182033">EntityId · versions</text>
</g>
<!-- Stat -->
<g id="node2" class="node">
<title>Stat</title>
<path fill="#eaf0ff" stroke="#8292f7" stroke-width="1.4" d="M1684.83,-423.75C1684.83,-423.75 1501.17,-423.75 1501.17,-423.75 1495.17,-423.75 1489.17,-417.75 1489.17,-411.75 1489.17,-411.75 1489.17,-371.04 1489.17,-371.04 1489.17,-365.04 1495.17,-359.04 1501.17,-359.04 1501.17,-359.04 1684.83,-359.04 1684.83,-359.04 1690.83,-359.04 1696.83,-365.04 1696.83,-371.04 1696.83,-371.04 1696.83,-411.75 1696.83,-411.75 1696.83,-417.75 1690.83,-423.75 1684.83,-423.75"/>
<text xml:space="preserve" text-anchor="middle" x="1593" y="-403.97" font-family="Noto Sans KR" font-size="14.00" fill="#182033">Stat System</text>
<text xml:space="preserve" text-anchor="middle" x="1593" y="-386.72" font-family="Noto Sans KR" font-size="14.00" fill="#182033">pure GetValue(owner, stat, ctx)</text>
<text xml:space="preserve" text-anchor="middle" x="1593" y="-369.47" font-family="Noto Sans KR" font-size="14.00" fill="#182033">modifier + stat/resource plans</text>
</g>
<!-- Condition -->
<g id="node3" class="node">
<title>Condition</title>
<path fill="#fff7e6" stroke="#e0ad4e" stroke-width="1.4" d="M991.33,-423.75C991.33,-423.75 834.67,-423.75 834.67,-423.75 828.67,-423.75 822.67,-417.75 822.67,-411.75 822.67,-411.75 822.67,-371.04 822.67,-371.04 822.67,-365.04 828.67,-359.04 834.67,-359.04 834.67,-359.04 991.33,-359.04 991.33,-359.04 997.33,-359.04 1003.33,-365.04 1003.33,-371.04 1003.33,-371.04 1003.33,-411.75 1003.33,-411.75 1003.33,-417.75 997.33,-423.75 991.33,-423.75"/>
<text xml:space="preserve" text-anchor="middle" x="913" y="-403.97" font-family="Noto Sans KR" font-size="14.00" fill="#182033">Condition / Context</text>
<text xml:space="preserve" text-anchor="middle" x="913" y="-386.72" font-family="Noto Sans KR" font-size="14.00" fill="#182033">read&#45;only predicates</text>
<text xml:space="preserve" text-anchor="middle" x="913" y="-369.47" font-family="Noto Sans KR" font-size="14.00" fill="#182033">validates Effect conditions</text>
</g>
<!-- Tag -->
<g id="node4" class="node">
<title>Tag</title>
<path fill="#f3eefc" stroke="#ab8fe0" stroke-width="1.4" d="M1214.83,-423.75C1214.83,-423.75 1067.17,-423.75 1067.17,-423.75 1061.17,-423.75 1055.17,-417.75 1055.17,-411.75 1055.17,-411.75 1055.17,-371.04 1055.17,-371.04 1055.17,-365.04 1061.17,-359.04 1067.17,-359.04 1067.17,-359.04 1214.83,-359.04 1214.83,-359.04 1220.83,-359.04 1226.83,-365.04 1226.83,-371.04 1226.83,-371.04 1226.83,-411.75 1226.83,-411.75 1226.83,-417.75 1220.83,-423.75 1214.83,-423.75"/>
<text xml:space="preserve" text-anchor="middle" x="1141" y="-403.97" font-family="Noto Sans KR" font-size="14.00" fill="#182033">Tag System</text>
<text xml:space="preserve" text-anchor="middle" x="1141" y="-386.72" font-family="Noto Sans KR" font-size="14.00" fill="#182033">fire · melee · boss · skill</text>
<text xml:space="preserve" text-anchor="middle" x="1141" y="-369.47" font-family="Noto Sans KR" font-size="14.00" fill="#182033">classifies Effect tags</text>
</g>
<!-- Commit -->
<g id="node5" class="node">
<title>Commit</title>
<path fill="#eefbf6" stroke="#61b99a" stroke-width="1.4" d="M993.46,-274.42C993.46,-274.42 834.54,-274.42 834.54,-274.42 828.54,-274.42 822.54,-268.42 822.54,-262.42 822.54,-262.42 822.54,-204.46 822.54,-204.46 822.54,-198.46 828.54,-192.46 834.54,-192.46 834.54,-192.46 993.46,-192.46 993.46,-192.46 999.46,-192.46 1005.46,-198.46 1005.46,-204.46 1005.46,-204.46 1005.46,-262.42 1005.46,-262.42 1005.46,-268.42 999.46,-274.42 993.46,-274.42"/>
<text xml:space="preserve" text-anchor="middle" x="914" y="-254.64" font-family="Noto Sans KR" font-size="14.00" fill="#182033">RuntimeCommitter</text>
<text xml:space="preserve" text-anchor="middle" x="914" y="-237.39" font-family="Noto Sans KR" font-size="14.00" fill="#182033">versions · invariants</text>
<text xml:space="preserve" text-anchor="middle" x="914" y="-220.14" font-family="Noto Sans KR" font-size="14.00" fill="#182033">accepts all mutation plans</text>
<text xml:space="preserve" text-anchor="middle" x="914" y="-202.89" font-family="Noto Sans KR" font-size="14.00" fill="#182033">state + outbox atomic</text>
</g>
<!-- Event -->
<g id="node6" class="node">
<title>Event</title>
<path fill="#e9fbff" stroke="#54b7cf" stroke-width="1.4" d="M1300.08,-274.42C1300.08,-274.42 1069.92,-274.42 1069.92,-274.42 1063.92,-274.42 1057.92,-268.42 1057.92,-262.42 1057.92,-262.42 1057.92,-204.46 1057.92,-204.46 1057.92,-198.46 1063.92,-192.46 1069.92,-192.46 1069.92,-192.46 1300.08,-192.46 1300.08,-192.46 1306.08,-192.46 1312.08,-198.46 1312.08,-204.46 1312.08,-204.46 1312.08,-262.42 1312.08,-262.42 1312.08,-268.42 1306.08,-274.42 1300.08,-274.42"/>
<text xml:space="preserve" text-anchor="middle" x="1185" y="-254.64" font-family="Noto Sans KR" font-size="14.00" fill="#182033">Committed Facts Bus</text>
<text xml:space="preserve" text-anchor="middle" x="1185" y="-237.39" font-family="Noto Sans KR" font-size="14.00" fill="#182033">dispatch after commit</text>
<text xml:space="preserve" text-anchor="middle" x="1185" y="-220.14" font-family="Noto Sans KR" font-size="14.00" fill="#182033">SkillCommitted · DamageCommitted</text>
<text xml:space="preserve" text-anchor="middle" x="1185" y="-202.89" font-family="Noto Sans KR" font-size="14.00" fill="#182033">StatChanged · StatusApplied</text>
</g>
<!-- Reaction -->
<g id="node7" class="node">
<title>Reaction</title>
<path fill="#f3eefc" stroke="#ab8fe0" stroke-width="1.4" d="M1628.33,-265.79C1628.33,-265.79 1375.67,-265.79 1375.67,-265.79 1369.67,-265.79 1363.67,-259.79 1363.67,-253.79 1363.67,-253.79 1363.67,-213.08 1363.67,-213.08 1363.67,-207.08 1369.67,-201.08 1375.67,-201.08 1375.67,-201.08 1628.33,-201.08 1628.33,-201.08 1634.33,-201.08 1640.33,-207.08 1640.33,-213.08 1640.33,-213.08 1640.33,-253.79 1640.33,-253.79 1640.33,-259.79 1634.33,-265.79 1628.33,-265.79"/>
<text xml:space="preserve" text-anchor="middle" x="1502" y="-246.01" font-family="Noto Sans KR" font-size="14.00" fill="#182033">ReactionQueue</text>
<text xml:space="preserve" text-anchor="middle" x="1502" y="-228.76" font-family="Noto Sans KR" font-size="14.00" fill="#182033">priority · stable key · budget</text>
<text xml:space="preserve" text-anchor="middle" x="1502" y="-211.51" font-family="Noto Sans KR" font-size="14.00" fill="#182033">dequeues Effect / ApplyStatus commands</text>
</g>
<!-- Effect -->
<g id="node8" class="node">
<title>Effect</title>
<path fill="#fff0f3" stroke="#e07b91" stroke-width="2.2" d="M284.71,-432.38C284.71,-432.38 25.29,-432.38 25.29,-432.38 19.29,-432.38 13.29,-426.38 13.29,-420.38 13.29,-420.38 13.29,-362.42 13.29,-362.42 13.29,-356.42 19.29,-350.42 25.29,-350.42 25.29,-350.42 284.71,-350.42 284.71,-350.42 290.71,-350.42 296.71,-356.42 296.71,-362.42 296.71,-362.42 296.71,-420.38 296.71,-420.38 296.71,-426.38 290.71,-432.38 284.71,-432.38"/>
<text xml:space="preserve" text-anchor="middle" x="155" y="-412.6" font-family="Noto Sans KR" font-size="14.00" fill="#182033">Effect System</text>
<text xml:space="preserve" text-anchor="middle" x="155" y="-395.35" font-family="Noto Sans KR" font-size="14.00" fill="#182033">public Execute(Operation | Bundle)</text>
<text xml:space="preserve" text-anchor="middle" x="155" y="-378.1" font-family="Noto Sans KR" font-size="14.00" fill="#182033">IEffectPlanner.Prepare → EffectBundlePlan</text>
<text xml:space="preserve" text-anchor="middle" x="155" y="-360.85" font-family="Noto Sans KR" font-size="14.00" fill="#182033">sends DamageRequest</text>
</g>
<!-- Combat -->
<g id="node9" class="node">
<title>Combat</title>
<path fill="#fff0f3" stroke="#e07b91" stroke-width="1.4" d="M525.08,-423.75C525.08,-423.75 360.92,-423.75 360.92,-423.75 354.92,-423.75 348.92,-417.75 348.92,-411.75 348.92,-411.75 348.92,-371.04 348.92,-371.04 348.92,-365.04 354.92,-359.04 360.92,-359.04 360.92,-359.04 525.08,-359.04 525.08,-359.04 531.08,-359.04 537.08,-365.04 537.08,-371.04 537.08,-371.04 537.08,-411.75 537.08,-411.75 537.08,-417.75 531.08,-423.75 525.08,-423.75"/>
<text xml:space="preserve" text-anchor="middle" x="443" y="-403.97" font-family="Noto Sans KR" font-size="14.00" fill="#182033">Combat Resolution</text>
<text xml:space="preserve" text-anchor="middle" x="443" y="-386.72" font-family="Noto Sans KR" font-size="14.00" fill="#182033">resolves DamageRequest</text>
<text xml:space="preserve" text-anchor="middle" x="443" y="-369.47" font-family="Noto Sans KR" font-size="14.00" fill="#182033">returns pure DamageResult</text>
</g>
<!-- Status -->
<g id="node10" class="node">
<title>Status</title>
<path fill="#e9fbff" stroke="#54b7cf" stroke-width="1.4" d="M758.71,-423.75C758.71,-423.75 601.29,-423.75 601.29,-423.75 595.29,-423.75 589.29,-417.75 589.29,-411.75 589.29,-411.75 589.29,-371.04 589.29,-371.04 589.29,-365.04 595.29,-359.04 601.29,-359.04 601.29,-359.04 758.71,-359.04 758.71,-359.04 764.71,-359.04 770.71,-365.04 770.71,-371.04 770.71,-371.04 770.71,-411.75 770.71,-411.75 770.71,-417.75 764.71,-423.75 758.71,-423.75"/>
<text xml:space="preserve" text-anchor="middle" x="680" y="-403.97" font-family="Noto Sans KR" font-size="14.00" fill="#182033">Status System</text>
<text xml:space="preserve" text-anchor="middle" x="680" y="-386.72" font-family="Noto Sans KR" font-size="14.00" fill="#182033">ApplyStatus command</text>
<text xml:space="preserve" text-anchor="middle" x="680" y="-369.47" font-family="Noto Sans KR" font-size="14.00" fill="#182033">status / tick mutation plan</text>
</g>
<!-- Skill -->
<g id="node11" class="node">
<title>Skill</title>
<path fill="#f7f9fc" stroke="#bac7db" stroke-width="1.4" d="M576.71,-573.09C576.71,-573.09 395.3,-573.09 395.3,-573.09 389.3,-573.09 383.3,-567.09 383.3,-561.09 383.3,-561.09 383.3,-520.38 383.3,-520.38 383.3,-514.38 389.3,-508.38 395.3,-508.38 395.3,-508.38 576.71,-508.38 576.71,-508.38 582.71,-508.38 588.71,-514.38 588.71,-520.38 588.71,-520.38 588.71,-561.09 588.71,-561.09 588.71,-567.09 582.71,-573.09 576.71,-573.09"/>
<text xml:space="preserve" text-anchor="middle" x="486" y="-553.31" font-family="Noto Sans KR" font-size="14.00" fill="#182033">Skill / Action</text>
<text xml:space="preserve" text-anchor="middle" x="486" y="-536.06" font-family="Noto Sans KR" font-size="14.00" fill="#182033">IEffectPlanner.Prepare input</text>
<text xml:space="preserve" text-anchor="middle" x="486" y="-518.81" font-family="Noto Sans KR" font-size="14.00" fill="#182033">cost/cooldown mutation plan</text>
</g>
<!-- Equipment -->
<g id="node12" class="node">
<title>Equipment</title>
<path fill="#f7f9fc" stroke="#bac7db" stroke-width="1.4" d="M847.08,-564.46C847.08,-564.46 652.92,-564.46 652.92,-564.46 646.92,-564.46 640.92,-558.46 640.92,-552.46 640.92,-552.46 640.92,-529 640.92,-529 640.92,-523 646.92,-517 652.92,-517 652.92,-517 847.08,-517 847.08,-517 853.08,-517 859.08,-523 859.08,-529 859.08,-529 859.08,-552.46 859.08,-552.46 859.08,-558.46 853.08,-564.46 847.08,-564.46"/>
<text xml:space="preserve" text-anchor="middle" x="750" y="-544.68" font-family="Noto Sans KR" font-size="14.00" fill="#182033">Equipment / Item</text>
<text xml:space="preserve" text-anchor="middle" x="750" y="-527.43" font-family="Noto Sans KR" font-size="14.00" fill="#182033">equipment modifier plan to Stat</text>
</g>
<!-- Progression -->
<g id="node13" class="node">
<title>Progression</title>
<path fill="#f7f9fc" stroke="#bac7db" stroke-width="1.4" d="M1109.33,-564.46C1109.33,-564.46 922.67,-564.46 922.67,-564.46 916.67,-564.46 910.67,-558.46 910.67,-552.46 910.67,-552.46 910.67,-529 910.67,-529 910.67,-523 916.67,-517 922.67,-517 922.67,-517 1109.33,-517 1109.33,-517 1115.33,-517 1121.33,-523 1121.33,-529 1121.33,-529 1121.33,-552.46 1121.33,-552.46 1121.33,-558.46 1115.33,-564.46 1109.33,-564.46"/>
<text xml:space="preserve" text-anchor="middle" x="1016" y="-544.68" font-family="Noto Sans KR" font-size="14.00" fill="#182033">Progression</text>
<text xml:space="preserve" text-anchor="middle" x="1016" y="-527.43" font-family="Noto Sans KR" font-size="14.00" fill="#182033">base&#45;stat mutation plan to Stat</text>
</g>
<!-- Reward -->
<g id="node14" class="node">
<title>Reward</title>
<path fill="#f7f9fc" stroke="#bac7db" stroke-width="1.4" d="M1352.95,-573.09C1352.95,-573.09 1185.05,-573.09 1185.05,-573.09 1179.05,-573.09 1173.05,-567.09 1173.05,-561.09 1173.05,-561.09 1173.05,-520.38 1173.05,-520.38 1173.05,-514.38 1179.05,-508.38 1185.05,-508.38 1185.05,-508.38 1352.95,-508.38 1352.95,-508.38 1358.95,-508.38 1364.95,-514.38 1364.95,-520.38 1364.95,-520.38 1364.95,-561.09 1364.95,-561.09 1364.95,-567.09 1358.95,-573.09 1352.95,-573.09"/>
<text xml:space="preserve" text-anchor="middle" x="1269" y="-553.31" font-family="Noto Sans KR" font-size="14.00" fill="#182033">Reward / Roguelite</text>
<text xml:space="preserve" text-anchor="middle" x="1269" y="-536.06" font-family="Noto Sans KR" font-size="14.00" fill="#182033">effect definitions to Effect</text>
<text xml:space="preserve" text-anchor="middle" x="1269" y="-518.81" font-family="Noto Sans KR" font-size="14.00" fill="#182033">reward modifier plan to Stat</text>
</g>
<!-- Debug -->
<g id="node15" class="node">
<title>Debug</title>
<path fill="#f0f3f9" stroke="#99a8bd" stroke-width="1.4" d="M1280.2,-90.58C1280.2,-90.58 1089.8,-90.58 1089.8,-90.58 1083.8,-90.58 1077.8,-84.58 1077.8,-78.58 1077.8,-78.58 1077.8,-37.88 1077.8,-37.88 1077.8,-31.88 1083.8,-25.88 1089.8,-25.88 1089.8,-25.88 1280.2,-25.88 1280.2,-25.88 1286.2,-25.88 1292.2,-31.88 1292.2,-37.88 1292.2,-37.88 1292.2,-78.58 1292.2,-78.58 1292.2,-84.58 1286.2,-90.58 1280.2,-90.58"/>
<text xml:space="preserve" text-anchor="middle" x="1185" y="-70.8" font-family="Noto Sans KR" font-size="14.00" fill="#182033">Observation / Debug</text>
<text xml:space="preserve" text-anchor="middle" x="1185" y="-53.55" font-family="Noto Sans KR" font-size="14.00" fill="#182033">observes Event · Stat · Combat</text>
<text xml:space="preserve" text-anchor="middle" x="1185" y="-36.3" font-family="Noto Sans KR" font-size="14.00" fill="#182033">Breakdown · CombatLog · UI</text>
</g>
<!-- Legend -->
<g id="node16" class="node">
<title>Legend</title>
<polygon fill="#ffffff" stroke="#99a8bd" stroke-width="1.4" points="1547.95,-116.46 1344.05,-116.46 1344.05,0 1553.95,0 1553.95,-110.46 1547.95,-116.46"/>
<polyline fill="none" stroke="#99a8bd" stroke-width="1.4" points="1547.95,-116.46 1547.95,-110.46"/>
<polyline fill="none" stroke="#99a8bd" stroke-width="1.4" points="1553.95,-110.46 1547.95,-110.46"/>
<text xml:space="preserve" text-anchor="middle" x="1449" y="-96.68" font-family="Noto Sans KR" font-size="14.00" fill="#182033">Line semantics</text>
<text xml:space="preserve" text-anchor="middle" x="1449" y="-79.43" font-family="Noto Sans KR" font-size="14.00" fill="#182033">green: mutation / commit plan</text>
<text xml:space="preserve" text-anchor="middle" x="1449" y="-62.18" font-family="Noto Sans KR" font-size="14.00" fill="#182033">purple: command / reaction</text>
<text xml:space="preserve" text-anchor="middle" x="1449" y="-44.93" font-family="Noto Sans KR" font-size="14.00" fill="#182033">red: combat resolve / return</text>
<text xml:space="preserve" text-anchor="middle" x="1449" y="-27.68" font-family="Noto Sans KR" font-size="14.00" fill="#182033">dashed gray: read&#45;only query</text>
<text xml:space="preserve" text-anchor="middle" x="1449" y="-10.43" font-family="Noto Sans KR" font-size="14.00" fill="#182033">dotted gray: observation</text>
</g>
</g>
</svg>
