<?xml version="1.0" encoding="UTF-8" standalone="no"?>
<!DOCTYPE svg PUBLIC "-//W3C//DTD SVG 1.1//EN"
 "http://www.w3.org/Graphics/SVG/1.1/DTD/svg11.dtd">
<!-- Generated by graphviz version 15.0.0 (20260523.1842)
 -->
<!-- Title: G Pages: 1 -->
<svg width="1914pt" height="637pt"
 viewBox="9.00 9.00 1905.00 629.00" xmlns="http://www.w3.org/2000/svg" xmlns:xlink="http://www.w3.org/1999/xlink">
<g id="graph0" class="graph" transform="scale(1 1) rotate(0) translate(26.64 610.64)">
<title>G</title>
<polygon fill="#ffffff" stroke="none" points="-18,18 -18,-602 1878.62,-602 1878.62,18 -18,18"/>
<g id="clust1" class="cluster">
<title>cluster_core</title>
<path fill="#ffffff" stroke="#dfe5ee" stroke-dasharray="5,2" d="M80.7,-336C80.7,-336 1840.62,-336 1840.62,-336 1846.62,-336 1852.62,-342 1852.62,-348 1852.62,-348 1852.62,-564 1852.62,-564 1852.62,-570 1846.62,-576 1840.62,-576 1840.62,-576 80.7,-576 80.7,-576 74.7,-576 68.7,-570 68.7,-564 68.7,-564 68.7,-348 68.7,-348 68.7,-342 74.7,-336 80.7,-336"/>
<text xml:space="preserve" text-anchor="middle" x="960.66" y="-555.8" font-family="Noto Sans CJK KR" font-size="18.00" fill="#607086">Core Runtime · contracts and commit boundary</text>
</g>
<g id="clust2" class="cluster">
<title>cluster_bridge</title>
<path fill="#ffffff" stroke="#dfe5ee" stroke-dasharray="5,2" d="M864.17,-154C864.17,-154 1425.35,-154 1425.35,-154 1431.35,-154 1437.35,-160 1437.35,-166 1437.35,-166 1437.35,-317 1437.35,-317 1437.35,-323 1431.35,-329 1425.35,-329 1425.35,-329 864.17,-329 864.17,-329 858.17,-329 852.17,-323 852.17,-317 852.17,-317 852.17,-166 852.17,-166 852.17,-160 858.17,-154 864.17,-154"/>
<text xml:space="preserve" text-anchor="middle" x="1144.76" y="-308.8" font-family="Noto Sans CJK KR" font-size="18.00" fill="#607086">Effect Bridge · public execution and composition planning</text>
</g>
<g id="clust3" class="cluster">
<title>cluster_game</title>
<path fill="#ffffff" stroke="#dfe5ee" stroke-dasharray="5,2" d="M20,-8C20,-8 282.41,-8 282.41,-8 288.41,-8 294.41,-14 294.41,-20 294.41,-20 294.41,-318 294.41,-318 294.41,-324 288.41,-330 282.41,-330 282.41,-330 20,-330 20,-330 14,-330 8,-324 8,-318 8,-318 8,-20 8,-20 8,-14 14,-8 20,-8"/>
<text xml:space="preserve" text-anchor="middle" x="151.21" y="-309.8" font-family="Noto Sans CJK KR" font-size="18.00" fill="#607086">Game layer · commands and policies</text>
</g>
<!-- Entity -->
<g id="node1" class="node">
<title>Entity</title>
<path fill="#edf5ff" stroke="#7aa7df" stroke-width="1.4" d="M217.91,-546.28C217.91,-546.28 83.51,-546.28 83.51,-546.28 77.51,-546.28 71.51,-540.28 71.51,-534.28 71.51,-534.28 71.51,-511.72 71.51,-511.72 71.51,-505.72 77.51,-499.72 83.51,-499.72 83.51,-499.72 217.91,-499.72 217.91,-499.72 223.91,-499.72 229.91,-505.72 229.91,-511.72 229.91,-511.72 229.91,-534.28 229.91,-534.28 229.91,-540.28 223.91,-546.28 217.91,-546.28"/>
<text xml:space="preserve" text-anchor="middle" x="150.71" y="-527.2" font-family="Noto Sans CJK KR" font-size="14.00" fill="#182033">Entity / Owner</text>
<text xml:space="preserve" text-anchor="middle" x="150.71" y="-510.4" font-family="Noto Sans CJK KR" font-size="14.00" fill="#182033">EntityId · versions</text>
</g>
<!-- Stat -->
<g id="node2" class="node">
<title>Stat</title>
<path fill="#eaf0ff" stroke="#8292f7" stroke-width="1.4" d="M631.86,-460.28C631.86,-460.28 455.97,-460.28 455.97,-460.28 449.97,-460.28 443.97,-454.28 443.97,-448.28 443.97,-448.28 443.97,-425.72 443.97,-425.72 443.97,-419.72 449.97,-413.72 455.97,-413.72 455.97,-413.72 631.86,-413.72 631.86,-413.72 637.86,-413.72 643.86,-419.72 643.86,-425.72 643.86,-425.72 643.86,-448.28 643.86,-448.28 643.86,-454.28 637.86,-460.28 631.86,-460.28"/>
<text xml:space="preserve" text-anchor="middle" x="543.92" y="-441.2" font-family="Noto Sans CJK KR" font-size="14.00" fill="#182033">Stat System</text>
<text xml:space="preserve" text-anchor="middle" x="543.92" y="-424.4" font-family="Noto Sans CJK KR" font-size="14.00" fill="#182033">pure GetValue + Modifier plans</text>
</g>
<!-- Entity&#45;&gt;Stat -->
<g id="edge1" class="edge">
<title>Entity&#45;&gt;Stat</title>
<path fill="none" stroke="#59687e" stroke-width="1.3" d="M230.19,-523C344.96,-523 543.48,-523 543.48,-523 543.48,-523 543.48,-470.92 543.48,-470.92"/>
<polygon fill="#59687e" stroke="#59687e" stroke-width="1.3" points="546.28,-470.92 543.48,-462.92 540.68,-470.92 546.28,-470.92"/>
<text xml:space="preserve" text-anchor="middle" x="355.29" y="-515.2" font-family="Noto Sans CJK KR" font-size="14.00" fill="#46566e">owns snapshot</text>
</g>
<!-- Commit -->
<g id="node5" class="node">
<title>Commit</title>
<path fill="#eefbf6" stroke="#61b99a" stroke-width="1.4" d="M1029.01,-431.68C1029.01,-431.68 894.61,-431.68 894.61,-431.68 888.61,-431.68 882.61,-425.68 882.61,-419.68 882.61,-419.68 882.61,-380.32 882.61,-380.32 882.61,-374.32 888.61,-368.32 894.61,-368.32 894.61,-368.32 1029.01,-368.32 1029.01,-368.32 1035.01,-368.32 1041.01,-374.32 1041.01,-380.32 1041.01,-380.32 1041.01,-419.68 1041.01,-419.68 1041.01,-425.68 1035.01,-431.68 1029.01,-431.68"/>
<text xml:space="preserve" text-anchor="middle" x="961.81" y="-412.6" font-family="Noto Sans CJK KR" font-size="14.00" fill="#182033">RuntimeCommitter</text>
<text xml:space="preserve" text-anchor="middle" x="961.81" y="-395.8" font-family="Noto Sans CJK KR" font-size="14.00" fill="#182033">versions · invariants</text>
<text xml:space="preserve" text-anchor="middle" x="961.81" y="-379" font-family="Noto Sans CJK KR" font-size="14.00" fill="#182033">state + outbox atomic</text>
</g>
<!-- Stat&#45;&gt;Commit -->
<g id="edge15" class="edge">
<title>Stat&#45;&gt;Commit</title>
<path fill="none" stroke="#59687e" stroke-width="1.3" d="M644.55,-425.69C644.55,-425.69 871.98,-425.69 871.98,-425.69"/>
<polygon fill="#59687e" stroke="#59687e" stroke-width="1.3" points="871.98,-428.49 879.98,-425.69 871.98,-422.89 871.98,-428.49"/>
<text xml:space="preserve" text-anchor="middle" x="753.92" y="-452.2" font-family="Noto Sans CJK KR" font-size="14.00" fill="#46566e">stat/resource mutation</text>
</g>
<!-- Effect -->
<g id="node8" class="node">
<title>Effect</title>
<path fill="#fff0f3" stroke="#e07b91" stroke-width="2.2" d="M1059.45,-217.68C1059.45,-217.68 864.17,-217.68 864.17,-217.68 858.17,-217.68 852.17,-211.68 852.17,-205.68 852.17,-205.68 852.17,-166.32 852.17,-166.32 852.17,-160.32 858.17,-154.32 864.17,-154.32 864.17,-154.32 1059.45,-154.32 1059.45,-154.32 1065.45,-154.32 1071.45,-160.32 1071.45,-166.32 1071.45,-166.32 1071.45,-205.68 1071.45,-205.68 1071.45,-211.68 1065.45,-217.68 1059.45,-217.68"/>
<text xml:space="preserve" text-anchor="middle" x="961.81" y="-198.6" font-family="Noto Sans CJK KR" font-size="14.00" fill="#182033">Effect System</text>
<text xml:space="preserve" text-anchor="middle" x="961.81" y="-181.8" font-family="Noto Sans CJK KR" font-size="14.00" fill="#182033">public Execute(Operation | Bundle)</text>
<text xml:space="preserve" text-anchor="middle" x="961.81" y="-165" font-family="Noto Sans CJK KR" font-size="14.00" fill="#182033">public Prepare(Bundle) plan</text>
</g>
<!-- Stat&#45;&gt;Effect -->
<g id="edge2" class="edge">
<title>Stat&#45;&gt;Effect</title>
<path fill="none" stroke="#59687e" stroke-width="1.3" stroke-dasharray="5,2" d="M644.34,-419.71C738.69,-419.71 865.48,-419.71 865.48,-419.71 865.48,-419.71 865.48,-228.46 865.48,-228.46"/>
<polygon fill="#59687e" stroke="#59687e" stroke-width="1.3" points="868.28,-228.46 865.48,-220.46 862.68,-228.46 868.28,-228.46"/>
<text xml:space="preserve" text-anchor="middle" x="753.92" y="-395.2" font-family="Noto Sans CJK KR" font-size="14.00" fill="#46566e">GetValue(owner, stat, ctx)</text>
</g>
<!-- Debug -->
<g id="node15" class="node">
<title>Debug</title>
<path fill="#f0f3f9" stroke="#99a8bd" stroke-width="1.4" d="M1845.48,-214.28C1845.48,-214.28 1675.13,-214.28 1675.13,-214.28 1669.13,-214.28 1663.13,-208.28 1663.13,-202.28 1663.13,-202.28 1663.13,-179.72 1663.13,-179.72 1663.13,-173.72 1669.13,-167.72 1675.13,-167.72 1675.13,-167.72 1845.48,-167.72 1845.48,-167.72 1851.48,-167.72 1857.48,-173.72 1857.48,-179.72 1857.48,-179.72 1857.48,-202.28 1857.48,-202.28 1857.48,-208.28 1851.48,-214.28 1845.48,-214.28"/>
<text xml:space="preserve" text-anchor="middle" x="1760.31" y="-195.2" font-family="Noto Sans CJK KR" font-size="14.00" fill="#182033">Observation / Debug</text>
<text xml:space="preserve" text-anchor="middle" x="1760.31" y="-178.4" font-family="Noto Sans CJK KR" font-size="14.00" fill="#182033">Breakdown · CombatLog · UI</text>
</g>
<!-- Stat&#45;&gt;Debug -->
<g id="edge21" class="edge">
<title>Stat&#45;&gt;Debug</title>
<path fill="none" stroke="#59687e" stroke-width="1.3" stroke-dasharray="5,2" d="M593.48,-413.32C593.48,-386.08 593.48,-345.05 593.48,-345.05 593.48,-345.05 1760.48,-345.05 1760.48,-345.05 1760.48,-345.05 1760.48,-224.7 1760.48,-224.7"/>
<polygon fill="#59687e" stroke="#59687e" stroke-width="1.3" points="1763.28,-224.7 1760.48,-216.7 1757.68,-224.7 1763.28,-224.7"/>
<text xml:space="preserve" text-anchor="middle" x="1156.49" y="-105.2" font-family="Noto Sans CJK KR" font-size="14.00" fill="#46566e">DebugBreakdown</text>
</g>
<!-- Condition -->
<g id="node3" class="node">
<title>Condition</title>
<path fill="#fff7e6" stroke="#e0ad4e" stroke-width="1.4" d="M217.91,-464.28C217.91,-464.28 83.51,-464.28 83.51,-464.28 77.51,-464.28 71.51,-458.28 71.51,-452.28 71.51,-452.28 71.51,-429.72 71.51,-429.72 71.51,-423.72 77.51,-417.72 83.51,-417.72 83.51,-417.72 217.91,-417.72 217.91,-417.72 223.91,-417.72 229.91,-423.72 229.91,-429.72 229.91,-429.72 229.91,-452.28 229.91,-452.28 229.91,-458.28 223.91,-464.28 217.91,-464.28"/>
<text xml:space="preserve" text-anchor="middle" x="150.71" y="-445.2" font-family="Noto Sans CJK KR" font-size="14.00" fill="#182033">Condition / Context</text>
<text xml:space="preserve" text-anchor="middle" x="150.71" y="-428.4" font-family="Noto Sans CJK KR" font-size="14.00" fill="#182033">read&#45;only predicates</text>
</g>
<!-- Condition&#45;&gt;Effect -->
<g id="edge3" class="edge">
<title>Condition&#45;&gt;Effect</title>
<path fill="none" stroke="#59687e" stroke-width="1.3" stroke-dasharray="5,2" d="M230.37,-431.91C296.06,-431.91 378.48,-431.91 378.48,-431.91 378.48,-431.91 378.48,-187.04 378.48,-187.04 378.48,-187.04 841.44,-187.04 841.44,-187.04"/>
<polygon fill="#59687e" stroke="#59687e" stroke-width="1.3" points="841.44,-189.84 849.44,-187.04 841.44,-184.24 841.44,-189.84"/>
<text xml:space="preserve" text-anchor="middle" x="543.92" y="-366.2" font-family="Noto Sans CJK KR" font-size="14.00" fill="#46566e">validate</text>
</g>
<!-- Tag -->
<g id="node4" class="node">
<title>Tag</title>
<path fill="#f3eefc" stroke="#ab8fe0" stroke-width="1.4" d="M220.72,-382.28C220.72,-382.28 80.7,-382.28 80.7,-382.28 74.7,-382.28 68.7,-376.28 68.7,-370.28 68.7,-370.28 68.7,-347.72 68.7,-347.72 68.7,-341.72 74.7,-335.72 80.7,-335.72 80.7,-335.72 220.72,-335.72 220.72,-335.72 226.72,-335.72 232.72,-341.72 232.72,-347.72 232.72,-347.72 232.72,-370.28 232.72,-370.28 232.72,-376.28 226.72,-382.28 220.72,-382.28"/>
<text xml:space="preserve" text-anchor="middle" x="150.71" y="-363.2" font-family="Noto Sans CJK KR" font-size="14.00" fill="#182033">Tag System</text>
<text xml:space="preserve" text-anchor="middle" x="150.71" y="-346.4" font-family="Noto Sans CJK KR" font-size="14.00" fill="#182033">fire · melee · boss · skill</text>
</g>
<!-- Tag&#45;&gt;Effect -->
<g id="edge4" class="edge">
<title>Tag&#45;&gt;Effect</title>
<path fill="none" stroke="#59687e" stroke-width="1.3" stroke-dasharray="5,2" d="M233.28,-340.39C419.99,-340.39 858.48,-340.39 858.48,-340.39 858.48,-340.39 858.48,-228.71 858.48,-228.71"/>
<polygon fill="#59687e" stroke="#59687e" stroke-width="1.3" points="861.28,-228.71 858.48,-220.71 855.68,-228.71 861.28,-228.71"/>
<text xml:space="preserve" text-anchor="middle" x="543.92" y="-192.2" font-family="Noto Sans CJK KR" font-size="14.00" fill="#46566e">classify</text>
</g>
<!-- Event -->
<g id="node6" class="node">
<title>Event</title>
<path fill="#e9fbff" stroke="#54b7cf" stroke-width="1.4" d="M1462.78,-487.68C1462.78,-487.68 1253.52,-487.68 1253.52,-487.68 1247.52,-487.68 1241.52,-481.68 1241.52,-475.68 1241.52,-475.68 1241.52,-436.32 1241.52,-436.32 1241.52,-430.32 1247.52,-424.32 1253.52,-424.32 1253.52,-424.32 1462.78,-424.32 1462.78,-424.32 1468.78,-424.32 1474.78,-430.32 1474.78,-436.32 1474.78,-436.32 1474.78,-475.68 1474.78,-475.68 1474.78,-481.68 1468.78,-487.68 1462.78,-487.68"/>
<text xml:space="preserve" text-anchor="middle" x="1358.15" y="-468.6" font-family="Noto Sans CJK KR" font-size="14.00" fill="#182033">Committed Facts Bus</text>
<text xml:space="preserve" text-anchor="middle" x="1358.15" y="-451.8" font-family="Noto Sans CJK KR" font-size="14.00" fill="#182033">SkillCommitted · DamageCommitted</text>
<text xml:space="preserve" text-anchor="middle" x="1358.15" y="-435" font-family="Noto Sans CJK KR" font-size="14.00" fill="#182033">StatChanged · StatusApplied</text>
</g>
<!-- Commit&#45;&gt;Event -->
<g id="edge16" class="edge">
<title>Commit&#45;&gt;Event</title>
<path fill="none" stroke="#59687e" stroke-width="1.3" d="M1041.54,-428C1041.54,-428 1231,-428 1231,-428"/>
<polygon fill="#59687e" stroke="#59687e" stroke-width="1.3" points="1231,-430.8 1239,-428 1231,-425.2 1231,-430.8"/>
<text xml:space="preserve" text-anchor="middle" x="1156.49" y="-448.2" font-family="Noto Sans CJK KR" font-size="14.00" fill="#46566e">dispatch after commit</text>
</g>
<!-- Reaction -->
<g id="node7" class="node">
<title>Reaction</title>
<path fill="#f3eefc" stroke="#ab8fe0" stroke-width="1.4" d="M1840.62,-396.28C1840.62,-396.28 1679.99,-396.28 1679.99,-396.28 1673.99,-396.28 1667.99,-390.28 1667.99,-384.28 1667.99,-384.28 1667.99,-361.72 1667.99,-361.72 1667.99,-355.72 1673.99,-349.72 1679.99,-349.72 1679.99,-349.72 1840.62,-349.72 1840.62,-349.72 1846.62,-349.72 1852.62,-355.72 1852.62,-361.72 1852.62,-361.72 1852.62,-384.28 1852.62,-384.28 1852.62,-390.28 1846.62,-396.28 1840.62,-396.28"/>
<text xml:space="preserve" text-anchor="middle" x="1760.31" y="-377.2" font-family="Noto Sans CJK KR" font-size="14.00" fill="#182033">ReactionQueue</text>
<text xml:space="preserve" text-anchor="middle" x="1760.31" y="-360.4" font-family="Noto Sans CJK KR" font-size="14.00" fill="#182033">priority · stable key · budget</text>
</g>
<!-- Event&#45;&gt;Reaction -->
<g id="edge17" class="edge">
<title>Event&#45;&gt;Reaction</title>
<path fill="none" stroke="#59687e" stroke-width="1.3" d="M1462.48,-423.89C1462.48,-404.03 1462.48,-382.3 1462.48,-382.3 1462.48,-382.3 1657.33,-382.3 1657.33,-382.3"/>
<polygon fill="#59687e" stroke="#59687e" stroke-width="1.3" points="1657.33,-385.1 1665.33,-382.3 1657.33,-379.5 1657.33,-385.1"/>
<text xml:space="preserve" text-anchor="middle" x="1568.95" y="-492.2" font-family="Noto Sans CJK KR" font-size="14.00" fill="#46566e">state&#45;changing follow&#45;up</text>
</g>
<!-- Event&#45;&gt;Debug -->
<g id="edge20" class="edge">
<title>Event&#45;&gt;Debug</title>
<path fill="none" stroke="#59687e" stroke-width="1.3" d="M1449.48,-423.68C1449.48,-354.59 1449.48,-198.76 1449.48,-198.76 1449.48,-198.76 1652.84,-198.76 1652.84,-198.76"/>
<polygon fill="#59687e" stroke="#59687e" stroke-width="1.3" points="1652.84,-201.56 1660.84,-198.76 1652.84,-195.96 1652.84,-201.56"/>
<text xml:space="preserve" text-anchor="middle" x="1568.95" y="-435.2" font-family="Noto Sans CJK KR" font-size="14.00" fill="#46566e">observe</text>
</g>
<!-- Reaction&#45;&gt;Effect -->
<g id="edge18" class="edge">
<title>Reaction&#45;&gt;Effect</title>
<path fill="none" stroke="#59687e" stroke-width="1.3" d="M1667.34,-355.92C1476.32,-355.92 1057.48,-355.92 1057.48,-355.92 1057.48,-355.92 1057.48,-228.73 1057.48,-228.73"/>
<polygon fill="#59687e" stroke="#59687e" stroke-width="1.3" points="1060.28,-228.73 1057.48,-220.73 1054.68,-228.73 1060.28,-228.73"/>
<text xml:space="preserve" text-anchor="middle" x="1358.15" y="-290.2" font-family="Noto Sans CJK KR" font-size="14.00" fill="#46566e">new Effect command</text>
</g>
<!-- Status -->
<g id="node10" class="node">
<title>Status</title>
<path fill="#e9fbff" stroke="#54b7cf" stroke-width="1.4" d="M1032.22,-299.28C1032.22,-299.28 891.41,-299.28 891.41,-299.28 885.41,-299.28 879.41,-293.28 879.41,-287.28 879.41,-287.28 879.41,-264.72 879.41,-264.72 879.41,-258.72 885.41,-252.72 891.41,-252.72 891.41,-252.72 1032.22,-252.72 1032.22,-252.72 1038.22,-252.72 1044.22,-258.72 1044.22,-264.72 1044.22,-264.72 1044.22,-287.28 1044.22,-287.28 1044.22,-293.28 1038.22,-299.28 1032.22,-299.28"/>
<text xml:space="preserve" text-anchor="middle" x="961.81" y="-280.2" font-family="Noto Sans CJK KR" font-size="14.00" fill="#182033">Status System</text>
<text xml:space="preserve" text-anchor="middle" x="961.81" y="-263.4" font-family="Noto Sans CJK KR" font-size="14.00" fill="#182033">status / tick mutation plan</text>
</g>
<!-- Reaction&#45;&gt;Status -->
<g id="edge19" class="edge">
<title>Reaction&#45;&gt;Status</title>
<path fill="none" stroke="#59687e" stroke-width="1.3" d="M1667.59,-362.12C1462.51,-362.12 988.48,-362.12 988.48,-362.12 988.48,-362.12 988.48,-309.5 988.48,-309.5"/>
<polygon fill="#59687e" stroke="#59687e" stroke-width="1.3" points="991.28,-309.5 988.48,-301.5 985.68,-309.5 991.28,-309.5"/>
<text xml:space="preserve" text-anchor="middle" x="1358.15" y="-377.2" font-family="Noto Sans CJK KR" font-size="14.00" fill="#46566e">ApplyStatus command</text>
</g>
<!-- Effect&#45;&gt;Commit -->
<g id="edge9" class="edge">
<title>Effect&#45;&gt;Commit</title>
<path fill="none" stroke="#59687e" stroke-width="1.3" d="M872.48,-218.57C872.48,-272.14 872.48,-372.97 872.48,-372.97 872.48,-372.97 873.44,-372.97 873.44,-372.97"/>
<polygon fill="#59687e" stroke="#59687e" stroke-width="1.3" points="872.07,-375.77 880.07,-372.97 872.07,-370.17 872.07,-375.77"/>
<text xml:space="preserve" text-anchor="middle" x="753.92" y="-256.8" font-family="Noto Sans CJK KR" font-size="14.00" fill="#46566e">EffectBundlePlan</text>
</g>
<!-- Combat -->
<g id="node9" class="node">
<title>Combat</title>
<path fill="#fff0f3" stroke="#e07b91" stroke-width="1.4" d="M1425.35,-214.28C1425.35,-214.28 1290.95,-214.28 1290.95,-214.28 1284.95,-214.28 1278.95,-208.28 1278.95,-202.28 1278.95,-202.28 1278.95,-179.72 1278.95,-179.72 1278.95,-173.72 1284.95,-167.72 1290.95,-167.72 1290.95,-167.72 1425.35,-167.72 1425.35,-167.72 1431.35,-167.72 1437.35,-173.72 1437.35,-179.72 1437.35,-179.72 1437.35,-202.28 1437.35,-202.28 1437.35,-208.28 1431.35,-214.28 1425.35,-214.28"/>
<text xml:space="preserve" text-anchor="middle" x="1358.15" y="-195.2" font-family="Noto Sans CJK KR" font-size="14.00" fill="#182033">Combat Resolution</text>
<text xml:space="preserve" text-anchor="middle" x="1358.15" y="-178.4" font-family="Noto Sans CJK KR" font-size="14.00" fill="#182033">pure DamageResult</text>
</g>
<!-- Effect&#45;&gt;Combat -->
<g id="edge6" class="edge">
<title>Effect&#45;&gt;Combat</title>
<path fill="none" stroke="#59687e" stroke-width="1.3" d="M1072.48,-198.76C1072.48,-198.76 1268.32,-198.76 1268.32,-198.76"/>
<polygon fill="#59687e" stroke="#59687e" stroke-width="1.3" points="1268.32,-201.56 1276.32,-198.76 1268.32,-195.96 1268.32,-201.56"/>
<text xml:space="preserve" text-anchor="middle" x="1156.49" y="-193.2" font-family="Noto Sans CJK KR" font-size="14.00" fill="#46566e">DamageRequest</text>
</g>
<!-- Combat&#45;&gt;Effect -->
<g id="edge7" class="edge">
<title>Combat&#45;&gt;Effect</title>
<path fill="none" stroke="#59687e" stroke-width="1.3" stroke-dasharray="5,2" d="M1278.42,-183.24C1278.42,-183.24 1082.16,-183.24 1082.16,-183.24"/>
<polygon fill="#59687e" stroke="#59687e" stroke-width="1.3" points="1082.16,-180.44 1074.16,-183.24 1082.16,-186.04 1082.16,-180.44"/>
<text xml:space="preserve" text-anchor="middle" x="1156.49" y="-250.2" font-family="Noto Sans CJK KR" font-size="14.00" fill="#46566e">DamageResult</text>
</g>
<!-- Combat&#45;&gt;Debug -->
<g id="edge22" class="edge">
<title>Combat&#45;&gt;Debug</title>
<path fill="none" stroke="#59687e" stroke-width="1.3" stroke-dasharray="5,2" d="M1437.6,-183.24C1437.6,-183.24 1652.56,-183.24 1652.56,-183.24"/>
<polygon fill="#59687e" stroke="#59687e" stroke-width="1.3" points="1652.56,-186.04 1660.56,-183.24 1652.56,-180.44 1652.56,-186.04"/>
<text xml:space="preserve" text-anchor="middle" x="1568.95" y="-195.2" font-family="Noto Sans CJK KR" font-size="14.00" fill="#46566e">calculation trace</text>
</g>
<!-- Status&#45;&gt;Commit -->
<g id="edge10" class="edge">
<title>Status&#45;&gt;Commit</title>
<path fill="none" stroke="#59687e" stroke-width="1.3" d="M935.48,-299.91C935.48,-299.91 935.48,-357.76 935.48,-357.76"/>
<polygon fill="#59687e" stroke="#59687e" stroke-width="1.3" points="932.68,-357.76 935.48,-365.76 938.28,-357.76 932.68,-357.76"/>
</g>
<!-- Skill -->
<g id="node11" class="node">
<title>Skill</title>
<path fill="#f7f9fc" stroke="#bac7db" stroke-width="1.4" d="M224.61,-54.28C224.61,-54.28 76.81,-54.28 76.81,-54.28 70.81,-54.28 64.81,-48.28 64.81,-42.28 64.81,-42.28 64.81,-19.72 64.81,-19.72 64.81,-13.72 70.81,-7.72 76.81,-7.72 76.81,-7.72 224.61,-7.72 224.61,-7.72 230.61,-7.72 236.61,-13.72 236.61,-19.72 236.61,-19.72 236.61,-42.28 236.61,-42.28 236.61,-48.28 230.61,-54.28 224.61,-54.28"/>
<text xml:space="preserve" text-anchor="middle" x="150.71" y="-35.2" font-family="Noto Sans CJK KR" font-size="14.00" fill="#182033">Skill / Action</text>
<text xml:space="preserve" text-anchor="middle" x="150.71" y="-18.4" font-family="Noto Sans CJK KR" font-size="14.00" fill="#182033">cost · cooldown · timeline</text>
</g>
<!-- Skill&#45;&gt;Commit -->
<g id="edge8" class="edge">
<title>Skill&#45;&gt;Commit</title>
<path fill="none" stroke="#59687e" stroke-width="1.3" d="M237.28,-38.76C275.74,-38.76 312.48,-38.76 312.48,-38.76 312.48,-38.76 312.48,-377.63 312.48,-377.63 312.48,-377.63 872.22,-377.63 872.22,-377.63"/>
<polygon fill="#59687e" stroke="#59687e" stroke-width="1.3" points="872.22,-380.43 880.22,-377.63 872.22,-374.83 872.22,-380.43"/>
<text xml:space="preserve" text-anchor="middle" x="543.92" y="-279.2" font-family="Noto Sans CJK KR" font-size="14.00" fill="#46566e">cost/cooldown plan</text>
</g>
<!-- Skill&#45;&gt;Effect -->
<g id="edge5" class="edge">
<title>Skill&#45;&gt;Effect</title>
<path fill="none" stroke="#59687e" stroke-width="1.3" d="M237.09,-23.24C446,-23.24 961.48,-23.24 961.48,-23.24 961.48,-23.24 961.48,-143.49 961.48,-143.49"/>
<polygon fill="#59687e" stroke="#59687e" stroke-width="1.3" points="958.68,-143.49 961.48,-151.49 964.28,-143.49 958.68,-143.49"/>
<text xml:space="preserve" text-anchor="middle" x="543.92" y="-18.2" font-family="Noto Sans CJK KR" font-size="14.00" fill="#46566e">IEffectPlanner.Prepare(bundle, context)</text>
</g>
<!-- Equipment -->
<g id="node12" class="node">
<title>Equipment</title>
<path fill="#f7f9fc" stroke="#bac7db" stroke-width="1.4" d="M234.57,-300.28C234.57,-300.28 66.84,-300.28 66.84,-300.28 60.84,-300.28 54.84,-294.28 54.84,-288.28 54.84,-288.28 54.84,-265.72 54.84,-265.72 54.84,-259.72 60.84,-253.72 66.84,-253.72 66.84,-253.72 234.57,-253.72 234.57,-253.72 240.57,-253.72 246.57,-259.72 246.57,-265.72 246.57,-265.72 246.57,-288.28 246.57,-288.28 246.57,-294.28 240.57,-300.28 234.57,-300.28"/>
<text xml:space="preserve" text-anchor="middle" x="150.71" y="-281.2" font-family="Noto Sans CJK KR" font-size="14.00" fill="#182033">Equipment / Item</text>
<text xml:space="preserve" text-anchor="middle" x="150.71" y="-264.4" font-family="Noto Sans CJK KR" font-size="14.00" fill="#182033">modifier + reaction definitions</text>
</g>
<!-- Equipment&#45;&gt;Stat -->
<g id="edge11" class="edge">
<title>Equipment&#45;&gt;Stat</title>
<path fill="none" stroke="#59687e" stroke-width="1.3" d="M239.48,-300.87C239.48,-347.48 239.48,-446.09 239.48,-446.09 239.48,-446.09 433.42,-446.09 433.42,-446.09"/>
<polygon fill="#59687e" stroke="#59687e" stroke-width="1.3" points="433.42,-448.89 441.42,-446.09 433.42,-443.29 433.42,-448.89"/>
<text xml:space="preserve" text-anchor="middle" x="355.29" y="-405.2" font-family="Noto Sans CJK KR" font-size="14.00" fill="#46566e">modifier plan</text>
</g>
<!-- Progression -->
<g id="node13" class="node">
<title>Progression</title>
<path fill="#f7f9fc" stroke="#bac7db" stroke-width="1.4" d="M217.91,-218.28C217.91,-218.28 83.51,-218.28 83.51,-218.28 77.51,-218.28 71.51,-212.28 71.51,-206.28 71.51,-206.28 71.51,-183.72 71.51,-183.72 71.51,-177.72 77.51,-171.72 83.51,-171.72 83.51,-171.72 217.91,-171.72 217.91,-171.72 223.91,-171.72 229.91,-177.72 229.91,-183.72 229.91,-183.72 229.91,-206.28 229.91,-206.28 229.91,-212.28 223.91,-218.28 217.91,-218.28"/>
<text xml:space="preserve" text-anchor="middle" x="150.71" y="-199.2" font-family="Noto Sans CJK KR" font-size="14.00" fill="#182033">Progression</text>
<text xml:space="preserve" text-anchor="middle" x="150.71" y="-182.4" font-family="Noto Sans CJK KR" font-size="14.00" fill="#182033">base stat mutation</text>
</g>
<!-- Progression&#45;&gt;Stat -->
<g id="edge12" class="edge">
<title>Progression&#45;&gt;Stat</title>
<path fill="none" stroke="#59687e" stroke-width="1.3" d="M230.21,-202.36C331.47,-202.36 493.48,-202.36 493.48,-202.36 493.48,-202.36 493.48,-403.24 493.48,-403.24"/>
<polygon fill="#59687e" stroke="#59687e" stroke-width="1.3" points="490.68,-403.24 493.48,-411.24 496.28,-403.24 490.68,-403.24"/>
<text xml:space="preserve" text-anchor="middle" x="355.29" y="-348.2" font-family="Noto Sans CJK KR" font-size="14.00" fill="#46566e">base mutation plan</text>
</g>
<!-- Reward -->
<g id="node14" class="node">
<title>Reward</title>
<path fill="#f7f9fc" stroke="#bac7db" stroke-width="1.4" d="M227.96,-136.28C227.96,-136.28 73.46,-136.28 73.46,-136.28 67.46,-136.28 61.46,-130.28 61.46,-124.28 61.46,-124.28 61.46,-101.72 61.46,-101.72 61.46,-95.72 67.46,-89.72 73.46,-89.72 73.46,-89.72 227.96,-89.72 227.96,-89.72 233.96,-89.72 239.96,-95.72 239.96,-101.72 239.96,-101.72 239.96,-124.28 239.96,-124.28 239.96,-130.28 233.96,-136.28 227.96,-136.28"/>
<text xml:space="preserve" text-anchor="middle" x="150.71" y="-117.2" font-family="Noto Sans CJK KR" font-size="14.00" fill="#182033">Reward / Roguelite</text>
<text xml:space="preserve" text-anchor="middle" x="150.71" y="-100.4" font-family="Noto Sans CJK KR" font-size="14.00" fill="#182033">effect + modifier definitions</text>
</g>
<!-- Reward&#45;&gt;Stat -->
<g id="edge14" class="edge">
<title>Reward&#45;&gt;Stat</title>
<path fill="none" stroke="#59687e" stroke-width="1.3" d="M240.32,-113C356.25,-113 543.48,-113 543.48,-113 543.48,-113 543.48,-403.21 543.48,-403.21"/>
<polygon fill="#59687e" stroke="#59687e" stroke-width="1.3" points="540.68,-403.21 543.48,-411.21 546.28,-403.21 540.68,-403.21"/>
<text xml:space="preserve" text-anchor="middle" x="355.29" y="-291.2" font-family="Noto Sans CJK KR" font-size="14.00" fill="#46566e">modifier plan</text>
</g>
<!-- Reward&#45;&gt;Effect -->
<g id="edge13" class="edge">
<title>Reward&#45;&gt;Effect</title>
<path fill="none" stroke="#59687e" stroke-width="1.3" d="M234.48,-136.84C234.48,-149.72 234.48,-163.02 234.48,-163.02 234.48,-163.02 841.38,-163.02 841.38,-163.02"/>
<polygon fill="#59687e" stroke="#59687e" stroke-width="1.3" points="841.38,-165.82 849.38,-163.02 841.38,-160.22 841.38,-165.82"/>
<text xml:space="preserve" text-anchor="middle" x="543.92" y="-105.2" font-family="Noto Sans CJK KR" font-size="14.00" fill="#46566e">definitions</text>
</g>
</g>
</svg>
