<?xml version="1.0" encoding="UTF-8" standalone="no"?>
<!DOCTYPE svg PUBLIC "-//W3C//DTD SVG 1.1//EN"
 "http://www.w3.org/Graphics/SVG/1.1/DTD/svg11.dtd">
<!-- Generated by graphviz version 15.0.0 (20260523.1842)
 -->
<!-- Title: G Pages: 1 -->
<svg width="1330pt" height="472pt"
 viewBox="9.00 9.00 1321.00 464.00" xmlns="http://www.w3.org/2000/svg" xmlns:xlink="http://www.w3.org/1999/xlink">
<g id="graph0" class="graph" transform="scale(1 1) rotate(0) translate(26.64 445.64)">
<title>G</title>
<polygon fill="#ffffff" stroke="none" points="-18,18 -18,-437 1294.77,-437 1294.77,18 -18,18"/>
<g id="clust1" class="cluster">
<title>cluster_data</title>
<path fill="#ffffff" stroke="#dfe5ee" stroke-dasharray="5,2" d="M20,-8C20,-8 149.91,-8 149.91,-8 155.91,-8 161.91,-14 161.91,-20 161.91,-20 161.91,-399 161.91,-399 161.91,-405 155.91,-411 149.91,-411 149.91,-411 20,-411 20,-411 14,-411 8,-405 8,-399 8,-399 8,-20 8,-20 8,-14 14,-8 20,-8"/>
<text xml:space="preserve" text-anchor="middle" x="84.95" y="-391.7" font-family="Noto Sans CJK KR" font-size="17.00" fill="#607086">Content / Data</text>
</g>
<g id="clust2" class="cluster">
<title>cluster_runtime</title>
<path fill="#ffffff" stroke="#dfe5ee" stroke-dasharray="5,2" d="M222.91,-84C222.91,-84 1015.56,-84 1015.56,-84 1021.56,-84 1027.56,-90 1027.56,-96 1027.56,-96 1027.56,-393 1027.56,-393 1027.56,-399 1021.56,-405 1015.56,-405 1015.56,-405 222.91,-405 222.91,-405 216.91,-405 210.91,-399 210.91,-393 210.91,-393 210.91,-96 210.91,-96 210.91,-90 216.91,-84 222.91,-84"/>
<text xml:space="preserve" text-anchor="middle" x="619.23" y="-385.7" font-family="Noto Sans CJK KR" font-size="17.00" fill="#607086">Reusable Effect Framework</text>
</g>
<g id="clust3" class="cluster">
<title>cluster_external</title>
<path fill="#ffffff" stroke="#dfe5ee" stroke-dasharray="5,2" d="M1129.57,-84C1129.57,-84 1256.77,-84 1256.77,-84 1262.77,-84 1268.77,-90 1268.77,-96 1268.77,-96 1268.77,-393 1268.77,-393 1268.77,-399 1262.77,-405 1256.77,-405 1256.77,-405 1129.57,-405 1129.57,-405 1123.57,-405 1117.57,-399 1117.57,-393 1117.57,-393 1117.57,-96 1117.57,-96 1117.57,-90 1123.57,-84 1129.57,-84"/>
<text xml:space="preserve" text-anchor="middle" x="1193.17" y="-385.7" font-family="Noto Sans CJK KR" font-size="17.00" fill="#607086">External Systems</text>
</g>
<!-- EffectDefinitionData -->
<g id="node1" class="node">
<title>EffectDefinitionData</title>
<path fill="#fff7e6" stroke="#e0ad4e" stroke-width="1.4" d="M148.55,-218.28C148.55,-218.28 21.35,-218.28 21.35,-218.28 15.35,-218.28 9.35,-212.28 9.35,-206.28 9.35,-206.28 9.35,-183.72 9.35,-183.72 9.35,-177.72 15.35,-171.72 21.35,-171.72 21.35,-171.72 148.55,-171.72 148.55,-171.72 154.55,-171.72 160.55,-177.72 160.55,-183.72 160.55,-183.72 160.55,-206.28 160.55,-206.28 160.55,-212.28 154.55,-218.28 148.55,-218.28"/>
<text xml:space="preserve" text-anchor="middle" x="84.95" y="-199.2" font-family="Noto Sans CJK KR" font-size="14.00" fill="#182033">EffectDefinition&#13;</text>
<text xml:space="preserve" text-anchor="middle" x="84.95" y="-182.4" font-family="Noto Sans CJK KR" font-size="14.00" fill="#182033">효과 종류·파라미터</text>
</g>
<!-- EffectRegistry -->
<g id="node6" class="node">
<title>EffectRegistry</title>
<path fill="#eaf0ff" stroke="#8292f7" stroke-width="1.4" d="M356.11,-130.28C356.11,-130.28 228.91,-130.28 228.91,-130.28 222.91,-130.28 216.91,-124.28 216.91,-118.28 216.91,-118.28 216.91,-95.72 216.91,-95.72 216.91,-89.72 222.91,-83.72 228.91,-83.72 228.91,-83.72 356.11,-83.72 356.11,-83.72 362.11,-83.72 368.11,-89.72 368.11,-95.72 368.11,-95.72 368.11,-118.28 368.11,-118.28 368.11,-124.28 362.11,-130.28 356.11,-130.28"/>
<text xml:space="preserve" text-anchor="middle" x="292.51" y="-111.2" font-family="Noto Sans CJK KR" font-size="14.00" fill="#182033">EffectRegistry&#13;</text>
<text xml:space="preserve" text-anchor="middle" x="292.51" y="-94.4" font-family="Noto Sans CJK KR" font-size="14.00" fill="#182033">정의 로드·검증</text>
</g>
<!-- EffectDefinitionData&#45;&gt;EffectRegistry -->
<g id="edge1" class="edge">
<title>EffectDefinitionData&#45;&gt;EffectRegistry</title>
<path fill="none" stroke="#59687e" stroke-width="1.3" d="M161.08,-195C175.81,-195 186.77,-195 186.77,-195 186.77,-195 186.77,-116.76 186.77,-116.76 186.77,-116.76 206.26,-116.76 206.26,-116.76"/>
<polygon fill="#59687e" stroke="#59687e" stroke-width="1.3" points="206.26,-119.56 214.26,-116.76 206.26,-113.96 206.26,-119.56"/>
</g>
<!-- EffectBundleData -->
<g id="node2" class="node">
<title>EffectBundleData</title>
<path fill="#fff7e6" stroke="#e0ad4e" stroke-width="1.4" d="M148.55,-136.28C148.55,-136.28 21.35,-136.28 21.35,-136.28 15.35,-136.28 9.35,-130.28 9.35,-124.28 9.35,-124.28 9.35,-101.72 9.35,-101.72 9.35,-95.72 15.35,-89.72 21.35,-89.72 21.35,-89.72 148.55,-89.72 148.55,-89.72 154.55,-89.72 160.55,-95.72 160.55,-101.72 160.55,-101.72 160.55,-124.28 160.55,-124.28 160.55,-130.28 154.55,-136.28 148.55,-136.28"/>
<text xml:space="preserve" text-anchor="middle" x="84.95" y="-117.2" font-family="Noto Sans CJK KR" font-size="14.00" fill="#182033">EffectBundle&#13;</text>
<text xml:space="preserve" text-anchor="middle" x="84.95" y="-100.4" font-family="Noto Sans CJK KR" font-size="14.00" fill="#182033">효과 묶음</text>
</g>
<!-- EffectBundleData&#45;&gt;EffectRegistry -->
<g id="edge2" class="edge">
<title>EffectBundleData&#45;&gt;EffectRegistry</title>
<path fill="none" stroke="#59687e" stroke-width="1.3" d="M161.06,-103.24C161.06,-103.24 206.45,-103.24 206.45,-103.24"/>
<polygon fill="#59687e" stroke="#59687e" stroke-width="1.3" points="206.45,-106.04 214.45,-103.24 206.45,-100.44 206.45,-106.04"/>
</g>
<!-- TargetSelectorData -->
<g id="node3" class="node">
<title>TargetSelectorData</title>
<path fill="#fff7e6" stroke="#e0ad4e" stroke-width="1.4" d="M149.91,-382.28C149.91,-382.28 20,-382.28 20,-382.28 14,-382.28 8,-376.28 8,-370.28 8,-370.28 8,-347.72 8,-347.72 8,-341.72 14,-335.72 20,-335.72 20,-335.72 149.91,-335.72 149.91,-335.72 155.91,-335.72 161.91,-341.72 161.91,-347.72 161.91,-347.72 161.91,-370.28 161.91,-370.28 161.91,-376.28 155.91,-382.28 149.91,-382.28"/>
<text xml:space="preserve" text-anchor="middle" x="84.95" y="-363.2" font-family="Noto Sans CJK KR" font-size="14.00" fill="#182033">TargetSelector&#13;</text>
<text xml:space="preserve" text-anchor="middle" x="84.95" y="-346.4" font-family="Noto Sans CJK KR" font-size="14.00" fill="#182033">Self·Area·Cone·Chain</text>
</g>
<!-- TargetResolver -->
<g id="node10" class="node">
<title>TargetResolver</title>
<path fill="#eaf0ff" stroke="#8292f7" stroke-width="1.4" d="M815.36,-376.28C815.36,-376.28 688.16,-376.28 688.16,-376.28 682.16,-376.28 676.16,-370.28 676.16,-364.28 676.16,-364.28 676.16,-341.72 676.16,-341.72 676.16,-335.72 682.16,-329.72 688.16,-329.72 688.16,-329.72 815.36,-329.72 815.36,-329.72 821.36,-329.72 827.36,-335.72 827.36,-341.72 827.36,-341.72 827.36,-364.28 827.36,-364.28 827.36,-370.28 821.36,-376.28 815.36,-376.28"/>
<text xml:space="preserve" text-anchor="middle" x="751.76" y="-357.2" font-family="Noto Sans CJK KR" font-size="14.00" fill="#182033">TargetResolver&#13;</text>
<text xml:space="preserve" text-anchor="middle" x="751.76" y="-340.4" font-family="Noto Sans CJK KR" font-size="14.00" fill="#182033">후보 수집·필터</text>
</g>
<!-- TargetSelectorData&#45;&gt;TargetResolver -->
<g id="edge3" class="edge">
<title>TargetSelectorData&#45;&gt;TargetResolver</title>
<path fill="none" stroke="#59687e" stroke-width="1.3" d="M162.42,-362.76C162.42,-362.76 665.69,-362.76 665.69,-362.76"/>
<polygon fill="#59687e" stroke="#59687e" stroke-width="1.3" points="665.69,-365.56 673.69,-362.76 665.69,-359.96 665.69,-365.56"/>
</g>
<!-- ValueExpressionData -->
<g id="node4" class="node">
<title>ValueExpressionData</title>
<path fill="#fff7e6" stroke="#e0ad4e" stroke-width="1.4" d="M148.55,-54.28C148.55,-54.28 21.35,-54.28 21.35,-54.28 15.35,-54.28 9.35,-48.28 9.35,-42.28 9.35,-42.28 9.35,-19.72 9.35,-19.72 9.35,-13.72 15.35,-7.72 21.35,-7.72 21.35,-7.72 148.55,-7.72 148.55,-7.72 154.55,-7.72 160.55,-13.72 160.55,-19.72 160.55,-19.72 160.55,-42.28 160.55,-42.28 160.55,-48.28 154.55,-54.28 148.55,-54.28"/>
<text xml:space="preserve" text-anchor="middle" x="84.95" y="-35.2" font-family="Noto Sans CJK KR" font-size="14.00" fill="#182033">ValueExpression&#13;</text>
<text xml:space="preserve" text-anchor="middle" x="84.95" y="-18.4" font-family="Noto Sans CJK KR" font-size="14.00" fill="#182033">base + stat scaling</text>
</g>
<!-- ValueResolver -->
<g id="node11" class="node">
<title>ValueResolver</title>
<path fill="#eaf0ff" stroke="#8292f7" stroke-width="1.4" d="M815.36,-130.28C815.36,-130.28 688.16,-130.28 688.16,-130.28 682.16,-130.28 676.16,-124.28 676.16,-118.28 676.16,-118.28 676.16,-95.72 676.16,-95.72 676.16,-89.72 682.16,-83.72 688.16,-83.72 688.16,-83.72 815.36,-83.72 815.36,-83.72 821.36,-83.72 827.36,-89.72 827.36,-95.72 827.36,-95.72 827.36,-118.28 827.36,-118.28 827.36,-124.28 821.36,-130.28 815.36,-130.28"/>
<text xml:space="preserve" text-anchor="middle" x="751.76" y="-111.2" font-family="Noto Sans CJK KR" font-size="14.00" fill="#182033">ValueResolver&#13;</text>
<text xml:space="preserve" text-anchor="middle" x="751.76" y="-94.4" font-family="Noto Sans CJK KR" font-size="14.00" fill="#182033">스탯 조회·수식 계산</text>
</g>
<!-- ValueExpressionData&#45;&gt;ValueResolver -->
<g id="edge4" class="edge">
<title>ValueExpressionData&#45;&gt;ValueResolver</title>
<path fill="none" stroke="#59687e" stroke-width="1.3" d="M161.12,-31C336.08,-31 751.77,-31 751.77,-31 751.77,-31 751.77,-73.4 751.77,-73.4"/>
<polygon fill="#59687e" stroke="#59687e" stroke-width="1.3" points="748.97,-73.4 751.77,-81.4 754.57,-73.4 748.97,-73.4"/>
</g>
<!-- ConditionData -->
<g id="node5" class="node">
<title>ConditionData</title>
<path fill="#fff7e6" stroke="#e0ad4e" stroke-width="1.4" d="M148.55,-300.28C148.55,-300.28 21.35,-300.28 21.35,-300.28 15.35,-300.28 9.35,-294.28 9.35,-288.28 9.35,-288.28 9.35,-265.72 9.35,-265.72 9.35,-259.72 15.35,-253.72 21.35,-253.72 21.35,-253.72 148.55,-253.72 148.55,-253.72 154.55,-253.72 160.55,-259.72 160.55,-265.72 160.55,-265.72 160.55,-288.28 160.55,-288.28 160.55,-294.28 154.55,-300.28 148.55,-300.28"/>
<text xml:space="preserve" text-anchor="middle" x="84.95" y="-281.2" font-family="Noto Sans CJK KR" font-size="14.00" fill="#182033">ConditionData&#13;</text>
<text xml:space="preserve" text-anchor="middle" x="84.95" y="-264.4" font-family="Noto Sans CJK KR" font-size="14.00" fill="#182033">대상·태그·상태 조건</text>
</g>
<!-- EffectPipeline -->
<g id="node9" class="node">
<title>EffectPipeline</title>
<path fill="#eaf0ff" stroke="#8292f7" stroke-width="1.4" d="M615.16,-294.28C615.16,-294.28 435.12,-294.28 435.12,-294.28 429.12,-294.28 423.12,-288.28 423.12,-282.28 423.12,-282.28 423.12,-259.72 423.12,-259.72 423.12,-253.72 429.12,-247.72 435.12,-247.72 435.12,-247.72 615.16,-247.72 615.16,-247.72 621.16,-247.72 627.16,-253.72 627.16,-259.72 627.16,-259.72 627.16,-282.28 627.16,-282.28 627.16,-288.28 621.16,-294.28 615.16,-294.28"/>
<text xml:space="preserve" text-anchor="middle" x="525.14" y="-275.2" font-family="Noto Sans CJK KR" font-size="14.00" fill="#182033">EffectPipeline&#13;</text>
<text xml:space="preserve" text-anchor="middle" x="525.14" y="-258.4" font-family="Noto Sans CJK KR" font-size="14.00" fill="#182033">Validate→Target→Value→Apply</text>
</g>
<!-- ConditionData&#45;&gt;EffectPipeline -->
<g id="edge5" class="edge">
<title>ConditionData&#45;&gt;EffectPipeline</title>
<path fill="none" stroke="#59687e" stroke-width="1.3" d="M161.12,-260.39C161.12,-260.39 412.74,-260.39 412.74,-260.39"/>
<polygon fill="#59687e" stroke="#59687e" stroke-width="1.3" points="412.74,-263.19 420.74,-260.39 412.74,-257.59 412.74,-263.19"/>
</g>
<!-- EffectRequest -->
<g id="node7" class="node">
<title>EffectRequest</title>
<path fill="#eaf0ff" stroke="#8292f7" stroke-width="1.4" d="M356.11,-310.28C356.11,-310.28 228.91,-310.28 228.91,-310.28 222.91,-310.28 216.91,-304.28 216.91,-298.28 216.91,-298.28 216.91,-275.72 216.91,-275.72 216.91,-269.72 222.91,-263.72 228.91,-263.72 228.91,-263.72 356.11,-263.72 356.11,-263.72 362.11,-263.72 368.11,-269.72 368.11,-275.72 368.11,-275.72 368.11,-298.28 368.11,-298.28 368.11,-304.28 362.11,-310.28 356.11,-310.28"/>
<text xml:space="preserve" text-anchor="middle" x="292.51" y="-291.2" font-family="Noto Sans CJK KR" font-size="14.00" fill="#182033">EffectRequest&#13;</text>
<text xml:space="preserve" text-anchor="middle" x="292.51" y="-274.4" font-family="Noto Sans CJK KR" font-size="14.00" fill="#182033">실행 요청</text>
</g>
<!-- EffectRequest&#45;&gt;EffectPipeline -->
<g id="edge6" class="edge">
<title>EffectRequest&#45;&gt;EffectPipeline</title>
<path fill="none" stroke="#59687e" stroke-width="1.3" d="M368.68,-279C368.68,-279 412.62,-279 412.62,-279"/>
<polygon fill="#59687e" stroke="#59687e" stroke-width="1.3" points="412.62,-281.8 420.62,-279 412.62,-276.2 412.62,-281.8"/>
</g>
<!-- EffectContext -->
<g id="node8" class="node">
<title>EffectContext</title>
<path fill="#eaf0ff" stroke="#8292f7" stroke-width="1.4" d="M362.12,-228.68C362.12,-228.68 222.91,-228.68 222.91,-228.68 216.91,-228.68 210.91,-222.68 210.91,-216.68 210.91,-216.68 210.91,-177.32 210.91,-177.32 210.91,-171.32 216.91,-165.32 222.91,-165.32 222.91,-165.32 362.12,-165.32 362.12,-165.32 368.12,-165.32 374.12,-171.32 374.12,-177.32 374.12,-177.32 374.12,-216.68 374.12,-216.68 374.12,-222.68 368.12,-228.68 362.12,-228.68"/>
<text xml:space="preserve" text-anchor="middle" x="292.51" y="-209.6" font-family="Noto Sans CJK KR" font-size="14.00" fill="#182033">EffectContext</text>
<text xml:space="preserve" text-anchor="middle" x="292.51" y="-192.8" font-family="Noto Sans CJK KR" font-size="14.00" fill="#182033">CasterId · InitialTargetId</text>
<text xml:space="preserve" text-anchor="middle" x="292.51" y="-176" font-family="Noto Sans CJK KR" font-size="14.00" fill="#182033">Source · RandomSeed</text>
</g>
<!-- EffectContext&#45;&gt;EffectPipeline -->
<g id="edge7" class="edge">
<title>EffectContext&#45;&gt;EffectPipeline</title>
<path fill="none" stroke="#59687e" stroke-width="1.3" d="M292.77,-229.14C292.77,-243.41 292.77,-257.05 292.77,-257.05 292.77,-257.05 412.58,-257.05 412.58,-257.05"/>
<polygon fill="#59687e" stroke="#59687e" stroke-width="1.3" points="412.58,-259.85 420.58,-257.05 412.58,-254.25 412.58,-259.85"/>
</g>
<!-- EffectPipeline&#45;&gt;TargetResolver -->
<g id="edge8" class="edge">
<title>EffectPipeline&#45;&gt;TargetResolver</title>
<path fill="none" stroke="#59687e" stroke-width="1.3" d="M524.77,-294.9C524.77,-317.91 524.77,-349.24 524.77,-349.24 524.77,-349.24 665.58,-349.24 665.58,-349.24"/>
<polygon fill="#59687e" stroke="#59687e" stroke-width="1.3" points="665.58,-352.04 673.58,-349.24 665.58,-346.44 665.58,-352.04"/>
</g>
<!-- EffectPipeline&#45;&gt;ValueResolver -->
<g id="edge9" class="edge">
<title>EffectPipeline&#45;&gt;ValueResolver</title>
<path fill="none" stroke="#59687e" stroke-width="1.3" d="M490.77,-247.15C490.77,-201.67 490.77,-107 490.77,-107 490.77,-107 665.6,-107 665.6,-107"/>
<polygon fill="#59687e" stroke="#59687e" stroke-width="1.3" points="665.6,-109.8 673.6,-107 665.6,-104.2 665.6,-109.8"/>
</g>
<!-- EffectExecutor -->
<g id="node12" class="node">
<title>EffectExecutor</title>
<path fill="#eaf0ff" stroke="#8292f7" stroke-width="1.4" d="M815.36,-294.28C815.36,-294.28 688.16,-294.28 688.16,-294.28 682.16,-294.28 676.16,-288.28 676.16,-282.28 676.16,-282.28 676.16,-259.72 676.16,-259.72 676.16,-253.72 682.16,-247.72 688.16,-247.72 688.16,-247.72 815.36,-247.72 815.36,-247.72 821.36,-247.72 827.36,-253.72 827.36,-259.72 827.36,-259.72 827.36,-282.28 827.36,-282.28 827.36,-288.28 821.36,-294.28 815.36,-294.28"/>
<text xml:space="preserve" text-anchor="middle" x="751.76" y="-275.2" font-family="Noto Sans CJK KR" font-size="14.00" fill="#182033">EffectExecutor&#13;</text>
<text xml:space="preserve" text-anchor="middle" x="751.76" y="-258.4" font-family="Noto Sans CJK KR" font-size="14.00" fill="#182033">효과별 적용기</text>
</g>
<!-- EffectPipeline&#45;&gt;EffectExecutor -->
<g id="edge10" class="edge">
<title>EffectPipeline&#45;&gt;EffectExecutor</title>
<path fill="none" stroke="#59687e" stroke-width="1.3" d="M627.84,-271C627.84,-271 665.56,-271 665.56,-271"/>
<polygon fill="#59687e" stroke="#59687e" stroke-width="1.3" points="665.56,-273.8 673.56,-271 665.56,-268.2 665.56,-273.8"/>
</g>
<!-- EffectLog -->
<g id="node14" class="node">
<title>EffectLog</title>
<path fill="#f3eefc" stroke="#ab8fe0" stroke-width="1.4" d="M815.36,-212.28C815.36,-212.28 688.16,-212.28 688.16,-212.28 682.16,-212.28 676.16,-206.28 676.16,-200.28 676.16,-200.28 676.16,-177.72 676.16,-177.72 676.16,-171.72 682.16,-165.72 688.16,-165.72 688.16,-165.72 815.36,-165.72 815.36,-165.72 821.36,-165.72 827.36,-171.72 827.36,-177.72 827.36,-177.72 827.36,-200.28 827.36,-200.28 827.36,-206.28 821.36,-212.28 815.36,-212.28"/>
<text xml:space="preserve" text-anchor="middle" x="751.76" y="-193.2" font-family="Noto Sans CJK KR" font-size="14.00" fill="#182033">EffectLog&#13;</text>
<text xml:space="preserve" text-anchor="middle" x="751.76" y="-176.4" font-family="Noto Sans CJK KR" font-size="14.00" fill="#182033">디버그·리플레이 근거</text>
</g>
<!-- EffectPipeline&#45;&gt;EffectLog -->
<g id="edge18" class="edge">
<title>EffectPipeline&#45;&gt;EffectLog</title>
<path fill="none" stroke="#59687e" stroke-width="1.3" d="M558.77,-247.28C558.77,-223.06 558.77,-189 558.77,-189 558.77,-189 665.52,-189 665.52,-189"/>
<polygon fill="#59687e" stroke="#59687e" stroke-width="1.3" points="665.52,-191.8 673.52,-189 665.52,-186.2 665.52,-191.8"/>
</g>
<!-- EffectResult -->
<g id="node13" class="node">
<title>EffectResult</title>
<path fill="#eaf0ff" stroke="#8292f7" stroke-width="1.4" d="M1015.56,-376.28C1015.56,-376.28 888.36,-376.28 888.36,-376.28 882.36,-376.28 876.36,-370.28 876.36,-364.28 876.36,-364.28 876.36,-341.72 876.36,-341.72 876.36,-335.72 882.36,-329.72 888.36,-329.72 888.36,-329.72 1015.56,-329.72 1015.56,-329.72 1021.56,-329.72 1027.56,-335.72 1027.56,-341.72 1027.56,-341.72 1027.56,-364.28 1027.56,-364.28 1027.56,-370.28 1021.56,-376.28 1015.56,-376.28"/>
<text xml:space="preserve" text-anchor="middle" x="951.96" y="-357.2" font-family="Noto Sans CJK KR" font-size="14.00" fill="#182033">EffectResult&#13;</text>
<text xml:space="preserve" text-anchor="middle" x="951.96" y="-340.4" font-family="Noto Sans CJK KR" font-size="14.00" fill="#182033">성공·실패·결과 목록</text>
</g>
<!-- TargetResolver&#45;&gt;EffectResult -->
<g id="edge11" class="edge">
<title>TargetResolver&#45;&gt;EffectResult</title>
<path fill="none" stroke="#59687e" stroke-width="1.3" d="M828.02,-353C828.02,-353 865.95,-353 865.95,-353"/>
<polygon fill="#59687e" stroke="#59687e" stroke-width="1.3" points="865.95,-355.8 873.95,-353 865.95,-350.2 865.95,-355.8"/>
</g>
<!-- StatSystem -->
<g id="node15" class="node">
<title>StatSystem</title>
<path fill="#eefbf6" stroke="#61b99a" stroke-width="1.4" d="M1256.77,-130.28C1256.77,-130.28 1129.57,-130.28 1129.57,-130.28 1123.57,-130.28 1117.57,-124.28 1117.57,-118.28 1117.57,-118.28 1117.57,-95.72 1117.57,-95.72 1117.57,-89.72 1123.57,-83.72 1129.57,-83.72 1129.57,-83.72 1256.77,-83.72 1256.77,-83.72 1262.77,-83.72 1268.77,-89.72 1268.77,-95.72 1268.77,-95.72 1268.77,-118.28 1268.77,-118.28 1268.77,-124.28 1262.77,-130.28 1256.77,-130.28"/>
<text xml:space="preserve" text-anchor="middle" x="1193.17" y="-111.2" font-family="Noto Sans CJK KR" font-size="14.00" fill="#182033">Stat System&#13;</text>
<text xml:space="preserve" text-anchor="middle" x="1193.17" y="-94.4" font-family="Noto Sans CJK KR" font-size="14.00" fill="#182033">최종값·Modifier</text>
</g>
<!-- ValueResolver&#45;&gt;StatSystem -->
<g id="edge12" class="edge">
<title>ValueResolver&#45;&gt;StatSystem</title>
<path fill="none" stroke="#59687e" stroke-width="1.3" d="M827.89,-99.24C827.89,-99.24 1106.93,-99.24 1106.93,-99.24"/>
<polygon fill="#59687e" stroke="#59687e" stroke-width="1.3" points="1106.93,-102.04 1114.93,-99.24 1106.93,-96.44 1106.93,-102.04"/>
<text xml:space="preserve" text-anchor="middle" x="951.96" y="-21.2" font-family="Noto Sans CJK KR" font-size="14.00" fill="#46566e">GetValue(ctx)</text>
</g>
<!-- EffectExecutor&#45;&gt;EffectResult -->
<g id="edge16" class="edge">
<title>EffectExecutor&#45;&gt;EffectResult</title>
<path fill="none" stroke="#59687e" stroke-width="1.3" d="M827.95,-284.97C884.47,-284.97 951.77,-284.97 951.77,-284.97 951.77,-284.97 951.77,-319.24 951.77,-319.24"/>
<polygon fill="#59687e" stroke="#59687e" stroke-width="1.3" points="948.97,-319.24 951.77,-327.24 954.57,-319.24 948.97,-319.24"/>
</g>
<!-- EffectExecutor&#45;&gt;StatSystem -->
<g id="edge15" class="edge">
<title>EffectExecutor&#45;&gt;StatSystem</title>
<path fill="none" stroke="#59687e" stroke-width="1.3" d="M827.75,-257.03C837.28,-257.03 843.77,-257.03 843.77,-257.03 843.77,-257.03 843.77,-114.76 843.77,-114.76 843.77,-114.76 1106.96,-114.76 1106.96,-114.76"/>
<polygon fill="#59687e" stroke="#59687e" stroke-width="1.3" points="1106.96,-117.56 1114.96,-114.76 1106.96,-111.96 1106.96,-117.56"/>
<text xml:space="preserve" text-anchor="middle" x="951.96" y="-195.2" font-family="Noto Sans CJK KR" font-size="14.00" fill="#46566e">AddModifier/Resource</text>
</g>
<!-- CombatSystem -->
<g id="node16" class="node">
<title>CombatSystem</title>
<path fill="#eefbf6" stroke="#61b99a" stroke-width="1.4" d="M1256.77,-212.28C1256.77,-212.28 1129.57,-212.28 1129.57,-212.28 1123.57,-212.28 1117.57,-206.28 1117.57,-200.28 1117.57,-200.28 1117.57,-177.72 1117.57,-177.72 1117.57,-171.72 1123.57,-165.72 1129.57,-165.72 1129.57,-165.72 1256.77,-165.72 1256.77,-165.72 1262.77,-165.72 1268.77,-171.72 1268.77,-177.72 1268.77,-177.72 1268.77,-200.28 1268.77,-200.28 1268.77,-206.28 1262.77,-212.28 1256.77,-212.28"/>
<text xml:space="preserve" text-anchor="middle" x="1193.17" y="-193.2" font-family="Noto Sans CJK KR" font-size="14.00" fill="#182033">Combat System&#13;</text>
<text xml:space="preserve" text-anchor="middle" x="1193.17" y="-176.4" font-family="Noto Sans CJK KR" font-size="14.00" fill="#182033">Hit/Crit/Damage</text>
</g>
<!-- EffectExecutor&#45;&gt;CombatSystem -->
<g id="edge13" class="edge">
<title>EffectExecutor&#45;&gt;CombatSystem</title>
<path fill="none" stroke="#59687e" stroke-width="1.3" d="M827.95,-266.34C845.82,-266.34 859.77,-266.34 859.77,-266.34 859.77,-266.34 859.77,-189 859.77,-189 859.77,-189 1107.14,-189 1107.14,-189"/>
<polygon fill="#59687e" stroke="#59687e" stroke-width="1.3" points="1107.14,-191.8 1115.14,-189 1107.14,-186.2 1107.14,-191.8"/>
<text xml:space="preserve" text-anchor="middle" x="951.96" y="-108.2" font-family="Noto Sans CJK KR" font-size="14.00" fill="#46566e">DamageEffect</text>
</g>
<!-- StatusSystem -->
<g id="node17" class="node">
<title>StatusSystem</title>
<path fill="#eefbf6" stroke="#61b99a" stroke-width="1.4" d="M1256.77,-294.28C1256.77,-294.28 1129.57,-294.28 1129.57,-294.28 1123.57,-294.28 1117.57,-288.28 1117.57,-282.28 1117.57,-282.28 1117.57,-259.72 1117.57,-259.72 1117.57,-253.72 1123.57,-247.72 1129.57,-247.72 1129.57,-247.72 1256.77,-247.72 1256.77,-247.72 1262.77,-247.72 1268.77,-253.72 1268.77,-259.72 1268.77,-259.72 1268.77,-282.28 1268.77,-282.28 1268.77,-288.28 1262.77,-294.28 1256.77,-294.28"/>
<text xml:space="preserve" text-anchor="middle" x="1193.17" y="-275.2" font-family="Noto Sans CJK KR" font-size="14.00" fill="#182033">Status System&#13;</text>
<text xml:space="preserve" text-anchor="middle" x="1193.17" y="-258.4" font-family="Noto Sans CJK KR" font-size="14.00" fill="#182033">상태 부여·제거</text>
</g>
<!-- EffectExecutor&#45;&gt;StatusSystem -->
<g id="edge14" class="edge">
<title>EffectExecutor&#45;&gt;StatusSystem</title>
<path fill="none" stroke="#59687e" stroke-width="1.3" d="M827.89,-275.66C827.89,-275.66 1106.93,-275.66 1106.93,-275.66"/>
<polygon fill="#59687e" stroke="#59687e" stroke-width="1.3" points="1106.93,-278.46 1114.93,-275.66 1106.93,-272.86 1106.93,-278.46"/>
<text xml:space="preserve" text-anchor="middle" x="951.96" y="-282.2" font-family="Noto Sans CJK KR" font-size="14.00" fill="#46566e">ApplyStatus</text>
</g>
<!-- EventBus -->
<g id="node18" class="node">
<title>EventBus</title>
<path fill="#eefbf6" stroke="#61b99a" stroke-width="1.4" d="M1256.77,-376.28C1256.77,-376.28 1129.57,-376.28 1129.57,-376.28 1123.57,-376.28 1117.57,-370.28 1117.57,-364.28 1117.57,-364.28 1117.57,-341.72 1117.57,-341.72 1117.57,-335.72 1123.57,-329.72 1129.57,-329.72 1129.57,-329.72 1256.77,-329.72 1256.77,-329.72 1262.77,-329.72 1268.77,-335.72 1268.77,-341.72 1268.77,-341.72 1268.77,-364.28 1268.77,-364.28 1268.77,-370.28 1262.77,-376.28 1256.77,-376.28"/>
<text xml:space="preserve" text-anchor="middle" x="1193.17" y="-357.2" font-family="Noto Sans CJK KR" font-size="14.00" fill="#182033">Event Bus&#13;</text>
<text xml:space="preserve" text-anchor="middle" x="1193.17" y="-340.4" font-family="Noto Sans CJK KR" font-size="14.00" fill="#182033">EffectApplied 등</text>
</g>
<!-- EffectResult&#45;&gt;EventBus -->
<g id="edge17" class="edge">
<title>EffectResult&#45;&gt;EventBus</title>
<path fill="none" stroke="#59687e" stroke-width="1.3" d="M1027.95,-353C1027.95,-353 1107.18,-353 1107.18,-353"/>
<polygon fill="#59687e" stroke="#59687e" stroke-width="1.3" points="1107.18,-355.8 1115.18,-353 1107.18,-350.2 1107.18,-355.8"/>
<text xml:space="preserve" text-anchor="middle" x="1072.57" y="-357.2" font-family="Noto Sans CJK KR" font-size="14.00" fill="#46566e">Publish</text>
</g>
</g>
</svg>
