<?xml version="1.0" encoding="UTF-8" standalone="no"?>
<!DOCTYPE svg PUBLIC "-//W3C//DTD SVG 1.1//EN"
 "http://www.w3.org/Graphics/SVG/1.1/DTD/svg11.dtd">
<!-- Generated by graphviz version 15.0.0 (20260523.1842)
 -->
<!-- Title: G Pages: 1 -->
<svg width="3814pt" height="517pt"
 viewBox="9.00 9.00 3806.00 509.00" xmlns="http://www.w3.org/2000/svg" xmlns:xlink="http://www.w3.org/1999/xlink">
<g id="graph0" class="graph" transform="scale(1 1) rotate(0) translate(26.64 490.64)">
<title>G</title>
<polygon fill="#ffffff" stroke="none" points="-18,18 -18,-482 3778.95,-482 3778.95,18 -18,18"/>
<g id="clust1" class="cluster">
<title>cluster_data</title>
<path fill="#ffffff" stroke="#dfe5ee" stroke-dasharray="5,2" d="M20,-8C20,-8 206.6,-8 206.6,-8 212.6,-8 218.6,-14 218.6,-20 218.6,-20 218.6,-415 218.6,-415 218.6,-421 212.6,-427 206.6,-427 206.6,-427 20,-427 20,-427 14,-427 8,-421 8,-415 8,-415 8,-20 8,-20 8,-14 14,-8 20,-8"/>
<text xml:space="preserve" text-anchor="middle" x="113.3" y="-407.7" font-family="Noto Sans CJK KR" font-size="17.00" fill="#607086">Content / Data</text>
</g>
<g id="clust2" class="cluster">
<title>cluster_runtime</title>
<path fill="#ffffff" stroke="#dfe5ee" stroke-dasharray="5,2" d="M279.6,-84C279.6,-84 2514.75,-84 2514.75,-84 2520.75,-84 2526.75,-90 2526.75,-96 2526.75,-96 2526.75,-407 2526.75,-407 2526.75,-413 2520.75,-419 2514.75,-419 2514.75,-419 279.6,-419 279.6,-419 273.6,-419 267.6,-413 267.6,-407 267.6,-407 267.6,-96 267.6,-96 267.6,-90 273.6,-84 279.6,-84"/>
<text xml:space="preserve" text-anchor="middle" x="1397.17" y="-399.7" font-family="Noto Sans CJK KR" font-size="17.00" fill="#607086">Effect Runtime · public port and internal stages</text>
</g>
<g id="clust3" class="cluster">
<title>cluster_external</title>
<path fill="#ffffff" stroke="#dfe5ee" stroke-dasharray="5,2" d="M2738.12,-217C2738.12,-217 3740.95,-217 3740.95,-217 3746.95,-217 3752.95,-223 3752.95,-229 3752.95,-229 3752.95,-444 3752.95,-444 3752.95,-450 3746.95,-456 3740.95,-456 3740.95,-456 2738.12,-456 2738.12,-456 2732.12,-456 2726.12,-450 2726.12,-444 2726.12,-444 2726.12,-229 2726.12,-229 2726.12,-223 2732.12,-217 2738.12,-217"/>
<text xml:space="preserve" text-anchor="middle" x="3239.53" y="-436.7" font-family="Noto Sans CJK KR" font-size="17.00" fill="#607086">Ports / Commit / Reaction</text>
</g>
<!-- EffectDefinitionData -->
<g id="node1" class="node">
<title>EffectDefinitionData</title>
<path fill="#fff7e6" stroke="#e0ad4e" stroke-width="1.4" d="M176.9,-300.28C176.9,-300.28 49.7,-300.28 49.7,-300.28 43.7,-300.28 37.7,-294.28 37.7,-288.28 37.7,-288.28 37.7,-265.72 37.7,-265.72 37.7,-259.72 43.7,-253.72 49.7,-253.72 49.7,-253.72 176.9,-253.72 176.9,-253.72 182.9,-253.72 188.9,-259.72 188.9,-265.72 188.9,-265.72 188.9,-288.28 188.9,-288.28 188.9,-294.28 182.9,-300.28 176.9,-300.28"/>
<text xml:space="preserve" text-anchor="middle" x="113.3" y="-281.2" font-family="Noto Sans CJK KR" font-size="14.00" fill="#182033">EffectDefinition</text>
<text xml:space="preserve" text-anchor="middle" x="113.3" y="-264.4" font-family="Noto Sans CJK KR" font-size="14.00" fill="#182033">type · parameters</text>
</g>
<!-- EffectRegistry -->
<g id="node6" class="node">
<title>EffectRegistry</title>
<path fill="#eaf0ff" stroke="#8292f7" stroke-width="1.4" d="M437.49,-300.28C437.49,-300.28 289.31,-300.28 289.31,-300.28 283.31,-300.28 277.31,-294.28 277.31,-288.28 277.31,-288.28 277.31,-265.72 277.31,-265.72 277.31,-259.72 283.31,-253.72 289.31,-253.72 289.31,-253.72 437.49,-253.72 437.49,-253.72 443.49,-253.72 449.49,-259.72 449.49,-265.72 449.49,-265.72 449.49,-288.28 449.49,-288.28 449.49,-294.28 443.49,-300.28 437.49,-300.28"/>
<text xml:space="preserve" text-anchor="middle" x="363.4" y="-281.2" font-family="Noto Sans CJK KR" font-size="14.00" fill="#182033">EffectRegistry</text>
<text xml:space="preserve" text-anchor="middle" x="363.4" y="-264.4" font-family="Noto Sans CJK KR" font-size="14.00" fill="#182033">definition load · validation</text>
</g>
<!-- EffectDefinitionData&#45;&gt;EffectRegistry -->
<g id="edge1" class="edge">
<title>EffectDefinitionData&#45;&gt;EffectRegistry</title>
<path fill="none" stroke="#59687e" stroke-width="1.3" d="M189.36,-269.24C189.36,-269.24 266.79,-269.24 266.79,-269.24"/>
<polygon fill="#59687e" stroke="#59687e" stroke-width="1.3" points="266.79,-272.04 274.79,-269.24 266.79,-266.44 266.79,-272.04"/>
</g>
<!-- EffectBundleData -->
<g id="node2" class="node">
<title>EffectBundleData</title>
<path fill="#fff7e6" stroke="#e0ad4e" stroke-width="1.4" d="M206.6,-398.68C206.6,-398.68 20,-398.68 20,-398.68 14,-398.68 8,-392.68 8,-386.68 8,-386.68 8,-347.32 8,-347.32 8,-341.32 14,-335.32 20,-335.32 20,-335.32 206.6,-335.32 206.6,-335.32 212.6,-335.32 218.6,-341.32 218.6,-347.32 218.6,-347.32 218.6,-386.68 218.6,-386.68 218.6,-392.68 212.6,-398.68 206.6,-398.68"/>
<text xml:space="preserve" text-anchor="middle" x="113.3" y="-379.6" font-family="Noto Sans CJK KR" font-size="14.00" fill="#182033">EffectBundleDefinition</text>
<text xml:space="preserve" text-anchor="middle" x="113.3" y="-362.8" font-family="Noto Sans CJK KR" font-size="14.00" fill="#182033">static effect references · reactions</text>
<text xml:space="preserve" text-anchor="middle" x="113.3" y="-346" font-family="Noto Sans CJK KR" font-size="14.00" fill="#182033">content data</text>
</g>
<!-- EffectBundleData&#45;&gt;EffectRegistry -->
<g id="edge2" class="edge">
<title>EffectBundleData&#45;&gt;EffectRegistry</title>
<path fill="none" stroke="#59687e" stroke-width="1.3" d="M210.95,-334.97C210.95,-311.88 210.95,-284.76 210.95,-284.76 210.95,-284.76 266.96,-284.76 266.96,-284.76"/>
<polygon fill="#59687e" stroke="#59687e" stroke-width="1.3" points="266.96,-287.56 274.96,-284.76 266.96,-281.96 266.96,-287.56"/>
</g>
<!-- TargetSelectorData -->
<g id="node3" class="node">
<title>TargetSelectorData</title>
<path fill="#fff7e6" stroke="#e0ad4e" stroke-width="1.4" d="M191.86,-54.28C191.86,-54.28 34.73,-54.28 34.73,-54.28 28.73,-54.28 22.73,-48.28 22.73,-42.28 22.73,-42.28 22.73,-19.72 22.73,-19.72 22.73,-13.72 28.73,-7.72 34.73,-7.72 34.73,-7.72 191.86,-7.72 191.86,-7.72 197.86,-7.72 203.86,-13.72 203.86,-19.72 203.86,-19.72 203.86,-42.28 203.86,-42.28 203.86,-48.28 197.86,-54.28 191.86,-54.28"/>
<text xml:space="preserve" text-anchor="middle" x="113.3" y="-35.2" font-family="Noto Sans CJK KR" font-size="14.00" fill="#182033">TargetSelector</text>
<text xml:space="preserve" text-anchor="middle" x="113.3" y="-18.4" font-family="Noto Sans CJK KR" font-size="14.00" fill="#182033">Self · Single · Area · Chain</text>
</g>
<!-- TargetResolver -->
<g id="node12" class="node">
<title>TargetResolver</title>
<path fill="#eaf0ff" stroke="#8292f7" stroke-width="1.4" d="M2029.3,-140.28C2029.3,-140.28 1883.47,-140.28 1883.47,-140.28 1877.47,-140.28 1871.47,-134.28 1871.47,-128.28 1871.47,-128.28 1871.47,-105.72 1871.47,-105.72 1871.47,-99.72 1877.47,-93.72 1883.47,-93.72 1883.47,-93.72 2029.3,-93.72 2029.3,-93.72 2035.3,-93.72 2041.3,-99.72 2041.3,-105.72 2041.3,-105.72 2041.3,-128.28 2041.3,-128.28 2041.3,-134.28 2035.3,-140.28 2029.3,-140.28"/>
<text xml:space="preserve" text-anchor="middle" x="1956.38" y="-121.2" font-family="Noto Sans CJK KR" font-size="14.00" fill="#182033">TargetResolver</text>
<text xml:space="preserve" text-anchor="middle" x="1956.38" y="-104.4" font-family="Noto Sans CJK KR" font-size="14.00" fill="#182033">collect · filter · stable sort</text>
</g>
<!-- TargetSelectorData&#45;&gt;TargetResolver -->
<g id="edge3" class="edge">
<title>TargetSelectorData&#45;&gt;TargetResolver</title>
<path fill="none" stroke="#59687e" stroke-width="1.3" d="M195.95,-54.91C195.95,-77.49 195.95,-107.91 195.95,-107.91 195.95,-107.91 1860.91,-107.91 1860.91,-107.91"/>
<polygon fill="#59687e" stroke="#59687e" stroke-width="1.3" points="1860.91,-110.71 1868.91,-107.91 1860.91,-105.11 1860.91,-110.71"/>
</g>
<!-- ValueExpressionData -->
<g id="node4" class="node">
<title>ValueExpressionData</title>
<path fill="#fff7e6" stroke="#e0ad4e" stroke-width="1.4" d="M176.9,-136.28C176.9,-136.28 49.7,-136.28 49.7,-136.28 43.7,-136.28 37.7,-130.28 37.7,-124.28 37.7,-124.28 37.7,-101.72 37.7,-101.72 37.7,-95.72 43.7,-89.72 49.7,-89.72 49.7,-89.72 176.9,-89.72 176.9,-89.72 182.9,-89.72 188.9,-95.72 188.9,-101.72 188.9,-101.72 188.9,-124.28 188.9,-124.28 188.9,-130.28 182.9,-136.28 176.9,-136.28"/>
<text xml:space="preserve" text-anchor="middle" x="113.3" y="-117.2" font-family="Noto Sans CJK KR" font-size="14.00" fill="#182033">ValueExpression</text>
<text xml:space="preserve" text-anchor="middle" x="113.3" y="-100.4" font-family="Noto Sans CJK KR" font-size="14.00" fill="#182033">non&#45;damage values</text>
</g>
<!-- Normalizer -->
<g id="node8" class="node">
<title>Normalizer</title>
<path fill="#eaf0ff" stroke="#8292f7" stroke-width="1.4" d="M676.52,-226.68C676.52,-226.68 520.21,-226.68 520.21,-226.68 514.21,-226.68 508.21,-220.68 508.21,-214.68 508.21,-214.68 508.21,-175.32 508.21,-175.32 508.21,-169.32 514.21,-163.32 520.21,-163.32 520.21,-163.32 676.52,-163.32 676.52,-163.32 682.52,-163.32 688.52,-169.32 688.52,-175.32 688.52,-175.32 688.52,-214.68 688.52,-214.68 688.52,-220.68 682.52,-226.68 676.52,-226.68"/>
<text xml:space="preserve" text-anchor="middle" x="598.36" y="-207.6" font-family="Noto Sans CJK KR" font-size="14.00" fill="#182033">&lt;&lt;internal stage&gt;&gt;</text>
<text xml:space="preserve" text-anchor="middle" x="598.36" y="-190.8" font-family="Noto Sans CJK KR" font-size="14.00" fill="#182033">DefinitionNormalizer</text>
<text xml:space="preserve" text-anchor="middle" x="598.36" y="-174" font-family="Noto Sans CJK KR" font-size="14.00" fill="#182033">validate · target · normalize</text>
</g>
<!-- ValueExpressionData&#45;&gt;Normalizer -->
<g id="edge4" class="edge">
<title>ValueExpressionData&#45;&gt;Normalizer</title>
<path fill="none" stroke="#59687e" stroke-width="1.3" d="M112.95,-136.75C112.95,-151.45 112.95,-167.52 112.95,-167.52 112.95,-167.52 497.66,-167.52 497.66,-167.52"/>
<polygon fill="#59687e" stroke="#59687e" stroke-width="1.3" points="497.66,-170.32 505.66,-167.52 497.66,-164.72 497.66,-170.32"/>
</g>
<!-- ConditionData -->
<g id="node5" class="node">
<title>ConditionData</title>
<path fill="#fff7e6" stroke="#e0ad4e" stroke-width="1.4" d="M176.9,-218.28C176.9,-218.28 49.7,-218.28 49.7,-218.28 43.7,-218.28 37.7,-212.28 37.7,-206.28 37.7,-206.28 37.7,-183.72 37.7,-183.72 37.7,-177.72 43.7,-171.72 49.7,-171.72 49.7,-171.72 176.9,-171.72 176.9,-171.72 182.9,-171.72 188.9,-177.72 188.9,-183.72 188.9,-183.72 188.9,-206.28 188.9,-206.28 188.9,-212.28 182.9,-218.28 176.9,-218.28"/>
<text xml:space="preserve" text-anchor="middle" x="113.3" y="-199.2" font-family="Noto Sans CJK KR" font-size="14.00" fill="#182033">ConditionData</text>
<text xml:space="preserve" text-anchor="middle" x="113.3" y="-182.4" font-family="Noto Sans CJK KR" font-size="14.00" fill="#182033">target · tag · status</text>
</g>
<!-- ConditionData&#45;&gt;Normalizer -->
<g id="edge5" class="edge">
<title>ConditionData&#45;&gt;Normalizer</title>
<path fill="none" stroke="#59687e" stroke-width="1.3" d="M189.36,-195C189.36,-195 497.55,-195 497.55,-195"/>
<polygon fill="#59687e" stroke="#59687e" stroke-width="1.3" points="497.55,-197.8 505.55,-195 497.55,-192.2 497.55,-197.8"/>
</g>
<!-- EffectRegistry&#45;&gt;Normalizer -->
<g id="edge6" class="edge">
<title>EffectRegistry&#45;&gt;Normalizer</title>
<path fill="none" stroke="#59687e" stroke-width="1.3" d="M362.95,-253.25C362.95,-238.55 362.95,-222.48 362.95,-222.48 362.95,-222.48 497.71,-222.48 497.71,-222.48"/>
<polygon fill="#59687e" stroke="#59687e" stroke-width="1.3" points="497.71,-225.28 505.71,-222.48 497.71,-219.68 497.71,-225.28"/>
</g>
<!-- EffectContext -->
<g id="node7" class="node">
<title>EffectContext</title>
<path fill="#eaf0ff" stroke="#8292f7" stroke-width="1.4" d="M962.37,-241.68C962.37,-241.68 818.47,-241.68 818.47,-241.68 812.47,-241.68 806.47,-235.68 806.47,-229.68 806.47,-229.68 806.47,-190.32 806.47,-190.32 806.47,-184.32 812.47,-178.32 818.47,-178.32 818.47,-178.32 962.37,-178.32 962.37,-178.32 968.37,-178.32 974.37,-184.32 974.37,-190.32 974.37,-190.32 974.37,-229.68 974.37,-229.68 974.37,-235.68 968.37,-241.68 962.37,-241.68"/>
<text xml:space="preserve" text-anchor="middle" x="890.42" y="-222.6" font-family="Noto Sans CJK KR" font-size="14.00" fill="#182033">EffectContext</text>
<text xml:space="preserve" text-anchor="middle" x="890.42" y="-205.8" font-family="Noto Sans CJK KR" font-size="14.00" fill="#182033">CasterId · InitialTargetId</text>
<text xml:space="preserve" text-anchor="middle" x="890.42" y="-189" font-family="Noto Sans CJK KR" font-size="14.00" fill="#182033">SourceRef · RandomSeed</text>
</g>
<!-- Executor -->
<g id="node10" class="node">
<title>Executor</title>
<path fill="#eefbf6" stroke="#61b99a" stroke-width="1.4" d="M1285.25,-304.28C1285.25,-304.28 1077.13,-304.28 1077.13,-304.28 1071.13,-304.28 1065.13,-298.28 1065.13,-292.28 1065.13,-292.28 1065.13,-269.72 1065.13,-269.72 1065.13,-263.72 1071.13,-257.72 1077.13,-257.72 1077.13,-257.72 1285.25,-257.72 1285.25,-257.72 1291.25,-257.72 1297.25,-263.72 1297.25,-269.72 1297.25,-269.72 1297.25,-292.28 1297.25,-292.28 1297.25,-298.28 1291.25,-304.28 1285.25,-304.28"/>
<text xml:space="preserve" text-anchor="middle" x="1181.19" y="-285.2" font-family="Noto Sans CJK KR" font-size="14.00" fill="#182033">&lt;&lt;public interface&gt;&gt; IEffectExecutor</text>
<text xml:space="preserve" text-anchor="middle" x="1181.19" y="-268.4" font-family="Noto Sans CJK KR" font-size="14.00" fill="#182033">Execute(Operation | Bundle, Context)</text>
</g>
<!-- EffectContext&#45;&gt;Executor -->
<g id="edge11" class="edge">
<title>EffectContext&#45;&gt;Executor</title>
<path fill="none" stroke="#59687e" stroke-width="1.3" d="M889.95,-242.04C889.95,-255.99 889.95,-269.22 889.95,-269.22 889.95,-269.22 1054.86,-269.22 1054.86,-269.22"/>
<polygon fill="#59687e" stroke="#59687e" stroke-width="1.3" points="1054.86,-272.02 1062.86,-269.22 1054.86,-266.42 1054.86,-272.02"/>
<text xml:space="preserve" text-anchor="middle" x="1026.74" y="-251.2" font-family="Noto Sans CJK KR" font-size="14.00" fill="#46566e">input</text>
</g>
<!-- Planner -->
<g id="node11" class="node">
<title>Planner</title>
<path fill="#e9fbff" stroke="#54b7cf" stroke-width="1.4" d="M1643.1,-272.28C1643.1,-272.28 1442.79,-272.28 1442.79,-272.28 1436.79,-272.28 1430.79,-266.28 1430.79,-260.28 1430.79,-260.28 1430.79,-237.72 1430.79,-237.72 1430.79,-231.72 1436.79,-225.72 1442.79,-225.72 1442.79,-225.72 1643.1,-225.72 1643.1,-225.72 1649.1,-225.72 1655.1,-231.72 1655.1,-237.72 1655.1,-237.72 1655.1,-260.28 1655.1,-260.28 1655.1,-266.28 1649.1,-272.28 1643.1,-272.28"/>
<text xml:space="preserve" text-anchor="middle" x="1542.95" y="-253.2" font-family="Noto Sans CJK KR" font-size="14.00" fill="#182033">&lt;&lt;public interface&gt;&gt; IEffectPlanner</text>
<text xml:space="preserve" text-anchor="middle" x="1542.95" y="-236.4" font-family="Noto Sans CJK KR" font-size="14.00" fill="#182033">Prepare(EffectBundle, Context)</text>
</g>
<!-- EffectContext&#45;&gt;Planner -->
<g id="edge12" class="edge">
<title>EffectContext&#45;&gt;Planner</title>
<path fill="none" stroke="#59687e" stroke-width="1.3" d="M975.06,-233.7C975.06,-233.7 1420.32,-233.7 1420.32,-233.7"/>
<polygon fill="#59687e" stroke="#59687e" stroke-width="1.3" points="1420.32,-236.5 1428.32,-233.7 1420.32,-230.9 1420.32,-236.5"/>
<text xml:space="preserve" text-anchor="middle" x="1181.19" y="-210.2" font-family="Noto Sans CJK KR" font-size="14.00" fill="#46566e">input</text>
</g>
<!-- RuntimeModel -->
<g id="node9" class="node">
<title>RuntimeModel</title>
<path fill="#eefbf6" stroke="#61b99a" stroke-width="1.4" d="M976.35,-327.28C976.35,-327.28 804.49,-327.28 804.49,-327.28 798.49,-327.28 792.49,-321.28 792.49,-315.28 792.49,-315.28 792.49,-292.72 792.49,-292.72 792.49,-286.72 798.49,-280.72 804.49,-280.72 804.49,-280.72 976.35,-280.72 976.35,-280.72 982.35,-280.72 988.35,-286.72 988.35,-292.72 988.35,-292.72 988.35,-315.28 988.35,-315.28 988.35,-321.28 982.35,-327.28 976.35,-327.28"/>
<text xml:space="preserve" text-anchor="middle" x="890.42" y="-308.2" font-family="Noto Sans CJK KR" font-size="14.00" fill="#182033">EffectOperation / EffectBundle</text>
<text xml:space="preserve" text-anchor="middle" x="890.42" y="-291.4" font-family="Noto Sans CJK KR" font-size="14.00" fill="#182033">public runtime input</text>
</g>
<!-- Normalizer&#45;&gt;RuntimeModel -->
<g id="edge8" class="edge">
<title>Normalizer&#45;&gt;RuntimeModel</title>
<path fill="none" stroke="#59687e" stroke-width="1.3" d="M689.13,-202.5C742.63,-202.5 799.95,-202.5 799.95,-202.5 799.95,-202.5 799.95,-270.24 799.95,-270.24"/>
<polygon fill="#59687e" stroke="#59687e" stroke-width="1.3" points="797.15,-270.24 799.95,-278.24 802.75,-270.24 797.15,-270.24"/>
<text xml:space="preserve" text-anchor="middle" x="740.51" y="-253.2" font-family="Noto Sans CJK KR" font-size="14.00" fill="#46566e">normalize</text>
</g>
<!-- RuntimeModel&#45;&gt;Executor -->
<g id="edge9" class="edge">
<title>RuntimeModel&#45;&gt;Executor</title>
<path fill="none" stroke="#59687e" stroke-width="1.3" d="M988.86,-292.5C988.86,-292.5 1054.53,-292.5 1054.53,-292.5"/>
<polygon fill="#59687e" stroke="#59687e" stroke-width="1.3" points="1054.53,-295.3 1062.53,-292.5 1054.53,-289.7 1054.53,-295.3"/>
<text xml:space="preserve" text-anchor="middle" x="1026.74" y="-308.2" font-family="Noto Sans CJK KR" font-size="14.00" fill="#46566e">input</text>
</g>
<!-- RuntimeModel&#45;&gt;Planner -->
<g id="edge10" class="edge">
<title>RuntimeModel&#45;&gt;Planner</title>
<path fill="none" stroke="#59687e" stroke-width="1.3" d="M980.95,-280.12C980.95,-264.78 980.95,-247.7 980.95,-247.7 980.95,-247.7 1420.26,-247.7 1420.26,-247.7"/>
<polygon fill="#59687e" stroke="#59687e" stroke-width="1.3" points="1420.26,-250.5 1428.26,-247.7 1420.26,-244.9 1420.26,-250.5"/>
<text xml:space="preserve" text-anchor="middle" x="1181.19" y="-378.2" font-family="Noto Sans CJK KR" font-size="14.00" fill="#46566e">bundle input</text>
</g>
<!-- Executor&#45;&gt;Planner -->
<g id="edge13" class="edge">
<title>Executor&#45;&gt;Planner</title>
<path fill="none" stroke="#59687e" stroke-width="1.3" d="M1297.64,-265C1297.64,-265 1420.14,-265 1420.14,-265"/>
<polygon fill="#59687e" stroke="#59687e" stroke-width="1.3" points="1420.14,-267.8 1428.14,-265 1420.14,-262.2 1420.14,-267.8"/>
<text xml:space="preserve" text-anchor="middle" x="1364.02" y="-268.2" font-family="Noto Sans CJK KR" font-size="14.00" fill="#46566e">uses for bundle</text>
</g>
<!-- OperationPlanner -->
<g id="node13" class="node">
<title>OperationPlanner</title>
<path fill="#eaf0ff" stroke="#8292f7" stroke-width="1.4" d="M2514.75,-349.68C2514.75,-349.68 2285.62,-349.68 2285.62,-349.68 2279.62,-349.68 2273.62,-343.68 2273.62,-337.68 2273.62,-337.68 2273.62,-298.32 2273.62,-298.32 2273.62,-292.32 2279.62,-286.32 2285.62,-286.32 2285.62,-286.32 2514.75,-286.32 2514.75,-286.32 2520.75,-286.32 2526.75,-292.32 2526.75,-298.32 2526.75,-298.32 2526.75,-337.68 2526.75,-337.68 2526.75,-343.68 2520.75,-349.68 2514.75,-349.68"/>
<text xml:space="preserve" text-anchor="middle" x="2400.18" y="-330.6" font-family="Noto Sans CJK KR" font-size="14.00" fill="#182033">&lt;&lt;internal stage&gt;&gt; OperationPlanBuilder</text>
<text xml:space="preserve" text-anchor="middle" x="2400.18" y="-313.8" font-family="Noto Sans CJK KR" font-size="14.00" fill="#182033">DamageRequest · ApplyStatusRequest</text>
<text xml:space="preserve" text-anchor="middle" x="2400.18" y="-297" font-family="Noto Sans CJK KR" font-size="14.00" fill="#182033">mutation + planned outbox</text>
</g>
<!-- Executor&#45;&gt;OperationPlanner -->
<g id="edge14" class="edge">
<title>Executor&#45;&gt;OperationPlanner</title>
<path fill="none" stroke="#59687e" stroke-width="1.3" d="M1180.95,-304.89C1180.95,-314.69 1180.95,-323.78 1180.95,-323.78 1180.95,-323.78 2263.18,-323.78 2263.18,-323.78"/>
<polygon fill="#59687e" stroke="#59687e" stroke-width="1.3" points="2263.18,-326.58 2271.18,-323.78 2263.18,-320.98 2263.18,-326.58"/>
<text xml:space="preserve" text-anchor="middle" x="1746.16" y="-360.2" font-family="Noto Sans CJK KR" font-size="14.00" fill="#46566e">execute operation / plan</text>
</g>
<!-- Planner&#45;&gt;TargetResolver -->
<g id="edge15" class="edge">
<title>Planner&#45;&gt;TargetResolver</title>
<path fill="none" stroke="#59687e" stroke-width="1.3" d="M1542.95,-225.13C1542.95,-188.37 1542.95,-122.09 1542.95,-122.09 1542.95,-122.09 1861,-122.09 1861,-122.09"/>
<polygon fill="#59687e" stroke="#59687e" stroke-width="1.3" points="1861,-124.89 1869,-122.09 1861,-119.29 1861,-124.89"/>
<text xml:space="preserve" text-anchor="middle" x="1746.16" y="-166.2" font-family="Noto Sans CJK KR" font-size="14.00" fill="#46566e">optional revalidation</text>
</g>
<!-- Plan -->
<g id="node14" class="node">
<title>Plan</title>
<path fill="#eefbf6" stroke="#61b99a" stroke-width="1.4" d="M2063.55,-238.68C2063.55,-238.68 1849.21,-238.68 1849.21,-238.68 1843.21,-238.68 1837.21,-232.68 1837.21,-226.68 1837.21,-226.68 1837.21,-187.32 1837.21,-187.32 1837.21,-181.32 1843.21,-175.32 1849.21,-175.32 1849.21,-175.32 2063.55,-175.32 2063.55,-175.32 2069.55,-175.32 2075.55,-181.32 2075.55,-187.32 2075.55,-187.32 2075.55,-226.68 2075.55,-226.68 2075.55,-232.68 2069.55,-238.68 2063.55,-238.68"/>
<text xml:space="preserve" text-anchor="middle" x="1956.38" y="-219.6" font-family="Noto Sans CJK KR" font-size="14.00" fill="#182033">&lt;&lt;public contract&gt;&gt; EffectBundlePlan</text>
<text xml:space="preserve" text-anchor="middle" x="1956.38" y="-202.8" font-family="Noto Sans CJK KR" font-size="14.00" fill="#182033">BundleId · PrimaryOperations</text>
<text xml:space="preserve" text-anchor="middle" x="1956.38" y="-186" font-family="Noto Sans CJK KR" font-size="14.00" fill="#182033">Reactions</text>
</g>
<!-- Planner&#45;&gt;Plan -->
<g id="edge18" class="edge">
<title>Planner&#45;&gt;Plan</title>
<path fill="none" stroke="#59687e" stroke-width="1.3" d="M1655.65,-232.2C1655.65,-232.2 1826.56,-232.2 1826.56,-232.2"/>
<polygon fill="#59687e" stroke="#59687e" stroke-width="1.3" points="1826.56,-235 1834.56,-232.2 1826.56,-229.4 1826.56,-235"/>
<text xml:space="preserve" text-anchor="middle" x="1746.16" y="-235.2" font-family="Noto Sans CJK KR" font-size="14.00" fill="#46566e">returns</text>
</g>
<!-- EffectLog -->
<g id="node16" class="node">
<title>EffectLog</title>
<path fill="#f3eefc" stroke="#ab8fe0" stroke-width="1.4" d="M2019.98,-320.28C2019.98,-320.28 1892.78,-320.28 1892.78,-320.28 1886.78,-320.28 1880.78,-314.28 1880.78,-308.28 1880.78,-308.28 1880.78,-285.72 1880.78,-285.72 1880.78,-279.72 1886.78,-273.72 1892.78,-273.72 1892.78,-273.72 2019.98,-273.72 2019.98,-273.72 2025.98,-273.72 2031.98,-279.72 2031.98,-285.72 2031.98,-285.72 2031.98,-308.28 2031.98,-308.28 2031.98,-314.28 2025.98,-320.28 2019.98,-320.28"/>
<text xml:space="preserve" text-anchor="middle" x="1956.38" y="-301.2" font-family="Noto Sans CJK KR" font-size="14.00" fill="#182033">DebugTrace</text>
<text xml:space="preserve" text-anchor="middle" x="1956.38" y="-284.4" font-family="Noto Sans CJK KR" font-size="14.00" fill="#182033">calculation evidence</text>
</g>
<!-- Planner&#45;&gt;EffectLog -->
<g id="edge26" class="edge">
<title>Planner&#45;&gt;EffectLog</title>
<path fill="none" stroke="#59687e" stroke-width="1.3" d="M1655.8,-267.78C1778.08,-267.78 1955.95,-267.78 1955.95,-267.78 1955.95,-267.78 1955.95,-268.32 1955.95,-268.32"/>
<polygon fill="#59687e" stroke="#59687e" stroke-width="1.3" points="1953.15,-263.17 1955.95,-271.17 1958.75,-263.17 1953.15,-263.17"/>
<text xml:space="preserve" text-anchor="middle" x="1746.16" y="-298.2" font-family="Noto Sans CJK KR" font-size="14.00" fill="#46566e">trace</text>
</g>
<!-- TargetResolver&#45;&gt;Normalizer -->
<g id="edge7" class="edge">
<title>TargetResolver&#45;&gt;Normalizer</title>
<path fill="none" stroke="#59687e" stroke-width="1.3" d="M1955.95,-140.71C1955.95,-154.55 1955.95,-169.32 1955.95,-169.32 1955.95,-169.32 698.99,-169.32 698.99,-169.32"/>
<polygon fill="#59687e" stroke="#59687e" stroke-width="1.3" points="698.99,-166.52 690.99,-169.32 698.99,-172.12 698.99,-166.52"/>
<text xml:space="preserve" text-anchor="middle" x="1181.19" y="-123.2" font-family="Noto Sans CJK KR" font-size="14.00" fill="#46566e">stable targets</text>
</g>
<!-- StatSystem -->
<g id="node17" class="node">
<title>StatSystem</title>
<path fill="#eefbf6" stroke="#61b99a" stroke-width="1.4" d="M2865.32,-263.28C2865.32,-263.28 2738.12,-263.28 2738.12,-263.28 2732.12,-263.28 2726.12,-257.28 2726.12,-251.28 2726.12,-251.28 2726.12,-228.72 2726.12,-228.72 2726.12,-222.72 2732.12,-216.72 2738.12,-216.72 2738.12,-216.72 2865.32,-216.72 2865.32,-216.72 2871.32,-216.72 2877.32,-222.72 2877.32,-228.72 2877.32,-228.72 2877.32,-251.28 2877.32,-251.28 2877.32,-257.28 2871.32,-263.28 2865.32,-263.28"/>
<text xml:space="preserve" text-anchor="middle" x="2801.72" y="-244.2" font-family="Noto Sans CJK KR" font-size="14.00" fill="#182033">IStatQuery</text>
<text xml:space="preserve" text-anchor="middle" x="2801.72" y="-227.4" font-family="Noto Sans CJK KR" font-size="14.00" fill="#182033">pure contextual values</text>
</g>
<!-- OperationPlanner&#45;&gt;StatSystem -->
<g id="edge16" class="edge">
<title>OperationPlanner&#45;&gt;StatSystem</title>
<path fill="none" stroke="#59687e" stroke-width="1.3" d="M2527.3,-292.52C2645.01,-292.52 2801.95,-292.52 2801.95,-292.52 2801.95,-292.52 2801.95,-273.77 2801.95,-273.77"/>
<polygon fill="#59687e" stroke="#59687e" stroke-width="1.3" points="2804.75,-273.77 2801.95,-265.77 2799.15,-273.77 2804.75,-273.77"/>
<text xml:space="preserve" text-anchor="middle" x="2626.43" y="-237.2" font-family="Noto Sans CJK KR" font-size="14.00" fill="#46566e">GetValue(owner, stat, ctx)</text>
</g>
<!-- CombatSystem -->
<g id="node18" class="node">
<title>CombatSystem</title>
<path fill="#eefbf6" stroke="#61b99a" stroke-width="1.4" d="M2865.32,-345.28C2865.32,-345.28 2738.12,-345.28 2738.12,-345.28 2732.12,-345.28 2726.12,-339.28 2726.12,-333.28 2726.12,-333.28 2726.12,-310.72 2726.12,-310.72 2726.12,-304.72 2732.12,-298.72 2738.12,-298.72 2738.12,-298.72 2865.32,-298.72 2865.32,-298.72 2871.32,-298.72 2877.32,-304.72 2877.32,-310.72 2877.32,-310.72 2877.32,-333.28 2877.32,-333.28 2877.32,-339.28 2871.32,-345.28 2865.32,-345.28"/>
<text xml:space="preserve" text-anchor="middle" x="2801.72" y="-326.2" font-family="Noto Sans CJK KR" font-size="14.00" fill="#182033">ICombatResolver</text>
<text xml:space="preserve" text-anchor="middle" x="2801.72" y="-309.4" font-family="Noto Sans CJK KR" font-size="14.00" fill="#182033">pure DamageResult</text>
</g>
<!-- OperationPlanner&#45;&gt;CombatSystem -->
<g id="edge17" class="edge">
<title>OperationPlanner&#45;&gt;CombatSystem</title>
<path fill="none" stroke="#59687e" stroke-width="1.3" d="M2527.23,-314.24C2527.23,-314.24 2715.46,-314.24 2715.46,-314.24"/>
<polygon fill="#59687e" stroke="#59687e" stroke-width="1.3" points="2715.46,-317.04 2723.46,-314.24 2715.46,-311.44 2715.46,-317.04"/>
<text xml:space="preserve" text-anchor="middle" x="2626.43" y="-351.2" font-family="Noto Sans CJK KR" font-size="14.00" fill="#46566e">DamageRequest</text>
</g>
<!-- Committer -->
<g id="node19" class="node">
<title>Committer</title>
<path fill="#eefbf6" stroke="#61b99a" stroke-width="1.4" d="M2865.32,-427.28C2865.32,-427.28 2738.12,-427.28 2738.12,-427.28 2732.12,-427.28 2726.12,-421.28 2726.12,-415.28 2726.12,-415.28 2726.12,-392.72 2726.12,-392.72 2726.12,-386.72 2732.12,-380.72 2738.12,-380.72 2738.12,-380.72 2865.32,-380.72 2865.32,-380.72 2871.32,-380.72 2877.32,-386.72 2877.32,-392.72 2877.32,-392.72 2877.32,-415.28 2877.32,-415.28 2877.32,-421.28 2871.32,-427.28 2865.32,-427.28"/>
<text xml:space="preserve" text-anchor="middle" x="2801.72" y="-408.2" font-family="Noto Sans CJK KR" font-size="14.00" fill="#182033">RuntimeCommitter</text>
<text xml:space="preserve" text-anchor="middle" x="2801.72" y="-391.4" font-family="Noto Sans CJK KR" font-size="14.00" fill="#182033">state + outbox atomic</text>
</g>
<!-- OperationPlanner&#45;&gt;Committer -->
<g id="edge21" class="edge">
<title>OperationPlanner&#45;&gt;Committer</title>
<path fill="none" stroke="#59687e" stroke-width="1.3" d="M2399.95,-350.18C2399.95,-366.91 2399.95,-383.91 2399.95,-383.91 2399.95,-383.91 2715.71,-383.91 2715.71,-383.91"/>
<polygon fill="#59687e" stroke="#59687e" stroke-width="1.3" points="2715.71,-386.71 2723.71,-383.91 2715.71,-381.11 2715.71,-386.71"/>
<text xml:space="preserve" text-anchor="middle" x="2626.43" y="-408.2" font-family="Noto Sans CJK KR" font-size="14.00" fill="#46566e">mutation + planned outbox</text>
</g>
<!-- Plan&#45;&gt;OperationPlanner -->
<g id="edge19" class="edge">
<title>Plan&#45;&gt;OperationPlanner</title>
<path fill="none" stroke="#59687e" stroke-width="1.3" d="M2053.95,-239.33C2053.95,-267.31 2053.95,-303.3 2053.95,-303.3 2053.95,-303.3 2263.25,-303.3 2263.25,-303.3"/>
<polygon fill="#59687e" stroke="#59687e" stroke-width="1.3" points="2263.25,-306.1 2271.25,-303.3 2263.25,-300.5 2263.25,-306.1"/>
<text xml:space="preserve" text-anchor="middle" x="2174.59" y="-265.2" font-family="Noto Sans CJK KR" font-size="14.00" fill="#46566e">expand primary operations</text>
</g>
<!-- EffectResult -->
<g id="node15" class="node">
<title>EffectResult</title>
<path fill="#eaf0ff" stroke="#8292f7" stroke-width="1.4" d="M447.21,-390.28C447.21,-390.28 279.6,-390.28 279.6,-390.28 273.6,-390.28 267.6,-384.28 267.6,-378.28 267.6,-378.28 267.6,-355.72 267.6,-355.72 267.6,-349.72 273.6,-343.72 279.6,-343.72 279.6,-343.72 447.21,-343.72 447.21,-343.72 453.21,-343.72 459.21,-349.72 459.21,-355.72 459.21,-355.72 459.21,-378.28 459.21,-378.28 459.21,-384.28 453.21,-390.28 447.21,-390.28"/>
<text xml:space="preserve" text-anchor="middle" x="363.4" y="-371.2" font-family="Noto Sans CJK KR" font-size="14.00" fill="#182033">EffectResult</text>
<text xml:space="preserve" text-anchor="middle" x="363.4" y="-354.4" font-family="Noto Sans CJK KR" font-size="14.00" fill="#182033">success · failure · result items</text>
</g>
<!-- CombatSystem&#45;&gt;OperationPlanner -->
<g id="edge20" class="edge">
<title>CombatSystem&#45;&gt;OperationPlanner</title>
<path fill="none" stroke="#59687e" stroke-width="1.3" d="M2725.72,-329.76C2725.72,-329.76 2537.16,-329.76 2537.16,-329.76"/>
<polygon fill="#59687e" stroke="#59687e" stroke-width="1.3" points="2537.16,-326.96 2529.16,-329.76 2537.16,-332.56 2537.16,-326.96"/>
<text xml:space="preserve" text-anchor="middle" x="2626.43" y="-294.2" font-family="Noto Sans CJK KR" font-size="14.00" fill="#46566e">DamageResult</text>
</g>
<!-- Committer&#45;&gt;EffectResult -->
<g id="edge25" class="edge">
<title>Committer&#45;&gt;EffectResult</title>
<path fill="none" stroke="#59687e" stroke-width="1.3" d="M2725.74,-387.09C2725.74,-387.09 469.73,-387.09 469.73,-387.09"/>
<polygon fill="#59687e" stroke="#59687e" stroke-width="1.3" points="469.73,-384.29 461.73,-387.09 469.73,-389.89 469.73,-384.29"/>
<text xml:space="preserve" text-anchor="middle" x="1364.02" y="-448.2" font-family="Noto Sans CJK KR" font-size="14.00" fill="#46566e">receipt</text>
</g>
<!-- Facts -->
<g id="node20" class="node">
<title>Facts</title>
<path fill="#e9fbff" stroke="#54b7cf" stroke-width="1.4" d="M3153.75,-427.28C3153.75,-427.28 2938.32,-427.28 2938.32,-427.28 2932.32,-427.28 2926.32,-421.28 2926.32,-415.28 2926.32,-415.28 2926.32,-392.72 2926.32,-392.72 2926.32,-386.72 2932.32,-380.72 2938.32,-380.72 2938.32,-380.72 3153.75,-380.72 3153.75,-380.72 3159.75,-380.72 3165.75,-386.72 3165.75,-392.72 3165.75,-392.72 3165.75,-415.28 3165.75,-415.28 3165.75,-421.28 3159.75,-427.28 3153.75,-427.28"/>
<text xml:space="preserve" text-anchor="middle" x="3046.04" y="-408.2" font-family="Noto Sans CJK KR" font-size="14.00" fill="#182033">Committed facts</text>
<text xml:space="preserve" text-anchor="middle" x="3046.04" y="-391.4" font-family="Noto Sans CJK KR" font-size="14.00" fill="#182033">EffectCompleted · DamageCommitted</text>
</g>
<!-- Committer&#45;&gt;Facts -->
<g id="edge22" class="edge">
<title>Committer&#45;&gt;Facts</title>
<path fill="none" stroke="#59687e" stroke-width="1.3" d="M2878.02,-404C2878.02,-404 2916.02,-404 2916.02,-404"/>
<polygon fill="#59687e" stroke="#59687e" stroke-width="1.3" points="2916.02,-406.8 2924.02,-404 2916.02,-401.2 2916.02,-406.8"/>
</g>
<!-- ReactionQueue -->
<g id="node21" class="node">
<title>ReactionQueue</title>
<path fill="#f3eefc" stroke="#ab8fe0" stroke-width="1.4" d="M3427.41,-427.28C3427.41,-427.28 3226.75,-427.28 3226.75,-427.28 3220.75,-427.28 3214.75,-421.28 3214.75,-415.28 3214.75,-415.28 3214.75,-392.72 3214.75,-392.72 3214.75,-386.72 3220.75,-380.72 3226.75,-380.72 3226.75,-380.72 3427.41,-380.72 3427.41,-380.72 3433.41,-380.72 3439.41,-386.72 3439.41,-392.72 3439.41,-392.72 3439.41,-415.28 3439.41,-415.28 3439.41,-421.28 3433.41,-427.28 3427.41,-427.28"/>
<text xml:space="preserve" text-anchor="middle" x="3327.08" y="-408.2" font-family="Noto Sans CJK KR" font-size="14.00" fill="#182033">ReactionQueue</text>
<text xml:space="preserve" text-anchor="middle" x="3327.08" y="-391.4" font-family="Noto Sans CJK KR" font-size="14.00" fill="#182033">state&#45;changing follow&#45;up commands</text>
</g>
<!-- Facts&#45;&gt;ReactionQueue -->
<g id="edge23" class="edge">
<title>Facts&#45;&gt;ReactionQueue</title>
<path fill="none" stroke="#59687e" stroke-width="1.3" d="M3166.45,-404C3166.45,-404 3204.52,-404 3204.52,-404"/>
<polygon fill="#59687e" stroke="#59687e" stroke-width="1.3" points="3204.52,-406.8 3212.52,-404 3204.52,-401.2 3204.52,-406.8"/>
</g>
<!-- StatusSystem -->
<g id="node22" class="node">
<title>StatusSystem</title>
<path fill="#eefbf6" stroke="#61b99a" stroke-width="1.4" d="M3740.95,-427.28C3740.95,-427.28 3613.75,-427.28 3613.75,-427.28 3607.75,-427.28 3601.75,-421.28 3601.75,-415.28 3601.75,-415.28 3601.75,-392.72 3601.75,-392.72 3601.75,-386.72 3607.75,-380.72 3613.75,-380.72 3613.75,-380.72 3740.95,-380.72 3740.95,-380.72 3746.95,-380.72 3752.95,-386.72 3752.95,-392.72 3752.95,-392.72 3752.95,-415.28 3752.95,-415.28 3752.95,-421.28 3746.95,-427.28 3740.95,-427.28"/>
<text xml:space="preserve" text-anchor="middle" x="3677.35" y="-408.2" font-family="Noto Sans CJK KR" font-size="14.00" fill="#182033">Status System</text>
<text xml:space="preserve" text-anchor="middle" x="3677.35" y="-391.4" font-family="Noto Sans CJK KR" font-size="14.00" fill="#182033">ApplyStatus command</text>
</g>
<!-- ReactionQueue&#45;&gt;StatusSystem -->
<g id="edge24" class="edge">
<title>ReactionQueue&#45;&gt;StatusSystem</title>
<path fill="none" stroke="#59687e" stroke-width="1.3" d="M3439.84,-404C3439.84,-404 3591.08,-404 3591.08,-404"/>
<polygon fill="#59687e" stroke="#59687e" stroke-width="1.3" points="3591.08,-406.8 3599.08,-404 3591.08,-401.2 3591.08,-406.8"/>
<text xml:space="preserve" text-anchor="middle" x="3520.58" y="-408.2" font-family="Noto Sans CJK KR" font-size="14.00" fill="#46566e">ApplyStatusRequest</text>
</g>
</g>
</svg>
