<?xml version="1.0" encoding="UTF-8" standalone="no"?>
<!DOCTYPE svg PUBLIC "-//W3C//DTD SVG 1.1//EN"
 "http://www.w3.org/Graphics/SVG/1.1/DTD/svg11.dtd">
<!-- Generated by graphviz version 2.42.4 (0)
 -->
<!-- Title: G Pages: 1 -->
<svg width="1393pt" height="522pt"
 viewBox="8.64 8.64 1384.64 513.64" xmlns="http://www.w3.org/2000/svg" xmlns:xlink="http://www.w3.org/1999/xlink">
<g id="graph0" class="graph" transform="scale(1 1) rotate(0) translate(26.64 495.64)">
<title>G</title>
<polygon fill="#ffffff" stroke="transparent" points="-18,18 -18,-487 1358,-487 1358,18 -18,18"/>
<g id="clust1" class="cluster">
<title>cluster_data</title>
<path fill="#ffffff" stroke="#dfe5ee" stroke-dasharray="5,2" d="M20,-84C20,-84 163,-84 163,-84 169,-84 175,-90 175,-96 175,-96 175,-449 175,-449 175,-455 169,-461 163,-461 163,-461 20,-461 20,-461 14,-461 8,-455 8,-449 8,-449 8,-96 8,-96 8,-90 14,-84 20,-84"/>
<text text-anchor="middle" x="91.5" y="-443.4" font-family="Noto Sans CJK KR" font-size="17.00" fill="#607086">Content / Data</text>
</g>
<g id="clust2" class="cluster">
<title>cluster_runtime</title>
<path fill="#ffffff" stroke="#dfe5ee" stroke-dasharray="5,2" d="M236,-74C236,-74 1072,-74 1072,-74 1078,-74 1084,-80 1084,-86 1084,-86 1084,-362 1084,-362 1084,-368 1078,-374 1072,-374 1072,-374 236,-374 236,-374 230,-374 224,-368 224,-362 224,-362 224,-86 224,-86 224,-80 230,-74 236,-74"/>
<text text-anchor="middle" x="654" y="-356.4" font-family="Noto Sans CJK KR" font-size="17.00" fill="#607086">Reusable Effect Framework</text>
</g>
<g id="clust3" class="cluster">
<title>cluster_external</title>
<path fill="#ffffff" stroke="#dfe5ee" stroke-dasharray="5,2" d="M1193,-74C1193,-74 1321,-74 1321,-74 1327,-74 1333,-80 1333,-86 1333,-86 1333,-362 1333,-362 1333,-368 1327,-374 1321,-374 1321,-374 1193,-374 1193,-374 1187,-374 1181,-368 1181,-362 1181,-362 1181,-86 1181,-86 1181,-80 1187,-74 1193,-74"/>
<text text-anchor="middle" x="1257" y="-356.4" font-family="Noto Sans CJK KR" font-size="17.00" fill="#607086">External Systems</text>
</g>
<!-- EffectDefinitionData -->
<g id="node1" class="node">
<title>EffectDefinitionData</title>
<path fill="#fff7e6" stroke="#e0ad4e" stroke-width="1.4" d="M155,-280C155,-280 28,-280 28,-280 22,-280 16,-274 16,-268 16,-268 16,-250 16,-250 16,-244 22,-238 28,-238 28,-238 155,-238 155,-238 161,-238 167,-244 167,-250 167,-250 167,-268 167,-268 167,-274 161,-280 155,-280"/>
<text text-anchor="middle" x="91.5" y="-262.8" font-family="Noto Sans CJK KR" font-size="14.00" fill="#182033">EffectDefinition</text>
<text text-anchor="middle" x="91.5" y="-247.8" font-family="Noto Sans CJK KR" font-size="14.00" fill="#182033">효과 종류·파라미터</text>
</g>
<!-- EffectRegistry -->
<g id="node6" class="node">
<title>EffectRegistry</title>
<path fill="#eaf0ff" stroke="#8292f7" stroke-width="1.4" d="M378,-283C378,-283 251,-283 251,-283 245,-283 239,-277 239,-271 239,-271 239,-253 239,-253 239,-247 245,-241 251,-241 251,-241 378,-241 378,-241 384,-241 390,-247 390,-253 390,-253 390,-271 390,-271 390,-277 384,-283 378,-283"/>
<text text-anchor="middle" x="314.5" y="-265.8" font-family="Noto Sans CJK KR" font-size="14.00" fill="#182033">EffectRegistry</text>
<text text-anchor="middle" x="314.5" y="-250.8" font-family="Noto Sans CJK KR" font-size="14.00" fill="#182033">정의 로드·검증</text>
</g>
<!-- EffectDefinitionData&#45;&gt;EffectRegistry -->
<g id="edge1" class="edge">
<title>EffectDefinitionData&#45;&gt;EffectRegistry</title>
<path fill="none" stroke="#59687e" stroke-width="1.3" d="M167.31,-267C167.31,-267 230.9,-267 230.9,-267"/>
<polygon fill="#59687e" stroke="#59687e" stroke-width="1.3" points="230.9,-269.8 238.9,-267 230.9,-264.2 230.9,-269.8"/>
</g>
<!-- EffectBundleData -->
<g id="node2" class="node">
<title>EffectBundleData</title>
<path fill="#fff7e6" stroke="#e0ad4e" stroke-width="1.4" d="M155,-203C155,-203 28,-203 28,-203 22,-203 16,-197 16,-191 16,-191 16,-173 16,-173 16,-167 22,-161 28,-161 28,-161 155,-161 155,-161 161,-161 167,-167 167,-173 167,-173 167,-191 167,-191 167,-197 161,-203 155,-203"/>
<text text-anchor="middle" x="91.5" y="-185.8" font-family="Noto Sans CJK KR" font-size="14.00" fill="#182033">EffectBundle</text>
<text text-anchor="middle" x="91.5" y="-170.8" font-family="Noto Sans CJK KR" font-size="14.00" fill="#182033">효과 묶음</text>
</g>
<!-- EffectBundleData&#45;&gt;EffectRegistry -->
<g id="edge2" class="edge">
<title>EffectBundleData&#45;&gt;EffectRegistry</title>
<path fill="none" stroke="#59687e" stroke-width="1.3" d="M167.14,-183.5C170.81,-183.5 173,-183.5 173,-183.5 173,-183.5 173,-254 173,-254 173,-254 230.78,-254 230.78,-254"/>
<polygon fill="#59687e" stroke="#59687e" stroke-width="1.3" points="230.78,-256.8 238.78,-254 230.78,-251.2 230.78,-256.8"/>
</g>
<!-- TargetSelectorData -->
<g id="node3" class="node">
<title>TargetSelectorData</title>
<path fill="#fff7e6" stroke="#e0ad4e" stroke-width="1.4" d="M163,-434C163,-434 20,-434 20,-434 14,-434 8,-428 8,-422 8,-422 8,-404 8,-404 8,-398 14,-392 20,-392 20,-392 163,-392 163,-392 169,-392 175,-398 175,-404 175,-404 175,-422 175,-422 175,-428 169,-434 163,-434"/>
<text text-anchor="middle" x="91.5" y="-416.8" font-family="Noto Sans CJK KR" font-size="14.00" fill="#182033">TargetSelector</text>
<text text-anchor="middle" x="91.5" y="-401.8" font-family="Noto Sans CJK KR" font-size="14.00" fill="#182033">Self·Area·Cone·Chain</text>
</g>
<!-- TargetResolver -->
<g id="node10" class="node">
<title>TargetResolver</title>
<path fill="#eaf0ff" stroke="#8292f7" stroke-width="1.4" d="M872,-347C872,-347 745,-347 745,-347 739,-347 733,-341 733,-335 733,-335 733,-317 733,-317 733,-311 739,-305 745,-305 745,-305 872,-305 872,-305 878,-305 884,-311 884,-317 884,-317 884,-335 884,-335 884,-341 878,-347 872,-347"/>
<text text-anchor="middle" x="808.5" y="-329.8" font-family="Noto Sans CJK KR" font-size="14.00" fill="#182033">TargetResolver</text>
<text text-anchor="middle" x="808.5" y="-314.8" font-family="Noto Sans CJK KR" font-size="14.00" fill="#182033">후보 수집·필터</text>
</g>
<!-- TargetSelectorData&#45;&gt;TargetResolver -->
<g id="edge3" class="edge">
<title>TargetSelectorData&#45;&gt;TargetResolver</title>
<path fill="none" stroke="#59687e" stroke-width="1.3" d="M170,-391.64C170,-368.96 170,-336.33 170,-336.33 170,-336.33 724.75,-336.33 724.75,-336.33"/>
<polygon fill="#59687e" stroke="#59687e" stroke-width="1.3" points="724.75,-339.13 732.75,-336.33 724.75,-333.53 724.75,-339.13"/>
</g>
<!-- ValueExpressionData -->
<g id="node4" class="node">
<title>ValueExpressionData</title>
<path fill="#fff7e6" stroke="#e0ad4e" stroke-width="1.4" d="M155,-126C155,-126 28,-126 28,-126 22,-126 16,-120 16,-114 16,-114 16,-96 16,-96 16,-90 22,-84 28,-84 28,-84 155,-84 155,-84 161,-84 167,-90 167,-96 167,-96 167,-114 167,-114 167,-120 161,-126 155,-126"/>
<text text-anchor="middle" x="91.5" y="-108.8" font-family="Noto Sans CJK KR" font-size="14.00" fill="#182033">ValueExpression</text>
<text text-anchor="middle" x="91.5" y="-93.8" font-family="Noto Sans CJK KR" font-size="14.00" fill="#182033">base + stat scaling</text>
</g>
<!-- ValueResolver -->
<g id="node11" class="node">
<title>ValueResolver</title>
<path fill="#eaf0ff" stroke="#8292f7" stroke-width="1.4" d="M872,-116C872,-116 745,-116 745,-116 739,-116 733,-110 733,-104 733,-104 733,-86 733,-86 733,-80 739,-74 745,-74 745,-74 872,-74 872,-74 878,-74 884,-80 884,-86 884,-86 884,-104 884,-104 884,-110 878,-116 872,-116"/>
<text text-anchor="middle" x="808.5" y="-98.8" font-family="Noto Sans CJK KR" font-size="14.00" fill="#182033">ValueResolver</text>
<text text-anchor="middle" x="808.5" y="-83.8" font-family="Noto Sans CJK KR" font-size="14.00" fill="#182033">스탯 조회·수식 계산</text>
</g>
<!-- ValueExpressionData&#45;&gt;ValueResolver -->
<g id="edge4" class="edge">
<title>ValueExpressionData&#45;&gt;ValueResolver</title>
<path fill="none" stroke="#59687e" stroke-width="1.3" d="M92,-83.53C92,-80.83 92,-79 92,-79 92,-79 724.84,-79 724.84,-79"/>
<polygon fill="#59687e" stroke="#59687e" stroke-width="1.3" points="724.84,-81.8 732.84,-79 724.84,-76.2 724.84,-81.8"/>
</g>
<!-- ConditionData -->
<g id="node5" class="node">
<title>ConditionData</title>
<path fill="#fff7e6" stroke="#e0ad4e" stroke-width="1.4" d="M155,-357C155,-357 28,-357 28,-357 22,-357 16,-351 16,-345 16,-345 16,-327 16,-327 16,-321 22,-315 28,-315 28,-315 155,-315 155,-315 161,-315 167,-321 167,-327 167,-327 167,-345 167,-345 167,-351 161,-357 155,-357"/>
<text text-anchor="middle" x="91.5" y="-339.8" font-family="Noto Sans CJK KR" font-size="14.00" fill="#182033">ConditionData</text>
<text text-anchor="middle" x="91.5" y="-324.8" font-family="Noto Sans CJK KR" font-size="14.00" fill="#182033">대상·태그·상태 조건</text>
</g>
<!-- EffectPipeline -->
<g id="node9" class="node">
<title>EffectPipeline</title>
<path fill="#eaf0ff" stroke="#8292f7" stroke-width="1.4" d="M672,-206C672,-206 466,-206 466,-206 460,-206 454,-200 454,-194 454,-194 454,-176 454,-176 454,-170 460,-164 466,-164 466,-164 672,-164 672,-164 678,-164 684,-170 684,-176 684,-176 684,-194 684,-194 684,-200 678,-206 672,-206"/>
<text text-anchor="middle" x="569" y="-188.8" font-family="Noto Sans CJK KR" font-size="14.00" fill="#182033">EffectPipeline</text>
<text text-anchor="middle" x="569" y="-173.8" font-family="Noto Sans CJK KR" font-size="14.00" fill="#182033">Validate→Target→Value→Apply</text>
</g>
<!-- ConditionData&#45;&gt;EffectPipeline -->
<g id="edge5" class="edge">
<title>ConditionData&#45;&gt;EffectPipeline</title>
<path fill="none" stroke="#59687e" stroke-width="1.3" d="M167.05,-325.67C292.71,-325.67 531,-325.67 531,-325.67 531,-325.67 531,-214.06 531,-214.06"/>
<polygon fill="#59687e" stroke="#59687e" stroke-width="1.3" points="533.8,-214.06 531,-206.06 528.2,-214.06 533.8,-214.06"/>
</g>
<!-- EffectRequest -->
<g id="node7" class="node">
<title>EffectRequest</title>
<path fill="#eaf0ff" stroke="#8292f7" stroke-width="1.4" d="M378,-129C378,-129 251,-129 251,-129 245,-129 239,-123 239,-117 239,-117 239,-99 239,-99 239,-93 245,-87 251,-87 251,-87 378,-87 378,-87 384,-87 390,-93 390,-99 390,-99 390,-117 390,-117 390,-123 384,-129 378,-129"/>
<text text-anchor="middle" x="314.5" y="-111.8" font-family="Noto Sans CJK KR" font-size="14.00" fill="#182033">EffectRequest</text>
<text text-anchor="middle" x="314.5" y="-96.8" font-family="Noto Sans CJK KR" font-size="14.00" fill="#182033">실행 요청</text>
</g>
<!-- EffectRequest&#45;&gt;EffectPipeline -->
<g id="edge6" class="edge">
<title>EffectRequest&#45;&gt;EffectPipeline</title>
<path fill="none" stroke="#59687e" stroke-width="1.3" d="M390.22,-122.5C452.65,-122.5 531,-122.5 531,-122.5 531,-122.5 531,-155.84 531,-155.84"/>
<polygon fill="#59687e" stroke="#59687e" stroke-width="1.3" points="528.2,-155.84 531,-163.84 533.8,-155.84 528.2,-155.84"/>
</g>
<!-- EffectContext -->
<g id="node8" class="node">
<title>EffectContext</title>
<path fill="#eaf0ff" stroke="#8292f7" stroke-width="1.4" d="M393,-206C393,-206 236,-206 236,-206 230,-206 224,-200 224,-194 224,-194 224,-176 224,-176 224,-170 230,-164 236,-164 236,-164 393,-164 393,-164 399,-164 405,-170 405,-176 405,-176 405,-194 405,-194 405,-200 399,-206 393,-206"/>
<text text-anchor="middle" x="314.5" y="-188.8" font-family="Noto Sans CJK KR" font-size="14.00" fill="#182033">EffectContext</text>
<text text-anchor="middle" x="314.5" y="-173.8" font-family="Noto Sans CJK KR" font-size="14.00" fill="#182033">source·target·skill·seed</text>
</g>
<!-- EffectContext&#45;&gt;EffectPipeline -->
<g id="edge7" class="edge">
<title>EffectContext&#45;&gt;EffectPipeline</title>
<path fill="none" stroke="#59687e" stroke-width="1.3" d="M405.3,-185C405.3,-185 445.76,-185 445.76,-185"/>
<polygon fill="#59687e" stroke="#59687e" stroke-width="1.3" points="445.76,-187.8 453.76,-185 445.76,-182.2 445.76,-187.8"/>
</g>
<!-- EffectPipeline&#45;&gt;TargetResolver -->
<g id="edge8" class="edge">
<title>EffectPipeline&#45;&gt;TargetResolver</title>
<path fill="none" stroke="#59687e" stroke-width="1.3" d="M608,-206.2C608,-241.87 608,-310 608,-310 608,-310 724.99,-310 724.99,-310"/>
<polygon fill="#59687e" stroke="#59687e" stroke-width="1.3" points="724.99,-312.8 732.99,-310 724.99,-307.2 724.99,-312.8"/>
</g>
<!-- EffectPipeline&#45;&gt;ValueResolver -->
<g id="edge9" class="edge">
<title>EffectPipeline&#45;&gt;ValueResolver</title>
<path fill="none" stroke="#59687e" stroke-width="1.3" d="M608,-163.93C608,-139.19 608,-101.5 608,-101.5 608,-101.5 724.99,-101.5 724.99,-101.5"/>
<polygon fill="#59687e" stroke="#59687e" stroke-width="1.3" points="724.99,-104.3 732.99,-101.5 724.99,-98.7 724.99,-104.3"/>
</g>
<!-- EffectExecutor -->
<g id="node12" class="node">
<title>EffectExecutor</title>
<path fill="#eaf0ff" stroke="#8292f7" stroke-width="1.4" d="M872,-270C872,-270 745,-270 745,-270 739,-270 733,-264 733,-258 733,-258 733,-240 733,-240 733,-234 739,-228 745,-228 745,-228 872,-228 872,-228 878,-228 884,-234 884,-240 884,-240 884,-258 884,-258 884,-264 878,-270 872,-270"/>
<text text-anchor="middle" x="808.5" y="-252.8" font-family="Noto Sans CJK KR" font-size="14.00" fill="#182033">EffectExecutor</text>
<text text-anchor="middle" x="808.5" y="-237.8" font-family="Noto Sans CJK KR" font-size="14.00" fill="#182033">효과별 적용기</text>
</g>
<!-- EffectPipeline&#45;&gt;EffectExecutor -->
<g id="edge10" class="edge">
<title>EffectPipeline&#45;&gt;EffectExecutor</title>
<path fill="none" stroke="#59687e" stroke-width="1.3" d="M684.08,-199.5C745.67,-199.5 809,-199.5 809,-199.5 809,-199.5 809,-219.72 809,-219.72"/>
<polygon fill="#59687e" stroke="#59687e" stroke-width="1.3" points="806.2,-219.72 809,-227.72 811.8,-219.72 806.2,-219.72"/>
</g>
<!-- EffectLog -->
<g id="node14" class="node">
<title>EffectLog</title>
<path fill="#f3eefc" stroke="#ab8fe0" stroke-width="1.4" d="M872,-193C872,-193 745,-193 745,-193 739,-193 733,-187 733,-181 733,-181 733,-163 733,-163 733,-157 739,-151 745,-151 745,-151 872,-151 872,-151 878,-151 884,-157 884,-163 884,-163 884,-181 884,-181 884,-187 878,-193 872,-193"/>
<text text-anchor="middle" x="808.5" y="-175.8" font-family="Noto Sans CJK KR" font-size="14.00" fill="#182033">EffectLog</text>
<text text-anchor="middle" x="808.5" y="-160.8" font-family="Noto Sans CJK KR" font-size="14.00" fill="#182033">디버그·리플레이 근거</text>
</g>
<!-- EffectPipeline&#45;&gt;EffectLog -->
<g id="edge18" class="edge">
<title>EffectPipeline&#45;&gt;EffectLog</title>
<path fill="none" stroke="#59687e" stroke-width="1.3" d="M684.19,-178.5C684.19,-178.5 724.89,-178.5 724.89,-178.5"/>
<polygon fill="#59687e" stroke="#59687e" stroke-width="1.3" points="724.89,-181.3 732.89,-178.5 724.89,-175.7 724.89,-181.3"/>
</g>
<!-- EffectResult -->
<g id="node13" class="node">
<title>EffectResult</title>
<path fill="#eaf0ff" stroke="#8292f7" stroke-width="1.4" d="M1072,-347C1072,-347 945,-347 945,-347 939,-347 933,-341 933,-335 933,-335 933,-317 933,-317 933,-311 939,-305 945,-305 945,-305 1072,-305 1072,-305 1078,-305 1084,-311 1084,-317 1084,-317 1084,-335 1084,-335 1084,-341 1078,-347 1072,-347"/>
<text text-anchor="middle" x="1008.5" y="-329.8" font-family="Noto Sans CJK KR" font-size="14.00" fill="#182033">EffectResult</text>
<text text-anchor="middle" x="1008.5" y="-314.8" font-family="Noto Sans CJK KR" font-size="14.00" fill="#182033">성공·실패·결과 목록</text>
</g>
<!-- TargetResolver&#45;&gt;EffectResult -->
<g id="edge11" class="edge">
<title>TargetResolver&#45;&gt;EffectResult</title>
<path fill="none" stroke="#59687e" stroke-width="1.3" d="M884.11,-326C884.11,-326 924.78,-326 924.78,-326"/>
<polygon fill="#59687e" stroke="#59687e" stroke-width="1.3" points="924.78,-328.8 932.78,-326 924.78,-323.2 924.78,-328.8"/>
</g>
<!-- StatSystem -->
<g id="node15" class="node">
<title>StatSystem</title>
<path fill="#eefbf6" stroke="#61b99a" stroke-width="1.4" d="M1320,-116C1320,-116 1193,-116 1193,-116 1187,-116 1181,-110 1181,-104 1181,-104 1181,-86 1181,-86 1181,-80 1187,-74 1193,-74 1193,-74 1320,-74 1320,-74 1326,-74 1332,-80 1332,-86 1332,-86 1332,-104 1332,-104 1332,-110 1326,-116 1320,-116"/>
<text text-anchor="middle" x="1256.5" y="-98.8" font-family="Noto Sans CJK KR" font-size="14.00" fill="#182033">Stat System</text>
<text text-anchor="middle" x="1256.5" y="-83.8" font-family="Noto Sans CJK KR" font-size="14.00" fill="#182033">최종값·Modifier</text>
</g>
<!-- ValueResolver&#45;&gt;StatSystem -->
<g id="edge12" class="edge">
<title>ValueResolver&#45;&gt;StatSystem</title>
<path fill="none" stroke="#59687e" stroke-width="1.3" d="M884.24,-88C884.24,-88 1172.79,-88 1172.79,-88"/>
<polygon fill="#59687e" stroke="#59687e" stroke-width="1.3" points="1172.79,-90.8 1180.79,-88 1172.79,-85.2 1172.79,-90.8"/>
<text text-anchor="middle" x="1008.5" y="-3.8" font-family="Noto Sans CJK KR" font-size="14.00" fill="#46566e">getValue(ctx)</text>
</g>
<!-- EffectExecutor&#45;&gt;EffectResult -->
<g id="edge16" class="edge">
<title>EffectExecutor&#45;&gt;EffectResult</title>
<path fill="none" stroke="#59687e" stroke-width="1.3" d="M884.01,-261.6C940.85,-261.6 1009,-261.6 1009,-261.6 1009,-261.6 1009,-296.91 1009,-296.91"/>
<polygon fill="#59687e" stroke="#59687e" stroke-width="1.3" points="1006.2,-296.91 1009,-304.91 1011.8,-296.91 1006.2,-296.91"/>
</g>
<!-- EffectExecutor&#45;&gt;StatSystem -->
<g id="edge15" class="edge">
<title>EffectExecutor&#45;&gt;StatSystem</title>
<path fill="none" stroke="#59687e" stroke-width="1.3" d="M884.03,-236.4C894.08,-236.4 901,-236.4 901,-236.4 901,-236.4 901,-102 901,-102 901,-102 1172.67,-102 1172.67,-102"/>
<polygon fill="#59687e" stroke="#59687e" stroke-width="1.3" points="1172.67,-104.8 1180.67,-102 1172.67,-99.2 1172.67,-104.8"/>
<text text-anchor="middle" x="1008.5" y="-173.8" font-family="Noto Sans CJK KR" font-size="14.00" fill="#46566e">AddModifier/Resource</text>
</g>
<!-- CombatSystem -->
<g id="node16" class="node">
<title>CombatSystem</title>
<path fill="#eefbf6" stroke="#61b99a" stroke-width="1.4" d="M1320,-193C1320,-193 1193,-193 1193,-193 1187,-193 1181,-187 1181,-181 1181,-181 1181,-163 1181,-163 1181,-157 1187,-151 1193,-151 1193,-151 1320,-151 1320,-151 1326,-151 1332,-157 1332,-163 1332,-163 1332,-181 1332,-181 1332,-187 1326,-193 1320,-193"/>
<text text-anchor="middle" x="1256.5" y="-175.8" font-family="Noto Sans CJK KR" font-size="14.00" fill="#182033">Combat System</text>
<text text-anchor="middle" x="1256.5" y="-160.8" font-family="Noto Sans CJK KR" font-size="14.00" fill="#182033">Hit/Crit/Damage</text>
</g>
<!-- EffectExecutor&#45;&gt;CombatSystem -->
<g id="edge13" class="edge">
<title>EffectExecutor&#45;&gt;CombatSystem</title>
<path fill="none" stroke="#59687e" stroke-width="1.3" d="M884.15,-244.8C902.53,-244.8 917,-244.8 917,-244.8 917,-244.8 917,-172 917,-172 917,-172 1172.73,-172 1172.73,-172"/>
<polygon fill="#59687e" stroke="#59687e" stroke-width="1.3" points="1172.73,-174.8 1180.73,-172 1172.73,-169.2 1172.73,-174.8"/>
<text text-anchor="middle" x="1008.5" y="-88.8" font-family="Noto Sans CJK KR" font-size="14.00" fill="#46566e">DamageEffect</text>
</g>
<!-- StatusSystem -->
<g id="node17" class="node">
<title>StatusSystem</title>
<path fill="#eefbf6" stroke="#61b99a" stroke-width="1.4" d="M1320,-270C1320,-270 1193,-270 1193,-270 1187,-270 1181,-264 1181,-258 1181,-258 1181,-240 1181,-240 1181,-234 1187,-228 1193,-228 1193,-228 1320,-228 1320,-228 1326,-228 1332,-234 1332,-240 1332,-240 1332,-258 1332,-258 1332,-264 1326,-270 1320,-270"/>
<text text-anchor="middle" x="1256.5" y="-252.8" font-family="Noto Sans CJK KR" font-size="14.00" fill="#182033">Status System</text>
<text text-anchor="middle" x="1256.5" y="-237.8" font-family="Noto Sans CJK KR" font-size="14.00" fill="#182033">상태 부여·제거</text>
</g>
<!-- EffectExecutor&#45;&gt;StatusSystem -->
<g id="edge14" class="edge">
<title>EffectExecutor&#45;&gt;StatusSystem</title>
<path fill="none" stroke="#59687e" stroke-width="1.3" d="M884.24,-253.2C884.24,-253.2 1172.79,-253.2 1172.79,-253.2"/>
<polygon fill="#59687e" stroke="#59687e" stroke-width="1.3" points="1172.79,-256 1180.79,-253.2 1172.79,-250.4 1172.79,-256"/>
<text text-anchor="middle" x="1008.5" y="-258.8" font-family="Noto Sans CJK KR" font-size="14.00" fill="#46566e">ApplyStatus</text>
</g>
<!-- EventBus -->
<g id="node18" class="node">
<title>EventBus</title>
<path fill="#eefbf6" stroke="#61b99a" stroke-width="1.4" d="M1320,-347C1320,-347 1193,-347 1193,-347 1187,-347 1181,-341 1181,-335 1181,-335 1181,-317 1181,-317 1181,-311 1187,-305 1193,-305 1193,-305 1320,-305 1320,-305 1326,-305 1332,-311 1332,-317 1332,-317 1332,-335 1332,-335 1332,-341 1326,-347 1320,-347"/>
<text text-anchor="middle" x="1256.5" y="-329.8" font-family="Noto Sans CJK KR" font-size="14.00" fill="#182033">Event Bus</text>
<text text-anchor="middle" x="1256.5" y="-314.8" font-family="Noto Sans CJK KR" font-size="14.00" fill="#182033">EffectApplied 등</text>
</g>
<!-- EffectResult&#45;&gt;EventBus -->
<g id="edge17" class="edge">
<title>EffectResult&#45;&gt;EventBus</title>
<path fill="none" stroke="#59687e" stroke-width="1.3" d="M1084.26,-326C1084.26,-326 1172.78,-326 1172.78,-326"/>
<polygon fill="#59687e" stroke="#59687e" stroke-width="1.3" points="1172.78,-328.8 1180.78,-326 1172.78,-323.2 1172.78,-328.8"/>
<text text-anchor="middle" x="1132.5" y="-329.8" font-family="Noto Sans CJK KR" font-size="14.00" fill="#46566e">publish</text>
</g>
</g>
</svg>
