<?xml version="1.0" encoding="UTF-8" standalone="no"?>
<!DOCTYPE svg PUBLIC "-//W3C//DTD SVG 1.1//EN"
 "http://www.w3.org/Graphics/SVG/1.1/DTD/svg11.dtd">
<!-- Generated by graphviz version 15.1.0 (20260618.0150)
 -->
<!-- Title: G Pages: 1 -->
<svg width="2789pt" height="1385pt"
 viewBox="12.00 12.00 2777.00 1373.00" xmlns="http://www.w3.org/2000/svg" xmlns:xlink="http://www.w3.org/1999/xlink">
<g id="graph0" class="graph" transform="scale(1.33333 1.33333) rotate(0) translate(30.24 1008.21)">
<title>G</title>
<polygon fill="#ffffff" stroke="none" points="-21.6,21.6 -21.6,-999.57 2052.6,-999.57 2052.6,21.6 -21.6,21.6"/>
<g id="clust1" class="cluster">
<title>cluster_data</title>
<path fill="#ffffff" stroke="#dfe5ee" stroke-dasharray="5,2" d="M20,-876.26C20,-876.26 1060,-876.26 1060,-876.26 1066,-876.26 1072,-882.26 1072,-888.26 1072,-888.26 1072,-957.97 1072,-957.97 1072,-963.97 1066,-969.97 1060,-969.97 1060,-969.97 20,-969.97 20,-969.97 14,-969.97 8,-963.97 8,-957.97 8,-957.97 8,-888.26 8,-888.26 8,-882.26 14,-876.26 20,-876.26"/>
<text xml:space="preserve" text-anchor="middle" x="540" y="-949.82" font-family="Noto Sans KR" font-size="17.00" fill="#607086">Content / Data</text>
</g>
<g id="clust3" class="cluster">
<title>cluster_runtime</title>
<path fill="#ffffff" stroke="#dfe5ee" stroke-dasharray="5,2" d="M1084,-270.42C1084,-270.42 1831,-270.42 1831,-270.42 1837,-270.42 1843,-276.42 1843,-282.42 1843,-282.42 1843,-957.97 1843,-957.97 1843,-963.97 1837,-969.97 1831,-969.97 1831,-969.97 1084,-969.97 1084,-969.97 1078,-969.97 1072,-963.97 1072,-957.97 1072,-957.97 1072,-282.42 1072,-282.42 1072,-276.42 1078,-270.42 1084,-270.42"/>
<text xml:space="preserve" text-anchor="middle" x="1457.5" y="-949.82" font-family="Noto Sans KR" font-size="17.00" fill="#607086">Effect Runtime · public port and internal stages</text>
</g>
<g id="clust9" class="cluster">
<title>cluster_external</title>
<path fill="#ffffff" stroke="#dfe5ee" stroke-dasharray="5,2" d="M1018,-8C1018,-8 2011,-8 2011,-8 2017,-8 2023,-14 2023,-20 2023,-20 2023,-203.17 2023,-203.17 2023,-209.17 2017,-215.17 2011,-215.17 2011,-215.17 1018,-215.17 1018,-215.17 1012,-215.17 1006,-209.17 1006,-203.17 1006,-203.17 1006,-20 1006,-20 1006,-14 1012,-8 1018,-8"/>
<text xml:space="preserve" text-anchor="middle" x="1514.5" y="-195.02" font-family="Noto Sans KR" font-size="17.00" fill="#607086">Ports / Commit / Reaction</text>
</g>
<!-- EffectDefinitionData&#45;&gt;EffectRegistry -->
<g id="edge1" class="edge">
<title>EffectDefinitionData&#45;&gt;EffectRegistry</title>
<path fill="none" stroke="#59687e" stroke-width="1.3" d="M158.51,-884.25C173.1,-879.68 184,-876.26 184,-876.26 184,-876.26 809.36,-809.74 1061.48,-782.92"/>
<polygon fill="#59687e" stroke="#59687e" stroke-width="1.3" points="1061.77,-785.7 1069.43,-782.07 1061.17,-780.13 1061.77,-785.7"/>
</g>
<!-- EffectBundleData&#45;&gt;EffectRegistry -->
<g id="edge2" class="edge">
<title>EffectBundleData&#45;&gt;EffectRegistry</title>
<path fill="none" stroke="#59687e" stroke-width="1.3" d="M436.28,-881.65C450.41,-878.44 460,-876.26 460,-876.26 460,-876.26 865.79,-816.19 1061.64,-787.2"/>
<polygon fill="#59687e" stroke="#59687e" stroke-width="1.3" points="1061.93,-789.99 1069.44,-786.05 1061.11,-784.45 1061.93,-789.99"/>
</g>
<!-- TargetSelectorData&#45;&gt;TargetResolver -->
<g id="edge3" class="edge">
<title>TargetSelectorData&#45;&gt;TargetResolver</title>
<path fill="none" stroke="#59687e" stroke-width="1.3" d="M665.92,-884.25C683.14,-879.68 696,-876.26 696,-876.26 696,-876.26 870,-839.26 870,-839.26 870,-839.26 1282,-803.26 1282,-803.26 1282,-803.26 1290.11,-801.05 1302.03,-797.8"/>
<polygon fill="#59687e" stroke="#59687e" stroke-width="1.3" points="1302.44,-800.59 1309.42,-795.78 1300.96,-795.19 1302.44,-800.59"/>
</g>
<!-- ValueExpressionData&#45;&gt;Normalizer -->
<g id="edge4" class="edge">
<title>ValueExpressionData&#45;&gt;Normalizer</title>
<path fill="none" stroke="#59687e" stroke-width="1.3" d="M870.51,-884.25C885.1,-879.68 896,-876.26 896,-876.26 896,-876.26 1156,-839.26 1156,-839.26 1156,-839.26 1511,-803.26 1511,-803.26 1511,-803.26 1547.26,-797.08 1587.58,-790.21"/>
<polygon fill="#59687e" stroke="#59687e" stroke-width="1.3" points="1587.99,-792.98 1595.4,-788.88 1587.05,-787.46 1587.99,-792.98"/>
</g>
<!-- ConditionData&#45;&gt;Normalizer -->
<g id="edge5" class="edge">
<title>ConditionData&#45;&gt;Normalizer</title>
<path fill="none" stroke="#59687e" stroke-width="1.3" d="M1055.39,-884.28C1105.8,-864.48 1170,-839.26 1170,-839.26 1170,-839.26 1511,-803.26 1511,-803.26 1511,-803.26 1547.26,-797.08 1587.58,-790.21"/>
<polygon fill="#59687e" stroke="#59687e" stroke-width="1.3" points="1587.99,-792.98 1595.4,-788.88 1587.05,-787.46 1587.99,-792.98"/>
</g>
<!-- EffectRegistry&#45;&gt;Normalizer -->
<g id="edge6" class="edge">
<title>EffectRegistry&#45;&gt;Normalizer</title>
<path fill="none" stroke="#59687e" stroke-width="1.3" d="M1215.24,-795.18C1256.27,-815 1307.5,-839.76 1307.5,-839.76 1307.5,-839.76 1486.5,-839.76 1486.5,-839.76 1486.5,-839.76 1536.96,-823.1 1588.23,-806.16"/>
<polygon fill="#59687e" stroke="#59687e" stroke-width="1.3" points="1588.88,-808.9 1595.6,-803.73 1587.12,-803.58 1588.88,-808.9"/>
</g>
<!-- EffectContext&#45;&gt;Executor -->
<g id="edge11" class="edge">
<title>EffectContext:sw&#45;&gt;Executor:ne</title>
<path fill="none" stroke="#8292a8" stroke-width="1.3" stroke-dasharray="5,2" d="M1559.3,-590.59C1559.3,-590.59 1497.33,-535.82 1475.54,-516.56"/>
<polygon fill="#8292a8" stroke="#8292a8" stroke-width="1.3" points="1477.4,-514.47 1469.55,-511.27 1473.69,-518.66 1477.4,-514.47"/>
</g>
<!-- EffectContext&#45;&gt;Planner -->
<g id="edge12" class="edge">
<title>EffectContext:se&#45;&gt;Planner:nw</title>
<path fill="none" stroke="#8292a8" stroke-width="1.3" stroke-dasharray="5,2" d="M1740.7,-590.59C1740.7,-590.59 1660,-554.59 1660,-554.59 1660,-554.59 1612.48,-531.55 1592.43,-521.83"/>
<polygon fill="#8292a8" stroke="#8292a8" stroke-width="1.3" points="1593.86,-519.42 1585.44,-518.45 1591.42,-524.46 1593.86,-519.42"/>
</g>
<!-- Normalizer&#45;&gt;RuntimeModel -->
<g id="edge8" class="edge">
<title>Normalizer:s&#45;&gt;RuntimeModel:n</title>
<path fill="none" stroke="#5b6f8f" stroke-width="1.3" d="M1695,-738.55C1695,-738.55 1465.55,-666.15 1416.26,-650.6"/>
<polygon fill="#5b6f8f" stroke="#5b6f8f" stroke-width="1.3" points="1417.35,-648 1408.88,-648.27 1415.66,-653.34 1417.35,-648"/>
<text xml:space="preserve" text-anchor="middle" x="1642.8" y="-694" font-family="Noto Sans KR" font-size="9.00" fill="#46566e">create normalized runtime model</text>
</g>
<!-- RuntimeModel&#45;&gt;Executor -->
<g id="edge9" class="edge">
<title>RuntimeModel:sw&#45;&gt;Executor:n</title>
<path fill="none" stroke="#3d8b6d" stroke-width="1.3" d="M1303.92,-598.22C1303.92,-598.22 1329.87,-541.07 1340.01,-518.75"/>
<polygon fill="#3d8b6d" stroke="#3d8b6d" stroke-width="1.3" points="1342.43,-520.2 1343.19,-511.76 1337.33,-517.88 1342.43,-520.2"/>
</g>
<!-- RuntimeModel&#45;&gt;Planner -->
<g id="edge10" class="edge">
<title>RuntimeModel:se&#45;&gt;Planner:n</title>
<path fill="none" stroke="#397b8c" stroke-width="1.3" d="M1510.08,-598.22C1510.08,-598.21 1654.3,-537.31 1692.05,-521.37"/>
<polygon fill="#397b8c" stroke="#397b8c" stroke-width="1.3" points="1692.91,-524.05 1699.19,-518.36 1690.73,-518.89 1692.91,-524.05"/>
</g>
<!-- Executor&#45;&gt;Planner -->
<g id="edge13" class="edge">
<title>Executor:e&#45;&gt;Planner:w</title>
<path fill="none" stroke="#7257a6" stroke-width="1.3" stroke-dasharray="5,2" d="M1468.08,-476.61C1468.08,-476.61 1534.46,-476.61 1566.61,-476.61"/>
<polygon fill="#7257a6" stroke="#7257a6" stroke-width="1.3" points="1573.7,-479.41 1581.7,-476.61 1573.7,-473.81 1573.7,-479.41"/>
</g>
<!-- Executor&#45;&gt;OperationPlanner -->
<g id="edge14" class="edge">
<title>Executor:s&#45;&gt;OperationPlanner:n</title>
<path fill="none" stroke="#5b6f8f" stroke-width="1.3" d="M1344,-443.25C1344,-443.25 1308.35,-383.26 1294.98,-360.77"/>
<polygon fill="#5b6f8f" stroke="#5b6f8f" stroke-width="1.3" points="1297.5,-359.52 1291.01,-354.07 1292.68,-362.38 1297.5,-359.52"/>
<text xml:space="preserve" text-anchor="middle" x="1369.5" y="-391.08" font-family="Noto Sans KR" font-size="9.00" fill="#46566e">execute selected operation</text>
</g>
<!-- Planner&#45;&gt;TargetResolver -->
<g id="edge15" class="edge">
<title>Planner:n&#45;&gt;TargetResolver:s</title>
<path fill="none" stroke="#8292a8" stroke-width="1.3" stroke-dasharray="5,2" d="M1701,-517.59C1701,-517.59 1765,-590.59 1765,-590.59 1765,-590.59 1765,-655.3 1765,-655.3 1765,-655.3 1695,-702.55 1695,-702.55 1695,-702.55 1457.58,-737.31 1406.58,-744.77"/>
<polygon fill="#8292a8" stroke="#8292a8" stroke-width="1.3" points="1406.46,-741.96 1398.95,-745.89 1407.27,-747.5 1406.46,-741.96"/>
</g>
<!-- Planner&#45;&gt;Plan -->
<g id="edge18" class="edge">
<title>Planner:s&#45;&gt;Plan:n</title>
<path fill="none" stroke="#397b8c" stroke-width="1.3" d="M1701,-435.63C1701,-435.63 1705.45,-377.92 1707.25,-354.48"/>
<polygon fill="#397b8c" stroke="#397b8c" stroke-width="1.3" points="1710.03,-354.91 1707.85,-346.72 1704.44,-354.48 1710.03,-354.91"/>
<text xml:space="preserve" text-anchor="middle" x="1751.75" y="-391.08" font-family="Noto Sans KR" font-size="9.00" fill="#46566e">return EffectBundlePlan</text>
</g>
<!-- Planner&#45;&gt;EffectLog -->
<g id="edge26" class="edge">
<title>Planner:e&#45;&gt;EffectLog:w</title>
<path fill="none" stroke="#8292a8" stroke-width="1.3" stroke-dasharray="1,5" d="M1819.33,-476.61C1819.33,-476.61 1817,-803.26 1817,-803.26 1817,-803.26 1536.42,-884.89 1536.42,-884.89 1536.42,-884.89 1536.11,-892.19 1535.84,-898.69"/>
<polygon fill="#8292a8" stroke="#8292a8" stroke-width="1.3" points="1533.04,-898.54 1535.5,-906.65 1538.64,-898.77 1533.04,-898.54"/>
</g>
<!-- TargetResolver&#45;&gt;Normalizer -->
<g id="edge7" class="edge">
<title>TargetResolver:w&#45;&gt;Normalizer:e</title>
<path fill="none" stroke="#8292a8" stroke-width="1.3" stroke-dasharray="5,2" d="M1306.05,-770.91C1306.05,-770.91 1307.05,-794.64 1307.05,-794.64 1307.05,-794.64 1597.92,-803.26 1597.92,-803.26 1597.92,-803.26 1792.08,-803.26 1792.08,-803.26 1792.08,-803.26 1792.31,-795.67 1792.56,-787.84"/>
<polygon fill="#8292a8" stroke="#8292a8" stroke-width="1.3" points="1795.57,-780.95 1793.02,-772.87 1789.97,-780.78 1795.57,-780.95"/>
<text xml:space="preserve" text-anchor="middle" x="1542.44" y="-805.18" font-family="Noto Sans KR" font-size="9.00" fill="#46566e">stable target set</text>
</g>
<!-- OperationPlanner&#45;&gt;StatSystem -->
<g id="edge16" class="edge">
<title>OperationPlanner:sw&#45;&gt;StatSystem:n</title>
<path fill="none" stroke="#8292a8" stroke-width="1.3" stroke-dasharray="5,2" d="M1153.92,-270.42C1153.92,-270.42 1107.98,-214.93 1091.12,-194.56"/>
<polygon fill="#8292a8" stroke="#8292a8" stroke-width="1.3" points="1093.51,-193.06 1086.25,-188.69 1089.2,-196.63 1093.51,-193.06"/>
</g>
<!-- OperationPlanner&#45;&gt;CombatSystem -->
<g id="edge17" class="edge">
<title>OperationPlanner:se&#45;&gt;CombatSystem:n</title>
<path fill="none" stroke="#c45c6d" stroke-width="1.3" d="M1426.08,-270.42C1426.08,-270.42 1468.94,-215.46 1485.01,-194.85"/>
<polygon fill="#c45c6d" stroke="#c45c6d" stroke-width="1.3" points="1487.08,-196.75 1489.79,-188.72 1482.66,-193.31 1487.08,-196.75"/>
</g>
<!-- OperationPlanner&#45;&gt;Committer -->
<g id="edge21" class="edge">
<title>OperationPlanner:s&#45;&gt;Committer:n</title>
<path fill="none" stroke="#3d8b6d" stroke-width="1.3" d="M1290,-270.42C1290,-270.42 1290,-219.1 1290,-197.05"/>
<polygon fill="#3d8b6d" stroke="#3d8b6d" stroke-width="1.3" points="1292.8,-197.14 1290,-189.14 1287.2,-197.14 1292.8,-197.14"/>
<text xml:space="preserve" text-anchor="middle" x="1360.88" y="-225.87" font-family="Noto Sans KR" font-size="9.00" fill="#46566e">commit mutation + planned outbox</text>
</g>
<!-- Plan&#45;&gt;OperationPlanner -->
<g id="edge19" class="edge">
<title>Plan:w&#45;&gt;OperationPlanner:e</title>
<path fill="none" stroke="#5b6f8f" stroke-width="1.3" d="M1581.67,-311.4C1581.67,-311.4 1557.12,-269.15 1557.12,-269.15 1557.12,-269.15 1450.62,-269.15 1450.62,-269.15 1450.62,-269.15 1441.74,-284.44 1434.66,-296.62"/>
<polygon fill="#5b6f8f" stroke="#5b6f8f" stroke-width="1.3" points="1428.67,-301.37 1427.07,-309.7 1433.51,-304.19 1428.67,-301.37"/>
<text xml:space="preserve" text-anchor="middle" x="1503.88" y="-271.85" font-family="Noto Sans KR" font-size="9.00" fill="#46566e">expand primary operations</text>
</g>
<!-- CombatSystem&#45;&gt;OperationPlanner -->
<g id="edge20" class="edge">
<title>CombatSystem:e&#45;&gt;OperationPlanner:e</title>
<path fill="none" stroke="#c45c6d" stroke-width="1.3" stroke-dasharray="5,2" d="M1567.6,-162.44C1567.6,-162.44 1566.6,-186.17 1566.6,-186.17 1566.6,-186.17 1462.62,-279.5 1434.19,-305.02"/>
<polygon fill="#c45c6d" stroke="#c45c6d" stroke-width="1.3" points="1432.63,-302.66 1428.54,-310.09 1436.37,-306.83 1432.63,-302.66"/>
</g>
<!-- Committer&#45;&gt;EffectResult -->
<g id="edge25" class="edge">
<title>Committer:e&#45;&gt;EffectResult:s</title>
<path fill="none" stroke="#8292a8" stroke-width="1.3" stroke-dasharray="5,2" d="M1367.83,-162.44C1367.83,-162.44 1391,-215.17 1391,-215.17 1391,-215.17 1859,-270.42 1859,-270.42 1859,-270.42 1859,-352.38 1859,-352.38 1859,-352.38 1831,-702.55 1831,-702.55 1831,-702.55 1817,-803.26 1817,-803.26 1817,-803.26 1409.2,-864.51 1340.71,-874.8"/>
<polygon fill="#8292a8" stroke="#8292a8" stroke-width="1.3" points="1340.44,-872.01 1332.95,-875.97 1341.27,-877.55 1340.44,-872.01"/>
</g>
<!-- Committer&#45;&gt;Facts -->
<g id="edge22" class="edge">
<title>Committer:s&#45;&gt;Facts:n</title>
<path fill="none" stroke="#397b8c" stroke-width="1.3" d="M1290,-138.71C1290,-138.71 1177.3,-77.79 1144.72,-60.17"/>
<polygon fill="#397b8c" stroke="#397b8c" stroke-width="1.3" points="1146.1,-57.74 1137.73,-56.4 1143.44,-62.66 1146.1,-57.74"/>
<text xml:space="preserve" text-anchor="middle" x="1272.47" y="-94.16" font-family="Noto Sans KR" font-size="9.00" fill="#46566e">dispatch committed facts</text>
</g>
<!-- Facts&#45;&gt;ReactionQueue -->
<g id="edge23" class="edge">
<title>Facts:e&#45;&gt;ReactionQueue:w</title>
<path fill="none" stroke="#7257a6" stroke-width="1.3" d="M1266.08,-31.73C1266.08,-31.73 1290.38,-57.73 1290.38,-57.73 1290.38,-57.73 1424.62,-57.73 1424.62,-57.73 1424.62,-57.73 1431.08,-50.82 1437.34,-44.12"/>
<polygon fill="#7257a6" stroke="#7257a6" stroke-width="1.3" points="1444.16,-40.92 1447.58,-33.17 1440.07,-37.1 1444.16,-40.92"/>
<text xml:space="preserve" text-anchor="middle" x="1357.5" y="-60.43" font-family="Noto Sans KR" font-size="9.00" fill="#46566e">enqueue state&#45;changing follow&#45;up</text>
</g>
<!-- ReactionQueue&#45;&gt;StatusSystem -->
<g id="edge24" class="edge">
<title>ReactionQueue:e&#45;&gt;StatusSystem:w</title>
<path fill="none" stroke="#7257a6" stroke-width="1.3" d="M1697.08,-31.73C1697.08,-31.73 1721.5,-57.73 1721.5,-57.73 1721.5,-57.73 1837,-57.73 1837,-57.73 1837,-57.73 1843.49,-50.82 1849.78,-44.12"/>
<polygon fill="#7257a6" stroke="#7257a6" stroke-width="1.3" points="1856.64,-40.91 1860.07,-33.16 1852.56,-37.08 1856.64,-40.91"/>
<text xml:space="preserve" text-anchor="middle" x="1779.25" y="-60.43" font-family="Noto Sans KR" font-size="9.00" fill="#46566e">dequeue ApplyStatusRequest</text>
</g>
<!-- EffectDefinitionData -->
<g id="node1" class="node">
<title>EffectDefinitionData</title>
<path fill="#fff7e6" stroke="#e0ad4e" stroke-width="1.4" d="M147.6,-932.35C147.6,-932.35 20.4,-932.35 20.4,-932.35 14.4,-932.35 8.4,-926.35 8.4,-920.35 8.4,-920.35 8.4,-896.89 8.4,-896.89 8.4,-890.89 14.4,-884.89 20.4,-884.89 20.4,-884.89 147.6,-884.89 147.6,-884.89 153.6,-884.89 159.6,-890.89 159.6,-896.89 159.6,-896.89 159.6,-920.35 159.6,-920.35 159.6,-926.35 153.6,-932.35 147.6,-932.35"/>
<text xml:space="preserve" text-anchor="middle" x="84" y="-912.57" font-family="Noto Sans KR" font-size="14.00" fill="#182033">EffectDefinition</text>
<text xml:space="preserve" text-anchor="middle" x="84" y="-895.32" font-family="Noto Sans KR" font-size="14.00" fill="#182033">type · parameters</text>
</g>
<!-- EffectBundleData -->
<g id="node2" class="node">
<title>EffectBundleData</title>
<path fill="#fff7e6" stroke="#e0ad4e" stroke-width="1.4" d="M423.58,-940.97C423.58,-940.97 220.42,-940.97 220.42,-940.97 214.42,-940.97 208.42,-934.97 208.42,-928.97 208.42,-928.97 208.42,-888.26 208.42,-888.26 208.42,-882.26 214.42,-876.26 220.42,-876.26 220.42,-876.26 423.58,-876.26 423.58,-876.26 429.58,-876.26 435.58,-882.26 435.58,-888.26 435.58,-888.26 435.58,-928.97 435.58,-928.97 435.58,-934.97 429.58,-940.97 423.58,-940.97"/>
<text xml:space="preserve" text-anchor="middle" x="322" y="-921.19" font-family="Noto Sans KR" font-size="14.00" fill="#182033">EffectBundleDefinition</text>
<text xml:space="preserve" text-anchor="middle" x="322" y="-903.94" font-family="Noto Sans KR" font-size="14.00" fill="#182033">static effect references · reactions</text>
<text xml:space="preserve" text-anchor="middle" x="322" y="-886.69" font-family="Noto Sans KR" font-size="14.00" fill="#182033">content data</text>
</g>
<!-- TargetSelectorData -->
<g id="node3" class="node">
<title>TargetSelectorData</title>
<path fill="#fff7e6" stroke="#e0ad4e" stroke-width="1.4" d="M659.71,-932.35C659.71,-932.35 496.3,-932.35 496.3,-932.35 490.3,-932.35 484.3,-926.35 484.3,-920.35 484.3,-920.35 484.3,-896.89 484.3,-896.89 484.3,-890.89 490.3,-884.89 496.3,-884.89 496.3,-884.89 659.71,-884.89 659.71,-884.89 665.71,-884.89 671.71,-890.89 671.71,-896.89 671.71,-896.89 671.71,-920.35 671.71,-920.35 671.71,-926.35 665.71,-932.35 659.71,-932.35"/>
<text xml:space="preserve" text-anchor="middle" x="578" y="-912.57" font-family="Noto Sans KR" font-size="14.00" fill="#182033">TargetSelector</text>
<text xml:space="preserve" text-anchor="middle" x="578" y="-895.32" font-family="Noto Sans KR" font-size="14.00" fill="#182033">Self · Single · Area · Chain</text>
</g>
<!-- ValueExpressionData -->
<g id="node4" class="node">
<title>ValueExpressionData</title>
<path fill="#fff7e6" stroke="#e0ad4e" stroke-width="1.4" d="M859.6,-932.35C859.6,-932.35 732.4,-932.35 732.4,-932.35 726.4,-932.35 720.4,-926.35 720.4,-920.35 720.4,-920.35 720.4,-896.89 720.4,-896.89 720.4,-890.89 726.4,-884.89 732.4,-884.89 732.4,-884.89 859.6,-884.89 859.6,-884.89 865.6,-884.89 871.6,-890.89 871.6,-896.89 871.6,-896.89 871.6,-920.35 871.6,-920.35 871.6,-926.35 865.6,-932.35 859.6,-932.35"/>
<text xml:space="preserve" text-anchor="middle" x="796" y="-912.57" font-family="Noto Sans KR" font-size="14.00" fill="#182033">ValueExpression</text>
<text xml:space="preserve" text-anchor="middle" x="796" y="-895.32" font-family="Noto Sans KR" font-size="14.00" fill="#182033">non&#45;damage values</text>
</g>
<!-- ConditionData -->
<g id="node5" class="node">
<title>ConditionData</title>
<path fill="#fff7e6" stroke="#e0ad4e" stroke-width="1.4" d="M1059.6,-932.35C1059.6,-932.35 932.4,-932.35 932.4,-932.35 926.4,-932.35 920.4,-926.35 920.4,-920.35 920.4,-920.35 920.4,-896.89 920.4,-896.89 920.4,-890.89 926.4,-884.89 932.4,-884.89 932.4,-884.89 1059.6,-884.89 1059.6,-884.89 1065.6,-884.89 1071.6,-890.89 1071.6,-896.89 1071.6,-896.89 1071.6,-920.35 1071.6,-920.35 1071.6,-926.35 1065.6,-932.35 1059.6,-932.35"/>
<text xml:space="preserve" text-anchor="middle" x="996" y="-912.57" font-family="Noto Sans KR" font-size="14.00" fill="#182033">ConditionData</text>
<text xml:space="preserve" text-anchor="middle" x="996" y="-895.32" font-family="Noto Sans KR" font-size="14.00" fill="#182033">target · tag · status</text>
</g>
<!-- EffectRegistry -->
<g id="node6" class="node">
<title>EffectRegistry</title>
<path fill="#eaf0ff" stroke="#8292f7" stroke-width="1.4" d="M1245.95,-794.64C1245.95,-794.64 1084.05,-794.64 1084.05,-794.64 1078.05,-794.64 1072.05,-788.64 1072.05,-782.64 1072.05,-782.64 1072.05,-759.18 1072.05,-759.18 1072.05,-753.18 1078.05,-747.18 1084.05,-747.18 1084.05,-747.18 1245.95,-747.18 1245.95,-747.18 1251.95,-747.18 1257.95,-753.18 1257.95,-759.18 1257.95,-759.18 1257.95,-782.64 1257.95,-782.64 1257.95,-788.64 1251.95,-794.64 1245.95,-794.64"/>
<text xml:space="preserve" text-anchor="middle" x="1165" y="-774.86" font-family="Noto Sans KR" font-size="14.00" fill="#182033">EffectRegistry</text>
<text xml:space="preserve" text-anchor="middle" x="1165" y="-757.61" font-family="Noto Sans KR" font-size="14.00" fill="#182033">definition load · validation</text>
</g>
<!-- EffectContext -->
<g id="node7" class="node">
<title>EffectContext</title>
<path fill="#eaf0ff" stroke="#8292f7" stroke-width="1.4" d="M1728.7,-655.3C1728.7,-655.3 1571.3,-655.3 1571.3,-655.3 1565.3,-655.3 1559.3,-649.3 1559.3,-643.3 1559.3,-643.3 1559.3,-602.59 1559.3,-602.59 1559.3,-596.59 1565.3,-590.59 1571.3,-590.59 1571.3,-590.59 1728.7,-590.59 1728.7,-590.59 1734.7,-590.59 1740.7,-596.59 1740.7,-602.59 1740.7,-602.59 1740.7,-643.3 1740.7,-643.3 1740.7,-649.3 1734.7,-655.3 1728.7,-655.3"/>
<text xml:space="preserve" text-anchor="middle" x="1650" y="-635.52" font-family="Noto Sans KR" font-size="14.00" fill="#182033">EffectContext</text>
<text xml:space="preserve" text-anchor="middle" x="1650" y="-618.27" font-family="Noto Sans KR" font-size="14.00" fill="#182033">CasterId · InitialTargetId</text>
<text xml:space="preserve" text-anchor="middle" x="1650" y="-601.02" font-family="Noto Sans KR" font-size="14.00" fill="#182033">SourceRef · RandomSeed</text>
</g>
<!-- Normalizer -->
<g id="node8" class="node">
<title>Normalizer</title>
<path fill="#eaf0ff" stroke="#8292f7" stroke-width="1.4" d="M1780.08,-803.26C1780.08,-803.26 1609.92,-803.26 1609.92,-803.26 1603.92,-803.26 1597.92,-797.26 1597.92,-791.26 1597.92,-791.26 1597.92,-750.55 1597.92,-750.55 1597.92,-744.55 1603.92,-738.55 1609.92,-738.55 1609.92,-738.55 1780.08,-738.55 1780.08,-738.55 1786.08,-738.55 1792.08,-744.55 1792.08,-750.55 1792.08,-750.55 1792.08,-791.26 1792.08,-791.26 1792.08,-797.26 1786.08,-803.26 1780.08,-803.26"/>
<text xml:space="preserve" text-anchor="middle" x="1695" y="-783.48" font-family="Noto Sans KR" font-size="14.00" fill="#182033">&lt;&lt;internal stage&gt;&gt;</text>
<text xml:space="preserve" text-anchor="middle" x="1695" y="-766.23" font-family="Noto Sans KR" font-size="14.00" fill="#182033">DefinitionNormalizer</text>
<text xml:space="preserve" text-anchor="middle" x="1695" y="-748.98" font-family="Noto Sans KR" font-size="14.00" fill="#182033">validate · target · normalize</text>
</g>
<!-- RuntimeModel -->
<g id="node9" class="node">
<title>RuntimeModel</title>
<path fill="#eefbf6" stroke="#61b99a" stroke-width="1.4" d="M1498.08,-646.68C1498.08,-646.68 1315.92,-646.68 1315.92,-646.68 1309.92,-646.68 1303.92,-640.68 1303.92,-634.68 1303.92,-634.68 1303.92,-611.22 1303.92,-611.22 1303.92,-605.22 1309.92,-599.22 1315.92,-599.22 1315.92,-599.22 1498.08,-599.22 1498.08,-599.22 1504.08,-599.22 1510.08,-605.22 1510.08,-611.22 1510.08,-611.22 1510.08,-634.68 1510.08,-634.68 1510.08,-640.68 1504.08,-646.68 1498.08,-646.68"/>
<text xml:space="preserve" text-anchor="middle" x="1407" y="-626.9" font-family="Noto Sans KR" font-size="14.00" fill="#182033">EffectOperation / EffectBundle</text>
<text xml:space="preserve" text-anchor="middle" x="1407" y="-609.65" font-family="Noto Sans KR" font-size="14.00" fill="#182033">public runtime input</text>
</g>
<!-- Executor -->
<g id="node10" class="node">
<title>Executor</title>
<path fill="#eefbf6" stroke="#61b99a" stroke-width="1.4" d="M1456.08,-508.97C1456.08,-508.97 1231.92,-508.97 1231.92,-508.97 1225.92,-508.97 1219.92,-502.97 1219.92,-496.97 1219.92,-496.97 1219.92,-456.25 1219.92,-456.25 1219.92,-450.25 1225.92,-444.25 1231.92,-444.25 1231.92,-444.25 1456.08,-444.25 1456.08,-444.25 1462.08,-444.25 1468.08,-450.25 1468.08,-456.25 1468.08,-456.25 1468.08,-496.97 1468.08,-496.97 1468.08,-502.97 1462.08,-508.97 1456.08,-508.97"/>
<text xml:space="preserve" text-anchor="middle" x="1344" y="-489.19" font-family="Noto Sans KR" font-size="14.00" fill="#182033">&lt;&lt;public interface&gt;&gt; IEffectExecutor</text>
<text xml:space="preserve" text-anchor="middle" x="1344" y="-471.94" font-family="Noto Sans KR" font-size="14.00" fill="#182033">Execute(Operation | Bundle, Context)</text>
<text xml:space="preserve" text-anchor="middle" x="1344" y="-454.69" font-family="Noto Sans KR" font-size="14.00" fill="#182033">uses OperationPlanBuilder</text>
</g>
<!-- Planner -->
<g id="node11" class="node">
<title>Planner</title>
<path fill="#e9fbff" stroke="#54b7cf" stroke-width="1.4" d="M1806.33,-517.59C1806.33,-517.59 1595.67,-517.59 1595.67,-517.59 1589.67,-517.59 1583.67,-511.59 1583.67,-505.59 1583.67,-505.59 1583.67,-447.63 1583.67,-447.63 1583.67,-441.63 1589.67,-435.63 1595.67,-435.63 1595.67,-435.63 1806.33,-435.63 1806.33,-435.63 1812.33,-435.63 1818.33,-441.63 1818.33,-447.63 1818.33,-447.63 1818.33,-505.59 1818.33,-505.59 1818.33,-511.59 1812.33,-517.59 1806.33,-517.59"/>
<text xml:space="preserve" text-anchor="middle" x="1701" y="-497.81" font-family="Noto Sans KR" font-size="14.00" fill="#182033">&lt;&lt;public interface&gt;&gt; IEffectPlanner</text>
<text xml:space="preserve" text-anchor="middle" x="1701" y="-480.56" font-family="Noto Sans KR" font-size="14.00" fill="#182033">Prepare(EffectBundle, Context)</text>
<text xml:space="preserve" text-anchor="middle" x="1701" y="-463.31" font-family="Noto Sans KR" font-size="14.00" fill="#182033">returns EffectBundlePlan</text>
<text xml:space="preserve" text-anchor="middle" x="1701" y="-446.06" font-family="Noto Sans KR" font-size="14.00" fill="#182033">optional target revalidation</text>
</g>
<!-- TargetResolver -->
<g id="node12" class="node">
<title>TargetResolver</title>
<path fill="#eaf0ff" stroke="#8292f7" stroke-width="1.4" d="M1474.95,-794.64C1474.95,-794.64 1319.05,-794.64 1319.05,-794.64 1313.05,-794.64 1307.05,-788.64 1307.05,-782.64 1307.05,-782.64 1307.05,-759.18 1307.05,-759.18 1307.05,-753.18 1313.05,-747.18 1319.05,-747.18 1319.05,-747.18 1474.95,-747.18 1474.95,-747.18 1480.95,-747.18 1486.95,-753.18 1486.95,-759.18 1486.95,-759.18 1486.95,-782.64 1486.95,-782.64 1486.95,-788.64 1480.95,-794.64 1474.95,-794.64"/>
<text xml:space="preserve" text-anchor="middle" x="1397" y="-774.86" font-family="Noto Sans KR" font-size="14.00" fill="#182033">TargetResolver</text>
<text xml:space="preserve" text-anchor="middle" x="1397" y="-757.61" font-family="Noto Sans KR" font-size="14.00" fill="#182033">collect · filter · stable sort</text>
</g>
<!-- OperationPlanner -->
<g id="node13" class="node">
<title>OperationPlanner</title>
<path fill="#eaf0ff" stroke="#8292f7" stroke-width="1.4" d="M1414.08,-352.38C1414.08,-352.38 1165.92,-352.38 1165.92,-352.38 1159.92,-352.38 1153.92,-346.38 1153.92,-340.38 1153.92,-340.38 1153.92,-282.42 1153.92,-282.42 1153.92,-276.42 1159.92,-270.42 1165.92,-270.42 1165.92,-270.42 1414.08,-270.42 1414.08,-270.42 1420.08,-270.42 1426.08,-276.42 1426.08,-282.42 1426.08,-282.42 1426.08,-340.38 1426.08,-340.38 1426.08,-346.38 1420.08,-352.38 1414.08,-352.38"/>
<text xml:space="preserve" text-anchor="middle" x="1290" y="-332.6" font-family="Noto Sans KR" font-size="14.00" fill="#182033">&lt;&lt;internal stage&gt;&gt; OperationPlanBuilder</text>
<text xml:space="preserve" text-anchor="middle" x="1290" y="-315.35" font-family="Noto Sans KR" font-size="14.00" fill="#182033">DamageRequest · ApplyStatusRequest</text>
<text xml:space="preserve" text-anchor="middle" x="1290" y="-298.1" font-family="Noto Sans KR" font-size="14.00" fill="#182033">queries IStatQuery · ICombatResolver</text>
<text xml:space="preserve" text-anchor="middle" x="1290" y="-280.85" font-family="Noto Sans KR" font-size="14.00" fill="#182033">mutation + planned outbox</text>
</g>
<!-- Plan -->
<g id="node14" class="node">
<title>Plan</title>
<path fill="#eefbf6" stroke="#61b99a" stroke-width="1.4" d="M1822.33,-343.75C1822.33,-343.75 1593.67,-343.75 1593.67,-343.75 1587.67,-343.75 1581.67,-337.75 1581.67,-331.75 1581.67,-331.75 1581.67,-291.04 1581.67,-291.04 1581.67,-285.04 1587.67,-279.04 1593.67,-279.04 1593.67,-279.04 1822.33,-279.04 1822.33,-279.04 1828.33,-279.04 1834.33,-285.04 1834.33,-291.04 1834.33,-291.04 1834.33,-331.75 1834.33,-331.75 1834.33,-337.75 1828.33,-343.75 1822.33,-343.75"/>
<text xml:space="preserve" text-anchor="middle" x="1708" y="-323.97" font-family="Noto Sans KR" font-size="14.00" fill="#182033">&lt;&lt;public contract&gt;&gt; EffectBundlePlan</text>
<text xml:space="preserve" text-anchor="middle" x="1708" y="-306.72" font-family="Noto Sans KR" font-size="14.00" fill="#182033">BundleId · PrimaryOperations</text>
<text xml:space="preserve" text-anchor="middle" x="1708" y="-289.47" font-family="Noto Sans KR" font-size="14.00" fill="#182033">Reactions</text>
</g>
<!-- EffectResult -->
<g id="node15" class="node">
<title>EffectResult</title>
<path fill="#eaf0ff" stroke="#8292f7" stroke-width="1.4" d="M1421.7,-940.97C1421.7,-940.97 1240.3,-940.97 1240.3,-940.97 1234.3,-940.97 1228.3,-934.97 1228.3,-928.97 1228.3,-928.97 1228.3,-888.26 1228.3,-888.26 1228.3,-882.26 1234.3,-876.26 1240.3,-876.26 1240.3,-876.26 1421.7,-876.26 1421.7,-876.26 1427.7,-876.26 1433.7,-882.26 1433.7,-888.26 1433.7,-888.26 1433.7,-928.97 1433.7,-928.97 1433.7,-934.97 1427.7,-940.97 1421.7,-940.97"/>
<text xml:space="preserve" text-anchor="middle" x="1331" y="-921.19" font-family="Noto Sans KR" font-size="14.00" fill="#182033">EffectResult</text>
<text xml:space="preserve" text-anchor="middle" x="1331" y="-903.94" font-family="Noto Sans KR" font-size="14.00" fill="#182033">commit receipt</text>
<text xml:space="preserve" text-anchor="middle" x="1331" y="-886.69" font-family="Noto Sans KR" font-size="14.00" fill="#182033">success · failure · result items</text>
</g>
<!-- EffectLog -->
<g id="node16" class="node">
<title>EffectLog</title>
<path fill="#f3eefc" stroke="#ab8fe0" stroke-width="1.4" d="M1775.58,-932.35C1775.58,-932.35 1548.42,-932.35 1548.42,-932.35 1542.42,-932.35 1536.42,-926.35 1536.42,-920.35 1536.42,-920.35 1536.42,-896.89 1536.42,-896.89 1536.42,-890.89 1542.42,-884.89 1548.42,-884.89 1548.42,-884.89 1775.58,-884.89 1775.58,-884.89 1781.58,-884.89 1787.58,-890.89 1787.58,-896.89 1787.58,-896.89 1787.58,-920.35 1787.58,-920.35 1787.58,-926.35 1781.58,-932.35 1775.58,-932.35"/>
<text xml:space="preserve" text-anchor="middle" x="1662" y="-912.57" font-family="Noto Sans KR" font-size="14.00" fill="#182033">DebugTrace</text>
<text xml:space="preserve" text-anchor="middle" x="1662" y="-895.32" font-family="Noto Sans KR" font-size="14.00" fill="#182033">planning trace · calculation evidence</text>
</g>
<!-- StatSystem -->
<g id="node17" class="node">
<title>StatSystem</title>
<path fill="#eefbf6" stroke="#61b99a" stroke-width="1.4" d="M1152.45,-186.17C1152.45,-186.17 1017.54,-186.17 1017.54,-186.17 1011.54,-186.17 1005.54,-180.17 1005.54,-174.17 1005.54,-174.17 1005.54,-150.71 1005.54,-150.71 1005.54,-144.71 1011.54,-138.71 1017.54,-138.71 1017.54,-138.71 1152.45,-138.71 1152.45,-138.71 1158.45,-138.71 1164.45,-144.71 1164.45,-150.71 1164.45,-150.71 1164.45,-174.17 1164.45,-174.17 1164.45,-180.17 1158.45,-186.17 1152.45,-186.17"/>
<text xml:space="preserve" text-anchor="middle" x="1085" y="-166.39" font-family="Noto Sans KR" font-size="14.00" fill="#182033">IStatQuery</text>
<text xml:space="preserve" text-anchor="middle" x="1085" y="-149.14" font-family="Noto Sans KR" font-size="14.00" fill="#182033">pure contextual values</text>
</g>
<!-- CombatSystem -->
<g id="node18" class="node">
<title>CombatSystem</title>
<path fill="#eefbf6" stroke="#61b99a" stroke-width="1.4" d="M1554.6,-186.17C1554.6,-186.17 1427.4,-186.17 1427.4,-186.17 1421.4,-186.17 1415.4,-180.17 1415.4,-174.17 1415.4,-174.17 1415.4,-150.71 1415.4,-150.71 1415.4,-144.71 1421.4,-138.71 1427.4,-138.71 1427.4,-138.71 1554.6,-138.71 1554.6,-138.71 1560.6,-138.71 1566.6,-144.71 1566.6,-150.71 1566.6,-150.71 1566.6,-174.17 1566.6,-174.17 1566.6,-180.17 1560.6,-186.17 1554.6,-186.17"/>
<text xml:space="preserve" text-anchor="middle" x="1491" y="-166.39" font-family="Noto Sans KR" font-size="14.00" fill="#182033">ICombatResolver</text>
<text xml:space="preserve" text-anchor="middle" x="1491" y="-149.14" font-family="Noto Sans KR" font-size="14.00" fill="#182033">pure DamageResult</text>
</g>
<!-- Committer -->
<g id="node19" class="node">
<title>Committer</title>
<path fill="#eefbf6" stroke="#61b99a" stroke-width="1.4" d="M1354.83,-186.17C1354.83,-186.17 1225.17,-186.17 1225.17,-186.17 1219.17,-186.17 1213.17,-180.17 1213.17,-174.17 1213.17,-174.17 1213.17,-150.71 1213.17,-150.71 1213.17,-144.71 1219.17,-138.71 1225.17,-138.71 1225.17,-138.71 1354.83,-138.71 1354.83,-138.71 1360.83,-138.71 1366.83,-144.71 1366.83,-150.71 1366.83,-150.71 1366.83,-174.17 1366.83,-174.17 1366.83,-180.17 1360.83,-186.17 1354.83,-186.17"/>
<text xml:space="preserve" text-anchor="middle" x="1290" y="-166.39" font-family="Noto Sans KR" font-size="14.00" fill="#182033">RuntimeCommitter</text>
<text xml:space="preserve" text-anchor="middle" x="1290" y="-149.14" font-family="Noto Sans KR" font-size="14.00" fill="#182033">state + outbox atomic</text>
</g>
<!-- Facts -->
<g id="node20" class="node">
<title>Facts</title>
<path fill="#e9fbff" stroke="#54b7cf" stroke-width="1.4" d="M1254.08,-55.46C1254.08,-55.46 1017.92,-55.46 1017.92,-55.46 1011.92,-55.46 1005.92,-49.46 1005.92,-43.46 1005.92,-43.46 1005.92,-20 1005.92,-20 1005.92,-14 1011.92,-8 1017.92,-8 1017.92,-8 1254.08,-8 1254.08,-8 1260.08,-8 1266.08,-14 1266.08,-20 1266.08,-20 1266.08,-43.46 1266.08,-43.46 1266.08,-49.46 1260.08,-55.46 1254.08,-55.46"/>
<text xml:space="preserve" text-anchor="middle" x="1136" y="-35.68" font-family="Noto Sans KR" font-size="14.00" fill="#182033">Committed facts</text>
<text xml:space="preserve" text-anchor="middle" x="1136" y="-18.43" font-family="Noto Sans KR" font-size="14.00" fill="#182033">EffectCompleted · DamageCommitted</text>
</g>
<!-- ReactionQueue -->
<g id="node21" class="node">
<title>ReactionQueue</title>
<path fill="#f3eefc" stroke="#ab8fe0" stroke-width="1.4" d="M1685.08,-55.46C1685.08,-55.46 1460.92,-55.46 1460.92,-55.46 1454.92,-55.46 1448.92,-49.46 1448.92,-43.46 1448.92,-43.46 1448.92,-20 1448.92,-20 1448.92,-14 1454.92,-8 1460.92,-8 1460.92,-8 1685.08,-8 1685.08,-8 1691.08,-8 1697.08,-14 1697.08,-20 1697.08,-20 1697.08,-43.46 1697.08,-43.46 1697.08,-49.46 1691.08,-55.46 1685.08,-55.46"/>
<text xml:space="preserve" text-anchor="middle" x="1573" y="-35.68" font-family="Noto Sans KR" font-size="14.00" fill="#182033">ReactionQueue</text>
<text xml:space="preserve" text-anchor="middle" x="1573" y="-18.43" font-family="Noto Sans KR" font-size="14.00" fill="#182033">state&#45;changing follow&#45;up commands</text>
</g>
<!-- StatusSystem -->
<g id="node22" class="node">
<title>StatusSystem</title>
<path fill="#eefbf6" stroke="#61b99a" stroke-width="1.4" d="M2010.58,-55.46C2010.58,-55.46 1873.42,-55.46 1873.42,-55.46 1867.42,-55.46 1861.42,-49.46 1861.42,-43.46 1861.42,-43.46 1861.42,-20 1861.42,-20 1861.42,-14 1867.42,-8 1873.42,-8 1873.42,-8 2010.58,-8 2010.58,-8 2016.58,-8 2022.58,-14 2022.58,-20 2022.58,-20 2022.58,-43.46 2022.58,-43.46 2022.58,-49.46 2016.58,-55.46 2010.58,-55.46"/>
<text xml:space="preserve" text-anchor="middle" x="1942" y="-35.68" font-family="Noto Sans KR" font-size="14.00" fill="#182033">Status System</text>
<text xml:space="preserve" text-anchor="middle" x="1942" y="-18.43" font-family="Noto Sans KR" font-size="14.00" fill="#182033">ApplyStatus command</text>
</g>
</g>
</svg>
