<?xml version="1.0" encoding="UTF-8" standalone="no"?>
<!DOCTYPE svg PUBLIC "-//W3C//DTD SVG 1.1//EN"
 "http://www.w3.org/Graphics/SVG/1.1/DTD/svg11.dtd">
<!-- Generated by graphviz version 15.0.0 (20260523.1842)
 -->
<!-- Title: G Pages: 1 -->
<svg width="2147pt" height="1676pt"
 viewBox="9.00 9.00 2138.00 1668.00" xmlns="http://www.w3.org/2000/svg" xmlns:xlink="http://www.w3.org/1999/xlink">
<g id="graph0" class="graph" transform="scale(1 1) rotate(0) translate(26.64 1649.84)">
<title>G</title>
<polygon fill="#ffffff" stroke="none" points="-18,18 -18,-1641.2 2111.6,-1641.2 2111.6,18 -18,18"/>
<!-- EffectDefinition -->
<g id="node1" class="node">
<title>EffectDefinition</title>
<path fill="#ffffff" stroke="none" stroke-width="1.4" d="M240.66,-1430.4C240.66,-1430.4 12,-1430.4 12,-1430.4 6,-1430.4 0,-1424.4 0,-1418.4 0,-1418.4 0,-1131.6 0,-1131.6 0,-1125.6 6,-1119.6 12,-1119.6 12,-1119.6 240.66,-1119.6 240.66,-1119.6 246.66,-1119.6 252.66,-1125.6 252.66,-1131.6 252.66,-1131.6 252.66,-1418.4 252.66,-1418.4 252.66,-1424.4 246.66,-1430.4 240.66,-1430.4"/>
<polygon fill="#fff0f3" stroke="none" points="1,-1394.2 1,-1429.4 251.66,-1429.4 251.66,-1394.2 1,-1394.2"/>
<text xml:space="preserve" text-anchor="start" x="9" y="-1408" font-family="Noto Sans CJK KR" font-weight="bold" font-size="16.00" fill="#182033">&lt;&lt;content data&gt;&gt; EffectDefinition</text>
<text xml:space="preserve" text-anchor="start" x="9" y="-1374.2" font-family="Noto Sans CJK KR" font-size="12.00" fill="#182033">+ EffectId: EffectId</text>
<text xml:space="preserve" text-anchor="start" x="9" y="-1343.8" font-family="Noto Sans CJK KR" font-size="12.00" fill="#182033">+ Type: EffectType</text>
<text xml:space="preserve" text-anchor="start" x="9" y="-1313.4" font-family="Noto Sans CJK KR" font-size="12.00" fill="#182033">+ TargetSelectorId</text>
<text xml:space="preserve" text-anchor="start" x="9" y="-1283" font-family="Noto Sans CJK KR" font-size="12.00" fill="#182033">+ ValueExpressionId?</text>
<text xml:space="preserve" text-anchor="start" x="9" y="-1252.6" font-family="Noto Sans CJK KR" font-size="12.00" fill="#182033">+ Conditions: ConditionId[]</text>
<text xml:space="preserve" text-anchor="start" x="9" y="-1222.2" font-family="Noto Sans CJK KR" font-size="12.00" fill="#182033">+ Tags: Tag[]</text>
<text xml:space="preserve" text-anchor="start" x="9" y="-1191.8" font-family="Noto Sans CJK KR" font-size="12.00" fill="#182033">+ Timing: EffectTiming</text>
<text xml:space="preserve" text-anchor="start" x="9" y="-1161.4" font-family="Noto Sans CJK KR" font-size="12.00" fill="#182033">+ ExecutorKey</text>
<text xml:space="preserve" text-anchor="start" x="9" y="-1131" font-family="Noto Sans CJK KR" font-size="12.00" fill="#182033">+ ValidateSchema()</text>
<polygon fill="none" stroke="#e07b91" points="0,-1119.6 0,-1430.4 252.66,-1430.4 252.66,-1119.6 0,-1119.6"/>
</g>
<!-- DefinitionNormalizer -->
<g id="node3" class="node">
<title>DefinitionNormalizer</title>
<path fill="#ffffff" stroke="none" stroke-width="1.4" d="M688.86,-1623.2C688.86,-1623.2 414.89,-1623.2 414.89,-1623.2 408.89,-1623.2 402.89,-1617.2 402.89,-1611.2 402.89,-1611.2 402.89,-1506.8 402.89,-1506.8 402.89,-1500.8 408.89,-1494.8 414.89,-1494.8 414.89,-1494.8 688.86,-1494.8 688.86,-1494.8 694.86,-1494.8 700.86,-1500.8 700.86,-1506.8 700.86,-1506.8 700.86,-1611.2 700.86,-1611.2 700.86,-1617.2 694.86,-1623.2 688.86,-1623.2"/>
<polygon fill="#eaf0ff" stroke="none" points="403.89,-1587 403.89,-1622.2 699.86,-1622.2 699.86,-1587 403.89,-1587"/>
<text xml:space="preserve" text-anchor="start" x="411.89" y="-1600.8" font-family="Noto Sans CJK KR" font-weight="bold" font-size="16.00" fill="#182033">&lt;&lt;internal stage&gt;&gt; DefinitionNormalizer</text>
<text xml:space="preserve" text-anchor="start" x="411.89" y="-1567" font-family="Noto Sans CJK KR" font-size="12.00" fill="#182033">+ Normalize(definition, context)</text>
<text xml:space="preserve" text-anchor="start" x="411.89" y="-1536.6" font-family="Noto Sans CJK KR" font-size="12.00" fill="#182033">+ ValidateSchema()</text>
<text xml:space="preserve" text-anchor="start" x="411.89" y="-1506.2" font-family="Noto Sans CJK KR" font-size="12.00" fill="#182033">+ ResolveTargets()</text>
<polygon fill="none" stroke="#8292f7" points="402.89,-1494.8 402.89,-1623.2 700.86,-1623.2 700.86,-1494.8 402.89,-1494.8"/>
</g>
<!-- EffectDefinition&#45;&gt;DefinitionNormalizer -->
<g id="edge5" class="edge">
<title>EffectDefinition&#45;&gt;DefinitionNormalizer</title>
<path fill="none" stroke="#59687e" stroke-width="1.3" d="M252.31,-1387.13C329.11,-1387.13 412.6,-1387.13 412.6,-1387.13 412.6,-1387.13 412.6,-1485.04 412.6,-1485.04"/>
<polygon fill="#59687e" stroke="#59687e" stroke-width="1.3" points="409.8,-1485.04 412.6,-1493.04 415.4,-1485.04 409.8,-1485.04"/>
<text xml:space="preserve" text-anchor="middle" x="327.77" y="-1502.2" font-family="Noto Sans CJK KR" font-size="14.00" fill="#46566e">internal normalize</text>
</g>
<!-- TargetSelector -->
<g id="node12" class="node">
<title>TargetSelector</title>
<path fill="#ffffff" stroke="none" stroke-width="1.4" d="M649.87,-1459.4C649.87,-1459.4 453.87,-1459.4 453.87,-1459.4 447.87,-1459.4 441.87,-1453.4 441.87,-1447.4 441.87,-1447.4 441.87,-1312.6 441.87,-1312.6 441.87,-1306.6 447.87,-1300.6 453.87,-1300.6 453.87,-1300.6 649.87,-1300.6 649.87,-1300.6 655.87,-1300.6 661.87,-1306.6 661.87,-1312.6 661.87,-1312.6 661.87,-1447.4 661.87,-1447.4 661.87,-1453.4 655.87,-1459.4 649.87,-1459.4"/>
<polygon fill="#f3eefc" stroke="none" points="442.87,-1423.2 442.87,-1458.4 573.59,-1458.4 573.59,-1423.2 442.87,-1423.2"/>
<text xml:space="preserve" text-anchor="start" x="457.59" y="-1437" font-family="Noto Sans CJK KR" font-weight="bold" font-size="16.00" fill="#182033">TargetSelector</text>
<text xml:space="preserve" text-anchor="start" x="450.87" y="-1403.2" font-family="Noto Sans CJK KR" font-size="12.00" fill="#182033">+ SelectorType</text>
<text xml:space="preserve" text-anchor="start" x="450.87" y="-1372.8" font-family="Noto Sans CJK KR" font-size="12.00" fill="#182033">+ Range/Shape/Limit</text>
<text xml:space="preserve" text-anchor="start" x="450.87" y="-1342.4" font-family="Noto Sans CJK KR" font-size="12.00" fill="#182033">+ Filters</text>
<text xml:space="preserve" text-anchor="start" x="450.87" y="-1312" font-family="Noto Sans CJK KR" font-size="12.00" fill="#182033">+ Select(ctx): TargetSet</text>
<polygon fill="none" stroke="#ab8fe0" points="441.87,-1300.6 441.87,-1459.4 661.87,-1459.4 661.87,-1300.6 441.87,-1300.6"/>
</g>
<!-- EffectDefinition&#45;&gt;TargetSelector -->
<g id="edge2" class="edge">
<title>EffectDefinition&#45;&gt;TargetSelector</title>
<path fill="none" stroke="#59687e" stroke-width="1.3" d="M252.57,-1343.87C252.57,-1343.87 431.94,-1343.87 431.94,-1343.87"/>
<polygon fill="#59687e" stroke="#59687e" stroke-width="1.3" points="431.94,-1346.67 439.94,-1343.87 431.94,-1341.07 431.94,-1346.67"/>
<text xml:space="preserve" text-anchor="middle" x="327.77" y="-1384.2" font-family="Noto Sans CJK KR" font-size="14.00" fill="#46566e">uses</text>
</g>
<!-- ValueExpression -->
<g id="node13" class="node">
<title>ValueExpression</title>
<path fill="#ffffff" stroke="none" stroke-width="1.4" d="M649.87,-1265.6C649.87,-1265.6 453.87,-1265.6 453.87,-1265.6 447.87,-1265.6 441.87,-1259.6 441.87,-1253.6 441.87,-1253.6 441.87,-1088.4 441.87,-1088.4 441.87,-1082.4 447.87,-1076.4 453.87,-1076.4 453.87,-1076.4 649.87,-1076.4 649.87,-1076.4 655.87,-1076.4 661.87,-1082.4 661.87,-1088.4 661.87,-1088.4 661.87,-1253.6 661.87,-1253.6 661.87,-1259.6 655.87,-1265.6 649.87,-1265.6"/>
<polygon fill="#f3eefc" stroke="none" points="442.87,-1229.4 442.87,-1264.6 577.58,-1264.6 577.58,-1229.4 442.87,-1229.4"/>
<text xml:space="preserve" text-anchor="start" x="452.44" y="-1243.2" font-family="Noto Sans CJK KR" font-weight="bold" font-size="16.00" fill="#182033">ValueExpression</text>
<text xml:space="preserve" text-anchor="start" x="450.87" y="-1209.4" font-family="Noto Sans CJK KR" font-size="12.00" fill="#182033">+ BaseValue</text>
<text xml:space="preserve" text-anchor="start" x="450.87" y="-1179" font-family="Noto Sans CJK KR" font-size="12.00" fill="#182033">+ ScalingTerms</text>
<text xml:space="preserve" text-anchor="start" x="450.87" y="-1148.6" font-family="Noto Sans CJK KR" font-size="12.00" fill="#182033">+ Min/Max</text>
<text xml:space="preserve" text-anchor="start" x="450.87" y="-1118.2" font-family="Noto Sans CJK KR" font-size="12.00" fill="#182033">+ Evaluate(ctx): decimal</text>
<text xml:space="preserve" text-anchor="start" x="450.87" y="-1087.8" font-family="Noto Sans CJK KR" font-size="12.00" fill="#182033">+ BuildBreakdown()</text>
<polygon fill="none" stroke="#ab8fe0" points="441.87,-1076.4 441.87,-1265.6 661.87,-1265.6 661.87,-1076.4 441.87,-1076.4"/>
</g>
<!-- EffectDefinition&#45;&gt;ValueExpression -->
<g id="edge3" class="edge">
<title>EffectDefinition&#45;&gt;ValueExpression</title>
<path fill="none" stroke="#59687e" stroke-width="1.3" d="M252.57,-1192.6C252.57,-1192.6 431.94,-1192.6 431.94,-1192.6"/>
<polygon fill="#59687e" stroke="#59687e" stroke-width="1.3" points="431.94,-1195.4 439.94,-1192.6 431.94,-1189.8 431.94,-1195.4"/>
<text xml:space="preserve" text-anchor="middle" x="327.77" y="-1175.2" font-family="Noto Sans CJK KR" font-size="14.00" fill="#46566e">optional</text>
</g>
<!-- EffectCondition -->
<g id="node14" class="node">
<title>EffectCondition</title>
<path fill="#ffffff" stroke="none" stroke-width="1.4" d="M603.54,-1041.2C603.54,-1041.2 500.21,-1041.2 500.21,-1041.2 494.21,-1041.2 488.21,-1035.2 488.21,-1029.2 488.21,-1029.2 488.21,-924.8 488.21,-924.8 488.21,-918.8 494.21,-912.8 500.21,-912.8 500.21,-912.8 603.54,-912.8 603.54,-912.8 609.54,-912.8 615.54,-918.8 615.54,-924.8 615.54,-924.8 615.54,-1029.2 615.54,-1029.2 615.54,-1035.2 609.54,-1041.2 603.54,-1041.2"/>
<polygon fill="#f3eefc" stroke="none" points="489.21,-1005 489.21,-1040.2 614.54,-1040.2 614.54,-1005 489.21,-1005"/>
<text xml:space="preserve" text-anchor="start" x="497.21" y="-1018.8" font-family="Noto Sans CJK KR" font-weight="bold" font-size="16.00" fill="#182033">EffectCondition</text>
<text xml:space="preserve" text-anchor="start" x="497.21" y="-985" font-family="Noto Sans CJK KR" font-size="12.00" fill="#182033">+ ConditionType</text>
<text xml:space="preserve" text-anchor="start" x="497.21" y="-954.6" font-family="Noto Sans CJK KR" font-size="12.00" fill="#182033">+ Params</text>
<text xml:space="preserve" text-anchor="start" x="497.21" y="-924.2" font-family="Noto Sans CJK KR" font-size="12.00" fill="#182033">+ Evaluate(ctx): bool</text>
<polygon fill="none" stroke="#ab8fe0" points="488.21,-912.8 488.21,-1041.2 615.54,-1041.2 615.54,-912.8 488.21,-912.8"/>
</g>
<!-- EffectDefinition&#45;&gt;EffectCondition -->
<g id="edge4" class="edge">
<title>EffectDefinition&#45;&gt;EffectCondition</title>
<path fill="none" stroke="#59687e" stroke-width="1.3" d="M126.6,-1119.89C126.6,-1047.48 126.6,-977 126.6,-977 126.6,-977 478.7,-977 478.7,-977"/>
<polygon fill="#59687e" stroke="#59687e" stroke-width="1.3" points="478.7,-979.8 486.7,-977 478.7,-974.2 478.7,-979.8"/>
<text xml:space="preserve" text-anchor="middle" x="327.77" y="-981.2" font-family="Noto Sans CJK KR" font-size="14.00" fill="#46566e">0..*</text>
</g>
<!-- EffectBundle -->
<g id="node2" class="node">
<title>EffectBundle</title>
<path fill="#ffffff" stroke="none" stroke-width="1.4" d="M669.87,-877.4C669.87,-877.4 433.87,-877.4 433.87,-877.4 427.87,-877.4 421.87,-871.4 421.87,-865.4 421.87,-865.4 421.87,-730.6 421.87,-730.6 421.87,-724.6 427.87,-718.6 433.87,-718.6 433.87,-718.6 669.87,-718.6 669.87,-718.6 675.87,-718.6 681.87,-724.6 681.87,-730.6 681.87,-730.6 681.87,-865.4 681.87,-865.4 681.87,-871.4 675.87,-877.4 669.87,-877.4"/>
<polygon fill="#fff7e6" stroke="none" points="422.87,-841.2 422.87,-876.4 576.95,-876.4 576.95,-841.2 422.87,-841.2"/>
<text xml:space="preserve" text-anchor="start" x="455.03" y="-855" font-family="Noto Sans CJK KR" font-weight="bold" font-size="16.00" fill="#182033">EffectBundle</text>
<text xml:space="preserve" text-anchor="start" x="430.87" y="-821.2" font-family="Noto Sans CJK KR" font-size="12.00" fill="#182033">+ BundleId: EntityId</text>
<text xml:space="preserve" text-anchor="start" x="430.87" y="-790.8" font-family="Noto Sans CJK KR" font-size="12.00" fill="#182033">+ Effects: EffectOperation[]</text>
<text xml:space="preserve" text-anchor="start" x="430.87" y="-760.4" font-family="Noto Sans CJK KR" font-size="12.00" fill="#182033">+ Reactions: ReactionRule[]</text>
<text xml:space="preserve" text-anchor="start" x="430.87" y="-730" font-family="Noto Sans CJK KR" font-size="12.00" fill="#182033">+ Policy: CommitThenReact</text>
<polygon fill="none" stroke="#e0ad4e" points="421.87,-718.6 421.87,-877.4 681.87,-877.4 681.87,-718.6 421.87,-718.6"/>
</g>
<!-- EffectOperation -->
<g id="node4" class="node">
<title>EffectOperation</title>
<path fill="#ffffff" stroke="none" stroke-width="1.4" d="M1068.01,-1118.2C1068.01,-1118.2 832.01,-1118.2 832.01,-1118.2 826.01,-1118.2 820.01,-1112.2 820.01,-1106.2 820.01,-1106.2 820.01,-1001.8 820.01,-1001.8 820.01,-995.8 826.01,-989.8 832.01,-989.8 832.01,-989.8 1068.01,-989.8 1068.01,-989.8 1074.01,-989.8 1080.01,-995.8 1080.01,-1001.8 1080.01,-1001.8 1080.01,-1106.2 1080.01,-1106.2 1080.01,-1112.2 1074.01,-1118.2 1068.01,-1118.2"/>
<polygon fill="#eefbf6" stroke="none" points="821.01,-1082 821.01,-1117.2 973.64,-1117.2 973.64,-1082 821.01,-1082"/>
<text xml:space="preserve" text-anchor="start" x="841.79" y="-1095.8" font-family="Noto Sans CJK KR" font-weight="bold" font-size="16.00" fill="#182033">EffectOperation</text>
<text xml:space="preserve" text-anchor="start" x="829.01" y="-1062" font-family="Noto Sans CJK KR" font-size="12.00" fill="#182033">+ OperationId: EntityId</text>
<text xml:space="preserve" text-anchor="start" x="829.01" y="-1031.6" font-family="Noto Sans CJK KR" font-size="12.00" fill="#182033">DamageEffectOperation</text>
<text xml:space="preserve" text-anchor="start" x="829.01" y="-1001.2" font-family="Noto Sans CJK KR" font-size="12.00" fill="#182033">ApplyStatusEffectOperation</text>
<polygon fill="none" stroke="#61b99a" points="820.01,-989.8 820.01,-1118.2 1080.01,-1118.2 1080.01,-989.8 820.01,-989.8"/>
</g>
<!-- EffectBundle&#45;&gt;EffectOperation -->
<g id="edge1" class="edge">
<title>EffectBundle&#45;&gt;EffectOperation</title>
<path fill="none" stroke="#59687e" stroke-width="1.3" d="M681.73,-874.4C753.63,-874.4 828.6,-874.4 828.6,-874.4 828.6,-874.4 828.6,-978.95 828.6,-978.95"/>
<polygon fill="#59687e" stroke="#59687e" stroke-width="1.3" points="828.6,-979.15 831.8,-983.95 828.6,-988.75 825.4,-983.95 828.6,-979.15"/>
<text xml:space="preserve" text-anchor="middle" x="760.43" y="-1029.2" font-family="Noto Sans CJK KR" font-size="14.00" fill="#46566e">contains 1..*</text>
</g>
<!-- IEffectExecutor -->
<g id="node7" class="node">
<title>IEffectExecutor</title>
<path fill="#ffffff" stroke="none" stroke-width="1.4" d="M1703.28,-953C1703.28,-953 1207.28,-953 1207.28,-953 1201.28,-953 1195.28,-947 1195.28,-941 1195.28,-941 1195.28,-867 1195.28,-867 1195.28,-861 1201.28,-855 1207.28,-855 1207.28,-855 1703.28,-855 1703.28,-855 1709.28,-855 1715.28,-861 1715.28,-867 1715.28,-867 1715.28,-941 1715.28,-941 1715.28,-947 1709.28,-953 1703.28,-953"/>
<polygon fill="#eefbf6" stroke="none" points="1196.28,-916.8 1196.28,-952 1533.58,-952 1533.58,-916.8 1196.28,-916.8"/>
<text xml:space="preserve" text-anchor="start" x="1236.5" y="-930.6" font-family="Noto Sans CJK KR" font-weight="bold" font-size="16.00" fill="#182033">&lt;&lt;public interface&gt;&gt; IEffectExecutor</text>
<text xml:space="preserve" text-anchor="start" x="1204.28" y="-896.8" font-family="Noto Sans CJK KR" font-size="12.00" fill="#182033">+ Execute(EffectOperation, EffectContext): EffectOperationResult</text>
<text xml:space="preserve" text-anchor="start" x="1204.28" y="-866.4" font-family="Noto Sans CJK KR" font-size="12.00" fill="#182033">+ Execute(EffectBundle, EffectContext): EffectBundleResult</text>
<polygon fill="none" stroke="#61b99a" points="1195.28,-855 1195.28,-953 1715.28,-953 1715.28,-855 1195.28,-855"/>
</g>
<!-- EffectBundle&#45;&gt;IEffectExecutor -->
<g id="edge8" class="edge">
<title>EffectBundle&#45;&gt;IEffectExecutor</title>
<path fill="none" stroke="#59687e" stroke-width="1.3" d="M681.79,-871.4C681.79,-871.4 1185.56,-871.4 1185.56,-871.4"/>
<polygon fill="#59687e" stroke="#59687e" stroke-width="1.3" points="1185.56,-874.2 1193.56,-871.4 1185.56,-868.6 1185.56,-874.2"/>
<text xml:space="preserve" text-anchor="middle" x="950.01" y="-942.2" font-family="Noto Sans CJK KR" font-size="14.00" fill="#46566e">public input</text>
</g>
<!-- IEffectPlanner -->
<g id="node16" class="node">
<title>IEffectPlanner</title>
<path fill="#ffffff" stroke="none" stroke-width="1.4" d="M1683.28,-691.8C1683.28,-691.8 1227.28,-691.8 1227.28,-691.8 1221.28,-691.8 1215.28,-685.8 1215.28,-679.8 1215.28,-679.8 1215.28,-636.2 1215.28,-636.2 1215.28,-630.2 1221.28,-624.2 1227.28,-624.2 1227.28,-624.2 1683.28,-624.2 1683.28,-624.2 1689.28,-624.2 1695.28,-630.2 1695.28,-636.2 1695.28,-636.2 1695.28,-679.8 1695.28,-679.8 1695.28,-685.8 1689.28,-691.8 1683.28,-691.8"/>
<polygon fill="#e9fbff" stroke="none" points="1216.28,-655.6 1216.28,-690.8 1515.61,-690.8 1515.61,-655.6 1216.28,-655.6"/>
<text xml:space="preserve" text-anchor="start" x="1241.51" y="-669.4" font-family="Noto Sans CJK KR" font-weight="bold" font-size="16.00" fill="#182033">&lt;&lt;public interface&gt;&gt; IEffectPlanner</text>
<text xml:space="preserve" text-anchor="start" x="1224.28" y="-635.6" font-family="Noto Sans CJK KR" font-size="12.00" fill="#182033">+ Prepare(EffectBundle, EffectContext): EffectBundlePlan</text>
<polygon fill="none" stroke="#54b7cf" points="1215.28,-624.2 1215.28,-691.8 1695.28,-691.8 1695.28,-624.2 1215.28,-624.2"/>
</g>
<!-- EffectBundle&#45;&gt;IEffectPlanner -->
<g id="edge9" class="edge">
<title>EffectBundle&#45;&gt;IEffectPlanner</title>
<path fill="none" stroke="#59687e" stroke-width="1.3" d="M551.6,-718.82C551.6,-682.22 551.6,-646.73 551.6,-646.73 551.6,-646.73 1205.52,-646.73 1205.52,-646.73"/>
<polygon fill="#59687e" stroke="#59687e" stroke-width="1.3" points="1205.52,-649.53 1213.52,-646.73 1205.52,-643.93 1205.52,-649.53"/>
<text xml:space="preserve" text-anchor="middle" x="950.01" y="-662.2" font-family="Noto Sans CJK KR" font-size="14.00" fill="#46566e">public input</text>
</g>
<!-- DefinitionNormalizer&#45;&gt;EffectOperation -->
<g id="edge6" class="edge">
<title>DefinitionNormalizer&#45;&gt;EffectOperation</title>
<path fill="none" stroke="#59687e" stroke-width="1.3" d="M691.6,-1494.8C691.6,-1367.94 691.6,-1097.3 691.6,-1097.3 691.6,-1097.3 810.08,-1097.3 810.08,-1097.3"/>
<polygon fill="#59687e" stroke="#59687e" stroke-width="1.3" points="810.08,-1100.1 818.08,-1097.3 810.08,-1094.5 810.08,-1100.1"/>
<text xml:space="preserve" text-anchor="middle" x="760.43" y="-1086.2" font-family="Noto Sans CJK KR" font-size="14.00" fill="#46566e">creates</text>
</g>
<!-- EffectOperation&#45;&gt;IEffectExecutor -->
<g id="edge7" class="edge">
<title>EffectOperation&#45;&gt;IEffectExecutor</title>
<path fill="none" stroke="#59687e" stroke-width="1.3" d="M1071.6,-989.9C1071.6,-960.86 1071.6,-932.9 1071.6,-932.9 1071.6,-932.9 1185.41,-932.9 1185.41,-932.9"/>
<polygon fill="#59687e" stroke="#59687e" stroke-width="1.3" points="1185.41,-935.7 1193.41,-932.9 1185.41,-930.1 1185.41,-935.7"/>
<text xml:space="preserve" text-anchor="middle" x="1137.65" y="-1029.2" font-family="Noto Sans CJK KR" font-size="14.00" fill="#46566e">public input</text>
</g>
<!-- EffectContext -->
<g id="node5" class="node">
<title>EffectContext</title>
<path fill="#ffffff" stroke="none" stroke-width="1.4" d="M1012.37,-868.4C1012.37,-868.4 887.65,-868.4 887.65,-868.4 881.65,-868.4 875.65,-862.4 875.65,-856.4 875.65,-856.4 875.65,-721.6 875.65,-721.6 875.65,-715.6 881.65,-709.6 887.65,-709.6 887.65,-709.6 1012.37,-709.6 1012.37,-709.6 1018.37,-709.6 1024.37,-715.6 1024.37,-721.6 1024.37,-721.6 1024.37,-856.4 1024.37,-856.4 1024.37,-862.4 1018.37,-868.4 1012.37,-868.4"/>
<polygon fill="#eaf0ff" stroke="none" points="876.65,-832.2 876.65,-867.4 1023.37,-867.4 1023.37,-832.2 876.65,-832.2"/>
<text xml:space="preserve" text-anchor="start" x="902.48" y="-846" font-family="Noto Sans CJK KR" font-weight="bold" font-size="16.00" fill="#182033">EffectContext</text>
<text xml:space="preserve" text-anchor="start" x="884.65" y="-812.2" font-family="Noto Sans CJK KR" font-size="12.00" fill="#182033">+ CasterId: EntityId</text>
<text xml:space="preserve" text-anchor="start" x="884.65" y="-781.8" font-family="Noto Sans CJK KR" font-size="12.00" fill="#182033">+ InitialTargetId: EntityId?</text>
<text xml:space="preserve" text-anchor="start" x="884.65" y="-751.4" font-family="Noto Sans CJK KR" font-size="12.00" fill="#182033">+ Source: SourceRef</text>
<text xml:space="preserve" text-anchor="start" x="884.65" y="-721" font-family="Noto Sans CJK KR" font-size="12.00" fill="#182033">+ RandomSeed</text>
<polygon fill="none" stroke="#8292f7" points="875.65,-709.6 875.65,-868.4 1024.37,-868.4 1024.37,-709.6 875.65,-709.6"/>
</g>
<!-- EffectContext&#45;&gt;IEffectExecutor -->
<g id="edge10" class="edge">
<title>EffectContext&#45;&gt;IEffectExecutor</title>
<path fill="none" stroke="#59687e" stroke-width="1.3" d="M1024.29,-861.7C1024.29,-861.7 1185.49,-861.7 1185.49,-861.7"/>
<polygon fill="#59687e" stroke="#59687e" stroke-width="1.3" points="1185.49,-864.5 1193.49,-861.7 1185.49,-858.9 1185.49,-864.5"/>
<text xml:space="preserve" text-anchor="middle" x="1137.65" y="-874.2" font-family="Noto Sans CJK KR" font-size="14.00" fill="#46566e">context</text>
</g>
<!-- EffectContext&#45;&gt;IEffectPlanner -->
<g id="edge11" class="edge">
<title>EffectContext&#45;&gt;IEffectPlanner</title>
<path fill="none" stroke="#59687e" stroke-width="1.3" d="M949.6,-709.8C949.6,-687.54 949.6,-669.27 949.6,-669.27 949.6,-669.27 1205.43,-669.27 1205.43,-669.27"/>
<polygon fill="#59687e" stroke="#59687e" stroke-width="1.3" points="1205.43,-672.07 1213.43,-669.27 1205.43,-666.47 1205.43,-672.07"/>
<text xml:space="preserve" text-anchor="middle" x="1137.65" y="-789.2" font-family="Noto Sans CJK KR" font-size="14.00" fill="#46566e">context</text>
</g>
<!-- EffectPipeline -->
<g id="node6" class="node">
<title>EffectPipeline</title>
<path fill="#ffffff" stroke="none" stroke-width="1.4" d="M1050.51,-588.4C1050.51,-588.4 849.51,-588.4 849.51,-588.4 843.51,-588.4 837.51,-582.4 837.51,-576.4 837.51,-576.4 837.51,-441.6 837.51,-441.6 837.51,-435.6 843.51,-429.6 849.51,-429.6 849.51,-429.6 1050.51,-429.6 1050.51,-429.6 1056.51,-429.6 1062.51,-435.6 1062.51,-441.6 1062.51,-441.6 1062.51,-576.4 1062.51,-576.4 1062.51,-582.4 1056.51,-588.4 1050.51,-588.4"/>
<polygon fill="#eaf0ff" stroke="none" points="838.51,-552.2 838.51,-587.4 1061.51,-587.4 1061.51,-552.2 838.51,-552.2"/>
<text xml:space="preserve" text-anchor="start" x="902.03" y="-566" font-family="Noto Sans CJK KR" font-weight="bold" font-size="16.00" fill="#182033">EffectPipeline</text>
<text xml:space="preserve" text-anchor="start" x="846.51" y="-532.2" font-family="Noto Sans CJK KR" font-size="12.00" fill="#182033">+ Execute(EffectOperation, EffectContext)</text>
<text xml:space="preserve" text-anchor="start" x="846.51" y="-501.8" font-family="Noto Sans CJK KR" font-size="12.00" fill="#182033">+ Execute(EffectBundle, EffectContext)</text>
<text xml:space="preserve" text-anchor="start" x="846.51" y="-471.4" font-family="Noto Sans CJK KR" font-size="12.00" fill="#182033">+ Prepare(EffectBundle, EffectContext)</text>
<text xml:space="preserve" text-anchor="start" x="846.51" y="-441" font-family="Noto Sans CJK KR" font-size="12.00" fill="#182033">&#45; BuildMutationAndOutboxPlan()</text>
<polygon fill="none" stroke="#8292f7" points="837.51,-429.6 837.51,-588.4 1062.51,-588.4 1062.51,-429.6 837.51,-429.6"/>
</g>
<!-- EffectPipeline&#45;&gt;IEffectExecutor -->
<g id="edge12" class="edge">
<title>EffectPipeline&#45;&gt;IEffectExecutor</title>
<path fill="none" stroke="#59687e" stroke-width="1.3" d="M1062.49,-583.33C1131.06,-583.33 1205.6,-583.33 1205.6,-583.33 1205.6,-583.33 1205.6,-845.33 1205.6,-845.33"/>
<polygon fill="none" stroke="#59687e" stroke-width="1.3" points="1202.8,-845.33 1205.6,-853.33 1208.4,-845.33 1202.8,-845.33"/>
<text xml:space="preserve" text-anchor="middle" x="1137.65" y="-728.2" font-family="Noto Sans CJK KR" font-size="14.00" fill="#46566e">implements</text>
</g>
<!-- IEffectOperationExecutor -->
<g id="node8" class="node">
<title>IEffectOperationExecutor</title>
<path fill="#ffffff" stroke="none" stroke-width="1.4" d="M1621.58,-305C1621.58,-305 1288.98,-305 1288.98,-305 1282.98,-305 1276.98,-299 1276.98,-293 1276.98,-293 1276.98,-219 1276.98,-219 1276.98,-213 1282.98,-207 1288.98,-207 1288.98,-207 1621.58,-207 1621.58,-207 1627.58,-207 1633.58,-213 1633.58,-219 1633.58,-219 1633.58,-293 1633.58,-293 1633.58,-299 1627.58,-305 1621.58,-305"/>
<polygon fill="#f3eefc" stroke="none" points="1277.98,-268.8 1277.98,-304 1632.58,-304 1632.58,-268.8 1277.98,-268.8"/>
<text xml:space="preserve" text-anchor="start" x="1285.98" y="-282.6" font-family="Noto Sans CJK KR" font-weight="bold" font-size="16.00" fill="#182033">&lt;&lt;internal interface&gt;&gt; IEffectOperationExecutor</text>
<text xml:space="preserve" text-anchor="start" x="1285.98" y="-248.8" font-family="Noto Sans CJK KR" font-size="12.00" fill="#182033">+ CanExecute(EffectOperation, EffectContext): bool</text>
<text xml:space="preserve" text-anchor="start" x="1285.98" y="-218.4" font-family="Noto Sans CJK KR" font-size="12.00" fill="#182033">+ BuildPlan(EffectOperation, EffectContext): OperationPlan</text>
<polygon fill="none" stroke="#ab8fe0" points="1276.98,-207 1276.98,-305 1633.58,-305 1633.58,-207 1276.98,-207"/>
</g>
<!-- EffectPipeline&#45;&gt;IEffectOperationExecutor -->
<g id="edge14" class="edge">
<title>EffectPipeline&#45;&gt;IEffectOperationExecutor</title>
<path fill="none" stroke="#59687e" stroke-width="1.3" d="M1054.6,-429.71C1054.6,-367.7 1054.6,-291.93 1054.6,-291.93 1054.6,-291.93 1267.24,-291.93 1267.24,-291.93"/>
<polygon fill="#59687e" stroke="#59687e" stroke-width="1.3" points="1267.24,-294.73 1275.24,-291.93 1267.24,-289.13 1267.24,-294.73"/>
<text xml:space="preserve" text-anchor="middle" x="1137.65" y="-424.2" font-family="Noto Sans CJK KR" font-size="14.00" fill="#46566e">dispatch</text>
</g>
<!-- EffectResult -->
<g id="node15" class="node">
<title>EffectResult</title>
<path fill="#ffffff" stroke="none" stroke-width="1.4" d="M1573.77,-573.2C1573.77,-573.2 1336.8,-573.2 1336.8,-573.2 1330.8,-573.2 1324.8,-567.2 1324.8,-561.2 1324.8,-561.2 1324.8,-456.8 1324.8,-456.8 1324.8,-450.8 1330.8,-444.8 1336.8,-444.8 1336.8,-444.8 1573.77,-444.8 1573.77,-444.8 1579.77,-444.8 1585.77,-450.8 1585.77,-456.8 1585.77,-456.8 1585.77,-561.2 1585.77,-561.2 1585.77,-567.2 1579.77,-573.2 1573.77,-573.2"/>
<polygon fill="#f0f3f9" stroke="none" points="1325.8,-537 1325.8,-572.2 1584.77,-572.2 1584.77,-537 1325.8,-537"/>
<text xml:space="preserve" text-anchor="start" x="1413.08" y="-550.8" font-family="Noto Sans CJK KR" font-weight="bold" font-size="16.00" fill="#182033">EffectResult</text>
<text xml:space="preserve" text-anchor="start" x="1333.8" y="-517" font-family="Noto Sans CJK KR" font-size="12.00" fill="#182033">+ Succeeded: bool</text>
<text xml:space="preserve" text-anchor="start" x="1333.8" y="-486.6" font-family="Noto Sans CJK KR" font-size="12.00" fill="#182033">EffectOperationResult: OperationId</text>
<text xml:space="preserve" text-anchor="start" x="1333.8" y="-456.2" font-family="Noto Sans CJK KR" font-size="12.00" fill="#182033">EffectBundleResult: Committed, BundleId, counts</text>
<polygon fill="none" stroke="#99a8bd" points="1324.8,-444.8 1324.8,-573.2 1585.77,-573.2 1585.77,-444.8 1324.8,-444.8"/>
</g>
<!-- EffectPipeline&#45;&gt;EffectResult -->
<g id="edge18" class="edge">
<title>EffectPipeline&#45;&gt;EffectResult</title>
<path fill="none" stroke="#59687e" stroke-width="1.3" d="M1062.46,-509C1062.46,-509 1314.89,-509 1314.89,-509"/>
<polygon fill="#59687e" stroke="#59687e" stroke-width="1.3" points="1314.89,-511.8 1322.89,-509 1314.89,-506.2 1314.89,-511.8"/>
<text xml:space="preserve" text-anchor="middle" x="1137.65" y="-513.2" font-family="Noto Sans CJK KR" font-size="14.00" fill="#46566e">returns</text>
</g>
<!-- EffectPipeline&#45;&gt;IEffectPlanner -->
<g id="edge13" class="edge">
<title>EffectPipeline&#45;&gt;IEffectPlanner</title>
<path fill="none" stroke="#59687e" stroke-width="1.3" d="M1062.14,-578.27C1146.13,-578.27 1246.6,-578.27 1246.6,-578.27 1246.6,-578.27 1246.6,-614.68 1246.6,-614.68"/>
<polygon fill="none" stroke="#59687e" stroke-width="1.3" points="1243.8,-614.68 1246.6,-622.68 1249.4,-614.68 1243.8,-614.68"/>
<text xml:space="preserve" text-anchor="middle" x="1137.65" y="-596.2" font-family="Noto Sans CJK KR" font-size="14.00" fill="#46566e">implements</text>
</g>
<!-- DamageEffectExecutor -->
<g id="node9" class="node">
<title>DamageEffectExecutor</title>
<path fill="#ffffff" stroke="none" stroke-width="1.4" d="M1026.54,-394.2C1026.54,-394.2 873.49,-394.2 873.49,-394.2 867.49,-394.2 861.49,-388.2 861.49,-382.2 861.49,-382.2 861.49,-277.8 861.49,-277.8 861.49,-271.8 867.49,-265.8 873.49,-265.8 873.49,-265.8 1026.54,-265.8 1026.54,-265.8 1032.54,-265.8 1038.54,-271.8 1038.54,-277.8 1038.54,-277.8 1038.54,-382.2 1038.54,-382.2 1038.54,-388.2 1032.54,-394.2 1026.54,-394.2"/>
<polygon fill="#eefbf6" stroke="none" points="862.49,-358 862.49,-393.2 1037.54,-393.2 1037.54,-358 862.49,-358"/>
<text xml:space="preserve" text-anchor="start" x="870.49" y="-371.8" font-family="Noto Sans CJK KR" font-weight="bold" font-size="16.00" fill="#182033">DamageEffectExecutor</text>
<text xml:space="preserve" text-anchor="start" x="870.49" y="-338" font-family="Noto Sans CJK KR" font-size="12.00" fill="#182033">+ BuildDamageRequest()</text>
<text xml:space="preserve" text-anchor="start" x="870.49" y="-307.6" font-family="Noto Sans CJK KR" font-size="12.00" fill="#182033">+ CallCombatResolver()</text>
<text xml:space="preserve" text-anchor="start" x="870.49" y="-277.2" font-family="Noto Sans CJK KR" font-size="12.00" fill="#182033">+ BuildDamageMutation()</text>
<polygon fill="none" stroke="#61b99a" points="861.49,-265.8 861.49,-394.2 1038.54,-394.2 1038.54,-265.8 861.49,-265.8"/>
</g>
<!-- DamageEffectExecutor&#45;&gt;IEffectOperationExecutor -->
<g id="edge15" class="edge">
<title>DamageEffectExecutor&#45;&gt;IEffectOperationExecutor</title>
<path fill="none" stroke="#59687e" stroke-width="1.3" d="M1038.31,-278.87C1038.31,-278.87 1267.26,-278.87 1267.26,-278.87"/>
<polygon fill="none" stroke="#59687e" stroke-width="1.3" points="1267.26,-281.67 1275.26,-278.87 1267.26,-276.07 1267.26,-281.67"/>
<text xml:space="preserve" text-anchor="middle" x="1137.65" y="-334.2" font-family="Noto Sans CJK KR" font-size="14.00" fill="#46566e">implements</text>
</g>
<!-- ApplyStatusExecutor -->
<g id="node10" class="node">
<title>ApplyStatusExecutor</title>
<path fill="#ffffff" stroke="none" stroke-width="1.4" d="M1020.35,-231C1020.35,-231 879.67,-231 879.67,-231 873.67,-231 867.67,-225 867.67,-219 867.67,-219 867.67,-145 867.67,-145 867.67,-139 873.67,-133 879.67,-133 879.67,-133 1020.35,-133 1020.35,-133 1026.35,-133 1032.35,-139 1032.35,-145 1032.35,-145 1032.35,-219 1032.35,-219 1032.35,-225 1026.35,-231 1020.35,-231"/>
<polygon fill="#eefbf6" stroke="none" points="868.67,-194.8 868.67,-230 1031.35,-230 1031.35,-194.8 868.67,-194.8"/>
<text xml:space="preserve" text-anchor="start" x="876.67" y="-208.6" font-family="Noto Sans CJK KR" font-weight="bold" font-size="16.00" fill="#182033">ApplyStatusExecutor</text>
<text xml:space="preserve" text-anchor="start" x="876.67" y="-174.8" font-family="Noto Sans CJK KR" font-size="12.00" fill="#182033">+ BuildApplyStatusRequest()</text>
<text xml:space="preserve" text-anchor="start" x="876.67" y="-144.4" font-family="Noto Sans CJK KR" font-size="12.00" fill="#182033">+ BuildReactionCommand()</text>
<polygon fill="none" stroke="#61b99a" points="867.67,-133 867.67,-231 1032.35,-231 1032.35,-133 867.67,-133"/>
</g>
<!-- ApplyStatusExecutor&#45;&gt;IEffectOperationExecutor -->
<g id="edge16" class="edge">
<title>ApplyStatusExecutor&#45;&gt;IEffectOperationExecutor</title>
<path fill="none" stroke="#59687e" stroke-width="1.3" d="M1032.32,-223C1032.32,-223 1267.16,-223 1267.16,-223"/>
<polygon fill="none" stroke="#59687e" stroke-width="1.3" points="1267.16,-225.8 1275.16,-223 1267.16,-220.2 1267.16,-225.8"/>
<text xml:space="preserve" text-anchor="middle" x="1137.65" y="-186.2" font-family="Noto Sans CJK KR" font-size="14.00" fill="#46566e">implements</text>
</g>
<!-- ModifyResourceExecutor -->
<g id="node11" class="node">
<title>ModifyResourceExecutor</title>
<path fill="#ffffff" stroke="none" stroke-width="1.4" d="M1034.54,-98C1034.54,-98 865.48,-98 865.48,-98 859.48,-98 853.48,-92 853.48,-86 853.48,-86 853.48,-12 853.48,-12 853.48,-6 859.48,0 865.48,0 865.48,0 1034.54,0 1034.54,0 1040.54,0 1046.54,-6 1046.54,-12 1046.54,-12 1046.54,-86 1046.54,-86 1046.54,-92 1040.54,-98 1034.54,-98"/>
<polygon fill="#eefbf6" stroke="none" points="854.48,-61.8 854.48,-97 1045.54,-97 1045.54,-61.8 854.48,-61.8"/>
<text xml:space="preserve" text-anchor="start" x="862.48" y="-75.6" font-family="Noto Sans CJK KR" font-weight="bold" font-size="16.00" fill="#182033">ModifyResourceExecutor</text>
<text xml:space="preserve" text-anchor="start" x="862.48" y="-41.8" font-family="Noto Sans CJK KR" font-size="12.00" fill="#182033">+ BuildResourceMutation()</text>
<text xml:space="preserve" text-anchor="start" x="862.48" y="-11.4" font-family="Noto Sans CJK KR" font-size="12.00" fill="#182033">+ ValidateInvariant()</text>
<polygon fill="none" stroke="#61b99a" points="853.48,0 853.48,-98 1046.54,-98 1046.54,0 853.48,0"/>
</g>
<!-- ModifyResourceExecutor&#45;&gt;IEffectOperationExecutor -->
<g id="edge17" class="edge">
<title>ModifyResourceExecutor&#45;&gt;IEffectOperationExecutor</title>
<path fill="none" stroke="#59687e" stroke-width="1.3" d="M1042.6,-97.91C1042.6,-146.87 1042.6,-215 1042.6,-215 1042.6,-215 1267.31,-215 1267.31,-215"/>
<polygon fill="none" stroke="#59687e" stroke-width="1.3" points="1267.31,-217.8 1275.31,-215 1267.31,-212.2 1267.31,-217.8"/>
<text xml:space="preserve" text-anchor="middle" x="1137.65" y="-53.2" font-family="Noto Sans CJK KR" font-size="14.00" fill="#46566e">implements</text>
</g>
<!-- EffectBundlePlan -->
<g id="node17" class="node">
<title>EffectBundlePlan</title>
<path fill="#ffffff" stroke="none" stroke-width="1.4" d="M2081.6,-722.2C2081.6,-722.2 1822.7,-722.2 1822.7,-722.2 1816.7,-722.2 1810.7,-716.2 1810.7,-710.2 1810.7,-710.2 1810.7,-605.8 1810.7,-605.8 1810.7,-599.8 1816.7,-593.8 1822.7,-593.8 1822.7,-593.8 2081.6,-593.8 2081.6,-593.8 2087.6,-593.8 2093.6,-599.8 2093.6,-605.8 2093.6,-605.8 2093.6,-710.2 2093.6,-710.2 2093.6,-716.2 2087.6,-722.2 2081.6,-722.2"/>
<polygon fill="#e9fbff" stroke="none" points="1811.7,-686 1811.7,-721.2 2092.6,-721.2 2092.6,-686 1811.7,-686"/>
<text xml:space="preserve" text-anchor="start" x="1819.7" y="-699.8" font-family="Noto Sans CJK KR" font-weight="bold" font-size="16.00" fill="#182033">&lt;&lt;public contract&gt;&gt; EffectBundlePlan</text>
<text xml:space="preserve" text-anchor="start" x="1819.7" y="-666" font-family="Noto Sans CJK KR" font-size="12.00" fill="#182033">+ BundleId: EntityId</text>
<text xml:space="preserve" text-anchor="start" x="1819.7" y="-635.6" font-family="Noto Sans CJK KR" font-size="12.00" fill="#182033">+ PrimaryOperations: EffectOperation[]</text>
<text xml:space="preserve" text-anchor="start" x="1819.7" y="-605.2" font-family="Noto Sans CJK KR" font-size="12.00" fill="#182033">+ Reactions: ReactionRule[]</text>
<polygon fill="none" stroke="#54b7cf" points="1810.7,-593.8 1810.7,-722.2 2093.6,-722.2 2093.6,-593.8 1810.7,-593.8"/>
</g>
<!-- IEffectPlanner&#45;&gt;EffectBundlePlan -->
<g id="edge19" class="edge">
<title>IEffectPlanner&#45;&gt;EffectBundlePlan</title>
<path fill="none" stroke="#59687e" stroke-width="1.3" d="M1694.99,-658C1694.99,-658 1800.96,-658 1800.96,-658"/>
<polygon fill="#59687e" stroke="#59687e" stroke-width="1.3" points="1800.96,-660.8 1808.96,-658 1800.96,-655.2 1800.96,-660.8"/>
<text xml:space="preserve" text-anchor="middle" x="1762.99" y="-662.2" font-family="Noto Sans CJK KR" font-size="14.00" fill="#46566e">prepares</text>
</g>
</g>
</svg>
