<?xml version="1.0" encoding="UTF-8" standalone="no"?>
<!DOCTYPE svg PUBLIC "-//W3C//DTD SVG 1.1//EN"
 "http://www.w3.org/Graphics/SVG/1.1/DTD/svg11.dtd">
<!-- Generated by graphviz version 15.1.0 (20260618.0150)
 -->
<!-- Title: G Pages: 1 -->
<svg width="3129pt" height="1772pt"
 viewBox="12.00 12.00 3117.00 1760.00" xmlns="http://www.w3.org/2000/svg" xmlns:xlink="http://www.w3.org/1999/xlink">
<g id="graph0" class="graph" transform="scale(1.33333 1.33333) rotate(0) translate(30.24 1298.49)">
<title>G</title>
<polygon fill="#ffffff" stroke="none" points="-21.6,21.6 -21.6,-1289.85 2307.68,-1289.85 2307.68,21.6 -21.6,21.6"/>
<g id="clust1" class="cluster">
<title>cluster_definition_model</title>
<path fill="#ffffff" stroke="#e7d59a" stroke-dasharray="5,2" d="M20,-641.25C20,-641.25 1001,-641.25 1001,-641.25 1007,-641.25 1013,-647.25 1013,-653.25 1013,-653.25 1013,-1248.25 1013,-1248.25 1013,-1254.25 1007,-1260.25 1001,-1260.25 1001,-1260.25 20,-1260.25 20,-1260.25 14,-1260.25 8,-1254.25 8,-1248.25 8,-1248.25 8,-653.25 8,-653.25 8,-647.25 14,-641.25 20,-641.25"/>
<text xml:space="preserve" text-anchor="middle" x="510.5" y="-1242.95" font-family="Noto Sans KR" font-size="14.00">Definition Model</text>
</g>
<g id="clust3" class="cluster">
<title>cluster_public_contracts</title>
<path fill="#ffffff" stroke="#b7dce5" stroke-dasharray="5,2" d="M305,-8C305,-8 1330,-8 1330,-8 1336,-8 1342,-14 1342,-20 1342,-20 1342,-571.25 1342,-571.25 1342,-577.25 1336,-583.25 1330,-583.25 1330,-583.25 305,-583.25 305,-583.25 299,-583.25 293,-577.25 293,-571.25 293,-571.25 293,-20 293,-20 293,-14 299,-8 305,-8"/>
<text xml:space="preserve" text-anchor="middle" x="817.5" y="-565.95" font-family="Noto Sans KR" font-size="14.00">Public Runtime Contracts</text>
</g>
<g id="clust7" class="cluster">
<title>cluster_runtime_implementation</title>
<path fill="#ffffff" stroke="#c9b9e8" stroke-dasharray="5,2" d="M1025,-687.75C1025,-687.75 1911,-687.75 1911,-687.75 1917,-687.75 1923,-693.75 1923,-699.75 1923,-699.75 1923,-1170.75 1923,-1170.75 1923,-1176.75 1917,-1182.75 1911,-1182.75 1911,-1182.75 1025,-1182.75 1025,-1182.75 1019,-1182.75 1013,-1176.75 1013,-1170.75 1013,-1170.75 1013,-699.75 1013,-699.75 1013,-693.75 1019,-687.75 1025,-687.75"/>
<text xml:space="preserve" text-anchor="middle" x="1468" y="-1165.45" font-family="Noto Sans KR" font-size="14.00">Runtime Implementation</text>
</g>
<!-- EffectDefinition&#45;&gt;DefinitionNormalizer -->
<g id="edge5" class="edge">
<title>EffectDefinition:s&#45;&gt;DefinitionNormalizer:n</title>
<path fill="none" stroke="#5b6f8f" stroke-width="1.3" d="M570,-917.75C570,-917.75 460.45,-833.27 430.49,-810.17"/>
<polygon fill="#5b6f8f" stroke="#5b6f8f" stroke-width="1.3" points="432.6,-808.26 424.56,-805.59 429.18,-812.7 432.6,-808.26"/>
<text xml:space="preserve" text-anchor="middle" x="561.83" y="-873.2" font-family="Noto Sans KR" font-size="9.00" fill="#46566e">normalize definition</text>
</g>
<!-- EffectDefinition&#45;&gt;TargetSelector -->
<g id="edge2" class="edge">
<title>EffectDefinition:s&#45;&gt;TargetSelector:n</title>
<path fill="none" stroke="#7257a6" stroke-width="1.3" d="M570,-917.75C570,-917.75 687.75,-844.78 719.95,-824.82"/>
<polygon fill="#7257a6" stroke="#7257a6" stroke-width="1.3" points="721,-827.46 726.33,-820.87 718.05,-822.7 721,-827.46"/>
<text xml:space="preserve" text-anchor="middle" x="671.64" y="-873.2" font-family="Noto Sans KR" font-size="9.00" fill="#46566e">selects targets</text>
</g>
<!-- EffectDefinition&#45;&gt;ValueExpression -->
<g id="edge3" class="edge">
<title>EffectDefinition:sw&#45;&gt;ValueExpression:n</title>
<path fill="none" stroke="#7257a6" stroke-width="1.3" d="M445.02,-950.4C445.02,-950.4 179.9,-856.44 127.09,-837.72"/>
<polygon fill="#7257a6" stroke="#7257a6" stroke-width="1.3" points="128.33,-835.19 119.85,-835.16 126.46,-840.47 128.33,-835.19"/>
<text xml:space="preserve" text-anchor="middle" x="289.85" y="-873.2" font-family="Noto Sans KR" font-size="9.00" fill="#46566e">evaluates optional value</text>
</g>
<!-- EffectDefinition&#45;&gt;EffectCondition -->
<g id="edge4" class="edge">
<title>EffectDefinition:se&#45;&gt;EffectCondition:n</title>
<path fill="none" stroke="#7257a6" stroke-width="1.3" d="M694.98,-950.4C694.98,-950.4 897.26,-834.62 941.51,-809.29"/>
<polygon fill="#7257a6" stroke="#7257a6" stroke-width="1.3" points="942.74,-811.82 948.29,-805.42 939.96,-806.96 942.74,-811.82"/>
<text xml:space="preserve" text-anchor="middle" x="884.89" y="-873.2" font-family="Noto Sans KR" font-size="9.00" fill="#46566e">guards with conditions (0..*)</text>
</g>
<!-- EffectBundle&#45;&gt;EffectOperation -->
<g id="edge1" class="edge">
<title>EffectBundle:e&#45;&gt;EffectOperation:w</title>
<path fill="none" stroke="#8a6d3b" stroke-width="1.3" d="M960.88,-476.88C960.88,-476.88 959.88,-558 959.88,-558 959.88,-558 700,-558 700,-558 700,-558 675.25,-434.62 675.25,-434.62 675.25,-434.62 577.75,-434.62 577.75,-434.62 577.75,-434.62 553,-542.5 553,-542.5 553,-542.5 293.12,-542.5 293.12,-542.5 293.12,-542.5 292.61,-508.97 292.32,-489.84"/>
<polygon fill="#8a6d3b" stroke="#8a6d3b" stroke-width="1.3" points="292.29,-487.65 289.01,-482.89 292.14,-478.05 295.41,-482.8 292.29,-487.65"/>
<text xml:space="preserve" text-anchor="middle" x="626.5" y="-437.32" font-family="Noto Sans KR" font-size="9.00" fill="#46566e">contains operations (1..*)</text>
</g>
<!-- EffectBundle&#45;&gt;IEffectExecutor -->
<g id="edge8" class="edge">
<title>EffectBundle:s&#45;&gt;IEffectExecutor:ne</title>
<path fill="none" stroke="#3d8b6d" stroke-width="1.3" d="M830,-395.75C830,-395.75 655.28,-339.61 612.28,-325.79"/>
<polygon fill="#3d8b6d" stroke="#3d8b6d" stroke-width="1.3" points="613.16,-323.13 604.68,-323.35 611.44,-328.47 613.16,-323.13"/>
</g>
<!-- EffectBundle&#45;&gt;IEffectPlanner -->
<g id="edge9" class="edge">
<title>EffectBundle:s&#45;&gt;IEffectPlanner:nw</title>
<path fill="none" stroke="#397b8c" stroke-width="1.3" d="M830,-395.75C830,-395.75 1014.32,-327.72 1058.24,-311.51"/>
<polygon fill="#397b8c" stroke="#397b8c" stroke-width="1.3" points="1059.17,-314.15 1065.7,-308.76 1057.23,-308.9 1059.17,-314.15"/>
</g>
<!-- DefinitionNormalizer&#45;&gt;EffectOperation -->
<g id="edge6" class="edge">
<title>DefinitionNormalizer:s&#45;&gt;EffectOperation:n</title>
<path fill="none" stroke="#5b6f8f" stroke-width="1.3" d="M423,-671.36C423,-671.36 423,-582.82 423,-553.08"/>
<polygon fill="#5b6f8f" stroke="#5b6f8f" stroke-width="1.3" points="425.8,-553.44 423,-545.44 420.2,-553.44 425.8,-553.44"/>
<text xml:space="preserve" text-anchor="middle" x="486" y="-596.7" font-family="Noto Sans KR" font-size="9.00" fill="#46566e">creates runtime EffectOperation</text>
</g>
<!-- EffectOperation&#45;&gt;IEffectExecutor -->
<g id="edge7" class="edge">
<title>EffectOperation:s&#45;&gt;IEffectExecutor:nw</title>
<path fill="none" stroke="#3d8b6d" stroke-width="1.3" d="M423,-410.28C423,-410.28 477.48,-350.82 496.63,-329.91"/>
<polygon fill="#3d8b6d" stroke="#3d8b6d" stroke-width="1.3" points="498.52,-331.99 501.86,-324.2 494.39,-328.21 498.52,-331.99"/>
</g>
<!-- EffectContext&#45;&gt;IEffectExecutor -->
<g id="edge10" class="edge">
<title>EffectContext:sw&#45;&gt;IEffectExecutor:ne</title>
<path fill="none" stroke="#8292a8" stroke-width="1.3" stroke-dasharray="5,2" d="M1009.15,-401.02C1009.15,-401.02 985,-395.75 985,-395.75 985,-395.75 671.11,-335.8 612.26,-324.55"/>
<polygon fill="#8292a8" stroke="#8292a8" stroke-width="1.3" points="613.13,-321.87 604.74,-323.12 612.08,-327.37 613.13,-321.87"/>
</g>
<!-- EffectContext&#45;&gt;IEffectPlanner -->
<g id="edge11" class="edge">
<title>EffectContext:se&#45;&gt;IEffectPlanner:ne</title>
<path fill="none" stroke="#8292a8" stroke-width="1.3" stroke-dasharray="5,2" d="M1158.85,-401.02C1158.85,-401.02 1144.49,-341.42 1138.76,-317.67"/>
<polygon fill="#8292a8" stroke="#8292a8" stroke-width="1.3" points="1141.51,-317.11 1136.91,-309.99 1136.06,-318.42 1141.51,-317.11"/>
</g>
<!-- EffectPipeline&#45;&gt;IEffectExecutor -->
<g id="edge12" class="edge">
<title>EffectPipeline:nw&#45;&gt;IEffectExecutor:s</title>
<path fill="none" stroke="#3d8b6d" stroke-width="1.3" stroke-dasharray="5,2" d="M1048,-1158.38C1048,-1158.38 1013.5,-1157.38 1013.5,-1157.38 1013.5,-1157.38 1013.5,-995.25 1013.5,-995.25 1013.5,-995.25 1269,-917.75 1269,-917.75 1269,-917.75 1699,-834.5 1699,-834.5 1699,-834.5 1699,-641.25 1699,-641.25 1699,-641.25 1109,-605.25 1109,-605.25 1109,-605.25 1109,-594 1109,-594 1109,-594 1184,-583.25 1184,-583.25 1184,-583.25 1184,-395.75 1184,-395.75 1184,-395.75 839,-322.75 839,-322.75 839,-322.75 813,-222.81 813,-222.81 813,-222.81 610.37,-222.03 562.87,-221.85"/>
<polygon fill="none" stroke="#3d8b6d" stroke-width="1.3" points="562.98,-219.05 554.97,-221.82 562.96,-224.65 562.98,-219.05"/>
</g>
<!-- EffectPipeline&#45;&gt;IEffectOperationExecutor -->
<g id="edge14" class="edge">
<title>EffectPipeline:s&#45;&gt;IEffectOperationExecutor:n</title>
<path fill="none" stroke="#7257a6" stroke-width="1.3" d="M1129,-994.37C1129,-994.37 1438.82,-824.11 1494.49,-793.51"/>
<polygon fill="#7257a6" stroke="#7257a6" stroke-width="1.3" points="1495.61,-796.09 1501.28,-789.78 1492.92,-791.18 1495.61,-796.09"/>
</g>
<!-- EffectPipeline&#45;&gt;EffectResult -->
<g id="edge18" class="edge">
<title>EffectPipeline:e&#45;&gt;EffectResult:s</title>
<path fill="none" stroke="#8292a8" stroke-width="1.3" stroke-dasharray="5,2" d="M1245.39,-1076.38C1245.39,-1076.38 1269,-917.75 1269,-917.75 1269,-917.75 1521,-881.75 1521,-881.75 1521,-881.75 1736,-834.5 1736,-834.5 1736,-834.5 1736,-641.25 1736,-641.25 1736,-641.25 1341.75,-8.05 1341.75,-8.05 1341.75,-8.05 1243.88,-7.35 1212.54,-7.12"/>
<polygon fill="#8292a8" stroke="#8292a8" stroke-width="1.3" points="1212.99,-4.33 1204.97,-7.07 1212.95,-9.93 1212.99,-4.33"/>
</g>
<!-- EffectPipeline&#45;&gt;IEffectPlanner -->
<g id="edge13" class="edge">
<title>EffectPipeline:ne&#45;&gt;IEffectPlanner:s</title>
<path fill="none" stroke="#397b8c" stroke-width="1.3" stroke-dasharray="5,2" d="M1210,-1158.38C1210,-1158.38 1244.5,-1157.38 1244.5,-1157.38 1244.5,-1157.38 1269,-917.75 1269,-917.75 1269,-917.75 1848,-881.75 1848,-881.75 1848,-881.75 1885,-834.5 1885,-834.5 1885,-834.5 1885,-641.25 1885,-641.25 1885,-641.25 1342,-238.18 1342,-238.18 1342,-238.18 1156.61,-237.4 1111.71,-237.22"/>
<polygon fill="none" stroke="#397b8c" stroke-width="1.3" points="1111.98,-234.42 1103.97,-237.18 1111.96,-240.02 1111.98,-234.42"/>
</g>
<!-- DamageEffectExecutor&#45;&gt;IEffectOperationExecutor -->
<g id="edge15" class="edge">
<title>DamageEffectExecutor:s&#45;&gt;IEffectOperationExecutor:nw</title>
<path fill="none" stroke="#3d8b6d" stroke-width="1.3" stroke-dasharray="5,2" d="M1597,-1010.05C1597,-1010.05 1484.31,-836.88 1458.33,-796.97"/>
<polygon fill="none" stroke="#3d8b6d" stroke-width="1.3" points="1460.82,-795.66 1454.11,-790.48 1456.13,-798.72 1460.82,-795.66"/>
</g>
<!-- ApplyStatusExecutor&#45;&gt;IEffectOperationExecutor -->
<g id="edge16" class="edge">
<title>ApplyStatusExecutor:s&#45;&gt;IEffectOperationExecutor:n</title>
<path fill="none" stroke="#3d8b6d" stroke-width="1.3" stroke-dasharray="5,2" d="M1377,-1025.52C1377,-1025.52 1475.63,-840.24 1498.37,-797.54"/>
<polygon fill="none" stroke="#3d8b6d" stroke-width="1.3" points="1500.79,-798.95 1502.08,-790.57 1495.84,-796.32 1500.79,-798.95"/>
</g>
<!-- ModifyResourceExecutor&#45;&gt;IEffectOperationExecutor -->
<g id="edge17" class="edge">
<title>ModifyResourceExecutor:s&#45;&gt;IEffectOperationExecutor:ne</title>
<path fill="none" stroke="#3d8b6d" stroke-width="1.3" stroke-dasharray="5,2" d="M1828,-1025.57C1828,-1025.57 1709,-917.75 1709,-917.75 1709,-917.75 1591.66,-820.8 1560.49,-795.05"/>
<polygon fill="none" stroke="#3d8b6d" stroke-width="1.3" points="1562.43,-793.03 1554.48,-790.09 1558.86,-797.34 1562.43,-793.03"/>
</g>
<!-- IEffectPlanner&#45;&gt;EffectBundlePlan -->
<g id="edge19" class="edge">
<title>IEffectPlanner:s&#45;&gt;EffectBundlePlan:n</title>
<path fill="none" stroke="#397b8c" stroke-width="1.3" d="M1102,-237.18C1102,-237.18 927.42,-161.53 885.14,-143.21"/>
<polygon fill="#397b8c" stroke="#397b8c" stroke-width="1.3" points="886.26,-140.64 877.81,-140.03 884.03,-145.78 886.26,-140.64"/>
<text xml:space="preserve" text-anchor="middle" x="1034.35" y="-177.95" font-family="Noto Sans KR" font-size="9.00" fill="#46566e">prepares EffectBundlePlan</text>
</g>
<!-- EffectDefinition -->
<g id="node1" class="node">
<title>EffectDefinition</title>
<path fill="#ffffff" stroke="none" stroke-width="1.4" d="M683.25,-1235C683.25,-1235 456.75,-1235 456.75,-1235 450.75,-1235 444.75,-1229 444.75,-1223 444.75,-1223 444.75,-929.75 444.75,-929.75 444.75,-923.75 450.75,-917.75 456.75,-917.75 456.75,-917.75 683.25,-917.75 683.25,-917.75 689.25,-917.75 695.25,-923.75 695.25,-929.75 695.25,-929.75 695.25,-1223 695.25,-1223 695.25,-1229 689.25,-1235 683.25,-1235"/>
<polygon fill="#fff0f3" stroke="none" points="445.75,-1197.75 445.75,-1234 694.25,-1234 694.25,-1197.75 445.75,-1197.75"/>
<text xml:space="preserve" text-anchor="start" x="453.75" y="-1211.8" font-family="Noto Sans KR" font-weight="bold" font-size="16.00" fill="#182033">&lt;&lt;content data&gt;&gt; EffectDefinition</text>
<text xml:space="preserve" text-anchor="start" x="453.75" y="-1177.75" font-family="Noto Sans KR" font-size="12.00" fill="#182033">+ EffectId: EffectId</text>
<text xml:space="preserve" text-anchor="start" x="453.75" y="-1146.75" font-family="Noto Sans KR" font-size="12.00" fill="#182033">+ Type: EffectType</text>
<text xml:space="preserve" text-anchor="start" x="453.75" y="-1115.75" font-family="Noto Sans KR" font-size="12.00" fill="#182033">+ TargetSelectorId</text>
<text xml:space="preserve" text-anchor="start" x="453.75" y="-1084.75" font-family="Noto Sans KR" font-size="12.00" fill="#182033">+ ValueExpressionId?</text>
<text xml:space="preserve" text-anchor="start" x="453.75" y="-1053.75" font-family="Noto Sans KR" font-size="12.00" fill="#182033">+ Conditions: ConditionId[]</text>
<text xml:space="preserve" text-anchor="start" x="453.75" y="-1022.75" font-family="Noto Sans KR" font-size="12.00" fill="#182033">+ Tags: Tag[]</text>
<text xml:space="preserve" text-anchor="start" x="453.75" y="-991.75" font-family="Noto Sans KR" font-size="12.00" fill="#182033">+ Timing: EffectTiming</text>
<text xml:space="preserve" text-anchor="start" x="453.75" y="-960.75" font-family="Noto Sans KR" font-size="12.00" fill="#182033">+ ExecutorKey</text>
<text xml:space="preserve" text-anchor="start" x="453.75" y="-929.75" font-family="Noto Sans KR" font-size="12.00" fill="#182033">+ ValidateSchema()</text>
<polygon fill="none" stroke="#e07b91" points="444.75,-917.75 444.75,-1235 695.25,-1235 695.25,-917.75 444.75,-917.75"/>
</g>
<!-- EffectBundle -->
<g id="node2" class="node">
<title>EffectBundle</title>
<path fill="#ffffff" stroke="none" stroke-width="1.4" d="M948,-558C948,-558 712,-558 712,-558 706,-558 700,-552 700,-546 700,-546 700,-407.75 700,-407.75 700,-401.75 706,-395.75 712,-395.75 712,-395.75 948,-395.75 948,-395.75 954,-395.75 960,-401.75 960,-407.75 960,-407.75 960,-546 960,-546 960,-552 954,-558 948,-558"/>
<polygon fill="#fff7e6" stroke="none" points="701,-520.75 701,-557 860.25,-557 860.25,-520.75 701,-520.75"/>
<text xml:space="preserve" text-anchor="start" x="736.38" y="-534.8" font-family="Noto Sans KR" font-weight="bold" font-size="16.00" fill="#182033">EffectBundle</text>
<text xml:space="preserve" text-anchor="start" x="709" y="-500.75" font-family="Noto Sans KR" font-size="12.00" fill="#182033">+ BundleId: EntityId</text>
<text xml:space="preserve" text-anchor="start" x="709" y="-469.75" font-family="Noto Sans KR" font-size="12.00" fill="#182033">+ Effects: EffectOperation[]</text>
<text xml:space="preserve" text-anchor="start" x="709" y="-438.75" font-family="Noto Sans KR" font-size="12.00" fill="#182033">+ Reactions: ReactionRule[]</text>
<text xml:space="preserve" text-anchor="start" x="709" y="-407.75" font-family="Noto Sans KR" font-size="12.00" fill="#182033">+ Policy: CommitThenReact</text>
<polygon fill="none" stroke="#e0ad4e" points="700,-395.75 700,-558 960,-558 960,-395.75 700,-395.75"/>
</g>
<!-- DefinitionNormalizer -->
<g id="node3" class="node">
<title>DefinitionNormalizer</title>
<path fill="#ffffff" stroke="none" stroke-width="1.4" d="M556.88,-803.5C556.88,-803.5 289.12,-803.5 289.12,-803.5 283.12,-803.5 277.12,-797.5 277.12,-791.5 277.12,-791.5 277.12,-684.25 277.12,-684.25 277.12,-678.25 283.12,-672.25 289.12,-672.25 289.12,-672.25 556.88,-672.25 556.88,-672.25 562.88,-672.25 568.88,-678.25 568.88,-684.25 568.88,-684.25 568.88,-791.5 568.88,-791.5 568.88,-797.5 562.88,-803.5 556.88,-803.5"/>
<polygon fill="#eaf0ff" stroke="none" points="278.12,-766.25 278.12,-802.5 567.88,-802.5 567.88,-766.25 278.12,-766.25"/>
<text xml:space="preserve" text-anchor="start" x="286.12" y="-780.3" font-family="Noto Sans KR" font-weight="bold" font-size="16.00" fill="#182033">&lt;&lt;internal stage&gt;&gt; DefinitionNormalizer</text>
<text xml:space="preserve" text-anchor="start" x="286.12" y="-746.25" font-family="Noto Sans KR" font-size="12.00" fill="#182033">+ Normalize(definition, context)</text>
<text xml:space="preserve" text-anchor="start" x="286.12" y="-715.25" font-family="Noto Sans KR" font-size="12.00" fill="#182033">+ ValidateSchema()</text>
<text xml:space="preserve" text-anchor="start" x="286.12" y="-684.25" font-family="Noto Sans KR" font-size="12.00" fill="#182033">+ ResolveTargets()</text>
<polygon fill="none" stroke="#8292f7" points="277.12,-672.25 277.12,-803.5 568.88,-803.5 568.88,-672.25 277.12,-672.25"/>
</g>
<!-- EffectOperation -->
<g id="node4" class="node">
<title>EffectOperation</title>
<path fill="#ffffff" stroke="none" stroke-width="1.4" d="M541,-542.5C541,-542.5 305,-542.5 305,-542.5 299,-542.5 293,-536.5 293,-530.5 293,-530.5 293,-423.25 293,-423.25 293,-417.25 299,-411.25 305,-411.25 305,-411.25 541,-411.25 541,-411.25 547,-411.25 553,-417.25 553,-423.25 553,-423.25 553,-530.5 553,-530.5 553,-536.5 547,-542.5 541,-542.5"/>
<polygon fill="#eefbf6" stroke="none" points="294,-505.25 294,-541.5 453.25,-541.5 453.25,-505.25 294,-505.25"/>
<text xml:space="preserve" text-anchor="start" x="318.88" y="-519.3" font-family="Noto Sans KR" font-weight="bold" font-size="16.00" fill="#182033">EffectOperation</text>
<text xml:space="preserve" text-anchor="start" x="302" y="-485.25" font-family="Noto Sans KR" font-size="12.00" fill="#182033">+ OperationId: EntityId</text>
<text xml:space="preserve" text-anchor="start" x="302" y="-454.25" font-family="Noto Sans KR" font-size="12.00" fill="#182033">DamageEffectOperation</text>
<text xml:space="preserve" text-anchor="start" x="302" y="-423.25" font-family="Noto Sans KR" font-size="12.00" fill="#182033">ApplyStatusEffectOperation</text>
<polygon fill="none" stroke="#61b99a" points="293,-411.25 293,-542.5 553,-542.5 553,-411.25 293,-411.25"/>
</g>
<!-- EffectContext -->
<g id="node5" class="node">
<title>EffectContext</title>
<path fill="#ffffff" stroke="none" stroke-width="1.4" d="M1147,-558C1147,-558 1021,-558 1021,-558 1015,-558 1009,-552 1009,-546 1009,-546 1009,-407.75 1009,-407.75 1009,-401.75 1015,-395.75 1021,-395.75 1021,-395.75 1147,-395.75 1147,-395.75 1153,-395.75 1159,-401.75 1159,-407.75 1159,-407.75 1159,-546 1159,-546 1159,-552 1153,-558 1147,-558"/>
<polygon fill="#eaf0ff" stroke="none" points="1010,-520.75 1010,-557 1158,-557 1158,-520.75 1010,-520.75"/>
<text xml:space="preserve" text-anchor="start" x="1037.5" y="-534.8" font-family="Noto Sans KR" font-weight="bold" font-size="16.00" fill="#182033">EffectContext</text>
<text xml:space="preserve" text-anchor="start" x="1018" y="-500.75" font-family="Noto Sans KR" font-size="12.00" fill="#182033">+ CasterId: EntityId</text>
<text xml:space="preserve" text-anchor="start" x="1018" y="-469.75" font-family="Noto Sans KR" font-size="12.00" fill="#182033">+ InitialTargetId: EntityId?</text>
<text xml:space="preserve" text-anchor="start" x="1018" y="-438.75" font-family="Noto Sans KR" font-size="12.00" fill="#182033">+ Source: SourceRef</text>
<text xml:space="preserve" text-anchor="start" x="1018" y="-407.75" font-family="Noto Sans KR" font-size="12.00" fill="#182033">+ RandomSeed</text>
<polygon fill="none" stroke="#8292f7" points="1009,-395.75 1009,-558 1159,-558 1159,-395.75 1009,-395.75"/>
</g>
<!-- EffectPipeline -->
<g id="node6" class="node">
<title>EffectPipeline</title>
<path fill="#ffffff" stroke="none" stroke-width="1.4" d="M1232.5,-1157.5C1232.5,-1157.5 1025.5,-1157.5 1025.5,-1157.5 1019.5,-1157.5 1013.5,-1151.5 1013.5,-1145.5 1013.5,-1145.5 1013.5,-1007.25 1013.5,-1007.25 1013.5,-1001.25 1019.5,-995.25 1025.5,-995.25 1025.5,-995.25 1232.5,-995.25 1232.5,-995.25 1238.5,-995.25 1244.5,-1001.25 1244.5,-1007.25 1244.5,-1007.25 1244.5,-1145.5 1244.5,-1145.5 1244.5,-1151.5 1238.5,-1157.5 1232.5,-1157.5"/>
<polygon fill="#eaf0ff" stroke="none" points="1014.5,-1120.25 1014.5,-1156.5 1243.5,-1156.5 1243.5,-1120.25 1014.5,-1120.25"/>
<text xml:space="preserve" text-anchor="start" x="1081.38" y="-1134.3" font-family="Noto Sans KR" font-weight="bold" font-size="16.00" fill="#182033">EffectPipeline</text>
<text xml:space="preserve" text-anchor="start" x="1022.5" y="-1100.25" font-family="Noto Sans KR" font-size="12.00" fill="#182033">+ Execute(EffectOperation, EffectContext)</text>
<text xml:space="preserve" text-anchor="start" x="1022.5" y="-1069.25" font-family="Noto Sans KR" font-size="12.00" fill="#182033">+ Execute(EffectBundle, EffectContext)</text>
<text xml:space="preserve" text-anchor="start" x="1022.5" y="-1038.25" font-family="Noto Sans KR" font-size="12.00" fill="#182033">+ Prepare(EffectBundle, EffectContext)</text>
<text xml:space="preserve" text-anchor="start" x="1022.5" y="-1007.25" font-family="Noto Sans KR" font-size="12.00" fill="#182033">&#45; BuildMutationAndOutboxPlan()</text>
<polygon fill="none" stroke="#8292f7" points="1013.5,-995.25 1013.5,-1157.5 1244.5,-1157.5 1244.5,-995.25 1013.5,-995.25"/>
</g>
<!-- IEffectExecutor -->
<g id="node7" class="node">
<title>IEffectExecutor</title>
<path fill="#ffffff" stroke="none" stroke-width="1.4" d="M801,-322.75C801,-322.75 305,-322.75 305,-322.75 299,-322.75 293,-316.75 293,-310.75 293,-310.75 293,-234.5 293,-234.5 293,-228.5 299,-222.5 305,-222.5 305,-222.5 801,-222.5 801,-222.5 807,-222.5 813,-228.5 813,-234.5 813,-234.5 813,-310.75 813,-310.75 813,-316.75 807,-322.75 801,-322.75"/>
<polygon fill="#eefbf6" stroke="none" points="294,-285.5 294,-321.75 641.5,-321.75 641.5,-285.5 294,-285.5"/>
<text xml:space="preserve" text-anchor="start" x="344.75" y="-299.55" font-family="Noto Sans KR" font-weight="bold" font-size="16.00" fill="#182033">&lt;&lt;public interface&gt;&gt; IEffectExecutor</text>
<text xml:space="preserve" text-anchor="start" x="302" y="-265.5" font-family="Noto Sans KR" font-size="12.00" fill="#182033">+ Execute(EffectOperation, EffectContext): EffectOperationResult</text>
<text xml:space="preserve" text-anchor="start" x="302" y="-234.5" font-family="Noto Sans KR" font-size="12.00" fill="#182033">+ Execute(EffectBundle, EffectContext): EffectBundleResult</text>
<polygon fill="none" stroke="#61b99a" points="293,-222.5 293,-322.75 813,-322.75 813,-222.5 293,-222.5"/>
</g>
<!-- IEffectOperationExecutor -->
<g id="node8" class="node">
<title>IEffectOperationExecutor</title>
<path fill="#ffffff" stroke="none" stroke-width="1.4" d="M1662.75,-788C1662.75,-788 1343.25,-788 1343.25,-788 1337.25,-788 1331.25,-782 1331.25,-776 1331.25,-776 1331.25,-699.75 1331.25,-699.75 1331.25,-693.75 1337.25,-687.75 1343.25,-687.75 1343.25,-687.75 1662.75,-687.75 1662.75,-687.75 1668.75,-687.75 1674.75,-693.75 1674.75,-699.75 1674.75,-699.75 1674.75,-776 1674.75,-776 1674.75,-782 1668.75,-788 1662.75,-788"/>
<polygon fill="#f3eefc" stroke="none" points="1332.25,-750.75 1332.25,-787 1673.75,-787 1673.75,-750.75 1332.25,-750.75"/>
<text xml:space="preserve" text-anchor="start" x="1340.25" y="-764.8" font-family="Noto Sans KR" font-weight="bold" font-size="16.00" fill="#182033">&lt;&lt;internal interface&gt;&gt; IEffectOperationExecutor</text>
<text xml:space="preserve" text-anchor="start" x="1340.25" y="-730.75" font-family="Noto Sans KR" font-size="12.00" fill="#182033">+ CanExecute(EffectOperation, EffectContext): bool</text>
<text xml:space="preserve" text-anchor="start" x="1340.25" y="-699.75" font-family="Noto Sans KR" font-size="12.00" fill="#182033">+ BuildPlan(EffectOperation, EffectContext): OperationPlan</text>
<polygon fill="none" stroke="#ab8fe0" points="1331.25,-687.75 1331.25,-788 1674.75,-788 1674.75,-687.75 1331.25,-687.75"/>
</g>
<!-- DamageEffectExecutor -->
<g id="node9" class="node">
<title>DamageEffectExecutor</title>
<path fill="#ffffff" stroke="none" stroke-width="1.4" d="M1672.38,-1142C1672.38,-1142 1521.62,-1142 1521.62,-1142 1515.62,-1142 1509.62,-1136 1509.62,-1130 1509.62,-1130 1509.62,-1022.75 1509.62,-1022.75 1509.62,-1016.75 1515.62,-1010.75 1521.62,-1010.75 1521.62,-1010.75 1672.38,-1010.75 1672.38,-1010.75 1678.38,-1010.75 1684.38,-1016.75 1684.38,-1022.75 1684.38,-1022.75 1684.38,-1130 1684.38,-1130 1684.38,-1136 1678.38,-1142 1672.38,-1142"/>
<polygon fill="#eefbf6" stroke="none" points="1510.62,-1104.75 1510.62,-1141 1683.38,-1141 1683.38,-1104.75 1510.62,-1104.75"/>
<text xml:space="preserve" text-anchor="start" x="1518.62" y="-1118.8" font-family="Noto Sans KR" font-weight="bold" font-size="16.00" fill="#182033">DamageEffectExecutor</text>
<text xml:space="preserve" text-anchor="start" x="1518.62" y="-1084.75" font-family="Noto Sans KR" font-size="12.00" fill="#182033">+ BuildDamageRequest()</text>
<text xml:space="preserve" text-anchor="start" x="1518.62" y="-1053.75" font-family="Noto Sans KR" font-size="12.00" fill="#182033">+ CallCombatResolver()</text>
<text xml:space="preserve" text-anchor="start" x="1518.62" y="-1022.75" font-family="Noto Sans KR" font-size="12.00" fill="#182033">+ BuildDamageMutation()</text>
<polygon fill="none" stroke="#61b99a" points="1509.62,-1010.75 1509.62,-1142 1684.38,-1142 1684.38,-1010.75 1509.62,-1010.75"/>
</g>
<!-- ApplyStatusExecutor -->
<g id="node10" class="node">
<title>ApplyStatusExecutor</title>
<path fill="#ffffff" stroke="none" stroke-width="1.4" d="M1448.25,-1126.5C1448.25,-1126.5 1305.75,-1126.5 1305.75,-1126.5 1299.75,-1126.5 1293.75,-1120.5 1293.75,-1114.5 1293.75,-1114.5 1293.75,-1038.25 1293.75,-1038.25 1293.75,-1032.25 1299.75,-1026.25 1305.75,-1026.25 1305.75,-1026.25 1448.25,-1026.25 1448.25,-1026.25 1454.25,-1026.25 1460.25,-1032.25 1460.25,-1038.25 1460.25,-1038.25 1460.25,-1114.5 1460.25,-1114.5 1460.25,-1120.5 1454.25,-1126.5 1448.25,-1126.5"/>
<polygon fill="#eefbf6" stroke="none" points="1294.75,-1089.25 1294.75,-1125.5 1459.25,-1125.5 1459.25,-1089.25 1294.75,-1089.25"/>
<text xml:space="preserve" text-anchor="start" x="1305.38" y="-1103.3" font-family="Noto Sans KR" font-weight="bold" font-size="16.00" fill="#182033">ApplyStatusExecutor</text>
<text xml:space="preserve" text-anchor="start" x="1302.75" y="-1069.25" font-family="Noto Sans KR" font-size="12.00" fill="#182033">+ BuildApplyStatusRequest()</text>
<text xml:space="preserve" text-anchor="start" x="1302.75" y="-1038.25" font-family="Noto Sans KR" font-size="12.00" fill="#182033">+ BuildReactionCommand()</text>
<polygon fill="none" stroke="#61b99a" points="1293.75,-1026.25 1293.75,-1126.5 1460.25,-1126.5 1460.25,-1026.25 1293.75,-1026.25"/>
</g>
<!-- ModifyResourceExecutor -->
<g id="node11" class="node">
<title>ModifyResourceExecutor</title>
<path fill="#ffffff" stroke="none" stroke-width="1.4" d="M1910.5,-1126.5C1910.5,-1126.5 1745.5,-1126.5 1745.5,-1126.5 1739.5,-1126.5 1733.5,-1120.5 1733.5,-1114.5 1733.5,-1114.5 1733.5,-1038.25 1733.5,-1038.25 1733.5,-1032.25 1739.5,-1026.25 1745.5,-1026.25 1745.5,-1026.25 1910.5,-1026.25 1910.5,-1026.25 1916.5,-1026.25 1922.5,-1032.25 1922.5,-1038.25 1922.5,-1038.25 1922.5,-1114.5 1922.5,-1114.5 1922.5,-1120.5 1916.5,-1126.5 1910.5,-1126.5"/>
<polygon fill="#eefbf6" stroke="none" points="1734.5,-1089.25 1734.5,-1125.5 1921.5,-1125.5 1921.5,-1089.25 1734.5,-1089.25"/>
<text xml:space="preserve" text-anchor="start" x="1742.5" y="-1103.3" font-family="Noto Sans KR" font-weight="bold" font-size="16.00" fill="#182033">ModifyResourceExecutor</text>
<text xml:space="preserve" text-anchor="start" x="1742.5" y="-1069.25" font-family="Noto Sans KR" font-size="12.00" fill="#182033">+ BuildResourceMutation()</text>
<text xml:space="preserve" text-anchor="start" x="1742.5" y="-1038.25" font-family="Noto Sans KR" font-size="12.00" fill="#182033">+ ValidateInvariant()</text>
<polygon fill="none" stroke="#61b99a" points="1733.5,-1026.25 1733.5,-1126.5 1922.5,-1126.5 1922.5,-1026.25 1733.5,-1026.25"/>
</g>
<!-- TargetSelector -->
<g id="node12" class="node">
<title>TargetSelector</title>
<path fill="#ffffff" stroke="none" stroke-width="1.4" d="M826,-819C826,-819 630,-819 630,-819 624,-819 618,-813 618,-807 618,-807 618,-668.75 618,-668.75 618,-662.75 624,-656.75 630,-656.75 630,-656.75 826,-656.75 826,-656.75 832,-656.75 838,-662.75 838,-668.75 838,-668.75 838,-807 838,-807 838,-813 832,-819 826,-819"/>
<polygon fill="#f3eefc" stroke="none" points="619,-781.75 619,-818 752.75,-818 752.75,-781.75 619,-781.75"/>
<text xml:space="preserve" text-anchor="start" x="636" y="-795.8" font-family="Noto Sans KR" font-weight="bold" font-size="16.00" fill="#182033">TargetSelector</text>
<text xml:space="preserve" text-anchor="start" x="627" y="-761.75" font-family="Noto Sans KR" font-size="12.00" fill="#182033">+ SelectorType</text>
<text xml:space="preserve" text-anchor="start" x="627" y="-730.75" font-family="Noto Sans KR" font-size="12.00" fill="#182033">+ Range/Shape/Limit</text>
<text xml:space="preserve" text-anchor="start" x="627" y="-699.75" font-family="Noto Sans KR" font-size="12.00" fill="#182033">+ Filters</text>
<text xml:space="preserve" text-anchor="start" x="627" y="-668.75" font-family="Noto Sans KR" font-size="12.00" fill="#182033">+ Select(ctx): TargetSet</text>
<polygon fill="none" stroke="#ab8fe0" points="618,-656.75 618,-819 838,-819 838,-656.75 618,-656.75"/>
</g>
<!-- ValueExpression -->
<g id="node13" class="node">
<title>ValueExpression</title>
<path fill="#ffffff" stroke="none" stroke-width="1.4" d="M216,-834.5C216,-834.5 20,-834.5 20,-834.5 14,-834.5 8,-828.5 8,-822.5 8,-822.5 8,-653.25 8,-653.25 8,-647.25 14,-641.25 20,-641.25 20,-641.25 216,-641.25 216,-641.25 222,-641.25 228,-647.25 228,-653.25 228,-653.25 228,-822.5 228,-822.5 228,-828.5 222,-834.5 216,-834.5"/>
<polygon fill="#f3eefc" stroke="none" points="9,-797.25 9,-833.5 149.5,-833.5 149.5,-797.25 9,-797.25"/>
<text xml:space="preserve" text-anchor="start" x="23.38" y="-811.3" font-family="Noto Sans KR" font-weight="bold" font-size="16.00" fill="#182033">ValueExpression</text>
<text xml:space="preserve" text-anchor="start" x="17" y="-777.25" font-family="Noto Sans KR" font-size="12.00" fill="#182033">+ BaseValue</text>
<text xml:space="preserve" text-anchor="start" x="17" y="-746.25" font-family="Noto Sans KR" font-size="12.00" fill="#182033">+ ScalingTerms</text>
<text xml:space="preserve" text-anchor="start" x="17" y="-715.25" font-family="Noto Sans KR" font-size="12.00" fill="#182033">+ Min/Max</text>
<text xml:space="preserve" text-anchor="start" x="17" y="-684.25" font-family="Noto Sans KR" font-size="12.00" fill="#182033">+ Evaluate(ctx): decimal</text>
<text xml:space="preserve" text-anchor="start" x="17" y="-653.25" font-family="Noto Sans KR" font-size="12.00" fill="#182033">+ BuildBreakdown()</text>
<polygon fill="none" stroke="#ab8fe0" points="8,-641.25 8,-834.5 228,-834.5 228,-641.25 8,-641.25"/>
</g>
<!-- EffectCondition -->
<g id="node14" class="node">
<title>EffectCondition</title>
<path fill="#ffffff" stroke="none" stroke-width="1.4" d="M1001.38,-803.5C1001.38,-803.5 898.62,-803.5 898.62,-803.5 892.62,-803.5 886.62,-797.5 886.62,-791.5 886.62,-791.5 886.62,-684.25 886.62,-684.25 886.62,-678.25 892.62,-672.25 898.62,-672.25 898.62,-672.25 1001.38,-672.25 1001.38,-672.25 1007.38,-672.25 1013.38,-678.25 1013.38,-684.25 1013.38,-684.25 1013.38,-791.5 1013.38,-791.5 1013.38,-797.5 1007.38,-803.5 1001.38,-803.5"/>
<polygon fill="#f3eefc" stroke="none" points="887.62,-766.25 887.62,-802.5 1012.38,-802.5 1012.38,-766.25 887.62,-766.25"/>
<text xml:space="preserve" text-anchor="start" x="895.62" y="-780.3" font-family="Noto Sans KR" font-weight="bold" font-size="16.00" fill="#182033">EffectCondition</text>
<text xml:space="preserve" text-anchor="start" x="895.62" y="-746.25" font-family="Noto Sans KR" font-size="12.00" fill="#182033">+ ConditionType</text>
<text xml:space="preserve" text-anchor="start" x="895.62" y="-715.25" font-family="Noto Sans KR" font-size="12.00" fill="#182033">+ Params</text>
<text xml:space="preserve" text-anchor="start" x="895.62" y="-684.25" font-family="Noto Sans KR" font-size="12.00" fill="#182033">+ Evaluate(ctx): bool</text>
<polygon fill="none" stroke="#ab8fe0" points="886.62,-672.25 886.62,-803.5 1013.38,-803.5 1013.38,-672.25 886.62,-672.25"/>
</g>
<!-- EffectResult -->
<g id="node15" class="node">
<title>EffectResult</title>
<path fill="#ffffff" stroke="none" stroke-width="1.4" d="M1329.75,-139.25C1329.75,-139.25 1076.25,-139.25 1076.25,-139.25 1070.25,-139.25 1064.25,-133.25 1064.25,-127.25 1064.25,-127.25 1064.25,-20 1064.25,-20 1064.25,-14 1070.25,-8 1076.25,-8 1076.25,-8 1329.75,-8 1329.75,-8 1335.75,-8 1341.75,-14 1341.75,-20 1341.75,-20 1341.75,-127.25 1341.75,-127.25 1341.75,-133.25 1335.75,-139.25 1329.75,-139.25"/>
<polygon fill="#f0f3f9" stroke="none" points="1065.25,-102 1065.25,-138.25 1340.75,-138.25 1340.75,-102 1065.25,-102"/>
<text xml:space="preserve" text-anchor="start" x="1162.5" y="-116.05" font-family="Noto Sans KR" font-weight="bold" font-size="16.00" fill="#182033">EffectResult</text>
<text xml:space="preserve" text-anchor="start" x="1073.25" y="-82" font-family="Noto Sans KR" font-size="12.00" fill="#182033">+ Succeeded: bool</text>
<text xml:space="preserve" text-anchor="start" x="1073.25" y="-51" font-family="Noto Sans KR" font-size="12.00" fill="#182033">EffectOperationResult: OperationId</text>
<text xml:space="preserve" text-anchor="start" x="1073.25" y="-20" font-family="Noto Sans KR" font-size="12.00" fill="#182033">EffectBundleResult: Committed, BundleId, counts</text>
<polygon fill="none" stroke="#99a8bd" points="1064.25,-8 1064.25,-139.25 1341.75,-139.25 1341.75,-8 1064.25,-8"/>
</g>
<!-- IEffectPlanner -->
<g id="node16" class="node">
<title>IEffectPlanner</title>
<path fill="#ffffff" stroke="none" stroke-width="1.4" d="M1330,-307.25C1330,-307.25 874,-307.25 874,-307.25 868,-307.25 862,-301.25 862,-295.25 862,-295.25 862,-250 862,-250 862,-244 868,-238 874,-238 874,-238 1330,-238 1330,-238 1336,-238 1342,-244 1342,-250 1342,-250 1342,-295.25 1342,-295.25 1342,-301.25 1336,-307.25 1330,-307.25"/>
<polygon fill="#e9fbff" stroke="none" points="863,-270 863,-306.25 1174.5,-306.25 1174.5,-270 863,-270"/>
<text xml:space="preserve" text-anchor="start" x="899.12" y="-284.05" font-family="Noto Sans KR" font-weight="bold" font-size="16.00" fill="#182033">&lt;&lt;public interface&gt;&gt; IEffectPlanner</text>
<text xml:space="preserve" text-anchor="start" x="871" y="-250" font-family="Noto Sans KR" font-size="12.00" fill="#182033">+ Prepare(EffectBundle, EffectContext): EffectBundlePlan</text>
<polygon fill="none" stroke="#54b7cf" points="862,-238 862,-307.25 1342,-307.25 1342,-238 862,-238"/>
</g>
<!-- EffectBundlePlan -->
<g id="node17" class="node">
<title>EffectBundlePlan</title>
<path fill="#ffffff" stroke="none" stroke-width="1.4" d="M1003.5,-139.25C1003.5,-139.25 748.5,-139.25 748.5,-139.25 742.5,-139.25 736.5,-133.25 736.5,-127.25 736.5,-127.25 736.5,-20 736.5,-20 736.5,-14 742.5,-8 748.5,-8 748.5,-8 1003.5,-8 1003.5,-8 1009.5,-8 1015.5,-14 1015.5,-20 1015.5,-20 1015.5,-127.25 1015.5,-127.25 1015.5,-133.25 1009.5,-139.25 1003.5,-139.25"/>
<polygon fill="#e9fbff" stroke="none" points="737.5,-102 737.5,-138.25 1014.5,-138.25 1014.5,-102 737.5,-102"/>
<text xml:space="preserve" text-anchor="start" x="745.5" y="-116.05" font-family="Noto Sans KR" font-weight="bold" font-size="16.00" fill="#182033">&lt;&lt;public contract&gt;&gt; EffectBundlePlan</text>
<text xml:space="preserve" text-anchor="start" x="745.5" y="-82" font-family="Noto Sans KR" font-size="12.00" fill="#182033">+ BundleId: EntityId</text>
<text xml:space="preserve" text-anchor="start" x="745.5" y="-51" font-family="Noto Sans KR" font-size="12.00" fill="#182033">+ PrimaryOperations: EffectOperation[]</text>
<text xml:space="preserve" text-anchor="start" x="745.5" y="-20" font-family="Noto Sans KR" font-size="12.00" fill="#182033">+ Reactions: ReactionRule[]</text>
<polygon fill="none" stroke="#54b7cf" points="736.5,-8 736.5,-139.25 1015.5,-139.25 1015.5,-8 736.5,-8"/>
</g>
<!-- Legend -->
<g id="node18" class="node">
<title>Legend</title>
<polygon fill="#ffffff" stroke="#99a8bd" stroke-width="1.4" points="2280.08,-1117.36 1971.92,-1117.36 1971.92,-1035.39 2286.08,-1035.39 2286.08,-1111.36 2280.08,-1117.36"/>
<polyline fill="none" stroke="#99a8bd" stroke-width="1.4" points="2280.08,-1117.36 2280.08,-1111.36"/>
<polyline fill="none" stroke="#99a8bd" stroke-width="1.4" points="2286.08,-1111.36 2280.08,-1111.36"/>
<text xml:space="preserve" text-anchor="middle" x="2129" y="-1097.58" font-family="Noto Sans KR" font-size="14.00" fill="#182033">Relationship guide</text>
<text xml:space="preserve" text-anchor="middle" x="2129" y="-1080.33" font-family="Noto Sans KR" font-size="14.00" fill="#182033">solid arrow: data / runtime input</text>
<text xml:space="preserve" text-anchor="middle" x="2129" y="-1063.08" font-family="Noto Sans KR" font-size="14.00" fill="#182033">dashed hollow arrow: interface implementation</text>
<text xml:space="preserve" text-anchor="middle" x="2129" y="-1045.83" font-family="Noto Sans KR" font-size="14.00" fill="#182033">purple arrow: operation dispatch</text>
</g>
</g>
</svg>
