<?xml version="1.0" encoding="UTF-8" standalone="no"?>
<!DOCTYPE svg PUBLIC "-//W3C//DTD SVG 1.1//EN"
 "http://www.w3.org/Graphics/SVG/1.1/DTD/svg11.dtd">
<!-- Generated by graphviz version 15.0.0 (20260523.1842)
 -->
<!-- Title: G Pages: 1 -->
<svg width="1319pt" height="1676pt"
 viewBox="9.00 9.00 1310.00 1668.00" xmlns="http://www.w3.org/2000/svg" xmlns:xlink="http://www.w3.org/1999/xlink">
<g id="graph0" class="graph" transform="scale(1 1) rotate(0) translate(26.64 1649.84)">
<title>G</title>
<polygon fill="#ffffff" stroke="none" points="-18,18 -18,-1641.2 1283.69,-1641.2 1283.69,18 -18,18"/>
<!-- EffectDefinition -->
<g id="node1" class="node">
<title>EffectDefinition</title>
<path fill="#ffffff" stroke="none" stroke-width="1.4" d="M756.2,-1131.6C756.2,-1131.6 627.43,-1131.6 627.43,-1131.6 621.43,-1131.6 615.43,-1125.6 615.43,-1119.6 615.43,-1119.6 615.43,-832.8 615.43,-832.8 615.43,-826.8 621.43,-820.8 627.43,-820.8 627.43,-820.8 756.2,-820.8 756.2,-820.8 762.2,-820.8 768.2,-826.8 768.2,-832.8 768.2,-832.8 768.2,-1119.6 768.2,-1119.6 768.2,-1125.6 762.2,-1131.6 756.2,-1131.6"/>
<polygon fill="#fff0f3" stroke="none" points="616.43,-1095.4 616.43,-1130.6 767.2,-1130.6 767.2,-1095.4 616.43,-1095.4"/>
<text xml:space="preserve" text-anchor="start" x="637.16" y="-1109.2" font-family="Noto Sans CJK KR" font-weight="bold" font-size="16.00" fill="#182033">EffectDefinition</text>
<text xml:space="preserve" text-anchor="start" x="624.43" y="-1075.4" font-family="Noto Sans CJK KR" font-size="12.00" fill="#182033">+ EffectId: EffectId</text>
<text xml:space="preserve" text-anchor="start" x="624.43" y="-1045" font-family="Noto Sans CJK KR" font-size="12.00" fill="#182033">+ Type: EffectType</text>
<text xml:space="preserve" text-anchor="start" x="624.43" y="-1014.6" font-family="Noto Sans CJK KR" font-size="12.00" fill="#182033">+ TargetSelectorId</text>
<text xml:space="preserve" text-anchor="start" x="624.43" y="-984.2" font-family="Noto Sans CJK KR" font-size="12.00" fill="#182033">+ ValueExpressionId?</text>
<text xml:space="preserve" text-anchor="start" x="624.43" y="-953.8" font-family="Noto Sans CJK KR" font-size="12.00" fill="#182033">+ Conditions: ConditionId[]</text>
<text xml:space="preserve" text-anchor="start" x="624.43" y="-923.4" font-family="Noto Sans CJK KR" font-size="12.00" fill="#182033">+ Tags: Tag[]</text>
<text xml:space="preserve" text-anchor="start" x="624.43" y="-893" font-family="Noto Sans CJK KR" font-size="12.00" fill="#182033">+ Timing: EffectTiming</text>
<text xml:space="preserve" text-anchor="start" x="624.43" y="-862.6" font-family="Noto Sans CJK KR" font-size="12.00" fill="#182033">+ ExecutorKey</text>
<text xml:space="preserve" text-anchor="start" x="624.43" y="-832.2" font-family="Noto Sans CJK KR" font-size="12.00" fill="#182033">+ ValidateSchema()</text>
<polygon fill="none" stroke="#e07b91" points="615.43,-820.8 615.43,-1131.6 768.2,-1131.6 768.2,-820.8 615.43,-820.8"/>
</g>
<!-- TargetSelector -->
<g id="node11" class="node">
<title>TargetSelector</title>
<path fill="#ffffff" stroke="none" stroke-width="1.4" d="M1253.69,-750.6C1253.69,-750.6 1057.69,-750.6 1057.69,-750.6 1051.69,-750.6 1045.69,-744.6 1045.69,-738.6 1045.69,-738.6 1045.69,-603.8 1045.69,-603.8 1045.69,-597.8 1051.69,-591.8 1057.69,-591.8 1057.69,-591.8 1253.69,-591.8 1253.69,-591.8 1259.69,-591.8 1265.69,-597.8 1265.69,-603.8 1265.69,-603.8 1265.69,-738.6 1265.69,-738.6 1265.69,-744.6 1259.69,-750.6 1253.69,-750.6"/>
<polygon fill="#f3eefc" stroke="none" points="1046.69,-714.4 1046.69,-749.6 1177.42,-749.6 1177.42,-714.4 1046.69,-714.4"/>
<text xml:space="preserve" text-anchor="start" x="1061.41" y="-728.2" font-family="Noto Sans CJK KR" font-weight="bold" font-size="16.00" fill="#182033">TargetSelector</text>
<text xml:space="preserve" text-anchor="start" x="1054.69" y="-694.4" font-family="Noto Sans CJK KR" font-size="12.00" fill="#182033">+ SelectorType</text>
<text xml:space="preserve" text-anchor="start" x="1054.69" y="-664" font-family="Noto Sans CJK KR" font-size="12.00" fill="#182033">+ Range/Shape/Limit</text>
<text xml:space="preserve" text-anchor="start" x="1054.69" y="-633.6" font-family="Noto Sans CJK KR" font-size="12.00" fill="#182033">+ Filters</text>
<text xml:space="preserve" text-anchor="start" x="1054.69" y="-603.2" font-family="Noto Sans CJK KR" font-size="12.00" fill="#182033">+ Select(ctx): TargetSet</text>
<polygon fill="none" stroke="#ab8fe0" points="1045.69,-591.8 1045.69,-750.6 1265.69,-750.6 1265.69,-591.8 1045.69,-591.8"/>
</g>
<!-- EffectDefinition&#45;&gt;TargetSelector -->
<g id="edge2" class="edge">
<title>EffectDefinition&#45;&gt;TargetSelector</title>
<path fill="none" stroke="#59687e" stroke-width="1.3" d="M768.08,-866.4C878.21,-866.4 1068.69,-866.4 1068.69,-866.4 1068.69,-866.4 1068.69,-760.56 1068.69,-760.56"/>
<polygon fill="#59687e" stroke="#59687e" stroke-width="1.3" points="1071.49,-760.56 1068.69,-752.56 1065.89,-760.56 1071.49,-760.56"/>
<text xml:space="preserve" text-anchor="middle" x="998.75" y="-799.4" font-family="Noto Sans CJK KR" font-size="14.00" fill="#46566e">uses</text>
</g>
<!-- ValueExpression -->
<g id="node12" class="node">
<title>ValueExpression</title>
<path fill="#ffffff" stroke="none" stroke-width="1.4" d="M1253.69,-1280.8C1253.69,-1280.8 1057.69,-1280.8 1057.69,-1280.8 1051.69,-1280.8 1045.69,-1274.8 1045.69,-1268.8 1045.69,-1268.8 1045.69,-1103.6 1045.69,-1103.6 1045.69,-1097.6 1051.69,-1091.6 1057.69,-1091.6 1057.69,-1091.6 1253.69,-1091.6 1253.69,-1091.6 1259.69,-1091.6 1265.69,-1097.6 1265.69,-1103.6 1265.69,-1103.6 1265.69,-1268.8 1265.69,-1268.8 1265.69,-1274.8 1259.69,-1280.8 1253.69,-1280.8"/>
<polygon fill="#f3eefc" stroke="none" points="1046.69,-1244.6 1046.69,-1279.8 1181.41,-1279.8 1181.41,-1244.6 1046.69,-1244.6"/>
<text xml:space="preserve" text-anchor="start" x="1056.26" y="-1258.4" font-family="Noto Sans CJK KR" font-weight="bold" font-size="16.00" fill="#182033">ValueExpression</text>
<text xml:space="preserve" text-anchor="start" x="1054.69" y="-1224.6" font-family="Noto Sans CJK KR" font-size="12.00" fill="#182033">+ BaseValue</text>
<text xml:space="preserve" text-anchor="start" x="1054.69" y="-1194.2" font-family="Noto Sans CJK KR" font-size="12.00" fill="#182033">+ ScalingTerms</text>
<text xml:space="preserve" text-anchor="start" x="1054.69" y="-1163.8" font-family="Noto Sans CJK KR" font-size="12.00" fill="#182033">+ Min/Max</text>
<text xml:space="preserve" text-anchor="start" x="1054.69" y="-1133.4" font-family="Noto Sans CJK KR" font-size="12.00" fill="#182033">+ Evaluate(ctx): decimal</text>
<text xml:space="preserve" text-anchor="start" x="1054.69" y="-1103" font-family="Noto Sans CJK KR" font-size="12.00" fill="#182033">+ BuildBreakdown()</text>
<polygon fill="none" stroke="#ab8fe0" points="1045.69,-1091.6 1045.69,-1280.8 1265.69,-1280.8 1265.69,-1091.6 1045.69,-1091.6"/>
</g>
<!-- EffectDefinition&#45;&gt;ValueExpression -->
<g id="edge3" class="edge">
<title>EffectDefinition&#45;&gt;ValueExpression</title>
<path fill="none" stroke="#59687e" stroke-width="1.3" d="M768.15,-1111.6C768.15,-1111.6 1035.91,-1111.6 1035.91,-1111.6"/>
<polygon fill="#59687e" stroke="#59687e" stroke-width="1.3" points="1035.91,-1114.4 1043.91,-1111.6 1035.91,-1108.8 1035.91,-1114.4"/>
<text xml:space="preserve" text-anchor="middle" x="998.75" y="-1101.4" font-family="Noto Sans CJK KR" font-size="14.00" fill="#46566e">optional</text>
</g>
<!-- EffectCondition -->
<g id="node13" class="node">
<title>EffectCondition</title>
<path fill="#ffffff" stroke="none" stroke-width="1.4" d="M1207.36,-1040.4C1207.36,-1040.4 1104.03,-1040.4 1104.03,-1040.4 1098.03,-1040.4 1092.03,-1034.4 1092.03,-1028.4 1092.03,-1028.4 1092.03,-924 1092.03,-924 1092.03,-918 1098.03,-912 1104.03,-912 1104.03,-912 1207.36,-912 1207.36,-912 1213.36,-912 1219.36,-918 1219.36,-924 1219.36,-924 1219.36,-1028.4 1219.36,-1028.4 1219.36,-1034.4 1213.36,-1040.4 1207.36,-1040.4"/>
<polygon fill="#f3eefc" stroke="none" points="1093.03,-1004.2 1093.03,-1039.4 1218.36,-1039.4 1218.36,-1004.2 1093.03,-1004.2"/>
<text xml:space="preserve" text-anchor="start" x="1101.03" y="-1018" font-family="Noto Sans CJK KR" font-weight="bold" font-size="16.00" fill="#182033">EffectCondition</text>
<text xml:space="preserve" text-anchor="start" x="1101.03" y="-984.2" font-family="Noto Sans CJK KR" font-size="12.00" fill="#182033">+ ConditionType</text>
<text xml:space="preserve" text-anchor="start" x="1101.03" y="-953.8" font-family="Noto Sans CJK KR" font-size="12.00" fill="#182033">+ Params</text>
<text xml:space="preserve" text-anchor="start" x="1101.03" y="-923.4" font-family="Noto Sans CJK KR" font-size="12.00" fill="#182033">+ Evaluate(ctx): bool</text>
<polygon fill="none" stroke="#ab8fe0" points="1092.03,-912 1092.03,-1040.4 1219.36,-1040.4 1219.36,-912 1092.03,-912"/>
</g>
<!-- EffectDefinition&#45;&gt;EffectCondition -->
<g id="edge4" class="edge">
<title>EffectDefinition&#45;&gt;EffectCondition</title>
<path fill="none" stroke="#59687e" stroke-width="1.3" d="M768.15,-976.2C768.15,-976.2 1082.37,-976.2 1082.37,-976.2"/>
<polygon fill="#59687e" stroke="#59687e" stroke-width="1.3" points="1082.37,-979 1090.37,-976.2 1082.37,-973.4 1082.37,-979"/>
<text xml:space="preserve" text-anchor="middle" x="998.75" y="-980.4" font-family="Noto Sans CJK KR" font-size="14.00" fill="#46566e">0..*</text>
</g>
<!-- EffectBundle -->
<g id="node2" class="node">
<title>EffectBundle</title>
<path fill="#ffffff" stroke="none" stroke-width="1.4" d="M274.33,-1338.6C274.33,-1338.6 38.33,-1338.6 38.33,-1338.6 32.33,-1338.6 26.33,-1332.6 26.33,-1326.6 26.33,-1326.6 26.33,-1191.8 26.33,-1191.8 26.33,-1185.8 32.33,-1179.8 38.33,-1179.8 38.33,-1179.8 274.33,-1179.8 274.33,-1179.8 280.33,-1179.8 286.33,-1185.8 286.33,-1191.8 286.33,-1191.8 286.33,-1326.6 286.33,-1326.6 286.33,-1332.6 280.33,-1338.6 274.33,-1338.6"/>
<polygon fill="#fff7e6" stroke="none" points="27.33,-1302.4 27.33,-1337.6 230.06,-1337.6 230.06,-1302.4 27.33,-1302.4"/>
<text xml:space="preserve" text-anchor="start" x="83.81" y="-1316.2" font-family="Noto Sans CJK KR" font-weight="bold" font-size="16.00" fill="#182033">EffectBundle</text>
<text xml:space="preserve" text-anchor="start" x="35.33" y="-1282.4" font-family="Noto Sans CJK KR" font-size="12.00" fill="#182033">+ BundleId</text>
<text xml:space="preserve" text-anchor="start" x="35.33" y="-1252" font-family="Noto Sans CJK KR" font-size="12.00" fill="#182033">+ Effects: EffectDefinition[]</text>
<text xml:space="preserve" text-anchor="start" x="35.33" y="-1221.6" font-family="Noto Sans CJK KR" font-size="12.00" fill="#182033">+ Reactions: ReactionDefinition[]</text>
<text xml:space="preserve" text-anchor="start" x="35.33" y="-1191.2" font-family="Noto Sans CJK KR" font-size="12.00" fill="#182033">+ ExecutionPolicy: CommitThenReact</text>
<polygon fill="none" stroke="#e0ad4e" points="26.33,-1179.8 26.33,-1338.6 286.33,-1338.6 286.33,-1179.8 26.33,-1179.8"/>
</g>
<!-- EffectBundle&#45;&gt;EffectDefinition -->
<g id="edge1" class="edge">
<title>EffectBundle&#45;&gt;EffectDefinition</title>
<path fill="none" stroke="#59687e" stroke-width="1.3" d="M286.27,-1230.3C444.72,-1230.3 691.69,-1230.3 691.69,-1230.3 691.69,-1230.3 691.69,-1142.3 691.69,-1142.3"/>
<polygon fill="#59687e" stroke="#59687e" stroke-width="1.3" points="691.69,-1142.1 688.49,-1137.3 691.69,-1132.5 694.89,-1137.3 691.69,-1142.1"/>
<text xml:space="preserve" text-anchor="middle" x="372.23" y="-1263.4" font-family="Noto Sans CJK KR" font-size="14.00" fill="#46566e">contains 1..*</text>
</g>
<!-- EffectRequest -->
<g id="node3" class="node">
<title>EffectRequest</title>
<path fill="#ffffff" stroke="none" stroke-width="1.4" d="M254.33,-1623.2C254.33,-1623.2 58.33,-1623.2 58.33,-1623.2 52.33,-1623.2 46.33,-1617.2 46.33,-1611.2 46.33,-1611.2 46.33,-1385.2 46.33,-1385.2 46.33,-1379.2 52.33,-1373.2 58.33,-1373.2 58.33,-1373.2 254.33,-1373.2 254.33,-1373.2 260.33,-1373.2 266.33,-1379.2 266.33,-1385.2 266.33,-1385.2 266.33,-1611.2 266.33,-1611.2 266.33,-1617.2 260.33,-1623.2 254.33,-1623.2"/>
<polygon fill="#eaf0ff" stroke="none" points="47.33,-1587 47.33,-1622.2 161.41,-1622.2 161.41,-1587 47.33,-1587"/>
<text xml:space="preserve" text-anchor="start" x="56.38" y="-1600.8" font-family="Noto Sans CJK KR" font-weight="bold" font-size="16.00" fill="#182033">EffectRequest</text>
<text xml:space="preserve" text-anchor="start" x="55.33" y="-1567" font-family="Noto Sans CJK KR" font-size="12.00" fill="#182033">+ Source: EntityId</text>
<text xml:space="preserve" text-anchor="start" x="55.33" y="-1536.6" font-family="Noto Sans CJK KR" font-size="12.00" fill="#182033">+ Origin: SourceRef</text>
<text xml:space="preserve" text-anchor="start" x="55.33" y="-1506.2" font-family="Noto Sans CJK KR" font-size="12.00" fill="#182033">+ EffectId/BundleId</text>
<text xml:space="preserve" text-anchor="start" x="55.33" y="-1475.8" font-family="Noto Sans CJK KR" font-size="12.00" fill="#182033">+ InitialTargets?</text>
<text xml:space="preserve" text-anchor="start" x="55.33" y="-1445.4" font-family="Noto Sans CJK KR" font-size="12.00" fill="#182033">+ Position?</text>
<text xml:space="preserve" text-anchor="start" x="55.33" y="-1415" font-family="Noto Sans CJK KR" font-size="12.00" fill="#182033">+ Seed</text>
<text xml:space="preserve" text-anchor="start" x="55.33" y="-1384.6" font-family="Noto Sans CJK KR" font-size="12.00" fill="#182033">+ CauseEvent?</text>
<polygon fill="none" stroke="#8292f7" points="46.33,-1373.2 46.33,-1623.2 266.33,-1623.2 266.33,-1373.2 46.33,-1373.2"/>
</g>
<!-- EffectContext -->
<g id="node4" class="node">
<title>EffectContext</title>
<path fill="#ffffff" stroke="none" stroke-width="1.4" d="M754.17,-1577.6C754.17,-1577.6 629.45,-1577.6 629.45,-1577.6 623.45,-1577.6 617.45,-1571.6 617.45,-1565.6 617.45,-1565.6 617.45,-1430.8 617.45,-1430.8 617.45,-1424.8 623.45,-1418.8 629.45,-1418.8 629.45,-1418.8 754.17,-1418.8 754.17,-1418.8 760.17,-1418.8 766.17,-1424.8 766.17,-1430.8 766.17,-1430.8 766.17,-1565.6 766.17,-1565.6 766.17,-1571.6 760.17,-1577.6 754.17,-1577.6"/>
<polygon fill="#eaf0ff" stroke="none" points="618.45,-1541.4 618.45,-1576.6 765.17,-1576.6 765.17,-1541.4 618.45,-1541.4"/>
<text xml:space="preserve" text-anchor="start" x="644.28" y="-1555.2" font-family="Noto Sans CJK KR" font-weight="bold" font-size="16.00" fill="#182033">EffectContext</text>
<text xml:space="preserve" text-anchor="start" x="626.45" y="-1521.4" font-family="Noto Sans CJK KR" font-size="12.00" fill="#182033">+ CasterId: EntityId</text>
<text xml:space="preserve" text-anchor="start" x="626.45" y="-1491" font-family="Noto Sans CJK KR" font-size="12.00" fill="#182033">+ InitialTargetId: EntityId?</text>
<text xml:space="preserve" text-anchor="start" x="626.45" y="-1460.6" font-family="Noto Sans CJK KR" font-size="12.00" fill="#182033">+ Source: SourceRef</text>
<text xml:space="preserve" text-anchor="start" x="626.45" y="-1430.2" font-family="Noto Sans CJK KR" font-size="12.00" fill="#182033">+ RandomSeed</text>
<polygon fill="none" stroke="#8292f7" points="617.45,-1418.8 617.45,-1577.6 766.17,-1577.6 766.17,-1418.8 617.45,-1418.8"/>
</g>
<!-- EffectRequest&#45;&gt;EffectContext -->
<g id="edge5" class="edge">
<title>EffectRequest&#45;&gt;EffectContext</title>
<path fill="none" stroke="#59687e" stroke-width="1.3" d="M266.31,-1498.2C266.31,-1498.2 607.68,-1498.2 607.68,-1498.2"/>
<polygon fill="#59687e" stroke="#59687e" stroke-width="1.3" points="607.68,-1501 615.68,-1498.2 607.68,-1495.4 607.68,-1501"/>
<text xml:space="preserve" text-anchor="middle" x="372.23" y="-1502.4" font-family="Noto Sans CJK KR" font-size="14.00" fill="#46566e">builds</text>
</g>
<!-- EffectPipeline -->
<g id="node5" class="node">
<title>EffectPipeline</title>
<path fill="#ffffff" stroke="none" stroke-width="1.4" d="M300.66,-778.2C300.66,-778.2 12,-778.2 12,-778.2 6,-778.2 0,-772.2 0,-766.2 0,-766.2 0,-540.2 0,-540.2 0,-534.2 6,-528.2 12,-528.2 12,-528.2 300.66,-528.2 300.66,-528.2 306.66,-528.2 312.66,-534.2 312.66,-540.2 312.66,-540.2 312.66,-766.2 312.66,-766.2 312.66,-772.2 306.66,-778.2 300.66,-778.2"/>
<polygon fill="#eaf0ff" stroke="none" points="1,-742 1,-777.2 311.66,-777.2 311.66,-742 1,-742"/>
<text xml:space="preserve" text-anchor="start" x="108.34" y="-755.8" font-family="Noto Sans CJK KR" font-weight="bold" font-size="16.00" fill="#182033">EffectPipeline</text>
<text xml:space="preserve" text-anchor="start" x="9" y="-722" font-family="Noto Sans CJK KR" font-size="12.00" fill="#182033">+ Execute(EffectDefinition, EffectContext): EffectResult</text>
<text xml:space="preserve" text-anchor="start" x="9" y="-691.6" font-family="Noto Sans CJK KR" font-size="12.00" fill="#182033">+ Execute(EffectBundle, EffectContext): EffectBundleResult</text>
<text xml:space="preserve" text-anchor="start" x="9" y="-661.2" font-family="Noto Sans CJK KR" font-size="12.00" fill="#182033">+ Validate()</text>
<text xml:space="preserve" text-anchor="start" x="9" y="-630.8" font-family="Noto Sans CJK KR" font-size="12.00" fill="#182033">+ ResolveTargets()</text>
<text xml:space="preserve" text-anchor="start" x="9" y="-600.4" font-family="Noto Sans CJK KR" font-size="12.00" fill="#182033">+ ResolveValues()</text>
<text xml:space="preserve" text-anchor="start" x="9" y="-570" font-family="Noto Sans CJK KR" font-size="12.00" fill="#182033">+ ApplyEffects()</text>
<text xml:space="preserve" text-anchor="start" x="9" y="-539.6" font-family="Noto Sans CJK KR" font-size="12.00" fill="#182033">+ PublishEvents()</text>
<polygon fill="none" stroke="#8292f7" points="0,-528.2 0,-778.2 312.66,-778.2 312.66,-528.2 0,-528.2"/>
</g>
<!-- EffectPipeline&#45;&gt;EffectDefinition -->
<g id="edge6" class="edge">
<title>EffectPipeline&#45;&gt;EffectDefinition</title>
<path fill="none" stroke="#59687e" stroke-width="1.3" d="M312.63,-717.67C449.84,-717.67 627.69,-717.67 627.69,-717.67 627.69,-717.67 627.69,-810.99 627.69,-810.99"/>
<polygon fill="#59687e" stroke="#59687e" stroke-width="1.3" points="624.89,-810.99 627.69,-818.99 630.49,-810.99 624.89,-810.99"/>
<text xml:space="preserve" text-anchor="middle" x="372.23" y="-866.4" font-family="Noto Sans CJK KR" font-size="14.00" fill="#46566e">loads</text>
</g>
<!-- IEffectExecutor -->
<g id="node6" class="node">
<title>IEffectExecutor</title>
<path fill="#ffffff" stroke="none" stroke-width="1.4" d="M939.81,-475.2C939.81,-475.2 443.81,-475.2 443.81,-475.2 437.81,-475.2 431.81,-469.2 431.81,-463.2 431.81,-463.2 431.81,-389.2 431.81,-389.2 431.81,-383.2 437.81,-377.2 443.81,-377.2 443.81,-377.2 939.81,-377.2 939.81,-377.2 945.81,-377.2 951.81,-383.2 951.81,-389.2 951.81,-389.2 951.81,-463.2 951.81,-463.2 951.81,-469.2 945.81,-475.2 939.81,-475.2"/>
<polygon fill="#eefbf6" stroke="none" points="432.81,-439 432.81,-474.2 743.47,-474.2 743.47,-439 432.81,-439"/>
<text xml:space="preserve" text-anchor="start" x="483.06" y="-452.8" font-family="Noto Sans CJK KR" font-weight="bold" font-size="16.00" fill="#182033">&lt;&lt;interface&gt;&gt; IEffectExecutor</text>
<text xml:space="preserve" text-anchor="start" x="440.81" y="-419" font-family="Noto Sans CJK KR" font-size="12.00" fill="#182033">+ Execute(EffectDefinition, EffectContext): EffectResult</text>
<text xml:space="preserve" text-anchor="start" x="440.81" y="-388.6" font-family="Noto Sans CJK KR" font-size="12.00" fill="#182033">+ Execute(EffectBundle, EffectContext): EffectBundleResult</text>
<polygon fill="none" stroke="#61b99a" points="431.81,-377.2 431.81,-475.2 951.81,-475.2 951.81,-377.2 431.81,-377.2"/>
</g>
<!-- EffectPipeline&#45;&gt;IEffectExecutor -->
<g id="edge9" class="edge">
<title>EffectPipeline&#45;&gt;IEffectExecutor</title>
<path fill="none" stroke="#59687e" stroke-width="1.3" d="M292.69,-528.32C292.69,-493.4 292.69,-464.8 292.69,-464.8 292.69,-464.8 422.04,-464.8 422.04,-464.8"/>
<polygon fill="none" stroke="#59687e" stroke-width="1.3" points="422.04,-467.6 430.04,-464.8 422.04,-462 422.04,-467.6"/>
<text xml:space="preserve" text-anchor="middle" x="372.23" y="-473.4" font-family="Noto Sans CJK KR" font-size="14.00" fill="#46566e">implements</text>
</g>
<!-- IEffectOperationExecutor -->
<g id="node7" class="node">
<title>IEffectOperationExecutor</title>
<path fill="#ffffff" stroke="none" stroke-width="1.4" d="M858.11,-308.2C858.11,-308.2 525.51,-308.2 525.51,-308.2 519.51,-308.2 513.51,-302.2 513.51,-296.2 513.51,-296.2 513.51,-222.2 513.51,-222.2 513.51,-216.2 519.51,-210.2 525.51,-210.2 525.51,-210.2 858.11,-210.2 858.11,-210.2 864.11,-210.2 870.11,-216.2 870.11,-222.2 870.11,-222.2 870.11,-296.2 870.11,-296.2 870.11,-302.2 864.11,-308.2 858.11,-308.2"/>
<polygon fill="#f3eefc" stroke="none" points="514.51,-272 514.51,-307.2 869.11,-307.2 869.11,-272 514.51,-272"/>
<text xml:space="preserve" text-anchor="start" x="522.51" y="-285.8" font-family="Noto Sans CJK KR" font-weight="bold" font-size="16.00" fill="#182033">&lt;&lt;internal interface&gt;&gt; IEffectOperationExecutor</text>
<text xml:space="preserve" text-anchor="start" x="522.51" y="-252" font-family="Noto Sans CJK KR" font-size="12.00" fill="#182033">+ CanExecute(EffectDefinition, EffectContext): bool</text>
<text xml:space="preserve" text-anchor="start" x="522.51" y="-221.6" font-family="Noto Sans CJK KR" font-size="12.00" fill="#182033">+ Execute(EffectDefinition, EffectContext): EffectResultItem</text>
<polygon fill="none" stroke="#ab8fe0" points="513.51,-210.2 513.51,-308.2 870.11,-308.2 870.11,-210.2 513.51,-210.2"/>
</g>
<!-- EffectPipeline&#45;&gt;IEffectOperationExecutor -->
<g id="edge10" class="edge">
<title>EffectPipeline&#45;&gt;IEffectOperationExecutor</title>
<path fill="none" stroke="#59687e" stroke-width="1.3" d="M272.69,-528.6C272.69,-427.83 272.69,-302.6 272.69,-302.6 272.69,-302.6 503.8,-302.6 503.8,-302.6"/>
<polygon fill="#59687e" stroke="#59687e" stroke-width="1.3" points="503.8,-305.4 511.8,-302.6 503.8,-299.8 503.8,-305.4"/>
<text xml:space="preserve" text-anchor="middle" x="372.23" y="-416.4" font-family="Noto Sans CJK KR" font-size="14.00" fill="#46566e">dispatch</text>
</g>
<!-- EffectPipeline&#45;&gt;TargetSelector -->
<g id="edge7" class="edge">
<title>EffectPipeline&#45;&gt;TargetSelector</title>
<path fill="none" stroke="#59687e" stroke-width="1.3" d="M312.48,-560C593.55,-560 1155.69,-560 1155.69,-560 1155.69,-560 1155.69,-581.9 1155.69,-581.9"/>
<polygon fill="#59687e" stroke="#59687e" stroke-width="1.3" points="1152.89,-581.9 1155.69,-589.9 1158.49,-581.9 1152.89,-581.9"/>
<text xml:space="preserve" text-anchor="middle" x="691.81" y="-549.4" font-family="Noto Sans CJK KR" font-size="14.00" fill="#46566e">target</text>
</g>
<!-- EffectPipeline&#45;&gt;ValueExpression -->
<g id="edge8" class="edge">
<title>EffectPipeline&#45;&gt;ValueExpression</title>
<path fill="none" stroke="#59687e" stroke-width="1.3" d="M299.69,-778.06C299.69,-926.88 299.69,-1155.7 299.69,-1155.7 299.69,-1155.7 1036.01,-1155.7 1036.01,-1155.7"/>
<polygon fill="#59687e" stroke="#59687e" stroke-width="1.3" points="1036.01,-1158.5 1044.01,-1155.7 1036.01,-1152.9 1036.01,-1158.5"/>
<text xml:space="preserve" text-anchor="middle" x="691.81" y="-1205.4" font-family="Noto Sans CJK KR" font-size="14.00" fill="#46566e">value</text>
</g>
<!-- EffectResult -->
<g id="node14" class="node">
<title>EffectResult</title>
<path fill="#ffffff" stroke="none" stroke-width="1.4" d="M731.02,-785.8C731.02,-785.8 652.6,-785.8 652.6,-785.8 646.6,-785.8 640.6,-779.8 640.6,-773.8 640.6,-773.8 640.6,-608.6 640.6,-608.6 640.6,-602.6 646.6,-596.6 652.6,-596.6 652.6,-596.6 731.02,-596.6 731.02,-596.6 737.02,-596.6 743.02,-602.6 743.02,-608.6 743.02,-608.6 743.02,-773.8 743.02,-773.8 743.02,-779.8 737.02,-785.8 731.02,-785.8"/>
<polygon fill="#f0f3f9" stroke="none" points="641.6,-749.6 641.6,-784.8 742.02,-784.8 742.02,-749.6 641.6,-749.6"/>
<text xml:space="preserve" text-anchor="start" x="649.6" y="-763.4" font-family="Noto Sans CJK KR" font-weight="bold" font-size="16.00" fill="#182033">EffectResult</text>
<text xml:space="preserve" text-anchor="start" x="649.6" y="-729.6" font-family="Noto Sans CJK KR" font-size="12.00" fill="#182033">+ Success</text>
<text xml:space="preserve" text-anchor="start" x="649.6" y="-699.2" font-family="Noto Sans CJK KR" font-size="12.00" fill="#182033">+ Items[]</text>
<text xml:space="preserve" text-anchor="start" x="649.6" y="-668.8" font-family="Noto Sans CJK KR" font-size="12.00" fill="#182033">+ FailureReason?</text>
<text xml:space="preserve" text-anchor="start" x="649.6" y="-638.4" font-family="Noto Sans CJK KR" font-size="12.00" fill="#182033">+ Events[]</text>
<text xml:space="preserve" text-anchor="start" x="649.6" y="-608" font-family="Noto Sans CJK KR" font-size="12.00" fill="#182033">+ DebugLog</text>
<polygon fill="none" stroke="#99a8bd" points="640.6,-596.6 640.6,-785.8 743.02,-785.8 743.02,-596.6 640.6,-596.6"/>
</g>
<!-- EffectPipeline&#45;&gt;EffectResult -->
<g id="edge14" class="edge">
<title>EffectPipeline&#45;&gt;EffectResult</title>
<path fill="none" stroke="#59687e" stroke-width="1.3" d="M312.65,-657.13C312.65,-657.13 630.82,-657.13 630.82,-657.13"/>
<polygon fill="#59687e" stroke="#59687e" stroke-width="1.3" points="630.82,-659.93 638.82,-657.13 630.82,-654.33 630.82,-659.93"/>
<text xml:space="preserve" text-anchor="middle" x="372.23" y="-695.4" font-family="Noto Sans CJK KR" font-size="14.00" fill="#46566e">returns</text>
</g>
<!-- DamageEffectExecutor -->
<g id="node8" class="node">
<title>DamageEffectExecutor</title>
<path fill="#ffffff" stroke="none" stroke-width="1.4" d="M232.85,-291.4C232.85,-291.4 79.8,-291.4 79.8,-291.4 73.8,-291.4 67.8,-285.4 67.8,-279.4 67.8,-279.4 67.8,-175 67.8,-175 67.8,-169 73.8,-163 79.8,-163 79.8,-163 232.85,-163 232.85,-163 238.85,-163 244.85,-169 244.85,-175 244.85,-175 244.85,-279.4 244.85,-279.4 244.85,-285.4 238.85,-291.4 232.85,-291.4"/>
<polygon fill="#eefbf6" stroke="none" points="68.8,-255.2 68.8,-290.4 243.85,-290.4 243.85,-255.2 68.8,-255.2"/>
<text xml:space="preserve" text-anchor="start" x="76.8" y="-269" font-family="Noto Sans CJK KR" font-weight="bold" font-size="16.00" fill="#182033">DamageEffectExecutor</text>
<text xml:space="preserve" text-anchor="start" x="76.8" y="-235.2" font-family="Noto Sans CJK KR" font-size="12.00" fill="#182033">+ BuildDamageRequest()</text>
<text xml:space="preserve" text-anchor="start" x="76.8" y="-204.8" font-family="Noto Sans CJK KR" font-size="12.00" fill="#182033">+ CallCombatResolver()</text>
<text xml:space="preserve" text-anchor="start" x="76.8" y="-174.4" font-family="Noto Sans CJK KR" font-size="12.00" fill="#182033">+ ApplyDamageResult()</text>
<polygon fill="none" stroke="#61b99a" points="67.8,-163 67.8,-291.4 244.85,-291.4 244.85,-163 67.8,-163"/>
</g>
<!-- DamageEffectExecutor&#45;&gt;IEffectOperationExecutor -->
<g id="edge11" class="edge">
<title>DamageEffectExecutor&#45;&gt;IEffectOperationExecutor</title>
<path fill="none" stroke="#59687e" stroke-width="1.3" d="M244.75,-250.8C244.75,-250.8 503.57,-250.8 503.57,-250.8"/>
<polygon fill="none" stroke="#59687e" stroke-width="1.3" points="503.57,-253.6 511.57,-250.8 503.57,-248 503.57,-253.6"/>
<text xml:space="preserve" text-anchor="middle" x="372.23" y="-231.4" font-family="Noto Sans CJK KR" font-size="14.00" fill="#46566e">implements</text>
</g>
<!-- ApplyStatusExecutor -->
<g id="node9" class="node">
<title>ApplyStatusExecutor</title>
<path fill="#ffffff" stroke="none" stroke-width="1.4" d="M226.67,-128.4C226.67,-128.4 85.99,-128.4 85.99,-128.4 79.99,-128.4 73.99,-122.4 73.99,-116.4 73.99,-116.4 73.99,-12 73.99,-12 73.99,-6 79.99,0 85.99,0 85.99,0 226.67,0 226.67,0 232.67,0 238.67,-6 238.67,-12 238.67,-12 238.67,-116.4 238.67,-116.4 238.67,-122.4 232.67,-128.4 226.67,-128.4"/>
<polygon fill="#eefbf6" stroke="none" points="74.99,-92.2 74.99,-127.4 237.67,-127.4 237.67,-92.2 74.99,-92.2"/>
<text xml:space="preserve" text-anchor="start" x="82.99" y="-106" font-family="Noto Sans CJK KR" font-weight="bold" font-size="16.00" fill="#182033">ApplyStatusExecutor</text>
<text xml:space="preserve" text-anchor="start" x="82.99" y="-72.2" font-family="Noto Sans CJK KR" font-size="12.00" fill="#182033">+ CreateStatusInstance()</text>
<text xml:space="preserve" text-anchor="start" x="82.99" y="-41.8" font-family="Noto Sans CJK KR" font-size="12.00" fill="#182033">+ ApplyStackRule()</text>
<text xml:space="preserve" text-anchor="start" x="82.99" y="-11.4" font-family="Noto Sans CJK KR" font-size="12.00" fill="#182033">+ AttachModifiers()</text>
<polygon fill="none" stroke="#61b99a" points="73.99,0 73.99,-128.4 238.67,-128.4 238.67,0 73.99,0"/>
</g>
<!-- ApplyStatusExecutor&#45;&gt;IEffectOperationExecutor -->
<g id="edge12" class="edge">
<title>ApplyStatusExecutor&#45;&gt;IEffectOperationExecutor</title>
<path fill="none" stroke="#59687e" stroke-width="1.3" d="M238.51,-64.2C388.59,-64.2 691.69,-64.2 691.69,-64.2 691.69,-64.2 691.69,-200.28 691.69,-200.28"/>
<polygon fill="none" stroke="#59687e" stroke-width="1.3" points="688.89,-200.28 691.69,-208.28 694.49,-200.28 688.89,-200.28"/>
<text xml:space="preserve" text-anchor="middle" x="372.23" y="-68.4" font-family="Noto Sans CJK KR" font-size="14.00" fill="#46566e">implements</text>
</g>
<!-- ModifyResourceExecutor -->
<g id="node10" class="node">
<title>ModifyResourceExecutor</title>
<path fill="#ffffff" stroke="none" stroke-width="1.4" d="M240.86,-454.4C240.86,-454.4 71.8,-454.4 71.8,-454.4 65.8,-454.4 59.8,-448.4 59.8,-442.4 59.8,-442.4 59.8,-338 59.8,-338 59.8,-332 65.8,-326 71.8,-326 71.8,-326 240.86,-326 240.86,-326 246.86,-326 252.86,-332 252.86,-338 252.86,-338 252.86,-442.4 252.86,-442.4 252.86,-448.4 246.86,-454.4 240.86,-454.4"/>
<polygon fill="#eefbf6" stroke="none" points="60.8,-418.2 60.8,-453.4 251.86,-453.4 251.86,-418.2 60.8,-418.2"/>
<text xml:space="preserve" text-anchor="start" x="68.8" y="-432" font-family="Noto Sans CJK KR" font-weight="bold" font-size="16.00" fill="#182033">ModifyResourceExecutor</text>
<text xml:space="preserve" text-anchor="start" x="68.8" y="-398.2" font-family="Noto Sans CJK KR" font-size="12.00" fill="#182033">+ Spend()/Restore()</text>
<text xml:space="preserve" text-anchor="start" x="68.8" y="-367.8" font-family="Noto Sans CJK KR" font-size="12.00" fill="#182033">+ Clamp()</text>
<text xml:space="preserve" text-anchor="start" x="68.8" y="-337.4" font-family="Noto Sans CJK KR" font-size="12.00" fill="#182033">+ EmitResourceChanged()</text>
<polygon fill="none" stroke="#61b99a" points="59.8,-326 59.8,-454.4 252.86,-454.4 252.86,-326 59.8,-326"/>
</g>
<!-- ModifyResourceExecutor&#45;&gt;IEffectOperationExecutor -->
<g id="edge13" class="edge">
<title>ModifyResourceExecutor&#45;&gt;IEffectOperationExecutor</title>
<path fill="none" stroke="#59687e" stroke-width="1.3" d="M248.69,-326.23C248.69,-309.97 248.69,-297 248.69,-297 248.69,-297 503.85,-297 503.85,-297"/>
<polygon fill="none" stroke="#59687e" stroke-width="1.3" points="503.85,-299.8 511.85,-297 503.85,-294.2 503.85,-299.8"/>
<text xml:space="preserve" text-anchor="middle" x="372.23" y="-359.4" font-family="Noto Sans CJK KR" font-size="14.00" fill="#46566e">implements</text>
</g>
</g>
</svg>
