<?xml version="1.0" encoding="UTF-8" standalone="no"?>
<!DOCTYPE svg PUBLIC "-//W3C//DTD SVG 1.1//EN"
 "http://www.w3.org/Graphics/SVG/1.1/DTD/svg11.dtd">
<!-- Generated by graphviz version 2.42.4 (0)
 -->
<!-- Title: G Pages: 1 -->
<svg width="998pt" height="1297pt"
 viewBox="8.64 8.64 989.64 1288.14" xmlns="http://www.w3.org/2000/svg" xmlns:xlink="http://www.w3.org/1999/xlink">
<g id="graph0" class="graph" transform="scale(1 1) rotate(0) translate(26.64 1270.14)">
<title>G</title>
<polygon fill="#ffffff" stroke="transparent" points="-18,18 -18,-1261.5 963,-1261.5 963,18 -18,18"/>
<!-- EffectDefinition -->
<g id="node1" class="node">
<title>EffectDefinition</title>
<path fill="#ffffff" stroke="transparent" stroke-width="1.4" d="M554,-476C554,-476 410,-476 410,-476 404,-476 398,-470 398,-464 398,-464 398,-191 398,-191 398,-185 404,-179 410,-179 410,-179 554,-179 554,-179 560,-179 566,-185 566,-191 566,-191 566,-464 566,-464 566,-470 560,-476 554,-476"/>
<polygon fill="#fff0f3" stroke="transparent" points="399,-440.5 399,-474.5 565,-474.5 565,-440.5 399,-440.5"/>
<text text-anchor="start" x="420.5" y="-454.7" font-family="Noto Sans CJK KR" font-weight="bold" font-size="16.00" fill="#182033">EffectDefinition</text>
<text text-anchor="start" x="407" y="-422.9" font-family="Noto Sans CJK KR" font-size="12.00" fill="#182033">+ effectId: EffectId</text>
<text text-anchor="start" x="407" y="-393.9" font-family="Noto Sans CJK KR" font-size="12.00" fill="#182033">+ type: EffectType</text>
<text text-anchor="start" x="407" y="-364.9" font-family="Noto Sans CJK KR" font-size="12.00" fill="#182033">+ targetSelectorId</text>
<text text-anchor="start" x="407" y="-335.9" font-family="Noto Sans CJK KR" font-size="12.00" fill="#182033">+ valueExpressionId?</text>
<text text-anchor="start" x="407" y="-306.9" font-family="Noto Sans CJK KR" font-size="12.00" fill="#182033">+ conditions: ConditionId[]</text>
<text text-anchor="start" x="407" y="-277.9" font-family="Noto Sans CJK KR" font-size="12.00" fill="#182033">+ tags: Tag[]</text>
<text text-anchor="start" x="407" y="-248.9" font-family="Noto Sans CJK KR" font-size="12.00" fill="#182033">+ timing: EffectTiming</text>
<text text-anchor="start" x="407" y="-219.9" font-family="Noto Sans CJK KR" font-size="12.00" fill="#182033">+ executorKey</text>
<text text-anchor="start" x="407" y="-190.9" font-family="Noto Sans CJK KR" font-size="12.00" fill="#182033">+ validateSchema()</text>
<polygon fill="none" stroke="#e07b91" points="398,-179 398,-476 566,-476 566,-179 398,-179"/>
</g>
<!-- TargetSelector -->
<g id="node10" class="node">
<title>TargetSelector</title>
<path fill="#ffffff" stroke="transparent" stroke-width="1.4" d="M899.5,-624.5C899.5,-624.5 778.5,-624.5 778.5,-624.5 772.5,-624.5 766.5,-618.5 766.5,-612.5 766.5,-612.5 766.5,-484.5 766.5,-484.5 766.5,-478.5 772.5,-472.5 778.5,-472.5 778.5,-472.5 899.5,-472.5 899.5,-472.5 905.5,-472.5 911.5,-478.5 911.5,-484.5 911.5,-484.5 911.5,-612.5 911.5,-612.5 911.5,-618.5 905.5,-624.5 899.5,-624.5"/>
<polygon fill="#f3eefc" stroke="transparent" points="768,-589.5 768,-623.5 911,-623.5 911,-589.5 768,-589.5"/>
<text text-anchor="start" x="782" y="-603.7" font-family="Noto Sans CJK KR" font-weight="bold" font-size="16.00" fill="#182033">TargetSelector</text>
<text text-anchor="start" x="776" y="-571.9" font-family="Noto Sans CJK KR" font-size="12.00" fill="#182033">+ selectorType</text>
<text text-anchor="start" x="776" y="-542.9" font-family="Noto Sans CJK KR" font-size="12.00" fill="#182033">+ range/shape/limit</text>
<text text-anchor="start" x="776" y="-513.9" font-family="Noto Sans CJK KR" font-size="12.00" fill="#182033">+ filters</text>
<text text-anchor="start" x="776" y="-484.9" font-family="Noto Sans CJK KR" font-size="12.00" fill="#182033">+ select(ctx): TargetSet</text>
<polygon fill="none" stroke="#ab8fe0" points="766.5,-472.5 766.5,-624.5 911.5,-624.5 911.5,-472.5 766.5,-472.5"/>
</g>
<!-- EffectDefinition&#45;&gt;TargetSelector -->
<g id="edge2" class="edge">
<title>EffectDefinition&#45;&gt;TargetSelector</title>
<path fill="none" stroke="#59687e" stroke-width="1.3" d="M553,-476.32C553,-482.57 553,-486.25 553,-486.25 553,-486.25 758.46,-486.25 758.46,-486.25"/>
<polygon fill="#59687e" stroke="#59687e" stroke-width="1.3" points="758.46,-489.05 766.46,-486.25 758.46,-483.45 758.46,-489.05"/>
<text text-anchor="middle" x="670" y="-469.3" font-family="Noto Sans CJK KR" font-size="14.00" fill="#46566e">uses</text>
</g>
<!-- ValueExpression -->
<g id="node11" class="node">
<title>ValueExpression</title>
<path fill="#ffffff" stroke="transparent" stroke-width="1.4" d="M903,-225C903,-225 775,-225 775,-225 769,-225 763,-219 763,-213 763,-213 763,-56 763,-56 763,-50 769,-44 775,-44 775,-44 903,-44 903,-44 909,-44 915,-50 915,-56 915,-56 915,-213 915,-213 915,-219 909,-225 903,-225"/>
<polygon fill="#f3eefc" stroke="transparent" points="764,-189.5 764,-223.5 914,-223.5 914,-189.5 764,-189.5"/>
<text text-anchor="start" x="774" y="-203.7" font-family="Noto Sans CJK KR" font-weight="bold" font-size="16.00" fill="#182033">ValueExpression</text>
<text text-anchor="start" x="772" y="-171.9" font-family="Noto Sans CJK KR" font-size="12.00" fill="#182033">+ base</text>
<text text-anchor="start" x="772" y="-142.9" font-family="Noto Sans CJK KR" font-size="12.00" fill="#182033">+ scalingTerms</text>
<text text-anchor="start" x="772" y="-113.9" font-family="Noto Sans CJK KR" font-size="12.00" fill="#182033">+ min/max</text>
<text text-anchor="start" x="772" y="-84.9" font-family="Noto Sans CJK KR" font-size="12.00" fill="#182033">+ evaluate(ctx): decimal</text>
<text text-anchor="start" x="772" y="-55.9" font-family="Noto Sans CJK KR" font-size="12.00" fill="#182033">+ buildBreakdown()</text>
<polygon fill="none" stroke="#ab8fe0" points="763,-44 763,-225 915,-225 915,-44 763,-44"/>
</g>
<!-- EffectDefinition&#45;&gt;ValueExpression -->
<g id="edge3" class="edge">
<title>EffectDefinition&#45;&gt;ValueExpression</title>
<path fill="none" stroke="#59687e" stroke-width="1.3" d="M566.15,-194.33C566.15,-194.33 754.71,-194.33 754.71,-194.33"/>
<polygon fill="#59687e" stroke="#59687e" stroke-width="1.3" points="754.71,-197.13 762.71,-194.33 754.71,-191.53 754.71,-197.13"/>
<text text-anchor="middle" x="670" y="-233.3" font-family="Noto Sans CJK KR" font-size="14.00" fill="#46566e">optional</text>
</g>
<!-- EffectCondition -->
<g id="node12" class="node">
<title>EffectCondition</title>
<path fill="#ffffff" stroke="transparent" stroke-width="1.4" d="M897.5,-389C897.5,-389 780.5,-389 780.5,-389 774.5,-389 768.5,-383 768.5,-377 768.5,-377 768.5,-278 768.5,-278 768.5,-272 774.5,-266 780.5,-266 780.5,-266 897.5,-266 897.5,-266 903.5,-266 909.5,-272 909.5,-278 909.5,-278 909.5,-377 909.5,-377 909.5,-383 903.5,-389 897.5,-389"/>
<polygon fill="#f3eefc" stroke="transparent" points="770,-353.5 770,-387.5 909,-387.5 909,-353.5 770,-353.5"/>
<text text-anchor="start" x="778" y="-367.7" font-family="Noto Sans CJK KR" font-weight="bold" font-size="16.00" fill="#182033">EffectCondition</text>
<text text-anchor="start" x="778" y="-335.9" font-family="Noto Sans CJK KR" font-size="12.00" fill="#182033">+ conditionType</text>
<text text-anchor="start" x="778" y="-306.9" font-family="Noto Sans CJK KR" font-size="12.00" fill="#182033">+ params</text>
<text text-anchor="start" x="778" y="-277.9" font-family="Noto Sans CJK KR" font-size="12.00" fill="#182033">+ evaluate(ctx): bool</text>
<polygon fill="none" stroke="#ab8fe0" points="768.5,-266 768.5,-389 909.5,-389 909.5,-266 768.5,-266"/>
</g>
<!-- EffectDefinition&#45;&gt;EffectCondition -->
<g id="edge4" class="edge">
<title>EffectDefinition&#45;&gt;EffectCondition</title>
<path fill="none" stroke="#59687e" stroke-width="1.3" d="M566.15,-327.5C566.15,-327.5 760.34,-327.5 760.34,-327.5"/>
<polygon fill="#59687e" stroke="#59687e" stroke-width="1.3" points="760.34,-330.3 768.34,-327.5 760.34,-324.7 760.34,-330.3"/>
<text text-anchor="middle" x="670" y="-331.3" font-family="Noto Sans CJK KR" font-size="14.00" fill="#46566e">0..*</text>
</g>
<!-- EffectBundle -->
<g id="node2" class="node">
<title>EffectBundle</title>
<path fill="#ffffff" stroke="transparent" stroke-width="1.4" d="M218,-181C218,-181 12,-181 12,-181 6,-181 0,-175 0,-169 0,-169 0,-12 0,-12 0,-6 6,0 12,0 12,0 218,0 218,0 224,0 230,-6 230,-12 230,-12 230,-169 230,-169 230,-175 224,-181 218,-181"/>
<polygon fill="#fff7e6" stroke="transparent" points="1,-145.5 1,-179.5 229,-179.5 229,-145.5 1,-145.5"/>
<text text-anchor="start" x="63.5" y="-159.7" font-family="Noto Sans CJK KR" font-weight="bold" font-size="16.00" fill="#182033">EffectBundle</text>
<text text-anchor="start" x="9" y="-127.9" font-family="Noto Sans CJK KR" font-size="12.00" fill="#182033">+ bundleId</text>
<text text-anchor="start" x="9" y="-98.9" font-family="Noto Sans CJK KR" font-size="12.00" fill="#182033">+ effects: EffectDefinition[]</text>
<text text-anchor="start" x="9" y="-69.9" font-family="Noto Sans CJK KR" font-size="12.00" fill="#182033">+ executionMode: Sequential/Parallel</text>
<text text-anchor="start" x="9" y="-40.9" font-family="Noto Sans CJK KR" font-size="12.00" fill="#182033">+ stopPolicy</text>
<text text-anchor="start" x="9" y="-11.9" font-family="Noto Sans CJK KR" font-size="12.00" fill="#182033">+ rollbackPolicy?</text>
<polygon fill="none" stroke="#e0ad4e" points="0,0 0,-181 230,-181 230,0 0,0"/>
</g>
<!-- EffectBundle&#45;&gt;EffectDefinition -->
<g id="edge1" class="edge">
<title>EffectBundle&#45;&gt;EffectDefinition</title>
<path fill="none" stroke="#59687e" stroke-width="1.3" d="M230.11,-111.5C337.74,-111.5 482,-111.5 482,-111.5 482,-111.5 482,-169.36 482,-169.36"/>
<polygon fill="#59687e" stroke="#59687e" stroke-width="1.3" points="482,-169.36 485.2,-174.16 482,-178.96 478.8,-174.16 482,-169.36"/>
<text text-anchor="middle" x="293.5" y="-94.3" font-family="Noto Sans CJK KR" font-size="14.00" fill="#46566e">contains 1..*</text>
</g>
<!-- EffectRequest -->
<g id="node3" class="node">
<title>EffectRequest</title>
<path fill="#ffffff" stroke="transparent" stroke-width="1.4" d="M166.5,-1229C166.5,-1229 63.5,-1229 63.5,-1229 57.5,-1229 51.5,-1223 51.5,-1217 51.5,-1217 51.5,-1002 51.5,-1002 51.5,-996 57.5,-990 63.5,-990 63.5,-990 166.5,-990 166.5,-990 172.5,-990 178.5,-996 178.5,-1002 178.5,-1002 178.5,-1217 178.5,-1217 178.5,-1223 172.5,-1229 166.5,-1229"/>
<polygon fill="#eaf0ff" stroke="transparent" points="53,-1193.5 53,-1227.5 178,-1227.5 178,-1193.5 53,-1193.5"/>
<text text-anchor="start" x="61" y="-1207.7" font-family="Noto Sans CJK KR" font-weight="bold" font-size="16.00" fill="#182033">EffectRequest</text>
<text text-anchor="start" x="61" y="-1175.9" font-family="Noto Sans CJK KR" font-size="12.00" fill="#182033">+ source: EntityId</text>
<text text-anchor="start" x="61" y="-1146.9" font-family="Noto Sans CJK KR" font-size="12.00" fill="#182033">+ origin: SourceRef</text>
<text text-anchor="start" x="61" y="-1117.9" font-family="Noto Sans CJK KR" font-size="12.00" fill="#182033">+ effectId/bundleId</text>
<text text-anchor="start" x="61" y="-1088.9" font-family="Noto Sans CJK KR" font-size="12.00" fill="#182033">+ initialTargets?</text>
<text text-anchor="start" x="61" y="-1059.9" font-family="Noto Sans CJK KR" font-size="12.00" fill="#182033">+ position?</text>
<text text-anchor="start" x="61" y="-1030.9" font-family="Noto Sans CJK KR" font-size="12.00" fill="#182033">+ seed</text>
<text text-anchor="start" x="61" y="-1001.9" font-family="Noto Sans CJK KR" font-size="12.00" fill="#182033">+ causeEvent?</text>
<polygon fill="none" stroke="#8292f7" points="51.5,-990 51.5,-1229 178.5,-1229 178.5,-990 51.5,-990"/>
</g>
<!-- EffectContext -->
<g id="node4" class="node">
<title>EffectContext</title>
<path fill="#ffffff" stroke="transparent" stroke-width="1.4" d="M532.5,-1243.5C532.5,-1243.5 431.5,-1243.5 431.5,-1243.5 425.5,-1243.5 419.5,-1237.5 419.5,-1231.5 419.5,-1231.5 419.5,-987.5 419.5,-987.5 419.5,-981.5 425.5,-975.5 431.5,-975.5 431.5,-975.5 532.5,-975.5 532.5,-975.5 538.5,-975.5 544.5,-981.5 544.5,-987.5 544.5,-987.5 544.5,-1231.5 544.5,-1231.5 544.5,-1237.5 538.5,-1243.5 532.5,-1243.5"/>
<polygon fill="#eaf0ff" stroke="transparent" points="421,-1208.5 421,-1242.5 544,-1242.5 544,-1208.5 421,-1208.5"/>
<text text-anchor="start" x="429" y="-1222.7" font-family="Noto Sans CJK KR" font-weight="bold" font-size="16.00" fill="#182033">EffectContext</text>
<text text-anchor="start" x="429" y="-1190.9" font-family="Noto Sans CJK KR" font-size="12.00" fill="#182033">+ sourceEntity</text>
<text text-anchor="start" x="429" y="-1161.9" font-family="Noto Sans CJK KR" font-size="12.00" fill="#182033">+ targetEntity?</text>
<text text-anchor="start" x="429" y="-1132.9" font-family="Noto Sans CJK KR" font-size="12.00" fill="#182033">+ skillId?</text>
<text text-anchor="start" x="429" y="-1103.9" font-family="Noto Sans CJK KR" font-size="12.00" fill="#182033">+ combatRequest?</text>
<text text-anchor="start" x="429" y="-1074.9" font-family="Noto Sans CJK KR" font-size="12.00" fill="#182033">+ tags</text>
<text text-anchor="start" x="429" y="-1045.9" font-family="Noto Sans CJK KR" font-size="12.00" fill="#182033">+ random</text>
<text text-anchor="start" x="429" y="-1016.9" font-family="Noto Sans CJK KR" font-size="12.00" fill="#182033">+ custom</text>
<text text-anchor="start" x="429" y="-987.9" font-family="Noto Sans CJK KR" font-size="12.00" fill="#182033">+ childFor(target)</text>
<polygon fill="none" stroke="#8292f7" points="419.5,-975.5 419.5,-1243.5 544.5,-1243.5 544.5,-975.5 419.5,-975.5"/>
</g>
<!-- EffectRequest&#45;&gt;EffectContext -->
<g id="edge5" class="edge">
<title>EffectRequest&#45;&gt;EffectContext</title>
<path fill="none" stroke="#59687e" stroke-width="1.3" d="M178.51,-1109.5C178.51,-1109.5 411.27,-1109.5 411.27,-1109.5"/>
<polygon fill="#59687e" stroke="#59687e" stroke-width="1.3" points="411.27,-1112.3 419.27,-1109.5 411.27,-1106.7 411.27,-1112.3"/>
<text text-anchor="middle" x="293.5" y="-1113.3" font-family="Noto Sans CJK KR" font-size="14.00" fill="#46566e">builds</text>
</g>
<!-- EffectPipeline -->
<g id="node5" class="node">
<title>EffectPipeline</title>
<path fill="#ffffff" stroke="transparent" stroke-width="1.4" d="M201,-706.5C201,-706.5 29,-706.5 29,-706.5 23,-706.5 17,-700.5 17,-694.5 17,-694.5 17,-508.5 17,-508.5 17,-502.5 23,-496.5 29,-496.5 29,-496.5 201,-496.5 201,-496.5 207,-496.5 213,-502.5 213,-508.5 213,-508.5 213,-694.5 213,-694.5 213,-700.5 207,-706.5 201,-706.5"/>
<polygon fill="#eaf0ff" stroke="transparent" points="18,-671.5 18,-705.5 212,-705.5 212,-671.5 18,-671.5"/>
<text text-anchor="start" x="60.5" y="-685.7" font-family="Noto Sans CJK KR" font-weight="bold" font-size="16.00" fill="#182033">EffectPipeline</text>
<text text-anchor="start" x="26" y="-653.9" font-family="Noto Sans CJK KR" font-size="12.00" fill="#182033">+ execute(request): EffectResult</text>
<text text-anchor="start" x="26" y="-624.9" font-family="Noto Sans CJK KR" font-size="12.00" fill="#182033">+ validate()</text>
<text text-anchor="start" x="26" y="-595.9" font-family="Noto Sans CJK KR" font-size="12.00" fill="#182033">+ resolveTargets()</text>
<text text-anchor="start" x="26" y="-566.9" font-family="Noto Sans CJK KR" font-size="12.00" fill="#182033">+ resolveValues()</text>
<text text-anchor="start" x="26" y="-537.9" font-family="Noto Sans CJK KR" font-size="12.00" fill="#182033">+ applyEffects()</text>
<text text-anchor="start" x="26" y="-508.9" font-family="Noto Sans CJK KR" font-size="12.00" fill="#182033">+ publishEvents()</text>
<polygon fill="none" stroke="#8292f7" points="17,-496.5 17,-706.5 213,-706.5 213,-496.5 17,-496.5"/>
</g>
<!-- EffectPipeline&#45;&gt;EffectDefinition -->
<g id="edge6" class="edge">
<title>EffectPipeline&#45;&gt;EffectDefinition</title>
<path fill="none" stroke="#59687e" stroke-width="1.3" d="M213.07,-500.12C299.58,-500.12 412,-500.12 412,-500.12 412,-500.12 412,-484.12 412,-484.12"/>
<polygon fill="#59687e" stroke="#59687e" stroke-width="1.3" points="414.8,-484.12 412,-476.12 409.2,-484.12 414.8,-484.12"/>
<text text-anchor="middle" x="293.5" y="-440.3" font-family="Noto Sans CJK KR" font-size="14.00" fill="#46566e">loads</text>
</g>
<!-- IEffectExecutor -->
<g id="node6" class="node">
<title>IEffectExecutor</title>
<path fill="#ffffff" stroke="transparent" stroke-width="1.4" d="M595,-940.5C595,-940.5 369,-940.5 369,-940.5 363,-940.5 357,-934.5 357,-928.5 357,-928.5 357,-858.5 357,-858.5 357,-852.5 363,-846.5 369,-846.5 369,-846.5 595,-846.5 595,-846.5 601,-846.5 607,-852.5 607,-858.5 607,-858.5 607,-928.5 607,-928.5 607,-934.5 601,-940.5 595,-940.5"/>
<polygon fill="#eefbf6" stroke="transparent" points="358,-905.5 358,-939.5 606,-939.5 606,-905.5 358,-905.5"/>
<text text-anchor="start" x="366" y="-919.7" font-family="Noto Sans CJK KR" font-weight="bold" font-size="16.00" fill="#182033">&lt;&lt;interface&gt;&gt; IEffectExecutor</text>
<text text-anchor="start" x="366" y="-887.9" font-family="Noto Sans CJK KR" font-size="12.00" fill="#182033">+ canExecute(def, ctx)</text>
<text text-anchor="start" x="366" y="-858.9" font-family="Noto Sans CJK KR" font-size="12.00" fill="#182033">+ execute(def, ctx): EffectResultItem</text>
<polygon fill="none" stroke="#61b99a" points="357,-846.5 357,-940.5 607,-940.5 607,-846.5 357,-846.5"/>
</g>
<!-- EffectPipeline&#45;&gt;IEffectExecutor -->
<g id="edge9" class="edge">
<title>EffectPipeline&#45;&gt;IEffectExecutor</title>
<path fill="none" stroke="#59687e" stroke-width="1.3" d="M213.31,-699.25C288.01,-699.25 378,-699.25 378,-699.25 378,-699.25 378,-838.48 378,-838.48"/>
<polygon fill="#59687e" stroke="#59687e" stroke-width="1.3" points="375.2,-838.48 378,-846.48 380.8,-838.48 375.2,-838.48"/>
<text text-anchor="middle" x="293.5" y="-870.3" font-family="Noto Sans CJK KR" font-size="14.00" fill="#46566e">dispatch</text>
</g>
<!-- EffectPipeline&#45;&gt;TargetSelector -->
<g id="edge7" class="edge">
<title>EffectPipeline&#45;&gt;TargetSelector</title>
<path fill="none" stroke="#59687e" stroke-width="1.3" d="M213.02,-507.38C213.02,-507.38 758.45,-507.38 758.45,-507.38"/>
<polygon fill="#59687e" stroke="#59687e" stroke-width="1.3" points="758.45,-510.18 766.45,-507.38 758.45,-504.58 758.45,-510.18"/>
<text text-anchor="middle" x="482" y="-766.3" font-family="Noto Sans CJK KR" font-size="14.00" fill="#46566e">target</text>
</g>
<!-- EffectPipeline&#45;&gt;ValueExpression -->
<g id="edge8" class="edge">
<title>EffectPipeline&#45;&gt;ValueExpression</title>
<path fill="none" stroke="#59687e" stroke-width="1.3" d="M213.05,-503.75C349.47,-503.75 580,-503.75 580,-503.75 580,-503.75 580,-209.67 580,-209.67 580,-209.67 754.69,-209.67 754.69,-209.67"/>
<polygon fill="#59687e" stroke="#59687e" stroke-width="1.3" points="754.69,-212.47 762.69,-209.67 754.69,-206.87 754.69,-212.47"/>
<text text-anchor="middle" x="482" y="-132.3" font-family="Noto Sans CJK KR" font-size="14.00" fill="#46566e">value</text>
</g>
<!-- EffectResult -->
<g id="node13" class="node">
<title>EffectResult</title>
<path fill="#ffffff" stroke="transparent" stroke-width="1.4" d="M527,-692C527,-692 437,-692 437,-692 431,-692 425,-686 425,-680 425,-680 425,-523 425,-523 425,-517 431,-511 437,-511 437,-511 527,-511 527,-511 533,-511 539,-517 539,-523 539,-523 539,-680 539,-680 539,-686 533,-692 527,-692"/>
<polygon fill="#f0f3f9" stroke="transparent" points="426,-656.5 426,-690.5 538,-690.5 538,-656.5 426,-656.5"/>
<text text-anchor="start" x="434" y="-670.7" font-family="Noto Sans CJK KR" font-weight="bold" font-size="16.00" fill="#182033">EffectResult</text>
<text text-anchor="start" x="434" y="-638.9" font-family="Noto Sans CJK KR" font-size="12.00" fill="#182033">+ success</text>
<text text-anchor="start" x="434" y="-609.9" font-family="Noto Sans CJK KR" font-size="12.00" fill="#182033">+ items[]</text>
<text text-anchor="start" x="434" y="-580.9" font-family="Noto Sans CJK KR" font-size="12.00" fill="#182033">+ failedReason?</text>
<text text-anchor="start" x="434" y="-551.9" font-family="Noto Sans CJK KR" font-size="12.00" fill="#182033">+ events[]</text>
<text text-anchor="start" x="434" y="-522.9" font-family="Noto Sans CJK KR" font-size="12.00" fill="#182033">+ debugLog</text>
<polygon fill="none" stroke="#99a8bd" points="425,-511 425,-692 539,-692 539,-511 425,-511"/>
</g>
<!-- EffectPipeline&#45;&gt;EffectResult -->
<g id="edge13" class="edge">
<title>EffectPipeline&#45;&gt;EffectResult</title>
<path fill="none" stroke="#59687e" stroke-width="1.3" d="M213.35,-601.5C213.35,-601.5 416.87,-601.5 416.87,-601.5"/>
<polygon fill="#59687e" stroke="#59687e" stroke-width="1.3" points="416.87,-604.3 424.87,-601.5 416.87,-598.7 416.87,-604.3"/>
<text text-anchor="middle" x="293.5" y="-605.3" font-family="Noto Sans CJK KR" font-size="14.00" fill="#46566e">returns</text>
</g>
<!-- DamageEffectExecutor -->
<g id="node7" class="node">
<title>DamageEffectExecutor</title>
<path fill="#ffffff" stroke="transparent" stroke-width="1.4" d="M925,-988C925,-988 753,-988 753,-988 747,-988 741,-982 741,-976 741,-976 741,-877 741,-877 741,-871 747,-865 753,-865 753,-865 925,-865 925,-865 931,-865 937,-871 937,-877 937,-877 937,-976 937,-976 937,-982 931,-988 925,-988"/>
<polygon fill="#eefbf6" stroke="transparent" points="742,-952.5 742,-986.5 936,-986.5 936,-952.5 742,-952.5"/>
<text text-anchor="start" x="750" y="-966.7" font-family="Noto Sans CJK KR" font-weight="bold" font-size="16.00" fill="#182033">DamageEffectExecutor</text>
<text text-anchor="start" x="750" y="-934.9" font-family="Noto Sans CJK KR" font-size="12.00" fill="#182033">+ buildDamageRequest()</text>
<text text-anchor="start" x="750" y="-905.9" font-family="Noto Sans CJK KR" font-size="12.00" fill="#182033">+ callCombatResolver()</text>
<text text-anchor="start" x="750" y="-876.9" font-family="Noto Sans CJK KR" font-size="12.00" fill="#182033">+ applyDamageResult()</text>
<polygon fill="none" stroke="#61b99a" points="741,-865 741,-988 937,-988 937,-865 741,-865"/>
</g>
<!-- IEffectExecutor&#45;&gt;DamageEffectExecutor -->
<g id="edge10" class="edge">
<title>IEffectExecutor&#45;&gt;DamageEffectExecutor</title>
<path fill="none" stroke="#59687e" stroke-width="1.3" d="M607.11,-890.17C607.11,-890.17 732.77,-890.17 732.77,-890.17"/>
<polygon fill="none" stroke="#59687e" stroke-width="1.3" points="732.77,-892.97 740.77,-890.17 732.77,-887.37 732.77,-892.97"/>
<text text-anchor="middle" x="670" y="-930.3" font-family="Noto Sans CJK KR" font-size="14.00" fill="#46566e">implements</text>
</g>
<!-- ApplyStatusExecutor -->
<g id="node8" class="node">
<title>ApplyStatusExecutor</title>
<path fill="#ffffff" stroke="transparent" stroke-width="1.4" d="M918.5,-830C918.5,-830 759.5,-830 759.5,-830 753.5,-830 747.5,-824 747.5,-818 747.5,-818 747.5,-719 747.5,-719 747.5,-713 753.5,-707 759.5,-707 759.5,-707 918.5,-707 918.5,-707 924.5,-707 930.5,-713 930.5,-719 930.5,-719 930.5,-818 930.5,-818 930.5,-824 924.5,-830 918.5,-830"/>
<polygon fill="#eefbf6" stroke="transparent" points="749,-794.5 749,-828.5 930,-828.5 930,-794.5 749,-794.5"/>
<text text-anchor="start" x="757" y="-808.7" font-family="Noto Sans CJK KR" font-weight="bold" font-size="16.00" fill="#182033">ApplyStatusExecutor</text>
<text text-anchor="start" x="757" y="-776.9" font-family="Noto Sans CJK KR" font-size="12.00" fill="#182033">+ createStatusInstance()</text>
<text text-anchor="start" x="757" y="-747.9" font-family="Noto Sans CJK KR" font-size="12.00" fill="#182033">+ applyStackRule()</text>
<text text-anchor="start" x="757" y="-718.9" font-family="Noto Sans CJK KR" font-size="12.00" fill="#182033">+ attachModifiers()</text>
<polygon fill="none" stroke="#61b99a" points="747.5,-707 747.5,-830 930.5,-830 930.5,-707 747.5,-707"/>
</g>
<!-- IEffectExecutor&#45;&gt;ApplyStatusExecutor -->
<g id="edge11" class="edge">
<title>IEffectExecutor&#45;&gt;ApplyStatusExecutor</title>
<path fill="none" stroke="#59687e" stroke-width="1.3" d="M594,-846.24C594,-810.85 594,-768.5 594,-768.5 594,-768.5 739.42,-768.5 739.42,-768.5"/>
<polygon fill="none" stroke="#59687e" stroke-width="1.3" points="739.42,-771.3 747.42,-768.5 739.42,-765.7 739.42,-771.3"/>
<text text-anchor="middle" x="670" y="-824.3" font-family="Noto Sans CJK KR" font-size="14.00" fill="#46566e">implements</text>
</g>
<!-- ModifyResourceExecutor -->
<g id="node9" class="node">
<title>ModifyResourceExecutor</title>
<path fill="#ffffff" stroke="transparent" stroke-width="1.4" d="M933,-1146C933,-1146 745,-1146 745,-1146 739,-1146 733,-1140 733,-1134 733,-1134 733,-1035 733,-1035 733,-1029 739,-1023 745,-1023 745,-1023 933,-1023 933,-1023 939,-1023 945,-1029 945,-1035 945,-1035 945,-1134 945,-1134 945,-1140 939,-1146 933,-1146"/>
<polygon fill="#eefbf6" stroke="transparent" points="734,-1110.5 734,-1144.5 944,-1144.5 944,-1110.5 734,-1110.5"/>
<text text-anchor="start" x="742" y="-1124.7" font-family="Noto Sans CJK KR" font-weight="bold" font-size="16.00" fill="#182033">ModifyResourceExecutor</text>
<text text-anchor="start" x="742" y="-1092.9" font-family="Noto Sans CJK KR" font-size="12.00" fill="#182033">+ spend/restore()</text>
<text text-anchor="start" x="742" y="-1063.9" font-family="Noto Sans CJK KR" font-size="12.00" fill="#182033">+ clamp()</text>
<text text-anchor="start" x="742" y="-1034.9" font-family="Noto Sans CJK KR" font-size="12.00" fill="#182033">+ emitResourceChanged()</text>
<polygon fill="none" stroke="#61b99a" points="733,-1023 733,-1146 945,-1146 945,-1023 733,-1023"/>
</g>
<!-- IEffectExecutor&#45;&gt;ModifyResourceExecutor -->
<g id="edge12" class="edge">
<title>IEffectExecutor&#45;&gt;ModifyResourceExecutor</title>
<path fill="none" stroke="#59687e" stroke-width="1.3" d="M607,-915.33C671.98,-915.33 738,-915.33 738,-915.33 738,-915.33 738,-1014.95 738,-1014.95"/>
<polygon fill="none" stroke="#59687e" stroke-width="1.3" points="735.2,-1014.95 738,-1022.95 740.8,-1014.95 735.2,-1014.95"/>
<text text-anchor="middle" x="670" y="-1088.3" font-family="Noto Sans CJK KR" font-size="14.00" fill="#46566e">implements</text>
</g>
</g>
</svg>
