<?xml version="1.0" encoding="UTF-8" standalone="no"?>
<!DOCTYPE svg PUBLIC "-//W3C//DTD SVG 1.1//EN"
 "http://www.w3.org/Graphics/SVG/1.1/DTD/svg11.dtd">
<!-- Generated by graphviz version 15.1.0 (20260618.0150)
 -->
<!-- Title: G Pages: 1 -->
<svg width="867pt" height="1803pt"
 viewBox="12.00 12.00 855.00 1791.00" xmlns="http://www.w3.org/2000/svg" xmlns:xlink="http://www.w3.org/1999/xlink">
<g id="graph0" class="graph" transform="scale(1.33333 1.33333) rotate(0) translate(26.64 1325.5)">
<title>G</title>
<polygon fill="#ffffff" stroke="none" points="-18,18 -18,-1316.86 614.88,-1316.86 614.88,18 -18,18"/>
<!-- start -->
<g id="node1" class="node">
<title>start</title>
<ellipse fill="#182033" stroke="#182033" stroke-width="1.4" cx="429.08" cy="-1282.66" rx="16.2" ry="16.2"/>
</g>
<!-- Caller -->
<g id="node2" class="node">
<title>Caller</title>
<path fill="#f7f9fc" stroke="#bac7db" stroke-width="1.4" d="M562.91,-1213.46C562.91,-1213.46 295.25,-1213.46 295.25,-1213.46 289.25,-1213.46 283.25,-1207.46 283.25,-1201.46 283.25,-1201.46 283.25,-1178 283.25,-1178 283.25,-1172 289.25,-1166 295.25,-1166 295.25,-1166 562.91,-1166 562.91,-1166 568.91,-1166 574.91,-1172 574.91,-1178 574.91,-1178 574.91,-1201.46 574.91,-1201.46 574.91,-1207.46 568.91,-1213.46 562.91,-1213.46"/>
<text xml:space="preserve" text-anchor="middle" x="429.08" y="-1193.68" font-family="Noto Sans KR" font-size="14.00" fill="#182033">1. Skill / Status / Item</text>
<text xml:space="preserve" text-anchor="middle" x="429.08" y="-1176.43" font-family="Noto Sans KR" font-size="14.00" fill="#182033">internal definition normalization completed</text>
</g>
<!-- start&#45;&gt;Caller -->
<g id="edge1" class="edge">
<title>start&#45;&gt;Caller</title>
<path fill="none" stroke="#59687e" stroke-width="1.3" d="M429.08,-1265.82C429.08,-1254.16 429.08,-1237.9 429.08,-1223.49"/>
<polygon fill="#59687e" stroke="#59687e" stroke-width="1.3" points="431.88,-1223.86 429.08,-1215.86 426.28,-1223.86 431.88,-1223.86"/>
</g>
<!-- Request -->
<g id="node3" class="node">
<title>Request</title>
<path fill="#eaf0ff" stroke="#8292f7" stroke-width="1.4" d="M566.28,-1113C566.28,-1113 291.88,-1113 291.88,-1113 285.88,-1113 279.88,-1107 279.88,-1101 279.88,-1101 279.88,-1060.29 279.88,-1060.29 279.88,-1054.29 285.88,-1048.29 291.88,-1048.29 291.88,-1048.29 566.28,-1048.29 566.28,-1048.29 572.28,-1048.29 578.28,-1054.29 578.28,-1060.29 578.28,-1060.29 578.28,-1101 578.28,-1101 578.28,-1107 572.28,-1113 566.28,-1113"/>
<text xml:space="preserve" text-anchor="middle" x="429.08" y="-1093.22" font-family="Noto Sans KR" font-size="14.00" fill="#182033">2. &lt;&lt;public ports&gt;&gt;</text>
<text xml:space="preserve" text-anchor="middle" x="429.08" y="-1075.97" font-family="Noto Sans KR" font-size="14.00" fill="#182033">IEffectExecutor.Execute(Operation | Bundle)</text>
<text xml:space="preserve" text-anchor="middle" x="429.08" y="-1058.72" font-family="Noto Sans KR" font-size="14.00" fill="#182033">IEffectPlanner.Prepare(Bundle), EffectContext</text>
</g>
<!-- Caller&#45;&gt;Request -->
<g id="edge2" class="edge">
<title>Caller&#45;&gt;Request</title>
<path fill="none" stroke="#59687e" stroke-width="1.3" d="M429.08,-1165.49C429.08,-1153.1 429.08,-1137.47 429.08,-1123.08"/>
<polygon fill="#59687e" stroke="#59687e" stroke-width="1.3" points="431.88,-1123.33 429.08,-1115.33 426.28,-1123.33 431.88,-1123.33"/>
</g>
<!-- Validate -->
<g id="node4" class="node">
<title>Validate</title>
<path fill="#fff7e6" stroke="#e0ad4e" stroke-width="1.4" d="M530.28,-995.29C530.28,-995.29 327.88,-995.29 327.88,-995.29 321.88,-995.29 315.88,-989.29 315.88,-983.29 315.88,-983.29 315.88,-959.83 315.88,-959.83 315.88,-953.83 321.88,-947.83 327.88,-947.83 327.88,-947.83 530.28,-947.83 530.28,-947.83 536.28,-947.83 542.28,-953.83 542.28,-959.83 542.28,-959.83 542.28,-983.29 542.28,-983.29 542.28,-989.29 536.28,-995.29 530.28,-995.29"/>
<text xml:space="preserve" text-anchor="middle" x="429.08" y="-975.51" font-family="Noto Sans KR" font-size="14.00" fill="#182033">3. Runtime operation validation</text>
<text xml:space="preserve" text-anchor="middle" x="429.08" y="-958.26" font-family="Noto Sans KR" font-size="14.00" fill="#182033">source · request · reaction policy</text>
</g>
<!-- Request&#45;&gt;Validate -->
<g id="edge3" class="edge">
<title>Request&#45;&gt;Validate</title>
<path fill="none" stroke="#59687e" stroke-width="1.3" d="M429.08,-1047.81C429.08,-1034.54 429.08,-1019.14 429.08,-1005.73"/>
<polygon fill="#59687e" stroke="#59687e" stroke-width="1.3" points="431.88,-1005.91 429.08,-997.91 426.28,-1005.91 431.88,-1005.91"/>
</g>
<!-- Target -->
<g id="node5" class="node">
<title>Target</title>
<path fill="#f3eefc" stroke="#ab8fe0" stroke-width="1.4" d="M432.91,-894.83C432.91,-894.83 249.25,-894.83 249.25,-894.83 243.25,-894.83 237.25,-888.83 237.25,-882.83 237.25,-882.83 237.25,-859.37 237.25,-859.37 237.25,-853.37 243.25,-847.37 249.25,-847.37 249.25,-847.37 432.91,-847.37 432.91,-847.37 438.91,-847.37 444.91,-853.37 444.91,-859.37 444.91,-859.37 444.91,-882.83 444.91,-882.83 444.91,-888.83 438.91,-894.83 432.91,-894.83"/>
<text xml:space="preserve" text-anchor="middle" x="341.08" y="-875.05" font-family="Noto Sans KR" font-size="14.00" fill="#182033">4. Internal target revalidation</text>
<text xml:space="preserve" text-anchor="middle" x="341.08" y="-857.8" font-family="Noto Sans KR" font-size="14.00" fill="#182033">existence · alive · stable order</text>
</g>
<!-- Validate&#45;&gt;Target -->
<g id="edge4" class="edge">
<title>Validate&#45;&gt;Target</title>
<path fill="none" stroke="#59687e" stroke-width="1.3" d="M408.23,-947.23C396.28,-933.86 381.15,-916.94 368.28,-902.53"/>
<polygon fill="#59687e" stroke="#59687e" stroke-width="1.3" points="370.52,-900.83 363.1,-896.73 366.34,-904.56 370.52,-900.83"/>
</g>
<!-- Reject -->
<g id="node13" class="node">
<title>Reject</title>
<polygon fill="#fff0f3" stroke="#e07b91" stroke-width="1.4" points="590.88,-341.78 395.28,-341.78 395.28,-294.32 596.88,-294.32 596.88,-335.78 590.88,-341.78"/>
<polyline fill="none" stroke="#e07b91" stroke-width="1.4" points="590.88,-341.78 590.88,-335.78"/>
<polyline fill="none" stroke="#e07b91" stroke-width="1.4" points="596.88,-335.78 590.88,-335.78"/>
<text xml:space="preserve" text-anchor="middle" x="496.08" y="-322" font-family="Noto Sans KR" font-size="14.00" fill="#182033">실패</text>
<text xml:space="preserve" text-anchor="middle" x="496.08" y="-304.75" font-family="Noto Sans KR" font-size="14.00" fill="#182033">mutation 없음 · outbox 없음</text>
</g>
<!-- Validate&#45;&gt;Reject -->
<g id="edge14" class="edge">
<title>Validate&#45;&gt;Reject</title>
<path fill="none" stroke="#dc2626" stroke-width="1.3" stroke-dasharray="5,2" d="M448.75,-947.23C473.29,-918.11 512.08,-872.1 512.08,-872.1 512.08,-872.1 512.08,-872.1 512.08,-442.39 512.08,-442.39 505.1,-388.57 500.36,-352.04"/>
<polygon fill="#dc2626" stroke="#dc2626" stroke-width="1.3" points="503.15,-351.77 499.34,-344.2 497.6,-352.49 503.15,-351.77"/>
<text xml:space="preserve" text-anchor="middle" x="532.7" y="-648.26" font-family="Noto Sans KR" font-size="14.00" fill="#dc2626">invalid</text>
</g>
<!-- Prepare -->
<g id="node6" class="node">
<title>Prepare</title>
<path fill="#eefbf6" stroke="#61b99a" stroke-width="1.4" d="M430.66,-794.37C430.66,-794.37 197.5,-794.37 197.5,-794.37 191.5,-794.37 185.5,-788.37 185.5,-782.37 185.5,-782.37 185.5,-741.66 185.5,-741.66 185.5,-735.66 191.5,-729.66 197.5,-729.66 197.5,-729.66 430.66,-729.66 430.66,-729.66 436.66,-729.66 442.66,-735.66 442.66,-741.66 442.66,-741.66 442.66,-782.37 442.66,-782.37 442.66,-788.37 436.66,-794.37 430.66,-794.37"/>
<text xml:space="preserve" text-anchor="middle" x="314.08" y="-774.59" font-family="Noto Sans KR" font-size="14.00" fill="#182033">5. Operation 준비</text>
<text xml:space="preserve" text-anchor="middle" x="314.08" y="-757.34" font-family="Noto Sans KR" font-size="14.00" fill="#182033">DamageRequest / ApplyStatusRequest</text>
<text xml:space="preserve" text-anchor="middle" x="314.08" y="-740.09" font-family="Noto Sans KR" font-size="14.00" fill="#182033">ResourceMutation</text>
</g>
<!-- Target&#45;&gt;Prepare -->
<g id="edge5" class="edge">
<title>Target&#45;&gt;Prepare</title>
<path fill="none" stroke="#59687e" stroke-width="1.3" d="M335.22,-846.86C332.07,-834.35 328.08,-818.54 324.42,-804.03"/>
<polygon fill="#59687e" stroke="#59687e" stroke-width="1.3" points="327.23,-803.72 322.56,-796.64 321.8,-805.09 327.23,-803.72"/>
</g>
<!-- Plan -->
<g id="node8" class="node">
<title>Plan</title>
<path fill="#eaf0ff" stroke="#8292f7" stroke-width="1.4" d="M400.03,-676.66C400.03,-676.66 142.12,-676.66 142.12,-676.66 136.12,-676.66 130.12,-670.66 130.12,-664.66 130.12,-664.66 130.12,-641.2 130.12,-641.2 130.12,-635.2 136.12,-629.2 142.12,-629.2 142.12,-629.2 400.03,-629.2 400.03,-629.2 406.03,-629.2 412.03,-635.2 412.03,-641.2 412.03,-641.2 412.03,-664.66 412.03,-664.66 412.03,-670.66 406.03,-676.66 400.03,-676.66"/>
<text xml:space="preserve" text-anchor="middle" x="271.08" y="-656.88" font-family="Noto Sans KR" font-size="14.00" fill="#182033">6. &lt;&lt;public contract&gt;&gt; EffectBundlePlan</text>
<text xml:space="preserve" text-anchor="middle" x="271.08" y="-639.63" font-family="Noto Sans KR" font-size="14.00" fill="#182033">BundleId + PrimaryOperations + Reactions</text>
</g>
<!-- Prepare&#45;&gt;Plan -->
<g id="edge6" class="edge">
<title>Prepare&#45;&gt;Plan</title>
<path fill="none" stroke="#59687e" stroke-width="1.3" d="M301.3,-729.18C295.86,-715.65 289.54,-699.9 284.09,-686.32"/>
<polygon fill="#59687e" stroke="#59687e" stroke-width="1.3" points="286.78,-685.52 281.2,-679.14 281.59,-687.61 286.78,-685.52"/>
</g>
<!-- Resolve -->
<g id="node7" class="node">
<title>Resolve</title>
<path fill="#fff0f3" stroke="#e07b91" stroke-width="1.4" d="M212.16,-576.2C212.16,-576.2 12,-576.2 12,-576.2 6,-576.2 0,-570.2 0,-564.2 0,-564.2 0,-540.74 0,-540.74 0,-534.74 6,-528.74 12,-528.74 12,-528.74 212.16,-528.74 212.16,-528.74 218.16,-528.74 224.16,-534.74 224.16,-540.74 224.16,-540.74 224.16,-564.2 224.16,-564.2 224.16,-570.2 218.16,-576.2 212.16,-576.2"/>
<text xml:space="preserve" text-anchor="middle" x="112.08" y="-556.42" font-family="Noto Sans KR" font-size="14.00" fill="#182033">7. Internal operation execution</text>
<text xml:space="preserve" text-anchor="middle" x="112.08" y="-539.17" font-family="Noto Sans KR" font-size="14.00" fill="#182033">CombatResolver 등 순수 결과 계산</text>
</g>
<!-- Commit -->
<g id="node9" class="node">
<title>Commit</title>
<path fill="#eefbf6" stroke="#61b99a" stroke-width="1.4" d="M281.88,-475.74C281.88,-475.74 104.28,-475.74 104.28,-475.74 98.28,-475.74 92.28,-469.74 92.28,-463.74 92.28,-463.74 92.28,-423.03 92.28,-423.03 92.28,-417.03 98.28,-411.03 104.28,-411.03 104.28,-411.03 281.88,-411.03 281.88,-411.03 287.88,-411.03 293.88,-417.03 293.88,-423.03 293.88,-423.03 293.88,-463.74 293.88,-463.74 293.88,-469.74 287.88,-475.74 281.88,-475.74"/>
<text xml:space="preserve" text-anchor="middle" x="193.08" y="-455.96" font-family="Noto Sans KR" font-size="14.00" fill="#182033">8. RuntimeCommitter</text>
<text xml:space="preserve" text-anchor="middle" x="193.08" y="-438.71" font-family="Noto Sans KR" font-size="14.00" fill="#182033">비용 · 쿨다운 · 상태 · outbox</text>
<text xml:space="preserve" text-anchor="middle" x="193.08" y="-421.46" font-family="Noto Sans KR" font-size="14.00" fill="#182033">원자적 commit</text>
</g>
<!-- Resolve&#45;&gt;Commit -->
<g id="edge8" class="edge">
<title>Resolve&#45;&gt;Commit</title>
<path fill="none" stroke="#59687e" stroke-width="1.3" d="M129.66,-528.23C139.48,-515.24 151.99,-498.7 163.3,-483.75"/>
<polygon fill="#59687e" stroke="#59687e" stroke-width="1.3" points="165.31,-485.75 167.9,-477.68 160.84,-482.37 165.31,-485.75"/>
</g>
<!-- Plan&#45;&gt;Resolve -->
<g id="edge7" class="edge">
<title>Plan&#45;&gt;Resolve</title>
<path fill="none" stroke="#59687e" stroke-width="1.3" d="M233.4,-628.6C210.81,-614.61 181.92,-596.72 158,-581.91"/>
<polygon fill="#59687e" stroke="#59687e" stroke-width="1.3" points="159.71,-579.67 151.44,-577.84 156.77,-584.43 159.71,-579.67"/>
</g>
<!-- Plan&#45;&gt;Commit -->
<g id="edge13" class="edge">
<title>Plan&#45;&gt;Commit</title>
<path fill="none" stroke="#6366f1" stroke-width="1.3" stroke-dasharray="5,2" d="M266,-628.76C258.18,-593.07 244.08,-528.74 244.08,-528.74 244.08,-528.74 230.5,-506.27 217.35,-484.53"/>
<polygon fill="#6366f1" stroke="#6366f1" stroke-width="1.3" points="219.91,-483.36 213.38,-477.96 215.12,-486.25 219.91,-483.36"/>
<text xml:space="preserve" text-anchor="middle" x="327.96" y="-547.8" font-family="Noto Sans KR" font-size="14.00" fill="#4338ca">caller composition path</text>
</g>
<!-- Facts -->
<g id="node10" class="node">
<title>Facts</title>
<path fill="#e9fbff" stroke="#54b7cf" stroke-width="1.4" d="M311.16,-341.78C311.16,-341.78 75,-341.78 75,-341.78 69,-341.78 63,-335.78 63,-329.78 63,-329.78 63,-306.32 63,-306.32 63,-300.32 69,-294.32 75,-294.32 75,-294.32 311.16,-294.32 311.16,-294.32 317.16,-294.32 323.16,-300.32 323.16,-306.32 323.16,-306.32 323.16,-329.78 323.16,-329.78 323.16,-335.78 317.16,-341.78 311.16,-341.78"/>
<text xml:space="preserve" text-anchor="middle" x="193.08" y="-322" font-family="Noto Sans KR" font-size="14.00" fill="#182033">9. Committed facts</text>
<text xml:space="preserve" text-anchor="middle" x="193.08" y="-304.75" font-family="Noto Sans KR" font-size="14.00" fill="#182033">EffectCompleted · DamageCommitted</text>
</g>
<!-- Commit&#45;&gt;Facts -->
<g id="edge9" class="edge">
<title>Commit&#45;&gt;Facts</title>
<path fill="none" stroke="#59687e" stroke-width="1.3" d="M193.08,-410.62C193.08,-392.64 193.08,-370.18 193.08,-352.01"/>
<polygon fill="#59687e" stroke="#59687e" stroke-width="1.3" points="195.88,-352.1 193.08,-344.1 190.28,-352.1 195.88,-352.1"/>
</g>
<!-- Commit&#45;&gt;Reject -->
<g id="edge15" class="edge">
<title>Commit&#45;&gt;Reject</title>
<path fill="none" stroke="#dc2626" stroke-width="1.3" stroke-dasharray="5,2" d="M259.69,-410.53C302.09,-390.25 349.08,-367.78 349.08,-367.78 349.08,-367.78 381.76,-356.95 416.31,-345.49"/>
<polygon fill="#dc2626" stroke="#dc2626" stroke-width="1.3" points="417.01,-348.21 423.73,-343.04 415.25,-342.89 417.01,-348.21"/>
<text xml:space="preserve" text-anchor="middle" x="415.08" y="-371.73" font-family="Noto Sans KR" font-size="14.00" fill="#dc2626">version / invariant fail</text>
</g>
<!-- Queue -->
<g id="node11" class="node">
<title>Queue</title>
<path fill="#f3eefc" stroke="#ab8fe0" stroke-width="1.4" d="M316.03,-241.32C316.03,-241.32 70.12,-241.32 70.12,-241.32 64.12,-241.32 58.12,-235.32 58.12,-229.32 58.12,-229.32 58.12,-205.86 58.12,-205.86 58.12,-199.86 64.12,-193.86 70.12,-193.86 70.12,-193.86 316.03,-193.86 316.03,-193.86 322.03,-193.86 328.03,-199.86 328.03,-205.86 328.03,-205.86 328.03,-229.32 328.03,-229.32 328.03,-235.32 322.03,-241.32 316.03,-241.32"/>
<text xml:space="preserve" text-anchor="middle" x="193.08" y="-221.54" font-family="Noto Sans KR" font-size="14.00" fill="#182033">10. ReactionQueue</text>
<text xml:space="preserve" text-anchor="middle" x="193.08" y="-204.29" font-family="Noto Sans KR" font-size="14.00" fill="#182033">상태 변경 반응을 새 command로 enqueue</text>
</g>
<!-- Facts&#45;&gt;Queue -->
<g id="edge10" class="edge">
<title>Facts&#45;&gt;Queue</title>
<path fill="none" stroke="#59687e" stroke-width="1.3" d="M193.08,-293.72C193.08,-281.09 193.08,-265.28 193.08,-251.42"/>
<polygon fill="#59687e" stroke="#59687e" stroke-width="1.3" points="195.88,-251.72 193.08,-243.72 190.28,-251.72 195.88,-251.72"/>
</g>
<!-- Result -->
<g id="node12" class="node">
<title>Result</title>
<path fill="#f0f3f9" stroke="#99a8bd" stroke-width="1.4" d="M302.91,-140.86C302.91,-140.86 83.25,-140.86 83.25,-140.86 77.25,-140.86 71.25,-134.86 71.25,-128.86 71.25,-128.86 71.25,-105.4 71.25,-105.4 71.25,-99.4 77.25,-93.4 83.25,-93.4 83.25,-93.4 302.91,-93.4 302.91,-93.4 308.91,-93.4 314.91,-99.4 314.91,-105.4 314.91,-105.4 314.91,-128.86 314.91,-128.86 314.91,-134.86 308.91,-140.86 302.91,-140.86"/>
<text xml:space="preserve" text-anchor="middle" x="193.08" y="-121.08" font-family="Noto Sans KR" font-size="14.00" fill="#182033">11. EffectBundleResult / DebugTrace</text>
<text xml:space="preserve" text-anchor="middle" x="193.08" y="-103.83" font-family="Noto Sans KR" font-size="14.00" fill="#182033">commit 결과와 계산 근거</text>
</g>
<!-- Queue&#45;&gt;Result -->
<g id="edge11" class="edge">
<title>Queue&#45;&gt;Result</title>
<path fill="none" stroke="#59687e" stroke-width="1.3" d="M193.08,-193.26C193.08,-180.63 193.08,-164.82 193.08,-150.96"/>
<polygon fill="#59687e" stroke="#59687e" stroke-width="1.3" points="195.88,-151.26 193.08,-143.26 190.28,-151.26 195.88,-151.26"/>
</g>
<!-- end -->
<g id="node14" class="node">
<title>end</title>
<ellipse fill="#ffffff" stroke="#182033" stroke-width="1.4" cx="193.08" cy="-20.2" rx="16.2" ry="16.2"/>
<ellipse fill="none" stroke="#182033" stroke-width="1.4" cx="193.08" cy="-20.2" rx="20.2" ry="20.2"/>
</g>
<!-- Result&#45;&gt;end -->
<g id="edge12" class="edge">
<title>Result&#45;&gt;end</title>
<path fill="none" stroke="#59687e" stroke-width="1.3" d="M193.08,-93.15C193.08,-80.47 193.08,-64.58 193.08,-50.96"/>
<polygon fill="#59687e" stroke="#59687e" stroke-width="1.3" points="195.88,-51.04 193.08,-43.04 190.28,-51.04 195.88,-51.04"/>
</g>
</g>
</svg>
