<?xml version="1.0" encoding="UTF-8" standalone="no"?>
<!DOCTYPE svg PUBLIC "-//W3C//DTD SVG 1.1//EN"
 "http://www.w3.org/Graphics/SVG/1.1/DTD/svg11.dtd">
<!-- Generated by graphviz version 15.0.0 (20260523.1842)
 -->
<!-- Title: G Pages: 1 -->
<svg width="619pt" height="1292pt"
 viewBox="9.00 9.00 610.00 1284.00" xmlns="http://www.w3.org/2000/svg" xmlns:xlink="http://www.w3.org/1999/xlink">
<g id="graph0" class="graph" transform="scale(1 1) rotate(0) translate(26.64 1265.8)">
<title>G</title>
<polygon fill="#ffffff" stroke="none" points="-18,18 -18,-1257.16 583.68,-1257.16 583.68,18 -18,18"/>
<!-- start -->
<g id="node1" class="node">
<title>start</title>
<ellipse fill="#182033" stroke="#182033" stroke-width="1.4" cx="387.88" cy="-1222.96" rx="16.2" ry="16.2"/>
</g>
<!-- Caller -->
<g id="node2" class="node">
<title>Caller</title>
<path fill="#f7f9fc" stroke="#bac7db" stroke-width="1.4" d="M507.84,-1157.76C507.84,-1157.76 267.92,-1157.76 267.92,-1157.76 261.92,-1157.76 255.92,-1151.76 255.92,-1145.76 255.92,-1145.76 255.92,-1123.2 255.92,-1123.2 255.92,-1117.2 261.92,-1111.2 267.92,-1111.2 267.92,-1111.2 507.84,-1111.2 507.84,-1111.2 513.84,-1111.2 519.84,-1117.2 519.84,-1123.2 519.84,-1123.2 519.84,-1145.76 519.84,-1145.76 519.84,-1151.76 513.84,-1157.76 507.84,-1157.76"/>
<text xml:space="preserve" text-anchor="middle" x="387.88" y="-1138.68" font-family="Noto Sans CJK KR" font-size="14.00" fill="#182033">1. Skill / Status / Item</text>
<text xml:space="preserve" text-anchor="middle" x="387.88" y="-1121.88" font-family="Noto Sans CJK KR" font-size="14.00" fill="#182033">internal definition normalization completed</text>
</g>
<!-- start&#45;&gt;Caller -->
<g id="edge1" class="edge">
<title>start&#45;&gt;Caller</title>
<path fill="none" stroke="#59687e" stroke-width="1.3" d="M387.88,-1206.32C387.88,-1206.32 387.88,-1168.36 387.88,-1168.36"/>
<polygon fill="#59687e" stroke="#59687e" stroke-width="1.3" points="390.68,-1168.36 387.88,-1160.36 385.08,-1168.36 390.68,-1168.36"/>
</g>
<!-- Request -->
<g id="node3" class="node">
<title>Request</title>
<path fill="#eaf0ff" stroke="#8292f7" stroke-width="1.4" d="M517.54,-1062.2C517.54,-1062.2 258.22,-1062.2 258.22,-1062.2 252.22,-1062.2 246.22,-1056.2 246.22,-1050.2 246.22,-1050.2 246.22,-1010.84 246.22,-1010.84 246.22,-1004.84 252.22,-998.84 258.22,-998.84 258.22,-998.84 517.54,-998.84 517.54,-998.84 523.54,-998.84 529.54,-1004.84 529.54,-1010.84 529.54,-1010.84 529.54,-1050.2 529.54,-1050.2 529.54,-1056.2 523.54,-1062.2 517.54,-1062.2"/>
<text xml:space="preserve" text-anchor="middle" x="387.88" y="-1043.12" font-family="Noto Sans CJK KR" font-size="14.00" fill="#182033">2. &lt;&lt;public ports&gt;&gt;</text>
<text xml:space="preserve" text-anchor="middle" x="387.88" y="-1026.32" font-family="Noto Sans CJK KR" font-size="14.00" fill="#182033">IEffectExecutor.Execute(Operation | Bundle)</text>
<text xml:space="preserve" text-anchor="middle" x="387.88" y="-1009.52" font-family="Noto Sans CJK KR" font-size="14.00" fill="#182033">IEffectPlanner.Prepare(Bundle), EffectContext</text>
</g>
<!-- Caller&#45;&gt;Request -->
<g id="edge2" class="edge">
<title>Caller&#45;&gt;Request</title>
<path fill="none" stroke="#59687e" stroke-width="1.3" d="M387.88,-1110.63C387.88,-1110.63 387.88,-1072.5 387.88,-1072.5"/>
<polygon fill="#59687e" stroke="#59687e" stroke-width="1.3" points="390.68,-1072.5 387.88,-1064.5 385.08,-1072.5 390.68,-1072.5"/>
</g>
<!-- Validate -->
<g id="node4" class="node">
<title>Validate</title>
<path fill="#fff7e6" stroke="#e0ad4e" stroke-width="1.4" d="M480.23,-949.84C480.23,-949.84 295.53,-949.84 295.53,-949.84 289.53,-949.84 283.53,-943.84 283.53,-937.84 283.53,-937.84 283.53,-915.28 283.53,-915.28 283.53,-909.28 289.53,-903.28 295.53,-903.28 295.53,-903.28 480.23,-903.28 480.23,-903.28 486.23,-903.28 492.23,-909.28 492.23,-915.28 492.23,-915.28 492.23,-937.84 492.23,-937.84 492.23,-943.84 486.23,-949.84 480.23,-949.84"/>
<text xml:space="preserve" text-anchor="middle" x="387.88" y="-930.76" font-family="Noto Sans CJK KR" font-size="14.00" fill="#182033">3. Runtime operation validation</text>
<text xml:space="preserve" text-anchor="middle" x="387.88" y="-913.96" font-family="Noto Sans CJK KR" font-size="14.00" fill="#182033">source · request · reaction policy</text>
</g>
<!-- Request&#45;&gt;Validate -->
<g id="edge3" class="edge">
<title>Request&#45;&gt;Validate</title>
<path fill="none" stroke="#59687e" stroke-width="1.3" d="M387.88,-998.2C387.88,-998.2 387.88,-960.24 387.88,-960.24"/>
<polygon fill="#59687e" stroke="#59687e" stroke-width="1.3" points="390.68,-960.24 387.88,-952.24 385.08,-960.24 390.68,-960.24"/>
</g>
<!-- Target -->
<g id="node5" class="node">
<title>Target</title>
<path fill="#f3eefc" stroke="#ab8fe0" stroke-width="1.4" d="M395.68,-854.28C395.68,-854.28 218.08,-854.28 218.08,-854.28 212.08,-854.28 206.08,-848.28 206.08,-842.28 206.08,-842.28 206.08,-819.72 206.08,-819.72 206.08,-813.72 212.08,-807.72 218.08,-807.72 218.08,-807.72 395.68,-807.72 395.68,-807.72 401.68,-807.72 407.68,-813.72 407.68,-819.72 407.68,-819.72 407.68,-842.28 407.68,-842.28 407.68,-848.28 401.68,-854.28 395.68,-854.28"/>
<text xml:space="preserve" text-anchor="middle" x="306.88" y="-835.2" font-family="Noto Sans CJK KR" font-size="14.00" fill="#182033">4. Internal target revalidation</text>
<text xml:space="preserve" text-anchor="middle" x="306.88" y="-818.4" font-family="Noto Sans CJK KR" font-size="14.00" fill="#182033">existence · alive · stable order</text>
</g>
<!-- Validate&#45;&gt;Target -->
<g id="edge4" class="edge">
<title>Validate&#45;&gt;Target</title>
<path fill="none" stroke="#59687e" stroke-width="1.3" d="M345.6,-902.94C345.6,-902.94 345.6,-864.65 345.6,-864.65"/>
<polygon fill="#59687e" stroke="#59687e" stroke-width="1.3" points="348.4,-864.65 345.6,-856.65 342.8,-864.65 348.4,-864.65"/>
</g>
<!-- Reject -->
<g id="node13" class="node">
<title>Reject</title>
<polygon fill="#fff0f3" stroke="#e07b91" stroke-width="1.4" points="559.68,-327.08 364.08,-327.08 364.08,-280.52 565.68,-280.52 565.68,-321.08 559.68,-327.08"/>
<polyline fill="none" stroke="#e07b91" stroke-width="1.4" points="559.68,-327.08 559.68,-321.08"/>
<polyline fill="none" stroke="#e07b91" stroke-width="1.4" points="565.68,-321.08 559.68,-321.08"/>
<text xml:space="preserve" text-anchor="middle" x="464.88" y="-308" font-family="Noto Sans CJK KR" font-size="14.00" fill="#182033">실패</text>
<text xml:space="preserve" text-anchor="middle" x="464.88" y="-291.2" font-family="Noto Sans CJK KR" font-size="14.00" fill="#182033">mutation 없음 · outbox 없음</text>
</g>
<!-- Validate&#45;&gt;Reject -->
<g id="edge14" class="edge">
<title>Validate&#45;&gt;Reject</title>
<path fill="none" stroke="#dc2626" stroke-width="1.3" stroke-dasharray="5,2" d="M449.95,-902.91C449.95,-902.91 449.95,-337.44 449.95,-337.44"/>
<polygon fill="#dc2626" stroke="#dc2626" stroke-width="1.3" points="452.75,-337.44 449.95,-329.44 447.15,-337.44 452.75,-337.44"/>
<text xml:space="preserve" text-anchor="middle" x="484.32" y="-618.88" font-family="Noto Sans CJK KR" font-size="14.00" fill="#dc2626">invalid</text>
</g>
<!-- Prepare -->
<g id="node6" class="node">
<title>Prepare</title>
<path fill="#eefbf6" stroke="#61b99a" stroke-width="1.4" d="M392.44,-758.72C392.44,-758.72 179.32,-758.72 179.32,-758.72 173.32,-758.72 167.32,-752.72 167.32,-746.72 167.32,-746.72 167.32,-707.36 167.32,-707.36 167.32,-701.36 173.32,-695.36 179.32,-695.36 179.32,-695.36 392.44,-695.36 392.44,-695.36 398.44,-695.36 404.44,-701.36 404.44,-707.36 404.44,-707.36 404.44,-746.72 404.44,-746.72 404.44,-752.72 398.44,-758.72 392.44,-758.72"/>
<text xml:space="preserve" text-anchor="middle" x="285.88" y="-739.64" font-family="Noto Sans CJK KR" font-size="14.00" fill="#182033">5. Operation 준비</text>
<text xml:space="preserve" text-anchor="middle" x="285.88" y="-722.84" font-family="Noto Sans CJK KR" font-size="14.00" fill="#182033">DamageRequest / ApplyStatusRequest</text>
<text xml:space="preserve" text-anchor="middle" x="285.88" y="-706.04" font-family="Noto Sans CJK KR" font-size="14.00" fill="#182033">ResourceMutation</text>
</g>
<!-- Target&#45;&gt;Prepare -->
<g id="edge5" class="edge">
<title>Target&#45;&gt;Prepare</title>
<path fill="none" stroke="#59687e" stroke-width="1.3" d="M305.26,-807.15C305.26,-807.15 305.26,-769.02 305.26,-769.02"/>
<polygon fill="#59687e" stroke="#59687e" stroke-width="1.3" points="308.06,-769.02 305.26,-761.02 302.46,-769.02 308.06,-769.02"/>
</g>
<!-- Plan -->
<g id="node8" class="node">
<title>Plan</title>
<path fill="#eaf0ff" stroke="#8292f7" stroke-width="1.4" d="M382.77,-646.36C382.77,-646.36 142.98,-646.36 142.98,-646.36 136.98,-646.36 130.98,-640.36 130.98,-634.36 130.98,-634.36 130.98,-611.8 130.98,-611.8 130.98,-605.8 136.98,-599.8 142.98,-599.8 142.98,-599.8 382.77,-599.8 382.77,-599.8 388.77,-599.8 394.77,-605.8 394.77,-611.8 394.77,-611.8 394.77,-634.36 394.77,-634.36 394.77,-640.36 388.77,-646.36 382.77,-646.36"/>
<text xml:space="preserve" text-anchor="middle" x="262.88" y="-627.28" font-family="Noto Sans CJK KR" font-size="14.00" fill="#182033">6. &lt;&lt;public contract&gt;&gt; EffectBundlePlan</text>
<text xml:space="preserve" text-anchor="middle" x="262.88" y="-610.48" font-family="Noto Sans CJK KR" font-size="14.00" fill="#182033">BundleId + PrimaryOperations + Reactions</text>
</g>
<!-- Prepare&#45;&gt;Plan -->
<g id="edge6" class="edge">
<title>Prepare&#45;&gt;Plan</title>
<path fill="none" stroke="#59687e" stroke-width="1.3" d="M281.05,-694.72C281.05,-694.72 281.05,-656.76 281.05,-656.76"/>
<polygon fill="#59687e" stroke="#59687e" stroke-width="1.3" points="283.85,-656.76 281.05,-648.76 278.25,-656.76 283.85,-656.76"/>
</g>
<!-- Resolve -->
<g id="node7" class="node">
<title>Resolve</title>
<path fill="#fff0f3" stroke="#e07b91" stroke-width="1.4" d="M189.76,-550.8C189.76,-550.8 12,-550.8 12,-550.8 6,-550.8 0,-544.8 0,-538.8 0,-538.8 0,-516.24 0,-516.24 0,-510.24 6,-504.24 12,-504.24 12,-504.24 189.76,-504.24 189.76,-504.24 195.76,-504.24 201.76,-510.24 201.76,-516.24 201.76,-516.24 201.76,-538.8 201.76,-538.8 201.76,-544.8 195.76,-550.8 189.76,-550.8"/>
<text xml:space="preserve" text-anchor="middle" x="100.88" y="-531.72" font-family="Noto Sans CJK KR" font-size="14.00" fill="#182033">7. Internal operation execution</text>
<text xml:space="preserve" text-anchor="middle" x="100.88" y="-514.92" font-family="Noto Sans CJK KR" font-size="14.00" fill="#182033">CombatResolver 등 순수 결과 계산</text>
</g>
<!-- Commit -->
<g id="node9" class="node">
<title>Commit</title>
<path fill="#eefbf6" stroke="#61b99a" stroke-width="1.4" d="M344.68,-455.24C344.68,-455.24 167.08,-455.24 167.08,-455.24 161.08,-455.24 155.08,-449.24 155.08,-443.24 155.08,-443.24 155.08,-403.88 155.08,-403.88 155.08,-397.88 161.08,-391.88 167.08,-391.88 167.08,-391.88 344.68,-391.88 344.68,-391.88 350.68,-391.88 356.68,-397.88 356.68,-403.88 356.68,-403.88 356.68,-443.24 356.68,-443.24 356.68,-449.24 350.68,-455.24 344.68,-455.24"/>
<text xml:space="preserve" text-anchor="middle" x="255.88" y="-436.16" font-family="Noto Sans CJK KR" font-size="14.00" fill="#182033">8. RuntimeCommitter</text>
<text xml:space="preserve" text-anchor="middle" x="255.88" y="-419.36" font-family="Noto Sans CJK KR" font-size="14.00" fill="#182033">비용 · 쿨다운 · 상태 · outbox</text>
<text xml:space="preserve" text-anchor="middle" x="255.88" y="-402.56" font-family="Noto Sans CJK KR" font-size="14.00" fill="#182033">원자적 commit</text>
</g>
<!-- Resolve&#45;&gt;Commit -->
<g id="edge8" class="edge">
<title>Resolve&#45;&gt;Commit</title>
<path fill="none" stroke="#59687e" stroke-width="1.3" d="M178.42,-503.67C178.42,-503.67 178.42,-465.54 178.42,-465.54"/>
<polygon fill="#59687e" stroke="#59687e" stroke-width="1.3" points="181.22,-465.54 178.42,-457.54 175.62,-465.54 181.22,-465.54"/>
</g>
<!-- Plan&#45;&gt;Resolve -->
<g id="edge7" class="edge">
<title>Plan&#45;&gt;Resolve</title>
<path fill="none" stroke="#59687e" stroke-width="1.3" d="M166.37,-599.46C166.37,-599.46 166.37,-561.17 166.37,-561.17"/>
<polygon fill="#59687e" stroke="#59687e" stroke-width="1.3" points="169.17,-561.17 166.37,-553.17 163.57,-561.17 169.17,-561.17"/>
</g>
<!-- Plan&#45;&gt;Commit -->
<g id="edge13" class="edge">
<title>Plan&#45;&gt;Commit</title>
<path fill="none" stroke="#59687e" stroke-width="1.3" stroke-dasharray="5,2" d="M279.22,-599.41C279.22,-599.41 279.22,-465.73 279.22,-465.73"/>
<polygon fill="#59687e" stroke="#59687e" stroke-width="1.3" points="282.02,-465.73 279.22,-457.73 276.42,-465.73 282.02,-465.73"/>
<text xml:space="preserve" text-anchor="middle" x="337.58" y="-523.32" font-family="Noto Sans CJK KR" font-size="14.00" fill="#46566e">caller composition path</text>
</g>
<!-- Facts -->
<g id="node10" class="node">
<title>Facts</title>
<path fill="#e9fbff" stroke="#54b7cf" stroke-width="1.4" d="M316.59,-327.08C316.59,-327.08 101.16,-327.08 101.16,-327.08 95.16,-327.08 89.16,-321.08 89.16,-315.08 89.16,-315.08 89.16,-292.52 89.16,-292.52 89.16,-286.52 95.16,-280.52 101.16,-280.52 101.16,-280.52 316.59,-280.52 316.59,-280.52 322.59,-280.52 328.59,-286.52 328.59,-292.52 328.59,-292.52 328.59,-315.08 328.59,-315.08 328.59,-321.08 322.59,-327.08 316.59,-327.08"/>
<text xml:space="preserve" text-anchor="middle" x="208.88" y="-308" font-family="Noto Sans CJK KR" font-size="14.00" fill="#182033">9. Committed facts</text>
<text xml:space="preserve" text-anchor="middle" x="208.88" y="-291.2" font-family="Noto Sans CJK KR" font-size="14.00" fill="#182033">EffectCompleted · DamageCommitted</text>
</g>
<!-- Commit&#45;&gt;Facts -->
<g id="edge9" class="edge">
<title>Commit&#45;&gt;Facts</title>
<path fill="none" stroke="#59687e" stroke-width="1.3" d="M241.84,-391.47C241.84,-391.47 241.84,-337.59 241.84,-337.59"/>
<polygon fill="#59687e" stroke="#59687e" stroke-width="1.3" points="244.64,-337.59 241.84,-329.59 239.04,-337.59 244.64,-337.59"/>
</g>
<!-- Commit&#45;&gt;Reject -->
<g id="edge15" class="edge">
<title>Commit&#45;&gt;Reject</title>
<path fill="none" stroke="#dc2626" stroke-width="1.3" stroke-dasharray="5,2" d="M342.64,-391.21C342.64,-355.8 342.64,-304 342.64,-304 342.64,-304 353.68,-304 353.68,-304"/>
<polygon fill="#dc2626" stroke="#dc2626" stroke-width="1.3" points="353.68,-306.8 361.68,-304 353.68,-301.2 353.68,-306.8"/>
<text xml:space="preserve" text-anchor="middle" x="362.89" y="-355.28" font-family="Noto Sans CJK KR" font-size="14.00" fill="#dc2626">version / invariant fail</text>
</g>
<!-- Queue -->
<g id="node11" class="node">
<title>Queue</title>
<path fill="#f3eefc" stroke="#ab8fe0" stroke-width="1.4" d="M313.88,-231.52C313.88,-231.52 103.87,-231.52 103.87,-231.52 97.87,-231.52 91.87,-225.52 91.87,-219.52 91.87,-219.52 91.87,-196.96 91.87,-196.96 91.87,-190.96 97.87,-184.96 103.87,-184.96 103.87,-184.96 313.88,-184.96 313.88,-184.96 319.88,-184.96 325.88,-190.96 325.88,-196.96 325.88,-196.96 325.88,-219.52 325.88,-219.52 325.88,-225.52 319.88,-231.52 313.88,-231.52"/>
<text xml:space="preserve" text-anchor="middle" x="208.88" y="-212.44" font-family="Noto Sans CJK KR" font-size="14.00" fill="#182033">10. ReactionQueue</text>
<text xml:space="preserve" text-anchor="middle" x="208.88" y="-195.64" font-family="Noto Sans CJK KR" font-size="14.00" fill="#182033">상태 변경 반응을 새 command로 enqueue</text>
</g>
<!-- Facts&#45;&gt;Queue -->
<g id="edge10" class="edge">
<title>Facts&#45;&gt;Queue</title>
<path fill="none" stroke="#59687e" stroke-width="1.3" d="M208.88,-280.18C208.88,-280.18 208.88,-241.89 208.88,-241.89"/>
<polygon fill="#59687e" stroke="#59687e" stroke-width="1.3" points="211.68,-241.89 208.88,-233.89 206.08,-241.89 211.68,-241.89"/>
</g>
<!-- Result -->
<g id="node12" class="node">
<title>Result</title>
<path fill="#f0f3f9" stroke="#99a8bd" stroke-width="1.4" d="M312.7,-135.96C312.7,-135.96 105.06,-135.96 105.06,-135.96 99.06,-135.96 93.06,-129.96 93.06,-123.96 93.06,-123.96 93.06,-101.4 93.06,-101.4 93.06,-95.4 99.06,-89.4 105.06,-89.4 105.06,-89.4 312.7,-89.4 312.7,-89.4 318.7,-89.4 324.7,-95.4 324.7,-101.4 324.7,-101.4 324.7,-123.96 324.7,-123.96 324.7,-129.96 318.7,-135.96 312.7,-135.96"/>
<text xml:space="preserve" text-anchor="middle" x="208.88" y="-116.88" font-family="Noto Sans CJK KR" font-size="14.00" fill="#182033">11. EffectBundleResult / DebugTrace</text>
<text xml:space="preserve" text-anchor="middle" x="208.88" y="-100.08" font-family="Noto Sans CJK KR" font-size="14.00" fill="#182033">commit 결과와 계산 근거</text>
</g>
<!-- Queue&#45;&gt;Result -->
<g id="edge11" class="edge">
<title>Queue&#45;&gt;Result</title>
<path fill="none" stroke="#59687e" stroke-width="1.3" d="M208.88,-184.62C208.88,-184.62 208.88,-146.33 208.88,-146.33"/>
<polygon fill="#59687e" stroke="#59687e" stroke-width="1.3" points="211.68,-146.33 208.88,-138.33 206.08,-146.33 211.68,-146.33"/>
</g>
<!-- end -->
<g id="node14" class="node">
<title>end</title>
<ellipse fill="#ffffff" stroke="#182033" stroke-width="1.4" cx="208.88" cy="-20.2" rx="16.2" ry="16.2"/>
<ellipse fill="none" stroke="#182033" stroke-width="1.4" cx="208.88" cy="-20.2" rx="20.2" ry="20.2"/>
</g>
<!-- Result&#45;&gt;end -->
<g id="edge12" class="edge">
<title>Result&#45;&gt;end</title>
<path fill="none" stroke="#59687e" stroke-width="1.3" d="M208.88,-88.86C208.88,-88.86 208.88,-50.76 208.88,-50.76"/>
<polygon fill="#59687e" stroke="#59687e" stroke-width="1.3" points="211.68,-50.76 208.88,-42.76 206.08,-50.76 211.68,-50.76"/>
</g>
</g>
</svg>
