<?xml version="1.0" encoding="UTF-8" standalone="no"?>
<!DOCTYPE svg PUBLIC "-//W3C//DTD SVG 1.1//EN"
 "http://www.w3.org/Graphics/SVG/1.1/DTD/svg11.dtd">
<!-- Generated by graphviz version 2.42.4 (0)
 -->
<!-- Title: G Pages: 1 -->
<svg width="727pt" height="1098pt"
 viewBox="8.64 8.64 718.14 1089.64" xmlns="http://www.w3.org/2000/svg" xmlns:xlink="http://www.w3.org/1999/xlink">
<g id="graph0" class="graph" transform="scale(1 1) rotate(0) translate(26.64 1071.64)">
<title>G</title>
<polygon fill="#ffffff" stroke="transparent" points="-18,18 -18,-1063 691.5,-1063 691.5,18 -18,18"/>
<!-- start -->
<g id="node1" class="node">
<title>start</title>
<ellipse fill="#182033" stroke="#182033" stroke-width="1.4" cx="315.5" cy="-1029" rx="16" ry="16"/>
</g>
<!-- Skill -->
<g id="node2" class="node">
<title>Skill</title>
<path fill="#f7f9fc" stroke="#bac7db" stroke-width="1.4" d="M397,-964C397,-964 234,-964 234,-964 228,-964 222,-958 222,-952 222,-952 222,-934 222,-934 222,-928 228,-922 234,-922 234,-922 397,-922 397,-922 403,-922 409,-928 409,-934 409,-934 409,-952 409,-952 409,-958 403,-964 397,-964"/>
<text text-anchor="middle" x="315.5" y="-946.8" font-family="Noto Sans CJK KR" font-size="14.00" fill="#182033">1. SkillSystem</text>
<text text-anchor="middle" x="315.5" y="-931.8" font-family="Noto Sans CJK KR" font-size="14.00" fill="#182033">EffectBundle 실행 요청</text>
</g>
<!-- start&#45;&gt;Skill -->
<g id="edge1" class="edge">
<title>start&#45;&gt;Skill</title>
<path fill="none" stroke="#59687e" stroke-width="1.3" d="M315.5,-1012.82C315.5,-1012.82 315.5,-972.31 315.5,-972.31"/>
<polygon fill="#59687e" stroke="#59687e" stroke-width="1.3" points="318.3,-972.3 315.5,-964.31 312.7,-972.31 318.3,-972.3"/>
</g>
<!-- Request -->
<g id="node3" class="node">
<title>Request</title>
<path fill="#eaf0ff" stroke="#8292f7" stroke-width="1.4" d="M404.5,-873C404.5,-873 226.5,-873 226.5,-873 220.5,-873 214.5,-867 214.5,-861 214.5,-861 214.5,-843 214.5,-843 214.5,-837 220.5,-831 226.5,-831 226.5,-831 404.5,-831 404.5,-831 410.5,-831 416.5,-837 416.5,-843 416.5,-843 416.5,-861 416.5,-861 416.5,-867 410.5,-873 404.5,-873"/>
<text text-anchor="middle" x="315.5" y="-855.8" font-family="Noto Sans CJK KR" font-size="14.00" fill="#182033">2. EffectPipeline</text>
<text text-anchor="middle" x="315.5" y="-840.8" font-family="Noto Sans CJK KR" font-size="14.00" fill="#182033">EffectRequest + Context 생성</text>
</g>
<!-- Skill&#45;&gt;Request -->
<g id="edge2" class="edge">
<title>Skill&#45;&gt;Request</title>
<path fill="none" stroke="#59687e" stroke-width="1.3" d="M315.5,-921.89C315.5,-921.89 315.5,-881.31 315.5,-881.31"/>
<polygon fill="#59687e" stroke="#59687e" stroke-width="1.3" points="318.3,-881.31 315.5,-873.31 312.7,-881.31 318.3,-881.31"/>
</g>
<!-- Validate -->
<g id="node4" class="node">
<title>Validate</title>
<path fill="#fff7e6" stroke="#e0ad4e" stroke-width="1.4" d="M397,-782C397,-782 234,-782 234,-782 228,-782 222,-776 222,-770 222,-770 222,-752 222,-752 222,-746 228,-740 234,-740 234,-740 397,-740 397,-740 403,-740 409,-746 409,-752 409,-752 409,-770 409,-770 409,-776 403,-782 397,-782"/>
<text text-anchor="middle" x="315.5" y="-764.8" font-family="Noto Sans CJK KR" font-size="14.00" fill="#182033">3. Condition 검증</text>
<text text-anchor="middle" x="315.5" y="-749.8" font-family="Noto Sans CJK KR" font-size="14.00" fill="#182033">쿨다운/태그/상태/자원</text>
</g>
<!-- Request&#45;&gt;Validate -->
<g id="edge3" class="edge">
<title>Request&#45;&gt;Validate</title>
<path fill="none" stroke="#59687e" stroke-width="1.3" d="M315.5,-830.89C315.5,-830.89 315.5,-790.31 315.5,-790.31"/>
<polygon fill="#59687e" stroke="#59687e" stroke-width="1.3" points="318.3,-790.31 315.5,-782.31 312.7,-790.31 318.3,-790.31"/>
</g>
<!-- Target -->
<g id="node5" class="node">
<title>Target</title>
<path fill="#f3eefc" stroke="#ab8fe0" stroke-width="1.4" d="M397,-691C397,-691 234,-691 234,-691 228,-691 222,-685 222,-679 222,-679 222,-661 222,-661 222,-655 228,-649 234,-649 234,-649 397,-649 397,-649 403,-649 409,-655 409,-661 409,-661 409,-679 409,-679 409,-685 403,-691 397,-691"/>
<text text-anchor="middle" x="315.5" y="-673.8" font-family="Noto Sans CJK KR" font-size="14.00" fill="#182033">4. TargetResolver</text>
<text text-anchor="middle" x="315.5" y="-658.8" font-family="Noto Sans CJK KR" font-size="14.00" fill="#182033">후보 수집→필터→정렬</text>
</g>
<!-- Validate&#45;&gt;Target -->
<g id="edge4" class="edge">
<title>Validate&#45;&gt;Target</title>
<path fill="none" stroke="#59687e" stroke-width="1.3" d="M315.5,-739.89C315.5,-739.89 315.5,-699.31 315.5,-699.31"/>
<polygon fill="#59687e" stroke="#59687e" stroke-width="1.3" points="318.3,-699.31 315.5,-691.31 312.7,-699.31 318.3,-699.31"/>
</g>
<!-- Value -->
<g id="node6" class="node">
<title>Value</title>
<path fill="#eefbf6" stroke="#61b99a" stroke-width="1.4" d="M397,-600C397,-600 234,-600 234,-600 228,-600 222,-594 222,-588 222,-588 222,-570 222,-570 222,-564 228,-558 234,-558 234,-558 397,-558 397,-558 403,-558 409,-564 409,-570 409,-570 409,-588 409,-588 409,-594 403,-600 397,-600"/>
<text text-anchor="middle" x="315.5" y="-582.8" font-family="Noto Sans CJK KR" font-size="14.00" fill="#182033">5. ValueResolver</text>
<text text-anchor="middle" x="315.5" y="-567.8" font-family="Noto Sans CJK KR" font-size="14.00" fill="#182033">StatSystem.getValue(ctx)</text>
</g>
<!-- Target&#45;&gt;Value -->
<g id="edge5" class="edge">
<title>Target&#45;&gt;Value</title>
<path fill="none" stroke="#59687e" stroke-width="1.3" d="M315.5,-648.89C315.5,-648.89 315.5,-608.31 315.5,-608.31"/>
<polygon fill="#59687e" stroke="#59687e" stroke-width="1.3" points="318.3,-608.31 315.5,-600.31 312.7,-608.31 318.3,-608.31"/>
</g>
<!-- Dispatch -->
<g id="node7" class="node">
<title>Dispatch</title>
<path fill="#eaf0ff" stroke="#8292f7" stroke-width="1.4" d="M408.5,-509C408.5,-509 222.5,-509 222.5,-509 216.5,-509 210.5,-503 210.5,-497 210.5,-497 210.5,-479 210.5,-479 210.5,-473 216.5,-467 222.5,-467 222.5,-467 408.5,-467 408.5,-467 414.5,-467 420.5,-473 420.5,-479 420.5,-479 420.5,-497 420.5,-497 420.5,-503 414.5,-509 408.5,-509"/>
<text text-anchor="middle" x="315.5" y="-491.8" font-family="Noto Sans CJK KR" font-size="14.00" fill="#182033">6. Executor Dispatch</text>
<text text-anchor="middle" x="315.5" y="-476.8" font-family="Noto Sans CJK KR" font-size="14.00" fill="#182033">Damage/Heal/ApplyStatus/...</text>
</g>
<!-- Value&#45;&gt;Dispatch -->
<g id="edge6" class="edge">
<title>Value&#45;&gt;Dispatch</title>
<path fill="none" stroke="#59687e" stroke-width="1.3" d="M315.5,-557.89C315.5,-557.89 315.5,-517.31 315.5,-517.31"/>
<polygon fill="#59687e" stroke="#59687e" stroke-width="1.3" points="318.3,-517.31 315.5,-509.31 312.7,-517.31 318.3,-517.31"/>
</g>
<!-- Combat -->
<g id="node8" class="node">
<title>Combat</title>
<path fill="#fff0f3" stroke="#e07b91" stroke-width="1.4" d="M175,-404C175,-404 12,-404 12,-404 6,-404 0,-398 0,-392 0,-392 0,-374 0,-374 0,-368 6,-362 12,-362 12,-362 175,-362 175,-362 181,-362 187,-368 187,-374 187,-374 187,-392 187,-392 187,-398 181,-404 175,-404"/>
<text text-anchor="middle" x="93.5" y="-386.8" font-family="Noto Sans CJK KR" font-size="14.00" fill="#182033">7A. CombatSystem</text>
<text text-anchor="middle" x="93.5" y="-371.8" font-family="Noto Sans CJK KR" font-size="14.00" fill="#182033">명중·치명타·방어·저항</text>
</g>
<!-- Dispatch&#45;&gt;Combat -->
<g id="edge7" class="edge">
<title>Dispatch&#45;&gt;Combat</title>
<path fill="none" stroke="#59687e" stroke-width="1.3" d="M218,-466.75C218,-436.07 218,-383 218,-383 218,-383 195.22,-383 195.22,-383"/>
<polygon fill="#59687e" stroke="#59687e" stroke-width="1.3" points="195.22,-380.2 187.22,-383 195.22,-385.8 195.22,-380.2"/>
<text text-anchor="middle" x="184" y="-431.8" font-family="Noto Sans CJK KR" font-size="14.00" fill="#46566e">DamageEffect</text>
</g>
<!-- Status -->
<g id="node9" class="node">
<title>Status</title>
<path fill="#fff0f3" stroke="#e07b91" stroke-width="1.4" d="M397,-404C397,-404 234,-404 234,-404 228,-404 222,-398 222,-392 222,-392 222,-374 222,-374 222,-368 228,-362 234,-362 234,-362 397,-362 397,-362 403,-362 409,-368 409,-374 409,-374 409,-392 409,-392 409,-398 403,-404 397,-404"/>
<text text-anchor="middle" x="315.5" y="-386.8" font-family="Noto Sans CJK KR" font-size="14.00" fill="#182033">7B. StatusSystem</text>
<text text-anchor="middle" x="315.5" y="-371.8" font-family="Noto Sans CJK KR" font-size="14.00" fill="#182033">상태·Modifier 부착</text>
</g>
<!-- Dispatch&#45;&gt;Status -->
<g id="edge8" class="edge">
<title>Dispatch&#45;&gt;Status</title>
<path fill="none" stroke="#59687e" stroke-width="1.3" d="M315.5,-466.75C315.5,-466.75 315.5,-412.22 315.5,-412.22"/>
<polygon fill="#59687e" stroke="#59687e" stroke-width="1.3" points="318.3,-412.22 315.5,-404.22 312.7,-412.22 318.3,-412.22"/>
<text text-anchor="middle" x="355" y="-431.8" font-family="Noto Sans CJK KR" font-size="14.00" fill="#46566e">ApplyStatus</text>
</g>
<!-- Stat -->
<g id="node10" class="node">
<title>Stat</title>
<path fill="#fff0f3" stroke="#e07b91" stroke-width="1.4" d="M619,-404C619,-404 456,-404 456,-404 450,-404 444,-398 444,-392 444,-392 444,-374 444,-374 444,-368 450,-362 456,-362 456,-362 619,-362 619,-362 625,-362 631,-368 631,-374 631,-374 631,-392 631,-392 631,-398 625,-404 619,-404"/>
<text text-anchor="middle" x="537.5" y="-386.8" font-family="Noto Sans CJK KR" font-size="14.00" fill="#182033">7C. StatSystem</text>
<text text-anchor="middle" x="537.5" y="-371.8" font-family="Noto Sans CJK KR" font-size="14.00" fill="#182033">Resource/Modifier 변경</text>
</g>
<!-- Dispatch&#45;&gt;Stat -->
<g id="edge9" class="edge">
<title>Dispatch&#45;&gt;Stat</title>
<path fill="none" stroke="#59687e" stroke-width="1.3" d="M413,-466.75C413,-436.07 413,-383 413,-383 413,-383 435.78,-383 435.78,-383"/>
<polygon fill="#59687e" stroke="#59687e" stroke-width="1.3" points="435.78,-385.8 443.78,-383 435.78,-380.2 435.78,-385.8"/>
<text text-anchor="middle" x="579.5" y="-431.8" font-family="Noto Sans CJK KR" font-size="14.00" fill="#46566e">ModifyResource/AddModifier</text>
</g>
<!-- Result -->
<g id="node11" class="node">
<title>Result</title>
<path fill="#eaf0ff" stroke="#8292f7" stroke-width="1.4" d="M397,-313C397,-313 234,-313 234,-313 228,-313 222,-307 222,-301 222,-301 222,-283 222,-283 222,-277 228,-271 234,-271 234,-271 397,-271 397,-271 403,-271 409,-277 409,-283 409,-283 409,-301 409,-301 409,-307 403,-313 397,-313"/>
<text text-anchor="middle" x="315.5" y="-295.8" font-family="Noto Sans CJK KR" font-size="14.00" fill="#182033">8. EffectResult 병합</text>
<text text-anchor="middle" x="315.5" y="-280.8" font-family="Noto Sans CJK KR" font-size="14.00" fill="#182033">성공/실패/부분 성공</text>
</g>
<!-- Combat&#45;&gt;Result -->
<g id="edge10" class="edge">
<title>Combat&#45;&gt;Result</title>
<path fill="none" stroke="#59687e" stroke-width="1.3" d="M93.5,-361.89C93.5,-335.01 93.5,-292 93.5,-292 93.5,-292 214,-292 214,-292"/>
<polygon fill="#59687e" stroke="#59687e" stroke-width="1.3" points="214,-294.8 222,-292 214,-289.2 214,-294.8"/>
</g>
<!-- Status&#45;&gt;Result -->
<g id="edge11" class="edge">
<title>Status&#45;&gt;Result</title>
<path fill="none" stroke="#59687e" stroke-width="1.3" d="M315.5,-361.89C315.5,-361.89 315.5,-321.31 315.5,-321.31"/>
<polygon fill="#59687e" stroke="#59687e" stroke-width="1.3" points="318.3,-321.31 315.5,-313.31 312.7,-321.31 318.3,-321.31"/>
</g>
<!-- Stat&#45;&gt;Result -->
<g id="edge12" class="edge">
<title>Stat&#45;&gt;Result</title>
<path fill="none" stroke="#59687e" stroke-width="1.3" d="M537.5,-361.89C537.5,-335.01 537.5,-292 537.5,-292 537.5,-292 417,-292 417,-292"/>
<polygon fill="#59687e" stroke="#59687e" stroke-width="1.3" points="417,-289.2 409,-292 417,-294.8 417,-289.2"/>
</g>
<!-- Event -->
<g id="node12" class="node">
<title>Event</title>
<path fill="#eefbf6" stroke="#61b99a" stroke-width="1.4" d="M405,-222C405,-222 226,-222 226,-222 220,-222 214,-216 214,-210 214,-210 214,-192 214,-192 214,-186 220,-180 226,-180 226,-180 405,-180 405,-180 411,-180 417,-186 417,-192 417,-192 417,-210 417,-210 417,-216 411,-222 405,-222"/>
<text text-anchor="middle" x="315.5" y="-204.8" font-family="Noto Sans CJK KR" font-size="14.00" fill="#182033">9. EventBus publish</text>
<text text-anchor="middle" x="315.5" y="-189.8" font-family="Noto Sans CJK KR" font-size="14.00" fill="#182033">EffectApplied, DamageDealt</text>
</g>
<!-- Result&#45;&gt;Event -->
<g id="edge13" class="edge">
<title>Result&#45;&gt;Event</title>
<path fill="none" stroke="#59687e" stroke-width="1.3" d="M315.5,-270.89C315.5,-270.89 315.5,-230.31 315.5,-230.31"/>
<polygon fill="#59687e" stroke="#59687e" stroke-width="1.3" points="318.3,-230.31 315.5,-222.31 312.7,-230.31 318.3,-230.31"/>
</g>
<!-- Log -->
<g id="node13" class="node">
<title>Log</title>
<path fill="#f0f3f9" stroke="#99a8bd" stroke-width="1.4" d="M398,-131C398,-131 233,-131 233,-131 227,-131 221,-125 221,-119 221,-119 221,-101 221,-101 221,-95 227,-89 233,-89 233,-89 398,-89 398,-89 404,-89 410,-95 410,-101 410,-101 410,-119 410,-119 410,-125 404,-131 398,-131"/>
<text text-anchor="middle" x="315.5" y="-113.8" font-family="Noto Sans CJK KR" font-size="14.00" fill="#182033">10. EffectLog / CombatLog</text>
<text text-anchor="middle" x="315.5" y="-98.8" font-family="Noto Sans CJK KR" font-size="14.00" fill="#182033">디버그·리플레이 근거</text>
</g>
<!-- Event&#45;&gt;Log -->
<g id="edge14" class="edge">
<title>Event&#45;&gt;Log</title>
<path fill="none" stroke="#59687e" stroke-width="1.3" d="M315.5,-179.89C315.5,-179.89 315.5,-139.31 315.5,-139.31"/>
<polygon fill="#59687e" stroke="#59687e" stroke-width="1.3" points="318.3,-139.31 315.5,-131.31 312.7,-139.31 318.3,-139.31"/>
</g>
<!-- end -->
<g id="node14" class="node">
<title>end</title>
<ellipse fill="#ffffff" stroke="#182033" stroke-width="1.4" cx="315.5" cy="-20" rx="16" ry="16"/>
<ellipse fill="none" stroke="#182033" stroke-width="1.4" cx="315.5" cy="-20" rx="20" ry="20"/>
</g>
<!-- Log&#45;&gt;end -->
<g id="edge15" class="edge">
<title>Log&#45;&gt;end</title>
<path fill="none" stroke="#59687e" stroke-width="1.3" d="M315.5,-88.67C315.5,-88.67 315.5,-48.25 315.5,-48.25"/>
<polygon fill="#59687e" stroke="#59687e" stroke-width="1.3" points="318.3,-48.25 315.5,-40.25 312.7,-48.25 318.3,-48.25"/>
</g>
</g>
</svg>
