<?xml version="1.0" encoding="UTF-8" standalone="no"?>
<!DOCTYPE svg PUBLIC "-//W3C//DTD SVG 1.1//EN"
 "http://www.w3.org/Graphics/SVG/1.1/DTD/svg11.dtd">
<!-- Generated by graphviz version 15.1.0 (20260618.0150)
 -->
<!-- Title: G Pages: 1 -->
<svg width="1355pt" height="2719pt"
 viewBox="12.00 12.00 1344.00 2708.00" xmlns="http://www.w3.org/2000/svg" xmlns:xlink="http://www.w3.org/1999/xlink">
<g id="graph0" class="graph" transform="scale(1.33333 1.33333) rotate(0) translate(26.64 2012.91)">
<title>G</title>
<polygon fill="#ffffff" stroke="none" points="-18,18 -18,-2004.27 981.05,-2004.27 981.05,18 -18,18"/>
<text xml:space="preserve" text-anchor="middle" x="481.52" y="-1967.07" font-family="Noto Sans KR" font-size="16.00">Mixed handoff flow · executable C# reference + product adapters</text>
<!-- start -->
<g id="node1" class="node">
<title>start</title>
<ellipse fill="#182033" stroke="#182033" stroke-width="1.4" cx="707.8" cy="-1941.82" rx="16.2" ry="16.2"/>
</g>
<!-- Caller -->
<g id="node2" class="node">
<title>Caller</title>
<path fill="#f7f9fc" stroke="#bac7db" stroke-width="1.4" d="M796.6,-1872.62C796.6,-1872.62 619,-1872.62 619,-1872.62 613,-1872.62 607,-1866.62 607,-1860.62 607,-1860.62 607,-1837.16 607,-1837.16 607,-1831.16 613,-1825.16 619,-1825.16 619,-1825.16 796.6,-1825.16 796.6,-1825.16 802.6,-1825.16 808.6,-1831.16 808.6,-1837.16 808.6,-1837.16 808.6,-1860.62 808.6,-1860.62 808.6,-1866.62 802.6,-1872.62 796.6,-1872.62"/>
<text xml:space="preserve" text-anchor="middle" x="707.8" y="-1852.84" font-family="Noto Sans KR" font-size="14.00" fill="#182033">1. Product caller</text>
<text xml:space="preserve" text-anchor="middle" x="707.8" y="-1835.59" font-family="Noto Sans KR" font-size="14.00" fill="#182033">Skill / Status / Item adapter</text>
</g>
<!-- start&#45;&gt;Caller -->
<g id="edge1" class="edge">
<title>start&#45;&gt;Caller</title>
<path fill="none" stroke="#59687e" stroke-width="1.3" d="M707.8,-1924.98C707.8,-1913.32 707.8,-1897.06 707.8,-1882.65"/>
<polygon fill="#59687e" stroke="#59687e" stroke-width="1.3" points="710.6,-1883.02 707.8,-1875.02 705,-1883.02 710.6,-1883.02"/>
</g>
<!-- Request -->
<g id="node3" class="node">
<title>Request</title>
<path fill="#eaf0ff" stroke="#8292f7" stroke-width="1.4" d="M841.63,-1772.16C841.63,-1772.16 573.97,-1772.16 573.97,-1772.16 567.97,-1772.16 561.97,-1766.16 561.97,-1760.16 561.97,-1760.16 561.97,-1736.7 561.97,-1736.7 561.97,-1730.7 567.97,-1724.7 573.97,-1724.7 573.97,-1724.7 841.63,-1724.7 841.63,-1724.7 847.63,-1724.7 853.63,-1730.7 853.63,-1736.7 853.63,-1736.7 853.63,-1760.16 853.63,-1760.16 853.63,-1766.16 847.63,-1772.16 841.63,-1772.16"/>
<text xml:space="preserve" text-anchor="middle" x="707.8" y="-1752.38" font-family="Noto Sans KR" font-size="14.00" fill="#182033">2. Target&#45;independent input</text>
<text xml:space="preserve" text-anchor="middle" x="707.8" y="-1735.13" font-family="Noto Sans KR" font-size="14.00" fill="#182033">ReferenceEffectSpecification + EffectContext</text>
</g>
<!-- Caller&#45;&gt;Request -->
<g id="edge2" class="edge">
<title>Caller&#45;&gt;Request</title>
<path fill="none" stroke="#59687e" stroke-width="1.3" d="M707.8,-1824.56C707.8,-1811.93 707.8,-1796.12 707.8,-1782.26"/>
<polygon fill="#59687e" stroke="#59687e" stroke-width="1.3" points="710.6,-1782.56 707.8,-1774.56 705,-1782.56 710.6,-1782.56"/>
</g>
<!-- Snapshot -->
<g id="node4" class="node">
<title>Snapshot</title>
<path fill="#f3eefc" stroke="#ab8fe0" stroke-width="1.4" d="M829.63,-1655.45C829.63,-1655.45 585.97,-1655.45 585.97,-1655.45 579.97,-1655.45 573.97,-1649.45 573.97,-1643.45 573.97,-1643.45 573.97,-1602.74 573.97,-1602.74 573.97,-1596.74 579.97,-1590.74 585.97,-1590.74 585.97,-1590.74 829.63,-1590.74 829.63,-1590.74 835.63,-1590.74 841.63,-1596.74 841.63,-1602.74 841.63,-1602.74 841.63,-1643.45 841.63,-1643.45 841.63,-1649.45 835.63,-1655.45 829.63,-1655.45"/>
<text xml:space="preserve" text-anchor="middle" x="707.8" y="-1635.67" font-family="Noto Sans KR" font-size="14.00" fill="#182033">3. Spatial adapter (domain 밖)</text>
<text xml:space="preserve" text-anchor="middle" x="707.8" y="-1618.42" font-family="Noto Sans KR" font-size="14.00" fill="#182033">eligibility + integer metrics</text>
<text xml:space="preserve" text-anchor="middle" x="707.8" y="-1601.17" font-family="Noto Sans KR" font-size="14.00" fill="#182033">&#45;&gt; immutable CanonicalTargetSnapshot</text>
</g>
<!-- Request&#45;&gt;Snapshot -->
<g id="edge3" class="edge">
<title>Request&#45;&gt;Snapshot</title>
<path fill="none" stroke="#59687e" stroke-width="1.3" d="M707.8,-1724.23C707.8,-1707.83 707.8,-1685.39 707.8,-1665.9"/>
<polygon fill="#59687e" stroke="#59687e" stroke-width="1.3" points="710.6,-1666 707.8,-1658 705,-1666 710.6,-1666"/>
<text xml:space="preserve" text-anchor="middle" x="789.17" y="-1685.4" font-family="Noto Sans KR" font-size="14.00" fill="#46566e">CandidateSnapshot mode</text>
</g>
<!-- Target -->
<g id="node5" class="node">
<title>Target</title>
<path fill="#f3eefc" stroke="#ab8fe0" stroke-width="1.4" d="M817.63,-1537.74C817.63,-1537.74 597.97,-1537.74 597.97,-1537.74 591.97,-1537.74 585.97,-1531.74 585.97,-1525.74 585.97,-1525.74 585.97,-1467.78 585.97,-1467.78 585.97,-1461.78 591.97,-1455.78 597.97,-1455.78 597.97,-1455.78 817.63,-1455.78 817.63,-1455.78 823.63,-1455.78 829.63,-1461.78 829.63,-1467.78 829.63,-1467.78 829.63,-1525.74 829.63,-1525.74 829.63,-1531.74 823.63,-1537.74 817.63,-1537.74"/>
<text xml:space="preserve" text-anchor="middle" x="707.8" y="-1517.96" font-family="Noto Sans KR" font-size="14.00" fill="#182033">4. ReferenceEffectTargetResolver</text>
<text xml:space="preserve" text-anchor="middle" x="707.8" y="-1500.71" font-family="Noto Sans KR" font-size="14.00" fill="#182033">structural validation + one&#45;shot bind</text>
<text xml:space="preserve" text-anchor="middle" x="707.8" y="-1483.46" font-family="Noto Sans KR" font-size="14.00" fill="#182033">Self / Explicit / CandidateSnapshot</text>
<text xml:space="preserve" text-anchor="middle" x="707.8" y="-1466.21" font-family="Noto Sans KR" font-size="14.00" fill="#182033">no team · distance · LOS recheck</text>
</g>
<!-- Request&#45;&gt;Target -->
<g id="edge5" class="edge">
<title>Request&#45;&gt;Target</title>
<path fill="none" stroke="#6366f1" stroke-width="1.3" d="M790.75,-1724.06C835.15,-1711.56 880.8,-1698.7 880.8,-1698.7 880.8,-1698.7 880.8,-1681.45 880.8,-1681.45 880.8,-1681.45 861.8,-1590.74 861.8,-1590.74 861.8,-1590.74 822.23,-1566.85 783.2,-1543.29"/>
<polygon fill="#6366f1" stroke="#6366f1" stroke-width="1.3" points="784.88,-1541.03 776.58,-1539.29 781.98,-1545.82 784.88,-1541.03"/>
<text xml:space="preserve" text-anchor="middle" x="918.05" y="-1627.05" font-family="Noto Sans KR" font-size="14.00" fill="#4338ca">Self / Explicit</text>
<text xml:space="preserve" text-anchor="middle" x="918.05" y="-1609.8" font-family="Noto Sans KR" font-size="14.00" fill="#4338ca">snapshot 없음</text>
</g>
<!-- Snapshot&#45;&gt;Target -->
<g id="edge4" class="edge">
<title>Snapshot&#45;&gt;Target</title>
<path fill="none" stroke="#59687e" stroke-width="1.3" d="M707.8,-1590.08C707.8,-1577.21 707.8,-1562.08 707.8,-1547.83"/>
<polygon fill="#59687e" stroke="#59687e" stroke-width="1.3" points="710.6,-1548.11 707.8,-1540.11 705,-1548.11 710.6,-1548.11"/>
</g>
<!-- Resolved -->
<g id="node6" class="node">
<title>Resolved</title>
<path fill="#eefbf6" stroke="#61b99a" stroke-width="1.4" d="M616.25,-1369.28C616.25,-1369.28 367.34,-1369.28 367.34,-1369.28 361.34,-1369.28 355.34,-1363.28 355.34,-1357.28 355.34,-1357.28 355.34,-1333.82 355.34,-1333.82 355.34,-1327.82 361.34,-1321.82 367.34,-1321.82 367.34,-1321.82 616.25,-1321.82 616.25,-1321.82 622.25,-1321.82 628.25,-1327.82 628.25,-1333.82 628.25,-1333.82 628.25,-1357.28 628.25,-1357.28 628.25,-1363.28 622.25,-1369.28 616.25,-1369.28"/>
<text xml:space="preserve" text-anchor="middle" x="491.8" y="-1349.5" font-family="Noto Sans KR" font-size="14.00" fill="#182033">5. Target&#45;bound ResolvedEffectOperation</text>
<text xml:space="preserve" text-anchor="middle" x="491.8" y="-1332.25" font-family="Noto Sans KR" font-size="14.00" fill="#182033">stable order + MaxTargets already fixed</text>
</g>
<!-- Target&#45;&gt;Resolved -->
<g id="edge6" class="edge">
<title>Target&#45;&gt;Resolved</title>
<path fill="none" stroke="#59687e" stroke-width="1.3" d="M649.06,-1455.18C612.55,-1429.97 566.49,-1398.14 533.67,-1375.47"/>
<polygon fill="#59687e" stroke="#59687e" stroke-width="1.3" points="535.42,-1373.28 527.24,-1371.03 532.24,-1377.89 535.42,-1373.28"/>
</g>
<!-- NotApplicable -->
<g id="node13" class="node">
<title>NotApplicable</title>
<path fill="#f0f3f9" stroke="#99a8bd" stroke-width="1.4" d="M809,-1295.82C809,-1295.82 606.59,-1295.82 606.59,-1295.82 600.59,-1295.82 594.59,-1289.82 594.59,-1283.82 594.59,-1283.82 594.59,-1243.11 594.59,-1243.11 594.59,-1237.11 600.59,-1231.11 606.59,-1231.11 606.59,-1231.11 809,-1231.11 809,-1231.11 815,-1231.11 821,-1237.11 821,-1243.11 821,-1243.11 821,-1283.82 821,-1283.82 821,-1289.82 815,-1295.82 809,-1295.82"/>
<text xml:space="preserve" text-anchor="middle" x="707.8" y="-1276.04" font-family="Noto Sans KR" font-size="14.00" fill="#182033">stable NotApplicable outcome</text>
<text xml:space="preserve" text-anchor="middle" x="707.8" y="-1258.79" font-family="Noto Sans KR" font-size="14.00" fill="#182033">missing explicit / empty snapshot</text>
<text xml:space="preserve" text-anchor="middle" x="707.8" y="-1241.54" font-family="Noto Sans KR" font-size="14.00" fill="#182033">no fragment</text>
</g>
<!-- Target&#45;&gt;NotApplicable -->
<g id="edge11" class="edge">
<title>Target&#45;&gt;NotApplicable</title>
<path fill="none" stroke="#6366f1" stroke-width="1.3" d="M707.8,-1455.21C707.8,-1413.35 707.8,-1348.36 707.8,-1306.1"/>
<polygon fill="#6366f1" stroke="#6366f1" stroke-width="1.3" points="710.6,-1306.37 707.8,-1298.37 705,-1306.37 710.6,-1306.37"/>
<text xml:space="preserve" text-anchor="middle" x="759.55" y="-1416.48" font-family="Noto Sans KR" font-size="14.00" fill="#4338ca">missing explicit /</text>
<text xml:space="preserve" text-anchor="middle" x="759.55" y="-1399.23" font-family="Noto Sans KR" font-size="14.00" fill="#4338ca">empty snapshot</text>
</g>
<!-- Reject -->
<g id="node19" class="node">
<title>Reject</title>
<polygon fill="#fff0f3" stroke="#e07b91" stroke-width="1.4" points="708.6,-474.74 513,-474.74 513,-427.28 714.6,-427.28 714.6,-468.74 708.6,-474.74"/>
<polyline fill="none" stroke="#e07b91" stroke-width="1.4" points="708.6,-474.74 708.6,-468.74"/>
<polyline fill="none" stroke="#e07b91" stroke-width="1.4" points="714.6,-468.74 708.6,-468.74"/>
<text xml:space="preserve" text-anchor="middle" x="613.8" y="-454.96" font-family="Noto Sans KR" font-size="14.00" fill="#182033">실패</text>
<text xml:space="preserve" text-anchor="middle" x="613.8" y="-437.71" font-family="Noto Sans KR" font-size="14.00" fill="#182033">mutation 없음 · outbox 없음</text>
</g>
<!-- Target&#45;&gt;Reject -->
<g id="edge13" class="edge">
<title>Target&#45;&gt;Reject</title>
<path fill="none" stroke="#dc2626" stroke-width="1.3" stroke-dasharray="5,2" d="M778.05,-1455.1C801.51,-1441.52 821.8,-1429.78 821.8,-1429.78 821.8,-1429.78 846.8,-1346.55 846.8,-1346.55 846.8,-1346.55 846.8,-1346.55 846.8,-566.72 846.8,-566.72 738.79,-513.55 669.85,-479.61"/>
<polygon fill="#dc2626" stroke="#dc2626" stroke-width="1.3" points="671.41,-477.25 663,-476.23 668.94,-482.28 671.41,-477.25"/>
<text xml:space="preserve" text-anchor="middle" x="904.92" y="-933.66" font-family="Noto Sans KR" font-size="14.00" fill="#dc2626">invalid spec / rule /</text>
<text xml:space="preserve" text-anchor="middle" x="904.92" y="-916.41" font-family="Noto Sans KR" font-size="14.00" fill="#dc2626">snapshot contract</text>
</g>
<!-- Resolve -->
<g id="node7" class="node">
<title>Resolve</title>
<path fill="#fff7e6" stroke="#e0ad4e" stroke-width="1.4" d="M448.88,-1205.11C448.88,-1205.11 176.72,-1205.11 176.72,-1205.11 170.72,-1205.11 164.72,-1199.11 164.72,-1193.11 164.72,-1193.11 164.72,-1152.4 164.72,-1152.4 164.72,-1146.4 170.72,-1140.4 176.72,-1140.4 176.72,-1140.4 448.88,-1140.4 448.88,-1140.4 454.88,-1140.4 460.88,-1146.4 460.88,-1152.4 460.88,-1152.4 460.88,-1193.11 460.88,-1193.11 460.88,-1199.11 454.88,-1205.11 448.88,-1205.11"/>
<text xml:space="preserve" text-anchor="middle" x="312.8" y="-1185.33" font-family="Noto Sans KR" font-size="14.00" fill="#182033">6. Owning domain resolver / product adapter</text>
<text xml:space="preserve" text-anchor="middle" x="312.8" y="-1168.08" font-family="Noto Sans KR" font-size="14.00" fill="#182033">pure calculation &#45;&gt; EffectOperationOutcome</text>
<text xml:space="preserve" text-anchor="middle" x="312.8" y="-1150.83" font-family="Noto Sans KR" font-size="14.00" fill="#182033">Applied | NotApplicable | Rejected</text>
</g>
<!-- Resolved&#45;&gt;Resolve -->
<g id="edge7" class="edge">
<title>Resolved&#45;&gt;Resolve</title>
<path fill="none" stroke="#59687e" stroke-width="1.3" d="M467.29,-1321.16C437.84,-1293.07 388.04,-1245.55 352.96,-1212.07"/>
<polygon fill="#59687e" stroke="#59687e" stroke-width="1.3" points="355.29,-1210.43 347.57,-1206.93 351.43,-1214.48 355.29,-1210.43"/>
</g>
<!-- Fragment -->
<g id="node8" class="node">
<title>Fragment</title>
<path fill="#eaf0ff" stroke="#8292f7" stroke-width="1.4" d="M406.13,-1071.15C406.13,-1071.15 129.47,-1071.15 129.47,-1071.15 123.47,-1071.15 117.47,-1065.15 117.47,-1059.15 117.47,-1059.15 117.47,-1018.44 117.47,-1018.44 117.47,-1012.44 123.47,-1006.44 129.47,-1006.44 129.47,-1006.44 406.13,-1006.44 406.13,-1006.44 412.13,-1006.44 418.13,-1012.44 418.13,-1018.44 418.13,-1018.44 418.13,-1059.15 418.13,-1059.15 418.13,-1065.15 412.13,-1071.15 406.13,-1071.15"/>
<text xml:space="preserve" text-anchor="middle" x="267.8" y="-1051.37" font-family="Noto Sans KR" font-size="14.00" fill="#182033">7. Applied outcome carries</text>
<text xml:space="preserve" text-anchor="middle" x="267.8" y="-1034.12" font-family="Noto Sans KR" font-size="14.00" fill="#182033">CommitPlanFragment</text>
<text xml:space="preserve" text-anchor="middle" x="267.8" y="-1016.87" font-family="Noto Sans KR" font-size="14.00" fill="#182033">preconditions + mutations + outbox blueprint</text>
</g>
<!-- Resolve&#45;&gt;Fragment -->
<g id="edge8" class="edge">
<title>Resolve&#45;&gt;Fragment</title>
<path fill="none" stroke="#59687e" stroke-width="1.3" d="M301.91,-1139.81C295.85,-1122.06 288.26,-1099.79 281.77,-1080.77"/>
<polygon fill="#59687e" stroke="#59687e" stroke-width="1.3" points="284.46,-1079.98 279.23,-1073.31 279.16,-1081.78 284.46,-1079.98"/>
<text xml:space="preserve" text-anchor="middle" x="316.99" y="-1101.1" font-family="Noto Sans KR" font-size="14.00" fill="#46566e">Applied</text>
</g>
<!-- Compose -->
<g id="node9" class="node">
<title>Compose</title>
<path fill="#eaf0ff" stroke="#8292f7" stroke-width="1.4" d="M619.38,-953.44C619.38,-953.44 350.22,-953.44 350.22,-953.44 344.22,-953.44 338.22,-947.44 338.22,-941.44 338.22,-941.44 338.22,-917.98 338.22,-917.98 338.22,-911.98 344.22,-905.98 350.22,-905.98 350.22,-905.98 619.38,-905.98 619.38,-905.98 625.38,-905.98 631.38,-911.98 631.38,-917.98 631.38,-917.98 631.38,-941.44 631.38,-941.44 631.38,-947.44 625.38,-953.44 619.38,-953.44"/>
<text xml:space="preserve" text-anchor="middle" x="484.8" y="-933.66" font-family="Noto Sans KR" font-size="14.00" fill="#182033">8. DeterministicEffectCommitPlanComposer</text>
<text xml:space="preserve" text-anchor="middle" x="484.8" y="-916.41" font-family="Noto Sans KR" font-size="14.00" fill="#182033">stable outcome order + collision rejection</text>
</g>
<!-- Resolve&#45;&gt;Compose -->
<g id="edge10" class="edge">
<title>Resolve&#45;&gt;Compose</title>
<path fill="none" stroke="#6366f1" stroke-width="1.3" d="M352.35,-1139.92C388.97,-1110.45 437.8,-1071.15 437.8,-1071.15 437.8,-1071.15 460.08,-1004.57 473.96,-963.09"/>
<polygon fill="#6366f1" stroke="#6366f1" stroke-width="1.3" points="476.53,-964.24 476.41,-955.77 471.22,-962.46 476.53,-964.24"/>
<text xml:space="preserve" text-anchor="middle" x="535.83" y="-1042.75" font-family="Noto Sans KR" font-size="14.00" fill="#4338ca">NotApplicable / Rejected</text>
<text xml:space="preserve" text-anchor="middle" x="535.83" y="-1025.5" font-family="Noto Sans KR" font-size="14.00" fill="#4338ca">no fragment</text>
</g>
<!-- Fragment&#45;&gt;Compose -->
<g id="edge9" class="edge">
<title>Fragment&#45;&gt;Compose</title>
<path fill="none" stroke="#59687e" stroke-width="1.3" d="M332.61,-1005.81C363.17,-990.73 399.28,-972.91 428.66,-958.42"/>
<polygon fill="#59687e" stroke="#59687e" stroke-width="1.3" points="429.84,-960.95 435.78,-954.9 427.36,-955.93 429.84,-960.95"/>
</g>
<!-- Status -->
<g id="node10" class="node">
<title>Status</title>
<path fill="#fff7e6" stroke="#e0ad4e" stroke-width="1.4" d="M371.01,-850.73C371.01,-850.73 236.43,-825.02 236.43,-825.02 230.53,-823.9 230.53,-821.64 236.43,-820.52 236.43,-820.52 371.01,-794.81 371.01,-794.81 376.91,-793.69 388.69,-793.69 394.59,-794.81 394.59,-794.81 529.17,-820.52 529.17,-820.52 535.07,-821.64 535.07,-823.9 529.17,-825.02 529.17,-825.02 394.59,-850.73 394.59,-850.73 388.69,-851.85 376.91,-851.85 371.01,-850.73"/>
<text xml:space="preserve" text-anchor="middle" x="382.8" y="-818.1" font-family="Noto Sans KR" font-size="14.00" fill="#182033">9. composition status?</text>
</g>
<!-- Compose&#45;&gt;Status -->
<g id="edge15" class="edge">
<title>Compose&#45;&gt;Status</title>
<path fill="none" stroke="#59687e" stroke-width="1.3" d="M462.16,-905.42C448.01,-890.86 429.59,-871.91 414.06,-855.93"/>
<polygon fill="#59687e" stroke="#59687e" stroke-width="1.3" points="416.11,-854.02 408.53,-850.24 412.09,-857.93 416.11,-854.02"/>
</g>
<!-- Compose&#45;&gt;Reject -->
<g id="edge14" class="edge">
<title>Compose&#45;&gt;Reject</title>
<path fill="none" stroke="#dc2626" stroke-width="1.3" stroke-dasharray="5,2" d="M516.54,-905.42C558.67,-874.5 627.8,-823.77 627.8,-823.77 627.8,-823.77 627.8,-823.77 627.8,-566.72 627.8,-566.72 621.94,-518.69 617.8,-484.79"/>
<polygon fill="#dc2626" stroke="#dc2626" stroke-width="1.3" points="620.62,-484.78 616.87,-477.18 615.06,-485.46 620.62,-484.78"/>
<text xml:space="preserve" text-anchor="middle" x="706.55" y="-702.44" font-family="Noto Sans KR" font-size="14.00" fill="#dc2626">conflict / invalid fragment</text>
</g>
<!-- Ready -->
<g id="node11" class="node">
<title>Ready</title>
<path fill="#e9fbff" stroke="#54b7cf" stroke-width="1.4" d="M453.8,-723.31C453.8,-723.31 273.8,-723.31 273.8,-723.31 268.4,-723.31 263,-717.91 263,-712.51 263,-712.51 263,-701.71 263,-701.71 263,-696.31 268.4,-690.91 273.8,-690.91 273.8,-690.91 453.8,-690.91 453.8,-690.91 459.2,-690.91 464.6,-696.31 464.6,-701.71 464.6,-701.71 464.6,-712.51 464.6,-712.51 464.6,-717.91 459.2,-723.31 453.8,-723.31"/>
<text xml:space="preserve" text-anchor="middle" x="363.8" y="-702.44" font-family="Noto Sans KR" font-size="14.00" fill="#182033">Ready + CommitPlan</text>
</g>
<!-- Status&#45;&gt;Ready -->
<g id="edge16" class="edge">
<title>Status&#45;&gt;Ready</title>
<path fill="none" stroke="#59687e" stroke-width="1.3" d="M377.96,-792.79C374.89,-774.43 370.96,-750.91 368.01,-733.32"/>
<polygon fill="#59687e" stroke="#59687e" stroke-width="1.3" points="370.82,-733.1 366.74,-725.67 365.29,-734.03 370.82,-733.1"/>
<text xml:space="preserve" text-anchor="middle" x="392.42" y="-753.26" font-family="Noto Sans KR" font-size="14.00" fill="#46566e">Ready</text>
</g>
<!-- NoCommit -->
<g id="node12" class="node">
<title>NoCommit</title>
<path fill="#f0f3f9" stroke="#99a8bd" stroke-width="1.4" d="M189.6,-664.91C189.6,-664.91 12,-664.91 12,-664.91 6,-664.91 0,-658.91 0,-652.91 0,-652.91 0,-629.45 0,-629.45 0,-623.45 6,-617.45 12,-617.45 12,-617.45 189.6,-617.45 189.6,-617.45 195.6,-617.45 201.6,-623.45 201.6,-629.45 201.6,-629.45 201.6,-652.91 201.6,-652.91 201.6,-658.91 195.6,-664.91 189.6,-664.91"/>
<text xml:space="preserve" text-anchor="middle" x="100.8" y="-645.13" font-family="Noto Sans KR" font-size="14.00" fill="#182033">NoChanges</text>
<text xml:space="preserve" text-anchor="middle" x="100.8" y="-627.88" font-family="Noto Sans KR" font-size="14.00" fill="#182033">no commit · no outbox</text>
</g>
<!-- Status&#45;&gt;NoCommit -->
<g id="edge18" class="edge">
<title>Status&#45;&gt;NoCommit</title>
<path fill="none" stroke="#59687e" stroke-width="1.3" d="M344.57,-799.31C318.54,-784.03 288.8,-766.56 288.8,-766.56 288.8,-766.56 199.97,-707.79 144.43,-671.05"/>
<polygon fill="#59687e" stroke="#59687e" stroke-width="1.3" points="146.02,-668.74 137.8,-666.66 142.93,-673.41 146.02,-668.74"/>
<text xml:space="preserve" text-anchor="middle" x="324.8" y="-753.26" font-family="Noto Sans KR" font-size="14.00" fill="#46566e">NoChanges</text>
</g>
<!-- Status&#45;&gt;Reject -->
<g id="edge20" class="edge">
<title>Status&#45;&gt;Reject</title>
<path fill="none" stroke="#dc2626" stroke-width="1.3" stroke-dasharray="5,2" d="M408.54,-796.92C438.76,-767.76 484.8,-723.31 484.8,-723.31 484.8,-723.31 528.55,-617.45 528.55,-617.45 528.55,-617.45 572.43,-532.3 597.23,-484.17"/>
<polygon fill="#dc2626" stroke="#dc2626" stroke-width="1.3" points="599.69,-485.51 600.87,-477.11 594.71,-482.94 599.69,-485.51"/>
<text xml:space="preserve" text-anchor="middle" x="562.67" y="-645.13" font-family="Noto Sans KR" font-size="14.00" fill="#dc2626">Rejected</text>
<text xml:space="preserve" text-anchor="middle" x="562.67" y="-627.88" font-family="Noto Sans KR" font-size="14.00" fill="#dc2626">no commit</text>
</g>
<!-- Commit -->
<g id="node14" class="node">
<title>Commit</title>
<path fill="#eefbf6" stroke="#61b99a" stroke-width="1.4" d="M453.5,-591.45C453.5,-591.45 272.09,-591.45 272.09,-591.45 266.09,-591.45 260.09,-585.45 260.09,-579.45 260.09,-579.45 260.09,-555.99 260.09,-555.99 260.09,-549.99 266.09,-543.99 272.09,-543.99 272.09,-543.99 453.5,-543.99 453.5,-543.99 459.5,-543.99 465.5,-549.99 465.5,-555.99 465.5,-555.99 465.5,-579.45 465.5,-579.45 465.5,-585.45 459.5,-591.45 453.5,-591.45"/>
<text xml:space="preserve" text-anchor="middle" x="362.8" y="-571.67" font-family="Noto Sans KR" font-size="14.00" fill="#182033">10. RuntimeCommitter</text>
<text xml:space="preserve" text-anchor="middle" x="362.8" y="-554.42" font-family="Noto Sans KR" font-size="14.00" fill="#182033">state + outbox atomic commit</text>
</g>
<!-- Ready&#45;&gt;Commit -->
<g id="edge17" class="edge">
<title>Ready&#45;&gt;Commit</title>
<path fill="none" stroke="#59687e" stroke-width="1.3" d="M363.69,-690.35C363.53,-668.88 363.25,-629.91 363.04,-601.86"/>
<polygon fill="#59687e" stroke="#59687e" stroke-width="1.3" points="365.84,-602.02 362.98,-594.04 360.24,-602.06 365.84,-602.02"/>
</g>
<!-- Result -->
<g id="node18" class="node">
<title>Result</title>
<path fill="#f0f3f9" stroke="#99a8bd" stroke-width="1.4" d="M555.13,-140.86C555.13,-140.86 344.47,-140.86 344.47,-140.86 338.47,-140.86 332.47,-134.86 332.47,-128.86 332.47,-128.86 332.47,-105.4 332.47,-105.4 332.47,-99.4 338.47,-93.4 344.47,-93.4 344.47,-93.4 555.13,-93.4 555.13,-93.4 561.13,-93.4 567.13,-99.4 567.13,-105.4 567.13,-105.4 567.13,-128.86 567.13,-128.86 567.13,-134.86 561.13,-140.86 555.13,-140.86"/>
<text xml:space="preserve" text-anchor="middle" x="449.8" y="-121.08" font-family="Noto Sans KR" font-size="14.00" fill="#182033">14. Product response / DebugTrace</text>
<text xml:space="preserve" text-anchor="middle" x="449.8" y="-103.83" font-family="Noto Sans KR" font-size="14.00" fill="#182033">observe commit, no&#45;op, or failure</text>
</g>
<!-- NoCommit&#45;&gt;Result -->
<g id="edge19" class="edge">
<title>NoCommit&#45;&gt;Result</title>
<path fill="none" stroke="#8292a8" stroke-width="1.3" d="M95.79,-616.97C87.74,-579.63 72.8,-510.37 72.8,-510.37 72.8,-510.37 72.8,-510.37 72.8,-216.59 72.8,-216.59 239.14,-173.15 350.83,-143.98"/>
<polygon fill="#8292a8" stroke="#8292a8" stroke-width="1.3" points="351.52,-146.69 358.55,-141.96 350.1,-141.27 351.52,-146.69"/>
<text xml:space="preserve" text-anchor="middle" x="142.92" y="-387.98" font-family="Noto Sans KR" font-size="14.00" fill="#46566e">return without commit</text>
</g>
<!-- NotApplicable&#45;&gt;Compose -->
<g id="edge12" class="edge">
<title>NotApplicable&#45;&gt;Compose</title>
<path fill="none" stroke="#6366f1" stroke-width="1.3" d="M697.21,-1230.56C674.42,-1161.92 622.8,-1006.44 622.8,-1006.44 622.8,-1006.44 574.93,-980.17 535.58,-958.58"/>
<polygon fill="#6366f1" stroke="#6366f1" stroke-width="1.3" points="537.42,-956.39 529.06,-955 534.72,-961.3 537.42,-956.39"/>
<text xml:space="preserve" text-anchor="middle" x="710.12" y="-1101.1" font-family="Noto Sans KR" font-size="14.00" fill="#4338ca">map to outcome</text>
</g>
<!-- Facts -->
<g id="node15" class="node">
<title>Facts</title>
<path fill="#e9fbff" stroke="#54b7cf" stroke-width="1.4" d="M433.33,-467.21C433.33,-467.21 202.27,-467.21 202.27,-467.21 196.87,-467.21 191.47,-461.81 191.47,-456.41 191.47,-456.41 191.47,-445.61 191.47,-445.61 191.47,-440.21 196.87,-434.81 202.27,-434.81 202.27,-434.81 433.33,-434.81 433.33,-434.81 438.73,-434.81 444.13,-440.21 444.13,-445.61 444.13,-445.61 444.13,-456.41 444.13,-456.41 444.13,-461.81 438.73,-467.21 433.33,-467.21"/>
<text xml:space="preserve" text-anchor="middle" x="317.8" y="-446.34" font-family="Noto Sans KR" font-size="14.00" fill="#182033">11. CommitReceipt + committed facts</text>
</g>
<!-- Commit&#45;&gt;Facts -->
<g id="edge21" class="edge">
<title>Commit&#45;&gt;Facts</title>
<path fill="none" stroke="#59687e" stroke-width="1.3" d="M346.12,-543.5C337.11,-530.95 327.8,-517.99 327.8,-517.99 327.8,-517.99 324.47,-496.04 321.66,-477.46"/>
<polygon fill="#59687e" stroke="#59687e" stroke-width="1.3" points="324.43,-477.08 320.46,-469.59 318.9,-477.92 324.43,-477.08"/>
</g>
<!-- Commit&#45;&gt;Reject -->
<g id="edge27" class="edge">
<title>Commit&#45;&gt;Reject</title>
<path fill="none" stroke="#dc2626" stroke-width="1.3" stroke-dasharray="5,2" d="M363.15,-543.64C363.44,-524.62 363.8,-500.74 363.8,-500.74 363.8,-500.74 436.21,-486.63 503.08,-473.59"/>
<polygon fill="#dc2626" stroke="#dc2626" stroke-width="1.3" points="503.23,-476.42 510.54,-472.14 502.16,-470.92 503.23,-476.42"/>
<text xml:space="preserve" text-anchor="middle" x="429.8" y="-504.69" font-family="Noto Sans KR" font-size="14.00" fill="#dc2626">version / invariant fail</text>
</g>
<!-- Dispatch -->
<g id="node16" class="node">
<title>Dispatch</title>
<path fill="#f0f3f9" stroke="#99a8bd" stroke-width="1.4" d="M505.6,-358.03C505.6,-358.03 328,-358.03 328,-358.03 322,-358.03 316,-352.03 316,-346.03 316,-346.03 316,-322.57 316,-322.57 316,-316.57 322,-310.57 328,-310.57 328,-310.57 505.6,-310.57 505.6,-310.57 511.6,-310.57 517.6,-316.57 517.6,-322.57 517.6,-322.57 517.6,-346.03 517.6,-346.03 517.6,-352.03 511.6,-358.03 505.6,-358.03"/>
<text xml:space="preserve" text-anchor="middle" x="416.8" y="-338.25" font-family="Noto Sans KR" font-size="14.00" fill="#182033">12. External dispatcher</text>
<text xml:space="preserve" text-anchor="middle" x="416.8" y="-321" font-family="Noto Sans KR" font-size="14.00" fill="#182033">reads committed outbox</text>
</g>
<!-- Facts&#45;&gt;Dispatch -->
<g id="edge22" class="edge">
<title>Facts&#45;&gt;Dispatch</title>
<path fill="none" stroke="#59687e" stroke-width="1.3" d="M331.15,-434.54C346.26,-417.03 371.25,-388.08 390.34,-365.96"/>
<polygon fill="#59687e" stroke="#59687e" stroke-width="1.3" points="392.43,-367.82 395.54,-359.93 388.19,-364.16 392.43,-367.82"/>
</g>
<!-- Queue -->
<g id="node17" class="node">
<title>Queue</title>
<path fill="#f3eefc" stroke="#ab8fe0" stroke-width="1.4" d="M541.25,-241.32C541.25,-241.32 358.34,-241.32 358.34,-241.32 352.34,-241.32 346.34,-235.32 346.34,-229.32 346.34,-229.32 346.34,-205.86 346.34,-205.86 346.34,-199.86 352.34,-193.86 358.34,-193.86 358.34,-193.86 541.25,-193.86 541.25,-193.86 547.25,-193.86 553.25,-199.86 553.25,-205.86 553.25,-205.86 553.25,-229.32 553.25,-229.32 553.25,-235.32 547.25,-241.32 541.25,-241.32"/>
<text xml:space="preserve" text-anchor="middle" x="449.8" y="-221.54" font-family="Noto Sans KR" font-size="14.00" fill="#182033">13. ReactionQueue</text>
<text xml:space="preserve" text-anchor="middle" x="449.8" y="-204.29" font-family="Noto Sans KR" font-size="14.00" fill="#182033">bounded follow&#45;up command</text>
</g>
<!-- Dispatch&#45;&gt;Queue -->
<g id="edge23" class="edge">
<title>Dispatch&#45;&gt;Queue</title>
<path fill="none" stroke="#59687e" stroke-width="1.3" d="M423.48,-310.09C428.35,-293.14 435.03,-269.94 440.44,-251.14"/>
<polygon fill="#59687e" stroke="#59687e" stroke-width="1.3" points="443.07,-252.12 442.59,-243.66 437.69,-250.57 443.07,-252.12"/>
<text xml:space="preserve" text-anchor="middle" x="491.9" y="-271.27" font-family="Noto Sans KR" font-size="14.00" fill="#46566e">matching reaction</text>
</g>
<!-- Dispatch&#45;&gt;Result -->
<g id="edge24" class="edge">
<title>Dispatch&#45;&gt;Result</title>
<path fill="none" stroke="#8292a8" stroke-width="1.3" d="M360.3,-309.97C294.31,-282.72 194.05,-241.32 194.05,-241.32 194.05,-241.32 194.05,-193.86 194.05,-193.86 194.05,-193.86 287.66,-166.14 361.61,-144.24"/>
<polygon fill="#8292a8" stroke="#8292a8" stroke-width="1.3" points="362.22,-146.98 369.09,-142.03 360.63,-141.61 362.22,-146.98"/>
<text xml:space="preserve" text-anchor="middle" x="260.42" y="-212.92" font-family="Noto Sans KR" font-size="14.00" fill="#46566e">no matching reaction</text>
</g>
<!-- Queue&#45;&gt;Result -->
<g id="edge25" class="edge">
<title>Queue&#45;&gt;Result</title>
<path fill="none" stroke="#59687e" stroke-width="1.3" d="M449.8,-193.26C449.8,-180.63 449.8,-164.82 449.8,-150.96"/>
<polygon fill="#59687e" stroke="#59687e" stroke-width="1.3" points="452.6,-151.26 449.8,-143.26 447,-151.26 452.6,-151.26"/>
</g>
<!-- end -->
<g id="node20" class="node">
<title>end</title>
<ellipse fill="#ffffff" stroke="#182033" stroke-width="1.4" cx="449.8" cy="-20.2" rx="16.2" ry="16.2"/>
<ellipse fill="none" stroke="#182033" stroke-width="1.4" cx="449.8" cy="-20.2" rx="20.2" ry="20.2"/>
</g>
<!-- Result&#45;&gt;end -->
<g id="edge26" class="edge">
<title>Result&#45;&gt;end</title>
<path fill="none" stroke="#59687e" stroke-width="1.3" d="M449.8,-93.15C449.8,-80.47 449.8,-64.58 449.8,-50.96"/>
<polygon fill="#59687e" stroke="#59687e" stroke-width="1.3" points="452.6,-51.04 449.8,-43.04 447,-51.04 452.6,-51.04"/>
</g>
<!-- Reject&#45;&gt;Result -->
<g id="edge28" class="edge">
<title>Reject&#45;&gt;Result</title>
<path fill="none" stroke="#8292a8" stroke-width="1.3" d="M610.09,-426.83C600,-363.77 572.8,-193.86 572.8,-193.86 572.8,-193.86 530.84,-168.03 495.94,-146.54"/>
<polygon fill="#8292a8" stroke="#8292a8" stroke-width="1.3" points="497.66,-144.31 489.38,-142.5 494.73,-149.08 497.66,-144.31"/>
<text xml:space="preserve" text-anchor="middle" x="626.98" y="-271.27" font-family="Noto Sans KR" font-size="14.00" fill="#46566e">return failure</text>
</g>
</g>
</svg>
