<?xml version="1.0" encoding="UTF-8" standalone="no"?>
<!DOCTYPE svg PUBLIC "-//W3C//DTD SVG 1.1//EN"
 "http://www.w3.org/Graphics/SVG/1.1/DTD/svg11.dtd">
<!-- Generated by graphviz version 15.1.0 (20260618.0150)
 -->
<!-- Title: G Pages: 1 -->
<svg width="1141pt" height="1245pt"
 viewBox="12.00 12.00 1129.00 1234.00" xmlns="http://www.w3.org/2000/svg" xmlns:xlink="http://www.w3.org/1999/xlink">
<g id="graph0" class="graph" transform="scale(1.33333 1.33333) rotate(0) translate(26.64 907.48)">
<title>G</title>
<polygon fill="#ffffff" stroke="none" points="-18,18 -18,-898.84 820.28,-898.84 820.28,18 -18,18"/>
<!-- start -->
<g id="node1" class="node">
<title>start</title>
<ellipse fill="#182033" stroke="#182033" stroke-width="1.4" cx="339.2" cy="-863.56" rx="17.28" ry="17.28"/>
</g>
<!-- Build -->
<g id="node2" class="node">
<title>Build</title>
<path fill="#eaf0ff" stroke="#8292f7" stroke-width="1.4" d="M465.15,-793.28C465.15,-793.28 213.25,-793.28 213.25,-793.28 207.25,-793.28 201.24,-787.28 201.24,-781.28 201.24,-781.28 201.24,-757.82 201.24,-757.82 201.24,-751.82 207.24,-745.82 213.24,-745.82 213.24,-745.82 465.15,-745.82 465.15,-745.82 471.15,-745.82 477.15,-751.82 477.15,-757.82 477.15,-757.82 477.15,-781.28 477.15,-781.28 477.15,-787.28 471.15,-793.28 465.15,-793.28"/>
<text xml:space="preserve" text-anchor="middle" x="339.2" y="-773.5" font-family="Noto Sans KR" font-size="14.00" fill="#182033">Effect specification · context · rules</text>
<text xml:space="preserve" text-anchor="middle" x="339.2" y="-756.25" font-family="Noto Sans KR" font-size="14.00" fill="#182033">Self · ExplicitTarget · CandidateSnapshot</text>
</g>
<!-- start&#45;&gt;Build -->
<g id="edge1" class="edge">
<title>start&#45;&gt;Build</title>
<path fill="none" stroke="#59687e" stroke-width="1.3" d="M339.2,-845.68C339.2,-833.99 339.2,-818.04 339.2,-803.84"/>
<polygon fill="#59687e" stroke="#59687e" stroke-width="1.3" points="342,-803.87 339.2,-795.87 336.4,-803.87 342,-803.87"/>
</g>
<!-- Selector -->
<g id="node5" class="node">
<title>Selector</title>
<path fill="#fff7e6" stroke="#e0ad4e" stroke-width="1.4" d="M332.84,-660.52C332.84,-660.52 270.92,-639.46 270.92,-639.46 265.24,-637.52 265.24,-633.66 270.92,-631.72 270.92,-631.72 332.84,-610.66 332.84,-610.66 338.52,-608.72 349.88,-608.72 355.56,-610.66 355.56,-610.66 417.48,-631.72 417.48,-631.72 423.16,-633.66 423.16,-637.52 417.48,-639.46 417.48,-639.46 355.56,-660.52 355.56,-660.52 349.88,-662.46 338.52,-662.46 332.84,-660.52"/>
<text xml:space="preserve" text-anchor="middle" x="344.2" y="-630.92" font-family="Noto Sans KR" font-size="14.00" fill="#182033">target mode?</text>
</g>
<!-- Build&#45;&gt;Selector -->
<g id="edge2" class="edge">
<title>Build&#45;&gt;Selector</title>
<path fill="none" stroke="#59687e" stroke-width="1.3" d="M340.08,-745.26C340.82,-725.67 341.9,-697.27 342.77,-674.42"/>
<polygon fill="#59687e" stroke="#59687e" stroke-width="1.3" points="345.56,-674.75 343.06,-666.65 339.96,-674.54 345.56,-674.75"/>
</g>
<!-- Adapter -->
<g id="node3" class="node">
<title>Adapter</title>
<path fill="#f3eefc" stroke="#ab8fe0" stroke-width="1.4" d="M749.03,-793.28C749.03,-793.28 541.37,-793.28 541.37,-793.28 535.37,-793.28 529.37,-787.28 529.37,-781.28 529.37,-781.28 529.37,-757.82 529.37,-757.82 529.37,-751.82 535.37,-745.82 541.37,-745.82 541.37,-745.82 749.03,-745.82 749.03,-745.82 755.03,-745.82 761.03,-751.82 761.03,-757.82 761.03,-757.82 761.03,-781.28 761.03,-781.28 761.03,-787.28 755.03,-793.28 749.03,-793.28"/>
<text xml:space="preserve" text-anchor="middle" x="645.2" y="-773.5" font-family="Noto Sans KR" font-size="14.00" fill="#182033">공간 adapter (domain 밖)</text>
<text xml:space="preserve" text-anchor="middle" x="645.2" y="-756.25" font-family="Noto Sans KR" font-size="14.00" fill="#182033">eligibility 판정 · 정수 metric 값 계산</text>
</g>
<!-- SnapshotBoundary -->
<g id="node4" class="node">
<title>SnapshotBoundary</title>
<path fill="#e9fbff" stroke="#54b7cf" stroke-width="1.4" d="M790.28,-676.57C790.28,-676.57 500.12,-676.57 500.12,-676.57 494.12,-676.57 488.12,-670.57 488.12,-664.57 488.12,-664.57 488.12,-606.61 488.12,-606.61 488.12,-600.61 494.12,-594.61 500.12,-594.61 500.12,-594.61 790.28,-594.61 790.28,-594.61 796.28,-594.61 802.28,-600.61 802.28,-606.61 802.28,-606.61 802.28,-664.57 802.28,-664.57 802.28,-670.57 796.28,-676.57 790.28,-676.57"/>
<text xml:space="preserve" text-anchor="middle" x="645.2" y="-656.79" font-family="Noto Sans KR" font-size="14.00" fill="#182033">domain 값 생성 경계</text>
<text xml:space="preserve" text-anchor="middle" x="645.2" y="-639.54" font-family="Noto Sans KR" font-size="14.00" fill="#182033">EffectTargetCandidate: metric guard</text>
<text xml:space="preserve" text-anchor="middle" x="645.2" y="-622.29" font-family="Noto Sans KR" font-size="14.00" fill="#182033">CanonicalTargetSnapshot: null/duplicate guard</text>
<text xml:space="preserve" text-anchor="middle" x="645.2" y="-605.04" font-family="Noto Sans KR" font-size="14.00" fill="#182033">+ canonical total order</text>
</g>
<!-- Adapter&#45;&gt;SnapshotBoundary -->
<g id="edge3" class="edge">
<title>Adapter&#45;&gt;SnapshotBoundary</title>
<path fill="none" stroke="#59687e" stroke-width="1.3" stroke-dasharray="5,2" d="M645.2,-745.26C645.2,-729.18 645.2,-707.18 645.2,-687.18"/>
<polygon fill="#59687e" stroke="#59687e" stroke-width="1.3" points="648,-687.21 645.2,-679.21 642.4,-687.21 648,-687.21"/>
<text xml:space="preserve" text-anchor="middle" x="701.45" y="-706.52" font-family="Noto Sans KR" font-size="14.00" fill="#46566e">constructor inputs</text>
</g>
<!-- Candidate -->
<g id="node8" class="node">
<title>Candidate</title>
<path fill="#f7f9fc" stroke="#bac7db" stroke-width="1.4" d="M768.66,-525.36C768.66,-525.36 519.75,-525.36 519.75,-525.36 513.75,-525.36 507.75,-519.36 507.75,-513.36 507.75,-513.36 507.75,-472.65 507.75,-472.65 507.75,-466.65 513.75,-460.65 519.75,-460.65 519.75,-460.65 768.66,-460.65 768.66,-460.65 774.66,-460.65 780.66,-466.65 780.66,-472.65 780.66,-472.65 780.66,-513.36 780.66,-513.36 780.66,-519.36 774.66,-525.36 768.66,-525.36"/>
<text xml:space="preserve" text-anchor="middle" x="644.2" y="-505.58" font-family="Noto Sans KR" font-size="14.00" fill="#182033">CandidateSnapshot mode</text>
<text xml:space="preserve" text-anchor="middle" x="644.2" y="-488.33" font-family="Noto Sans KR" font-size="14.00" fill="#182033">resolver requires one canonical snapshot</text>
<text xml:space="preserve" text-anchor="middle" x="644.2" y="-471.08" font-family="Noto Sans KR" font-size="14.00" fill="#182033">eligibility 재검증 안 함</text>
</g>
<!-- SnapshotBoundary&#45;&gt;Candidate -->
<g id="edge4" class="edge">
<title>SnapshotBoundary&#45;&gt;Candidate</title>
<path fill="none" stroke="#59687e" stroke-width="1.3" stroke-dasharray="5,2" d="M644.91,-593.93C644.78,-575.59 644.63,-553.96 644.5,-535.52"/>
<polygon fill="#59687e" stroke="#59687e" stroke-width="1.3" points="647.3,-535.6 644.44,-527.62 641.7,-535.64 647.3,-535.6"/>
<text xml:space="preserve" text-anchor="middle" x="681.85" y="-555.31" font-family="Noto Sans KR" font-size="14.00" fill="#46566e">frozen input</text>
</g>
<!-- Self -->
<g id="node6" class="node">
<title>Self</title>
<path fill="#f7f9fc" stroke="#bac7db" stroke-width="1.4" d="M182.4,-516.74C182.4,-516.74 12,-516.74 12,-516.74 6,-516.74 0,-510.74 0,-504.74 0,-504.74 0,-481.28 0,-481.28 0,-475.28 6,-469.28 12,-469.28 12,-469.28 182.4,-469.28 182.4,-469.28 188.4,-469.28 194.4,-475.28 194.4,-481.28 194.4,-481.28 194.4,-504.74 194.4,-504.74 194.4,-510.74 188.4,-516.74 182.4,-516.74"/>
<text xml:space="preserve" text-anchor="middle" x="97.2" y="-496.96" font-family="Noto Sans KR" font-size="14.00" fill="#182033">Self</text>
<text xml:space="preserve" text-anchor="middle" x="97.2" y="-479.71" font-family="Noto Sans KR" font-size="14.00" fill="#182033">CasterId에 bind</text>
</g>
<!-- Selector&#45;&gt;Self -->
<g id="edge5" class="edge">
<title>Selector&#45;&gt;Self</title>
<path fill="none" stroke="#59687e" stroke-width="1.3" d="M312.92,-616.78C271.04,-592.95 196.28,-550.4 146.71,-522.19"/>
<polygon fill="#59687e" stroke="#59687e" stroke-width="1.3" points="148.12,-519.76 139.78,-518.24 145.35,-524.63 148.12,-519.76"/>
<text xml:space="preserve" text-anchor="middle" x="239.73" y="-555.31" font-family="Noto Sans KR" font-size="14.00" fill="#46566e">Self</text>
</g>
<!-- Explicit -->
<g id="node7" class="node">
<title>Explicit</title>
<path fill="#f7f9fc" stroke="#bac7db" stroke-width="1.4" d="M444.15,-525.36C444.15,-525.36 258.25,-525.36 258.25,-525.36 252.25,-525.36 246.25,-519.36 246.25,-513.36 246.25,-513.36 246.25,-472.65 246.25,-472.65 246.25,-466.65 252.25,-460.65 258.25,-460.65 258.25,-460.65 444.15,-460.65 444.15,-460.65 450.15,-460.65 456.15,-466.65 456.15,-472.65 456.15,-472.65 456.15,-513.36 456.15,-513.36 456.15,-519.36 450.15,-525.36 444.15,-525.36"/>
<text xml:space="preserve" text-anchor="middle" x="351.2" y="-505.58" font-family="Noto Sans KR" font-size="14.00" fill="#182033">ExplicitTarget</text>
<text xml:space="preserve" text-anchor="middle" x="351.2" y="-488.33" font-family="Noto Sans KR" font-size="14.00" fill="#182033">InitialTargetId 존재 확인 후 bind</text>
<text xml:space="preserve" text-anchor="middle" x="351.2" y="-471.08" font-family="Noto Sans KR" font-size="14.00" fill="#182033">eligibility 재검증 안 함</text>
</g>
<!-- Selector&#45;&gt;Explicit -->
<g id="edge6" class="edge">
<title>Selector&#45;&gt;Explicit</title>
<path fill="none" stroke="#59687e" stroke-width="1.3" d="M345.58,-606.81C346.59,-586.53 347.98,-558.68 349.12,-535.73"/>
<polygon fill="#59687e" stroke="#59687e" stroke-width="1.3" points="351.91,-535.99 349.51,-527.86 346.32,-535.72 351.91,-535.99"/>
<text xml:space="preserve" text-anchor="middle" x="370.45" y="-555.31" font-family="Noto Sans KR" font-size="14.00" fill="#46566e">Explicit</text>
</g>
<!-- Selector&#45;&gt;Candidate -->
<g id="edge7" class="edge">
<title>Selector&#45;&gt;Candidate</title>
<path fill="none" stroke="#59687e" stroke-width="1.3" d="M379.2,-618.19C425.02,-596.72 506.61,-558.48 567.19,-530.09"/>
<polygon fill="#59687e" stroke="#59687e" stroke-width="1.3" points="568.13,-532.74 574.19,-526.81 565.75,-527.67 568.13,-532.74"/>
<text xml:space="preserve" text-anchor="middle" x="550.7" y="-555.31" font-family="Noto Sans KR" font-size="14.00" fill="#46566e">Snapshot</text>
</g>
<!-- Empty -->
<g id="node10" class="node">
<title>Empty</title>
<path fill="#fff7e6" stroke="#e0ad4e" stroke-width="1.4" d="M340.23,-302.33C340.23,-302.33 255.01,-264.59 255.01,-264.59 249.53,-262.16 249.53,-257.3 255.01,-254.87 255.01,-254.87 340.23,-217.13 340.23,-217.13 345.71,-214.7 356.69,-214.7 362.17,-217.13 362.17,-217.13 447.39,-254.87 447.39,-254.87 452.87,-257.3 452.87,-262.16 447.39,-264.59 447.39,-264.59 362.17,-302.33 362.17,-302.33 356.69,-304.76 345.71,-304.76 340.23,-302.33"/>
<text xml:space="preserve" text-anchor="middle" x="351.2" y="-263.68" font-family="Noto Sans KR" font-size="14.00" fill="#182033">target missing</text>
<text xml:space="preserve" text-anchor="middle" x="351.2" y="-246.43" font-family="Noto Sans KR" font-size="14.00" fill="#182033">or empty?</text>
</g>
<!-- Self&#45;&gt;Empty -->
<g id="edge8" class="edge">
<title>Self&#45;&gt;Empty</title>
<path fill="none" stroke="#59687e" stroke-width="1.3" d="M122.48,-468.98C166.11,-429.26 255.94,-347.47 309.11,-299.05"/>
<polygon fill="#59687e" stroke="#59687e" stroke-width="1.3" points="310.88,-301.23 314.91,-293.77 307.11,-297.09 310.88,-301.23"/>
</g>
<!-- Explicit&#45;&gt;Empty -->
<g id="edge9" class="edge">
<title>Explicit&#45;&gt;Empty</title>
<path fill="none" stroke="#59687e" stroke-width="1.3" d="M351.2,-460.33C351.2,-423.64 351.2,-362.49 351.2,-317.52"/>
<polygon fill="#59687e" stroke="#59687e" stroke-width="1.3" points="354,-317.58 351.2,-309.58 348.4,-317.58 354,-317.58"/>
</g>
<!-- Limit -->
<g id="node9" class="node">
<title>Limit</title>
<path fill="#f3eefc" stroke="#ab8fe0" stroke-width="1.4" d="M681.03,-407.65C681.03,-407.65 497.37,-407.65 497.37,-407.65 491.37,-407.65 485.37,-401.65 485.37,-395.65 485.37,-395.65 485.37,-372.19 485.37,-372.19 485.37,-366.19 491.37,-360.19 497.37,-360.19 497.37,-360.19 681.03,-360.19 681.03,-360.19 687.03,-360.19 693.03,-366.19 693.03,-372.19 693.03,-372.19 693.03,-395.65 693.03,-395.65 693.03,-401.65 687.03,-407.65 681.03,-407.65"/>
<text xml:space="preserve" text-anchor="middle" x="589.2" y="-387.87" font-family="Noto Sans KR" font-size="14.00" fill="#182033">resolver keeps canonical order</text>
<text xml:space="preserve" text-anchor="middle" x="589.2" y="-370.62" font-family="Noto Sans KR" font-size="14.00" fill="#182033">and applies MaxTargets</text>
</g>
<!-- Candidate&#45;&gt;Limit -->
<g id="edge10" class="edge">
<title>Candidate&#45;&gt;Limit</title>
<path fill="none" stroke="#59687e" stroke-width="1.3" d="M627.85,-460.17C620.83,-446.51 612.66,-430.59 605.63,-416.92"/>
<polygon fill="#59687e" stroke="#59687e" stroke-width="1.3" points="608.25,-415.89 602.11,-410.05 603.27,-418.45 608.25,-415.89"/>
</g>
<!-- Limit&#45;&gt;Empty -->
<g id="edge11" class="edge">
<title>Limit&#45;&gt;Empty</title>
<path fill="none" stroke="#59687e" stroke-width="1.3" d="M543.59,-359.51C505.29,-339.84 450.33,-311.62 408.95,-290.38"/>
<polygon fill="#59687e" stroke="#59687e" stroke-width="1.3" points="410.49,-288.02 402.09,-286.86 407.93,-293 410.49,-288.02"/>
</g>
<!-- Fail -->
<g id="node11" class="node">
<title>Fail</title>
<path fill="#fff0f3" stroke="#e07b91" stroke-width="1.4" d="M314.4,-143.02C314.4,-143.02 144,-143.02 144,-143.02 138,-143.02 132,-137.02 132,-131.02 132,-131.02 132,-107.56 132,-107.56 132,-101.56 138,-95.56 144,-95.56 144,-95.56 314.4,-95.56 314.4,-95.56 320.4,-95.56 326.4,-101.56 326.4,-107.56 326.4,-107.56 326.4,-131.02 326.4,-131.02 326.4,-137.02 320.4,-143.02 314.4,-143.02"/>
<text xml:space="preserve" text-anchor="middle" x="229.2" y="-123.24" font-family="Noto Sans KR" font-size="14.00" fill="#182033">NotApplicable</text>
<text xml:space="preserve" text-anchor="middle" x="229.2" y="-105.99" font-family="Noto Sans KR" font-size="14.00" fill="#182033">stable reason</text>
</g>
<!-- Empty&#45;&gt;Fail -->
<g id="edge12" class="edge">
<title>Empty&#45;&gt;Fail</title>
<path fill="none" stroke="#59687e" stroke-width="1.3" d="M321.36,-224.86C301.41,-202.24 275.4,-172.72 256.1,-150.82"/>
<polygon fill="#59687e" stroke="#59687e" stroke-width="1.3" points="258.27,-149.04 250.88,-144.89 254.06,-152.74 258.27,-149.04"/>
<text xml:space="preserve" text-anchor="middle" x="296.67" y="-172.97" font-family="Noto Sans KR" font-size="14.00" fill="#46566e">yes</text>
</g>
<!-- Return -->
<g id="node12" class="node">
<title>Return</title>
<path fill="#eefbf6" stroke="#61b99a" stroke-width="1.4" d="M560.4,-143.02C560.4,-143.02 390,-143.02 390,-143.02 384,-143.02 378,-137.02 378,-131.02 378,-131.02 378,-107.56 378,-107.56 378,-101.56 384,-95.56 390,-95.56 390,-95.56 560.4,-95.56 560.4,-95.56 566.4,-95.56 572.4,-101.56 572.4,-107.56 572.4,-107.56 572.4,-131.02 572.4,-131.02 572.4,-137.02 566.4,-143.02 560.4,-143.02"/>
<text xml:space="preserve" text-anchor="middle" x="475.2" y="-123.24" font-family="Noto Sans KR" font-size="14.00" fill="#182033">ResolvedEffectOperation</text>
<text xml:space="preserve" text-anchor="middle" x="475.2" y="-105.99" font-family="Noto Sans KR" font-size="14.00" fill="#182033">대상을 다시 고르지 않음</text>
</g>
<!-- Empty&#45;&gt;Return -->
<g id="edge13" class="edge">
<title>Empty&#45;&gt;Return</title>
<path fill="none" stroke="#59687e" stroke-width="1.3" d="M381.22,-225.22C401.57,-202.5 428.25,-172.71 447.98,-150.68"/>
<polygon fill="#59687e" stroke="#59687e" stroke-width="1.3" points="449.82,-152.82 453.07,-145 445.65,-149.09 449.82,-152.82"/>
<text xml:space="preserve" text-anchor="middle" x="439.8" y="-172.97" font-family="Noto Sans KR" font-size="14.00" fill="#46566e">no</text>
</g>
<!-- end -->
<g id="node13" class="node">
<title>end</title>
<ellipse fill="#ffffff" stroke="#182033" stroke-width="1.4" cx="351.2" cy="-21.28" rx="17.28" ry="17.28"/>
<ellipse fill="none" stroke="#182033" stroke-width="1.4" cx="351.2" cy="-21.28" rx="21.28" ry="21.28"/>
</g>
<!-- Fail&#45;&gt;end -->
<g id="edge14" class="edge">
<title>Fail&#45;&gt;end</title>
<path fill="none" stroke="#59687e" stroke-width="1.3" d="M258.73,-95.05C279.68,-78.56 307.45,-56.71 327.07,-41.27"/>
<polygon fill="#59687e" stroke="#59687e" stroke-width="1.3" points="328.58,-43.65 333.13,-36.5 325.11,-39.25 328.58,-43.65"/>
</g>
<!-- Return&#45;&gt;end -->
<g id="edge15" class="edge">
<title>Return&#45;&gt;end</title>
<path fill="none" stroke="#59687e" stroke-width="1.3" d="M445.18,-95.05C423.89,-78.56 395.67,-56.71 375.72,-41.27"/>
<polygon fill="#59687e" stroke="#59687e" stroke-width="1.3" points="377.59,-39.17 369.55,-36.49 374.16,-43.6 377.59,-39.17"/>
</g>
</g>
</svg>
