<?xml version="1.0" encoding="UTF-8" standalone="no"?>
<!DOCTYPE svg PUBLIC "-//W3C//DTD SVG 1.1//EN"
 "http://www.w3.org/Graphics/SVG/1.1/DTD/svg11.dtd">
<!-- Generated by graphviz version 15.1.0 (20260618.0150)
 -->
<!-- Title: G Pages: 1 -->
<svg width="1314pt" height="1400pt"
 viewBox="12.00 12.00 1303.00 1388.00" xmlns="http://www.w3.org/2000/svg" xmlns:xlink="http://www.w3.org/1999/xlink">
<g id="graph0" class="graph" transform="scale(1.33333 1.33333) rotate(0) translate(26.64 1023.27)">
<title>G</title>
<polygon fill="#ffffff" stroke="none" points="-18,18 -18,-1014.63 950.4,-1014.63 950.4,18 -18,18"/>
<!-- start -->
<g id="node1" class="node">
<title>start</title>
<ellipse fill="#182033" stroke="#182033" stroke-width="1.4" cx="428.2" cy="-979.35" rx="17.28" ry="17.28"/>
</g>
<!-- Build -->
<g id="node2" class="node">
<title>Build</title>
<path fill="#eaf0ff" stroke="#8292f7" stroke-width="1.4" d="M513.4,-909.07C513.4,-909.07 343,-909.07 343,-909.07 337,-909.07 331,-903.07 331,-897.07 331,-897.07 331,-856.36 331,-856.36 331,-850.36 337,-844.36 343,-844.36 343,-844.36 513.4,-844.36 513.4,-844.36 519.4,-844.36 525.4,-850.36 525.4,-856.36 525.4,-856.36 525.4,-897.07 525.4,-897.07 525.4,-903.07 519.4,-909.07 513.4,-909.07"/>
<text xml:space="preserve" text-anchor="middle" x="428.2" y="-889.29" font-family="Noto Sans KR" font-size="14.00" fill="#182033">EffectContext 준비</text>
<text xml:space="preserve" text-anchor="middle" x="428.2" y="-872.04" font-family="Noto Sans KR" font-size="14.00" fill="#182033">CasterId · InitialTargetId</text>
<text xml:space="preserve" text-anchor="middle" x="428.2" y="-854.79" font-family="Noto Sans KR" font-size="14.00" fill="#182033">Source · RandomSeed</text>
</g>
<!-- start&#45;&gt;Build -->
<g id="edge1" class="edge">
<title>start&#45;&gt;Build</title>
<path fill="none" stroke="#59687e" stroke-width="1.3" d="M428.2,-961.73C428.2,-950.1 428.2,-934.02 428.2,-919.04"/>
<polygon fill="#59687e" stroke="#59687e" stroke-width="1.3" points="431,-919.38 428.2,-911.38 425.4,-919.38 431,-919.38"/>
</g>
<!-- Selector -->
<g id="node3" class="node">
<title>Selector</title>
<path fill="#fff7e6" stroke="#e0ad4e" stroke-width="1.4" d="M416.81,-787.59C416.81,-787.59 352.47,-766.33 352.47,-766.33 346.77,-764.44 346.77,-760.68 352.47,-758.79 352.47,-758.79 416.81,-737.53 416.81,-737.53 422.5,-735.64 433.9,-735.64 439.59,-737.53 439.59,-737.53 503.93,-758.79 503.93,-758.79 509.63,-760.68 509.63,-764.44 503.93,-766.33 503.93,-766.33 439.59,-787.59 439.59,-787.59 433.9,-789.48 422.5,-789.48 416.81,-787.59"/>
<text xml:space="preserve" text-anchor="middle" x="428.2" y="-757.89" font-family="Noto Sans KR" font-size="14.00" fill="#182033">selectorType?</text>
</g>
<!-- Build&#45;&gt;Selector -->
<g id="edge2" class="edge">
<title>Build&#45;&gt;Selector</title>
<path fill="none" stroke="#59687e" stroke-width="1.3" d="M428.2,-843.88C428.2,-830.74 428.2,-815.41 428.2,-801.69"/>
<polygon fill="#59687e" stroke="#59687e" stroke-width="1.3" points="431,-802 428.2,-794 425.4,-802 431,-802"/>
</g>
<!-- Self -->
<g id="node4" class="node">
<title>Self</title>
<path fill="#f7f9fc" stroke="#bac7db" stroke-width="1.4" d="M182.4,-664.51C182.4,-664.51 12,-664.51 12,-664.51 6,-664.51 0,-658.51 0,-652.51 0,-652.51 0,-629.05 0,-629.05 0,-623.05 6,-617.05 12,-617.05 12,-617.05 182.4,-617.05 182.4,-617.05 188.4,-617.05 194.4,-623.05 194.4,-629.05 194.4,-629.05 194.4,-652.51 194.4,-652.51 194.4,-658.51 188.4,-664.51 182.4,-664.51"/>
<text xml:space="preserve" text-anchor="middle" x="97.2" y="-644.73" font-family="Noto Sans KR" font-size="14.00" fill="#182033">Self / Owner</text>
<text xml:space="preserve" text-anchor="middle" x="97.2" y="-627.48" font-family="Noto Sans KR" font-size="14.00" fill="#182033">자기 자신 선택</text>
</g>
<!-- Selector&#45;&gt;Self -->
<g id="edge3" class="edge">
<title>Selector&#45;&gt;Self</title>
<path fill="none" stroke="#59687e" stroke-width="1.3" d="M387.28,-746.75C333.43,-727.26 237.8,-692.66 171.12,-668.53"/>
<polygon fill="#59687e" stroke="#59687e" stroke-width="1.3" points="172.23,-665.96 163.76,-665.87 170.33,-671.22 172.23,-665.96"/>
<text xml:space="preserve" text-anchor="middle" x="284.25" y="-694.46" font-family="Noto Sans KR" font-size="14.00" fill="#46566e">Self</text>
</g>
<!-- Single -->
<g id="node5" class="node">
<title>Single</title>
<path fill="#f7f9fc" stroke="#bac7db" stroke-width="1.4" d="M428.4,-664.51C428.4,-664.51 258,-664.51 258,-664.51 252,-664.51 246,-658.51 246,-652.51 246,-652.51 246,-629.05 246,-629.05 246,-623.05 252,-617.05 258,-617.05 258,-617.05 428.4,-617.05 428.4,-617.05 434.4,-617.05 440.4,-623.05 440.4,-629.05 440.4,-629.05 440.4,-652.51 440.4,-652.51 440.4,-658.51 434.4,-664.51 428.4,-664.51"/>
<text xml:space="preserve" text-anchor="middle" x="343.2" y="-644.73" font-family="Noto Sans KR" font-size="14.00" fill="#182033">Single Target</text>
<text xml:space="preserve" text-anchor="middle" x="343.2" y="-627.48" font-family="Noto Sans KR" font-size="14.00" fill="#182033">명시 대상 검증</text>
</g>
<!-- Selector&#45;&gt;Single -->
<g id="edge4" class="edge">
<title>Selector&#45;&gt;Single</title>
<path fill="none" stroke="#59687e" stroke-width="1.3" d="M411.81,-738.47C398.58,-719.82 379.84,-693.42 365.29,-672.91"/>
<polygon fill="#59687e" stroke="#59687e" stroke-width="1.3" points="367.59,-671.31 360.68,-666.41 363.02,-674.55 367.59,-671.31"/>
<text xml:space="preserve" text-anchor="middle" x="407.75" y="-694.46" font-family="Noto Sans KR" font-size="14.00" fill="#46566e">Single</text>
</g>
<!-- Area -->
<g id="node6" class="node">
<title>Area</title>
<path fill="#f7f9fc" stroke="#bac7db" stroke-width="1.4" d="M674.4,-664.51C674.4,-664.51 504,-664.51 504,-664.51 498,-664.51 492,-658.51 492,-652.51 492,-652.51 492,-629.05 492,-629.05 492,-623.05 498,-617.05 504,-617.05 504,-617.05 674.4,-617.05 674.4,-617.05 680.4,-617.05 686.4,-623.05 686.4,-629.05 686.4,-629.05 686.4,-652.51 686.4,-652.51 686.4,-658.51 680.4,-664.51 674.4,-664.51"/>
<text xml:space="preserve" text-anchor="middle" x="589.2" y="-644.73" font-family="Noto Sans KR" font-size="14.00" fill="#182033">Area / Cone / Line</text>
<text xml:space="preserve" text-anchor="middle" x="589.2" y="-627.48" font-family="Noto Sans KR" font-size="14.00" fill="#182033">공간 후보 수집</text>
</g>
<!-- Selector&#45;&gt;Area -->
<g id="edge5" class="edge">
<title>Selector&#45;&gt;Area</title>
<path fill="none" stroke="#59687e" stroke-width="1.3" d="M454.43,-742.05C480.35,-722.76 520.35,-693.01 550.04,-670.92"/>
<polygon fill="#59687e" stroke="#59687e" stroke-width="1.3" points="551.41,-673.39 556.16,-666.36 548.07,-668.89 551.41,-673.39"/>
<text xml:space="preserve" text-anchor="middle" x="537" y="-694.46" font-family="Noto Sans KR" font-size="14.00" fill="#46566e">Area</text>
</g>
<!-- Chain -->
<g id="node7" class="node">
<title>Chain</title>
<path fill="#f7f9fc" stroke="#bac7db" stroke-width="1.4" d="M920.4,-664.51C920.4,-664.51 750,-664.51 750,-664.51 744,-664.51 738,-658.51 738,-652.51 738,-652.51 738,-629.05 738,-629.05 738,-623.05 744,-617.05 750,-617.05 750,-617.05 920.4,-617.05 920.4,-617.05 926.4,-617.05 932.4,-623.05 932.4,-629.05 932.4,-629.05 932.4,-652.51 932.4,-652.51 932.4,-658.51 926.4,-664.51 920.4,-664.51"/>
<text xml:space="preserve" text-anchor="middle" x="835.2" y="-644.73" font-family="Noto Sans KR" font-size="14.00" fill="#182033">Chain / Random</text>
<text xml:space="preserve" text-anchor="middle" x="835.2" y="-627.48" font-family="Noto Sans KR" font-size="14.00" fill="#182033">반복 선택·중복 정책</text>
</g>
<!-- Selector&#45;&gt;Chain -->
<g id="edge6" class="edge">
<title>Selector&#45;&gt;Chain</title>
<path fill="none" stroke="#59687e" stroke-width="1.3" d="M473.7,-748.17C539.42,-728.83 662.2,-692.69 746.28,-667.95"/>
<polygon fill="#59687e" stroke="#59687e" stroke-width="1.3" points="747.05,-670.64 753.94,-665.7 745.47,-665.27 747.05,-670.64"/>
<text xml:space="preserve" text-anchor="middle" x="686.53" y="-694.46" font-family="Noto Sans KR" font-size="14.00" fill="#46566e">Chain</text>
</g>
<!-- Candidate -->
<g id="node8" class="node">
<title>Candidate</title>
<path fill="#eaf0ff" stroke="#8292f7" stroke-width="1.4" d="M551.4,-564.05C551.4,-564.05 381,-564.05 381,-564.05 375,-564.05 369,-558.05 369,-552.05 369,-552.05 369,-528.59 369,-528.59 369,-522.59 375,-516.59 381,-516.59 381,-516.59 551.4,-516.59 551.4,-516.59 557.4,-516.59 563.4,-522.59 563.4,-528.59 563.4,-528.59 563.4,-552.05 563.4,-552.05 563.4,-558.05 557.4,-564.05 551.4,-564.05"/>
<text xml:space="preserve" text-anchor="middle" x="466.2" y="-544.27" font-family="Noto Sans KR" font-size="14.00" fill="#182033">CandidateSet 생성</text>
<text xml:space="preserve" text-anchor="middle" x="466.2" y="-527.02" font-family="Noto Sans KR" font-size="14.00" fill="#182033">거리·팀·시야·충돌 기준</text>
</g>
<!-- Self&#45;&gt;Candidate -->
<g id="edge7" class="edge">
<title>Self&#45;&gt;Candidate</title>
<path fill="none" stroke="#59687e" stroke-width="1.3" d="M184.65,-616.45C240.06,-601.66 311.81,-582.52 369.01,-567.25"/>
<polygon fill="#59687e" stroke="#59687e" stroke-width="1.3" points="369.51,-570.02 376.52,-565.25 368.07,-564.61 369.51,-570.02"/>
</g>
<!-- Single&#45;&gt;Candidate -->
<g id="edge8" class="edge">
<title>Single&#45;&gt;Candidate</title>
<path fill="none" stroke="#59687e" stroke-width="1.3" d="M372.35,-616.45C389.51,-602.71 411.36,-585.22 429.66,-570.57"/>
<polygon fill="#59687e" stroke="#59687e" stroke-width="1.3" points="431.23,-572.9 435.72,-565.72 427.73,-568.53 431.23,-572.9"/>
</g>
<!-- Area&#45;&gt;Candidate -->
<g id="edge9" class="edge">
<title>Area&#45;&gt;Candidate</title>
<path fill="none" stroke="#59687e" stroke-width="1.3" d="M560.05,-616.45C542.89,-602.71 521.04,-585.22 502.74,-570.57"/>
<polygon fill="#59687e" stroke="#59687e" stroke-width="1.3" points="504.67,-568.53 496.68,-565.72 501.17,-572.9 504.67,-568.53"/>
</g>
<!-- Chain&#45;&gt;Candidate -->
<g id="edge10" class="edge">
<title>Chain&#45;&gt;Candidate</title>
<path fill="none" stroke="#59687e" stroke-width="1.3" d="M747.75,-616.45C692.34,-601.66 620.59,-582.52 563.39,-567.25"/>
<polygon fill="#59687e" stroke="#59687e" stroke-width="1.3" points="564.33,-564.61 555.88,-565.25 562.89,-570.02 564.33,-564.61"/>
</g>
<!-- Filter -->
<g id="node9" class="node">
<title>Filter</title>
<path fill="#f3eefc" stroke="#ab8fe0" stroke-width="1.4" d="M554.28,-463.59C554.28,-463.59 378.12,-463.59 378.12,-463.59 372.12,-463.59 366.12,-457.59 366.12,-451.59 366.12,-451.59 366.12,-428.13 366.12,-428.13 366.12,-422.13 372.12,-416.13 378.12,-416.13 378.12,-416.13 554.28,-416.13 554.28,-416.13 560.28,-416.13 566.28,-422.13 566.28,-428.13 566.28,-428.13 566.28,-451.59 566.28,-451.59 566.28,-457.59 560.28,-463.59 554.28,-463.59"/>
<text xml:space="preserve" text-anchor="middle" x="466.2" y="-443.81" font-family="Noto Sans KR" font-size="14.00" fill="#182033">TargetCondition 필터</text>
<text xml:space="preserve" text-anchor="middle" x="466.2" y="-426.56" font-family="Noto Sans KR" font-size="14.00" fill="#182033">alive, enemy, boss, status, tag</text>
</g>
<!-- Candidate&#45;&gt;Filter -->
<g id="edge11" class="edge">
<title>Candidate&#45;&gt;Filter</title>
<path fill="none" stroke="#59687e" stroke-width="1.3" d="M466.2,-515.99C466.2,-503.36 466.2,-487.55 466.2,-473.69"/>
<polygon fill="#59687e" stroke="#59687e" stroke-width="1.3" points="469,-473.99 466.2,-465.99 463.4,-473.99 469,-473.99"/>
</g>
<!-- SortLimit -->
<g id="node10" class="node">
<title>SortLimit</title>
<path fill="#f3eefc" stroke="#ab8fe0" stroke-width="1.4" d="M556.9,-363.13C556.9,-363.13 375.5,-363.13 375.5,-363.13 369.5,-363.13 363.5,-357.13 363.5,-351.13 363.5,-351.13 363.5,-327.67 363.5,-327.67 363.5,-321.67 369.5,-315.67 375.5,-315.67 375.5,-315.67 556.9,-315.67 556.9,-315.67 562.9,-315.67 568.9,-321.67 568.9,-327.67 568.9,-327.67 568.9,-351.13 568.9,-351.13 568.9,-357.13 562.9,-363.13 556.9,-363.13"/>
<text xml:space="preserve" text-anchor="middle" x="466.2" y="-343.35" font-family="Noto Sans KR" font-size="14.00" fill="#182033">정렬/제한</text>
<text xml:space="preserve" text-anchor="middle" x="466.2" y="-326.1" font-family="Noto Sans KR" font-size="14.00" fill="#182033">nearest, lowestHP, maxTargets</text>
</g>
<!-- Filter&#45;&gt;SortLimit -->
<g id="edge12" class="edge">
<title>Filter&#45;&gt;SortLimit</title>
<path fill="none" stroke="#59687e" stroke-width="1.3" d="M466.2,-415.53C466.2,-402.9 466.2,-387.09 466.2,-373.23"/>
<polygon fill="#59687e" stroke="#59687e" stroke-width="1.3" points="469,-373.53 466.2,-365.53 463.4,-373.53 469,-373.53"/>
</g>
<!-- Empty -->
<g id="node11" class="node">
<title>Empty</title>
<path fill="#fff7e6" stroke="#e0ad4e" stroke-width="1.4" d="M455.19,-257.9C455.19,-257.9 418.99,-242.24 418.99,-242.24 413.48,-239.85 413.48,-235.09 418.99,-232.7 418.99,-232.7 455.19,-217.04 455.19,-217.04 460.69,-214.65 471.71,-214.65 477.21,-217.04 477.21,-217.04 513.41,-232.7 513.41,-232.7 518.92,-235.09 518.92,-239.85 513.41,-242.24 513.41,-242.24 477.21,-257.9 477.21,-257.9 471.71,-260.29 460.69,-260.29 455.19,-257.9"/>
<text xml:space="preserve" text-anchor="middle" x="466.2" y="-232.8" font-family="Noto Sans KR" font-size="14.00" fill="#182033">empty?</text>
</g>
<!-- SortLimit&#45;&gt;Empty -->
<g id="edge13" class="edge">
<title>SortLimit&#45;&gt;Empty</title>
<path fill="none" stroke="#59687e" stroke-width="1.3" d="M466.2,-314.97C466.2,-302.44 466.2,-286.77 466.2,-272.88"/>
<polygon fill="#59687e" stroke="#59687e" stroke-width="1.3" points="469,-273.11 466.2,-265.11 463.4,-273.11 469,-273.11"/>
</g>
<!-- Fail -->
<g id="node12" class="node">
<title>Fail</title>
<path fill="#fff0f3" stroke="#e07b91" stroke-width="1.4" d="M429.4,-143.02C429.4,-143.02 259,-143.02 259,-143.02 253,-143.02 247,-137.02 247,-131.02 247,-131.02 247,-107.56 247,-107.56 247,-101.56 253,-95.56 259,-95.56 259,-95.56 429.4,-95.56 429.4,-95.56 435.4,-95.56 441.4,-101.56 441.4,-107.56 441.4,-107.56 441.4,-131.02 441.4,-131.02 441.4,-137.02 435.4,-143.02 429.4,-143.02"/>
<text xml:space="preserve" text-anchor="middle" x="344.2" y="-123.24" font-family="Noto Sans KR" font-size="14.00" fill="#182033">NoValidTarget</text>
<text xml:space="preserve" text-anchor="middle" x="344.2" y="-105.99" font-family="Noto Sans KR" font-size="14.00" fill="#182033">실패 또는 skip</text>
</g>
<!-- Empty&#45;&gt;Fail -->
<g id="edge14" class="edge">
<title>Empty&#45;&gt;Fail</title>
<path fill="none" stroke="#59687e" stroke-width="1.3" d="M448.2,-219.33C429.18,-201.22 398.81,-172.3 375.79,-150.38"/>
<polygon fill="#59687e" stroke="#59687e" stroke-width="1.3" points="377.75,-148.37 370.02,-144.88 373.89,-152.43 377.75,-148.37"/>
<text xml:space="preserve" text-anchor="middle" x="422.63" y="-172.97" font-family="Noto Sans KR" font-size="14.00" fill="#46566e">yes</text>
</g>
<!-- Return -->
<g id="node13" class="node">
<title>Return</title>
<path fill="#eefbf6" stroke="#61b99a" stroke-width="1.4" d="M675.4,-143.02C675.4,-143.02 505,-143.02 505,-143.02 499,-143.02 493,-137.02 493,-131.02 493,-131.02 493,-107.56 493,-107.56 493,-101.56 499,-95.56 505,-95.56 505,-95.56 675.4,-95.56 675.4,-95.56 681.4,-95.56 687.4,-101.56 687.4,-107.56 687.4,-107.56 687.4,-131.02 687.4,-131.02 687.4,-137.02 681.4,-143.02 675.4,-143.02"/>
<text xml:space="preserve" text-anchor="middle" x="590.2" y="-123.24" font-family="Noto Sans KR" font-size="14.00" fill="#182033">TargetSet 반환</text>
<text xml:space="preserve" text-anchor="middle" x="590.2" y="-105.99" font-family="Noto Sans KR" font-size="14.00" fill="#182033">child context 생성</text>
</g>
<!-- Empty&#45;&gt;Return -->
<g id="edge15" class="edge">
<title>Empty&#45;&gt;Return</title>
<path fill="none" stroke="#59687e" stroke-width="1.3" d="M484.23,-219.58C503.59,-201.44 534.73,-172.26 558.25,-150.22"/>
<polygon fill="#59687e" stroke="#59687e" stroke-width="1.3" points="559.93,-152.49 563.85,-144.98 556.1,-148.4 559.93,-152.49"/>
<text xml:space="preserve" text-anchor="middle" x="543.87" y="-172.97" font-family="Noto Sans KR" font-size="14.00" fill="#46566e">no</text>
</g>
<!-- end -->
<g id="node14" class="node">
<title>end</title>
<ellipse fill="#ffffff" stroke="#182033" stroke-width="1.4" cx="466.2" cy="-21.28" rx="17.28" ry="17.28"/>
<ellipse fill="none" stroke="#182033" stroke-width="1.4" cx="466.2" cy="-21.28" rx="21.28" ry="21.28"/>
</g>
<!-- Fail&#45;&gt;end -->
<g id="edge16" class="edge">
<title>Fail&#45;&gt;end</title>
<path fill="none" stroke="#59687e" stroke-width="1.3" d="M373.73,-95.05C394.68,-78.56 422.45,-56.71 442.07,-41.27"/>
<polygon fill="#59687e" stroke="#59687e" stroke-width="1.3" points="443.58,-43.65 448.13,-36.5 440.11,-39.25 443.58,-43.65"/>
</g>
<!-- Return&#45;&gt;end -->
<g id="edge17" class="edge">
<title>Return&#45;&gt;end</title>
<path fill="none" stroke="#59687e" stroke-width="1.3" d="M560.18,-95.05C538.89,-78.56 510.67,-56.71 490.72,-41.27"/>
<polygon fill="#59687e" stroke="#59687e" stroke-width="1.3" points="492.59,-39.17 484.55,-36.49 489.16,-43.6 492.59,-39.17"/>
</g>
</g>
</svg>
