<?xml version="1.0" encoding="UTF-8" standalone="no"?>
<!DOCTYPE svg PUBLIC "-//W3C//DTD SVG 1.1//EN"
 "http://www.w3.org/Graphics/SVG/1.1/DTD/svg11.dtd">
<!-- Generated by graphviz version 2.42.4 (0)
 -->
<!-- Title: G Pages: 1 -->
<svg width="934pt" height="960pt"
 viewBox="8.64 8.64 925.64 951.64" xmlns="http://www.w3.org/2000/svg" xmlns:xlink="http://www.w3.org/1999/xlink">
<g id="graph0" class="graph" transform="scale(1 1) rotate(0) translate(26.64 933.64)">
<title>G</title>
<polygon fill="#ffffff" stroke="transparent" points="-18,18 -18,-925 899,-925 899,18 -18,18"/>
<!-- start -->
<g id="node1" class="node">
<title>start</title>
<ellipse fill="#182033" stroke="#182033" stroke-width="1.4" cx="440" cy="-889.5" rx="17.5" ry="17.5"/>
</g>
<!-- Build -->
<g id="node2" class="node">
<title>Build</title>
<path fill="#eaf0ff" stroke="#8292f7" stroke-width="1.4" d="M525,-823C525,-823 355,-823 355,-823 349,-823 343,-817 343,-811 343,-811 343,-793 343,-793 343,-787 349,-781 355,-781 355,-781 525,-781 525,-781 531,-781 537,-787 537,-793 537,-793 537,-811 537,-811 537,-817 531,-823 525,-823"/>
<text text-anchor="middle" x="440" y="-805.8" font-family="Noto Sans CJK KR" font-size="14.00" fill="#182033">EffectContext 준비</text>
<text text-anchor="middle" x="440" y="-790.8" font-family="Noto Sans CJK KR" font-size="14.00" fill="#182033">source, position, skill, tags</text>
</g>
<!-- start&#45;&gt;Build -->
<g id="edge1" class="edge">
<title>start&#45;&gt;Build</title>
<path fill="none" stroke="#59687e" stroke-width="1.3" d="M440,-871.79C440,-871.79 440,-831.07 440,-831.07"/>
<polygon fill="#59687e" stroke="#59687e" stroke-width="1.3" points="442.8,-831.07 440,-823.07 437.2,-831.07 442.8,-831.07"/>
</g>
<!-- Selector -->
<g id="node3" class="node">
<title>Selector</title>
<path fill="#fff7e6" stroke="#e0ad4e" stroke-width="1.4" d="M428.61,-728.24C428.61,-728.24 363.62,-706.76 363.62,-706.76 357.93,-704.88 357.93,-701.12 363.62,-699.24 363.62,-699.24 428.61,-677.76 428.61,-677.76 434.3,-675.88 445.7,-675.88 451.39,-677.76 451.39,-677.76 516.38,-699.24 516.38,-699.24 522.07,-701.12 522.07,-704.88 516.38,-706.76 516.38,-706.76 451.39,-728.24 451.39,-728.24 445.7,-730.12 434.3,-730.12 428.61,-728.24"/>
<text text-anchor="middle" x="440" y="-699.3" font-family="Noto Sans CJK KR" font-size="14.00" fill="#182033">selectorType?</text>
</g>
<!-- Build&#45;&gt;Selector -->
<g id="edge2" class="edge">
<title>Build&#45;&gt;Selector</title>
<path fill="none" stroke="#59687e" stroke-width="1.3" d="M440,-780.52C440,-780.52 440,-740.33 440,-740.33"/>
<polygon fill="#59687e" stroke="#59687e" stroke-width="1.3" points="442.8,-740.33 440,-732.33 437.2,-740.33 442.8,-740.33"/>
</g>
<!-- Self -->
<g id="node4" class="node">
<title>Self</title>
<path fill="#f7f9fc" stroke="#bac7db" stroke-width="1.4" d="M182,-611C182,-611 12,-611 12,-611 6,-611 0,-605 0,-599 0,-599 0,-581 0,-581 0,-575 6,-569 12,-569 12,-569 182,-569 182,-569 188,-569 194,-575 194,-581 194,-581 194,-599 194,-599 194,-605 188,-611 182,-611"/>
<text text-anchor="middle" x="97" y="-593.8" font-family="Noto Sans CJK KR" font-size="14.00" fill="#182033">Self / Owner</text>
<text text-anchor="middle" x="97" y="-578.8" font-family="Noto Sans CJK KR" font-size="14.00" fill="#182033">자기 자신 선택</text>
</g>
<!-- Selector&#45;&gt;Self -->
<g id="edge3" class="edge">
<title>Selector&#45;&gt;Self</title>
<path fill="none" stroke="#59687e" stroke-width="1.3" d="M352.11,-703C250.49,-703 97,-703 97,-703 97,-703 97,-619.25 97,-619.25"/>
<polygon fill="#59687e" stroke="#59687e" stroke-width="1.3" points="99.8,-619.25 97,-611.25 94.2,-619.25 99.8,-619.25"/>
<text text-anchor="middle" x="191.5" y="-638.8" font-family="Noto Sans CJK KR" font-size="14.00" fill="#46566e">Self</text>
</g>
<!-- Single -->
<g id="node5" class="node">
<title>Single</title>
<path fill="#f7f9fc" stroke="#bac7db" stroke-width="1.4" d="M411,-611C411,-611 241,-611 241,-611 235,-611 229,-605 229,-599 229,-599 229,-581 229,-581 229,-575 235,-569 241,-569 241,-569 411,-569 411,-569 417,-569 423,-575 423,-581 423,-581 423,-599 423,-599 423,-605 417,-611 411,-611"/>
<text text-anchor="middle" x="326" y="-593.8" font-family="Noto Sans CJK KR" font-size="14.00" fill="#182033">Single Target</text>
<text text-anchor="middle" x="326" y="-578.8" font-family="Noto Sans CJK KR" font-size="14.00" fill="#182033">명시 대상 검증</text>
</g>
<!-- Selector&#45;&gt;Single -->
<g id="edge4" class="edge">
<title>Selector&#45;&gt;Single</title>
<path fill="none" stroke="#59687e" stroke-width="1.3" d="M387.56,-690.91C387.56,-690.91 387.56,-619.21 387.56,-619.21"/>
<polygon fill="#59687e" stroke="#59687e" stroke-width="1.3" points="390.36,-619.21 387.56,-611.21 384.76,-619.21 390.36,-619.21"/>
<text text-anchor="middle" x="383" y="-638.8" font-family="Noto Sans CJK KR" font-size="14.00" fill="#46566e">Single</text>
</g>
<!-- Area -->
<g id="node6" class="node">
<title>Area</title>
<path fill="#f7f9fc" stroke="#bac7db" stroke-width="1.4" d="M640,-611C640,-611 470,-611 470,-611 464,-611 458,-605 458,-599 458,-599 458,-581 458,-581 458,-575 464,-569 470,-569 470,-569 640,-569 640,-569 646,-569 652,-575 652,-581 652,-581 652,-599 652,-599 652,-605 646,-611 640,-611"/>
<text text-anchor="middle" x="555" y="-593.8" font-family="Noto Sans CJK KR" font-size="14.00" fill="#182033">Area / Cone / Line</text>
<text text-anchor="middle" x="555" y="-578.8" font-family="Noto Sans CJK KR" font-size="14.00" fill="#182033">공간 후보 수집</text>
</g>
<!-- Selector&#45;&gt;Area -->
<g id="edge5" class="edge">
<title>Selector&#45;&gt;Area</title>
<path fill="none" stroke="#59687e" stroke-width="1.3" d="M492.94,-691.33C492.94,-691.33 492.94,-619.4 492.94,-619.4"/>
<polygon fill="#59687e" stroke="#59687e" stroke-width="1.3" points="495.74,-619.4 492.94,-611.4 490.14,-619.4 495.74,-619.4"/>
<text text-anchor="middle" x="532" y="-638.8" font-family="Noto Sans CJK KR" font-size="14.00" fill="#46566e">Area</text>
</g>
<!-- Chain -->
<g id="node7" class="node">
<title>Chain</title>
<path fill="#f7f9fc" stroke="#bac7db" stroke-width="1.4" d="M869,-611C869,-611 699,-611 699,-611 693,-611 687,-605 687,-599 687,-599 687,-581 687,-581 687,-575 693,-569 699,-569 699,-569 869,-569 869,-569 875,-569 881,-575 881,-581 881,-581 881,-599 881,-599 881,-605 875,-611 869,-611"/>
<text text-anchor="middle" x="784" y="-593.8" font-family="Noto Sans CJK KR" font-size="14.00" fill="#182033">Chain / Random</text>
<text text-anchor="middle" x="784" y="-578.8" font-family="Noto Sans CJK KR" font-size="14.00" fill="#182033">반복 선택·중복 정책</text>
</g>
<!-- Selector&#45;&gt;Chain -->
<g id="edge6" class="edge">
<title>Selector&#45;&gt;Chain</title>
<path fill="none" stroke="#59687e" stroke-width="1.3" d="M528.14,-703C630.06,-703 784,-703 784,-703 784,-703 784,-619.25 784,-619.25"/>
<polygon fill="#59687e" stroke="#59687e" stroke-width="1.3" points="786.8,-619.25 784,-611.25 781.2,-619.25 786.8,-619.25"/>
<text text-anchor="middle" x="760" y="-638.8" font-family="Noto Sans CJK KR" font-size="14.00" fill="#46566e">Chain</text>
</g>
<!-- Candidate -->
<g id="node8" class="node">
<title>Candidate</title>
<path fill="#eaf0ff" stroke="#8292f7" stroke-width="1.4" d="M525,-520C525,-520 355,-520 355,-520 349,-520 343,-514 343,-508 343,-508 343,-490 343,-490 343,-484 349,-478 355,-478 355,-478 525,-478 525,-478 531,-478 537,-484 537,-490 537,-490 537,-508 537,-508 537,-514 531,-520 525,-520"/>
<text text-anchor="middle" x="440" y="-502.8" font-family="Noto Sans CJK KR" font-size="14.00" fill="#182033">CandidateSet 생성</text>
<text text-anchor="middle" x="440" y="-487.8" font-family="Noto Sans CJK KR" font-size="14.00" fill="#182033">거리·팀·시야·충돌 기준</text>
</g>
<!-- Self&#45;&gt;Candidate -->
<g id="edge7" class="edge">
<title>Self&#45;&gt;Candidate</title>
<path fill="none" stroke="#59687e" stroke-width="1.3" d="M97,-568.89C97,-542.01 97,-499 97,-499 97,-499 334.63,-499 334.63,-499"/>
<polygon fill="#59687e" stroke="#59687e" stroke-width="1.3" points="334.63,-501.8 342.63,-499 334.63,-496.2 334.63,-501.8"/>
</g>
<!-- Single&#45;&gt;Candidate -->
<g id="edge8" class="edge">
<title>Single&#45;&gt;Candidate</title>
<path fill="none" stroke="#59687e" stroke-width="1.3" d="M383,-568.89C383,-568.89 383,-528.31 383,-528.31"/>
<polygon fill="#59687e" stroke="#59687e" stroke-width="1.3" points="385.8,-528.31 383,-520.31 380.2,-528.31 385.8,-528.31"/>
</g>
<!-- Area&#45;&gt;Candidate -->
<g id="edge9" class="edge">
<title>Area&#45;&gt;Candidate</title>
<path fill="none" stroke="#59687e" stroke-width="1.3" d="M497.5,-568.89C497.5,-568.89 497.5,-528.31 497.5,-528.31"/>
<polygon fill="#59687e" stroke="#59687e" stroke-width="1.3" points="500.3,-528.31 497.5,-520.31 494.7,-528.31 500.3,-528.31"/>
</g>
<!-- Chain&#45;&gt;Candidate -->
<g id="edge10" class="edge">
<title>Chain&#45;&gt;Candidate</title>
<path fill="none" stroke="#59687e" stroke-width="1.3" d="M784,-568.89C784,-542.01 784,-499 784,-499 784,-499 545.2,-499 545.2,-499"/>
<polygon fill="#59687e" stroke="#59687e" stroke-width="1.3" points="545.2,-496.2 537.2,-499 545.2,-501.8 545.2,-496.2"/>
</g>
<!-- Filter -->
<g id="node9" class="node">
<title>Filter</title>
<path fill="#f3eefc" stroke="#ab8fe0" stroke-width="1.4" d="M534.5,-429C534.5,-429 345.5,-429 345.5,-429 339.5,-429 333.5,-423 333.5,-417 333.5,-417 333.5,-399 333.5,-399 333.5,-393 339.5,-387 345.5,-387 345.5,-387 534.5,-387 534.5,-387 540.5,-387 546.5,-393 546.5,-399 546.5,-399 546.5,-417 546.5,-417 546.5,-423 540.5,-429 534.5,-429"/>
<text text-anchor="middle" x="440" y="-411.8" font-family="Noto Sans CJK KR" font-size="14.00" fill="#182033">TargetCondition 필터</text>
<text text-anchor="middle" x="440" y="-396.8" font-family="Noto Sans CJK KR" font-size="14.00" fill="#182033">alive, enemy, boss, status, tag</text>
</g>
<!-- Candidate&#45;&gt;Filter -->
<g id="edge11" class="edge">
<title>Candidate&#45;&gt;Filter</title>
<path fill="none" stroke="#59687e" stroke-width="1.3" d="M440,-477.89C440,-477.89 440,-437.31 440,-437.31"/>
<polygon fill="#59687e" stroke="#59687e" stroke-width="1.3" points="442.8,-437.31 440,-429.31 437.2,-437.31 442.8,-437.31"/>
</g>
<!-- SortLimit -->
<g id="node10" class="node">
<title>SortLimit</title>
<path fill="#f3eefc" stroke="#ab8fe0" stroke-width="1.4" d="M536.5,-338C536.5,-338 343.5,-338 343.5,-338 337.5,-338 331.5,-332 331.5,-326 331.5,-326 331.5,-308 331.5,-308 331.5,-302 337.5,-296 343.5,-296 343.5,-296 536.5,-296 536.5,-296 542.5,-296 548.5,-302 548.5,-308 548.5,-308 548.5,-326 548.5,-326 548.5,-332 542.5,-338 536.5,-338"/>
<text text-anchor="middle" x="440" y="-320.8" font-family="Noto Sans CJK KR" font-size="14.00" fill="#182033">정렬/제한</text>
<text text-anchor="middle" x="440" y="-305.8" font-family="Noto Sans CJK KR" font-size="14.00" fill="#182033">nearest, lowestHP, maxTargets</text>
</g>
<!-- Filter&#45;&gt;SortLimit -->
<g id="edge12" class="edge">
<title>Filter&#45;&gt;SortLimit</title>
<path fill="none" stroke="#59687e" stroke-width="1.3" d="M440,-386.89C440,-386.89 440,-346.31 440,-346.31"/>
<polygon fill="#59687e" stroke="#59687e" stroke-width="1.3" points="442.8,-346.31 440,-338.31 437.2,-346.31 442.8,-346.31"/>
</g>
<!-- Empty -->
<g id="node11" class="node">
<title>Empty</title>
<path fill="#fff7e6" stroke="#e0ad4e" stroke-width="1.4" d="M428.98,-242.25C428.98,-242.25 393.08,-226.75 393.08,-226.75 387.57,-224.38 387.57,-219.62 393.08,-217.25 393.08,-217.25 428.98,-201.75 428.98,-201.75 434.49,-199.38 445.51,-199.38 451.02,-201.75 451.02,-201.75 486.92,-217.25 486.92,-217.25 492.43,-219.62 492.43,-224.38 486.92,-226.75 486.92,-226.75 451.02,-242.25 451.02,-242.25 445.51,-244.62 434.49,-244.62 428.98,-242.25"/>
<text text-anchor="middle" x="440" y="-218.3" font-family="Noto Sans CJK KR" font-size="14.00" fill="#182033">empty?</text>
</g>
<!-- SortLimit&#45;&gt;Empty -->
<g id="edge13" class="edge">
<title>SortLimit&#45;&gt;Empty</title>
<path fill="none" stroke="#59687e" stroke-width="1.3" d="M440,-295.92C440,-295.92 440,-255.07 440,-255.07"/>
<polygon fill="#59687e" stroke="#59687e" stroke-width="1.3" points="442.8,-255.07 440,-247.07 437.2,-255.07 442.8,-255.07"/>
</g>
<!-- Fail -->
<g id="node12" class="node">
<title>Fail</title>
<path fill="#fff0f3" stroke="#e07b91" stroke-width="1.4" d="M411,-134C411,-134 241,-134 241,-134 235,-134 229,-128 229,-122 229,-122 229,-104 229,-104 229,-98 235,-92 241,-92 241,-92 411,-92 411,-92 417,-92 423,-98 423,-104 423,-104 423,-122 423,-122 423,-128 417,-134 411,-134"/>
<text text-anchor="middle" x="326" y="-116.8" font-family="Noto Sans CJK KR" font-size="14.00" fill="#182033">NoValidTarget</text>
<text text-anchor="middle" x="326" y="-101.8" font-family="Noto Sans CJK KR" font-size="14.00" fill="#182033">실패 또는 skip</text>
</g>
<!-- Empty&#45;&gt;Fail -->
<g id="edge14" class="edge">
<title>Empty&#45;&gt;Fail</title>
<path fill="none" stroke="#59687e" stroke-width="1.3" d="M402.52,-213.08C402.52,-213.08 402.52,-142.29 402.52,-142.29"/>
<polygon fill="#59687e" stroke="#59687e" stroke-width="1.3" points="405.32,-142.29 402.52,-134.29 399.72,-142.29 405.32,-142.29"/>
<text text-anchor="middle" x="420" y="-161.8" font-family="Noto Sans CJK KR" font-size="14.00" fill="#46566e">yes</text>
</g>
<!-- Return -->
<g id="node13" class="node">
<title>Return</title>
<path fill="#eefbf6" stroke="#61b99a" stroke-width="1.4" d="M640,-134C640,-134 470,-134 470,-134 464,-134 458,-128 458,-122 458,-122 458,-104 458,-104 458,-98 464,-92 470,-92 470,-92 640,-92 640,-92 646,-92 652,-98 652,-104 652,-104 652,-122 652,-122 652,-128 646,-134 640,-134"/>
<text text-anchor="middle" x="555" y="-116.8" font-family="Noto Sans CJK KR" font-size="14.00" fill="#182033">TargetSet 반환</text>
<text text-anchor="middle" x="555" y="-101.8" font-family="Noto Sans CJK KR" font-size="14.00" fill="#182033">child context 생성</text>
</g>
<!-- Empty&#45;&gt;Return -->
<g id="edge15" class="edge">
<title>Empty&#45;&gt;Return</title>
<path fill="none" stroke="#59687e" stroke-width="1.3" d="M477.98,-213.08C477.98,-213.08 477.98,-142.29 477.98,-142.29"/>
<polygon fill="#59687e" stroke="#59687e" stroke-width="1.3" points="480.78,-142.29 477.98,-134.29 475.18,-142.29 480.78,-142.29"/>
<text text-anchor="middle" x="521.5" y="-161.8" font-family="Noto Sans CJK KR" font-size="14.00" fill="#46566e">no</text>
</g>
<!-- end -->
<g id="node14" class="node">
<title>end</title>
<ellipse fill="#ffffff" stroke="#182033" stroke-width="1.4" cx="440" cy="-21.5" rx="17.5" ry="17.5"/>
<ellipse fill="none" stroke="#182033" stroke-width="1.4" cx="440" cy="-21.5" rx="21.5" ry="21.5"/>
</g>
<!-- Fail&#45;&gt;end -->
<g id="edge16" class="edge">
<title>Fail&#45;&gt;end</title>
<path fill="none" stroke="#59687e" stroke-width="1.3" d="M423.04,-106C430.18,-106 434.67,-106 434.67,-106 434.67,-106 434.67,-50.39 434.67,-50.39"/>
<polygon fill="#59687e" stroke="#59687e" stroke-width="1.3" points="437.47,-50.39 434.67,-42.39 431.87,-50.39 437.47,-50.39"/>
</g>
<!-- Return&#45;&gt;end -->
<g id="edge17" class="edge">
<title>Return&#45;&gt;end</title>
<path fill="none" stroke="#59687e" stroke-width="1.3" d="M457.96,-120C450.82,-120 446.33,-120 446.33,-120 446.33,-120 446.33,-50.39 446.33,-50.39"/>
<polygon fill="#59687e" stroke="#59687e" stroke-width="1.3" points="449.13,-50.39 446.33,-42.39 443.53,-50.39 449.13,-50.39"/>
</g>
</g>
</svg>
