<?xml version="1.0" encoding="UTF-8" standalone="no"?>
<!DOCTYPE svg PUBLIC "-//W3C//DTD SVG 1.1//EN"
 "http://www.w3.org/Graphics/SVG/1.1/DTD/svg11.dtd">
<!-- Generated by graphviz version 15.0.0 (20260523.1842)
 -->
<!-- Title: G Pages: 1 -->
<svg width="935pt" height="1007pt"
 viewBox="9.00 9.00 926.00 999.00" xmlns="http://www.w3.org/2000/svg" xmlns:xlink="http://www.w3.org/1999/xlink">
<g id="graph0" class="graph" transform="scale(1 1) rotate(0) translate(26.64 980.52)">
<title>G</title>
<polygon fill="#ffffff" stroke="none" points="-18,18 -18,-971.88 899.4,-971.88 899.4,18 -18,18"/>
<!-- start -->
<g id="node1" class="node">
<title>start</title>
<ellipse fill="#182033" stroke="#182033" stroke-width="1.4" cx="402.2" cy="-936.6" rx="17.28" ry="17.28"/>
</g>
<!-- Build -->
<g id="node2" class="node">
<title>Build</title>
<path fill="#eaf0ff" stroke="#8292f7" stroke-width="1.4" d="M487.4,-870.32C487.4,-870.32 317,-870.32 317,-870.32 311,-870.32 305,-864.32 305,-858.32 305,-858.32 305,-818.96 305,-818.96 305,-812.96 311,-806.96 317,-806.96 317,-806.96 487.4,-806.96 487.4,-806.96 493.4,-806.96 499.4,-812.96 499.4,-818.96 499.4,-818.96 499.4,-858.32 499.4,-858.32 499.4,-864.32 493.4,-870.32 487.4,-870.32"/>
<text xml:space="preserve" text-anchor="middle" x="402.2" y="-851.24" font-family="Noto Sans CJK KR" font-size="14.00" fill="#182033">EffectContext 준비</text>
<text xml:space="preserve" text-anchor="middle" x="402.2" y="-834.44" font-family="Noto Sans CJK KR" font-size="14.00" fill="#182033">CasterId · InitialTargetId</text>
<text xml:space="preserve" text-anchor="middle" x="402.2" y="-817.64" font-family="Noto Sans CJK KR" font-size="14.00" fill="#182033">Source · RandomSeed</text>
</g>
<!-- start&#45;&gt;Build -->
<g id="edge1" class="edge">
<title>start&#45;&gt;Build</title>
<path fill="none" stroke="#59687e" stroke-width="1.3" d="M402.2,-918.63C402.2,-918.63 402.2,-880.73 402.2,-880.73"/>
<polygon fill="#59687e" stroke="#59687e" stroke-width="1.3" points="405,-880.73 402.2,-872.73 399.4,-880.73 405,-880.73"/>
</g>
<!-- Selector -->
<g id="node3" class="node">
<title>Selector</title>
<path fill="#fff7e6" stroke="#e0ad4e" stroke-width="1.4" d="M390.89,-753.96C390.89,-753.96 332.02,-733.16 332.02,-733.16 326.37,-731.16 326.37,-727.16 332.02,-725.16 332.02,-725.16 390.89,-704.36 390.89,-704.36 396.54,-702.36 407.86,-702.36 413.51,-704.36 413.51,-704.36 472.38,-725.16 472.38,-725.16 478.03,-727.16 478.03,-731.16 472.38,-733.16 472.38,-733.16 413.51,-753.96 413.51,-753.96 407.86,-755.96 396.54,-755.96 390.89,-753.96"/>
<text xml:space="preserve" text-anchor="middle" x="402.2" y="-724.96" font-family="Noto Sans CJK KR" font-size="14.00" fill="#182033">selectorType?</text>
</g>
<!-- Build&#45;&gt;Selector -->
<g id="edge2" class="edge">
<title>Build&#45;&gt;Selector</title>
<path fill="none" stroke="#59687e" stroke-width="1.3" d="M402.2,-806.38C402.2,-806.38 402.2,-768.54 402.2,-768.54"/>
<polygon fill="#59687e" stroke="#59687e" stroke-width="1.3" points="405,-768.54 402.2,-760.54 399.4,-768.54 405,-768.54"/>
</g>
<!-- Self -->
<g id="node4" class="node">
<title>Self</title>
<path fill="#f7f9fc" stroke="#bac7db" stroke-width="1.4" d="M182.4,-635.56C182.4,-635.56 12,-635.56 12,-635.56 6,-635.56 0,-629.56 0,-623.56 0,-623.56 0,-601 0,-601 0,-595 6,-589 12,-589 12,-589 182.4,-589 182.4,-589 188.4,-589 194.4,-595 194.4,-601 194.4,-601 194.4,-623.56 194.4,-623.56 194.4,-629.56 188.4,-635.56 182.4,-635.56"/>
<text xml:space="preserve" text-anchor="middle" x="97.2" y="-616.48" font-family="Noto Sans CJK KR" font-size="14.00" fill="#182033">Self / Owner&#13;</text>
<text xml:space="preserve" text-anchor="middle" x="97.2" y="-599.68" font-family="Noto Sans CJK KR" font-size="14.00" fill="#182033">자기 자신 선택</text>
</g>
<!-- Selector&#45;&gt;Self -->
<g id="edge3" class="edge">
<title>Selector&#45;&gt;Self</title>
<path fill="none" stroke="#59687e" stroke-width="1.3" d="M319.26,-729C228.94,-729 97.2,-729 97.2,-729 97.2,-729 97.2,-646.15 97.2,-646.15"/>
<polygon fill="#59687e" stroke="#59687e" stroke-width="1.3" points="100,-646.15 97.2,-638.15 94.4,-646.15 100,-646.15"/>
<text xml:space="preserve" text-anchor="middle" x="229.48" y="-663.76" font-family="Noto Sans CJK KR" font-size="14.00" fill="#46566e">Self</text>
</g>
<!-- Single -->
<g id="node5" class="node">
<title>Single</title>
<path fill="#f7f9fc" stroke="#bac7db" stroke-width="1.4" d="M411.4,-635.56C411.4,-635.56 241,-635.56 241,-635.56 235,-635.56 229,-629.56 229,-623.56 229,-623.56 229,-601 229,-601 229,-595 235,-589 241,-589 241,-589 411.4,-589 411.4,-589 417.4,-589 423.4,-595 423.4,-601 423.4,-601 423.4,-623.56 423.4,-623.56 423.4,-629.56 417.4,-635.56 411.4,-635.56"/>
<text xml:space="preserve" text-anchor="middle" x="326.2" y="-616.48" font-family="Noto Sans CJK KR" font-size="14.00" fill="#182033">Single Target&#13;</text>
<text xml:space="preserve" text-anchor="middle" x="326.2" y="-599.68" font-family="Noto Sans CJK KR" font-size="14.00" fill="#182033">명시 대상 검증</text>
</g>
<!-- Selector&#45;&gt;Single -->
<g id="edge4" class="edge">
<title>Selector&#45;&gt;Single</title>
<path fill="none" stroke="#59687e" stroke-width="1.3" d="M372.05,-710.38C372.05,-710.38 372.05,-645.82 372.05,-645.82"/>
<polygon fill="#59687e" stroke="#59687e" stroke-width="1.3" points="374.86,-645.82 372.05,-637.82 369.26,-645.82 374.86,-645.82"/>
<text xml:space="preserve" text-anchor="middle" x="382.09" y="-663.76" font-family="Noto Sans CJK KR" font-size="14.00" fill="#46566e">Single</text>
</g>
<!-- Area -->
<g id="node6" class="node">
<title>Area</title>
<path fill="#f7f9fc" stroke="#bac7db" stroke-width="1.4" d="M640.4,-635.56C640.4,-635.56 470,-635.56 470,-635.56 464,-635.56 458,-629.56 458,-623.56 458,-623.56 458,-601 458,-601 458,-595 464,-589 470,-589 470,-589 640.4,-589 640.4,-589 646.4,-589 652.4,-595 652.4,-601 652.4,-601 652.4,-623.56 652.4,-623.56 652.4,-629.56 646.4,-635.56 640.4,-635.56"/>
<text xml:space="preserve" text-anchor="middle" x="555.2" y="-616.48" font-family="Noto Sans CJK KR" font-size="14.00" fill="#182033">Area / Cone / Line&#13;</text>
<text xml:space="preserve" text-anchor="middle" x="555.2" y="-599.68" font-family="Noto Sans CJK KR" font-size="14.00" fill="#182033">공간 후보 수집</text>
</g>
<!-- Selector&#45;&gt;Area -->
<g id="edge5" class="edge">
<title>Selector&#45;&gt;Area</title>
<path fill="none" stroke="#59687e" stroke-width="1.3" d="M470.85,-724.14C470.85,-724.14 470.85,-646.11 470.85,-646.11"/>
<polygon fill="#59687e" stroke="#59687e" stroke-width="1.3" points="473.65,-646.11 470.85,-638.11 468.05,-646.11 473.65,-646.11"/>
<text xml:space="preserve" text-anchor="middle" x="529.8" y="-663.76" font-family="Noto Sans CJK KR" font-size="14.00" fill="#46566e">Area</text>
</g>
<!-- Chain -->
<g id="node7" class="node">
<title>Chain</title>
<path fill="#f7f9fc" stroke="#bac7db" stroke-width="1.4" d="M869.4,-635.56C869.4,-635.56 699,-635.56 699,-635.56 693,-635.56 687,-629.56 687,-623.56 687,-623.56 687,-601 687,-601 687,-595 693,-589 699,-589 699,-589 869.4,-589 869.4,-589 875.4,-589 881.4,-595 881.4,-601 881.4,-601 881.4,-623.56 881.4,-623.56 881.4,-629.56 875.4,-635.56 869.4,-635.56"/>
<text xml:space="preserve" text-anchor="middle" x="784.2" y="-616.48" font-family="Noto Sans CJK KR" font-size="14.00" fill="#182033">Chain / Random&#13;</text>
<text xml:space="preserve" text-anchor="middle" x="784.2" y="-599.68" font-family="Noto Sans CJK KR" font-size="14.00" fill="#182033">반복 선택·중복 정책</text>
</g>
<!-- Selector&#45;&gt;Chain -->
<g id="edge6" class="edge">
<title>Selector&#45;&gt;Chain</title>
<path fill="none" stroke="#59687e" stroke-width="1.3" d="M485.09,-729C597.44,-729 784.2,-729 784.2,-729 784.2,-729 784.2,-646.15 784.2,-646.15"/>
<polygon fill="#59687e" stroke="#59687e" stroke-width="1.3" points="787,-646.15 784.2,-638.15 781.4,-646.15 787,-646.15"/>
<text xml:space="preserve" text-anchor="middle" x="718.92" y="-663.76" font-family="Noto Sans CJK KR" font-size="14.00" fill="#46566e">Chain</text>
</g>
<!-- Candidate -->
<g id="node8" class="node">
<title>Candidate</title>
<path fill="#eaf0ff" stroke="#8292f7" stroke-width="1.4" d="M525.4,-540C525.4,-540 355,-540 355,-540 349,-540 343,-534 343,-528 343,-528 343,-505.44 343,-505.44 343,-499.44 349,-493.44 355,-493.44 355,-493.44 525.4,-493.44 525.4,-493.44 531.4,-493.44 537.4,-499.44 537.4,-505.44 537.4,-505.44 537.4,-528 537.4,-528 537.4,-534 531.4,-540 525.4,-540"/>
<text xml:space="preserve" text-anchor="middle" x="440.2" y="-520.92" font-family="Noto Sans CJK KR" font-size="14.00" fill="#182033">CandidateSet 생성&#13;</text>
<text xml:space="preserve" text-anchor="middle" x="440.2" y="-504.12" font-family="Noto Sans CJK KR" font-size="14.00" fill="#182033">거리·팀·시야·충돌 기준</text>
</g>
<!-- Self&#45;&gt;Candidate -->
<g id="edge7" class="edge">
<title>Self&#45;&gt;Candidate</title>
<path fill="none" stroke="#59687e" stroke-width="1.3" d="M97.2,-588.73C97.2,-560.51 97.2,-517 97.2,-517 97.2,-517 332.4,-517 332.4,-517"/>
<polygon fill="#59687e" stroke="#59687e" stroke-width="1.3" points="332.4,-519.8 340.4,-517 332.4,-514.2 332.4,-519.8"/>
</g>
<!-- Single&#45;&gt;Candidate -->
<g id="edge8" class="edge">
<title>Single&#45;&gt;Candidate</title>
<path fill="none" stroke="#59687e" stroke-width="1.3" d="M383.2,-588.66C383.2,-588.66 383.2,-550.37 383.2,-550.37"/>
<polygon fill="#59687e" stroke="#59687e" stroke-width="1.3" points="386,-550.37 383.2,-542.37 380.4,-550.37 386,-550.37"/>
</g>
<!-- Area&#45;&gt;Candidate -->
<g id="edge9" class="edge">
<title>Area&#45;&gt;Candidate</title>
<path fill="none" stroke="#59687e" stroke-width="1.3" d="M497.7,-588.66C497.7,-588.66 497.7,-550.37 497.7,-550.37"/>
<polygon fill="#59687e" stroke="#59687e" stroke-width="1.3" points="500.5,-550.37 497.7,-542.37 494.9,-550.37 500.5,-550.37"/>
</g>
<!-- Chain&#45;&gt;Candidate -->
<g id="edge10" class="edge">
<title>Chain&#45;&gt;Candidate</title>
<path fill="none" stroke="#59687e" stroke-width="1.3" d="M784.2,-588.73C784.2,-560.51 784.2,-517 784.2,-517 784.2,-517 547.82,-517 547.82,-517"/>
<polygon fill="#59687e" stroke="#59687e" stroke-width="1.3" points="547.82,-514.2 539.82,-517 547.82,-519.8 547.82,-514.2"/>
</g>
<!-- Filter -->
<g id="node9" class="node">
<title>Filter</title>
<path fill="#f3eefc" stroke="#ab8fe0" stroke-width="1.4" d="M525.4,-444.44C525.4,-444.44 355,-444.44 355,-444.44 349,-444.44 343,-438.44 343,-432.44 343,-432.44 343,-409.88 343,-409.88 343,-403.88 349,-397.88 355,-397.88 355,-397.88 525.4,-397.88 525.4,-397.88 531.4,-397.88 537.4,-403.88 537.4,-409.88 537.4,-409.88 537.4,-432.44 537.4,-432.44 537.4,-438.44 531.4,-444.44 525.4,-444.44"/>
<text xml:space="preserve" text-anchor="middle" x="440.2" y="-425.36" font-family="Noto Sans CJK KR" font-size="14.00" fill="#182033">TargetCondition 필터&#13;</text>
<text xml:space="preserve" text-anchor="middle" x="440.2" y="-408.56" font-family="Noto Sans CJK KR" font-size="14.00" fill="#182033">alive, enemy, boss, status, tag</text>
</g>
<!-- Candidate&#45;&gt;Filter -->
<g id="edge11" class="edge">
<title>Candidate&#45;&gt;Filter</title>
<path fill="none" stroke="#59687e" stroke-width="1.3" d="M440.2,-493.1C440.2,-493.1 440.2,-454.81 440.2,-454.81"/>
<polygon fill="#59687e" stroke="#59687e" stroke-width="1.3" points="443,-454.81 440.2,-446.81 437.4,-454.81 443,-454.81"/>
</g>
<!-- SortLimit -->
<g id="node10" class="node">
<title>SortLimit</title>
<path fill="#f3eefc" stroke="#ab8fe0" stroke-width="1.4" d="M525.4,-348.88C525.4,-348.88 355,-348.88 355,-348.88 349,-348.88 343,-342.88 343,-336.88 343,-336.88 343,-314.32 343,-314.32 343,-308.32 349,-302.32 355,-302.32 355,-302.32 525.4,-302.32 525.4,-302.32 531.4,-302.32 537.4,-308.32 537.4,-314.32 537.4,-314.32 537.4,-336.88 537.4,-336.88 537.4,-342.88 531.4,-348.88 525.4,-348.88"/>
<text xml:space="preserve" text-anchor="middle" x="440.2" y="-329.8" font-family="Noto Sans CJK KR" font-size="14.00" fill="#182033">정렬/제한&#13;</text>
<text xml:space="preserve" text-anchor="middle" x="440.2" y="-313" font-family="Noto Sans CJK KR" font-size="14.00" fill="#182033">nearest, lowestHP, maxTargets</text>
</g>
<!-- Filter&#45;&gt;SortLimit -->
<g id="edge12" class="edge">
<title>Filter&#45;&gt;SortLimit</title>
<path fill="none" stroke="#59687e" stroke-width="1.3" d="M440.2,-397.54C440.2,-397.54 440.2,-359.25 440.2,-359.25"/>
<polygon fill="#59687e" stroke="#59687e" stroke-width="1.3" points="443,-359.25 440.2,-351.25 437.4,-359.25 443,-359.25"/>
</g>
<!-- Empty -->
<g id="node11" class="node">
<title>Empty</title>
<path fill="#fff7e6" stroke="#e0ad4e" stroke-width="1.4" d="M429.33,-248.23C429.33,-248.23 397.3,-233.21 397.3,-233.21 391.87,-230.67 391.87,-225.57 397.3,-223.03 397.3,-223.03 429.33,-208.01 429.33,-208.01 434.77,-205.47 445.63,-205.47 451.07,-208.01 451.07,-208.01 483.1,-223.03 483.1,-223.03 488.53,-225.57 488.53,-230.67 483.1,-233.21 483.1,-233.21 451.07,-248.23 451.07,-248.23 445.63,-250.77 434.77,-250.77 429.33,-248.23"/>
<text xml:space="preserve" text-anchor="middle" x="440.2" y="-223.92" font-family="Noto Sans CJK KR" font-size="14.00" fill="#182033">empty?</text>
</g>
<!-- SortLimit&#45;&gt;Empty -->
<g id="edge13" class="edge">
<title>SortLimit&#45;&gt;Empty</title>
<path fill="none" stroke="#59687e" stroke-width="1.3" d="M440.2,-302C440.2,-302 440.2,-263.86 440.2,-263.86"/>
<polygon fill="#59687e" stroke="#59687e" stroke-width="1.3" points="443,-263.86 440.2,-255.86 437.4,-263.86 443,-263.86"/>
</g>
<!-- Fail -->
<g id="node12" class="node">
<title>Fail</title>
<path fill="#fff0f3" stroke="#e07b91" stroke-width="1.4" d="M411.4,-138.12C411.4,-138.12 241,-138.12 241,-138.12 235,-138.12 229,-132.12 229,-126.12 229,-126.12 229,-103.56 229,-103.56 229,-97.56 235,-91.56 241,-91.56 241,-91.56 411.4,-91.56 411.4,-91.56 417.4,-91.56 423.4,-97.56 423.4,-103.56 423.4,-103.56 423.4,-126.12 423.4,-126.12 423.4,-132.12 417.4,-138.12 411.4,-138.12"/>
<text xml:space="preserve" text-anchor="middle" x="326.2" y="-119.04" font-family="Noto Sans CJK KR" font-size="14.00" fill="#182033">NoValidTarget&#13;</text>
<text xml:space="preserve" text-anchor="middle" x="326.2" y="-102.24" font-family="Noto Sans CJK KR" font-size="14.00" fill="#182033">실패 또는 skip</text>
</g>
<!-- Empty&#45;&gt;Fail -->
<g id="edge14" class="edge">
<title>Empty&#45;&gt;Fail</title>
<path fill="none" stroke="#59687e" stroke-width="1.3" d="M404.92,-218.85C404.92,-218.85 404.92,-148.74 404.92,-148.74"/>
<polygon fill="#59687e" stroke="#59687e" stroke-width="1.3" points="407.72,-148.74 404.92,-140.74 402.12,-148.74 407.72,-148.74"/>
<text xml:space="preserve" text-anchor="middle" x="420.53" y="-166.32" font-family="Noto Sans CJK KR" font-size="14.00" fill="#46566e">yes</text>
</g>
<!-- Return -->
<g id="node13" class="node">
<title>Return</title>
<path fill="#eefbf6" stroke="#61b99a" stroke-width="1.4" d="M640.4,-138.12C640.4,-138.12 470,-138.12 470,-138.12 464,-138.12 458,-132.12 458,-126.12 458,-126.12 458,-103.56 458,-103.56 458,-97.56 464,-91.56 470,-91.56 470,-91.56 640.4,-91.56 640.4,-91.56 646.4,-91.56 652.4,-97.56 652.4,-103.56 652.4,-103.56 652.4,-126.12 652.4,-126.12 652.4,-132.12 646.4,-138.12 640.4,-138.12"/>
<text xml:space="preserve" text-anchor="middle" x="555.2" y="-119.04" font-family="Noto Sans CJK KR" font-size="14.00" fill="#182033">TargetSet 반환&#13;</text>
<text xml:space="preserve" text-anchor="middle" x="555.2" y="-102.24" font-family="Noto Sans CJK KR" font-size="14.00" fill="#182033">child context 생성</text>
</g>
<!-- Empty&#45;&gt;Return -->
<g id="edge15" class="edge">
<title>Empty&#45;&gt;Return</title>
<path fill="none" stroke="#59687e" stroke-width="1.3" d="M475.98,-219.23C475.98,-219.23 475.98,-148.48 475.98,-148.48"/>
<polygon fill="#59687e" stroke="#59687e" stroke-width="1.3" points="478.78,-148.48 475.98,-140.48 473.18,-148.48 478.78,-148.48"/>
<text xml:space="preserve" text-anchor="middle" x="519.2" y="-166.32" font-family="Noto Sans CJK KR" font-size="14.00" fill="#46566e">no</text>
</g>
<!-- end -->
<g id="node14" class="node">
<title>end</title>
<ellipse fill="#ffffff" stroke="#182033" stroke-width="1.4" cx="440.2" cy="-21.28" rx="17.28" ry="17.28"/>
<ellipse fill="none" stroke="#182033" stroke-width="1.4" cx="440.2" cy="-21.28" rx="21.28" ry="21.28"/>
</g>
<!-- Fail&#45;&gt;end -->
<g id="edge16" class="edge">
<title>Fail&#45;&gt;end</title>
<path fill="none" stroke="#59687e" stroke-width="1.3" d="M423.71,-107C430.62,-107 434.93,-107 434.93,-107 434.93,-107 434.93,-52.44 434.93,-52.44"/>
<polygon fill="#59687e" stroke="#59687e" stroke-width="1.3" points="437.73,-52.44 434.93,-44.44 432.13,-52.44 437.73,-52.44"/>
</g>
<!-- Return&#45;&gt;end -->
<g id="edge17" class="edge">
<title>Return&#45;&gt;end</title>
<path fill="none" stroke="#59687e" stroke-width="1.3" d="M457.69,-123C450.78,-123 446.47,-123 446.47,-123 446.47,-123 446.47,-51.83 446.47,-51.83"/>
<polygon fill="#59687e" stroke="#59687e" stroke-width="1.3" points="449.27,-51.83 446.47,-43.83 443.67,-51.83 449.27,-51.83"/>
</g>
</g>
</svg>
