<?xml version="1.0" encoding="UTF-8" standalone="no"?>
<!DOCTYPE svg PUBLIC "-//W3C//DTD SVG 1.1//EN"
 "http://www.w3.org/Graphics/SVG/1.1/DTD/svg11.dtd">
<!-- Generated by graphviz version 2.42.4 (0)
 -->
<!-- Title: G Pages: 1 -->
<svg width="1579pt" height="571pt"
 viewBox="8.64 8.64 1570.64 562.14" xmlns="http://www.w3.org/2000/svg" xmlns:xlink="http://www.w3.org/1999/xlink">
<g id="graph0" class="graph" transform="scale(1 1) rotate(0) translate(26.64 544.14)">
<title>G</title>
<polygon fill="#ffffff" stroke="transparent" points="-18,18 -18,-535.5 1544,-535.5 1544,18 -18,18"/>
<!-- EffectDefinitionData -->
<g id="node1" class="node">
<title>EffectDefinitionData</title>
<path fill="#fff7e6" stroke="#e0ad4e" stroke-width="1.4" d="M885,-146C885,-146 1176,-146 1176,-146 1182,-146 1188,-152 1188,-158 1188,-158 1188,-251 1188,-251 1188,-257 1182,-263 1176,-263 1176,-263 885,-263 885,-263 879,-263 873,-257 873,-251 873,-251 873,-158 873,-158 873,-152 879,-146 885,-146"/>
<text text-anchor="middle" x="948.5" y="-200.8" font-family="Noto Sans CJK KR" font-size="14.00" fill="#182033">EffectDefinitionData</text>
<polyline fill="none" stroke="#e0ad4e" stroke-width="1.4" points="1024,-146 1024,-263 "/>
<text text-anchor="start" x="1034" y="-245.8" font-family="Noto Sans CJK KR" font-size="14.00" fill="#182033">effectId PK</text>
<text text-anchor="start" x="1034" y="-230.8" font-family="Noto Sans CJK KR" font-size="14.00" fill="#182033">type</text>
<text text-anchor="start" x="1034" y="-215.8" font-family="Noto Sans CJK KR" font-size="14.00" fill="#182033">targetSelectorId FK</text>
<text text-anchor="start" x="1034" y="-200.8" font-family="Noto Sans CJK KR" font-size="14.00" fill="#182033">valueExpressionId FK?</text>
<text text-anchor="start" x="1034" y="-185.8" font-family="Noto Sans CJK KR" font-size="14.00" fill="#182033">conditionIds[]</text>
<text text-anchor="start" x="1034" y="-170.8" font-family="Noto Sans CJK KR" font-size="14.00" fill="#182033">executorKey</text>
<text text-anchor="start" x="1034" y="-155.8" font-family="Noto Sans CJK KR" font-size="14.00" fill="#182033">tags[]</text>
</g>
<!-- TargetSelectorData -->
<g id="node3" class="node">
<title>TargetSelectorData</title>
<path fill="#fff7e6" stroke="#e0ad4e" stroke-width="1.4" d="M1249,-292C1249,-292 1514,-292 1514,-292 1520,-292 1526,-298 1526,-304 1526,-304 1526,-367 1526,-367 1526,-373 1520,-379 1514,-379 1514,-379 1249,-379 1249,-379 1243,-379 1237,-373 1237,-367 1237,-367 1237,-304 1237,-304 1237,-298 1243,-292 1249,-292"/>
<text text-anchor="middle" x="1309.5" y="-331.8" font-family="Noto Sans CJK KR" font-size="14.00" fill="#182033">TargetSelectorData</text>
<polyline fill="none" stroke="#e0ad4e" stroke-width="1.4" points="1382,-292 1382,-379 "/>
<text text-anchor="start" x="1392" y="-361.8" font-family="Noto Sans CJK KR" font-size="14.00" fill="#182033">selectorId PK</text>
<text text-anchor="start" x="1392" y="-346.8" font-family="Noto Sans CJK KR" font-size="14.00" fill="#182033">selectorType</text>
<text text-anchor="start" x="1392" y="-331.8" font-family="Noto Sans CJK KR" font-size="14.00" fill="#182033">shape/range/angle</text>
<text text-anchor="start" x="1392" y="-316.8" font-family="Noto Sans CJK KR" font-size="14.00" fill="#182033">limit</text>
<text text-anchor="start" x="1392" y="-301.8" font-family="Noto Sans CJK KR" font-size="14.00" fill="#182033">filterIds[]</text>
</g>
<!-- EffectDefinitionData&#45;&gt;TargetSelectorData -->
<g id="edge2" class="edge">
<title>EffectDefinitionData&#45;&gt;TargetSelectorData</title>
<path fill="none" stroke="#59687e" stroke-width="1.3" d="M1188.08,-259.75C1218.96,-259.75 1242,-259.75 1242,-259.75 1242,-259.75 1242,-283.87 1242,-283.87"/>
<polygon fill="#59687e" stroke="#59687e" stroke-width="1.3" points="1239.2,-283.87 1242,-291.87 1244.8,-283.87 1239.2,-283.87"/>
</g>
<!-- ValueExpressionData -->
<g id="node4" class="node">
<title>ValueExpressionData</title>
<path fill="#fff7e6" stroke="#e0ad4e" stroke-width="1.4" d="M1258.5,-153.5C1258.5,-153.5 1504.5,-153.5 1504.5,-153.5 1510.5,-153.5 1516.5,-159.5 1516.5,-165.5 1516.5,-165.5 1516.5,-243.5 1516.5,-243.5 1516.5,-249.5 1510.5,-255.5 1504.5,-255.5 1504.5,-255.5 1258.5,-255.5 1258.5,-255.5 1252.5,-255.5 1246.5,-249.5 1246.5,-243.5 1246.5,-243.5 1246.5,-165.5 1246.5,-165.5 1246.5,-159.5 1252.5,-153.5 1258.5,-153.5"/>
<text text-anchor="middle" x="1324.5" y="-200.8" font-family="Noto Sans CJK KR" font-size="14.00" fill="#182033">ValueExpressionData</text>
<polyline fill="none" stroke="#e0ad4e" stroke-width="1.4" points="1402.5,-153.5 1402.5,-255.5 "/>
<text text-anchor="start" x="1412.5" y="-238.3" font-family="Noto Sans CJK KR" font-size="14.00" fill="#182033">valueId PK</text>
<text text-anchor="start" x="1412.5" y="-223.3" font-family="Noto Sans CJK KR" font-size="14.00" fill="#182033">baseValue</text>
<text text-anchor="start" x="1412.5" y="-208.3" font-family="Noto Sans CJK KR" font-size="14.00" fill="#182033">scalingTerms[]</text>
<text text-anchor="start" x="1412.5" y="-193.3" font-family="Noto Sans CJK KR" font-size="14.00" fill="#182033">statRefs[]</text>
<text text-anchor="start" x="1412.5" y="-178.3" font-family="Noto Sans CJK KR" font-size="14.00" fill="#182033">min/max</text>
<text text-anchor="start" x="1412.5" y="-163.3" font-family="Noto Sans CJK KR" font-size="14.00" fill="#182033">rounding</text>
</g>
<!-- EffectDefinitionData&#45;&gt;ValueExpressionData -->
<g id="edge3" class="edge">
<title>EffectDefinitionData&#45;&gt;ValueExpressionData</title>
<path fill="none" stroke="#59687e" stroke-width="1.3" d="M1188.03,-204.5C1188.03,-204.5 1238.45,-204.5 1238.45,-204.5"/>
<polygon fill="#59687e" stroke="#59687e" stroke-width="1.3" points="1238.45,-207.3 1246.45,-204.5 1238.45,-201.7 1238.45,-207.3"/>
</g>
<!-- EffectConditionData -->
<g id="node5" class="node">
<title>EffectConditionData</title>
<path fill="#fff7e6" stroke="#e0ad4e" stroke-width="1.4" d="M1259.5,-45.5C1259.5,-45.5 1503.5,-45.5 1503.5,-45.5 1509.5,-45.5 1515.5,-51.5 1515.5,-57.5 1515.5,-57.5 1515.5,-105.5 1515.5,-105.5 1515.5,-111.5 1509.5,-117.5 1503.5,-117.5 1503.5,-117.5 1259.5,-117.5 1259.5,-117.5 1253.5,-117.5 1247.5,-111.5 1247.5,-105.5 1247.5,-105.5 1247.5,-57.5 1247.5,-57.5 1247.5,-51.5 1253.5,-45.5 1259.5,-45.5"/>
<text text-anchor="middle" x="1323.5" y="-77.8" font-family="Noto Sans CJK KR" font-size="14.00" fill="#182033">EffectConditionData</text>
<polyline fill="none" stroke="#e0ad4e" stroke-width="1.4" points="1399.5,-45.5 1399.5,-117.5 "/>
<text text-anchor="start" x="1409.5" y="-100.3" font-family="Noto Sans CJK KR" font-size="14.00" fill="#182033">conditionId PK</text>
<text text-anchor="start" x="1409.5" y="-85.3" font-family="Noto Sans CJK KR" font-size="14.00" fill="#182033">conditionType</text>
<text text-anchor="start" x="1409.5" y="-70.3" font-family="Noto Sans CJK KR" font-size="14.00" fill="#182033">params</text>
<text text-anchor="start" x="1409.5" y="-55.3" font-family="Noto Sans CJK KR" font-size="14.00" fill="#182033">failurePolicy</text>
</g>
<!-- EffectDefinitionData&#45;&gt;EffectConditionData -->
<g id="edge4" class="edge">
<title>EffectDefinitionData&#45;&gt;EffectConditionData</title>
<path fill="none" stroke="#59687e" stroke-width="1.3" d="M1188,-149.25C1281.52,-149.25 1382,-149.25 1382,-149.25 1382,-149.25 1382,-125.76 1382,-125.76"/>
<polygon fill="#59687e" stroke="#59687e" stroke-width="1.3" points="1384.8,-125.76 1382,-117.76 1379.2,-125.76 1384.8,-125.76"/>
</g>
<!-- EffectBundleData -->
<g id="node2" class="node">
<title>EffectBundleData</title>
<path fill="#fff7e6" stroke="#e0ad4e" stroke-width="1.4" d="M508.5,-307C508.5,-307 738.5,-307 738.5,-307 744.5,-307 750.5,-313 750.5,-319 750.5,-319 750.5,-382 750.5,-382 750.5,-388 744.5,-394 738.5,-394 738.5,-394 508.5,-394 508.5,-394 502.5,-394 496.5,-388 496.5,-382 496.5,-382 496.5,-319 496.5,-319 496.5,-313 502.5,-307 508.5,-307"/>
<text text-anchor="middle" x="563.5" y="-346.8" font-family="Noto Sans CJK KR" font-size="14.00" fill="#182033">EffectBundleData</text>
<polyline fill="none" stroke="#e0ad4e" stroke-width="1.4" points="630.5,-307 630.5,-394 "/>
<text text-anchor="start" x="640.5" y="-376.8" font-family="Noto Sans CJK KR" font-size="14.00" fill="#182033">bundleId PK</text>
<text text-anchor="start" x="640.5" y="-361.8" font-family="Noto Sans CJK KR" font-size="14.00" fill="#182033">effectIds[]</text>
<text text-anchor="start" x="640.5" y="-346.8" font-family="Noto Sans CJK KR" font-size="14.00" fill="#182033">executionMode</text>
<text text-anchor="start" x="640.5" y="-331.8" font-family="Noto Sans CJK KR" font-size="14.00" fill="#182033">stopPolicy</text>
<text text-anchor="start" x="640.5" y="-316.8" font-family="Noto Sans CJK KR" font-size="14.00" fill="#182033">rollbackPolicy</text>
</g>
<!-- EffectBundleData&#45;&gt;EffectDefinitionData -->
<g id="edge1" class="edge">
<title>EffectBundleData&#45;&gt;EffectDefinitionData</title>
<path fill="none" stroke="#59687e" stroke-width="1.3" d="M750.76,-343C870.32,-343 1031,-343 1031,-343 1031,-343 1031,-271.24 1031,-271.24"/>
<polygon fill="#59687e" stroke="#59687e" stroke-width="1.3" points="1033.8,-271.24 1031,-263.24 1028.2,-271.24 1033.8,-271.24"/>
<text text-anchor="middle" x="821" y="-308.3" font-family="Noto Sans CJK KR" font-size="14.00" fill="#46566e">contains</text>
</g>
<!-- SkillDefinitionData -->
<g id="node6" class="node">
<title>SkillDefinitionData</title>
<path fill="#eaf0ff" stroke="#8292f7" stroke-width="1.4" d="M33,-430C33,-430 285,-430 285,-430 291,-430 297,-436 297,-442 297,-442 297,-505 297,-505 297,-511 291,-517 285,-517 285,-517 33,-517 33,-517 27,-517 21,-511 21,-505 21,-505 21,-442 21,-442 21,-436 27,-430 33,-430"/>
<text text-anchor="middle" x="91.5" y="-469.8" font-family="Noto Sans CJK KR" font-size="14.00" fill="#182033">SkillDefinitionData</text>
<polyline fill="none" stroke="#8292f7" stroke-width="1.4" points="162,-430 162,-517 "/>
<text text-anchor="start" x="172" y="-499.8" font-family="Noto Sans CJK KR" font-size="14.00" fill="#182033">skillId PK</text>
<text text-anchor="start" x="172" y="-484.8" font-family="Noto Sans CJK KR" font-size="14.00" fill="#182033">effectBundleId FK</text>
<text text-anchor="start" x="172" y="-469.8" font-family="Noto Sans CJK KR" font-size="14.00" fill="#182033">costs[]</text>
<text text-anchor="start" x="172" y="-454.8" font-family="Noto Sans CJK KR" font-size="14.00" fill="#182033">targeting</text>
<text text-anchor="start" x="172" y="-439.8" font-family="Noto Sans CJK KR" font-size="14.00" fill="#182033">timeline</text>
</g>
<!-- SkillDefinitionData&#45;&gt;EffectBundleData -->
<g id="edge5" class="edge">
<title>SkillDefinitionData&#45;&gt;EffectBundleData</title>
<path fill="none" stroke="#59687e" stroke-width="1.3" d="M297.26,-473.5C434.33,-473.5 624,-473.5 624,-473.5 624,-473.5 624,-402.21 624,-402.21"/>
<polygon fill="#59687e" stroke="#59687e" stroke-width="1.3" points="626.8,-402.21 624,-394.21 621.2,-402.21 626.8,-402.21"/>
<text text-anchor="middle" x="398" y="-477.3" font-family="Noto Sans CJK KR" font-size="14.00" fill="#46566e">cast</text>
</g>
<!-- StatusDefinitionData -->
<g id="node7" class="node">
<title>StatusDefinitionData</title>
<path fill="#eaf0ff" stroke="#8292f7" stroke-width="1.4" d="M12,-307C12,-307 306,-307 306,-307 312,-307 318,-313 318,-319 318,-319 318,-382 318,-382 318,-388 312,-394 306,-394 306,-394 12,-394 12,-394 6,-394 0,-388 0,-382 0,-382 0,-319 0,-319 0,-313 6,-307 12,-307"/>
<text text-anchor="middle" x="78" y="-346.8" font-family="Noto Sans CJK KR" font-size="14.00" fill="#182033">StatusDefinitionData</text>
<polyline fill="none" stroke="#8292f7" stroke-width="1.4" points="156,-307 156,-394 "/>
<text text-anchor="start" x="166" y="-376.8" font-family="Noto Sans CJK KR" font-size="14.00" fill="#182033">statusId PK</text>
<text text-anchor="start" x="166" y="-361.8" font-family="Noto Sans CJK KR" font-size="14.00" fill="#182033">onApplyBundleId FK?</text>
<text text-anchor="start" x="166" y="-346.8" font-family="Noto Sans CJK KR" font-size="14.00" fill="#182033">modifiers[]</text>
<text text-anchor="start" x="166" y="-331.8" font-family="Noto Sans CJK KR" font-size="14.00" fill="#182033">tickBundleId FK?</text>
<text text-anchor="start" x="166" y="-316.8" font-family="Noto Sans CJK KR" font-size="14.00" fill="#182033">onExpireBundleId FK?</text>
</g>
<!-- StatusDefinitionData&#45;&gt;EffectBundleData -->
<g id="edge6" class="edge">
<title>StatusDefinitionData&#45;&gt;EffectBundleData</title>
<path fill="none" stroke="#59687e" stroke-width="1.3" d="M318.2,-365.17C318.2,-365.17 488.36,-365.17 488.36,-365.17"/>
<polygon fill="#59687e" stroke="#59687e" stroke-width="1.3" points="488.36,-367.97 496.36,-365.17 488.36,-362.37 488.36,-367.97"/>
<text text-anchor="middle" x="398" y="-354.3" font-family="Noto Sans CJK KR" font-size="14.00" fill="#46566e">apply/tick/expire</text>
</g>
<!-- EventReactionData -->
<g id="node8" class="node">
<title>EventReactionData</title>
<path fill="#eaf0ff" stroke="#8292f7" stroke-width="1.4" d="M31,-184C31,-184 287,-184 287,-184 293,-184 299,-190 299,-196 299,-196 299,-259 299,-259 299,-265 293,-271 287,-271 287,-271 31,-271 31,-271 25,-271 19,-265 19,-259 19,-259 19,-196 19,-196 19,-190 25,-184 31,-184"/>
<text text-anchor="middle" x="91.5" y="-223.8" font-family="Noto Sans CJK KR" font-size="14.00" fill="#182033">EventReactionData</text>
<polyline fill="none" stroke="#8292f7" stroke-width="1.4" points="164,-184 164,-271 "/>
<text text-anchor="start" x="174" y="-253.8" font-family="Noto Sans CJK KR" font-size="14.00" fill="#182033">reactionId PK</text>
<text text-anchor="start" x="174" y="-238.8" font-family="Noto Sans CJK KR" font-size="14.00" fill="#182033">triggerEvent</text>
<text text-anchor="start" x="174" y="-223.8" font-family="Noto Sans CJK KR" font-size="14.00" fill="#182033">conditionIds[]</text>
<text text-anchor="start" x="174" y="-208.8" font-family="Noto Sans CJK KR" font-size="14.00" fill="#182033">effectBundleId FK</text>
<text text-anchor="start" x="174" y="-193.8" font-family="Noto Sans CJK KR" font-size="14.00" fill="#182033">priority</text>
</g>
<!-- EventReactionData&#45;&gt;EffectBundleData -->
<g id="edge7" class="edge">
<title>EventReactionData&#45;&gt;EffectBundleData</title>
<path fill="none" stroke="#59687e" stroke-width="1.3" d="M299.06,-227.25C351.23,-227.25 398,-227.25 398,-227.25 398,-227.25 398,-335.83 398,-335.83 398,-335.83 488.25,-335.83 488.25,-335.83"/>
<polygon fill="#59687e" stroke="#59687e" stroke-width="1.3" points="488.25,-338.63 496.25,-335.83 488.25,-333.03 488.25,-338.63"/>
<text text-anchor="middle" x="398" y="-231.3" font-family="Noto Sans CJK KR" font-size="14.00" fill="#46566e">trigger</text>
</g>
<!-- EffectExecutionLog -->
<g id="node9" class="node">
<title>EffectExecutionLog</title>
<path fill="#f3eefc" stroke="#ab8fe0" stroke-width="1.4" d="M505,-138.5C505,-138.5 742,-138.5 742,-138.5 748,-138.5 754,-144.5 754,-150.5 754,-150.5 754,-258.5 754,-258.5 754,-264.5 748,-270.5 742,-270.5 742,-270.5 505,-270.5 505,-270.5 499,-270.5 493,-264.5 493,-258.5 493,-258.5 493,-150.5 493,-150.5 493,-144.5 499,-138.5 505,-138.5"/>
<text text-anchor="middle" x="565" y="-200.8" font-family="Noto Sans CJK KR" font-size="14.00" fill="#182033">EffectExecutionLog</text>
<polyline fill="none" stroke="#ab8fe0" stroke-width="1.4" points="637,-138.5 637,-270.5 "/>
<text text-anchor="start" x="647" y="-253.3" font-family="Noto Sans CJK KR" font-size="14.00" fill="#182033">executionId PK</text>
<text text-anchor="start" x="647" y="-238.3" font-family="Noto Sans CJK KR" font-size="14.00" fill="#182033">requestId</text>
<text text-anchor="start" x="647" y="-223.3" font-family="Noto Sans CJK KR" font-size="14.00" fill="#182033">sourceId</text>
<text text-anchor="start" x="647" y="-208.3" font-family="Noto Sans CJK KR" font-size="14.00" fill="#182033">targetIds[]</text>
<text text-anchor="start" x="647" y="-193.3" font-family="Noto Sans CJK KR" font-size="14.00" fill="#182033">effectIds[]</text>
<text text-anchor="start" x="647" y="-178.3" font-family="Noto Sans CJK KR" font-size="14.00" fill="#182033">resultItems[]</text>
<text text-anchor="start" x="647" y="-163.3" font-family="Noto Sans CJK KR" font-size="14.00" fill="#182033">seed</text>
<text text-anchor="start" x="647" y="-148.3" font-family="Noto Sans CJK KR" font-size="14.00" fill="#182033">timestamp</text>
</g>
<!-- EffectExecutionLog&#45;&gt;EffectDefinitionData -->
<g id="edge8" class="edge">
<title>EffectExecutionLog&#45;&gt;EffectDefinitionData</title>
<path fill="none" stroke="#59687e" stroke-width="1.3" d="M754.24,-224.17C754.24,-224.17 864.86,-224.17 864.86,-224.17"/>
<polygon fill="#59687e" stroke="#59687e" stroke-width="1.3" points="864.86,-226.97 872.86,-224.17 864.86,-221.37 864.86,-226.97"/>
<text text-anchor="middle" x="821" y="-208.3" font-family="Noto Sans CJK KR" font-size="14.00" fill="#46566e">records</text>
</g>
<!-- ScheduledEffectState -->
<g id="node10" class="node">
<title>ScheduledEffectState</title>
<path fill="#f3eefc" stroke="#ab8fe0" stroke-width="1.4" d="M490,-0.5C490,-0.5 757,-0.5 757,-0.5 763,-0.5 769,-6.5 769,-12.5 769,-12.5 769,-90.5 769,-90.5 769,-96.5 763,-102.5 757,-102.5 757,-102.5 490,-102.5 490,-102.5 484,-102.5 478,-96.5 478,-90.5 478,-90.5 478,-12.5 478,-12.5 478,-6.5 484,-0.5 490,-0.5"/>
<text text-anchor="middle" x="558" y="-47.8" font-family="Noto Sans CJK KR" font-size="14.00" fill="#182033">ScheduledEffectState</text>
<polyline fill="none" stroke="#ab8fe0" stroke-width="1.4" points="638,-0.5 638,-102.5 "/>
<text text-anchor="start" x="648" y="-85.3" font-family="Noto Sans CJK KR" font-size="14.00" fill="#182033">scheduleId PK</text>
<text text-anchor="start" x="648" y="-70.3" font-family="Noto Sans CJK KR" font-size="14.00" fill="#182033">effectId FK</text>
<text text-anchor="start" x="648" y="-55.3" font-family="Noto Sans CJK KR" font-size="14.00" fill="#182033">sourceId</text>
<text text-anchor="start" x="648" y="-40.3" font-family="Noto Sans CJK KR" font-size="14.00" fill="#182033">remainingTime</text>
<text text-anchor="start" x="648" y="-25.3" font-family="Noto Sans CJK KR" font-size="14.00" fill="#182033">repeatCount</text>
<text text-anchor="start" x="648" y="-10.3" font-family="Noto Sans CJK KR" font-size="14.00" fill="#182033">contextSnapshot</text>
</g>
<!-- ScheduledEffectState&#45;&gt;EffectDefinitionData -->
<g id="edge9" class="edge">
<title>ScheduledEffectState&#45;&gt;EffectDefinitionData</title>
<path fill="none" stroke="#59687e" stroke-width="1.3" d="M762,-102.67C762,-140.27 762,-184.83 762,-184.83 762,-184.83 864.76,-184.83 864.76,-184.83"/>
<polygon fill="#59687e" stroke="#59687e" stroke-width="1.3" points="864.76,-187.63 872.76,-184.83 864.76,-182.03 864.76,-187.63"/>
<text text-anchor="middle" x="821" y="-55.3" font-family="Noto Sans CJK KR" font-size="14.00" fill="#46566e">future</text>
</g>
</g>
</svg>
