<?xml version="1.0" encoding="UTF-8" standalone="no"?>
<!DOCTYPE svg PUBLIC "-//W3C//DTD SVG 1.1//EN"
 "http://www.w3.org/Graphics/SVG/1.1/DTD/svg11.dtd">
<!-- Generated by graphviz version 15.1.0 (20260618.0150)
 -->
<!-- Title: G Pages: 1 -->
<svg width="2372pt" height="863pt"
 viewBox="12.00 12.00 2360.00 852.00" xmlns="http://www.w3.org/2000/svg" xmlns:xlink="http://www.w3.org/1999/xlink">
<g id="graph0" class="graph" transform="scale(1.33333 1.33333) rotate(0) translate(30.24 617.08)">
<title>G</title>
<polygon fill="#ffffff" stroke="none" points="-21.6,21.6 -21.6,-608.44 1740.13,-608.44 1740.13,21.6 -21.6,21.6"/>
<!-- EffectDefinitionData&#45;&gt;TargetSelectorData -->
<g id="edge2" class="edge">
<title>EffectDefinitionData:e&#45;&gt;TargetSelectorData:w</title>
<path fill="none" stroke="#8a6d3b" stroke-width="1.3" d="M1369.71,-248.73C1369.71,-248.73 1423.13,-364.36 1438.58,-397.78"/>
<polygon fill="#8a6d3b" stroke="#8a6d3b" stroke-width="1.3" points="1435.99,-398.86 1441.88,-404.94 1441.07,-396.51 1435.99,-398.86"/>
</g>
<!-- EffectDefinitionData&#45;&gt;ValueExpressionData -->
<g id="edge3" class="edge">
<title>EffectDefinitionData:e&#45;&gt;ValueExpressionData:w</title>
<path fill="none" stroke="#8a6d3b" stroke-width="1.3" d="M1369.71,-248.73C1369.71,-248.73 1418.46,-248.73 1439.79,-248.73"/>
<polygon fill="#8a6d3b" stroke="#8a6d3b" stroke-width="1.3" points="1439.62,-251.53 1447.62,-248.73 1439.62,-245.93 1439.62,-251.53"/>
</g>
<!-- EffectDefinitionData&#45;&gt;EffectConditionData -->
<g id="edge4" class="edge">
<title>EffectDefinitionData:se&#45;&gt;EffectConditionData:w</title>
<path fill="none" stroke="#8a6d3b" stroke-width="1.3" d="M1369.71,-181.88C1369.71,-181.88 1424.72,-126.6 1444.49,-106.73"/>
<polygon fill="#8a6d3b" stroke="#8a6d3b" stroke-width="1.3" points="1446.41,-108.77 1450.07,-101.12 1442.44,-104.82 1446.41,-108.77"/>
</g>
<!-- EffectBundleData&#45;&gt;EffectDefinitionData -->
<g id="edge1" class="edge">
<title>EffectBundleData:e&#45;&gt;EffectDefinitionData:w</title>
<path fill="none" stroke="#8a6d3b" stroke-width="1.3" d="M876.39,-461.73C876.39,-461.73 1034.64,-392.73 1034.64,-392.73 1034.64,-392.73 1060.27,-290.21 1068.28,-258.18"/>
<polygon fill="#8a6d3b" stroke="#8a6d3b" stroke-width="1.3" points="1070.94,-259.08 1070.16,-250.64 1065.51,-257.72 1070.94,-259.08"/>
<text xml:space="preserve" text-anchor="middle" x="973.52" y="-447.76" font-family="Noto Sans KR" font-size="9.00" fill="#46566e">contains effect definitions</text>
</g>
<!-- EffectBundleData&#45;&gt;EventReactionData -->
<g id="edge7" class="edge">
<title>EffectBundleData:ne&#45;&gt;EventReactionData:nw</title>
<path fill="none" stroke="#7257a6" stroke-width="1.3" d="M875.39,-511.34C875.39,-511.34 1034.03,-528.33 1075.54,-532.78"/>
<polygon fill="#7257a6" stroke="#7257a6" stroke-width="1.3" points="1075.18,-535.56 1083.43,-533.63 1075.78,-529.99 1075.18,-535.56"/>
<text xml:space="preserve" text-anchor="middle" x="973.52" y="-530.5" font-family="Noto Sans KR" font-size="9.00" fill="#46566e">defines post&#45;commit reactions</text>
</g>
<!-- SkillDefinitionData&#45;&gt;EffectBundleData -->
<g id="edge5" class="edge">
<title>SkillDefinitionData:e&#45;&gt;EffectBundleData:nw</title>
<path fill="none" stroke="#5b6f8f" stroke-width="1.3" d="M285.45,-536.73C285.45,-536.73 448.3,-517.46 490.29,-512.49"/>
<polygon fill="#5b6f8f" stroke="#5b6f8f" stroke-width="1.3" points="490.5,-515.29 498.12,-511.57 489.84,-509.73 490.5,-515.29"/>
<text xml:space="preserve" text-anchor="middle" x="401.82" y="-532.62" font-family="Noto Sans KR" font-size="9.00" fill="#46566e">skill cast bundle</text>
</g>
<!-- StatusDefinitionData&#45;&gt;EffectBundleData -->
<g id="edge6" class="edge">
<title>StatusDefinitionData:e&#45;&gt;EffectBundleData:sw</title>
<path fill="none" stroke="#5b6f8f" stroke-width="1.3" d="M303.57,-387.73C303.57,-387.73 451.42,-405.99 491.28,-410.92"/>
<polygon fill="#5b6f8f" stroke="#5b6f8f" stroke-width="1.3" points="490.83,-413.68 499.12,-411.88 491.52,-408.12 490.83,-413.68"/>
<text xml:space="preserve" text-anchor="middle" x="401.82" y="-410.16" font-family="Noto Sans KR" font-size="9.00" fill="#46566e">status apply/tick/expire bundles</text>
</g>
<!-- EventReactionData&#45;&gt;EffectBundleData -->
<g id="edge8" class="edge">
<title>EventReactionData:sw&#45;&gt;EffectBundleData:se</title>
<path fill="none" stroke="#7257a6" stroke-width="1.3" stroke-dasharray="5,2" d="M1087.39,-365.62C1087.39,-365.62 912.39,-373.48 912.39,-373.48 912.39,-373.48 893.39,-393.88 882.99,-405.04"/>
<polygon fill="#7257a6" stroke="#7257a6" stroke-width="1.3" points="881.14,-402.92 877.73,-410.69 885.23,-406.74 881.14,-402.92"/>
<text xml:space="preserve" text-anchor="middle" x="973.52" y="-376.18" font-family="Noto Sans KR" font-size="9.00" fill="#46566e">enqueue new Effect command</text>
</g>
<!-- EffectExecutionLog&#45;&gt;EffectDefinitionData -->
<g id="edge9" class="edge">
<title>EffectExecutionLog:e&#45;&gt;EffectDefinitionData:sw</title>
<path fill="none" stroke="#8292a8" stroke-width="1.3" stroke-dasharray="1,5" d="M814.02,-242.73C814.02,-242.73 1015.69,-195.09 1062.17,-184.11"/>
<polygon fill="#8292a8" stroke="#8292a8" stroke-width="1.3" points="1062.58,-186.89 1069.73,-182.33 1061.3,-181.44 1062.58,-186.89"/>
<text xml:space="preserve" text-anchor="middle" x="973.52" y="-220.45" font-family="Noto Sans KR" font-size="9.00" fill="#46566e">records execution evidence</text>
</g>
<!-- ScheduledEffectState&#45;&gt;EffectDefinitionData -->
<g id="edge10" class="edge">
<title>ScheduledEffectState:e&#45;&gt;EffectDefinitionData:s</title>
<path fill="none" stroke="#8292a8" stroke-width="1.3" stroke-dasharray="5,2" d="M827.89,-58.73C827.89,-58.73 1151.46,-159.48 1210.86,-177.98"/>
<polygon fill="#8292a8" stroke="#8292a8" stroke-width="1.3" points="1209.83,-180.59 1218.3,-180.29 1211.49,-175.24 1209.83,-180.59"/>
<text xml:space="preserve" text-anchor="middle" x="973.52" y="-122.5" font-family="Noto Sans KR" font-size="9.00" fill="#46566e">resolves scheduled definition</text>
</g>
<!-- EffectDefinitionData -->
<g id="node1" class="node">
<title>EffectDefinitionData</title>
<path fill="#fff7e6" stroke="#e0ad4e" stroke-width="1.4" d="M1082.64,-181.88C1082.64,-181.88 1357.71,-181.88 1357.71,-181.88 1363.71,-181.88 1369.71,-187.88 1369.71,-193.88 1369.71,-193.88 1369.71,-303.58 1369.71,-303.58 1369.71,-309.58 1363.71,-315.58 1357.71,-315.58 1357.71,-315.58 1082.64,-315.58 1082.64,-315.58 1076.64,-315.58 1070.64,-309.58 1070.64,-303.58 1070.64,-303.58 1070.64,-193.88 1070.64,-193.88 1070.64,-187.88 1076.64,-181.88 1082.64,-181.88"/>
<text xml:space="preserve" text-anchor="middle" x="1142.22" y="-244.06" font-family="Noto Sans KR" font-size="14.00" fill="#182033">EffectDefinitionData</text>
<polyline fill="none" stroke="#e0ad4e" stroke-width="1.4" points="1213.8,-181.88 1213.8,-315.58"/>
<text xml:space="preserve" text-anchor="start" x="1223.88" y="-295.81" font-family="Noto Sans KR" font-size="14.00" fill="#182033">effectId PK</text>
<text xml:space="preserve" text-anchor="start" x="1223.88" y="-278.56" font-family="Noto Sans KR" font-size="14.00" fill="#182033">type</text>
<text xml:space="preserve" text-anchor="start" x="1223.88" y="-261.31" font-family="Noto Sans KR" font-size="14.00" fill="#182033">targetSelectorId FK</text>
<text xml:space="preserve" text-anchor="start" x="1223.88" y="-244.06" font-family="Noto Sans KR" font-size="14.00" fill="#182033">valueExpressionId FK?</text>
<text xml:space="preserve" text-anchor="start" x="1223.88" y="-226.81" font-family="Noto Sans KR" font-size="14.00" fill="#182033">conditionIds[]</text>
<text xml:space="preserve" text-anchor="start" x="1223.88" y="-209.56" font-family="Noto Sans KR" font-size="14.00" fill="#182033">executorKey</text>
<text xml:space="preserve" text-anchor="start" x="1223.88" y="-192.31" font-family="Noto Sans KR" font-size="14.00" fill="#182033">tags[]</text>
</g>
<!-- EffectBundleData -->
<g id="node2" class="node">
<title>EffectBundleData</title>
<path fill="#fff7e6" stroke="#e0ad4e" stroke-width="1.4" d="M512.07,-412.12C512.07,-412.12 864.39,-412.12 864.39,-412.12 870.39,-412.12 876.39,-418.12 876.39,-424.12 876.39,-424.12 876.39,-499.34 876.39,-499.34 876.39,-505.34 870.39,-511.34 864.39,-511.34 864.39,-511.34 512.07,-511.34 512.07,-511.34 506.07,-511.34 500.07,-505.34 500.07,-499.34 500.07,-499.34 500.07,-424.12 500.07,-424.12 500.07,-418.12 506.07,-412.12 512.07,-412.12"/>
<text xml:space="preserve" text-anchor="middle" x="563.78" y="-457.06" font-family="Noto Sans KR" font-size="14.00" fill="#182033">EffectBundleData</text>
<polyline fill="none" stroke="#e0ad4e" stroke-width="1.4" points="627.48,-412.12 627.48,-511.34"/>
<text xml:space="preserve" text-anchor="start" x="637.56" y="-491.56" font-family="Noto Sans KR" font-size="14.00" fill="#182033">bundleId PK</text>
<text xml:space="preserve" text-anchor="start" x="637.56" y="-474.31" font-family="Noto Sans KR" font-size="14.00" fill="#182033">primaryEffectIds[]</text>
<text xml:space="preserve" text-anchor="start" x="637.56" y="-457.06" font-family="Noto Sans KR" font-size="14.00" fill="#182033">reactionIds[]</text>
<text xml:space="preserve" text-anchor="start" x="637.56" y="-439.81" font-family="Noto Sans KR" font-size="14.00" fill="#182033">executionPolicy=commit_then_react</text>
<text xml:space="preserve" text-anchor="start" x="637.56" y="-422.56" font-family="Noto Sans KR" font-size="14.00" fill="#182033">stopPolicy</text>
</g>
<!-- TargetSelectorData -->
<g id="node3" class="node">
<title>TargetSelectorData</title>
<path fill="#fff7e6" stroke="#e0ad4e" stroke-width="1.4" d="M1454.71,-357.12C1454.71,-357.12 1706.53,-357.12 1706.53,-357.12 1712.53,-357.12 1718.53,-363.12 1718.53,-369.12 1718.53,-369.12 1718.53,-444.34 1718.53,-444.34 1718.53,-450.34 1712.53,-456.34 1706.53,-456.34 1706.53,-456.34 1454.71,-456.34 1454.71,-456.34 1448.71,-456.34 1442.71,-450.34 1442.71,-444.34 1442.71,-444.34 1442.71,-369.12 1442.71,-369.12 1442.71,-363.12 1448.71,-357.12 1454.71,-357.12"/>
<text xml:space="preserve" text-anchor="middle" x="1511.67" y="-402.06" font-family="Noto Sans KR" font-size="14.00" fill="#182033">TargetSelectorData</text>
<polyline fill="none" stroke="#e0ad4e" stroke-width="1.4" points="1580.62,-357.12 1580.62,-456.34"/>
<text xml:space="preserve" text-anchor="start" x="1590.7" y="-436.56" font-family="Noto Sans KR" font-size="14.00" fill="#182033">selectorId PK</text>
<text xml:space="preserve" text-anchor="start" x="1590.7" y="-419.31" font-family="Noto Sans KR" font-size="14.00" fill="#182033">selectorType</text>
<text xml:space="preserve" text-anchor="start" x="1590.7" y="-402.06" font-family="Noto Sans KR" font-size="14.00" fill="#182033">shape/range/angle</text>
<text xml:space="preserve" text-anchor="start" x="1590.7" y="-384.81" font-family="Noto Sans KR" font-size="14.00" fill="#182033">limit</text>
<text xml:space="preserve" text-anchor="start" x="1590.7" y="-367.56" font-family="Noto Sans KR" font-size="14.00" fill="#182033">filterIds[]</text>
</g>
<!-- ValueExpressionData -->
<g id="node4" class="node">
<title>ValueExpressionData</title>
<path fill="#fff7e6" stroke="#e0ad4e" stroke-width="1.4" d="M1462.59,-190.5C1462.59,-190.5 1698.66,-190.5 1698.66,-190.5 1704.66,-190.5 1710.66,-196.5 1710.66,-202.5 1710.66,-202.5 1710.66,-294.96 1710.66,-294.96 1710.66,-300.96 1704.66,-306.96 1698.66,-306.96 1698.66,-306.96 1462.59,-306.96 1462.59,-306.96 1456.59,-306.96 1450.59,-300.96 1450.59,-294.96 1450.59,-294.96 1450.59,-202.5 1450.59,-202.5 1450.59,-196.5 1456.59,-190.5 1462.59,-190.5"/>
<text xml:space="preserve" text-anchor="middle" x="1525.17" y="-244.06" font-family="Noto Sans KR" font-size="14.00" fill="#182033">ValueExpressionData</text>
<polyline fill="none" stroke="#e0ad4e" stroke-width="1.4" points="1599.75,-190.5 1599.75,-306.96"/>
<text xml:space="preserve" text-anchor="start" x="1609.83" y="-287.18" font-family="Noto Sans KR" font-size="14.00" fill="#182033">valueId PK</text>
<text xml:space="preserve" text-anchor="start" x="1609.83" y="-269.93" font-family="Noto Sans KR" font-size="14.00" fill="#182033">baseValue</text>
<text xml:space="preserve" text-anchor="start" x="1609.83" y="-252.68" font-family="Noto Sans KR" font-size="14.00" fill="#182033">scalingTerms[]</text>
<text xml:space="preserve" text-anchor="start" x="1609.83" y="-235.43" font-family="Noto Sans KR" font-size="14.00" fill="#182033">statRefs[]</text>
<text xml:space="preserve" text-anchor="start" x="1609.83" y="-218.18" font-family="Noto Sans KR" font-size="14.00" fill="#182033">min/max</text>
<text xml:space="preserve" text-anchor="start" x="1609.83" y="-200.93" font-family="Noto Sans KR" font-size="14.00" fill="#182033">rounding</text>
</g>
<!-- EffectConditionData -->
<g id="node5" class="node">
<title>EffectConditionData</title>
<path fill="#fff7e6" stroke="#e0ad4e" stroke-width="1.4" d="M1464.46,-58.75C1464.46,-58.75 1696.78,-58.75 1696.78,-58.75 1702.78,-58.75 1708.78,-64.75 1708.78,-70.75 1708.78,-70.75 1708.78,-128.71 1708.78,-128.71 1708.78,-134.71 1702.78,-140.71 1696.78,-140.71 1696.78,-140.71 1464.46,-140.71 1464.46,-140.71 1458.46,-140.71 1452.46,-134.71 1452.46,-128.71 1452.46,-128.71 1452.46,-70.75 1452.46,-70.75 1452.46,-64.75 1458.46,-58.75 1464.46,-58.75"/>
<text xml:space="preserve" text-anchor="middle" x="1524.79" y="-95.05" font-family="Noto Sans KR" font-size="14.00" fill="#182033">EffectConditionData</text>
<polyline fill="none" stroke="#e0ad4e" stroke-width="1.4" points="1597.12,-58.75 1597.12,-140.71"/>
<text xml:space="preserve" text-anchor="start" x="1607.2" y="-120.93" font-family="Noto Sans KR" font-size="14.00" fill="#182033">conditionId PK</text>
<text xml:space="preserve" text-anchor="start" x="1607.2" y="-103.68" font-family="Noto Sans KR" font-size="14.00" fill="#182033">conditionType</text>
<text xml:space="preserve" text-anchor="start" x="1607.2" y="-86.43" font-family="Noto Sans KR" font-size="14.00" fill="#182033">params</text>
<text xml:space="preserve" text-anchor="start" x="1607.2" y="-69.18" font-family="Noto Sans KR" font-size="14.00" fill="#182033">failurePolicy</text>
</g>
<!-- SkillDefinitionData -->
<g id="node6" class="node">
<title>SkillDefinitionData</title>
<path fill="#eaf0ff" stroke="#8292f7" stroke-width="1.4" d="M31.13,-487.12C31.13,-487.12 272.45,-487.12 272.45,-487.12 278.45,-487.12 284.45,-493.12 284.45,-499.12 284.45,-499.12 284.45,-574.34 284.45,-574.34 284.45,-580.34 278.45,-586.34 272.45,-586.34 272.45,-586.34 31.13,-586.34 31.13,-586.34 25.13,-586.34 19.13,-580.34 19.13,-574.34 19.13,-574.34 19.13,-499.12 19.13,-499.12 19.13,-493.12 25.13,-487.12 31.13,-487.12"/>
<text xml:space="preserve" text-anchor="middle" x="86.96" y="-532.06" font-family="Noto Sans KR" font-size="14.00" fill="#182033">SkillDefinitionData</text>
<polyline fill="none" stroke="#8292f7" stroke-width="1.4" points="154.79,-487.12 154.79,-586.34"/>
<text xml:space="preserve" text-anchor="start" x="164.87" y="-566.56" font-family="Noto Sans KR" font-size="14.00" fill="#182033">skillId PK</text>
<text xml:space="preserve" text-anchor="start" x="164.87" y="-549.31" font-family="Noto Sans KR" font-size="14.00" fill="#182033">effectBundleId FK</text>
<text xml:space="preserve" text-anchor="start" x="164.87" y="-532.06" font-family="Noto Sans KR" font-size="14.00" fill="#182033">costs[]</text>
<text xml:space="preserve" text-anchor="start" x="164.87" y="-514.81" font-family="Noto Sans KR" font-size="14.00" fill="#182033">targeting</text>
<text xml:space="preserve" text-anchor="start" x="164.87" y="-497.56" font-family="Noto Sans KR" font-size="14.00" fill="#182033">timeline</text>
</g>
<!-- StatusDefinitionData -->
<g id="node7" class="node">
<title>StatusDefinitionData</title>
<path fill="#eaf0ff" stroke="#8292f7" stroke-width="1.4" d="M12,-338.12C12,-338.12 291.57,-338.12 291.57,-338.12 297.57,-338.12 303.57,-344.12 303.57,-350.12 303.57,-350.12 303.57,-425.34 303.57,-425.34 303.57,-431.34 297.57,-437.34 291.57,-437.34 291.57,-437.34 12,-437.34 12,-437.34 6,-437.34 0,-431.34 0,-425.34 0,-425.34 0,-350.12 0,-350.12 0,-344.12 6,-338.12 12,-338.12"/>
<text xml:space="preserve" text-anchor="middle" x="73.83" y="-383.06" font-family="Noto Sans KR" font-size="14.00" fill="#182033">StatusDefinitionData</text>
<polyline fill="none" stroke="#8292f7" stroke-width="1.4" points="147.66,-338.12 147.66,-437.34"/>
<text xml:space="preserve" text-anchor="start" x="157.74" y="-417.56" font-family="Noto Sans KR" font-size="14.00" fill="#182033">statusId PK</text>
<text xml:space="preserve" text-anchor="start" x="157.74" y="-400.31" font-family="Noto Sans KR" font-size="14.00" fill="#182033">onApplyBundleId FK?</text>
<text xml:space="preserve" text-anchor="start" x="157.74" y="-383.06" font-family="Noto Sans KR" font-size="14.00" fill="#182033">modifiers[]</text>
<text xml:space="preserve" text-anchor="start" x="157.74" y="-365.81" font-family="Noto Sans KR" font-size="14.00" fill="#182033">tickBundleId FK?</text>
<text xml:space="preserve" text-anchor="start" x="157.74" y="-348.56" font-family="Noto Sans KR" font-size="14.00" fill="#182033">onExpireBundleId FK?</text>
</g>
<!-- EventReactionData -->
<g id="node8" class="node">
<title>EventReactionData</title>
<path fill="#eaf0ff" stroke="#8292f7" stroke-width="1.4" d="M1098.39,-365.62C1098.39,-365.62 1341.96,-365.62 1341.96,-365.62 1347.96,-365.62 1353.96,-371.62 1353.96,-377.62 1353.96,-377.62 1353.96,-521.84 1353.96,-521.84 1353.96,-527.84 1347.96,-533.84 1341.96,-533.84 1341.96,-533.84 1098.39,-533.84 1098.39,-533.84 1092.39,-533.84 1086.39,-527.84 1086.39,-521.84 1086.39,-521.84 1086.39,-377.62 1086.39,-377.62 1086.39,-371.62 1092.39,-365.62 1098.39,-365.62"/>
<text xml:space="preserve" text-anchor="middle" x="1155.35" y="-445.06" font-family="Noto Sans KR" font-size="14.00" fill="#182033">EventReactionData</text>
<polyline fill="none" stroke="#8292f7" stroke-width="1.4" points="1224.3,-365.62 1224.3,-533.84"/>
<text xml:space="preserve" text-anchor="start" x="1234.38" y="-514.06" font-family="Noto Sans KR" font-size="14.00" fill="#182033">reactionId PK</text>
<text xml:space="preserve" text-anchor="start" x="1234.38" y="-496.81" font-family="Noto Sans KR" font-size="14.00" fill="#182033">triggerEvent</text>
<text xml:space="preserve" text-anchor="start" x="1234.38" y="-479.56" font-family="Noto Sans KR" font-size="14.00" fill="#182033">conditionIds[]</text>
<text xml:space="preserve" text-anchor="start" x="1234.38" y="-462.31" font-family="Noto Sans KR" font-size="14.00" fill="#182033">effectBundleId FK</text>
<text xml:space="preserve" text-anchor="start" x="1234.38" y="-445.06" font-family="Noto Sans KR" font-size="14.00" fill="#182033">priority</text>
<text xml:space="preserve" text-anchor="start" x="1234.38" y="-427.81" font-family="Noto Sans KR" font-size="14.00" fill="#182033">stableOrderKey</text>
<text xml:space="preserve" text-anchor="start" x="1234.38" y="-410.56" font-family="Noto Sans KR" font-size="14.00" fill="#182033">budgetCost</text>
<text xml:space="preserve" text-anchor="start" x="1234.38" y="-393.31" font-family="Noto Sans KR" font-size="14.00" fill="#182033">causationId</text>
<text xml:space="preserve" text-anchor="start" x="1234.38" y="-376.06" font-family="Noto Sans KR" font-size="14.00" fill="#182033">idempotencyKey</text>
</g>
<!-- EffectExecutionLog -->
<g id="node9" class="node">
<title>EffectExecutionLog</title>
<path fill="#f3eefc" stroke="#ab8fe0" stroke-width="1.4" d="M575.45,-167.25C575.45,-167.25 801.02,-167.25 801.02,-167.25 807.02,-167.25 813.02,-173.25 813.02,-179.25 813.02,-179.25 813.02,-306.21 813.02,-306.21 813.02,-312.21 807.02,-318.21 801.02,-318.21 801.02,-318.21 575.45,-318.21 575.45,-318.21 569.45,-318.21 563.45,-312.21 563.45,-306.21 563.45,-306.21 563.45,-179.25 563.45,-179.25 563.45,-173.25 569.45,-167.25 575.45,-167.25"/>
<text xml:space="preserve" text-anchor="middle" x="632.03" y="-238.05" font-family="Noto Sans KR" font-size="14.00" fill="#182033">EffectExecutionLog</text>
<polyline fill="none" stroke="#ab8fe0" stroke-width="1.4" points="700.61,-167.25 700.61,-318.21"/>
<text xml:space="preserve" text-anchor="start" x="710.69" y="-298.43" font-family="Noto Sans KR" font-size="14.00" fill="#182033">executionId PK</text>
<text xml:space="preserve" text-anchor="start" x="710.69" y="-281.18" font-family="Noto Sans KR" font-size="14.00" fill="#182033">requestId</text>
<text xml:space="preserve" text-anchor="start" x="710.69" y="-263.93" font-family="Noto Sans KR" font-size="14.00" fill="#182033">sourceId</text>
<text xml:space="preserve" text-anchor="start" x="710.69" y="-246.68" font-family="Noto Sans KR" font-size="14.00" fill="#182033">targetIds[]</text>
<text xml:space="preserve" text-anchor="start" x="710.69" y="-229.43" font-family="Noto Sans KR" font-size="14.00" fill="#182033">effectIds[]</text>
<text xml:space="preserve" text-anchor="start" x="710.69" y="-212.18" font-family="Noto Sans KR" font-size="14.00" fill="#182033">resultItems[]</text>
<text xml:space="preserve" text-anchor="start" x="710.69" y="-194.93" font-family="Noto Sans KR" font-size="14.00" fill="#182033">seed</text>
<text xml:space="preserve" text-anchor="start" x="710.69" y="-177.68" font-family="Noto Sans KR" font-size="14.00" fill="#182033">timestamp</text>
</g>
<!-- ScheduledEffectState -->
<g id="node10" class="node">
<title>ScheduledEffectState</title>
<path fill="#f3eefc" stroke="#ab8fe0" stroke-width="1.4" d="M561.57,-0.5C561.57,-0.5 814.89,-0.5 814.89,-0.5 820.89,-0.5 826.89,-6.5 826.89,-12.5 826.89,-12.5 826.89,-104.96 826.89,-104.96 826.89,-110.96 820.89,-116.96 814.89,-116.96 814.89,-116.96 561.57,-116.96 561.57,-116.96 555.57,-116.96 549.57,-110.96 549.57,-104.96 549.57,-104.96 549.57,-12.5 549.57,-12.5 549.57,-6.5 555.57,-0.5 561.57,-0.5"/>
<text xml:space="preserve" text-anchor="middle" x="625.65" y="-54.05" font-family="Noto Sans KR" font-size="14.00" fill="#182033">ScheduledEffectState</text>
<polyline fill="none" stroke="#ab8fe0" stroke-width="1.4" points="701.73,-0.5 701.73,-116.96"/>
<text xml:space="preserve" text-anchor="start" x="711.81" y="-97.18" font-family="Noto Sans KR" font-size="14.00" fill="#182033">scheduleId PK</text>
<text xml:space="preserve" text-anchor="start" x="711.81" y="-79.93" font-family="Noto Sans KR" font-size="14.00" fill="#182033">effectId FK</text>
<text xml:space="preserve" text-anchor="start" x="711.81" y="-62.68" font-family="Noto Sans KR" font-size="14.00" fill="#182033">sourceId</text>
<text xml:space="preserve" text-anchor="start" x="711.81" y="-45.43" font-family="Noto Sans KR" font-size="14.00" fill="#182033">remainingTime</text>
<text xml:space="preserve" text-anchor="start" x="711.81" y="-28.18" font-family="Noto Sans KR" font-size="14.00" fill="#182033">repeatCount</text>
<text xml:space="preserve" text-anchor="start" x="711.81" y="-10.93" font-family="Noto Sans KR" font-size="14.00" fill="#182033">contextSnapshot</text>
</g>
</g>
</svg>
