<?xml version="1.0" encoding="UTF-8" standalone="no"?>
<!DOCTYPE svg PUBLIC "-//W3C//DTD SVG 1.1//EN"
 "http://www.w3.org/Graphics/SVG/1.1/DTD/svg11.dtd">
<!-- Generated by graphviz version 15.0.0 (20260523.1842)
 -->
<!-- Title: G Pages: 1 -->
<svg width="1596pt" height="551pt"
 viewBox="9.00 9.00 1587.00 543.00" xmlns="http://www.w3.org/2000/svg" xmlns:xlink="http://www.w3.org/1999/xlink">
<g id="graph0" class="graph" transform="scale(1 1) rotate(0) translate(26.64 524.6)">
<title>G</title>
<polygon fill="#ffffff" stroke="none" points="-18,18 -18,-515.96 1560.26,-515.96 1560.26,18 -18,18"/>
<!-- EffectDefinitionData -->
<g id="node1" class="node">
<title>EffectDefinitionData</title>
<path fill="#fff7e6" stroke="#e0ad4e" stroke-width="1.4" d="M964.76,-159.1C964.76,-159.1 1231.05,-159.1 1231.05,-159.1 1237.05,-159.1 1243.05,-165.1 1243.05,-171.1 1243.05,-171.1 1243.05,-277.66 1243.05,-277.66 1243.05,-283.66 1237.05,-289.66 1231.05,-289.66 1231.05,-289.66 964.76,-289.66 964.76,-289.66 958.76,-289.66 952.76,-283.66 952.76,-277.66 952.76,-277.66 952.76,-171.1 952.76,-171.1 952.76,-165.1 958.76,-159.1 964.76,-159.1"/>
<text xml:space="preserve" text-anchor="middle" x="1021.92" y="-220.18" font-family="Noto Sans CJK KR" font-size="14.00" fill="#182033">EffectDefinitionData</text>
<polyline fill="none" stroke="#e0ad4e" stroke-width="1.4" points="1091.08,-159.1 1091.08,-289.66"/>
<text xml:space="preserve" text-anchor="start" x="1101.16" y="-270.58" font-family="Noto Sans CJK KR" font-size="14.00" fill="#182033">effectId PK</text>
<text xml:space="preserve" text-anchor="start" x="1101.16" y="-253.78" font-family="Noto Sans CJK KR" font-size="14.00" fill="#182033">type</text>
<text xml:space="preserve" text-anchor="start" x="1101.16" y="-236.98" font-family="Noto Sans CJK KR" font-size="14.00" fill="#182033">targetSelectorId FK</text>
<text xml:space="preserve" text-anchor="start" x="1101.16" y="-220.18" font-family="Noto Sans CJK KR" font-size="14.00" fill="#182033">valueExpressionId FK?</text>
<text xml:space="preserve" text-anchor="start" x="1101.16" y="-203.38" font-family="Noto Sans CJK KR" font-size="14.00" fill="#182033">conditionIds[]</text>
<text xml:space="preserve" text-anchor="start" x="1101.16" y="-186.58" font-family="Noto Sans CJK KR" font-size="14.00" fill="#182033">executorKey</text>
<text xml:space="preserve" text-anchor="start" x="1101.16" y="-169.78" font-family="Noto Sans CJK KR" font-size="14.00" fill="#182033">tags[]</text>
</g>
<!-- TargetSelectorData -->
<g id="node3" class="node">
<title>TargetSelectorData</title>
<path fill="#fff7e6" stroke="#e0ad4e" stroke-width="1.4" d="M1304.05,-316.9C1304.05,-316.9 1530.26,-316.9 1530.26,-316.9 1536.26,-316.9 1542.26,-322.9 1542.26,-328.9 1542.26,-328.9 1542.26,-401.86 1542.26,-401.86 1542.26,-407.86 1536.26,-413.86 1530.26,-413.86 1530.26,-413.86 1304.05,-413.86 1304.05,-413.86 1298.05,-413.86 1292.05,-407.86 1292.05,-401.86 1292.05,-401.86 1292.05,-328.9 1292.05,-328.9 1292.05,-322.9 1298.05,-316.9 1304.05,-316.9"/>
<text xml:space="preserve" text-anchor="middle" x="1356.54" y="-361.18" font-family="Noto Sans CJK KR" font-size="14.00" fill="#182033">TargetSelectorData</text>
<polyline fill="none" stroke="#e0ad4e" stroke-width="1.4" points="1421.04,-316.9 1421.04,-413.86"/>
<text xml:space="preserve" text-anchor="start" x="1431.12" y="-394.78" font-family="Noto Sans CJK KR" font-size="14.00" fill="#182033">selectorId PK</text>
<text xml:space="preserve" text-anchor="start" x="1431.12" y="-377.98" font-family="Noto Sans CJK KR" font-size="14.00" fill="#182033">selectorType</text>
<text xml:space="preserve" text-anchor="start" x="1431.12" y="-361.18" font-family="Noto Sans CJK KR" font-size="14.00" fill="#182033">shape/range/angle</text>
<text xml:space="preserve" text-anchor="start" x="1431.12" y="-344.38" font-family="Noto Sans CJK KR" font-size="14.00" fill="#182033">limit</text>
<text xml:space="preserve" text-anchor="start" x="1431.12" y="-327.58" font-family="Noto Sans CJK KR" font-size="14.00" fill="#182033">filterIds[]</text>
</g>
<!-- EffectDefinitionData&#45;&gt;TargetSelectorData -->
<g id="edge2" class="edge">
<title>EffectDefinitionData&#45;&gt;TargetSelectorData</title>
<path fill="none" stroke="#59687e" stroke-width="1.3" d="M1234.26,-290.11C1234.26,-309 1234.26,-324.6 1234.26,-324.6 1234.26,-324.6 1281.41,-324.6 1281.41,-324.6"/>
<polygon fill="#59687e" stroke="#59687e" stroke-width="1.3" points="1281.41,-327.4 1289.41,-324.6 1281.41,-321.8 1281.41,-327.4"/>
</g>
<!-- ValueExpressionData -->
<g id="node4" class="node">
<title>ValueExpressionData</title>
<path fill="#fff7e6" stroke="#e0ad4e" stroke-width="1.4" d="M1305.59,-167.5C1305.59,-167.5 1528.72,-167.5 1528.72,-167.5 1534.72,-167.5 1540.72,-173.5 1540.72,-179.5 1540.72,-179.5 1540.72,-269.26 1540.72,-269.26 1540.72,-275.26 1534.72,-281.26 1528.72,-281.26 1528.72,-281.26 1305.59,-281.26 1305.59,-281.26 1299.59,-281.26 1293.59,-275.26 1293.59,-269.26 1293.59,-269.26 1293.59,-179.5 1293.59,-179.5 1293.59,-173.5 1299.59,-167.5 1305.59,-167.5"/>
<text xml:space="preserve" text-anchor="middle" x="1364.7" y="-220.18" font-family="Noto Sans CJK KR" font-size="14.00" fill="#182033">ValueExpressionData</text>
<polyline fill="none" stroke="#e0ad4e" stroke-width="1.4" points="1435.82,-167.5 1435.82,-281.26"/>
<text xml:space="preserve" text-anchor="start" x="1445.9" y="-262.18" font-family="Noto Sans CJK KR" font-size="14.00" fill="#182033">valueId PK</text>
<text xml:space="preserve" text-anchor="start" x="1445.9" y="-245.38" font-family="Noto Sans CJK KR" font-size="14.00" fill="#182033">baseValue</text>
<text xml:space="preserve" text-anchor="start" x="1445.9" y="-228.58" font-family="Noto Sans CJK KR" font-size="14.00" fill="#182033">scalingTerms[]</text>
<text xml:space="preserve" text-anchor="start" x="1445.9" y="-211.78" font-family="Noto Sans CJK KR" font-size="14.00" fill="#182033">statRefs[]</text>
<text xml:space="preserve" text-anchor="start" x="1445.9" y="-194.98" font-family="Noto Sans CJK KR" font-size="14.00" fill="#182033">min/max</text>
<text xml:space="preserve" text-anchor="start" x="1445.9" y="-178.18" font-family="Noto Sans CJK KR" font-size="14.00" fill="#182033">rounding</text>
</g>
<!-- EffectDefinitionData&#45;&gt;ValueExpressionData -->
<g id="edge3" class="edge">
<title>EffectDefinitionData&#45;&gt;ValueExpressionData</title>
<path fill="none" stroke="#59687e" stroke-width="1.3" d="M1243.51,-224.38C1243.51,-224.38 1283.26,-224.38 1283.26,-224.38"/>
<polygon fill="#59687e" stroke="#59687e" stroke-width="1.3" points="1283.26,-227.18 1291.26,-224.38 1283.26,-221.58 1283.26,-227.18"/>
</g>
<!-- EffectConditionData -->
<g id="node5" class="node">
<title>EffectConditionData</title>
<path fill="#fff7e6" stroke="#e0ad4e" stroke-width="1.4" d="M1307.71,-51.3C1307.71,-51.3 1526.6,-51.3 1526.6,-51.3 1532.6,-51.3 1538.6,-57.3 1538.6,-63.3 1538.6,-63.3 1538.6,-119.46 1538.6,-119.46 1538.6,-125.46 1532.6,-131.46 1526.6,-131.46 1526.6,-131.46 1307.71,-131.46 1307.71,-131.46 1301.71,-131.46 1295.71,-125.46 1295.71,-119.46 1295.71,-119.46 1295.71,-63.3 1295.71,-63.3 1295.71,-57.3 1301.71,-51.3 1307.71,-51.3"/>
<text xml:space="preserve" text-anchor="middle" x="1364.1" y="-87.18" font-family="Noto Sans CJK KR" font-size="14.00" fill="#182033">EffectConditionData</text>
<polyline fill="none" stroke="#e0ad4e" stroke-width="1.4" points="1432.5,-51.3 1432.5,-131.46"/>
<text xml:space="preserve" text-anchor="start" x="1442.58" y="-112.38" font-family="Noto Sans CJK KR" font-size="14.00" fill="#182033">conditionId PK</text>
<text xml:space="preserve" text-anchor="start" x="1442.58" y="-95.58" font-family="Noto Sans CJK KR" font-size="14.00" fill="#182033">conditionType</text>
<text xml:space="preserve" text-anchor="start" x="1442.58" y="-78.78" font-family="Noto Sans CJK KR" font-size="14.00" fill="#182033">params</text>
<text xml:space="preserve" text-anchor="start" x="1442.58" y="-61.98" font-family="Noto Sans CJK KR" font-size="14.00" fill="#182033">failurePolicy</text>
</g>
<!-- EffectDefinitionData&#45;&gt;EffectConditionData -->
<g id="edge4" class="edge">
<title>EffectDefinitionData&#45;&gt;EffectConditionData</title>
<path fill="none" stroke="#59687e" stroke-width="1.3" d="M1243.56,-162.8C1327.79,-162.8 1417.26,-162.8 1417.26,-162.8 1417.26,-162.8 1417.26,-142.06 1417.26,-142.06"/>
<polygon fill="#59687e" stroke="#59687e" stroke-width="1.3" points="1420.06,-142.06 1417.26,-134.06 1414.46,-142.06 1420.06,-142.06"/>
</g>
<!-- EffectBundleData -->
<g id="node2" class="node">
<title>EffectBundleData</title>
<path fill="#fff7e6" stroke="#e0ad4e" stroke-width="1.4" d="M444.41,-333.9C444.41,-333.9 767.95,-333.9 767.95,-333.9 773.95,-333.9 779.95,-339.9 779.95,-345.9 779.95,-345.9 779.95,-418.86 779.95,-418.86 779.95,-424.86 773.95,-430.86 767.95,-430.86 767.95,-430.86 444.41,-430.86 444.41,-430.86 438.41,-430.86 432.41,-424.86 432.41,-418.86 432.41,-418.86 432.41,-345.9 432.41,-345.9 432.41,-339.9 438.41,-333.9 444.41,-333.9"/>
<text xml:space="preserve" text-anchor="middle" x="493.02" y="-378.18" font-family="Noto Sans CJK KR" font-size="14.00" fill="#182033">EffectBundleData</text>
<polyline fill="none" stroke="#e0ad4e" stroke-width="1.4" points="553.63,-333.9 553.63,-430.86"/>
<text xml:space="preserve" text-anchor="start" x="563.71" y="-411.78" font-family="Noto Sans CJK KR" font-size="14.00" fill="#182033">bundleId PK</text>
<text xml:space="preserve" text-anchor="start" x="563.71" y="-394.98" font-family="Noto Sans CJK KR" font-size="14.00" fill="#182033">primaryEffectIds[]</text>
<text xml:space="preserve" text-anchor="start" x="563.71" y="-378.18" font-family="Noto Sans CJK KR" font-size="14.00" fill="#182033">reactionIds[]</text>
<text xml:space="preserve" text-anchor="start" x="563.71" y="-361.38" font-family="Noto Sans CJK KR" font-size="14.00" fill="#182033">executionPolicy=commit_then_react</text>
<text xml:space="preserve" text-anchor="start" x="563.71" y="-344.58" font-family="Noto Sans CJK KR" font-size="14.00" fill="#182033">stopPolicy</text>
</g>
<!-- EffectBundleData&#45;&gt;EffectDefinitionData -->
<g id="edge1" class="edge">
<title>EffectBundleData&#45;&gt;EffectDefinitionData</title>
<path fill="none" stroke="#59687e" stroke-width="1.3" d="M780.6,-357.89C870.4,-357.89 961.26,-357.89 961.26,-357.89 961.26,-357.89 961.26,-300.32 961.26,-300.32"/>
<polygon fill="#59687e" stroke="#59687e" stroke-width="1.3" points="964.06,-300.32 961.26,-292.32 958.46,-300.32 964.06,-300.32"/>
<text xml:space="preserve" text-anchor="middle" x="866.36" y="-303.58" font-family="Noto Sans CJK KR" font-size="14.00" fill="#46566e">contains</text>
</g>
<!-- EventReactionData -->
<g id="node8" class="node">
<title>EventReactionData</title>
<path fill="#eaf0ff" stroke="#8292f7" stroke-width="1.4" d="M982.64,-333.3C982.64,-333.3 1213.16,-333.3 1213.16,-333.3 1219.16,-333.3 1225.16,-339.3 1225.16,-345.3 1225.16,-345.3 1225.16,-485.46 1225.16,-485.46 1225.16,-491.46 1219.16,-497.46 1213.16,-497.46 1213.16,-497.46 982.64,-497.46 982.64,-497.46 976.64,-497.46 970.64,-491.46 970.64,-485.46 970.64,-485.46 970.64,-345.3 970.64,-345.3 970.64,-339.3 976.64,-333.3 982.64,-333.3"/>
<text xml:space="preserve" text-anchor="middle" x="1035.15" y="-411.18" font-family="Noto Sans CJK KR" font-size="14.00" fill="#182033">EventReactionData</text>
<polyline fill="none" stroke="#8292f7" stroke-width="1.4" points="1099.65,-333.3 1099.65,-497.46"/>
<text xml:space="preserve" text-anchor="start" x="1109.73" y="-478.38" font-family="Noto Sans CJK KR" font-size="14.00" fill="#182033">reactionId PK</text>
<text xml:space="preserve" text-anchor="start" x="1109.73" y="-461.58" font-family="Noto Sans CJK KR" font-size="14.00" fill="#182033">triggerEvent</text>
<text xml:space="preserve" text-anchor="start" x="1109.73" y="-444.78" font-family="Noto Sans CJK KR" font-size="14.00" fill="#182033">conditionIds[]</text>
<text xml:space="preserve" text-anchor="start" x="1109.73" y="-427.98" font-family="Noto Sans CJK KR" font-size="14.00" fill="#182033">effectBundleId FK</text>
<text xml:space="preserve" text-anchor="start" x="1109.73" y="-411.18" font-family="Noto Sans CJK KR" font-size="14.00" fill="#182033">priority</text>
<text xml:space="preserve" text-anchor="start" x="1109.73" y="-394.38" font-family="Noto Sans CJK KR" font-size="14.00" fill="#182033">stableOrderKey</text>
<text xml:space="preserve" text-anchor="start" x="1109.73" y="-377.58" font-family="Noto Sans CJK KR" font-size="14.00" fill="#182033">budgetCost</text>
<text xml:space="preserve" text-anchor="start" x="1109.73" y="-360.78" font-family="Noto Sans CJK KR" font-size="14.00" fill="#182033">causationId</text>
<text xml:space="preserve" text-anchor="start" x="1109.73" y="-343.98" font-family="Noto Sans CJK KR" font-size="14.00" fill="#182033">idempotencyKey</text>
</g>
<!-- EffectBundleData&#45;&gt;EventReactionData -->
<g id="edge7" class="edge">
<title>EffectBundleData&#45;&gt;EventReactionData</title>
<path fill="none" stroke="#59687e" stroke-width="1.3" d="M780.58,-382.38C780.58,-382.38 960.32,-382.38 960.32,-382.38"/>
<polygon fill="#59687e" stroke="#59687e" stroke-width="1.3" points="960.32,-385.18 968.32,-382.38 960.32,-379.58 960.32,-385.18"/>
<text xml:space="preserve" text-anchor="middle" x="866.36" y="-435.58" font-family="Noto Sans CJK KR" font-size="14.00" fill="#46566e">post&#45;commit reactions</text>
</g>
<!-- SkillDefinitionData -->
<g id="node6" class="node">
<title>SkillDefinitionData</title>
<path fill="#eaf0ff" stroke="#8292f7" stroke-width="1.4" d="M28.72,-399.9C28.72,-399.9 260.83,-399.9 260.83,-399.9 266.83,-399.9 272.83,-405.9 272.83,-411.9 272.83,-411.9 272.83,-484.86 272.83,-484.86 272.83,-490.86 266.83,-496.86 260.83,-496.86 260.83,-496.86 28.72,-496.86 28.72,-496.86 22.72,-496.86 16.72,-490.86 16.72,-484.86 16.72,-484.86 16.72,-411.9 16.72,-411.9 16.72,-405.9 22.72,-399.9 28.72,-399.9"/>
<text xml:space="preserve" text-anchor="middle" x="82.02" y="-444.18" font-family="Noto Sans CJK KR" font-size="14.00" fill="#182033">SkillDefinitionData</text>
<polyline fill="none" stroke="#8292f7" stroke-width="1.4" points="147.31,-399.9 147.31,-496.86"/>
<text xml:space="preserve" text-anchor="start" x="157.39" y="-477.78" font-family="Noto Sans CJK KR" font-size="14.00" fill="#182033">skillId PK</text>
<text xml:space="preserve" text-anchor="start" x="157.39" y="-460.98" font-family="Noto Sans CJK KR" font-size="14.00" fill="#182033">effectBundleId FK</text>
<text xml:space="preserve" text-anchor="start" x="157.39" y="-444.18" font-family="Noto Sans CJK KR" font-size="14.00" fill="#182033">costs[]</text>
<text xml:space="preserve" text-anchor="start" x="157.39" y="-427.38" font-family="Noto Sans CJK KR" font-size="14.00" fill="#182033">targeting</text>
<text xml:space="preserve" text-anchor="start" x="157.39" y="-410.58" font-family="Noto Sans CJK KR" font-size="14.00" fill="#182033">timeline</text>
</g>
<!-- SkillDefinitionData&#45;&gt;EffectBundleData -->
<g id="edge5" class="edge">
<title>SkillDefinitionData&#45;&gt;EffectBundleData</title>
<path fill="none" stroke="#59687e" stroke-width="1.3" d="M273.3,-415.38C273.3,-415.38 421.82,-415.38 421.82,-415.38"/>
<polygon fill="#59687e" stroke="#59687e" stroke-width="1.3" points="421.82,-418.18 429.82,-415.38 421.82,-412.58 421.82,-418.18"/>
<text xml:space="preserve" text-anchor="middle" x="360.98" y="-452.58" font-family="Noto Sans CJK KR" font-size="14.00" fill="#46566e">cast</text>
</g>
<!-- StatusDefinitionData -->
<g id="node7" class="node">
<title>StatusDefinitionData</title>
<path fill="#eaf0ff" stroke="#8292f7" stroke-width="1.4" d="M12,-266.9C12,-266.9 277.55,-266.9 277.55,-266.9 283.55,-266.9 289.55,-272.9 289.55,-278.9 289.55,-278.9 289.55,-351.86 289.55,-351.86 289.55,-357.86 283.55,-363.86 277.55,-363.86 277.55,-363.86 12,-363.86 12,-363.86 6,-363.86 0,-357.86 0,-351.86 0,-351.86 0,-278.9 0,-278.9 0,-272.9 6,-266.9 12,-266.9"/>
<text xml:space="preserve" text-anchor="middle" x="69.18" y="-311.18" font-family="Noto Sans CJK KR" font-size="14.00" fill="#182033">StatusDefinitionData</text>
<polyline fill="none" stroke="#8292f7" stroke-width="1.4" points="138.36,-266.9 138.36,-363.86"/>
<text xml:space="preserve" text-anchor="start" x="148.44" y="-344.78" font-family="Noto Sans CJK KR" font-size="14.00" fill="#182033">statusId PK</text>
<text xml:space="preserve" text-anchor="start" x="148.44" y="-327.98" font-family="Noto Sans CJK KR" font-size="14.00" fill="#182033">onApplyBundleId FK?</text>
<text xml:space="preserve" text-anchor="start" x="148.44" y="-311.18" font-family="Noto Sans CJK KR" font-size="14.00" fill="#182033">modifiers[]</text>
<text xml:space="preserve" text-anchor="start" x="148.44" y="-294.38" font-family="Noto Sans CJK KR" font-size="14.00" fill="#182033">tickBundleId FK?</text>
<text xml:space="preserve" text-anchor="start" x="148.44" y="-277.58" font-family="Noto Sans CJK KR" font-size="14.00" fill="#182033">onExpireBundleId FK?</text>
</g>
<!-- StatusDefinitionData&#45;&gt;EffectBundleData -->
<g id="edge6" class="edge">
<title>StatusDefinitionData&#45;&gt;EffectBundleData</title>
<path fill="none" stroke="#59687e" stroke-width="1.3" d="M290.13,-348.88C290.13,-348.88 422.08,-348.88 422.08,-348.88"/>
<polygon fill="#59687e" stroke="#59687e" stroke-width="1.3" points="422.08,-351.68 430.08,-348.88 422.08,-346.08 422.08,-351.68"/>
<text xml:space="preserve" text-anchor="middle" x="360.98" y="-319.58" font-family="Noto Sans CJK KR" font-size="14.00" fill="#46566e">apply/tick/expire</text>
</g>
<!-- EventReactionData&#45;&gt;EffectBundleData -->
<g id="edge8" class="edge">
<title>EventReactionData&#45;&gt;EffectBundleData</title>
<path fill="none" stroke="#59687e" stroke-width="1.3" d="M969.99,-406.87C969.99,-406.87 790.62,-406.87 790.62,-406.87"/>
<polygon fill="#59687e" stroke="#59687e" stroke-width="1.3" points="790.62,-404.07 782.62,-406.87 790.62,-409.67 790.62,-404.07"/>
<text xml:space="preserve" text-anchor="middle" x="866.36" y="-378.58" font-family="Noto Sans CJK KR" font-size="14.00" fill="#46566e">new command</text>
</g>
<!-- EffectExecutionLog -->
<g id="node9" class="node">
<title>EffectExecutionLog</title>
<path fill="#f3eefc" stroke="#ab8fe0" stroke-width="1.4" d="M497.53,-150.7C497.53,-150.7 714.83,-150.7 714.83,-150.7 720.83,-150.7 726.83,-156.7 726.83,-162.7 726.83,-162.7 726.83,-286.06 726.83,-286.06 726.83,-292.06 720.83,-298.06 714.83,-298.06 714.83,-298.06 497.53,-298.06 497.53,-298.06 491.53,-298.06 485.53,-292.06 485.53,-286.06 485.53,-286.06 485.53,-162.7 485.53,-162.7 485.53,-156.7 491.53,-150.7 497.53,-150.7"/>
<text xml:space="preserve" text-anchor="middle" x="552.36" y="-220.18" font-family="Noto Sans CJK KR" font-size="14.00" fill="#182033">EffectExecutionLog</text>
<polyline fill="none" stroke="#ab8fe0" stroke-width="1.4" points="619.19,-150.7 619.19,-298.06"/>
<text xml:space="preserve" text-anchor="start" x="629.27" y="-278.98" font-family="Noto Sans CJK KR" font-size="14.00" fill="#182033">executionId PK</text>
<text xml:space="preserve" text-anchor="start" x="629.27" y="-262.18" font-family="Noto Sans CJK KR" font-size="14.00" fill="#182033">requestId</text>
<text xml:space="preserve" text-anchor="start" x="629.27" y="-245.38" font-family="Noto Sans CJK KR" font-size="14.00" fill="#182033">sourceId</text>
<text xml:space="preserve" text-anchor="start" x="629.27" y="-228.58" font-family="Noto Sans CJK KR" font-size="14.00" fill="#182033">targetIds[]</text>
<text xml:space="preserve" text-anchor="start" x="629.27" y="-211.78" font-family="Noto Sans CJK KR" font-size="14.00" fill="#182033">effectIds[]</text>
<text xml:space="preserve" text-anchor="start" x="629.27" y="-194.98" font-family="Noto Sans CJK KR" font-size="14.00" fill="#182033">resultItems[]</text>
<text xml:space="preserve" text-anchor="start" x="629.27" y="-178.18" font-family="Noto Sans CJK KR" font-size="14.00" fill="#182033">seed</text>
<text xml:space="preserve" text-anchor="start" x="629.27" y="-161.38" font-family="Noto Sans CJK KR" font-size="14.00" fill="#182033">timestamp</text>
</g>
<!-- EffectExecutionLog&#45;&gt;EffectDefinitionData -->
<g id="edge9" class="edge">
<title>EffectExecutionLog&#45;&gt;EffectDefinitionData</title>
<path fill="none" stroke="#59687e" stroke-width="1.3" d="M727.41,-224.38C727.41,-224.38 942.24,-224.38 942.24,-224.38"/>
<polygon fill="#59687e" stroke="#59687e" stroke-width="1.3" points="942.24,-227.18 950.24,-224.38 942.24,-221.58 942.24,-227.18"/>
<text xml:space="preserve" text-anchor="middle" x="866.36" y="-228.58" font-family="Noto Sans CJK KR" font-size="14.00" fill="#46566e">records</text>
</g>
<!-- ScheduledEffectState -->
<g id="node10" class="node">
<title>ScheduledEffectState</title>
<path fill="#f3eefc" stroke="#ab8fe0" stroke-width="1.4" d="M491.5,-0.5C491.5,-0.5 720.87,-0.5 720.87,-0.5 726.87,-0.5 732.87,-6.5 732.87,-12.5 732.87,-12.5 732.87,-102.26 732.87,-102.26 732.87,-108.26 726.87,-114.26 720.87,-114.26 720.87,-114.26 491.5,-114.26 491.5,-114.26 485.5,-114.26 479.5,-108.26 479.5,-102.26 479.5,-102.26 479.5,-12.5 479.5,-12.5 479.5,-6.5 485.5,-0.5 491.5,-0.5"/>
<text xml:space="preserve" text-anchor="middle" x="549.83" y="-53.18" font-family="Noto Sans CJK KR" font-size="14.00" fill="#182033">ScheduledEffectState</text>
<polyline fill="none" stroke="#ab8fe0" stroke-width="1.4" points="620.16,-0.5 620.16,-114.26"/>
<text xml:space="preserve" text-anchor="start" x="630.24" y="-95.18" font-family="Noto Sans CJK KR" font-size="14.00" fill="#182033">scheduleId PK</text>
<text xml:space="preserve" text-anchor="start" x="630.24" y="-78.38" font-family="Noto Sans CJK KR" font-size="14.00" fill="#182033">effectId FK</text>
<text xml:space="preserve" text-anchor="start" x="630.24" y="-61.58" font-family="Noto Sans CJK KR" font-size="14.00" fill="#182033">sourceId</text>
<text xml:space="preserve" text-anchor="start" x="630.24" y="-44.78" font-family="Noto Sans CJK KR" font-size="14.00" fill="#182033">remainingTime</text>
<text xml:space="preserve" text-anchor="start" x="630.24" y="-27.98" font-family="Noto Sans CJK KR" font-size="14.00" fill="#182033">repeatCount</text>
<text xml:space="preserve" text-anchor="start" x="630.24" y="-11.18" font-family="Noto Sans CJK KR" font-size="14.00" fill="#182033">contextSnapshot</text>
</g>
<!-- ScheduledEffectState&#45;&gt;EffectDefinitionData -->
<g id="edge10" class="edge">
<title>ScheduledEffectState&#45;&gt;EffectDefinitionData</title>
<path fill="none" stroke="#59687e" stroke-width="1.3" d="M733.54,-82.78C879.34,-82.78 1098.26,-82.78 1098.26,-82.78 1098.26,-82.78 1098.26,-148.59 1098.26,-148.59"/>
<polygon fill="#59687e" stroke="#59687e" stroke-width="1.3" points="1095.46,-148.59 1098.26,-156.59 1101.06,-148.59 1095.46,-148.59"/>
<text xml:space="preserve" text-anchor="middle" x="866.36" y="-61.58" font-family="Noto Sans CJK KR" font-size="14.00" fill="#46566e">future</text>
</g>
</g>
</svg>
