<?xml version="1.0" encoding="UTF-8" standalone="no"?>
<!DOCTYPE svg PUBLIC "-//W3C//DTD SVG 1.1//EN"
 "http://www.w3.org/Graphics/SVG/1.1/DTD/svg11.dtd">
<!-- Generated by graphviz version 15.0.0 (20260523.1842)
 -->
<!-- Title: G Pages: 1 -->
<svg width="2849pt" height="489pt"
 viewBox="9.00 9.00 2840.00 481.00" xmlns="http://www.w3.org/2000/svg" xmlns:xlink="http://www.w3.org/1999/xlink">
<g id="graph0" class="graph" transform="scale(1 1) rotate(0) translate(26.64 462.72)">
<title>G</title>
<polygon fill="#ffffff" stroke="none" points="-18,18 -18,-454.08 2813.63,-454.08 2813.63,18 -18,18"/>
<!-- Defined -->
<g id="node1" class="node">
<title>Defined</title>
<path fill="#fff7e6" stroke="#e0ad4e" stroke-width="1.4" d="M124.8,-133.56C124.8,-133.56 12,-133.56 12,-133.56 6,-133.56 0,-127.56 0,-121.56 0,-121.56 0,-99 0,-99 0,-93 6,-87 12,-87 12,-87 124.8,-87 124.8,-87 130.8,-87 136.8,-93 136.8,-99 136.8,-99 136.8,-121.56 136.8,-121.56 136.8,-127.56 130.8,-133.56 124.8,-133.56"/>
<text xml:space="preserve" text-anchor="middle" x="68.4" y="-114.48" font-family="Noto Sans CJK KR" font-size="14.00" fill="#182033">Defined</text>
<text xml:space="preserve" text-anchor="middle" x="68.4" y="-97.68" font-family="Noto Sans CJK KR" font-size="14.00" fill="#182033">static data</text>
</g>
<!-- Registered -->
<g id="node2" class="node">
<title>Registered</title>
<path fill="#eaf0ff" stroke="#8292f7" stroke-width="1.4" d="M333.7,-133.56C333.7,-133.56 220.9,-133.56 220.9,-133.56 214.9,-133.56 208.9,-127.56 208.9,-121.56 208.9,-121.56 208.9,-99 208.9,-99 208.9,-93 214.9,-87 220.9,-87 220.9,-87 333.7,-87 333.7,-87 339.7,-87 345.7,-93 345.7,-99 345.7,-99 345.7,-121.56 345.7,-121.56 345.7,-127.56 339.7,-133.56 333.7,-133.56"/>
<text xml:space="preserve" text-anchor="middle" x="277.3" y="-114.48" font-family="Noto Sans CJK KR" font-size="14.00" fill="#182033">Registered</text>
<text xml:space="preserve" text-anchor="middle" x="277.3" y="-97.68" font-family="Noto Sans CJK KR" font-size="14.00" fill="#182033">loaded and validated</text>
</g>
<!-- Defined&#45;&gt;Registered -->
<g id="edge1" class="edge">
<title>Defined&#45;&gt;Registered</title>
<path fill="none" stroke="#59687e" stroke-width="1.3" d="M137.38,-110.28C137.38,-110.28 198.43,-110.28 198.43,-110.28"/>
<polygon fill="#59687e" stroke="#59687e" stroke-width="1.3" points="198.43,-113.08 206.43,-110.28 198.43,-107.48 198.43,-113.08"/>
<text xml:space="preserve" text-anchor="middle" x="172.85" y="-114.48" font-family="Noto Sans CJK KR" font-size="14.00" fill="#46566e">load</text>
</g>
<!-- Requested -->
<g id="node3" class="node">
<title>Requested</title>
<path fill="#eaf0ff" stroke="#8292f7" stroke-width="1.4" d="M728.68,-211.56C728.68,-211.56 528.57,-211.56 528.57,-211.56 522.57,-211.56 516.57,-205.56 516.57,-199.56 516.57,-199.56 516.57,-177 516.57,-177 516.57,-171 522.57,-165 528.57,-165 528.57,-165 728.68,-165 728.68,-165 734.68,-165 740.68,-171 740.68,-177 740.68,-177 740.68,-199.56 740.68,-199.56 740.68,-205.56 734.68,-211.56 728.68,-211.56"/>
<text xml:space="preserve" text-anchor="middle" x="628.62" y="-192.48" font-family="Noto Sans CJK KR" font-size="14.00" fill="#182033">Requested</text>
<text xml:space="preserve" text-anchor="middle" x="628.62" y="-175.68" font-family="Noto Sans CJK KR" font-size="14.00" fill="#182033">public Operation | Bundle + Context</text>
</g>
<!-- Registered&#45;&gt;Requested -->
<g id="edge2" class="edge">
<title>Registered&#45;&gt;Requested</title>
<path fill="none" stroke="#59687e" stroke-width="1.3" d="M277.63,-134.11C277.63,-157.04 277.63,-188.28 277.63,-188.28 277.63,-188.28 506.15,-188.28 506.15,-188.28"/>
<polygon fill="#59687e" stroke="#59687e" stroke-width="1.3" points="506.15,-191.08 514.15,-188.28 506.15,-185.48 506.15,-191.08"/>
<text xml:space="preserve" text-anchor="middle" x="431.14" y="-152.48" font-family="Noto Sans CJK KR" font-size="14.00" fill="#46566e">skill / status / reaction</text>
</g>
<!-- WaitingTrigger -->
<g id="node12" class="node">
<title>WaitingTrigger</title>
<path fill="#f0f3f9" stroke="#99a8bd" stroke-width="1.4" d="M911.99,-46.56C911.99,-46.56 776.68,-46.56 776.68,-46.56 770.68,-46.56 764.68,-40.56 764.68,-34.56 764.68,-34.56 764.68,-12 764.68,-12 764.68,-6 770.68,0 776.68,0 776.68,0 911.99,0 911.99,0 917.99,0 923.99,-6 923.99,-12 923.99,-12 923.99,-34.56 923.99,-34.56 923.99,-40.56 917.99,-46.56 911.99,-46.56"/>
<text xml:space="preserve" text-anchor="middle" x="844.33" y="-27.48" font-family="Noto Sans CJK KR" font-size="14.00" fill="#182033">Waiting Trigger</text>
<text xml:space="preserve" text-anchor="middle" x="844.33" y="-10.68" font-family="Noto Sans CJK KR" font-size="14.00" fill="#182033">committed fact predicate</text>
</g>
<!-- Registered&#45;&gt;WaitingTrigger -->
<g id="edge16" class="edge">
<title>Registered&#45;&gt;WaitingTrigger</title>
<path fill="none" stroke="#59687e" stroke-width="1.3" d="M346.28,-91.39C491.95,-91.39 817.63,-91.39 817.63,-91.39 817.63,-91.39 817.63,-57.07 817.63,-57.07"/>
<polygon fill="#59687e" stroke="#59687e" stroke-width="1.3" points="820.43,-57.07 817.63,-49.07 814.83,-57.07 820.43,-57.07"/>
<text xml:space="preserve" text-anchor="middle" x="431.14" y="-86.48" font-family="Noto Sans CJK KR" font-size="14.00" fill="#46566e">reaction definition</text>
</g>
<!-- Validating -->
<g id="node4" class="node">
<title>Validating</title>
<path fill="#f3eefc" stroke="#ab8fe0" stroke-width="1.4" d="M1084.05,-333.56C1084.05,-333.56 971.25,-333.56 971.25,-333.56 965.25,-333.56 959.25,-327.56 959.25,-321.56 959.25,-321.56 959.25,-299 959.25,-299 959.25,-293 965.25,-287 971.25,-287 971.25,-287 1084.05,-287 1084.05,-287 1090.05,-287 1096.05,-293 1096.05,-299 1096.05,-299 1096.05,-321.56 1096.05,-321.56 1096.05,-327.56 1090.05,-333.56 1084.05,-333.56"/>
<text xml:space="preserve" text-anchor="middle" x="1027.65" y="-314.48" font-family="Noto Sans CJK KR" font-size="14.00" fill="#182033">Validating</text>
<text xml:space="preserve" text-anchor="middle" x="1027.65" y="-297.68" font-family="Noto Sans CJK KR" font-size="14.00" fill="#182033">conditions</text>
</g>
<!-- Requested&#45;&gt;Validating -->
<g id="edge3" class="edge">
<title>Requested&#45;&gt;Validating</title>
<path fill="none" stroke="#59687e" stroke-width="1.3" d="M665.63,-212.09C665.63,-247.6 665.63,-310.28 665.63,-310.28 665.63,-310.28 948.74,-310.28 948.74,-310.28"/>
<polygon fill="#59687e" stroke="#59687e" stroke-width="1.3" points="948.74,-313.08 956.74,-310.28 948.74,-307.48 948.74,-313.08"/>
</g>
<!-- Scheduled -->
<g id="node11" class="node">
<title>Scheduled</title>
<path fill="#f0f3f9" stroke="#99a8bd" stroke-width="1.4" d="M1095.32,-212.56C1095.32,-212.56 959.99,-212.56 959.99,-212.56 953.99,-212.56 947.99,-206.56 947.99,-200.56 947.99,-200.56 947.99,-178 947.99,-178 947.99,-172 953.99,-166 959.99,-166 959.99,-166 1095.32,-166 1095.32,-166 1101.32,-166 1107.32,-172 1107.32,-178 1107.32,-178 1107.32,-200.56 1107.32,-200.56 1107.32,-206.56 1101.32,-212.56 1095.32,-212.56"/>
<text xml:space="preserve" text-anchor="middle" x="1027.65" y="-193.48" font-family="Noto Sans CJK KR" font-size="14.00" fill="#182033">Scheduled</text>
<text xml:space="preserve" text-anchor="middle" x="1027.65" y="-176.68" font-family="Noto Sans CJK KR" font-size="14.00" fill="#182033">delay / periodic due time</text>
</g>
<!-- Requested&#45;&gt;Scheduled -->
<g id="edge14" class="edge">
<title>Requested&#45;&gt;Scheduled</title>
<path fill="none" stroke="#59687e" stroke-width="1.3" d="M741.37,-196.37C741.37,-196.37 937.5,-196.37 937.5,-196.37"/>
<polygon fill="#59687e" stroke="#59687e" stroke-width="1.3" points="937.5,-199.17 945.5,-196.37 937.5,-193.57 937.5,-199.17"/>
<text xml:space="preserve" text-anchor="middle" x="844.33" y="-164.48" font-family="Noto Sans CJK KR" font-size="14.00" fill="#46566e">delay / periodic</text>
</g>
<!-- Cancelled -->
<g id="node13" class="node">
<title>Cancelled</title>
<path fill="#fff0f3" stroke="#e07b91" stroke-width="1.4" d="M1315.87,-420.56C1315.87,-420.56 1203.07,-420.56 1203.07,-420.56 1197.07,-420.56 1191.07,-414.56 1191.07,-408.56 1191.07,-408.56 1191.07,-386 1191.07,-386 1191.07,-380 1197.07,-374 1203.07,-374 1203.07,-374 1315.87,-374 1315.87,-374 1321.87,-374 1327.87,-380 1327.87,-386 1327.87,-386 1327.87,-408.56 1327.87,-408.56 1327.87,-414.56 1321.87,-420.56 1315.87,-420.56"/>
<text xml:space="preserve" text-anchor="middle" x="1259.47" y="-401.48" font-family="Noto Sans CJK KR" font-size="14.00" fill="#182033">Cancelled</text>
<text xml:space="preserve" text-anchor="middle" x="1259.47" y="-384.68" font-family="Noto Sans CJK KR" font-size="14.00" fill="#182033">before Prepare</text>
</g>
<!-- Requested&#45;&gt;Cancelled -->
<g id="edge12" class="edge">
<title>Requested&#45;&gt;Cancelled</title>
<path fill="none" stroke="#59687e" stroke-width="1.3" d="M591.63,-212.25C591.63,-267.15 591.63,-397.28 591.63,-397.28 591.63,-397.28 1180.54,-397.28 1180.54,-397.28"/>
<polygon fill="#59687e" stroke="#59687e" stroke-width="1.3" points="1180.54,-400.08 1188.54,-397.28 1180.54,-394.48 1180.54,-400.08"/>
<text xml:space="preserve" text-anchor="middle" x="1027.65" y="-423.48" font-family="Noto Sans CJK KR" font-size="14.00" fill="#46566e">cancel</text>
</g>
<!-- ResolvingTargets -->
<g id="node5" class="node">
<title>ResolvingTargets</title>
<path fill="#f3eefc" stroke="#ab8fe0" stroke-width="1.4" d="M1315.87,-268.56C1315.87,-268.56 1203.07,-268.56 1203.07,-268.56 1197.07,-268.56 1191.07,-262.56 1191.07,-256.56 1191.07,-256.56 1191.07,-234 1191.07,-234 1191.07,-228 1197.07,-222 1203.07,-222 1203.07,-222 1315.87,-222 1315.87,-222 1321.87,-222 1327.87,-228 1327.87,-234 1327.87,-234 1327.87,-256.56 1327.87,-256.56 1327.87,-262.56 1321.87,-268.56 1315.87,-268.56"/>
<text xml:space="preserve" text-anchor="middle" x="1259.47" y="-249.48" font-family="Noto Sans CJK KR" font-size="14.00" fill="#182033">Resolving Targets</text>
<text xml:space="preserve" text-anchor="middle" x="1259.47" y="-232.68" font-family="Noto Sans CJK KR" font-size="14.00" fill="#182033">filter + stable sort</text>
</g>
<!-- Validating&#45;&gt;ResolvingTargets -->
<g id="edge4" class="edge">
<title>Validating&#45;&gt;ResolvingTargets</title>
<path fill="none" stroke="#59687e" stroke-width="1.3" d="M1096.65,-298.64C1172.17,-298.64 1282.63,-298.64 1282.63,-298.64 1282.63,-298.64 1282.63,-279.12 1282.63,-279.12"/>
<polygon fill="#59687e" stroke="#59687e" stroke-width="1.3" points="1285.43,-279.12 1282.63,-271.12 1279.83,-279.12 1285.43,-279.12"/>
</g>
<!-- Validating&#45;&gt;Cancelled -->
<g id="edge13" class="edge">
<title>Validating&#45;&gt;Cancelled</title>
<path fill="none" stroke="#59687e" stroke-width="1.3" d="M1096.66,-321.92C1157.53,-321.92 1236.63,-321.92 1236.63,-321.92 1236.63,-321.92 1236.63,-363.47 1236.63,-363.47"/>
<polygon fill="#59687e" stroke="#59687e" stroke-width="1.3" points="1233.83,-363.47 1236.63,-371.47 1239.43,-363.47 1233.83,-363.47"/>
<text xml:space="preserve" text-anchor="middle" x="1149.19" y="-383.48" font-family="Noto Sans CJK KR" font-size="14.00" fill="#46566e">cancel</text>
</g>
<!-- Failed -->
<g id="node14" class="node">
<title>Failed</title>
<path fill="#fff0f3" stroke="#e07b91" stroke-width="1.4" d="M2473.65,-273.56C2473.65,-273.56 2325.09,-273.56 2325.09,-273.56 2319.09,-273.56 2313.09,-267.56 2313.09,-261.56 2313.09,-261.56 2313.09,-239 2313.09,-239 2313.09,-233 2319.09,-227 2325.09,-227 2325.09,-227 2473.65,-227 2473.65,-227 2479.65,-227 2485.65,-233 2485.65,-239 2485.65,-239 2485.65,-261.56 2485.65,-261.56 2485.65,-267.56 2479.65,-273.56 2473.65,-273.56"/>
<text xml:space="preserve" text-anchor="middle" x="2399.37" y="-254.48" font-family="Noto Sans CJK KR" font-size="14.00" fill="#182033">Failed</text>
<text xml:space="preserve" text-anchor="middle" x="2399.37" y="-237.68" font-family="Noto Sans CJK KR" font-size="14.00" fill="#182033">validation / target / commit</text>
</g>
<!-- Validating&#45;&gt;Failed -->
<g id="edge9" class="edge">
<title>Validating&#45;&gt;Failed</title>
<path fill="none" stroke="#59687e" stroke-width="1.3" d="M1096.63,-310.28C1374.84,-310.28 2399.63,-310.28 2399.63,-310.28 2399.63,-310.28 2399.63,-283.96 2399.63,-283.96"/>
<polygon fill="#59687e" stroke="#59687e" stroke-width="1.3" points="2402.43,-283.96 2399.63,-275.96 2396.83,-283.96 2402.43,-283.96"/>
<text xml:space="preserve" text-anchor="middle" x="1613.59" y="-325.48" font-family="Noto Sans CJK KR" font-size="14.00" fill="#46566e">condition fail</text>
</g>
<!-- Planning -->
<g id="node6" class="node">
<title>Planning</title>
<path fill="#eefbf6" stroke="#61b99a" stroke-width="1.4" d="M1510.73,-189.56C1510.73,-189.56 1388.87,-189.56 1388.87,-189.56 1382.87,-189.56 1376.87,-183.56 1376.87,-177.56 1376.87,-177.56 1376.87,-155 1376.87,-155 1376.87,-149 1382.87,-143 1388.87,-143 1388.87,-143 1510.73,-143 1510.73,-143 1516.73,-143 1522.73,-149 1522.73,-155 1522.73,-155 1522.73,-177.56 1522.73,-177.56 1522.73,-183.56 1516.73,-189.56 1510.73,-189.56"/>
<text xml:space="preserve" text-anchor="middle" x="1449.8" y="-170.48" font-family="Noto Sans CJK KR" font-size="14.00" fill="#182033">Planning (internal)</text>
<text xml:space="preserve" text-anchor="middle" x="1449.8" y="-153.68" font-family="Noto Sans CJK KR" font-size="14.00" fill="#182033">requests + pure results</text>
</g>
<!-- ResolvingTargets&#45;&gt;Planning -->
<g id="edge5" class="edge">
<title>ResolvingTargets&#45;&gt;Planning</title>
<path fill="none" stroke="#59687e" stroke-width="1.3" d="M1259.63,-221.67C1259.63,-202.21 1259.63,-177.78 1259.63,-177.78 1259.63,-177.78 1366.3,-177.78 1366.3,-177.78"/>
<polygon fill="#59687e" stroke="#59687e" stroke-width="1.3" points="1366.3,-180.58 1374.3,-177.78 1366.3,-174.98 1366.3,-180.58"/>
</g>
<!-- ResolvingTargets&#45;&gt;Failed -->
<g id="edge10" class="edge">
<title>ResolvingTargets&#45;&gt;Failed</title>
<path fill="none" stroke="#59687e" stroke-width="1.3" d="M1328.21,-247.78C1328.21,-247.78 2302.7,-247.78 2302.7,-247.78"/>
<polygon fill="#59687e" stroke="#59687e" stroke-width="1.3" points="2302.7,-250.58 2310.7,-247.78 2302.7,-244.98 2302.7,-250.58"/>
<text xml:space="preserve" text-anchor="middle" x="1829.86" y="-254.48" font-family="Noto Sans CJK KR" font-size="14.00" fill="#46566e">no target</text>
</g>
<!-- Prepared -->
<g id="node7" class="node">
<title>Prepared</title>
<path fill="#e9fbff" stroke="#54b7cf" stroke-width="1.4" d="M1943.27,-180.56C1943.27,-180.56 1716.45,-180.56 1716.45,-180.56 1710.45,-180.56 1704.45,-174.56 1704.45,-168.56 1704.45,-168.56 1704.45,-146 1704.45,-146 1704.45,-140 1710.45,-134 1716.45,-134 1716.45,-134 1943.27,-134 1943.27,-134 1949.27,-134 1955.27,-140 1955.27,-146 1955.27,-146 1955.27,-168.56 1955.27,-168.56 1955.27,-174.56 1949.27,-180.56 1943.27,-180.56"/>
<text xml:space="preserve" text-anchor="middle" x="1829.86" y="-161.48" font-family="Noto Sans CJK KR" font-size="14.00" fill="#182033">Prepared (public composition contract)</text>
<text xml:space="preserve" text-anchor="middle" x="1829.86" y="-144.68" font-family="Noto Sans CJK KR" font-size="14.00" fill="#182033">EffectBundlePlan: operations + reactions</text>
</g>
<!-- Planning&#45;&gt;Prepared -->
<g id="edge6" class="edge">
<title>Planning&#45;&gt;Prepared</title>
<path fill="none" stroke="#59687e" stroke-width="1.3" d="M1523.08,-161.78C1523.08,-161.78 1694.08,-161.78 1694.08,-161.78"/>
<polygon fill="#59687e" stroke="#59687e" stroke-width="1.3" points="1694.08,-164.58 1702.08,-161.78 1694.08,-158.98 1694.08,-164.58"/>
</g>
<!-- Committing -->
<g id="node8" class="node">
<title>Committing</title>
<path fill="#fff7e6" stroke="#e0ad4e" stroke-width="1.4" d="M2129.07,-180.56C2129.07,-180.56 2016.27,-180.56 2016.27,-180.56 2010.27,-180.56 2004.27,-174.56 2004.27,-168.56 2004.27,-168.56 2004.27,-146 2004.27,-146 2004.27,-140 2010.27,-134 2016.27,-134 2016.27,-134 2129.07,-134 2129.07,-134 2135.07,-134 2141.07,-140 2141.07,-146 2141.07,-146 2141.07,-168.56 2141.07,-168.56 2141.07,-174.56 2135.07,-180.56 2129.07,-180.56"/>
<text xml:space="preserve" text-anchor="middle" x="2072.67" y="-161.48" font-family="Noto Sans CJK KR" font-size="14.00" fill="#182033">Atomic Commit</text>
<text xml:space="preserve" text-anchor="middle" x="2072.67" y="-144.68" font-family="Noto Sans CJK KR" font-size="14.00" fill="#182033">state + outbox</text>
</g>
<!-- Prepared&#45;&gt;Committing -->
<g id="edge7" class="edge">
<title>Prepared&#45;&gt;Committing</title>
<path fill="none" stroke="#59687e" stroke-width="1.3" d="M1955.89,-157.28C1955.89,-157.28 1993.89,-157.28 1993.89,-157.28"/>
<polygon fill="#59687e" stroke="#59687e" stroke-width="1.3" points="1993.89,-160.08 2001.89,-157.28 1993.89,-154.48 1993.89,-160.08"/>
</g>
<!-- Committed -->
<g id="node9" class="node">
<title>Committed</title>
<path fill="#eefbf6" stroke="#61b99a" stroke-width="1.4" d="M2455.77,-180.56C2455.77,-180.56 2342.97,-180.56 2342.97,-180.56 2336.97,-180.56 2330.97,-174.56 2330.97,-168.56 2330.97,-168.56 2330.97,-146 2330.97,-146 2330.97,-140 2336.97,-134 2342.97,-134 2342.97,-134 2455.77,-134 2455.77,-134 2461.77,-134 2467.77,-140 2467.77,-146 2467.77,-146 2467.77,-168.56 2467.77,-168.56 2467.77,-174.56 2461.77,-180.56 2455.77,-180.56"/>
<text xml:space="preserve" text-anchor="middle" x="2399.37" y="-161.48" font-family="Noto Sans CJK KR" font-size="14.00" fill="#182033">Committed</text>
<text xml:space="preserve" text-anchor="middle" x="2399.37" y="-144.68" font-family="Noto Sans CJK KR" font-size="14.00" fill="#182033">EffectResult + facts</text>
</g>
<!-- Committing&#45;&gt;Committed -->
<g id="edge8" class="edge">
<title>Committing&#45;&gt;Committed</title>
<path fill="none" stroke="#59687e" stroke-width="1.3" d="M2141.55,-149.52C2141.55,-149.52 2320.33,-149.52 2320.33,-149.52"/>
<polygon fill="#59687e" stroke="#59687e" stroke-width="1.3" points="2320.33,-152.32 2328.33,-149.52 2320.33,-146.72 2320.33,-152.32"/>
</g>
<!-- Committing&#45;&gt;Failed -->
<g id="edge11" class="edge">
<title>Committing&#45;&gt;Failed</title>
<path fill="none" stroke="#59687e" stroke-width="1.3" d="M2141.69,-165.04C2215.36,-165.04 2321.63,-165.04 2321.63,-165.04 2321.63,-165.04 2321.63,-216.57 2321.63,-216.57"/>
<polygon fill="#59687e" stroke="#59687e" stroke-width="1.3" points="2318.83,-216.57 2321.63,-224.57 2324.43,-216.57 2318.83,-216.57"/>
<text xml:space="preserve" text-anchor="middle" x="2227.08" y="-214.48" font-family="Noto Sans CJK KR" font-size="14.00" fill="#46566e">version / invariant fail</text>
</g>
<!-- ReactionQueued -->
<g id="node10" class="node">
<title>ReactionQueued</title>
<path fill="#f3eefc" stroke="#ab8fe0" stroke-width="1.4" d="M2783.63,-104.56C2783.63,-104.56 2653.72,-104.56 2653.72,-104.56 2647.72,-104.56 2641.72,-98.56 2641.72,-92.56 2641.72,-92.56 2641.72,-70 2641.72,-70 2641.72,-64 2647.72,-58 2653.72,-58 2653.72,-58 2783.63,-58 2783.63,-58 2789.63,-58 2795.63,-64 2795.63,-70 2795.63,-70 2795.63,-92.56 2795.63,-92.56 2795.63,-98.56 2789.63,-104.56 2783.63,-104.56"/>
<text xml:space="preserve" text-anchor="middle" x="2718.68" y="-85.48" font-family="Noto Sans CJK KR" font-size="14.00" fill="#182033">Reaction Queued</text>
<text xml:space="preserve" text-anchor="middle" x="2718.68" y="-68.68" font-family="Noto Sans CJK KR" font-size="14.00" fill="#182033">new bounded command</text>
</g>
<!-- Committed&#45;&gt;ReactionQueued -->
<g id="edge19" class="edge">
<title>Committed&#45;&gt;ReactionQueued</title>
<path fill="none" stroke="#59687e" stroke-width="1.3" d="M2399.63,-133.39C2399.63,-117.74 2399.63,-100.17 2399.63,-100.17 2399.63,-100.17 2631.07,-100.17 2631.07,-100.17"/>
<polygon fill="#59687e" stroke="#59687e" stroke-width="1.3" points="2631.07,-102.97 2639.07,-100.17 2631.07,-97.37 2631.07,-102.97"/>
<text xml:space="preserve" text-anchor="middle" x="2563.69" y="-152.48" font-family="Noto Sans CJK KR" font-size="14.00" fill="#46566e">commit_then_react</text>
</g>
<!-- Logged -->
<g id="node15" class="node">
<title>Logged</title>
<path fill="#f3eefc" stroke="#ab8fe0" stroke-width="1.4" d="M2778.57,-273.56C2778.57,-273.56 2658.78,-273.56 2658.78,-273.56 2652.78,-273.56 2646.78,-267.56 2646.78,-261.56 2646.78,-261.56 2646.78,-239 2646.78,-239 2646.78,-233 2652.78,-227 2658.78,-227 2658.78,-227 2778.57,-227 2778.57,-227 2784.57,-227 2790.57,-233 2790.57,-239 2790.57,-239 2790.57,-261.56 2790.57,-261.56 2790.57,-267.56 2784.57,-273.56 2778.57,-273.56"/>
<text xml:space="preserve" text-anchor="middle" x="2718.68" y="-254.48" font-family="Noto Sans CJK KR" font-size="14.00" fill="#182033">Observed</text>
<text xml:space="preserve" text-anchor="middle" x="2718.68" y="-237.68" font-family="Noto Sans CJK KR" font-size="14.00" fill="#182033">DebugTrace / UI / log</text>
</g>
<!-- Committed&#45;&gt;Logged -->
<g id="edge20" class="edge">
<title>Committed&#45;&gt;Logged</title>
<path fill="none" stroke="#59687e" stroke-width="1.3" d="M2468.25,-157.28C2562.1,-157.28 2718.63,-157.28 2718.63,-157.28 2718.63,-157.28 2718.63,-216.36 2718.63,-216.36"/>
<polygon fill="#59687e" stroke="#59687e" stroke-width="1.3" points="2715.83,-216.36 2718.63,-224.36 2721.43,-216.36 2715.83,-216.36"/>
</g>
<!-- ReactionQueued&#45;&gt;Requested -->
<g id="edge18" class="edge">
<title>ReactionQueued&#45;&gt;Requested</title>
<path fill="none" stroke="#59687e" stroke-width="1.3" d="M2641.18,-95.78C2262.93,-95.78 628.63,-95.78 628.63,-95.78 628.63,-95.78 628.63,-154.49 628.63,-154.49"/>
<polygon fill="#59687e" stroke="#59687e" stroke-width="1.3" points="625.83,-154.49 628.63,-162.49 631.43,-154.49 625.83,-154.49"/>
<text xml:space="preserve" text-anchor="middle" x="1613.59" y="-85.48" font-family="Noto Sans CJK KR" font-size="14.00" fill="#46566e">dequeue command</text>
</g>
<!-- Scheduled&#45;&gt;Requested -->
<g id="edge15" class="edge">
<title>Scheduled&#45;&gt;Requested</title>
<path fill="none" stroke="#59687e" stroke-width="1.3" d="M947.39,-181.19C947.39,-181.19 751.23,-181.19 751.23,-181.19"/>
<polygon fill="#59687e" stroke="#59687e" stroke-width="1.3" points="751.23,-178.39 743.23,-181.19 751.23,-183.99 751.23,-178.39"/>
<text xml:space="preserve" text-anchor="middle" x="844.33" y="-221.48" font-family="Noto Sans CJK KR" font-size="14.00" fill="#46566e">due</text>
</g>
<!-- WaitingTrigger&#45;&gt;ReactionQueued -->
<g id="edge17" class="edge">
<title>WaitingTrigger&#45;&gt;ReactionQueued</title>
<path fill="none" stroke="#59687e" stroke-width="1.3" d="M870.63,-47.02C870.63,-59.61 870.63,-72.5 870.63,-72.5 870.63,-72.5 2631.07,-72.5 2631.07,-72.5"/>
<polygon fill="#59687e" stroke="#59687e" stroke-width="1.3" points="2631.07,-75.3 2639.07,-72.5 2631.07,-69.7 2631.07,-75.3"/>
<text xml:space="preserve" text-anchor="middle" x="1613.59" y="-14.48" font-family="Noto Sans CJK KR" font-size="14.00" fill="#46566e">committed fact matches</text>
</g>
<!-- Cancelled&#45;&gt;Logged -->
<g id="edge22" class="edge">
<title>Cancelled&#45;&gt;Logged</title>
<path fill="none" stroke="#59687e" stroke-width="1.3" d="M1328.37,-397.28C1617.61,-397.28 2718.63,-397.28 2718.63,-397.28 2718.63,-397.28 2718.63,-284.19 2718.63,-284.19"/>
<polygon fill="#59687e" stroke="#59687e" stroke-width="1.3" points="2721.43,-284.19 2718.63,-276.19 2715.83,-284.19 2721.43,-284.19"/>
</g>
<!-- Failed&#45;&gt;Logged -->
<g id="edge21" class="edge">
<title>Failed&#45;&gt;Logged</title>
<path fill="none" stroke="#59687e" stroke-width="1.3" d="M2486.2,-250.28C2486.2,-250.28 2636.2,-250.28 2636.2,-250.28"/>
<polygon fill="#59687e" stroke="#59687e" stroke-width="1.3" points="2636.2,-253.08 2644.2,-250.28 2636.2,-247.48 2636.2,-253.08"/>
</g>
</g>
</svg>
