<?xml version="1.0" encoding="UTF-8" standalone="no"?>
<!DOCTYPE svg PUBLIC "-//W3C//DTD SVG 1.1//EN"
 "http://www.w3.org/Graphics/SVG/1.1/DTD/svg11.dtd">
<!-- Generated by graphviz version 15.1.0 (20260618.0150)
 -->
<!-- Title: G Pages: 1 -->
<svg width="2351pt" height="1881pt"
 viewBox="12.00 12.00 2339.00 1869.00" xmlns="http://www.w3.org/2000/svg" xmlns:xlink="http://www.w3.org/1999/xlink">
<g id="graph0" class="graph" transform="scale(1.33333 1.33333) rotate(0) translate(30.24 1380.47)">
<title>G</title>
<polygon fill="#ffffff" stroke="none" points="-21.6,21.6 -21.6,-1371.83 1724.25,-1371.83 1724.25,21.6 -21.6,21.6"/>
<text xml:space="preserve" text-anchor="middle" x="851.33" y="-1331.03" font-family="Noto Sans KR" font-size="16.00">Conceptual product lifecycle · executable reference handoffs are named explicitly</text>
<!-- Defined&#45;&gt;Registered -->
<g id="edge1" class="edge">
<title>Defined:s&#45;&gt;Registered:n</title>
<path fill="none" stroke="#8a6d3b" stroke-width="1.3" d="M725.4,-1274.52C725.4,-1274.52 725.4,-1232.75 725.4,-1213.18"/>
<polygon fill="#8a6d3b" stroke="#8a6d3b" stroke-width="1.3" points="728.2,-1213.24 725.4,-1205.24 722.6,-1213.24 728.2,-1213.24"/>
<text xml:space="preserve" text-anchor="middle" x="772.65" y="-1235.97" font-family="Noto Sans KR" font-size="9.00" fill="#46566e">load validated definition</text>
</g>
<!-- Registered&#45;&gt;Requested -->
<g id="edge2" class="edge">
<title>Registered:s&#45;&gt;Requested:n</title>
<path fill="none" stroke="#5b6f8f" stroke-width="1.3" d="M725.4,-1155.81C725.4,-1155.81 548.5,-1100.77 505.66,-1087.44"/>
<polygon fill="#5b6f8f" stroke="#5b6f8f" stroke-width="1.3" points="506.75,-1084.85 498.28,-1085.14 505.09,-1090.19 506.75,-1084.85"/>
<text xml:space="preserve" text-anchor="middle" x="678.24" y="-1117.26" font-family="Noto Sans KR" font-size="9.00" fill="#46566e">create specification request</text>
</g>
<!-- Registered&#45;&gt;WaitingTrigger -->
<g id="edge24" class="edge">
<title>Registered:e&#45;&gt;WaitingTrigger:w</title>
<path fill="none" stroke="#7257a6" stroke-width="1.3" d="M834.48,-1179.54C834.48,-1179.54 1030.4,-1211.54 1030.4,-1211.54 1030.4,-1211.54 1132.4,-1211.54 1132.4,-1211.54 1132.4,-1211.54 1263.61,-1190.11 1311.28,-1182.32"/>
<polygon fill="#7257a6" stroke="#7257a6" stroke-width="1.3" points="1318.93,-1183.91 1326.38,-1179.86 1318.03,-1178.38 1318.93,-1183.91"/>
<text xml:space="preserve" text-anchor="middle" x="1081.4" y="-1214.24" font-family="Noto Sans KR" font-size="9.00" fill="#46566e">register reaction predicate</text>
</g>
<!-- Requested&#45;&gt;SnapshotReady -->
<g id="edge3" class="edge">
<title>Requested:s&#45;&gt;SnapshotReady:n</title>
<path fill="none" stroke="#5b6f8f" stroke-width="1.3" d="M496.4,-1018.85C496.4,-1018.85 594.61,-1019.85 594.61,-1019.85 594.61,-1019.85 711.4,-1084.56 711.4,-1084.56 711.4,-1084.56 818.15,-1114.48 818.15,-1114.48 818.15,-1114.48 882.65,-1114.48 882.65,-1114.48 882.65,-1114.48 1070.17,-1091.37 1115.58,-1085.77"/>
<polygon fill="#5b6f8f" stroke="#5b6f8f" stroke-width="1.3" points="1115.85,-1088.56 1123.45,-1084.8 1115.16,-1083 1115.85,-1088.56"/>
<text xml:space="preserve" text-anchor="middle" x="850.4" y="-1117.26" font-family="Noto Sans KR" font-size="9.00" fill="#46566e">candidate mode</text>
</g>
<!-- Requested&#45;&gt;Validating -->
<g id="edge4" class="edge">
<title>Requested:e&#45;&gt;Validating:w</title>
<path fill="none" stroke="#5b6f8f" stroke-width="1.3" d="M595.61,-1052.21C595.61,-1052.21 594.61,-1019.85 594.61,-1019.85 594.61,-1019.85 504.15,-989.85 504.15,-989.85 504.15,-989.85 504.15,-978.6 504.15,-978.6 504.15,-978.6 933.95,-933.32 1004.46,-925.9"/>
<polygon fill="#5b6f8f" stroke="#5b6f8f" stroke-width="1.3" points="1004.58,-928.7 1012.24,-925.08 1003.99,-923.13 1004.58,-928.7"/>
<text xml:space="preserve" text-anchor="middle" x="529.27" y="-981.3" font-family="Noto Sans KR" font-size="9.00" fill="#46566e">Self / Explicit</text>
</g>
<!-- Requested&#45;&gt;Scheduled -->
<g id="edge22" class="edge">
<title>Requested:ne&#45;&gt;Scheduled:nw</title>
<path fill="none" stroke="#5b6f8f" stroke-width="1.3" d="M593.61,-1084.56C593.61,-1084.56 710.59,-1084.21 710.59,-1084.21 710.59,-1084.21 717.29,-1082.39 724.4,-1080.46"/>
<polygon fill="#5b6f8f" stroke="#5b6f8f" stroke-width="1.3" points="732.18,-1081.25 739.17,-1076.45 730.72,-1075.84 732.18,-1081.25"/>
<text xml:space="preserve" text-anchor="middle" x="667.84" y="-1087.16" font-family="Noto Sans KR" font-size="9.00" fill="#46566e">product scheduling</text>
</g>
<!-- Requested&#45;&gt;Cancelled -->
<g id="edge20" class="edge">
<title>Requested:e&#45;&gt;Cancelled:n</title>
<path fill="none" stroke="#c45c6d" stroke-width="1.3" stroke-dasharray="5,2" d="M595.61,-1052.21C595.61,-1052.21 594.61,-1019.85 594.61,-1019.85 594.61,-1019.85 567.35,-975.93 555.64,-957.05"/>
<polygon fill="#c45c6d" stroke="#c45c6d" stroke-width="1.3" points="558.03,-955.59 551.44,-950.27 553.28,-958.55 558.03,-955.59"/>
<text xml:space="preserve" text-anchor="middle" x="621.65" y="-981.3" font-family="Noto Sans KR" font-size="9.00" fill="#46566e">cancel before validation</text>
</g>
<!-- SnapshotReady&#45;&gt;Validating -->
<g id="edge5" class="edge">
<title>SnapshotReady:s&#45;&gt;Validating:n</title>
<path fill="none" stroke="#59687e" stroke-width="1.3" d="M1125.4,-1019.85C1125.4,-1019.85 1125.4,-978.08 1125.4,-958.51"/>
<polygon fill="#59687e" stroke="#59687e" stroke-width="1.3" points="1128.2,-958.57 1125.4,-950.57 1122.6,-958.57 1128.2,-958.57"/>
</g>
<!-- Validating&#45;&gt;ResolvingTargets -->
<g id="edge6" class="edge">
<title>Validating:s&#45;&gt;ResolvingTargets:n</title>
<path fill="none" stroke="#59687e" stroke-width="1.3" d="M1125.4,-901.14C1125.4,-901.14 931.34,-853.6 885.86,-842.46"/>
<polygon fill="#59687e" stroke="#59687e" stroke-width="1.3" points="886.75,-839.79 878.31,-840.61 885.42,-845.23 886.75,-839.79"/>
</g>
<!-- Validating&#45;&gt;Cancelled -->
<g id="edge21" class="edge">
<title>Validating:e&#45;&gt;Cancelled:w</title>
<path fill="none" stroke="#c45c6d" stroke-width="1.3" stroke-dasharray="5,2" d="M1236.61,-924.87C1236.61,-924.87 1235.61,-948.6 1235.61,-948.6 1235.61,-948.6 1015.19,-948.6 1015.19,-948.6 1015.19,-948.6 881.21,-876.62 881.21,-876.62 881.21,-876.62 787.46,-876.62 787.46,-876.62 787.46,-876.62 653.48,-948.6 653.48,-948.6 653.48,-948.6 447.32,-948.6 447.32,-948.6 447.32,-948.6 447.2,-945.8 447.05,-942.12"/>
<polygon fill="#c45c6d" stroke="#c45c6d" stroke-width="1.3" points="449.54,-934.71 446.4,-926.84 443.94,-934.95 449.54,-934.71"/>
<text xml:space="preserve" text-anchor="middle" x="834.34" y="-879.32" font-family="Noto Sans KR" font-size="9.00" fill="#46566e">cancel during validation</text>
</g>
<!-- Validating&#45;&gt;Failed -->
<g id="edge17" class="edge">
<title>Validating:e&#45;&gt;Failed:nw</title>
<path fill="none" stroke="#c45c6d" stroke-width="1.3" stroke-dasharray="5,2" d="M1236.61,-924.87C1236.61,-924.87 1288.4,-808.79 1288.4,-808.79 1288.4,-808.79 1288.4,-808.79 1288.4,-375.09 1288.4,-375.09 1029.4,-304.63 1029.4,-304.63 1029.4,-304.63 863.27,-281.76 821.09,-275.96"/>
<polygon fill="#c45c6d" stroke="#c45c6d" stroke-width="1.3" points="821.7,-273.22 813.39,-274.9 820.94,-278.76 821.7,-273.22"/>
<text xml:space="preserve" text-anchor="middle" x="1338.65" y="-591.44" font-family="Noto Sans KR" font-size="9.00" fill="#46566e">invalid specification / rule</text>
</g>
<!-- ResolvingTargets&#45;&gt;Resolved -->
<g id="edge7" class="edge">
<title>ResolvingTargets:s&#45;&gt;Resolved:n</title>
<path fill="none" stroke="#59687e" stroke-width="1.3" d="M876.4,-775.43C876.4,-775.43 732.01,-721.85 693.66,-707.62"/>
<polygon fill="#59687e" stroke="#59687e" stroke-width="1.3" points="694.72,-705.02 686.24,-704.86 692.77,-710.27 694.72,-705.02"/>
</g>
<!-- ResolvingTargets&#45;&gt;NotApplicable -->
<g id="edge10" class="edge">
<title>ResolvingTargets:e&#45;&gt;NotApplicable:w</title>
<path fill="none" stroke="#8292a8" stroke-width="1.3" stroke-dasharray="5,2" d="M1010.48,-807.79C1010.48,-807.79 1009.48,-775.43 1009.48,-775.43 1009.48,-775.43 919.4,-745.43 919.4,-745.43 919.4,-745.43 843.4,-656.72 843.4,-656.72 843.4,-656.72 815.19,-626.72 815.19,-626.72 815.19,-626.72 814.79,-613.76 814.5,-604.25"/>
<polygon fill="#8292a8" stroke="#8292a8" stroke-width="1.3" points="817.3,-604.24 814.26,-596.33 811.7,-604.41 817.3,-604.24"/>
<text xml:space="preserve" text-anchor="middle" x="985.4" y="-736.88" font-family="Noto Sans KR" font-size="9.00" fill="#46566e">missing explicit / empty snapshot</text>
</g>
<!-- ResolvingTargets&#45;&gt;Failed -->
<g id="edge18" class="edge">
<title>ResolvingTargets:e&#45;&gt;Failed:w</title>
<path fill="none" stroke="#c45c6d" stroke-width="1.3" stroke-dasharray="5,2" d="M1010.48,-807.79C1010.48,-807.79 1062.4,-745.43 1062.4,-745.43 1062.4,-745.43 1097.4,-681.45 1097.4,-681.45 1097.4,-681.45 1097.4,-681.45 1097.4,-375.09 1097.4,-375.09 974.4,-304.63 974.4,-304.63 974.4,-304.63 811.44,-274.63 811.44,-274.63 811.44,-274.63 811.14,-267.33 810.86,-260.83"/>
<polygon fill="#c45c6d" stroke="#c45c6d" stroke-width="1.3" points="813.66,-260.74 810.53,-252.87 808.07,-260.98 813.66,-260.74"/>
<text xml:space="preserve" text-anchor="middle" x="1146.9" y="-496.73" font-family="Noto Sans KR" font-size="9.00" fill="#46566e">invalid snapshot contract</text>
</g>
<!-- Resolved&#45;&gt;Planning -->
<g id="edge8" class="edge">
<title>Resolved:s&#45;&gt;Planning:n</title>
<path fill="none" stroke="#59687e" stroke-width="1.3" d="M684.4,-656.72C684.4,-656.72 672.06,-571.2 667.81,-541.8"/>
<polygon fill="#59687e" stroke="#59687e" stroke-width="1.3" points="670.6,-541.48 666.68,-533.96 665.05,-542.28 670.6,-541.48"/>
</g>
<!-- Planning&#45;&gt;Prepared -->
<g id="edge9" class="edge">
<title>Planning:s&#45;&gt;Prepared:n</title>
<path fill="none" stroke="#59687e" stroke-width="1.3" d="M666.4,-467.3C666.4,-467.3 681.91,-432.27 689.42,-415.3"/>
<polygon fill="#59687e" stroke="#59687e" stroke-width="1.3" points="691.93,-416.55 692.6,-408.1 686.81,-414.28 691.93,-416.55"/>
</g>
<!-- Prepared&#45;&gt;Ready -->
<g id="edge12" class="edge">
<title>Prepared:s&#45;&gt;Ready:n</title>
<path fill="none" stroke="#59687e" stroke-width="1.3" d="M693.4,-345.88C693.4,-345.88 157.73,-284.81 78.22,-275.75"/>
<polygon fill="#59687e" stroke="#59687e" stroke-width="1.3" points="78.62,-272.98 70.35,-274.85 77.99,-278.54 78.62,-272.98"/>
<text xml:space="preserve" text-anchor="middle" x="430.32" y="-307.33" font-family="Noto Sans KR" font-size="9.00" fill="#46566e">Ready</text>
</g>
<!-- Prepared&#45;&gt;NoCommit -->
<g id="edge14" class="edge">
<title>Prepared:e&#45;&gt;NoCommit:w</title>
<path fill="none" stroke="#8292a8" stroke-width="1.3" d="M844.59,-376.09C844.59,-376.09 843.59,-345.88 843.59,-345.88 843.59,-345.88 585.94,-274.63 585.94,-274.63 585.94,-274.63 585.64,-267.33 585.36,-260.83"/>
<polygon fill="#8292a8" stroke="#8292a8" stroke-width="1.3" points="588.16,-260.74 585.03,-252.87 582.57,-260.98 588.16,-260.74"/>
<text xml:space="preserve" text-anchor="middle" x="752.32" y="-307.33" font-family="Noto Sans KR" font-size="9.00" fill="#46566e">NoChanges</text>
</g>
<!-- Prepared&#45;&gt;Failed -->
<g id="edge15" class="edge">
<title>Prepared:w&#45;&gt;Failed:e</title>
<path fill="none" stroke="#c45c6d" stroke-width="1.3" stroke-dasharray="5,2" d="M542.21,-376.09C542.21,-376.09 543.21,-345.88 543.21,-345.88 543.21,-345.88 789.4,-315.88 789.4,-315.88 789.4,-315.88 1099.36,-274.63 1099.36,-274.63 1099.36,-274.63 1099.66,-267.33 1099.94,-260.83"/>
<polygon fill="#c45c6d" stroke="#c45c6d" stroke-width="1.3" points="1102.73,-260.98 1100.27,-252.87 1097.14,-260.74 1102.73,-260.98"/>
<text xml:space="preserve" text-anchor="middle" x="916.03" y="-307.33" font-family="Noto Sans KR" font-size="9.00" fill="#46566e">Rejected · no commit</text>
</g>
<!-- Ready&#45;&gt;Committing -->
<g id="edge13" class="edge">
<title>Ready:s&#45;&gt;Committing:n</title>
<path fill="none" stroke="#59687e" stroke-width="1.3" d="M68.4,-226.17C68.4,-226.17 166.9,-202.65 166.9,-202.65 166.9,-202.65 235.9,-202.65 235.9,-202.65 235.9,-202.65 266,-274.63 266,-274.63 266,-274.63 296.88,-275.08 317.14,-275.38"/>
<polygon fill="#59687e" stroke="#59687e" stroke-width="1.3" points="324.39,-278.28 332.43,-275.6 324.47,-272.68 324.39,-278.28"/>
<text xml:space="preserve" text-anchor="middle" x="201.4" y="-205.35" font-family="Noto Sans KR" font-size="9.00" fill="#46566e">CommitPlan only</text>
</g>
<!-- NotApplicable&#45;&gt;Prepared -->
<g id="edge11" class="edge">
<title>NotApplicable:s&#45;&gt;Prepared:e</title>
<path fill="none" stroke="#8292a8" stroke-width="1.3" stroke-dasharray="5,2" d="M928.4,-562.01C928.4,-562.01 865.37,-422.2 848.63,-385.06"/>
<polygon fill="#8292a8" stroke="#8292a8" stroke-width="1.3" points="851.24,-384.03 845.4,-377.88 846.13,-386.33 851.24,-384.03"/>
<text xml:space="preserve" text-anchor="middle" x="948" y="-496.73" font-family="Noto Sans KR" font-size="9.00" fill="#46566e">map to outcome</text>
</g>
<!-- NoCommit&#45;&gt;Logged -->
<g id="edge29" class="edge">
<title>NoCommit:s&#45;&gt;Logged:n</title>
<path fill="none" stroke="#8292a8" stroke-width="1.3" stroke-dasharray="1,5" d="M668.4,-227.17C668.4,-227.17 594.7,-92.03 575.13,-56.13"/>
<polygon fill="#8292a8" stroke="#8292a8" stroke-width="1.3" points="577.63,-54.87 571.34,-49.19 572.71,-57.55 577.63,-54.87"/>
<text xml:space="preserve" text-anchor="middle" x="658.02" y="-129.26" font-family="Noto Sans KR" font-size="9.00" fill="#46566e">observe no&#45;op</text>
</g>
<!-- Committing&#45;&gt;Committed -->
<g id="edge16" class="edge">
<title>Committing:s&#45;&gt;Committed:n</title>
<path fill="none" stroke="#3d8b6d" stroke-width="1.3" d="M334.4,-227.17C334.4,-227.17 334.4,-185.4 334.4,-165.83"/>
<polygon fill="#3d8b6d" stroke="#3d8b6d" stroke-width="1.3" points="337.2,-165.89 334.4,-157.89 331.6,-165.89 337.2,-165.89"/>
<text xml:space="preserve" text-anchor="middle" x="387.27" y="-188.62" font-family="Noto Sans KR" font-size="9.00" fill="#46566e">atomic commit succeeded</text>
</g>
<!-- Committing&#45;&gt;Failed -->
<g id="edge19" class="edge">
<title>Committing:e&#45;&gt;Failed:w</title>
<path fill="none" stroke="#c45c6d" stroke-width="1.3" stroke-dasharray="5,2" d="M403.8,-250.9C403.8,-250.9 555.27,-305.99 555.27,-305.99 555.27,-305.99 659.52,-305.99 659.52,-305.99 659.52,-305.99 781.4,-274.63 781.4,-274.63 781.4,-274.63 794.21,-264.17 802.81,-257.13"/>
<polygon fill="#c45c6d" stroke="#c45c6d" stroke-width="1.3" points="804.5,-259.37 808.92,-252.14 800.95,-255.04 804.5,-259.37"/>
<text xml:space="preserve" text-anchor="middle" x="607.4" y="-307.33" font-family="Noto Sans KR" font-size="9.00" fill="#46566e">version / invariant rejected</text>
</g>
<!-- Committed&#45;&gt;ReactionQueued -->
<g id="edge27" class="edge">
<title>Committed:e&#45;&gt;ReactionQueued:w</title>
<path fill="none" stroke="#7257a6" stroke-width="1.3" d="M403.8,-132.19C403.8,-132.19 531.65,-187.28 531.65,-187.28 531.65,-187.28 611.15,-187.28 611.15,-187.28 611.15,-187.28 843.4,-155.92 843.4,-155.92 843.4,-155.92 866.67,-143.66 879.76,-136.77"/>
<polygon fill="#7257a6" stroke="#7257a6" stroke-width="1.3" points="880.93,-139.31 886.7,-133.11 878.32,-134.36 880.93,-139.31"/>
<text xml:space="preserve" text-anchor="middle" x="571.4" y="-188.62" font-family="Noto Sans KR" font-size="9.00" fill="#46566e">commit_then_react</text>
</g>
<!-- Committed&#45;&gt;Logged -->
<g id="edge28" class="edge">
<title>Committed:s&#45;&gt;Logged:n</title>
<path fill="none" stroke="#8292a8" stroke-width="1.3" stroke-dasharray="1,5" d="M334.4,-108.46C334.4,-108.46 448.4,-77.46 448.4,-77.46 448.4,-77.46 532.07,-56.89 560.83,-49.81"/>
<polygon fill="#8292a8" stroke="#8292a8" stroke-width="1.3" points="561.39,-52.56 568.49,-47.93 560.05,-47.12 561.39,-52.56"/>
</g>
<!-- ReactionQueued&#45;&gt;Requested -->
<g id="edge26" class="edge">
<title>ReactionQueued:nw&#45;&gt;Requested:sw</title>
<path fill="none" stroke="#7257a6" stroke-width="1.3" d="M889.44,-155.92C889.44,-155.92 1129.4,-227.17 1129.4,-227.17 1129.4,-227.17 1334.4,-345.88 1334.4,-345.88 1334.4,-345.88 1390.4,-562.01 1390.4,-562.01 1390.4,-562.01 1390.4,-626.72 1390.4,-626.72 1390.4,-626.72 1327.4,-840.14 1327.4,-840.14 1327.4,-840.14 1266.4,-948.6 1266.4,-948.6 1266.4,-948.6 503.33,-1011.22 407.95,-1019.05"/>
<polygon fill="#7257a6" stroke="#7257a6" stroke-width="1.3" points="407.9,-1016.24 400.16,-1019.69 408.36,-1021.83 407.9,-1016.24"/>
<text xml:space="preserve" text-anchor="middle" x="1446.65" y="-591.44" font-family="Noto Sans KR" font-size="9.00" fill="#46566e">dequeue reaction command</text>
</g>
<!-- Scheduled&#45;&gt;Requested -->
<g id="edge23" class="edge">
<title>Scheduled:sw&#45;&gt;Requested:se</title>
<path fill="none" stroke="#5b6f8f" stroke-width="1.3" stroke-dasharray="5,2" d="M742.07,-1028.48C742.07,-1028.48 710.59,-1003.96 710.59,-1003.96 710.59,-1003.96 625.09,-1003.96 625.09,-1003.96 625.09,-1003.96 617.47,-1007.93 609.85,-1011.9"/>
<polygon fill="#5b6f8f" stroke="#5b6f8f" stroke-width="1.3" points="602.15,-1012.76 596.35,-1018.94 604.74,-1017.72 602.15,-1012.76"/>
<text xml:space="preserve" text-anchor="middle" x="667.84" y="-1006.66" font-family="Noto Sans KR" font-size="9.00" fill="#46566e">due: enqueue request</text>
</g>
<!-- WaitingTrigger&#45;&gt;ReactionQueued -->
<g id="edge25" class="edge">
<title>WaitingTrigger:s&#45;&gt;ReactionQueued:n</title>
<path fill="none" stroke="#7257a6" stroke-width="1.3" d="M1446.4,-1155.81C1446.4,-1155.81 1604.4,-1053.21 1604.4,-1053.21 1604.4,-1053.21 1604.4,-1053.21 1604.4,-249.9 1604.4,-249.9 1063.89,-169.01 985.76,-157.32"/>
<polygon fill="#7257a6" stroke="#7257a6" stroke-width="1.3" points="986.67,-154.63 978.35,-156.21 985.84,-160.16 986.67,-154.63"/>
<text xml:space="preserve" text-anchor="middle" x="1653.53" y="-677.53" font-family="Noto Sans KR" font-size="9.00" fill="#46566e">committed fact matched</text>
</g>
<!-- Cancelled&#45;&gt;Logged -->
<g id="edge31" class="edge">
<title>Cancelled:s&#45;&gt;Logged:n</title>
<path fill="none" stroke="#8292a8" stroke-width="1.3" stroke-dasharray="1,5" d="M550.4,-901.14C550.4,-901.14 454.4,-808.79 454.4,-808.79 454.4,-808.79 454.4,-808.79 454.4,-436.3 454.4,-436.3 550.08,-115.57 567.65,-56.69"/>
<polygon fill="#8292a8" stroke="#8292a8" stroke-width="1.3" points="570.23,-57.81 569.84,-49.35 564.87,-56.21 570.23,-57.81"/>
</g>
<!-- Failed&#45;&gt;Logged -->
<g id="edge30" class="edge">
<title>Failed:s&#45;&gt;Logged:n</title>
<path fill="none" stroke="#8292a8" stroke-width="1.3" stroke-dasharray="1,5" d="M955.4,-227.17C955.4,-227.17 701.4,-108.46 701.4,-108.46 701.4,-108.46 609,-65.43 579.4,-51.65"/>
<polygon fill="#8292a8" stroke="#8292a8" stroke-width="1.3" points="580.62,-49.13 572.18,-48.29 578.25,-54.21 580.62,-49.13"/>
</g>
<!-- Defined -->
<g id="node1" class="node">
<title>Defined</title>
<path fill="#fff7e6" stroke="#e0ad4e" stroke-width="1.4" d="M824.73,-1321.98C824.73,-1321.98 626.07,-1321.98 626.07,-1321.98 620.07,-1321.98 614.07,-1315.98 614.07,-1309.98 614.07,-1309.98 614.07,-1286.52 614.07,-1286.52 614.07,-1280.52 620.07,-1274.52 626.07,-1274.52 626.07,-1274.52 824.73,-1274.52 824.73,-1274.52 830.73,-1274.52 836.73,-1280.52 836.73,-1286.52 836.73,-1286.52 836.73,-1309.98 836.73,-1309.98 836.73,-1315.98 830.73,-1321.98 824.73,-1321.98"/>
<text xml:space="preserve" text-anchor="middle" x="725.4" y="-1302.2" font-family="Noto Sans KR" font-size="14.00" fill="#182033">Defined (product registry)</text>
<text xml:space="preserve" text-anchor="middle" x="725.4" y="-1284.95" font-family="Noto Sans KR" font-size="14.00" fill="#182033">target&#45;independent specification</text>
</g>
<!-- Registered -->
<g id="node2" class="node">
<title>Registered</title>
<path fill="#eaf0ff" stroke="#8292f7" stroke-width="1.4" d="M822.48,-1203.27C822.48,-1203.27 628.32,-1203.27 628.32,-1203.27 622.32,-1203.27 616.32,-1197.27 616.32,-1191.27 616.32,-1191.27 616.32,-1167.81 616.32,-1167.81 616.32,-1161.81 622.32,-1155.81 628.32,-1155.81 628.32,-1155.81 822.48,-1155.81 822.48,-1155.81 828.48,-1155.81 834.48,-1161.81 834.48,-1167.81 834.48,-1167.81 834.48,-1191.27 834.48,-1191.27 834.48,-1197.27 828.48,-1203.27 822.48,-1203.27"/>
<text xml:space="preserve" text-anchor="middle" x="725.4" y="-1183.49" font-family="Noto Sans KR" font-size="14.00" fill="#182033">Registered (product adapter)</text>
<text xml:space="preserve" text-anchor="middle" x="725.4" y="-1166.24" font-family="Noto Sans KR" font-size="14.00" fill="#182033">loaded + normalized + validated</text>
</g>
<!-- Requested -->
<g id="node3" class="node">
<title>Requested</title>
<path fill="#eaf0ff" stroke="#8292f7" stroke-width="1.4" d="M582.61,-1084.56C582.61,-1084.56 410.19,-1084.56 410.19,-1084.56 404.19,-1084.56 398.19,-1078.56 398.19,-1072.56 398.19,-1072.56 398.19,-1031.85 398.19,-1031.85 398.19,-1025.85 404.19,-1019.85 410.19,-1019.85 410.19,-1019.85 582.61,-1019.85 582.61,-1019.85 588.61,-1019.85 594.61,-1025.85 594.61,-1031.85 594.61,-1031.85 594.61,-1072.56 594.61,-1072.56 594.61,-1078.56 588.61,-1084.56 582.61,-1084.56"/>
<text xml:space="preserve" text-anchor="middle" x="496.4" y="-1064.78" font-family="Noto Sans KR" font-size="14.00" fill="#182033">Requested</text>
<text xml:space="preserve" text-anchor="middle" x="496.4" y="-1047.53" font-family="Noto Sans KR" font-size="14.00" fill="#182033">ReferenceEffectSpecification</text>
<text xml:space="preserve" text-anchor="middle" x="496.4" y="-1030.28" font-family="Noto Sans KR" font-size="14.00" fill="#182033">+ EffectContext</text>
</g>
<!-- SnapshotReady -->
<g id="node4" class="node">
<title>SnapshotReady</title>
<path fill="#f3eefc" stroke="#ab8fe0" stroke-width="1.4" d="M1225.86,-1084.56C1225.86,-1084.56 1024.95,-1084.56 1024.95,-1084.56 1018.95,-1084.56 1012.95,-1078.56 1012.95,-1072.56 1012.95,-1072.56 1012.95,-1031.85 1012.95,-1031.85 1012.95,-1025.85 1018.95,-1019.85 1024.95,-1019.85 1024.95,-1019.85 1225.86,-1019.85 1225.86,-1019.85 1231.86,-1019.85 1237.86,-1025.85 1237.86,-1031.85 1237.86,-1031.85 1237.86,-1072.56 1237.86,-1072.56 1237.86,-1078.56 1231.86,-1084.56 1225.86,-1084.56"/>
<text xml:space="preserve" text-anchor="middle" x="1125.4" y="-1064.78" font-family="Noto Sans KR" font-size="14.00" fill="#182033">Snapshot Ready (spatial adapter)</text>
<text xml:space="preserve" text-anchor="middle" x="1125.4" y="-1047.53" font-family="Noto Sans KR" font-size="14.00" fill="#182033">eligibility + integer metrics</text>
<text xml:space="preserve" text-anchor="middle" x="1125.4" y="-1030.28" font-family="Noto Sans KR" font-size="14.00" fill="#182033">immutable CandidateSnapshot</text>
</g>
<!-- Validating -->
<g id="node5" class="node">
<title>Validating</title>
<path fill="#f3eefc" stroke="#ab8fe0" stroke-width="1.4" d="M1223.61,-948.6C1223.61,-948.6 1027.2,-948.6 1027.2,-948.6 1021.2,-948.6 1015.2,-942.6 1015.2,-936.6 1015.2,-936.6 1015.2,-913.14 1015.2,-913.14 1015.2,-907.14 1021.2,-901.14 1027.2,-901.14 1027.2,-901.14 1223.61,-901.14 1223.61,-901.14 1229.61,-901.14 1235.61,-907.14 1235.61,-913.14 1235.61,-913.14 1235.61,-936.6 1235.61,-936.6 1235.61,-942.6 1229.61,-948.6 1223.61,-948.6"/>
<text xml:space="preserve" text-anchor="middle" x="1125.4" y="-928.82" font-family="Noto Sans KR" font-size="14.00" fill="#182033">Validating</text>
<text xml:space="preserve" text-anchor="middle" x="1125.4" y="-911.57" font-family="Noto Sans KR" font-size="14.00" fill="#182033">spec/context/snapshot structure</text>
</g>
<!-- ResolvingTargets -->
<g id="node6" class="node">
<title>ResolvingTargets</title>
<path fill="#f3eefc" stroke="#ab8fe0" stroke-width="1.4" d="M997.48,-840.14C997.48,-840.14 755.32,-840.14 755.32,-840.14 749.32,-840.14 743.32,-834.14 743.32,-828.14 743.32,-828.14 743.32,-787.43 743.32,-787.43 743.32,-781.43 749.32,-775.43 755.32,-775.43 755.32,-775.43 997.48,-775.43 997.48,-775.43 1003.48,-775.43 1009.48,-781.43 1009.48,-787.43 1009.48,-787.43 1009.48,-828.14 1009.48,-828.14 1009.48,-834.14 1003.48,-840.14 997.48,-840.14"/>
<text xml:space="preserve" text-anchor="middle" x="876.4" y="-820.36" font-family="Noto Sans KR" font-size="14.00" fill="#182033">Resolving Targets (executable)</text>
<text xml:space="preserve" text-anchor="middle" x="876.4" y="-803.11" font-family="Noto Sans KR" font-size="14.00" fill="#182033">one&#45;shot bind + total order + MaxTargets</text>
<text xml:space="preserve" text-anchor="middle" x="876.4" y="-785.86" font-family="Noto Sans KR" font-size="14.00" fill="#182033">no eligibility recheck</text>
</g>
<!-- Resolved -->
<g id="node7" class="node">
<title>Resolved</title>
<path fill="#eefbf6" stroke="#61b99a" stroke-width="1.4" d="M800.98,-704.18C800.98,-704.18 567.82,-704.18 567.82,-704.18 561.82,-704.18 555.82,-698.18 555.82,-692.18 555.82,-692.18 555.82,-668.72 555.82,-668.72 555.82,-662.72 561.82,-656.72 567.82,-656.72 567.82,-656.72 800.98,-656.72 800.98,-656.72 806.98,-656.72 812.98,-662.72 812.98,-668.72 812.98,-668.72 812.98,-692.18 812.98,-692.18 812.98,-698.18 806.98,-704.18 800.98,-704.18"/>
<text xml:space="preserve" text-anchor="middle" x="684.4" y="-684.4" font-family="Noto Sans KR" font-size="14.00" fill="#182033">Resolved (executable)</text>
<text xml:space="preserve" text-anchor="middle" x="684.4" y="-667.15" font-family="Noto Sans KR" font-size="14.00" fill="#182033">target&#45;bound ResolvedEffectOperation</text>
</g>
<!-- Planning -->
<g id="node8" class="node">
<title>Planning</title>
<path fill="#eefbf6" stroke="#61b99a" stroke-width="1.4" d="M774.36,-532.01C774.36,-532.01 558.44,-532.01 558.44,-532.01 552.44,-532.01 546.44,-526.01 546.44,-520.01 546.44,-520.01 546.44,-479.3 546.44,-479.3 546.44,-473.3 552.44,-467.3 558.44,-467.3 558.44,-467.3 774.36,-467.3 774.36,-467.3 780.36,-467.3 786.36,-473.3 786.36,-479.3 786.36,-479.3 786.36,-520.01 786.36,-520.01 786.36,-526.01 780.36,-532.01 774.36,-532.01"/>
<text xml:space="preserve" text-anchor="middle" x="666.4" y="-512.23" font-family="Noto Sans KR" font-size="14.00" fill="#182033">Planning (domain owner + adapter)</text>
<text xml:space="preserve" text-anchor="middle" x="666.4" y="-494.98" font-family="Noto Sans KR" font-size="14.00" fill="#182033">pure EffectOperationOutcome</text>
<text xml:space="preserve" text-anchor="middle" x="666.4" y="-477.73" font-family="Noto Sans KR" font-size="14.00" fill="#182033">+ optional CommitPlanFragment</text>
</g>
<!-- Prepared -->
<g id="node9" class="node">
<title>Prepared</title>
<path fill="#fff7e6" stroke="#e0ad4e" stroke-width="1.4" d="M681.65,-403.88C681.65,-403.88 558.24,-378.51 558.24,-378.51 552.37,-377.3 552.37,-374.88 558.24,-373.67 558.24,-373.67 681.65,-348.3 681.65,-348.3 687.52,-347.09 699.28,-347.09 705.15,-348.3 705.15,-348.3 828.56,-373.67 828.56,-373.67 834.43,-374.88 834.43,-377.3 828.56,-378.51 828.56,-378.51 705.15,-403.88 705.15,-403.88 699.28,-405.09 687.52,-405.09 681.65,-403.88"/>
<text xml:space="preserve" text-anchor="middle" x="693.4" y="-371.42" font-family="Noto Sans KR" font-size="14.00" fill="#182033">Composition status?</text>
</g>
<!-- Ready -->
<g id="node10" class="node">
<title>Ready</title>
<path fill="#e9fbff" stroke="#54b7cf" stroke-width="1.4" d="M124.8,-274.63C124.8,-274.63 12,-274.63 12,-274.63 6,-274.63 0,-268.63 0,-262.63 0,-262.63 0,-239.17 0,-239.17 0,-233.17 6,-227.17 12,-227.17 12,-227.17 124.8,-227.17 124.8,-227.17 130.8,-227.17 136.8,-233.17 136.8,-239.17 136.8,-239.17 136.8,-262.63 136.8,-262.63 136.8,-268.63 130.8,-274.63 124.8,-274.63"/>
<text xml:space="preserve" text-anchor="middle" x="68.4" y="-254.85" font-family="Noto Sans KR" font-size="14.00" fill="#182033">Ready</text>
<text xml:space="preserve" text-anchor="middle" x="68.4" y="-237.6" font-family="Noto Sans KR" font-size="14.00" fill="#182033">CommitPlan exists</text>
</g>
<!-- NotApplicable -->
<g id="node11" class="node">
<title>NotApplicable</title>
<path fill="#f0f3f9" stroke="#99a8bd" stroke-width="1.4" d="M1029.61,-626.72C1029.61,-626.72 827.19,-626.72 827.19,-626.72 821.19,-626.72 815.19,-620.72 815.19,-614.72 815.19,-614.72 815.19,-574.01 815.19,-574.01 815.19,-568.01 821.19,-562.01 827.19,-562.01 827.19,-562.01 1029.61,-562.01 1029.61,-562.01 1035.61,-562.01 1041.61,-568.01 1041.61,-574.01 1041.61,-574.01 1041.61,-614.72 1041.61,-614.72 1041.61,-620.72 1035.61,-626.72 1029.61,-626.72"/>
<text xml:space="preserve" text-anchor="middle" x="928.4" y="-606.94" font-family="Noto Sans KR" font-size="14.00" fill="#182033">NotApplicable</text>
<text xml:space="preserve" text-anchor="middle" x="928.4" y="-589.69" font-family="Noto Sans KR" font-size="14.00" fill="#182033">missing explicit / empty snapshot</text>
<text xml:space="preserve" text-anchor="middle" x="928.4" y="-572.44" font-family="Noto Sans KR" font-size="14.00" fill="#182033">stable reason</text>
</g>
<!-- NoCommit -->
<g id="node12" class="node">
<title>NoCommit</title>
<path fill="#f0f3f9" stroke="#99a8bd" stroke-width="1.4" d="M738.86,-274.63C738.86,-274.63 597.94,-274.63 597.94,-274.63 591.94,-274.63 585.94,-268.63 585.94,-262.63 585.94,-262.63 585.94,-239.17 585.94,-239.17 585.94,-233.17 591.94,-227.17 597.94,-227.17 597.94,-227.17 738.86,-227.17 738.86,-227.17 744.86,-227.17 750.86,-233.17 750.86,-239.17 750.86,-239.17 750.86,-262.63 750.86,-262.63 750.86,-268.63 744.86,-274.63 738.86,-274.63"/>
<text xml:space="preserve" text-anchor="middle" x="668.4" y="-254.85" font-family="Noto Sans KR" font-size="14.00" fill="#182033">NoChanges</text>
<text xml:space="preserve" text-anchor="middle" x="668.4" y="-237.6" font-family="Noto Sans KR" font-size="14.00" fill="#182033">no commit · no outbox</text>
</g>
<!-- Committing -->
<g id="node13" class="node">
<title>Committing</title>
<path fill="#fff7e6" stroke="#e0ad4e" stroke-width="1.4" d="M390.8,-274.63C390.8,-274.63 278,-274.63 278,-274.63 272,-274.63 266,-268.63 266,-262.63 266,-262.63 266,-239.17 266,-239.17 266,-233.17 272,-227.17 278,-227.17 278,-227.17 390.8,-227.17 390.8,-227.17 396.8,-227.17 402.8,-233.17 402.8,-239.17 402.8,-239.17 402.8,-262.63 402.8,-262.63 402.8,-268.63 396.8,-274.63 390.8,-274.63"/>
<text xml:space="preserve" text-anchor="middle" x="334.4" y="-254.85" font-family="Noto Sans KR" font-size="14.00" fill="#182033">Atomic Commit</text>
<text xml:space="preserve" text-anchor="middle" x="334.4" y="-237.6" font-family="Noto Sans KR" font-size="14.00" fill="#182033">state + outbox</text>
</g>
<!-- Committed -->
<g id="node14" class="node">
<title>Committed</title>
<path fill="#eefbf6" stroke="#61b99a" stroke-width="1.4" d="M390.8,-155.92C390.8,-155.92 278,-155.92 278,-155.92 272,-155.92 266,-149.92 266,-143.92 266,-143.92 266,-120.46 266,-120.46 266,-114.46 272,-108.46 278,-108.46 278,-108.46 390.8,-108.46 390.8,-108.46 396.8,-108.46 402.8,-114.46 402.8,-120.46 402.8,-120.46 402.8,-143.92 402.8,-143.92 402.8,-149.92 396.8,-155.92 390.8,-155.92"/>
<text xml:space="preserve" text-anchor="middle" x="334.4" y="-136.14" font-family="Noto Sans KR" font-size="14.00" fill="#182033">Committed</text>
<text xml:space="preserve" text-anchor="middle" x="334.4" y="-118.89" font-family="Noto Sans KR" font-size="14.00" fill="#182033">EffectResult + facts</text>
</g>
<!-- ReactionQueued -->
<g id="node15" class="node">
<title>ReactionQueued</title>
<path fill="#f3eefc" stroke="#ab8fe0" stroke-width="1.4" d="M1051.36,-155.92C1051.36,-155.92 901.44,-155.92 901.44,-155.92 895.44,-155.92 889.44,-149.92 889.44,-143.92 889.44,-143.92 889.44,-120.46 889.44,-120.46 889.44,-114.46 895.44,-108.46 901.44,-108.46 901.44,-108.46 1051.36,-108.46 1051.36,-108.46 1057.36,-108.46 1063.36,-114.46 1063.36,-120.46 1063.36,-120.46 1063.36,-143.92 1063.36,-143.92 1063.36,-149.92 1057.36,-155.92 1051.36,-155.92"/>
<text xml:space="preserve" text-anchor="middle" x="976.4" y="-136.14" font-family="Noto Sans KR" font-size="14.00" fill="#182033">Reaction Queued</text>
<text xml:space="preserve" text-anchor="middle" x="976.4" y="-118.89" font-family="Noto Sans KR" font-size="14.00" fill="#182033">new bounded command</text>
</g>
<!-- Scheduled -->
<g id="node16" class="node">
<title>Scheduled</title>
<path fill="#f0f3f9" stroke="#99a8bd" stroke-width="1.4" d="M939.73,-1075.94C939.73,-1075.94 753.07,-1075.94 753.07,-1075.94 747.07,-1075.94 741.07,-1069.94 741.07,-1063.94 741.07,-1063.94 741.07,-1040.48 741.07,-1040.48 741.07,-1034.48 747.07,-1028.48 753.07,-1028.48 753.07,-1028.48 939.73,-1028.48 939.73,-1028.48 945.73,-1028.48 951.73,-1034.48 951.73,-1040.48 951.73,-1040.48 951.73,-1063.94 951.73,-1063.94 951.73,-1069.94 945.73,-1075.94 939.73,-1075.94"/>
<text xml:space="preserve" text-anchor="middle" x="846.4" y="-1056.16" font-family="Noto Sans KR" font-size="14.00" fill="#182033">Scheduled (product extension)</text>
<text xml:space="preserve" text-anchor="middle" x="846.4" y="-1038.91" font-family="Noto Sans KR" font-size="14.00" fill="#182033">delay / periodic due time</text>
</g>
<!-- WaitingTrigger -->
<g id="node17" class="node">
<title>WaitingTrigger</title>
<path fill="#f0f3f9" stroke="#99a8bd" stroke-width="1.4" d="M1552.48,-1203.27C1552.48,-1203.27 1340.32,-1203.27 1340.32,-1203.27 1334.32,-1203.27 1328.32,-1197.27 1328.32,-1191.27 1328.32,-1191.27 1328.32,-1167.81 1328.32,-1167.81 1328.32,-1161.81 1334.32,-1155.81 1340.32,-1155.81 1340.32,-1155.81 1552.48,-1155.81 1552.48,-1155.81 1558.48,-1155.81 1564.48,-1161.81 1564.48,-1167.81 1564.48,-1167.81 1564.48,-1191.27 1564.48,-1191.27 1564.48,-1197.27 1558.48,-1203.27 1552.48,-1203.27"/>
<text xml:space="preserve" text-anchor="middle" x="1446.4" y="-1183.49" font-family="Noto Sans KR" font-size="14.00" fill="#182033">Waiting Trigger (product extension)</text>
<text xml:space="preserve" text-anchor="middle" x="1446.4" y="-1166.24" font-family="Noto Sans KR" font-size="14.00" fill="#182033">committed fact predicate</text>
</g>
<!-- Cancelled -->
<g id="node18" class="node">
<title>Cancelled</title>
<path fill="#fff0f3" stroke="#e07b91" stroke-width="1.4" d="M641.48,-948.6C641.48,-948.6 459.32,-948.6 459.32,-948.6 453.32,-948.6 447.32,-942.6 447.32,-936.6 447.32,-936.6 447.32,-913.14 447.32,-913.14 447.32,-907.14 453.32,-901.14 459.32,-901.14 459.32,-901.14 641.48,-901.14 641.48,-901.14 647.48,-901.14 653.48,-907.14 653.48,-913.14 653.48,-913.14 653.48,-936.6 653.48,-936.6 653.48,-942.6 647.48,-948.6 641.48,-948.6"/>
<text xml:space="preserve" text-anchor="middle" x="550.4" y="-928.82" font-family="Noto Sans KR" font-size="14.00" fill="#182033">Cancelled (product extension)</text>
<text xml:space="preserve" text-anchor="middle" x="550.4" y="-911.57" font-family="Noto Sans KR" font-size="14.00" fill="#182033">before composition</text>
</g>
<!-- Failed -->
<g id="node19" class="node">
<title>Failed</title>
<path fill="#fff0f3" stroke="#e07b91" stroke-width="1.4" d="M1087.36,-274.63C1087.36,-274.63 823.44,-274.63 823.44,-274.63 817.44,-274.63 811.44,-268.63 811.44,-262.63 811.44,-262.63 811.44,-239.17 811.44,-239.17 811.44,-233.17 817.44,-227.17 823.44,-227.17 823.44,-227.17 1087.36,-227.17 1087.36,-227.17 1093.36,-227.17 1099.36,-233.17 1099.36,-239.17 1099.36,-239.17 1099.36,-262.63 1099.36,-262.63 1099.36,-268.63 1093.36,-274.63 1087.36,-274.63"/>
<text xml:space="preserve" text-anchor="middle" x="955.4" y="-254.85" font-family="Noto Sans KR" font-size="14.00" fill="#182033">Failed</text>
<text xml:space="preserve" text-anchor="middle" x="955.4" y="-237.6" font-family="Noto Sans KR" font-size="14.00" fill="#182033">configuration / Rejected outcome / commit</text>
</g>
<!-- Logged -->
<g id="node20" class="node">
<title>Logged</title>
<path fill="#f3eefc" stroke="#ab8fe0" stroke-width="1.4" d="M633.36,-47.46C633.36,-47.46 507.44,-47.46 507.44,-47.46 501.44,-47.46 495.44,-41.46 495.44,-35.46 495.44,-35.46 495.44,-12 495.44,-12 495.44,-6 501.44,0 507.44,0 507.44,0 633.36,0 633.36,0 639.36,0 645.36,-6 645.36,-12 645.36,-12 645.36,-35.46 645.36,-35.46 645.36,-41.46 639.36,-47.46 633.36,-47.46"/>
<text xml:space="preserve" text-anchor="middle" x="570.4" y="-27.68" font-family="Noto Sans KR" font-size="14.00" fill="#182033">Observed</text>
<text xml:space="preserve" text-anchor="middle" x="570.4" y="-10.43" font-family="Noto Sans KR" font-size="14.00" fill="#182033">DebugTrace / UI / log</text>
</g>
</g>
</svg>
