<?xml version="1.0" encoding="UTF-8" standalone="no"?>
<!DOCTYPE svg PUBLIC "-//W3C//DTD SVG 1.1//EN"
 "http://www.w3.org/Graphics/SVG/1.1/DTD/svg11.dtd">
<!-- Generated by graphviz version 15.1.0 (20260618.0150)
 -->
<!-- Title: G Pages: 1 -->
<svg width="1702pt" height="1527pt"
 viewBox="12.00 12.00 1691.00 1516.00" xmlns="http://www.w3.org/2000/svg" xmlns:xlink="http://www.w3.org/1999/xlink">
<g id="graph0" class="graph" transform="scale(1.33333 1.33333) rotate(0) translate(30.24 1115.34)">
<title>G</title>
<polygon fill="#ffffff" stroke="none" points="-21.6,21.6 -21.6,-1106.7 1237.8,-1106.7 1237.8,21.6 -21.6,21.6"/>
<!-- Defined&#45;&gt;Registered -->
<g id="edge1" class="edge">
<title>Defined:s&#45;&gt;Registered:n</title>
<path fill="none" stroke="#8a6d3b" stroke-width="1.3" d="M709.96,-1037.64C709.96,-1037.64 709.96,-995.87 709.96,-976.3"/>
<polygon fill="#8a6d3b" stroke="#8a6d3b" stroke-width="1.3" points="712.76,-976.36 709.96,-968.36 707.16,-976.36 712.76,-976.36"/>
<text xml:space="preserve" text-anchor="middle" x="757.21" y="-999.09" font-family="Noto Sans KR" font-size="9.00" fill="#46566e">load validated definition</text>
</g>
<!-- Registered&#45;&gt;Requested -->
<g id="edge2" class="edge">
<title>Registered:s&#45;&gt;Requested:n</title>
<path fill="none" stroke="#5b6f8f" stroke-width="1.3" d="M709.96,-918.93C709.96,-918.93 610.8,-867.74 580.59,-852.14"/>
<polygon fill="#5b6f8f" stroke="#5b6f8f" stroke-width="1.3" points="582.1,-849.76 573.7,-848.58 579.53,-854.74 582.1,-849.76"/>
<text xml:space="preserve" text-anchor="middle" x="717.09" y="-880.38" font-family="Noto Sans KR" font-size="9.00" fill="#46566e">create skill/status/reaction request</text>
</g>
<!-- Registered&#45;&gt;WaitingTrigger -->
<g id="edge16" class="edge">
<title>Registered:e&#45;&gt;WaitingTrigger:w</title>
<path fill="none" stroke="#7257a6" stroke-width="1.3" d="M785.29,-942.66C785.29,-942.66 843.08,-974.66 843.08,-974.66 843.08,-974.66 945.08,-974.66 945.08,-974.66 945.08,-974.66 970.87,-960.38 987.99,-950.9"/>
<polygon fill="#7257a6" stroke="#7257a6" stroke-width="1.3" points="995.51,-949.94 1001.15,-943.61 992.8,-945.04 995.51,-949.94"/>
<text xml:space="preserve" text-anchor="middle" x="894.08" y="-977.36" font-family="Noto Sans KR" font-size="9.00" fill="#46566e">register reaction predicate</text>
</g>
<!-- Requested&#45;&gt;Validating -->
<g id="edge3" class="edge">
<title>Requested:s&#45;&gt;Validating:n</title>
<path fill="none" stroke="#59687e" stroke-width="1.3" d="M571.96,-800.22C571.96,-800.22 459.25,-748.08 426.68,-733"/>
<polygon fill="#59687e" stroke="#59687e" stroke-width="1.3" points="428.18,-730.61 419.74,-729.8 425.83,-735.7 428.18,-730.61"/>
</g>
<!-- Requested&#45;&gt;Scheduled -->
<g id="edge14" class="edge">
<title>Requested:ne&#45;&gt;Scheduled:nw</title>
<path fill="none" stroke="#5b6f8f" stroke-width="1.3" d="M691.29,-847.68C691.29,-847.68 722.46,-855.95 722.46,-855.95 722.46,-855.95 821.46,-855.95 821.46,-855.95 821.46,-855.95 828.08,-854.13 835.13,-852.2"/>
<polygon fill="#5b6f8f" stroke="#5b6f8f" stroke-width="1.3" points="842.75,-853.02 849.73,-848.2 841.27,-847.61 842.75,-853.02"/>
<text xml:space="preserve" text-anchor="middle" x="771.96" y="-858.65" font-family="Noto Sans KR" font-size="9.00" fill="#46566e">schedule delay / periodic</text>
</g>
<!-- Requested&#45;&gt;Cancelled -->
<g id="edge12" class="edge">
<title>Requested:e&#45;&gt;Cancelled:n</title>
<path fill="none" stroke="#c45c6d" stroke-width="1.3" stroke-dasharray="5,2" d="M693.29,-823.95C693.29,-823.95 703.33,-763.04 707.34,-738.78"/>
<polygon fill="#c45c6d" stroke="#c45c6d" stroke-width="1.3" points="710.1,-739.26 708.63,-730.91 704.57,-738.35 710.1,-739.26"/>
<text xml:space="preserve" text-anchor="middle" x="750.39" y="-761.67" font-family="Noto Sans KR" font-size="9.00" fill="#46566e">cancel before validation</text>
</g>
<!-- Validating&#45;&gt;ResolvingTargets -->
<g id="edge4" class="edge">
<title>Validating:s&#45;&gt;ResolvingTargets:n</title>
<path fill="none" stroke="#59687e" stroke-width="1.3" d="M417.96,-681.51C417.96,-681.51 331.3,-638.88 302.87,-624.9"/>
<polygon fill="#59687e" stroke="#59687e" stroke-width="1.3" points="304.13,-622.4 295.72,-621.38 301.66,-627.42 304.13,-622.4"/>
</g>
<!-- Validating&#45;&gt;Cancelled -->
<g id="edge13" class="edge">
<title>Validating:e&#45;&gt;Cancelled:w</title>
<path fill="none" stroke="#c45c6d" stroke-width="1.3" stroke-dasharray="5,2" d="M486.36,-705.24C486.36,-705.24 516.58,-737.24 516.58,-737.24 516.58,-737.24 610.33,-737.24 610.33,-737.24 610.33,-737.24 620.43,-726.54 628.96,-717.52"/>
<polygon fill="#c45c6d" stroke="#c45c6d" stroke-width="1.3" points="635.75,-714.41 639.2,-706.67 631.68,-710.56 635.75,-714.41"/>
<text xml:space="preserve" text-anchor="middle" x="563.46" y="-739.94" font-family="Noto Sans KR" font-size="9.00" fill="#46566e">cancel during validation</text>
</g>
<!-- Validating&#45;&gt;Failed -->
<g id="edge9" class="edge">
<title>Validating:e&#45;&gt;Failed:nw</title>
<path fill="none" stroke="#c45c6d" stroke-width="1.3" stroke-dasharray="5,2" d="M487.36,-705.24C487.36,-705.24 514.96,-597.78 514.96,-597.78 514.96,-597.78 514.96,-597.78 514.96,-358.36 514.96,-358.36 450.96,-304.63 450.96,-304.63 450.96,-304.63 432.02,-289.47 421.08,-280.7"/>
<polygon fill="#c45c6d" stroke="#c45c6d" stroke-width="1.3" points="423.03,-278.68 415.04,-275.86 419.53,-283.05 423.03,-278.68"/>
<text xml:space="preserve" text-anchor="middle" x="565.96" y="-475.15" font-family="Noto Sans KR" font-size="9.00" fill="#46566e">validation condition failed</text>
</g>
<!-- ResolvingTargets&#45;&gt;Planning -->
<g id="edge5" class="edge">
<title>ResolvingTargets:s&#45;&gt;Planning:n</title>
<path fill="none" stroke="#59687e" stroke-width="1.3" d="M293.96,-573.05C293.96,-573.05 212.2,-523.26 185.37,-506.92"/>
<polygon fill="#59687e" stroke="#59687e" stroke-width="1.3" points="186.92,-504.59 178.64,-502.82 184.01,-509.38 186.92,-504.59"/>
</g>
<!-- ResolvingTargets&#45;&gt;Failed -->
<g id="edge10" class="edge">
<title>ResolvingTargets:e&#45;&gt;Failed:w</title>
<path fill="none" stroke="#c45c6d" stroke-width="1.3" stroke-dasharray="5,2" d="M363.36,-596.78C363.36,-596.78 403.2,-316.37 411.13,-260.51"/>
<polygon fill="#c45c6d" stroke="#c45c6d" stroke-width="1.3" points="413.87,-261.16 412.22,-252.85 408.33,-260.37 413.87,-261.16"/>
<text xml:space="preserve" text-anchor="middle" x="417.09" y="-415.79" font-family="Noto Sans KR" font-size="9.00" fill="#46566e">no valid target</text>
</g>
<!-- Planning&#45;&gt;Prepared -->
<g id="edge6" class="edge">
<title>Planning:s&#45;&gt;Prepared:n</title>
<path fill="none" stroke="#59687e" stroke-width="1.3" d="M176.96,-454.34C176.96,-454.34 151.06,-410.42 139.94,-391.54"/>
<polygon fill="#59687e" stroke="#59687e" stroke-width="1.3" points="142.43,-390.25 135.95,-384.79 137.6,-393.1 142.43,-390.25"/>
</g>
<!-- Prepared&#45;&gt;Committing -->
<g id="edge7" class="edge">
<title>Prepared:s&#45;&gt;Committing:n</title>
<path fill="none" stroke="#59687e" stroke-width="1.3" d="M134.96,-335.63C134.96,-335.63 162.75,-298.77 175.13,-282.36"/>
<polygon fill="#59687e" stroke="#59687e" stroke-width="1.3" points="177.19,-284.27 179.77,-276.2 172.72,-280.9 177.19,-284.27"/>
</g>
<!-- Committing&#45;&gt;Committed -->
<g id="edge8" class="edge">
<title>Committing:s&#45;&gt;Committed:n</title>
<path fill="none" stroke="#3d8b6d" stroke-width="1.3" d="M180.96,-227.17C180.96,-227.17 269.12,-176.91 297.36,-160.82"/>
<polygon fill="#3d8b6d" stroke="#3d8b6d" stroke-width="1.3" points="298.68,-163.29 304.25,-156.89 295.91,-158.42 298.68,-163.29"/>
<text xml:space="preserve" text-anchor="middle" x="303.81" y="-188.62" font-family="Noto Sans KR" font-size="9.00" fill="#46566e">atomic commit succeeded</text>
</g>
<!-- Committing&#45;&gt;Failed -->
<g id="edge11" class="edge">
<title>Committing:e&#45;&gt;Failed:w</title>
<path fill="none" stroke="#c45c6d" stroke-width="1.3" stroke-dasharray="5,2" d="M249.35,-250.9C249.35,-250.9 279.3,-282.9 279.3,-282.9 279.3,-282.9 383.55,-282.9 383.55,-282.9 383.55,-282.9 393.56,-272.2 402.01,-263.18"/>
<polygon fill="#c45c6d" stroke="#c45c6d" stroke-width="1.3" points="408.73,-260.09 412.16,-252.34 404.64,-256.26 408.73,-260.09"/>
<text xml:space="preserve" text-anchor="middle" x="331.43" y="-285.6" font-family="Noto Sans KR" font-size="9.00" fill="#46566e">version / invariant rejected</text>
</g>
<!-- Committed&#45;&gt;ReactionQueued -->
<g id="edge19" class="edge">
<title>Committed:e&#45;&gt;ReactionQueued:w</title>
<path fill="none" stroke="#7257a6" stroke-width="1.3" d="M374.36,-132.19C374.36,-132.19 662.93,-164.19 662.93,-164.19 662.93,-164.19 742.43,-164.19 742.43,-164.19 742.43,-164.19 952.65,-140.88 1014.24,-134.05"/>
<polygon fill="#7257a6" stroke="#7257a6" stroke-width="1.3" points="1021.4,-136.07 1029.04,-132.41 1020.78,-130.51 1021.4,-136.07"/>
<text xml:space="preserve" text-anchor="middle" x="702.68" y="-166.89" font-family="Noto Sans KR" font-size="9.00" fill="#46566e">commit_then_react</text>
</g>
<!-- Committed&#45;&gt;Logged -->
<g id="edge20" class="edge">
<title>Committed:s&#45;&gt;Logged:n</title>
<path fill="none" stroke="#8292a8" stroke-width="1.3" stroke-dasharray="1,5" d="M305.96,-108.46C305.96,-108.46 458.55,-62.38 498.48,-50.32"/>
<polygon fill="#8292a8" stroke="#8292a8" stroke-width="1.3" points="499.22,-53.02 506.07,-48.03 497.6,-47.66 499.22,-53.02"/>
</g>
<!-- ReactionQueued&#45;&gt;Requested -->
<g id="edge18" class="edge">
<title>ReactionQueued:nw&#45;&gt;Requested:sw</title>
<path fill="none" stroke="#7257a6" stroke-width="1.3" d="M1031,-155.92C1031,-155.92 811.96,-770.22 811.96,-770.22 811.96,-770.22 518.57,-794.65 461.26,-799.42"/>
<polygon fill="#7257a6" stroke="#7257a6" stroke-width="1.3" points="461.33,-796.6 453.59,-800.06 461.79,-802.18 461.33,-796.6"/>
<text xml:space="preserve" text-anchor="middle" x="980.68" y="-475.15" font-family="Noto Sans KR" font-size="9.00" fill="#46566e">dequeue reaction command</text>
</g>
<!-- Scheduled&#45;&gt;Requested -->
<g id="edge15" class="edge">
<title>Scheduled:sw&#45;&gt;Requested:se</title>
<path fill="none" stroke="#5b6f8f" stroke-width="1.3" stroke-dasharray="5,2" d="M852.63,-800.22C852.63,-800.22 821.46,-775.7 821.46,-775.7 821.46,-775.7 722.46,-775.7 722.46,-775.7 722.46,-775.7 713.69,-782.83 705.61,-789.39"/>
<polygon fill="#5b6f8f" stroke="#5b6f8f" stroke-width="1.3" points="698.25,-791.76 693.81,-798.98 701.79,-796.11 698.25,-791.76"/>
<text xml:space="preserve" text-anchor="middle" x="771.96" y="-778.4" font-family="Noto Sans KR" font-size="9.00" fill="#46566e">due: enqueue request</text>
</g>
<!-- WaitingTrigger&#45;&gt;ReactionQueued -->
<g id="edge17" class="edge">
<title>WaitingTrigger:s&#45;&gt;ReactionQueued:n</title>
<path fill="none" stroke="#7257a6" stroke-width="1.3" d="M1090.95,-918.93C1090.95,-918.93 1117.95,-824.95 1117.95,-824.95 1117.95,-824.95 1117.95,-824.95 1117.95,-249.9 1117.95,-249.9 1117.95,-189.64 1117.95,-165.62"/>
<polygon fill="#7257a6" stroke="#7257a6" stroke-width="1.3" points="1120.76,-165.89 1117.96,-157.89 1115.16,-165.89 1120.76,-165.89"/>
<text xml:space="preserve" text-anchor="middle" x="1167.08" y="-534.5" font-family="Noto Sans KR" font-size="9.00" fill="#46566e">committed fact matched</text>
</g>
<!-- Cancelled&#45;&gt;Logged -->
<g id="edge22" class="edge">
<title>Cancelled:s&#45;&gt;Logged:n</title>
<path fill="none" stroke="#8292a8" stroke-width="1.3" stroke-dasharray="1,5" d="M708.96,-681.51C708.96,-681.51 708.96,-597.78 708.96,-597.78 708.96,-597.78 708.96,-597.78 708.96,-131.19 708.96,-131.19 556.44,-67.66 517.11,-51.28"/>
<polygon fill="#8292a8" stroke="#8292a8" stroke-width="1.3" points="518.23,-48.71 509.77,-48.22 516.08,-53.88 518.23,-48.71"/>
</g>
<!-- Failed&#45;&gt;Logged -->
<g id="edge21" class="edge">
<title>Failed:s&#45;&gt;Logged:n</title>
<path fill="none" stroke="#8292a8" stroke-width="1.3" stroke-dasharray="1,5" d="M507.96,-227.17C507.96,-227.17 507.96,-95.05 507.96,-57.38"/>
<polygon fill="#8292a8" stroke="#8292a8" stroke-width="1.3" points="510.76,-57.43 507.96,-49.43 505.16,-57.43 510.76,-57.43"/>
</g>
<!-- Defined -->
<g id="node1" class="node">
<title>Defined</title>
<path fill="#fff7e6" stroke="#e0ad4e" stroke-width="1.4" d="M766.36,-1085.1C766.36,-1085.1 653.56,-1085.1 653.56,-1085.1 647.56,-1085.1 641.56,-1079.1 641.56,-1073.1 641.56,-1073.1 641.56,-1049.64 641.56,-1049.64 641.56,-1043.64 647.56,-1037.64 653.56,-1037.64 653.56,-1037.64 766.36,-1037.64 766.36,-1037.64 772.36,-1037.64 778.36,-1043.64 778.36,-1049.64 778.36,-1049.64 778.36,-1073.1 778.36,-1073.1 778.36,-1079.1 772.36,-1085.1 766.36,-1085.1"/>
<text xml:space="preserve" text-anchor="middle" x="709.96" y="-1065.32" font-family="Noto Sans KR" font-size="14.00" fill="#182033">Defined</text>
<text xml:space="preserve" text-anchor="middle" x="709.96" y="-1048.07" font-family="Noto Sans KR" font-size="14.00" fill="#182033">static data</text>
</g>
<!-- Registered -->
<g id="node2" class="node">
<title>Registered</title>
<path fill="#eaf0ff" stroke="#8292f7" stroke-width="1.4" d="M773.29,-966.39C773.29,-966.39 646.62,-966.39 646.62,-966.39 640.62,-966.39 634.62,-960.39 634.62,-954.39 634.62,-954.39 634.62,-930.93 634.62,-930.93 634.62,-924.93 640.62,-918.93 646.62,-918.93 646.62,-918.93 773.29,-918.93 773.29,-918.93 779.29,-918.93 785.29,-924.93 785.29,-930.93 785.29,-930.93 785.29,-954.39 785.29,-954.39 785.29,-960.39 779.29,-966.39 773.29,-966.39"/>
<text xml:space="preserve" text-anchor="middle" x="709.96" y="-946.61" font-family="Noto Sans KR" font-size="14.00" fill="#182033">Registered</text>
<text xml:space="preserve" text-anchor="middle" x="709.96" y="-929.36" font-family="Noto Sans KR" font-size="14.00" fill="#182033">loaded and validated</text>
</g>
<!-- Requested -->
<g id="node3" class="node">
<title>Requested</title>
<path fill="#eaf0ff" stroke="#8292f7" stroke-width="1.4" d="M680.29,-847.68C680.29,-847.68 463.63,-847.68 463.63,-847.68 457.63,-847.68 451.63,-841.68 451.63,-835.68 451.63,-835.68 451.63,-812.22 451.63,-812.22 451.63,-806.22 457.63,-800.22 463.63,-800.22 463.63,-800.22 680.29,-800.22 680.29,-800.22 686.29,-800.22 692.29,-806.22 692.29,-812.22 692.29,-812.22 692.29,-835.68 692.29,-835.68 692.29,-841.68 686.29,-847.68 680.29,-847.68"/>
<text xml:space="preserve" text-anchor="middle" x="571.96" y="-827.9" font-family="Noto Sans KR" font-size="14.00" fill="#182033">Requested</text>
<text xml:space="preserve" text-anchor="middle" x="571.96" y="-810.65" font-family="Noto Sans KR" font-size="14.00" fill="#182033">public Operation | Bundle + Context</text>
</g>
<!-- Validating -->
<g id="node4" class="node">
<title>Validating</title>
<path fill="#f3eefc" stroke="#ab8fe0" stroke-width="1.4" d="M474.36,-728.97C474.36,-728.97 361.56,-728.97 361.56,-728.97 355.56,-728.97 349.56,-722.97 349.56,-716.97 349.56,-716.97 349.56,-693.51 349.56,-693.51 349.56,-687.51 355.56,-681.51 361.56,-681.51 361.56,-681.51 474.36,-681.51 474.36,-681.51 480.36,-681.51 486.36,-687.51 486.36,-693.51 486.36,-693.51 486.36,-716.97 486.36,-716.97 486.36,-722.97 480.36,-728.97 474.36,-728.97"/>
<text xml:space="preserve" text-anchor="middle" x="417.96" y="-709.19" font-family="Noto Sans KR" font-size="14.00" fill="#182033">Validating</text>
<text xml:space="preserve" text-anchor="middle" x="417.96" y="-691.94" font-family="Noto Sans KR" font-size="14.00" fill="#182033">conditions</text>
</g>
<!-- ResolvingTargets -->
<g id="node5" class="node">
<title>ResolvingTargets</title>
<path fill="#f3eefc" stroke="#ab8fe0" stroke-width="1.4" d="M350.36,-620.51C350.36,-620.51 237.56,-620.51 237.56,-620.51 231.56,-620.51 225.56,-614.51 225.56,-608.51 225.56,-608.51 225.56,-585.05 225.56,-585.05 225.56,-579.05 231.56,-573.05 237.56,-573.05 237.56,-573.05 350.36,-573.05 350.36,-573.05 356.36,-573.05 362.36,-579.05 362.36,-585.05 362.36,-585.05 362.36,-608.51 362.36,-608.51 362.36,-614.51 356.36,-620.51 350.36,-620.51"/>
<text xml:space="preserve" text-anchor="middle" x="293.96" y="-600.73" font-family="Noto Sans KR" font-size="14.00" fill="#182033">Resolving Targets</text>
<text xml:space="preserve" text-anchor="middle" x="293.96" y="-583.48" font-family="Noto Sans KR" font-size="14.00" fill="#182033">filter + stable sort</text>
</g>
<!-- Planning -->
<g id="node6" class="node">
<title>Planning</title>
<path fill="#eefbf6" stroke="#61b99a" stroke-width="1.4" d="M244.04,-501.8C244.04,-501.8 109.88,-501.8 109.88,-501.8 103.88,-501.8 97.88,-495.8 97.88,-489.8 97.88,-489.8 97.88,-466.34 97.88,-466.34 97.88,-460.34 103.88,-454.34 109.88,-454.34 109.88,-454.34 244.04,-454.34 244.04,-454.34 250.04,-454.34 256.04,-460.34 256.04,-466.34 256.04,-466.34 256.04,-489.8 256.04,-489.8 256.04,-495.8 250.04,-501.8 244.04,-501.8"/>
<text xml:space="preserve" text-anchor="middle" x="176.96" y="-482.02" font-family="Noto Sans KR" font-size="14.00" fill="#182033">Planning (internal)</text>
<text xml:space="preserve" text-anchor="middle" x="176.96" y="-464.77" font-family="Noto Sans KR" font-size="14.00" fill="#182033">requests + pure results</text>
</g>
<!-- Prepared -->
<g id="node7" class="node">
<title>Prepared</title>
<path fill="#e9fbff" stroke="#54b7cf" stroke-width="1.4" d="M257.91,-383.09C257.91,-383.09 12,-383.09 12,-383.09 6,-383.09 0,-377.09 0,-371.09 0,-371.09 0,-347.63 0,-347.63 0,-341.63 6,-335.63 12,-335.63 12,-335.63 257.91,-335.63 257.91,-335.63 263.91,-335.63 269.91,-341.63 269.91,-347.63 269.91,-347.63 269.91,-371.09 269.91,-371.09 269.91,-377.09 263.91,-383.09 257.91,-383.09"/>
<text xml:space="preserve" text-anchor="middle" x="134.96" y="-363.31" font-family="Noto Sans KR" font-size="14.00" fill="#182033">Prepared (public composition contract)</text>
<text xml:space="preserve" text-anchor="middle" x="134.96" y="-346.06" font-family="Noto Sans KR" font-size="14.00" fill="#182033">EffectBundlePlan: operations + reactions</text>
</g>
<!-- Committing -->
<g id="node8" class="node">
<title>Committing</title>
<path fill="#fff7e6" stroke="#e0ad4e" stroke-width="1.4" d="M237.36,-274.63C237.36,-274.63 124.56,-274.63 124.56,-274.63 118.56,-274.63 112.56,-268.63 112.56,-262.63 112.56,-262.63 112.56,-239.17 112.56,-239.17 112.56,-233.17 118.56,-227.17 124.56,-227.17 124.56,-227.17 237.36,-227.17 237.36,-227.17 243.36,-227.17 249.36,-233.17 249.36,-239.17 249.36,-239.17 249.36,-262.63 249.36,-262.63 249.36,-268.63 243.36,-274.63 237.36,-274.63"/>
<text xml:space="preserve" text-anchor="middle" x="180.96" y="-254.85" font-family="Noto Sans KR" font-size="14.00" fill="#182033">Atomic Commit</text>
<text xml:space="preserve" text-anchor="middle" x="180.96" y="-237.6" font-family="Noto Sans KR" font-size="14.00" fill="#182033">state + outbox</text>
</g>
<!-- Committed -->
<g id="node9" class="node">
<title>Committed</title>
<path fill="#eefbf6" stroke="#61b99a" stroke-width="1.4" d="M362.36,-155.92C362.36,-155.92 249.56,-155.92 249.56,-155.92 243.56,-155.92 237.56,-149.92 237.56,-143.92 237.56,-143.92 237.56,-120.46 237.56,-120.46 237.56,-114.46 243.56,-108.46 249.56,-108.46 249.56,-108.46 362.36,-108.46 362.36,-108.46 368.36,-108.46 374.36,-114.46 374.36,-120.46 374.36,-120.46 374.36,-143.92 374.36,-143.92 374.36,-149.92 368.36,-155.92 362.36,-155.92"/>
<text xml:space="preserve" text-anchor="middle" x="305.96" y="-136.14" font-family="Noto Sans KR" font-size="14.00" fill="#182033">Committed</text>
<text xml:space="preserve" text-anchor="middle" x="305.96" y="-118.89" font-family="Noto Sans KR" font-size="14.00" fill="#182033">EffectResult + facts</text>
</g>
<!-- ReactionQueued -->
<g id="node10" class="node">
<title>ReactionQueued</title>
<path fill="#f3eefc" stroke="#ab8fe0" stroke-width="1.4" d="M1192.91,-155.92C1192.91,-155.92 1043,-155.92 1043,-155.92 1037,-155.92 1031,-149.92 1031,-143.92 1031,-143.92 1031,-120.46 1031,-120.46 1031,-114.46 1037,-108.46 1043,-108.46 1043,-108.46 1192.91,-108.46 1192.91,-108.46 1198.91,-108.46 1204.91,-114.46 1204.91,-120.46 1204.91,-120.46 1204.91,-143.92 1204.91,-143.92 1204.91,-149.92 1198.91,-155.92 1192.91,-155.92"/>
<text xml:space="preserve" text-anchor="middle" x="1117.95" y="-136.14" font-family="Noto Sans KR" font-size="14.00" fill="#182033">Reaction Queued</text>
<text xml:space="preserve" text-anchor="middle" x="1117.95" y="-118.89" font-family="Noto Sans KR" font-size="14.00" fill="#182033">new bounded command</text>
</g>
<!-- Scheduled -->
<g id="node11" class="node">
<title>Scheduled</title>
<path fill="#f0f3f9" stroke="#99a8bd" stroke-width="1.4" d="M1014.29,-847.68C1014.29,-847.68 863.62,-847.68 863.62,-847.68 857.62,-847.68 851.62,-841.68 851.62,-835.68 851.62,-835.68 851.62,-812.22 851.62,-812.22 851.62,-806.22 857.62,-800.22 863.62,-800.22 863.62,-800.22 1014.29,-800.22 1014.29,-800.22 1020.29,-800.22 1026.29,-806.22 1026.29,-812.22 1026.29,-812.22 1026.29,-835.68 1026.29,-835.68 1026.29,-841.68 1020.29,-847.68 1014.29,-847.68"/>
<text xml:space="preserve" text-anchor="middle" x="938.96" y="-827.9" font-family="Noto Sans KR" font-size="14.00" fill="#182033">Scheduled</text>
<text xml:space="preserve" text-anchor="middle" x="938.96" y="-810.65" font-family="Noto Sans KR" font-size="14.00" fill="#182033">delay / periodic due time</text>
</g>
<!-- WaitingTrigger -->
<g id="node12" class="node">
<title>WaitingTrigger</title>
<path fill="#f0f3f9" stroke="#99a8bd" stroke-width="1.4" d="M1167.03,-966.39C1167.03,-966.39 1014.87,-966.39 1014.87,-966.39 1008.87,-966.39 1002.87,-960.39 1002.87,-954.39 1002.87,-954.39 1002.87,-930.93 1002.87,-930.93 1002.87,-924.93 1008.87,-918.93 1014.87,-918.93 1014.87,-918.93 1167.03,-918.93 1167.03,-918.93 1173.03,-918.93 1179.03,-924.93 1179.03,-930.93 1179.03,-930.93 1179.03,-954.39 1179.03,-954.39 1179.03,-960.39 1173.03,-966.39 1167.03,-966.39"/>
<text xml:space="preserve" text-anchor="middle" x="1090.95" y="-946.61" font-family="Noto Sans KR" font-size="14.00" fill="#182033">Waiting Trigger</text>
<text xml:space="preserve" text-anchor="middle" x="1090.95" y="-929.36" font-family="Noto Sans KR" font-size="14.00" fill="#182033">committed fact predicate</text>
</g>
<!-- Cancelled -->
<g id="node13" class="node">
<title>Cancelled</title>
<path fill="#fff0f3" stroke="#e07b91" stroke-width="1.4" d="M765.36,-728.97C765.36,-728.97 652.56,-728.97 652.56,-728.97 646.56,-728.97 640.56,-722.97 640.56,-716.97 640.56,-716.97 640.56,-693.51 640.56,-693.51 640.56,-687.51 646.56,-681.51 652.56,-681.51 652.56,-681.51 765.36,-681.51 765.36,-681.51 771.36,-681.51 777.36,-687.51 777.36,-693.51 777.36,-693.51 777.36,-716.97 777.36,-716.97 777.36,-722.97 771.36,-728.97 765.36,-728.97"/>
<text xml:space="preserve" text-anchor="middle" x="708.96" y="-709.19" font-family="Noto Sans KR" font-size="14.00" fill="#182033">Cancelled</text>
<text xml:space="preserve" text-anchor="middle" x="708.96" y="-691.94" font-family="Noto Sans KR" font-size="14.00" fill="#182033">before Prepare</text>
</g>
<!-- Failed -->
<g id="node14" class="node">
<title>Failed</title>
<path fill="#fff0f3" stroke="#e07b91" stroke-width="1.4" d="M590.41,-274.63C590.41,-274.63 425.5,-274.63 425.5,-274.63 419.5,-274.63 413.5,-268.63 413.5,-262.63 413.5,-262.63 413.5,-239.17 413.5,-239.17 413.5,-233.17 419.5,-227.17 425.5,-227.17 425.5,-227.17 590.41,-227.17 590.41,-227.17 596.41,-227.17 602.41,-233.17 602.41,-239.17 602.41,-239.17 602.41,-262.63 602.41,-262.63 602.41,-268.63 596.41,-274.63 590.41,-274.63"/>
<text xml:space="preserve" text-anchor="middle" x="507.96" y="-254.85" font-family="Noto Sans KR" font-size="14.00" fill="#182033">Failed</text>
<text xml:space="preserve" text-anchor="middle" x="507.96" y="-237.6" font-family="Noto Sans KR" font-size="14.00" fill="#182033">validation / target / commit</text>
</g>
<!-- Logged -->
<g id="node15" class="node">
<title>Logged</title>
<path fill="#f3eefc" stroke="#ab8fe0" stroke-width="1.4" d="M570.91,-47.46C570.91,-47.46 445,-47.46 445,-47.46 439,-47.46 433,-41.46 433,-35.46 433,-35.46 433,-12 433,-12 433,-6 439,0 445,0 445,0 570.91,0 570.91,0 576.91,0 582.91,-6 582.91,-12 582.91,-12 582.91,-35.46 582.91,-35.46 582.91,-41.46 576.91,-47.46 570.91,-47.46"/>
<text xml:space="preserve" text-anchor="middle" x="507.96" y="-27.68" font-family="Noto Sans KR" font-size="14.00" fill="#182033">Observed</text>
<text xml:space="preserve" text-anchor="middle" x="507.96" y="-10.43" font-family="Noto Sans KR" font-size="14.00" fill="#182033">DebugTrace / UI / log</text>
</g>
</g>
</svg>
