<?xml version="1.0" encoding="UTF-8" standalone="no"?>
<!DOCTYPE svg PUBLIC "-//W3C//DTD SVG 1.1//EN"
 "http://www.w3.org/Graphics/SVG/1.1/DTD/svg11.dtd">
<!-- Generated by graphviz version 2.42.4 (0)
 -->
<!-- Title: G Pages: 1 -->
<svg width="2182pt" height="265pt"
 viewBox="8.64 8.64 2173.64 256.64" xmlns="http://www.w3.org/2000/svg" xmlns:xlink="http://www.w3.org/1999/xlink">
<g id="graph0" class="graph" transform="scale(1 1) rotate(0) translate(26.64 238.64)">
<title>G</title>
<polygon fill="#ffffff" stroke="transparent" points="-18,18 -18,-230 2147,-230 2147,18 -18,18"/>
<!-- Defined -->
<g id="node1" class="node">
<title>Defined</title>
<path fill="#fff7e6" stroke="#e0ad4e" stroke-width="1.4" d="M114,-90C114,-90 12,-90 12,-90 6,-90 0,-84 0,-78 0,-78 0,-60 0,-60 0,-54 6,-48 12,-48 12,-48 114,-48 114,-48 120,-48 126,-54 126,-60 126,-60 126,-78 126,-78 126,-84 120,-90 114,-90"/>
<text text-anchor="middle" x="63" y="-72.8" font-family="Noto Sans CJK KR" font-size="14.00" fill="#182033">Defined</text>
<text text-anchor="middle" x="63" y="-57.8" font-family="Noto Sans CJK KR" font-size="14.00" fill="#182033">데이터에 존재</text>
</g>
<!-- Registered -->
<g id="node2" class="node">
<title>Registered</title>
<path fill="#eaf0ff" stroke="#8292f7" stroke-width="1.4" d="M327,-90C327,-90 216,-90 216,-90 210,-90 204,-84 204,-78 204,-78 204,-60 204,-60 204,-54 210,-48 216,-48 216,-48 327,-48 327,-48 333,-48 339,-54 339,-60 339,-60 339,-78 339,-78 339,-84 333,-90 327,-90"/>
<text text-anchor="middle" x="271.5" y="-72.8" font-family="Noto Sans CJK KR" font-size="14.00" fill="#182033">Registered</text>
<text text-anchor="middle" x="271.5" y="-57.8" font-family="Noto Sans CJK KR" font-size="14.00" fill="#182033">Registry 로드·검증</text>
</g>
<!-- Defined&#45;&gt;Registered -->
<g id="edge1" class="edge">
<title>Defined&#45;&gt;Registered</title>
<path fill="none" stroke="#59687e" stroke-width="1.3" d="M126.12,-69C126.12,-69 195.88,-69 195.88,-69"/>
<polygon fill="#59687e" stroke="#59687e" stroke-width="1.3" points="195.88,-71.8 203.88,-69 195.88,-66.2 195.88,-71.8"/>
<text text-anchor="middle" x="165" y="-72.8" font-family="Noto Sans CJK KR" font-size="14.00" fill="#46566e">load</text>
</g>
<!-- Requested -->
<g id="node3" class="node">
<title>Requested</title>
<path fill="#eaf0ff" stroke="#8292f7" stroke-width="1.4" d="M811,-90C811,-90 709,-90 709,-90 703,-90 697,-84 697,-78 697,-78 697,-60 697,-60 697,-54 703,-48 709,-48 709,-48 811,-48 811,-48 817,-48 823,-54 823,-60 823,-60 823,-78 823,-78 823,-84 817,-90 811,-90"/>
<text text-anchor="middle" x="760" y="-72.8" font-family="Noto Sans CJK KR" font-size="14.00" fill="#182033">Requested</text>
<text text-anchor="middle" x="760" y="-57.8" font-family="Noto Sans CJK KR" font-size="14.00" fill="#182033">실행 요청 생성</text>
</g>
<!-- Registered&#45;&gt;Requested -->
<g id="edge2" class="edge">
<title>Registered&#45;&gt;Requested</title>
<path fill="none" stroke="#59687e" stroke-width="1.3" d="M339.17,-79.5C339.17,-79.5 688.84,-79.5 688.84,-79.5"/>
<polygon fill="#59687e" stroke="#59687e" stroke-width="1.3" points="688.84,-82.3 696.84,-79.5 688.84,-76.7 688.84,-82.3"/>
<text text-anchor="middle" x="543" y="-117.8" font-family="Noto Sans CJK KR" font-size="14.00" fill="#46566e">skill/status/event</text>
</g>
<!-- WaitingTrigger -->
<g id="node10" class="node">
<title>WaitingTrigger</title>
<path fill="#f0f3f9" stroke="#99a8bd" stroke-width="1.4" d="M594,-44C594,-44 492,-44 492,-44 486,-44 480,-38 480,-32 480,-32 480,-14 480,-14 480,-8 486,-2 492,-2 492,-2 594,-2 594,-2 600,-2 606,-8 606,-14 606,-14 606,-32 606,-32 606,-38 600,-44 594,-44"/>
<text text-anchor="middle" x="543" y="-26.8" font-family="Noto Sans CJK KR" font-size="14.00" fill="#182033">Waiting Trigger</text>
<text text-anchor="middle" x="543" y="-11.8" font-family="Noto Sans CJK KR" font-size="14.00" fill="#182033">이벤트 반응 대기</text>
</g>
<!-- Registered&#45;&gt;WaitingTrigger -->
<g id="edge12" class="edge">
<title>Registered&#45;&gt;WaitingTrigger</title>
<path fill="none" stroke="#59687e" stroke-width="1.3" d="M339.29,-58.5C413.48,-58.5 522,-58.5 522,-58.5 522,-58.5 522,-52.06 522,-52.06"/>
<polygon fill="#59687e" stroke="#59687e" stroke-width="1.3" points="524.8,-52.06 522,-44.06 519.2,-52.06 524.8,-52.06"/>
<text text-anchor="middle" x="409.5" y="-53.8" font-family="Noto Sans CJK KR" font-size="14.00" fill="#46566e">event reaction</text>
</g>
<!-- Validating -->
<g id="node4" class="node">
<title>Validating</title>
<path fill="#f3eefc" stroke="#ab8fe0" stroke-width="1.4" d="M1083,-128C1083,-128 966,-128 966,-128 960,-128 954,-122 954,-116 954,-116 954,-98 954,-98 954,-92 960,-86 966,-86 966,-86 1083,-86 1083,-86 1089,-86 1095,-92 1095,-98 1095,-98 1095,-116 1095,-116 1095,-122 1089,-128 1083,-128"/>
<text text-anchor="middle" x="1024.5" y="-110.8" font-family="Noto Sans CJK KR" font-size="14.00" fill="#182033">Validating</text>
<text text-anchor="middle" x="1024.5" y="-95.8" font-family="Noto Sans CJK KR" font-size="14.00" fill="#182033">조건·비용·상태 검사</text>
</g>
<!-- Requested&#45;&gt;Validating -->
<g id="edge3" class="edge">
<title>Requested&#45;&gt;Validating</title>
<path fill="none" stroke="#59687e" stroke-width="1.3" d="M823.19,-69C881.14,-69 958,-69 958,-69 958,-69 958,-77.78 958,-77.78"/>
<polygon fill="#59687e" stroke="#59687e" stroke-width="1.3" points="955.2,-77.78 958,-85.78 960.8,-77.78 955.2,-77.78"/>
</g>
<!-- Scheduled -->
<g id="node9" class="node">
<title>Scheduled</title>
<path fill="#f0f3f9" stroke="#99a8bd" stroke-width="1.4" d="M1075.5,-42C1075.5,-42 973.5,-42 973.5,-42 967.5,-42 961.5,-36 961.5,-30 961.5,-30 961.5,-12 961.5,-12 961.5,-6 967.5,0 973.5,0 973.5,0 1075.5,0 1075.5,0 1081.5,0 1087.5,-6 1087.5,-12 1087.5,-12 1087.5,-30 1087.5,-30 1087.5,-36 1081.5,-42 1075.5,-42"/>
<text text-anchor="middle" x="1024.5" y="-24.8" font-family="Noto Sans CJK KR" font-size="14.00" fill="#182033">Scheduled</text>
<text text-anchor="middle" x="1024.5" y="-9.8" font-family="Noto Sans CJK KR" font-size="14.00" fill="#182033">지연/반복 대기</text>
</g>
<!-- Requested&#45;&gt;Scheduled -->
<g id="edge10" class="edge">
<title>Requested&#45;&gt;Scheduled</title>
<path fill="none" stroke="#59687e" stroke-width="1.3" d="M823.15,-51.25C895.45,-51.25 1004,-51.25 1004,-51.25 1004,-51.25 1004,-50.01 1004,-50.01"/>
<polygon fill="#59687e" stroke="#59687e" stroke-width="1.3" points="1006.8,-50.01 1004,-42.01 1001.2,-50.01 1006.8,-50.01"/>
<text text-anchor="middle" x="888.5" y="-72.8" font-family="Noto Sans CJK KR" font-size="14.00" fill="#46566e">delay/repeat</text>
</g>
<!-- ResolvingTargets -->
<g id="node5" class="node">
<title>ResolvingTargets</title>
<path fill="#f3eefc" stroke="#ab8fe0" stroke-width="1.4" d="M1292,-124C1292,-124 1181,-124 1181,-124 1175,-124 1169,-118 1169,-112 1169,-112 1169,-94 1169,-94 1169,-88 1175,-82 1181,-82 1181,-82 1292,-82 1292,-82 1298,-82 1304,-88 1304,-94 1304,-94 1304,-112 1304,-112 1304,-118 1298,-124 1292,-124"/>
<text text-anchor="middle" x="1236.5" y="-106.8" font-family="Noto Sans CJK KR" font-size="14.00" fill="#182033">Resolving Targets</text>
<text text-anchor="middle" x="1236.5" y="-91.8" font-family="Noto Sans CJK KR" font-size="14.00" fill="#182033">대상 선택</text>
</g>
<!-- Validating&#45;&gt;ResolvingTargets -->
<g id="edge5" class="edge">
<title>Validating&#45;&gt;ResolvingTargets</title>
<path fill="none" stroke="#59687e" stroke-width="1.3" d="M1095.09,-105C1095.09,-105 1160.73,-105 1160.73,-105"/>
<polygon fill="#59687e" stroke="#59687e" stroke-width="1.3" points="1160.73,-107.8 1168.73,-105 1160.73,-102.2 1160.73,-107.8"/>
<text text-anchor="middle" x="1132" y="-108.8" font-family="Noto Sans CJK KR" font-size="14.00" fill="#46566e">통과</text>
</g>
<!-- Failed -->
<g id="node12" class="node">
<title>Failed</title>
<path fill="#fff0f3" stroke="#e07b91" stroke-width="1.4" d="M1528,-212C1528,-212 1426,-212 1426,-212 1420,-212 1414,-206 1414,-200 1414,-200 1414,-182 1414,-182 1414,-176 1420,-170 1426,-170 1426,-170 1528,-170 1528,-170 1534,-170 1540,-176 1540,-182 1540,-182 1540,-200 1540,-200 1540,-206 1534,-212 1528,-212"/>
<text text-anchor="middle" x="1477" y="-194.8" font-family="Noto Sans CJK KR" font-size="14.00" fill="#182033">Failed</text>
<text text-anchor="middle" x="1477" y="-179.8" font-family="Noto Sans CJK KR" font-size="14.00" fill="#182033">검증/대상 없음</text>
</g>
<!-- Validating&#45;&gt;Failed -->
<g id="edge4" class="edge">
<title>Validating&#45;&gt;Failed</title>
<path fill="none" stroke="#59687e" stroke-width="1.3" d="M1025,-128.11C1025,-154.99 1025,-198 1025,-198 1025,-198 1405.68,-198 1405.68,-198"/>
<polygon fill="#59687e" stroke="#59687e" stroke-width="1.3" points="1405.68,-200.8 1413.68,-198 1405.68,-195.2 1405.68,-200.8"/>
<text text-anchor="middle" x="1236.5" y="-197.8" font-family="Noto Sans CJK KR" font-size="14.00" fill="#46566e">조건 실패</text>
</g>
<!-- ResolvingValues -->
<g id="node6" class="node">
<title>ResolvingValues</title>
<path fill="#eefbf6" stroke="#61b99a" stroke-width="1.4" d="M1529.5,-119C1529.5,-119 1424.5,-119 1424.5,-119 1418.5,-119 1412.5,-113 1412.5,-107 1412.5,-107 1412.5,-89 1412.5,-89 1412.5,-83 1418.5,-77 1424.5,-77 1424.5,-77 1529.5,-77 1529.5,-77 1535.5,-77 1541.5,-83 1541.5,-89 1541.5,-89 1541.5,-107 1541.5,-107 1541.5,-113 1535.5,-119 1529.5,-119"/>
<text text-anchor="middle" x="1477" y="-101.8" font-family="Noto Sans CJK KR" font-size="14.00" fill="#182033">Resolving Values</text>
<text text-anchor="middle" x="1477" y="-86.8" font-family="Noto Sans CJK KR" font-size="14.00" fill="#182033">스탯·수식 계산</text>
</g>
<!-- ResolvingTargets&#45;&gt;ResolvingValues -->
<g id="edge7" class="edge">
<title>ResolvingTargets&#45;&gt;ResolvingValues</title>
<path fill="none" stroke="#59687e" stroke-width="1.3" d="M1304.13,-100.5C1304.13,-100.5 1404.36,-100.5 1404.36,-100.5"/>
<polygon fill="#59687e" stroke="#59687e" stroke-width="1.3" points="1404.36,-103.3 1412.36,-100.5 1404.36,-97.7 1404.36,-103.3"/>
</g>
<!-- ResolvingTargets&#45;&gt;Failed -->
<g id="edge6" class="edge">
<title>ResolvingTargets&#45;&gt;Failed</title>
<path fill="none" stroke="#59687e" stroke-width="1.3" d="M1237,-124.28C1237,-148.28 1237,-184 1237,-184 1237,-184 1405.94,-184 1405.94,-184"/>
<polygon fill="#59687e" stroke="#59687e" stroke-width="1.3" points="1405.94,-186.8 1413.94,-184 1405.94,-181.2 1405.94,-186.8"/>
<text text-anchor="middle" x="1355.5" y="-159.8" font-family="Noto Sans CJK KR" font-size="14.00" fill="#46566e">대상 없음</text>
</g>
<!-- Applying -->
<g id="node7" class="node">
<title>Applying</title>
<path fill="#fff0f3" stroke="#e07b91" stroke-width="1.4" d="M1710,-119C1710,-119 1608,-119 1608,-119 1602,-119 1596,-113 1596,-107 1596,-107 1596,-89 1596,-89 1596,-83 1602,-77 1608,-77 1608,-77 1710,-77 1710,-77 1716,-77 1722,-83 1722,-89 1722,-89 1722,-107 1722,-107 1722,-113 1716,-119 1710,-119"/>
<text text-anchor="middle" x="1659" y="-101.8" font-family="Noto Sans CJK KR" font-size="14.00" fill="#182033">Applying</text>
<text text-anchor="middle" x="1659" y="-86.8" font-family="Noto Sans CJK KR" font-size="14.00" fill="#182033">결과 적용</text>
</g>
<!-- ResolvingValues&#45;&gt;Applying -->
<g id="edge8" class="edge">
<title>ResolvingValues&#45;&gt;Applying</title>
<path fill="none" stroke="#59687e" stroke-width="1.3" d="M1541.68,-98C1541.68,-98 1587.75,-98 1587.75,-98"/>
<polygon fill="#59687e" stroke="#59687e" stroke-width="1.3" points="1587.75,-100.8 1595.75,-98 1587.75,-95.2 1587.75,-100.8"/>
</g>
<!-- Completed -->
<g id="node8" class="node">
<title>Completed</title>
<path fill="#eefbf6" stroke="#61b99a" stroke-width="1.4" d="M1942,-138C1942,-138 1840,-138 1840,-138 1834,-138 1828,-132 1828,-126 1828,-126 1828,-108 1828,-108 1828,-102 1834,-96 1840,-96 1840,-96 1942,-96 1942,-96 1948,-96 1954,-102 1954,-108 1954,-108 1954,-126 1954,-126 1954,-132 1948,-138 1942,-138"/>
<text text-anchor="middle" x="1891" y="-120.8" font-family="Noto Sans CJK KR" font-size="14.00" fill="#182033">Completed</text>
<text text-anchor="middle" x="1891" y="-105.8" font-family="Noto Sans CJK KR" font-size="14.00" fill="#182033">EffectResult 반환</text>
</g>
<!-- Applying&#45;&gt;Completed -->
<g id="edge9" class="edge">
<title>Applying&#45;&gt;Completed</title>
<path fill="none" stroke="#59687e" stroke-width="1.3" d="M1722.09,-107.5C1722.09,-107.5 1819.92,-107.5 1819.92,-107.5"/>
<polygon fill="#59687e" stroke="#59687e" stroke-width="1.3" points="1819.92,-110.3 1827.92,-107.5 1819.92,-104.7 1819.92,-110.3"/>
</g>
<!-- Cancelled -->
<g id="node11" class="node">
<title>Cancelled</title>
<path fill="#fff0f3" stroke="#e07b91" stroke-width="1.4" d="M1942,-61C1942,-61 1840,-61 1840,-61 1834,-61 1828,-55 1828,-49 1828,-49 1828,-31 1828,-31 1828,-25 1834,-19 1840,-19 1840,-19 1942,-19 1942,-19 1948,-19 1954,-25 1954,-31 1954,-31 1954,-49 1954,-49 1954,-55 1948,-61 1942,-61"/>
<text text-anchor="middle" x="1891" y="-43.8" font-family="Noto Sans CJK KR" font-size="14.00" fill="#182033">Cancelled</text>
<text text-anchor="middle" x="1891" y="-28.8" font-family="Noto Sans CJK KR" font-size="14.00" fill="#182033">취소됨</text>
</g>
<!-- Applying&#45;&gt;Cancelled -->
<g id="edge15" class="edge">
<title>Applying&#45;&gt;Cancelled</title>
<path fill="none" stroke="#59687e" stroke-width="1.3" d="M1659,-76.93C1659,-67.19 1659,-57.75 1659,-57.75 1659,-57.75 1819.91,-57.75 1819.91,-57.75"/>
<polygon fill="#59687e" stroke="#59687e" stroke-width="1.3" points="1819.91,-60.55 1827.91,-57.75 1819.91,-54.95 1819.91,-60.55"/>
<text text-anchor="middle" x="1775" y="-82.8" font-family="Noto Sans CJK KR" font-size="14.00" fill="#46566e">interrupt</text>
</g>
<!-- Logged -->
<g id="node13" class="node">
<title>Logged</title>
<path fill="#f3eefc" stroke="#ab8fe0" stroke-width="1.4" d="M2117,-138C2117,-138 2015,-138 2015,-138 2009,-138 2003,-132 2003,-126 2003,-126 2003,-108 2003,-108 2003,-102 2009,-96 2015,-96 2015,-96 2117,-96 2117,-96 2123,-96 2129,-102 2129,-108 2129,-108 2129,-126 2129,-126 2129,-132 2123,-138 2117,-138"/>
<text text-anchor="middle" x="2066" y="-120.8" font-family="Noto Sans CJK KR" font-size="14.00" fill="#182033">Logged</text>
<text text-anchor="middle" x="2066" y="-105.8" font-family="Noto Sans CJK KR" font-size="14.00" fill="#182033">EffectLog 저장</text>
</g>
<!-- Completed&#45;&gt;Logged -->
<g id="edge16" class="edge">
<title>Completed&#45;&gt;Logged</title>
<path fill="none" stroke="#59687e" stroke-width="1.3" d="M1954.18,-117C1954.18,-117 1994.91,-117 1994.91,-117"/>
<polygon fill="#59687e" stroke="#59687e" stroke-width="1.3" points="1994.91,-119.8 2002.91,-117 1994.91,-114.2 1994.91,-119.8"/>
</g>
<!-- Scheduled&#45;&gt;Requested -->
<g id="edge11" class="edge">
<title>Scheduled&#45;&gt;Requested</title>
<path fill="none" stroke="#59687e" stroke-width="1.3" d="M1046,-42.03C1046,-48.76 1046,-54.5 1046,-54.5 1046,-54.5 831.12,-54.5 831.12,-54.5"/>
<polygon fill="#59687e" stroke="#59687e" stroke-width="1.3" points="831.12,-51.7 823.12,-54.5 831.12,-57.3 831.12,-51.7"/>
<text text-anchor="middle" x="888.5" y="-17.8" font-family="Noto Sans CJK KR" font-size="14.00" fill="#46566e">timer</text>
</g>
<!-- Scheduled&#45;&gt;Cancelled -->
<g id="edge14" class="edge">
<title>Scheduled&#45;&gt;Cancelled</title>
<path fill="none" stroke="#59687e" stroke-width="1.3" d="M1087.51,-30.5C1087.51,-30.5 1819.93,-30.5 1819.93,-30.5"/>
<polygon fill="#59687e" stroke="#59687e" stroke-width="1.3" points="1819.93,-33.3 1827.93,-30.5 1819.93,-27.7 1819.93,-33.3"/>
<text text-anchor="middle" x="1477" y="-24.8" font-family="Noto Sans CJK KR" font-size="14.00" fill="#46566e">dispel/source remove</text>
</g>
<!-- WaitingTrigger&#45;&gt;Requested -->
<g id="edge13" class="edge">
<title>WaitingTrigger&#45;&gt;Requested</title>
<path fill="none" stroke="#59687e" stroke-width="1.3" d="M564,-44.12C564,-56.21 564,-69 564,-69 564,-69 688.91,-69 688.91,-69"/>
<polygon fill="#59687e" stroke="#59687e" stroke-width="1.3" points="688.91,-71.8 696.91,-69 688.91,-66.2 688.91,-71.8"/>
<text text-anchor="middle" x="651.5" y="-53.8" font-family="Noto Sans CJK KR" font-size="14.00" fill="#46566e">trigger</text>
</g>
<!-- Cancelled&#45;&gt;Logged -->
<g id="edge18" class="edge">
<title>Cancelled&#45;&gt;Logged</title>
<path fill="none" stroke="#59687e" stroke-width="1.3" d="M1954.18,-40C2004.31,-40 2066,-40 2066,-40 2066,-40 2066,-87.96 2066,-87.96"/>
<polygon fill="#59687e" stroke="#59687e" stroke-width="1.3" points="2063.2,-87.96 2066,-95.96 2068.8,-87.96 2063.2,-87.96"/>
</g>
<!-- Failed&#45;&gt;Logged -->
<g id="edge17" class="edge">
<title>Failed&#45;&gt;Logged</title>
<path fill="none" stroke="#59687e" stroke-width="1.3" d="M1540.03,-191C1691.98,-191 2066,-191 2066,-191 2066,-191 2066,-146.01 2066,-146.01"/>
<polygon fill="#59687e" stroke="#59687e" stroke-width="1.3" points="2068.8,-146.01 2066,-138.01 2063.2,-146.01 2068.8,-146.01"/>
</g>
</g>
</svg>
