<?xml version="1.0" encoding="UTF-8" standalone="no"?>
<!DOCTYPE svg PUBLIC "-//W3C//DTD SVG 1.1//EN"
 "http://www.w3.org/Graphics/SVG/1.1/DTD/svg11.dtd">
<!-- Generated by graphviz version 15.0.0 (20260523.1842)
 -->
<!-- Title: G Pages: 1 -->
<svg width="1053pt" height="884pt"
 viewBox="9.00 9.00 1044.00 876.00" xmlns="http://www.w3.org/2000/svg" xmlns:xlink="http://www.w3.org/1999/xlink">
<g id="graph0" class="graph" transform="scale(1 1) rotate(0) translate(26.64 857.56)">
<title>G</title>
<polygon fill="#ffffff" stroke="none" points="-18,18 -18,-848.92 1017.75,-848.92 1017.75,18 -18,18"/>
<!-- FireballSkill -->
<g id="node1" class="node">
<title>FireballSkill</title>
<path fill="#eaf0ff" stroke="#8292f7" stroke-width="1.4" d="M366.6,-830.92C366.6,-830.92 243,-830.92 243,-830.92 237,-830.92 231,-824.92 231,-818.92 231,-818.92 231,-796.36 231,-796.36 231,-790.36 237,-784.36 243,-784.36 243,-784.36 366.6,-784.36 366.6,-784.36 372.6,-784.36 378.6,-790.36 378.6,-796.36 378.6,-796.36 378.6,-818.92 378.6,-818.92 378.6,-824.92 372.6,-830.92 366.6,-830.92"/>
<text xml:space="preserve" text-anchor="middle" x="304.8" y="-811.84" font-family="Noto Sans CJK KR" font-size="14.00" fill="#182033">SkillDefinition</text>
<text xml:space="preserve" text-anchor="middle" x="304.8" y="-795.04" font-family="Noto Sans CJK KR" font-size="14.00" fill="#182033">skill.fireball</text>
</g>
<!-- Cost -->
<g id="node2" class="node">
<title>Cost</title>
<path fill="#f7f9fc" stroke="#bac7db" stroke-width="1.4" d="M135.6,-718.96C135.6,-718.96 12,-718.96 12,-718.96 6,-718.96 0,-712.96 0,-706.96 0,-706.96 0,-684.4 0,-684.4 0,-678.4 6,-672.4 12,-672.4 12,-672.4 135.6,-672.4 135.6,-672.4 141.6,-672.4 147.6,-678.4 147.6,-684.4 147.6,-684.4 147.6,-706.96 147.6,-706.96 147.6,-712.96 141.6,-718.96 135.6,-718.96"/>
<text xml:space="preserve" text-anchor="middle" x="73.8" y="-699.88" font-family="Noto Sans CJK KR" font-size="14.00" fill="#182033">CostMutation</text>
<text xml:space="preserve" text-anchor="middle" x="73.8" y="-683.08" font-family="Noto Sans CJK KR" font-size="14.00" fill="#182033">Mana 20</text>
</g>
<!-- FireballSkill&#45;&gt;Cost -->
<g id="edge1" class="edge">
<title>FireballSkill&#45;&gt;Cost</title>
<path fill="none" stroke="#59687e" stroke-width="1.3" d="M256.66,-783.72C219.9,-766.23 169.16,-742.07 130.45,-723.64"/>
<polygon fill="#59687e" stroke="#59687e" stroke-width="1.3" points="132.09,-721.32 123.66,-720.41 129.68,-726.38 132.09,-721.32"/>
</g>
<!-- Cooldown -->
<g id="node3" class="node">
<title>Cooldown</title>
<path fill="#f7f9fc" stroke="#bac7db" stroke-width="1.4" d="M313.6,-718.96C313.6,-718.96 190,-718.96 190,-718.96 184,-718.96 178,-712.96 178,-706.96 178,-706.96 178,-684.4 178,-684.4 178,-678.4 184,-672.4 190,-672.4 190,-672.4 313.6,-672.4 313.6,-672.4 319.6,-672.4 325.6,-678.4 325.6,-684.4 325.6,-684.4 325.6,-706.96 325.6,-706.96 325.6,-712.96 319.6,-718.96 313.6,-718.96"/>
<text xml:space="preserve" text-anchor="middle" x="251.8" y="-699.88" font-family="Noto Sans CJK KR" font-size="14.00" fill="#182033">CooldownMutation</text>
<text xml:space="preserve" text-anchor="middle" x="251.8" y="-683.08" font-family="Noto Sans CJK KR" font-size="14.00" fill="#182033">ready tick 18300</text>
</g>
<!-- FireballSkill&#45;&gt;Cooldown -->
<g id="edge2" class="edge">
<title>FireballSkill&#45;&gt;Cooldown</title>
<path fill="none" stroke="#59687e" stroke-width="1.3" d="M293.82,-783.86C286.07,-767.79 275.6,-746.05 267.04,-728.3"/>
<polygon fill="#59687e" stroke="#59687e" stroke-width="1.3" points="269.62,-727.2 263.62,-721.21 264.57,-729.63 269.62,-727.2"/>
</g>
<!-- Targeting -->
<g id="node4" class="node">
<title>Targeting</title>
<path fill="#f7f9fc" stroke="#bac7db" stroke-width="1.4" d="M491.6,-727.36C491.6,-727.36 368,-727.36 368,-727.36 362,-727.36 356,-721.36 356,-715.36 356,-715.36 356,-676 356,-676 356,-670 362,-664 368,-664 368,-664 491.6,-664 491.6,-664 497.6,-664 503.6,-670 503.6,-676 503.6,-676 503.6,-715.36 503.6,-715.36 503.6,-721.36 497.6,-727.36 491.6,-727.36"/>
<text xml:space="preserve" text-anchor="middle" x="429.8" y="-708.28" font-family="Noto Sans CJK KR" font-size="14.00" fill="#182033">Targeting</text>
<text xml:space="preserve" text-anchor="middle" x="429.8" y="-691.48" font-family="Noto Sans CJK KR" font-size="14.00" fill="#182033">explicit single target</text>
<text xml:space="preserve" text-anchor="middle" x="429.8" y="-674.68" font-family="Noto Sans CJK KR" font-size="14.00" fill="#182033">entity.target</text>
</g>
<!-- FireballSkill&#45;&gt;Targeting -->
<g id="edge3" class="edge">
<title>FireballSkill&#45;&gt;Targeting</title>
<path fill="none" stroke="#59687e" stroke-width="1.3" d="M330.7,-783.86C346.99,-769.53 368.4,-750.7 387.14,-734.2"/>
<polygon fill="#59687e" stroke="#59687e" stroke-width="1.3" points="388.82,-736.46 392.98,-729.07 385.12,-732.26 388.82,-736.46"/>
</g>
<!-- Bundle -->
<g id="node5" class="node">
<title>Bundle</title>
<path fill="#fff7e6" stroke="#e0ad4e" stroke-width="1.4" d="M669.6,-718.96C669.6,-718.96 546,-718.96 546,-718.96 540,-718.96 534,-712.96 534,-706.96 534,-706.96 534,-684.4 534,-684.4 534,-678.4 540,-672.4 546,-672.4 546,-672.4 669.6,-672.4 669.6,-672.4 675.6,-672.4 681.6,-678.4 681.6,-684.4 681.6,-684.4 681.6,-706.96 681.6,-706.96 681.6,-712.96 675.6,-718.96 669.6,-718.96"/>
<text xml:space="preserve" text-anchor="middle" x="607.8" y="-699.88" font-family="Noto Sans CJK KR" font-size="14.00" fill="#182033">EffectBundle</text>
<text xml:space="preserve" text-anchor="middle" x="607.8" y="-683.08" font-family="Noto Sans CJK KR" font-size="14.00" fill="#182033">CommitThenReact</text>
</g>
<!-- FireballSkill&#45;&gt;Bundle -->
<g id="edge4" class="edge">
<title>FireballSkill&#45;&gt;Bundle</title>
<path fill="none" stroke="#59687e" stroke-width="1.3" d="M367.95,-783.72C416.77,-766.01 484.4,-741.46 535.41,-722.95"/>
<polygon fill="#59687e" stroke="#59687e" stroke-width="1.3" points="536.32,-725.6 542.88,-720.24 534.41,-720.34 536.32,-725.6"/>
</g>
<!-- Commit -->
<g id="node8" class="node">
<title>Commit</title>
<path fill="#eefbf6" stroke="#61b99a" stroke-width="1.4" d="M337.1,-455.04C337.1,-455.04 166.5,-455.04 166.5,-455.04 160.5,-455.04 154.5,-449.04 154.5,-443.04 154.5,-443.04 154.5,-386.88 154.5,-386.88 154.5,-380.88 160.5,-374.88 166.5,-374.88 166.5,-374.88 337.1,-374.88 337.1,-374.88 343.1,-374.88 349.1,-380.88 349.1,-386.88 349.1,-386.88 349.1,-443.04 349.1,-443.04 349.1,-449.04 343.1,-455.04 337.1,-455.04"/>
<text xml:space="preserve" text-anchor="middle" x="251.8" y="-435.96" font-family="Noto Sans CJK KR" font-size="14.00" fill="#182033">RuntimeCommitter</text>
<text xml:space="preserve" text-anchor="middle" x="251.8" y="-419.16" font-family="Noto Sans CJK KR" font-size="14.00" fill="#182033">Mana + cooldown + Shield/HP</text>
<text xml:space="preserve" text-anchor="middle" x="251.8" y="-402.36" font-family="Noto Sans CJK KR" font-size="14.00" fill="#182033">state + ordered outbox</text>
<text xml:space="preserve" text-anchor="middle" x="251.8" y="-385.56" font-family="Noto Sans CJK KR" font-size="14.00" fill="#182033">atomic</text>
</g>
<!-- Cost&#45;&gt;Commit -->
<g id="edge8" class="edge">
<title>Cost&#45;&gt;Commit</title>
<path fill="none" stroke="#59687e" stroke-width="1.3" d="M88.37,-671.87C117.31,-626.55 182.61,-524.31 221.33,-463.67"/>
<polygon fill="#59687e" stroke="#59687e" stroke-width="1.3" points="223.61,-465.3 225.56,-457.06 218.89,-462.29 223.61,-465.3"/>
<text xml:space="preserve" text-anchor="middle" x="189.62" y="-555.32" font-family="Noto Sans CJK KR" font-size="14.00" fill="#46566e">plan</text>
</g>
<!-- Cooldown&#45;&gt;Commit -->
<g id="edge9" class="edge">
<title>Cooldown&#45;&gt;Commit</title>
<path fill="none" stroke="#59687e" stroke-width="1.3" d="M251.8,-671.87C251.8,-626.92 251.8,-525.98 251.8,-465.16"/>
<polygon fill="#59687e" stroke="#59687e" stroke-width="1.3" points="254.6,-465.36 251.8,-457.36 249,-465.36 254.6,-465.36"/>
<text xml:space="preserve" text-anchor="middle" x="263.85" y="-555.32" font-family="Noto Sans CJK KR" font-size="14.00" fill="#46566e">plan</text>
</g>
<!-- DamageEffect -->
<g id="node6" class="node">
<title>DamageEffect</title>
<path fill="#fff0f3" stroke="#e07b91" stroke-width="1.4" d="M515.62,-582.8C515.62,-582.8 343.98,-582.8 343.98,-582.8 337.98,-582.8 331.98,-576.8 331.98,-570.8 331.98,-570.8 331.98,-548.24 331.98,-548.24 331.98,-542.24 337.98,-536.24 343.98,-536.24 343.98,-536.24 515.62,-536.24 515.62,-536.24 521.62,-536.24 527.62,-542.24 527.62,-548.24 527.62,-548.24 527.62,-570.8 527.62,-570.8 527.62,-576.8 521.62,-582.8 515.62,-582.8"/>
<text xml:space="preserve" text-anchor="middle" x="429.8" y="-563.72" font-family="Noto Sans CJK KR" font-size="14.00" fill="#182033">DamageEffect</text>
<text xml:space="preserve" text-anchor="middle" x="429.8" y="-546.92" font-family="Noto Sans CJK KR" font-size="14.00" fill="#182033">base 24 + spellPower 120 × 1.2</text>
</g>
<!-- Targeting&#45;&gt;DamageEffect -->
<g id="edge6" class="edge">
<title>Targeting&#45;&gt;DamageEffect</title>
<path fill="none" stroke="#59687e" stroke-width="1.3" d="M429.8,-663.56C429.8,-642.41 429.8,-614.48 429.8,-593.04"/>
<polygon fill="#59687e" stroke="#59687e" stroke-width="1.3" points="432.6,-593.06 429.8,-585.06 427,-593.06 432.6,-593.06"/>
<text xml:space="preserve" text-anchor="middle" x="445.73" y="-623.4" font-family="Noto Sans CJK KR" font-size="14.00" fill="#46566e">target</text>
</g>
<!-- Bundle&#45;&gt;DamageEffect -->
<g id="edge5" class="edge">
<title>Bundle&#45;&gt;DamageEffect</title>
<path fill="none" stroke="#59687e" stroke-width="1.3" d="M577.6,-671.92C547.3,-649.08 500.54,-613.84 467.75,-589.12"/>
<polygon fill="#59687e" stroke="#59687e" stroke-width="1.3" points="469.79,-587.15 461.71,-584.57 466.42,-591.63 469.79,-587.15"/>
<text xml:space="preserve" text-anchor="middle" x="551.62" y="-623.4" font-family="Noto Sans CJK KR" font-size="14.00" fill="#46566e">primary</text>
</g>
<!-- Combat -->
<g id="node7" class="node">
<title>Combat</title>
<path fill="#eefbf6" stroke="#61b99a" stroke-width="1.4" d="M792.34,-591.2C792.34,-591.2 661.26,-591.2 661.26,-591.2 655.26,-591.2 649.26,-585.2 649.26,-579.2 649.26,-579.2 649.26,-539.84 649.26,-539.84 649.26,-533.84 655.26,-527.84 661.26,-527.84 661.26,-527.84 792.34,-527.84 792.34,-527.84 798.34,-527.84 804.34,-533.84 804.34,-539.84 804.34,-539.84 804.34,-579.2 804.34,-579.2 804.34,-585.2 798.34,-591.2 792.34,-591.2"/>
<text xml:space="preserve" text-anchor="middle" x="726.8" y="-572.12" font-family="Noto Sans CJK KR" font-size="14.00" fill="#182033">CombatResolver (pure)</text>
<text xml:space="preserve" text-anchor="middle" x="726.8" y="-555.32" font-family="Noto Sans CJK KR" font-size="14.00" fill="#182033">critical 252 → resist 202</text>
<text xml:space="preserve" text-anchor="middle" x="726.8" y="-538.52" font-family="Noto Sans CJK KR" font-size="14.00" fill="#182033">shield 40 → HP 162</text>
</g>
<!-- DamageEffect&#45;&gt;Combat -->
<g id="edge7" class="edge">
<title>DamageEffect&#45;&gt;Combat</title>
<path fill="none" stroke="#59687e" stroke-width="1.3" d="M528.28,-559.52C564.09,-559.52 604.29,-559.52 639.11,-559.52"/>
<polygon fill="#59687e" stroke="#59687e" stroke-width="1.3" points="638.81,-562.32 646.81,-559.52 638.81,-556.72 638.81,-562.32"/>
<text xml:space="preserve" text-anchor="middle" x="588.44" y="-566.72" font-family="Noto Sans CJK KR" font-size="14.00" fill="#46566e">DamageRequest</text>
</g>
<!-- Combat&#45;&gt;Commit -->
<g id="edge10" class="edge">
<title>Combat&#45;&gt;Commit</title>
<path fill="none" stroke="#59687e" stroke-width="1.3" d="M648.63,-535.06C569.61,-511.34 446.91,-474.52 358.87,-448.09"/>
<polygon fill="#59687e" stroke="#59687e" stroke-width="1.3" points="359.74,-445.43 351.27,-445.81 358.13,-450.8 359.74,-445.43"/>
<text xml:space="preserve" text-anchor="middle" x="558.95" y="-487.24" font-family="Noto Sans CJK KR" font-size="14.00" fill="#46566e">DamageResult</text>
</g>
<!-- SkillFact -->
<g id="node9" class="node">
<title>SkillFact</title>
<path fill="#e9fbff" stroke="#54b7cf" stroke-width="1.4" d="M313.6,-302.08C313.6,-302.08 190,-302.08 190,-302.08 184,-302.08 178,-296.08 178,-290.08 178,-290.08 178,-267.52 178,-267.52 178,-261.52 184,-255.52 190,-255.52 190,-255.52 313.6,-255.52 313.6,-255.52 319.6,-255.52 325.6,-261.52 325.6,-267.52 325.6,-267.52 325.6,-290.08 325.6,-290.08 325.6,-296.08 319.6,-302.08 313.6,-302.08"/>
<text xml:space="preserve" text-anchor="middle" x="251.8" y="-283" font-family="Noto Sans CJK KR" font-size="14.00" fill="#182033">SkillCommitted</text>
<text xml:space="preserve" text-anchor="middle" x="251.8" y="-266.2" font-family="Noto Sans CJK KR" font-size="14.00" fill="#182033">outbox #1</text>
</g>
<!-- Commit&#45;&gt;SkillFact -->
<g id="edge11" class="edge">
<title>Commit&#45;&gt;SkillFact</title>
<path fill="none" stroke="#59687e" stroke-width="1.3" d="M251.8,-374.43C251.8,-354.74 251.8,-331.21 251.8,-312.54"/>
<polygon fill="#59687e" stroke="#59687e" stroke-width="1.3" points="254.6,-312.69 251.8,-304.69 249,-312.69 254.6,-312.69"/>
<text xml:space="preserve" text-anchor="middle" x="315.56" y="-334.28" font-family="Noto Sans CJK KR" font-size="14.00" fill="#46566e">expose ordered outbox</text>
</g>
<!-- DamageFact -->
<g id="node10" class="node">
<title>DamageFact</title>
<path fill="#e9fbff" stroke="#54b7cf" stroke-width="1.4" d="M313.6,-174.32C313.6,-174.32 190,-174.32 190,-174.32 184,-174.32 178,-168.32 178,-162.32 178,-162.32 178,-139.76 178,-139.76 178,-133.76 184,-127.76 190,-127.76 190,-127.76 313.6,-127.76 313.6,-127.76 319.6,-127.76 325.6,-133.76 325.6,-139.76 325.6,-139.76 325.6,-162.32 325.6,-162.32 325.6,-168.32 319.6,-174.32 313.6,-174.32"/>
<text xml:space="preserve" text-anchor="middle" x="251.8" y="-155.24" font-family="Noto Sans CJK KR" font-size="14.00" fill="#182033">DamageCommitted</text>
<text xml:space="preserve" text-anchor="middle" x="251.8" y="-138.44" font-family="Noto Sans CJK KR" font-size="14.00" fill="#182033">outbox #2</text>
</g>
<!-- SkillFact&#45;&gt;DamageFact -->
<g id="edge12" class="edge">
<title>SkillFact&#45;&gt;DamageFact</title>
<path fill="none" stroke="#59687e" stroke-width="1.3" d="M251.8,-255.03C251.8,-235.35 251.8,-206.68 251.8,-184.59"/>
<polygon fill="#59687e" stroke="#59687e" stroke-width="1.3" points="254.6,-184.61 251.8,-176.61 249,-184.61 254.6,-184.61"/>
<text xml:space="preserve" text-anchor="middle" x="274.55" y="-214.92" font-family="Noto Sans CJK KR" font-size="14.00" fill="#46566e">#1 → #2</text>
</g>
<!-- Queue -->
<g id="node11" class="node">
<title>Queue</title>
<path fill="#f3eefc" stroke="#ab8fe0" stroke-width="1.4" d="M520.6,-174.32C520.6,-174.32 397,-174.32 397,-174.32 391,-174.32 385,-168.32 385,-162.32 385,-162.32 385,-139.76 385,-139.76 385,-133.76 391,-127.76 397,-127.76 397,-127.76 520.6,-127.76 520.6,-127.76 526.6,-127.76 532.6,-133.76 532.6,-139.76 532.6,-139.76 532.6,-162.32 532.6,-162.32 532.6,-168.32 526.6,-174.32 520.6,-174.32"/>
<text xml:space="preserve" text-anchor="middle" x="458.8" y="-155.24" font-family="Noto Sans CJK KR" font-size="14.00" fill="#182033">ReactionQueue</text>
<text xml:space="preserve" text-anchor="middle" x="458.8" y="-138.44" font-family="Noto Sans CJK KR" font-size="14.00" fill="#182033">apply&#45;burn command</text>
</g>
<!-- DamageFact&#45;&gt;Queue -->
<g id="edge13" class="edge">
<title>DamageFact&#45;&gt;Queue</title>
<path fill="none" stroke="#59687e" stroke-width="1.3" d="M326.21,-151.04C336.54,-151.04 359.39,-151.04 374.7,-151.04"/>
<polygon fill="#59687e" stroke="#59687e" stroke-width="1.3" points="374.63,-153.84 382.63,-151.04 374.63,-148.24 374.63,-153.84"/>
</g>
<!-- Observe -->
<g id="node14" class="node">
<title>Observe</title>
<path fill="#f0f3f9" stroke="#99a8bd" stroke-width="1.4" d="M663.3,-46.56C663.3,-46.56 488.3,-46.56 488.3,-46.56 482.3,-46.56 476.3,-40.56 476.3,-34.56 476.3,-34.56 476.3,-12 476.3,-12 476.3,-6 482.3,0 488.3,0 488.3,0 663.3,0 663.3,0 669.3,0 675.3,-6 675.3,-12 675.3,-12 675.3,-34.56 675.3,-34.56 675.3,-40.56 669.3,-46.56 663.3,-46.56"/>
<text xml:space="preserve" text-anchor="middle" x="575.8" y="-27.48" font-family="Noto Sans CJK KR" font-size="14.00" fill="#182033">Observation</text>
<text xml:space="preserve" text-anchor="middle" x="575.8" y="-10.68" font-family="Noto Sans CJK KR" font-size="14.00" fill="#182033">UI · CombatLog · DebugTrace</text>
</g>
<!-- DamageFact&#45;&gt;Observe -->
<g id="edge16" class="edge">
<title>DamageFact&#45;&gt;Observe</title>
<path fill="none" stroke="#59687e" stroke-width="1.3" stroke-dasharray="5,2" d="M310.85,-127.12C366.29,-105.6 449.2,-73.42 507.48,-50.8"/>
<polygon fill="#59687e" stroke="#59687e" stroke-width="1.3" points="508.33,-53.47 514.77,-47.97 506.3,-48.25 508.33,-53.47"/>
<text xml:space="preserve" text-anchor="middle" x="476.83" y="-78.76" font-family="Noto Sans CJK KR" font-size="14.00" fill="#46566e">damage fact</text>
</g>
<!-- Burn -->
<g id="node12" class="node">
<title>Burn</title>
<path fill="#fff0f3" stroke="#e07b91" stroke-width="1.4" d="M731.98,-182.72C731.98,-182.72 603.62,-182.72 603.62,-182.72 597.62,-182.72 591.62,-176.72 591.62,-170.72 591.62,-170.72 591.62,-131.36 591.62,-131.36 591.62,-125.36 597.62,-119.36 603.62,-119.36 603.62,-119.36 731.98,-119.36 731.98,-119.36 737.98,-119.36 743.98,-125.36 743.98,-131.36 743.98,-131.36 743.98,-170.72 743.98,-170.72 743.98,-176.72 737.98,-182.72 731.98,-182.72"/>
<text xml:space="preserve" text-anchor="middle" x="667.8" y="-163.64" font-family="Noto Sans CJK KR" font-size="14.00" fill="#182033">ApplyStatusRequest</text>
<text xml:space="preserve" text-anchor="middle" x="667.8" y="-146.84" font-family="Noto Sans CJK KR" font-size="14.00" fill="#182033">status.burn · duration 6</text>
<text xml:space="preserve" text-anchor="middle" x="667.8" y="-130.04" font-family="Noto Sans CJK KR" font-size="14.00" fill="#182033">tick interval 2</text>
</g>
<!-- Queue&#45;&gt;Burn -->
<g id="edge14" class="edge">
<title>Queue&#45;&gt;Burn</title>
<path fill="none" stroke="#59687e" stroke-width="1.3" d="M533.04,-151.04C542.68,-151.04 565.52,-151.04 581.4,-151.04"/>
<polygon fill="#59687e" stroke="#59687e" stroke-width="1.3" points="581.07,-153.84 589.07,-151.04 581.07,-148.24 581.07,-153.84"/>
</g>
<!-- Status -->
<g id="node13" class="node">
<title>Status</title>
<path fill="#eefbf6" stroke="#61b99a" stroke-width="1.4" d="M987.75,-174.32C987.75,-174.32 815.85,-174.32 815.85,-174.32 809.85,-174.32 803.85,-168.32 803.85,-162.32 803.85,-162.32 803.85,-139.76 803.85,-139.76 803.85,-133.76 809.85,-127.76 815.85,-127.76 815.85,-127.76 987.75,-127.76 987.75,-127.76 993.75,-127.76 999.75,-133.76 999.75,-139.76 999.75,-139.76 999.75,-162.32 999.75,-162.32 999.75,-168.32 993.75,-174.32 987.75,-174.32"/>
<text xml:space="preserve" text-anchor="middle" x="901.8" y="-155.24" font-family="Noto Sans CJK KR" font-size="14.00" fill="#182033">StatusSystem commit</text>
<text xml:space="preserve" text-anchor="middle" x="901.8" y="-138.44" font-family="Noto Sans CJK KR" font-size="14.00" fill="#182033">StatusApplied · +2/+4/+6 ticks</text>
</g>
<!-- Burn&#45;&gt;Status -->
<g id="edge15" class="edge">
<title>Burn&#45;&gt;Status</title>
<path fill="none" stroke="#59687e" stroke-width="1.3" d="M744.45,-151.04C745.32,-151.04 745.8,-151.04 745.8,-151.04 745.8,-151.04 771.67,-151.04 793.61,-151.04"/>
<polygon fill="#59687e" stroke="#59687e" stroke-width="1.3" points="793.34,-153.84 801.34,-151.04 793.34,-148.24 793.34,-153.84"/>
</g>
<!-- Status&#45;&gt;Observe -->
<g id="edge17" class="edge">
<title>Status&#45;&gt;Observe</title>
<path fill="none" stroke="#59687e" stroke-width="1.3" stroke-dasharray="5,2" d="M842.39,-127.12C786.6,-105.6 703.18,-73.42 644.55,-50.8"/>
<polygon fill="#59687e" stroke="#59687e" stroke-width="1.3" points="645.66,-48.23 637.19,-47.96 643.65,-53.45 645.66,-48.23"/>
<text xml:space="preserve" text-anchor="middle" x="779.48" y="-78.76" font-family="Noto Sans CJK KR" font-size="14.00" fill="#46566e">status facts</text>
</g>
</g>
</svg>
