<?xml version="1.0" encoding="UTF-8" standalone="no"?>
<!DOCTYPE svg PUBLIC "-//W3C//DTD SVG 1.1//EN"
 "http://www.w3.org/Graphics/SVG/1.1/DTD/svg11.dtd">
<!-- Generated by graphviz version 15.1.0 (20260618.0150)
 -->
<!-- Title: G Pages: 1 -->
<svg width="1514pt" height="1225pt"
 viewBox="12.00 12.00 1502.00 1214.00" xmlns="http://www.w3.org/2000/svg" xmlns:xlink="http://www.w3.org/1999/xlink">
<g id="graph0" class="graph" transform="scale(1.33333 1.33333) rotate(0) translate(26.64 892.36)">
<title>G</title>
<polygon fill="#ffffff" stroke="none" points="-18,18 -18,-883.72 1099.88,-883.72 1099.88,18 -18,18"/>
<!-- FireballSkill -->
<g id="node1" class="node">
<title>FireballSkill</title>
<path fill="#eaf0ff" stroke="#8292f7" stroke-width="1.4" d="M376.6,-865.72C376.6,-865.72 253,-865.72 253,-865.72 247,-865.72 241,-859.72 241,-853.72 241,-853.72 241,-830.26 241,-830.26 241,-824.26 247,-818.26 253,-818.26 253,-818.26 376.6,-818.26 376.6,-818.26 382.6,-818.26 388.6,-824.26 388.6,-830.26 388.6,-830.26 388.6,-853.72 388.6,-853.72 388.6,-859.72 382.6,-865.72 376.6,-865.72"/>
<text xml:space="preserve" text-anchor="middle" x="314.8" y="-845.94" font-family="Noto Sans KR" font-size="14.00" fill="#182033">SkillDefinition</text>
<text xml:space="preserve" text-anchor="middle" x="314.8" y="-828.69" font-family="Noto Sans KR" font-size="14.00" fill="#182033">skill.fireball</text>
</g>
<!-- Cost -->
<g id="node2" class="node">
<title>Cost</title>
<path fill="#f7f9fc" stroke="#bac7db" stroke-width="1.4" d="M135.6,-748.64C135.6,-748.64 12,-748.64 12,-748.64 6,-748.64 0,-742.64 0,-736.64 0,-736.64 0,-713.18 0,-713.18 0,-707.18 6,-701.18 12,-701.18 12,-701.18 135.6,-701.18 135.6,-701.18 141.6,-701.18 147.6,-707.18 147.6,-713.18 147.6,-713.18 147.6,-736.64 147.6,-736.64 147.6,-742.64 141.6,-748.64 135.6,-748.64"/>
<text xml:space="preserve" text-anchor="middle" x="73.8" y="-728.86" font-family="Noto Sans KR" font-size="14.00" fill="#182033">CostMutation</text>
<text xml:space="preserve" text-anchor="middle" x="73.8" y="-711.61" font-family="Noto Sans KR" font-size="14.00" fill="#182033">Mana 20</text>
</g>
<!-- FireballSkill&#45;&gt;Cost -->
<g id="edge1" class="edge">
<title>FireballSkill&#45;&gt;Cost</title>
<path fill="none" stroke="#59687e" stroke-width="1.3" d="M265.74,-817.56C226.89,-799.01 172.53,-773.05 131.58,-753.5"/>
<polygon fill="#59687e" stroke="#59687e" stroke-width="1.3" points="132.99,-751.07 124.57,-750.15 130.58,-756.12 132.99,-751.07"/>
</g>
<!-- Cooldown -->
<g id="node3" class="node">
<title>Cooldown</title>
<path fill="#f7f9fc" stroke="#bac7db" stroke-width="1.4" d="M320.6,-748.64C320.6,-748.64 197,-748.64 197,-748.64 191,-748.64 185,-742.64 185,-736.64 185,-736.64 185,-713.18 185,-713.18 185,-707.18 191,-701.18 197,-701.18 197,-701.18 320.6,-701.18 320.6,-701.18 326.6,-701.18 332.6,-707.18 332.6,-713.18 332.6,-713.18 332.6,-736.64 332.6,-736.64 332.6,-742.64 326.6,-748.64 320.6,-748.64"/>
<text xml:space="preserve" text-anchor="middle" x="258.8" y="-728.86" font-family="Noto Sans KR" font-size="14.00" fill="#182033">CooldownMutation</text>
<text xml:space="preserve" text-anchor="middle" x="258.8" y="-711.61" font-family="Noto Sans KR" font-size="14.00" fill="#182033">ready tick 18300</text>
</g>
<!-- FireballSkill&#45;&gt;Cooldown -->
<g id="edge2" class="edge">
<title>FireballSkill&#45;&gt;Cooldown</title>
<path fill="none" stroke="#59687e" stroke-width="1.3" d="M303.47,-817.7C295.12,-800.54 283.66,-776.99 274.44,-758.04"/>
<polygon fill="#59687e" stroke="#59687e" stroke-width="1.3" points="276.99,-756.9 270.98,-750.93 271.96,-759.35 276.99,-756.9"/>
</g>
<!-- Targeting -->
<g id="node4" class="node">
<title>Targeting</title>
<path fill="#f7f9fc" stroke="#bac7db" stroke-width="1.4" d="M505.6,-757.26C505.6,-757.26 382,-757.26 382,-757.26 376,-757.26 370,-751.26 370,-745.26 370,-745.26 370,-704.55 370,-704.55 370,-698.55 376,-692.55 382,-692.55 382,-692.55 505.6,-692.55 505.6,-692.55 511.6,-692.55 517.6,-698.55 517.6,-704.55 517.6,-704.55 517.6,-745.26 517.6,-745.26 517.6,-751.26 511.6,-757.26 505.6,-757.26"/>
<text xml:space="preserve" text-anchor="middle" x="443.8" y="-737.48" font-family="Noto Sans KR" font-size="14.00" fill="#182033">Targeting</text>
<text xml:space="preserve" text-anchor="middle" x="443.8" y="-720.23" font-family="Noto Sans KR" font-size="14.00" fill="#182033">explicit single target</text>
<text xml:space="preserve" text-anchor="middle" x="443.8" y="-702.98" font-family="Noto Sans KR" font-size="14.00" fill="#182033">entity.target</text>
</g>
<!-- FireballSkill&#45;&gt;Targeting -->
<g id="edge3" class="edge">
<title>FireballSkill&#45;&gt;Targeting</title>
<path fill="none" stroke="#59687e" stroke-width="1.3" d="M340.91,-817.7C358.01,-802.44 380.78,-782.13 400.55,-764.49"/>
<polygon fill="#59687e" stroke="#59687e" stroke-width="1.3" points="402.38,-766.61 406.49,-759.19 398.66,-762.43 402.38,-766.61"/>
</g>
<!-- Bundle -->
<g id="node5" class="node">
<title>Bundle</title>
<path fill="#fff7e6" stroke="#e0ad4e" stroke-width="1.4" d="M690.6,-748.64C690.6,-748.64 567,-748.64 567,-748.64 561,-748.64 555,-742.64 555,-736.64 555,-736.64 555,-713.18 555,-713.18 555,-707.18 561,-701.18 567,-701.18 567,-701.18 690.6,-701.18 690.6,-701.18 696.6,-701.18 702.6,-707.18 702.6,-713.18 702.6,-713.18 702.6,-736.64 702.6,-736.64 702.6,-742.64 696.6,-748.64 690.6,-748.64"/>
<text xml:space="preserve" text-anchor="middle" x="628.8" y="-728.86" font-family="Noto Sans KR" font-size="14.00" fill="#182033">EffectBundle</text>
<text xml:space="preserve" text-anchor="middle" x="628.8" y="-711.61" font-family="Noto Sans KR" font-size="14.00" fill="#182033">CommitThenReact</text>
</g>
<!-- FireballSkill&#45;&gt;Bundle -->
<g id="edge4" class="edge">
<title>FireballSkill&#45;&gt;Bundle</title>
<path fill="none" stroke="#59687e" stroke-width="1.3" d="M378.72,-817.56C430.08,-798.74 502.24,-772.29 555.86,-752.64"/>
<polygon fill="#59687e" stroke="#59687e" stroke-width="1.3" points="556.57,-755.36 563.12,-749.98 554.65,-750.1 556.57,-755.36"/>
</g>
<!-- Commit -->
<g id="node8" class="node">
<title>Commit</title>
<path fill="#eefbf6" stroke="#61b99a" stroke-width="1.4" d="M349.88,-473.34C349.88,-473.34 167.72,-473.34 167.72,-473.34 161.72,-473.34 155.72,-467.34 155.72,-461.34 155.72,-461.34 155.72,-403.38 155.72,-403.38 155.72,-397.38 161.72,-391.38 167.72,-391.38 167.72,-391.38 349.88,-391.38 349.88,-391.38 355.88,-391.38 361.88,-397.38 361.88,-403.38 361.88,-403.38 361.88,-461.34 361.88,-461.34 361.88,-467.34 355.88,-473.34 349.88,-473.34"/>
<text xml:space="preserve" text-anchor="middle" x="258.8" y="-453.56" font-family="Noto Sans KR" font-size="14.00" fill="#182033">RuntimeCommitter</text>
<text xml:space="preserve" text-anchor="middle" x="258.8" y="-436.31" font-family="Noto Sans KR" font-size="14.00" fill="#182033">Mana + cooldown + Shield/HP</text>
<text xml:space="preserve" text-anchor="middle" x="258.8" y="-419.06" font-family="Noto Sans KR" font-size="14.00" fill="#182033">state + ordered outbox</text>
<text xml:space="preserve" text-anchor="middle" x="258.8" y="-401.81" font-family="Noto Sans KR" font-size="14.00" fill="#182033">atomic</text>
</g>
<!-- Cost&#45;&gt;Commit -->
<g id="edge8" class="edge">
<title>Cost&#45;&gt;Commit</title>
<path fill="none" stroke="#59687e" stroke-width="1.3" d="M88.63,-700.62C118.7,-653.39 187.43,-545.44 227.74,-482.13"/>
<polygon fill="#59687e" stroke="#59687e" stroke-width="1.3" points="230,-483.8 231.94,-475.55 225.28,-480.79 230,-483.8"/>
<text xml:space="preserve" text-anchor="middle" x="195.53" y="-578.27" font-family="Noto Sans KR" font-size="14.00" fill="#46566e">plan</text>
</g>
<!-- Cooldown&#45;&gt;Commit -->
<g id="edge9" class="edge">
<title>Cooldown&#45;&gt;Commit</title>
<path fill="none" stroke="#59687e" stroke-width="1.3" d="M258.8,-700.62C258.8,-653.77 258.8,-547.2 258.8,-483.69"/>
<polygon fill="#59687e" stroke="#59687e" stroke-width="1.3" points="261.6,-483.85 258.8,-475.85 256,-483.85 261.6,-483.85"/>
<text xml:space="preserve" text-anchor="middle" x="272.68" y="-578.27" font-family="Noto Sans KR" font-size="14.00" fill="#46566e">plan</text>
</g>
<!-- DamageEffect -->
<g id="node6" class="node">
<title>DamageEffect</title>
<path fill="#fff0f3" stroke="#e07b91" stroke-width="1.4" d="M538.25,-606.68C538.25,-606.68 349.35,-606.68 349.35,-606.68 343.35,-606.68 337.35,-600.68 337.35,-594.68 337.35,-594.68 337.35,-571.22 337.35,-571.22 337.35,-565.22 343.35,-559.22 349.35,-559.22 349.35,-559.22 538.25,-559.22 538.25,-559.22 544.25,-559.22 550.25,-565.22 550.25,-571.22 550.25,-571.22 550.25,-594.68 550.25,-594.68 550.25,-600.68 544.25,-606.68 538.25,-606.68"/>
<text xml:space="preserve" text-anchor="middle" x="443.8" y="-586.9" font-family="Noto Sans KR" font-size="14.00" fill="#182033">DamageEffect</text>
<text xml:space="preserve" text-anchor="middle" x="443.8" y="-569.65" font-family="Noto Sans KR" font-size="14.00" fill="#182033">base 24 + spellPower 120 × 1.2</text>
</g>
<!-- Targeting&#45;&gt;DamageEffect -->
<g id="edge6" class="edge">
<title>Targeting&#45;&gt;DamageEffect</title>
<path fill="none" stroke="#59687e" stroke-width="1.3" d="M443.8,-692.15C443.8,-669.76 443.8,-639.86 443.8,-617.16"/>
<polygon fill="#59687e" stroke="#59687e" stroke-width="1.3" points="446.6,-617.26 443.8,-609.26 441,-617.26 446.6,-617.26"/>
<text xml:space="preserve" text-anchor="middle" x="461.8" y="-649.25" font-family="Noto Sans KR" font-size="14.00" fill="#46566e">target</text>
</g>
<!-- Bundle&#45;&gt;DamageEffect -->
<g id="edge5" class="edge">
<title>Bundle&#45;&gt;DamageEffect</title>
<path fill="none" stroke="#59687e" stroke-width="1.3" d="M597.84,-700.48C566.12,-676.49 516.76,-639.14 482.49,-613.22"/>
<polygon fill="#59687e" stroke="#59687e" stroke-width="1.3" points="484.2,-611 476.13,-608.4 480.82,-615.46 484.2,-611"/>
<text xml:space="preserve" text-anchor="middle" x="571.75" y="-649.25" font-family="Noto Sans KR" font-size="14.00" fill="#46566e">primary</text>
</g>
<!-- Combat -->
<g id="node7" class="node">
<title>Combat</title>
<path fill="#eefbf6" stroke="#61b99a" stroke-width="1.4" d="M841.25,-615.3C841.25,-615.3 700.34,-615.3 700.34,-615.3 694.34,-615.3 688.34,-609.3 688.34,-603.3 688.34,-603.3 688.34,-562.59 688.34,-562.59 688.34,-556.59 694.34,-550.59 700.34,-550.59 700.34,-550.59 841.25,-550.59 841.25,-550.59 847.25,-550.59 853.25,-556.59 853.25,-562.59 853.25,-562.59 853.25,-603.3 853.25,-603.3 853.25,-609.3 847.25,-615.3 841.25,-615.3"/>
<text xml:space="preserve" text-anchor="middle" x="770.8" y="-595.52" font-family="Noto Sans KR" font-size="14.00" fill="#182033">CombatResolver (pure)</text>
<text xml:space="preserve" text-anchor="middle" x="770.8" y="-578.27" font-family="Noto Sans KR" font-size="14.00" fill="#182033">critical 252 → resist 202</text>
<text xml:space="preserve" text-anchor="middle" x="770.8" y="-561.02" font-family="Noto Sans KR" font-size="14.00" fill="#182033">shield 40 → HP 162</text>
</g>
<!-- DamageEffect&#45;&gt;Combat -->
<g id="edge7" class="edge">
<title>DamageEffect&#45;&gt;Combat</title>
<path fill="none" stroke="#59687e" stroke-width="1.3" d="M550.87,-582.95C591.91,-582.95 638.36,-582.95 677.96,-582.95"/>
<polygon fill="#59687e" stroke="#59687e" stroke-width="1.3" points="677.9,-585.75 685.9,-582.95 677.9,-580.15 677.9,-585.75"/>
<text xml:space="preserve" text-anchor="middle" x="619.3" y="-589.9" font-family="Noto Sans KR" font-size="14.00" fill="#46566e">DamageRequest</text>
</g>
<!-- Combat&#45;&gt;Commit -->
<g id="edge10" class="edge">
<title>Combat&#45;&gt;Commit</title>
<path fill="none" stroke="#59687e" stroke-width="1.3" d="M687.68,-557.82C601.76,-532.89 467.07,-493.8 371.58,-466.09"/>
<polygon fill="#59687e" stroke="#59687e" stroke-width="1.3" points="372.53,-463.45 364.06,-463.91 370.97,-468.83 372.53,-463.45"/>
<text xml:space="preserve" text-anchor="middle" x="590.45" y="-507.29" font-family="Noto Sans KR" font-size="14.00" fill="#46566e">DamageResult</text>
</g>
<!-- SkillFact -->
<g id="node9" class="node">
<title>SkillFact</title>
<path fill="#e9fbff" stroke="#54b7cf" stroke-width="1.4" d="M320.6,-314.13C320.6,-314.13 197,-314.13 197,-314.13 191,-314.13 185,-308.13 185,-302.13 185,-302.13 185,-278.67 185,-278.67 185,-272.67 191,-266.67 197,-266.67 197,-266.67 320.6,-266.67 320.6,-266.67 326.6,-266.67 332.6,-272.67 332.6,-278.67 332.6,-278.67 332.6,-302.13 332.6,-302.13 332.6,-308.13 326.6,-314.13 320.6,-314.13"/>
<text xml:space="preserve" text-anchor="middle" x="258.8" y="-294.35" font-family="Noto Sans KR" font-size="14.00" fill="#182033">SkillCommitted</text>
<text xml:space="preserve" text-anchor="middle" x="258.8" y="-277.1" font-family="Noto Sans KR" font-size="14.00" fill="#182033">outbox #1</text>
</g>
<!-- Commit&#45;&gt;SkillFact -->
<g id="edge11" class="edge">
<title>Commit&#45;&gt;SkillFact</title>
<path fill="none" stroke="#59687e" stroke-width="1.3" d="M258.8,-390.88C258.8,-369.84 258.8,-344.45 258.8,-324.59"/>
<polygon fill="#59687e" stroke="#59687e" stroke-width="1.3" points="261.6,-324.72 258.8,-316.72 256,-324.72 261.6,-324.72"/>
<text xml:space="preserve" text-anchor="middle" x="329.68" y="-348.08" font-family="Noto Sans KR" font-size="14.00" fill="#46566e">expose ordered outbox</text>
</g>
<!-- DamageFact -->
<g id="node10" class="node">
<title>DamageFact</title>
<path fill="#e9fbff" stroke="#54b7cf" stroke-width="1.4" d="M320.6,-180.79C320.6,-180.79 197,-180.79 197,-180.79 191,-180.79 185,-174.79 185,-168.79 185,-168.79 185,-145.34 185,-145.34 185,-139.34 191,-133.34 197,-133.34 197,-133.34 320.6,-133.34 320.6,-133.34 326.6,-133.34 332.6,-139.34 332.6,-145.34 332.6,-145.34 332.6,-168.79 332.6,-168.79 332.6,-174.79 326.6,-180.79 320.6,-180.79"/>
<text xml:space="preserve" text-anchor="middle" x="258.8" y="-161.01" font-family="Noto Sans KR" font-size="14.00" fill="#182033">DamageCommitted</text>
<text xml:space="preserve" text-anchor="middle" x="258.8" y="-143.76" font-family="Noto Sans KR" font-size="14.00" fill="#182033">outbox #2</text>
</g>
<!-- SkillFact&#45;&gt;DamageFact -->
<g id="edge12" class="edge">
<title>SkillFact&#45;&gt;DamageFact</title>
<path fill="none" stroke="#59687e" stroke-width="1.3" d="M258.8,-266.22C258.8,-245.44 258.8,-214.7 258.8,-191.3"/>
<polygon fill="#59687e" stroke="#59687e" stroke-width="1.3" points="261.6,-191.42 258.8,-183.42 256,-191.42 261.6,-191.42"/>
<text xml:space="preserve" text-anchor="middle" x="283.93" y="-223.37" font-family="Noto Sans KR" font-size="14.00" fill="#46566e">#1 → #2</text>
</g>
<!-- Queue -->
<g id="node11" class="node">
<title>Queue</title>
<path fill="#f3eefc" stroke="#ab8fe0" stroke-width="1.4" d="M549.75,-180.79C549.75,-180.79 417.85,-180.79 417.85,-180.79 411.85,-180.79 405.85,-174.79 405.85,-168.79 405.85,-168.79 405.85,-145.34 405.85,-145.34 405.85,-139.34 411.85,-133.34 417.85,-133.34 417.85,-133.34 549.75,-133.34 549.75,-133.34 555.75,-133.34 561.75,-139.34 561.75,-145.34 561.75,-145.34 561.75,-168.79 561.75,-168.79 561.75,-174.79 555.75,-180.79 549.75,-180.79"/>
<text xml:space="preserve" text-anchor="middle" x="483.8" y="-161.01" font-family="Noto Sans KR" font-size="14.00" fill="#182033">ReactionQueue</text>
<text xml:space="preserve" text-anchor="middle" x="483.8" y="-143.76" font-family="Noto Sans KR" font-size="14.00" fill="#182033">apply&#45;burn command</text>
</g>
<!-- DamageFact&#45;&gt;Queue -->
<g id="edge13" class="edge">
<title>DamageFact&#45;&gt;Queue</title>
<path fill="none" stroke="#59687e" stroke-width="1.3" d="M332.96,-157.06C333.51,-157.06 333.8,-157.06 333.8,-157.06 333.8,-157.06 373.95,-157.06 395.5,-157.06"/>
<polygon fill="#59687e" stroke="#59687e" stroke-width="1.3" points="395.22,-159.87 403.21,-157.07 395.21,-154.27 395.22,-159.87"/>
</g>
<!-- Observe -->
<g id="node14" class="node">
<title>Observe</title>
<path fill="#f0f3f9" stroke="#99a8bd" stroke-width="1.4" d="M709.63,-47.46C709.63,-47.46 525.97,-47.46 525.97,-47.46 519.97,-47.46 513.97,-41.46 513.97,-35.46 513.97,-35.46 513.97,-12 513.97,-12 513.97,-6 519.97,0 525.97,0 525.97,0 709.63,0 709.63,0 715.63,0 721.63,-6 721.63,-12 721.63,-12 721.63,-35.46 721.63,-35.46 721.63,-41.46 715.63,-47.46 709.63,-47.46"/>
<text xml:space="preserve" text-anchor="middle" x="617.8" y="-27.68" font-family="Noto Sans KR" font-size="14.00" fill="#182033">Observation</text>
<text xml:space="preserve" text-anchor="middle" x="617.8" y="-10.43" font-family="Noto Sans KR" font-size="14.00" fill="#182033">UI · CombatLog · DebugTrace</text>
</g>
<!-- DamageFact&#45;&gt;Observe -->
<g id="edge16" class="edge">
<title>DamageFact&#45;&gt;Observe</title>
<path fill="none" stroke="#59687e" stroke-width="1.3" stroke-dasharray="5,2" d="M322.57,-132.74C384.92,-109.93 479.74,-75.24 545.01,-51.36"/>
<polygon fill="#59687e" stroke="#59687e" stroke-width="1.3" points="545.62,-54.12 552.17,-48.74 543.7,-48.86 545.62,-54.12"/>
<text xml:space="preserve" text-anchor="middle" x="508.7" y="-81.41" font-family="Noto Sans KR" font-size="14.00" fill="#46566e">damage fact</text>
</g>
<!-- Burn -->
<g id="node12" class="node">
<title>Burn</title>
<path fill="#fff0f3" stroke="#e07b91" stroke-width="1.4" d="M790,-189.42C790,-189.42 647.59,-189.42 647.59,-189.42 641.59,-189.42 635.59,-183.42 635.59,-177.42 635.59,-177.42 635.59,-136.71 635.59,-136.71 635.59,-130.71 641.59,-124.71 647.59,-124.71 647.59,-124.71 790,-124.71 790,-124.71 796,-124.71 802,-130.71 802,-136.71 802,-136.71 802,-177.42 802,-177.42 802,-183.42 796,-189.42 790,-189.42"/>
<text xml:space="preserve" text-anchor="middle" x="718.8" y="-169.64" font-family="Noto Sans KR" font-size="14.00" fill="#182033">ApplyStatusRequest</text>
<text xml:space="preserve" text-anchor="middle" x="718.8" y="-152.39" font-family="Noto Sans KR" font-size="14.00" fill="#182033">status.burn · duration 6</text>
<text xml:space="preserve" text-anchor="middle" x="718.8" y="-135.14" font-family="Noto Sans KR" font-size="14.00" fill="#182033">tick interval 2</text>
</g>
<!-- Queue&#45;&gt;Burn -->
<g id="edge14" class="edge">
<title>Queue&#45;&gt;Burn</title>
<path fill="none" stroke="#59687e" stroke-width="1.3" d="M562.36,-157.06C565.61,-157.06 603.47,-157.06 625.26,-157.06"/>
<polygon fill="#59687e" stroke="#59687e" stroke-width="1.3" points="625.19,-159.87 633.19,-157.07 625.19,-154.27 625.19,-159.87"/>
</g>
<!-- Status -->
<g id="node13" class="node">
<title>Status</title>
<path fill="#eefbf6" stroke="#61b99a" stroke-width="1.4" d="M1069.88,-180.79C1069.88,-180.79 887.72,-180.79 887.72,-180.79 881.72,-180.79 875.72,-174.79 875.72,-168.79 875.72,-168.79 875.72,-145.34 875.72,-145.34 875.72,-139.34 881.72,-133.34 887.72,-133.34 887.72,-133.34 1069.88,-133.34 1069.88,-133.34 1075.88,-133.34 1081.88,-139.34 1081.88,-145.34 1081.88,-145.34 1081.88,-168.79 1081.88,-168.79 1081.88,-174.79 1075.88,-180.79 1069.88,-180.79"/>
<text xml:space="preserve" text-anchor="middle" x="978.8" y="-161.01" font-family="Noto Sans KR" font-size="14.00" fill="#182033">StatusSystem commit</text>
<text xml:space="preserve" text-anchor="middle" x="978.8" y="-143.76" font-family="Noto Sans KR" font-size="14.00" fill="#182033">StatusApplied · +2/+4/+6 ticks</text>
</g>
<!-- Burn&#45;&gt;Status -->
<g id="edge15" class="edge">
<title>Burn&#45;&gt;Status</title>
<path fill="none" stroke="#59687e" stroke-width="1.3" d="M802.58,-157.06C804.43,-157.06 805.47,-157.06 805.47,-157.06 805.47,-157.06 840.05,-157.06 865.53,-157.06"/>
<polygon fill="#59687e" stroke="#59687e" stroke-width="1.3" points="865.46,-159.87 873.46,-157.07 865.46,-154.27 865.46,-159.87"/>
</g>
<!-- Status&#45;&gt;Observe -->
<g id="edge17" class="edge">
<title>Status&#45;&gt;Observe</title>
<path fill="none" stroke="#59687e" stroke-width="1.3" stroke-dasharray="5,2" d="M914.68,-132.74C851.98,-109.93 756.63,-75.24 690.99,-51.36"/>
<polygon fill="#59687e" stroke="#59687e" stroke-width="1.3" points="692.26,-48.84 683.78,-48.73 690.34,-54.1 692.26,-48.84"/>
<text xml:space="preserve" text-anchor="middle" x="843.25" y="-81.41" font-family="Noto Sans KR" font-size="14.00" fill="#46566e">status facts</text>
</g>
</g>
</svg>
