<?xml version="1.0" encoding="UTF-8" standalone="no"?>
<!DOCTYPE svg PUBLIC "-//W3C//DTD SVG 1.1//EN"
 "http://www.w3.org/Graphics/SVG/1.1/DTD/svg11.dtd">
<!-- Generated by graphviz version 2.42.4 (0)
 -->
<!-- Title: G Pages: 1 -->
<svg width="1793pt" height="259pt"
 viewBox="8.64 8.64 1784.64 250.64" xmlns="http://www.w3.org/2000/svg" xmlns:xlink="http://www.w3.org/1999/xlink">
<g id="graph0" class="graph" transform="scale(1 1) rotate(0) translate(26.64 232.64)">
<title>G</title>
<polygon fill="#ffffff" stroke="transparent" points="-18,18 -18,-224 1758,-224 1758,18 -18,18"/>
<!-- FireballSkill -->
<g id="node1" class="node">
<title>FireballSkill</title>
<path fill="#eaf0ff" stroke="#8292f7" stroke-width="1.4" d="M132,-120C132,-120 12,-120 12,-120 6,-120 0,-114 0,-108 0,-108 0,-90 0,-90 0,-84 6,-78 12,-78 12,-78 132,-78 132,-78 138,-78 144,-84 144,-90 144,-90 144,-108 144,-108 144,-114 138,-120 132,-120"/>
<text text-anchor="middle" x="72" y="-102.8" font-family="Noto Sans CJK KR" font-size="14.00" fill="#182033">SkillDefinition</text>
<text text-anchor="middle" x="72" y="-87.8" font-family="Noto Sans CJK KR" font-size="14.00" fill="#182033">Fireball</text>
</g>
<!-- Cost -->
<g id="node2" class="node">
<title>Cost</title>
<path fill="#f7f9fc" stroke="#bac7db" stroke-width="1.4" d="M493,-206C493,-206 373,-206 373,-206 367,-206 361,-200 361,-194 361,-194 361,-176 361,-176 361,-170 367,-164 373,-164 373,-164 493,-164 493,-164 499,-164 505,-170 505,-176 505,-176 505,-194 505,-194 505,-200 499,-206 493,-206"/>
<text text-anchor="middle" x="433" y="-188.8" font-family="Noto Sans CJK KR" font-size="14.00" fill="#182033">Cost</text>
<text text-anchor="middle" x="433" y="-173.8" font-family="Noto Sans CJK KR" font-size="14.00" fill="#182033">Mana 30</text>
</g>
<!-- FireballSkill&#45;&gt;Cost -->
<g id="edge1" class="edge">
<title>FireballSkill&#45;&gt;Cost</title>
<path fill="none" stroke="#59687e" stroke-width="1.3" d="M72,-120.26C72,-145.73 72,-185 72,-185 72,-185 352.81,-185 352.81,-185"/>
<polygon fill="#59687e" stroke="#59687e" stroke-width="1.3" points="352.81,-187.8 360.81,-185 352.81,-182.2 352.81,-187.8"/>
</g>
<!-- Targeting -->
<g id="node3" class="node">
<title>Targeting</title>
<path fill="#f7f9fc" stroke="#bac7db" stroke-width="1.4" d="M325,-43C325,-43 205,-43 205,-43 199,-43 193,-37 193,-31 193,-31 193,-13 193,-13 193,-7 199,-1 205,-1 205,-1 325,-1 325,-1 331,-1 337,-7 337,-13 337,-13 337,-31 337,-31 337,-37 331,-43 325,-43"/>
<text text-anchor="middle" x="265" y="-25.8" font-family="Noto Sans CJK KR" font-size="14.00" fill="#182033">Targeting</text>
<text text-anchor="middle" x="265" y="-10.8" font-family="Noto Sans CJK KR" font-size="14.00" fill="#182033">Circle Area r=4</text>
</g>
<!-- FireballSkill&#45;&gt;Targeting -->
<g id="edge2" class="edge">
<title>FireballSkill&#45;&gt;Targeting</title>
<path fill="none" stroke="#59687e" stroke-width="1.3" d="M72,-77.96C72,-55.16 72,-22 72,-22 72,-22 184.86,-22 184.86,-22"/>
<polygon fill="#59687e" stroke="#59687e" stroke-width="1.3" points="184.86,-24.8 192.86,-22 184.86,-19.2 184.86,-24.8"/>
</g>
<!-- Bundle -->
<g id="node4" class="node">
<title>Bundle</title>
<path fill="#fff7e6" stroke="#e0ad4e" stroke-width="1.4" d="M325,-120C325,-120 205,-120 205,-120 199,-120 193,-114 193,-108 193,-108 193,-90 193,-90 193,-84 199,-78 205,-78 205,-78 325,-78 325,-78 331,-78 337,-84 337,-90 337,-90 337,-108 337,-108 337,-114 331,-120 325,-120"/>
<text text-anchor="middle" x="265" y="-102.8" font-family="Noto Sans CJK KR" font-size="14.00" fill="#182033">EffectBundle</text>
<text text-anchor="middle" x="265" y="-87.8" font-family="Noto Sans CJK KR" font-size="14.00" fill="#182033">Sequential</text>
</g>
<!-- FireballSkill&#45;&gt;Bundle -->
<g id="edge3" class="edge">
<title>FireballSkill&#45;&gt;Bundle</title>
<path fill="none" stroke="#59687e" stroke-width="1.3" d="M144.14,-99C144.14,-99 184.95,-99 184.95,-99"/>
<polygon fill="#59687e" stroke="#59687e" stroke-width="1.3" points="184.95,-101.8 192.95,-99 184.95,-96.2 184.95,-101.8"/>
</g>
<!-- Stat -->
<g id="node7" class="node">
<title>Stat</title>
<path fill="#eefbf6" stroke="#61b99a" stroke-width="1.4" d="M1133,-204C1133,-204 910,-204 910,-204 904,-204 898,-198 898,-192 898,-192 898,-174 898,-174 898,-168 904,-162 910,-162 910,-162 1133,-162 1133,-162 1139,-162 1145,-168 1145,-174 1145,-174 1145,-192 1145,-192 1145,-198 1139,-204 1133,-204"/>
<text text-anchor="middle" x="1021.5" y="-186.8" font-family="Noto Sans CJK KR" font-size="14.00" fill="#182033">Stat System</text>
<text text-anchor="middle" x="1021.5" y="-171.8" font-family="Noto Sans CJK KR" font-size="14.00" fill="#182033">spell_power, fire_bonus, resistance</text>
</g>
<!-- Cost&#45;&gt;Stat -->
<g id="edge9" class="edge">
<title>Cost&#45;&gt;Stat</title>
<path fill="none" stroke="#59687e" stroke-width="1.3" d="M505.16,-184C505.16,-184 889.88,-184 889.88,-184"/>
<polygon fill="#59687e" stroke="#59687e" stroke-width="1.3" points="889.88,-186.8 897.88,-184 889.88,-181.2 889.88,-186.8"/>
<text text-anchor="middle" x="636" y="-193.8" font-family="Noto Sans CJK KR" font-size="14.00" fill="#46566e">modify mana</text>
</g>
<!-- DamageEffect -->
<g id="node5" class="node">
<title>DamageEffect</title>
<path fill="#fff0f3" stroke="#e07b91" stroke-width="1.4" d="M731,-120C731,-120 541,-120 541,-120 535,-120 529,-114 529,-108 529,-108 529,-90 529,-90 529,-84 535,-78 541,-78 541,-78 731,-78 731,-78 737,-78 743,-84 743,-90 743,-90 743,-108 743,-108 743,-114 737,-120 731,-120"/>
<text text-anchor="middle" x="636" y="-102.8" font-family="Noto Sans CJK KR" font-size="14.00" fill="#182033">DamageEffect</text>
<text text-anchor="middle" x="636" y="-87.8" font-family="Noto Sans CJK KR" font-size="14.00" fill="#182033">Fire base 40 + spellPower×1.2</text>
</g>
<!-- Bundle&#45;&gt;DamageEffect -->
<g id="edge4" class="edge">
<title>Bundle&#45;&gt;DamageEffect</title>
<path fill="none" stroke="#59687e" stroke-width="1.3" d="M337.41,-106C337.41,-106 520.98,-106 520.98,-106"/>
<polygon fill="#59687e" stroke="#59687e" stroke-width="1.3" points="520.98,-108.8 528.98,-106 520.98,-103.2 520.98,-108.8"/>
<text text-anchor="middle" x="433" y="-102.8" font-family="Noto Sans CJK KR" font-size="14.00" fill="#46566e">1</text>
</g>
<!-- BurnEffect -->
<g id="node6" class="node">
<title>BurnEffect</title>
<path fill="#fff0f3" stroke="#e07b91" stroke-width="1.4" d="M696,-43C696,-43 576,-43 576,-43 570,-43 564,-37 564,-31 564,-31 564,-13 564,-13 564,-7 570,-1 576,-1 576,-1 696,-1 696,-1 702,-1 708,-7 708,-13 708,-13 708,-31 708,-31 708,-37 702,-43 696,-43"/>
<text text-anchor="middle" x="636" y="-25.8" font-family="Noto Sans CJK KR" font-size="14.00" fill="#182033">ApplyStatusEffect</text>
<text text-anchor="middle" x="636" y="-10.8" font-family="Noto Sans CJK KR" font-size="14.00" fill="#182033">Burn 5 sec</text>
</g>
<!-- Bundle&#45;&gt;BurnEffect -->
<g id="edge5" class="edge">
<title>Bundle&#45;&gt;BurnEffect</title>
<path fill="none" stroke="#59687e" stroke-width="1.3" d="M337.32,-92C344.39,-92 349,-92 349,-92 349,-92 349,-22 349,-22 349,-22 555.95,-22 555.95,-22"/>
<polygon fill="#59687e" stroke="#59687e" stroke-width="1.3" points="555.95,-24.8 563.95,-22 555.95,-19.2 555.95,-24.8"/>
<text text-anchor="middle" x="433" y="-36.8" font-family="Noto Sans CJK KR" font-size="14.00" fill="#46566e">2</text>
</g>
<!-- DamageEffect&#45;&gt;Stat -->
<g id="edge6" class="edge">
<title>DamageEffect&#45;&gt;Stat</title>
<path fill="none" stroke="#59687e" stroke-width="1.3" d="M743.01,-105.33C822.79,-105.33 918,-105.33 918,-105.33 918,-105.33 918,-153.78 918,-153.78"/>
<polygon fill="#59687e" stroke="#59687e" stroke-width="1.3" points="915.2,-153.78 918,-161.78 920.8,-153.78 915.2,-153.78"/>
<text text-anchor="middle" x="820.5" y="-155.8" font-family="Noto Sans CJK KR" font-size="14.00" fill="#46566e">value lookup</text>
</g>
<!-- Combat -->
<g id="node8" class="node">
<title>Combat</title>
<path fill="#eefbf6" stroke="#61b99a" stroke-width="1.4" d="M1094,-119C1094,-119 949,-119 949,-119 943,-119 937,-113 937,-107 937,-107 937,-89 937,-89 937,-83 943,-77 949,-77 949,-77 1094,-77 1094,-77 1100,-77 1106,-83 1106,-89 1106,-89 1106,-107 1106,-107 1106,-113 1100,-119 1094,-119"/>
<text text-anchor="middle" x="1021.5" y="-101.8" font-family="Noto Sans CJK KR" font-size="14.00" fill="#182033">Combat Resolver</text>
<text text-anchor="middle" x="1021.5" y="-86.8" font-family="Noto Sans CJK KR" font-size="14.00" fill="#182033">defense/resistance/crit</text>
</g>
<!-- DamageEffect&#45;&gt;Combat -->
<g id="edge7" class="edge">
<title>DamageEffect&#45;&gt;Combat</title>
<path fill="none" stroke="#59687e" stroke-width="1.3" d="M743.13,-91.67C743.13,-91.67 928.85,-91.67 928.85,-91.67"/>
<polygon fill="#59687e" stroke="#59687e" stroke-width="1.3" points="928.86,-94.47 936.85,-91.67 928.85,-88.87 928.86,-94.47"/>
<text text-anchor="middle" x="820.5" y="-100.8" font-family="Noto Sans CJK KR" font-size="14.00" fill="#46566e">DamageRequest</text>
</g>
<!-- Status -->
<g id="node9" class="node">
<title>Status</title>
<path fill="#eefbf6" stroke="#61b99a" stroke-width="1.4" d="M1084,-42C1084,-42 959,-42 959,-42 953,-42 947,-36 947,-30 947,-30 947,-12 947,-12 947,-6 953,0 959,0 959,0 1084,0 1084,0 1090,0 1096,-6 1096,-12 1096,-12 1096,-30 1096,-30 1096,-36 1090,-42 1084,-42"/>
<text text-anchor="middle" x="1021.5" y="-24.8" font-family="Noto Sans CJK KR" font-size="14.00" fill="#182033">Status Controller</text>
<text text-anchor="middle" x="1021.5" y="-9.8" font-family="Noto Sans CJK KR" font-size="14.00" fill="#182033">Burn Instance + Tick</text>
</g>
<!-- BurnEffect&#45;&gt;Status -->
<g id="edge8" class="edge">
<title>BurnEffect&#45;&gt;Status</title>
<path fill="none" stroke="#59687e" stroke-width="1.3" d="M708.06,-21.5C708.06,-21.5 938.84,-21.5 938.84,-21.5"/>
<polygon fill="#59687e" stroke="#59687e" stroke-width="1.3" points="938.84,-24.3 946.84,-21.5 938.84,-18.7 938.84,-24.3"/>
<text text-anchor="middle" x="820.5" y="-24.8" font-family="Noto Sans CJK KR" font-size="14.00" fill="#46566e">create status</text>
</g>
<!-- Event -->
<g id="node10" class="node">
<title>Event</title>
<path fill="#f3eefc" stroke="#ab8fe0" stroke-width="1.4" d="M1456,-50C1456,-50 1206,-50 1206,-50 1200,-50 1194,-44 1194,-38 1194,-38 1194,-20 1194,-20 1194,-14 1200,-8 1206,-8 1206,-8 1456,-8 1456,-8 1462,-8 1468,-14 1468,-20 1468,-20 1468,-38 1468,-38 1468,-44 1462,-50 1456,-50"/>
<text text-anchor="middle" x="1331" y="-32.8" font-family="Noto Sans CJK KR" font-size="14.00" fill="#182033">Event Bus</text>
<text text-anchor="middle" x="1331" y="-17.8" font-family="Noto Sans CJK KR" font-size="14.00" fill="#182033">SkillUsed, DamageDealt, StatusApplied</text>
</g>
<!-- Combat&#45;&gt;Event -->
<g id="edge10" class="edge">
<title>Combat&#45;&gt;Event</title>
<path fill="none" stroke="#59687e" stroke-width="1.3" d="M1101,-76.76C1101,-62.57 1101,-46.5 1101,-46.5 1101,-46.5 1185.89,-46.5 1185.89,-46.5"/>
<polygon fill="#59687e" stroke="#59687e" stroke-width="1.3" points="1185.89,-49.3 1193.89,-46.5 1185.89,-43.7 1185.89,-49.3"/>
</g>
<!-- Debug -->
<g id="node11" class="node">
<title>Debug</title>
<path fill="#f0f3f9" stroke="#99a8bd" stroke-width="1.4" d="M1728,-87C1728,-87 1529,-87 1529,-87 1523,-87 1517,-81 1517,-75 1517,-75 1517,-57 1517,-57 1517,-51 1523,-45 1529,-45 1529,-45 1728,-45 1728,-45 1734,-45 1740,-51 1740,-57 1740,-57 1740,-75 1740,-75 1740,-81 1734,-87 1728,-87"/>
<text text-anchor="middle" x="1628.5" y="-69.8" font-family="Noto Sans CJK KR" font-size="14.00" fill="#182033">Debug Logs</text>
<text text-anchor="middle" x="1628.5" y="-54.8" font-family="Noto Sans CJK KR" font-size="14.00" fill="#182033">EffectLog + DamageBreakdown</text>
</g>
<!-- Combat&#45;&gt;Debug -->
<g id="edge13" class="edge">
<title>Combat&#45;&gt;Debug</title>
<path fill="none" stroke="#59687e" stroke-width="1.3" d="M1106.22,-82C1106.22,-82 1508.87,-82 1508.87,-82"/>
<polygon fill="#59687e" stroke="#59687e" stroke-width="1.3" points="1508.87,-84.8 1516.87,-82 1508.87,-79.2 1508.87,-84.8"/>
</g>
<!-- Status&#45;&gt;Event -->
<g id="edge11" class="edge">
<title>Status&#45;&gt;Event</title>
<path fill="none" stroke="#59687e" stroke-width="1.3" d="M1096.03,-25C1096.03,-25 1185.87,-25 1185.87,-25"/>
<polygon fill="#59687e" stroke="#59687e" stroke-width="1.3" points="1185.87,-27.8 1193.87,-25 1185.87,-22.2 1185.87,-27.8"/>
</g>
<!-- Event&#45;&gt;Debug -->
<g id="edge12" class="edge">
<title>Event&#45;&gt;Debug</title>
<path fill="none" stroke="#59687e" stroke-width="1.3" d="M1468.22,-26.5C1546.44,-26.5 1629,-26.5 1629,-26.5 1629,-26.5 1629,-36.86 1629,-36.86"/>
<polygon fill="#59687e" stroke="#59687e" stroke-width="1.3" points="1626.2,-36.86 1629,-44.86 1631.8,-36.86 1626.2,-36.86"/>
</g>
</g>
</svg>
