<?xml version="1.0" encoding="UTF-8" standalone="no"?>
<!DOCTYPE svg PUBLIC "-//W3C//DTD SVG 1.1//EN"
 "http://www.w3.org/Graphics/SVG/1.1/DTD/svg11.dtd">
<!-- Generated by graphviz version 15.0.0 (20260523.1842)
 -->
<!-- Title: G Pages: 1 -->
<svg width="1960pt" height="901pt"
 viewBox="9.00 9.00 1951.00 893.00" xmlns="http://www.w3.org/2000/svg" xmlns:xlink="http://www.w3.org/1999/xlink">
<g id="graph0" class="graph" transform="scale(1 1) rotate(0) translate(26.64 874.64)">
<title>G</title>
<polygon fill="#ffffff" stroke="none" points="-18,18 -18,-866 1924.72,-866 1924.72,18 -18,18"/>
<g id="clust1" class="cluster">
<title>cluster_contract</title>
<path fill="#ffffff" stroke="#dfe5ee" stroke-dasharray="5,2" d="M20,-590C20,-590 526.77,-590 526.77,-590 532.77,-590 538.77,-596 538.77,-602 538.77,-602 538.77,-820 538.77,-820 538.77,-826 532.77,-832 526.77,-832 526.77,-832 20,-832 20,-832 14,-832 8,-826 8,-820 8,-820 8,-602 8,-602 8,-596 14,-590 20,-590"/>
<text xml:space="preserve" text-anchor="middle" x="273.38" y="-811.8" font-family="Noto Sans CJK KR" font-size="18.00" fill="#607086">공통 계약: 모든 시스템이 공유하는 언어</text>
</g>
<g id="clust2" class="cluster">
<title>cluster_runtime</title>
<path fill="#ffffff" stroke="#dfe5ee" stroke-dasharray="5,2" d="M715.06,-499C715.06,-499 1886.72,-499 1886.72,-499 1892.72,-499 1898.72,-505 1898.72,-511 1898.72,-511 1898.72,-828 1898.72,-828 1898.72,-834 1892.72,-840 1886.72,-840 1886.72,-840 715.06,-840 715.06,-840 709.06,-840 703.06,-834 703.06,-828 703.06,-828 703.06,-511 703.06,-511 703.06,-505 709.06,-499 715.06,-499"/>
<text xml:space="preserve" text-anchor="middle" x="1300.89" y="-819.8" font-family="Noto Sans CJK KR" font-size="18.00" fill="#607086">런타임 서비스: 실행·재현·추적</text>
</g>
<g id="clust3" class="cluster">
<title>cluster_consumers</title>
<path fill="#ffffff" stroke="#dfe5ee" stroke-dasharray="5,2" d="M1058.07,-8C1058.07,-8 1188.87,-8 1188.87,-8 1194.87,-8 1200.87,-14 1200.87,-20 1200.87,-20 1200.87,-487 1200.87,-487 1200.87,-493 1194.87,-499 1188.87,-499 1188.87,-499 1058.07,-499 1058.07,-499 1052.07,-499 1046.07,-493 1046.07,-487 1046.07,-487 1046.07,-20 1046.07,-20 1046.07,-14 1052.07,-8 1058.07,-8"/>
<text xml:space="preserve" text-anchor="middle" x="1123.47" y="-478.8" font-family="Noto Sans CJK KR" font-size="18.00" fill="#607086">소비 시스템</text>
</g>
<!-- EntityRegistry -->
<g id="node1" class="node">
<title>EntityRegistry</title>
<path fill="#eaf0ff" stroke="#8292f7" stroke-width="1.4" d="M174.07,-636.28C174.07,-636.28 43.27,-636.28 43.27,-636.28 37.27,-636.28 31.27,-630.28 31.27,-624.28 31.27,-624.28 31.27,-601.72 31.27,-601.72 31.27,-595.72 37.27,-589.72 43.27,-589.72 43.27,-589.72 174.07,-589.72 174.07,-589.72 180.07,-589.72 186.07,-595.72 186.07,-601.72 186.07,-601.72 186.07,-624.28 186.07,-624.28 186.07,-630.28 180.07,-636.28 174.07,-636.28"/>
<text xml:space="preserve" text-anchor="middle" x="108.67" y="-617.2" font-family="Noto Sans CJK KR" font-size="14.00" fill="#182033">EntityRegistry</text>
<text xml:space="preserve" text-anchor="middle" x="108.67" y="-600.4" font-family="Noto Sans CJK KR" font-size="14.00" fill="#182033">EntityId / EntityRef</text>
</g>
<!-- ContextFactory -->
<g id="node4" class="node">
<title>ContextFactory</title>
<path fill="#eefbf6" stroke="#61b99a" stroke-width="1.4" d="M526.77,-719.28C526.77,-719.28 379,-719.28 379,-719.28 373,-719.28 367,-713.28 367,-707.28 367,-707.28 367,-684.72 367,-684.72 367,-678.72 373,-672.72 379,-672.72 379,-672.72 526.77,-672.72 526.77,-672.72 532.77,-672.72 538.77,-678.72 538.77,-684.72 538.77,-684.72 538.77,-707.28 538.77,-707.28 538.77,-713.28 532.77,-719.28 526.77,-719.28"/>
<text xml:space="preserve" text-anchor="middle" x="452.88" y="-700.2" font-family="Noto Sans CJK KR" font-size="14.00" fill="#182033">GameContextFactory</text>
<text xml:space="preserve" text-anchor="middle" x="452.88" y="-683.4" font-family="Noto Sans CJK KR" font-size="14.00" fill="#182033">actor · target · seed · time</text>
</g>
<!-- EntityRegistry&#45;&gt;ContextFactory -->
<g id="edge1" class="edge">
<title>EntityRegistry&#45;&gt;ContextFactory</title>
<path fill="none" stroke="#59687e" stroke-width="1.3" d="M186.74,-632.28C288.25,-632.28 452.72,-632.28 452.72,-632.28 452.72,-632.28 452.72,-662.31 452.72,-662.31"/>
<polygon fill="#59687e" stroke="#59687e" stroke-width="1.3" points="449.92,-662.31 452.72,-670.31 455.52,-662.31 449.92,-662.31"/>
<text xml:space="preserve" text-anchor="middle" x="288.17" y="-636.2" font-family="Noto Sans CJK KR" font-size="14.00" fill="#46566e">actor/target resolve</text>
</g>
<!-- TagService -->
<g id="node2" class="node">
<title>TagService</title>
<path fill="#f3eefc" stroke="#ab8fe0" stroke-width="1.4" d="M174.07,-719.28C174.07,-719.28 43.27,-719.28 43.27,-719.28 37.27,-719.28 31.27,-713.28 31.27,-707.28 31.27,-707.28 31.27,-684.72 31.27,-684.72 31.27,-678.72 37.27,-672.72 43.27,-672.72 43.27,-672.72 174.07,-672.72 174.07,-672.72 180.07,-672.72 186.07,-678.72 186.07,-684.72 186.07,-684.72 186.07,-707.28 186.07,-707.28 186.07,-713.28 180.07,-719.28 174.07,-719.28"/>
<text xml:space="preserve" text-anchor="middle" x="108.67" y="-700.2" font-family="Noto Sans CJK KR" font-size="14.00" fill="#182033">TagService</text>
<text xml:space="preserve" text-anchor="middle" x="108.67" y="-683.4" font-family="Noto Sans CJK KR" font-size="14.00" fill="#182033">TagSet / Tag Query</text>
</g>
<!-- TagService&#45;&gt;ContextFactory -->
<g id="edge2" class="edge">
<title>TagService&#45;&gt;ContextFactory</title>
<path fill="none" stroke="#59687e" stroke-width="1.3" d="M186.34,-688.24C186.34,-688.24 356.45,-688.24 356.45,-688.24"/>
<polygon fill="#59687e" stroke="#59687e" stroke-width="1.3" points="356.45,-691.04 364.45,-688.24 356.45,-685.44 356.45,-691.04"/>
<text xml:space="preserve" text-anchor="middle" x="288.17" y="-700.2" font-family="Noto Sans CJK KR" font-size="14.00" fill="#46566e">tags</text>
</g>
<!-- SourceTracker -->
<g id="node3" class="node">
<title>SourceTracker</title>
<path fill="#fff7e6" stroke="#e0ad4e" stroke-width="1.4" d="M197.33,-802.28C197.33,-802.28 20,-802.28 20,-802.28 14,-802.28 8,-796.28 8,-790.28 8,-790.28 8,-767.72 8,-767.72 8,-761.72 14,-755.72 20,-755.72 20,-755.72 197.33,-755.72 197.33,-755.72 203.33,-755.72 209.33,-761.72 209.33,-767.72 209.33,-767.72 209.33,-790.28 209.33,-790.28 209.33,-796.28 203.33,-802.28 197.33,-802.28"/>
<text xml:space="preserve" text-anchor="middle" x="108.67" y="-783.2" font-family="Noto Sans CJK KR" font-size="14.00" fill="#182033">SourceTracker</text>
<text xml:space="preserve" text-anchor="middle" x="108.67" y="-766.4" font-family="Noto Sans CJK KR" font-size="14.00" fill="#182033">SourceRef / definition / instance</text>
</g>
<!-- SourceTracker&#45;&gt;ContextFactory -->
<g id="edge3" class="edge">
<title>SourceTracker&#45;&gt;ContextFactory</title>
<path fill="none" stroke="#59687e" stroke-width="1.3" d="M197.72,-755.19C197.72,-733.15 197.72,-703.76 197.72,-703.76 197.72,-703.76 356.53,-703.76 356.53,-703.76"/>
<polygon fill="#59687e" stroke="#59687e" stroke-width="1.3" points="356.53,-706.56 364.53,-703.76 356.53,-700.96 356.53,-706.56"/>
<text xml:space="preserve" text-anchor="middle" x="288.17" y="-770.2" font-family="Noto Sans CJK KR" font-size="14.00" fill="#46566e">source</text>
</g>
<!-- RuntimeCommitter -->
<g id="node6" class="node">
<title>RuntimeCommitter</title>
<path fill="#eefbf6" stroke="#61b99a" stroke-width="1.4" d="M859.02,-727.68C859.02,-727.68 728.22,-727.68 728.22,-727.68 722.22,-727.68 716.22,-721.68 716.22,-715.68 716.22,-715.68 716.22,-676.32 716.22,-676.32 716.22,-670.32 722.22,-664.32 728.22,-664.32 728.22,-664.32 859.02,-664.32 859.02,-664.32 865.02,-664.32 871.02,-670.32 871.02,-676.32 871.02,-676.32 871.02,-715.68 871.02,-715.68 871.02,-721.68 865.02,-727.68 859.02,-727.68"/>
<text xml:space="preserve" text-anchor="middle" x="793.62" y="-708.6" font-family="Noto Sans CJK KR" font-size="14.00" fill="#182033">RuntimeCommitter</text>
<text xml:space="preserve" text-anchor="middle" x="793.62" y="-691.8" font-family="Noto Sans CJK KR" font-size="14.00" fill="#182033">versions · invariants</text>
<text xml:space="preserve" text-anchor="middle" x="793.62" y="-675" font-family="Noto Sans CJK KR" font-size="14.00" fill="#182033">state + outbox atomic</text>
</g>
<!-- ContextFactory&#45;&gt;RuntimeCommitter -->
<g id="edge4" class="edge">
<title>ContextFactory&#45;&gt;RuntimeCommitter</title>
<path fill="none" stroke="#59687e" stroke-width="1.3" d="M539.3,-696C539.3,-696 705.76,-696 705.76,-696"/>
<polygon fill="#59687e" stroke="#59687e" stroke-width="1.3" points="705.76,-698.8 713.76,-696 705.76,-693.2 705.76,-698.8"/>
<text xml:space="preserve" text-anchor="middle" x="620.91" y="-700.2" font-family="Noto Sans CJK KR" font-size="14.00" fill="#46566e">identity / correlation</text>
</g>
<!-- EventBus -->
<g id="node5" class="node">
<title>EventBus</title>
<path fill="#fff0f3" stroke="#e07b91" stroke-width="1.4" d="M1535.51,-648.28C1535.51,-648.28 1404.71,-648.28 1404.71,-648.28 1398.71,-648.28 1392.71,-642.28 1392.71,-636.28 1392.71,-636.28 1392.71,-613.72 1392.71,-613.72 1392.71,-607.72 1398.71,-601.72 1404.71,-601.72 1404.71,-601.72 1535.51,-601.72 1535.51,-601.72 1541.51,-601.72 1547.51,-607.72 1547.51,-613.72 1547.51,-613.72 1547.51,-636.28 1547.51,-636.28 1547.51,-642.28 1541.51,-648.28 1535.51,-648.28"/>
<text xml:space="preserve" text-anchor="middle" x="1470.11" y="-629.2" font-family="Noto Sans CJK KR" font-size="14.00" fill="#182033">EventBus</text>
<text xml:space="preserve" text-anchor="middle" x="1470.11" y="-612.4" font-family="Noto Sans CJK KR" font-size="14.00" fill="#182033">committed facts only</text>
</g>
<!-- ReactionQueue -->
<g id="node8" class="node">
<title>ReactionQueue</title>
<path fill="#f3eefc" stroke="#ab8fe0" stroke-width="1.4" d="M1881.34,-644.68C1881.34,-644.68 1750.54,-644.68 1750.54,-644.68 1744.54,-644.68 1738.54,-638.68 1738.54,-632.68 1738.54,-632.68 1738.54,-593.32 1738.54,-593.32 1738.54,-587.32 1744.54,-581.32 1750.54,-581.32 1750.54,-581.32 1881.34,-581.32 1881.34,-581.32 1887.34,-581.32 1893.34,-587.32 1893.34,-593.32 1893.34,-593.32 1893.34,-632.68 1893.34,-632.68 1893.34,-638.68 1887.34,-644.68 1881.34,-644.68"/>
<text xml:space="preserve" text-anchor="middle" x="1815.94" y="-625.6" font-family="Noto Sans CJK KR" font-size="14.00" fill="#182033">ReactionQueue</text>
<text xml:space="preserve" text-anchor="middle" x="1815.94" y="-608.8" font-family="Noto Sans CJK KR" font-size="14.00" fill="#182033">priority · stable key</text>
<text xml:space="preserve" text-anchor="middle" x="1815.94" y="-592" font-family="Noto Sans CJK KR" font-size="14.00" fill="#182033">depth / budget</text>
</g>
<!-- EventBus&#45;&gt;ReactionQueue -->
<g id="edge18" class="edge">
<title>EventBus&#45;&gt;ReactionQueue</title>
<path fill="none" stroke="#59687e" stroke-width="1.3" d="M1548.15,-623.2C1548.15,-623.2 1727.92,-623.2 1727.92,-623.2"/>
<polygon fill="#59687e" stroke="#59687e" stroke-width="1.3" points="1727.92,-626 1735.92,-623.2 1727.92,-620.4 1727.92,-626"/>
<text xml:space="preserve" text-anchor="middle" x="1640.34" y="-629.2" font-family="Noto Sans CJK KR" font-size="14.00" fill="#46566e">state&#45;changing reactions</text>
</g>
<!-- DebugTrace -->
<g id="node12" class="node">
<title>DebugTrace</title>
<path fill="#f0f3f9" stroke="#99a8bd" stroke-width="1.4" d="M1886.72,-545.28C1886.72,-545.28 1745.17,-545.28 1745.17,-545.28 1739.17,-545.28 1733.17,-539.28 1733.17,-533.28 1733.17,-533.28 1733.17,-510.72 1733.17,-510.72 1733.17,-504.72 1739.17,-498.72 1745.17,-498.72 1745.17,-498.72 1886.72,-498.72 1886.72,-498.72 1892.72,-498.72 1898.72,-504.72 1898.72,-510.72 1898.72,-510.72 1898.72,-533.28 1898.72,-533.28 1898.72,-539.28 1892.72,-545.28 1886.72,-545.28"/>
<text xml:space="preserve" text-anchor="middle" x="1815.94" y="-526.2" font-family="Noto Sans CJK KR" font-size="14.00" fill="#182033">DebugTrace</text>
<text xml:space="preserve" text-anchor="middle" x="1815.94" y="-509.4" font-family="Noto Sans CJK KR" font-size="14.00" fill="#182033">correlationId / breakdown</text>
</g>
<!-- EventBus&#45;&gt;DebugTrace -->
<g id="edge21" class="edge">
<title>EventBus&#45;&gt;DebugTrace</title>
<path fill="none" stroke="#59687e" stroke-width="1.3" d="M1469.72,-601.11C1469.72,-570.68 1469.72,-522 1469.72,-522 1469.72,-522 1722.61,-522 1722.61,-522"/>
<polygon fill="#59687e" stroke="#59687e" stroke-width="1.3" points="1722.61,-524.8 1730.61,-522 1722.61,-519.2 1722.61,-524.8"/>
<text xml:space="preserve" text-anchor="middle" x="1640.34" y="-571.2" font-family="Noto Sans CJK KR" font-size="14.00" fill="#46566e">observation</text>
</g>
<!-- DurableOutbox -->
<g id="node7" class="node">
<title>DurableOutbox</title>
<path fill="#e9fbff" stroke="#54b7cf" stroke-width="1.4" d="M1190.75,-700.28C1190.75,-700.28 1056.19,-700.28 1056.19,-700.28 1050.19,-700.28 1044.19,-694.28 1044.19,-688.28 1044.19,-688.28 1044.19,-665.72 1044.19,-665.72 1044.19,-659.72 1050.19,-653.72 1056.19,-653.72 1056.19,-653.72 1190.75,-653.72 1190.75,-653.72 1196.75,-653.72 1202.75,-659.72 1202.75,-665.72 1202.75,-665.72 1202.75,-688.28 1202.75,-688.28 1202.75,-694.28 1196.75,-700.28 1190.75,-700.28"/>
<text xml:space="preserve" text-anchor="middle" x="1123.47" y="-681.2" font-family="Noto Sans CJK KR" font-size="14.00" fill="#182033">Durable Outbox</text>
<text xml:space="preserve" text-anchor="middle" x="1123.47" y="-664.4" font-family="Noto Sans CJK KR" font-size="14.00" fill="#182033">committed event records</text>
</g>
<!-- RuntimeCommitter&#45;&gt;DurableOutbox -->
<g id="edge16" class="edge">
<title>RuntimeCommitter&#45;&gt;DurableOutbox</title>
<path fill="none" stroke="#59687e" stroke-width="1.3" d="M871.37,-694.29C871.37,-694.29 1033.69,-694.29 1033.69,-694.29"/>
<polygon fill="#59687e" stroke="#59687e" stroke-width="1.3" points="1033.69,-697.09 1041.69,-694.29 1033.69,-691.49 1033.69,-697.09"/>
<text xml:space="preserve" text-anchor="middle" x="964.18" y="-699.2" font-family="Noto Sans CJK KR" font-size="14.00" fill="#46566e">same transaction</text>
</g>
<!-- DurableOutbox&#45;&gt;EventBus -->
<g id="edge17" class="edge">
<title>DurableOutbox&#45;&gt;EventBus</title>
<path fill="none" stroke="#59687e" stroke-width="1.3" d="M1123.72,-653.27C1123.72,-647.16 1123.72,-642.28 1123.72,-642.28 1123.72,-642.28 1382.4,-642.28 1382.4,-642.28"/>
<polygon fill="#59687e" stroke="#59687e" stroke-width="1.3" points="1382.4,-645.08 1390.4,-642.28 1382.4,-639.48 1382.4,-645.08"/>
<text xml:space="preserve" text-anchor="middle" x="1297.73" y="-664.2" font-family="Noto Sans CJK KR" font-size="14.00" fill="#46566e">dispatch committed facts</text>
</g>
<!-- Effect -->
<g id="node14" class="node">
<title>Effect</title>
<path fill="#fff0f3" stroke="#e07b91" stroke-width="1.4" d="M1188.87,-303.28C1188.87,-303.28 1058.07,-303.28 1058.07,-303.28 1052.07,-303.28 1046.07,-297.28 1046.07,-291.28 1046.07,-291.28 1046.07,-268.72 1046.07,-268.72 1046.07,-262.72 1052.07,-256.72 1058.07,-256.72 1058.07,-256.72 1188.87,-256.72 1188.87,-256.72 1194.87,-256.72 1200.87,-262.72 1200.87,-268.72 1200.87,-268.72 1200.87,-291.28 1200.87,-291.28 1200.87,-297.28 1194.87,-303.28 1188.87,-303.28"/>
<text xml:space="preserve" text-anchor="middle" x="1123.47" y="-284.2" font-family="Noto Sans CJK KR" font-size="14.00" fill="#182033">Effect System</text>
<text xml:space="preserve" text-anchor="middle" x="1123.47" y="-267.4" font-family="Noto Sans CJK KR" font-size="14.00" fill="#182033">결과 실행</text>
</g>
<!-- ReactionQueue&#45;&gt;Effect -->
<g id="edge19" class="edge">
<title>ReactionQueue&#45;&gt;Effect</title>
<path fill="none" stroke="#59687e" stroke-width="1.3" d="M1737.98,-595.05C1679.58,-595.05 1609.72,-595.05 1609.72,-595.05 1609.72,-595.05 1609.72,-287.76 1609.72,-287.76 1609.72,-287.76 1211.29,-287.76 1211.29,-287.76"/>
<polygon fill="#59687e" stroke="#59687e" stroke-width="1.3" points="1211.29,-284.96 1203.29,-287.76 1211.29,-290.56 1211.29,-284.96"/>
<text xml:space="preserve" text-anchor="middle" x="1470.11" y="-379.2" font-family="Noto Sans CJK KR" font-size="14.00" fill="#46566e">new command</text>
</g>
<!-- Status -->
<g id="node17" class="node">
<title>Status</title>
<path fill="#f3eefc" stroke="#ab8fe0" stroke-width="1.4" d="M1188.87,-54.28C1188.87,-54.28 1058.07,-54.28 1058.07,-54.28 1052.07,-54.28 1046.07,-48.28 1046.07,-42.28 1046.07,-42.28 1046.07,-19.72 1046.07,-19.72 1046.07,-13.72 1052.07,-7.72 1058.07,-7.72 1058.07,-7.72 1188.87,-7.72 1188.87,-7.72 1194.87,-7.72 1200.87,-13.72 1200.87,-19.72 1200.87,-19.72 1200.87,-42.28 1200.87,-42.28 1200.87,-48.28 1194.87,-54.28 1188.87,-54.28"/>
<text xml:space="preserve" text-anchor="middle" x="1123.47" y="-35.2" font-family="Noto Sans CJK KR" font-size="14.00" fill="#182033">Status</text>
<text xml:space="preserve" text-anchor="middle" x="1123.47" y="-18.4" font-family="Noto Sans CJK KR" font-size="14.00" fill="#182033">지속 상태</text>
</g>
<!-- ReactionQueue&#45;&gt;Status -->
<g id="edge20" class="edge">
<title>ReactionQueue&#45;&gt;Status</title>
<path fill="none" stroke="#59687e" stroke-width="1.3" d="M1737.92,-588.39C1703.94,-588.39 1671.72,-588.39 1671.72,-588.39 1671.72,-588.39 1671.72,-31 1671.72,-31 1671.72,-31 1211.41,-31 1211.41,-31"/>
<polygon fill="#59687e" stroke="#59687e" stroke-width="1.3" points="1211.41,-28.2 1203.41,-31 1211.41,-33.8 1211.41,-28.2"/>
<text xml:space="preserve" text-anchor="middle" x="1470.11" y="-112.2" font-family="Noto Sans CJK KR" font-size="14.00" fill="#46566e">new command</text>
</g>
<!-- TimeService -->
<g id="node9" class="node">
<title>TimeService</title>
<path fill="#e9fbff" stroke="#54b7cf" stroke-width="1.4" d="M864.02,-545.28C864.02,-545.28 723.22,-545.28 723.22,-545.28 717.22,-545.28 711.22,-539.28 711.22,-533.28 711.22,-533.28 711.22,-510.72 711.22,-510.72 711.22,-504.72 717.22,-498.72 723.22,-498.72 723.22,-498.72 864.02,-498.72 864.02,-498.72 870.02,-498.72 876.02,-504.72 876.02,-510.72 876.02,-510.72 876.02,-533.28 876.02,-533.28 876.02,-539.28 870.02,-545.28 864.02,-545.28"/>
<text xml:space="preserve" text-anchor="middle" x="793.62" y="-526.2" font-family="Noto Sans CJK KR" font-size="14.00" fill="#182033">TimeService</text>
<text xml:space="preserve" text-anchor="middle" x="793.62" y="-509.4" font-family="Noto Sans CJK KR" font-size="14.00" fill="#182033">tick / duration / cooldown</text>
</g>
<!-- Skill -->
<g id="node15" class="node">
<title>Skill</title>
<path fill="#fff7e6" stroke="#e0ad4e" stroke-width="1.4" d="M1188.87,-137.28C1188.87,-137.28 1058.07,-137.28 1058.07,-137.28 1052.07,-137.28 1046.07,-131.28 1046.07,-125.28 1046.07,-125.28 1046.07,-102.72 1046.07,-102.72 1046.07,-96.72 1052.07,-90.72 1058.07,-90.72 1058.07,-90.72 1188.87,-90.72 1188.87,-90.72 1194.87,-90.72 1200.87,-96.72 1200.87,-102.72 1200.87,-102.72 1200.87,-125.28 1200.87,-125.28 1200.87,-131.28 1194.87,-137.28 1188.87,-137.28"/>
<text xml:space="preserve" text-anchor="middle" x="1123.47" y="-118.2" font-family="Noto Sans CJK KR" font-size="14.00" fill="#182033">Skill / Action</text>
<text xml:space="preserve" text-anchor="middle" x="1123.47" y="-101.4" font-family="Noto Sans CJK KR" font-size="14.00" fill="#182033">행동 실행</text>
</g>
<!-- TimeService&#45;&gt;Skill -->
<g id="edge5" class="edge">
<title>TimeService&#45;&gt;Skill</title>
<path fill="none" stroke="#59687e" stroke-width="1.3" d="M820.72,-498.1C820.72,-408.84 820.72,-100.03 820.72,-100.03 820.72,-100.03 1035.54,-100.03 1035.54,-100.03"/>
<polygon fill="#59687e" stroke="#59687e" stroke-width="1.3" points="1035.54,-102.83 1043.54,-100.03 1035.54,-97.23 1035.54,-102.83"/>
<text xml:space="preserve" text-anchor="middle" x="964.18" y="-118.2" font-family="Noto Sans CJK KR" font-size="14.00" fill="#46566e">cooldown</text>
</g>
<!-- TimeService&#45;&gt;Status -->
<g id="edge6" class="edge">
<title>TimeService&#45;&gt;Status</title>
<path fill="none" stroke="#59687e" stroke-width="1.3" d="M765.72,-498.28C765.72,-399.16 765.72,-23.24 765.72,-23.24 765.72,-23.24 1035.43,-23.24 1035.43,-23.24"/>
<polygon fill="#59687e" stroke="#59687e" stroke-width="1.3" points="1035.43,-26.04 1043.43,-23.24 1035.43,-20.44 1035.43,-26.04"/>
<text xml:space="preserve" text-anchor="middle" x="964.18" y="-48.2" font-family="Noto Sans CJK KR" font-size="14.00" fill="#46566e">duration/tick</text>
</g>
<!-- RandomService -->
<g id="node10" class="node">
<title>RandomService</title>
<path fill="#f0f3f9" stroke="#99a8bd" stroke-width="1.4" d="M872.17,-628.28C872.17,-628.28 715.06,-628.28 715.06,-628.28 709.06,-628.28 703.06,-622.28 703.06,-616.28 703.06,-616.28 703.06,-593.72 703.06,-593.72 703.06,-587.72 709.06,-581.72 715.06,-581.72 715.06,-581.72 872.17,-581.72 872.17,-581.72 878.17,-581.72 884.17,-587.72 884.17,-593.72 884.17,-593.72 884.17,-616.28 884.17,-616.28 884.17,-622.28 878.17,-628.28 872.17,-628.28"/>
<text xml:space="preserve" text-anchor="middle" x="793.62" y="-609.2" font-family="Noto Sans CJK KR" font-size="14.00" fill="#182033">RandomStream</text>
<text xml:space="preserve" text-anchor="middle" x="793.62" y="-592.4" font-family="Noto Sans CJK KR" font-size="14.00" fill="#182033">seeded deterministic random</text>
</g>
<!-- RandomService&#45;&gt;Skill -->
<g id="edge7" class="edge">
<title>RandomService&#45;&gt;Skill</title>
<path fill="none" stroke="#59687e" stroke-width="1.3" d="M878.72,-581.09C878.72,-482.08 878.72,-109.34 878.72,-109.34 878.72,-109.34 1035.72,-109.34 1035.72,-109.34"/>
<polygon fill="#59687e" stroke="#59687e" stroke-width="1.3" points="1035.72,-112.14 1043.72,-109.34 1035.72,-106.54 1035.72,-112.14"/>
<text xml:space="preserve" text-anchor="middle" x="964.18" y="-177.2" font-family="Noto Sans CJK KR" font-size="14.00" fill="#46566e">request seed</text>
</g>
<!-- Combat -->
<g id="node16" class="node">
<title>Combat</title>
<path fill="#eefbf6" stroke="#61b99a" stroke-width="1.4" d="M1188.87,-220.28C1188.87,-220.28 1058.07,-220.28 1058.07,-220.28 1052.07,-220.28 1046.07,-214.28 1046.07,-208.28 1046.07,-208.28 1046.07,-185.72 1046.07,-185.72 1046.07,-179.72 1052.07,-173.72 1058.07,-173.72 1058.07,-173.72 1188.87,-173.72 1188.87,-173.72 1194.87,-173.72 1200.87,-179.72 1200.87,-185.72 1200.87,-185.72 1200.87,-208.28 1200.87,-208.28 1200.87,-214.28 1194.87,-220.28 1188.87,-220.28"/>
<text xml:space="preserve" text-anchor="middle" x="1123.47" y="-201.2" font-family="Noto Sans CJK KR" font-size="14.00" fill="#182033">Combat</text>
<text xml:space="preserve" text-anchor="middle" x="1123.47" y="-184.4" font-family="Noto Sans CJK KR" font-size="14.00" fill="#182033">피해 해석</text>
</g>
<!-- RandomService&#45;&gt;Combat -->
<g id="edge8" class="edge">
<title>RandomService&#45;&gt;Combat</title>
<path fill="none" stroke="#59687e" stroke-width="1.3" d="M881.72,-581.15C881.72,-492.81 881.72,-189.24 881.72,-189.24 881.72,-189.24 1035.68,-189.24 1035.68,-189.24"/>
<polygon fill="#59687e" stroke="#59687e" stroke-width="1.3" points="1035.68,-192.04 1043.68,-189.24 1035.68,-186.44 1035.68,-192.04"/>
<text xml:space="preserve" text-anchor="middle" x="964.18" y="-351.2" font-family="Noto Sans CJK KR" font-size="14.00" fill="#46566e">hit/crit</text>
</g>
<!-- DataRegistry -->
<g id="node11" class="node">
<title>DataRegistry</title>
<path fill="#f7f9fc" stroke="#bac7db" stroke-width="1.4" d="M859.02,-810.28C859.02,-810.28 728.22,-810.28 728.22,-810.28 722.22,-810.28 716.22,-804.28 716.22,-798.28 716.22,-798.28 716.22,-775.72 716.22,-775.72 716.22,-769.72 722.22,-763.72 728.22,-763.72 728.22,-763.72 859.02,-763.72 859.02,-763.72 865.02,-763.72 871.02,-769.72 871.02,-775.72 871.02,-775.72 871.02,-798.28 871.02,-798.28 871.02,-804.28 865.02,-810.28 859.02,-810.28"/>
<text xml:space="preserve" text-anchor="middle" x="793.62" y="-791.2" font-family="Noto Sans CJK KR" font-size="14.00" fill="#182033">DataRegistry</text>
<text xml:space="preserve" text-anchor="middle" x="793.62" y="-774.4" font-family="Noto Sans CJK KR" font-size="14.00" fill="#182033">Definition lookup</text>
</g>
<!-- Stat -->
<g id="node13" class="node">
<title>Stat</title>
<path fill="#eaf0ff" stroke="#8292f7" stroke-width="1.4" d="M1188.87,-386.28C1188.87,-386.28 1058.07,-386.28 1058.07,-386.28 1052.07,-386.28 1046.07,-380.28 1046.07,-374.28 1046.07,-374.28 1046.07,-351.72 1046.07,-351.72 1046.07,-345.72 1052.07,-339.72 1058.07,-339.72 1058.07,-339.72 1188.87,-339.72 1188.87,-339.72 1194.87,-339.72 1200.87,-345.72 1200.87,-351.72 1200.87,-351.72 1200.87,-374.28 1200.87,-374.28 1200.87,-380.28 1194.87,-386.28 1188.87,-386.28"/>
<text xml:space="preserve" text-anchor="middle" x="1123.47" y="-367.2" font-family="Noto Sans CJK KR" font-size="14.00" fill="#182033">Stat System</text>
<text xml:space="preserve" text-anchor="middle" x="1123.47" y="-350.4" font-family="Noto Sans CJK KR" font-size="14.00" fill="#182033">값 계산</text>
</g>
<!-- DataRegistry&#45;&gt;Stat -->
<g id="edge9" class="edge">
<title>DataRegistry&#45;&gt;Stat</title>
<path fill="none" stroke="#59687e" stroke-width="1.3" d="M871.52,-798.64C938.27,-798.64 1023.72,-798.64 1023.72,-798.64 1023.72,-798.64 1023.72,-363 1023.72,-363 1023.72,-363 1035.89,-363 1035.89,-363"/>
<polygon fill="#59687e" stroke="#59687e" stroke-width="1.3" points="1035.89,-365.8 1043.89,-363 1035.89,-360.2 1035.89,-365.8"/>
<text xml:space="preserve" text-anchor="middle" x="964.18" y="-641.2" font-family="Noto Sans CJK KR" font-size="14.00" fill="#46566e">definitions</text>
</g>
<!-- DataRegistry&#45;&gt;Effect -->
<g id="edge10" class="edge">
<title>DataRegistry&#45;&gt;Effect</title>
<path fill="none" stroke="#59687e" stroke-width="1.3" d="M871.55,-787C931.34,-787 1003.72,-787 1003.72,-787 1003.72,-787 1003.72,-287.76 1003.72,-287.76 1003.72,-287.76 1035.63,-287.76 1035.63,-287.76"/>
<polygon fill="#59687e" stroke="#59687e" stroke-width="1.3" points="1035.63,-290.56 1043.63,-287.76 1035.63,-284.96 1035.63,-290.56"/>
<text xml:space="preserve" text-anchor="middle" x="964.18" y="-583.2" font-family="Noto Sans CJK KR" font-size="14.00" fill="#46566e">definitions</text>
</g>
<!-- DataRegistry&#45;&gt;Skill -->
<g id="edge11" class="edge">
<title>DataRegistry&#45;&gt;Skill</title>
<path fill="none" stroke="#59687e" stroke-width="1.3" d="M871.31,-775.36C907.93,-775.36 943.72,-775.36 943.72,-775.36 943.72,-775.36 943.72,-127.97 943.72,-127.97 943.72,-127.97 1035.44,-127.97 1035.44,-127.97"/>
<polygon fill="#59687e" stroke="#59687e" stroke-width="1.3" points="1035.44,-130.77 1043.44,-127.97 1035.44,-125.17 1035.44,-130.77"/>
<text xml:space="preserve" text-anchor="middle" x="964.18" y="-467.2" font-family="Noto Sans CJK KR" font-size="14.00" fill="#46566e">definitions</text>
</g>
<!-- Stat&#45;&gt;DebugTrace -->
<g id="edge22" class="edge">
<title>Stat&#45;&gt;DebugTrace</title>
<path fill="none" stroke="#59687e" stroke-width="1.3" d="M1201.38,-363C1374.24,-363 1774.72,-363 1774.72,-363 1774.72,-363 1774.72,-488.23 1774.72,-488.23"/>
<polygon fill="#59687e" stroke="#59687e" stroke-width="1.3" points="1771.92,-488.23 1774.72,-496.23 1777.52,-488.23 1771.92,-488.23"/>
<text xml:space="preserve" text-anchor="middle" x="1470.11" y="-468.2" font-family="Noto Sans CJK KR" font-size="14.00" fill="#46566e">breakdown</text>
</g>
<!-- Effect&#45;&gt;RuntimeCommitter -->
<g id="edge13" class="edge">
<title>Effect&#45;&gt;RuntimeCommitter</title>
<path fill="none" stroke="#59687e" stroke-width="1.3" d="M1045.42,-272.24C1013.41,-272.24 983.72,-272.24 983.72,-272.24 983.72,-272.24 983.72,-688.29 983.72,-688.29 983.72,-688.29 881.45,-688.29 881.45,-688.29"/>
<polygon fill="#59687e" stroke="#59687e" stroke-width="1.3" points="881.45,-685.49 873.45,-688.29 881.45,-691.09 881.45,-685.49"/>
<text xml:space="preserve" text-anchor="middle" x="964.18" y="-525.2" font-family="Noto Sans CJK KR" font-size="14.00" fill="#46566e">effect plan</text>
</g>
<!-- Effect&#45;&gt;DebugTrace -->
<g id="edge23" class="edge">
<title>Effect&#45;&gt;DebugTrace</title>
<path fill="none" stroke="#59687e" stroke-width="1.3" d="M1201.53,-272.24C1382.57,-272.24 1815.72,-272.24 1815.72,-272.24 1815.72,-272.24 1815.72,-488.08 1815.72,-488.08"/>
<polygon fill="#59687e" stroke="#59687e" stroke-width="1.3" points="1812.92,-488.08 1815.72,-496.08 1818.52,-488.08 1812.92,-488.08"/>
<text xml:space="preserve" text-anchor="middle" x="1470.11" y="-290.2" font-family="Noto Sans CJK KR" font-size="14.00" fill="#46566e">effect log</text>
</g>
<!-- Skill&#45;&gt;RuntimeCommitter -->
<g id="edge12" class="edge">
<title>Skill&#45;&gt;RuntimeCommitter</title>
<path fill="none" stroke="#59687e" stroke-width="1.3" d="M1045.38,-118.66C989.36,-118.66 923.72,-118.66 923.72,-118.66 923.72,-118.66 923.72,-676.31 923.72,-676.31 923.72,-676.31 881.52,-676.31 881.52,-676.31"/>
<polygon fill="#59687e" stroke="#59687e" stroke-width="1.3" points="881.52,-673.51 873.52,-676.31 881.52,-679.11 881.52,-673.51"/>
<text xml:space="preserve" text-anchor="middle" x="964.18" y="-293.2" font-family="Noto Sans CJK KR" font-size="14.00" fill="#46566e">cost/cooldown plan</text>
</g>
<!-- Combat&#45;&gt;RuntimeCommitter -->
<g id="edge14" class="edge">
<title>Combat&#45;&gt;RuntimeCommitter</title>
<path fill="none" stroke="#59687e" stroke-width="1.3" d="M1045.47,-204.76C1004.91,-204.76 963.72,-204.76 963.72,-204.76 963.72,-204.76 963.72,-682.3 963.72,-682.3 963.72,-682.3 881.66,-682.3 881.66,-682.3"/>
<polygon fill="#59687e" stroke="#59687e" stroke-width="1.3" points="881.66,-679.5 873.66,-682.3 881.66,-685.1 881.66,-679.5"/>
<text xml:space="preserve" text-anchor="middle" x="964.18" y="-409.2" font-family="Noto Sans CJK KR" font-size="14.00" fill="#46566e">DamageResult plan</text>
</g>
<!-- Combat&#45;&gt;DebugTrace -->
<g id="edge24" class="edge">
<title>Combat&#45;&gt;DebugTrace</title>
<path fill="none" stroke="#59687e" stroke-width="1.3" d="M1201.35,-197C1390.32,-197 1857.72,-197 1857.72,-197 1857.72,-197 1857.72,-488.13 1857.72,-488.13"/>
<polygon fill="#59687e" stroke="#59687e" stroke-width="1.3" points="1854.92,-488.13 1857.72,-496.13 1860.52,-488.13 1854.92,-488.13"/>
<text xml:space="preserve" text-anchor="middle" x="1470.11" y="-201.2" font-family="Noto Sans CJK KR" font-size="14.00" fill="#46566e">damage log</text>
</g>
<!-- Status&#45;&gt;RuntimeCommitter -->
<g id="edge15" class="edge">
<title>Status&#45;&gt;RuntimeCommitter</title>
<path fill="none" stroke="#59687e" stroke-width="1.3" d="M1045.37,-38.76C982.21,-38.76 903.72,-38.76 903.72,-38.76 903.72,-38.76 903.72,-670.31 903.72,-670.31 903.72,-670.31 881.54,-670.31 881.54,-670.31"/>
<polygon fill="#59687e" stroke="#59687e" stroke-width="1.3" points="881.54,-667.51 873.54,-670.31 881.54,-673.11 881.54,-667.51"/>
<text xml:space="preserve" text-anchor="middle" x="964.18" y="-235.2" font-family="Noto Sans CJK KR" font-size="14.00" fill="#46566e">status/tick plan</text>
</g>
<!-- Equipment -->
<g id="node18" class="node">
<title>Equipment</title>
<path fill="#f7f9fc" stroke="#bac7db" stroke-width="1.4" d="M1188.87,-469.28C1188.87,-469.28 1058.07,-469.28 1058.07,-469.28 1052.07,-469.28 1046.07,-463.28 1046.07,-457.28 1046.07,-457.28 1046.07,-434.72 1046.07,-434.72 1046.07,-428.72 1052.07,-422.72 1058.07,-422.72 1058.07,-422.72 1188.87,-422.72 1188.87,-422.72 1194.87,-422.72 1200.87,-428.72 1200.87,-434.72 1200.87,-434.72 1200.87,-457.28 1200.87,-457.28 1200.87,-463.28 1194.87,-469.28 1188.87,-469.28"/>
<text xml:space="preserve" text-anchor="middle" x="1123.47" y="-450.2" font-family="Noto Sans CJK KR" font-size="14.00" fill="#182033">Equipment</text>
<text xml:space="preserve" text-anchor="middle" x="1123.47" y="-433.4" font-family="Noto Sans CJK KR" font-size="14.00" fill="#182033">Modifier source</text>
</g>
</g>
</svg>
