<?xml version="1.0" encoding="UTF-8" standalone="no"?>
<!DOCTYPE svg PUBLIC "-//W3C//DTD SVG 1.1//EN"
 "http://www.w3.org/Graphics/SVG/1.1/DTD/svg11.dtd">
<!-- Generated by graphviz version 15.1.0 (20260618.0150)
 -->
<!-- Title: G Pages: 1 -->
<svg width="2984pt" height="1521pt"
 viewBox="12.00 12.00 2973.00 1509.00" xmlns="http://www.w3.org/2000/svg" xmlns:xlink="http://www.w3.org/1999/xlink">
<g id="graph0" class="graph" transform="scale(1.33333 1.33333) rotate(0) translate(26.64 1114.01)">
<title>G</title>
<polygon fill="#ffffff" stroke="none" points="-18,18 -18,-1105.37 2203,-1105.37 2203,18 -18,18"/>
<g id="clust1" class="cluster">
<title>cluster_contract</title>
<path fill="#ffffff" stroke="#dfe5ee" stroke-dasharray="5,2" d="M854,-868.7C854,-868.7 1510,-868.7 1510,-868.7 1516,-868.7 1522,-874.7 1522,-880.7 1522,-880.7 1522,-1067.37 1522,-1067.37 1522,-1073.37 1516,-1079.37 1510,-1079.37 1510,-1079.37 854,-1079.37 854,-1079.37 848,-1079.37 842,-1073.37 842,-1067.37 842,-1067.37 842,-880.7 842,-880.7 842,-874.7 848,-868.7 854,-868.7"/>
<text xml:space="preserve" text-anchor="middle" x="1182" y="-1058.27" font-family="Noto Sans KR" font-size="18.00" fill="#607086">공통 계약 · identity and context</text>
</g>
<g id="clust2" class="cluster">
<title>cluster_services</title>
<path fill="#ffffff" stroke="#dfe5ee" stroke-dasharray="5,2" d="M1534,-8C1534,-8 2165,-8 2165,-8 2171,-8 2177,-14 2177,-20 2177,-20 2177,-933.91 2177,-933.91 2177,-939.91 2171,-945.91 2165,-945.91 2165,-945.91 1534,-945.91 1534,-945.91 1528,-945.91 1522,-939.91 1522,-933.91 1522,-933.91 1522,-20 1522,-20 1522,-14 1528,-8 1534,-8"/>
<text xml:space="preserve" text-anchor="middle" x="1849.5" y="-924.81" font-family="Noto Sans KR" font-size="18.00" fill="#607086">런타임 서비스 · deterministic inputs, commit, dispatch</text>
</g>
<g id="clust3" class="cluster">
<title>cluster_consumers</title>
<path fill="#ffffff" stroke="#dfe5ee" stroke-dasharray="5,2" d="M101,-650.12C101,-650.12 1339,-650.12 1339,-650.12 1345,-650.12 1351,-656.12 1351,-662.12 1351,-662.12 1351,-715.33 1351,-715.33 1351,-721.33 1345,-727.33 1339,-727.33 1339,-727.33 101,-727.33 101,-727.33 95,-727.33 89,-721.33 89,-715.33 89,-715.33 89,-662.12 89,-662.12 89,-656.12 95,-650.12 101,-650.12"/>
<text xml:space="preserve" text-anchor="middle" x="720" y="-706.23" font-family="Noto Sans KR" font-size="18.00" fill="#607086">소비 시스템</text>
</g>
<g id="clust4" class="cluster">
<title>cluster_input_lanes</title>
<path fill="#ffffff" stroke="#d8dee9" stroke-dasharray="5,2" d="M327,-767.33C327,-767.33 1510,-767.33 1510,-767.33 1516,-767.33 1522,-773.33 1522,-779.33 1522,-779.33 1522,-816.7 1522,-816.7 1522,-822.7 1516,-828.7 1510,-828.7 1510,-828.7 327,-828.7 327,-828.7 321,-828.7 315,-822.7 315,-816.7 315,-816.7 315,-779.33 315,-779.33 315,-773.33 321,-767.33 327,-767.33"/>
<text xml:space="preserve" text-anchor="middle" x="918.5" y="-809.5" font-family="Noto Sans KR" font-size="16.00" fill="#607086">Deterministic input lanes</text>
</g>
<g id="clust5" class="cluster">
<title>cluster_commit_lanes</title>
<path fill="#ffffff" stroke="#cfe8de" stroke-dasharray="5,2" d="M457,-534.41C457,-534.41 1510,-534.41 1510,-534.41 1516,-534.41 1522,-540.41 1522,-546.41 1522,-546.41 1522,-598.12 1522,-598.12 1522,-604.12 1516,-610.12 1510,-610.12 1510,-610.12 457,-610.12 457,-610.12 451,-610.12 445,-604.12 445,-598.12 445,-598.12 445,-546.41 445,-546.41 445,-540.41 451,-534.41 457,-534.41"/>
<text xml:space="preserve" text-anchor="middle" x="983.5" y="-590.92" font-family="Noto Sans KR" font-size="16.00" fill="#4f7a68">Commit plan lanes</text>
</g>
<g id="clust6" class="cluster">
<title>cluster_observation_lanes</title>
<path fill="#ffffff" stroke="#d8dee9" stroke-dasharray="5,2" d="M752,-282.6C752,-282.6 1297,-282.6 1297,-282.6 1303,-282.6 1309,-288.6 1309,-294.6 1309,-294.6 1309,-338.45 1309,-338.45 1309,-344.45 1303,-350.45 1297,-350.45 1297,-350.45 752,-350.45 752,-350.45 746,-350.45 740,-344.45 740,-338.45 740,-338.45 740,-294.6 740,-294.6 740,-288.6 746,-282.6 752,-282.6"/>
<text xml:space="preserve" text-anchor="middle" x="1024.5" y="-331.25" font-family="Noto Sans KR" font-size="16.00" fill="#607086">Observation lanes</text>
</g>
<!-- EntityRegistry -->
<g id="node1" class="node">
<title>EntityRegistry</title>
<path fill="#eaf0ff" stroke="#8292f7" stroke-width="1.4" d="M1509.8,-1049.62C1509.8,-1049.62 1386.2,-1049.62 1386.2,-1049.62 1380.2,-1049.62 1374.2,-1043.62 1374.2,-1037.62 1374.2,-1037.62 1374.2,-1014.16 1374.2,-1014.16 1374.2,-1008.16 1380.2,-1002.16 1386.2,-1002.16 1386.2,-1002.16 1509.8,-1002.16 1509.8,-1002.16 1515.8,-1002.16 1521.8,-1008.16 1521.8,-1014.16 1521.8,-1014.16 1521.8,-1037.62 1521.8,-1037.62 1521.8,-1043.62 1515.8,-1049.62 1509.8,-1049.62"/>
<text xml:space="preserve" text-anchor="middle" x="1448" y="-1029.84" font-family="Noto Sans KR" font-size="14.00" fill="#182033">EntityRegistry</text>
<text xml:space="preserve" text-anchor="middle" x="1448" y="-1012.59" font-family="Noto Sans KR" font-size="14.00" fill="#182033">EntityId / EntityRef</text>
</g>
<!-- ContextFactory -->
<g id="node4" class="node">
<title>ContextFactory</title>
<path fill="#eefbf6" stroke="#61b99a" stroke-width="1.4" d="M1467.95,-916.16C1467.95,-916.16 1306.05,-916.16 1306.05,-916.16 1300.05,-916.16 1294.05,-910.16 1294.05,-904.16 1294.05,-904.16 1294.05,-880.7 1294.05,-880.7 1294.05,-874.7 1300.05,-868.7 1306.05,-868.7 1306.05,-868.7 1467.95,-868.7 1467.95,-868.7 1473.95,-868.7 1479.95,-874.7 1479.95,-880.7 1479.95,-880.7 1479.95,-904.16 1479.95,-904.16 1479.95,-910.16 1473.95,-916.16 1467.95,-916.16"/>
<text xml:space="preserve" text-anchor="middle" x="1387" y="-896.38" font-family="Noto Sans KR" font-size="14.00" fill="#182033">GameContextFactory</text>
<text xml:space="preserve" text-anchor="middle" x="1387" y="-879.13" font-family="Noto Sans KR" font-size="14.00" fill="#182033">actor · target · seed · time</text>
</g>
<!-- EntityRegistry&#45;&gt;ContextFactory -->
<g id="edge25" class="edge">
<title>EntityRegistry&#45;&gt;ContextFactory</title>
<path fill="none" stroke="#59687e" stroke-width="1.3" d="M1437.23,-1001.69C1427.45,-980.61 1412.92,-949.29 1402,-925.76"/>
<polygon fill="#59687e" stroke="#59687e" stroke-width="1.3" points="1404.6,-924.7 1398.69,-918.62 1399.52,-927.06 1404.6,-924.7"/>
<text xml:space="preserve" text-anchor="middle" x="1487.46" y="-957.86" font-family="Noto Sans KR" font-size="14.00" fill="#46566e">actor / target identity</text>
</g>
<!-- TagService -->
<g id="node2" class="node">
<title>TagService</title>
<path fill="#f3eefc" stroke="#ab8fe0" stroke-width="1.4" d="M1278.8,-1049.62C1278.8,-1049.62 1155.2,-1049.62 1155.2,-1049.62 1149.2,-1049.62 1143.2,-1043.62 1143.2,-1037.62 1143.2,-1037.62 1143.2,-1014.16 1143.2,-1014.16 1143.2,-1008.16 1149.2,-1002.16 1155.2,-1002.16 1155.2,-1002.16 1278.8,-1002.16 1278.8,-1002.16 1284.8,-1002.16 1290.8,-1008.16 1290.8,-1014.16 1290.8,-1014.16 1290.8,-1037.62 1290.8,-1037.62 1290.8,-1043.62 1284.8,-1049.62 1278.8,-1049.62"/>
<text xml:space="preserve" text-anchor="middle" x="1217" y="-1029.84" font-family="Noto Sans KR" font-size="14.00" fill="#182033">TagService</text>
<text xml:space="preserve" text-anchor="middle" x="1217" y="-1012.59" font-family="Noto Sans KR" font-size="14.00" fill="#182033">TagSet / Tag Query</text>
</g>
<!-- TagService&#45;&gt;EntityRegistry -->
<!-- TagService&#45;&gt;ContextFactory -->
<g id="edge26" class="edge">
<title>TagService&#45;&gt;ContextFactory</title>
<path fill="none" stroke="#59687e" stroke-width="1.3" d="M1247,-1001.69C1275.47,-979.67 1318.37,-946.5 1349.17,-922.68"/>
<polygon fill="#59687e" stroke="#59687e" stroke-width="1.3" points="1350.55,-925.15 1355.17,-918.04 1347.13,-920.72 1350.55,-925.15"/>
<text xml:space="preserve" text-anchor="middle" x="1344.22" y="-957.86" font-family="Noto Sans KR" font-size="14.00" fill="#46566e">context tags</text>
</g>
<!-- SourceTracker -->
<g id="node3" class="node">
<title>SourceTracker</title>
<path fill="#fff7e6" stroke="#e0ad4e" stroke-width="1.4" d="M1048.08,-1049.62C1048.08,-1049.62 853.92,-1049.62 853.92,-1049.62 847.92,-1049.62 841.92,-1043.62 841.92,-1037.62 841.92,-1037.62 841.92,-1014.16 841.92,-1014.16 841.92,-1008.16 847.92,-1002.16 853.92,-1002.16 853.92,-1002.16 1048.08,-1002.16 1048.08,-1002.16 1054.08,-1002.16 1060.08,-1008.16 1060.08,-1014.16 1060.08,-1014.16 1060.08,-1037.62 1060.08,-1037.62 1060.08,-1043.62 1054.08,-1049.62 1048.08,-1049.62"/>
<text xml:space="preserve" text-anchor="middle" x="951" y="-1029.84" font-family="Noto Sans KR" font-size="14.00" fill="#182033">SourceTracker</text>
<text xml:space="preserve" text-anchor="middle" x="951" y="-1012.59" font-family="Noto Sans KR" font-size="14.00" fill="#182033">SourceRef / definition / instance</text>
</g>
<!-- SourceTracker&#45;&gt;TagService -->
<!-- SourceTracker&#45;&gt;ContextFactory -->
<g id="edge27" class="edge">
<title>SourceTracker&#45;&gt;ContextFactory</title>
<path fill="none" stroke="#59687e" stroke-width="1.3" d="M1012.33,-1001.55C1066.68,-980.86 1137.5,-953.91 1137.5,-953.91 1137.5,-953.91 1215.12,-935.1 1283.77,-918.45"/>
<polygon fill="#59687e" stroke="#59687e" stroke-width="1.3" points="1284.36,-921.19 1291.47,-916.59 1283.04,-915.75 1284.36,-921.19"/>
<text xml:space="preserve" text-anchor="middle" x="1207.25" y="-957.86" font-family="Noto Sans KR" font-size="14.00" fill="#46566e">SourceRef provenance</text>
</g>
<!-- ContextLane -->
<g id="node26" class="node">
<title>ContextLane</title>
<path fill="#eefbf6" stroke="#61b99a" stroke-width="1.4" d="M894.08,-581.87C894.08,-581.87 735.92,-581.87 735.92,-581.87 729.92,-581.87 723.92,-575.87 723.92,-569.87 723.92,-569.87 723.92,-546.41 723.92,-546.41 723.92,-540.41 729.92,-534.41 735.92,-534.41 735.92,-534.41 894.08,-534.41 894.08,-534.41 900.08,-534.41 906.08,-540.41 906.08,-546.41 906.08,-546.41 906.08,-569.87 906.08,-569.87 906.08,-575.87 900.08,-581.87 894.08,-581.87"/>
<text xml:space="preserve" text-anchor="middle" x="815" y="-562.09" font-family="Noto Sans KR" font-size="14.00" fill="#182033">Context identity</text>
<text xml:space="preserve" text-anchor="middle" x="815" y="-544.84" font-family="Noto Sans KR" font-size="14.00" fill="#182033">actor · target · correlation</text>
</g>
<!-- ContextFactory&#45;&gt;ContextLane -->
<g id="edge42" class="edge">
<title>ContextFactory&#45;&gt;ContextLane</title>
<path fill="none" stroke="#59687e" stroke-width="1.3" d="M1293.81,-886.03C1031.36,-870.81 305,-828.7 305,-828.7 305,-828.7 79,-727.33 79,-727.33 79,-727.33 79,-650.12 79,-650.12 79,-650.12 662,-610.12 662,-610.12 662,-610.12 698.16,-598.07 735.32,-585.69"/>
<polygon fill="#59687e" stroke="#59687e" stroke-width="1.3" points="736.2,-588.35 742.9,-583.16 734.43,-583.04 736.2,-588.35"/>
</g>
<!-- DataRegistry -->
<g id="node5" class="node">
<title>DataRegistry</title>
<path fill="#f7f9fc" stroke="#bac7db" stroke-width="1.4" d="M1901.8,-916.16C1901.8,-916.16 1778.2,-916.16 1778.2,-916.16 1772.2,-916.16 1766.2,-910.16 1766.2,-904.16 1766.2,-904.16 1766.2,-880.7 1766.2,-880.7 1766.2,-874.7 1772.2,-868.7 1778.2,-868.7 1778.2,-868.7 1901.8,-868.7 1901.8,-868.7 1907.8,-868.7 1913.8,-874.7 1913.8,-880.7 1913.8,-880.7 1913.8,-904.16 1913.8,-904.16 1913.8,-910.16 1907.8,-916.16 1901.8,-916.16"/>
<text xml:space="preserve" text-anchor="middle" x="1840" y="-896.38" font-family="Noto Sans KR" font-size="14.00" fill="#182033">DataRegistry</text>
<text xml:space="preserve" text-anchor="middle" x="1840" y="-879.13" font-family="Noto Sans KR" font-size="14.00" fill="#182033">Definition lookup</text>
</g>
<!-- DataRegistry&#45;&gt;ContextFactory -->
<!-- StatDefinitionsLane -->
<g id="node19" class="node">
<title>StatDefinitionsLane</title>
<path fill="#ffffff" stroke="#bac7db" stroke-width="1.4" d="M583.36,-800.45C583.36,-800.45 486.64,-800.45 486.64,-800.45 481.12,-800.45 475.6,-794.93 475.6,-789.41 475.6,-789.41 475.6,-778.37 475.6,-778.37 475.6,-772.85 481.12,-767.33 486.64,-767.33 486.64,-767.33 583.36,-767.33 583.36,-767.33 588.88,-767.33 594.4,-772.85 594.4,-778.37 594.4,-778.37 594.4,-789.41 594.4,-789.41 594.4,-794.93 588.88,-800.45 583.36,-800.45"/>
<text xml:space="preserve" text-anchor="middle" x="535" y="-780.19" font-family="Noto Sans KR" font-size="11.00" fill="#182033">Stat definitions</text>
</g>
<!-- DataRegistry&#45;&gt;StatDefinitionsLane -->
<g id="edge28" class="edge">
<title>DataRegistry&#45;&gt;StatDefinitionsLane</title>
<path fill="none" stroke="#59687e" stroke-width="1.3" d="M1765.61,-873.63C1753.59,-870.76 1745,-868.7 1745,-868.7 1745,-868.7 616,-828.7 616,-828.7 616,-828.7 594.23,-816.93 573.26,-805.59"/>
<polygon fill="#59687e" stroke="#59687e" stroke-width="1.3" points="574.8,-803.23 566.43,-801.89 572.14,-808.16 574.8,-803.23"/>
</g>
<!-- EffectDefinitionsLane -->
<g id="node20" class="node">
<title>EffectDefinitionsLane</title>
<path fill="#ffffff" stroke="#bac7db" stroke-width="1.4" d="M905.36,-800.45C905.36,-800.45 808.64,-800.45 808.64,-800.45 803.12,-800.45 797.6,-794.93 797.6,-789.41 797.6,-789.41 797.6,-778.37 797.6,-778.37 797.6,-772.85 803.12,-767.33 808.64,-767.33 808.64,-767.33 905.36,-767.33 905.36,-767.33 910.88,-767.33 916.4,-772.85 916.4,-778.37 916.4,-778.37 916.4,-789.41 916.4,-789.41 916.4,-794.93 910.88,-800.45 905.36,-800.45"/>
<text xml:space="preserve" text-anchor="middle" x="857" y="-780.19" font-family="Noto Sans KR" font-size="11.00" fill="#182033">Effect definitions</text>
</g>
<!-- DataRegistry&#45;&gt;EffectDefinitionsLane -->
<g id="edge30" class="edge">
<title>DataRegistry&#45;&gt;EffectDefinitionsLane</title>
<path fill="none" stroke="#59687e" stroke-width="1.3" d="M1765.61,-873.63C1753.59,-870.76 1745,-868.7 1745,-868.7 1745,-868.7 979,-828.7 979,-828.7 979,-828.7 943.77,-816.05 911.17,-804.34"/>
<polygon fill="#59687e" stroke="#59687e" stroke-width="1.3" points="912.41,-801.81 903.93,-801.74 910.52,-807.08 912.41,-801.81"/>
</g>
<!-- SkillDefinitionsLane -->
<g id="node21" class="node">
<title>SkillDefinitionsLane</title>
<path fill="#ffffff" stroke="#bac7db" stroke-width="1.4" d="M1107.36,-800.45C1107.36,-800.45 1010.64,-800.45 1010.64,-800.45 1005.12,-800.45 999.6,-794.93 999.6,-789.41 999.6,-789.41 999.6,-778.37 999.6,-778.37 999.6,-772.85 1005.12,-767.33 1010.64,-767.33 1010.64,-767.33 1107.36,-767.33 1107.36,-767.33 1112.88,-767.33 1118.4,-772.85 1118.4,-778.37 1118.4,-778.37 1118.4,-789.41 1118.4,-789.41 1118.4,-794.93 1112.88,-800.45 1107.36,-800.45"/>
<text xml:space="preserve" text-anchor="middle" x="1059" y="-780.19" font-family="Noto Sans KR" font-size="11.00" fill="#182033">Skill definitions</text>
</g>
<!-- DataRegistry&#45;&gt;SkillDefinitionsLane -->
<g id="edge32" class="edge">
<title>DataRegistry&#45;&gt;SkillDefinitionsLane</title>
<path fill="none" stroke="#59687e" stroke-width="1.3" d="M1765.61,-873.63C1753.59,-870.76 1745,-868.7 1745,-868.7 1745,-868.7 1181,-828.7 1181,-828.7 1181,-828.7 1145.77,-816.05 1113.17,-804.34"/>
<polygon fill="#59687e" stroke="#59687e" stroke-width="1.3" points="1114.41,-801.81 1105.93,-801.74 1112.52,-807.08 1114.41,-801.81"/>
</g>
<!-- TimeService -->
<g id="node6" class="node">
<title>TimeService</title>
<path fill="#e9fbff" stroke="#54b7cf" stroke-width="1.4" d="M2164.95,-916.16C2164.95,-916.16 2009.05,-916.16 2009.05,-916.16 2003.05,-916.16 1997.05,-910.16 1997.05,-904.16 1997.05,-904.16 1997.05,-880.7 1997.05,-880.7 1997.05,-874.7 2003.05,-868.7 2009.05,-868.7 2009.05,-868.7 2164.95,-868.7 2164.95,-868.7 2170.95,-868.7 2176.95,-874.7 2176.95,-880.7 2176.95,-880.7 2176.95,-904.16 2176.95,-904.16 2176.95,-910.16 2170.95,-916.16 2164.95,-916.16"/>
<text xml:space="preserve" text-anchor="middle" x="2087" y="-896.38" font-family="Noto Sans KR" font-size="14.00" fill="#182033">TimeService</text>
<text xml:space="preserve" text-anchor="middle" x="2087" y="-879.13" font-family="Noto Sans KR" font-size="14.00" fill="#182033">tick / duration / cooldown</text>
</g>
<!-- TimeService&#45;&gt;DataRegistry -->
<!-- SkillCooldownLane -->
<g id="node22" class="node">
<title>SkillCooldownLane</title>
<path fill="#ffffff" stroke="#bac7db" stroke-width="1.4" d="M1309.36,-800.45C1309.36,-800.45 1212.64,-800.45 1212.64,-800.45 1207.12,-800.45 1201.6,-794.93 1201.6,-789.41 1201.6,-789.41 1201.6,-778.37 1201.6,-778.37 1201.6,-772.85 1207.12,-767.33 1212.64,-767.33 1212.64,-767.33 1309.36,-767.33 1309.36,-767.33 1314.88,-767.33 1320.4,-772.85 1320.4,-778.37 1320.4,-778.37 1320.4,-789.41 1320.4,-789.41 1320.4,-794.93 1314.88,-800.45 1309.36,-800.45"/>
<text xml:space="preserve" text-anchor="middle" x="1261" y="-780.19" font-family="Noto Sans KR" font-size="11.00" fill="#182033">cooldown clock</text>
</g>
<!-- TimeService&#45;&gt;SkillCooldownLane -->
<g id="edge34" class="edge">
<title>TimeService&#45;&gt;SkillCooldownLane</title>
<path fill="none" stroke="#59687e" stroke-width="1.3" d="M1996.39,-877.88C1963.83,-873.01 1935,-868.7 1935,-868.7 1935,-868.7 1383,-828.7 1383,-828.7 1383,-828.7 1347.77,-816.05 1315.17,-804.34"/>
<polygon fill="#59687e" stroke="#59687e" stroke-width="1.3" points="1316.41,-801.81 1307.93,-801.74 1314.52,-807.08 1316.41,-801.81"/>
</g>
<!-- StatusTimeLane -->
<g id="node23" class="node">
<title>StatusTimeLane</title>
<path fill="#ffffff" stroke="#bac7db" stroke-width="1.4" d="M1511.36,-800.45C1511.36,-800.45 1414.64,-800.45 1414.64,-800.45 1409.12,-800.45 1403.6,-794.93 1403.6,-789.41 1403.6,-789.41 1403.6,-778.37 1403.6,-778.37 1403.6,-772.85 1409.12,-767.33 1414.64,-767.33 1414.64,-767.33 1511.36,-767.33 1511.36,-767.33 1516.88,-767.33 1522.4,-772.85 1522.4,-778.37 1522.4,-778.37 1522.4,-789.41 1522.4,-789.41 1522.4,-794.93 1516.88,-800.45 1511.36,-800.45"/>
<text xml:space="preserve" text-anchor="middle" x="1463" y="-780.19" font-family="Noto Sans KR" font-size="11.00" fill="#182033">duration / tick clock</text>
</g>
<!-- TimeService&#45;&gt;StatusTimeLane -->
<g id="edge36" class="edge">
<title>TimeService&#45;&gt;StatusTimeLane</title>
<path fill="none" stroke="#59687e" stroke-width="1.3" d="M1996.6,-876C1870.9,-854.53 1646.02,-816.14 1532.55,-796.76"/>
<polygon fill="#59687e" stroke="#59687e" stroke-width="1.3" points="1533.21,-794.04 1524.85,-795.45 1532.27,-799.56 1533.21,-794.04"/>
</g>
<!-- RandomService -->
<g id="node7" class="node">
<title>RandomService</title>
<path fill="#f0f3f9" stroke="#99a8bd" stroke-width="1.4" d="M1712.2,-916.16C1712.2,-916.16 1533.8,-916.16 1533.8,-916.16 1527.8,-916.16 1521.8,-910.16 1521.8,-904.16 1521.8,-904.16 1521.8,-880.7 1521.8,-880.7 1521.8,-874.7 1527.8,-868.7 1533.8,-868.7 1533.8,-868.7 1712.2,-868.7 1712.2,-868.7 1718.2,-868.7 1724.2,-874.7 1724.2,-880.7 1724.2,-880.7 1724.2,-904.16 1724.2,-904.16 1724.2,-910.16 1718.2,-916.16 1712.2,-916.16"/>
<text xml:space="preserve" text-anchor="middle" x="1623" y="-896.38" font-family="Noto Sans KR" font-size="14.00" fill="#182033">RandomStream</text>
<text xml:space="preserve" text-anchor="middle" x="1623" y="-879.13" font-family="Noto Sans KR" font-size="14.00" fill="#182033">seeded deterministic random</text>
</g>
<!-- RandomService&#45;&gt;TimeService -->
<!-- SkillSeedLane -->
<g id="node24" class="node">
<title>SkillSeedLane</title>
<path fill="#ffffff" stroke="#bac7db" stroke-width="1.4" d="M744.36,-800.45C744.36,-800.45 647.64,-800.45 647.64,-800.45 642.12,-800.45 636.6,-794.93 636.6,-789.41 636.6,-789.41 636.6,-778.37 636.6,-778.37 636.6,-772.85 642.12,-767.33 647.64,-767.33 647.64,-767.33 744.36,-767.33 744.36,-767.33 749.88,-767.33 755.4,-772.85 755.4,-778.37 755.4,-778.37 755.4,-789.41 755.4,-789.41 755.4,-794.93 749.88,-800.45 744.36,-800.45"/>
<text xml:space="preserve" text-anchor="middle" x="696" y="-780.19" font-family="Noto Sans KR" font-size="11.00" fill="#182033">request seed</text>
</g>
<!-- RandomService&#45;&gt;SkillSeedLane -->
<g id="edge38" class="edge">
<title>RandomService&#45;&gt;SkillSeedLane</title>
<path fill="none" stroke="#59687e" stroke-width="1.3" d="M1521.49,-869.46C1519.26,-868.97 1518,-868.7 1518,-868.7 1518,-868.7 777,-828.7 777,-828.7 777,-828.7 755.23,-816.93 734.26,-805.59"/>
<polygon fill="#59687e" stroke="#59687e" stroke-width="1.3" points="735.8,-803.23 727.43,-801.89 733.14,-808.16 735.8,-803.23"/>
</g>
<!-- CombatRollLane -->
<g id="node25" class="node">
<title>CombatRollLane</title>
<path fill="#ffffff" stroke="#bac7db" stroke-width="1.4" d="M422.36,-800.45C422.36,-800.45 325.64,-800.45 325.64,-800.45 320.12,-800.45 314.6,-794.93 314.6,-789.41 314.6,-789.41 314.6,-778.37 314.6,-778.37 314.6,-772.85 320.12,-767.33 325.64,-767.33 325.64,-767.33 422.36,-767.33 422.36,-767.33 427.88,-767.33 433.4,-772.85 433.4,-778.37 433.4,-778.37 433.4,-789.41 433.4,-789.41 433.4,-794.93 427.88,-800.45 422.36,-800.45"/>
<text xml:space="preserve" text-anchor="middle" x="374" y="-780.19" font-family="Noto Sans KR" font-size="11.00" fill="#182033">hit / critical roll</text>
</g>
<!-- RandomService&#45;&gt;CombatRollLane -->
<g id="edge40" class="edge">
<title>RandomService&#45;&gt;CombatRollLane</title>
<path fill="none" stroke="#59687e" stroke-width="1.3" d="M1521.49,-869.46C1519.26,-868.97 1518,-868.7 1518,-868.7 1518,-868.7 601,-837.7 601,-837.7 601,-837.7 455,-828.7 455,-828.7 455,-828.7 433.23,-816.93 412.26,-805.59"/>
<polygon fill="#59687e" stroke="#59687e" stroke-width="1.3" points="413.8,-803.23 405.43,-801.89 411.14,-808.16 413.8,-803.23"/>
</g>
<!-- RuntimeCommitter -->
<g id="node8" class="node">
<title>RuntimeCommitter</title>
<path fill="#eefbf6" stroke="#61b99a" stroke-width="1.4" d="M1663.83,-471.41C1663.83,-471.41 1534.17,-471.41 1534.17,-471.41 1528.17,-471.41 1522.17,-465.41 1522.17,-459.41 1522.17,-459.41 1522.17,-418.7 1522.17,-418.7 1522.17,-412.7 1528.17,-406.7 1534.17,-406.7 1534.17,-406.7 1663.83,-406.7 1663.83,-406.7 1669.83,-406.7 1675.83,-412.7 1675.83,-418.7 1675.83,-418.7 1675.83,-459.41 1675.83,-459.41 1675.83,-465.41 1669.83,-471.41 1663.83,-471.41"/>
<text xml:space="preserve" text-anchor="middle" x="1599" y="-451.63" font-family="Noto Sans KR" font-size="14.00" fill="#182033">RuntimeCommitter</text>
<text xml:space="preserve" text-anchor="middle" x="1599" y="-434.38" font-family="Noto Sans KR" font-size="14.00" fill="#182033">versions · invariants</text>
<text xml:space="preserve" text-anchor="middle" x="1599" y="-417.13" font-family="Noto Sans KR" font-size="14.00" fill="#182033">state + outbox atomic</text>
</g>
<!-- DurableOutbox -->
<g id="node9" class="node">
<title>DurableOutbox</title>
<path fill="#e9fbff" stroke="#54b7cf" stroke-width="1.4" d="M1686.7,-326.13C1686.7,-326.13 1535.3,-326.13 1535.3,-326.13 1529.3,-326.13 1523.3,-320.13 1523.3,-314.13 1523.3,-314.13 1523.3,-290.67 1523.3,-290.67 1523.3,-284.67 1529.3,-278.67 1535.3,-278.67 1535.3,-278.67 1686.7,-278.67 1686.7,-278.67 1692.7,-278.67 1698.7,-284.67 1698.7,-290.67 1698.7,-290.67 1698.7,-314.13 1698.7,-314.13 1698.7,-320.13 1692.7,-326.13 1686.7,-326.13"/>
<text xml:space="preserve" text-anchor="middle" x="1611" y="-306.35" font-family="Noto Sans KR" font-size="14.00" fill="#182033">Durable Outbox</text>
<text xml:space="preserve" text-anchor="middle" x="1611" y="-289.1" font-family="Noto Sans KR" font-size="14.00" fill="#182033">committed event records</text>
</g>
<!-- RuntimeCommitter&#45;&gt;DurableOutbox -->
<g id="edge52" class="edge">
<title>RuntimeCommitter&#45;&gt;DurableOutbox</title>
<path fill="none" stroke="#59687e" stroke-width="1.3" d="M1601.84,-406.14C1603.71,-385.16 1606.16,-357.75 1608.05,-336.53"/>
<polygon fill="#59687e" stroke="#59687e" stroke-width="1.3" points="1610.83,-336.83 1608.75,-328.62 1605.25,-336.34 1610.83,-336.83"/>
<text xml:space="preserve" text-anchor="middle" x="1659.32" y="-362.4" font-family="Noto Sans KR" font-size="14.00" fill="#46566e">same transaction</text>
</g>
<!-- EventBus -->
<g id="node10" class="node">
<title>EventBus</title>
<path fill="#fff0f3" stroke="#e07b91" stroke-width="1.4" d="M1675.33,-199.42C1675.33,-199.42 1548.67,-199.42 1548.67,-199.42 1542.67,-199.42 1536.67,-193.42 1536.67,-187.42 1536.67,-187.42 1536.67,-163.96 1536.67,-163.96 1536.67,-157.96 1542.67,-151.96 1548.67,-151.96 1548.67,-151.96 1675.33,-151.96 1675.33,-151.96 1681.33,-151.96 1687.33,-157.96 1687.33,-163.96 1687.33,-163.96 1687.33,-187.42 1687.33,-187.42 1687.33,-193.42 1681.33,-199.42 1675.33,-199.42"/>
<text xml:space="preserve" text-anchor="middle" x="1612" y="-179.64" font-family="Noto Sans KR" font-size="14.00" fill="#182033">EventBus</text>
<text xml:space="preserve" text-anchor="middle" x="1612" y="-162.39" font-family="Noto Sans KR" font-size="14.00" fill="#182033">committed facts only</text>
</g>
<!-- DurableOutbox&#45;&gt;EventBus -->
<g id="edge53" class="edge">
<title>DurableOutbox&#45;&gt;EventBus</title>
<path fill="none" stroke="#59687e" stroke-width="1.3" d="M1611.19,-278.24C1611.34,-258.9 1611.56,-231.1 1611.74,-209.48"/>
<polygon fill="#59687e" stroke="#59687e" stroke-width="1.3" points="1614.54,-209.72 1611.8,-201.7 1608.94,-209.68 1614.54,-209.72"/>
<text xml:space="preserve" text-anchor="middle" x="1689.93" y="-234.37" font-family="Noto Sans KR" font-size="14.00" fill="#46566e">dispatch committed facts</text>
</g>
<!-- EffectObservation -->
<g id="node32" class="node">
<title>EffectObservation</title>
<path fill="#f7f9fc" stroke="#99a8bd" stroke-width="1.4" d="M1296.8,-322.2C1296.8,-322.2 1173.2,-322.2 1173.2,-322.2 1167.2,-322.2 1161.2,-316.2 1161.2,-310.2 1161.2,-310.2 1161.2,-294.6 1161.2,-294.6 1161.2,-288.6 1167.2,-282.6 1173.2,-282.6 1173.2,-282.6 1296.8,-282.6 1296.8,-282.6 1302.8,-282.6 1308.8,-288.6 1308.8,-294.6 1308.8,-294.6 1308.8,-310.2 1308.8,-310.2 1308.8,-316.2 1302.8,-322.2 1296.8,-322.2"/>
<text xml:space="preserve" text-anchor="middle" x="1235" y="-297.73" font-family="Noto Sans KR" font-size="14.00" fill="#182033">Effect execution log</text>
</g>
<!-- DurableOutbox&#45;&gt;EffectObservation -->
<!-- ReactionQueue -->
<g id="node11" class="node">
<title>ReactionQueue</title>
<path fill="#f3eefc" stroke="#ab8fe0" stroke-width="1.4" d="M1921.8,-72.71C1921.8,-72.71 1798.2,-72.71 1798.2,-72.71 1792.2,-72.71 1786.2,-66.71 1786.2,-60.71 1786.2,-60.71 1786.2,-20 1786.2,-20 1786.2,-14 1792.2,-8 1798.2,-8 1798.2,-8 1921.8,-8 1921.8,-8 1927.8,-8 1933.8,-14 1933.8,-20 1933.8,-20 1933.8,-60.71 1933.8,-60.71 1933.8,-66.71 1927.8,-72.71 1921.8,-72.71"/>
<text xml:space="preserve" text-anchor="middle" x="1860" y="-52.93" font-family="Noto Sans KR" font-size="14.00" fill="#182033">ReactionQueue</text>
<text xml:space="preserve" text-anchor="middle" x="1860" y="-35.68" font-family="Noto Sans KR" font-size="14.00" fill="#182033">priority · stable key</text>
<text xml:space="preserve" text-anchor="middle" x="1860" y="-18.43" font-family="Noto Sans KR" font-size="14.00" fill="#182033">depth / budget</text>
</g>
<!-- EventBus&#45;&gt;ReactionQueue -->
<g id="edge54" class="edge">
<title>EventBus&#45;&gt;ReactionQueue</title>
<path fill="none" stroke="#59687e" stroke-width="1.3" d="M1687.79,-152.91C1739.63,-138.02 1799,-120.96 1799,-120.96 1799,-120.96 1814.25,-101.06 1829.5,-81.15"/>
<polygon fill="#59687e" stroke="#59687e" stroke-width="1.3" points="1831.7,-82.89 1834.34,-74.84 1827.26,-79.48 1831.7,-82.89"/>
<text xml:space="preserve" text-anchor="middle" x="1888.3" y="-107.66" font-family="Noto Sans KR" font-size="14.00" fill="#46566e">state&#45;changing reactions</text>
</g>
<!-- DebugTrace -->
<g id="node12" class="node">
<title>DebugTrace</title>
<path fill="#f0f3f9" stroke="#99a8bd" stroke-width="1.4" d="M1690.33,-64.08C1690.33,-64.08 1533.67,-64.08 1533.67,-64.08 1527.67,-64.08 1521.67,-58.08 1521.67,-52.08 1521.67,-52.08 1521.67,-28.62 1521.67,-28.62 1521.67,-22.62 1527.67,-16.62 1533.67,-16.62 1533.67,-16.62 1690.33,-16.62 1690.33,-16.62 1696.33,-16.62 1702.33,-22.62 1702.33,-28.62 1702.33,-28.62 1702.33,-52.08 1702.33,-52.08 1702.33,-58.08 1696.33,-64.08 1690.33,-64.08"/>
<text xml:space="preserve" text-anchor="middle" x="1612" y="-44.3" font-family="Noto Sans KR" font-size="14.00" fill="#182033">DebugTrace</text>
<text xml:space="preserve" text-anchor="middle" x="1612" y="-27.05" font-family="Noto Sans KR" font-size="14.00" fill="#182033">correlationId / breakdown</text>
</g>
<!-- EventBus&#45;&gt;DebugTrace -->
<g id="edge63" class="edge">
<title>EventBus&#45;&gt;DebugTrace</title>
<path fill="none" stroke="#59687e" stroke-width="1.3" d="M1612,-151.46C1612,-130.18 1612,-98.44 1612,-74.49"/>
<polygon fill="#59687e" stroke="#59687e" stroke-width="1.3" points="1614.8,-74.73 1612,-66.73 1609.2,-74.73 1614.8,-74.73"/>
<text xml:space="preserve" text-anchor="middle" x="1700.5" y="-107.66" font-family="Noto Sans KR" font-size="14.00" fill="#46566e">committed facts observation</text>
</g>
<!-- Effect -->
<g id="node14" class="node">
<title>Effect</title>
<path fill="#fff0f3" stroke="#e07b91" stroke-width="1.4" d="M876.8,-697.58C876.8,-697.58 753.2,-697.58 753.2,-697.58 747.2,-697.58 741.2,-691.58 741.2,-685.58 741.2,-685.58 741.2,-662.12 741.2,-662.12 741.2,-656.12 747.2,-650.12 753.2,-650.12 753.2,-650.12 876.8,-650.12 876.8,-650.12 882.8,-650.12 888.8,-656.12 888.8,-662.12 888.8,-662.12 888.8,-685.58 888.8,-685.58 888.8,-691.58 882.8,-697.58 876.8,-697.58"/>
<text xml:space="preserve" text-anchor="middle" x="815" y="-677.8" font-family="Noto Sans KR" font-size="14.00" fill="#182033">Effect System</text>
<text xml:space="preserve" text-anchor="middle" x="815" y="-660.55" font-family="Noto Sans KR" font-size="14.00" fill="#182033">결과 실행</text>
</g>
<!-- ReactionQueue&#45;&gt;Effect -->
<g id="edge55" class="edge">
<title>ReactionQueue:w&#45;&gt;Effect:w</title>
<path fill="none" stroke="#8d6cc7" stroke-width="1.3" stroke-dasharray="5,2" d="M1785.2,-40.35C1785.2,-40.35 1723,-72.71 1723,-72.71 1723,-72.71 1562,-103.71 1562,-103.71 1562,-103.71 1485,-151.96 1485,-151.96 1485,-151.96 1319,-350.45 1319,-350.45 1319,-350.45 425,-534.41 425,-534.41 425,-534.41 425,-610.12 425,-610.12 425,-610.12 679,-650.12 679,-650.12 679,-650.12 714.15,-663.75 731.17,-670.35"/>
<polygon fill="#8d6cc7" stroke="#8d6cc7" stroke-width="1.3" points="729.89,-672.86 738.37,-673.14 731.92,-667.64 729.89,-672.86"/>
<text xml:space="preserve" text-anchor="middle" x="1343.72" y="-362.4" font-family="Noto Sans KR" font-size="14.00" fill="#7251aa">new Effect command</text>
</g>
<!-- Status -->
<g id="node16" class="node">
<title>Status</title>
<path fill="#f3eefc" stroke="#ab8fe0" stroke-width="1.4" d="M1338.8,-697.58C1338.8,-697.58 1215.2,-697.58 1215.2,-697.58 1209.2,-697.58 1203.2,-691.58 1203.2,-685.58 1203.2,-685.58 1203.2,-662.12 1203.2,-662.12 1203.2,-656.12 1209.2,-650.12 1215.2,-650.12 1215.2,-650.12 1338.8,-650.12 1338.8,-650.12 1344.8,-650.12 1350.8,-656.12 1350.8,-662.12 1350.8,-662.12 1350.8,-685.58 1350.8,-685.58 1350.8,-691.58 1344.8,-697.58 1338.8,-697.58"/>
<text xml:space="preserve" text-anchor="middle" x="1277" y="-677.8" font-family="Noto Sans KR" font-size="14.00" fill="#182033">Status</text>
<text xml:space="preserve" text-anchor="middle" x="1277" y="-660.55" font-family="Noto Sans KR" font-size="14.00" fill="#182033">지속 상태</text>
</g>
<!-- ReactionQueue&#45;&gt;Status -->
<g id="edge56" class="edge">
<title>ReactionQueue:e&#45;&gt;Status:e</title>
<path fill="none" stroke="#8d6cc7" stroke-width="1.3" stroke-dasharray="5,2" d="M1934.8,-40.35C1934.8,-40.35 1933.8,-72.71 1933.8,-72.71 1933.8,-72.71 1602,-103.71 1602,-103.71 1602,-103.71 1516,-151.96 1516,-151.96 1516,-151.96 1424.75,-358.45 1424.75,-358.45 1424.75,-358.45 1424.75,-375.7 1424.75,-375.7 1424.75,-375.7 1497,-502.41 1497,-502.41 1497,-502.41 1497,-503.41 1497,-503.41 1497,-503.41 435,-534.41 435,-534.41 435,-534.41 435,-610.12 435,-610.12 435,-610.12 1350.8,-650.12 1350.8,-650.12 1350.8,-650.12 1351.11,-657.42 1351.38,-663.92"/>
<polygon fill="#8d6cc7" stroke="#8d6cc7" stroke-width="1.3" points="1348.58,-664.01 1351.72,-671.88 1354.18,-663.77 1348.58,-664.01"/>
<text xml:space="preserve" text-anchor="middle" x="1509.88" y="-362.4" font-family="Noto Sans KR" font-size="14.00" fill="#7251aa">new ApplyStatus command</text>
</g>
<!-- DebugTrace&#45;&gt;ReactionQueue -->
<!-- Stat -->
<g id="node13" class="node">
<title>Stat</title>
<path fill="#eaf0ff" stroke="#8292f7" stroke-width="1.4" d="M645.8,-697.58C645.8,-697.58 522.2,-697.58 522.2,-697.58 516.2,-697.58 510.2,-691.58 510.2,-685.58 510.2,-685.58 510.2,-662.12 510.2,-662.12 510.2,-656.12 516.2,-650.12 522.2,-650.12 522.2,-650.12 645.8,-650.12 645.8,-650.12 651.8,-650.12 657.8,-656.12 657.8,-662.12 657.8,-662.12 657.8,-685.58 657.8,-685.58 657.8,-691.58 651.8,-697.58 645.8,-697.58"/>
<text xml:space="preserve" text-anchor="middle" x="584" y="-677.8" font-family="Noto Sans KR" font-size="14.00" fill="#182033">Stat System</text>
<text xml:space="preserve" text-anchor="middle" x="584" y="-660.55" font-family="Noto Sans KR" font-size="14.00" fill="#182033">값 계산</text>
</g>
<!-- StatObservation -->
<g id="node31" class="node">
<title>StatObservation</title>
<path fill="#f7f9fc" stroke="#99a8bd" stroke-width="1.4" d="M1065.8,-322.2C1065.8,-322.2 942.2,-322.2 942.2,-322.2 936.2,-322.2 930.2,-316.2 930.2,-310.2 930.2,-310.2 930.2,-294.6 930.2,-294.6 930.2,-288.6 936.2,-282.6 942.2,-282.6 942.2,-282.6 1065.8,-282.6 1065.8,-282.6 1071.8,-282.6 1077.8,-288.6 1077.8,-294.6 1077.8,-294.6 1077.8,-310.2 1077.8,-310.2 1077.8,-316.2 1071.8,-322.2 1065.8,-322.2"/>
<text xml:space="preserve" text-anchor="middle" x="1004" y="-297.73" font-family="Noto Sans KR" font-size="14.00" fill="#182033">Stat breakdown</text>
</g>
<!-- Stat&#45;&gt;StatObservation -->
<g id="edge57" class="edge">
<title>Stat&#45;&gt;StatObservation</title>
<path fill="none" stroke="#59687e" stroke-width="1.3" d="M509.61,-655.05C497.59,-652.18 489,-650.12 489,-650.12 489,-650.12 91,-610.12 91,-610.12 91,-610.12 0,-375.7 0,-375.7 0,-375.7 0,-358.45 0,-358.45 0,-358.45 909,-350.45 909,-350.45 909,-350.45 932.51,-338.8 956.14,-327.1"/>
<polygon fill="#59687e" stroke="#59687e" stroke-width="1.3" points="957.12,-329.74 963.05,-323.68 954.64,-324.72 957.12,-329.74"/>
</g>
<!-- Effect&#45;&gt;Stat -->
<!-- EffectPlan -->
<g id="node27" class="node">
<title>EffectPlan</title>
<path fill="#eefbf6" stroke="#61b99a" stroke-width="1.4" d="M628.83,-581.87C628.83,-581.87 457.17,-581.87 457.17,-581.87 451.17,-581.87 445.17,-575.87 445.17,-569.87 445.17,-569.87 445.17,-546.41 445.17,-546.41 445.17,-540.41 451.17,-534.41 457.17,-534.41 457.17,-534.41 628.83,-534.41 628.83,-534.41 634.83,-534.41 640.83,-540.41 640.83,-546.41 640.83,-546.41 640.83,-569.87 640.83,-569.87 640.83,-575.87 634.83,-581.87 628.83,-581.87"/>
<text xml:space="preserve" text-anchor="middle" x="543" y="-562.09" font-family="Noto Sans KR" font-size="14.00" fill="#182033">Effect commit plan</text>
<text xml:space="preserve" text-anchor="middle" x="543" y="-544.84" font-family="Noto Sans KR" font-size="14.00" fill="#182033">mutations · planned outbox</text>
</g>
<!-- Effect&#45;&gt;EffectPlan -->
<g id="edge43" class="edge">
<title>Effect&#45;&gt;EffectPlan</title>
<path fill="none" stroke="#59687e" stroke-width="1.3" d="M758.97,-649.43C715.09,-631.08 653.97,-605.53 607.95,-586.29"/>
<polygon fill="#59687e" stroke="#59687e" stroke-width="1.3" points="609.23,-583.79 600.77,-583.29 607.07,-588.96 609.23,-583.79"/>
</g>
<!-- Effect&#45;&gt;EffectObservation -->
<g id="edge58" class="edge">
<title>Effect&#45;&gt;EffectObservation</title>
<path fill="none" stroke="#59687e" stroke-width="1.3" d="M740.63,-660.42C708.88,-655.11 679,-650.12 679,-650.12 679,-650.12 435,-610.12 435,-610.12 435,-610.12 435,-534.41 435,-534.41 435,-534.41 1099,-350.45 1099,-350.45 1099,-350.45 1134.76,-338.08 1169.6,-326.02"/>
<polygon fill="#59687e" stroke="#59687e" stroke-width="1.3" points="1170.39,-328.71 1177.04,-323.45 1168.56,-323.42 1170.39,-328.71"/>
</g>
<!-- Skill -->
<g id="node15" class="node">
<title>Skill</title>
<path fill="#fff7e6" stroke="#e0ad4e" stroke-width="1.4" d="M1107.8,-697.58C1107.8,-697.58 984.2,-697.58 984.2,-697.58 978.2,-697.58 972.2,-691.58 972.2,-685.58 972.2,-685.58 972.2,-662.12 972.2,-662.12 972.2,-656.12 978.2,-650.12 984.2,-650.12 984.2,-650.12 1107.8,-650.12 1107.8,-650.12 1113.8,-650.12 1119.8,-656.12 1119.8,-662.12 1119.8,-662.12 1119.8,-685.58 1119.8,-685.58 1119.8,-691.58 1113.8,-697.58 1107.8,-697.58"/>
<text xml:space="preserve" text-anchor="middle" x="1046" y="-677.8" font-family="Noto Sans KR" font-size="14.00" fill="#182033">Skill / Action</text>
<text xml:space="preserve" text-anchor="middle" x="1046" y="-660.55" font-family="Noto Sans KR" font-size="14.00" fill="#182033">행동 실행</text>
</g>
<!-- Skill&#45;&gt;Effect -->
<!-- SkillPlan -->
<g id="node28" class="node">
<title>SkillPlan</title>
<path fill="#eefbf6" stroke="#61b99a" stroke-width="1.4" d="M1278.8,-581.87C1278.8,-581.87 1155.2,-581.87 1155.2,-581.87 1149.2,-581.87 1143.2,-575.87 1143.2,-569.87 1143.2,-569.87 1143.2,-546.41 1143.2,-546.41 1143.2,-540.41 1149.2,-534.41 1155.2,-534.41 1155.2,-534.41 1278.8,-534.41 1278.8,-534.41 1284.8,-534.41 1290.8,-540.41 1290.8,-546.41 1290.8,-546.41 1290.8,-569.87 1290.8,-569.87 1290.8,-575.87 1284.8,-581.87 1278.8,-581.87"/>
<text xml:space="preserve" text-anchor="middle" x="1217" y="-562.09" font-family="Noto Sans KR" font-size="14.00" fill="#182033">Skill commit plan</text>
<text xml:space="preserve" text-anchor="middle" x="1217" y="-544.84" font-family="Noto Sans KR" font-size="14.00" fill="#182033">cost · cooldown</text>
</g>
<!-- Skill&#45;&gt;SkillPlan -->
<g id="edge44" class="edge">
<title>Skill&#45;&gt;SkillPlan</title>
<path fill="none" stroke="#59687e" stroke-width="1.3" d="M1081.02,-649.56C1107.87,-631.71 1145.09,-606.96 1173.79,-587.87"/>
<polygon fill="#59687e" stroke="#59687e" stroke-width="1.3" points="1175.28,-590.25 1180.39,-583.48 1172.18,-585.58 1175.28,-590.25"/>
</g>
<!-- Status&#45;&gt;Skill -->
<!-- StatusPlan -->
<g id="node29" class="node">
<title>StatusPlan</title>
<path fill="#eefbf6" stroke="#61b99a" stroke-width="1.4" d="M1509.8,-581.87C1509.8,-581.87 1386.2,-581.87 1386.2,-581.87 1380.2,-581.87 1374.2,-575.87 1374.2,-569.87 1374.2,-569.87 1374.2,-546.41 1374.2,-546.41 1374.2,-540.41 1380.2,-534.41 1386.2,-534.41 1386.2,-534.41 1509.8,-534.41 1509.8,-534.41 1515.8,-534.41 1521.8,-540.41 1521.8,-546.41 1521.8,-546.41 1521.8,-569.87 1521.8,-569.87 1521.8,-575.87 1515.8,-581.87 1509.8,-581.87"/>
<text xml:space="preserve" text-anchor="middle" x="1448" y="-562.09" font-family="Noto Sans KR" font-size="14.00" fill="#182033">Status commit plan</text>
<text xml:space="preserve" text-anchor="middle" x="1448" y="-544.84" font-family="Noto Sans KR" font-size="14.00" fill="#182033">duration · tick</text>
</g>
<!-- Status&#45;&gt;StatusPlan -->
<g id="edge45" class="edge">
<title>Status&#45;&gt;StatusPlan</title>
<path fill="none" stroke="#59687e" stroke-width="1.3" d="M1312.02,-649.56C1338.87,-631.71 1376.09,-606.96 1404.79,-587.87"/>
<polygon fill="#59687e" stroke="#59687e" stroke-width="1.3" points="1406.28,-590.25 1411.39,-583.48 1403.18,-585.58 1406.28,-590.25"/>
</g>
<!-- Combat -->
<g id="node17" class="node">
<title>Combat</title>
<path fill="#eefbf6" stroke="#61b99a" stroke-width="1.4" d="M455.8,-697.58C455.8,-697.58 332.2,-697.58 332.2,-697.58 326.2,-697.58 320.2,-691.58 320.2,-685.58 320.2,-685.58 320.2,-662.12 320.2,-662.12 320.2,-656.12 326.2,-650.12 332.2,-650.12 332.2,-650.12 455.8,-650.12 455.8,-650.12 461.8,-650.12 467.8,-656.12 467.8,-662.12 467.8,-662.12 467.8,-685.58 467.8,-685.58 467.8,-691.58 461.8,-697.58 455.8,-697.58"/>
<text xml:space="preserve" text-anchor="middle" x="394" y="-677.8" font-family="Noto Sans KR" font-size="14.00" fill="#182033">Combat</text>
<text xml:space="preserve" text-anchor="middle" x="394" y="-660.55" font-family="Noto Sans KR" font-size="14.00" fill="#182033">피해 해석</text>
</g>
<!-- Combat&#45;&gt;Status -->
<!-- CombatPlan -->
<g id="node30" class="node">
<title>CombatPlan</title>
<path fill="#eefbf6" stroke="#61b99a" stroke-width="1.4" d="M1089.45,-581.87C1089.45,-581.87 960.54,-581.87 960.54,-581.87 954.54,-581.87 948.54,-575.87 948.54,-569.87 948.54,-569.87 948.54,-546.41 948.54,-546.41 948.54,-540.41 954.54,-534.41 960.54,-534.41 960.54,-534.41 1089.45,-534.41 1089.45,-534.41 1095.45,-534.41 1101.45,-540.41 1101.45,-546.41 1101.45,-546.41 1101.45,-569.87 1101.45,-569.87 1101.45,-575.87 1095.45,-581.87 1089.45,-581.87"/>
<text xml:space="preserve" text-anchor="middle" x="1025" y="-562.09" font-family="Noto Sans KR" font-size="14.00" fill="#182033">Combat commit plan</text>
<text xml:space="preserve" text-anchor="middle" x="1025" y="-544.84" font-family="Noto Sans KR" font-size="14.00" fill="#182033">DamageResult</text>
</g>
<!-- Combat&#45;&gt;CombatPlan -->
<g id="edge46" class="edge">
<title>Combat&#45;&gt;CombatPlan</title>
<path fill="none" stroke="#59687e" stroke-width="1.3" d="M468.39,-655.05C480.41,-652.18 489,-650.12 489,-650.12 489,-650.12 927,-610.12 927,-610.12 927,-610.12 948.43,-598.97 971.24,-587.1"/>
<polygon fill="#59687e" stroke="#59687e" stroke-width="1.3" points="972.47,-589.63 978.27,-583.45 969.88,-584.66 972.47,-589.63"/>
</g>
<!-- CombatObservation -->
<g id="node33" class="node">
<title>CombatObservation</title>
<path fill="#f7f9fc" stroke="#99a8bd" stroke-width="1.4" d="M875.8,-322.2C875.8,-322.2 752.2,-322.2 752.2,-322.2 746.2,-322.2 740.2,-316.2 740.2,-310.2 740.2,-310.2 740.2,-294.6 740.2,-294.6 740.2,-288.6 746.2,-282.6 752.2,-282.6 752.2,-282.6 875.8,-282.6 875.8,-282.6 881.8,-282.6 887.8,-288.6 887.8,-294.6 887.8,-294.6 887.8,-310.2 887.8,-310.2 887.8,-316.2 881.8,-322.2 875.8,-322.2"/>
<text xml:space="preserve" text-anchor="middle" x="814" y="-297.73" font-family="Noto Sans KR" font-size="14.00" fill="#182033">Combat damage log</text>
</g>
<!-- Combat&#45;&gt;CombatObservation -->
<g id="edge59" class="edge">
<title>Combat&#45;&gt;CombatObservation</title>
<path fill="none" stroke="#59687e" stroke-width="1.3" d="M400.86,-649.68C412.53,-610.27 435,-534.41 435,-534.41 435,-534.41 675.88,-387.59 773.57,-328.04"/>
<polygon fill="#59687e" stroke="#59687e" stroke-width="1.3" points="774.96,-330.48 780.33,-323.92 772.04,-325.69 774.96,-330.48"/>
</g>
<!-- Equipment -->
<g id="node18" class="node">
<title>Equipment</title>
<path fill="#f7f9fc" stroke="#bac7db" stroke-width="1.4" d="M224.8,-697.58C224.8,-697.58 101.2,-697.58 101.2,-697.58 95.2,-697.58 89.2,-691.58 89.2,-685.58 89.2,-685.58 89.2,-662.12 89.2,-662.12 89.2,-656.12 95.2,-650.12 101.2,-650.12 101.2,-650.12 224.8,-650.12 224.8,-650.12 230.8,-650.12 236.8,-656.12 236.8,-662.12 236.8,-662.12 236.8,-685.58 236.8,-685.58 236.8,-691.58 230.8,-697.58 224.8,-697.58"/>
<text xml:space="preserve" text-anchor="middle" x="163" y="-677.8" font-family="Noto Sans KR" font-size="14.00" fill="#182033">Equipment</text>
<text xml:space="preserve" text-anchor="middle" x="163" y="-660.55" font-family="Noto Sans KR" font-size="14.00" fill="#182033">Modifier source</text>
</g>
<!-- Equipment&#45;&gt;Combat -->
<!-- StatDefinitionsLane&#45;&gt;Stat -->
<g id="edge29" class="edge">
<title>StatDefinitionsLane&#45;&gt;Stat</title>
<path fill="none" stroke="#59687e" stroke-width="1.3" d="M542.23,-766.95C549.35,-751.24 560.44,-726.79 569.41,-707.03"/>
<polygon fill="#59687e" stroke="#59687e" stroke-width="1.3" points="571.91,-708.28 572.67,-699.84 566.81,-705.97 571.91,-708.28"/>
</g>
<!-- EffectDefinitionsLane&#45;&gt;Effect -->
<g id="edge31" class="edge">
<title>EffectDefinitionsLane&#45;&gt;Effect</title>
<path fill="none" stroke="#59687e" stroke-width="1.3" d="M850.8,-766.95C844.72,-751.31 835.28,-727.01 827.61,-707.3"/>
<polygon fill="#59687e" stroke="#59687e" stroke-width="1.3" points="830.24,-706.32 824.73,-699.88 825.02,-708.35 830.24,-706.32"/>
</g>
<!-- EffectDefinitionsLane&#45;&gt;StatDefinitionsLane -->
<!-- SkillDefinitionsLane&#45;&gt;Skill -->
<g id="edge33" class="edge">
<title>SkillDefinitionsLane&#45;&gt;Skill</title>
<path fill="none" stroke="#59687e" stroke-width="1.3" d="M1057.08,-766.95C1055.22,-751.45 1052.33,-727.45 1049.97,-707.84"/>
<polygon fill="#59687e" stroke="#59687e" stroke-width="1.3" points="1052.76,-707.61 1049.03,-700 1047.2,-708.28 1052.76,-707.61"/>
</g>
<!-- SkillDefinitionsLane&#45;&gt;EffectDefinitionsLane -->
<!-- SkillCooldownLane&#45;&gt;Skill -->
<g id="edge35" class="edge">
<title>SkillCooldownLane&#45;&gt;Skill</title>
<path fill="none" stroke="#59687e" stroke-width="1.3" d="M1228.81,-766.72C1195.09,-749.77 1141.49,-722.84 1101.04,-702.51"/>
<polygon fill="#59687e" stroke="#59687e" stroke-width="1.3" points="1102.52,-700.12 1094.11,-699.03 1100,-705.12 1102.52,-700.12"/>
</g>
<!-- SkillCooldownLane&#45;&gt;SkillDefinitionsLane -->
<!-- StatusTimeLane&#45;&gt;Status -->
<g id="edge37" class="edge">
<title>StatusTimeLane&#45;&gt;Status</title>
<path fill="none" stroke="#59687e" stroke-width="1.3" d="M1435.15,-766.72C1406.29,-749.95 1360.58,-723.4 1325.72,-703.15"/>
<polygon fill="#59687e" stroke="#59687e" stroke-width="1.3" points="1327.13,-700.73 1318.8,-699.13 1324.32,-705.57 1327.13,-700.73"/>
</g>
<!-- StatusTimeLane&#45;&gt;SkillCooldownLane -->
<!-- SkillSeedLane&#45;&gt;Skill -->
<g id="edge39" class="edge">
<title>SkillSeedLane&#45;&gt;Skill</title>
<path fill="none" stroke="#59687e" stroke-width="1.3" d="M755.9,-767.34C819.2,-750.9 910,-727.33 910,-727.33 910,-727.33 943.06,-714.57 976.58,-701.64"/>
<polygon fill="#59687e" stroke="#59687e" stroke-width="1.3" points="977.27,-704.37 983.72,-698.88 975.25,-699.15 977.27,-704.37"/>
</g>
<!-- SkillSeedLane&#45;&gt;StatusTimeLane -->
<!-- CombatRollLane&#45;&gt;Combat -->
<g id="edge41" class="edge">
<title>CombatRollLane&#45;&gt;Combat</title>
<path fill="none" stroke="#59687e" stroke-width="1.3" d="M376.95,-766.95C379.82,-751.45 384.26,-727.45 387.89,-707.84"/>
<polygon fill="#59687e" stroke="#59687e" stroke-width="1.3" points="390.64,-708.36 389.35,-699.98 385.14,-707.34 390.64,-708.36"/>
</g>
<!-- CombatRollLane&#45;&gt;SkillSeedLane -->
<!-- ContextLane&#45;&gt;RuntimeCommitter -->
<g id="edge47" class="edge">
<title>ContextLane&#45;&gt;RuntimeCommitter</title>
<path fill="none" stroke="#59687e" stroke-width="1.3" d="M906.75,-538.69C919.31,-536.16 928,-534.41 928,-534.41 928,-534.41 1546,-503.41 1546,-503.41 1546,-503.41 1555.29,-492.31 1566.08,-479.4"/>
<polygon fill="#59687e" stroke="#59687e" stroke-width="1.3" points="1567.94,-481.55 1570.93,-473.61 1563.65,-477.95 1567.94,-481.55"/>
</g>
<!-- EffectPlan&#45;&gt;RuntimeCommitter -->
<g id="edge48" class="edge">
<title>EffectPlan&#45;&gt;RuntimeCommitter</title>
<path fill="none" stroke="#59687e" stroke-width="1.3" d="M641.14,-543.2C674.26,-538.49 703,-534.41 703,-534.41 703,-534.41 1287,-472.91 1512.04,-449.21"/>
<polygon fill="#59687e" stroke="#59687e" stroke-width="1.3" points="1512.21,-452.01 1519.88,-448.39 1511.63,-446.44 1512.21,-452.01"/>
</g>
<!-- EffectPlan&#45;&gt;ContextLane -->
<!-- SkillPlan&#45;&gt;RuntimeCommitter -->
<g id="edge49" class="edge">
<title>SkillPlan&#45;&gt;RuntimeCommitter</title>
<path fill="none" stroke="#59687e" stroke-width="1.3" d="M1291.11,-534.43C1354.41,-515.02 1445.56,-487.09 1512.25,-466.64"/>
<polygon fill="#59687e" stroke="#59687e" stroke-width="1.3" points="1512.78,-469.41 1519.61,-464.39 1511.14,-464.06 1512.78,-469.41"/>
</g>
<!-- SkillPlan&#45;&gt;EffectPlan -->
<!-- StatusPlan&#45;&gt;RuntimeCommitter -->
<g id="edge50" class="edge">
<title>StatusPlan&#45;&gt;RuntimeCommitter</title>
<path fill="none" stroke="#59687e" stroke-width="1.3" d="M1478.19,-533.73C1498.69,-517.84 1526.24,-496.47 1549.86,-478.16"/>
<polygon fill="#59687e" stroke="#59687e" stroke-width="1.3" points="1551.54,-480.4 1556.15,-473.28 1548.11,-475.97 1551.54,-480.4"/>
</g>
<!-- StatusPlan&#45;&gt;SkillPlan -->
<!-- CombatPlan&#45;&gt;RuntimeCommitter -->
<g id="edge51" class="edge">
<title>CombatPlan&#45;&gt;RuntimeCommitter</title>
<path fill="none" stroke="#59687e" stroke-width="1.3" d="M1101.9,-539.12C1113.67,-536.36 1122,-534.41 1122,-534.41 1122,-534.41 1595,-503.41 1595,-503.41 1595,-503.41 1595.61,-493.7 1596.36,-481.89"/>
<polygon fill="#59687e" stroke="#59687e" stroke-width="1.3" points="1599.14,-482.23 1596.85,-474.07 1593.55,-481.88 1599.14,-482.23"/>
</g>
<!-- CombatPlan&#45;&gt;StatusPlan -->
<!-- StatObservation&#45;&gt;DebugTrace -->
<g id="edge60" class="edge">
<title>StatObservation&#45;&gt;DebugTrace</title>
<path fill="none" stroke="#59687e" stroke-width="1.3" d="M1049.2,-282.07C1156.19,-236.31 1425.19,-121.25 1548.48,-68.52"/>
<polygon fill="#59687e" stroke="#59687e" stroke-width="1.3" points="1549.4,-71.18 1555.65,-65.46 1547.19,-66.03 1549.4,-71.18"/>
</g>
<!-- EffectObservation&#45;&gt;DebugTrace -->
<g id="edge61" class="edge">
<title>EffectObservation&#45;&gt;DebugTrace</title>
<path fill="none" stroke="#59687e" stroke-width="1.3" d="M1263.03,-282.07C1328.64,-236.81 1492.51,-123.78 1570.06,-70.29"/>
<polygon fill="#59687e" stroke="#59687e" stroke-width="1.3" points="1571.57,-72.65 1576.56,-65.8 1568.39,-68.04 1571.57,-72.65"/>
</g>
<!-- EffectObservation&#45;&gt;StatObservation -->
<!-- CombatObservation&#45;&gt;DurableOutbox -->
<!-- CombatObservation&#45;&gt;DebugTrace -->
<g id="edge62" class="edge">
<title>CombatObservation&#45;&gt;DebugTrace</title>
<path fill="none" stroke="#59687e" stroke-width="1.3" d="M831.39,-282.08C876.18,-232.34 992,-103.71 992,-103.71 992,-103.71 1335.85,-69.13 1511.41,-51.47"/>
<polygon fill="#59687e" stroke="#59687e" stroke-width="1.3" points="1511.55,-54.27 1519.22,-50.69 1510.98,-48.7 1511.55,-54.27"/>
</g>
</g>
</svg>
