<?xml version="1.0" encoding="UTF-8" standalone="no"?>
<!DOCTYPE svg PUBLIC "-//W3C//DTD SVG 1.1//EN"
 "http://www.w3.org/Graphics/SVG/1.1/DTD/svg11.dtd">
<!-- Generated by graphviz version 2.42.4 (0)
 -->
<!-- Title: G Pages: 1 -->
<svg width="1253pt" height="911pt"
 viewBox="8.64 8.64 1244.64 902.64" xmlns="http://www.w3.org/2000/svg" xmlns:xlink="http://www.w3.org/1999/xlink">
<g id="graph0" class="graph" transform="scale(1 1) rotate(0) translate(26.64 884.64)">
<title>G</title>
<polygon fill="#ffffff" stroke="transparent" points="-18,18 -18,-876 1218,-876 1218,18 -18,18"/>
<g id="clust1" class="cluster">
<title>cluster_contract</title>
<path fill="#ffffff" stroke="#dfe5ee" stroke-dasharray="5,2" d="M20,-624C20,-624 524,-624 524,-624 530,-624 536,-630 536,-636 536,-636 536,-838 536,-838 536,-844 530,-850 524,-850 524,-850 20,-850 20,-850 14,-850 8,-844 8,-838 8,-838 8,-636 8,-636 8,-630 14,-624 20,-624"/>
<text text-anchor="middle" x="272" y="-831.6" font-family="Noto Sans CJK KR" font-size="18.00" fill="#607086">공통 계약: 모든 시스템이 공유하는 언어</text>
</g>
<g id="clust2" class="cluster">
<title>cluster_runtime</title>
<path fill="#ffffff" stroke="#dfe5ee" stroke-dasharray="5,2" d="M668,-468C668,-468 1180,-468 1180,-468 1186,-468 1192,-474 1192,-480 1192,-480 1192,-760 1192,-760 1192,-766 1186,-772 1180,-772 1180,-772 668,-772 668,-772 662,-772 656,-766 656,-760 656,-760 656,-480 656,-480 656,-474 662,-468 668,-468"/>
<text text-anchor="middle" x="924" y="-753.6" font-family="Noto Sans CJK KR" font-size="18.00" fill="#607086">런타임 서비스: 실행·재현·추적</text>
</g>
<g id="clust3" class="cluster">
<title>cluster_consumers</title>
<path fill="#ffffff" stroke="#dfe5ee" stroke-dasharray="5,2" d="M1032,-8C1032,-8 1163,-8 1163,-8 1169,-8 1175,-14 1175,-20 1175,-20 1175,-456 1175,-456 1175,-462 1169,-468 1163,-468 1163,-468 1032,-468 1032,-468 1026,-468 1020,-462 1020,-456 1020,-456 1020,-20 1020,-20 1020,-14 1026,-8 1032,-8"/>
<text text-anchor="middle" x="1097.5" y="-449.6" font-family="Noto Sans CJK KR" font-size="18.00" fill="#607086">소비 시스템</text>
</g>
<!-- EntityRegistry -->
<g id="node1" class="node">
<title>EntityRegistry</title>
<path fill="#eaf0ff" stroke="#8292f7" stroke-width="1.4" d="M151,-822C151,-822 20,-822 20,-822 14,-822 8,-816 8,-810 8,-810 8,-792 8,-792 8,-786 14,-780 20,-780 20,-780 151,-780 151,-780 157,-780 163,-786 163,-792 163,-792 163,-810 163,-810 163,-816 157,-822 151,-822"/>
<text text-anchor="middle" x="85.5" y="-804.8" font-family="Noto Sans CJK KR" font-size="14.00" fill="#182033">EntityRegistry</text>
<text text-anchor="middle" x="85.5" y="-789.8" font-family="Noto Sans CJK KR" font-size="14.00" fill="#182033">EntityId / EntityRef</text>
</g>
<!-- ContextFactory -->
<g id="node4" class="node">
<title>ContextFactory</title>
<path fill="#eefbf6" stroke="#61b99a" stroke-width="1.4" d="M524,-744C524,-744 354,-744 354,-744 348,-744 342,-738 342,-732 342,-732 342,-714 342,-714 342,-708 348,-702 354,-702 354,-702 524,-702 524,-702 530,-702 536,-708 536,-714 536,-714 536,-732 536,-732 536,-738 530,-744 524,-744"/>
<text text-anchor="middle" x="439" y="-726.8" font-family="Noto Sans CJK KR" font-size="14.00" fill="#182033">GameContextFactory</text>
<text text-anchor="middle" x="439" y="-711.8" font-family="Noto Sans CJK KR" font-size="14.00" fill="#182033">actor · target · seed · time</text>
</g>
<!-- EntityRegistry&#45;&gt;ContextFactory -->
<g id="edge1" class="edge">
<title>EntityRegistry&#45;&gt;ContextFactory</title>
<path fill="none" stroke="#59687e" stroke-width="1.3" d="M163.08,-801C267.14,-801 439,-801 439,-801 439,-801 439,-752.31 439,-752.31"/>
<polygon fill="#59687e" stroke="#59687e" stroke-width="1.3" points="441.8,-752.31 439,-744.31 436.2,-752.31 441.8,-752.31"/>
<text text-anchor="middle" x="252.5" y="-793.8" font-family="Noto Sans CJK KR" font-size="14.00" fill="#46566e">actor/target resolve</text>
</g>
<!-- TagService -->
<g id="node2" class="node">
<title>TagService</title>
<path fill="#f3eefc" stroke="#ab8fe0" stroke-width="1.4" d="M151,-744C151,-744 20,-744 20,-744 14,-744 8,-738 8,-732 8,-732 8,-714 8,-714 8,-708 14,-702 20,-702 20,-702 151,-702 151,-702 157,-702 163,-708 163,-714 163,-714 163,-732 163,-732 163,-738 157,-744 151,-744"/>
<text text-anchor="middle" x="85.5" y="-726.8" font-family="Noto Sans CJK KR" font-size="14.00" fill="#182033">TagService</text>
<text text-anchor="middle" x="85.5" y="-711.8" font-family="Noto Sans CJK KR" font-size="14.00" fill="#182033">TagSet / Tag Query</text>
</g>
<!-- TagService&#45;&gt;ContextFactory -->
<g id="edge2" class="edge">
<title>TagService&#45;&gt;ContextFactory</title>
<path fill="none" stroke="#59687e" stroke-width="1.3" d="M163.08,-723C163.08,-723 333.7,-723 333.7,-723"/>
<polygon fill="#59687e" stroke="#59687e" stroke-width="1.3" points="333.7,-725.8 341.7,-723 333.7,-720.2 333.7,-725.8"/>
<text text-anchor="middle" x="252.5" y="-726.8" font-family="Noto Sans CJK KR" font-size="14.00" fill="#46566e">tags</text>
</g>
<!-- SourceTracker -->
<g id="node3" class="node">
<title>SourceTracker</title>
<path fill="#fff7e6" stroke="#e0ad4e" stroke-width="1.4" d="M151,-666C151,-666 20,-666 20,-666 14,-666 8,-660 8,-654 8,-654 8,-636 8,-636 8,-630 14,-624 20,-624 20,-624 151,-624 151,-624 157,-624 163,-630 163,-636 163,-636 163,-654 163,-654 163,-660 157,-666 151,-666"/>
<text text-anchor="middle" x="85.5" y="-648.8" font-family="Noto Sans CJK KR" font-size="14.00" fill="#182033">SourceTracker</text>
<text text-anchor="middle" x="85.5" y="-633.8" font-family="Noto Sans CJK KR" font-size="14.00" fill="#182033">SourceId / Origin</text>
</g>
<!-- SourceTracker&#45;&gt;ContextFactory -->
<g id="edge3" class="edge">
<title>SourceTracker&#45;&gt;ContextFactory</title>
<path fill="none" stroke="#59687e" stroke-width="1.3" d="M163.08,-645C267.14,-645 439,-645 439,-645 439,-645 439,-693.69 439,-693.69"/>
<polygon fill="#59687e" stroke="#59687e" stroke-width="1.3" points="436.2,-693.69 439,-701.69 441.8,-693.69 436.2,-693.69"/>
<text text-anchor="middle" x="252.5" y="-667.8" font-family="Noto Sans CJK KR" font-size="14.00" fill="#46566e">source</text>
</g>
<!-- EventBus -->
<g id="node5" class="node">
<title>EventBus</title>
<path fill="#fff0f3" stroke="#e07b91" stroke-width="1.4" d="M827,-744C827,-744 696,-744 696,-744 690,-744 684,-738 684,-732 684,-732 684,-714 684,-714 684,-708 690,-702 696,-702 696,-702 827,-702 827,-702 833,-702 839,-708 839,-714 839,-714 839,-732 839,-732 839,-738 833,-744 827,-744"/>
<text text-anchor="middle" x="761.5" y="-726.8" font-family="Noto Sans CJK KR" font-size="14.00" fill="#182033">EventBus</text>
<text text-anchor="middle" x="761.5" y="-711.8" font-family="Noto Sans CJK KR" font-size="14.00" fill="#182033">publish / subscribe</text>
</g>
<!-- ContextFactory&#45;&gt;EventBus -->
<g id="edge4" class="edge">
<title>ContextFactory&#45;&gt;EventBus</title>
<path fill="none" stroke="#59687e" stroke-width="1.3" d="M536.2,-723C536.2,-723 675.94,-723 675.94,-723"/>
<polygon fill="#59687e" stroke="#59687e" stroke-width="1.3" points="675.94,-725.8 683.94,-723 675.94,-720.2 675.94,-725.8"/>
<text text-anchor="middle" x="596" y="-726.8" font-family="Noto Sans CJK KR" font-size="14.00" fill="#46566e">correlation</text>
</g>
<!-- DebugTrace -->
<g id="node9" class="node">
<title>DebugTrace</title>
<path fill="#f0f3f9" stroke="#99a8bd" stroke-width="1.4" d="M1180,-518C1180,-518 1015,-518 1015,-518 1009,-518 1003,-512 1003,-506 1003,-506 1003,-488 1003,-488 1003,-482 1009,-476 1015,-476 1015,-476 1180,-476 1180,-476 1186,-476 1192,-482 1192,-488 1192,-488 1192,-506 1192,-506 1192,-512 1186,-518 1180,-518"/>
<text text-anchor="middle" x="1097.5" y="-500.8" font-family="Noto Sans CJK KR" font-size="14.00" fill="#182033">DebugTrace</text>
<text text-anchor="middle" x="1097.5" y="-485.8" font-family="Noto Sans CJK KR" font-size="14.00" fill="#182033">correlationId / breakdown</text>
</g>
<!-- EventBus&#45;&gt;DebugTrace -->
<g id="edge12" class="edge">
<title>EventBus&#45;&gt;DebugTrace</title>
<path fill="none" stroke="#59687e" stroke-width="1.3" d="M839.12,-723C938.5,-723 1098,-723 1098,-723 1098,-723 1098,-526.26 1098,-526.26"/>
<polygon fill="#59687e" stroke="#59687e" stroke-width="1.3" points="1100.8,-526.26 1098,-518.26 1095.2,-526.26 1100.8,-526.26"/>
<text text-anchor="middle" x="935" y="-711.8" font-family="Noto Sans CJK KR" font-size="14.00" fill="#46566e">events</text>
</g>
<!-- TimeService -->
<g id="node6" class="node">
<title>TimeService</title>
<path fill="#e9fbff" stroke="#54b7cf" stroke-width="1.4" d="M842.5,-666C842.5,-666 680.5,-666 680.5,-666 674.5,-666 668.5,-660 668.5,-654 668.5,-654 668.5,-636 668.5,-636 668.5,-630 674.5,-624 680.5,-624 680.5,-624 842.5,-624 842.5,-624 848.5,-624 854.5,-630 854.5,-636 854.5,-636 854.5,-654 854.5,-654 854.5,-660 848.5,-666 842.5,-666"/>
<text text-anchor="middle" x="761.5" y="-648.8" font-family="Noto Sans CJK KR" font-size="14.00" fill="#182033">TimeService</text>
<text text-anchor="middle" x="761.5" y="-633.8" font-family="Noto Sans CJK KR" font-size="14.00" fill="#182033">tick / duration / cooldown</text>
</g>
<!-- Skill -->
<g id="node12" class="node">
<title>Skill</title>
<path fill="#fff7e6" stroke="#e0ad4e" stroke-width="1.4" d="M1163,-362C1163,-362 1032,-362 1032,-362 1026,-362 1020,-356 1020,-350 1020,-350 1020,-332 1020,-332 1020,-326 1026,-320 1032,-320 1032,-320 1163,-320 1163,-320 1169,-320 1175,-326 1175,-332 1175,-332 1175,-350 1175,-350 1175,-356 1169,-362 1163,-362"/>
<text text-anchor="middle" x="1097.5" y="-344.8" font-family="Noto Sans CJK KR" font-size="14.00" fill="#182033">Skill / Action</text>
<text text-anchor="middle" x="1097.5" y="-329.8" font-family="Noto Sans CJK KR" font-size="14.00" fill="#182033">행동 실행</text>
</g>
<!-- TimeService&#45;&gt;Skill -->
<g id="edge5" class="edge">
<title>TimeService&#45;&gt;Skill</title>
<path fill="none" stroke="#59687e" stroke-width="1.3" d="M854.86,-638C886.04,-638 913,-638 913,-638 913,-638 913,-351.5 913,-351.5 913,-351.5 1011.79,-351.5 1011.79,-351.5"/>
<polygon fill="#59687e" stroke="#59687e" stroke-width="1.3" points="1011.79,-354.3 1019.79,-351.5 1011.79,-348.7 1011.79,-354.3"/>
<text text-anchor="middle" x="935" y="-579.8" font-family="Noto Sans CJK KR" font-size="14.00" fill="#46566e">cooldown</text>
</g>
<!-- Status -->
<g id="node14" class="node">
<title>Status</title>
<path fill="#f3eefc" stroke="#ab8fe0" stroke-width="1.4" d="M1163,-440C1163,-440 1032,-440 1032,-440 1026,-440 1020,-434 1020,-428 1020,-428 1020,-410 1020,-410 1020,-404 1026,-398 1032,-398 1032,-398 1163,-398 1163,-398 1169,-398 1175,-404 1175,-410 1175,-410 1175,-428 1175,-428 1175,-434 1169,-440 1163,-440"/>
<text text-anchor="middle" x="1097.5" y="-422.8" font-family="Noto Sans CJK KR" font-size="14.00" fill="#182033">Status</text>
<text text-anchor="middle" x="1097.5" y="-407.8" font-family="Noto Sans CJK KR" font-size="14.00" fill="#182033">지속 상태</text>
</g>
<!-- TimeService&#45;&gt;Status -->
<g id="edge6" class="edge">
<title>TimeService&#45;&gt;Status</title>
<path fill="none" stroke="#59687e" stroke-width="1.3" d="M854.57,-652C905.36,-652 958,-652 958,-652 958,-652 958,-419 958,-419 958,-419 1012,-419 1012,-419"/>
<polygon fill="#59687e" stroke="#59687e" stroke-width="1.3" points="1012,-421.8 1020,-419 1012,-416.2 1012,-421.8"/>
<text text-anchor="middle" x="935" y="-641.8" font-family="Noto Sans CJK KR" font-size="14.00" fill="#46566e">duration/tick</text>
</g>
<!-- RandomService -->
<g id="node7" class="node">
<title>RandomService</title>
<path fill="#f0f3f9" stroke="#99a8bd" stroke-width="1.4" d="M855,-588C855,-588 668,-588 668,-588 662,-588 656,-582 656,-576 656,-576 656,-558 656,-558 656,-552 662,-546 668,-546 668,-546 855,-546 855,-546 861,-546 867,-552 867,-558 867,-558 867,-576 867,-576 867,-582 861,-588 855,-588"/>
<text text-anchor="middle" x="761.5" y="-570.8" font-family="Noto Sans CJK KR" font-size="14.00" fill="#182033">RandomStream</text>
<text text-anchor="middle" x="761.5" y="-555.8" font-family="Noto Sans CJK KR" font-size="14.00" fill="#182033">seeded deterministic random</text>
</g>
<!-- RandomService&#45;&gt;Skill -->
<g id="edge7" class="edge">
<title>RandomService&#45;&gt;Skill</title>
<path fill="none" stroke="#59687e" stroke-width="1.3" d="M858,-545.74C858,-489.48 858,-341 858,-341 858,-341 1011.74,-341 1011.74,-341"/>
<polygon fill="#59687e" stroke="#59687e" stroke-width="1.3" points="1011.74,-343.8 1019.74,-341 1011.74,-338.2 1011.74,-343.8"/>
<text text-anchor="middle" x="935" y="-510.8" font-family="Noto Sans CJK KR" font-size="14.00" fill="#46566e">request seed</text>
</g>
<!-- Combat -->
<g id="node13" class="node">
<title>Combat</title>
<path fill="#eefbf6" stroke="#61b99a" stroke-width="1.4" d="M1163,-284C1163,-284 1032,-284 1032,-284 1026,-284 1020,-278 1020,-272 1020,-272 1020,-254 1020,-254 1020,-248 1026,-242 1032,-242 1032,-242 1163,-242 1163,-242 1169,-242 1175,-248 1175,-254 1175,-254 1175,-272 1175,-272 1175,-278 1169,-284 1163,-284"/>
<text text-anchor="middle" x="1097.5" y="-266.8" font-family="Noto Sans CJK KR" font-size="14.00" fill="#182033">Combat</text>
<text text-anchor="middle" x="1097.5" y="-251.8" font-family="Noto Sans CJK KR" font-size="14.00" fill="#182033">피해 해석</text>
</g>
<!-- RandomService&#45;&gt;Combat -->
<g id="edge8" class="edge">
<title>RandomService&#45;&gt;Combat</title>
<path fill="none" stroke="#59687e" stroke-width="1.3" d="M849,-545.62C849,-475.36 849,-256 849,-256 849,-256 1011.9,-256 1011.9,-256"/>
<polygon fill="#59687e" stroke="#59687e" stroke-width="1.3" points="1011.9,-258.8 1019.9,-256 1011.9,-253.2 1011.9,-258.8"/>
<text text-anchor="middle" x="935" y="-368.8" font-family="Noto Sans CJK KR" font-size="14.00" fill="#46566e">hit/crit</text>
</g>
<!-- DataRegistry -->
<g id="node8" class="node">
<title>DataRegistry</title>
<path fill="#f7f9fc" stroke="#bac7db" stroke-width="1.4" d="M827,-510C827,-510 696,-510 696,-510 690,-510 684,-504 684,-498 684,-498 684,-480 684,-480 684,-474 690,-468 696,-468 696,-468 827,-468 827,-468 833,-468 839,-474 839,-480 839,-480 839,-498 839,-498 839,-504 833,-510 827,-510"/>
<text text-anchor="middle" x="761.5" y="-492.8" font-family="Noto Sans CJK KR" font-size="14.00" fill="#182033">DataRegistry</text>
<text text-anchor="middle" x="761.5" y="-477.8" font-family="Noto Sans CJK KR" font-size="14.00" fill="#182033">Definition lookup</text>
</g>
<!-- Stat -->
<g id="node10" class="node">
<title>Stat</title>
<path fill="#eaf0ff" stroke="#8292f7" stroke-width="1.4" d="M1163,-128C1163,-128 1032,-128 1032,-128 1026,-128 1020,-122 1020,-116 1020,-116 1020,-98 1020,-98 1020,-92 1026,-86 1032,-86 1032,-86 1163,-86 1163,-86 1169,-86 1175,-92 1175,-98 1175,-98 1175,-116 1175,-116 1175,-122 1169,-128 1163,-128"/>
<text text-anchor="middle" x="1097.5" y="-110.8" font-family="Noto Sans CJK KR" font-size="14.00" fill="#182033">Stat System</text>
<text text-anchor="middle" x="1097.5" y="-95.8" font-family="Noto Sans CJK KR" font-size="14.00" fill="#182033">값 계산</text>
</g>
<!-- DataRegistry&#45;&gt;Stat -->
<g id="edge9" class="edge">
<title>DataRegistry&#45;&gt;Stat</title>
<path fill="none" stroke="#59687e" stroke-width="1.3" d="M723,-467.92C723,-387.84 723,-107 723,-107 723,-107 1011.9,-107 1011.9,-107"/>
<polygon fill="#59687e" stroke="#59687e" stroke-width="1.3" points="1011.9,-109.8 1019.9,-107 1011.9,-104.2 1011.9,-109.8"/>
<text text-anchor="middle" x="935" y="-155.8" font-family="Noto Sans CJK KR" font-size="14.00" fill="#46566e">definitions</text>
</g>
<!-- Effect -->
<g id="node11" class="node">
<title>Effect</title>
<path fill="#fff0f3" stroke="#e07b91" stroke-width="1.4" d="M1163,-206C1163,-206 1032,-206 1032,-206 1026,-206 1020,-200 1020,-194 1020,-194 1020,-176 1020,-176 1020,-170 1026,-164 1032,-164 1032,-164 1163,-164 1163,-164 1169,-164 1175,-170 1175,-176 1175,-176 1175,-194 1175,-194 1175,-200 1169,-206 1163,-206"/>
<text text-anchor="middle" x="1097.5" y="-188.8" font-family="Noto Sans CJK KR" font-size="14.00" fill="#182033">Effect System</text>
<text text-anchor="middle" x="1097.5" y="-173.8" font-family="Noto Sans CJK KR" font-size="14.00" fill="#182033">결과 실행</text>
</g>
<!-- DataRegistry&#45;&gt;Effect -->
<g id="edge10" class="edge">
<title>DataRegistry&#45;&gt;Effect</title>
<path fill="none" stroke="#59687e" stroke-width="1.3" d="M762,-467.62C762,-398.43 762,-185 762,-185 762,-185 1011.69,-185 1011.69,-185"/>
<polygon fill="#59687e" stroke="#59687e" stroke-width="1.3" points="1011.69,-187.8 1019.69,-185 1011.69,-182.2 1011.69,-187.8"/>
<text text-anchor="middle" x="935" y="-222.8" font-family="Noto Sans CJK KR" font-size="14.00" fill="#46566e">definitions</text>
</g>
<!-- DataRegistry&#45;&gt;Skill -->
<g id="edge11" class="edge">
<title>DataRegistry&#45;&gt;Skill</title>
<path fill="none" stroke="#59687e" stroke-width="1.3" d="M801,-467.95C801,-424.84 801,-330.5 801,-330.5 801,-330.5 1011.99,-330.5 1011.99,-330.5"/>
<polygon fill="#59687e" stroke="#59687e" stroke-width="1.3" points="1011.99,-333.3 1019.99,-330.5 1011.99,-327.7 1011.99,-333.3"/>
<text text-anchor="middle" x="935" y="-312.8" font-family="Noto Sans CJK KR" font-size="14.00" fill="#46566e">definitions</text>
</g>
<!-- Stat&#45;&gt;DebugTrace -->
<g id="edge13" class="edge">
<title>Stat&#45;&gt;DebugTrace</title>
<path fill="none" stroke="#59687e" stroke-width="1.3" d="M1175.3,-107C1182.41,-107 1187,-107 1187,-107 1187,-107 1187,-467.75 1187,-467.75"/>
<polygon fill="#59687e" stroke="#59687e" stroke-width="1.3" points="1184.2,-467.75 1187,-475.75 1189.8,-467.75 1184.2,-467.75"/>
<text text-anchor="middle" x="935" y="-389.3" font-family="Noto Sans CJK KR" font-size="14.00" fill="#46566e">breakdown</text>
</g>
<!-- Effect&#45;&gt;DebugTrace -->
<g id="edge14" class="edge">
<title>Effect&#45;&gt;DebugTrace</title>
<path fill="none" stroke="#59687e" stroke-width="1.3" d="M1175.26,-185C1178.86,-185 1181,-185 1181,-185 1181,-185 1181,-467.55 1181,-467.55"/>
<polygon fill="#59687e" stroke="#59687e" stroke-width="1.3" points="1178.2,-467.55 1181,-475.55 1183.8,-467.56 1178.2,-467.55"/>
<text text-anchor="middle" x="935" y="-409.3" font-family="Noto Sans CJK KR" font-size="14.00" fill="#46566e">effect log</text>
</g>
<!-- Combat&#45;&gt;DebugTrace -->
<g id="edge15" class="edge">
<title>Combat&#45;&gt;DebugTrace</title>
<path fill="none" stroke="#59687e" stroke-width="1.3" d="M1019.89,-270C1015.01,-270 1012,-270 1012,-270 1012,-270 1012,-467.64 1012,-467.64"/>
<polygon fill="#59687e" stroke="#59687e" stroke-width="1.3" points="1009.2,-467.64 1012,-475.64 1014.8,-467.64 1009.2,-467.64"/>
<text text-anchor="middle" x="935" y="-429.3" font-family="Noto Sans CJK KR" font-size="14.00" fill="#46566e">damage log</text>
</g>
<!-- Equipment -->
<g id="node15" class="node">
<title>Equipment</title>
<path fill="#f7f9fc" stroke="#bac7db" stroke-width="1.4" d="M1163,-50C1163,-50 1032,-50 1032,-50 1026,-50 1020,-44 1020,-38 1020,-38 1020,-20 1020,-20 1020,-14 1026,-8 1032,-8 1032,-8 1163,-8 1163,-8 1169,-8 1175,-14 1175,-20 1175,-20 1175,-38 1175,-38 1175,-44 1169,-50 1163,-50"/>
<text text-anchor="middle" x="1097.5" y="-32.8" font-family="Noto Sans CJK KR" font-size="14.00" fill="#182033">Equipment</text>
<text text-anchor="middle" x="1097.5" y="-17.8" font-family="Noto Sans CJK KR" font-size="14.00" fill="#182033">Modifier source</text>
</g>
</g>
</svg>
