<?xml version="1.0" encoding="UTF-8" standalone="no"?>
<!DOCTYPE svg PUBLIC "-//W3C//DTD SVG 1.1//EN"
 "http://www.w3.org/Graphics/SVG/1.1/DTD/svg11.dtd">
<!-- Generated by graphviz version 2.42.4 (0)
 -->
<!-- Title: G Pages: 1 -->
<svg width="955pt" height="1248pt"
 viewBox="8.64 8.64 946.64 1239.64" xmlns="http://www.w3.org/2000/svg" xmlns:xlink="http://www.w3.org/1999/xlink">
<g id="graph0" class="graph" transform="scale(1 1) rotate(0) translate(26.64 1221.64)">
<title>G</title>
<polygon fill="#ffffff" stroke="transparent" points="-18,18 -18,-1213 920,-1213 920,18 -18,18"/>
<!-- SkillDefinition -->
<g id="node1" class="node">
<title>SkillDefinition</title>
<path fill="#ffffff" stroke="transparent" stroke-width="1.4" d="M614.5,-628.5C614.5,-628.5 508.5,-628.5 508.5,-628.5 502.5,-628.5 496.5,-622.5 496.5,-616.5 496.5,-616.5 496.5,-387.5 496.5,-387.5 496.5,-381.5 502.5,-375.5 508.5,-375.5 508.5,-375.5 614.5,-375.5 614.5,-375.5 620.5,-375.5 626.5,-381.5 626.5,-387.5 626.5,-387.5 626.5,-616.5 626.5,-616.5 626.5,-622.5 620.5,-628.5 614.5,-628.5"/>
<polygon fill="#fff7e6" stroke="transparent" points="497.5,-593 497.5,-627 625.5,-627 625.5,-593 497.5,-593"/>
<text text-anchor="start" x="505.5" y="-607.2" font-family="Noto Sans CJK KR" font-weight="bold" font-size="16.00" fill="#182033">SkillDefinition</text>
<text text-anchor="start" x="505.5" y="-573.8" font-family="Noto Sans CJK KR" font-size="14.00" fill="#182033">+ skillId</text>
<text text-anchor="start" x="505.5" y="-542.8" font-family="Noto Sans CJK KR" font-size="14.00" fill="#182033">+ tags: Tag[]</text>
<text text-anchor="start" x="505.5" y="-511.8" font-family="Noto Sans CJK KR" font-size="14.00" fill="#182033">+ costs[]</text>
<text text-anchor="start" x="505.5" y="-480.8" font-family="Noto Sans CJK KR" font-size="14.00" fill="#182033">+ cooldown</text>
<text text-anchor="start" x="505.5" y="-449.8" font-family="Noto Sans CJK KR" font-size="14.00" fill="#182033">+ targeting</text>
<text text-anchor="start" x="505.5" y="-418.8" font-family="Noto Sans CJK KR" font-size="14.00" fill="#182033">+ timeline</text>
<text text-anchor="start" x="505.5" y="-387.8" font-family="Noto Sans CJK KR" font-size="14.00" fill="#182033">+ effectBundle</text>
<polygon fill="none" stroke="#e0ad4e" points="496.5,-375.5 496.5,-628.5 626.5,-628.5 626.5,-375.5 496.5,-375.5"/>
</g>
<!-- CostPolicy -->
<g id="node6" class="node">
<title>CostPolicy</title>
<path fill="#ffffff" stroke="transparent" stroke-width="1.4" d="M873,-552C873,-552 786,-552 786,-552 780,-552 774,-546 774,-540 774,-540 774,-404 774,-404 774,-398 780,-392 786,-392 786,-392 873,-392 873,-392 879,-392 885,-398 885,-404 885,-404 885,-540 885,-540 885,-546 879,-552 873,-552"/>
<polygon fill="#fff0f3" stroke="transparent" points="775.5,-517 775.5,-551 884.5,-551 884.5,-517 775.5,-517"/>
<text text-anchor="start" x="789" y="-531.2" font-family="Noto Sans CJK KR" font-weight="bold" font-size="16.00" fill="#182033">CostPolicy</text>
<text text-anchor="start" x="783.5" y="-497.8" font-family="Noto Sans CJK KR" font-size="14.00" fill="#182033">+ resource</text>
<text text-anchor="start" x="783.5" y="-466.8" font-family="Noto Sans CJK KR" font-size="14.00" fill="#182033">+ amount</text>
<text text-anchor="start" x="783.5" y="-435.8" font-family="Noto Sans CJK KR" font-size="14.00" fill="#182033">+ payTiming</text>
<text text-anchor="start" x="783.5" y="-404.8" font-family="Noto Sans CJK KR" font-size="14.00" fill="#182033">+ refundPolicy</text>
<polygon fill="none" stroke="#e07b91" points="774,-392 774,-552 885,-552 885,-392 774,-392"/>
</g>
<!-- SkillDefinition&#45;&gt;CostPolicy -->
<g id="edge2" class="edge">
<title>SkillDefinition&#45;&gt;CostPolicy</title>
<path fill="none" stroke="#59687e" stroke-width="1.3" d="M626.72,-498.67C626.72,-498.67 765.97,-498.67 765.97,-498.67"/>
<polygon fill="#59687e" stroke="#59687e" stroke-width="1.3" points="765.97,-501.47 773.97,-498.67 765.97,-495.87 765.97,-501.47"/>
<text text-anchor="middle" x="700" y="-504.8" font-family="Noto Sans CJK KR" font-size="14.00" fill="#46566e">has</text>
</g>
<!-- CooldownPolicy -->
<g id="node7" class="node">
<title>CooldownPolicy</title>
<path fill="#ffffff" stroke="transparent" stroke-width="1.4" d="M890,-160C890,-160 769,-160 769,-160 763,-160 757,-154 757,-148 757,-148 757,-12 757,-12 757,-6 763,0 769,0 769,0 890,0 890,0 896,0 902,-6 902,-12 902,-12 902,-148 902,-148 902,-154 896,-160 890,-160"/>
<polygon fill="#fff0f3" stroke="transparent" points="758.5,-125 758.5,-159 901.5,-159 901.5,-125 758.5,-125"/>
<text text-anchor="start" x="766.5" y="-139.2" font-family="Noto Sans CJK KR" font-weight="bold" font-size="16.00" fill="#182033">CooldownPolicy</text>
<text text-anchor="start" x="766.5" y="-105.8" font-family="Noto Sans CJK KR" font-size="14.00" fill="#182033">+ duration</text>
<text text-anchor="start" x="766.5" y="-74.8" font-family="Noto Sans CJK KR" font-size="14.00" fill="#182033">+ group?</text>
<text text-anchor="start" x="766.5" y="-43.8" font-family="Noto Sans CJK KR" font-size="14.00" fill="#182033">+ charges?</text>
<text text-anchor="start" x="766.5" y="-12.8" font-family="Noto Sans CJK KR" font-size="14.00" fill="#182033">+ startsAt</text>
<polygon fill="none" stroke="#e07b91" points="757,0 757,-160 902,-160 902,0 757,0"/>
</g>
<!-- SkillDefinition&#45;&gt;CooldownPolicy -->
<g id="edge3" class="edge">
<title>SkillDefinition&#45;&gt;CooldownPolicy</title>
<path fill="none" stroke="#59687e" stroke-width="1.3" d="M626.69,-381C662.62,-381 700,-381 700,-381 700,-381 700,-156.17 700,-156.17 700,-156.17 748.8,-156.17 748.8,-156.17"/>
<polygon fill="#59687e" stroke="#59687e" stroke-width="1.3" points="748.8,-158.97 756.8,-156.17 748.8,-153.37 748.8,-158.97"/>
<text text-anchor="middle" x="700" y="-322.8" font-family="Noto Sans CJK KR" font-size="14.00" fill="#46566e">has</text>
</g>
<!-- TargetingSpec -->
<g id="node8" class="node">
<title>TargetingSpec</title>
<path fill="#ffffff" stroke="transparent" stroke-width="1.4" d="M883,-356C883,-356 776,-356 776,-356 770,-356 764,-350 764,-344 764,-344 764,-208 764,-208 764,-202 770,-196 776,-196 776,-196 883,-196 883,-196 889,-196 895,-202 895,-208 895,-208 895,-344 895,-344 895,-350 889,-356 883,-356"/>
<polygon fill="#e9fbff" stroke="transparent" points="765.5,-321 765.5,-355 894.5,-355 894.5,-321 765.5,-321"/>
<text text-anchor="start" x="773.5" y="-335.2" font-family="Noto Sans CJK KR" font-weight="bold" font-size="16.00" fill="#182033">TargetingSpec</text>
<text text-anchor="start" x="773.5" y="-301.8" font-family="Noto Sans CJK KR" font-size="14.00" fill="#182033">+ type</text>
<text text-anchor="start" x="773.5" y="-270.8" font-family="Noto Sans CJK KR" font-size="14.00" fill="#182033">+ range</text>
<text text-anchor="start" x="773.5" y="-239.8" font-family="Noto Sans CJK KR" font-size="14.00" fill="#182033">+ lineOfSight</text>
<text text-anchor="start" x="773.5" y="-208.8" font-family="Noto Sans CJK KR" font-size="14.00" fill="#182033">+ previewShape?</text>
<polygon fill="none" stroke="#54b7cf" points="764,-196 764,-356 895,-356 895,-196 764,-196"/>
</g>
<!-- SkillDefinition&#45;&gt;TargetingSpec -->
<g id="edge4" class="edge">
<title>SkillDefinition&#45;&gt;TargetingSpec</title>
<path fill="none" stroke="#59687e" stroke-width="1.3" d="M626.58,-386.5C687.44,-386.5 769,-386.5 769,-386.5 769,-386.5 769,-364.01 769,-364.01"/>
<polygon fill="#59687e" stroke="#59687e" stroke-width="1.3" points="771.8,-364.01 769,-356.01 766.2,-364.01 771.8,-364.01"/>
<text text-anchor="middle" x="700" y="-446.8" font-family="Noto Sans CJK KR" font-size="14.00" fill="#46566e">has</text>
</g>
<!-- ActionTimeline -->
<g id="node9" class="node">
<title>ActionTimeline</title>
<path fill="#ffffff" stroke="transparent" stroke-width="1.4" d="M887,-748C887,-748 772,-748 772,-748 766,-748 760,-742 760,-736 760,-736 760,-600 760,-600 760,-594 766,-588 772,-588 772,-588 887,-588 887,-588 893,-588 899,-594 899,-600 899,-600 899,-736 899,-736 899,-742 893,-748 887,-748"/>
<polygon fill="#e9fbff" stroke="transparent" points="761.5,-713 761.5,-747 898.5,-747 898.5,-713 761.5,-713"/>
<text text-anchor="start" x="771" y="-727.2" font-family="Noto Sans CJK KR" font-weight="bold" font-size="16.00" fill="#182033">ActionTimeline</text>
<text text-anchor="start" x="769.5" y="-693.8" font-family="Noto Sans CJK KR" font-size="14.00" fill="#182033">+ phases[]</text>
<text text-anchor="start" x="769.5" y="-662.8" font-family="Noto Sans CJK KR" font-size="14.00" fill="#182033">+ markers[]</text>
<text text-anchor="start" x="769.5" y="-631.8" font-family="Noto Sans CJK KR" font-size="14.00" fill="#182033">+ cancelWindows[]</text>
<text text-anchor="start" x="769.5" y="-600.8" font-family="Noto Sans CJK KR" font-size="14.00" fill="#182033">+ interruptRules</text>
<polygon fill="none" stroke="#54b7cf" points="760,-588 760,-748 899,-748 899,-588 760,-588"/>
</g>
<!-- SkillDefinition&#45;&gt;ActionTimeline -->
<g id="edge5" class="edge">
<title>SkillDefinition&#45;&gt;ActionTimeline</title>
<path fill="none" stroke="#59687e" stroke-width="1.3" d="M626.72,-608.25C626.72,-608.25 751.76,-608.25 751.76,-608.25"/>
<polygon fill="#59687e" stroke="#59687e" stroke-width="1.3" points="751.76,-611.05 759.76,-608.25 751.76,-605.45 751.76,-611.05"/>
<text text-anchor="middle" x="700" y="-573.8" font-family="Noto Sans CJK KR" font-size="14.00" fill="#46566e">has</text>
</g>
<!-- EffectBundle -->
<g id="node10" class="node">
<title>EffectBundle</title>
<path fill="#ffffff" stroke="transparent" stroke-width="1.4" d="M883,-913.5C883,-913.5 776,-913.5 776,-913.5 770,-913.5 764,-907.5 764,-901.5 764,-901.5 764,-796.5 764,-796.5 764,-790.5 770,-784.5 776,-784.5 776,-784.5 883,-784.5 883,-784.5 889,-784.5 895,-790.5 895,-796.5 895,-796.5 895,-901.5 895,-901.5 895,-907.5 889,-913.5 883,-913.5"/>
<polygon fill="#fff7e6" stroke="transparent" points="765.5,-878 765.5,-912 894.5,-912 894.5,-878 765.5,-878"/>
<text text-anchor="start" x="778.5" y="-892.2" font-family="Noto Sans CJK KR" font-weight="bold" font-size="16.00" fill="#182033">EffectBundle</text>
<text text-anchor="start" x="773.5" y="-858.8" font-family="Noto Sans CJK KR" font-size="14.00" fill="#182033">+ effects[]</text>
<text text-anchor="start" x="773.5" y="-827.8" font-family="Noto Sans CJK KR" font-size="14.00" fill="#182033">+ executionPolicy</text>
<text text-anchor="start" x="773.5" y="-796.8" font-family="Noto Sans CJK KR" font-size="14.00" fill="#182033">+ stopPolicy</text>
<polygon fill="none" stroke="#e0ad4e" points="764,-784.5 764,-913.5 895,-913.5 895,-784.5 764,-784.5"/>
</g>
<!-- SkillDefinition&#45;&gt;EffectBundle -->
<g id="edge6" class="edge">
<title>SkillDefinition&#45;&gt;EffectBundle</title>
<path fill="none" stroke="#59687e" stroke-width="1.3" d="M562,-628.64C562,-710.81 562,-802.67 562,-802.67 562,-802.67 755.72,-802.67 755.72,-802.67"/>
<polygon fill="#59687e" stroke="#59687e" stroke-width="1.3" points="755.72,-805.47 763.72,-802.67 755.72,-799.87 755.72,-805.47"/>
<text text-anchor="middle" x="700" y="-653.8" font-family="Noto Sans CJK KR" font-size="14.00" fill="#46566e">executes</text>
</g>
<!-- SkillRuntime -->
<g id="node2" class="node">
<title>SkillRuntime</title>
<path fill="#ffffff" stroke="transparent" stroke-width="1.4" d="M631,-1195C631,-1195 492,-1195 492,-1195 486,-1195 480,-1189 480,-1183 480,-1183 480,-1047 480,-1047 480,-1041 486,-1035 492,-1035 492,-1035 631,-1035 631,-1035 637,-1035 643,-1041 643,-1047 643,-1047 643,-1183 643,-1183 643,-1189 637,-1195 631,-1195"/>
<polygon fill="#eaf0ff" stroke="transparent" points="481.5,-1160 481.5,-1194 642.5,-1194 642.5,-1160 481.5,-1160"/>
<text text-anchor="start" x="510.5" y="-1174.2" font-family="Noto Sans CJK KR" font-weight="bold" font-size="16.00" fill="#182033">SkillRuntime</text>
<text text-anchor="start" x="489.5" y="-1140.8" font-family="Noto Sans CJK KR" font-size="14.00" fill="#182033">+ cooldownRemaining</text>
<text text-anchor="start" x="489.5" y="-1109.8" font-family="Noto Sans CJK KR" font-size="14.00" fill="#182033">+ charges</text>
<text text-anchor="start" x="489.5" y="-1078.8" font-family="Noto Sans CJK KR" font-size="14.00" fill="#182033">+ currentCast?</text>
<text text-anchor="start" x="489.5" y="-1047.8" font-family="Noto Sans CJK KR" font-size="14.00" fill="#182033">+ lastUsedTime</text>
<polygon fill="none" stroke="#8292f7" points="480,-1035 480,-1195 643,-1195 643,-1035 480,-1035"/>
</g>
<!-- SkillBook -->
<g id="node3" class="node">
<title>SkillBook</title>
<path fill="#ffffff" stroke="transparent" stroke-width="1.4" d="M333.5,-1179.5C333.5,-1179.5 229.5,-1179.5 229.5,-1179.5 223.5,-1179.5 217.5,-1173.5 217.5,-1167.5 217.5,-1167.5 217.5,-1062.5 217.5,-1062.5 217.5,-1056.5 223.5,-1050.5 229.5,-1050.5 229.5,-1050.5 333.5,-1050.5 333.5,-1050.5 339.5,-1050.5 345.5,-1056.5 345.5,-1062.5 345.5,-1062.5 345.5,-1167.5 345.5,-1167.5 345.5,-1173.5 339.5,-1179.5 333.5,-1179.5"/>
<polygon fill="#eaf0ff" stroke="transparent" points="218.5,-1144 218.5,-1178 344.5,-1178 344.5,-1144 218.5,-1144"/>
<text text-anchor="start" x="243.5" y="-1158.2" font-family="Noto Sans CJK KR" font-weight="bold" font-size="16.00" fill="#182033">SkillBook</text>
<text text-anchor="start" x="226.5" y="-1124.8" font-family="Noto Sans CJK KR" font-size="14.00" fill="#182033">+ owner: EntityId</text>
<text text-anchor="start" x="226.5" y="-1093.8" font-family="Noto Sans CJK KR" font-size="14.00" fill="#182033">+ learnedSkills</text>
<text text-anchor="start" x="226.5" y="-1062.8" font-family="Noto Sans CJK KR" font-size="14.00" fill="#182033">+ getRuntime()</text>
<polygon fill="none" stroke="#8292f7" points="217.5,-1050.5 217.5,-1179.5 345.5,-1179.5 345.5,-1050.5 217.5,-1050.5"/>
</g>
<!-- SkillBook&#45;&gt;SkillRuntime -->
<g id="edge1" class="edge">
<title>SkillBook&#45;&gt;SkillRuntime</title>
<path fill="none" stroke="#59687e" stroke-width="1.3" d="M345.74,-1115C345.74,-1115 471.98,-1115 471.98,-1115"/>
<polygon fill="#59687e" stroke="#59687e" stroke-width="1.3" points="471.98,-1117.8 479.98,-1115 471.98,-1112.2 471.98,-1117.8"/>
<text text-anchor="middle" x="420.5" y="-1118.8" font-family="Noto Sans CJK KR" font-size="14.00" fill="#46566e">owns 0..*</text>
</g>
<!-- SkillRequest -->
<g id="node4" class="node">
<title>SkillRequest</title>
<path fill="#ffffff" stroke="transparent" stroke-width="1.4" d="M105,-883.5C105,-883.5 12,-883.5 12,-883.5 6,-883.5 0,-877.5 0,-871.5 0,-871.5 0,-704.5 0,-704.5 0,-698.5 6,-692.5 12,-692.5 12,-692.5 105,-692.5 105,-692.5 111,-692.5 117,-698.5 117,-704.5 117,-704.5 117,-871.5 117,-871.5 117,-877.5 111,-883.5 105,-883.5"/>
<polygon fill="#eefbf6" stroke="transparent" points="1.5,-848 1.5,-882 116.5,-882 116.5,-848 1.5,-848"/>
<text text-anchor="start" x="9.5" y="-862.2" font-family="Noto Sans CJK KR" font-weight="bold" font-size="16.00" fill="#182033">SkillRequest</text>
<text text-anchor="start" x="9.5" y="-828.8" font-family="Noto Sans CJK KR" font-size="14.00" fill="#182033">+ caster</text>
<text text-anchor="start" x="9.5" y="-797.8" font-family="Noto Sans CJK KR" font-size="14.00" fill="#182033">+ skillId</text>
<text text-anchor="start" x="9.5" y="-766.8" font-family="Noto Sans CJK KR" font-size="14.00" fill="#182033">+ targetRef?</text>
<text text-anchor="start" x="9.5" y="-735.8" font-family="Noto Sans CJK KR" font-size="14.00" fill="#182033">+ aimPosition?</text>
<text text-anchor="start" x="9.5" y="-704.8" font-family="Noto Sans CJK KR" font-size="14.00" fill="#182033">+ seed</text>
<polygon fill="none" stroke="#61b99a" points="0,-692.5 0,-883.5 117,-883.5 117,-692.5 0,-692.5"/>
</g>
<!-- SkillExecutor -->
<g id="node11" class="node">
<title>SkillExecutor</title>
<path fill="#ffffff" stroke="transparent" stroke-width="1.4" d="M349,-868C349,-868 214,-868 214,-868 208,-868 202,-862 202,-856 202,-856 202,-720 202,-720 202,-714 208,-708 214,-708 214,-708 349,-708 349,-708 355,-708 361,-714 361,-720 361,-720 361,-856 361,-856 361,-862 355,-868 349,-868"/>
<polygon fill="#f0f3f9" stroke="transparent" points="203.5,-833 203.5,-867 360.5,-867 360.5,-833 203.5,-833"/>
<text text-anchor="start" x="230.5" y="-847.2" font-family="Noto Sans CJK KR" font-weight="bold" font-size="16.00" fill="#182033">SkillExecutor</text>
<text text-anchor="start" x="211.5" y="-813.8" font-family="Noto Sans CJK KR" font-size="14.00" fill="#182033">+ execute(request)</text>
<text text-anchor="start" x="211.5" y="-782.8" font-family="Noto Sans CJK KR" font-size="14.00" fill="#182033">+ startTimeline()</text>
<text text-anchor="start" x="211.5" y="-751.8" font-family="Noto Sans CJK KR" font-size="14.00" fill="#182033">+ buildEffectContext()</text>
<text text-anchor="start" x="211.5" y="-720.8" font-family="Noto Sans CJK KR" font-size="14.00" fill="#182033">+ publishEvents()</text>
<polygon fill="none" stroke="#99a8bd" points="202,-708 202,-868 361,-868 361,-708 202,-708"/>
</g>
<!-- SkillRequest&#45;&gt;SkillExecutor -->
<g id="edge7" class="edge">
<title>SkillRequest&#45;&gt;SkillExecutor</title>
<path fill="none" stroke="#59687e" stroke-width="1.3" d="M117.09,-788C117.09,-788 193.92,-788 193.92,-788"/>
<polygon fill="#59687e" stroke="#59687e" stroke-width="1.3" points="193.92,-790.8 201.92,-788 193.92,-785.2 193.92,-790.8"/>
<text text-anchor="middle" x="159.5" y="-791.8" font-family="Noto Sans CJK KR" font-size="14.00" fill="#46566e">input</text>
</g>
<!-- SkillValidator -->
<g id="node5" class="node">
<title>SkillValidator</title>
<path fill="#ffffff" stroke="transparent" stroke-width="1.4" d="M627.5,-339.5C627.5,-339.5 495.5,-339.5 495.5,-339.5 489.5,-339.5 483.5,-333.5 483.5,-327.5 483.5,-327.5 483.5,-160.5 483.5,-160.5 483.5,-154.5 489.5,-148.5 495.5,-148.5 495.5,-148.5 627.5,-148.5 627.5,-148.5 633.5,-148.5 639.5,-154.5 639.5,-160.5 639.5,-160.5 639.5,-327.5 639.5,-327.5 639.5,-333.5 633.5,-339.5 627.5,-339.5"/>
<polygon fill="#f3eefc" stroke="transparent" points="484.5,-304 484.5,-338 638.5,-338 638.5,-304 484.5,-304"/>
<text text-anchor="start" x="508.5" y="-318.2" font-family="Noto Sans CJK KR" font-weight="bold" font-size="16.00" fill="#182033">SkillValidator</text>
<text text-anchor="start" x="492.5" y="-284.8" font-family="Noto Sans CJK KR" font-size="14.00" fill="#182033">+ validateLearned()</text>
<text text-anchor="start" x="492.5" y="-253.8" font-family="Noto Sans CJK KR" font-size="14.00" fill="#182033">+ validateCost()</text>
<text text-anchor="start" x="492.5" y="-222.8" font-family="Noto Sans CJK KR" font-size="14.00" fill="#182033">+ validateCooldown()</text>
<text text-anchor="start" x="492.5" y="-191.8" font-family="Noto Sans CJK KR" font-size="14.00" fill="#182033">+ validateTarget()</text>
<text text-anchor="start" x="492.5" y="-160.8" font-family="Noto Sans CJK KR" font-size="14.00" fill="#182033">+ validateState()</text>
<polygon fill="none" stroke="#ab8fe0" points="483.5,-148.5 483.5,-339.5 639.5,-339.5 639.5,-148.5 483.5,-148.5"/>
</g>
<!-- SkillValidator&#45;&gt;CostPolicy -->
<g id="edge10" class="edge">
<title>SkillValidator&#45;&gt;CostPolicy</title>
<path fill="none" stroke="#59687e" stroke-width="1.3" d="M633,-339.65C633,-391.6 633,-445.33 633,-445.33 633,-445.33 765.98,-445.33 765.98,-445.33"/>
<polygon fill="#59687e" stroke="#59687e" stroke-width="1.3" points="765.98,-448.13 773.98,-445.33 765.98,-442.53 765.98,-448.13"/>
<text text-anchor="middle" x="700" y="-386.8" font-family="Noto Sans CJK KR" font-size="14.00" fill="#46566e">cost</text>
</g>
<!-- SkillValidator&#45;&gt;CooldownPolicy -->
<g id="edge11" class="edge">
<title>SkillValidator&#45;&gt;CooldownPolicy</title>
<path fill="none" stroke="#59687e" stroke-width="1.3" d="M639.74,-152.33C639.74,-152.33 748.68,-152.33 748.68,-152.33"/>
<polygon fill="#59687e" stroke="#59687e" stroke-width="1.3" points="748.68,-155.13 756.68,-152.33 748.68,-149.53 748.68,-155.13"/>
<text text-anchor="middle" x="700" y="-139.8" font-family="Noto Sans CJK KR" font-size="14.00" fill="#46566e">cooldown</text>
</g>
<!-- SkillValidator&#45;&gt;TargetingSpec -->
<g id="edge12" class="edge">
<title>SkillValidator&#45;&gt;TargetingSpec</title>
<path fill="none" stroke="#59687e" stroke-width="1.3" d="M639.74,-267.75C639.74,-267.75 755.84,-267.75 755.84,-267.75"/>
<polygon fill="#59687e" stroke="#59687e" stroke-width="1.3" points="755.84,-270.55 763.84,-267.75 755.84,-264.95 755.84,-270.55"/>
<text text-anchor="middle" x="700" y="-249.8" font-family="Noto Sans CJK KR" font-size="14.00" fill="#46566e">target</text>
</g>
<!-- SkillExecutor&#45;&gt;SkillRuntime -->
<g id="edge9" class="edge">
<title>SkillExecutor&#45;&gt;SkillRuntime</title>
<path fill="none" stroke="#59687e" stroke-width="1.3" d="M354,-868.25C354,-942.93 354,-1042.75 354,-1042.75 354,-1042.75 471.79,-1042.75 471.79,-1042.75"/>
<polygon fill="#59687e" stroke="#59687e" stroke-width="1.3" points="471.79,-1045.55 479.79,-1042.75 471.79,-1039.95 471.79,-1045.55"/>
<text text-anchor="middle" x="420.5" y="-1020.8" font-family="Noto Sans CJK KR" font-size="14.00" fill="#46566e">read/write</text>
</g>
<!-- SkillExecutor&#45;&gt;SkillValidator -->
<g id="edge8" class="edge">
<title>SkillExecutor&#45;&gt;SkillValidator</title>
<path fill="none" stroke="#59687e" stroke-width="1.3" d="M361.22,-721.33C420.08,-721.33 490,-721.33 490,-721.33 490,-721.33 490,-347.73 490,-347.73"/>
<polygon fill="#59687e" stroke="#59687e" stroke-width="1.3" points="492.8,-347.73 490,-339.73 487.2,-347.73 492.8,-347.73"/>
<text text-anchor="middle" x="420.5" y="-456.8" font-family="Noto Sans CJK KR" font-size="14.00" fill="#46566e">validate</text>
</g>
<!-- SkillExecutor&#45;&gt;ActionTimeline -->
<g id="edge13" class="edge">
<title>SkillExecutor&#45;&gt;ActionTimeline</title>
<path fill="none" stroke="#59687e" stroke-width="1.3" d="M361.18,-734.67C361.18,-734.67 751.71,-734.67 751.71,-734.67"/>
<polygon fill="#59687e" stroke="#59687e" stroke-width="1.3" points="751.71,-737.47 759.71,-734.67 751.71,-731.87 751.71,-737.47"/>
<text text-anchor="middle" x="561.5" y="-704.8" font-family="Noto Sans CJK KR" font-size="14.00" fill="#46566e">advance</text>
</g>
<!-- SkillExecutor&#45;&gt;EffectBundle -->
<g id="edge14" class="edge">
<title>SkillExecutor&#45;&gt;EffectBundle</title>
<path fill="none" stroke="#59687e" stroke-width="1.3" d="M361.18,-820.83C361.18,-820.83 755.89,-820.83 755.89,-820.83"/>
<polygon fill="#59687e" stroke="#59687e" stroke-width="1.3" points="755.89,-823.63 763.89,-820.83 755.89,-818.03 755.89,-823.63"/>
<text text-anchor="middle" x="561.5" y="-791.8" font-family="Noto Sans CJK KR" font-size="14.00" fill="#46566e">on marker</text>
</g>
<!-- SkillResult -->
<g id="node12" class="node">
<title>SkillResult</title>
<path fill="#ffffff" stroke="transparent" stroke-width="1.4" d="M612,-999C612,-999 511,-999 511,-999 505,-999 499,-993 499,-987 499,-987 499,-851 499,-851 499,-845 505,-839 511,-839 511,-839 612,-839 612,-839 618,-839 624,-845 624,-851 624,-851 624,-987 624,-987 624,-993 618,-999 612,-999"/>
<polygon fill="#f0f3f9" stroke="transparent" points="500.5,-964 500.5,-998 623.5,-998 623.5,-964 500.5,-964"/>
<text text-anchor="start" x="519.5" y="-978.2" font-family="Noto Sans CJK KR" font-weight="bold" font-size="16.00" fill="#182033">SkillResult</text>
<text text-anchor="start" x="508.5" y="-944.8" font-family="Noto Sans CJK KR" font-size="14.00" fill="#182033">+ status</text>
<text text-anchor="start" x="508.5" y="-913.8" font-family="Noto Sans CJK KR" font-size="14.00" fill="#182033">+ failureReason?</text>
<text text-anchor="start" x="508.5" y="-882.8" font-family="Noto Sans CJK KR" font-size="14.00" fill="#182033">+ effectResults[]</text>
<text text-anchor="start" x="508.5" y="-851.8" font-family="Noto Sans CJK KR" font-size="14.00" fill="#182033">+ debugTrace</text>
<polygon fill="none" stroke="#99a8bd" points="499,-839 499,-999 624,-999 624,-839 499,-839"/>
</g>
<!-- SkillExecutor&#45;&gt;SkillResult -->
<g id="edge15" class="edge">
<title>SkillExecutor&#45;&gt;SkillResult</title>
<path fill="none" stroke="#59687e" stroke-width="1.3" d="M361.36,-853.5C361.36,-853.5 490.88,-853.5 490.88,-853.5"/>
<polygon fill="#59687e" stroke="#59687e" stroke-width="1.3" points="490.88,-856.3 498.88,-853.5 490.88,-850.7 490.88,-856.3"/>
<text text-anchor="middle" x="420.5" y="-922.8" font-family="Noto Sans CJK KR" font-size="14.00" fill="#46566e">returns</text>
</g>
</g>
</svg>
