<?xml version="1.0" encoding="UTF-8" standalone="no"?>
<!DOCTYPE svg PUBLIC "-//W3C//DTD SVG 1.1//EN"
 "http://www.w3.org/Graphics/SVG/1.1/DTD/svg11.dtd">
<!-- Generated by graphviz version 15.1.0 (20260618.0150)
 -->
<!-- Title: G Pages: 1 -->
<svg width="2755pt" height="1531pt"
 viewBox="12.00 12.00 2744.00 1519.00" xmlns="http://www.w3.org/2000/svg" xmlns:xlink="http://www.w3.org/1999/xlink">
<g id="graph0" class="graph" transform="scale(1.33333 1.33333) rotate(0) translate(26.64 1121.39)">
<title>G</title>
<polygon fill="#ffffff" stroke="none" points="-18,18 -18,-1112.75 2031,-1112.75 2031,18 -18,18"/>
<g id="clust1" class="cluster">
<title>cluster_request_lane</title>
<path fill="#ffffff" stroke="#dfe5ee" stroke-dasharray="5,2" d="M20,-852.5C20,-852.5 1993,-852.5 1993,-852.5 1999,-852.5 2005,-858.5 2005,-864.5 2005,-864.5 2005,-1074.75 2005,-1074.75 2005,-1080.75 1999,-1086.75 1993,-1086.75 1993,-1086.75 20,-1086.75 20,-1086.75 14,-1086.75 8,-1080.75 8,-1074.75 8,-1074.75 8,-864.5 8,-864.5 8,-858.5 14,-852.5 20,-852.5"/>
<text xml:space="preserve" text-anchor="middle" x="1006.5" y="-1065.65" font-family="Noto Sans KR" font-size="18.00" fill="#607086">Request · decision · public result</text>
</g>
<g id="clust3" class="cluster">
<title>cluster_definition_lane</title>
<path fill="#ffffff" stroke="#eadfbe" stroke-dasharray="5,2" d="M401,-264.25C401,-264.25 1344,-264.25 1344,-264.25 1350,-264.25 1356,-270.25 1356,-276.25 1356,-276.25 1356,-801.5 1356,-801.5 1356,-807.5 1350,-813.5 1344,-813.5 1344,-813.5 401,-813.5 401,-813.5 395,-813.5 389,-807.5 389,-801.5 389,-801.5 389,-276.25 389,-276.25 389,-270.25 395,-264.25 401,-264.25"/>
<text xml:space="preserve" text-anchor="middle" x="872.5" y="-792.4" font-family="Noto Sans KR" font-size="18.00" fill="#806b35">SkillDefinition&#45;owned authoring contracts</text>
</g>
<g id="clust5" class="cluster">
<title>cluster_runtime_lane</title>
<path fill="#ffffff" stroke="#d5e7ef" stroke-dasharray="5,2" d="M857,-8C857,-8 1627,-8 1627,-8 1633,-8 1639,-14 1639,-20 1639,-20 1639,-197 1639,-197 1639,-203 1633,-209 1627,-209 1627,-209 857,-209 857,-209 851,-209 845,-203 845,-197 845,-197 845,-20 845,-20 845,-14 851,-8 857,-8"/>
<text xml:space="preserve" text-anchor="middle" x="1242" y="-187.9" font-family="Noto Sans KR" font-size="18.00" fill="#497488">Project runtime state · one execution</text>
</g>
<!-- SkillDefinition -->
<g id="node1" class="node">
<title>SkillDefinition</title>
<path fill="#ffffff" stroke="none" stroke-width="1.4" d="M998,-783.75C998,-783.75 908,-783.75 908,-783.75 902,-783.75 896,-777.75 896,-771.75 896,-771.75 896,-524.75 896,-524.75 896,-518.75 902,-512.75 908,-512.75 908,-512.75 998,-512.75 998,-512.75 1004,-512.75 1010,-518.75 1010,-524.75 1010,-524.75 1010,-771.75 1010,-771.75 1010,-777.75 1004,-783.75 998,-783.75"/>
<polygon fill="#fff7e6" stroke="none" points="897,-746.5 897,-782.75 1009,-782.75 1009,-746.5 897,-746.5"/>
<text xml:space="preserve" text-anchor="start" x="905" y="-760.55" font-family="Noto Sans KR" font-weight="bold" font-size="16.00" fill="#182033">SkillDefinition</text>
<text xml:space="preserve" text-anchor="start" x="905" y="-724.25" font-family="Noto Sans KR" font-size="14.00" fill="#182033">+ SkillId</text>
<text xml:space="preserve" text-anchor="start" x="905" y="-691" font-family="Noto Sans KR" font-size="14.00" fill="#182033">+ Tags: Tag[]</text>
<text xml:space="preserve" text-anchor="start" x="905" y="-657.75" font-family="Noto Sans KR" font-size="14.00" fill="#182033">+ Costs[]</text>
<text xml:space="preserve" text-anchor="start" x="905" y="-624.5" font-family="Noto Sans KR" font-size="14.00" fill="#182033">+ Cooldown</text>
<text xml:space="preserve" text-anchor="start" x="905" y="-591.25" font-family="Noto Sans KR" font-size="14.00" fill="#182033">+ Targeting</text>
<text xml:space="preserve" text-anchor="start" x="905" y="-558" font-family="Noto Sans KR" font-size="14.00" fill="#182033">+ Timeline</text>
<text xml:space="preserve" text-anchor="start" x="905" y="-524.75" font-family="Noto Sans KR" font-size="14.00" fill="#182033">+ EffectBundle</text>
<polygon fill="none" stroke="#e0ad4e" points="896,-512.75 896,-783.75 1010,-783.75 1010,-512.75 896,-512.75"/>
</g>
<!-- CostPolicy -->
<g id="node8" class="node">
<title>CostPolicy</title>
<path fill="#ffffff" stroke="none" stroke-width="1.4" d="M487.12,-435.5C487.12,-435.5 400.88,-435.5 400.88,-435.5 394.88,-435.5 388.88,-429.5 388.88,-423.5 388.88,-423.5 388.88,-276.25 388.88,-276.25 388.88,-270.25 394.88,-264.25 400.88,-264.25 400.88,-264.25 487.12,-264.25 487.12,-264.25 493.12,-264.25 499.12,-270.25 499.12,-276.25 499.12,-276.25 499.12,-423.5 499.12,-423.5 499.12,-429.5 493.12,-435.5 487.12,-435.5"/>
<polygon fill="#fff0f3" stroke="none" points="389.88,-398.25 389.88,-434.5 498.12,-434.5 498.12,-398.25 389.88,-398.25"/>
<text xml:space="preserve" text-anchor="start" x="407.25" y="-412.3" font-family="Noto Sans KR" font-weight="bold" font-size="16.00" fill="#182033">CostPolicy</text>
<text xml:space="preserve" text-anchor="start" x="397.88" y="-376" font-family="Noto Sans KR" font-size="14.00" fill="#182033">+ Resource</text>
<text xml:space="preserve" text-anchor="start" x="397.88" y="-342.75" font-family="Noto Sans KR" font-size="14.00" fill="#182033">+ Amount</text>
<text xml:space="preserve" text-anchor="start" x="397.88" y="-309.5" font-family="Noto Sans KR" font-size="14.00" fill="#182033">+ PayTiming</text>
<text xml:space="preserve" text-anchor="start" x="397.88" y="-276.25" font-family="Noto Sans KR" font-size="14.00" fill="#182033">+ RefundPolicy</text>
<polygon fill="none" stroke="#e07b91" points="388.88,-264.25 388.88,-435.5 499.12,-435.5 499.12,-264.25 388.88,-264.25"/>
</g>
<!-- SkillDefinition&#45;&gt;CostPolicy -->
<g id="edge5" class="edge">
<title>SkillDefinition&#45;&gt;CostPolicy</title>
<path fill="none" stroke="#b28a2f" stroke-width="1.3" d="M896.08,-619.35C778.77,-561.85 521,-435.5 521,-435.5 521,-435.5 514.45,-428.3 505.18,-418.11"/>
<polygon fill="#b28a2f" stroke="#b28a2f" stroke-width="1.3" points="507.51,-416.51 500.05,-412.48 503.37,-420.28 507.51,-416.51"/>
</g>
<!-- CooldownPolicy -->
<g id="node9" class="node">
<title>CooldownPolicy</title>
<path fill="#ffffff" stroke="none" stroke-width="1.4" d="M663.75,-435.5C663.75,-435.5 554.25,-435.5 554.25,-435.5 548.25,-435.5 542.25,-429.5 542.25,-423.5 542.25,-423.5 542.25,-276.25 542.25,-276.25 542.25,-270.25 548.25,-264.25 554.25,-264.25 554.25,-264.25 663.75,-264.25 663.75,-264.25 669.75,-264.25 675.75,-270.25 675.75,-276.25 675.75,-276.25 675.75,-423.5 675.75,-423.5 675.75,-429.5 669.75,-435.5 663.75,-435.5"/>
<polygon fill="#fff0f3" stroke="none" points="543.25,-398.25 543.25,-434.5 674.75,-434.5 674.75,-398.25 543.25,-398.25"/>
<text xml:space="preserve" text-anchor="start" x="551.25" y="-412.3" font-family="Noto Sans KR" font-weight="bold" font-size="16.00" fill="#182033">CooldownPolicy</text>
<text xml:space="preserve" text-anchor="start" x="551.25" y="-376" font-family="Noto Sans KR" font-size="14.00" fill="#182033">+ Duration</text>
<text xml:space="preserve" text-anchor="start" x="551.25" y="-342.75" font-family="Noto Sans KR" font-size="14.00" fill="#182033">+ Group?</text>
<text xml:space="preserve" text-anchor="start" x="551.25" y="-309.5" font-family="Noto Sans KR" font-size="14.00" fill="#182033">+ Charges?</text>
<text xml:space="preserve" text-anchor="start" x="551.25" y="-276.25" font-family="Noto Sans KR" font-size="14.00" fill="#182033">+ StartsAt</text>
<polygon fill="none" stroke="#e07b91" points="542.25,-264.25 542.25,-435.5 675.75,-435.5 675.75,-264.25 542.25,-264.25"/>
</g>
<!-- SkillDefinition&#45;&gt;CooldownPolicy -->
<g id="edge6" class="edge">
<title>SkillDefinition&#45;&gt;CooldownPolicy</title>
<path fill="none" stroke="#b28a2f" stroke-width="1.3" d="M896.19,-600.26C820.77,-537.87 697,-435.5 697,-435.5 697,-435.5 691.27,-429.99 682.73,-421.77"/>
<polygon fill="#b28a2f" stroke="#b28a2f" stroke-width="1.3" points="684.82,-419.91 677.12,-416.38 680.94,-423.94 684.82,-419.91"/>
</g>
<!-- TargetingSpec -->
<g id="node10" class="node">
<title>TargetingSpec</title>
<path fill="#ffffff" stroke="none" stroke-width="1.4" d="M829.5,-435.5C829.5,-435.5 730.5,-435.5 730.5,-435.5 724.5,-435.5 718.5,-429.5 718.5,-423.5 718.5,-423.5 718.5,-276.25 718.5,-276.25 718.5,-270.25 724.5,-264.25 730.5,-264.25 730.5,-264.25 829.5,-264.25 829.5,-264.25 835.5,-264.25 841.5,-270.25 841.5,-276.25 841.5,-276.25 841.5,-423.5 841.5,-423.5 841.5,-429.5 835.5,-435.5 829.5,-435.5"/>
<polygon fill="#e9fbff" stroke="none" points="719.5,-398.25 719.5,-434.5 840.5,-434.5 840.5,-398.25 719.5,-398.25"/>
<text xml:space="preserve" text-anchor="start" x="730.88" y="-412.3" font-family="Noto Sans KR" font-weight="bold" font-size="16.00" fill="#182033">TargetingSpec</text>
<text xml:space="preserve" text-anchor="start" x="727.5" y="-376" font-family="Noto Sans KR" font-size="14.00" fill="#182033">+ Type</text>
<text xml:space="preserve" text-anchor="start" x="727.5" y="-342.75" font-family="Noto Sans KR" font-size="14.00" fill="#182033">+ Range</text>
<text xml:space="preserve" text-anchor="start" x="727.5" y="-309.5" font-family="Noto Sans KR" font-size="14.00" fill="#182033">+ LineOfSight</text>
<text xml:space="preserve" text-anchor="start" x="727.5" y="-276.25" font-family="Noto Sans KR" font-size="14.00" fill="#182033">+ PreviewShape?</text>
<polygon fill="none" stroke="#54b7cf" points="718.5,-264.25 718.5,-435.5 841.5,-435.5 841.5,-264.25 718.5,-264.25"/>
</g>
<!-- SkillDefinition&#45;&gt;TargetingSpec -->
<g id="edge7" class="edge">
<title>SkillDefinition&#45;&gt;TargetingSpec</title>
<path fill="none" stroke="#b28a2f" stroke-width="1.3" d="M896.11,-549.8C876.23,-515.73 853.97,-477.6 834.31,-443.91"/>
<polygon fill="#b28a2f" stroke="#b28a2f" stroke-width="1.3" points="836.81,-442.64 830.36,-437.15 831.97,-445.47 836.81,-442.64"/>
</g>
<!-- ActionTimeline -->
<g id="node11" class="node">
<title>ActionTimeline</title>
<path fill="#ffffff" stroke="none" stroke-width="1.4" d="M1009.62,-435.5C1009.62,-435.5 896.38,-435.5 896.38,-435.5 890.38,-435.5 884.38,-429.5 884.38,-423.5 884.38,-423.5 884.38,-276.25 884.38,-276.25 884.38,-270.25 890.38,-264.25 896.38,-264.25 896.38,-264.25 1009.62,-264.25 1009.62,-264.25 1015.62,-264.25 1021.62,-270.25 1021.62,-276.25 1021.62,-276.25 1021.62,-423.5 1021.62,-423.5 1021.62,-429.5 1015.62,-435.5 1009.62,-435.5"/>
<polygon fill="#e9fbff" stroke="none" points="885.38,-398.25 885.38,-434.5 1020.62,-434.5 1020.62,-398.25 885.38,-398.25"/>
<text xml:space="preserve" text-anchor="start" x="900.88" y="-412.3" font-family="Noto Sans KR" font-weight="bold" font-size="16.00" fill="#182033">ActionTimeline</text>
<text xml:space="preserve" text-anchor="start" x="893.38" y="-376" font-family="Noto Sans KR" font-size="14.00" fill="#182033">+ Phases[]</text>
<text xml:space="preserve" text-anchor="start" x="893.38" y="-342.75" font-family="Noto Sans KR" font-size="14.00" fill="#182033">+ Markers[]</text>
<text xml:space="preserve" text-anchor="start" x="893.38" y="-309.5" font-family="Noto Sans KR" font-size="14.00" fill="#182033">+ CancelWindows[]</text>
<text xml:space="preserve" text-anchor="start" x="893.38" y="-276.25" font-family="Noto Sans KR" font-size="14.00" fill="#182033">+ InterruptRules</text>
<polygon fill="none" stroke="#54b7cf" points="884.38,-264.25 884.38,-435.5 1021.62,-435.5 1021.62,-264.25 884.38,-264.25"/>
</g>
<!-- SkillDefinition&#45;&gt;ActionTimeline -->
<g id="edge8" class="edge">
<title>SkillDefinition&#45;&gt;ActionTimeline</title>
<path fill="none" stroke="#b28a2f" stroke-width="1.3" d="M953,-512.94C953,-489.96 953,-466.53 953,-444.89"/>
<polygon fill="#b28a2f" stroke="#b28a2f" stroke-width="1.3" points="955.8,-445.05 953,-437.05 950.2,-445.05 955.8,-445.05"/>
</g>
<!-- EffectBundle -->
<g id="node12" class="node">
<title>EffectBundle</title>
<path fill="#ffffff" stroke="none" stroke-width="1.4" d="M1343.5,-435.5C1343.5,-435.5 1076.5,-435.5 1076.5,-435.5 1070.5,-435.5 1064.5,-429.5 1064.5,-423.5 1064.5,-423.5 1064.5,-276.25 1064.5,-276.25 1064.5,-270.25 1070.5,-264.25 1076.5,-264.25 1076.5,-264.25 1343.5,-264.25 1343.5,-264.25 1349.5,-264.25 1355.5,-270.25 1355.5,-276.25 1355.5,-276.25 1355.5,-423.5 1355.5,-423.5 1355.5,-429.5 1349.5,-435.5 1343.5,-435.5"/>
<polygon fill="#fff7e6" stroke="none" points="1065.5,-398.25 1065.5,-434.5 1354.5,-434.5 1354.5,-398.25 1065.5,-398.25"/>
<text xml:space="preserve" text-anchor="start" x="1073.5" y="-412.3" font-family="Noto Sans KR" font-weight="bold" font-size="16.00" fill="#182033">&lt;&lt;public Effect contract&gt;&gt; EffectBundle</text>
<text xml:space="preserve" text-anchor="start" x="1073.5" y="-376" font-family="Noto Sans KR" font-size="14.00" fill="#182033">+ BundleId</text>
<text xml:space="preserve" text-anchor="start" x="1073.5" y="-342.75" font-family="Noto Sans KR" font-size="14.00" fill="#182033">+ Effects: EffectOperation[]</text>
<text xml:space="preserve" text-anchor="start" x="1073.5" y="-309.5" font-family="Noto Sans KR" font-size="14.00" fill="#182033">+ Reactions: ReactionRule[]</text>
<text xml:space="preserve" text-anchor="start" x="1073.5" y="-276.25" font-family="Noto Sans KR" font-size="14.00" fill="#182033">+ Policy: CommitThenReact</text>
<polygon fill="none" stroke="#e0ad4e" points="1064.5,-264.25 1064.5,-435.5 1355.5,-435.5 1355.5,-264.25 1064.5,-264.25"/>
</g>
<!-- SkillDefinition&#45;&gt;EffectBundle -->
<g id="edge9" class="edge">
<title>SkillDefinition&#45;&gt;EffectBundle</title>
<path fill="none" stroke="#b28a2f" stroke-width="1.3" d="M1009.72,-581.84C1045.14,-540.99 1091.29,-487.78 1130.35,-442.72"/>
<polygon fill="#b28a2f" stroke="#b28a2f" stroke-width="1.3" points="1132.39,-444.64 1135.52,-436.77 1128.16,-440.98 1132.39,-444.64"/>
</g>
<!-- SkillRuntime -->
<g id="node2" class="node">
<title>SkillRuntime</title>
<path fill="#ffffff" stroke="none" stroke-width="1.4" d="M1278.25,-179.25C1278.25,-179.25 1141.75,-179.25 1141.75,-179.25 1135.75,-179.25 1129.75,-173.25 1129.75,-167.25 1129.75,-167.25 1129.75,-20 1129.75,-20 1129.75,-14 1135.75,-8 1141.75,-8 1141.75,-8 1278.25,-8 1278.25,-8 1284.25,-8 1290.25,-14 1290.25,-20 1290.25,-20 1290.25,-167.25 1290.25,-167.25 1290.25,-173.25 1284.25,-179.25 1278.25,-179.25"/>
<polygon fill="#eaf0ff" stroke="none" points="1130.75,-142 1130.75,-178.25 1289.25,-178.25 1289.25,-142 1130.75,-142"/>
<text xml:space="preserve" text-anchor="start" x="1166.12" y="-156.05" font-family="Noto Sans KR" font-weight="bold" font-size="16.00" fill="#182033">SkillRuntime</text>
<text xml:space="preserve" text-anchor="start" x="1138.75" y="-119.75" font-family="Noto Sans KR" font-size="14.00" fill="#182033">+ CooldownRemaining</text>
<text xml:space="preserve" text-anchor="start" x="1138.75" y="-86.5" font-family="Noto Sans KR" font-size="14.00" fill="#182033">+ Charges</text>
<text xml:space="preserve" text-anchor="start" x="1138.75" y="-53.25" font-family="Noto Sans KR" font-size="14.00" fill="#182033">+ LearnedLevel</text>
<text xml:space="preserve" text-anchor="start" x="1138.75" y="-20" font-family="Noto Sans KR" font-size="14.00" fill="#182033">+ LastUsedTime</text>
<polygon fill="none" stroke="#8292f7" points="1129.75,-8 1129.75,-179.25 1290.25,-179.25 1290.25,-8 1129.75,-8"/>
</g>
<!-- SkillExecution -->
<g id="node3" class="node">
<title>SkillExecution</title>
<path fill="#ffffff" stroke="none" stroke-width="1.4" d="M1627,-179.25C1627,-179.25 1345,-179.25 1345,-179.25 1339,-179.25 1333,-173.25 1333,-167.25 1333,-167.25 1333,-20 1333,-20 1333,-14 1339,-8 1345,-8 1345,-8 1627,-8 1627,-8 1633,-8 1639,-14 1639,-20 1639,-20 1639,-167.25 1639,-167.25 1639,-173.25 1633,-179.25 1627,-179.25"/>
<polygon fill="#e9fbff" stroke="none" points="1334,-142 1334,-178.25 1638,-178.25 1638,-142 1334,-142"/>
<text xml:space="preserve" text-anchor="start" x="1342" y="-156.05" font-family="Noto Sans KR" font-weight="bold" font-size="16.00" fill="#182033">&lt;&lt;internal project model&gt;&gt; SkillExecution</text>
<text xml:space="preserve" text-anchor="start" x="1342" y="-119.75" font-family="Noto Sans KR" font-size="14.00" fill="#182033">+ ExecutionId</text>
<text xml:space="preserve" text-anchor="start" x="1342" y="-86.5" font-family="Noto Sans KR" font-size="14.00" fill="#182033">+ Phase</text>
<text xml:space="preserve" text-anchor="start" x="1342" y="-53.25" font-family="Noto Sans KR" font-size="14.00" fill="#182033">+ ReleaseMarker?</text>
<text xml:space="preserve" text-anchor="start" x="1342" y="-20" font-family="Noto Sans KR" font-size="14.00" fill="#182033">+ CancelState</text>
<polygon fill="none" stroke="#54b7cf" points="1333,-8 1333,-179.25 1639,-179.25 1639,-8 1333,-8"/>
</g>
<!-- SkillExecution&#45;&gt;ActionTimeline -->
<g id="edge16" class="edge">
<title>SkillExecution&#45;&gt;ActionTimeline</title>
<path fill="none" stroke="#3f8fa7" stroke-width="1.3" stroke-dasharray="5,2" d="M1357.26,-179.25C1331.41,-196.24 1312,-209 1312,-209 1312,-209 1043,-264.25 1043,-264.25 1043,-264.25 1037.14,-269.76 1028.4,-277.98"/>
<polygon fill="#3f8fa7" stroke="#3f8fa7" stroke-width="1.3" points="1026.56,-275.87 1022.65,-283.39 1030.39,-279.95 1026.56,-275.87"/>
<text xml:space="preserve" text-anchor="middle" x="1329.2" y="-220.95" font-family="Noto Sans KR" font-size="14.00" fill="#317487">advances timeline</text>
</g>
<!-- SkillBook -->
<g id="node4" class="node">
<title>SkillBook</title>
<path fill="#ffffff" stroke="none" stroke-width="1.4" d="M956.5,-162.62C956.5,-162.62 857.5,-162.62 857.5,-162.62 851.5,-162.62 845.5,-156.62 845.5,-150.62 845.5,-150.62 845.5,-36.62 845.5,-36.62 845.5,-30.62 851.5,-24.62 857.5,-24.62 857.5,-24.62 956.5,-24.62 956.5,-24.62 962.5,-24.62 968.5,-30.62 968.5,-36.62 968.5,-36.62 968.5,-150.62 968.5,-150.62 968.5,-156.62 962.5,-162.62 956.5,-162.62"/>
<polygon fill="#eaf0ff" stroke="none" points="846.5,-125.38 846.5,-161.62 967.5,-161.62 967.5,-125.38 846.5,-125.38"/>
<text xml:space="preserve" text-anchor="start" x="874" y="-139.43" font-family="Noto Sans KR" font-weight="bold" font-size="16.00" fill="#182033">SkillBook</text>
<text xml:space="preserve" text-anchor="start" x="854.5" y="-103.12" font-family="Noto Sans KR" font-size="14.00" fill="#182033">+ Owner: EntityId</text>
<text xml:space="preserve" text-anchor="start" x="854.5" y="-69.88" font-family="Noto Sans KR" font-size="14.00" fill="#182033">+ LearnedSkills</text>
<text xml:space="preserve" text-anchor="start" x="854.5" y="-36.62" font-family="Noto Sans KR" font-size="14.00" fill="#182033">+ GetRuntime()</text>
<polygon fill="none" stroke="#8292f7" points="845.5,-24.62 845.5,-162.62 968.5,-162.62 968.5,-24.62 845.5,-24.62"/>
</g>
<!-- SkillBook&#45;&gt;SkillRuntime -->
<g id="edge13" class="edge">
<title>SkillBook&#45;&gt;SkillRuntime</title>
<path fill="none" stroke="#59687e" stroke-width="1.3" d="M968.32,-93.62C1011.84,-93.62 1070.96,-93.62 1119.84,-93.62"/>
<polygon fill="#59687e" stroke="#59687e" stroke-width="1.3" points="1119.82,-96.43 1127.82,-93.63 1119.82,-90.83 1119.82,-96.43"/>
<text xml:space="preserve" text-anchor="middle" x="1049.12" y="-100.58" font-family="Noto Sans KR" font-size="14.00" fill="#46566e">owns runtime state</text>
</g>
<!-- SkillRequest -->
<g id="node5" class="node">
<title>SkillRequest</title>
<path fill="#ffffff" stroke="none" stroke-width="1.4" d="M240.25,-1057C240.25,-1057 19.75,-1057 19.75,-1057 13.75,-1057 7.75,-1051 7.75,-1045 7.75,-1045 7.75,-864.5 7.75,-864.5 7.75,-858.5 13.75,-852.5 19.75,-852.5 19.75,-852.5 240.25,-852.5 240.25,-852.5 246.25,-852.5 252.25,-858.5 252.25,-864.5 252.25,-864.5 252.25,-1045 252.25,-1045 252.25,-1051 246.25,-1057 240.25,-1057"/>
<polygon fill="#eefbf6" stroke="none" points="8.75,-1019.75 8.75,-1056 251.25,-1056 251.25,-1019.75 8.75,-1019.75"/>
<text xml:space="preserve" text-anchor="start" x="16.75" y="-1033.8" font-family="Noto Sans KR" font-weight="bold" font-size="16.00" fill="#182033">&lt;&lt;public contract&gt;&gt; SkillRequest</text>
<text xml:space="preserve" text-anchor="start" x="16.75" y="-997.5" font-family="Noto Sans KR" font-size="14.00" fill="#182033">+ CasterId</text>
<text xml:space="preserve" text-anchor="start" x="16.75" y="-964.25" font-family="Noto Sans KR" font-size="14.00" fill="#182033">+ SkillId</text>
<text xml:space="preserve" text-anchor="start" x="16.75" y="-931" font-family="Noto Sans KR" font-size="14.00" fill="#182033">+ TargetId?</text>
<text xml:space="preserve" text-anchor="start" x="16.75" y="-897.75" font-family="Noto Sans KR" font-size="14.00" fill="#182033">+ RequestedTick</text>
<text xml:space="preserve" text-anchor="start" x="16.75" y="-864.5" font-family="Noto Sans KR" font-size="14.00" fill="#182033">+ RootSeed</text>
<polygon fill="none" stroke="#61b99a" points="7.75,-852.5 7.75,-1057 252.25,-1057 252.25,-852.5 7.75,-852.5"/>
</g>
<!-- SkillValidator -->
<g id="node6" class="node">
<title>SkillValidator</title>
<path fill="#ffffff" stroke="none" stroke-width="1.4" d="M695,-990.5C695,-990.5 407,-990.5 407,-990.5 401,-990.5 395,-984.5 395,-978.5 395,-978.5 395,-931 395,-931 395,-925 401,-919 407,-919 407,-919 695,-919 695,-919 701,-919 707,-925 707,-931 707,-931 707,-978.5 707,-978.5 707,-984.5 701,-990.5 695,-990.5"/>
<polygon fill="#f3eefc" stroke="none" points="396,-953.25 396,-989.5 706,-989.5 706,-953.25 396,-953.25"/>
<text xml:space="preserve" text-anchor="start" x="404" y="-967.3" font-family="Noto Sans KR" font-weight="bold" font-size="16.00" fill="#182033">&lt;&lt;public interface&gt;&gt; ISkillRequestValidator</text>
<text xml:space="preserve" text-anchor="start" x="404" y="-931" font-family="Noto Sans KR" font-size="14.00" fill="#182033">+ Validate(SkillRequest): SkillDecision</text>
<polygon fill="none" stroke="#ab8fe0" points="395,-919 395,-990.5 707,-990.5 707,-919 395,-919"/>
</g>
<!-- SkillRequest&#45;&gt;SkillValidator -->
<g id="edge1" class="edge">
<title>SkillRequest&#45;&gt;SkillValidator</title>
<path fill="none" stroke="#59687e" stroke-width="1.3" d="M252.05,-954.75C293.68,-954.75 340.94,-954.75 385.4,-954.75"/>
<polygon fill="#59687e" stroke="#59687e" stroke-width="1.3" points="385.17,-957.55 393.17,-954.75 385.17,-951.95 385.17,-957.55"/>
<text xml:space="preserve" text-anchor="middle" x="323.62" y="-961.7" font-family="Noto Sans KR" font-size="14.00" fill="#46566e">Validate request</text>
</g>
<!-- SkillDecision -->
<g id="node7" class="node">
<title>SkillDecision</title>
<path fill="#ffffff" stroke="none" stroke-width="1.4" d="M1064.75,-1023.75C1064.75,-1023.75 841.25,-1023.75 841.25,-1023.75 835.25,-1023.75 829.25,-1017.75 829.25,-1011.75 829.25,-1011.75 829.25,-897.75 829.25,-897.75 829.25,-891.75 835.25,-885.75 841.25,-885.75 841.25,-885.75 1064.75,-885.75 1064.75,-885.75 1070.75,-885.75 1076.75,-891.75 1076.75,-897.75 1076.75,-897.75 1076.75,-1011.75 1076.75,-1011.75 1076.75,-1017.75 1070.75,-1023.75 1064.75,-1023.75"/>
<polygon fill="#f3eefc" stroke="none" points="830.25,-986.5 830.25,-1022.75 1075.75,-1022.75 1075.75,-986.5 830.25,-986.5"/>
<text xml:space="preserve" text-anchor="start" x="838.25" y="-1000.55" font-family="Noto Sans KR" font-weight="bold" font-size="16.00" fill="#182033">&lt;&lt;public contract&gt;&gt; SkillDecision</text>
<text xml:space="preserve" text-anchor="start" x="838.25" y="-964.25" font-family="Noto Sans KR" font-size="14.00" fill="#182033">+ CanExecute</text>
<text xml:space="preserve" text-anchor="start" x="838.25" y="-931" font-family="Noto Sans KR" font-size="14.00" fill="#182033">+ FailureReason?</text>
<text xml:space="preserve" text-anchor="start" x="838.25" y="-897.75" font-family="Noto Sans KR" font-size="14.00" fill="#182033">+ Accepted() / Rejected(reason)</text>
<polygon fill="none" stroke="#ab8fe0" points="829.25,-885.75 829.25,-1023.75 1076.75,-1023.75 1076.75,-885.75 829.25,-885.75"/>
</g>
<!-- SkillValidator&#45;&gt;SkillDecision -->
<g id="edge2" class="edge">
<title>SkillValidator&#45;&gt;SkillDecision</title>
<path fill="none" stroke="#59687e" stroke-width="1.3" d="M707,-954.75C744.28,-954.75 783.73,-954.75 819.87,-954.75"/>
<polygon fill="#59687e" stroke="#59687e" stroke-width="1.3" points="819.51,-957.55 827.51,-954.75 819.51,-951.95 819.51,-957.55"/>
<text xml:space="preserve" text-anchor="middle" x="768.12" y="-961.7" font-family="Noto Sans KR" font-size="14.00" fill="#46566e">SkillDecision</text>
</g>
<!-- SkillValidator&#45;&gt;CostPolicy -->
<g id="edge10" class="edge">
<title>SkillValidator&#45;&gt;CostPolicy</title>
<path fill="none" stroke="#8d6cc7" stroke-width="1.1" stroke-dasharray="5,2" d="M544.86,-919.17C528.76,-828.43 484.86,-581.1 460.63,-444.55"/>
<polygon fill="#8d6cc7" stroke="#8d6cc7" stroke-width="1.1" points="463.43,-444.34 459.28,-436.96 457.92,-445.32 463.43,-444.34"/>
</g>
<!-- SkillValidator&#45;&gt;CooldownPolicy -->
<g id="edge11" class="edge">
<title>SkillValidator&#45;&gt;CooldownPolicy</title>
<path fill="none" stroke="#8d6cc7" stroke-width="1.1" stroke-dasharray="5,2" d="M548.37,-919.27C545.41,-880.38 541,-822.5 541,-822.5 541,-822.5 541,-821.5 541,-821.5 541,-821.5 774,-512.75 774,-512.75 774,-512.75 1215,-482.75 1215,-482.75 1215,-482.75 1215,-465.5 1215,-465.5 1215,-465.5 697,-435.5 697,-435.5 697,-435.5 691.04,-429.77 682.22,-421.29"/>
<polygon fill="#8d6cc7" stroke="#8d6cc7" stroke-width="1.1" points="684.6,-419.7 676.9,-416.17 680.72,-423.73 684.6,-419.7"/>
</g>
<!-- SkillValidator&#45;&gt;TargetingSpec -->
<g id="edge12" class="edge">
<title>SkillValidator&#45;&gt;TargetingSpec</title>
<path fill="none" stroke="#8d6cc7" stroke-width="1.1" stroke-dasharray="5,2" d="M586.1,-919.08C628.15,-877.55 693,-813.5 693,-813.5 693,-813.5 875,-512.75 875,-512.75 875,-512.75 1247,-482.75 1247,-482.75 1247,-482.75 1247,-465.5 1247,-465.5 1247,-465.5 863,-435.5 863,-435.5 863,-435.5 856.82,-429.2 847.82,-420.03"/>
<polygon fill="#8d6cc7" stroke="#8d6cc7" stroke-width="1.1" points="849.96,-418.21 842.36,-414.45 845.96,-422.13 849.96,-418.21"/>
</g>
<!-- SkillDecision&#45;&gt;SkillDefinition -->
<!-- Coordinator -->
<g id="node13" class="node">
<title>Coordinator</title>
<path fill="#ffffff" stroke="none" stroke-width="1.4" d="M1597.62,-1029.62C1597.62,-1029.62 1238.38,-1029.62 1238.38,-1029.62 1232.38,-1029.62 1226.38,-1023.62 1226.38,-1017.62 1226.38,-1017.62 1226.38,-891.88 1226.38,-891.88 1226.38,-885.88 1232.38,-879.88 1238.38,-879.88 1238.38,-879.88 1597.62,-879.88 1597.62,-879.88 1603.62,-879.88 1609.62,-885.88 1609.62,-891.88 1609.62,-891.88 1609.62,-1017.62 1609.62,-1017.62 1609.62,-1023.62 1603.62,-1029.62 1597.62,-1029.62"/>
<polygon fill="#f0f3f9" stroke="none" points="1227.38,-980.62 1227.38,-1028.62 1608.62,-1028.62 1608.62,-980.62 1227.38,-980.62"/>
<text xml:space="preserve" text-anchor="start" x="1276.62" y="-1006.42" font-family="Noto Sans KR" font-weight="bold" font-size="16.00" fill="#182033">&lt;&lt;internal project&#45;specific coordinator&gt;&gt;</text>
<text xml:space="preserve" text-anchor="start" x="1327.25" y="-990.42" font-family="Noto Sans KR" font-weight="bold" font-size="16.00" fill="#182033">SkillExecutionCoordinator</text>
<text xml:space="preserve" text-anchor="start" x="1235.38" y="-958.38" font-family="Noto Sans KR" font-size="14.00" fill="#182033">+ Begin(request): SkillExecution</text>
<text xml:space="preserve" text-anchor="start" x="1235.38" y="-925.12" font-family="Noto Sans KR" font-size="14.00" fill="#182033">+ PrepareRelease(execution): &lt;&lt;internal&gt;&gt; SkillReleasePlan</text>
<text xml:space="preserve" text-anchor="start" x="1235.38" y="-891.88" font-family="Noto Sans KR" font-size="14.00" fill="#182033">+ Interrupt(execution): SkillResult</text>
<polygon fill="none" stroke="#99a8bd" points="1226.38,-879.88 1226.38,-1029.62 1609.62,-1029.62 1609.62,-879.88 1226.38,-879.88"/>
</g>
<!-- SkillDecision&#45;&gt;Coordinator -->
<g id="edge3" class="edge">
<title>SkillDecision&#45;&gt;Coordinator</title>
<path fill="none" stroke="#59687e" stroke-width="1.3" d="M1076.7,-954.75C1119.74,-954.75 1169.2,-954.75 1216.88,-954.75"/>
<polygon fill="#59687e" stroke="#59687e" stroke-width="1.3" points="1216.73,-957.55 1224.73,-954.75 1216.73,-951.95 1216.73,-957.55"/>
<text xml:space="preserve" text-anchor="middle" x="1151.56" y="-961.7" font-family="Noto Sans KR" font-size="14.00" fill="#46566e">accepted request</text>
</g>
<!-- EffectBundle&#45;&gt;SkillRuntime -->
<!-- Coordinator&#45;&gt;SkillRuntime -->
<g id="edge14" class="edge">
<title>Coordinator&#45;&gt;SkillRuntime</title>
<path fill="none" stroke="#59687e" stroke-width="1.3" d="M1412.44,-879.96C1399.02,-702.09 1366,-264.25 1366,-264.25 1366,-264.25 1312,-209 1312,-209 1312,-209 1303.75,-199.75 1291.94,-186.51"/>
<polygon fill="#59687e" stroke="#59687e" stroke-width="1.3" points="1294.19,-184.82 1286.78,-180.72 1290.01,-188.55 1294.19,-184.82"/>
<text xml:space="preserve" text-anchor="middle" x="1476.2" y="-469.45" font-family="Noto Sans KR" font-size="14.00" fill="#46566e">read snapshot / plan mutation</text>
</g>
<!-- Coordinator&#45;&gt;SkillExecution -->
<g id="edge15" class="edge">
<title>Coordinator&#45;&gt;SkillExecution</title>
<path fill="none" stroke="#59687e" stroke-width="1.3" d="M1448.11,-879.9C1502.14,-747.34 1610,-482.75 1610,-482.75 1610,-482.75 1610,-465.5 1610,-465.5 1610,-465.5 1554.08,-298.24 1517.34,-188.37"/>
<polygon fill="#59687e" stroke="#59687e" stroke-width="1.3" points="1520.11,-187.81 1514.92,-181.11 1514.8,-189.59 1520.11,-187.81"/>
<text xml:space="preserve" text-anchor="middle" x="1664" y="-469.45" font-family="Noto Sans KR" font-size="14.00" fill="#46566e">creates execution</text>
</g>
<!-- Coordinator&#45;&gt;EffectBundle -->
<g id="edge17" class="edge">
<title>Coordinator&#45;&gt;EffectBundle</title>
<path fill="none" stroke="#3f8fa7" stroke-width="1.3" stroke-dasharray="5,2" d="M1570.53,-879.88C1632.15,-850.03 1689,-822.5 1689,-822.5 1689,-822.5 1766,-482.75 1766,-482.75 1766,-482.75 1766,-465.5 1766,-465.5 1766,-465.5 1529.61,-416.76 1365.1,-382.85"/>
<polygon fill="#3f8fa7" stroke="#3f8fa7" stroke-width="1.3" points="1365.68,-380.11 1357.28,-381.24 1364.55,-385.6 1365.68,-380.11"/>
<text xml:space="preserve" text-anchor="middle" x="1845.05" y="-643.58" font-family="Noto Sans KR" font-size="14.00" fill="#317487">IEffectPlanner.Prepare input</text>
</g>
<!-- SkillResult -->
<g id="node14" class="node">
<title>SkillResult</title>
<path fill="#ffffff" stroke="none" stroke-width="1.4" d="M1993,-1023.75C1993,-1023.75 1771,-1023.75 1771,-1023.75 1765,-1023.75 1759,-1017.75 1759,-1011.75 1759,-1011.75 1759,-897.75 1759,-897.75 1759,-891.75 1765,-885.75 1771,-885.75 1771,-885.75 1993,-885.75 1993,-885.75 1999,-885.75 2005,-891.75 2005,-897.75 2005,-897.75 2005,-1011.75 2005,-1011.75 2005,-1017.75 1999,-1023.75 1993,-1023.75"/>
<polygon fill="#f0f3f9" stroke="none" points="1760,-986.5 1760,-1022.75 2004,-1022.75 2004,-986.5 1760,-986.5"/>
<text xml:space="preserve" text-anchor="start" x="1775.88" y="-1000.55" font-family="Noto Sans KR" font-weight="bold" font-size="16.00" fill="#182033">&lt;&lt;public contract&gt;&gt; SkillResult</text>
<text xml:space="preserve" text-anchor="start" x="1768" y="-964.25" font-family="Noto Sans KR" font-size="14.00" fill="#182033">+ Succeeded</text>
<text xml:space="preserve" text-anchor="start" x="1768" y="-931" font-family="Noto Sans KR" font-size="14.00" fill="#182033">+ FailureReason?</text>
<text xml:space="preserve" text-anchor="start" x="1768" y="-897.75" font-family="Noto Sans KR" font-size="14.00" fill="#182033">+ Effects: IReadOnlyList&lt;EffectResult&gt;</text>
<polygon fill="none" stroke="#99a8bd" points="1759,-885.75 1759,-1023.75 2005,-1023.75 2005,-885.75 1759,-885.75"/>
</g>
<!-- Coordinator&#45;&gt;SkillResult -->
<g id="edge4" class="edge">
<title>Coordinator&#45;&gt;SkillResult</title>
<path fill="none" stroke="#59687e" stroke-width="1.3" d="M1609.41,-954.75C1656.4,-954.75 1705.69,-954.75 1749.24,-954.75"/>
<polygon fill="#59687e" stroke="#59687e" stroke-width="1.3" points="1749.05,-957.55 1757.05,-954.75 1749.05,-951.95 1749.05,-957.55"/>
<text xml:space="preserve" text-anchor="middle" x="1684.31" y="-961.7" font-family="Noto Sans KR" font-size="14.00" fill="#46566e">public SkillResult</text>
</g>
</g>
</svg>
