<?xml version="1.0" encoding="UTF-8" standalone="no"?>
<!DOCTYPE svg PUBLIC "-//W3C//DTD SVG 1.1//EN"
 "http://www.w3.org/Graphics/SVG/1.1/DTD/svg11.dtd">
<!-- Generated by graphviz version 15.0.0 (20260523.1842)
 -->
<!-- Title: G Pages: 1 -->
<svg width="1040pt" height="1265pt"
 viewBox="9.00 9.00 1031.00 1256.00" xmlns="http://www.w3.org/2000/svg" xmlns:xlink="http://www.w3.org/1999/xlink">
<g id="graph0" class="graph" transform="scale(1 1) rotate(0) translate(26.64 1238.04)">
<title>G</title>
<polygon fill="#ffffff" stroke="none" points="-18,18 -18,-1229.4 1004.74,-1229.4 1004.74,18 -18,18"/>
<!-- SkillDefinition -->
<g id="node1" class="node">
<title>SkillDefinition</title>
<path fill="#ffffff" stroke="none" stroke-width="1.4" d="M674.36,-657.6C674.36,-657.6 580.79,-657.6 580.79,-657.6 574.79,-657.6 568.79,-651.6 568.79,-645.6 568.79,-645.6 568.79,-402.8 568.79,-402.8 568.79,-396.8 574.79,-390.8 580.79,-390.8 580.79,-390.8 674.36,-390.8 674.36,-390.8 680.36,-390.8 686.36,-396.8 686.36,-402.8 686.36,-402.8 686.36,-645.6 686.36,-645.6 686.36,-651.6 680.36,-657.6 674.36,-657.6"/>
<polygon fill="#fff7e6" stroke="none" points="569.79,-621.4 569.79,-656.6 685.36,-656.6 685.36,-621.4 569.79,-621.4"/>
<text xml:space="preserve" text-anchor="start" x="577.79" y="-635.2" font-family="Noto Sans CJK KR" font-weight="bold" font-size="16.00" fill="#182033">SkillDefinition</text>
<text xml:space="preserve" text-anchor="start" x="577.79" y="-599.4" font-family="Noto Sans CJK KR" font-size="14.00" fill="#182033">+ SkillId</text>
<text xml:space="preserve" text-anchor="start" x="577.79" y="-566.6" font-family="Noto Sans CJK KR" font-size="14.00" fill="#182033">+ Tags: Tag[]</text>
<text xml:space="preserve" text-anchor="start" x="577.79" y="-533.8" font-family="Noto Sans CJK KR" font-size="14.00" fill="#182033">+ Costs[]</text>
<text xml:space="preserve" text-anchor="start" x="577.79" y="-501" font-family="Noto Sans CJK KR" font-size="14.00" fill="#182033">+ Cooldown</text>
<text xml:space="preserve" text-anchor="start" x="577.79" y="-468.2" font-family="Noto Sans CJK KR" font-size="14.00" fill="#182033">+ Targeting</text>
<text xml:space="preserve" text-anchor="start" x="577.79" y="-435.4" font-family="Noto Sans CJK KR" font-size="14.00" fill="#182033">+ Timeline</text>
<text xml:space="preserve" text-anchor="start" x="577.79" y="-402.6" font-family="Noto Sans CJK KR" font-size="14.00" fill="#182033">+ EffectBundle</text>
<polygon fill="none" stroke="#e0ad4e" points="568.79,-390.8 568.79,-657.6 686.36,-657.6 686.36,-390.8 568.79,-390.8"/>
</g>
<!-- CostPolicy -->
<g id="node6" class="node">
<title>CostPolicy</title>
<path fill="#ffffff" stroke="none" stroke-width="1.4" d="M962.31,-576.4C962.31,-576.4 879.92,-576.4 879.92,-576.4 873.92,-576.4 867.92,-570.4 867.92,-564.4 867.92,-564.4 867.92,-420 867.92,-420 867.92,-414 873.92,-408 879.92,-408 879.92,-408 962.31,-408 962.31,-408 968.31,-408 974.31,-414 974.31,-420 974.31,-420 974.31,-564.4 974.31,-564.4 974.31,-570.4 968.31,-576.4 962.31,-576.4"/>
<polygon fill="#fff0f3" stroke="none" points="868.92,-540.2 868.92,-575.4 973.31,-575.4 973.31,-540.2 868.92,-540.2"/>
<text xml:space="preserve" text-anchor="start" x="884.68" y="-554" font-family="Noto Sans CJK KR" font-weight="bold" font-size="16.00" fill="#182033">CostPolicy</text>
<text xml:space="preserve" text-anchor="start" x="876.92" y="-518.2" font-family="Noto Sans CJK KR" font-size="14.00" fill="#182033">+ Resource</text>
<text xml:space="preserve" text-anchor="start" x="876.92" y="-485.4" font-family="Noto Sans CJK KR" font-size="14.00" fill="#182033">+ Amount</text>
<text xml:space="preserve" text-anchor="start" x="876.92" y="-452.6" font-family="Noto Sans CJK KR" font-size="14.00" fill="#182033">+ PayTiming</text>
<text xml:space="preserve" text-anchor="start" x="876.92" y="-419.8" font-family="Noto Sans CJK KR" font-size="14.00" fill="#182033">+ RefundPolicy</text>
<polygon fill="none" stroke="#e07b91" points="867.92,-408 867.92,-576.4 974.31,-576.4 974.31,-408 867.92,-408"/>
</g>
<!-- SkillDefinition&#45;&gt;CostPolicy -->
<g id="edge2" class="edge">
<title>SkillDefinition&#45;&gt;CostPolicy</title>
<path fill="none" stroke="#59687e" stroke-width="1.3" d="M686.27,-520.27C686.27,-520.27 857.98,-520.27 857.98,-520.27"/>
<polygon fill="#59687e" stroke="#59687e" stroke-width="1.3" points="857.98,-523.07 865.98,-520.27 857.98,-517.47 857.98,-523.07"/>
<text xml:space="preserve" text-anchor="middle" x="802.88" y="-527.4" font-family="Noto Sans CJK KR" font-size="14.00" fill="#46566e">has</text>
</g>
<!-- CooldownPolicy -->
<g id="node7" class="node">
<title>CooldownPolicy</title>
<path fill="#ffffff" stroke="none" stroke-width="1.4" d="M973.67,-168.4C973.67,-168.4 868.56,-168.4 868.56,-168.4 862.56,-168.4 856.56,-162.4 856.56,-156.4 856.56,-156.4 856.56,-12 856.56,-12 856.56,-6 862.56,0 868.56,0 868.56,0 973.67,0 973.67,0 979.67,0 985.67,-6 985.67,-12 985.67,-12 985.67,-156.4 985.67,-156.4 985.67,-162.4 979.67,-168.4 973.67,-168.4"/>
<polygon fill="#fff0f3" stroke="none" points="857.56,-132.2 857.56,-167.4 984.67,-167.4 984.67,-132.2 857.56,-132.2"/>
<text xml:space="preserve" text-anchor="start" x="865.56" y="-146" font-family="Noto Sans CJK KR" font-weight="bold" font-size="16.00" fill="#182033">CooldownPolicy</text>
<text xml:space="preserve" text-anchor="start" x="865.56" y="-110.2" font-family="Noto Sans CJK KR" font-size="14.00" fill="#182033">+ Duration</text>
<text xml:space="preserve" text-anchor="start" x="865.56" y="-77.4" font-family="Noto Sans CJK KR" font-size="14.00" fill="#182033">+ Group?</text>
<text xml:space="preserve" text-anchor="start" x="865.56" y="-44.6" font-family="Noto Sans CJK KR" font-size="14.00" fill="#182033">+ Charges?</text>
<text xml:space="preserve" text-anchor="start" x="865.56" y="-11.8" font-family="Noto Sans CJK KR" font-size="14.00" fill="#182033">+ StartsAt</text>
<polygon fill="none" stroke="#e07b91" points="856.56,0 856.56,-168.4 985.67,-168.4 985.67,0 856.56,0"/>
</g>
<!-- SkillDefinition&#45;&gt;CooldownPolicy -->
<g id="edge3" class="edge">
<title>SkillDefinition&#45;&gt;CooldownPolicy</title>
<path fill="none" stroke="#59687e" stroke-width="1.3" d="M686.34,-396.53C706.8,-396.53 724.74,-396.53 724.74,-396.53 724.74,-396.53 724.74,-163.47 724.74,-163.47 724.74,-163.47 846.85,-163.47 846.85,-163.47"/>
<polygon fill="#59687e" stroke="#59687e" stroke-width="1.3" points="846.85,-166.27 854.85,-163.47 846.85,-160.67 846.85,-166.27"/>
<text xml:space="preserve" text-anchor="middle" x="802.88" y="-337.4" font-family="Noto Sans CJK KR" font-size="14.00" fill="#46566e">has</text>
</g>
<!-- TargetingSpec -->
<g id="node8" class="node">
<title>TargetingSpec</title>
<path fill="#ffffff" stroke="none" stroke-width="1.4" d="M967.89,-372.4C967.89,-372.4 874.34,-372.4 874.34,-372.4 868.34,-372.4 862.34,-366.4 862.34,-360.4 862.34,-360.4 862.34,-216 862.34,-216 862.34,-210 868.34,-204 874.34,-204 874.34,-204 967.89,-204 967.89,-204 973.89,-204 979.89,-210 979.89,-216 979.89,-216 979.89,-360.4 979.89,-360.4 979.89,-366.4 973.89,-372.4 967.89,-372.4"/>
<polygon fill="#e9fbff" stroke="none" points="863.34,-336.2 863.34,-371.4 978.89,-371.4 978.89,-336.2 863.34,-336.2"/>
<text xml:space="preserve" text-anchor="start" x="871.34" y="-350" font-family="Noto Sans CJK KR" font-weight="bold" font-size="16.00" fill="#182033">TargetingSpec</text>
<text xml:space="preserve" text-anchor="start" x="871.34" y="-314.2" font-family="Noto Sans CJK KR" font-size="14.00" fill="#182033">+ Type</text>
<text xml:space="preserve" text-anchor="start" x="871.34" y="-281.4" font-family="Noto Sans CJK KR" font-size="14.00" fill="#182033">+ Range</text>
<text xml:space="preserve" text-anchor="start" x="871.34" y="-248.6" font-family="Noto Sans CJK KR" font-size="14.00" fill="#182033">+ LineOfSight</text>
<text xml:space="preserve" text-anchor="start" x="871.34" y="-215.8" font-family="Noto Sans CJK KR" font-size="14.00" fill="#182033">+ PreviewShape?</text>
<polygon fill="none" stroke="#54b7cf" points="862.34,-204 862.34,-372.4 979.89,-372.4 979.89,-204 862.34,-204"/>
</g>
<!-- SkillDefinition&#45;&gt;TargetingSpec -->
<g id="edge4" class="edge">
<title>SkillDefinition&#45;&gt;TargetingSpec</title>
<path fill="none" stroke="#59687e" stroke-width="1.3" d="M686.2,-402.27C771.75,-402.27 920.74,-402.27 920.74,-402.27 920.74,-402.27 920.74,-382.26 920.74,-382.26"/>
<polygon fill="#59687e" stroke="#59687e" stroke-width="1.3" points="923.54,-382.26 920.74,-374.26 917.94,-382.26 923.54,-382.26"/>
<text xml:space="preserve" text-anchor="middle" x="802.88" y="-467.4" font-family="Noto Sans CJK KR" font-size="14.00" fill="#46566e">has</text>
</g>
<!-- ActionTimeline -->
<g id="node9" class="node">
<title>ActionTimeline</title>
<path fill="#ffffff" stroke="none" stroke-width="1.4" d="M974.74,-780.4C974.74,-780.4 867.49,-780.4 867.49,-780.4 861.49,-780.4 855.49,-774.4 855.49,-768.4 855.49,-768.4 855.49,-624 855.49,-624 855.49,-618 861.49,-612 867.49,-612 867.49,-612 974.74,-612 974.74,-612 980.74,-612 986.74,-618 986.74,-624 986.74,-624 986.74,-768.4 986.74,-768.4 986.74,-774.4 980.74,-780.4 974.74,-780.4"/>
<polygon fill="#e9fbff" stroke="none" points="856.49,-744.2 856.49,-779.4 985.74,-779.4 985.74,-744.2 856.49,-744.2"/>
<text xml:space="preserve" text-anchor="start" x="868.23" y="-758" font-family="Noto Sans CJK KR" font-weight="bold" font-size="16.00" fill="#182033">ActionTimeline</text>
<text xml:space="preserve" text-anchor="start" x="864.49" y="-722.2" font-family="Noto Sans CJK KR" font-size="14.00" fill="#182033">+ Phases[]</text>
<text xml:space="preserve" text-anchor="start" x="864.49" y="-689.4" font-family="Noto Sans CJK KR" font-size="14.00" fill="#182033">+ Markers[]</text>
<text xml:space="preserve" text-anchor="start" x="864.49" y="-656.6" font-family="Noto Sans CJK KR" font-size="14.00" fill="#182033">+ CancelWindows[]</text>
<text xml:space="preserve" text-anchor="start" x="864.49" y="-623.8" font-family="Noto Sans CJK KR" font-size="14.00" fill="#182033">+ InterruptRules</text>
<polygon fill="none" stroke="#54b7cf" points="855.49,-612 855.49,-780.4 986.74,-780.4 986.74,-612 855.49,-612"/>
</g>
<!-- SkillDefinition&#45;&gt;ActionTimeline -->
<g id="edge5" class="edge">
<title>SkillDefinition&#45;&gt;ActionTimeline</title>
<path fill="none" stroke="#59687e" stroke-width="1.3" d="M686.27,-634.8C686.27,-634.8 845.65,-634.8 845.65,-634.8"/>
<polygon fill="#59687e" stroke="#59687e" stroke-width="1.3" points="845.65,-637.6 853.65,-634.8 845.65,-632 845.65,-637.6"/>
<text xml:space="preserve" text-anchor="middle" x="802.88" y="-598.4" font-family="Noto Sans CJK KR" font-size="14.00" fill="#46566e">has</text>
</g>
<!-- EffectBundle -->
<g id="node10" class="node">
<title>EffectBundle</title>
<path fill="#ffffff" stroke="none" stroke-width="1.4" d="M970.08,-952C970.08,-952 872.15,-952 872.15,-952 866.15,-952 860.15,-946 860.15,-940 860.15,-940 860.15,-828.4 860.15,-828.4 860.15,-822.4 866.15,-816.4 872.15,-816.4 872.15,-816.4 970.08,-816.4 970.08,-816.4 976.08,-816.4 982.08,-822.4 982.08,-828.4 982.08,-828.4 982.08,-940 982.08,-940 982.08,-946 976.08,-952 970.08,-952"/>
<polygon fill="#fff7e6" stroke="none" points="861.15,-915.8 861.15,-951 981.08,-951 981.08,-915.8 861.15,-915.8"/>
<text xml:space="preserve" text-anchor="start" x="876.23" y="-929.6" font-family="Noto Sans CJK KR" font-weight="bold" font-size="16.00" fill="#182033">EffectBundle</text>
<text xml:space="preserve" text-anchor="start" x="869.15" y="-893.8" font-family="Noto Sans CJK KR" font-size="14.00" fill="#182033">+ Effects[]</text>
<text xml:space="preserve" text-anchor="start" x="869.15" y="-861" font-family="Noto Sans CJK KR" font-size="14.00" fill="#182033">+ ExecutionPolicy</text>
<text xml:space="preserve" text-anchor="start" x="869.15" y="-828.2" font-family="Noto Sans CJK KR" font-size="14.00" fill="#182033">+ StopPolicy</text>
<polygon fill="none" stroke="#e0ad4e" points="860.15,-816.4 860.15,-952 982.08,-952 982.08,-816.4 860.15,-816.4"/>
</g>
<!-- SkillDefinition&#45;&gt;EffectBundle -->
<g id="edge6" class="edge">
<title>SkillDefinition&#45;&gt;EffectBundle</title>
<path fill="none" stroke="#59687e" stroke-width="1.3" d="M627.74,-657.25C627.74,-741.53 627.74,-834.73 627.74,-834.73 627.74,-834.73 850.36,-834.73 850.36,-834.73"/>
<polygon fill="#59687e" stroke="#59687e" stroke-width="1.3" points="850.36,-837.53 858.36,-834.73 850.36,-831.93 850.36,-837.53"/>
<text xml:space="preserve" text-anchor="middle" x="802.88" y="-680.4" font-family="Noto Sans CJK KR" font-size="14.00" fill="#46566e">executes</text>
</g>
<!-- SkillRuntime -->
<g id="node2" class="node">
<title>SkillRuntime</title>
<path fill="#ffffff" stroke="none" stroke-width="1.4" d="M690.16,-1211.4C690.16,-1211.4 564.99,-1211.4 564.99,-1211.4 558.99,-1211.4 552.99,-1205.4 552.99,-1199.4 552.99,-1199.4 552.99,-1055 552.99,-1055 552.99,-1049 558.99,-1043 564.99,-1043 564.99,-1043 690.16,-1043 690.16,-1043 696.16,-1043 702.16,-1049 702.16,-1055 702.16,-1055 702.16,-1199.4 702.16,-1199.4 702.16,-1205.4 696.16,-1211.4 690.16,-1211.4"/>
<polygon fill="#eaf0ff" stroke="none" points="553.99,-1175.2 553.99,-1210.4 701.16,-1210.4 701.16,-1175.2 553.99,-1175.2"/>
<text xml:space="preserve" text-anchor="start" x="582.23" y="-1189" font-family="Noto Sans CJK KR" font-weight="bold" font-size="16.00" fill="#182033">SkillRuntime</text>
<text xml:space="preserve" text-anchor="start" x="561.99" y="-1153.2" font-family="Noto Sans CJK KR" font-size="14.00" fill="#182033">+ CooldownRemaining</text>
<text xml:space="preserve" text-anchor="start" x="561.99" y="-1120.4" font-family="Noto Sans CJK KR" font-size="14.00" fill="#182033">+ Charges</text>
<text xml:space="preserve" text-anchor="start" x="561.99" y="-1087.6" font-family="Noto Sans CJK KR" font-size="14.00" fill="#182033">+ CurrentCast?</text>
<text xml:space="preserve" text-anchor="start" x="561.99" y="-1054.8" font-family="Noto Sans CJK KR" font-size="14.00" fill="#182033">+ LastUsedTime</text>
<polygon fill="none" stroke="#8292f7" points="552.99,-1043 552.99,-1211.4 702.16,-1211.4 702.16,-1043 552.99,-1043"/>
</g>
<!-- SkillBook -->
<g id="node3" class="node">
<title>SkillBook</title>
<path fill="#ffffff" stroke="none" stroke-width="1.4" d="M343.52,-1195C343.52,-1195 246.76,-1195 246.76,-1195 240.76,-1195 234.76,-1189 234.76,-1183 234.76,-1183 234.76,-1071.4 234.76,-1071.4 234.76,-1065.4 240.76,-1059.4 246.76,-1059.4 246.76,-1059.4 343.52,-1059.4 343.52,-1059.4 349.52,-1059.4 355.52,-1065.4 355.52,-1071.4 355.52,-1071.4 355.52,-1183 355.52,-1183 355.52,-1189 349.52,-1195 343.52,-1195"/>
<polygon fill="#eaf0ff" stroke="none" points="235.76,-1158.8 235.76,-1194 354.52,-1194 354.52,-1158.8 235.76,-1158.8"/>
<text xml:space="preserve" text-anchor="start" x="261.79" y="-1172.6" font-family="Noto Sans CJK KR" font-weight="bold" font-size="16.00" fill="#182033">SkillBook</text>
<text xml:space="preserve" text-anchor="start" x="243.76" y="-1136.8" font-family="Noto Sans CJK KR" font-size="14.00" fill="#182033">+ Owner: EntityId</text>
<text xml:space="preserve" text-anchor="start" x="243.76" y="-1104" font-family="Noto Sans CJK KR" font-size="14.00" fill="#182033">+ LearnedSkills</text>
<text xml:space="preserve" text-anchor="start" x="243.76" y="-1071.2" font-family="Noto Sans CJK KR" font-size="14.00" fill="#182033">+ GetRuntime()</text>
<polygon fill="none" stroke="#8292f7" points="234.76,-1059.4 234.76,-1195 355.52,-1195 355.52,-1059.4 234.76,-1059.4"/>
</g>
<!-- SkillBook&#45;&gt;SkillRuntime -->
<g id="edge1" class="edge">
<title>SkillBook&#45;&gt;SkillRuntime</title>
<path fill="none" stroke="#59687e" stroke-width="1.3" d="M355.34,-1127.2C355.34,-1127.2 543.31,-1127.2 543.31,-1127.2"/>
<polygon fill="#59687e" stroke="#59687e" stroke-width="1.3" points="543.31,-1130 551.31,-1127.2 543.31,-1124.4 543.31,-1130"/>
<text xml:space="preserve" text-anchor="middle" x="451.5" y="-1131.4" font-family="Noto Sans CJK KR" font-size="14.00" fill="#46566e">owns 0..*</text>
</g>
<!-- SkillRequest -->
<g id="node4" class="node">
<title>SkillRequest</title>
<path fill="#ffffff" stroke="none" stroke-width="1.4" d="M101.37,-918.8C101.37,-918.8 12,-918.8 12,-918.8 6,-918.8 0,-912.8 0,-906.8 0,-906.8 0,-729.6 0,-729.6 0,-723.6 6,-717.6 12,-717.6 12,-717.6 101.37,-717.6 101.37,-717.6 107.37,-717.6 113.37,-723.6 113.37,-729.6 113.37,-729.6 113.37,-906.8 113.37,-906.8 113.37,-912.8 107.37,-918.8 101.37,-918.8"/>
<polygon fill="#eefbf6" stroke="none" points="1,-882.6 1,-917.8 112.37,-917.8 112.37,-882.6 1,-882.6"/>
<text xml:space="preserve" text-anchor="start" x="13.56" y="-896.4" font-family="Noto Sans CJK KR" font-weight="bold" font-size="16.00" fill="#182033">SkillRequest</text>
<text xml:space="preserve" text-anchor="start" x="9" y="-860.6" font-family="Noto Sans CJK KR" font-size="14.00" fill="#182033">+ CasterId</text>
<text xml:space="preserve" text-anchor="start" x="9" y="-827.8" font-family="Noto Sans CJK KR" font-size="14.00" fill="#182033">+ SkillId</text>
<text xml:space="preserve" text-anchor="start" x="9" y="-795" font-family="Noto Sans CJK KR" font-size="14.00" fill="#182033">+ TargetId?</text>
<text xml:space="preserve" text-anchor="start" x="9" y="-762.2" font-family="Noto Sans CJK KR" font-size="14.00" fill="#182033">+ RequestedTick</text>
<text xml:space="preserve" text-anchor="start" x="9" y="-729.4" font-family="Noto Sans CJK KR" font-size="14.00" fill="#182033">+ RootSeed</text>
<polygon fill="none" stroke="#61b99a" points="0,-717.6 0,-918.8 113.37,-918.8 113.37,-717.6 0,-717.6"/>
</g>
<!-- ISkillService -->
<g id="node11" class="node">
<title>ISkillService</title>
<path fill="#ffffff" stroke="none" stroke-width="1.4" d="M386.13,-886C386.13,-886 204.15,-886 204.15,-886 198.15,-886 192.15,-880 192.15,-874 192.15,-874 192.15,-762.4 192.15,-762.4 192.15,-756.4 198.15,-750.4 204.15,-750.4 204.15,-750.4 386.13,-750.4 386.13,-750.4 392.13,-750.4 398.13,-756.4 398.13,-762.4 398.13,-762.4 398.13,-874 398.13,-874 398.13,-880 392.13,-886 386.13,-886"/>
<polygon fill="#f0f3f9" stroke="none" points="193.15,-849.8 193.15,-885 397.13,-885 397.13,-849.8 193.15,-849.8"/>
<text xml:space="preserve" text-anchor="start" x="201.15" y="-863.6" font-family="Noto Sans CJK KR" font-weight="bold" font-size="16.00" fill="#182033">&lt;&lt;interface&gt;&gt; ISkillService</text>
<text xml:space="preserve" text-anchor="start" x="201.15" y="-827.8" font-family="Noto Sans CJK KR" font-size="14.00" fill="#182033">+ Begin(request)</text>
<text xml:space="preserve" text-anchor="start" x="201.15" y="-795" font-family="Noto Sans CJK KR" font-size="14.00" fill="#182033">+ CommitRelease(execution)</text>
<text xml:space="preserve" text-anchor="start" x="201.15" y="-762.2" font-family="Noto Sans CJK KR" font-size="14.00" fill="#182033">+ Interrupt(execution)</text>
<polygon fill="none" stroke="#99a8bd" points="192.15,-750.4 192.15,-886 398.13,-886 398.13,-750.4 192.15,-750.4"/>
</g>
<!-- SkillRequest&#45;&gt;ISkillService -->
<g id="edge7" class="edge">
<title>SkillRequest&#45;&gt;ISkillService</title>
<path fill="none" stroke="#59687e" stroke-width="1.3" d="M113.19,-818.2C113.19,-818.2 182.37,-818.2 182.37,-818.2"/>
<polygon fill="#59687e" stroke="#59687e" stroke-width="1.3" points="182.37,-821 190.37,-818.2 182.37,-815.4 182.37,-821"/>
<text xml:space="preserve" text-anchor="middle" x="152.76" y="-822.4" font-family="Noto Sans CJK KR" font-size="14.00" fill="#46566e">input</text>
</g>
<!-- SkillValidator -->
<g id="node5" class="node">
<title>SkillValidator</title>
<path fill="#ffffff" stroke="none" stroke-width="1.4" d="M687.81,-354.8C687.81,-354.8 567.34,-354.8 567.34,-354.8 561.34,-354.8 555.34,-348.8 555.34,-342.8 555.34,-342.8 555.34,-165.6 555.34,-165.6 555.34,-159.6 561.34,-153.6 567.34,-153.6 567.34,-153.6 687.81,-153.6 687.81,-153.6 693.81,-153.6 699.81,-159.6 699.81,-165.6 699.81,-165.6 699.81,-342.8 699.81,-342.8 699.81,-348.8 693.81,-354.8 687.81,-354.8"/>
<polygon fill="#f3eefc" stroke="none" points="556.34,-318.6 556.34,-353.8 698.81,-353.8 698.81,-318.6 556.34,-318.6"/>
<text xml:space="preserve" text-anchor="start" x="579.12" y="-332.4" font-family="Noto Sans CJK KR" font-weight="bold" font-size="16.00" fill="#182033">SkillValidator</text>
<text xml:space="preserve" text-anchor="start" x="564.34" y="-296.6" font-family="Noto Sans CJK KR" font-size="14.00" fill="#182033">+ ValidateLearned()</text>
<text xml:space="preserve" text-anchor="start" x="564.34" y="-263.8" font-family="Noto Sans CJK KR" font-size="14.00" fill="#182033">+ ValidateCost()</text>
<text xml:space="preserve" text-anchor="start" x="564.34" y="-231" font-family="Noto Sans CJK KR" font-size="14.00" fill="#182033">+ ValidateCooldown()</text>
<text xml:space="preserve" text-anchor="start" x="564.34" y="-198.2" font-family="Noto Sans CJK KR" font-size="14.00" fill="#182033">+ ValidateTarget()</text>
<text xml:space="preserve" text-anchor="start" x="564.34" y="-165.4" font-family="Noto Sans CJK KR" font-size="14.00" fill="#182033">+ ValidateState()</text>
<polygon fill="none" stroke="#ab8fe0" points="555.34,-153.6 555.34,-354.8 699.81,-354.8 699.81,-153.6 555.34,-153.6"/>
</g>
<!-- SkillValidator&#45;&gt;CostPolicy -->
<g id="edge10" class="edge">
<title>SkillValidator&#45;&gt;CostPolicy</title>
<path fill="none" stroke="#59687e" stroke-width="1.3" d="M692.74,-354.56C692.74,-408.53 692.74,-464.13 692.74,-464.13 692.74,-464.13 858.18,-464.13 858.18,-464.13"/>
<polygon fill="#59687e" stroke="#59687e" stroke-width="1.3" points="858.18,-466.93 866.18,-464.13 858.18,-461.33 858.18,-466.93"/>
<text xml:space="preserve" text-anchor="middle" x="802.88" y="-404.4" font-family="Noto Sans CJK KR" font-size="14.00" fill="#46566e">cost</text>
</g>
<!-- SkillValidator&#45;&gt;CooldownPolicy -->
<g id="edge11" class="edge">
<title>SkillValidator&#45;&gt;CooldownPolicy</title>
<path fill="none" stroke="#59687e" stroke-width="1.3" d="M699.76,-158.53C699.76,-158.53 846.74,-158.53 846.74,-158.53"/>
<polygon fill="#59687e" stroke="#59687e" stroke-width="1.3" points="846.74,-161.33 854.74,-158.53 846.74,-155.73 846.74,-161.33"/>
<text xml:space="preserve" text-anchor="middle" x="802.88" y="-147.4" font-family="Noto Sans CJK KR" font-size="14.00" fill="#46566e">cooldown</text>
</g>
<!-- SkillValidator&#45;&gt;TargetingSpec -->
<g id="edge12" class="edge">
<title>SkillValidator&#45;&gt;TargetingSpec</title>
<path fill="none" stroke="#59687e" stroke-width="1.3" d="M699.76,-279.4C699.76,-279.4 852.55,-279.4 852.55,-279.4"/>
<polygon fill="#59687e" stroke="#59687e" stroke-width="1.3" points="852.55,-282.2 860.55,-279.4 852.55,-276.6 852.55,-282.2"/>
<text xml:space="preserve" text-anchor="middle" x="802.88" y="-260.4" font-family="Noto Sans CJK KR" font-size="14.00" fill="#46566e">target</text>
</g>
<!-- ISkillService&#45;&gt;SkillRuntime -->
<g id="edge9" class="edge">
<title>ISkillService&#45;&gt;SkillRuntime</title>
<path fill="none" stroke="#59687e" stroke-width="1.3" d="M376.74,-885.91C376.74,-954.7 376.74,-1051.2 376.74,-1051.2 376.74,-1051.2 543.03,-1051.2 543.03,-1051.2"/>
<polygon fill="#59687e" stroke="#59687e" stroke-width="1.3" points="543.03,-1054 551.03,-1051.2 543.03,-1048.4 543.03,-1054"/>
<text xml:space="preserve" text-anchor="middle" x="451.5" y="-1037.4" font-family="Noto Sans CJK KR" font-size="14.00" fill="#46566e">read/write</text>
</g>
<!-- ISkillService&#45;&gt;SkillValidator -->
<g id="edge8" class="edge">
<title>ISkillService&#45;&gt;SkillValidator</title>
<path fill="none" stroke="#59687e" stroke-width="1.3" d="M397.83,-760.4C472.93,-760.4 561.74,-760.4 561.74,-760.4 561.74,-760.4 561.74,-364.48 561.74,-364.48"/>
<polygon fill="#59687e" stroke="#59687e" stroke-width="1.3" points="564.54,-364.48 561.74,-356.48 558.94,-364.48 564.54,-364.48"/>
<text xml:space="preserve" text-anchor="middle" x="451.5" y="-475.4" font-family="Noto Sans CJK KR" font-size="14.00" fill="#46566e">validate</text>
</g>
<!-- ISkillService&#45;&gt;ActionTimeline -->
<g id="edge13" class="edge">
<title>ISkillService&#45;&gt;ActionTimeline</title>
<path fill="none" stroke="#59687e" stroke-width="1.3" d="M397.81,-770.4C397.81,-770.4 845.86,-770.4 845.86,-770.4"/>
<polygon fill="#59687e" stroke="#59687e" stroke-width="1.3" points="845.86,-773.2 853.86,-770.4 845.86,-767.6 845.86,-773.2"/>
<text xml:space="preserve" text-anchor="middle" x="627.58" y="-733.4" font-family="Noto Sans CJK KR" font-size="14.00" fill="#46566e">advance</text>
</g>
<!-- ISkillService&#45;&gt;EffectBundle -->
<g id="edge14" class="edge">
<title>ISkillService&#45;&gt;EffectBundle</title>
<path fill="none" stroke="#59687e" stroke-width="1.3" d="M397.81,-853.07C397.81,-853.07 850.59,-853.07 850.59,-853.07"/>
<polygon fill="#59687e" stroke="#59687e" stroke-width="1.3" points="850.59,-855.87 858.59,-853.07 850.59,-850.27 850.59,-855.87"/>
<text xml:space="preserve" text-anchor="middle" x="627.58" y="-822.4" font-family="Noto Sans CJK KR" font-size="14.00" fill="#46566e">on marker</text>
</g>
<!-- SkillResult -->
<g id="node12" class="node">
<title>SkillResult</title>
<path fill="#ffffff" stroke="none" stroke-width="1.4" d="M738.27,-1007C738.27,-1007 516.88,-1007 516.88,-1007 510.88,-1007 504.88,-1001 504.88,-995 504.88,-995 504.88,-883.4 504.88,-883.4 504.88,-877.4 510.88,-871.4 516.88,-871.4 516.88,-871.4 738.27,-871.4 738.27,-871.4 744.27,-871.4 750.27,-877.4 750.27,-883.4 750.27,-883.4 750.27,-995 750.27,-995 750.27,-1001 744.27,-1007 738.27,-1007"/>
<polygon fill="#f0f3f9" stroke="none" points="505.88,-970.8 505.88,-1006 749.27,-1006 749.27,-970.8 505.88,-970.8"/>
<text xml:space="preserve" text-anchor="start" x="590.23" y="-984.6" font-family="Noto Sans CJK KR" font-weight="bold" font-size="16.00" fill="#182033">SkillResult</text>
<text xml:space="preserve" text-anchor="start" x="513.88" y="-948.8" font-family="Noto Sans CJK KR" font-size="14.00" fill="#182033">+ Succeeded</text>
<text xml:space="preserve" text-anchor="start" x="513.88" y="-916" font-family="Noto Sans CJK KR" font-size="14.00" fill="#182033">+ FailureReason?</text>
<text xml:space="preserve" text-anchor="start" x="513.88" y="-883.2" font-family="Noto Sans CJK KR" font-size="14.00" fill="#182033">+ Effects: IReadOnlyList&lt;EffectResult&gt;</text>
<polygon fill="none" stroke="#99a8bd" points="504.88,-871.4 504.88,-1007 750.27,-1007 750.27,-871.4 504.88,-871.4"/>
</g>
<!-- ISkillService&#45;&gt;SkillResult -->
<g id="edge15" class="edge">
<title>ISkillService&#45;&gt;SkillResult</title>
<path fill="none" stroke="#59687e" stroke-width="1.3" d="M398.05,-878.7C398.05,-878.7 495.05,-878.7 495.05,-878.7"/>
<polygon fill="#59687e" stroke="#59687e" stroke-width="1.3" points="495.05,-881.5 503.05,-878.7 495.05,-875.9 495.05,-881.5"/>
<text xml:space="preserve" text-anchor="middle" x="451.5" y="-943.4" font-family="Noto Sans CJK KR" font-size="14.00" fill="#46566e">returns</text>
</g>
</g>
</svg>
