<?xml version="1.0" encoding="UTF-8" standalone="no"?>
<!DOCTYPE svg PUBLIC "-//W3C//DTD SVG 1.1//EN"
 "http://www.w3.org/Graphics/SVG/1.1/DTD/svg11.dtd">
<!-- Generated by graphviz version 15.0.0 (20260523.1842)
 -->
<!-- Title: G Pages: 1 -->
<svg width="2407pt" height="1056pt"
 viewBox="9.00 9.00 2398.00 1048.00" xmlns="http://www.w3.org/2000/svg" xmlns:xlink="http://www.w3.org/1999/xlink">
<g id="graph0" class="graph" transform="scale(1 1) rotate(0) translate(26.64 1029.64)">
<title>G</title>
<polygon fill="#ffffff" stroke="none" points="-18,18 -18,-1021 2371.55,-1021 2371.55,18 -18,18"/>
<!-- SkillDefinition -->
<g id="node1" class="node">
<title>SkillDefinition</title>
<path fill="#ffffff" stroke="none" stroke-width="1.4" d="M554.37,-400.6C554.37,-400.6 460.79,-400.6 460.79,-400.6 454.79,-400.6 448.79,-394.6 448.79,-388.6 448.79,-388.6 448.79,-145.8 448.79,-145.8 448.79,-139.8 454.79,-133.8 460.79,-133.8 460.79,-133.8 554.37,-133.8 554.37,-133.8 560.37,-133.8 566.37,-139.8 566.37,-145.8 566.37,-145.8 566.37,-388.6 566.37,-388.6 566.37,-394.6 560.37,-400.6 554.37,-400.6"/>
<polygon fill="#fff7e6" stroke="none" points="449.79,-364.4 449.79,-399.6 565.37,-399.6 565.37,-364.4 449.79,-364.4"/>
<text xml:space="preserve" text-anchor="start" x="457.79" y="-378.2" font-family="Noto Sans CJK KR" font-weight="bold" font-size="16.00" fill="#182033">SkillDefinition</text>
<text xml:space="preserve" text-anchor="start" x="457.79" y="-342.4" font-family="Noto Sans CJK KR" font-size="14.00" fill="#182033">+ SkillId</text>
<text xml:space="preserve" text-anchor="start" x="457.79" y="-309.6" font-family="Noto Sans CJK KR" font-size="14.00" fill="#182033">+ Tags: Tag[]</text>
<text xml:space="preserve" text-anchor="start" x="457.79" y="-276.8" font-family="Noto Sans CJK KR" font-size="14.00" fill="#182033">+ Costs[]</text>
<text xml:space="preserve" text-anchor="start" x="457.79" y="-244" font-family="Noto Sans CJK KR" font-size="14.00" fill="#182033">+ Cooldown</text>
<text xml:space="preserve" text-anchor="start" x="457.79" y="-211.2" font-family="Noto Sans CJK KR" font-size="14.00" fill="#182033">+ Targeting</text>
<text xml:space="preserve" text-anchor="start" x="457.79" y="-178.4" font-family="Noto Sans CJK KR" font-size="14.00" fill="#182033">+ Timeline</text>
<text xml:space="preserve" text-anchor="start" x="457.79" y="-145.6" font-family="Noto Sans CJK KR" font-size="14.00" fill="#182033">+ EffectBundle</text>
<polygon fill="none" stroke="#e0ad4e" points="448.79,-133.8 448.79,-400.6 566.37,-400.6 566.37,-133.8 448.79,-133.8"/>
</g>
<!-- CostPolicy -->
<g id="node8" class="node">
<title>CostPolicy</title>
<path fill="#ffffff" stroke="none" stroke-width="1.4" d="M953.38,-759.4C953.38,-759.4 871,-759.4 871,-759.4 865,-759.4 859,-753.4 859,-747.4 859,-747.4 859,-603 859,-603 859,-597 865,-591 871,-591 871,-591 953.38,-591 953.38,-591 959.38,-591 965.38,-597 965.38,-603 965.38,-603 965.38,-747.4 965.38,-747.4 965.38,-753.4 959.38,-759.4 953.38,-759.4"/>
<polygon fill="#fff0f3" stroke="none" points="860,-723.2 860,-758.4 964.38,-758.4 964.38,-723.2 860,-723.2"/>
<text xml:space="preserve" text-anchor="start" x="875.75" y="-737" font-family="Noto Sans CJK KR" font-weight="bold" font-size="16.00" fill="#182033">CostPolicy</text>
<text xml:space="preserve" text-anchor="start" x="868" y="-701.2" font-family="Noto Sans CJK KR" font-size="14.00" fill="#182033">+ Resource</text>
<text xml:space="preserve" text-anchor="start" x="868" y="-668.4" font-family="Noto Sans CJK KR" font-size="14.00" fill="#182033">+ Amount</text>
<text xml:space="preserve" text-anchor="start" x="868" y="-635.6" font-family="Noto Sans CJK KR" font-size="14.00" fill="#182033">+ PayTiming</text>
<text xml:space="preserve" text-anchor="start" x="868" y="-602.8" font-family="Noto Sans CJK KR" font-size="14.00" fill="#182033">+ RefundPolicy</text>
<polygon fill="none" stroke="#e07b91" points="859,-591 859,-759.4 965.38,-759.4 965.38,-591 859,-591"/>
</g>
<!-- SkillDefinition&#45;&gt;CostPolicy -->
<g id="edge2" class="edge">
<title>SkillDefinition&#45;&gt;CostPolicy</title>
<path fill="none" stroke="#59687e" stroke-width="1.3" d="M507.55,-400.41C507.55,-498.76 507.55,-615.6 507.55,-615.6 507.55,-615.6 849.32,-615.6 849.32,-615.6"/>
<polygon fill="#59687e" stroke="#59687e" stroke-width="1.3" points="849.32,-618.4 857.32,-615.6 849.32,-612.8 849.32,-618.4"/>
<text xml:space="preserve" text-anchor="middle" x="728.11" y="-541.4" font-family="Noto Sans CJK KR" font-size="14.00" fill="#46566e">has</text>
</g>
<!-- CooldownPolicy -->
<g id="node9" class="node">
<title>CooldownPolicy</title>
<path fill="#ffffff" stroke="none" stroke-width="1.4" d="M964.75,-351.4C964.75,-351.4 859.63,-351.4 859.63,-351.4 853.63,-351.4 847.63,-345.4 847.63,-339.4 847.63,-339.4 847.63,-195 847.63,-195 847.63,-189 853.63,-183 859.63,-183 859.63,-183 964.75,-183 964.75,-183 970.75,-183 976.75,-189 976.75,-195 976.75,-195 976.75,-339.4 976.75,-339.4 976.75,-345.4 970.75,-351.4 964.75,-351.4"/>
<polygon fill="#fff0f3" stroke="none" points="848.63,-315.2 848.63,-350.4 975.75,-350.4 975.75,-315.2 848.63,-315.2"/>
<text xml:space="preserve" text-anchor="start" x="856.63" y="-329" font-family="Noto Sans CJK KR" font-weight="bold" font-size="16.00" fill="#182033">CooldownPolicy</text>
<text xml:space="preserve" text-anchor="start" x="856.63" y="-293.2" font-family="Noto Sans CJK KR" font-size="14.00" fill="#182033">+ Duration</text>
<text xml:space="preserve" text-anchor="start" x="856.63" y="-260.4" font-family="Noto Sans CJK KR" font-size="14.00" fill="#182033">+ Group?</text>
<text xml:space="preserve" text-anchor="start" x="856.63" y="-227.6" font-family="Noto Sans CJK KR" font-size="14.00" fill="#182033">+ Charges?</text>
<text xml:space="preserve" text-anchor="start" x="856.63" y="-194.8" font-family="Noto Sans CJK KR" font-size="14.00" fill="#182033">+ StartsAt</text>
<polygon fill="none" stroke="#e07b91" points="847.63,-183 847.63,-351.4 976.75,-351.4 976.75,-183 847.63,-183"/>
</g>
<!-- SkillDefinition&#45;&gt;CooldownPolicy -->
<g id="edge3" class="edge">
<title>SkillDefinition&#45;&gt;CooldownPolicy</title>
<path fill="none" stroke="#59687e" stroke-width="1.3" d="M565.98,-239.13C565.98,-239.13 837.82,-239.13 837.82,-239.13"/>
<polygon fill="#59687e" stroke="#59687e" stroke-width="1.3" points="837.82,-241.93 845.82,-239.13 837.82,-236.33 837.82,-241.93"/>
<text xml:space="preserve" text-anchor="middle" x="728.11" y="-271.4" font-family="Noto Sans CJK KR" font-size="14.00" fill="#46566e">has</text>
</g>
<!-- TargetingSpec -->
<g id="node10" class="node">
<title>TargetingSpec</title>
<path fill="#ffffff" stroke="none" stroke-width="1.4" d="M958.96,-555.4C958.96,-555.4 865.42,-555.4 865.42,-555.4 859.42,-555.4 853.42,-549.4 853.42,-543.4 853.42,-543.4 853.42,-399 853.42,-399 853.42,-393 859.42,-387 865.42,-387 865.42,-387 958.96,-387 958.96,-387 964.96,-387 970.96,-393 970.96,-399 970.96,-399 970.96,-543.4 970.96,-543.4 970.96,-549.4 964.96,-555.4 958.96,-555.4"/>
<polygon fill="#e9fbff" stroke="none" points="854.42,-519.2 854.42,-554.4 969.96,-554.4 969.96,-519.2 854.42,-519.2"/>
<text xml:space="preserve" text-anchor="start" x="862.42" y="-533" font-family="Noto Sans CJK KR" font-weight="bold" font-size="16.00" fill="#182033">TargetingSpec</text>
<text xml:space="preserve" text-anchor="start" x="862.42" y="-497.2" font-family="Noto Sans CJK KR" font-size="14.00" fill="#182033">+ Type</text>
<text xml:space="preserve" text-anchor="start" x="862.42" y="-464.4" font-family="Noto Sans CJK KR" font-size="14.00" fill="#182033">+ Range</text>
<text xml:space="preserve" text-anchor="start" x="862.42" y="-431.6" font-family="Noto Sans CJK KR" font-size="14.00" fill="#182033">+ LineOfSight</text>
<text xml:space="preserve" text-anchor="start" x="862.42" y="-398.8" font-family="Noto Sans CJK KR" font-size="14.00" fill="#182033">+ PreviewShape?</text>
<polygon fill="none" stroke="#54b7cf" points="853.42,-387 853.42,-555.4 970.96,-555.4 970.96,-387 853.42,-387"/>
</g>
<!-- SkillDefinition&#45;&gt;TargetingSpec -->
<g id="edge4" class="edge">
<title>SkillDefinition&#45;&gt;TargetingSpec</title>
<path fill="none" stroke="#59687e" stroke-width="1.3" d="M565.98,-393.8C565.98,-393.8 843.51,-393.8 843.51,-393.8"/>
<polygon fill="#59687e" stroke="#59687e" stroke-width="1.3" points="843.51,-396.6 851.51,-393.8 843.51,-391 843.51,-396.6"/>
<text xml:space="preserve" text-anchor="middle" x="728.11" y="-337.4" font-family="Noto Sans CJK KR" font-size="14.00" fill="#46566e">has</text>
</g>
<!-- ActionTimeline -->
<g id="node11" class="node">
<title>ActionTimeline</title>
<path fill="#ffffff" stroke="none" stroke-width="1.4" d="M2341.55,-168.4C2341.55,-168.4 2234.3,-168.4 2234.3,-168.4 2228.3,-168.4 2222.3,-162.4 2222.3,-156.4 2222.3,-156.4 2222.3,-12 2222.3,-12 2222.3,-6 2228.3,0 2234.3,0 2234.3,0 2341.55,0 2341.55,0 2347.55,0 2353.55,-6 2353.55,-12 2353.55,-12 2353.55,-156.4 2353.55,-156.4 2353.55,-162.4 2347.55,-168.4 2341.55,-168.4"/>
<polygon fill="#e9fbff" stroke="none" points="2223.3,-132.2 2223.3,-167.4 2352.55,-167.4 2352.55,-132.2 2223.3,-132.2"/>
<text xml:space="preserve" text-anchor="start" x="2235.04" y="-146" font-family="Noto Sans CJK KR" font-weight="bold" font-size="16.00" fill="#182033">ActionTimeline</text>
<text xml:space="preserve" text-anchor="start" x="2231.3" y="-110.2" font-family="Noto Sans CJK KR" font-size="14.00" fill="#182033">+ Phases[]</text>
<text xml:space="preserve" text-anchor="start" x="2231.3" y="-77.4" font-family="Noto Sans CJK KR" font-size="14.00" fill="#182033">+ Markers[]</text>
<text xml:space="preserve" text-anchor="start" x="2231.3" y="-44.6" font-family="Noto Sans CJK KR" font-size="14.00" fill="#182033">+ CancelWindows[]</text>
<text xml:space="preserve" text-anchor="start" x="2231.3" y="-11.8" font-family="Noto Sans CJK KR" font-size="14.00" fill="#182033">+ InterruptRules</text>
<polygon fill="none" stroke="#54b7cf" points="2222.3,0 2222.3,-168.4 2353.55,-168.4 2353.55,0 2222.3,0"/>
</g>
<!-- SkillDefinition&#45;&gt;ActionTimeline -->
<g id="edge5" class="edge">
<title>SkillDefinition&#45;&gt;ActionTimeline</title>
<path fill="none" stroke="#59687e" stroke-width="1.3" d="M507.55,-133.89C507.55,-95.36 507.55,-63.5 507.55,-63.5 507.55,-63.5 2212.48,-63.5 2212.48,-63.5"/>
<polygon fill="#59687e" stroke="#59687e" stroke-width="1.3" points="2212.48,-66.3 2220.48,-63.5 2212.48,-60.7 2212.48,-66.3"/>
<text xml:space="preserve" text-anchor="middle" x="1360.3" y="-58.4" font-family="Noto Sans CJK KR" font-size="14.00" fill="#46566e">has</text>
</g>
<!-- EffectBundle -->
<g id="node12" class="node">
<title>EffectBundle</title>
<path fill="#ffffff" stroke="none" stroke-width="1.4" d="M2101.87,-295.4C2101.87,-295.4 1829.22,-295.4 1829.22,-295.4 1823.22,-295.4 1817.22,-289.4 1817.22,-283.4 1817.22,-283.4 1817.22,-139 1817.22,-139 1817.22,-133 1823.22,-127 1829.22,-127 1829.22,-127 2101.87,-127 2101.87,-127 2107.87,-127 2113.87,-133 2113.87,-139 2113.87,-139 2113.87,-283.4 2113.87,-283.4 2113.87,-289.4 2107.87,-295.4 2101.87,-295.4"/>
<polygon fill="#fff7e6" stroke="none" points="1818.22,-259.2 1818.22,-294.4 2112.87,-294.4 2112.87,-259.2 1818.22,-259.2"/>
<text xml:space="preserve" text-anchor="start" x="1826.22" y="-273" font-family="Noto Sans CJK KR" font-weight="bold" font-size="16.00" fill="#182033">&lt;&lt;public Effect contract&gt;&gt; EffectBundle</text>
<text xml:space="preserve" text-anchor="start" x="1826.22" y="-237.2" font-family="Noto Sans CJK KR" font-size="14.00" fill="#182033">+ BundleId</text>
<text xml:space="preserve" text-anchor="start" x="1826.22" y="-204.4" font-family="Noto Sans CJK KR" font-size="14.00" fill="#182033">+ Effects: EffectOperation[]</text>
<text xml:space="preserve" text-anchor="start" x="1826.22" y="-171.6" font-family="Noto Sans CJK KR" font-size="14.00" fill="#182033">+ Reactions: ReactionRule[]</text>
<text xml:space="preserve" text-anchor="start" x="1826.22" y="-138.8" font-family="Noto Sans CJK KR" font-size="14.00" fill="#182033">+ Policy: CommitThenReact</text>
<polygon fill="none" stroke="#e0ad4e" points="1817.22,-127 1817.22,-295.4 2113.87,-295.4 2113.87,-127 1817.22,-127"/>
</g>
<!-- SkillDefinition&#45;&gt;EffectBundle -->
<g id="edge6" class="edge">
<title>SkillDefinition&#45;&gt;EffectBundle</title>
<path fill="none" stroke="#59687e" stroke-width="1.3" d="M566.09,-158.4C566.09,-158.4 1807.4,-158.4 1807.4,-158.4"/>
<polygon fill="#59687e" stroke="#59687e" stroke-width="1.3" points="1807.4,-161.2 1815.4,-158.4 1807.4,-155.6 1807.4,-161.2"/>
<text xml:space="preserve" text-anchor="middle" x="1109.09" y="-132.4" font-family="Noto Sans CJK KR" font-size="14.00" fill="#46566e">executes</text>
</g>
<!-- SkillRuntime -->
<g id="node2" class="node">
<title>SkillRuntime</title>
<path fill="#ffffff" stroke="none" stroke-width="1.4" d="M2028.13,-948.4C2028.13,-948.4 1902.96,-948.4 1902.96,-948.4 1896.96,-948.4 1890.96,-942.4 1890.96,-936.4 1890.96,-936.4 1890.96,-792 1890.96,-792 1890.96,-786 1896.96,-780 1902.96,-780 1902.96,-780 2028.13,-780 2028.13,-780 2034.13,-780 2040.13,-786 2040.13,-792 2040.13,-792 2040.13,-936.4 2040.13,-936.4 2040.13,-942.4 2034.13,-948.4 2028.13,-948.4"/>
<polygon fill="#eaf0ff" stroke="none" points="1891.96,-912.2 1891.96,-947.4 2039.13,-947.4 2039.13,-912.2 1891.96,-912.2"/>
<text xml:space="preserve" text-anchor="start" x="1920.2" y="-926" font-family="Noto Sans CJK KR" font-weight="bold" font-size="16.00" fill="#182033">SkillRuntime</text>
<text xml:space="preserve" text-anchor="start" x="1899.96" y="-890.2" font-family="Noto Sans CJK KR" font-size="14.00" fill="#182033">+ CooldownRemaining</text>
<text xml:space="preserve" text-anchor="start" x="1899.96" y="-857.4" font-family="Noto Sans CJK KR" font-size="14.00" fill="#182033">+ Charges</text>
<text xml:space="preserve" text-anchor="start" x="1899.96" y="-824.6" font-family="Noto Sans CJK KR" font-size="14.00" fill="#182033">+ LearnedLevel</text>
<text xml:space="preserve" text-anchor="start" x="1899.96" y="-791.8" font-family="Noto Sans CJK KR" font-size="14.00" fill="#182033">+ LastUsedTime</text>
<polygon fill="none" stroke="#8292f7" points="1890.96,-780 1890.96,-948.4 2040.13,-948.4 2040.13,-780 1890.96,-780"/>
</g>
<!-- SkillExecution -->
<g id="node3" class="node">
<title>SkillExecution</title>
<path fill="#ffffff" stroke="none" stroke-width="1.4" d="M2108.99,-744.4C2108.99,-744.4 1822.1,-744.4 1822.1,-744.4 1816.1,-744.4 1810.1,-738.4 1810.1,-732.4 1810.1,-732.4 1810.1,-588 1810.1,-588 1810.1,-582 1816.1,-576 1822.1,-576 1822.1,-576 2108.99,-576 2108.99,-576 2114.99,-576 2120.99,-582 2120.99,-588 2120.99,-588 2120.99,-732.4 2120.99,-732.4 2120.99,-738.4 2114.99,-744.4 2108.99,-744.4"/>
<polygon fill="#e9fbff" stroke="none" points="1811.1,-708.2 1811.1,-743.4 2119.99,-743.4 2119.99,-708.2 1811.1,-708.2"/>
<text xml:space="preserve" text-anchor="start" x="1819.1" y="-722" font-family="Noto Sans CJK KR" font-weight="bold" font-size="16.00" fill="#182033">&lt;&lt;internal project model&gt;&gt; SkillExecution</text>
<text xml:space="preserve" text-anchor="start" x="1819.1" y="-686.2" font-family="Noto Sans CJK KR" font-size="14.00" fill="#182033">+ ExecutionId</text>
<text xml:space="preserve" text-anchor="start" x="1819.1" y="-653.4" font-family="Noto Sans CJK KR" font-size="14.00" fill="#182033">+ Phase</text>
<text xml:space="preserve" text-anchor="start" x="1819.1" y="-620.6" font-family="Noto Sans CJK KR" font-size="14.00" fill="#182033">+ ReleaseMarker?</text>
<text xml:space="preserve" text-anchor="start" x="1819.1" y="-587.8" font-family="Noto Sans CJK KR" font-size="14.00" fill="#182033">+ CancelState</text>
<polygon fill="none" stroke="#54b7cf" points="1810.1,-576 1810.1,-744.4 2120.99,-744.4 2120.99,-576 1810.1,-576"/>
</g>
<!-- SkillExecution&#45;&gt;ActionTimeline -->
<g id="edge16" class="edge">
<title>SkillExecution&#45;&gt;ActionTimeline</title>
<path fill="none" stroke="#59687e" stroke-width="1.3" d="M2117.55,-576.14C2117.55,-430.75 2117.55,-147.7 2117.55,-147.7 2117.55,-147.7 2212.57,-147.7 2212.57,-147.7"/>
<polygon fill="#59687e" stroke="#59687e" stroke-width="1.3" points="2212.57,-150.5 2220.57,-147.7 2212.57,-144.9 2212.57,-150.5"/>
<text xml:space="preserve" text-anchor="middle" x="2171.65" y="-492.4" font-family="Noto Sans CJK KR" font-size="14.00" fill="#46566e">advances</text>
</g>
<!-- SkillBook -->
<g id="node4" class="node">
<title>SkillBook</title>
<path fill="#ffffff" stroke="none" stroke-width="1.4" d="M1408.68,-932C1408.68,-932 1311.92,-932 1311.92,-932 1305.92,-932 1299.92,-926 1299.92,-920 1299.92,-920 1299.92,-808.4 1299.92,-808.4 1299.92,-802.4 1305.92,-796.4 1311.92,-796.4 1311.92,-796.4 1408.68,-796.4 1408.68,-796.4 1414.68,-796.4 1420.68,-802.4 1420.68,-808.4 1420.68,-808.4 1420.68,-920 1420.68,-920 1420.68,-926 1414.68,-932 1408.68,-932"/>
<polygon fill="#eaf0ff" stroke="none" points="1300.92,-895.8 1300.92,-931 1419.68,-931 1419.68,-895.8 1300.92,-895.8"/>
<text xml:space="preserve" text-anchor="start" x="1326.95" y="-909.6" font-family="Noto Sans CJK KR" font-weight="bold" font-size="16.00" fill="#182033">SkillBook</text>
<text xml:space="preserve" text-anchor="start" x="1308.92" y="-873.8" font-family="Noto Sans CJK KR" font-size="14.00" fill="#182033">+ Owner: EntityId</text>
<text xml:space="preserve" text-anchor="start" x="1308.92" y="-841" font-family="Noto Sans CJK KR" font-size="14.00" fill="#182033">+ LearnedSkills</text>
<text xml:space="preserve" text-anchor="start" x="1308.92" y="-808.2" font-family="Noto Sans CJK KR" font-size="14.00" fill="#182033">+ GetRuntime()</text>
<polygon fill="none" stroke="#8292f7" points="1299.92,-796.4 1299.92,-932 1420.68,-932 1420.68,-796.4 1299.92,-796.4"/>
</g>
<!-- SkillBook&#45;&gt;SkillRuntime -->
<g id="edge1" class="edge">
<title>SkillBook&#45;&gt;SkillRuntime</title>
<path fill="none" stroke="#59687e" stroke-width="1.3" d="M1420.55,-864.2C1420.55,-864.2 1881.05,-864.2 1881.05,-864.2"/>
<polygon fill="#59687e" stroke="#59687e" stroke-width="1.3" points="1881.05,-867 1889.05,-864.2 1881.05,-861.4 1881.05,-867"/>
<text xml:space="preserve" text-anchor="middle" x="1675.08" y="-868.4" font-family="Noto Sans CJK KR" font-size="14.00" fill="#46566e">owns 0..*</text>
</g>
<!-- SkillRequest -->
<g id="node5" class="node">
<title>SkillRequest</title>
<path fill="#ffffff" stroke="none" stroke-width="1.4" d="M236.26,-930.8C236.26,-930.8 12,-930.8 12,-930.8 6,-930.8 0,-924.8 0,-918.8 0,-918.8 0,-741.6 0,-741.6 0,-735.6 6,-729.6 12,-729.6 12,-729.6 236.26,-729.6 236.26,-729.6 242.26,-729.6 248.26,-735.6 248.26,-741.6 248.26,-741.6 248.26,-918.8 248.26,-918.8 248.26,-924.8 242.26,-930.8 236.26,-930.8"/>
<polygon fill="#eefbf6" stroke="none" points="1,-894.6 1,-929.8 247.26,-929.8 247.26,-894.6 1,-894.6"/>
<text xml:space="preserve" text-anchor="start" x="9" y="-908.4" font-family="Noto Sans CJK KR" font-weight="bold" font-size="16.00" fill="#182033">&lt;&lt;public contract&gt;&gt; SkillRequest</text>
<text xml:space="preserve" text-anchor="start" x="9" y="-872.6" font-family="Noto Sans CJK KR" font-size="14.00" fill="#182033">+ CasterId</text>
<text xml:space="preserve" text-anchor="start" x="9" y="-839.8" font-family="Noto Sans CJK KR" font-size="14.00" fill="#182033">+ SkillId</text>
<text xml:space="preserve" text-anchor="start" x="9" y="-807" font-family="Noto Sans CJK KR" font-size="14.00" fill="#182033">+ TargetId?</text>
<text xml:space="preserve" text-anchor="start" x="9" y="-774.2" font-family="Noto Sans CJK KR" font-size="14.00" fill="#182033">+ RequestedTick</text>
<text xml:space="preserve" text-anchor="start" x="9" y="-741.4" font-family="Noto Sans CJK KR" font-size="14.00" fill="#182033">+ RootSeed</text>
<polygon fill="none" stroke="#61b99a" points="0,-729.6 0,-930.8 248.26,-930.8 248.26,-729.6 0,-729.6"/>
</g>
<!-- SkillValidator -->
<g id="node6" class="node">
<title>SkillValidator</title>
<path fill="#ffffff" stroke="none" stroke-width="1.4" d="M657.48,-710.2C657.48,-710.2 357.68,-710.2 357.68,-710.2 351.68,-710.2 345.68,-704.2 345.68,-698.2 345.68,-698.2 345.68,-652.2 345.68,-652.2 345.68,-646.2 351.68,-640.2 357.68,-640.2 357.68,-640.2 657.48,-640.2 657.48,-640.2 663.48,-640.2 669.48,-646.2 669.48,-652.2 669.48,-652.2 669.48,-698.2 669.48,-698.2 669.48,-704.2 663.48,-710.2 657.48,-710.2"/>
<polygon fill="#f3eefc" stroke="none" points="346.68,-674 346.68,-709.2 668.48,-709.2 668.48,-674 346.68,-674"/>
<text xml:space="preserve" text-anchor="start" x="354.68" y="-687.8" font-family="Noto Sans CJK KR" font-weight="bold" font-size="16.00" fill="#182033">&lt;&lt;public interface&gt;&gt; ISkillRequestValidator</text>
<text xml:space="preserve" text-anchor="start" x="354.68" y="-652" font-family="Noto Sans CJK KR" font-size="14.00" fill="#182033">+ Validate(SkillRequest): SkillDecision</text>
<polygon fill="none" stroke="#ab8fe0" points="345.68,-640.2 345.68,-710.2 669.48,-710.2 669.48,-640.2 345.68,-640.2"/>
</g>
<!-- SkillRequest&#45;&gt;SkillValidator -->
<g id="edge7" class="edge">
<title>SkillRequest&#45;&gt;SkillValidator</title>
<path fill="none" stroke="#59687e" stroke-width="1.3" d="M124.55,-729.85C124.55,-700.05 124.55,-675.2 124.55,-675.2 124.55,-675.2 335.73,-675.2 335.73,-675.2"/>
<polygon fill="#59687e" stroke="#59687e" stroke-width="1.3" points="335.73,-678 343.73,-675.2 335.73,-672.4 335.73,-678"/>
<text xml:space="preserve" text-anchor="middle" x="296.97" y="-814.4" font-family="Noto Sans CJK KR" font-size="14.00" fill="#46566e">Validate</text>
</g>
<!-- Coordinator -->
<g id="node13" class="node">
<title>Coordinator</title>
<path fill="#ffffff" stroke="none" stroke-width="1.4" d="M1528.07,-753.4C1528.07,-753.4 1192.54,-753.4 1192.54,-753.4 1186.54,-753.4 1180.54,-747.4 1180.54,-741.4 1180.54,-741.4 1180.54,-617 1180.54,-617 1180.54,-611 1186.54,-605 1192.54,-605 1192.54,-605 1528.07,-605 1528.07,-605 1534.07,-605 1540.07,-611 1540.07,-617 1540.07,-617 1540.07,-741.4 1540.07,-741.4 1540.07,-747.4 1534.07,-753.4 1528.07,-753.4"/>
<polygon fill="#f0f3f9" stroke="none" points="1181.54,-704.4 1181.54,-752.4 1539.07,-752.4 1539.07,-704.4 1181.54,-704.4"/>
<text xml:space="preserve" text-anchor="start" x="1218.1" y="-731" font-family="Noto Sans CJK KR" font-weight="bold" font-size="16.00" fill="#182033">&lt;&lt;internal project&#45;specific coordinator&gt;&gt;</text>
<text xml:space="preserve" text-anchor="start" x="1267.85" y="-715" font-family="Noto Sans CJK KR" font-weight="bold" font-size="16.00" fill="#182033">SkillExecutionCoordinator</text>
<text xml:space="preserve" text-anchor="start" x="1189.54" y="-682.4" font-family="Noto Sans CJK KR" font-size="14.00" fill="#182033">+ Begin(request): SkillExecution</text>
<text xml:space="preserve" text-anchor="start" x="1189.54" y="-649.6" font-family="Noto Sans CJK KR" font-size="14.00" fill="#182033">+ PrepareRelease(execution): &lt;&lt;internal&gt;&gt; SkillReleasePlan</text>
<text xml:space="preserve" text-anchor="start" x="1189.54" y="-616.8" font-family="Noto Sans CJK KR" font-size="14.00" fill="#182033">+ Interrupt(execution): SkillResult</text>
<polygon fill="none" stroke="#99a8bd" points="1180.54,-605 1180.54,-753.4 1540.07,-753.4 1540.07,-605 1180.54,-605"/>
</g>
<!-- SkillRequest&#45;&gt;Coordinator -->
<g id="edge8" class="edge">
<title>SkillRequest&#45;&gt;Coordinator</title>
<path fill="none" stroke="#59687e" stroke-width="1.3" d="M248.14,-769.7C538.98,-769.7 1240.55,-769.7 1240.55,-769.7 1240.55,-769.7 1240.55,-763.07 1240.55,-763.07"/>
<polygon fill="#59687e" stroke="#59687e" stroke-width="1.3" points="1243.35,-763.07 1240.55,-755.07 1237.75,-763.07 1243.35,-763.07"/>
<text xml:space="preserve" text-anchor="middle" x="728.11" y="-990.4" font-family="Noto Sans CJK KR" font-size="14.00" fill="#46566e">request data</text>
</g>
<!-- SkillDecision -->
<g id="node7" class="node">
<title>SkillDecision</title>
<path fill="#ffffff" stroke="none" stroke-width="1.4" d="M1025.65,-931C1025.65,-931 798.73,-931 798.73,-931 792.73,-931 786.73,-925 786.73,-919 786.73,-919 786.73,-807.4 786.73,-807.4 786.73,-801.4 792.73,-795.4 798.73,-795.4 798.73,-795.4 1025.65,-795.4 1025.65,-795.4 1031.65,-795.4 1037.65,-801.4 1037.65,-807.4 1037.65,-807.4 1037.65,-919 1037.65,-919 1037.65,-925 1031.65,-931 1025.65,-931"/>
<polygon fill="#f3eefc" stroke="none" points="787.73,-894.8 787.73,-930 1036.65,-930 1036.65,-894.8 787.73,-894.8"/>
<text xml:space="preserve" text-anchor="start" x="795.73" y="-908.6" font-family="Noto Sans CJK KR" font-weight="bold" font-size="16.00" fill="#182033">&lt;&lt;public contract&gt;&gt; SkillDecision</text>
<text xml:space="preserve" text-anchor="start" x="795.73" y="-872.8" font-family="Noto Sans CJK KR" font-size="14.00" fill="#182033">+ CanExecute</text>
<text xml:space="preserve" text-anchor="start" x="795.73" y="-840" font-family="Noto Sans CJK KR" font-size="14.00" fill="#182033">+ FailureReason?</text>
<text xml:space="preserve" text-anchor="start" x="795.73" y="-807.2" font-family="Noto Sans CJK KR" font-size="14.00" fill="#182033">+ Accepted() / Rejected(reason)</text>
<polygon fill="none" stroke="#ab8fe0" points="786.73,-795.4 786.73,-931 1037.65,-931 1037.65,-795.4 786.73,-795.4"/>
</g>
<!-- SkillValidator&#45;&gt;SkillDecision -->
<g id="edge9" class="edge">
<title>SkillValidator&#45;&gt;SkillDecision</title>
<path fill="none" stroke="#59687e" stroke-width="1.3" d="M669.37,-686.87C744.53,-686.87 817.55,-686.87 817.55,-686.87 817.55,-686.87 817.55,-785.56 817.55,-785.56"/>
<polygon fill="#59687e" stroke="#59687e" stroke-width="1.3" points="814.75,-785.56 817.55,-793.56 820.35,-785.56 814.75,-785.56"/>
<text xml:space="preserve" text-anchor="middle" x="728.11" y="-802.4" font-family="Noto Sans CJK KR" font-size="14.00" fill="#46566e">returns</text>
</g>
<!-- SkillValidator&#45;&gt;CostPolicy -->
<g id="edge13" class="edge">
<title>SkillValidator&#45;&gt;CostPolicy</title>
<path fill="none" stroke="#59687e" stroke-width="1.3" d="M669.24,-663.53C669.24,-663.53 849.07,-663.53 849.07,-663.53"/>
<polygon fill="#59687e" stroke="#59687e" stroke-width="1.3" points="849.07,-666.33 857.07,-663.53 849.07,-660.73 849.07,-666.33"/>
<text xml:space="preserve" text-anchor="middle" x="728.11" y="-679.4" font-family="Noto Sans CJK KR" font-size="14.00" fill="#46566e">cost</text>
</g>
<!-- SkillValidator&#45;&gt;CooldownPolicy -->
<g id="edge14" class="edge">
<title>SkillValidator&#45;&gt;CooldownPolicy</title>
<path fill="none" stroke="#59687e" stroke-width="1.3" d="M600.55,-640.48C600.55,-546.69 600.55,-295.27 600.55,-295.27 600.55,-295.27 838.03,-295.27 838.03,-295.27"/>
<polygon fill="#59687e" stroke="#59687e" stroke-width="1.3" points="838.03,-298.07 846.03,-295.27 838.03,-292.47 838.03,-298.07"/>
<text xml:space="preserve" text-anchor="middle" x="728.11" y="-454.4" font-family="Noto Sans CJK KR" font-size="14.00" fill="#46566e">cooldown</text>
</g>
<!-- SkillValidator&#45;&gt;TargetingSpec -->
<g id="edge15" class="edge">
<title>SkillValidator&#45;&gt;TargetingSpec</title>
<path fill="none" stroke="#59687e" stroke-width="1.3" d="M635.55,-640.4C635.55,-583.79 635.55,-478 635.55,-478 635.55,-478 843.55,-478 843.55,-478"/>
<polygon fill="#59687e" stroke="#59687e" stroke-width="1.3" points="843.55,-480.8 851.55,-478 843.55,-475.2 843.55,-480.8"/>
<text xml:space="preserve" text-anchor="middle" x="728.11" y="-614.4" font-family="Noto Sans CJK KR" font-size="14.00" fill="#46566e">target</text>
</g>
<!-- SkillDecision&#45;&gt;Coordinator -->
<g id="edge10" class="edge">
<title>SkillDecision&#45;&gt;Coordinator</title>
<path fill="none" stroke="#59687e" stroke-width="1.3" d="M1007.55,-795.47C1007.55,-743 1007.55,-679.2 1007.55,-679.2 1007.55,-679.2 1170.6,-679.2 1170.6,-679.2"/>
<polygon fill="#59687e" stroke="#59687e" stroke-width="1.3" points="1170.6,-682 1178.6,-679.2 1170.6,-676.4 1170.6,-682"/>
<text xml:space="preserve" text-anchor="middle" x="1109.09" y="-720.4" font-family="Noto Sans CJK KR" font-size="14.00" fill="#46566e">accepted request</text>
</g>
<!-- Coordinator&#45;&gt;SkillRuntime -->
<g id="edge11" class="edge">
<title>Coordinator&#45;&gt;SkillRuntime</title>
<path fill="none" stroke="#59687e" stroke-width="1.3" d="M1480.55,-753.37C1480.55,-772.44 1480.55,-787.7 1480.55,-787.7 1480.55,-787.7 1881.12,-787.7 1881.12,-787.7"/>
<polygon fill="#59687e" stroke="#59687e" stroke-width="1.3" points="1881.12,-790.5 1889.12,-787.7 1881.12,-784.9 1881.12,-790.5"/>
<text xml:space="preserve" text-anchor="middle" x="1675.08" y="-766.4" font-family="Noto Sans CJK KR" font-size="14.00" fill="#46566e">read snapshot / plan mutation</text>
</g>
<!-- Coordinator&#45;&gt;SkillExecution -->
<g id="edge12" class="edge">
<title>Coordinator&#45;&gt;SkillExecution</title>
<path fill="none" stroke="#59687e" stroke-width="1.3" d="M1539.85,-674.7C1539.85,-674.7 1800.19,-674.7 1800.19,-674.7"/>
<polygon fill="#59687e" stroke="#59687e" stroke-width="1.3" points="1800.19,-677.5 1808.19,-674.7 1800.19,-671.9 1800.19,-677.5"/>
<text xml:space="preserve" text-anchor="middle" x="1675.08" y="-670.4" font-family="Noto Sans CJK KR" font-size="14.00" fill="#46566e">creates</text>
</g>
<!-- Coordinator&#45;&gt;EffectBundle -->
<g id="edge17" class="edge">
<title>Coordinator&#45;&gt;EffectBundle</title>
<path fill="none" stroke="#59687e" stroke-width="1.3" d="M1300.55,-605.06C1300.55,-479.66 1300.55,-239.2 1300.55,-239.2 1300.55,-239.2 1807.58,-239.2 1807.58,-239.2"/>
<polygon fill="#59687e" stroke="#59687e" stroke-width="1.3" points="1807.58,-242 1815.58,-239.2 1807.58,-236.4 1807.58,-242"/>
<text xml:space="preserve" text-anchor="middle" x="1675.08" y="-316.4" font-family="Noto Sans CJK KR" font-size="14.00" fill="#46566e">passes to public IEffectPlanner.Prepare</text>
</g>
<!-- SkillResult -->
<g id="node14" class="node">
<title>SkillResult</title>
<path fill="#ffffff" stroke="none" stroke-width="1.4" d="M2076.24,-540C2076.24,-540 1854.85,-540 1854.85,-540 1848.85,-540 1842.85,-534 1842.85,-528 1842.85,-528 1842.85,-416.4 1842.85,-416.4 1842.85,-410.4 1848.85,-404.4 1854.85,-404.4 1854.85,-404.4 2076.24,-404.4 2076.24,-404.4 2082.24,-404.4 2088.24,-410.4 2088.24,-416.4 2088.24,-416.4 2088.24,-528 2088.24,-528 2088.24,-534 2082.24,-540 2076.24,-540"/>
<polygon fill="#f0f3f9" stroke="none" points="1843.85,-503.8 1843.85,-539 2087.24,-539 2087.24,-503.8 1843.85,-503.8"/>
<text xml:space="preserve" text-anchor="start" x="1856.19" y="-517.6" font-family="Noto Sans CJK KR" font-weight="bold" font-size="16.00" fill="#182033">&lt;&lt;public contract&gt;&gt; SkillResult</text>
<text xml:space="preserve" text-anchor="start" x="1851.85" y="-481.8" font-family="Noto Sans CJK KR" font-size="14.00" fill="#182033">+ Succeeded</text>
<text xml:space="preserve" text-anchor="start" x="1851.85" y="-449" font-family="Noto Sans CJK KR" font-size="14.00" fill="#182033">+ FailureReason?</text>
<text xml:space="preserve" text-anchor="start" x="1851.85" y="-416.2" font-family="Noto Sans CJK KR" font-size="14.00" fill="#182033">+ Effects: IReadOnlyList&lt;EffectResult&gt;</text>
<polygon fill="none" stroke="#99a8bd" points="1842.85,-404.4 1842.85,-540 2088.24,-540 2088.24,-404.4 1842.85,-404.4"/>
</g>
<!-- Coordinator&#45;&gt;SkillResult -->
<g id="edge18" class="edge">
<title>Coordinator&#45;&gt;SkillResult</title>
<path fill="none" stroke="#59687e" stroke-width="1.3" d="M1420.55,-605.05C1420.55,-545.66 1420.55,-472.2 1420.55,-472.2 1420.55,-472.2 1832.93,-472.2 1832.93,-472.2"/>
<polygon fill="#59687e" stroke="#59687e" stroke-width="1.3" points="1832.93,-475 1840.93,-472.2 1832.93,-469.4 1832.93,-475"/>
<text xml:space="preserve" text-anchor="middle" x="1675.08" y="-476.4" font-family="Noto Sans CJK KR" font-size="14.00" fill="#46566e">returns</text>
</g>
</g>
</svg>
