<?xml version="1.0" encoding="UTF-8" standalone="no"?>
<!DOCTYPE svg PUBLIC "-//W3C//DTD SVG 1.1//EN"
 "http://www.w3.org/Graphics/SVG/1.1/DTD/svg11.dtd">
<!-- Generated by graphviz version 2.42.4 (0)
 -->
<!-- Title: G Pages: 1 -->
<svg width="964pt" height="921pt"
 viewBox="8.64 8.64 955.81 912.84" xmlns="http://www.w3.org/2000/svg" xmlns:xlink="http://www.w3.org/1999/xlink">
<g id="graph0" class="graph" transform="scale(1 1) rotate(0) translate(26.64 894.84)">
<title>G</title>
<polygon fill="#ffffff" stroke="transparent" points="-18,18 -18,-886.2 929.17,-886.2 929.17,18 -18,18"/>
<!-- Start -->
<g id="node1" class="node">
<title>Start</title>
<ellipse fill="#ffffff" stroke="#8fa3c2" stroke-width="1.4" cx="475.17" cy="-861" rx="7.2" ry="7.2"/>
</g>
<!-- Ready -->
<g id="node2" class="node">
<title>Ready</title>
<ellipse fill="#eefbf6" stroke="#61b99a" stroke-width="1.4" cx="475.17" cy="-781.69" rx="55.72" ry="31.23"/>
<text text-anchor="middle" x="475.17" y="-785.49" font-family="Noto Sans CJK KR" font-size="14.00" fill="#182033">Ready</text>
<text text-anchor="middle" x="475.17" y="-770.49" font-family="Noto Sans CJK KR" font-size="14.00" fill="#182033">사용 가능</text>
</g>
<!-- Start&#45;&gt;Ready -->
<g id="edge1" class="edge">
<title>Start&#45;&gt;Ready</title>
<path fill="none" stroke="#59687e" stroke-width="1.3" d="M475.17,-853.68C475.17,-846.4 475.17,-833.83 475.17,-821.27"/>
<polygon fill="#59687e" stroke="#59687e" stroke-width="1.3" points="477.97,-821.08 475.17,-813.08 472.37,-821.08 477.97,-821.08"/>
</g>
<!-- Queued -->
<g id="node3" class="node">
<title>Queued</title>
<ellipse fill="#eaf0ff" stroke="#8292f7" stroke-width="1.4" cx="292.17" cy="-664.47" rx="55.72" ry="31.23"/>
<text text-anchor="middle" x="292.17" y="-668.27" font-family="Noto Sans CJK KR" font-size="14.00" fill="#182033">Queued</text>
<text text-anchor="middle" x="292.17" y="-653.27" font-family="Noto Sans CJK KR" font-size="14.00" fill="#182033">입력 대기</text>
</g>
<!-- Ready&#45;&gt;Queued -->
<g id="edge2" class="edge">
<title>Ready&#45;&gt;Queued</title>
<path fill="none" stroke="#59687e" stroke-width="1.3" d="M421.27,-773.23C373.13,-765.33 307.85,-751.14 292.17,-730.58 286.33,-722.92 284.37,-713.16 284.36,-703.53"/>
<polygon fill="#59687e" stroke="#59687e" stroke-width="1.3" points="287.16,-703.66 284.77,-695.53 281.57,-703.37 287.16,-703.66"/>
<text text-anchor="middle" x="347.17" y="-719.38" font-family="Noto Sans CJK KR" font-size="14.00" fill="#46566e">input / AI request</text>
</g>
<!-- Validating -->
<g id="node4" class="node">
<title>Validating</title>
<ellipse fill="#f3eefc" stroke="#ab8fe0" stroke-width="1.4" cx="275.17" cy="-547.24" rx="99.9" ry="31.23"/>
<text text-anchor="middle" x="275.17" y="-551.04" font-family="Noto Sans CJK KR" font-size="14.00" fill="#182033">Validating</text>
<text text-anchor="middle" x="275.17" y="-536.04" font-family="Noto Sans CJK KR" font-size="14.00" fill="#182033">비용 · 쿨다운 · 대상</text>
</g>
<!-- Queued&#45;&gt;Validating -->
<g id="edge3" class="edge">
<title>Queued&#45;&gt;Validating</title>
<path fill="none" stroke="#59687e" stroke-width="1.3" d="M287.7,-633.19C285.61,-619.01 283.09,-601.96 280.87,-586.87"/>
<polygon fill="#59687e" stroke="#59687e" stroke-width="1.3" points="283.6,-586.22 279.66,-578.71 278.06,-587.03 283.6,-586.22"/>
<text text-anchor="middle" x="334.67" y="-602.15" font-family="Noto Sans CJK KR" font-size="14.00" fill="#46566e">resolve request</text>
</g>
<!-- Casting -->
<g id="node5" class="node">
<title>Casting</title>
<ellipse fill="#fff7e6" stroke="#e0ad4e" stroke-width="1.4" cx="239.17" cy="-430.01" rx="79.39" ry="31.23"/>
<text text-anchor="middle" x="239.17" y="-433.81" font-family="Noto Sans CJK KR" font-size="14.00" fill="#182033">Casting</text>
<text text-anchor="middle" x="239.17" y="-418.81" font-family="Noto Sans CJK KR" font-size="14.00" fill="#182033">windup / cast</text>
</g>
<!-- Validating&#45;&gt;Casting -->
<g id="edge4" class="edge">
<title>Validating&#45;&gt;Casting</title>
<path fill="none" stroke="#59687e" stroke-width="1.3" d="M265.71,-515.97C261.2,-501.54 255.77,-484.15 250.99,-468.86"/>
<polygon fill="#59687e" stroke="#59687e" stroke-width="1.3" points="253.62,-467.89 248.56,-461.09 248.28,-469.56 253.62,-467.89"/>
<text text-anchor="middle" x="276.17" y="-484.93" font-family="Noto Sans CJK KR" font-size="14.00" fill="#46566e">valid</text>
</g>
<!-- Failed -->
<g id="node9" class="node">
<title>Failed</title>
<ellipse fill="#fff0f3" stroke="#e07b91" stroke-width="1.4" cx="410.17" cy="-430.01" rx="55.72" ry="31.23"/>
<text text-anchor="middle" x="410.17" y="-433.81" font-family="Noto Sans CJK KR" font-size="14.00" fill="#182033">Failed</text>
<text text-anchor="middle" x="410.17" y="-418.81" font-family="Noto Sans CJK KR" font-size="14.00" fill="#182033">검증 실패</text>
</g>
<!-- Validating&#45;&gt;Failed -->
<g id="edge5" class="edge">
<title>Validating&#45;&gt;Failed</title>
<path fill="none" stroke="#59687e" stroke-width="1.3" d="M308.54,-517.76C328.49,-500.73 353.85,-479.08 374.24,-461.68"/>
<polygon fill="#59687e" stroke="#59687e" stroke-width="1.3" points="376.13,-463.75 380.4,-456.42 372.49,-459.49 376.13,-463.75"/>
<text text-anchor="middle" x="373.17" y="-484.93" font-family="Noto Sans CJK KR" font-size="14.00" fill="#46566e">invalid</text>
</g>
<!-- HitFrame -->
<g id="node6" class="node">
<title>HitFrame</title>
<ellipse fill="#fff0f3" stroke="#e07b91" stroke-width="1.4" cx="96.17" cy="-312.79" rx="96.33" ry="31.23"/>
<text text-anchor="middle" x="96.17" y="-316.59" font-family="Noto Sans CJK KR" font-size="14.00" fill="#182033">Hit Frame</text>
<text text-anchor="middle" x="96.17" y="-301.59" font-family="Noto Sans CJK KR" font-size="14.00" fill="#182033">EffectBundle 실행</text>
</g>
<!-- Casting&#45;&gt;HitFrame -->
<g id="edge7" class="edge">
<title>Casting&#45;&gt;HitFrame</title>
<path fill="none" stroke="#59687e" stroke-width="1.3" d="M164.76,-419.31C139.97,-412.21 114.74,-399.97 99.17,-378.9 93.55,-371.3 91.28,-361.73 90.77,-352.28"/>
<polygon fill="#59687e" stroke="#59687e" stroke-width="1.3" points="93.57,-352.05 90.73,-344.06 87.97,-352.07 93.57,-352.05"/>
<text text-anchor="middle" x="150.67" y="-367.7" font-family="Noto Sans CJK KR" font-size="14.00" fill="#46566e">marker reached</text>
</g>
<!-- Interrupted -->
<g id="node10" class="node">
<title>Interrupted</title>
<ellipse fill="#fff0f3" stroke="#e07b91" stroke-width="1.4" cx="293.17" cy="-230.56" rx="81.13" ry="31.23"/>
<text text-anchor="middle" x="293.17" y="-234.36" font-family="Noto Sans CJK KR" font-size="14.00" fill="#182033">Interrupted</text>
<text text-anchor="middle" x="293.17" y="-219.36" font-family="Noto Sans CJK KR" font-size="14.00" fill="#182033">중단 / 환불 정책</text>
</g>
<!-- Casting&#45;&gt;Interrupted -->
<g id="edge8" class="edge">
<title>Casting&#45;&gt;Interrupted</title>
<path fill="none" stroke="#59687e" stroke-width="1.3" d="M236.75,-398.63C236.51,-387.6 236.97,-375.11 239.17,-363.9 245.75,-330.33 260.91,-294.53 273.5,-268.64"/>
<polygon fill="#59687e" stroke="#59687e" stroke-width="1.3" points="276.1,-269.69 277.14,-261.27 271.08,-267.2 276.1,-269.69"/>
<text text-anchor="middle" x="295.17" y="-367.7" font-family="Noto Sans CJK KR" font-size="14.00" fill="#46566e">stun / silence / hit</text>
</g>
<!-- Cancelled -->
<g id="node11" class="node">
<title>Cancelled</title>
<ellipse fill="#f0f3f9" stroke="#99a8bd" stroke-width="1.4" cx="460.17" cy="-312.79" rx="64.19" ry="31.23"/>
<text text-anchor="middle" x="460.17" y="-316.59" font-family="Noto Sans CJK KR" font-size="14.00" fill="#182033">Cancelled</text>
<text text-anchor="middle" x="460.17" y="-301.59" font-family="Noto Sans CJK KR" font-size="14.00" fill="#182033">캔슬 윈도우</text>
</g>
<!-- Casting&#45;&gt;Cancelled -->
<g id="edge9" class="edge">
<title>Casting&#45;&gt;Cancelled</title>
<path fill="none" stroke="#59687e" stroke-width="1.3" d="M295.57,-408.16C316.27,-399.86 339.65,-389.71 360.17,-378.9 379.91,-368.5 400.74,-355.33 418.25,-343.55"/>
<polygon fill="#59687e" stroke="#59687e" stroke-width="1.3" points="419.99,-345.76 425.03,-338.95 416.84,-341.12 419.99,-345.76"/>
<text text-anchor="middle" x="434.67" y="-367.7" font-family="Noto Sans CJK KR" font-size="14.00" fill="#46566e">cancel window</text>
</g>
<!-- Recovery -->
<g id="node7" class="node">
<title>Recovery</title>
<ellipse fill="#e9fbff" stroke="#54b7cf" stroke-width="1.4" cx="129.17" cy="-148.34" rx="60.21" ry="31.23"/>
<text text-anchor="middle" x="129.17" y="-152.14" font-family="Noto Sans CJK KR" font-size="14.00" fill="#182033">Recovery</text>
<text text-anchor="middle" x="129.17" y="-137.14" font-family="Noto Sans CJK KR" font-size="14.00" fill="#182033">후딜</text>
</g>
<!-- HitFrame&#45;&gt;Recovery -->
<g id="edge12" class="edge">
<title>HitFrame&#45;&gt;Recovery</title>
<path fill="none" stroke="#59687e" stroke-width="1.3" d="M85.13,-281.71C78.38,-258.5 72.84,-225.98 83.17,-199.45 85.63,-193.12 89.31,-187.11 93.53,-181.59"/>
<polygon fill="#59687e" stroke="#59687e" stroke-width="1.3" points="95.75,-183.29 98.7,-175.34 91.44,-179.72 95.75,-183.29"/>
<text text-anchor="middle" x="138.67" y="-226.86" font-family="Noto Sans CJK KR" font-size="14.00" fill="#46566e">EffectResult built</text>
</g>
<!-- Cooldown -->
<g id="node8" class="node">
<title>Cooldown</title>
<ellipse fill="#f0f3f9" stroke="#99a8bd" stroke-width="1.4" cx="293.17" cy="-31.11" rx="64.19" ry="31.23"/>
<text text-anchor="middle" x="293.17" y="-34.91" font-family="Noto Sans CJK KR" font-size="14.00" fill="#182033">Cooldown</text>
<text text-anchor="middle" x="293.17" y="-19.91" font-family="Noto Sans CJK KR" font-size="14.00" fill="#182033">재사용 대기</text>
</g>
<!-- Recovery&#45;&gt;Cooldown -->
<g id="edge13" class="edge">
<title>Recovery&#45;&gt;Cooldown</title>
<path fill="none" stroke="#59687e" stroke-width="1.3" d="M163.95,-122.9C189.34,-105.06 223.91,-80.77 250.9,-61.81"/>
<polygon fill="#59687e" stroke="#59687e" stroke-width="1.3" points="252.65,-64 257.59,-57.11 249.43,-59.42 252.65,-64"/>
<text text-anchor="middle" x="239.17" y="-86.03" font-family="Noto Sans CJK KR" font-size="14.00" fill="#46566e">finish</text>
</g>
<!-- Cooldown&#45;&gt;Ready -->
<g id="edge14" class="edge">
<title>Cooldown&#45;&gt;Ready</title>
<path fill="none" stroke="#59687e" stroke-width="1.3" d="M356.65,-36.29C474.26,-45.78 714.17,-74.12 714.17,-147.34 714.17,-665.47 714.17,-665.47 714.17,-665.47 714.17,-743.53 609.43,-768.73 538.63,-776.85"/>
<polygon fill="#59687e" stroke="#59687e" stroke-width="1.3" points="538.25,-774.08 530.6,-777.72 538.85,-779.64 538.25,-774.08"/>
<text text-anchor="middle" x="812.67" y="-426.31" font-family="Noto Sans CJK KR" font-size="14.00" fill="#46566e">time elapsed / charge restored</text>
</g>
<!-- Failed&#45;&gt;Ready -->
<g id="edge6" class="edge">
<title>Failed&#45;&gt;Ready</title>
<path fill="none" stroke="#59687e" stroke-width="1.3" stroke-dasharray="5,2" d="M415.77,-461.18C427.59,-524.74 455.03,-672.34 468.05,-742.42"/>
<polygon fill="#59687e" stroke="#59687e" stroke-width="1.3" points="465.35,-743.22 469.57,-750.57 470.86,-742.2 465.35,-743.22"/>
<text text-anchor="middle" x="466.17" y="-602.15" font-family="Noto Sans CJK KR" font-size="14.00" fill="#46566e">no cost</text>
</g>
<!-- Interrupted&#45;&gt;Cooldown -->
<g id="edge10" class="edge">
<title>Interrupted&#45;&gt;Cooldown</title>
<path fill="none" stroke="#59687e" stroke-width="1.3" stroke-dasharray="5,2" d="M293.17,-199.14C293.17,-164.55 293.17,-108 293.17,-70.42"/>
<polygon fill="#59687e" stroke="#59687e" stroke-width="1.3" points="295.97,-70.24 293.17,-62.24 290.37,-70.24 295.97,-70.24"/>
<text text-anchor="middle" x="350.67" y="-144.64" font-family="Noto Sans CJK KR" font-size="14.00" fill="#46566e">failure cooldown?</text>
</g>
<!-- Cancelled&#45;&gt;Ready -->
<g id="edge11" class="edge">
<title>Cancelled&#45;&gt;Ready</title>
<path fill="none" stroke="#59687e" stroke-width="1.3" stroke-dasharray="5,2" d="M484.98,-341.94C501.87,-364.04 521.17,-396.42 521.17,-429.01 521.17,-665.47 521.17,-665.47 521.17,-665.47 521.17,-693.53 509.25,-722.87 497.55,-744.92"/>
<polygon fill="#59687e" stroke="#59687e" stroke-width="1.3" points="495,-743.74 493.61,-752.1 499.91,-746.44 495,-743.74"/>
<text text-anchor="middle" x="590.17" y="-543.54" font-family="Noto Sans CJK KR" font-size="14.00" fill="#46566e">refund / no cooldown</text>
</g>
</g>
</svg>
