<?xml version="1.0" encoding="UTF-8" standalone="no"?>
<!DOCTYPE svg PUBLIC "-//W3C//DTD SVG 1.1//EN"
 "http://www.w3.org/Graphics/SVG/1.1/DTD/svg11.dtd">
<!-- Generated by graphviz version 15.0.0 (20260523.1842)
 -->
<!-- Title: G Pages: 1 -->
<svg width="1430pt" height="1219pt"
 viewBox="9.00 9.00 1422.00 1210.00" xmlns="http://www.w3.org/2000/svg" xmlns:xlink="http://www.w3.org/1999/xlink">
<g id="graph0" class="graph" transform="scale(1 1) rotate(0) translate(26.64 1192.3)">
<title>G</title>
<polygon fill="#ffffff" stroke="none" points="-18,18 -18,-1183.66 1394.93,-1183.66 1394.93,18 -18,18"/>
<g id="clust1" class="cluster">
<title>cluster_availability</title>
<path fill="#ffffff" stroke="#dfe5ee" stroke-dasharray="5,2" d="M892,-926.49C892,-926.49 1174,-926.49 1174,-926.49 1180,-926.49 1186,-932.49 1186,-938.49 1186,-938.49 1186,-1145.66 1186,-1145.66 1186,-1151.66 1180,-1157.66 1174,-1157.66 1174,-1157.66 892,-1157.66 892,-1157.66 886,-1157.66 880,-1151.66 880,-1145.66 880,-1145.66 880,-938.49 880,-938.49 880,-932.49 886,-926.49 892,-926.49"/>
<text xml:space="preserve" text-anchor="middle" x="1033" y="-1141.06" font-family="Noto Sans CJK KR" font-size="14.00">SkillRuntime · long&#45;lived availability</text>
</g>
<g id="clust2" class="cluster">
<title>cluster_execution</title>
<path fill="#ffffff" stroke="#dfe5ee" stroke-dasharray="5,2" d="M20,-8C20,-8 868,-8 868,-8 874,-8 880,-14 880,-20 880,-20 880,-1007.18 880,-1007.18 880,-1013.18 874,-1019.18 868,-1019.18 868,-1019.18 20,-1019.18 20,-1019.18 14,-1019.18 8,-1013.18 8,-1007.18 8,-1007.18 8,-20 8,-20 8,-14 14,-8 20,-8"/>
<text xml:space="preserve" text-anchor="middle" x="444" y="-1002.58" font-family="Noto Sans CJK KR" font-size="14.00">Internal project&#45;specific SkillExecution · one cast</text>
</g>
<!-- Start -->
<g id="node1" class="node">
<title>Start</title>
<ellipse fill="#ffffff" stroke="#8fa3c2" stroke-width="1.4" cx="674" cy="-1098.92" rx="7.2" ry="7.2"/>
</g>
<!-- Ready -->
<g id="node2" class="node">
<title>Ready</title>
<ellipse fill="#eefbf6" stroke="#61b99a" stroke-width="1.4" cx="1033" cy="-960.43" rx="152.91" ry="33.94"/>
<text xml:space="preserve" text-anchor="middle" x="1033" y="-964.63" font-family="Noto Sans CJK KR" font-size="14.00" fill="#182033">Ready</text>
<text xml:space="preserve" text-anchor="middle" x="1033" y="-947.83" font-family="Noto Sans CJK KR" font-size="14.00" fill="#182033">learned · charge · cooldown valid</text>
</g>
<!-- Start&#45;&gt;Ready -->
<g id="edge1" class="edge">
<title>Start&#45;&gt;Ready</title>
<path fill="none" stroke="#59687e" stroke-width="1.3" d="M680.85,-1095.31C713.36,-1082.95 854.34,-1029.36 947.76,-993.84"/>
<polygon fill="#59687e" stroke="#59687e" stroke-width="1.3" points="948.61,-996.51 955.09,-991.05 946.62,-991.28 948.61,-996.51"/>
</g>
<!-- Idle -->
<g id="node4" class="node">
<title>Idle</title>
<ellipse fill="#f7f9fc" stroke="#8fa3c2" stroke-width="1.4" cx="432" cy="-960.43" rx="70.16" ry="33.94"/>
<text xml:space="preserve" text-anchor="middle" x="432" y="-964.63" font-family="Noto Sans CJK KR" font-size="14.00" fill="#182033">Idle</text>
<text xml:space="preserve" text-anchor="middle" x="432" y="-947.83" font-family="Noto Sans CJK KR" font-size="14.00" fill="#182033">no active cast</text>
</g>
<!-- Start&#45;&gt;Idle -->
<g id="edge2" class="edge">
<title>Start&#45;&gt;Idle</title>
<path fill="none" stroke="#59687e" stroke-width="1.3" d="M667.77,-1094.41C642.66,-1080.24 547.17,-1026.39 485.69,-991.71"/>
<polygon fill="#59687e" stroke="#59687e" stroke-width="1.3" points="487.3,-989.41 478.96,-987.92 484.55,-994.29 487.3,-989.41"/>
</g>
<!-- Validating -->
<g id="node5" class="node">
<title>Validating</title>
<ellipse fill="#f3eefc" stroke="#ab8fe0" stroke-width="1.4" cx="432" cy="-833.75" rx="143.58" ry="33.94"/>
<text xml:space="preserve" text-anchor="middle" x="432" y="-837.95" font-family="Noto Sans CJK KR" font-size="14.00" fill="#182033">ISkillRequestValidator.Validate</text>
<text xml:space="preserve" text-anchor="middle" x="432" y="-821.15" font-family="Noto Sans CJK KR" font-size="14.00" fill="#182033">public SkillDecision</text>
</g>
<!-- Ready&#45;&gt;Validating -->
<g id="edge3" class="edge">
<title>Ready&#45;&gt;Validating</title>
<path fill="none" stroke="#59687e" stroke-width="1.3" d="M923.21,-936.35C907.37,-933.04 891.27,-929.67 876,-926.49 765.03,-903.39 638.42,-877.25 548.87,-858.8"/>
<polygon fill="#59687e" stroke="#59687e" stroke-width="1.3" points="549.56,-856.08 541.16,-857.21 548.43,-861.57 549.56,-856.08"/>
<text xml:space="preserve" text-anchor="middle" x="802.17" y="-892.89" font-family="Noto Sans CJK KR" font-size="14.00" fill="#46566e">SkillRequest</text>
</g>
<!-- Cooldown -->
<g id="node3" class="node">
<title>Cooldown</title>
<ellipse fill="#f0f3f9" stroke="#99a8bd" stroke-width="1.4" cx="1042" cy="-1098.92" rx="134.49" ry="33.94"/>
<text xml:space="preserve" text-anchor="middle" x="1042" y="-1103.12" font-family="Noto Sans CJK KR" font-size="14.00" fill="#182033">Cooldown</text>
<text xml:space="preserve" text-anchor="middle" x="1042" y="-1086.32" font-family="Noto Sans CJK KR" font-size="14.00" fill="#182033">committed ready tick / charge</text>
</g>
<!-- Cooldown&#45;&gt;Ready -->
<g id="edge19" class="edge">
<title>Cooldown&#45;&gt;Ready</title>
<path fill="none" stroke="#59687e" stroke-width="1.3" d="M1039.8,-1064.53C1038.61,-1046.52 1037.13,-1024.08 1035.86,-1004.74"/>
<polygon fill="#59687e" stroke="#59687e" stroke-width="1.3" points="1038.66,-1004.71 1035.34,-996.91 1033.07,-1005.08 1038.66,-1004.71"/>
<text xml:space="preserve" text-anchor="middle" x="1114.49" y="-1031.38" font-family="Noto Sans CJK KR" font-size="14.00" fill="#46566e">ready tick / charge restored</text>
</g>
<!-- Idle&#45;&gt;Validating -->
<g id="edge4" class="edge">
<title>Idle&#45;&gt;Validating</title>
<path fill="none" stroke="#59687e" stroke-width="1.3" stroke-dasharray="5,2" d="M432,-926.02C432,-911.21 432,-893.59 432,-877.81"/>
<polygon fill="#59687e" stroke="#59687e" stroke-width="1.3" points="434.8,-878.22 432,-870.22 429.2,-878.22 434.8,-878.22"/>
<text xml:space="preserve" text-anchor="middle" x="477.66" y="-892.89" font-family="Noto Sans CJK KR" font-size="14.00" fill="#46566e">create execution</text>
</g>
<!-- Casting -->
<g id="node6" class="node">
<title>Casting</title>
<ellipse fill="#fff7e6" stroke="#e0ad4e" stroke-width="1.4" cx="432" cy="-707.07" rx="69.08" ry="33.94"/>
<text xml:space="preserve" text-anchor="middle" x="432" y="-711.27" font-family="Noto Sans CJK KR" font-size="14.00" fill="#182033">Casting</text>
<text xml:space="preserve" text-anchor="middle" x="432" y="-694.47" font-family="Noto Sans CJK KR" font-size="14.00" fill="#182033">windup / cast</text>
</g>
<!-- Validating&#45;&gt;Casting -->
<g id="edge5" class="edge">
<title>Validating&#45;&gt;Casting</title>
<path fill="none" stroke="#59687e" stroke-width="1.3" d="M432,-799.34C432,-784.53 432,-766.91 432,-751.13"/>
<polygon fill="#59687e" stroke="#59687e" stroke-width="1.3" points="434.8,-751.54 432,-743.54 429.2,-751.54 434.8,-751.54"/>
<text xml:space="preserve" text-anchor="middle" x="446" y="-766.21" font-family="Noto Sans CJK KR" font-size="14.00" fill="#46566e">valid</text>
</g>
<!-- Rejected -->
<g id="node12" class="node">
<title>Rejected</title>
<ellipse fill="#fff0f3" stroke="#e07b91" stroke-width="1.4" cx="196" cy="-291.39" rx="113.88" ry="45.82"/>
<text xml:space="preserve" text-anchor="middle" x="196" y="-303.99" font-family="Noto Sans CJK KR" font-size="14.00" fill="#182033">Public SkillResult</text>
<text xml:space="preserve" text-anchor="middle" x="196" y="-287.19" font-family="Noto Sans CJK KR" font-size="14.00" fill="#182033">canonical FailureReason</text>
<text xml:space="preserve" text-anchor="middle" x="196" y="-270.39" font-family="Noto Sans CJK KR" font-size="14.00" fill="#182033">no mutation / event</text>
</g>
<!-- Validating&#45;&gt;Rejected -->
<g id="edge6" class="edge">
<title>Validating&#45;&gt;Rejected</title>
<path fill="none" stroke="#59687e" stroke-width="1.3" d="M324.79,-810.57C235.55,-788.92 123,-752.76 123,-708.07 123,-708.07 123,-708.07 123,-428.95 123,-398.15 137.62,-367.57 153.77,-343.18"/>
<polygon fill="#59687e" stroke="#59687e" stroke-width="1.3" points="155.95,-344.96 158.17,-336.78 151.33,-341.78 155.95,-344.96"/>
<text xml:space="preserve" text-anchor="middle" x="142.44" y="-564.31" font-family="Noto Sans CJK KR" font-size="14.00" fill="#46566e">invalid</text>
</g>
<!-- Preparing -->
<g id="node7" class="node">
<title>Preparing</title>
<ellipse fill="#e9fbff" stroke="#54b7cf" stroke-width="1.4" cx="384" cy="-568.51" rx="184.65" ry="33.94"/>
<text xml:space="preserve" text-anchor="middle" x="384" y="-572.71" font-family="Noto Sans CJK KR" font-size="14.00" fill="#182033">Internal SkillReleasePlan</text>
<text xml:space="preserve" text-anchor="middle" x="384" y="-555.91" font-family="Noto Sans CJK KR" font-size="14.00" fill="#182033">Skill mutations + public EffectBundlePlan</text>
</g>
<!-- Casting&#45;&gt;Preparing -->
<g id="edge7" class="edge">
<title>Casting&#45;&gt;Preparing</title>
<path fill="none" stroke="#59687e" stroke-width="1.3" d="M420.38,-673.01C413.94,-654.7 405.87,-631.72 398.96,-612.08"/>
<polygon fill="#59687e" stroke="#59687e" stroke-width="1.3" points="401.63,-611.21 396.33,-604.59 396.34,-613.07 401.63,-611.21"/>
<text xml:space="preserve" text-anchor="middle" x="453.3" y="-639.53" font-family="Noto Sans CJK KR" font-size="14.00" fill="#46566e">release marker</text>
</g>
<!-- Interrupted -->
<g id="node13" class="node">
<title>Interrupted</title>
<ellipse fill="#fff0f3" stroke="#e07b91" stroke-width="1.4" cx="743" cy="-568.51" rx="137.28" ry="45.82"/>
<text xml:space="preserve" text-anchor="middle" x="743" y="-581.11" font-family="Noto Sans CJK KR" font-size="14.00" fill="#182033">Public SkillResult: Interrupted</text>
<text xml:space="preserve" text-anchor="middle" x="743" y="-564.31" font-family="Noto Sans CJK KR" font-size="14.00" fill="#182033">before internal Prepare</text>
<text xml:space="preserve" text-anchor="middle" x="743" y="-547.51" font-family="Noto Sans CJK KR" font-size="14.00" fill="#182033">refund policy</text>
</g>
<!-- Casting&#45;&gt;Interrupted -->
<g id="edge8" class="edge">
<title>Casting&#45;&gt;Interrupted</title>
<path fill="none" stroke="#59687e" stroke-width="1.3" d="M483.01,-683.67C528.63,-663.64 596.59,-633.8 651.59,-609.65"/>
<polygon fill="#59687e" stroke="#59687e" stroke-width="1.3" points="652.65,-612.24 658.85,-606.46 650.4,-607.11 652.65,-612.24"/>
<text xml:space="preserve" text-anchor="middle" x="647.37" y="-639.53" font-family="Noto Sans CJK KR" font-size="14.00" fill="#46566e">stun / silence / cancel</text>
</g>
<!-- Committing -->
<g id="node8" class="node">
<title>Committing</title>
<ellipse fill="#fff7e6" stroke="#e0ad4e" stroke-width="1.4" cx="384" cy="-429.95" rx="101.88" ry="33.94"/>
<text xml:space="preserve" text-anchor="middle" x="384" y="-434.15" font-family="Noto Sans CJK KR" font-size="14.00" fill="#182033">RuntimeCommitter</text>
<text xml:space="preserve" text-anchor="middle" x="384" y="-417.35" font-family="Noto Sans CJK KR" font-size="14.00" fill="#182033">atomic state + outbox</text>
</g>
<!-- Preparing&#45;&gt;Committing -->
<g id="edge9" class="edge">
<title>Preparing&#45;&gt;Committing</title>
<path fill="none" stroke="#59687e" stroke-width="1.3" d="M384,-534.1C384,-516.08 384,-493.63 384,-474.28"/>
<polygon fill="#59687e" stroke="#59687e" stroke-width="1.3" points="386.8,-474.45 384,-466.45 381.2,-474.45 386.8,-474.45"/>
<text xml:space="preserve" text-anchor="middle" x="424.63" y="-489.09" font-family="Noto Sans CJK KR" font-size="14.00" fill="#46566e">combine plans</text>
</g>
<!-- Committed -->
<g id="node9" class="node">
<title>Committed</title>
<ellipse fill="#eefbf6" stroke="#61b99a" stroke-width="1.4" cx="512" cy="-291.39" rx="164.77" ry="33.94"/>
<text xml:space="preserve" text-anchor="middle" x="512" y="-295.59" font-family="Noto Sans CJK KR" font-size="14.00" fill="#182033">Committed</text>
<text xml:space="preserve" text-anchor="middle" x="512" y="-278.79" font-family="Noto Sans CJK KR" font-size="14.00" fill="#182033">SkillCommitted / DamageCommitted</text>
</g>
<!-- Committing&#45;&gt;Committed -->
<g id="edge10" class="edge">
<title>Committing&#45;&gt;Committed</title>
<path fill="none" stroke="#59687e" stroke-width="1.3" d="M414.01,-396.93C432.12,-377.61 455.35,-352.83 474.64,-332.24"/>
<polygon fill="#59687e" stroke="#59687e" stroke-width="1.3" points="476.52,-334.34 479.94,-326.59 472.43,-330.51 476.52,-334.34"/>
<text xml:space="preserve" text-anchor="middle" x="468.99" y="-362.41" font-family="Noto Sans CJK KR" font-size="14.00" fill="#46566e">success</text>
</g>
<!-- Committing&#45;&gt;Rejected -->
<g id="edge11" class="edge">
<title>Committing&#45;&gt;Rejected</title>
<path fill="none" stroke="#59687e" stroke-width="1.3" d="M338.81,-399.17C327.36,-391.44 315.14,-383.02 303.98,-375.01 287.92,-363.46 270.81,-350.63 255.05,-338.58"/>
<polygon fill="#59687e" stroke="#59687e" stroke-width="1.3" points="257.04,-336.58 248.99,-333.93 253.64,-341.02 257.04,-336.58"/>
<text xml:space="preserve" text-anchor="middle" x="365.99" y="-362.41" font-family="Noto Sans CJK KR" font-size="14.00" fill="#46566e">version / invariant fail</text>
</g>
<!-- Committed&#45;&gt;Cooldown -->
<g id="edge12" class="edge">
<title>Committed&#45;&gt;Cooldown</title>
<path fill="none" stroke="#59687e" stroke-width="1.3" d="M662.81,-305.61C876.57,-326.43 1242,-370.56 1242,-428.95 1242,-961.43 1242,-961.43 1242,-961.43 1242,-1002.6 1231.09,-1017 1200,-1043.98 1186.2,-1055.94 1169.62,-1065.29 1152.47,-1072.58"/>
<polygon fill="#59687e" stroke="#59687e" stroke-width="1.3" points="1151.66,-1069.88 1145.28,-1075.47 1153.75,-1075.08 1151.66,-1069.88"/>
<text xml:space="preserve" text-anchor="middle" x="1309.46" y="-702.87" font-family="Noto Sans CJK KR" font-size="14.00" fill="#46566e">cost/cooldown mutation</text>
</g>
<!-- ReactionQueued -->
<g id="node10" class="node">
<title>ReactionQueued</title>
<ellipse fill="#f3eefc" stroke="#ab8fe0" stroke-width="1.4" cx="512" cy="-152.82" rx="107.85" ry="33.94"/>
<text xml:space="preserve" text-anchor="middle" x="512" y="-157.02" font-family="Noto Sans CJK KR" font-size="14.00" fill="#182033">ReactionQueued</text>
<text xml:space="preserve" text-anchor="middle" x="512" y="-140.22" font-family="Noto Sans CJK KR" font-size="14.00" fill="#182033">post&#45;commit command</text>
</g>
<!-- Committed&#45;&gt;ReactionQueued -->
<g id="edge13" class="edge">
<title>Committed&#45;&gt;ReactionQueued</title>
<path fill="none" stroke="#59687e" stroke-width="1.3" d="M512,-256.98C512,-238.96 512,-216.51 512,-197.16"/>
<polygon fill="#59687e" stroke="#59687e" stroke-width="1.3" points="514.8,-197.33 512,-189.33 509.2,-197.33 514.8,-197.33"/>
<text xml:space="preserve" text-anchor="middle" x="566.03" y="-211.96" font-family="Noto Sans CJK KR" font-size="14.00" fill="#46566e">commit_then_react</text>
</g>
<!-- Recovery -->
<g id="node11" class="node">
<title>Recovery</title>
<ellipse fill="#e9fbff" stroke="#54b7cf" stroke-width="1.4" cx="366" cy="-41.94" rx="105.09" ry="33.94"/>
<text xml:space="preserve" text-anchor="middle" x="366" y="-46.14" font-family="Noto Sans CJK KR" font-size="14.00" fill="#182033">Recovery</text>
<text xml:space="preserve" text-anchor="middle" x="366" y="-29.34" font-family="Noto Sans CJK KR" font-size="14.00" fill="#182033">visual / input recovery</text>
</g>
<!-- Committed&#45;&gt;Recovery -->
<g id="edge14" class="edge">
<title>Committed&#45;&gt;Recovery</title>
<path fill="none" stroke="#59687e" stroke-width="1.3" d="M457.16,-258.83C431.33,-241.04 402.6,-216.42 386,-186.76 368.85,-156.13 364.44,-116.27 363.99,-86.28"/>
<polygon fill="#59687e" stroke="#59687e" stroke-width="1.3" points="366.79,-86.48 363.97,-78.48 361.19,-86.49 366.79,-86.48"/>
</g>
<!-- ReactionQueued&#45;&gt;Recovery -->
<g id="edge15" class="edge">
<title>ReactionQueued&#45;&gt;Recovery</title>
<path fill="none" stroke="#59687e" stroke-width="1.3" stroke-dasharray="5,2" d="M470.55,-120.91C453.22,-107.99 432.94,-92.87 414.89,-79.4"/>
<polygon fill="#59687e" stroke="#59687e" stroke-width="1.3" points="416.96,-77.45 408.88,-74.92 413.61,-81.94 416.96,-77.45"/>
</g>
<!-- Recovery&#45;&gt;Idle -->
<g id="edge16" class="edge">
<title>Recovery&#45;&gt;Idle</title>
<path fill="none" stroke="#59687e" stroke-width="1.3" d="M270.26,-56.42C175.34,-72.55 44,-103.58 44,-151.82 44,-367.61 44,-367.61 44,-367.61 44,-490.87 9,-519.47 9,-642.73 9,-834.75 9,-834.75 9,-834.75 9,-884.24 48.97,-887.31 95,-905.49 178.82,-938.61 281.99,-951.41 351.94,-956.35"/>
<polygon fill="#59687e" stroke="#59687e" stroke-width="1.3" points="351.45,-959.13 359.62,-956.87 351.83,-953.54 351.45,-959.13"/>
<text xml:space="preserve" text-anchor="middle" x="46.5" y="-489.09" font-family="Noto Sans CJK KR" font-size="14.00" fill="#46566e">finish</text>
</g>
<!-- Rejected&#45;&gt;Idle -->
<g id="edge17" class="edge">
<title>Rejected&#45;&gt;Idle</title>
<path fill="none" stroke="#59687e" stroke-width="1.3" d="M148.14,-333.54C140.8,-341.25 133.76,-349.6 128,-358.21 109.74,-385.5 48,-609.89 48,-642.73 48,-834.75 48,-834.75 48,-834.75 48,-898.52 241.97,-934.62 354.19,-950.18"/>
<polygon fill="#59687e" stroke="#59687e" stroke-width="1.3" points="353.54,-952.91 361.84,-951.22 354.29,-947.37 353.54,-952.91"/>
</g>
<!-- Interrupted&#45;&gt;Idle -->
<g id="edge18" class="edge">
<title>Interrupted&#45;&gt;Idle</title>
<path fill="none" stroke="#59687e" stroke-width="1.3" d="M729.97,-614.81C709.82,-678.11 665.75,-793.58 594,-867.69 566.26,-896.35 527.62,-918.7 495.04,-934.16"/>
<polygon fill="#59687e" stroke="#59687e" stroke-width="1.3" points="493.89,-931.6 487.81,-937.51 496.24,-936.68 493.89,-931.6"/>
</g>
</g>
</svg>
