<?xml version="1.0" encoding="UTF-8" standalone="no"?>
<!DOCTYPE svg PUBLIC "-//W3C//DTD SVG 1.1//EN"
 "http://www.w3.org/Graphics/SVG/1.1/DTD/svg11.dtd">
<!-- Generated by graphviz version 15.1.0 (20260618.0150)
 -->
<!-- Title: G Pages: 1 -->
<svg width="2472pt" height="1862pt"
 viewBox="12.00 12.00 2460.00 1851.00" xmlns="http://www.w3.org/2000/svg" xmlns:xlink="http://www.w3.org/1999/xlink">
<g id="graph0" class="graph" transform="scale(1.33333 1.33333) rotate(0) translate(26.64 1370.02)">
<title>G</title>
<polygon fill="#ffffff" stroke="none" points="-18,18 -18,-1361.38 1818.73,-1361.38 1818.73,18 -18,18"/>
<g id="clust1" class="cluster">
<title>cluster_availability</title>
<path fill="#ffffff" stroke="#dfe5ee" stroke-dasharray="5,2" d="M20,-301.01C20,-301.01 326,-301.01 326,-301.01 332,-301.01 338,-307.01 338,-313.01 338,-313.01 338,-1280.98 338,-1280.98 338,-1286.98 332,-1292.98 326,-1292.98 326,-1292.98 20,-1292.98 20,-1292.98 14,-1292.98 8,-1286.98 8,-1280.98 8,-1280.98 8,-313.01 8,-313.01 8,-307.01 14,-301.01 20,-301.01"/>
<text xml:space="preserve" text-anchor="middle" x="173" y="-1275.68" font-family="Noto Sans KR" font-size="14.00">SkillRuntime · long&#45;lived availability</text>
</g>
<g id="clust2" class="cluster">
<title>cluster_execution</title>
<path fill="#ffffff" stroke="#dfe5ee" stroke-dasharray="5,2" d="M457,-8C457,-8 1288,-8 1288,-8 1294,-8 1300,-14 1300,-20 1300,-20 1300,-1280.98 1300,-1280.98 1300,-1286.98 1294,-1292.98 1288,-1292.98 1288,-1292.98 457,-1292.98 457,-1292.98 451,-1292.98 445,-1286.98 445,-1280.98 445,-1280.98 445,-20 445,-20 445,-14 451,-8 457,-8"/>
<text xml:space="preserve" text-anchor="middle" x="872.5" y="-1275.68" font-family="Noto Sans KR" font-size="14.00">Internal project&#45;specific SkillExecution · one cast</text>
</g>
<!-- Start -->
<g id="node1" class="node">
<title>Start</title>
<ellipse fill="#ffffff" stroke="#8fa3c2" stroke-width="1.4" cx="349" cy="-1336.18" rx="7.2" ry="7.2"/>
</g>
<!-- Ready -->
<g id="node3" class="node">
<title>Ready</title>
<ellipse fill="#eefbf6" stroke="#61b99a" stroke-width="1.4" cx="173" cy="-1233.15" rx="165.31" ry="34.58"/>
<text xml:space="preserve" text-anchor="middle" x="173" y="-1237.1" font-family="Noto Sans KR" font-size="14.00" fill="#182033">Ready</text>
<text xml:space="preserve" text-anchor="middle" x="173" y="-1219.85" font-family="Noto Sans KR" font-size="14.00" fill="#182033">learned · charge · cooldown valid</text>
</g>
<!-- Start&#45;&gt;Ready -->
<g id="edge7" class="edge">
<title>Start&#45;&gt;Ready</title>
<path fill="none" stroke="#59687e" stroke-width="1.3" d="M342.74,-1331.58C325.87,-1321.9 278.04,-1294.44 237.43,-1271.13"/>
<polygon fill="#59687e" stroke="#59687e" stroke-width="1.3" points="238.93,-1268.76 230.6,-1267.21 236.14,-1273.62 238.93,-1268.76"/>
</g>
<!-- Idle -->
<g id="node5" class="node">
<title>Idle</title>
<ellipse fill="#f7f9fc" stroke="#8fa3c2" stroke-width="1.4" cx="526" cy="-1233.15" rx="75.69" ry="34.58"/>
<text xml:space="preserve" text-anchor="middle" x="526" y="-1237.1" font-family="Noto Sans KR" font-size="14.00" fill="#182033">Idle</text>
<text xml:space="preserve" text-anchor="middle" x="526" y="-1219.85" font-family="Noto Sans KR" font-size="14.00" fill="#182033">no active cast</text>
</g>
<!-- Start&#45;&gt;Idle -->
<g id="edge6" class="edge">
<title>Start&#45;&gt;Idle</title>
<path fill="none" stroke="#59687e" stroke-width="1.3" d="M355.3,-1331.58C373.56,-1321.16 427.94,-1290.12 470.47,-1265.84"/>
<polygon fill="#59687e" stroke="#59687e" stroke-width="1.3" points="471.8,-1268.31 477.36,-1261.91 469.03,-1263.44 471.8,-1268.31"/>
</g>
<!-- FailureReturn -->
<g id="node2" class="node">
<title>FailureReturn</title>
<ellipse fill="#ffffff" stroke="#e07b91" stroke-width="1.4" cx="1304" cy="-42.58" rx="4.32" ry="4.32"/>
</g>
<!-- FailureReturn&#45;&gt;Idle -->
<g id="edge26" class="edge">
<title>FailureReturn:w&#45;&gt;Idle:w</title>
<path fill="none" stroke="#c35f76" stroke-width="1.3" d="M1298.28,-42.58C1296.31,-42.58 1297.89,-45.49 1299.28,-46.9 1373.74,-122.46 1441.8,-46.74 1531,-104.16 1552.08,-117.73 1555.98,-125.42 1566,-148.41 1718.43,-498.16 1825.02,-716 1578,-1006.77 1523.74,-1070.64 1508.18,-1090.28 1433,-1127.32 1352.89,-1166.79 1325.57,-1160.16 1237,-1171.57 1193.61,-1177.16 480.84,-1167.55 449.99,-1198.57 442.2,-1206.41 437.15,-1220.84 440.64,-1228.34"/>
<polygon fill="#c35f76" stroke="#c35f76" stroke-width="1.3" points="438.96,-1230.61 447.29,-1232.17 441.75,-1225.75 438.96,-1230.61"/>
<text xml:space="preserve" text-anchor="middle" x="1762.85" y="-618.06" font-family="Noto Sans KR" font-size="14.00" fill="#9d4358">next request</text>
</g>
<!-- Ready&#45;&gt;Idle -->
<!-- Validating -->
<g id="node6" class="node">
<title>Validating</title>
<ellipse fill="#f3eefc" stroke="#ab8fe0" stroke-width="1.4" cx="618" cy="-1080.55" rx="149.4" ry="34.58"/>
<text xml:space="preserve" text-anchor="middle" x="618" y="-1084.5" font-family="Noto Sans KR" font-size="14.00" fill="#182033">ISkillRequestValidator.Validate</text>
<text xml:space="preserve" text-anchor="middle" x="618" y="-1067.25" font-family="Noto Sans KR" font-size="14.00" fill="#182033">public SkillDecision</text>
</g>
<!-- Ready&#45;&gt;Validating -->
<g id="edge9" class="edge">
<title>Ready&#45;&gt;Validating</title>
<path fill="none" stroke="#59687e" stroke-width="1.3" d="M259.06,-1203.02C335.42,-1177.18 446.69,-1139.52 525.06,-1113"/>
<polygon fill="#59687e" stroke="#59687e" stroke-width="1.3" points="525.9,-1115.67 532.58,-1110.45 524.11,-1110.37 525.9,-1115.67"/>
<text xml:space="preserve" text-anchor="middle" x="433.75" y="-1158.27" font-family="Noto Sans KR" font-size="14.00" fill="#46566e">SkillRequest</text>
</g>
<!-- Cooldown -->
<g id="node4" class="node">
<title>Cooldown</title>
<ellipse fill="#f0f3f9" stroke="#99a8bd" stroke-width="1.4" cx="155" cy="-335.59" rx="146.75" ry="34.58"/>
<text xml:space="preserve" text-anchor="middle" x="155" y="-339.54" font-family="Noto Sans KR" font-size="14.00" fill="#182033">Cooldown</text>
<text xml:space="preserve" text-anchor="middle" x="155" y="-322.29" font-family="Noto Sans KR" font-size="14.00" fill="#182033">committed ready tick / charge</text>
</g>
<!-- Cooldown&#45;&gt;Ready -->
<g id="edge22" class="edge">
<title>Cooldown&#45;&gt;Ready</title>
<path fill="none" stroke="#59687e" stroke-width="1.3" d="M139.97,-370.46C128.26,-399.92 114,-444.08 114,-484.26 114,-1081.55 114,-1081.55 114,-1081.55 114,-1119.97 130.86,-1160.35 146.55,-1189.61"/>
<polygon fill="#59687e" stroke="#59687e" stroke-width="1.3" points="144.09,-1190.95 150.41,-1196.6 149,-1188.25 144.09,-1190.95"/>
<text xml:space="preserve" text-anchor="middle" x="197.25" y="-770.67" font-family="Noto Sans KR" font-size="14.00" fill="#46566e">ready tick / charge restored</text>
</g>
<!-- Committed -->
<g id="node14" class="node">
<title>Committed</title>
<ellipse fill="#eefbf6" stroke="#61b99a" stroke-width="1.4" cx="697" cy="-335.59" rx="180.16" ry="34.58"/>
<text xml:space="preserve" text-anchor="middle" x="697" y="-339.54" font-family="Noto Sans KR" font-size="14.00" fill="#182033">Committed</text>
<text xml:space="preserve" text-anchor="middle" x="697" y="-322.29" font-family="Noto Sans KR" font-size="14.00" fill="#182033">SkillCommitted / DamageCommitted</text>
</g>
<!-- Cooldown&#45;&gt;Committed -->
<!-- Idle&#45;&gt;Validating -->
<g id="edge8" class="edge">
<title>Idle&#45;&gt;Validating</title>
<path fill="none" stroke="#59687e" stroke-width="1.3" stroke-dasharray="5,2" d="M545.96,-1199.47C559.53,-1177.26 577.6,-1147.67 592.25,-1123.69"/>
<polygon fill="#59687e" stroke="#59687e" stroke-width="1.3" points="594.47,-1125.43 596.25,-1117.14 589.69,-1122.51 594.47,-1125.43"/>
<text xml:space="preserve" text-anchor="middle" x="623" y="-1158.27" font-family="Noto Sans KR" font-size="14.00" fill="#46566e">create execution</text>
</g>
<!-- ValidationRejected -->
<g id="node7" class="node">
<title>ValidationRejected</title>
<ellipse fill="#fff0f3" stroke="#e07b91" stroke-width="1.4" cx="1062" cy="-1080.55" rx="103.27" ry="46.78"/>
<text xml:space="preserve" text-anchor="middle" x="1062" y="-1093.12" font-family="Noto Sans KR" font-size="14.00" fill="#182033">Public SkillResult</text>
<text xml:space="preserve" text-anchor="middle" x="1062" y="-1075.87" font-family="Noto Sans KR" font-size="14.00" fill="#182033">validation rejected</text>
<text xml:space="preserve" text-anchor="middle" x="1062" y="-1058.62" font-family="Noto Sans KR" font-size="14.00" fill="#182033">no mutation / event</text>
</g>
<!-- Validating&#45;&gt;ValidationRejected -->
<g id="edge11" class="edge">
<title>Validating&#45;&gt;ValidationRejected</title>
<path fill="none" stroke="#c35f76" stroke-width="1.3" d="M768.01,-1080.55C827.01,-1080.55 893.61,-1080.55 948.49,-1080.55"/>
<polygon fill="#c35f76" stroke="#c35f76" stroke-width="1.3" points="948.27,-1083.35 956.27,-1080.55 948.27,-1077.75 948.27,-1083.35"/>
<text xml:space="preserve" text-anchor="middle" x="863.07" y="-1087.5" font-family="Noto Sans KR" font-size="14.00" fill="#9d4358">invalid · public failure</text>
</g>
<!-- Casting -->
<g id="node8" class="node">
<title>Casting</title>
<ellipse fill="#fff7e6" stroke="#e0ad4e" stroke-width="1.4" cx="642" cy="-927.94" rx="75.16" ry="34.58"/>
<text xml:space="preserve" text-anchor="middle" x="642" y="-931.89" font-family="Noto Sans KR" font-size="14.00" fill="#182033">Casting</text>
<text xml:space="preserve" text-anchor="middle" x="642" y="-914.64" font-family="Noto Sans KR" font-size="14.00" fill="#182033">windup / cast</text>
</g>
<!-- Validating&#45;&gt;Casting -->
<g id="edge10" class="edge">
<title>Validating&#45;&gt;Casting</title>
<path fill="none" stroke="#4f8b74" stroke-width="1.3" d="M623.45,-1045.37C626.88,-1023.81 631.35,-995.75 635.05,-972.58"/>
<polygon fill="#4f8b74" stroke="#4f8b74" stroke-width="1.3" points="637.77,-973.27 636.27,-964.93 632.24,-972.38 637.77,-973.27"/>
<text xml:space="preserve" text-anchor="middle" x="685.02" y="-993.47" font-family="Noto Sans KR" font-size="14.00" fill="#3f735f">valid · begin cast</text>
</g>
<!-- ValidationRejected&#45;&gt;FailureReturn -->
<g id="edge23" class="edge">
<title>ValidationRejected&#45;&gt;FailureReturn</title>
<path fill="none" stroke="#c35f76" stroke-width="1.3" d="M1162.05,-1067.64C1280.38,-1052.78 1464.6,-1026.86 1490,-1006.77 1519.47,-983.47 1523,-966.51 1523,-928.94 1523,-928.94 1523,-928.94 1523,-181.98 1523,-84.75 1366.84,-53.04 1318.25,-45.52"/>
<polygon fill="#c35f76" stroke="#c35f76" stroke-width="1.3" points="1318.84,-42.78 1310.52,-44.42 1318.04,-48.32 1318.84,-42.78"/>
<text xml:space="preserve" text-anchor="middle" x="1568.38" y="-547.86" font-family="Noto Sans KR" font-size="14.00" fill="#9d4358">result returned</text>
</g>
<!-- Interrupted -->
<g id="node9" class="node">
<title>Interrupted</title>
<ellipse fill="#fff0f3" stroke="#e07b91" stroke-width="1.4" cx="1096" cy="-775.34" rx="145.69" ry="46.78"/>
<text xml:space="preserve" text-anchor="middle" x="1096" y="-787.92" font-family="Noto Sans KR" font-size="14.00" fill="#182033">Public SkillResult: Interrupted</text>
<text xml:space="preserve" text-anchor="middle" x="1096" y="-770.67" font-family="Noto Sans KR" font-size="14.00" fill="#182033">before internal Prepare</text>
<text xml:space="preserve" text-anchor="middle" x="1096" y="-753.42" font-family="Noto Sans KR" font-size="14.00" fill="#182033">refund policy</text>
</g>
<!-- Casting&#45;&gt;Interrupted -->
<g id="edge13" class="edge">
<title>Casting&#45;&gt;Interrupted</title>
<path fill="none" stroke="#c35f76" stroke-width="1.3" d="M710.33,-912.71C759.02,-901.86 825.73,-885.54 883,-866.37 923.79,-852.71 967.76,-834.71 1005.09,-818.4"/>
<polygon fill="#c35f76" stroke="#c35f76" stroke-width="1.3" points="1005.94,-821.08 1012.13,-815.3 1003.68,-815.96 1005.94,-821.08"/>
<text xml:space="preserve" text-anchor="middle" x="1031.12" y="-853.07" font-family="Noto Sans KR" font-size="14.00" fill="#9d4358">interrupt · stun / silence / cancel</text>
</g>
<!-- Preparing -->
<g id="node10" class="node">
<title>Preparing</title>
<ellipse fill="#e9fbff" stroke="#54b7cf" stroke-width="1.4" cx="642" cy="-775.34" rx="196.6" ry="34.58"/>
<text xml:space="preserve" text-anchor="middle" x="642" y="-779.29" font-family="Noto Sans KR" font-size="14.00" fill="#182033">Internal SkillReleasePlan</text>
<text xml:space="preserve" text-anchor="middle" x="642" y="-762.04" font-family="Noto Sans KR" font-size="14.00" fill="#182033">Skill mutations + public EffectBundlePlan</text>
</g>
<!-- Casting&#45;&gt;Preparing -->
<g id="edge12" class="edge">
<title>Casting&#45;&gt;Preparing</title>
<path fill="none" stroke="#59687e" stroke-width="1.3" d="M642,-892.77C642,-871.3 642,-843.39 642,-820.29"/>
<polygon fill="#59687e" stroke="#59687e" stroke-width="1.3" points="644.8,-820.35 642,-812.35 639.2,-820.35 644.8,-820.35"/>
<text xml:space="preserve" text-anchor="middle" x="687.38" y="-853.07" font-family="Noto Sans KR" font-size="14.00" fill="#46566e">release marker</text>
</g>
<!-- Interrupted&#45;&gt;FailureReturn -->
<g id="edge24" class="edge">
<title>Interrupted&#45;&gt;FailureReturn</title>
<path fill="none" stroke="#c35f76" stroke-width="1.3" d="M1232.01,-757.81C1272.79,-747.21 1315.11,-729.88 1347,-701.57 1375.1,-676.62 1380,-661.31 1380,-623.74 1380,-623.74 1380,-623.74 1380,-181.98 1380,-127.53 1334.25,-74.25 1313.74,-53.11"/>
<polygon fill="#c35f76" stroke="#c35f76" stroke-width="1.3" points="1315.92,-51.33 1308.28,-47.67 1311.97,-55.3 1315.92,-51.33"/>
<text xml:space="preserve" text-anchor="middle" x="1434.38" y="-413.31" font-family="Noto Sans KR" font-size="14.00" fill="#9d4358">interrupt handled</text>
</g>
<!-- Preparing&#45;&gt;Interrupted -->
<!-- Committing -->
<g id="node11" class="node">
<title>Committing</title>
<ellipse fill="#fff7e6" stroke="#e0ad4e" stroke-width="1.4" cx="676" cy="-622.74" rx="110.69" ry="34.58"/>
<text xml:space="preserve" text-anchor="middle" x="676" y="-626.69" font-family="Noto Sans KR" font-size="14.00" fill="#182033">RuntimeCommitter</text>
<text xml:space="preserve" text-anchor="middle" x="676" y="-609.44" font-family="Noto Sans KR" font-size="14.00" fill="#182033">atomic state + outbox</text>
</g>
<!-- Preparing&#45;&gt;Committing -->
<g id="edge14" class="edge">
<title>Preparing&#45;&gt;Committing</title>
<path fill="none" stroke="#59687e" stroke-width="1.3" d="M649.72,-740.17C654.58,-718.6 660.92,-690.54 666.15,-667.37"/>
<polygon fill="#59687e" stroke="#59687e" stroke-width="1.3" points="668.85,-668.12 667.88,-659.7 663.39,-666.88 668.85,-668.12"/>
<text xml:space="preserve" text-anchor="middle" x="742.3" y="-688.27" font-family="Noto Sans KR" font-size="14.00" fill="#46566e">combine SkillReleasePlan</text>
</g>
<!-- CommitOutcome -->
<g id="node12" class="node">
<title>CommitOutcome</title>
<polygon fill="#f3eefc" stroke="#ab8fe0" stroke-width="1.4" points="697,-516.91 559.21,-485.26 697,-453.61 834.79,-485.26 697,-516.91"/>
<text xml:space="preserve" text-anchor="middle" x="697" y="-480.59" font-family="Noto Sans KR" font-size="14.00" fill="#182033">commit accepted?</text>
</g>
<!-- Committing&#45;&gt;CommitOutcome -->
<g id="edge15" class="edge">
<title>Committing&#45;&gt;CommitOutcome</title>
<path fill="none" stroke="#59687e" stroke-width="1.3" d="M681.3,-587.55C684.2,-568.86 687.8,-545.61 690.82,-526.1"/>
<polygon fill="#59687e" stroke="#59687e" stroke-width="1.3" points="693.59,-526.56 692.04,-518.23 688.05,-525.71 693.59,-526.56"/>
<text xml:space="preserve" text-anchor="middle" x="754.13" y="-547.86" font-family="Noto Sans KR" font-size="14.00" fill="#46566e">atomic commit result</text>
</g>
<!-- CommitRejected -->
<g id="node13" class="node">
<title>CommitRejected</title>
<ellipse fill="#fff0f3" stroke="#e07b91" stroke-width="1.4" cx="1113" cy="-335.59" rx="123.95" ry="46.78"/>
<text xml:space="preserve" text-anchor="middle" x="1113" y="-348.16" font-family="Noto Sans KR" font-size="14.00" fill="#182033">Public SkillResult</text>
<text xml:space="preserve" text-anchor="middle" x="1113" y="-330.91" font-family="Noto Sans KR" font-size="14.00" fill="#182033">version / invariant failure</text>
<text xml:space="preserve" text-anchor="middle" x="1113" y="-313.66" font-family="Noto Sans KR" font-size="14.00" fill="#182033">no mutation / event</text>
</g>
<!-- CommitOutcome&#45;&gt;CommitRejected -->
<g id="edge17" class="edge">
<title>CommitOutcome&#45;&gt;CommitRejected</title>
<path fill="none" stroke="#c35f76" stroke-width="1.3" d="M761.76,-467.9C801.7,-457.29 853.76,-442.52 899,-426.61 941.15,-411.79 986.93,-392.92 1025.29,-376.29"/>
<polygon fill="#c35f76" stroke="#c35f76" stroke-width="1.3" points="1026.34,-378.89 1032.56,-373.12 1024.11,-373.75 1026.34,-378.89"/>
<text xml:space="preserve" text-anchor="middle" x="1022.02" y="-413.31" font-family="Noto Sans KR" font-size="14.00" fill="#9d4358">failure · version / invariant</text>
</g>
<!-- CommitOutcome&#45;&gt;Committed -->
<g id="edge16" class="edge">
<title>CommitOutcome&#45;&gt;Committed</title>
<path fill="none" stroke="#4f8b74" stroke-width="1.3" d="M697,-452.94C697,-431.83 697,-403.68 697,-380.36"/>
<polygon fill="#4f8b74" stroke="#4f8b74" stroke-width="1.3" points="699.8,-380.66 697,-372.66 694.2,-380.66 699.8,-380.66"/>
<text xml:space="preserve" text-anchor="middle" x="720.62" y="-413.31" font-family="Noto Sans KR" font-size="14.00" fill="#3f735f">success</text>
</g>
<!-- CommitRejected&#45;&gt;FailureReturn -->
<g id="edge25" class="edge">
<title>CommitRejected&#45;&gt;FailureReturn</title>
<path fill="none" stroke="#c35f76" stroke-width="1.3" d="M1140.29,-289.48C1164.05,-251.08 1200.08,-194.91 1235,-148.41 1260.03,-115.07 1277.08,-114.3 1296,-77.16 1299.2,-70.88 1301.14,-63.29 1302.31,-56.92"/>
<polygon fill="#c35f76" stroke="#c35f76" stroke-width="1.3" points="1305.05,-57.56 1303.41,-49.25 1299.51,-56.77 1305.05,-57.56"/>
<text xml:space="preserve" text-anchor="middle" x="1286" y="-178.31" font-family="Noto Sans KR" font-size="14.00" fill="#9d4358">commit rejected</text>
</g>
<!-- Committed&#45;&gt;Cooldown -->
<g id="edge18" class="edge">
<title>Committed&#45;&gt;Cooldown</title>
<path fill="none" stroke="#59687e" stroke-width="1.3" d="M516.29,-335.59C450.2,-335.59 376.01,-335.59 312.14,-335.59"/>
<polygon fill="#59687e" stroke="#59687e" stroke-width="1.3" points="312.36,-332.79 304.36,-335.59 312.36,-338.39 312.36,-332.79"/>
<text xml:space="preserve" text-anchor="middle" x="409.29" y="-342.54" font-family="Noto Sans KR" font-size="14.00" fill="#46566e">cost / cooldown mutation</text>
</g>
<!-- Committed&#45;&gt;CommitRejected -->
<!-- ReactionQueued -->
<g id="node15" class="node">
<title>ReactionQueued</title>
<ellipse fill="#f3eefc" stroke="#ab8fe0" stroke-width="1.4" cx="902" cy="-182.98" rx="120.77" ry="34.58"/>
<text xml:space="preserve" text-anchor="middle" x="902" y="-186.93" font-family="Noto Sans KR" font-size="14.00" fill="#182033">ReactionQueued</text>
<text xml:space="preserve" text-anchor="middle" x="902" y="-169.68" font-family="Noto Sans KR" font-size="14.00" fill="#182033">post&#45;commit command</text>
</g>
<!-- Committed&#45;&gt;ReactionQueued -->
<g id="edge19" class="edge">
<title>Committed&#45;&gt;ReactionQueued</title>
<path fill="none" stroke="#59687e" stroke-width="1.3" d="M741.99,-301.53C774.18,-277.89 817.55,-246.02 851.02,-221.43"/>
<polygon fill="#59687e" stroke="#59687e" stroke-width="1.3" points="852.5,-223.82 857.29,-216.83 849.18,-219.31 852.5,-223.82"/>
<text xml:space="preserve" text-anchor="middle" x="879.36" y="-248.51" font-family="Noto Sans KR" font-size="14.00" fill="#46566e">commit_then_react</text>
</g>
<!-- Recovery -->
<g id="node16" class="node">
<title>Recovery</title>
<ellipse fill="#e9fbff" stroke="#54b7cf" stroke-width="1.4" cx="1075" cy="-42.58" rx="112.81" ry="34.58"/>
<text xml:space="preserve" text-anchor="middle" x="1075" y="-46.53" font-family="Noto Sans KR" font-size="14.00" fill="#182033">Recovery</text>
<text xml:space="preserve" text-anchor="middle" x="1075" y="-29.28" font-family="Noto Sans KR" font-size="14.00" fill="#182033">visual / input recovery</text>
</g>
<!-- Committed&#45;&gt;Recovery -->
<g id="edge20" class="edge">
<title>Committed&#45;&gt;Recovery</title>
<path fill="none" stroke="#59687e" stroke-width="1.3" d="M681.82,-300.47C666.34,-259.88 648.93,-192.12 682.5,-148.41 716.5,-104.13 858.55,-74.52 962.01,-58.38"/>
<polygon fill="#59687e" stroke="#59687e" stroke-width="1.3" points="962.15,-61.19 969.63,-57.21 961.3,-55.66 962.15,-61.19"/>
<text xml:space="preserve" text-anchor="middle" x="717.75" y="-178.31" font-family="Noto Sans KR" font-size="14.00" fill="#46566e">no reaction</text>
</g>
<!-- ReactionQueued&#45;&gt;Recovery -->
<g id="edge21" class="edge">
<title>ReactionQueued&#45;&gt;Recovery</title>
<path fill="none" stroke="#59687e" stroke-width="1.3" stroke-dasharray="5,2" d="M932.51,-148.99C946.64,-134.51 964.02,-117.75 981,-104.16 991.84,-95.48 1003.95,-86.92 1015.79,-79.1"/>
<polygon fill="#59687e" stroke="#59687e" stroke-width="1.3" points="1017.09,-81.59 1022.27,-74.88 1014.04,-76.9 1017.09,-81.59"/>
<text xml:space="preserve" text-anchor="middle" x="1042.5" y="-108.11" font-family="Noto Sans KR" font-size="14.00" fill="#46566e">reaction dispatched</text>
</g>
<!-- Recovery&#45;&gt;FailureReturn -->
<!-- Recovery&#45;&gt;Idle -->
<g id="edge27" class="edge">
<title>Recovery:e&#45;&gt;Idle:e</title>
<path fill="none" stroke="#54a0b7" stroke-width="1.3" d="M1189.29,-42.58C1204.66,-42.58 1190.03,-61.88 1188.29,-77.16 1181.19,-139.48 1146.53,-161.17 1174,-217.56 1196.49,-263.74 1237.57,-245.38 1265,-288.81 1294.32,-335.23 1285.79,-354.81 1292,-409.36 1328.12,-726.83 1480.95,-901.41 1255,-1127.32 1153.43,-1228.87 766.9,-1233.01 612.81,-1233.14"/>
<polygon fill="#54a0b7" stroke="#54a0b7" stroke-width="1.3" points="612.97,-1230.34 604.97,-1233.15 612.98,-1235.94 612.97,-1230.34"/>
<text xml:space="preserve" text-anchor="middle" x="1392.15" y="-618.06" font-family="Noto Sans KR" font-size="14.00" fill="#3b7f91">finish · next cast</text>
</g>
</g>
</svg>
