<?xml version="1.0" encoding="UTF-8" standalone="no"?>
<!DOCTYPE svg PUBLIC "-//W3C//DTD SVG 1.1//EN"
 "http://www.w3.org/Graphics/SVG/1.1/DTD/svg11.dtd">
<!-- Generated by graphviz version 15.1.0 (20260618.0150)
 -->
<!-- Title: G Pages: 1 -->
<svg width="1212pt" height="1481pt"
 viewBox="12.00 12.00 1200.00 1470.00" xmlns="http://www.w3.org/2000/svg" xmlns:xlink="http://www.w3.org/1999/xlink">
<g id="graph0" class="graph" transform="scale(1.33333 1.33333) rotate(0) translate(26.64 1084.29)">
<title>G</title>
<polygon fill="#ffffff" stroke="none" points="-18,18 -18,-1075.65 873.71,-1075.65 873.71,18 -18,18"/>
<!-- A -->
<g id="node1" class="node">
<title>A</title>
<path fill="#eaf0ff" stroke="#8292f7" stroke-width="1.4" d="M663.17,-1057.65C663.17,-1057.65 542.75,-1057.65 542.75,-1057.65 536.75,-1057.65 530.75,-1051.65 530.75,-1045.65 530.75,-1045.65 530.75,-1020.75 530.75,-1020.75 530.75,-1014.75 536.75,-1008.75 542.75,-1008.75 542.75,-1008.75 663.17,-1008.75 663.17,-1008.75 669.17,-1008.75 675.17,-1014.75 675.17,-1020.75 675.17,-1020.75 675.17,-1045.65 675.17,-1045.65 675.17,-1051.65 669.17,-1057.65 663.17,-1057.65"/>
<text xml:space="preserve" text-anchor="middle" x="602.96" y="-1037.15" font-family="Noto Sans KR" font-size="14.00" fill="#182033">1. Player Input / AI</text>
<text xml:space="preserve" text-anchor="middle" x="602.96" y="-1019.9" font-family="Noto Sans KR" font-size="14.00" fill="#182033">public SkillRequest</text>
</g>
<!-- B -->
<g id="node2" class="node">
<title>B</title>
<path fill="#f0f3f9" stroke="#99a8bd" stroke-width="1.4" d="M710.8,-961.75C710.8,-961.75 495.13,-961.75 495.13,-961.75 489.13,-961.75 483.13,-955.75 483.13,-949.75 483.13,-949.75 483.13,-907.6 483.13,-907.6 483.13,-901.6 489.13,-895.6 495.13,-895.6 495.13,-895.6 710.8,-895.6 710.8,-895.6 716.8,-895.6 722.8,-901.6 722.8,-907.6 722.8,-907.6 722.8,-949.75 722.8,-949.75 722.8,-955.75 716.8,-961.75 710.8,-961.75"/>
<text xml:space="preserve" text-anchor="middle" x="602.96" y="-941.25" font-family="Noto Sans KR" font-size="14.00" fill="#182033">2. &lt;&lt;internal project coordinator&gt;&gt;</text>
<text xml:space="preserve" text-anchor="middle" x="602.96" y="-924" font-family="Noto Sans KR" font-size="14.00" fill="#182033">SkillExecutionCoordinator.Begin</text>
<text xml:space="preserve" text-anchor="middle" x="602.96" y="-906.75" font-family="Noto Sans KR" font-size="14.00" fill="#182033">Definition + SkillRuntime 조회</text>
</g>
<!-- A&#45;&gt;B -->
<g id="edge1" class="edge">
<title>A&#45;&gt;B</title>
<path fill="none" stroke="#59687e" stroke-width="1.3" d="M602.96,-1008.16C602.96,-997.33 602.96,-984.21 602.96,-971.82"/>
<polygon fill="#59687e" stroke="#59687e" stroke-width="1.3" points="605.76,-972.07 602.96,-964.07 600.16,-972.07 605.76,-972.07"/>
</g>
<!-- C -->
<g id="node3" class="node">
<title>C</title>
<path fill="#f3eefc" stroke="#ab8fe0" stroke-width="1.4" d="M740.8,-848.6C740.8,-848.6 465.12,-848.6 465.12,-848.6 459.12,-848.6 453.12,-842.6 453.12,-836.6 453.12,-836.6 453.12,-811.7 453.12,-811.7 453.12,-805.7 459.12,-799.7 465.12,-799.7 465.12,-799.7 740.8,-799.7 740.8,-799.7 746.8,-799.7 752.8,-805.7 752.8,-811.7 752.8,-811.7 752.8,-836.6 752.8,-836.6 752.8,-842.6 746.8,-848.6 740.8,-848.6"/>
<text xml:space="preserve" text-anchor="middle" x="602.96" y="-828.1" font-family="Noto Sans KR" font-size="14.00" fill="#182033">3. &lt;&lt;public&gt;&gt; ISkillRequestValidator.Validate</text>
<text xml:space="preserve" text-anchor="middle" x="602.96" y="-810.85" font-family="Noto Sans KR" font-size="14.00" fill="#182033">SkillDecision accepted / rejected</text>
</g>
<!-- B&#45;&gt;C -->
<g id="edge2" class="edge">
<title>B&#45;&gt;C</title>
<path fill="none" stroke="#59687e" stroke-width="1.3" d="M602.96,-894.95C602.96,-883.44 602.96,-870.49 602.96,-858.89"/>
<polygon fill="#59687e" stroke="#59687e" stroke-width="1.3" points="605.76,-859.09 602.96,-851.09 600.16,-859.09 605.76,-859.09"/>
</g>
<!-- D -->
<g id="node4" class="node">
<title>D</title>
<path fill="#e9fbff" stroke="#54b7cf" stroke-width="1.4" d="M634.67,-752.7C634.67,-752.7 361.25,-752.7 361.25,-752.7 355.25,-752.7 349.25,-746.7 349.25,-740.7 349.25,-740.7 349.25,-715.8 349.25,-715.8 349.25,-709.8 355.25,-703.8 361.25,-703.8 361.25,-703.8 634.67,-703.8 634.67,-703.8 640.67,-703.8 646.67,-709.8 646.67,-715.8 646.67,-715.8 646.67,-740.7 646.67,-740.7 646.67,-746.7 640.67,-752.7 634.67,-752.7"/>
<text xml:space="preserve" text-anchor="middle" x="497.96" y="-732.2" font-family="Noto Sans KR" font-size="14.00" fill="#182033">4. &lt;&lt;internal project model&gt;&gt; SkillExecution</text>
<text xml:space="preserve" text-anchor="middle" x="497.96" y="-714.95" font-family="Noto Sans KR" font-size="14.00" fill="#182033">windup → release marker</text>
</g>
<!-- C&#45;&gt;D -->
<g id="edge3" class="edge">
<title>C&#45;&gt;D</title>
<path fill="none" stroke="#59687e" stroke-width="1.3" d="M576.19,-799.21C562.74,-787.18 546.29,-772.47 531.96,-759.65"/>
<polygon fill="#59687e" stroke="#59687e" stroke-width="1.3" points="533.98,-757.7 526.15,-754.46 530.24,-761.88 533.98,-757.7"/>
</g>
<!-- K -->
<g id="node11" class="node">
<title>K</title>
<path fill="#f0f3f9" stroke="#99a8bd" stroke-width="1.4" d="M558.67,-48.9C558.67,-48.9 333.25,-48.9 333.25,-48.9 327.25,-48.9 321.25,-42.9 321.25,-36.9 321.25,-36.9 321.25,-12 321.25,-12 321.25,-6 327.25,0 333.25,0 333.25,0 558.67,0 558.67,0 564.67,0 570.67,-6 570.67,-12 570.67,-12 570.67,-36.9 570.67,-36.9 570.67,-42.9 564.67,-48.9 558.67,-48.9"/>
<text xml:space="preserve" text-anchor="middle" x="445.96" y="-28.4" font-family="Noto Sans KR" font-size="14.00" fill="#182033">11. &lt;&lt;public contract&gt;&gt; SkillResult</text>
<text xml:space="preserve" text-anchor="middle" x="445.96" y="-11.15" font-family="Noto Sans KR" font-size="14.00" fill="#182033">Succeeded · FailureReason · Effects</text>
</g>
<!-- C&#45;&gt;K -->
<g id="edge11" class="edge">
<title>C&#45;&gt;K</title>
<path fill="none" stroke="#dc2626" stroke-width="1.3" stroke-dasharray="5,2" d="M629.73,-799.21C660.84,-771.39 707.96,-729.25 707.96,-729.25 707.96,-729.25 707.96,-729.25 707.96,-119.35 707.96,-119.35 599.7,-80.55 522.36,-52.83"/>
<polygon fill="#dc2626" stroke="#dc2626" stroke-width="1.3" points="523.42,-50.24 514.94,-50.17 521.53,-55.51 523.42,-50.24"/>
<text xml:space="preserve" text-anchor="middle" x="781.84" y="-435.87" font-family="Noto Sans KR" font-size="14.00" fill="#dc2626">canonical failure reason</text>
</g>
<!-- E -->
<g id="node5" class="node">
<title>E</title>
<path fill="#eefbf6" stroke="#61b99a" stroke-width="1.4" d="M498.17,-656.8C498.17,-656.8 209.75,-656.8 209.75,-656.8 203.75,-656.8 197.75,-650.8 197.75,-644.8 197.75,-644.8 197.75,-619.9 197.75,-619.9 197.75,-613.9 203.75,-607.9 209.75,-607.9 209.75,-607.9 498.17,-607.9 498.17,-607.9 504.17,-607.9 510.17,-613.9 510.17,-619.9 510.17,-619.9 510.17,-644.8 510.17,-644.8 510.17,-650.8 504.17,-656.8 498.17,-656.8"/>
<text xml:space="preserve" text-anchor="middle" x="353.96" y="-636.3" font-family="Noto Sans KR" font-size="14.00" fill="#182033">5. &lt;&lt;internal project model&gt;&gt; SkillReleasePlan</text>
<text xml:space="preserve" text-anchor="middle" x="353.96" y="-619.05" font-family="Noto Sans KR" font-size="14.00" fill="#182033">비용 · 쿨다운 mutation 준비</text>
</g>
<!-- D&#45;&gt;E -->
<g id="edge4" class="edge">
<title>D&#45;&gt;E</title>
<path fill="none" stroke="#59687e" stroke-width="1.3" d="M461.25,-703.31C442.37,-691 419.18,-675.88 399.2,-662.85"/>
<polygon fill="#59687e" stroke="#59687e" stroke-width="1.3" points="400.73,-660.51 392.5,-658.48 397.67,-665.2 400.73,-660.51"/>
</g>
<!-- D&#45;&gt;K -->
<g id="edge12" class="edge">
<title>D&#45;&gt;K</title>
<path fill="none" stroke="#dc2626" stroke-width="1.3" stroke-dasharray="5,2" d="M516.63,-703.56C538.56,-675.74 571.96,-633.35 571.96,-633.35 571.96,-633.35 571.96,-633.35 571.96,-119.35 571.96,-119.35 522.67,-82.62 485.75,-55.1"/>
<polygon fill="#dc2626" stroke="#dc2626" stroke-width="1.3" points="487.75,-53.1 479.66,-50.56 484.4,-57.59 487.75,-53.1"/>
<text xml:space="preserve" text-anchor="middle" x="627.09" y="-379.8" font-family="Noto Sans KR" font-size="14.00" fill="#dc2626">Interrupted policy</text>
</g>
<!-- F -->
<g id="node6" class="node">
<title>F</title>
<path fill="#fff7e6" stroke="#e0ad4e" stroke-width="1.4" d="M477.8,-560.9C477.8,-560.9 226.12,-560.9 226.12,-560.9 220.12,-560.9 214.13,-554.9 214.13,-548.9 214.13,-548.9 214.13,-524 214.13,-524 214.13,-518 220.13,-512 226.13,-512 226.13,-512 477.8,-512 477.8,-512 483.8,-512 489.8,-518 489.8,-524 489.8,-524 489.8,-548.9 489.8,-548.9 489.8,-554.9 483.8,-560.9 477.8,-560.9"/>
<text xml:space="preserve" text-anchor="middle" x="351.96" y="-540.4" font-family="Noto Sans KR" font-size="14.00" fill="#182033">6. &lt;&lt;public&gt;&gt; IEffectPlanner.Prepare</text>
<text xml:space="preserve" text-anchor="middle" x="351.96" y="-523.15" font-family="Noto Sans KR" font-size="14.00" fill="#182033">EffectBundlePlan: operations + reactions</text>
</g>
<!-- E&#45;&gt;F -->
<g id="edge5" class="edge">
<title>E&#45;&gt;F</title>
<path fill="none" stroke="#59687e" stroke-width="1.3" d="M353.46,-607.66C353.22,-596.62 352.94,-583.29 352.68,-571.22"/>
<polygon fill="#59687e" stroke="#59687e" stroke-width="1.3" points="355.48,-571.37 352.51,-563.43 349.88,-571.49 355.48,-571.37"/>
</g>
<!-- G -->
<g id="node7" class="node">
<title>G</title>
<path fill="#fff0f3" stroke="#e07b91" stroke-width="1.4" d="M469.92,-465C469.92,-465 222,-465 222,-465 216,-465 210,-459 210,-453 210,-453 210,-428.1 210,-428.1 210,-422.1 216,-416.1 222,-416.1 222,-416.1 469.92,-416.1 469.92,-416.1 475.92,-416.1 481.92,-422.1 481.92,-428.1 481.92,-428.1 481.92,-453 481.92,-453 481.92,-459 475.92,-465 469.92,-465"/>
<text xml:space="preserve" text-anchor="middle" x="345.96" y="-444.5" font-family="Noto Sans KR" font-size="14.00" fill="#182033">7. &lt;&lt;internal transaction composition&gt;&gt;</text>
<text xml:space="preserve" text-anchor="middle" x="345.96" y="-427.25" font-family="Noto Sans KR" font-size="14.00" fill="#182033">SkillReleasePlan + EffectBundlePlan</text>
</g>
<!-- F&#45;&gt;G -->
<g id="edge6" class="edge">
<title>F&#45;&gt;G</title>
<path fill="none" stroke="#59687e" stroke-width="1.3" d="M350.45,-511.76C349.74,-500.72 348.89,-487.39 348.12,-475.32"/>
<polygon fill="#59687e" stroke="#59687e" stroke-width="1.3" points="350.92,-475.33 347.62,-467.53 345.34,-475.69 350.92,-475.33"/>
</g>
<!-- H -->
<g id="node8" class="node">
<title>H</title>
<path fill="#eefbf6" stroke="#61b99a" stroke-width="1.4" d="M411.92,-352.85C411.92,-352.85 230,-352.85 230,-352.85 224,-352.85 218,-346.85 218,-340.85 218,-340.85 218,-315.95 218,-315.95 218,-309.95 224,-303.95 230,-303.95 230,-303.95 411.92,-303.95 411.92,-303.95 417.92,-303.95 423.92,-309.95 423.92,-315.95 423.92,-315.95 423.92,-340.85 423.92,-340.85 423.92,-346.85 417.92,-352.85 411.92,-352.85"/>
<text xml:space="preserve" text-anchor="middle" x="320.96" y="-332.35" font-family="Noto Sans KR" font-size="14.00" fill="#182033">8. RuntimeCommitter</text>
<text xml:space="preserve" text-anchor="middle" x="320.96" y="-315.1" font-family="Noto Sans KR" font-size="14.00" fill="#182033">state + outbox 원자적 commit</text>
</g>
<!-- G&#45;&gt;H -->
<g id="edge7" class="edge">
<title>G&#45;&gt;H</title>
<path fill="none" stroke="#59687e" stroke-width="1.3" d="M340.54,-415.65C337.03,-400.2 332.42,-379.88 328.55,-362.84"/>
<polygon fill="#59687e" stroke="#59687e" stroke-width="1.3" points="331.31,-362.35 326.81,-355.17 325.85,-363.59 331.31,-362.35"/>
</g>
<!-- I -->
<g id="node9" class="node">
<title>I</title>
<path fill="#e9fbff" stroke="#54b7cf" stroke-width="1.4" d="M247.92,-256.95C247.92,-256.95 12,-256.95 12,-256.95 6,-256.95 0,-250.95 0,-244.95 0,-244.95 0,-220.05 0,-220.05 0,-214.05 6,-208.05 12,-208.05 12,-208.05 247.92,-208.05 247.92,-208.05 253.92,-208.05 259.92,-214.05 259.92,-220.05 259.92,-220.05 259.92,-244.95 259.92,-244.95 259.92,-250.95 253.92,-256.95 247.92,-256.95"/>
<text xml:space="preserve" text-anchor="middle" x="129.96" y="-236.45" font-family="Noto Sans KR" font-size="14.00" fill="#182033">9. Committed facts</text>
<text xml:space="preserve" text-anchor="middle" x="129.96" y="-219.2" font-family="Noto Sans KR" font-size="14.00" fill="#182033">SkillCommitted · DamageCommitted</text>
</g>
<!-- H&#45;&gt;I -->
<g id="edge8" class="edge">
<title>H&#45;&gt;I</title>
<path fill="none" stroke="#59687e" stroke-width="1.3" d="M272.27,-303.46C246.44,-290.76 214.54,-275.08 187.49,-261.78"/>
<polygon fill="#59687e" stroke="#59687e" stroke-width="1.3" points="189.07,-259.44 180.66,-258.43 186.6,-264.47 189.07,-259.44"/>
</g>
<!-- H&#45;&gt;K -->
<g id="edge13" class="edge">
<title>H&#45;&gt;K</title>
<path fill="none" stroke="#dc2626" stroke-width="1.3" stroke-dasharray="5,2" d="M320.11,-303.25C318.69,-262.64 315.96,-185.05 315.96,-185.05 315.96,-185.05 315.96,-167.8 315.96,-167.8 315.96,-167.8 379.02,-98.75 417.3,-56.83"/>
<polygon fill="#dc2626" stroke="#dc2626" stroke-width="1.3" points="419.25,-58.85 422.58,-51.05 415.12,-55.07 419.25,-58.85"/>
<text xml:space="preserve" text-anchor="middle" x="428.46" y="-171.75" font-family="Noto Sans KR" font-size="14.00" fill="#dc2626">commit rejected: no mutation/event</text>
</g>
<!-- J -->
<g id="node10" class="node">
<title>J</title>
<path fill="#f3eefc" stroke="#ab8fe0" stroke-width="1.4" d="M241.8,-144.8C241.8,-144.8 50.13,-144.8 50.13,-144.8 44.13,-144.8 38.13,-138.8 38.13,-132.8 38.13,-132.8 38.13,-107.9 38.13,-107.9 38.13,-101.9 44.13,-95.9 50.13,-95.9 50.13,-95.9 241.8,-95.9 241.8,-95.9 247.8,-95.9 253.8,-101.9 253.8,-107.9 253.8,-107.9 253.8,-132.8 253.8,-132.8 253.8,-138.8 247.8,-144.8 241.8,-144.8"/>
<text xml:space="preserve" text-anchor="middle" x="145.96" y="-124.3" font-family="Noto Sans KR" font-size="14.00" fill="#182033">10. ReactionQueue</text>
<text xml:space="preserve" text-anchor="middle" x="145.96" y="-107.05" font-family="Noto Sans KR" font-size="14.00" fill="#182033">Burn 등 상태 변경 반응 enqueue</text>
</g>
<!-- I&#45;&gt;J -->
<g id="edge9" class="edge">
<title>I&#45;&gt;J</title>
<path fill="none" stroke="#59687e" stroke-width="1.3" d="M133.43,-207.6C135.68,-192.15 138.63,-171.83 141.1,-154.79"/>
<polygon fill="#59687e" stroke="#59687e" stroke-width="1.3" points="143.83,-155.47 142.21,-147.15 138.29,-154.67 143.83,-155.47"/>
</g>
<!-- J&#45;&gt;K -->
<g id="edge10" class="edge">
<title>J&#45;&gt;K</title>
<path fill="none" stroke="#59687e" stroke-width="1.3" d="M219.23,-95.21C254.8,-83.49 289.96,-71.9 289.96,-71.9 289.96,-71.9 321.3,-62.57 355.89,-52.27"/>
<polygon fill="#59687e" stroke="#59687e" stroke-width="1.3" points="356.46,-55.02 363.33,-50.05 354.87,-49.65 356.46,-55.02"/>
</g>
</g>
</svg>
