<?xml version="1.0" encoding="UTF-8" standalone="no"?>
<!DOCTYPE svg PUBLIC "-//W3C//DTD SVG 1.1//EN"
 "http://www.w3.org/Graphics/SVG/1.1/DTD/svg11.dtd">
<!-- Generated by graphviz version 2.42.4 (0)
 -->
<!-- Title: G Pages: 1 -->
<svg width="677pt" height="862pt"
 viewBox="8.64 8.64 668.14 853.64" xmlns="http://www.w3.org/2000/svg" xmlns:xlink="http://www.w3.org/1999/xlink">
<g id="graph0" class="graph" transform="scale(1 1) rotate(0) translate(26.64 835.64)">
<title>G</title>
<polygon fill="#ffffff" stroke="transparent" points="-18,18 -18,-827 641.5,-827 641.5,18 -18,18"/>
<!-- A -->
<g id="node1" class="node">
<title>A</title>
<path fill="#eaf0ff" stroke="#8292f7" stroke-width="1.4" d="M513,-809C513,-809 394,-809 394,-809 388,-809 382,-803 382,-797 382,-797 382,-777 382,-777 382,-771 388,-765 394,-765 394,-765 513,-765 513,-765 519,-765 525,-771 525,-777 525,-777 525,-797 525,-797 525,-803 519,-809 513,-809"/>
<text text-anchor="middle" x="453.5" y="-790.8" font-family="Noto Sans CJK KR" font-size="14.00" fill="#182033">1. Player Input / AI</text>
<text text-anchor="middle" x="453.5" y="-775.8" font-family="Noto Sans CJK KR" font-size="14.00" fill="#182033">SkillRequest 생성</text>
</g>
<!-- B -->
<g id="node2" class="node">
<title>B</title>
<path fill="#f0f3f9" stroke="#99a8bd" stroke-width="1.4" d="M561.5,-724C561.5,-724 345.5,-724 345.5,-724 339.5,-724 333.5,-718 333.5,-712 333.5,-712 333.5,-692 333.5,-692 333.5,-686 339.5,-680 345.5,-680 345.5,-680 561.5,-680 561.5,-680 567.5,-680 573.5,-686 573.5,-692 573.5,-692 573.5,-712 573.5,-712 573.5,-718 567.5,-724 561.5,-724"/>
<text text-anchor="middle" x="453.5" y="-705.8" font-family="Noto Sans CJK KR" font-size="14.00" fill="#182033">2. SkillController</text>
<text text-anchor="middle" x="453.5" y="-690.8" font-family="Noto Sans CJK KR" font-size="14.00" fill="#182033">SkillDefinition + SkillRuntime 조회</text>
</g>
<!-- A&#45;&gt;B -->
<g id="edge1" class="edge">
<title>A&#45;&gt;B</title>
<path fill="none" stroke="#59687e" stroke-width="1.3" d="M453.5,-764.63C453.5,-754.77 453.5,-742.92 453.5,-732.25"/>
<polygon fill="#59687e" stroke="#59687e" stroke-width="1.3" points="456.3,-732.01 453.5,-724.01 450.7,-732.01 456.3,-732.01"/>
</g>
<!-- C -->
<g id="node3" class="node">
<title>C</title>
<path fill="#f3eefc" stroke="#ab8fe0" stroke-width="1.4" d="M553,-639C553,-639 354,-639 354,-639 348,-639 342,-633 342,-627 342,-627 342,-607 342,-607 342,-601 348,-595 354,-595 354,-595 553,-595 553,-595 559,-595 565,-601 565,-607 565,-607 565,-627 565,-627 565,-633 559,-639 553,-639"/>
<text text-anchor="middle" x="453.5" y="-620.8" font-family="Noto Sans CJK KR" font-size="14.00" fill="#182033">3. SkillValidator</text>
<text text-anchor="middle" x="453.5" y="-605.8" font-family="Noto Sans CJK KR" font-size="14.00" fill="#182033">비용 · 쿨다운 · 상태 · 사거리 검증</text>
</g>
<!-- B&#45;&gt;C -->
<g id="edge2" class="edge">
<title>B&#45;&gt;C</title>
<path fill="none" stroke="#59687e" stroke-width="1.3" d="M453.5,-679.63C453.5,-669.77 453.5,-657.92 453.5,-647.25"/>
<polygon fill="#59687e" stroke="#59687e" stroke-width="1.3" points="456.3,-647.01 453.5,-639.01 450.7,-647.01 456.3,-647.01"/>
</g>
<!-- D -->
<g id="node4" class="node">
<title>D</title>
<path fill="#fff7e6" stroke="#e0ad4e" stroke-width="1.4" d="M433.5,-554C433.5,-554 307.5,-554 307.5,-554 301.5,-554 295.5,-548 295.5,-542 295.5,-542 295.5,-522 295.5,-522 295.5,-516 301.5,-510 307.5,-510 307.5,-510 433.5,-510 433.5,-510 439.5,-510 445.5,-516 445.5,-522 445.5,-522 445.5,-542 445.5,-542 445.5,-548 439.5,-554 433.5,-554"/>
<text text-anchor="middle" x="370.5" y="-535.8" font-family="Noto Sans CJK KR" font-size="14.00" fill="#182033">4. CostPolicy</text>
<text text-anchor="middle" x="370.5" y="-520.8" font-family="Noto Sans CJK KR" font-size="14.00" fill="#182033">비용 예약 또는 선지불</text>
</g>
<!-- C&#45;&gt;D -->
<g id="edge3" class="edge">
<title>C&#45;&gt;D</title>
<path fill="none" stroke="#59687e" stroke-width="1.3" d="M432.13,-594.63C421.49,-583.99 408.53,-571.03 397.24,-559.74"/>
<polygon fill="#59687e" stroke="#59687e" stroke-width="1.3" points="399.15,-557.69 391.51,-554.01 395.19,-561.65 399.15,-557.69"/>
</g>
<!-- I -->
<g id="node9" class="node">
<title>I</title>
<path fill="#f0f3f9" stroke="#99a8bd" stroke-width="1.4" d="M414.5,-129C414.5,-129 218.5,-129 218.5,-129 212.5,-129 206.5,-123 206.5,-117 206.5,-117 206.5,-97 206.5,-97 206.5,-91 212.5,-85 218.5,-85 218.5,-85 414.5,-85 414.5,-85 420.5,-85 426.5,-91 426.5,-97 426.5,-97 426.5,-117 426.5,-117 426.5,-123 420.5,-129 414.5,-129"/>
<text text-anchor="middle" x="316.5" y="-110.8" font-family="Noto Sans CJK KR" font-size="14.00" fill="#182033">9. SkillResult 작성</text>
<text text-anchor="middle" x="316.5" y="-95.8" font-family="Noto Sans CJK KR" font-size="14.00" fill="#182033">성공 · 실패 · 중단 · debugTrace</text>
</g>
<!-- C&#45;&gt;I -->
<g id="edge10" class="edge">
<title>C&#45;&gt;I</title>
<path fill="none" stroke="#dc2626" stroke-width="1.3" stroke-dasharray="5,2" d="M482.96,-594.79C500.16,-579.76 518.5,-557.89 518.5,-533 518.5,-533 518.5,-533 518.5,-191 518.5,-147.99 478.84,-126.8 434.66,-116.54"/>
<polygon fill="#dc2626" stroke="#dc2626" stroke-width="1.3" points="435.07,-113.76 426.66,-114.8 433.89,-119.23 435.07,-113.76"/>
<text text-anchor="middle" x="571" y="-358.3" font-family="Noto Sans CJK KR" font-size="14.00" fill="#dc2626">validation failed</text>
</g>
<!-- E -->
<g id="node5" class="node">
<title>E</title>
<path fill="#e9fbff" stroke="#54b7cf" stroke-width="1.4" d="M400.5,-469C400.5,-469 232.5,-469 232.5,-469 226.5,-469 220.5,-463 220.5,-457 220.5,-457 220.5,-437 220.5,-437 220.5,-431 226.5,-425 232.5,-425 232.5,-425 400.5,-425 400.5,-425 406.5,-425 412.5,-431 412.5,-437 412.5,-437 412.5,-457 412.5,-457 412.5,-463 406.5,-469 400.5,-469"/>
<text text-anchor="middle" x="316.5" y="-450.8" font-family="Noto Sans CJK KR" font-size="14.00" fill="#182033">5. ActionTimeline</text>
<text text-anchor="middle" x="316.5" y="-435.8" font-family="Noto Sans CJK KR" font-size="14.00" fill="#182033">windup → release marker</text>
</g>
<!-- D&#45;&gt;E -->
<g id="edge4" class="edge">
<title>D&#45;&gt;E</title>
<path fill="none" stroke="#59687e" stroke-width="1.3" d="M356.59,-509.63C349.93,-499.38 341.86,-486.98 334.71,-475.99"/>
<polygon fill="#59687e" stroke="#59687e" stroke-width="1.3" points="336.88,-474.19 330.17,-469.01 332.19,-477.25 336.88,-474.19"/>
</g>
<!-- F -->
<g id="node6" class="node">
<title>F</title>
<path fill="#eefbf6" stroke="#61b99a" stroke-width="1.4" d="M249,-384C249,-384 12,-384 12,-384 6,-384 0,-378 0,-372 0,-372 0,-352 0,-352 0,-346 6,-340 12,-340 12,-340 249,-340 249,-340 255,-340 261,-346 261,-352 261,-352 261,-372 261,-372 261,-378 255,-384 249,-384"/>
<text text-anchor="middle" x="130.5" y="-365.8" font-family="Noto Sans CJK KR" font-size="14.00" fill="#182033">6. EffectContext 생성</text>
<text text-anchor="middle" x="130.5" y="-350.8" font-family="Noto Sans CJK KR" font-size="14.00" fill="#182033">caster · source · target · seed · tags</text>
</g>
<!-- E&#45;&gt;F -->
<g id="edge5" class="edge">
<title>E&#45;&gt;F</title>
<path fill="none" stroke="#59687e" stroke-width="1.3" d="M269.08,-424.84C243.5,-413.43 211.81,-399.28 185.19,-387.41"/>
<polygon fill="#59687e" stroke="#59687e" stroke-width="1.3" points="186.28,-384.82 177.83,-384.12 183.99,-389.94 186.28,-384.82"/>
</g>
<!-- E&#45;&gt;I -->
<g id="edge11" class="edge">
<title>E&#45;&gt;I</title>
<path fill="none" stroke="#dc2626" stroke-width="1.3" stroke-dasharray="5,2" d="M316.5,-424.85C316.5,-408.08 316.5,-384.04 316.5,-363 316.5,-363 316.5,-363 316.5,-191 316.5,-173.25 316.5,-153.36 316.5,-137.51"/>
<polygon fill="#dc2626" stroke="#dc2626" stroke-width="1.3" points="319.3,-137.15 316.5,-129.15 313.7,-137.15 319.3,-137.15"/>
<text text-anchor="middle" x="390" y="-273.3" font-family="Noto Sans CJK KR" font-size="14.00" fill="#dc2626">interrupted / cancelled</text>
</g>
<!-- G -->
<g id="node7" class="node">
<title>G</title>
<path fill="#fff0f3" stroke="#e07b91" stroke-width="1.4" d="M200.5,-299C200.5,-299 86.5,-299 86.5,-299 80.5,-299 74.5,-293 74.5,-287 74.5,-287 74.5,-267 74.5,-267 74.5,-261 80.5,-255 86.5,-255 86.5,-255 200.5,-255 200.5,-255 206.5,-255 212.5,-261 212.5,-267 212.5,-267 212.5,-287 212.5,-287 212.5,-293 206.5,-299 200.5,-299"/>
<text text-anchor="middle" x="143.5" y="-280.8" font-family="Noto Sans CJK KR" font-size="14.00" fill="#182033">7. EffectService</text>
<text text-anchor="middle" x="143.5" y="-265.8" font-family="Noto Sans CJK KR" font-size="14.00" fill="#182033">EffectBundle 실행</text>
</g>
<!-- F&#45;&gt;G -->
<g id="edge6" class="edge">
<title>F&#45;&gt;G</title>
<path fill="none" stroke="#59687e" stroke-width="1.3" d="M133.85,-339.63C135.41,-329.67 137.28,-317.69 138.97,-306.94"/>
<polygon fill="#59687e" stroke="#59687e" stroke-width="1.3" points="141.74,-307.35 140.21,-299.01 136.2,-306.49 141.74,-307.35"/>
</g>
<!-- H -->
<g id="node8" class="node">
<title>H</title>
<path fill="#fff0f3" stroke="#e07b91" stroke-width="1.4" d="M247.5,-214C247.5,-214 81.5,-214 81.5,-214 75.5,-214 69.5,-208 69.5,-202 69.5,-202 69.5,-182 69.5,-182 69.5,-176 75.5,-170 81.5,-170 81.5,-170 247.5,-170 247.5,-170 253.5,-170 259.5,-176 259.5,-182 259.5,-182 259.5,-202 259.5,-202 259.5,-208 253.5,-214 247.5,-214"/>
<text text-anchor="middle" x="164.5" y="-195.8" font-family="Noto Sans CJK KR" font-size="14.00" fill="#182033">8. EffectResult 수집</text>
<text text-anchor="middle" x="164.5" y="-180.8" font-family="Noto Sans CJK KR" font-size="14.00" fill="#182033">Damage / Status 결과 포함</text>
</g>
<!-- G&#45;&gt;H -->
<g id="edge7" class="edge">
<title>G&#45;&gt;H</title>
<path fill="none" stroke="#59687e" stroke-width="1.3" d="M148.91,-254.63C151.43,-244.67 154.46,-232.69 157.18,-221.94"/>
<polygon fill="#59687e" stroke="#59687e" stroke-width="1.3" points="159.94,-222.46 159.18,-214.01 154.51,-221.08 159.94,-222.46"/>
</g>
<!-- H&#45;&gt;I -->
<g id="edge8" class="edge">
<title>H&#45;&gt;I</title>
<path fill="none" stroke="#59687e" stroke-width="1.3" d="M203.25,-169.84C223.8,-158.62 249.17,-144.77 270.68,-133.02"/>
<polygon fill="#59687e" stroke="#59687e" stroke-width="1.3" points="272.14,-135.41 277.82,-129.12 269.46,-130.5 272.14,-135.41"/>
</g>
<!-- J -->
<g id="node10" class="node">
<title>J</title>
<path fill="#eefbf6" stroke="#61b99a" stroke-width="1.4" d="M405.5,-44C405.5,-44 227.5,-44 227.5,-44 221.5,-44 215.5,-38 215.5,-32 215.5,-32 215.5,-12 215.5,-12 215.5,-6 221.5,0 227.5,0 227.5,0 405.5,0 405.5,0 411.5,0 417.5,-6 417.5,-12 417.5,-12 417.5,-32 417.5,-32 417.5,-38 411.5,-44 405.5,-44"/>
<text text-anchor="middle" x="316.5" y="-25.8" font-family="Noto Sans CJK KR" font-size="14.00" fill="#182033">10. EventBus 발행</text>
<text text-anchor="middle" x="316.5" y="-10.8" font-family="Noto Sans CJK KR" font-size="14.00" fill="#182033">OnSkillUsed / OnSkillFailed</text>
</g>
<!-- I&#45;&gt;J -->
<g id="edge9" class="edge">
<title>I&#45;&gt;J</title>
<path fill="none" stroke="#59687e" stroke-width="1.3" d="M316.5,-84.63C316.5,-74.77 316.5,-62.92 316.5,-52.25"/>
<polygon fill="#59687e" stroke="#59687e" stroke-width="1.3" points="319.3,-52.01 316.5,-44.01 313.7,-52.01 319.3,-52.01"/>
</g>
</g>
</svg>
