<?xml version="1.0" encoding="UTF-8" standalone="no"?>
<!DOCTYPE svg PUBLIC "-//W3C//DTD SVG 1.1//EN"
 "http://www.w3.org/Graphics/SVG/1.1/DTD/svg11.dtd">
<!-- Generated by graphviz version 15.0.0 (20260523.1842)
 -->
<!-- Title: G Pages: 1 -->
<svg width="829pt" height="1040pt"
 viewBox="9.00 9.00 821.00 1031.00" xmlns="http://www.w3.org/2000/svg" xmlns:xlink="http://www.w3.org/1999/xlink">
<g id="graph0" class="graph" transform="scale(1 1) rotate(0) translate(26.64 1013.04)">
<title>G</title>
<polygon fill="#ffffff" stroke="none" points="-18,18 -18,-1004.4 794.21,-1004.4 794.21,18 -18,18"/>
<!-- A -->
<g id="node1" class="node">
<title>A</title>
<path fill="#eaf0ff" stroke="#8292f7" stroke-width="1.4" d="M600.49,-986.4C600.49,-986.4 488.52,-986.4 488.52,-986.4 482.52,-986.4 476.52,-980.4 476.52,-974.4 476.52,-974.4 476.52,-950.4 476.52,-950.4 476.52,-944.4 482.52,-938.4 488.52,-938.4 488.52,-938.4 600.49,-938.4 600.49,-938.4 606.49,-938.4 612.49,-944.4 612.49,-950.4 612.49,-950.4 612.49,-974.4 612.49,-974.4 612.49,-980.4 606.49,-986.4 600.49,-986.4"/>
<text xml:space="preserve" text-anchor="middle" x="544.51" y="-966.6" font-family="Noto Sans CJK KR" font-size="14.00" fill="#182033">1. Player Input / AI</text>
<text xml:space="preserve" text-anchor="middle" x="544.51" y="-949.8" font-family="Noto Sans CJK KR" font-size="14.00" fill="#182033">public SkillRequest</text>
</g>
<!-- B -->
<g id="node2" class="node">
<title>B</title>
<path fill="#f0f3f9" stroke="#99a8bd" stroke-width="1.4" d="M644.84,-897.4C644.84,-897.4 444.18,-897.4 444.18,-897.4 438.18,-897.4 432.18,-891.4 432.18,-885.4 432.18,-885.4 432.18,-844.6 432.18,-844.6 432.18,-838.6 438.18,-832.6 444.18,-832.6 444.18,-832.6 644.84,-832.6 644.84,-832.6 650.84,-832.6 656.84,-838.6 656.84,-844.6 656.84,-844.6 656.84,-885.4 656.84,-885.4 656.84,-891.4 650.84,-897.4 644.84,-897.4"/>
<text xml:space="preserve" text-anchor="middle" x="544.51" y="-877.6" font-family="Noto Sans CJK KR" font-size="14.00" fill="#182033">2. &lt;&lt;internal project coordinator&gt;&gt;</text>
<text xml:space="preserve" text-anchor="middle" x="544.51" y="-860.8" font-family="Noto Sans CJK KR" font-size="14.00" fill="#182033">SkillExecutionCoordinator.Begin</text>
<text xml:space="preserve" text-anchor="middle" x="544.51" y="-844" font-family="Noto Sans CJK KR" font-size="14.00" fill="#182033">Definition + SkillRuntime 조회</text>
</g>
<!-- A&#45;&gt;B -->
<g id="edge1" class="edge">
<title>A&#45;&gt;B</title>
<path fill="none" stroke="#59687e" stroke-width="1.3" d="M544.51,-937.82C544.51,-928.7 544.51,-917.99 544.51,-907.67"/>
<polygon fill="#59687e" stroke="#59687e" stroke-width="1.3" points="547.31,-907.91 544.51,-899.91 541.71,-907.91 547.31,-907.91"/>
</g>
<!-- C -->
<g id="node3" class="node">
<title>C</title>
<path fill="#f3eefc" stroke="#ab8fe0" stroke-width="1.4" d="M677.51,-791.6C677.51,-791.6 411.51,-791.6 411.51,-791.6 405.51,-791.6 399.51,-785.6 399.51,-779.6 399.51,-779.6 399.51,-755.6 399.51,-755.6 399.51,-749.6 405.51,-743.6 411.51,-743.6 411.51,-743.6 677.51,-743.6 677.51,-743.6 683.51,-743.6 689.51,-749.6 689.51,-755.6 689.51,-755.6 689.51,-779.6 689.51,-779.6 689.51,-785.6 683.51,-791.6 677.51,-791.6"/>
<text xml:space="preserve" text-anchor="middle" x="544.51" y="-771.8" font-family="Noto Sans CJK KR" font-size="14.00" fill="#182033">3. &lt;&lt;public&gt;&gt; ISkillRequestValidator.Validate</text>
<text xml:space="preserve" text-anchor="middle" x="544.51" y="-755" font-family="Noto Sans CJK KR" font-size="14.00" fill="#182033">SkillDecision accepted / rejected</text>
</g>
<!-- B&#45;&gt;C -->
<g id="edge2" class="edge">
<title>B&#45;&gt;C</title>
<path fill="none" stroke="#59687e" stroke-width="1.3" d="M544.51,-831.97C544.51,-822.33 544.51,-811.72 544.51,-802"/>
<polygon fill="#59687e" stroke="#59687e" stroke-width="1.3" points="547.31,-802.22 544.51,-794.22 541.71,-802.22 547.31,-802.22"/>
</g>
<!-- D -->
<g id="node4" class="node">
<title>D</title>
<path fill="#e9fbff" stroke="#54b7cf" stroke-width="1.4" d="M575.43,-702.6C575.43,-702.6 317.59,-702.6 317.59,-702.6 311.59,-702.6 305.59,-696.6 305.59,-690.6 305.59,-690.6 305.59,-666.6 305.59,-666.6 305.59,-660.6 311.59,-654.6 317.59,-654.6 317.59,-654.6 575.43,-654.6 575.43,-654.6 581.43,-654.6 587.43,-660.6 587.43,-666.6 587.43,-666.6 587.43,-690.6 587.43,-690.6 587.43,-696.6 581.43,-702.6 575.43,-702.6"/>
<text xml:space="preserve" text-anchor="middle" x="446.51" y="-682.8" font-family="Noto Sans CJK KR" font-size="14.00" fill="#182033">4. &lt;&lt;internal project model&gt;&gt; SkillExecution</text>
<text xml:space="preserve" text-anchor="middle" x="446.51" y="-666" font-family="Noto Sans CJK KR" font-size="14.00" fill="#182033">windup → release marker</text>
</g>
<!-- C&#45;&gt;D -->
<g id="edge3" class="edge">
<title>C&#45;&gt;D</title>
<path fill="none" stroke="#59687e" stroke-width="1.3" d="M517.99,-743.06C506.44,-732.8 492.77,-720.67 480.48,-709.76"/>
<polygon fill="#59687e" stroke="#59687e" stroke-width="1.3" points="482.36,-707.69 474.52,-704.47 478.64,-711.87 482.36,-707.69"/>
</g>
<!-- K -->
<g id="node11" class="node">
<title>K</title>
<path fill="#f0f3f9" stroke="#99a8bd" stroke-width="1.4" d="M510.65,-48C510.65,-48 300.37,-48 300.37,-48 294.37,-48 288.37,-42 288.37,-36 288.37,-36 288.37,-12 288.37,-12 288.37,-6 294.37,0 300.37,0 300.37,0 510.65,0 510.65,0 516.65,0 522.65,-6 522.65,-12 522.65,-12 522.65,-36 522.65,-36 522.65,-42 516.65,-48 510.65,-48"/>
<text xml:space="preserve" text-anchor="middle" x="405.51" y="-28.2" font-family="Noto Sans CJK KR" font-size="14.00" fill="#182033">11. &lt;&lt;public contract&gt;&gt; SkillResult</text>
<text xml:space="preserve" text-anchor="middle" x="405.51" y="-11.4" font-family="Noto Sans CJK KR" font-size="14.00" fill="#182033">Succeeded · FailureReason · Effects</text>
</g>
<!-- C&#45;&gt;K -->
<g id="edge11" class="edge">
<title>C&#45;&gt;K</title>
<path fill="none" stroke="#dc2626" stroke-width="1.3" stroke-dasharray="5,2" d="M596.66,-743.04C620.07,-728.59 642.51,-707.47 642.51,-679.6 642.51,-679.6 642.51,-679.6 642.51,-112 642.51,-85.32 588.93,-64.35 532.72,-49.68"/>
<polygon fill="#dc2626" stroke="#dc2626" stroke-width="1.3" points="533.66,-47.03 525.22,-47.77 532.28,-52.46 533.66,-47.03"/>
<text xml:space="preserve" text-anchor="middle" x="709.36" y="-407.4" font-family="Noto Sans CJK KR" font-size="14.00" fill="#dc2626">canonical failure reason</text>
</g>
<!-- E -->
<g id="node5" class="node">
<title>E</title>
<path fill="#eefbf6" stroke="#61b99a" stroke-width="1.4" d="M449.26,-613.6C449.26,-613.6 179.76,-613.6 179.76,-613.6 173.76,-613.6 167.76,-607.6 167.76,-601.6 167.76,-601.6 167.76,-577.6 167.76,-577.6 167.76,-571.6 173.76,-565.6 179.76,-565.6 179.76,-565.6 449.26,-565.6 449.26,-565.6 455.26,-565.6 461.26,-571.6 461.26,-577.6 461.26,-577.6 461.26,-601.6 461.26,-601.6 461.26,-607.6 455.26,-613.6 449.26,-613.6"/>
<text xml:space="preserve" text-anchor="middle" x="314.51" y="-593.8" font-family="Noto Sans CJK KR" font-size="14.00" fill="#182033">5. &lt;&lt;internal project model&gt;&gt; SkillReleasePlan</text>
<text xml:space="preserve" text-anchor="middle" x="314.51" y="-577" font-family="Noto Sans CJK KR" font-size="14.00" fill="#182033">비용 · 쿨다운 mutation 준비</text>
</g>
<!-- D&#45;&gt;E -->
<g id="edge4" class="edge">
<title>D&#45;&gt;E</title>
<path fill="none" stroke="#59687e" stroke-width="1.3" d="M410.79,-654.06C394.65,-643.42 375.42,-630.75 358.41,-619.53"/>
<polygon fill="#59687e" stroke="#59687e" stroke-width="1.3" points="360.12,-617.31 351.9,-615.25 357.04,-621.99 360.12,-617.31"/>
</g>
<!-- D&#45;&gt;K -->
<g id="edge12" class="edge">
<title>D&#45;&gt;K</title>
<path fill="none" stroke="#dc2626" stroke-width="1.3" stroke-dasharray="5,2" d="M480.34,-654.25C498.63,-638.66 517.51,-616.33 517.51,-590.6 517.51,-590.6 517.51,-590.6 517.51,-112 517.51,-86.46 499.11,-67.33 477.23,-53.61"/>
<polygon fill="#dc2626" stroke="#dc2626" stroke-width="1.3" points="478.73,-51.24 470.41,-49.61 475.89,-56.07 478.73,-51.24"/>
<text xml:space="preserve" text-anchor="middle" x="567.85" y="-355" font-family="Noto Sans CJK KR" font-size="14.00" fill="#dc2626">Interrupted policy</text>
</g>
<!-- F -->
<g id="node6" class="node">
<title>F</title>
<path fill="#fff7e6" stroke="#e0ad4e" stroke-width="1.4" d="M429.8,-524.6C429.8,-524.6 197.22,-524.6 197.22,-524.6 191.22,-524.6 185.22,-518.6 185.22,-512.6 185.22,-512.6 185.22,-488.6 185.22,-488.6 185.22,-482.6 191.22,-476.6 197.22,-476.6 197.22,-476.6 429.8,-476.6 429.8,-476.6 435.8,-476.6 441.8,-482.6 441.8,-488.6 441.8,-488.6 441.8,-512.6 441.8,-512.6 441.8,-518.6 435.8,-524.6 429.8,-524.6"/>
<text xml:space="preserve" text-anchor="middle" x="313.51" y="-504.8" font-family="Noto Sans CJK KR" font-size="14.00" fill="#182033">6. &lt;&lt;public&gt;&gt; IEffectPlanner.Prepare</text>
<text xml:space="preserve" text-anchor="middle" x="313.51" y="-488" font-family="Noto Sans CJK KR" font-size="14.00" fill="#182033">EffectBundlePlan: operations + reactions</text>
</g>
<!-- E&#45;&gt;F -->
<g id="edge5" class="edge">
<title>E&#45;&gt;F</title>
<path fill="none" stroke="#59687e" stroke-width="1.3" d="M314.24,-565.29C314.13,-556 314.01,-545.14 313.89,-535.04"/>
<polygon fill="#59687e" stroke="#59687e" stroke-width="1.3" points="316.7,-535.22 313.8,-527.25 311.1,-535.28 316.7,-535.22"/>
</g>
<!-- G -->
<g id="node7" class="node">
<title>G</title>
<path fill="#fff0f3" stroke="#e07b91" stroke-width="1.4" d="M423.46,-435.6C423.46,-435.6 195.56,-435.6 195.56,-435.6 189.56,-435.6 183.56,-429.6 183.56,-423.6 183.56,-423.6 183.56,-399.6 183.56,-399.6 183.56,-393.6 189.56,-387.6 195.56,-387.6 195.56,-387.6 423.46,-387.6 423.46,-387.6 429.46,-387.6 435.46,-393.6 435.46,-399.6 435.46,-399.6 435.46,-423.6 435.46,-423.6 435.46,-429.6 429.46,-435.6 423.46,-435.6"/>
<text xml:space="preserve" text-anchor="middle" x="309.51" y="-415.8" font-family="Noto Sans CJK KR" font-size="14.00" fill="#182033">7. &lt;&lt;internal transaction composition&gt;&gt;</text>
<text xml:space="preserve" text-anchor="middle" x="309.51" y="-399" font-family="Noto Sans CJK KR" font-size="14.00" fill="#182033">SkillReleasePlan + EffectBundlePlan</text>
</g>
<!-- F&#45;&gt;G -->
<g id="edge6" class="edge">
<title>F&#45;&gt;G</title>
<path fill="none" stroke="#59687e" stroke-width="1.3" d="M312.44,-476.29C312.01,-467 311.51,-456.14 311.05,-446.04"/>
<polygon fill="#59687e" stroke="#59687e" stroke-width="1.3" points="313.85,-446.11 310.69,-438.25 308.26,-446.37 313.85,-446.11"/>
</g>
<!-- H -->
<g id="node8" class="node">
<title>H</title>
<path fill="#eefbf6" stroke="#61b99a" stroke-width="1.4" d="M375.82,-330.8C375.82,-330.8 213.19,-330.8 213.19,-330.8 207.19,-330.8 201.19,-324.8 201.19,-318.8 201.19,-318.8 201.19,-294.8 201.19,-294.8 201.19,-288.8 207.19,-282.8 213.19,-282.8 213.19,-282.8 375.82,-282.8 375.82,-282.8 381.82,-282.8 387.82,-288.8 387.82,-294.8 387.82,-294.8 387.82,-318.8 387.82,-318.8 387.82,-324.8 381.82,-330.8 375.82,-330.8"/>
<text xml:space="preserve" text-anchor="middle" x="294.51" y="-311" font-family="Noto Sans CJK KR" font-size="14.00" fill="#182033">8. RuntimeCommitter</text>
<text xml:space="preserve" text-anchor="middle" x="294.51" y="-294.2" font-family="Noto Sans CJK KR" font-size="14.00" fill="#182033">state + outbox 원자적 commit</text>
</g>
<!-- G&#45;&gt;H -->
<g id="edge7" class="edge">
<title>G&#45;&gt;H</title>
<path fill="none" stroke="#59687e" stroke-width="1.3" d="M306.07,-387.02C304.07,-373.3 301.51,-355.81 299.32,-340.75"/>
<polygon fill="#59687e" stroke="#59687e" stroke-width="1.3" points="302.14,-340.73 298.22,-333.22 296.6,-341.54 302.14,-340.73"/>
</g>
<!-- I -->
<g id="node9" class="node">
<title>I</title>
<path fill="#e9fbff" stroke="#54b7cf" stroke-width="1.4" d="M227.02,-241.8C227.02,-241.8 12,-241.8 12,-241.8 6,-241.8 0,-235.8 0,-229.8 0,-229.8 0,-205.8 0,-205.8 0,-199.8 6,-193.8 12,-193.8 12,-193.8 227.02,-193.8 227.02,-193.8 233.02,-193.8 239.02,-199.8 239.02,-205.8 239.02,-205.8 239.02,-229.8 239.02,-229.8 239.02,-235.8 233.02,-241.8 227.02,-241.8"/>
<text xml:space="preserve" text-anchor="middle" x="119.51" y="-222" font-family="Noto Sans CJK KR" font-size="14.00" fill="#182033">9. Committed facts</text>
<text xml:space="preserve" text-anchor="middle" x="119.51" y="-205.2" font-family="Noto Sans CJK KR" font-size="14.00" fill="#182033">SkillCommitted · DamageCommitted</text>
</g>
<!-- H&#45;&gt;I -->
<g id="edge8" class="edge">
<title>H&#45;&gt;I</title>
<path fill="none" stroke="#59687e" stroke-width="1.3" d="M247.15,-282.26C225.07,-271.28 198.64,-258.14 175.57,-246.67"/>
<polygon fill="#59687e" stroke="#59687e" stroke-width="1.3" points="177.08,-244.29 168.67,-243.24 174.58,-249.31 177.08,-244.29"/>
</g>
<!-- H&#45;&gt;K -->
<g id="edge13" class="edge">
<title>H&#45;&gt;K</title>
<path fill="none" stroke="#dc2626" stroke-width="1.3" stroke-dasharray="5,2" d="M288.45,-282.22C281.9,-252.1 274.35,-198.86 290.07,-157 305.48,-115.97 340.07,-79.34 367.39,-55.14"/>
<polygon fill="#dc2626" stroke="#dc2626" stroke-width="1.3" points="369.18,-57.29 373.39,-49.94 365.51,-53.06 369.18,-57.29"/>
<text xml:space="preserve" text-anchor="middle" x="389.79" y="-161.2" font-family="Noto Sans CJK KR" font-size="14.00" fill="#dc2626">commit rejected: no mutation/event</text>
</g>
<!-- J -->
<g id="node10" class="node">
<title>J</title>
<path fill="#f3eefc" stroke="#ab8fe0" stroke-width="1.4" d="M221.29,-137C221.29,-137 53.73,-137 53.73,-137 47.73,-137 41.73,-131 41.73,-125 41.73,-125 41.73,-101 41.73,-101 41.73,-95 47.73,-89 53.73,-89 53.73,-89 221.29,-89 221.29,-89 227.29,-89 233.29,-95 233.29,-101 233.29,-101 233.29,-125 233.29,-125 233.29,-131 227.29,-137 221.29,-137"/>
<text xml:space="preserve" text-anchor="middle" x="137.51" y="-117.2" font-family="Noto Sans CJK KR" font-size="14.00" fill="#182033">10. ReactionQueue</text>
<text xml:space="preserve" text-anchor="middle" x="137.51" y="-100.4" font-family="Noto Sans CJK KR" font-size="14.00" fill="#182033">Burn 등 상태 변경 반응 enqueue</text>
</g>
<!-- I&#45;&gt;J -->
<g id="edge9" class="edge">
<title>I&#45;&gt;J</title>
<path fill="none" stroke="#59687e" stroke-width="1.3" d="M123.64,-193.22C126.04,-179.5 129.1,-162.01 131.74,-146.95"/>
<polygon fill="#59687e" stroke="#59687e" stroke-width="1.3" points="134.44,-147.78 133.06,-139.41 128.92,-146.81 134.44,-147.78"/>
</g>
<!-- J&#45;&gt;K -->
<g id="edge10" class="edge">
<title>J&#45;&gt;K</title>
<path fill="none" stroke="#59687e" stroke-width="1.3" d="M205.67,-88.34C225.27,-81.65 246.71,-74.44 266.51,-68 283.23,-62.56 301.14,-56.9 318.34,-51.54"/>
<polygon fill="#59687e" stroke="#59687e" stroke-width="1.3" points="319.13,-54.23 325.94,-49.19 317.47,-48.88 319.13,-54.23"/>
</g>
</g>
</svg>
