<?xml version="1.0" encoding="UTF-8" standalone="no"?>
<!DOCTYPE svg PUBLIC "-//W3C//DTD SVG 1.1//EN"
 "http://www.w3.org/Graphics/SVG/1.1/DTD/svg11.dtd">
<!-- Generated by graphviz version 15.0.0 (20260523.1842)
 -->
<!-- Title: G Pages: 1 -->
<svg width="690pt" height="902pt"
 viewBox="9.00 9.00 681.00 894.00" xmlns="http://www.w3.org/2000/svg" xmlns:xlink="http://www.w3.org/1999/xlink">
<g id="graph0" class="graph" transform="scale(1 1) rotate(0) translate(26.64 875.64)">
<title>G</title>
<polygon fill="#ffffff" stroke="none" points="-18,18 -18,-867 654.61,-867 654.61,18 -18,18"/>
<!-- A -->
<g id="node1" class="node">
<title>A</title>
<path fill="#eaf0ff" stroke="#8292f7" stroke-width="1.4" d="M540.45,-849C540.45,-849 430.05,-849 430.05,-849 424.05,-849 418.05,-843 418.05,-837 418.05,-837 418.05,-813 418.05,-813 418.05,-807 424.05,-801 430.05,-801 430.05,-801 540.45,-801 540.45,-801 546.45,-801 552.45,-807 552.45,-813 552.45,-813 552.45,-837 552.45,-837 552.45,-843 546.45,-849 540.45,-849"/>
<text xml:space="preserve" text-anchor="middle" x="485.25" y="-829.2" font-family="Noto Sans CJK KR" font-size="14.00" fill="#182033">1. Player Input / AI</text>
<text xml:space="preserve" text-anchor="middle" x="485.25" y="-812.4" font-family="Noto Sans CJK KR" font-size="14.00" fill="#182033">SkillRequest 생성</text>
</g>
<!-- B -->
<g id="node2" class="node">
<title>B</title>
<path fill="#f0f3f9" stroke="#99a8bd" stroke-width="1.4" d="M585.25,-760C585.25,-760 385.26,-760 385.26,-760 379.26,-760 373.26,-754 373.26,-748 373.26,-748 373.26,-724 373.26,-724 373.26,-718 379.26,-712 385.26,-712 385.26,-712 585.25,-712 585.25,-712 591.25,-712 597.25,-718 597.25,-724 597.25,-724 597.25,-748 597.25,-748 597.25,-754 591.25,-760 585.25,-760"/>
<text xml:space="preserve" text-anchor="middle" x="485.25" y="-740.2" font-family="Noto Sans CJK KR" font-size="14.00" fill="#182033">2. SkillController</text>
<text xml:space="preserve" text-anchor="middle" x="485.25" y="-723.4" font-family="Noto Sans CJK KR" font-size="14.00" fill="#182033">SkillDefinition + SkillRuntime 조회</text>
</g>
<!-- A&#45;&gt;B -->
<g id="edge1" class="edge">
<title>A&#45;&gt;B</title>
<path fill="none" stroke="#59687e" stroke-width="1.3" d="M485.25,-800.69C485.25,-791.4 485.25,-780.54 485.25,-770.44"/>
<polygon fill="#59687e" stroke="#59687e" stroke-width="1.3" points="488.05,-770.65 485.25,-762.65 482.45,-770.65 488.05,-770.65"/>
</g>
<!-- C -->
<g id="node3" class="node">
<title>C</title>
<path fill="#f3eefc" stroke="#ab8fe0" stroke-width="1.4" d="M571.96,-671C571.96,-671 398.54,-671 398.54,-671 392.54,-671 386.54,-665 386.54,-659 386.54,-659 386.54,-635 386.54,-635 386.54,-629 392.54,-623 398.54,-623 398.54,-623 571.96,-623 571.96,-623 577.96,-623 583.96,-629 583.96,-635 583.96,-635 583.96,-659 583.96,-659 583.96,-665 577.96,-671 571.96,-671"/>
<text xml:space="preserve" text-anchor="middle" x="485.25" y="-651.2" font-family="Noto Sans CJK KR" font-size="14.00" fill="#182033">3. SkillValidator</text>
<text xml:space="preserve" text-anchor="middle" x="485.25" y="-634.4" font-family="Noto Sans CJK KR" font-size="14.00" fill="#182033">비용 · 쿨다운 · 상태 · 사거리 검증</text>
</g>
<!-- B&#45;&gt;C -->
<g id="edge2" class="edge">
<title>B&#45;&gt;C</title>
<path fill="none" stroke="#59687e" stroke-width="1.3" d="M485.25,-711.69C485.25,-702.4 485.25,-691.54 485.25,-681.44"/>
<polygon fill="#59687e" stroke="#59687e" stroke-width="1.3" points="488.05,-681.65 485.25,-673.65 482.45,-681.65 488.05,-681.65"/>
</g>
<!-- D -->
<g id="node4" class="node">
<title>D</title>
<path fill="#fff7e6" stroke="#e0ad4e" stroke-width="1.4" d="M463.71,-582C463.71,-582 356.79,-582 356.79,-582 350.79,-582 344.79,-576 344.79,-570 344.79,-570 344.79,-546 344.79,-546 344.79,-540 350.79,-534 356.79,-534 356.79,-534 463.71,-534 463.71,-534 469.71,-534 475.71,-540 475.71,-546 475.71,-546 475.71,-570 475.71,-570 475.71,-576 469.71,-582 463.71,-582"/>
<text xml:space="preserve" text-anchor="middle" x="410.25" y="-562.2" font-family="Noto Sans CJK KR" font-size="14.00" fill="#182033">4. CostPolicy</text>
<text xml:space="preserve" text-anchor="middle" x="410.25" y="-545.4" font-family="Noto Sans CJK KR" font-size="14.00" fill="#182033">비용 예약 또는 선지불</text>
</g>
<!-- C&#45;&gt;D -->
<g id="edge3" class="edge">
<title>C&#45;&gt;D</title>
<path fill="none" stroke="#59687e" stroke-width="1.3" d="M465.15,-622.69C456.48,-612.63 446.21,-600.71 436.92,-589.93"/>
<polygon fill="#59687e" stroke="#59687e" stroke-width="1.3" points="439.3,-588.4 431.95,-584.17 435.06,-592.06 439.3,-588.4"/>
</g>
<!-- I -->
<g id="node9" class="node">
<title>I</title>
<path fill="#f0f3f9" stroke="#99a8bd" stroke-width="1.4" d="M470.4,-137C470.4,-137 260.11,-137 260.11,-137 254.11,-137 248.11,-131 248.11,-125 248.11,-125 248.11,-101 248.11,-101 248.11,-95 254.11,-89 260.11,-89 260.11,-89 470.4,-89 470.4,-89 476.4,-89 482.4,-95 482.4,-101 482.4,-101 482.4,-125 482.4,-125 482.4,-131 476.4,-137 470.4,-137"/>
<text xml:space="preserve" text-anchor="middle" x="365.25" y="-117.2" font-family="Noto Sans CJK KR" font-size="14.00" fill="#182033">9. SkillResult 작성</text>
<text xml:space="preserve" text-anchor="middle" x="365.25" y="-100.4" font-family="Noto Sans CJK KR" font-size="14.00" fill="#182033">Succeeded · FailureReason · Effects</text>
</g>
<!-- C&#45;&gt;I -->
<g id="edge10" class="edge">
<title>C&#45;&gt;I</title>
<path fill="none" stroke="#dc2626" stroke-width="1.3" stroke-dasharray="5,2" d="M513.15,-622.31C528.81,-606.27 545.25,-583.59 545.25,-559 545.25,-559 545.25,-559 545.25,-201 545.25,-169.01 521.93,-148.78 492.07,-135.99"/>
<polygon fill="#dc2626" stroke="#dc2626" stroke-width="1.3" points="493.35,-133.49 484.88,-133.14 491.29,-138.69 493.35,-133.49"/>
<text xml:space="preserve" text-anchor="middle" x="590.93" y="-375.8" font-family="Noto Sans CJK KR" font-size="14.00" fill="#dc2626">validation failed</text>
</g>
<!-- E -->
<g id="node5" class="node">
<title>E</title>
<path fill="#e9fbff" stroke="#54b7cf" stroke-width="1.4" d="M436.96,-493C436.96,-493 293.54,-493 293.54,-493 287.54,-493 281.54,-487 281.54,-481 281.54,-481 281.54,-457 281.54,-457 281.54,-451 287.54,-445 293.54,-445 293.54,-445 436.96,-445 436.96,-445 442.96,-445 448.96,-451 448.96,-457 448.96,-457 448.96,-481 448.96,-481 448.96,-487 442.96,-493 436.96,-493"/>
<text xml:space="preserve" text-anchor="middle" x="365.25" y="-473.2" font-family="Noto Sans CJK KR" font-size="14.00" fill="#182033">5. ActionTimeline</text>
<text xml:space="preserve" text-anchor="middle" x="365.25" y="-456.4" font-family="Noto Sans CJK KR" font-size="14.00" fill="#182033">windup → release marker</text>
</g>
<!-- D&#45;&gt;E -->
<g id="edge4" class="edge">
<title>D&#45;&gt;E</title>
<path fill="none" stroke="#59687e" stroke-width="1.3" d="M398.19,-533.69C393.24,-524.11 387.42,-512.86 382.06,-502.49"/>
<polygon fill="#59687e" stroke="#59687e" stroke-width="1.3" points="384.57,-501.25 378.41,-495.43 379.59,-503.82 384.57,-501.25"/>
</g>
<!-- F -->
<g id="node6" class="node">
<title>F</title>
<path fill="#eefbf6" stroke="#61b99a" stroke-width="1.4" d="M298.51,-404C298.51,-404 12,-404 12,-404 6,-404 0,-398 0,-392 0,-392 0,-368 0,-368 0,-362 6,-356 12,-356 12,-356 298.51,-356 298.51,-356 304.51,-356 310.51,-362 310.51,-368 310.51,-368 310.51,-392 310.51,-392 310.51,-398 304.51,-404 298.51,-404"/>
<text xml:space="preserve" text-anchor="middle" x="155.25" y="-384.2" font-family="Noto Sans CJK KR" font-size="14.00" fill="#182033">6. EffectContext 생성</text>
<text xml:space="preserve" text-anchor="middle" x="155.25" y="-367.4" font-family="Noto Sans CJK KR" font-size="14.00" fill="#182033">CasterId · InitialTargetId · Source · RandomSeed</text>
</g>
<!-- E&#45;&gt;F -->
<g id="edge5" class="edge">
<title>E&#45;&gt;F</title>
<path fill="none" stroke="#59687e" stroke-width="1.3" d="M308.15,-444.34C281.3,-433.22 249.13,-419.89 221.24,-408.34"/>
<polygon fill="#59687e" stroke="#59687e" stroke-width="1.3" points="222.63,-405.88 214.17,-405.41 220.49,-411.06 222.63,-405.88"/>
</g>
<!-- E&#45;&gt;I -->
<g id="edge11" class="edge">
<title>E&#45;&gt;I</title>
<path fill="none" stroke="#dc2626" stroke-width="1.3" stroke-dasharray="5,2" d="M365.25,-444.37C365.25,-426.87 365.25,-402.45 365.25,-381 365.25,-381 365.25,-381 365.25,-201 365.25,-183.24 365.25,-163.44 365.25,-147.22"/>
<polygon fill="#dc2626" stroke="#dc2626" stroke-width="1.3" points="368.05,-147.6 365.25,-139.6 362.45,-147.6 368.05,-147.6"/>
<text xml:space="preserve" text-anchor="middle" x="427.83" y="-286.8" font-family="Noto Sans CJK KR" font-size="14.00" fill="#dc2626">interrupted / cancelled</text>
</g>
<!-- G -->
<g id="node7" class="node">
<title>G</title>
<path fill="#fff0f3" stroke="#e07b91" stroke-width="1.4" d="M232.78,-315C232.78,-315 131.73,-315 131.73,-315 125.73,-315 119.73,-309 119.73,-303 119.73,-303 119.73,-279 119.73,-279 119.73,-273 125.73,-267 131.73,-267 131.73,-267 232.78,-267 232.78,-267 238.78,-267 244.78,-273 244.78,-279 244.78,-279 244.78,-303 244.78,-303 244.78,-309 238.78,-315 232.78,-315"/>
<text xml:space="preserve" text-anchor="middle" x="182.25" y="-295.2" font-family="Noto Sans CJK KR" font-size="14.00" fill="#182033">7. EffectService</text>
<text xml:space="preserve" text-anchor="middle" x="182.25" y="-278.4" font-family="Noto Sans CJK KR" font-size="14.00" fill="#182033">EffectBundle 실행</text>
</g>
<!-- F&#45;&gt;G -->
<g id="edge6" class="edge">
<title>F&#45;&gt;G</title>
<path fill="none" stroke="#59687e" stroke-width="1.3" d="M162.49,-355.69C165.4,-346.3 168.81,-335.31 171.97,-325.12"/>
<polygon fill="#59687e" stroke="#59687e" stroke-width="1.3" points="174.62,-326.03 174.32,-317.56 169.28,-324.37 174.62,-326.03"/>
</g>
<!-- H -->
<g id="node8" class="node">
<title>H</title>
<path fill="#fff0f3" stroke="#e07b91" stroke-width="1.4" d="M294.59,-226C294.59,-226 151.91,-226 151.91,-226 145.91,-226 139.91,-220 139.91,-214 139.91,-214 139.91,-190 139.91,-190 139.91,-184 145.91,-178 151.91,-178 151.91,-178 294.59,-178 294.59,-178 300.59,-178 306.59,-184 306.59,-190 306.59,-190 306.59,-214 306.59,-214 306.59,-220 300.59,-226 294.59,-226"/>
<text xml:space="preserve" text-anchor="middle" x="223.25" y="-206.2" font-family="Noto Sans CJK KR" font-size="14.00" fill="#182033">8. EffectResult 수집</text>
<text xml:space="preserve" text-anchor="middle" x="223.25" y="-189.4" font-family="Noto Sans CJK KR" font-size="14.00" fill="#182033">Damage / Status 결과 포함</text>
</g>
<!-- G&#45;&gt;H -->
<g id="edge7" class="edge">
<title>G&#45;&gt;H</title>
<path fill="none" stroke="#59687e" stroke-width="1.3" d="M193.24,-266.69C197.75,-257.11 203.06,-245.86 207.94,-235.49"/>
<polygon fill="#59687e" stroke="#59687e" stroke-width="1.3" points="210.38,-236.89 211.25,-228.46 205.31,-234.5 210.38,-236.89"/>
</g>
<!-- H&#45;&gt;I -->
<g id="edge8" class="edge">
<title>H&#45;&gt;I</title>
<path fill="none" stroke="#59687e" stroke-width="1.3" d="M261.68,-177.46C279.2,-166.72 300.1,-153.92 318.53,-142.63"/>
<polygon fill="#59687e" stroke="#59687e" stroke-width="1.3" points="319.76,-145.16 325.12,-138.59 316.83,-140.38 319.76,-145.16"/>
</g>
<!-- J -->
<g id="node10" class="node">
<title>J</title>
<path fill="#eefbf6" stroke="#61b99a" stroke-width="1.4" d="M460.71,-48C460.71,-48 269.8,-48 269.8,-48 263.8,-48 257.8,-42 257.8,-36 257.8,-36 257.8,-12 257.8,-12 257.8,-6 263.8,0 269.8,0 269.8,0 460.71,0 460.71,0 466.71,0 472.71,-6 472.71,-12 472.71,-12 472.71,-36 472.71,-36 472.71,-42 466.71,-48 460.71,-48"/>
<text xml:space="preserve" text-anchor="middle" x="365.25" y="-28.2" font-family="Noto Sans CJK KR" font-size="14.00" fill="#182033">10. commit 이후 EventBus</text>
<text xml:space="preserve" text-anchor="middle" x="365.25" y="-11.4" font-family="Noto Sans CJK KR" font-size="14.00" fill="#182033">SkillCommitted / SkillInterrupted</text>
</g>
<!-- I&#45;&gt;J -->
<g id="edge9" class="edge">
<title>I&#45;&gt;J</title>
<path fill="none" stroke="#59687e" stroke-width="1.3" d="M365.25,-88.69C365.25,-79.4 365.25,-68.54 365.25,-58.44"/>
<polygon fill="#59687e" stroke="#59687e" stroke-width="1.3" points="368.05,-58.65 365.25,-50.65 362.45,-58.65 368.05,-58.65"/>
</g>
</g>
</svg>
