<?xml version="1.0" encoding="UTF-8" standalone="no"?>
<!DOCTYPE svg PUBLIC "-//W3C//DTD SVG 1.1//EN"
 "http://www.w3.org/Graphics/SVG/1.1/DTD/svg11.dtd">
<!-- Generated by graphviz version 2.42.4 (0)
 -->
<!-- Title: G Pages: 1 -->
<svg width="522pt" height="1210pt"
 viewBox="8.64 8.64 513.64 1201.64" xmlns="http://www.w3.org/2000/svg" xmlns:xlink="http://www.w3.org/1999/xlink">
<g id="graph0" class="graph" transform="scale(1 1) rotate(0) translate(26.64 1183.64)">
<title>G</title>
<polygon fill="#ffffff" stroke="transparent" points="-18,18 -18,-1175 487,-1175 487,18 -18,18"/>
<!-- Start -->
<g id="node1" class="node">
<title>Start</title>
<ellipse fill="#182033" stroke="#182033" stroke-width="1.4" cx="123.5" cy="-1137" rx="20" ry="20"/>
</g>
<!-- Request -->
<g id="node2" class="node">
<title>Request</title>
<path fill="#eaf0ff" stroke="#8292f7" stroke-width="1.4" d="M205,-1066C205,-1066 42,-1066 42,-1066 36,-1066 30,-1060 30,-1054 30,-1054 30,-1038 30,-1038 30,-1032 36,-1026 42,-1026 42,-1026 205,-1026 205,-1026 211,-1026 217,-1032 217,-1038 217,-1038 217,-1054 217,-1054 217,-1060 211,-1066 205,-1066"/>
<text text-anchor="middle" x="123.5" y="-1042.3" font-family="Noto Sans CJK KR" font-size="14.00" fill="#182033">SkillRequest 수신</text>
</g>
<!-- Start&#45;&gt;Request -->
<g id="edge1" class="edge">
<title>Start&#45;&gt;Request</title>
<path fill="none" stroke="#59687e" stroke-width="1.3" d="M123.5,-1116.8C123.5,-1116.8 123.5,-1074.14 123.5,-1074.14"/>
<polygon fill="#59687e" stroke="#59687e" stroke-width="1.3" points="126.3,-1074.14 123.5,-1066.14 120.7,-1074.14 126.3,-1074.14"/>
</g>
<!-- Validate -->
<g id="node3" class="node">
<title>Validate</title>
<path fill="#f3eefc" stroke="#ab8fe0" stroke-width="1.4" d="M111.77,-972.49C111.77,-972.49 41.73,-957.51 41.73,-957.51 35.87,-956.26 35.87,-953.74 41.73,-952.49 41.73,-952.49 111.77,-937.51 111.77,-937.51 117.63,-936.26 129.37,-936.26 135.23,-937.51 135.23,-937.51 205.27,-952.49 205.27,-952.49 211.13,-953.74 211.13,-956.26 205.27,-957.51 205.27,-957.51 135.23,-972.49 135.23,-972.49 129.37,-973.74 117.63,-973.74 111.77,-972.49"/>
<text text-anchor="middle" x="123.5" y="-951.3" font-family="Noto Sans CJK KR" font-size="14.00" fill="#182033">사용 가능?</text>
</g>
<!-- Request&#45;&gt;Validate -->
<g id="edge2" class="edge">
<title>Request&#45;&gt;Validate</title>
<path fill="none" stroke="#59687e" stroke-width="1.3" d="M123.5,-1025.8C123.5,-1025.8 123.5,-983.14 123.5,-983.14"/>
<polygon fill="#59687e" stroke="#59687e" stroke-width="1.3" points="126.3,-983.14 123.5,-975.14 120.7,-983.14 126.3,-983.14"/>
</g>
<!-- Fail -->
<g id="node4" class="node">
<title>Fail</title>
<path fill="#fff0f3" stroke="#e07b91" stroke-width="1.4" d="M175,-805C175,-805 12,-805 12,-805 6,-805 0,-799 0,-793 0,-793 0,-775 0,-775 0,-769 6,-763 12,-763 12,-763 175,-763 175,-763 181,-763 187,-769 187,-775 187,-775 187,-793 187,-793 187,-799 181,-805 175,-805"/>
<text text-anchor="middle" x="93.5" y="-787.8" font-family="Noto Sans CJK KR" font-size="14.00" fill="#182033">SkillFailed</text>
<text text-anchor="middle" x="93.5" y="-772.8" font-family="Noto Sans CJK KR" font-size="14.00" fill="#182033">비용/쿨다운 없음</text>
</g>
<!-- Validate&#45;&gt;Fail -->
<g id="edge3" class="edge">
<title>Validate&#45;&gt;Fail</title>
<path fill="none" stroke="#59687e" stroke-width="1.3" d="M89.5,-942.15C89.5,-942.15 89.5,-813.08 89.5,-813.08"/>
<polygon fill="#59687e" stroke="#59687e" stroke-width="1.3" points="92.3,-813.08 89.5,-805.08 86.7,-813.08 92.3,-813.08"/>
<text text-anchor="middle" x="103" y="-898.8" font-family="Noto Sans CJK KR" font-size="14.00" fill="#46566e">No</text>
</g>
<!-- Pay -->
<g id="node5" class="node">
<title>Pay</title>
<path fill="#fff7e6" stroke="#e0ad4e" stroke-width="1.4" d="M324,-870C324,-870 161,-870 161,-870 155,-870 149,-864 149,-858 149,-858 149,-842 149,-842 149,-836 155,-830 161,-830 161,-830 324,-830 324,-830 330,-830 336,-836 336,-842 336,-842 336,-858 336,-858 336,-864 330,-870 324,-870"/>
<text text-anchor="middle" x="242.5" y="-846.3" font-family="Noto Sans CJK KR" font-size="14.00" fill="#182033">비용 예약 또는 선지불</text>
</g>
<!-- Validate&#45;&gt;Pay -->
<g id="edge5" class="edge">
<title>Validate&#45;&gt;Pay</title>
<path fill="none" stroke="#59687e" stroke-width="1.3" d="M183,-947.45C183,-947.45 183,-878.19 183,-878.19"/>
<polygon fill="#59687e" stroke="#59687e" stroke-width="1.3" points="185.8,-878.19 183,-870.19 180.2,-878.19 185.8,-878.19"/>
<text text-anchor="middle" x="208.5" y="-898.8" font-family="Noto Sans CJK KR" font-size="14.00" fill="#46566e">Yes</text>
</g>
<!-- End -->
<g id="node14" class="node">
<title>End</title>
<ellipse fill="#ffffff" stroke="#182033" stroke-width="1.4" cx="114.5" cy="-24" rx="20" ry="20"/>
<ellipse fill="none" stroke="#182033" stroke-width="1.4" cx="114.5" cy="-24" rx="24" ry="24"/>
</g>
<!-- Fail&#45;&gt;End -->
<g id="edge4" class="edge">
<title>Fail&#45;&gt;End</title>
<path fill="none" stroke="#59687e" stroke-width="1.3" d="M104.67,-762.88C104.67,-762.88 104.67,-54.11 104.67,-54.11"/>
<polygon fill="#59687e" stroke="#59687e" stroke-width="1.3" points="107.47,-54.11 104.67,-46.11 101.87,-54.11 107.47,-54.11"/>
</g>
<!-- Windup -->
<g id="node6" class="node">
<title>Windup</title>
<path fill="#e9fbff" stroke="#54b7cf" stroke-width="1.4" d="M324,-738C324,-738 161,-738 161,-738 155,-738 149,-732 149,-726 149,-726 149,-710 149,-710 149,-704 155,-698 161,-698 161,-698 324,-698 324,-698 330,-698 336,-704 336,-710 336,-710 336,-726 336,-726 336,-732 330,-738 324,-738"/>
<text text-anchor="middle" x="242.5" y="-714.3" font-family="Noto Sans CJK KR" font-size="14.00" fill="#182033">Windup / Cast 진행</text>
</g>
<!-- Pay&#45;&gt;Windup -->
<g id="edge6" class="edge">
<title>Pay&#45;&gt;Windup</title>
<path fill="none" stroke="#59687e" stroke-width="1.3" d="M261.5,-829.95C261.5,-829.95 261.5,-746.24 261.5,-746.24"/>
<polygon fill="#59687e" stroke="#59687e" stroke-width="1.3" points="264.3,-746.24 261.5,-738.24 258.7,-746.24 264.3,-746.24"/>
</g>
<!-- Interrupt -->
<g id="node7" class="node">
<title>Interrupt</title>
<path fill="#f3eefc" stroke="#ab8fe0" stroke-width="1.4" d="M230.77,-644.49C230.77,-644.49 160.73,-629.51 160.73,-629.51 154.87,-628.26 154.87,-625.74 160.73,-624.49 160.73,-624.49 230.77,-609.51 230.77,-609.51 236.63,-608.26 248.37,-608.26 254.23,-609.51 254.23,-609.51 324.27,-624.49 324.27,-624.49 330.13,-625.74 330.13,-628.26 324.27,-629.51 324.27,-629.51 254.23,-644.49 254.23,-644.49 248.37,-645.74 236.63,-645.74 230.77,-644.49"/>
<text text-anchor="middle" x="242.5" y="-623.3" font-family="Noto Sans CJK KR" font-size="14.00" fill="#182033">중단됨?</text>
</g>
<!-- Windup&#45;&gt;Interrupt -->
<g id="edge7" class="edge">
<title>Windup&#45;&gt;Interrupt</title>
<path fill="none" stroke="#59687e" stroke-width="1.3" d="M242.5,-697.8C242.5,-697.8 242.5,-655.14 242.5,-655.14"/>
<polygon fill="#59687e" stroke="#59687e" stroke-width="1.3" points="245.3,-655.14 242.5,-647.14 239.7,-655.14 245.3,-655.14"/>
</g>
<!-- Refund -->
<g id="node8" class="node">
<title>Refund</title>
<path fill="#fff0f3" stroke="#e07b91" stroke-width="1.4" d="M308,-477C308,-477 145,-477 145,-477 139,-477 133,-471 133,-465 133,-465 133,-449 133,-449 133,-443 139,-437 145,-437 145,-437 308,-437 308,-437 314,-437 320,-443 320,-449 320,-449 320,-465 320,-465 320,-471 314,-477 308,-477"/>
<text text-anchor="middle" x="226.5" y="-453.3" font-family="Noto Sans CJK KR" font-size="14.00" fill="#182033">환불/실패 쿨다운 정책</text>
</g>
<!-- Interrupt&#45;&gt;Refund -->
<g id="edge8" class="edge">
<title>Interrupt&#45;&gt;Refund</title>
<path fill="none" stroke="#59687e" stroke-width="1.3" d="M215.5,-612.51C215.5,-612.51 215.5,-485.14 215.5,-485.14"/>
<polygon fill="#59687e" stroke="#59687e" stroke-width="1.3" points="218.3,-485.14 215.5,-477.14 212.7,-485.14 218.3,-485.14"/>
<text text-anchor="middle" x="237.5" y="-570.8" font-family="Noto Sans CJK KR" font-size="14.00" fill="#46566e">Yes</text>
</g>
<!-- Marker -->
<g id="node9" class="node">
<title>Marker</title>
<path fill="#fff7e6" stroke="#e0ad4e" stroke-width="1.4" d="M457,-542C457,-542 294,-542 294,-542 288,-542 282,-536 282,-530 282,-530 282,-514 282,-514 282,-508 288,-502 294,-502 294,-502 457,-502 457,-502 463,-502 469,-508 469,-514 469,-514 469,-530 469,-530 469,-536 463,-542 457,-542"/>
<text text-anchor="middle" x="375.5" y="-518.3" font-family="Noto Sans CJK KR" font-size="14.00" fill="#182033">Hit Frame Marker 도달</text>
</g>
<!-- Interrupt&#45;&gt;Marker -->
<g id="edge10" class="edge">
<title>Interrupt&#45;&gt;Marker</title>
<path fill="none" stroke="#59687e" stroke-width="1.3" d="M309,-621.05C309,-621.05 309,-550.18 309,-550.18"/>
<polygon fill="#59687e" stroke="#59687e" stroke-width="1.3" points="311.8,-550.18 309,-542.18 306.2,-550.18 311.8,-550.18"/>
<text text-anchor="middle" x="342" y="-570.8" font-family="Noto Sans CJK KR" font-size="14.00" fill="#46566e">No</text>
</g>
<!-- Cooldown -->
<g id="node13" class="node">
<title>Cooldown</title>
<path fill="#f0f3f9" stroke="#99a8bd" stroke-width="1.4" d="M324,-139C324,-139 161,-139 161,-139 155,-139 149,-133 149,-127 149,-127 149,-111 149,-111 149,-105 155,-99 161,-99 161,-99 324,-99 324,-99 330,-99 336,-105 336,-111 336,-111 336,-127 336,-127 336,-133 330,-139 324,-139"/>
<text text-anchor="middle" x="242.5" y="-115.3" font-family="Noto Sans CJK KR" font-size="14.00" fill="#182033">쿨다운 시작/차지 소모</text>
</g>
<!-- Refund&#45;&gt;Cooldown -->
<g id="edge9" class="edge">
<title>Refund&#45;&gt;Cooldown</title>
<path fill="none" stroke="#59687e" stroke-width="1.3" d="M215.5,-436.87C215.5,-436.87 215.5,-147.03 215.5,-147.03"/>
<polygon fill="#59687e" stroke="#59687e" stroke-width="1.3" points="218.3,-147.03 215.5,-139.03 212.7,-147.03 218.3,-147.03"/>
</g>
<!-- Context -->
<g id="node10" class="node">
<title>Context</title>
<path fill="#eefbf6" stroke="#61b99a" stroke-width="1.4" d="M457,-412C457,-412 294,-412 294,-412 288,-412 282,-406 282,-400 282,-400 282,-384 282,-384 282,-378 288,-372 294,-372 294,-372 457,-372 457,-372 463,-372 469,-378 469,-384 469,-384 469,-400 469,-400 469,-406 463,-412 457,-412"/>
<text text-anchor="middle" x="375.5" y="-388.3" font-family="Noto Sans CJK KR" font-size="14.00" fill="#182033">EffectContext 생성</text>
</g>
<!-- Marker&#45;&gt;Context -->
<g id="edge11" class="edge">
<title>Marker&#45;&gt;Context</title>
<path fill="none" stroke="#59687e" stroke-width="1.3" d="M394.5,-501.97C394.5,-501.97 394.5,-420.26 394.5,-420.26"/>
<polygon fill="#59687e" stroke="#59687e" stroke-width="1.3" points="397.3,-420.26 394.5,-412.26 391.7,-420.26 397.3,-420.26"/>
</g>
<!-- Bundle -->
<g id="node11" class="node">
<title>Bundle</title>
<path fill="#fff0f3" stroke="#e07b91" stroke-width="1.4" d="M457,-321C457,-321 294,-321 294,-321 288,-321 282,-315 282,-309 282,-309 282,-293 282,-293 282,-287 288,-281 294,-281 294,-281 457,-281 457,-281 463,-281 469,-287 469,-293 469,-293 469,-309 469,-309 469,-315 463,-321 457,-321"/>
<text text-anchor="middle" x="375.5" y="-297.3" font-family="Noto Sans CJK KR" font-size="14.00" fill="#182033">EffectBundle 실행</text>
</g>
<!-- Context&#45;&gt;Bundle -->
<g id="edge12" class="edge">
<title>Context&#45;&gt;Bundle</title>
<path fill="none" stroke="#59687e" stroke-width="1.3" d="M375.5,-371.8C375.5,-371.8 375.5,-329.14 375.5,-329.14"/>
<polygon fill="#59687e" stroke="#59687e" stroke-width="1.3" points="378.3,-329.14 375.5,-321.14 372.7,-329.14 378.3,-329.14"/>
</g>
<!-- Recovery -->
<g id="node12" class="node">
<title>Recovery</title>
<path fill="#e9fbff" stroke="#54b7cf" stroke-width="1.4" d="M457,-230C457,-230 294,-230 294,-230 288,-230 282,-224 282,-218 282,-218 282,-202 282,-202 282,-196 288,-190 294,-190 294,-190 457,-190 457,-190 463,-190 469,-196 469,-202 469,-202 469,-218 469,-218 469,-224 463,-230 457,-230"/>
<text text-anchor="middle" x="375.5" y="-206.3" font-family="Noto Sans CJK KR" font-size="14.00" fill="#182033">Recovery / 후딜</text>
</g>
<!-- Bundle&#45;&gt;Recovery -->
<g id="edge13" class="edge">
<title>Bundle&#45;&gt;Recovery</title>
<path fill="none" stroke="#59687e" stroke-width="1.3" d="M375.5,-280.8C375.5,-280.8 375.5,-238.14 375.5,-238.14"/>
<polygon fill="#59687e" stroke="#59687e" stroke-width="1.3" points="378.3,-238.14 375.5,-230.14 372.7,-238.14 378.3,-238.14"/>
</g>
<!-- Recovery&#45;&gt;Cooldown -->
<g id="edge14" class="edge">
<title>Recovery&#45;&gt;Cooldown</title>
<path fill="none" stroke="#59687e" stroke-width="1.3" d="M309,-189.8C309,-189.8 309,-147.14 309,-147.14"/>
<polygon fill="#59687e" stroke="#59687e" stroke-width="1.3" points="311.8,-147.14 309,-139.14 306.2,-147.14 311.8,-147.14"/>
</g>
<!-- Cooldown&#45;&gt;End -->
<g id="edge15" class="edge">
<title>Cooldown&#45;&gt;End</title>
<path fill="none" stroke="#59687e" stroke-width="1.3" d="M148.77,-119C131.52,-119 118.83,-119 118.83,-119 118.83,-119 118.83,-55.97 118.83,-55.97"/>
<polygon fill="#59687e" stroke="#59687e" stroke-width="1.3" points="121.63,-55.97 118.83,-47.97 116.03,-55.97 121.63,-55.97"/>
</g>
</g>
</svg>
