<?xml version="1.0" encoding="UTF-8" standalone="no"?>
<!DOCTYPE svg PUBLIC "-//W3C//DTD SVG 1.1//EN"
 "http://www.w3.org/Graphics/SVG/1.1/DTD/svg11.dtd">
<!-- Generated by graphviz version 15.0.0 (20260523.1842)
 -->
<!-- Title: G Pages: 1 -->
<svg width="882pt" height="1681pt"
 viewBox="9.00 9.00 873.00 1672.00" xmlns="http://www.w3.org/2000/svg" xmlns:xlink="http://www.w3.org/1999/xlink">
<g id="graph0" class="graph" transform="scale(1 1) rotate(0) translate(26.64 1654.08)">
<title>G</title>
<polygon fill="#ffffff" stroke="none" points="-18,18 -18,-1645.44 846.65,-1645.44 846.65,18 -18,18"/>
<!-- Start -->
<g id="node1" class="node">
<title>Start</title>
<ellipse fill="#182033" stroke="#182033" stroke-width="1.4" cx="270.25" cy="-1607.64" rx="19.8" ry="19.8"/>
</g>
<!-- Request -->
<g id="node2" class="node">
<title>Request</title>
<path fill="#eaf0ff" stroke="#8292f7" stroke-width="1.4" d="M363.43,-1538.84C363.43,-1538.84 177.06,-1538.84 177.06,-1538.84 171.06,-1538.84 165.06,-1532.84 165.06,-1526.84 165.06,-1526.84 165.06,-1511.24 165.06,-1511.24 165.06,-1505.24 171.06,-1499.24 177.06,-1499.24 177.06,-1499.24 363.43,-1499.24 363.43,-1499.24 369.43,-1499.24 375.43,-1505.24 375.43,-1511.24 375.43,-1511.24 375.43,-1526.84 375.43,-1526.84 375.43,-1532.84 369.43,-1538.84 363.43,-1538.84"/>
<text xml:space="preserve" text-anchor="middle" x="270.25" y="-1514.84" font-family="Noto Sans CJK KR" font-size="14.00" fill="#182033">&lt;&lt;public contract&gt;&gt; SkillRequest</text>
</g>
<!-- Start&#45;&gt;Request -->
<g id="edge1" class="edge">
<title>Start&#45;&gt;Request</title>
<path fill="none" stroke="#59687e" stroke-width="1.3" d="M270.25,-1587.54C270.25,-1587.54 270.25,-1549.34 270.25,-1549.34"/>
<polygon fill="#59687e" stroke="#59687e" stroke-width="1.3" points="273.05,-1549.34 270.25,-1541.34 267.45,-1549.34 273.05,-1549.34"/>
</g>
<!-- Validate -->
<g id="node3" class="node">
<title>Validate</title>
<path fill="#f3eefc" stroke="#ab8fe0" stroke-width="1.4" d="M258.42,-1448.2C258.42,-1448.2 11.83,-1405.72 11.83,-1405.72 5.91,-1404.7 5.91,-1402.66 11.83,-1401.64 11.83,-1401.64 258.42,-1359.16 258.42,-1359.16 264.33,-1358.14 276.16,-1358.14 282.07,-1359.16 282.07,-1359.16 528.67,-1401.64 528.67,-1401.64 534.58,-1402.66 534.58,-1404.7 528.67,-1405.72 528.67,-1405.72 282.07,-1448.2 282.07,-1448.2 276.16,-1449.22 264.33,-1449.22 258.42,-1448.2"/>
<text xml:space="preserve" text-anchor="middle" x="270.25" y="-1407.88" font-family="Noto Sans CJK KR" font-size="14.00" fill="#182033">&lt;&lt;public&gt;&gt; ISkillRequestValidator.Validate</text>
<text xml:space="preserve" text-anchor="middle" x="270.25" y="-1391.08" font-family="Noto Sans CJK KR" font-size="14.00" fill="#182033">SkillDecision.CanExecute?</text>
</g>
<!-- Request&#45;&gt;Validate -->
<g id="edge2" class="edge">
<title>Request&#45;&gt;Validate</title>
<path fill="none" stroke="#59687e" stroke-width="1.3" d="M270.25,-1498.68C270.25,-1498.68 270.25,-1460.61 270.25,-1460.61"/>
<polygon fill="#59687e" stroke="#59687e" stroke-width="1.3" points="273.05,-1460.61 270.25,-1452.61 267.45,-1460.61 273.05,-1460.61"/>
</g>
<!-- Fail -->
<g id="node4" class="node">
<title>Fail</title>
<path fill="#fff0f3" stroke="#e07b91" stroke-width="1.4" d="M373.87,-327.32C373.87,-327.32 106.62,-327.32 106.62,-327.32 100.62,-327.32 94.62,-321.32 94.62,-315.32 94.62,-315.32 94.62,-292.76 94.62,-292.76 94.62,-286.76 100.62,-280.76 106.62,-280.76 106.62,-280.76 373.87,-280.76 373.87,-280.76 379.87,-280.76 385.87,-286.76 385.87,-292.76 385.87,-292.76 385.87,-315.32 385.87,-315.32 385.87,-321.32 379.87,-327.32 373.87,-327.32"/>
<text xml:space="preserve" text-anchor="middle" x="240.25" y="-308.24" font-family="Noto Sans CJK KR" font-size="14.00" fill="#182033">&lt;&lt;public contract&gt;&gt; SkillResult(FailureReason)</text>
<text xml:space="preserve" text-anchor="middle" x="240.25" y="-291.44" font-family="Noto Sans CJK KR" font-size="14.00" fill="#182033">no execution mutation / event</text>
</g>
<!-- Validate&#45;&gt;Fail -->
<g id="edge3" class="edge">
<title>Validate&#45;&gt;Fail</title>
<path fill="none" stroke="#59687e" stroke-width="1.3" d="M195.16,-1369.56C195.16,-1369.56 195.16,-337.72 195.16,-337.72"/>
<polygon fill="#59687e" stroke="#59687e" stroke-width="1.3" points="197.96,-337.72 195.16,-329.72 192.36,-337.72 197.96,-337.72"/>
<text xml:space="preserve" text-anchor="middle" x="247.25" y="-828.56" font-family="Noto Sans CJK KR" font-size="14.00" fill="#46566e">no</text>
</g>
<!-- PayTiming -->
<g id="node5" class="node">
<title>PayTiming</title>
<path fill="#fff7e6" stroke="#e0ad4e" stroke-width="1.4" d="M437.47,-1290.04C437.47,-1290.04 307.48,-1264.84 307.48,-1264.84 301.59,-1263.7 301.59,-1261.42 307.48,-1260.28 307.48,-1260.28 437.47,-1235.08 437.47,-1235.08 443.36,-1233.94 455.14,-1233.94 461.03,-1235.08 461.03,-1235.08 591.01,-1260.28 591.01,-1260.28 596.91,-1261.42 596.91,-1263.7 591.01,-1264.84 591.01,-1264.84 461.03,-1290.04 461.03,-1290.04 455.14,-1291.18 443.36,-1291.18 437.47,-1290.04"/>
<text xml:space="preserve" text-anchor="middle" x="449.25" y="-1258.36" font-family="Noto Sans CJK KR" font-size="14.00" fill="#182033">CostPolicy.PayTiming?</text>
</g>
<!-- Validate&#45;&gt;PayTiming -->
<g id="edge5" class="edge">
<title>Validate&#45;&gt;PayTiming</title>
<path fill="none" stroke="#59687e" stroke-width="1.3" d="M418.09,-1381.94C418.09,-1381.94 418.09,-1296.9 418.09,-1296.9"/>
<polygon fill="#59687e" stroke="#59687e" stroke-width="1.3" points="420.89,-1296.9 418.09,-1288.9 415.29,-1296.9 420.89,-1296.9"/>
<text xml:space="preserve" text-anchor="middle" x="383.58" y="-1320.52" font-family="Noto Sans CJK KR" font-size="14.00" fill="#46566e">yes</text>
</g>
<!-- End -->
<g id="node19" class="node">
<title>End</title>
<ellipse fill="#ffffff" stroke="#182033" stroke-width="1.4" cx="533.25" cy="-23.8" rx="19.8" ry="19.8"/>
<ellipse fill="none" stroke="#182033" stroke-width="1.4" cx="533.25" cy="-23.8" rx="23.8" ry="23.8"/>
</g>
<!-- Fail&#45;&gt;End -->
<g id="edge4" class="edge">
<title>Fail&#45;&gt;End</title>
<path fill="none" stroke="#59687e" stroke-width="1.3" d="M240.25,-280.16C240.25,-212.44 240.25,-24 240.25,-24 240.25,-24 498.8,-24 498.8,-24"/>
<polygon fill="#59687e" stroke="#59687e" stroke-width="1.3" points="498.8,-26.8 506.8,-24 498.8,-21.2 498.8,-26.8"/>
</g>
<!-- Reserve -->
<g id="node6" class="node">
<title>Reserve</title>
<path fill="#fff7e6" stroke="#e0ad4e" stroke-width="1.4" d="M801.47,-1168C801.47,-1168 579.02,-1168 579.02,-1168 573.02,-1168 567.02,-1162 567.02,-1156 567.02,-1156 567.02,-1133.44 567.02,-1133.44 567.02,-1127.44 573.02,-1121.44 579.02,-1121.44 579.02,-1121.44 801.47,-1121.44 801.47,-1121.44 807.47,-1121.44 813.47,-1127.44 813.47,-1133.44 813.47,-1133.44 813.47,-1156 813.47,-1156 813.47,-1162 807.47,-1168 801.47,-1168"/>
<text xml:space="preserve" text-anchor="middle" x="690.25" y="-1148.92" font-family="Noto Sans CJK KR" font-size="14.00" fill="#182033">Reserve logically</text>
<text xml:space="preserve" text-anchor="middle" x="690.25" y="-1132.12" font-family="Noto Sans CJK KR" font-size="14.00" fill="#182033">include cost in internal SkillReleasePlan</text>
</g>
<!-- PayTiming&#45;&gt;Reserve -->
<g id="edge6" class="edge">
<title>PayTiming&#45;&gt;Reserve</title>
<path fill="none" stroke="#59687e" stroke-width="1.3" d="M584.91,-1258.64C584.91,-1258.64 584.91,-1178.49 584.91,-1178.49"/>
<polygon fill="#59687e" stroke="#59687e" stroke-width="1.3" points="587.71,-1178.49 584.91,-1170.49 582.11,-1178.49 587.71,-1178.49"/>
<text xml:space="preserve" text-anchor="middle" x="622.67" y="-1196.2" font-family="Noto Sans CJK KR" font-size="14.00" fill="#46566e">release</text>
</g>
<!-- Prepay -->
<g id="node7" class="node">
<title>Prepay</title>
<path fill="#fff7e6" stroke="#e0ad4e" stroke-width="1.4" d="M518.58,-1168C518.58,-1168 317.91,-1168 317.91,-1168 311.91,-1168 305.91,-1162 305.91,-1156 305.91,-1156 305.91,-1133.44 305.91,-1133.44 305.91,-1127.44 311.91,-1121.44 317.91,-1121.44 317.91,-1121.44 518.58,-1121.44 518.58,-1121.44 524.58,-1121.44 530.58,-1127.44 530.58,-1133.44 530.58,-1133.44 530.58,-1156 530.58,-1156 530.58,-1162 524.58,-1168 518.58,-1168"/>
<text xml:space="preserve" text-anchor="middle" x="418.25" y="-1148.92" font-family="Noto Sans CJK KR" font-size="14.00" fill="#182033">Optional prepay policy</text>
<text xml:space="preserve" text-anchor="middle" x="418.25" y="-1132.12" font-family="Noto Sans CJK KR" font-size="14.00" fill="#182033">separate RuntimeCommitter commit</text>
</g>
<!-- PayTiming&#45;&gt;Prepay -->
<g id="edge7" class="edge">
<title>PayTiming&#45;&gt;Prepay</title>
<path fill="none" stroke="#59687e" stroke-width="1.3" d="M418.25,-1238.14C418.25,-1238.14 418.25,-1178.27 418.25,-1178.27"/>
<polygon fill="#59687e" stroke="#59687e" stroke-width="1.3" points="421.05,-1178.27 418.25,-1170.27 415.45,-1178.27 421.05,-1178.27"/>
<text xml:space="preserve" text-anchor="middle" x="447.29" y="-1196.2" font-family="Noto Sans CJK KR" font-size="14.00" fill="#46566e">prepay</text>
</g>
<!-- Windup -->
<g id="node8" class="node">
<title>Windup</title>
<path fill="#e9fbff" stroke="#54b7cf" stroke-width="1.4" d="M778.28,-1072.44C778.28,-1072.44 540.21,-1072.44 540.21,-1072.44 534.21,-1072.44 528.21,-1066.44 528.21,-1060.44 528.21,-1060.44 528.21,-1037.88 528.21,-1037.88 528.21,-1031.88 534.21,-1025.88 540.21,-1025.88 540.21,-1025.88 778.28,-1025.88 778.28,-1025.88 784.28,-1025.88 790.28,-1031.88 790.28,-1037.88 790.28,-1037.88 790.28,-1060.44 790.28,-1060.44 790.28,-1066.44 784.28,-1072.44 778.28,-1072.44"/>
<text xml:space="preserve" text-anchor="middle" x="659.25" y="-1053.36" font-family="Noto Sans CJK KR" font-size="14.00" fill="#182033">&lt;&lt;internal project model&gt;&gt; SkillExecution</text>
<text xml:space="preserve" text-anchor="middle" x="659.25" y="-1036.56" font-family="Noto Sans CJK KR" font-size="14.00" fill="#182033">windup / cast</text>
</g>
<!-- Reserve&#45;&gt;Windup -->
<g id="edge8" class="edge">
<title>Reserve&#45;&gt;Windup</title>
<path fill="none" stroke="#59687e" stroke-width="1.3" d="M678.65,-1121.1C678.65,-1121.1 678.65,-1082.81 678.65,-1082.81"/>
<polygon fill="#59687e" stroke="#59687e" stroke-width="1.3" points="681.45,-1082.81 678.65,-1074.81 675.85,-1082.81 681.45,-1082.81"/>
</g>
<!-- Prepay&#45;&gt;Windup -->
<g id="edge9" class="edge">
<title>Prepay&#45;&gt;Windup</title>
<path fill="none" stroke="#59687e" stroke-width="1.3" d="M531.2,-1145C541.87,-1145 548.8,-1145 548.8,-1145 548.8,-1145 548.8,-1082.82 548.8,-1082.82"/>
<polygon fill="#59687e" stroke="#59687e" stroke-width="1.3" points="551.6,-1082.82 548.8,-1074.82 546,-1082.82 551.6,-1082.82"/>
</g>
<!-- Interrupt -->
<g id="node9" class="node">
<title>Interrupt</title>
<path fill="#f3eefc" stroke="#ab8fe0" stroke-width="1.4" d="M647.43,-974.8C647.43,-974.8 501.66,-949.2 501.66,-949.2 495.75,-948.16 495.75,-946.08 501.66,-945.04 501.66,-945.04 647.43,-919.44 647.43,-919.44 653.34,-918.4 665.16,-918.4 671.06,-919.44 671.06,-919.44 816.83,-945.04 816.83,-945.04 822.74,-946.08 822.74,-948.16 816.83,-949.2 816.83,-949.2 671.06,-974.8 671.06,-974.8 665.16,-975.84 653.34,-975.84 647.43,-974.8"/>
<text xml:space="preserve" text-anchor="middle" x="659.25" y="-942.92" font-family="Noto Sans CJK KR" font-size="14.00" fill="#182033">interrupted before release?</text>
</g>
<!-- Windup&#45;&gt;Interrupt -->
<g id="edge10" class="edge">
<title>Windup&#45;&gt;Interrupt</title>
<path fill="none" stroke="#59687e" stroke-width="1.3" d="M659.25,-1025.24C659.25,-1025.24 659.25,-987.45 659.25,-987.45"/>
<polygon fill="#59687e" stroke="#59687e" stroke-width="1.3" points="662.05,-987.45 659.25,-979.45 656.45,-987.45 662.05,-987.45"/>
</g>
<!-- Refund -->
<g id="node10" class="node">
<title>Refund</title>
<path fill="#fff0f3" stroke="#e07b91" stroke-width="1.4" d="M813.99,-788.96C813.99,-788.96 614.5,-788.96 614.5,-788.96 608.5,-788.96 602.5,-782.96 602.5,-776.96 602.5,-776.96 602.5,-754.4 602.5,-754.4 602.5,-748.4 608.5,-742.4 614.5,-742.4 614.5,-742.4 813.99,-742.4 813.99,-742.4 819.99,-742.4 825.99,-748.4 825.99,-754.4 825.99,-754.4 825.99,-776.96 825.99,-776.96 825.99,-782.96 819.99,-788.96 813.99,-788.96"/>
<text xml:space="preserve" text-anchor="middle" x="714.25" y="-769.88" font-family="Noto Sans CJK KR" font-size="14.00" fill="#182033">Discard reservation or enqueue</text>
<text xml:space="preserve" text-anchor="middle" x="714.25" y="-753.08" font-family="Noto Sans CJK KR" font-size="14.00" fill="#182033">explicit prepay compensation policy</text>
</g>
<!-- Interrupt&#45;&gt;Refund -->
<g id="edge11" class="edge">
<title>Interrupt&#45;&gt;Refund</title>
<path fill="none" stroke="#59687e" stroke-width="1.3" d="M729.32,-929.06C729.32,-929.06 729.32,-799.62 729.32,-799.62"/>
<polygon fill="#59687e" stroke="#59687e" stroke-width="1.3" points="732.12,-799.62 729.32,-791.62 726.52,-799.62 732.12,-799.62"/>
<text xml:space="preserve" text-anchor="middle" x="720.58" y="-880.76" font-family="Noto Sans CJK KR" font-size="14.00" fill="#46566e">yes</text>
</g>
<!-- Marker -->
<g id="node11" class="node">
<title>Marker</title>
<path fill="#fff7e6" stroke="#e0ad4e" stroke-width="1.4" d="M620.65,-852.56C620.65,-852.56 435.85,-852.56 435.85,-852.56 429.85,-852.56 423.85,-846.56 423.85,-840.56 423.85,-840.56 423.85,-824.96 423.85,-824.96 423.85,-818.96 429.85,-812.96 435.85,-812.96 435.85,-812.96 620.65,-812.96 620.65,-812.96 626.65,-812.96 632.65,-818.96 632.65,-824.96 632.65,-824.96 632.65,-840.56 632.65,-840.56 632.65,-846.56 626.65,-852.56 620.65,-852.56"/>
<text xml:space="preserve" text-anchor="middle" x="528.25" y="-828.56" font-family="Noto Sans CJK KR" font-size="14.00" fill="#182033">Release marker reached</text>
</g>
<!-- Interrupt&#45;&gt;Marker -->
<g id="edge13" class="edge">
<title>Interrupt&#45;&gt;Marker</title>
<path fill="none" stroke="#59687e" stroke-width="1.3" d="M561.24,-934C561.24,-934 561.24,-862.99 561.24,-862.99"/>
<polygon fill="#59687e" stroke="#59687e" stroke-width="1.3" points="564.04,-862.99 561.24,-854.99 558.44,-862.99 564.04,-862.99"/>
<text xml:space="preserve" text-anchor="middle" x="577.25" y="-880.76" font-family="Noto Sans CJK KR" font-size="14.00" fill="#46566e">no</text>
</g>
<!-- Refund&#45;&gt;End -->
<g id="edge12" class="edge">
<title>Refund&#45;&gt;End</title>
<path fill="none" stroke="#59687e" stroke-width="1.3" d="M743.33,-741.84C743.33,-614.89 743.33,-24 743.33,-24 743.33,-24 567.31,-24 567.31,-24"/>
<polygon fill="#59687e" stroke="#59687e" stroke-width="1.3" points="567.31,-21.2 559.31,-24 567.31,-26.8 567.31,-21.2"/>
</g>
<!-- Context -->
<g id="node12" class="node">
<title>Context</title>
<path fill="#eefbf6" stroke="#61b99a" stroke-width="1.4" d="M616.99,-718.4C616.99,-718.4 413.5,-718.4 413.5,-718.4 407.5,-718.4 401.5,-712.4 401.5,-706.4 401.5,-706.4 401.5,-690.8 401.5,-690.8 401.5,-684.8 407.5,-678.8 413.5,-678.8 413.5,-678.8 616.99,-678.8 616.99,-678.8 622.99,-678.8 628.99,-684.8 628.99,-690.8 628.99,-690.8 628.99,-706.4 628.99,-706.4 628.99,-712.4 622.99,-718.4 616.99,-718.4"/>
<text xml:space="preserve" text-anchor="middle" x="515.25" y="-694.4" font-family="Noto Sans CJK KR" font-size="14.00" fill="#182033">Public EffectBundle + EffectContext</text>
</g>
<!-- Marker&#45;&gt;Context -->
<g id="edge14" class="edge">
<title>Marker&#45;&gt;Context</title>
<path fill="none" stroke="#59687e" stroke-width="1.3" d="M513.17,-812.38C513.17,-812.38 513.17,-728.7 513.17,-728.7"/>
<polygon fill="#59687e" stroke="#59687e" stroke-width="1.3" points="515.97,-728.7 513.17,-720.7 510.37,-728.7 515.97,-728.7"/>
</g>
<!-- Prepare -->
<g id="node13" class="node">
<title>Prepare</title>
<path fill="#eaf0ff" stroke="#8292f7" stroke-width="1.4" d="M648.66,-629.8C648.66,-629.8 367.83,-629.8 367.83,-629.8 361.83,-629.8 355.83,-623.8 355.83,-617.8 355.83,-617.8 355.83,-595.24 355.83,-595.24 355.83,-589.24 361.83,-583.24 367.83,-583.24 367.83,-583.24 648.66,-583.24 648.66,-583.24 654.66,-583.24 660.66,-589.24 660.66,-595.24 660.66,-595.24 660.66,-617.8 660.66,-617.8 660.66,-623.8 654.66,-629.8 648.66,-629.8"/>
<text xml:space="preserve" text-anchor="middle" x="508.25" y="-610.72" font-family="Noto Sans CJK KR" font-size="14.00" fill="#182033">Internal coordinator: SkillReleasePlan</text>
<text xml:space="preserve" text-anchor="middle" x="508.25" y="-593.92" font-family="Noto Sans CJK KR" font-size="14.00" fill="#182033">+ public IEffectPlanner.Prepare: EffectBundlePlan</text>
</g>
<!-- Context&#45;&gt;Prepare -->
<g id="edge15" class="edge">
<title>Context&#45;&gt;Prepare</title>
<path fill="none" stroke="#59687e" stroke-width="1.3" d="M515.25,-678.16C515.25,-678.16 515.25,-640.45 515.25,-640.45"/>
<polygon fill="#59687e" stroke="#59687e" stroke-width="1.3" points="518.05,-640.45 515.25,-632.45 512.45,-640.45 518.05,-640.45"/>
</g>
<!-- Combine -->
<g id="node14" class="node">
<title>Combine</title>
<path fill="#fff7e6" stroke="#e0ad4e" stroke-width="1.4" d="M600.65,-534.24C600.65,-534.24 415.85,-534.24 415.85,-534.24 409.85,-534.24 403.85,-528.24 403.85,-522.24 403.85,-522.24 403.85,-499.68 403.85,-499.68 403.85,-493.68 409.85,-487.68 415.85,-487.68 415.85,-487.68 600.65,-487.68 600.65,-487.68 606.65,-487.68 612.65,-493.68 612.65,-499.68 612.65,-499.68 612.65,-522.24 612.65,-522.24 612.65,-528.24 606.65,-534.24 600.65,-534.24"/>
<text xml:space="preserve" text-anchor="middle" x="508.25" y="-515.16" font-family="Noto Sans CJK KR" font-size="14.00" fill="#182033">Compose one CommitPlan</text>
<text xml:space="preserve" text-anchor="middle" x="508.25" y="-498.36" font-family="Noto Sans CJK KR" font-size="14.00" fill="#182033">mutations + planned outbox</text>
</g>
<!-- Prepare&#45;&gt;Combine -->
<g id="edge16" class="edge">
<title>Prepare&#45;&gt;Combine</title>
<path fill="none" stroke="#59687e" stroke-width="1.3" d="M508.25,-582.9C508.25,-582.9 508.25,-544.61 508.25,-544.61"/>
<polygon fill="#59687e" stroke="#59687e" stroke-width="1.3" points="511.05,-544.61 508.25,-536.61 505.45,-544.61 511.05,-544.61"/>
</g>
<!-- Commit -->
<g id="node15" class="node">
<title>Commit</title>
<path fill="#eefbf6" stroke="#61b99a" stroke-width="1.4" d="M600.65,-438.68C600.65,-438.68 415.85,-438.68 415.85,-438.68 409.85,-438.68 403.85,-432.68 403.85,-426.68 403.85,-426.68 403.85,-404.12 403.85,-404.12 403.85,-398.12 409.85,-392.12 415.85,-392.12 415.85,-392.12 600.65,-392.12 600.65,-392.12 606.65,-392.12 612.65,-398.12 612.65,-404.12 612.65,-404.12 612.65,-426.68 612.65,-426.68 612.65,-432.68 606.65,-438.68 600.65,-438.68"/>
<text xml:space="preserve" text-anchor="middle" x="508.25" y="-419.6" font-family="Noto Sans CJK KR" font-size="14.00" fill="#182033">RuntimeCommitter</text>
<text xml:space="preserve" text-anchor="middle" x="508.25" y="-402.8" font-family="Noto Sans CJK KR" font-size="14.00" fill="#182033">state + outbox atomic</text>
</g>
<!-- Combine&#45;&gt;Commit -->
<g id="edge17" class="edge">
<title>Combine&#45;&gt;Commit</title>
<path fill="none" stroke="#59687e" stroke-width="1.3" d="M508.25,-487.34C508.25,-487.34 508.25,-449.05 508.25,-449.05"/>
<polygon fill="#59687e" stroke="#59687e" stroke-width="1.3" points="511.05,-449.05 508.25,-441.05 505.45,-449.05 511.05,-449.05"/>
</g>
<!-- Commit&#45;&gt;Fail -->
<g id="edge18" class="edge">
<title>Commit&#45;&gt;Fail</title>
<path fill="none" stroke="#59687e" stroke-width="1.3" d="M414.07,-391.5C414.07,-358.77 414.07,-304 414.07,-304 414.07,-304 396.5,-304 396.5,-304"/>
<polygon fill="#59687e" stroke="#59687e" stroke-width="1.3" points="396.5,-301.2 388.5,-304 396.5,-306.8 396.5,-301.2"/>
<text xml:space="preserve" text-anchor="middle" x="390.25" y="-355.52" font-family="Noto Sans CJK KR" font-size="14.00" fill="#46566e">version / invariant fail</text>
</g>
<!-- Committed -->
<g id="node16" class="node">
<title>Committed</title>
<path fill="#e9fbff" stroke="#54b7cf" stroke-width="1.4" d="M642.87,-327.32C642.87,-327.32 433.62,-327.32 433.62,-327.32 427.62,-327.32 421.62,-321.32 421.62,-315.32 421.62,-315.32 421.62,-292.76 421.62,-292.76 421.62,-286.76 427.62,-280.76 433.62,-280.76 433.62,-280.76 642.87,-280.76 642.87,-280.76 648.87,-280.76 654.87,-286.76 654.87,-292.76 654.87,-292.76 654.87,-315.32 654.87,-315.32 654.87,-321.32 648.87,-327.32 642.87,-327.32"/>
<text xml:space="preserve" text-anchor="middle" x="538.25" y="-308.24" font-family="Noto Sans CJK KR" font-size="14.00" fill="#182033">Committed facts</text>
<text xml:space="preserve" text-anchor="middle" x="538.25" y="-291.44" font-family="Noto Sans CJK KR" font-size="14.00" fill="#182033">SkillCommitted · DamageCommitted</text>
</g>
<!-- Commit&#45;&gt;Committed -->
<g id="edge19" class="edge">
<title>Commit&#45;&gt;Committed</title>
<path fill="none" stroke="#59687e" stroke-width="1.3" d="M517.13,-391.51C517.13,-391.51 517.13,-337.86 517.13,-337.86"/>
<polygon fill="#59687e" stroke="#59687e" stroke-width="1.3" points="519.93,-337.86 517.13,-329.86 514.33,-337.86 519.93,-337.86"/>
<text xml:space="preserve" text-anchor="middle" x="542.24" y="-355.52" font-family="Noto Sans CJK KR" font-size="14.00" fill="#46566e">success</text>
</g>
<!-- Reaction -->
<g id="node17" class="node">
<title>Reaction</title>
<path fill="#f3eefc" stroke="#ab8fe0" stroke-width="1.4" d="M647.96,-231.76C647.96,-231.76 418.53,-231.76 418.53,-231.76 412.53,-231.76 406.53,-225.76 406.53,-219.76 406.53,-219.76 406.53,-197.2 406.53,-197.2 406.53,-191.2 412.53,-185.2 418.53,-185.2 418.53,-185.2 647.96,-185.2 647.96,-185.2 653.96,-185.2 659.96,-191.2 659.96,-197.2 659.96,-197.2 659.96,-219.76 659.96,-219.76 659.96,-225.76 653.96,-231.76 647.96,-231.76"/>
<text xml:space="preserve" text-anchor="middle" x="533.25" y="-212.68" font-family="Noto Sans CJK KR" font-size="14.00" fill="#182033">ReactionQueue</text>
<text xml:space="preserve" text-anchor="middle" x="533.25" y="-195.88" font-family="Noto Sans CJK KR" font-size="14.00" fill="#182033">Burn and other state&#45;changing commands</text>
</g>
<!-- Committed&#45;&gt;Reaction -->
<g id="edge20" class="edge">
<title>Committed&#45;&gt;Reaction</title>
<path fill="none" stroke="#59687e" stroke-width="1.3" d="M538.25,-280.42C538.25,-280.42 538.25,-242.13 538.25,-242.13"/>
<polygon fill="#59687e" stroke="#59687e" stroke-width="1.3" points="541.05,-242.13 538.25,-234.13 535.45,-242.13 541.05,-242.13"/>
</g>
<!-- Recovery -->
<g id="node18" class="node">
<title>Recovery</title>
<path fill="#e9fbff" stroke="#54b7cf" stroke-width="1.4" d="M625.65,-136.2C625.65,-136.2 440.85,-136.2 440.85,-136.2 434.85,-136.2 428.85,-130.2 428.85,-124.2 428.85,-124.2 428.85,-108.6 428.85,-108.6 428.85,-102.6 434.85,-96.6 440.85,-96.6 440.85,-96.6 625.65,-96.6 625.65,-96.6 631.65,-96.6 637.65,-102.6 637.65,-108.6 637.65,-108.6 637.65,-124.2 637.65,-124.2 637.65,-130.2 631.65,-136.2 625.65,-136.2"/>
<text xml:space="preserve" text-anchor="middle" x="533.25" y="-112.2" font-family="Noto Sans CJK KR" font-size="14.00" fill="#182033">Recovery / visual follow&#45;through</text>
</g>
<!-- Reaction&#45;&gt;Recovery -->
<g id="edge21" class="edge">
<title>Reaction&#45;&gt;Recovery</title>
<path fill="none" stroke="#59687e" stroke-width="1.3" d="M533.25,-184.77C533.25,-184.77 533.25,-146.57 533.25,-146.57"/>
<polygon fill="#59687e" stroke="#59687e" stroke-width="1.3" points="536.05,-146.57 533.25,-138.57 530.45,-146.57 536.05,-146.57"/>
</g>
<!-- Recovery&#45;&gt;End -->
<g id="edge22" class="edge">
<title>Recovery&#45;&gt;End</title>
<path fill="none" stroke="#59687e" stroke-width="1.3" d="M533.25,-96.31C533.25,-96.31 533.25,-58.1 533.25,-58.1"/>
<polygon fill="#59687e" stroke="#59687e" stroke-width="1.3" points="536.05,-58.1 533.25,-50.1 530.45,-58.1 536.05,-58.1"/>
</g>
</g>
</svg>
