<?xml version="1.0" encoding="UTF-8" standalone="no"?>
<!DOCTYPE svg PUBLIC "-//W3C//DTD SVG 1.1//EN"
 "http://www.w3.org/Graphics/SVG/1.1/DTD/svg11.dtd">
<!-- Generated by graphviz version 15.1.0 (20260618.0150)
 -->
<!-- Title: G Pages: 1 -->
<svg width="1472pt" height="2503pt"
 viewBox="12.00 12.00 1460.00 2491.00" xmlns="http://www.w3.org/2000/svg" xmlns:xlink="http://www.w3.org/1999/xlink">
<g id="graph0" class="graph" transform="scale(1.33333 1.33333) rotate(0) translate(26.64 1850.25)">
<title>G</title>
<polygon fill="#ffffff" stroke="none" points="-18,18 -18,-1841.61 1068.66,-1841.61 1068.66,18 -18,18"/>
<!-- Start -->
<g id="node1" class="node">
<title>Start</title>
<ellipse fill="#182033" stroke="#182033" stroke-width="1.4" cx="356.7" cy="-1803.81" rx="19.8" ry="19.8"/>
</g>
<!-- Request -->
<g id="node2" class="node">
<title>Request</title>
<path fill="#eaf0ff" stroke="#8292f7" stroke-width="1.4" d="M456.03,-1731.01C456.03,-1731.01 257.38,-1731.01 257.38,-1731.01 251.38,-1731.01 245.38,-1725.01 245.38,-1719.01 245.38,-1719.01 245.38,-1703.41 245.38,-1703.41 245.38,-1697.41 251.38,-1691.41 257.38,-1691.41 257.38,-1691.41 456.03,-1691.41 456.03,-1691.41 462.03,-1691.41 468.03,-1697.41 468.03,-1703.41 468.03,-1703.41 468.03,-1719.01 468.03,-1719.01 468.03,-1725.01 462.03,-1731.01 456.03,-1731.01"/>
<text xml:space="preserve" text-anchor="middle" x="356.7" y="-1706.54" font-family="Noto Sans KR" font-size="14.00" fill="#182033">&lt;&lt;public contract&gt;&gt; SkillRequest</text>
</g>
<!-- Start&#45;&gt;Request -->
<g id="edge5" class="edge">
<title>Start&#45;&gt;Request</title>
<path fill="none" stroke="#59687e" stroke-width="1.3" d="M356.7,-1783.6C356.7,-1771.31 356.7,-1755.13 356.7,-1741.29"/>
<polygon fill="#59687e" stroke="#59687e" stroke-width="1.3" points="359.51,-1741.68 356.71,-1733.68 353.91,-1741.68 359.51,-1741.68"/>
</g>
<!-- Validate -->
<g id="node3" class="node">
<title>Validate</title>
<path fill="#f3eefc" stroke="#ab8fe0" stroke-width="1.4" d="M344.87,-1636.41C344.87,-1636.41 88.13,-1592.95 88.13,-1592.95 82.21,-1591.95 82.21,-1589.95 88.13,-1588.95 88.13,-1588.95 344.87,-1545.49 344.87,-1545.49 350.79,-1544.49 362.62,-1544.49 368.54,-1545.49 368.54,-1545.49 625.28,-1588.95 625.28,-1588.95 631.2,-1589.95 631.2,-1591.95 625.28,-1592.95 625.28,-1592.95 368.54,-1636.41 368.54,-1636.41 362.62,-1637.41 350.79,-1637.41 344.87,-1636.41"/>
<text xml:space="preserve" text-anchor="middle" x="356.7" y="-1594.9" font-family="Noto Sans KR" font-size="14.00" fill="#182033">&lt;&lt;public&gt;&gt; ISkillRequestValidator.Validate</text>
<text xml:space="preserve" text-anchor="middle" x="356.7" y="-1577.65" font-family="Noto Sans KR" font-size="14.00" fill="#182033">SkillDecision.CanExecute?</text>
</g>
<!-- Request&#45;&gt;Validate -->
<g id="edge6" class="edge">
<title>Request&#45;&gt;Validate</title>
<path fill="none" stroke="#59687e" stroke-width="1.3" d="M356.7,-1690.95C356.7,-1679.4 356.7,-1664.07 356.7,-1648.92"/>
<polygon fill="#59687e" stroke="#59687e" stroke-width="1.3" points="359.51,-1649 356.71,-1641 353.91,-1649 359.51,-1649"/>
</g>
<!-- ValidationFail -->
<g id="node4" class="node">
<title>ValidationFail</title>
<path fill="#fff0f3" stroke="#e07b91" stroke-width="1.4" d="M295.41,-1467.76C295.41,-1467.76 12,-1467.76 12,-1467.76 6,-1467.76 0,-1461.76 0,-1455.76 0,-1455.76 0,-1432.3 0,-1432.3 0,-1426.3 6,-1420.3 12,-1420.3 12,-1420.3 295.41,-1420.3 295.41,-1420.3 301.41,-1420.3 307.41,-1426.3 307.41,-1432.3 307.41,-1432.3 307.41,-1455.76 307.41,-1455.76 307.41,-1461.76 301.41,-1467.76 295.41,-1467.76"/>
<text xml:space="preserve" text-anchor="middle" x="153.7" y="-1447.98" font-family="Noto Sans KR" font-size="14.00" fill="#182033">&lt;&lt;public contract&gt;&gt; SkillResult(FailureReason)</text>
<text xml:space="preserve" text-anchor="middle" x="153.7" y="-1430.73" font-family="Noto Sans KR" font-size="14.00" fill="#182033">validation rejected · no mutation / event</text>
</g>
<!-- Validate&#45;&gt;ValidationFail -->
<g id="edge7" class="edge">
<title>Validate&#45;&gt;ValidationFail</title>
<path fill="none" stroke="#c35f76" stroke-width="1.3" d="M303.37,-1551.87C269.29,-1527.55 225.79,-1496.49 194.48,-1474.14"/>
<polygon fill="#c35f76" stroke="#c35f76" stroke-width="1.3" points="196.13,-1471.88 187.99,-1469.51 192.88,-1476.43 196.13,-1471.88"/>
<text xml:space="preserve" text-anchor="middle" x="295.33" y="-1504.19" font-family="Noto Sans KR" font-size="14.00" fill="#9d4358">no · rejected</text>
</g>
<!-- PayTiming -->
<g id="node5" class="node">
<title>PayTiming</title>
<path fill="#fff7e6" stroke="#e0ad4e" stroke-width="1.4" d="M548.92,-1471.99C548.92,-1471.99 414.33,-1446.28 414.33,-1446.28 408.44,-1445.16 408.44,-1442.9 414.33,-1441.78 414.33,-1441.78 548.92,-1416.07 548.92,-1416.07 554.81,-1414.95 566.6,-1414.95 572.49,-1416.07 572.49,-1416.07 707.08,-1441.78 707.08,-1441.78 712.97,-1442.9 712.97,-1445.16 707.08,-1446.28 707.08,-1446.28 572.49,-1471.99 572.49,-1471.99 566.6,-1473.11 554.81,-1473.11 548.92,-1471.99"/>
<text xml:space="preserve" text-anchor="middle" x="560.7" y="-1439.36" font-family="Noto Sans KR" font-size="14.00" fill="#182033">CostPolicy.PayTiming?</text>
</g>
<!-- Validate&#45;&gt;PayTiming -->
<g id="edge9" class="edge">
<title>Validate&#45;&gt;PayTiming</title>
<path fill="none" stroke="#4f8b74" stroke-width="1.3" d="M410.3,-1551.87C444.44,-1527.62 487.99,-1496.69 519.43,-1474.35"/>
<polygon fill="#4f8b74" stroke="#4f8b74" stroke-width="1.3" points="521.05,-1476.63 525.95,-1469.72 517.81,-1472.07 521.05,-1476.63"/>
<text xml:space="preserve" text-anchor="middle" x="528.35" y="-1504.19" font-family="Noto Sans KR" font-size="14.00" fill="#3f735f">yes · accepted</text>
</g>
<!-- ValidationFail&#45;&gt;PayTiming -->
<!-- FailureEnd -->
<g id="node21" class="node">
<title>FailureEnd</title>
<ellipse fill="#fff0f3" stroke="#e07b91" stroke-width="1.4" cx="306.7" cy="-23.8" rx="19.8" ry="19.8"/>
<ellipse fill="none" stroke="#e07b91" stroke-width="1.4" cx="306.7" cy="-23.8" rx="23.8" ry="23.8"/>
</g>
<!-- ValidationFail&#45;&gt;FailureEnd -->
<g id="edge8" class="edge">
<title>ValidationFail&#45;&gt;FailureEnd</title>
<path fill="none" stroke="#59687e" stroke-width="1.3" d="M153.7,-1419.66C153.7,-1384.45 153.7,-1321.84 153.7,-1321.84 153.7,-1321.84 153.7,-1321.84 153.7,-119.4 153.7,-119.4 233.74,-69.91 278.04,-42.52"/>
<polygon fill="#59687e" stroke="#59687e" stroke-width="1.3" points="279.38,-44.99 284.71,-38.4 276.44,-40.22 279.38,-44.99"/>
<text xml:space="preserve" text-anchor="middle" x="194.2" y="-734.16" font-family="Noto Sans KR" font-size="14.00" fill="#46566e">public failure</text>
</g>
<!-- Reserve -->
<g id="node6" class="node">
<title>Reserve</title>
<path fill="#fff7e6" stroke="#e0ad4e" stroke-width="1.4" d="M535.78,-1344.57C535.78,-1344.57 293.62,-1344.57 293.62,-1344.57 287.62,-1344.57 281.62,-1338.57 281.62,-1332.57 281.62,-1332.57 281.62,-1309.11 281.62,-1309.11 281.62,-1303.11 287.62,-1297.11 293.62,-1297.11 293.62,-1297.11 535.78,-1297.11 535.78,-1297.11 541.78,-1297.11 547.78,-1303.11 547.78,-1309.11 547.78,-1309.11 547.78,-1332.57 547.78,-1332.57 547.78,-1338.57 541.78,-1344.57 535.78,-1344.57"/>
<text xml:space="preserve" text-anchor="middle" x="414.7" y="-1324.79" font-family="Noto Sans KR" font-size="14.00" fill="#182033">Reserve logically</text>
<text xml:space="preserve" text-anchor="middle" x="414.7" y="-1307.54" font-family="Noto Sans KR" font-size="14.00" fill="#182033">include cost in internal SkillReleasePlan</text>
</g>
<!-- PayTiming&#45;&gt;Reserve -->
<g id="edge10" class="edge">
<title>PayTiming&#45;&gt;Reserve</title>
<path fill="none" stroke="#59687e" stroke-width="1.3" d="M515.09,-1422C481.25,-1406.4 440.95,-1387.82 440.95,-1387.82 440.95,-1387.82 434.19,-1370.82 427.53,-1354.08"/>
<polygon fill="#59687e" stroke="#59687e" stroke-width="1.3" points="430.17,-1353.14 424.61,-1346.74 424.97,-1355.21 430.17,-1353.14"/>
<text xml:space="preserve" text-anchor="middle" x="492.33" y="-1374.52" font-family="Noto Sans KR" font-size="14.00" fill="#46566e">release · reserve</text>
</g>
<!-- Prepay -->
<g id="node7" class="node">
<title>Prepay</title>
<path fill="#fff7e6" stroke="#e0ad4e" stroke-width="1.4" d="M880.16,-1344.57C880.16,-1344.57 655.25,-1344.57 655.25,-1344.57 649.25,-1344.57 643.25,-1338.57 643.25,-1332.57 643.25,-1332.57 643.25,-1309.11 643.25,-1309.11 643.25,-1303.11 649.25,-1297.11 655.25,-1297.11 655.25,-1297.11 880.16,-1297.11 880.16,-1297.11 886.16,-1297.11 892.16,-1303.11 892.16,-1309.11 892.16,-1309.11 892.16,-1332.57 892.16,-1332.57 892.16,-1338.57 886.16,-1344.57 880.16,-1344.57"/>
<text xml:space="preserve" text-anchor="middle" x="767.7" y="-1324.79" font-family="Noto Sans KR" font-size="14.00" fill="#182033">Optional prepay policy</text>
<text xml:space="preserve" text-anchor="middle" x="767.7" y="-1307.54" font-family="Noto Sans KR" font-size="14.00" fill="#182033">separate RuntimeCommitter commit</text>
</g>
<!-- PayTiming&#45;&gt;Prepay -->
<g id="edge11" class="edge">
<title>PayTiming&#45;&gt;Prepay</title>
<path fill="none" stroke="#59687e" stroke-width="1.3" d="M599.15,-1420.52C633.03,-1400.68 682.55,-1371.69 719.16,-1350.26"/>
<polygon fill="#59687e" stroke="#59687e" stroke-width="1.3" points="720.51,-1352.72 726,-1346.26 717.68,-1347.88 720.51,-1352.72"/>
<text xml:space="preserve" text-anchor="middle" x="750.25" y="-1374.52" font-family="Noto Sans KR" font-size="14.00" fill="#46566e">prepay · commit now</text>
</g>
<!-- Reserve&#45;&gt;Prepay -->
<!-- Windup -->
<g id="node8" class="node">
<title>Windup</title>
<path fill="#e9fbff" stroke="#54b7cf" stroke-width="1.4" d="M660.78,-1244.11C660.78,-1244.11 406.62,-1244.11 406.62,-1244.11 400.62,-1244.11 394.62,-1238.11 394.62,-1232.11 394.62,-1232.11 394.62,-1208.65 394.62,-1208.65 394.62,-1202.65 400.62,-1196.65 406.62,-1196.65 406.62,-1196.65 660.78,-1196.65 660.78,-1196.65 666.78,-1196.65 672.78,-1202.65 672.78,-1208.65 672.78,-1208.65 672.78,-1232.11 672.78,-1232.11 672.78,-1238.11 666.78,-1244.11 660.78,-1244.11"/>
<text xml:space="preserve" text-anchor="middle" x="533.7" y="-1224.33" font-family="Noto Sans KR" font-size="14.00" fill="#182033">&lt;&lt;internal project model&gt;&gt; SkillExecution</text>
<text xml:space="preserve" text-anchor="middle" x="533.7" y="-1207.08" font-family="Noto Sans KR" font-size="14.00" fill="#182033">windup / cast</text>
</g>
<!-- Reserve&#45;&gt;Windup -->
<g id="edge12" class="edge">
<title>Reserve&#45;&gt;Windup</title>
<path fill="none" stroke="#59687e" stroke-width="1.3" d="M442.91,-1296.51C459.5,-1282.77 480.65,-1265.28 498.35,-1250.63"/>
<polygon fill="#59687e" stroke="#59687e" stroke-width="1.3" points="499.81,-1253.06 504.19,-1245.8 496.24,-1248.74 499.81,-1253.06"/>
</g>
<!-- Prepay&#45;&gt;Windup -->
<g id="edge13" class="edge">
<title>Prepay&#45;&gt;Windup</title>
<path fill="none" stroke="#59687e" stroke-width="1.3" d="M712.25,-1296.51C677.99,-1282.09 633.88,-1263.53 598.08,-1248.47"/>
<polygon fill="#59687e" stroke="#59687e" stroke-width="1.3" points="599.44,-1246 590.98,-1245.48 597.27,-1251.16 599.44,-1246"/>
</g>
<!-- Interrupt -->
<g id="node9" class="node">
<title>Interrupt</title>
<path fill="#f3eefc" stroke="#ab8fe0" stroke-width="1.4" d="M521.86,-1141.73C521.86,-1141.73 359.64,-1115.36 359.64,-1115.36 353.72,-1114.4 353.72,-1112.48 359.64,-1111.52 359.64,-1111.52 521.86,-1085.15 521.86,-1085.15 527.78,-1084.19 539.63,-1084.19 545.55,-1085.15 545.55,-1085.15 707.77,-1111.52 707.77,-1111.52 713.69,-1112.48 713.69,-1114.4 707.77,-1115.36 707.77,-1115.36 545.55,-1141.73 545.55,-1141.73 539.63,-1142.69 527.78,-1142.69 521.86,-1141.73"/>
<text xml:space="preserve" text-anchor="middle" x="533.7" y="-1108.77" font-family="Noto Sans KR" font-size="14.00" fill="#182033">interrupted before release?</text>
</g>
<!-- Windup&#45;&gt;Interrupt -->
<g id="edge14" class="edge">
<title>Windup&#45;&gt;Interrupt</title>
<path fill="none" stroke="#59687e" stroke-width="1.3" d="M533.7,-1196.09C533.7,-1183.63 533.7,-1167.95 533.7,-1153.67"/>
<polygon fill="#59687e" stroke="#59687e" stroke-width="1.3" points="536.51,-1154.03 533.71,-1146.03 530.91,-1154.03 536.51,-1154.03"/>
</g>
<!-- Refund -->
<g id="node10" class="node">
<title>Refund</title>
<path fill="#fff0f3" stroke="#e07b91" stroke-width="1.4" d="M458.53,-1013.98C458.53,-1013.98 238.88,-1013.98 238.88,-1013.98 232.88,-1013.98 226.88,-1007.98 226.88,-1001.98 226.88,-1001.98 226.88,-978.52 226.88,-978.52 226.88,-972.52 232.88,-966.52 238.88,-966.52 238.88,-966.52 458.53,-966.52 458.53,-966.52 464.53,-966.52 470.53,-972.52 470.53,-978.52 470.53,-978.52 470.53,-1001.98 470.53,-1001.98 470.53,-1007.98 464.53,-1013.98 458.53,-1013.98"/>
<text xml:space="preserve" text-anchor="middle" x="348.7" y="-994.2" font-family="Noto Sans KR" font-size="14.00" fill="#182033">Discard reservation or enqueue</text>
<text xml:space="preserve" text-anchor="middle" x="348.7" y="-976.95" font-family="Noto Sans KR" font-size="14.00" fill="#182033">explicit prepay compensation policy</text>
</g>
<!-- Interrupt&#45;&gt;Refund -->
<g id="edge15" class="edge">
<title>Interrupt&#45;&gt;Refund</title>
<path fill="none" stroke="#c35f76" stroke-width="1.3" d="M497.15,-1088.5C467.09,-1068.8 424.4,-1040.84 392.51,-1019.95"/>
<polygon fill="#c35f76" stroke="#c35f76" stroke-width="1.3" points="394.11,-1017.65 385.88,-1015.6 391.04,-1022.33 394.11,-1017.65"/>
<text xml:space="preserve" text-anchor="middle" x="498.5" y="-1043.93" font-family="Noto Sans KR" font-size="14.00" fill="#9d4358">yes · interrupted</text>
</g>
<!-- Marker -->
<g id="node11" class="node">
<title>Marker</title>
<path fill="#fff7e6" stroke="#e0ad4e" stroke-width="1.4" d="M763.1,-1010.05C763.1,-1010.05 578.3,-1010.05 578.3,-1010.05 572.3,-1010.05 566.3,-1004.05 566.3,-998.05 566.3,-998.05 566.3,-982.45 566.3,-982.45 566.3,-976.45 572.3,-970.45 578.3,-970.45 578.3,-970.45 763.1,-970.45 763.1,-970.45 769.1,-970.45 775.1,-976.45 775.1,-982.45 775.1,-982.45 775.1,-998.05 775.1,-998.05 775.1,-1004.05 769.1,-1010.05 763.1,-1010.05"/>
<text xml:space="preserve" text-anchor="middle" x="670.7" y="-985.58" font-family="Noto Sans KR" font-size="14.00" fill="#182033">Release marker reached</text>
</g>
<!-- Interrupt&#45;&gt;Marker -->
<g id="edge17" class="edge">
<title>Interrupt&#45;&gt;Marker</title>
<path fill="none" stroke="#4f8b74" stroke-width="1.3" d="M562.09,-1087.33C585.29,-1066.81 617.96,-1037.91 641.4,-1017.17"/>
<polygon fill="#4f8b74" stroke="#4f8b74" stroke-width="1.3" points="643.05,-1019.45 647.19,-1012.05 639.34,-1015.25 643.05,-1019.45"/>
<text xml:space="preserve" text-anchor="middle" x="688.73" y="-1043.93" font-family="Noto Sans KR" font-size="14.00" fill="#3f735f">no · continue to release</text>
</g>
<!-- Refund&#45;&gt;Marker -->
<!-- Refund&#45;&gt;FailureEnd -->
<g id="edge16" class="edge">
<title>Refund&#45;&gt;FailureEnd</title>
<path fill="none" stroke="#59687e" stroke-width="1.3" d="M338.32,-965.88C325.89,-937.89 306.7,-894.72 306.7,-894.72 306.7,-894.72 306.7,-894.72 306.7,-119.4 306.7,-119.4 306.7,-85.13 306.7,-57.84"/>
<polygon fill="#59687e" stroke="#59687e" stroke-width="1.3" points="309.51,-58.15 306.71,-50.15 303.91,-58.15 309.51,-58.15"/>
<text xml:space="preserve" text-anchor="middle" x="377.58" y="-516.99" font-family="Noto Sans KR" font-size="14.00" fill="#46566e">refund / compensation</text>
</g>
<!-- Context -->
<g id="node12" class="node">
<title>Context</title>
<path fill="#eefbf6" stroke="#61b99a" stroke-width="1.4" d="M776.78,-913.52C776.78,-913.52 564.62,-913.52 564.62,-913.52 558.62,-913.52 552.62,-907.52 552.62,-901.52 552.62,-901.52 552.62,-885.92 552.62,-885.92 552.62,-879.92 558.62,-873.92 564.62,-873.92 564.62,-873.92 776.78,-873.92 776.78,-873.92 782.78,-873.92 788.78,-879.92 788.78,-885.92 788.78,-885.92 788.78,-901.52 788.78,-901.52 788.78,-907.52 782.78,-913.52 776.78,-913.52"/>
<text xml:space="preserve" text-anchor="middle" x="670.7" y="-889.05" font-family="Noto Sans KR" font-size="14.00" fill="#182033">Public EffectBundle + EffectContext</text>
</g>
<!-- Marker&#45;&gt;Context -->
<g id="edge18" class="edge">
<title>Marker&#45;&gt;Context</title>
<path fill="none" stroke="#59687e" stroke-width="1.3" d="M670.7,-970.12C670.7,-956.88 670.7,-939.02 670.7,-924"/>
<polygon fill="#59687e" stroke="#59687e" stroke-width="1.3" points="673.51,-924.11 670.71,-916.11 667.91,-924.11 673.51,-924.11"/>
</g>
<!-- Prepare -->
<g id="node13" class="node">
<title>Prepare</title>
<path fill="#eaf0ff" stroke="#8292f7" stroke-width="1.4" d="M819.53,-820.92C819.53,-820.92 521.87,-820.92 521.87,-820.92 515.87,-820.92 509.87,-814.92 509.87,-808.92 509.87,-808.92 509.87,-785.46 509.87,-785.46 509.87,-779.46 515.87,-773.46 521.87,-773.46 521.87,-773.46 819.53,-773.46 819.53,-773.46 825.53,-773.46 831.53,-779.46 831.53,-785.46 831.53,-785.46 831.53,-808.92 831.53,-808.92 831.53,-814.92 825.53,-820.92 819.53,-820.92"/>
<text xml:space="preserve" text-anchor="middle" x="670.7" y="-801.14" font-family="Noto Sans KR" font-size="14.00" fill="#182033">Internal coordinator: SkillReleasePlan</text>
<text xml:space="preserve" text-anchor="middle" x="670.7" y="-783.89" font-family="Noto Sans KR" font-size="14.00" fill="#182033">+ public IEffectPlanner.Prepare: EffectBundlePlan</text>
</g>
<!-- Context&#45;&gt;Prepare -->
<g id="edge19" class="edge">
<title>Context&#45;&gt;Prepare</title>
<path fill="none" stroke="#59687e" stroke-width="1.3" d="M670.7,-873.59C670.7,-861.44 670.7,-845.38 670.7,-831.2"/>
<polygon fill="#59687e" stroke="#59687e" stroke-width="1.3" points="673.51,-831.27 670.71,-823.27 667.91,-831.27 673.51,-831.27"/>
</g>
<!-- Combine -->
<g id="node14" class="node">
<title>Combine</title>
<path fill="#fff7e6" stroke="#e0ad4e" stroke-width="1.4" d="M763.1,-704.21C763.1,-704.21 578.3,-704.21 578.3,-704.21 572.3,-704.21 566.3,-698.21 566.3,-692.21 566.3,-692.21 566.3,-668.75 566.3,-668.75 566.3,-662.75 572.3,-656.75 578.3,-656.75 578.3,-656.75 763.1,-656.75 763.1,-656.75 769.1,-656.75 775.1,-662.75 775.1,-668.75 775.1,-668.75 775.1,-692.21 775.1,-692.21 775.1,-698.21 769.1,-704.21 763.1,-704.21"/>
<text xml:space="preserve" text-anchor="middle" x="670.7" y="-684.43" font-family="Noto Sans KR" font-size="14.00" fill="#182033">Compose one CommitPlan</text>
<text xml:space="preserve" text-anchor="middle" x="670.7" y="-667.18" font-family="Noto Sans KR" font-size="14.00" fill="#182033">mutations + planned outbox</text>
</g>
<!-- Prepare&#45;&gt;Combine -->
<g id="edge20" class="edge">
<title>Prepare&#45;&gt;Combine</title>
<path fill="none" stroke="#59687e" stroke-width="1.3" d="M670.7,-772.98C670.7,-756.18 670.7,-733.25 670.7,-714.55"/>
<polygon fill="#59687e" stroke="#59687e" stroke-width="1.3" points="673.51,-714.63 670.71,-706.63 667.91,-714.63 673.51,-714.63"/>
</g>
<!-- Commit -->
<g id="node15" class="node">
<title>Commit</title>
<path fill="#eefbf6" stroke="#61b99a" stroke-width="1.4" d="M763.1,-603.75C763.1,-603.75 578.3,-603.75 578.3,-603.75 572.3,-603.75 566.3,-597.75 566.3,-591.75 566.3,-591.75 566.3,-568.29 566.3,-568.29 566.3,-562.29 572.3,-556.29 578.3,-556.29 578.3,-556.29 763.1,-556.29 763.1,-556.29 769.1,-556.29 775.1,-562.29 775.1,-568.29 775.1,-568.29 775.1,-591.75 775.1,-591.75 775.1,-597.75 769.1,-603.75 763.1,-603.75"/>
<text xml:space="preserve" text-anchor="middle" x="670.7" y="-583.97" font-family="Noto Sans KR" font-size="14.00" fill="#182033">RuntimeCommitter</text>
<text xml:space="preserve" text-anchor="middle" x="670.7" y="-566.72" font-family="Noto Sans KR" font-size="14.00" fill="#182033">state + outbox atomic</text>
</g>
<!-- Combine&#45;&gt;Commit -->
<g id="edge21" class="edge">
<title>Combine&#45;&gt;Commit</title>
<path fill="none" stroke="#59687e" stroke-width="1.3" d="M670.7,-656.15C670.7,-643.52 670.7,-627.71 670.7,-613.85"/>
<polygon fill="#59687e" stroke="#59687e" stroke-width="1.3" points="673.51,-614.15 670.71,-606.15 667.91,-614.15 673.51,-614.15"/>
</g>
<!-- CommitOutcome -->
<g id="node16" class="node">
<title>CommitOutcome</title>
<path fill="#f3eefc" stroke="#ab8fe0" stroke-width="1.4" d="M658.99,-484.42C658.99,-484.42 547.51,-459.45 547.51,-459.45 541.65,-458.14 541.65,-455.52 547.51,-454.21 547.51,-454.21 658.99,-429.24 658.99,-429.24 664.85,-427.93 676.56,-427.93 682.42,-429.24 682.42,-429.24 793.9,-454.21 793.9,-454.21 799.76,-455.52 799.76,-458.14 793.9,-459.45 793.9,-459.45 682.42,-484.42 682.42,-484.42 676.56,-485.73 664.85,-485.73 658.99,-484.42"/>
<text xml:space="preserve" text-anchor="middle" x="670.7" y="-452.16" font-family="Noto Sans KR" font-size="14.00" fill="#182033">commit accepted?</text>
</g>
<!-- Commit&#45;&gt;CommitOutcome -->
<g id="edge22" class="edge">
<title>Commit&#45;&gt;CommitOutcome</title>
<path fill="none" stroke="#59687e" stroke-width="1.3" d="M670.7,-555.65C670.7,-539.14 670.7,-516.59 670.7,-497.31"/>
<polygon fill="#59687e" stroke="#59687e" stroke-width="1.3" points="673.51,-497.54 670.71,-489.54 667.91,-497.54 673.51,-497.54"/>
<text xml:space="preserve" text-anchor="middle" x="711.2" y="-516.99" font-family="Noto Sans KR" font-size="14.00" fill="#46566e">atomic result</text>
</g>
<!-- CommitFail -->
<g id="node17" class="node">
<title>CommitFail</title>
<path fill="#fff0f3" stroke="#e07b91" stroke-width="1.4" d="M675.41,-357.37C675.41,-357.37 392,-357.37 392,-357.37 386,-357.37 380,-351.37 380,-345.37 380,-345.37 380,-321.91 380,-321.91 380,-315.91 386,-309.91 392,-309.91 392,-309.91 675.41,-309.91 675.41,-309.91 681.41,-309.91 687.41,-315.91 687.41,-321.91 687.41,-321.91 687.41,-345.37 687.41,-345.37 687.41,-351.37 681.41,-357.37 675.41,-357.37"/>
<text xml:space="preserve" text-anchor="middle" x="533.7" y="-337.59" font-family="Noto Sans KR" font-size="14.00" fill="#182033">&lt;&lt;public contract&gt;&gt; SkillResult(FailureReason)</text>
<text xml:space="preserve" text-anchor="middle" x="533.7" y="-320.34" font-family="Noto Sans KR" font-size="14.00" fill="#182033">version / invariant fail · no mutation / event</text>
</g>
<!-- CommitOutcome&#45;&gt;CommitFail -->
<g id="edge23" class="edge">
<title>CommitOutcome&#45;&gt;CommitFail</title>
<path fill="none" stroke="#c35f76" stroke-width="1.3" d="M643.96,-432.18C622.04,-412.78 590.89,-385.23 567.29,-364.35"/>
<polygon fill="#c35f76" stroke="#c35f76" stroke-width="1.3" points="569.23,-362.33 561.39,-359.13 565.52,-366.52 569.23,-362.33"/>
<text xml:space="preserve" text-anchor="middle" x="687.31" y="-387.32" font-family="Noto Sans KR" font-size="14.00" fill="#9d4358">no · version / invariant fail</text>
</g>
<!-- Committed -->
<g id="node18" class="node">
<title>Committed</title>
<path fill="#e9fbff" stroke="#54b7cf" stroke-width="1.4" d="M1024.78,-357.37C1024.78,-357.37 794.62,-357.37 794.62,-357.37 788.62,-357.37 782.62,-351.37 782.62,-345.37 782.62,-345.37 782.62,-321.91 782.62,-321.91 782.62,-315.91 788.62,-309.91 794.62,-309.91 794.62,-309.91 1024.78,-309.91 1024.78,-309.91 1030.78,-309.91 1036.78,-315.91 1036.78,-321.91 1036.78,-321.91 1036.78,-345.37 1036.78,-345.37 1036.78,-351.37 1030.78,-357.37 1024.78,-357.37"/>
<text xml:space="preserve" text-anchor="middle" x="909.7" y="-337.59" font-family="Noto Sans KR" font-size="14.00" fill="#182033">Committed facts</text>
<text xml:space="preserve" text-anchor="middle" x="909.7" y="-320.34" font-family="Noto Sans KR" font-size="14.00" fill="#182033">SkillCommitted · DamageCommitted</text>
</g>
<!-- CommitOutcome&#45;&gt;Committed -->
<g id="edge25" class="edge">
<title>CommitOutcome&#45;&gt;Committed</title>
<path fill="none" stroke="#4f8b74" stroke-width="1.3" d="M711.66,-435.27C742.94,-419.57 780.7,-400.62 780.7,-400.62 780.7,-400.62 820.12,-380.46 855.38,-362.43"/>
<polygon fill="#4f8b74" stroke="#4f8b74" stroke-width="1.3" points="856.63,-364.93 862.47,-358.8 854.08,-359.95 856.63,-364.93"/>
<text xml:space="preserve" text-anchor="middle" x="852.38" y="-387.32" font-family="Noto Sans KR" font-size="14.00" fill="#3f735f">yes · success</text>
</g>
<!-- CommitFail&#45;&gt;Committed -->
<!-- CommitFail&#45;&gt;FailureEnd -->
<g id="edge24" class="edge">
<title>CommitFail&#45;&gt;FailureEnd</title>
<path fill="none" stroke="#59687e" stroke-width="1.3" d="M516.84,-309.65C470.34,-246.26 343.7,-73.6 343.7,-73.6 343.7,-73.6 335.54,-62.83 326.88,-51.41"/>
<polygon fill="#59687e" stroke="#59687e" stroke-width="1.3" points="329.16,-49.78 322.09,-45.1 324.7,-53.16 329.16,-49.78"/>
<text xml:space="preserve" text-anchor="middle" x="464.46" y="-170.15" font-family="Noto Sans KR" font-size="14.00" fill="#46566e">public failure</text>
</g>
<!-- Reaction -->
<g id="node19" class="node">
<title>Reaction</title>
<path fill="#f3eefc" stroke="#ab8fe0" stroke-width="1.4" d="M1038.66,-256.91C1038.66,-256.91 780.75,-256.91 780.75,-256.91 774.75,-256.91 768.75,-250.91 768.75,-244.91 768.75,-244.91 768.75,-221.45 768.75,-221.45 768.75,-215.45 774.75,-209.45 780.75,-209.45 780.75,-209.45 1038.66,-209.45 1038.66,-209.45 1044.66,-209.45 1050.66,-215.45 1050.66,-221.45 1050.66,-221.45 1050.66,-244.91 1050.66,-244.91 1050.66,-250.91 1044.66,-256.91 1038.66,-256.91"/>
<text xml:space="preserve" text-anchor="middle" x="909.7" y="-237.13" font-family="Noto Sans KR" font-size="14.00" fill="#182033">ReactionQueue</text>
<text xml:space="preserve" text-anchor="middle" x="909.7" y="-219.88" font-family="Noto Sans KR" font-size="14.00" fill="#182033">Burn and other state&#45;changing commands</text>
</g>
<!-- Committed&#45;&gt;Reaction -->
<g id="edge26" class="edge">
<title>Committed&#45;&gt;Reaction</title>
<path fill="none" stroke="#59687e" stroke-width="1.3" d="M909.7,-309.31C909.7,-296.68 909.7,-280.87 909.7,-267.01"/>
<polygon fill="#59687e" stroke="#59687e" stroke-width="1.3" points="912.51,-267.31 909.71,-259.31 906.91,-267.31 912.51,-267.31"/>
</g>
<!-- Recovery -->
<g id="node20" class="node">
<title>Recovery</title>
<path fill="#e9fbff" stroke="#54b7cf" stroke-width="1.4" d="M1007.16,-140.2C1007.16,-140.2 812.25,-140.2 812.25,-140.2 806.25,-140.2 800.25,-134.2 800.25,-128.2 800.25,-128.2 800.25,-112.6 800.25,-112.6 800.25,-106.6 806.25,-100.6 812.25,-100.6 812.25,-100.6 1007.16,-100.6 1007.16,-100.6 1013.16,-100.6 1019.16,-106.6 1019.16,-112.6 1019.16,-112.6 1019.16,-128.2 1019.16,-128.2 1019.16,-134.2 1013.16,-140.2 1007.16,-140.2"/>
<text xml:space="preserve" text-anchor="middle" x="909.7" y="-115.72" font-family="Noto Sans KR" font-size="14.00" fill="#182033">Recovery / visual follow&#45;through</text>
</g>
<!-- Reaction&#45;&gt;Recovery -->
<g id="edge27" class="edge">
<title>Reaction&#45;&gt;Recovery</title>
<path fill="none" stroke="#59687e" stroke-width="1.3" d="M909.7,-208.96C909.7,-192.01 909.7,-168.92 909.7,-150.71"/>
<polygon fill="#59687e" stroke="#59687e" stroke-width="1.3" points="912.51,-150.86 909.71,-142.86 906.91,-150.86 912.51,-150.86"/>
</g>
<!-- End -->
<g id="node22" class="node">
<title>End</title>
<ellipse fill="#ffffff" stroke="#182033" stroke-width="1.4" cx="909.7" cy="-23.8" rx="19.8" ry="19.8"/>
<ellipse fill="none" stroke="#182033" stroke-width="1.4" cx="909.7" cy="-23.8" rx="23.8" ry="23.8"/>
</g>
<!-- Recovery&#45;&gt;End -->
<g id="edge28" class="edge">
<title>Recovery&#45;&gt;End</title>
<path fill="none" stroke="#59687e" stroke-width="1.3" d="M909.7,-100.26C909.7,-88.18 909.7,-72.25 909.7,-58.14"/>
<polygon fill="#59687e" stroke="#59687e" stroke-width="1.3" points="912.51,-58.24 909.71,-50.24 906.91,-58.24 912.51,-58.24"/>
</g>
</g>
</svg>
