<?xml version="1.0" encoding="UTF-8" standalone="no"?>
<!DOCTYPE svg PUBLIC "-//W3C//DTD SVG 1.1//EN"
 "http://www.w3.org/Graphics/SVG/1.1/DTD/svg11.dtd">
<!-- Generated by graphviz version 15.1.0 (20260618.0150)
 -->
<!-- Title: G Pages: 1 -->
<svg width="2643pt" height="1227pt"
 viewBox="12.00 12.00 2632.00 1216.00" xmlns="http://www.w3.org/2000/svg" xmlns:xlink="http://www.w3.org/1999/xlink">
<g id="graph0" class="graph" transform="scale(1.33333 1.33333) rotate(0) translate(26.64 893.86)">
<title>G</title>
<polygon fill="#ffffff" stroke="none" points="-18,18 -18,-885.22 1947,-885.22 1947,18 -18,18"/>
<g id="clust1" class="cluster">
<title>cluster_definition</title>
<path fill="#ffffff" stroke="#dfe5ee" stroke-dasharray="5,2" d="M788,-8C788,-8 1909,-8 1909,-8 1915,-8 1921,-14 1921,-20 1921,-20 1921,-179.67 1921,-179.67 1921,-185.67 1915,-191.67 1909,-191.67 1909,-191.67 788,-191.67 788,-191.67 782,-191.67 776,-185.67 776,-179.67 776,-179.67 776,-20 776,-20 776,-14 782,-8 788,-8"/>
<text xml:space="preserve" text-anchor="middle" x="1348.5" y="-170.57" font-family="Noto Sans KR" font-size="18.00" fill="#607086">Definition Data · static balance</text>
</g>
<g id="clust2" class="cluster">
<title>cluster_runtime</title>
<path fill="#ffffff" stroke="#dfe5ee" stroke-dasharray="5,2" d="M902,-229.67C902,-229.67 1755,-229.67 1755,-229.67 1761,-229.67 1767,-235.67 1767,-241.67 1767,-241.67 1767,-698.51 1767,-698.51 1767,-704.51 1761,-710.51 1755,-710.51 1755,-710.51 902,-710.51 902,-710.51 896,-710.51 890,-704.51 890,-698.51 890,-698.51 890,-241.67 890,-241.67 890,-235.67 896,-229.67 902,-229.67"/>
<text xml:space="preserve" text-anchor="middle" x="1328.5" y="-689.41" font-family="Noto Sans KR" font-size="18.00" fill="#607086">Project&#45;specific runtime models · availability and one execution</text>
</g>
<g id="clust3" class="cluster">
<title>cluster_log</title>
<path fill="#ffffff" stroke="#dfe5ee" stroke-dasharray="5,2" d="M20,-764.76C20,-764.76 1877,-764.76 1877,-764.76 1883,-764.76 1889,-770.76 1889,-776.76 1889,-776.76 1889,-847.22 1889,-847.22 1889,-853.22 1883,-859.22 1877,-859.22 1877,-859.22 20,-859.22 20,-859.22 14,-859.22 8,-853.22 8,-847.22 8,-847.22 8,-776.76 8,-776.76 8,-770.76 14,-764.76 20,-764.76"/>
<text xml:space="preserve" text-anchor="middle" x="948.5" y="-838.12" font-family="Noto Sans KR" font-size="18.00" fill="#607086">Input / Result / Observation</text>
</g>
<!-- SkillDef -->
<g id="node1" class="node">
<title>SkillDef</title>
<path fill="#fff7e6" stroke="#e0ad4e" stroke-width="1.4" d="M1378.45,-161.92C1378.45,-161.92 1273.55,-161.92 1273.55,-161.92 1267.55,-161.92 1261.55,-155.92 1261.55,-149.92 1261.55,-149.92 1261.55,-126.46 1261.55,-126.46 1261.55,-120.46 1267.55,-114.46 1273.55,-114.46 1273.55,-114.46 1378.45,-114.46 1378.45,-114.46 1384.45,-114.46 1390.45,-120.46 1390.45,-126.46 1390.45,-126.46 1390.45,-149.92 1390.45,-149.92 1390.45,-155.92 1384.45,-161.92 1378.45,-161.92"/>
<text xml:space="preserve" text-anchor="middle" x="1326" y="-142.14" font-family="Noto Sans KR" font-size="14.00" fill="#182033">SkillDefinition</text>
<text xml:space="preserve" text-anchor="middle" x="1326" y="-124.89" font-family="Noto Sans KR" font-size="14.00" fill="#182033">id · tags · display</text>
</g>
<!-- CostDef -->
<g id="node2" class="node">
<title>CostDef</title>
<path fill="#fff0f3" stroke="#e07b91" stroke-width="1.4" d="M954.21,-55.46C954.21,-55.46 787.79,-55.46 787.79,-55.46 781.79,-55.46 775.79,-49.46 775.79,-43.46 775.79,-43.46 775.79,-20 775.79,-20 775.79,-14 781.79,-8 787.79,-8 787.79,-8 954.21,-8 954.21,-8 960.21,-8 966.21,-14 966.21,-20 966.21,-20 966.21,-43.46 966.21,-43.46 966.21,-49.46 960.21,-55.46 954.21,-55.46"/>
<text xml:space="preserve" text-anchor="middle" x="871" y="-35.68" font-family="Noto Sans KR" font-size="14.00" fill="#182033">CostDefinition</text>
<text xml:space="preserve" text-anchor="middle" x="871" y="-18.43" font-family="Noto Sans KR" font-size="14.00" fill="#182033">resource · amount · timing</text>
</g>
<!-- SkillDef&#45;&gt;CostDef -->
<g id="edge16" class="edge">
<title>SkillDef&#45;&gt;CostDef</title>
<path fill="none" stroke="#b28a2f" stroke-width="1.3" d="M1261.29,-122.33C1187.08,-105.3 1064.33,-77.12 976.3,-56.91"/>
<polygon fill="#b28a2f" stroke="#b28a2f" stroke-width="1.3" points="977.16,-54.23 968.74,-55.17 975.91,-59.69 977.16,-54.23"/>
</g>
<!-- CooldownDef -->
<g id="node3" class="node">
<title>CooldownDef</title>
<path fill="#fff0f3" stroke="#e07b91" stroke-width="1.4" d="M1181.58,-55.46C1181.58,-55.46 1020.42,-55.46 1020.42,-55.46 1014.42,-55.46 1008.42,-49.46 1008.42,-43.46 1008.42,-43.46 1008.42,-20 1008.42,-20 1008.42,-14 1014.42,-8 1020.42,-8 1020.42,-8 1181.58,-8 1181.58,-8 1187.58,-8 1193.58,-14 1193.58,-20 1193.58,-20 1193.58,-43.46 1193.58,-43.46 1193.58,-49.46 1187.58,-55.46 1181.58,-55.46"/>
<text xml:space="preserve" text-anchor="middle" x="1101" y="-35.68" font-family="Noto Sans KR" font-size="14.00" fill="#182033">CooldownDefinition</text>
<text xml:space="preserve" text-anchor="middle" x="1101" y="-18.43" font-family="Noto Sans KR" font-size="14.00" fill="#182033">duration · group · charges</text>
</g>
<!-- SkillDef&#45;&gt;CooldownDef -->
<g id="edge17" class="edge">
<title>SkillDef&#45;&gt;CooldownDef</title>
<path fill="none" stroke="#b28a2f" stroke-width="1.3" d="M1275.79,-113.88C1241.64,-98.02 1196.31,-76.98 1160.37,-60.29"/>
<polygon fill="#b28a2f" stroke="#b28a2f" stroke-width="1.3" points="1161.67,-57.81 1153.23,-56.98 1159.31,-62.89 1161.67,-57.81"/>
</g>
<!-- TargetDef -->
<g id="node4" class="node">
<title>TargetDef</title>
<path fill="#e9fbff" stroke="#54b7cf" stroke-width="1.4" d="M1404.33,-55.46C1404.33,-55.46 1247.67,-55.46 1247.67,-55.46 1241.67,-55.46 1235.67,-49.46 1235.67,-43.46 1235.67,-43.46 1235.67,-20 1235.67,-20 1235.67,-14 1241.67,-8 1247.67,-8 1247.67,-8 1404.33,-8 1404.33,-8 1410.33,-8 1416.33,-14 1416.33,-20 1416.33,-20 1416.33,-43.46 1416.33,-43.46 1416.33,-49.46 1410.33,-55.46 1404.33,-55.46"/>
<text xml:space="preserve" text-anchor="middle" x="1326" y="-35.68" font-family="Noto Sans KR" font-size="14.00" fill="#182033">TargetingSpec</text>
<text xml:space="preserve" text-anchor="middle" x="1326" y="-18.43" font-family="Noto Sans KR" font-size="14.00" fill="#182033">type · range · line of sight</text>
</g>
<!-- SkillDef&#45;&gt;TargetDef -->
<g id="edge18" class="edge">
<title>SkillDef&#45;&gt;TargetDef</title>
<path fill="none" stroke="#b28a2f" stroke-width="1.3" d="M1326,-114.01C1326,-99.81 1326,-81.41 1326,-65.71"/>
<polygon fill="#b28a2f" stroke="#b28a2f" stroke-width="1.3" points="1328.8,-65.82 1326,-57.82 1323.2,-65.82 1328.8,-65.82"/>
</g>
<!-- TimelineDef -->
<g id="node5" class="node">
<title>TimelineDef</title>
<path fill="#e9fbff" stroke="#54b7cf" stroke-width="1.4" d="M1633.33,-55.46C1633.33,-55.46 1470.67,-55.46 1470.67,-55.46 1464.67,-55.46 1458.67,-49.46 1458.67,-43.46 1458.67,-43.46 1458.67,-20 1458.67,-20 1458.67,-14 1464.67,-8 1470.67,-8 1470.67,-8 1633.33,-8 1633.33,-8 1639.33,-8 1645.33,-14 1645.33,-20 1645.33,-20 1645.33,-43.46 1645.33,-43.46 1645.33,-49.46 1639.33,-55.46 1633.33,-55.46"/>
<text xml:space="preserve" text-anchor="middle" x="1552" y="-35.68" font-family="Noto Sans KR" font-size="14.00" fill="#182033">TimelineDefinition</text>
<text xml:space="preserve" text-anchor="middle" x="1552" y="-18.43" font-family="Noto Sans KR" font-size="14.00" fill="#182033">phases · markers · cancels</text>
</g>
<!-- SkillDef&#45;&gt;TimelineDef -->
<g id="edge19" class="edge">
<title>SkillDef&#45;&gt;TimelineDef</title>
<path fill="none" stroke="#b28a2f" stroke-width="1.3" d="M1355.58,-113.91C1373.53,-99.78 1393,-84.46 1393,-84.46 1393,-84.46 1431.74,-71.85 1470.98,-59.09"/>
<polygon fill="#b28a2f" stroke="#b28a2f" stroke-width="1.3" points="1471.8,-61.77 1478.54,-56.63 1470.06,-56.44 1471.8,-61.77"/>
</g>
<!-- BundleRef -->
<g id="node6" class="node">
<title>BundleRef</title>
<path fill="#fff7e6" stroke="#e0ad4e" stroke-width="1.4" d="M1908.58,-55.46C1908.58,-55.46 1699.42,-55.46 1699.42,-55.46 1693.42,-55.46 1687.42,-49.46 1687.42,-43.46 1687.42,-43.46 1687.42,-20 1687.42,-20 1687.42,-14 1693.42,-8 1699.42,-8 1699.42,-8 1908.58,-8 1908.58,-8 1914.58,-8 1920.58,-14 1920.58,-20 1920.58,-20 1920.58,-43.46 1920.58,-43.46 1920.58,-49.46 1914.58,-55.46 1908.58,-55.46"/>
<text xml:space="preserve" text-anchor="middle" x="1804" y="-35.68" font-family="Noto Sans KR" font-size="14.00" fill="#182033">EffectBundleRef</text>
<text xml:space="preserve" text-anchor="middle" x="1804" y="-18.43" font-family="Noto Sans KR" font-size="14.00" fill="#182033">primary effects · reactions · policy</text>
</g>
<!-- SkillDef&#45;&gt;BundleRef -->
<g id="edge20" class="edge">
<title>SkillDef&#45;&gt;BundleRef</title>
<path fill="none" stroke="#b28a2f" stroke-width="1.3" d="M1363.53,-113.91C1386.3,-99.78 1411,-84.46 1411,-84.46 1411,-84.46 1666,-55.46 1666,-55.46 1666,-55.46 1670.32,-54.75 1677.43,-53.58"/>
<polygon fill="#b28a2f" stroke="#b28a2f" stroke-width="1.3" points="1677.58,-56.39 1685.02,-52.33 1676.67,-50.87 1677.58,-56.39"/>
</g>
<!-- EffectBundlePlan -->
<g id="node11" class="node">
<title>EffectBundlePlan</title>
<path fill="#eefbf6" stroke="#61b99a" stroke-width="1.4" d="M1754.7,-540.8C1754.7,-540.8 1489.3,-540.8 1489.3,-540.8 1483.3,-540.8 1477.3,-534.8 1477.3,-528.8 1477.3,-528.8 1477.3,-488.09 1477.3,-488.09 1477.3,-482.09 1483.3,-476.09 1489.3,-476.09 1489.3,-476.09 1754.7,-476.09 1754.7,-476.09 1760.7,-476.09 1766.7,-482.09 1766.7,-488.09 1766.7,-488.09 1766.7,-528.8 1766.7,-528.8 1766.7,-534.8 1760.7,-540.8 1754.7,-540.8"/>
<text xml:space="preserve" text-anchor="middle" x="1622" y="-521.02" font-family="Noto Sans KR" font-size="14.00" fill="#182033">&lt;&lt;public Effect contract&gt;&gt; EffectBundlePlan</text>
<text xml:space="preserve" text-anchor="middle" x="1622" y="-503.77" font-family="Noto Sans KR" font-size="14.00" fill="#182033">BundleId · PrimaryOperations · Reactions</text>
<text xml:space="preserve" text-anchor="middle" x="1622" y="-486.52" font-family="Noto Sans KR" font-size="14.00" fill="#182033">prepared by public IEffectPlanner.Prepare</text>
</g>
<!-- BundleRef&#45;&gt;EffectBundlePlan -->
<g id="edge21" class="edge">
<title>BundleRef&#45;&gt;EffectBundlePlan</title>
<path fill="none" stroke="#3f8fa7" stroke-width="1.3" stroke-dasharray="5,2" d="M1795.07,-56.02C1766.14,-131.48 1674.69,-370 1637.73,-466.41"/>
<polygon fill="#3f8fa7" stroke="#3f8fa7" stroke-width="1.3" points="1635.18,-465.25 1634.93,-473.72 1640.41,-467.26 1635.18,-465.25"/>
</g>
<!-- SkillBook -->
<g id="node7" class="node">
<title>SkillBook</title>
<path fill="#eaf0ff" stroke="#8292f7" stroke-width="1.4" d="M993.71,-672.14C993.71,-672.14 902.29,-672.14 902.29,-672.14 896.29,-672.14 890.29,-666.14 890.29,-660.14 890.29,-660.14 890.29,-636.68 890.29,-636.68 890.29,-630.68 896.29,-624.68 902.29,-624.68 902.29,-624.68 993.71,-624.68 993.71,-624.68 999.71,-624.68 1005.71,-630.68 1005.71,-636.68 1005.71,-636.68 1005.71,-660.14 1005.71,-660.14 1005.71,-666.14 999.71,-672.14 993.71,-672.14"/>
<text xml:space="preserve" text-anchor="middle" x="948" y="-652.36" font-family="Noto Sans KR" font-size="14.00" fill="#182033">SkillBook</text>
<text xml:space="preserve" text-anchor="middle" x="948" y="-635.11" font-family="Noto Sans KR" font-size="14.00" fill="#182033">learned skill ids</text>
</g>
<!-- SkillRuntime -->
<g id="node8" class="node">
<title>SkillRuntime</title>
<path fill="#eaf0ff" stroke="#8292f7" stroke-width="1.4" d="M1443.33,-680.76C1443.33,-680.76 1178.67,-680.76 1178.67,-680.76 1172.67,-680.76 1166.67,-674.76 1166.67,-668.76 1166.67,-668.76 1166.67,-628.05 1166.67,-628.05 1166.67,-622.05 1172.67,-616.05 1178.67,-616.05 1178.67,-616.05 1443.33,-616.05 1443.33,-616.05 1449.33,-616.05 1455.33,-622.05 1455.33,-628.05 1455.33,-628.05 1455.33,-668.76 1455.33,-668.76 1455.33,-674.76 1449.33,-680.76 1443.33,-680.76"/>
<text xml:space="preserve" text-anchor="middle" x="1311" y="-660.98" font-family="Noto Sans KR" font-size="14.00" fill="#182033">SkillRuntime</text>
<text xml:space="preserve" text-anchor="middle" x="1311" y="-643.73" font-family="Noto Sans KR" font-size="14.00" fill="#182033">learned level · cooldown · charges</text>
<text xml:space="preserve" text-anchor="middle" x="1311" y="-626.48" font-family="Noto Sans KR" font-size="14.00" fill="#182033">definition id · accepts committed mutation</text>
</g>
<!-- SkillBook&#45;&gt;SkillRuntime -->
<g id="edge6" class="edge">
<title>SkillBook&#45;&gt;SkillRuntime</title>
<path fill="none" stroke="#59687e" stroke-width="1.3" d="M1006.32,-648.41C1046.98,-648.41 1103.25,-648.41 1156.38,-648.41"/>
<polygon fill="#59687e" stroke="#59687e" stroke-width="1.3" points="1156.3,-651.21 1164.3,-648.41 1156.3,-645.61 1156.3,-651.21"/>
<text xml:space="preserve" text-anchor="middle" x="1086.19" y="-655.36" font-family="Noto Sans KR" font-size="14.00" fill="#46566e">owns runtime state</text>
</g>
<!-- SkillRuntime&#45;&gt;SkillDef -->
<g id="edge14" class="edge">
<title>SkillRuntime&#45;&gt;SkillDef</title>
<path fill="none" stroke="#b28a2f" stroke-width="1.3" stroke-dasharray="5,2" d="M1455.77,-619.89C1468.1,-617.55 1476,-616.05 1476,-616.05 1476,-616.05 1751,-587.05 1751,-587.05 1751,-587.05 1863,-540.8 1863,-540.8 1863,-540.8 1863,-476.09 1863,-476.09 1863,-476.09 1767,-447.09 1767,-447.09 1767,-447.09 1767,-446.09 1767,-446.09 1767,-446.09 1824,-417.09 1824,-417.09 1824,-417.09 1824,-352.38 1824,-352.38 1824,-352.38 1780,-306.13 1780,-306.13 1780,-306.13 1526.85,-213.04 1398.62,-165.89"/>
<polygon fill="#b28a2f" stroke="#b28a2f" stroke-width="1.3" points="1399.93,-163.39 1391.45,-163.26 1397.99,-168.65 1399.93,-163.39"/>
</g>
<!-- ReleasePlan -->
<g id="node12" class="node">
<title>ReleasePlan</title>
<path fill="#e9fbff" stroke="#54b7cf" stroke-width="1.4" d="M1460.58,-417.09C1460.58,-417.09 1191.42,-417.09 1191.42,-417.09 1185.42,-417.09 1179.42,-411.09 1179.42,-405.09 1179.42,-405.09 1179.42,-364.38 1179.42,-364.38 1179.42,-358.38 1185.42,-352.38 1191.42,-352.38 1191.42,-352.38 1460.58,-352.38 1460.58,-352.38 1466.58,-352.38 1472.58,-358.38 1472.58,-364.38 1472.58,-364.38 1472.58,-405.09 1472.58,-405.09 1472.58,-411.09 1466.58,-417.09 1460.58,-417.09"/>
<text xml:space="preserve" text-anchor="middle" x="1326" y="-397.31" font-family="Noto Sans KR" font-size="14.00" fill="#182033">&lt;&lt;internal project model&gt;&gt; SkillReleasePlan</text>
<text xml:space="preserve" text-anchor="middle" x="1326" y="-380.06" font-family="Noto Sans KR" font-size="14.00" fill="#182033">SkillMutation + EffectBundlePlan</text>
<text xml:space="preserve" text-anchor="middle" x="1326" y="-362.81" font-family="Noto Sans KR" font-size="14.00" fill="#182033">version preconditions</text>
</g>
<!-- SkillRuntime&#45;&gt;ReleasePlan -->
<g id="edge10" class="edge">
<title>SkillRuntime&#45;&gt;ReleasePlan</title>
<path fill="none" stroke="#59687e" stroke-width="1.3" d="M1188.4,-615.37C1133.11,-600.93 1080,-587.05 1080,-587.05 1080,-587.05 964.25,-540.8 964.25,-540.8 964.25,-540.8 964.25,-476.09 964.25,-476.09 964.25,-476.09 1085.96,-445.69 1188.18,-420.16"/>
<polygon fill="#59687e" stroke="#59687e" stroke-width="1.3" points="1188.7,-422.91 1195.79,-418.26 1187.35,-417.48 1188.7,-422.91"/>
<text xml:space="preserve" text-anchor="middle" x="1063.62" y="-503.77" font-family="Noto Sans KR" font-size="14.00" fill="#46566e">snapshot + version precondition</text>
</g>
<!-- SkillExecution -->
<g id="node9" class="node">
<title>SkillExecution</title>
<path fill="#eaf0ff" stroke="#8292f7" stroke-width="1.4" d="M1688.95,-680.76C1688.95,-680.76 1509.05,-680.76 1509.05,-680.76 1503.05,-680.76 1497.05,-674.76 1497.05,-668.76 1497.05,-668.76 1497.05,-628.05 1497.05,-628.05 1497.05,-622.05 1503.05,-616.05 1509.05,-616.05 1509.05,-616.05 1688.95,-616.05 1688.95,-616.05 1694.95,-616.05 1700.95,-622.05 1700.95,-628.05 1700.95,-628.05 1700.95,-668.76 1700.95,-668.76 1700.95,-674.76 1694.95,-680.76 1688.95,-680.76"/>
<text xml:space="preserve" text-anchor="middle" x="1599" y="-660.98" font-family="Noto Sans KR" font-size="14.00" fill="#182033">&lt;&lt;internal&gt;&gt; SkillExecution</text>
<text xml:space="preserve" text-anchor="middle" x="1599" y="-643.73" font-family="Noto Sans KR" font-size="14.00" fill="#182033">execution id · phase · marker</text>
<text xml:space="preserve" text-anchor="middle" x="1599" y="-626.48" font-family="Noto Sans KR" font-size="14.00" fill="#182033">definition id</text>
</g>
<!-- SkillExecution&#45;&gt;SkillDef -->
<g id="edge15" class="edge">
<title>SkillExecution&#45;&gt;SkillDef</title>
<path fill="none" stroke="#b28a2f" stroke-width="1.3" stroke-dasharray="5,2" d="M1701.5,-617.23C1752.75,-602.14 1804,-587.05 1804,-587.05 1804,-587.05 1895,-540.8 1895,-540.8 1895,-540.8 1895,-476.09 1895,-476.09 1895,-476.09 1856,-352.38 1856,-352.38 1856,-352.38 1820,-306.13 1820,-306.13 1820,-306.13 1668,-229.67 1668,-229.67 1668,-229.67 1501.29,-185.56 1400.66,-158.94"/>
<polygon fill="#b28a2f" stroke="#b28a2f" stroke-width="1.3" points="1401.48,-156.26 1393.03,-156.92 1400.05,-161.68 1401.48,-156.26"/>
</g>
<!-- SkillMutation -->
<g id="node10" class="node">
<title>SkillMutation</title>
<path fill="#eefbf6" stroke="#61b99a" stroke-width="1.4" d="M1423.08,-540.8C1423.08,-540.8 1228.92,-540.8 1228.92,-540.8 1222.92,-540.8 1216.92,-534.8 1216.92,-528.8 1216.92,-528.8 1216.92,-488.09 1216.92,-488.09 1216.92,-482.09 1222.92,-476.09 1228.92,-476.09 1228.92,-476.09 1423.08,-476.09 1423.08,-476.09 1429.08,-476.09 1435.08,-482.09 1435.08,-488.09 1435.08,-488.09 1435.08,-528.8 1435.08,-528.8 1435.08,-534.8 1429.08,-540.8 1423.08,-540.8"/>
<text xml:space="preserve" text-anchor="middle" x="1326" y="-521.02" font-family="Noto Sans KR" font-size="14.00" fill="#182033">SkillMutation</text>
<text xml:space="preserve" text-anchor="middle" x="1326" y="-503.77" font-family="Noto Sans KR" font-size="14.00" fill="#182033">cost delta · cooldown ready tick</text>
<text xml:space="preserve" text-anchor="middle" x="1326" y="-486.52" font-family="Noto Sans KR" font-size="14.00" fill="#182033">charge delta</text>
</g>
<!-- SkillExecution&#45;&gt;SkillMutation -->
<g id="edge7" class="edge">
<title>SkillExecution&#45;&gt;SkillMutation</title>
<path fill="none" stroke="#59687e" stroke-width="1.3" d="M1535.68,-615.41C1494.42,-594.56 1440.49,-567.3 1397.66,-545.66"/>
<polygon fill="#59687e" stroke="#59687e" stroke-width="1.3" points="1399.13,-543.27 1390.73,-542.16 1396.61,-548.26 1399.13,-543.27"/>
<text xml:space="preserve" text-anchor="middle" x="1574.47" y="-573.75" font-family="Noto Sans KR" font-size="14.00" fill="#46566e">PrepareRelease · SkillMutation</text>
</g>
<!-- SkillMutation&#45;&gt;ReleasePlan -->
<g id="edge8" class="edge">
<title>SkillMutation&#45;&gt;ReleasePlan</title>
<path fill="none" stroke="#59687e" stroke-width="1.3" d="M1326,-475.47C1326,-460.65 1326,-442.87 1326,-427.05"/>
<polygon fill="#59687e" stroke="#59687e" stroke-width="1.3" points="1328.8,-427.47 1326,-419.47 1323.2,-427.47 1328.8,-427.47"/>
</g>
<!-- EffectBundlePlan&#45;&gt;ReleasePlan -->
<g id="edge9" class="edge">
<title>EffectBundlePlan&#45;&gt;ReleasePlan</title>
<path fill="none" stroke="#59687e" stroke-width="1.3" d="M1544.23,-475.47C1503.86,-458.87 1454.41,-438.53 1412.79,-421.42"/>
<polygon fill="#59687e" stroke="#59687e" stroke-width="1.3" points="1414.05,-418.91 1405.58,-418.46 1411.92,-424.09 1414.05,-418.91"/>
</g>
<!-- CommitReceipt -->
<g id="node13" class="node">
<title>CommitReceipt</title>
<path fill="#fff7e6" stroke="#e0ad4e" stroke-width="1.4" d="M1422.33,-277.13C1422.33,-277.13 1229.67,-277.13 1229.67,-277.13 1223.67,-277.13 1217.67,-271.13 1217.67,-265.13 1217.67,-265.13 1217.67,-241.67 1217.67,-241.67 1217.67,-235.67 1223.67,-229.67 1229.67,-229.67 1229.67,-229.67 1422.33,-229.67 1422.33,-229.67 1428.33,-229.67 1434.33,-235.67 1434.33,-241.67 1434.33,-241.67 1434.33,-265.13 1434.33,-265.13 1434.33,-271.13 1428.33,-277.13 1422.33,-277.13"/>
<text xml:space="preserve" text-anchor="middle" x="1326" y="-257.35" font-family="Noto Sans KR" font-size="14.00" fill="#182033">CommitPlan → CommitReceipt</text>
<text xml:space="preserve" text-anchor="middle" x="1326" y="-240.1" font-family="Noto Sans KR" font-size="14.00" fill="#182033">state + outbox atomic</text>
</g>
<!-- ReleasePlan&#45;&gt;CommitReceipt -->
<g id="edge11" class="edge">
<title>ReleasePlan&#45;&gt;CommitReceipt</title>
<path fill="none" stroke="#59687e" stroke-width="1.3" d="M1326,-351.76C1326,-332.14 1326,-307.08 1326,-287.29"/>
<polygon fill="#59687e" stroke="#59687e" stroke-width="1.3" points="1328.8,-287.45 1326,-279.45 1323.2,-287.45 1328.8,-287.45"/>
<text xml:space="preserve" text-anchor="middle" x="1415.25" y="-310.08" font-family="Noto Sans KR" font-size="14.00" fill="#46566e">IRuntimeCommitter.Commit</text>
</g>
<!-- CommitReceipt&#45;&gt;SkillDef -->
<!-- CommitReceipt&#45;&gt;SkillRuntime -->
<g id="edge12" class="edge">
<title>CommitReceipt&#45;&gt;SkillRuntime</title>
<path fill="none" stroke="#4f8b74" stroke-width="1.3" stroke-dasharray="5,2" d="M1411.38,-277.77C1461.46,-291.48 1515,-306.13 1515,-306.13 1515,-306.13 1515,-323.38 1515,-323.38 1515,-323.38 1494,-417.09 1494,-417.09 1494,-417.09 1196,-476.09 1196,-476.09 1196,-476.09 1196,-540.8 1196,-540.8 1196,-540.8 1236.64,-578.47 1269.6,-609.02"/>
<polygon fill="#4f8b74" stroke="#4f8b74" stroke-width="1.3" points="1267.28,-610.7 1275.05,-614.08 1271.09,-606.59 1267.28,-610.7"/>
</g>
<!-- SkillResult -->
<g id="node17" class="node">
<title>SkillResult</title>
<path fill="#f0f3f9" stroke="#99a8bd" stroke-width="1.4" d="M1443.45,-829.47C1443.45,-829.47 1254.55,-829.47 1254.55,-829.47 1248.55,-829.47 1242.55,-823.47 1242.55,-817.47 1242.55,-817.47 1242.55,-776.76 1242.55,-776.76 1242.55,-770.76 1248.55,-764.76 1254.55,-764.76 1254.55,-764.76 1443.45,-764.76 1443.45,-764.76 1449.45,-764.76 1455.45,-770.76 1455.45,-776.76 1455.45,-776.76 1455.45,-817.47 1455.45,-817.47 1455.45,-823.47 1449.45,-829.47 1443.45,-829.47"/>
<text xml:space="preserve" text-anchor="middle" x="1349" y="-809.69" font-family="Noto Sans KR" font-size="14.00" fill="#182033">&lt;&lt;public contract&gt;&gt; SkillResult</text>
<text xml:space="preserve" text-anchor="middle" x="1349" y="-792.44" font-family="Noto Sans KR" font-size="14.00" fill="#182033">Succeeded · FailureReason?</text>
<text xml:space="preserve" text-anchor="middle" x="1349" y="-775.19" font-family="Noto Sans KR" font-size="14.00" fill="#182033">Effects · public CommitReceipt</text>
</g>
<!-- CommitReceipt&#45;&gt;SkillResult -->
<g id="edge13" class="edge">
<title>CommitReceipt&#45;&gt;SkillResult</title>
<path fill="none" stroke="#59687e" stroke-width="1.3" stroke-dasharray="5,2" d="M1416.35,-277.77C1469.35,-291.48 1526,-306.13 1526,-306.13 1526,-306.13 1788,-476.09 1788,-476.09 1788,-476.09 1788,-540.8 1788,-540.8 1788,-540.8 1680,-587.05 1680,-587.05 1680,-587.05 869,-616.05 869,-616.05 869,-616.05 869,-710.51 869,-710.51 869,-710.51 1090.13,-749.95 1232.21,-775.29"/>
<polygon fill="#59687e" stroke="#59687e" stroke-width="1.3" points="1231.57,-778.02 1239.94,-776.66 1232.55,-772.5 1231.57,-778.02"/>
</g>
<!-- SkillRequest -->
<g id="node14" class="node">
<title>SkillRequest</title>
<path fill="#eefbf6" stroke="#61b99a" stroke-width="1.4" d="M218.33,-829.47C218.33,-829.47 19.67,-829.47 19.67,-829.47 13.67,-829.47 7.67,-823.47 7.67,-817.47 7.67,-817.47 7.67,-776.76 7.67,-776.76 7.67,-770.76 13.67,-764.76 19.67,-764.76 19.67,-764.76 218.33,-764.76 218.33,-764.76 224.33,-764.76 230.33,-770.76 230.33,-776.76 230.33,-776.76 230.33,-817.47 230.33,-817.47 230.33,-823.47 224.33,-829.47 218.33,-829.47"/>
<text xml:space="preserve" text-anchor="middle" x="119" y="-809.69" font-family="Noto Sans KR" font-size="14.00" fill="#182033">&lt;&lt;public contract&gt;&gt; SkillRequest</text>
<text xml:space="preserve" text-anchor="middle" x="119" y="-792.44" font-family="Noto Sans KR" font-size="14.00" fill="#182033">CasterId · SkillId · TargetId?</text>
<text xml:space="preserve" text-anchor="middle" x="119" y="-775.19" font-family="Noto Sans KR" font-size="14.00" fill="#182033">RequestedTick · RootSeed</text>
</g>
<!-- SkillValidator -->
<g id="node15" class="node">
<title>SkillValidator</title>
<path fill="#f3eefc" stroke="#ab8fe0" stroke-width="1.4" d="M655.46,-820.85C655.46,-820.85 394.54,-820.85 394.54,-820.85 388.54,-820.85 382.54,-814.85 382.54,-808.85 382.54,-808.85 382.54,-785.39 382.54,-785.39 382.54,-779.39 388.54,-773.39 394.54,-773.39 394.54,-773.39 655.46,-773.39 655.46,-773.39 661.46,-773.39 667.46,-779.39 667.46,-785.39 667.46,-785.39 667.46,-808.85 667.46,-808.85 667.46,-814.85 661.46,-820.85 655.46,-820.85"/>
<text xml:space="preserve" text-anchor="middle" x="525" y="-801.07" font-family="Noto Sans KR" font-size="14.00" fill="#182033">&lt;&lt;public interface&gt;&gt; ISkillRequestValidator</text>
<text xml:space="preserve" text-anchor="middle" x="525" y="-783.82" font-family="Noto Sans KR" font-size="14.00" fill="#182033">Validate(SkillRequest)</text>
</g>
<!-- SkillRequest&#45;&gt;SkillValidator -->
<g id="edge1" class="edge">
<title>SkillRequest&#45;&gt;SkillValidator</title>
<path fill="none" stroke="#59687e" stroke-width="1.3" d="M231.02,-797.12C274.62,-797.12 325.29,-797.12 372.16,-797.12"/>
<polygon fill="#59687e" stroke="#59687e" stroke-width="1.3" points="372.13,-799.91 380.13,-797.11 372.13,-794.31 372.13,-799.91"/>
<text xml:space="preserve" text-anchor="middle" x="306.44" y="-804.07" font-family="Noto Sans KR" font-size="14.00" fill="#46566e">validation request</text>
</g>
<!-- SkillDecision -->
<g id="node16" class="node">
<title>SkillDecision</title>
<path fill="#f3eefc" stroke="#ab8fe0" stroke-width="1.4" d="M1048.83,-820.85C1048.83,-820.85 847.17,-820.85 847.17,-820.85 841.17,-820.85 835.17,-814.85 835.17,-808.85 835.17,-808.85 835.17,-785.39 835.17,-785.39 835.17,-779.39 841.17,-773.39 847.17,-773.39 847.17,-773.39 1048.83,-773.39 1048.83,-773.39 1054.83,-773.39 1060.83,-779.39 1060.83,-785.39 1060.83,-785.39 1060.83,-808.85 1060.83,-808.85 1060.83,-814.85 1054.83,-820.85 1048.83,-820.85"/>
<text xml:space="preserve" text-anchor="middle" x="948" y="-801.07" font-family="Noto Sans KR" font-size="14.00" fill="#182033">&lt;&lt;public contract&gt;&gt; SkillDecision</text>
<text xml:space="preserve" text-anchor="middle" x="948" y="-783.82" font-family="Noto Sans KR" font-size="14.00" fill="#182033">CanExecute · FailureReason?</text>
</g>
<!-- SkillValidator&#45;&gt;SkillDecision -->
<g id="edge2" class="edge">
<title>SkillValidator&#45;&gt;SkillDecision</title>
<path fill="none" stroke="#59687e" stroke-width="1.3" d="M667.91,-797.12C718.83,-797.12 775.68,-797.12 824.8,-797.12"/>
<polygon fill="#59687e" stroke="#59687e" stroke-width="1.3" points="824.55,-799.92 832.55,-797.12 824.55,-794.32 824.55,-799.92"/>
<text xml:space="preserve" text-anchor="middle" x="751.31" y="-804.07" font-family="Noto Sans KR" font-size="14.00" fill="#46566e">returns SkillDecision</text>
</g>
<!-- SkillDecision&#45;&gt;SkillBook -->
<!-- SkillDecision&#45;&gt;SkillExecution -->
<g id="edge5" class="edge">
<title>SkillDecision&#45;&gt;SkillExecution</title>
<path fill="none" stroke="#4f8b74" stroke-width="1.3" d="M1061.27,-777.75C1216.41,-752.6 1476,-710.51 1476,-710.51 1476,-710.51 1499.5,-698.84 1525.95,-685.69"/>
<polygon fill="#4f8b74" stroke="#4f8b74" stroke-width="1.3" points="1526.94,-688.33 1532.86,-682.26 1524.45,-683.32 1526.94,-688.33"/>
<text xml:space="preserve" text-anchor="middle" x="1502.09" y="-722.46" font-family="Noto Sans KR" font-size="14.00" fill="#3f735f">accepted · Begin(request)</text>
</g>
<!-- SkillDecision&#45;&gt;SkillResult -->
<g id="edge3" class="edge">
<title>SkillDecision&#45;&gt;SkillResult</title>
<path fill="none" stroke="#c35f76" stroke-width="1.3" d="M1061.3,-797.12C1114.72,-797.12 1178.39,-797.12 1232.24,-797.12"/>
<polygon fill="#c35f76" stroke="#c35f76" stroke-width="1.3" points="1232.21,-799.92 1240.21,-797.12 1232.21,-794.32 1232.21,-799.92"/>
<text xml:space="preserve" text-anchor="middle" x="1151.69" y="-804.07" font-family="Noto Sans KR" font-size="14.00" fill="#9d4358">rejected · public result</text>
</g>
<!-- SkillTrace -->
<g id="node18" class="node">
<title>SkillTrace</title>
<path fill="#f0f3f9" stroke="#99a8bd" stroke-width="1.4" d="M1877.33,-829.47C1877.33,-829.47 1696.67,-829.47 1696.67,-829.47 1690.67,-829.47 1684.67,-823.47 1684.67,-817.47 1684.67,-817.47 1684.67,-776.76 1684.67,-776.76 1684.67,-770.76 1690.67,-764.76 1696.67,-764.76 1696.67,-764.76 1877.33,-764.76 1877.33,-764.76 1883.33,-764.76 1889.33,-770.76 1889.33,-776.76 1889.33,-776.76 1889.33,-817.47 1889.33,-817.47 1889.33,-823.47 1883.33,-829.47 1877.33,-829.47"/>
<text xml:space="preserve" text-anchor="middle" x="1787" y="-809.69" font-family="Noto Sans KR" font-size="14.00" fill="#182033">DebugTrace / outbox</text>
<text xml:space="preserve" text-anchor="middle" x="1787" y="-792.44" font-family="Noto Sans KR" font-size="14.00" fill="#182033">separate calculation evidence</text>
<text xml:space="preserve" text-anchor="middle" x="1787" y="-775.19" font-family="Noto Sans KR" font-size="14.00" fill="#182033">and committed facts</text>
</g>
<!-- SkillResult&#45;&gt;SkillTrace -->
<g id="edge4" class="edge">
<title>SkillResult&#45;&gt;SkillTrace</title>
<path fill="none" stroke="#59687e" stroke-width="1.3" d="M1456.15,-797.12C1522.29,-797.12 1607.03,-797.12 1674.2,-797.12"/>
<polygon fill="#59687e" stroke="#59687e" stroke-width="1.3" points="1674.01,-799.92 1682.01,-797.12 1674.01,-794.32 1674.01,-799.92"/>
<text xml:space="preserve" text-anchor="middle" x="1570.06" y="-804.07" font-family="Noto Sans KR" font-size="14.00" fill="#46566e">correlates only · does not own</text>
</g>
</g>
</svg>
