<?xml version="1.0" encoding="UTF-8" standalone="no"?>
<!DOCTYPE svg PUBLIC "-//W3C//DTD SVG 1.1//EN"
 "http://www.w3.org/Graphics/SVG/1.1/DTD/svg11.dtd">
<!-- Generated by graphviz version 15.1.0 (20260618.0150)
 -->
<!-- Title: G Pages: 1 -->
<svg width="2688pt" height="1227pt"
 viewBox="12.00 12.00 2677.00 1216.00" xmlns="http://www.w3.org/2000/svg" xmlns:xlink="http://www.w3.org/1999/xlink">
<g id="graph0" class="graph" transform="scale(1.33333 1.33333) rotate(0) translate(26.64 893.86)">
<title>G</title>
<polygon fill="#ffffff" stroke="none" points="-18,18 -18,-885.22 1981,-885.22 1981,18 -18,18"/>
<g id="clust1" class="cluster">
<title>cluster_definition</title>
<path fill="#ffffff" stroke="#dfe5ee" stroke-dasharray="5,2" d="M822,-8C822,-8 1943,-8 1943,-8 1949,-8 1955,-14 1955,-20 1955,-20 1955,-179.67 1955,-179.67 1955,-185.67 1949,-191.67 1943,-191.67 1943,-191.67 822,-191.67 822,-191.67 816,-191.67 810,-185.67 810,-179.67 810,-179.67 810,-20 810,-20 810,-14 816,-8 822,-8"/>
<text xml:space="preserve" text-anchor="middle" x="1382.5" y="-170.57" font-family="Noto Sans KR" font-size="18.00" fill="#607086">Definition Data · static balance</text>
</g>
<g id="clust2" class="cluster">
<title>cluster_runtime</title>
<path fill="#ffffff" stroke="#dfe5ee" stroke-dasharray="5,2" d="M936,-229.67C936,-229.67 1789,-229.67 1789,-229.67 1795,-229.67 1801,-235.67 1801,-241.67 1801,-241.67 1801,-698.51 1801,-698.51 1801,-704.51 1795,-710.51 1789,-710.51 1789,-710.51 936,-710.51 936,-710.51 930,-710.51 924,-704.51 924,-698.51 924,-698.51 924,-241.67 924,-241.67 924,-235.67 930,-229.67 936,-229.67"/>
<text xml:space="preserve" text-anchor="middle" x="1362.5" y="-689.41" font-family="Noto Sans KR" font-size="18.00" fill="#607086">Project&#45;specific runtime models · availability and one execution</text>
</g>
<g id="clust3" class="cluster">
<title>cluster_log</title>
<path fill="#ffffff" stroke="#dfe5ee" stroke-dasharray="5,2" d="M20,-764.76C20,-764.76 1911,-764.76 1911,-764.76 1917,-764.76 1923,-770.76 1923,-776.76 1923,-776.76 1923,-847.22 1923,-847.22 1923,-853.22 1917,-859.22 1911,-859.22 1911,-859.22 20,-859.22 20,-859.22 14,-859.22 8,-853.22 8,-847.22 8,-847.22 8,-776.76 8,-776.76 8,-770.76 14,-764.76 20,-764.76"/>
<text xml:space="preserve" text-anchor="middle" x="965.5" y="-838.12" font-family="Noto Sans KR" font-size="18.00" fill="#607086">Input / Result / Observation</text>
</g>
<!-- SkillDef -->
<g id="node1" class="node">
<title>SkillDef</title>
<path fill="#fff7e6" stroke="#e0ad4e" stroke-width="1.4" d="M1412.45,-161.92C1412.45,-161.92 1307.55,-161.92 1307.55,-161.92 1301.55,-161.92 1295.55,-155.92 1295.55,-149.92 1295.55,-149.92 1295.55,-126.46 1295.55,-126.46 1295.55,-120.46 1301.55,-114.46 1307.55,-114.46 1307.55,-114.46 1412.45,-114.46 1412.45,-114.46 1418.45,-114.46 1424.45,-120.46 1424.45,-126.46 1424.45,-126.46 1424.45,-149.92 1424.45,-149.92 1424.45,-155.92 1418.45,-161.92 1412.45,-161.92"/>
<text xml:space="preserve" text-anchor="middle" x="1360" y="-142.14" font-family="Noto Sans KR" font-size="14.00" fill="#182033">SkillDefinition</text>
<text xml:space="preserve" text-anchor="middle" x="1360" y="-124.89" font-family="Noto Sans KR" font-size="14.00" fill="#182033">id · tags · display</text>
</g>
<!-- CostDef -->
<g id="node2" class="node">
<title>CostDef</title>
<path fill="#fff0f3" stroke="#e07b91" stroke-width="1.4" d="M988.21,-55.46C988.21,-55.46 821.79,-55.46 821.79,-55.46 815.79,-55.46 809.79,-49.46 809.79,-43.46 809.79,-43.46 809.79,-20 809.79,-20 809.79,-14 815.79,-8 821.79,-8 821.79,-8 988.21,-8 988.21,-8 994.21,-8 1000.21,-14 1000.21,-20 1000.21,-20 1000.21,-43.46 1000.21,-43.46 1000.21,-49.46 994.21,-55.46 988.21,-55.46"/>
<text xml:space="preserve" text-anchor="middle" x="905" y="-35.68" font-family="Noto Sans KR" font-size="14.00" fill="#182033">CostDefinition</text>
<text xml:space="preserve" text-anchor="middle" x="905" y="-18.43" font-family="Noto Sans KR" font-size="14.00" fill="#182033">resource · amount · timing</text>
</g>
<!-- SkillDef&#45;&gt;CostDef -->
<g id="edge16" class="edge">
<title>SkillDef&#45;&gt;CostDef</title>
<path fill="none" stroke="#b28a2f" stroke-width="1.3" d="M1295.29,-122.33C1221.08,-105.3 1098.33,-77.12 1010.3,-56.91"/>
<polygon fill="#b28a2f" stroke="#b28a2f" stroke-width="1.3" points="1011.16,-54.23 1002.74,-55.17 1009.91,-59.69 1011.16,-54.23"/>
</g>
<!-- CooldownDef -->
<g id="node3" class="node">
<title>CooldownDef</title>
<path fill="#fff0f3" stroke="#e07b91" stroke-width="1.4" d="M1215.58,-55.46C1215.58,-55.46 1054.42,-55.46 1054.42,-55.46 1048.42,-55.46 1042.42,-49.46 1042.42,-43.46 1042.42,-43.46 1042.42,-20 1042.42,-20 1042.42,-14 1048.42,-8 1054.42,-8 1054.42,-8 1215.58,-8 1215.58,-8 1221.58,-8 1227.58,-14 1227.58,-20 1227.58,-20 1227.58,-43.46 1227.58,-43.46 1227.58,-49.46 1221.58,-55.46 1215.58,-55.46"/>
<text xml:space="preserve" text-anchor="middle" x="1135" y="-35.68" font-family="Noto Sans KR" font-size="14.00" fill="#182033">CooldownDefinition</text>
<text xml:space="preserve" text-anchor="middle" x="1135" y="-18.43" font-family="Noto Sans KR" font-size="14.00" fill="#182033">duration · group · charges</text>
</g>
<!-- SkillDef&#45;&gt;CooldownDef -->
<g id="edge17" class="edge">
<title>SkillDef&#45;&gt;CooldownDef</title>
<path fill="none" stroke="#b28a2f" stroke-width="1.3" d="M1309.79,-113.88C1275.64,-98.02 1230.31,-76.98 1194.37,-60.29"/>
<polygon fill="#b28a2f" stroke="#b28a2f" stroke-width="1.3" points="1195.67,-57.81 1187.23,-56.98 1193.31,-62.89 1195.67,-57.81"/>
</g>
<!-- TargetDef -->
<g id="node4" class="node">
<title>TargetDef</title>
<path fill="#e9fbff" stroke="#54b7cf" stroke-width="1.4" d="M1438.33,-55.46C1438.33,-55.46 1281.67,-55.46 1281.67,-55.46 1275.67,-55.46 1269.67,-49.46 1269.67,-43.46 1269.67,-43.46 1269.67,-20 1269.67,-20 1269.67,-14 1275.67,-8 1281.67,-8 1281.67,-8 1438.33,-8 1438.33,-8 1444.33,-8 1450.33,-14 1450.33,-20 1450.33,-20 1450.33,-43.46 1450.33,-43.46 1450.33,-49.46 1444.33,-55.46 1438.33,-55.46"/>
<text xml:space="preserve" text-anchor="middle" x="1360" y="-35.68" font-family="Noto Sans KR" font-size="14.00" fill="#182033">TargetingSpec</text>
<text xml:space="preserve" text-anchor="middle" x="1360" y="-18.43" font-family="Noto Sans KR" font-size="14.00" fill="#182033">type · range · line of sight</text>
</g>
<!-- SkillDef&#45;&gt;TargetDef -->
<g id="edge18" class="edge">
<title>SkillDef&#45;&gt;TargetDef</title>
<path fill="none" stroke="#b28a2f" stroke-width="1.3" d="M1360,-114.01C1360,-99.81 1360,-81.41 1360,-65.71"/>
<polygon fill="#b28a2f" stroke="#b28a2f" stroke-width="1.3" points="1362.8,-65.82 1360,-57.82 1357.2,-65.82 1362.8,-65.82"/>
</g>
<!-- TimelineDef -->
<g id="node5" class="node">
<title>TimelineDef</title>
<path fill="#e9fbff" stroke="#54b7cf" stroke-width="1.4" d="M1667.33,-55.46C1667.33,-55.46 1504.67,-55.46 1504.67,-55.46 1498.67,-55.46 1492.67,-49.46 1492.67,-43.46 1492.67,-43.46 1492.67,-20 1492.67,-20 1492.67,-14 1498.67,-8 1504.67,-8 1504.67,-8 1667.33,-8 1667.33,-8 1673.33,-8 1679.33,-14 1679.33,-20 1679.33,-20 1679.33,-43.46 1679.33,-43.46 1679.33,-49.46 1673.33,-55.46 1667.33,-55.46"/>
<text xml:space="preserve" text-anchor="middle" x="1586" y="-35.68" font-family="Noto Sans KR" font-size="14.00" fill="#182033">TimelineDefinition</text>
<text xml:space="preserve" text-anchor="middle" x="1586" y="-18.43" font-family="Noto Sans KR" font-size="14.00" fill="#182033">phases · markers · cancels</text>
</g>
<!-- SkillDef&#45;&gt;TimelineDef -->
<g id="edge19" class="edge">
<title>SkillDef&#45;&gt;TimelineDef</title>
<path fill="none" stroke="#b28a2f" stroke-width="1.3" d="M1389.58,-113.91C1407.53,-99.78 1427,-84.46 1427,-84.46 1427,-84.46 1465.74,-71.85 1504.98,-59.09"/>
<polygon fill="#b28a2f" stroke="#b28a2f" stroke-width="1.3" points="1505.8,-61.77 1512.54,-56.63 1504.06,-56.44 1505.8,-61.77"/>
</g>
<!-- BundleRef -->
<g id="node6" class="node">
<title>BundleRef</title>
<path fill="#fff7e6" stroke="#e0ad4e" stroke-width="1.4" d="M1942.58,-55.46C1942.58,-55.46 1733.42,-55.46 1733.42,-55.46 1727.42,-55.46 1721.42,-49.46 1721.42,-43.46 1721.42,-43.46 1721.42,-20 1721.42,-20 1721.42,-14 1727.42,-8 1733.42,-8 1733.42,-8 1942.58,-8 1942.58,-8 1948.58,-8 1954.58,-14 1954.58,-20 1954.58,-20 1954.58,-43.46 1954.58,-43.46 1954.58,-49.46 1948.58,-55.46 1942.58,-55.46"/>
<text xml:space="preserve" text-anchor="middle" x="1838" y="-35.68" font-family="Noto Sans KR" font-size="14.00" fill="#182033">EffectBundleRef</text>
<text xml:space="preserve" text-anchor="middle" x="1838" y="-18.43" font-family="Noto Sans KR" font-size="14.00" fill="#182033">primary effects · reactions · policy</text>
</g>
<!-- SkillDef&#45;&gt;BundleRef -->
<g id="edge20" class="edge">
<title>SkillDef&#45;&gt;BundleRef</title>
<path fill="none" stroke="#b28a2f" stroke-width="1.3" d="M1397.53,-113.91C1420.3,-99.78 1445,-84.46 1445,-84.46 1445,-84.46 1700,-55.46 1700,-55.46 1700,-55.46 1704.32,-54.75 1711.43,-53.58"/>
<polygon fill="#b28a2f" stroke="#b28a2f" stroke-width="1.3" points="1711.58,-56.39 1719.02,-52.33 1710.67,-50.87 1711.58,-56.39"/>
</g>
<!-- EffectBundlePlan -->
<g id="node11" class="node">
<title>EffectBundlePlan</title>
<path fill="#eefbf6" stroke="#61b99a" stroke-width="1.4" d="M1788.7,-540.8C1788.7,-540.8 1523.3,-540.8 1523.3,-540.8 1517.3,-540.8 1511.3,-534.8 1511.3,-528.8 1511.3,-528.8 1511.3,-488.09 1511.3,-488.09 1511.3,-482.09 1517.3,-476.09 1523.3,-476.09 1523.3,-476.09 1788.7,-476.09 1788.7,-476.09 1794.7,-476.09 1800.7,-482.09 1800.7,-488.09 1800.7,-488.09 1800.7,-528.8 1800.7,-528.8 1800.7,-534.8 1794.7,-540.8 1788.7,-540.8"/>
<text xml:space="preserve" text-anchor="middle" x="1656" y="-521.02" font-family="Noto Sans KR" font-size="14.00" fill="#182033">&lt;&lt;public Effect contract&gt;&gt; EffectBundlePlan</text>
<text xml:space="preserve" text-anchor="middle" x="1656" y="-503.77" font-family="Noto Sans KR" font-size="14.00" fill="#182033">BundleId · PrimaryOperations · Reactions</text>
<text xml:space="preserve" text-anchor="middle" x="1656" y="-486.52" font-family="Noto Sans KR" font-size="14.00" fill="#182033">prepared by public IEffectPlanner.Prepare</text>
</g>
<!-- BundleRef&#45;&gt;EffectBundlePlan -->
<g id="edge21" class="edge">
<title>BundleRef&#45;&gt;EffectBundlePlan</title>
<path fill="none" stroke="#3f8fa7" stroke-width="1.3" stroke-dasharray="5,2" d="M1829.07,-56.02C1800.14,-131.48 1708.69,-370 1671.73,-466.41"/>
<polygon fill="#3f8fa7" stroke="#3f8fa7" stroke-width="1.3" points="1669.18,-465.25 1668.93,-473.72 1674.41,-467.26 1669.18,-465.25"/>
</g>
<!-- SkillBook -->
<g id="node7" class="node">
<title>SkillBook</title>
<path fill="#eaf0ff" stroke="#8292f7" stroke-width="1.4" d="M1027.7,-672.14C1027.7,-672.14 936.29,-672.14 936.29,-672.14 930.29,-672.14 924.29,-666.14 924.29,-660.14 924.29,-660.14 924.29,-636.68 924.29,-636.68 924.29,-630.68 930.29,-624.68 936.29,-624.68 936.29,-624.68 1027.7,-624.68 1027.7,-624.68 1033.7,-624.68 1039.7,-630.68 1039.7,-636.68 1039.7,-636.68 1039.7,-660.14 1039.7,-660.14 1039.7,-666.14 1033.7,-672.14 1027.7,-672.14"/>
<text xml:space="preserve" text-anchor="middle" x="982" y="-652.36" font-family="Noto Sans KR" font-size="14.00" fill="#182033">SkillBook</text>
<text xml:space="preserve" text-anchor="middle" x="982" y="-635.11" font-family="Noto Sans KR" font-size="14.00" fill="#182033">learned skill ids</text>
</g>
<!-- SkillRuntime -->
<g id="node8" class="node">
<title>SkillRuntime</title>
<path fill="#eaf0ff" stroke="#8292f7" stroke-width="1.4" d="M1477.33,-680.76C1477.33,-680.76 1212.67,-680.76 1212.67,-680.76 1206.67,-680.76 1200.67,-674.76 1200.67,-668.76 1200.67,-668.76 1200.67,-628.05 1200.67,-628.05 1200.67,-622.05 1206.67,-616.05 1212.67,-616.05 1212.67,-616.05 1477.33,-616.05 1477.33,-616.05 1483.33,-616.05 1489.33,-622.05 1489.33,-628.05 1489.33,-628.05 1489.33,-668.76 1489.33,-668.76 1489.33,-674.76 1483.33,-680.76 1477.33,-680.76"/>
<text xml:space="preserve" text-anchor="middle" x="1345" y="-660.98" font-family="Noto Sans KR" font-size="14.00" fill="#182033">SkillRuntime</text>
<text xml:space="preserve" text-anchor="middle" x="1345" y="-643.73" font-family="Noto Sans KR" font-size="14.00" fill="#182033">learned level · cooldown · charges</text>
<text xml:space="preserve" text-anchor="middle" x="1345" y="-626.48" font-family="Noto Sans KR" font-size="14.00" fill="#182033">definition id · accepts committed mutation</text>
</g>
<!-- SkillBook&#45;&gt;SkillRuntime -->
<g id="edge6" class="edge">
<title>SkillBook&#45;&gt;SkillRuntime</title>
<path fill="none" stroke="#59687e" stroke-width="1.3" d="M1040.32,-648.41C1080.98,-648.41 1137.25,-648.41 1190.38,-648.41"/>
<polygon fill="#59687e" stroke="#59687e" stroke-width="1.3" points="1190.3,-651.21 1198.3,-648.41 1190.3,-645.61 1190.3,-651.21"/>
<text xml:space="preserve" text-anchor="middle" x="1120.19" y="-655.36" font-family="Noto Sans KR" font-size="14.00" fill="#46566e">owns runtime state</text>
</g>
<!-- SkillRuntime&#45;&gt;SkillDef -->
<g id="edge14" class="edge">
<title>SkillRuntime&#45;&gt;SkillDef</title>
<path fill="none" stroke="#b28a2f" stroke-width="1.3" stroke-dasharray="5,2" d="M1489.77,-619.89C1502.1,-617.55 1510,-616.05 1510,-616.05 1510,-616.05 1785,-587.05 1785,-587.05 1785,-587.05 1897,-540.8 1897,-540.8 1897,-540.8 1897,-476.09 1897,-476.09 1897,-476.09 1801,-447.09 1801,-447.09 1801,-447.09 1801,-446.09 1801,-446.09 1801,-446.09 1858,-417.09 1858,-417.09 1858,-417.09 1858,-352.38 1858,-352.38 1858,-352.38 1814,-306.13 1814,-306.13 1814,-306.13 1560.85,-213.04 1432.62,-165.89"/>
<polygon fill="#b28a2f" stroke="#b28a2f" stroke-width="1.3" points="1433.93,-163.39 1425.45,-163.26 1431.99,-168.65 1433.93,-163.39"/>
</g>
<!-- ReleasePlan -->
<g id="node12" class="node">
<title>ReleasePlan</title>
<path fill="#e9fbff" stroke="#54b7cf" stroke-width="1.4" d="M1494.58,-417.09C1494.58,-417.09 1225.42,-417.09 1225.42,-417.09 1219.42,-417.09 1213.42,-411.09 1213.42,-405.09 1213.42,-405.09 1213.42,-364.38 1213.42,-364.38 1213.42,-358.38 1219.42,-352.38 1225.42,-352.38 1225.42,-352.38 1494.58,-352.38 1494.58,-352.38 1500.58,-352.38 1506.58,-358.38 1506.58,-364.38 1506.58,-364.38 1506.58,-405.09 1506.58,-405.09 1506.58,-411.09 1500.58,-417.09 1494.58,-417.09"/>
<text xml:space="preserve" text-anchor="middle" x="1360" y="-397.31" font-family="Noto Sans KR" font-size="14.00" fill="#182033">&lt;&lt;internal project model&gt;&gt; SkillReleasePlan</text>
<text xml:space="preserve" text-anchor="middle" x="1360" y="-380.06" font-family="Noto Sans KR" font-size="14.00" fill="#182033">SkillMutation + EffectBundlePlan</text>
<text xml:space="preserve" text-anchor="middle" x="1360" y="-362.81" font-family="Noto Sans KR" font-size="14.00" fill="#182033">version preconditions</text>
</g>
<!-- SkillRuntime&#45;&gt;ReleasePlan -->
<g id="edge10" class="edge">
<title>SkillRuntime&#45;&gt;ReleasePlan</title>
<path fill="none" stroke="#59687e" stroke-width="1.3" d="M1222.4,-615.37C1167.11,-600.93 1114,-587.05 1114,-587.05 1114,-587.05 998.25,-540.8 998.25,-540.8 998.25,-540.8 998.25,-476.09 998.25,-476.09 998.25,-476.09 1119.96,-445.69 1222.18,-420.16"/>
<polygon fill="#59687e" stroke="#59687e" stroke-width="1.3" points="1222.7,-422.91 1229.79,-418.26 1221.35,-417.48 1222.7,-422.91"/>
<text xml:space="preserve" text-anchor="middle" x="1097.62" y="-503.77" font-family="Noto Sans KR" font-size="14.00" fill="#46566e">snapshot + version precondition</text>
</g>
<!-- SkillExecution -->
<g id="node9" class="node">
<title>SkillExecution</title>
<path fill="#eaf0ff" stroke="#8292f7" stroke-width="1.4" d="M1722.95,-680.76C1722.95,-680.76 1543.05,-680.76 1543.05,-680.76 1537.05,-680.76 1531.05,-674.76 1531.05,-668.76 1531.05,-668.76 1531.05,-628.05 1531.05,-628.05 1531.05,-622.05 1537.05,-616.05 1543.05,-616.05 1543.05,-616.05 1722.95,-616.05 1722.95,-616.05 1728.95,-616.05 1734.95,-622.05 1734.95,-628.05 1734.95,-628.05 1734.95,-668.76 1734.95,-668.76 1734.95,-674.76 1728.95,-680.76 1722.95,-680.76"/>
<text xml:space="preserve" text-anchor="middle" x="1633" y="-660.98" font-family="Noto Sans KR" font-size="14.00" fill="#182033">&lt;&lt;internal&gt;&gt; SkillExecution</text>
<text xml:space="preserve" text-anchor="middle" x="1633" y="-643.73" font-family="Noto Sans KR" font-size="14.00" fill="#182033">execution id · phase · marker</text>
<text xml:space="preserve" text-anchor="middle" x="1633" y="-626.48" font-family="Noto Sans KR" font-size="14.00" fill="#182033">definition id</text>
</g>
<!-- SkillExecution&#45;&gt;SkillDef -->
<g id="edge15" class="edge">
<title>SkillExecution&#45;&gt;SkillDef</title>
<path fill="none" stroke="#b28a2f" stroke-width="1.3" stroke-dasharray="5,2" d="M1735.5,-617.23C1786.75,-602.14 1838,-587.05 1838,-587.05 1838,-587.05 1929,-540.8 1929,-540.8 1929,-540.8 1929,-476.09 1929,-476.09 1929,-476.09 1890,-352.38 1890,-352.38 1890,-352.38 1854,-306.13 1854,-306.13 1854,-306.13 1702,-229.67 1702,-229.67 1702,-229.67 1535.29,-185.56 1434.66,-158.94"/>
<polygon fill="#b28a2f" stroke="#b28a2f" stroke-width="1.3" points="1435.48,-156.26 1427.03,-156.92 1434.05,-161.68 1435.48,-156.26"/>
</g>
<!-- SkillMutation -->
<g id="node10" class="node">
<title>SkillMutation</title>
<path fill="#eefbf6" stroke="#61b99a" stroke-width="1.4" d="M1457.08,-540.8C1457.08,-540.8 1262.92,-540.8 1262.92,-540.8 1256.92,-540.8 1250.92,-534.8 1250.92,-528.8 1250.92,-528.8 1250.92,-488.09 1250.92,-488.09 1250.92,-482.09 1256.92,-476.09 1262.92,-476.09 1262.92,-476.09 1457.08,-476.09 1457.08,-476.09 1463.08,-476.09 1469.08,-482.09 1469.08,-488.09 1469.08,-488.09 1469.08,-528.8 1469.08,-528.8 1469.08,-534.8 1463.08,-540.8 1457.08,-540.8"/>
<text xml:space="preserve" text-anchor="middle" x="1360" y="-521.02" font-family="Noto Sans KR" font-size="14.00" fill="#182033">SkillMutation</text>
<text xml:space="preserve" text-anchor="middle" x="1360" y="-503.77" font-family="Noto Sans KR" font-size="14.00" fill="#182033">cost delta · cooldown ready tick</text>
<text xml:space="preserve" text-anchor="middle" x="1360" y="-486.52" font-family="Noto Sans KR" font-size="14.00" fill="#182033">charge delta</text>
</g>
<!-- SkillExecution&#45;&gt;SkillMutation -->
<g id="edge7" class="edge">
<title>SkillExecution&#45;&gt;SkillMutation</title>
<path fill="none" stroke="#59687e" stroke-width="1.3" d="M1569.68,-615.41C1528.42,-594.56 1474.49,-567.3 1431.66,-545.66"/>
<polygon fill="#59687e" stroke="#59687e" stroke-width="1.3" points="1433.13,-543.27 1424.73,-542.16 1430.61,-548.26 1433.13,-543.27"/>
<text xml:space="preserve" text-anchor="middle" x="1608.47" y="-573.75" font-family="Noto Sans KR" font-size="14.00" fill="#46566e">PrepareRelease · SkillMutation</text>
</g>
<!-- SkillMutation&#45;&gt;ReleasePlan -->
<g id="edge8" class="edge">
<title>SkillMutation&#45;&gt;ReleasePlan</title>
<path fill="none" stroke="#59687e" stroke-width="1.3" d="M1360,-475.47C1360,-460.65 1360,-442.87 1360,-427.05"/>
<polygon fill="#59687e" stroke="#59687e" stroke-width="1.3" points="1362.8,-427.47 1360,-419.47 1357.2,-427.47 1362.8,-427.47"/>
</g>
<!-- EffectBundlePlan&#45;&gt;ReleasePlan -->
<g id="edge9" class="edge">
<title>EffectBundlePlan&#45;&gt;ReleasePlan</title>
<path fill="none" stroke="#59687e" stroke-width="1.3" d="M1578.23,-475.47C1537.86,-458.87 1488.41,-438.53 1446.79,-421.42"/>
<polygon fill="#59687e" stroke="#59687e" stroke-width="1.3" points="1448.05,-418.91 1439.58,-418.46 1445.92,-424.09 1448.05,-418.91"/>
</g>
<!-- CommitReceipt -->
<g id="node13" class="node">
<title>CommitReceipt</title>
<path fill="#fff7e6" stroke="#e0ad4e" stroke-width="1.4" d="M1456.33,-277.13C1456.33,-277.13 1263.67,-277.13 1263.67,-277.13 1257.67,-277.13 1251.67,-271.13 1251.67,-265.13 1251.67,-265.13 1251.67,-241.67 1251.67,-241.67 1251.67,-235.67 1257.67,-229.67 1263.67,-229.67 1263.67,-229.67 1456.33,-229.67 1456.33,-229.67 1462.33,-229.67 1468.33,-235.67 1468.33,-241.67 1468.33,-241.67 1468.33,-265.13 1468.33,-265.13 1468.33,-271.13 1462.33,-277.13 1456.33,-277.13"/>
<text xml:space="preserve" text-anchor="middle" x="1360" y="-257.35" font-family="Noto Sans KR" font-size="14.00" fill="#182033">CommitPlan → CommitReceipt</text>
<text xml:space="preserve" text-anchor="middle" x="1360" y="-240.1" font-family="Noto Sans KR" font-size="14.00" fill="#182033">state + outbox atomic</text>
</g>
<!-- ReleasePlan&#45;&gt;CommitReceipt -->
<g id="edge11" class="edge">
<title>ReleasePlan&#45;&gt;CommitReceipt</title>
<path fill="none" stroke="#59687e" stroke-width="1.3" d="M1360,-351.76C1360,-332.14 1360,-307.08 1360,-287.29"/>
<polygon fill="#59687e" stroke="#59687e" stroke-width="1.3" points="1362.8,-287.45 1360,-279.45 1357.2,-287.45 1362.8,-287.45"/>
<text xml:space="preserve" text-anchor="middle" x="1449.25" y="-310.08" font-family="Noto Sans KR" font-size="14.00" fill="#46566e">IRuntimeCommitter.Commit</text>
</g>
<!-- CommitReceipt&#45;&gt;SkillDef -->
<!-- CommitReceipt&#45;&gt;SkillRuntime -->
<g id="edge12" class="edge">
<title>CommitReceipt&#45;&gt;SkillRuntime</title>
<path fill="none" stroke="#4f8b74" stroke-width="1.3" stroke-dasharray="5,2" d="M1445.38,-277.77C1495.46,-291.48 1549,-306.13 1549,-306.13 1549,-306.13 1549,-323.38 1549,-323.38 1549,-323.38 1528,-417.09 1528,-417.09 1528,-417.09 1230,-476.09 1230,-476.09 1230,-476.09 1230,-540.8 1230,-540.8 1230,-540.8 1270.64,-578.47 1303.6,-609.02"/>
<polygon fill="#4f8b74" stroke="#4f8b74" stroke-width="1.3" points="1301.28,-610.7 1309.05,-614.08 1305.09,-606.59 1301.28,-610.7"/>
</g>
<!-- SkillResult -->
<g id="node17" class="node">
<title>SkillResult</title>
<path fill="#f0f3f9" stroke="#99a8bd" stroke-width="1.4" d="M1477.45,-829.47C1477.45,-829.47 1288.55,-829.47 1288.55,-829.47 1282.55,-829.47 1276.55,-823.47 1276.55,-817.47 1276.55,-817.47 1276.55,-776.76 1276.55,-776.76 1276.55,-770.76 1282.55,-764.76 1288.55,-764.76 1288.55,-764.76 1477.45,-764.76 1477.45,-764.76 1483.45,-764.76 1489.45,-770.76 1489.45,-776.76 1489.45,-776.76 1489.45,-817.47 1489.45,-817.47 1489.45,-823.47 1483.45,-829.47 1477.45,-829.47"/>
<text xml:space="preserve" text-anchor="middle" x="1383" y="-809.69" font-family="Noto Sans KR" font-size="14.00" fill="#182033">&lt;&lt;public contract&gt;&gt; SkillResult</text>
<text xml:space="preserve" text-anchor="middle" x="1383" y="-792.44" font-family="Noto Sans KR" font-size="14.00" fill="#182033">Succeeded · FailureReason?</text>
<text xml:space="preserve" text-anchor="middle" x="1383" y="-775.19" font-family="Noto Sans KR" font-size="14.00" fill="#182033">Effects · public CommitReceipt</text>
</g>
<!-- CommitReceipt&#45;&gt;SkillResult -->
<g id="edge13" class="edge">
<title>CommitReceipt&#45;&gt;SkillResult</title>
<path fill="none" stroke="#59687e" stroke-width="1.3" stroke-dasharray="5,2" d="M1450.35,-277.77C1503.35,-291.48 1560,-306.13 1560,-306.13 1560,-306.13 1822,-476.09 1822,-476.09 1822,-476.09 1822,-540.8 1822,-540.8 1822,-540.8 1714,-587.05 1714,-587.05 1714,-587.05 903,-616.05 903,-616.05 903,-616.05 903,-710.51 903,-710.51 903,-710.51 1124.13,-749.95 1266.21,-775.29"/>
<polygon fill="#59687e" stroke="#59687e" stroke-width="1.3" points="1265.57,-778.02 1273.94,-776.66 1266.55,-772.5 1265.57,-778.02"/>
</g>
<!-- SkillRequest -->
<g id="node14" class="node">
<title>SkillRequest</title>
<path fill="#eefbf6" stroke="#61b99a" stroke-width="1.4" d="M251.83,-829.47C251.83,-829.47 20.17,-829.47 20.17,-829.47 14.17,-829.47 8.17,-823.47 8.17,-817.47 8.17,-817.47 8.17,-776.76 8.17,-776.76 8.17,-770.76 14.17,-764.76 20.17,-764.76 20.17,-764.76 251.83,-764.76 251.83,-764.76 257.83,-764.76 263.83,-770.76 263.83,-776.76 263.83,-776.76 263.83,-817.47 263.83,-817.47 263.83,-823.47 257.83,-829.47 251.83,-829.47"/>
<text xml:space="preserve" text-anchor="middle" x="136" y="-809.69" font-family="Noto Sans KR" font-size="14.00" fill="#182033">&lt;&lt;public contract&gt;&gt; SkillRequest</text>
<text xml:space="preserve" text-anchor="middle" x="136" y="-792.44" font-family="Noto Sans KR" font-size="14.00" fill="#182033">CommandId · CasterId · SkillId</text>
<text xml:space="preserve" text-anchor="middle" x="136" y="-775.19" font-family="Noto Sans KR" font-size="14.00" fill="#182033">TargetId? · RequestedTick · RootSeed</text>
</g>
<!-- SkillValidator -->
<g id="node15" class="node">
<title>SkillValidator</title>
<path fill="#f3eefc" stroke="#ab8fe0" stroke-width="1.4" d="M689.46,-820.85C689.46,-820.85 428.54,-820.85 428.54,-820.85 422.54,-820.85 416.54,-814.85 416.54,-808.85 416.54,-808.85 416.54,-785.39 416.54,-785.39 416.54,-779.39 422.54,-773.39 428.54,-773.39 428.54,-773.39 689.46,-773.39 689.46,-773.39 695.46,-773.39 701.46,-779.39 701.46,-785.39 701.46,-785.39 701.46,-808.85 701.46,-808.85 701.46,-814.85 695.46,-820.85 689.46,-820.85"/>
<text xml:space="preserve" text-anchor="middle" x="559" y="-801.07" font-family="Noto Sans KR" font-size="14.00" fill="#182033">&lt;&lt;public interface&gt;&gt; ISkillRequestValidator</text>
<text xml:space="preserve" text-anchor="middle" x="559" y="-783.82" font-family="Noto Sans KR" font-size="14.00" fill="#182033">Validate(SkillRequest)</text>
</g>
<!-- SkillRequest&#45;&gt;SkillValidator -->
<g id="edge1" class="edge">
<title>SkillRequest&#45;&gt;SkillValidator</title>
<path fill="none" stroke="#59687e" stroke-width="1.3" d="M264.35,-797.12C309.06,-797.12 359.67,-797.12 406.17,-797.12"/>
<polygon fill="#59687e" stroke="#59687e" stroke-width="1.3" points="406.06,-799.91 414.06,-797.11 406.06,-794.31 406.06,-799.91"/>
<text xml:space="preserve" text-anchor="middle" x="340.19" y="-804.07" font-family="Noto Sans KR" font-size="14.00" fill="#46566e">validation request</text>
</g>
<!-- SkillDecision -->
<g id="node16" class="node">
<title>SkillDecision</title>
<path fill="#f3eefc" stroke="#ab8fe0" stroke-width="1.4" d="M1082.83,-820.85C1082.83,-820.85 881.17,-820.85 881.17,-820.85 875.17,-820.85 869.17,-814.85 869.17,-808.85 869.17,-808.85 869.17,-785.39 869.17,-785.39 869.17,-779.39 875.17,-773.39 881.17,-773.39 881.17,-773.39 1082.83,-773.39 1082.83,-773.39 1088.83,-773.39 1094.83,-779.39 1094.83,-785.39 1094.83,-785.39 1094.83,-808.85 1094.83,-808.85 1094.83,-814.85 1088.83,-820.85 1082.83,-820.85"/>
<text xml:space="preserve" text-anchor="middle" x="982" y="-801.07" font-family="Noto Sans KR" font-size="14.00" fill="#182033">&lt;&lt;public contract&gt;&gt; SkillDecision</text>
<text xml:space="preserve" text-anchor="middle" x="982" y="-783.82" font-family="Noto Sans KR" font-size="14.00" fill="#182033">CanExecute · FailureReason?</text>
</g>
<!-- SkillValidator&#45;&gt;SkillDecision -->
<g id="edge2" class="edge">
<title>SkillValidator&#45;&gt;SkillDecision</title>
<path fill="none" stroke="#59687e" stroke-width="1.3" d="M701.91,-797.12C752.83,-797.12 809.68,-797.12 858.8,-797.12"/>
<polygon fill="#59687e" stroke="#59687e" stroke-width="1.3" points="858.55,-799.92 866.55,-797.12 858.55,-794.32 858.55,-799.92"/>
<text xml:space="preserve" text-anchor="middle" x="785.31" y="-804.07" font-family="Noto Sans KR" font-size="14.00" fill="#46566e">returns SkillDecision</text>
</g>
<!-- SkillDecision&#45;&gt;SkillBook -->
<!-- SkillDecision&#45;&gt;SkillExecution -->
<g id="edge5" class="edge">
<title>SkillDecision&#45;&gt;SkillExecution</title>
<path fill="none" stroke="#4f8b74" stroke-width="1.3" d="M1095.27,-777.75C1250.41,-752.6 1510,-710.51 1510,-710.51 1510,-710.51 1533.5,-698.84 1559.95,-685.69"/>
<polygon fill="#4f8b74" stroke="#4f8b74" stroke-width="1.3" points="1560.94,-688.33 1566.86,-682.26 1558.45,-683.32 1560.94,-688.33"/>
<text xml:space="preserve" text-anchor="middle" x="1536.09" y="-722.46" font-family="Noto Sans KR" font-size="14.00" fill="#3f735f">accepted · Begin(request)</text>
</g>
<!-- SkillDecision&#45;&gt;SkillResult -->
<g id="edge3" class="edge">
<title>SkillDecision&#45;&gt;SkillResult</title>
<path fill="none" stroke="#c35f76" stroke-width="1.3" d="M1095.3,-797.12C1148.72,-797.12 1212.39,-797.12 1266.24,-797.12"/>
<polygon fill="#c35f76" stroke="#c35f76" stroke-width="1.3" points="1266.21,-799.92 1274.21,-797.12 1266.21,-794.32 1266.21,-799.92"/>
<text xml:space="preserve" text-anchor="middle" x="1185.69" y="-804.07" font-family="Noto Sans KR" font-size="14.00" fill="#9d4358">rejected · public result</text>
</g>
<!-- SkillTrace -->
<g id="node18" class="node">
<title>SkillTrace</title>
<path fill="#f0f3f9" stroke="#99a8bd" stroke-width="1.4" d="M1911.33,-829.47C1911.33,-829.47 1730.67,-829.47 1730.67,-829.47 1724.67,-829.47 1718.67,-823.47 1718.67,-817.47 1718.67,-817.47 1718.67,-776.76 1718.67,-776.76 1718.67,-770.76 1724.67,-764.76 1730.67,-764.76 1730.67,-764.76 1911.33,-764.76 1911.33,-764.76 1917.33,-764.76 1923.33,-770.76 1923.33,-776.76 1923.33,-776.76 1923.33,-817.47 1923.33,-817.47 1923.33,-823.47 1917.33,-829.47 1911.33,-829.47"/>
<text xml:space="preserve" text-anchor="middle" x="1821" y="-809.69" font-family="Noto Sans KR" font-size="14.00" fill="#182033">DebugTrace / outbox</text>
<text xml:space="preserve" text-anchor="middle" x="1821" y="-792.44" font-family="Noto Sans KR" font-size="14.00" fill="#182033">separate calculation evidence</text>
<text xml:space="preserve" text-anchor="middle" x="1821" y="-775.19" font-family="Noto Sans KR" font-size="14.00" fill="#182033">and committed facts</text>
</g>
<!-- SkillResult&#45;&gt;SkillTrace -->
<g id="edge4" class="edge">
<title>SkillResult&#45;&gt;SkillTrace</title>
<path fill="none" stroke="#59687e" stroke-width="1.3" d="M1490.15,-797.12C1556.29,-797.12 1641.03,-797.12 1708.2,-797.12"/>
<polygon fill="#59687e" stroke="#59687e" stroke-width="1.3" points="1708.01,-799.92 1716.01,-797.12 1708.01,-794.32 1708.01,-799.92"/>
<text xml:space="preserve" text-anchor="middle" x="1604.06" y="-804.07" font-family="Noto Sans KR" font-size="14.00" fill="#46566e">correlates only · does not own</text>
</g>
</g>
</svg>
