<?xml version="1.0" encoding="UTF-8" standalone="no"?>
<!DOCTYPE svg PUBLIC "-//W3C//DTD SVG 1.1//EN"
 "http://www.w3.org/Graphics/SVG/1.1/DTD/svg11.dtd">
<!-- Generated by graphviz version 15.0.0 (20260523.1842)
 -->
<!-- Title: G Pages: 1 -->
<svg width="965pt" height="669pt"
 viewBox="9.00 9.00 956.00 661.00" xmlns="http://www.w3.org/2000/svg" xmlns:xlink="http://www.w3.org/1999/xlink">
<g id="graph0" class="graph" transform="scale(1 1) rotate(0) translate(26.64 642.64)">
<title>G</title>
<polygon fill="#ffffff" stroke="none" points="-18,18 -18,-634 929.85,-634 929.85,18 -18,18"/>
<g id="clust1" class="cluster">
<title>cluster_definition</title>
<path fill="#ffffff" stroke="#dfe5ee" stroke-dasharray="5,2" d="M570.07,-200C570.07,-200 891.85,-200 891.85,-200 897.85,-200 903.85,-206 903.85,-212 903.85,-212 903.85,-596 903.85,-596 903.85,-602 897.85,-608 891.85,-608 891.85,-608 570.07,-608 570.07,-608 564.07,-608 558.07,-602 558.07,-596 558.07,-596 558.07,-212 558.07,-212 558.07,-206 564.07,-200 570.07,-200"/>
<text xml:space="preserve" text-anchor="middle" x="730.96" y="-587.8" font-family="Noto Sans CJK KR" font-size="18.00" fill="#607086">Definition Data: 패치와 밸런싱 대상</text>
</g>
<g id="clust2" class="cluster">
<title>cluster_runtime</title>
<path fill="#ffffff" stroke="#dfe5ee" stroke-dasharray="5,2" d="M20,-213C20,-213 393.81,-213 393.81,-213 399.81,-213 405.81,-219 405.81,-225 405.81,-225 405.81,-360 405.81,-360 405.81,-366 399.81,-372 393.81,-372 393.81,-372 20,-372 20,-372 14,-372 8,-366 8,-360 8,-360 8,-225 8,-225 8,-219 14,-213 20,-213"/>
<text xml:space="preserve" text-anchor="middle" x="206.91" y="-351.8" font-family="Noto Sans CJK KR" font-size="18.00" fill="#607086">Availability State + Transient Execution</text>
</g>
<g id="clust3" class="cluster">
<title>cluster_log</title>
<path fill="#ffffff" stroke="#dfe5ee" stroke-dasharray="5,2" d="M268.2,-8C268.2,-8 663.06,-8 663.06,-8 669.06,-8 675.06,-14 675.06,-20 675.06,-20 675.06,-188 675.06,-188 675.06,-194 669.06,-200 663.06,-200 663.06,-200 268.2,-200 268.2,-200 262.2,-200 256.2,-194 256.2,-188 256.2,-188 256.2,-20 256.2,-20 256.2,-14 262.2,-8 268.2,-8"/>
<text xml:space="preserve" text-anchor="middle" x="465.63" y="-179.8" font-family="Noto Sans CJK KR" font-size="18.00" fill="#607086">Execution Log: 디버그와 리플레이</text>
</g>
<!-- SkillDef -->
<g id="node1" class="node">
<title>SkillDef</title>
<path fill="#fff7e6" stroke="#e0ad4e" stroke-width="1.4" d="M654.12,-337.28C654.12,-337.28 570.07,-337.28 570.07,-337.28 564.07,-337.28 558.07,-331.28 558.07,-325.28 558.07,-325.28 558.07,-302.72 558.07,-302.72 558.07,-296.72 564.07,-290.72 570.07,-290.72 570.07,-290.72 654.12,-290.72 654.12,-290.72 660.12,-290.72 666.12,-296.72 666.12,-302.72 666.12,-302.72 666.12,-325.28 666.12,-325.28 666.12,-331.28 660.12,-337.28 654.12,-337.28"/>
<text xml:space="preserve" text-anchor="middle" x="612.09" y="-318.2" font-family="Noto Sans CJK KR" font-size="14.00" fill="#182033">SkillDefinition&#13;</text>
<text xml:space="preserve" text-anchor="middle" x="612.09" y="-301.4" font-family="Noto Sans CJK KR" font-size="14.00" fill="#182033">id, tags, display</text>
</g>
<!-- CostDef -->
<g id="node2" class="node">
<title>CostDef</title>
<path fill="#fff0f3" stroke="#e07b91" stroke-width="1.4" d="M891.85,-246.28C891.85,-246.28 755.72,-246.28 755.72,-246.28 749.72,-246.28 743.72,-240.28 743.72,-234.28 743.72,-234.28 743.72,-211.72 743.72,-211.72 743.72,-205.72 749.72,-199.72 755.72,-199.72 755.72,-199.72 891.85,-199.72 891.85,-199.72 897.85,-199.72 903.85,-205.72 903.85,-211.72 903.85,-211.72 903.85,-234.28 903.85,-234.28 903.85,-240.28 897.85,-246.28 891.85,-246.28"/>
<text xml:space="preserve" text-anchor="middle" x="823.78" y="-227.2" font-family="Noto Sans CJK KR" font-size="14.00" fill="#182033">CostDefinition&#13;</text>
<text xml:space="preserve" text-anchor="middle" x="823.78" y="-210.4" font-family="Noto Sans CJK KR" font-size="14.00" fill="#182033">resource, amount, timing</text>
</g>
<!-- SkillDef&#45;&gt;CostDef -->
<g id="edge1" class="edge">
<title>SkillDef&#45;&gt;CostDef</title>
<path fill="none" stroke="#59687e" stroke-width="1.3" d="M629.85,-290.33C629.85,-267.08 629.85,-235.09 629.85,-235.09 629.85,-235.09 733.25,-235.09 733.25,-235.09"/>
<polygon fill="#59687e" stroke="#59687e" stroke-width="1.3" points="733.25,-237.89 741.25,-235.09 733.25,-232.29 733.25,-237.89"/>
<text xml:space="preserve" text-anchor="middle" x="709.39" y="-252.2" font-family="Noto Sans CJK KR" font-size="14.00" fill="#46566e">has</text>
</g>
<!-- CooldownDef -->
<g id="node3" class="node">
<title>CooldownDef</title>
<path fill="#fff0f3" stroke="#e07b91" stroke-width="1.4" d="M889.9,-329.28C889.9,-329.28 757.67,-329.28 757.67,-329.28 751.67,-329.28 745.67,-323.28 745.67,-317.28 745.67,-317.28 745.67,-294.72 745.67,-294.72 745.67,-288.72 751.67,-282.72 757.67,-282.72 757.67,-282.72 889.9,-282.72 889.9,-282.72 895.9,-282.72 901.9,-288.72 901.9,-294.72 901.9,-294.72 901.9,-317.28 901.9,-317.28 901.9,-323.28 895.9,-329.28 889.9,-329.28"/>
<text xml:space="preserve" text-anchor="middle" x="823.78" y="-310.2" font-family="Noto Sans CJK KR" font-size="14.00" fill="#182033">CooldownDefinition&#13;</text>
<text xml:space="preserve" text-anchor="middle" x="823.78" y="-293.4" font-family="Noto Sans CJK KR" font-size="14.00" fill="#182033">duration, group, charges</text>
</g>
<!-- SkillDef&#45;&gt;CooldownDef -->
<g id="edge2" class="edge">
<title>SkillDef&#45;&gt;CooldownDef</title>
<path fill="none" stroke="#59687e" stroke-width="1.3" d="M666.61,-310C666.61,-310 735.14,-310 735.14,-310"/>
<polygon fill="#59687e" stroke="#59687e" stroke-width="1.3" points="735.14,-312.8 743.14,-310 735.14,-307.2 735.14,-312.8"/>
<text xml:space="preserve" text-anchor="middle" x="709.39" y="-316.2" font-family="Noto Sans CJK KR" font-size="14.00" fill="#46566e">has</text>
</g>
<!-- TargetDef -->
<g id="node4" class="node">
<title>TargetDef</title>
<path fill="#e9fbff" stroke="#54b7cf" stroke-width="1.4" d="M864.63,-412.28C864.63,-412.28 782.94,-412.28 782.94,-412.28 776.94,-412.28 770.94,-406.28 770.94,-400.28 770.94,-400.28 770.94,-377.72 770.94,-377.72 770.94,-371.72 776.94,-365.72 782.94,-365.72 782.94,-365.72 864.63,-365.72 864.63,-365.72 870.63,-365.72 876.63,-371.72 876.63,-377.72 876.63,-377.72 876.63,-400.28 876.63,-400.28 876.63,-406.28 870.63,-412.28 864.63,-412.28"/>
<text xml:space="preserve" text-anchor="middle" x="823.78" y="-393.2" font-family="Noto Sans CJK KR" font-size="14.00" fill="#182033">TargetingSpec&#13;</text>
<text xml:space="preserve" text-anchor="middle" x="823.78" y="-376.4" font-family="Noto Sans CJK KR" font-size="14.00" fill="#182033">type, range, los</text>
</g>
<!-- SkillDef&#45;&gt;TargetDef -->
<g id="edge3" class="edge">
<title>SkillDef&#45;&gt;TargetDef</title>
<path fill="none" stroke="#59687e" stroke-width="1.3" d="M666.63,-331.95C729.37,-331.95 823.85,-331.95 823.85,-331.95 823.85,-331.95 823.85,-355.17 823.85,-355.17"/>
<polygon fill="#59687e" stroke="#59687e" stroke-width="1.3" points="821.05,-355.17 823.85,-363.17 826.65,-355.17 821.05,-355.17"/>
<text xml:space="preserve" text-anchor="middle" x="709.39" y="-386.2" font-family="Noto Sans CJK KR" font-size="14.00" fill="#46566e">has</text>
</g>
<!-- TimelineDef -->
<g id="node5" class="node">
<title>TimelineDef</title>
<path fill="#e9fbff" stroke="#54b7cf" stroke-width="1.4" d="M890.67,-495.28C890.67,-495.28 756.9,-495.28 756.9,-495.28 750.9,-495.28 744.9,-489.28 744.9,-483.28 744.9,-483.28 744.9,-460.72 744.9,-460.72 744.9,-454.72 750.9,-448.72 756.9,-448.72 756.9,-448.72 890.67,-448.72 890.67,-448.72 896.67,-448.72 902.67,-454.72 902.67,-460.72 902.67,-460.72 902.67,-483.28 902.67,-483.28 902.67,-489.28 896.67,-495.28 890.67,-495.28"/>
<text xml:space="preserve" text-anchor="middle" x="823.78" y="-476.2" font-family="Noto Sans CJK KR" font-size="14.00" fill="#182033">TimelineDefinition&#13;</text>
<text xml:space="preserve" text-anchor="middle" x="823.78" y="-459.4" font-family="Noto Sans CJK KR" font-size="14.00" fill="#182033">phases, markers, cancels</text>
</g>
<!-- SkillDef&#45;&gt;TimelineDef -->
<g id="edge4" class="edge">
<title>SkillDef&#45;&gt;TimelineDef</title>
<path fill="none" stroke="#59687e" stroke-width="1.3" d="M666.78,-334.61C708.14,-334.61 757.85,-334.61 757.85,-334.61 757.85,-334.61 757.85,-438.1 757.85,-438.1"/>
<polygon fill="#59687e" stroke="#59687e" stroke-width="1.3" points="755.05,-438.1 757.85,-446.1 760.65,-438.1 755.05,-438.1"/>
<text xml:space="preserve" text-anchor="middle" x="709.39" y="-463.2" font-family="Noto Sans CJK KR" font-size="14.00" fill="#46566e">has</text>
</g>
<!-- BundleRef -->
<g id="node6" class="node">
<title>BundleRef</title>
<path fill="#fff7e6" stroke="#e0ad4e" stroke-width="1.4" d="M872.65,-578.28C872.65,-578.28 774.91,-578.28 774.91,-578.28 768.91,-578.28 762.91,-572.28 762.91,-566.28 762.91,-566.28 762.91,-543.72 762.91,-543.72 762.91,-537.72 768.91,-531.72 774.91,-531.72 774.91,-531.72 872.65,-531.72 872.65,-531.72 878.65,-531.72 884.65,-537.72 884.65,-543.72 884.65,-543.72 884.65,-566.28 884.65,-566.28 884.65,-572.28 878.65,-578.28 872.65,-578.28"/>
<text xml:space="preserve" text-anchor="middle" x="823.78" y="-559.2" font-family="Noto Sans CJK KR" font-size="14.00" fill="#182033">EffectBundleRef&#13;</text>
<text xml:space="preserve" text-anchor="middle" x="823.78" y="-542.4" font-family="Noto Sans CJK KR" font-size="14.00" fill="#182033">effect ids + policy</text>
</g>
<!-- SkillDef&#45;&gt;BundleRef -->
<g id="edge5" class="edge">
<title>SkillDef&#45;&gt;BundleRef</title>
<path fill="none" stroke="#59687e" stroke-width="1.3" d="M611.85,-337.55C611.85,-398.19 611.85,-555 611.85,-555 611.85,-555 752.51,-555 752.51,-555"/>
<polygon fill="#59687e" stroke="#59687e" stroke-width="1.3" points="752.51,-557.8 760.51,-555 752.51,-552.2 752.51,-557.8"/>
<text xml:space="preserve" text-anchor="middle" x="709.39" y="-543.2" font-family="Noto Sans CJK KR" font-size="14.00" fill="#46566e">has</text>
</g>
<!-- SkillBook -->
<g id="node7" class="node">
<title>SkillBook</title>
<path fill="#eaf0ff" stroke="#8292f7" stroke-width="1.4" d="M124.23,-342.28C124.23,-342.28 39.42,-342.28 39.42,-342.28 33.42,-342.28 27.42,-336.28 27.42,-330.28 27.42,-330.28 27.42,-307.72 27.42,-307.72 27.42,-301.72 33.42,-295.72 39.42,-295.72 39.42,-295.72 124.23,-295.72 124.23,-295.72 130.23,-295.72 136.23,-301.72 136.23,-307.72 136.23,-307.72 136.23,-330.28 136.23,-330.28 136.23,-336.28 130.23,-342.28 124.23,-342.28"/>
<text xml:space="preserve" text-anchor="middle" x="81.83" y="-323.2" font-family="Noto Sans CJK KR" font-size="14.00" fill="#182033">SkillBook&#13;</text>
<text xml:space="preserve" text-anchor="middle" x="81.83" y="-306.4" font-family="Noto Sans CJK KR" font-size="14.00" fill="#182033">learned skill ids</text>
</g>
<!-- SkillRuntime -->
<g id="node8" class="node">
<title>SkillRuntime</title>
<path fill="#eaf0ff" stroke="#8292f7" stroke-width="1.4" d="M393.81,-342.28C393.81,-342.28 292.69,-342.28 292.69,-342.28 286.69,-342.28 280.69,-336.28 280.69,-330.28 280.69,-330.28 280.69,-307.72 280.69,-307.72 280.69,-301.72 286.69,-295.72 292.69,-295.72 292.69,-295.72 393.81,-295.72 393.81,-295.72 399.81,-295.72 405.81,-301.72 405.81,-307.72 405.81,-307.72 405.81,-330.28 405.81,-330.28 405.81,-336.28 399.81,-342.28 393.81,-342.28"/>
<text xml:space="preserve" text-anchor="middle" x="343.25" y="-323.2" font-family="Noto Sans CJK KR" font-size="14.00" fill="#182033">SkillRuntime&#13;</text>
<text xml:space="preserve" text-anchor="middle" x="343.25" y="-306.4" font-family="Noto Sans CJK KR" font-size="14.00" fill="#182033">cooldown, charges</text>
</g>
<!-- SkillBook&#45;&gt;SkillRuntime -->
<g id="edge6" class="edge">
<title>SkillBook&#45;&gt;SkillRuntime</title>
<path fill="none" stroke="#59687e" stroke-width="1.3" d="M136.63,-319C136.63,-319 270.28,-319 270.28,-319"/>
<polygon fill="#59687e" stroke="#59687e" stroke-width="1.3" points="270.28,-321.8 278.28,-319 270.28,-316.2 270.28,-321.8"/>
<text xml:space="preserve" text-anchor="middle" x="205.93" y="-323.2" font-family="Noto Sans CJK KR" font-size="14.00" fill="#46566e">owns</text>
</g>
<!-- SkillRuntime&#45;&gt;SkillDef -->
<g id="edge7" class="edge">
<title>SkillRuntime&#45;&gt;SkillDef</title>
<path fill="none" stroke="#59687e" stroke-width="1.3" d="M406.28,-323.43C406.28,-323.43 547.67,-323.43 547.67,-323.43"/>
<polygon fill="#59687e" stroke="#59687e" stroke-width="1.3" points="547.67,-326.23 555.67,-323.43 547.67,-320.63 547.67,-326.23"/>
<text xml:space="preserve" text-anchor="middle" x="489.72" y="-321.2" font-family="Noto Sans CJK KR" font-size="14.00" fill="#46566e">definition id</text>
</g>
<!-- CastState -->
<g id="node9" class="node">
<title>CastState</title>
<path fill="#eaf0ff" stroke="#8292f7" stroke-width="1.4" d="M143.66,-259.28C143.66,-259.28 20,-259.28 20,-259.28 14,-259.28 8,-253.28 8,-247.28 8,-247.28 8,-224.72 8,-224.72 8,-218.72 14,-212.72 20,-212.72 20,-212.72 143.66,-212.72 143.66,-212.72 149.66,-212.72 155.66,-218.72 155.66,-224.72 155.66,-224.72 155.66,-247.28 155.66,-247.28 155.66,-253.28 149.66,-259.28 143.66,-259.28"/>
<text xml:space="preserve" text-anchor="middle" x="81.83" y="-240.2" font-family="Noto Sans CJK KR" font-size="14.00" fill="#182033">SkillExecution&#13;</text>
<text xml:space="preserve" text-anchor="middle" x="81.83" y="-223.4" font-family="Noto Sans CJK KR" font-size="14.00" fill="#182033">phase, elapsed, marker</text>
</g>
<!-- CastState&#45;&gt;SkillDef -->
<g id="edge9" class="edge">
<title>CastState&#45;&gt;SkillDef</title>
<path fill="none" stroke="#59687e" stroke-width="1.3" d="M156.28,-252.78C298.29,-252.78 593.85,-252.78 593.85,-252.78 593.85,-252.78 593.85,-280.19 593.85,-280.19"/>
<polygon fill="#59687e" stroke="#59687e" stroke-width="1.3" points="591.05,-280.19 593.85,-288.19 596.65,-280.19 591.05,-280.19"/>
<text xml:space="preserve" text-anchor="middle" x="343.25" y="-247.2" font-family="Noto Sans CJK KR" font-size="14.00" fill="#46566e">definition id</text>
</g>
<!-- SkillResult -->
<g id="node11" class="node">
<title>SkillResult</title>
<path fill="#f0f3f9" stroke="#99a8bd" stroke-width="1.4" d="M418.3,-71.68C418.3,-71.68 268.2,-71.68 268.2,-71.68 262.2,-71.68 256.2,-65.68 256.2,-59.68 256.2,-59.68 256.2,-20.32 256.2,-20.32 256.2,-14.32 262.2,-8.32 268.2,-8.32 268.2,-8.32 418.3,-8.32 418.3,-8.32 424.3,-8.32 430.3,-14.32 430.3,-20.32 430.3,-20.32 430.3,-59.68 430.3,-59.68 430.3,-65.68 424.3,-71.68 418.3,-71.68"/>
<text xml:space="preserve" text-anchor="middle" x="343.25" y="-52.6" font-family="Noto Sans CJK KR" font-size="14.00" fill="#182033">SkillResult</text>
<text xml:space="preserve" text-anchor="middle" x="343.25" y="-35.8" font-family="Noto Sans CJK KR" font-size="14.00" fill="#182033">Succeeded, FailureReason?</text>
<text xml:space="preserve" text-anchor="middle" x="343.25" y="-19" font-family="Noto Sans CJK KR" font-size="14.00" fill="#182033">Effects</text>
</g>
<!-- CastState&#45;&gt;SkillResult -->
<g id="edge11" class="edge">
<title>CastState&#45;&gt;SkillResult</title>
<path fill="none" stroke="#59687e" stroke-width="1.3" d="M81.85,-212.36C81.85,-160.23 81.85,-40 81.85,-40 81.85,-40 245.88,-40 245.88,-40"/>
<polygon fill="#59687e" stroke="#59687e" stroke-width="1.3" points="245.88,-42.8 253.88,-40 245.88,-37.2 245.88,-42.8"/>
<text xml:space="preserve" text-anchor="middle" x="205.93" y="-96.2" font-family="Noto Sans CJK KR" font-size="14.00" fill="#46566e">produces</text>
</g>
<!-- SkillRequest -->
<g id="node10" class="node">
<title>SkillRequest</title>
<path fill="#eefbf6" stroke="#61b99a" stroke-width="1.4" d="M418.31,-170.68C418.31,-170.68 268.2,-170.68 268.2,-170.68 262.2,-170.68 256.2,-164.68 256.2,-158.68 256.2,-158.68 256.2,-119.32 256.2,-119.32 256.2,-113.32 262.2,-107.32 268.2,-107.32 268.2,-107.32 418.31,-107.32 418.31,-107.32 424.31,-107.32 430.31,-113.32 430.31,-119.32 430.31,-119.32 430.31,-158.68 430.31,-158.68 430.31,-164.68 424.31,-170.68 418.31,-170.68"/>
<text xml:space="preserve" text-anchor="middle" x="343.25" y="-151.6" font-family="Noto Sans CJK KR" font-size="14.00" fill="#182033">SkillRequest</text>
<text xml:space="preserve" text-anchor="middle" x="343.25" y="-134.8" font-family="Noto Sans CJK KR" font-size="14.00" fill="#182033">CasterId, SkillId, TargetId?</text>
<text xml:space="preserve" text-anchor="middle" x="343.25" y="-118" font-family="Noto Sans CJK KR" font-size="14.00" fill="#182033">RequestedTick, RootSeed</text>
</g>
<!-- SkillRequest&#45;&gt;SkillDef -->
<g id="edge10" class="edge">
<title>SkillRequest&#45;&gt;SkillDef</title>
<path fill="none" stroke="#59687e" stroke-width="1.3" d="M417.85,-171.08C417.85,-220.49 417.85,-309.57 417.85,-309.57 417.85,-309.57 547.5,-309.57 547.5,-309.57"/>
<polygon fill="#59687e" stroke="#59687e" stroke-width="1.3" points="547.5,-312.37 555.5,-309.57 547.5,-306.77 547.5,-312.37"/>
<text xml:space="preserve" text-anchor="middle" x="489.72" y="-174.2" font-family="Noto Sans CJK KR" font-size="14.00" fill="#46566e">lookup</text>
</g>
<!-- SkillRequest&#45;&gt;CastState -->
<g id="edge8" class="edge">
<title>SkillRequest&#45;&gt;CastState</title>
<path fill="none" stroke="#59687e" stroke-width="1.3" d="M268.85,-171.1C268.85,-195.14 268.85,-223.91 268.85,-223.91 268.85,-223.91 166.25,-223.91 166.25,-223.91"/>
<polygon fill="#59687e" stroke="#59687e" stroke-width="1.3" points="166.25,-221.11 158.25,-223.91 166.25,-226.71 166.25,-221.11"/>
<text xml:space="preserve" text-anchor="middle" x="205.93" y="-174.2" font-family="Noto Sans CJK KR" font-size="14.00" fill="#46566e">creates</text>
</g>
<!-- SkillTrace -->
<g id="node12" class="node">
<title>SkillTrace</title>
<path fill="#f0f3f9" stroke="#99a8bd" stroke-width="1.4" d="M663.06,-67.28C663.06,-67.28 561.13,-67.28 561.13,-67.28 555.13,-67.28 549.13,-61.28 549.13,-55.28 549.13,-55.28 549.13,-32.72 549.13,-32.72 549.13,-26.72 555.13,-20.72 561.13,-20.72 561.13,-20.72 663.06,-20.72 663.06,-20.72 669.06,-20.72 675.06,-26.72 675.06,-32.72 675.06,-32.72 675.06,-55.28 675.06,-55.28 675.06,-61.28 669.06,-67.28 663.06,-67.28"/>
<text xml:space="preserve" text-anchor="middle" x="612.09" y="-48.2" font-family="Noto Sans CJK KR" font-size="14.00" fill="#182033">SkillTrace&#13;</text>
<text xml:space="preserve" text-anchor="middle" x="612.09" y="-31.4" font-family="Noto Sans CJK KR" font-size="14.00" fill="#182033">steps, costs, events</text>
</g>
<!-- SkillResult&#45;&gt;SkillTrace -->
<g id="edge12" class="edge">
<title>SkillResult&#45;&gt;SkillTrace</title>
<path fill="none" stroke="#59687e" stroke-width="1.3" d="M430.91,-44C430.91,-44 538.86,-44 538.86,-44"/>
<polygon fill="#59687e" stroke="#59687e" stroke-width="1.3" points="538.86,-46.8 546.86,-44 538.86,-41.2 538.86,-46.8"/>
<text xml:space="preserve" text-anchor="middle" x="489.72" y="-48.2" font-family="Noto Sans CJK KR" font-size="14.00" fill="#46566e">debug</text>
</g>
</g>
</svg>
