<?xml version="1.0" encoding="UTF-8" standalone="no"?>
<!DOCTYPE svg PUBLIC "-//W3C//DTD SVG 1.1//EN"
 "http://www.w3.org/Graphics/SVG/1.1/DTD/svg11.dtd">
<!-- Generated by graphviz version 15.0.0 (20260523.1842)
 -->
<!-- Title: G Pages: 1 -->
<svg width="2142pt" height="856pt"
 viewBox="9.00 9.00 2134.00 848.00" xmlns="http://www.w3.org/2000/svg" xmlns:xlink="http://www.w3.org/1999/xlink">
<g id="graph0" class="graph" transform="scale(1 1) rotate(0) translate(26.64 829.64)">
<title>G</title>
<polygon fill="#ffffff" stroke="none" points="-18,18 -18,-821 2107.19,-821 2107.19,18 -18,18"/>
<g id="clust1" class="cluster">
<title>cluster_definition</title>
<path fill="#ffffff" stroke="#dfe5ee" stroke-dasharray="5,2" d="M994,-8C994,-8 1631.68,-8 1631.68,-8 1637.68,-8 1643.68,-14 1643.68,-20 1643.68,-20 1643.68,-404 1643.68,-404 1643.68,-410 1637.68,-416 1631.68,-416 1631.68,-416 994,-416 994,-416 988,-416 982,-410 982,-404 982,-404 982,-20 982,-20 982,-14 988,-8 994,-8"/>
<text xml:space="preserve" text-anchor="middle" x="1312.84" y="-395.8" font-family="Noto Sans CJK KR" font-size="18.00" fill="#607086">Definition Data · static balance</text>
</g>
<g id="clust2" class="cluster">
<title>cluster_runtime</title>
<path fill="#ffffff" stroke="#dfe5ee" stroke-dasharray="5,2" d="M494.21,-416C494.21,-416 2069.19,-416 2069.19,-416 2075.19,-416 2081.19,-422 2081.19,-428 2081.19,-428 2081.19,-679 2081.19,-679 2081.19,-685 2075.19,-691 2069.19,-691 2069.19,-691 494.21,-691 494.21,-691 488.21,-691 482.21,-685 482.21,-679 482.21,-679 482.21,-428 482.21,-428 482.21,-422 488.21,-416 494.21,-416"/>
<text xml:space="preserve" text-anchor="middle" x="1281.7" y="-670.8" font-family="Noto Sans CJK KR" font-size="18.00" fill="#607086">Project&#45;specific runtime models · availability and one execution</text>
</g>
<g id="clust3" class="cluster">
<title>cluster_log</title>
<path fill="#ffffff" stroke="#dfe5ee" stroke-dasharray="5,2" d="M20,-702C20,-702 2062.72,-702 2062.72,-702 2068.72,-702 2074.72,-708 2074.72,-714 2074.72,-714 2074.72,-783 2074.72,-783 2074.72,-789 2068.72,-795 2062.72,-795 2062.72,-795 20,-795 20,-795 14,-795 8,-789 8,-783 8,-783 8,-714 8,-714 8,-708 14,-702 20,-702"/>
<text xml:space="preserve" text-anchor="middle" x="1041.36" y="-774.8" font-family="Noto Sans CJK KR" font-size="18.00" fill="#607086">Input / Result / Observation</text>
</g>
<!-- SkillDef -->
<g id="node1" class="node">
<title>SkillDef</title>
<path fill="#fff7e6" stroke="#e0ad4e" stroke-width="1.4" d="M1092.04,-344.28C1092.04,-344.28 994,-344.28 994,-344.28 988,-344.28 982,-338.28 982,-332.28 982,-332.28 982,-309.72 982,-309.72 982,-303.72 988,-297.72 994,-297.72 994,-297.72 1092.04,-297.72 1092.04,-297.72 1098.04,-297.72 1104.04,-303.72 1104.04,-309.72 1104.04,-309.72 1104.04,-332.28 1104.04,-332.28 1104.04,-338.28 1098.04,-344.28 1092.04,-344.28"/>
<text xml:space="preserve" text-anchor="middle" x="1043.02" y="-325.2" font-family="Noto Sans CJK KR" font-size="14.00" fill="#182033">SkillDefinition</text>
<text xml:space="preserve" text-anchor="middle" x="1043.02" y="-308.4" font-family="Noto Sans CJK KR" font-size="14.00" fill="#182033">id · tags · display</text>
</g>
<!-- CostDef -->
<g id="node2" class="node">
<title>CostDef</title>
<path fill="#fff0f3" stroke="#e07b91" stroke-width="1.4" d="M1609.34,-220.28C1609.34,-220.28 1459.21,-220.28 1459.21,-220.28 1453.21,-220.28 1447.21,-214.28 1447.21,-208.28 1447.21,-208.28 1447.21,-185.72 1447.21,-185.72 1447.21,-179.72 1453.21,-173.72 1459.21,-173.72 1459.21,-173.72 1609.34,-173.72 1609.34,-173.72 1615.34,-173.72 1621.34,-179.72 1621.34,-185.72 1621.34,-185.72 1621.34,-208.28 1621.34,-208.28 1621.34,-214.28 1615.34,-220.28 1609.34,-220.28"/>
<text xml:space="preserve" text-anchor="middle" x="1534.28" y="-201.2" font-family="Noto Sans CJK KR" font-size="14.00" fill="#182033">CostDefinition</text>
<text xml:space="preserve" text-anchor="middle" x="1534.28" y="-184.4" font-family="Noto Sans CJK KR" font-size="14.00" fill="#182033">resource · amount · timing</text>
</g>
<!-- SkillDef&#45;&gt;CostDef -->
<g id="edge1" class="edge">
<title>SkillDef&#45;&gt;CostDef</title>
<path fill="none" stroke="#59687e" stroke-width="1.3" d="M1055.19,-297.09C1055.19,-261.06 1055.19,-197 1055.19,-197 1055.19,-197 1436.71,-197 1436.71,-197"/>
<polygon fill="#59687e" stroke="#59687e" stroke-width="1.3" points="1436.71,-199.8 1444.71,-197 1436.71,-194.2 1436.71,-199.8"/>
<text xml:space="preserve" text-anchor="middle" x="1289.22" y="-216.2" font-family="Noto Sans CJK KR" font-size="14.00" fill="#46566e">has</text>
</g>
<!-- CooldownDef -->
<g id="node3" class="node">
<title>CooldownDef</title>
<path fill="#fff0f3" stroke="#e07b91" stroke-width="1.4" d="M1607.39,-303.28C1607.39,-303.28 1461.16,-303.28 1461.16,-303.28 1455.16,-303.28 1449.16,-297.28 1449.16,-291.28 1449.16,-291.28 1449.16,-268.72 1449.16,-268.72 1449.16,-262.72 1455.16,-256.72 1461.16,-256.72 1461.16,-256.72 1607.39,-256.72 1607.39,-256.72 1613.39,-256.72 1619.39,-262.72 1619.39,-268.72 1619.39,-268.72 1619.39,-291.28 1619.39,-291.28 1619.39,-297.28 1613.39,-303.28 1607.39,-303.28"/>
<text xml:space="preserve" text-anchor="middle" x="1534.28" y="-284.2" font-family="Noto Sans CJK KR" font-size="14.00" fill="#182033">CooldownDefinition</text>
<text xml:space="preserve" text-anchor="middle" x="1534.28" y="-267.4" font-family="Noto Sans CJK KR" font-size="14.00" fill="#182033">duration · group · charges</text>
</g>
<!-- SkillDef&#45;&gt;CooldownDef -->
<g id="edge2" class="edge">
<title>SkillDef&#45;&gt;CooldownDef</title>
<path fill="none" stroke="#59687e" stroke-width="1.3" d="M1079.19,-297.06C1079.19,-286.84 1079.19,-277.22 1079.19,-277.22 1079.19,-277.22 1438.71,-277.22 1438.71,-277.22"/>
<polygon fill="#59687e" stroke="#59687e" stroke-width="1.3" points="1438.71,-280.02 1446.71,-277.22 1438.71,-274.42 1438.71,-280.02"/>
<text xml:space="preserve" text-anchor="middle" x="1289.22" y="-290.2" font-family="Noto Sans CJK KR" font-size="14.00" fill="#46566e">has</text>
</g>
<!-- TargetDef -->
<g id="node4" class="node">
<title>TargetDef</title>
<path fill="#e9fbff" stroke="#54b7cf" stroke-width="1.4" d="M1607.39,-54.28C1607.39,-54.28 1461.16,-54.28 1461.16,-54.28 1455.16,-54.28 1449.16,-48.28 1449.16,-42.28 1449.16,-42.28 1449.16,-19.72 1449.16,-19.72 1449.16,-13.72 1455.16,-7.72 1461.16,-7.72 1461.16,-7.72 1607.39,-7.72 1607.39,-7.72 1613.39,-7.72 1619.39,-13.72 1619.39,-19.72 1619.39,-19.72 1619.39,-42.28 1619.39,-42.28 1619.39,-48.28 1613.39,-54.28 1607.39,-54.28"/>
<text xml:space="preserve" text-anchor="middle" x="1534.28" y="-35.2" font-family="Noto Sans CJK KR" font-size="14.00" fill="#182033">TargetingSpec</text>
<text xml:space="preserve" text-anchor="middle" x="1534.28" y="-18.4" font-family="Noto Sans CJK KR" font-size="14.00" fill="#182033">type · range · line of sight</text>
</g>
<!-- SkillDef&#45;&gt;TargetDef -->
<g id="edge3" class="edge">
<title>SkillDef&#45;&gt;TargetDef</title>
<path fill="none" stroke="#59687e" stroke-width="1.3" d="M1006.19,-297.27C1006.19,-228.01 1006.19,-31 1006.19,-31 1006.19,-31 1438.58,-31 1438.58,-31"/>
<polygon fill="#59687e" stroke="#59687e" stroke-width="1.3" points="1438.58,-33.8 1446.58,-31 1438.58,-28.2 1438.58,-33.8"/>
<text xml:space="preserve" text-anchor="middle" x="1289.22" y="-73.2" font-family="Noto Sans CJK KR" font-size="14.00" fill="#46566e">has</text>
</g>
<!-- TimelineDef -->
<g id="node5" class="node">
<title>TimelineDef</title>
<path fill="#e9fbff" stroke="#54b7cf" stroke-width="1.4" d="M1608.16,-137.28C1608.16,-137.28 1460.39,-137.28 1460.39,-137.28 1454.39,-137.28 1448.39,-131.28 1448.39,-125.28 1448.39,-125.28 1448.39,-102.72 1448.39,-102.72 1448.39,-96.72 1454.39,-90.72 1460.39,-90.72 1460.39,-90.72 1608.16,-90.72 1608.16,-90.72 1614.16,-90.72 1620.16,-96.72 1620.16,-102.72 1620.16,-102.72 1620.16,-125.28 1620.16,-125.28 1620.16,-131.28 1614.16,-137.28 1608.16,-137.28"/>
<text xml:space="preserve" text-anchor="middle" x="1534.28" y="-118.2" font-family="Noto Sans CJK KR" font-size="14.00" fill="#182033">TimelineDefinition</text>
<text xml:space="preserve" text-anchor="middle" x="1534.28" y="-101.4" font-family="Noto Sans CJK KR" font-size="14.00" fill="#182033">phases · markers · cancels</text>
</g>
<!-- SkillDef&#45;&gt;TimelineDef -->
<g id="edge4" class="edge">
<title>SkillDef&#45;&gt;TimelineDef</title>
<path fill="none" stroke="#59687e" stroke-width="1.3" d="M1031.19,-297.25C1031.19,-242.88 1031.19,-114 1031.19,-114 1031.19,-114 1437.82,-114 1437.82,-114"/>
<polygon fill="#59687e" stroke="#59687e" stroke-width="1.3" points="1437.82,-116.8 1445.82,-114 1437.82,-111.2 1437.82,-116.8"/>
<text xml:space="preserve" text-anchor="middle" x="1289.22" y="-149.2" font-family="Noto Sans CJK KR" font-size="14.00" fill="#46566e">has</text>
</g>
<!-- BundleRef -->
<g id="node6" class="node">
<title>BundleRef</title>
<path fill="#fff7e6" stroke="#e0ad4e" stroke-width="1.4" d="M1631.68,-386.28C1631.68,-386.28 1436.87,-386.28 1436.87,-386.28 1430.87,-386.28 1424.87,-380.28 1424.87,-374.28 1424.87,-374.28 1424.87,-351.72 1424.87,-351.72 1424.87,-345.72 1430.87,-339.72 1436.87,-339.72 1436.87,-339.72 1631.68,-339.72 1631.68,-339.72 1637.68,-339.72 1643.68,-345.72 1643.68,-351.72 1643.68,-351.72 1643.68,-374.28 1643.68,-374.28 1643.68,-380.28 1637.68,-386.28 1631.68,-386.28"/>
<text xml:space="preserve" text-anchor="middle" x="1534.28" y="-367.2" font-family="Noto Sans CJK KR" font-size="14.00" fill="#182033">EffectBundleRef</text>
<text xml:space="preserve" text-anchor="middle" x="1534.28" y="-350.4" font-family="Noto Sans CJK KR" font-size="14.00" fill="#182033">primary effects · reactions · policy</text>
</g>
<!-- SkillDef&#45;&gt;BundleRef -->
<g id="edge5" class="edge">
<title>SkillDef&#45;&gt;BundleRef</title>
<path fill="none" stroke="#59687e" stroke-width="1.3" d="M1104.45,-321.5C1215.03,-321.5 1436.19,-321.5 1436.19,-321.5 1436.19,-321.5 1436.19,-329.37 1436.19,-329.37"/>
<polygon fill="#59687e" stroke="#59687e" stroke-width="1.3" points="1433.39,-329.37 1436.19,-337.37 1438.99,-329.37 1433.39,-329.37"/>
<text xml:space="preserve" text-anchor="middle" x="1289.22" y="-360.2" font-family="Noto Sans CJK KR" font-size="14.00" fill="#46566e">has</text>
</g>
<!-- EffectBundlePlan -->
<g id="node11" class="node">
<title>EffectBundlePlan</title>
<path fill="#eefbf6" stroke="#61b99a" stroke-width="1.4" d="M1169.04,-479.68C1169.04,-479.68 917,-479.68 917,-479.68 911,-479.68 905,-473.68 905,-467.68 905,-467.68 905,-428.32 905,-428.32 905,-422.32 911,-416.32 917,-416.32 917,-416.32 1169.04,-416.32 1169.04,-416.32 1175.04,-416.32 1181.04,-422.32 1181.04,-428.32 1181.04,-428.32 1181.04,-467.68 1181.04,-467.68 1181.04,-473.68 1175.04,-479.68 1169.04,-479.68"/>
<text xml:space="preserve" text-anchor="middle" x="1043.02" y="-460.6" font-family="Noto Sans CJK KR" font-size="14.00" fill="#182033">&lt;&lt;public Effect contract&gt;&gt; EffectBundlePlan</text>
<text xml:space="preserve" text-anchor="middle" x="1043.02" y="-443.8" font-family="Noto Sans CJK KR" font-size="14.00" fill="#182033">BundleId · PrimaryOperations</text>
<text xml:space="preserve" text-anchor="middle" x="1043.02" y="-427" font-family="Noto Sans CJK KR" font-size="14.00" fill="#182033">Reactions</text>
</g>
<!-- BundleRef&#45;&gt;EffectBundlePlan -->
<g id="edge15" class="edge">
<title>BundleRef&#45;&gt;EffectBundlePlan</title>
<path fill="none" stroke="#59687e" stroke-width="1.3" d="M1424.27,-365.28C1308.29,-365.28 1142.19,-365.28 1142.19,-365.28 1142.19,-365.28 1142.19,-405.81 1142.19,-405.81"/>
<polygon fill="#59687e" stroke="#59687e" stroke-width="1.3" points="1139.39,-405.81 1142.19,-413.81 1144.99,-405.81 1139.39,-405.81"/>
<text xml:space="preserve" text-anchor="middle" x="1289.22" y="-426.2" font-family="Noto Sans CJK KR" font-size="14.00" fill="#46566e">public IEffectPlanner.Prepare</text>
</g>
<!-- SkillBook -->
<g id="node7" class="node">
<title>SkillBook</title>
<path fill="#eaf0ff" stroke="#8292f7" stroke-width="1.4" d="M618.86,-646.28C618.86,-646.28 534.05,-646.28 534.05,-646.28 528.05,-646.28 522.05,-640.28 522.05,-634.28 522.05,-634.28 522.05,-611.72 522.05,-611.72 522.05,-605.72 528.05,-599.72 534.05,-599.72 534.05,-599.72 618.86,-599.72 618.86,-599.72 624.86,-599.72 630.86,-605.72 630.86,-611.72 630.86,-611.72 630.86,-634.28 630.86,-634.28 630.86,-640.28 624.86,-646.28 618.86,-646.28"/>
<text xml:space="preserve" text-anchor="middle" x="576.45" y="-627.2" font-family="Noto Sans CJK KR" font-size="14.00" fill="#182033">SkillBook</text>
<text xml:space="preserve" text-anchor="middle" x="576.45" y="-610.4" font-family="Noto Sans CJK KR" font-size="14.00" fill="#182033">learned skill ids</text>
</g>
<!-- SkillRuntime -->
<g id="node8" class="node">
<title>SkillRuntime</title>
<path fill="#eaf0ff" stroke="#8292f7" stroke-width="1.4" d="M1140.03,-661.28C1140.03,-661.28 946.01,-661.28 946.01,-661.28 940.01,-661.28 934.01,-655.28 934.01,-649.28 934.01,-649.28 934.01,-626.72 934.01,-626.72 934.01,-620.72 940.01,-614.72 946.01,-614.72 946.01,-614.72 1140.03,-614.72 1140.03,-614.72 1146.03,-614.72 1152.03,-620.72 1152.03,-626.72 1152.03,-626.72 1152.03,-649.28 1152.03,-649.28 1152.03,-655.28 1146.03,-661.28 1140.03,-661.28"/>
<text xml:space="preserve" text-anchor="middle" x="1043.02" y="-642.2" font-family="Noto Sans CJK KR" font-size="14.00" fill="#182033">SkillRuntime</text>
<text xml:space="preserve" text-anchor="middle" x="1043.02" y="-625.4" font-family="Noto Sans CJK KR" font-size="14.00" fill="#182033">learned level · cooldown · charges</text>
</g>
<!-- SkillBook&#45;&gt;SkillRuntime -->
<g id="edge6" class="edge">
<title>SkillBook&#45;&gt;SkillRuntime</title>
<path fill="none" stroke="#59687e" stroke-width="1.3" d="M631.35,-635.76C631.35,-635.76 923.48,-635.76 923.48,-635.76"/>
<polygon fill="#59687e" stroke="#59687e" stroke-width="1.3" points="923.48,-638.56 931.48,-635.76 923.48,-632.96 923.48,-638.56"/>
<text xml:space="preserve" text-anchor="middle" x="808.67" y="-627.2" font-family="Noto Sans CJK KR" font-size="14.00" fill="#46566e">owns</text>
</g>
<!-- SkillRuntime&#45;&gt;SkillDef -->
<g id="edge7" class="edge">
<title>SkillRuntime&#45;&gt;SkillDef</title>
<path fill="none" stroke="#59687e" stroke-width="1.3" d="M933.51,-625.24C872.29,-625.24 808.19,-625.24 808.19,-625.24 808.19,-625.24 808.19,-328.76 808.19,-328.76 808.19,-328.76 971.35,-328.76 971.35,-328.76"/>
<polygon fill="#59687e" stroke="#59687e" stroke-width="1.3" points="971.35,-331.56 979.35,-328.76 971.35,-325.96 971.35,-331.56"/>
<text xml:space="preserve" text-anchor="middle" x="808.67" y="-565.8" font-family="Noto Sans CJK KR" font-size="14.00" fill="#46566e">definition id</text>
</g>
<!-- ReleasePlan -->
<g id="node12" class="node">
<title>ReleasePlan</title>
<path fill="#e9fbff" stroke="#54b7cf" stroke-width="1.4" d="M1659.14,-565.68C1659.14,-565.68 1409.41,-565.68 1409.41,-565.68 1403.41,-565.68 1397.41,-559.68 1397.41,-553.68 1397.41,-553.68 1397.41,-514.32 1397.41,-514.32 1397.41,-508.32 1403.41,-502.32 1409.41,-502.32 1409.41,-502.32 1659.14,-502.32 1659.14,-502.32 1665.14,-502.32 1671.14,-508.32 1671.14,-514.32 1671.14,-514.32 1671.14,-553.68 1671.14,-553.68 1671.14,-559.68 1665.14,-565.68 1659.14,-565.68"/>
<text xml:space="preserve" text-anchor="middle" x="1534.28" y="-546.6" font-family="Noto Sans CJK KR" font-size="14.00" fill="#182033">&lt;&lt;internal project model&gt;&gt; SkillReleasePlan</text>
<text xml:space="preserve" text-anchor="middle" x="1534.28" y="-529.8" font-family="Noto Sans CJK KR" font-size="14.00" fill="#182033">SkillMutation + EffectBundlePlan</text>
<text xml:space="preserve" text-anchor="middle" x="1534.28" y="-513" font-family="Noto Sans CJK KR" font-size="14.00" fill="#182033">version preconditions</text>
</g>
<!-- SkillRuntime&#45;&gt;ReleasePlan -->
<g id="edge18" class="edge">
<title>SkillRuntime&#45;&gt;ReleasePlan</title>
<path fill="none" stroke="#59687e" stroke-width="1.3" d="M1148.19,-614.12C1148.19,-587.73 1148.19,-548.89 1148.19,-548.89 1148.19,-548.89 1386.83,-548.89 1386.83,-548.89"/>
<polygon fill="#59687e" stroke="#59687e" stroke-width="1.3" points="1386.83,-551.69 1394.83,-548.89 1386.83,-546.09 1386.83,-551.69"/>
<text xml:space="preserve" text-anchor="middle" x="1289.22" y="-603.2" font-family="Noto Sans CJK KR" font-size="14.00" fill="#46566e">snapshot + version</text>
</g>
<!-- SkillExecution -->
<g id="node9" class="node">
<title>SkillExecution</title>
<path fill="#eaf0ff" stroke="#8292f7" stroke-width="1.4" d="M658.7,-563.28C658.7,-563.28 494.21,-563.28 494.21,-563.28 488.21,-563.28 482.21,-557.28 482.21,-551.28 482.21,-551.28 482.21,-528.72 482.21,-528.72 482.21,-522.72 488.21,-516.72 494.21,-516.72 494.21,-516.72 658.7,-516.72 658.7,-516.72 664.7,-516.72 670.7,-522.72 670.7,-528.72 670.7,-528.72 670.7,-551.28 670.7,-551.28 670.7,-557.28 664.7,-563.28 658.7,-563.28"/>
<text xml:space="preserve" text-anchor="middle" x="576.45" y="-544.2" font-family="Noto Sans CJK KR" font-size="14.00" fill="#182033">&lt;&lt;internal&gt;&gt; SkillExecution</text>
<text xml:space="preserve" text-anchor="middle" x="576.45" y="-527.4" font-family="Noto Sans CJK KR" font-size="14.00" fill="#182033">execution id · phase · marker</text>
</g>
<!-- SkillExecution&#45;&gt;SkillDef -->
<g id="edge13" class="edge">
<title>SkillExecution&#45;&gt;SkillDef</title>
<path fill="none" stroke="#59687e" stroke-width="1.3" d="M576.19,-516.16C576.19,-457.94 576.19,-313.24 576.19,-313.24 576.19,-313.24 971.54,-313.24 971.54,-313.24"/>
<polygon fill="#59687e" stroke="#59687e" stroke-width="1.3" points="971.54,-316.04 979.54,-313.24 971.54,-310.44 971.54,-316.04"/>
<text xml:space="preserve" text-anchor="middle" x="808.67" y="-426.2" font-family="Noto Sans CJK KR" font-size="14.00" fill="#46566e">definition id</text>
</g>
<!-- SkillMutation -->
<g id="node10" class="node">
<title>SkillMutation</title>
<path fill="#eefbf6" stroke="#61b99a" stroke-width="1.4" d="M1131.88,-578.68C1131.88,-578.68 954.16,-578.68 954.16,-578.68 948.16,-578.68 942.16,-572.68 942.16,-566.68 942.16,-566.68 942.16,-527.32 942.16,-527.32 942.16,-521.32 948.16,-515.32 954.16,-515.32 954.16,-515.32 1131.88,-515.32 1131.88,-515.32 1137.88,-515.32 1143.88,-521.32 1143.88,-527.32 1143.88,-527.32 1143.88,-566.68 1143.88,-566.68 1143.88,-572.68 1137.88,-578.68 1131.88,-578.68"/>
<text xml:space="preserve" text-anchor="middle" x="1043.02" y="-559.6" font-family="Noto Sans CJK KR" font-size="14.00" fill="#182033">SkillMutation</text>
<text xml:space="preserve" text-anchor="middle" x="1043.02" y="-542.8" font-family="Noto Sans CJK KR" font-size="14.00" fill="#182033">cost delta · cooldown ready tick</text>
<text xml:space="preserve" text-anchor="middle" x="1043.02" y="-526" font-family="Noto Sans CJK KR" font-size="14.00" fill="#182033">charge delta</text>
</g>
<!-- SkillExecution&#45;&gt;SkillMutation -->
<g id="edge14" class="edge">
<title>SkillExecution&#45;&gt;SkillMutation</title>
<path fill="none" stroke="#59687e" stroke-width="1.3" d="M671.15,-532.24C671.15,-532.24 931.62,-532.24 931.62,-532.24"/>
<polygon fill="#59687e" stroke="#59687e" stroke-width="1.3" points="931.62,-535.04 939.62,-532.24 931.62,-529.44 931.62,-535.04"/>
<text xml:space="preserve" text-anchor="middle" x="808.67" y="-544.2" font-family="Noto Sans CJK KR" font-size="14.00" fill="#46566e">PrepareRelease</text>
</g>
<!-- SkillMutation&#45;&gt;ReleasePlan -->
<g id="edge16" class="edge">
<title>SkillMutation&#45;&gt;ReleasePlan</title>
<path fill="none" stroke="#59687e" stroke-width="1.3" d="M1144.51,-532.11C1144.51,-532.11 1387.08,-532.11 1387.08,-532.11"/>
<polygon fill="#59687e" stroke="#59687e" stroke-width="1.3" points="1387.08,-534.91 1395.08,-532.11 1387.08,-529.31 1387.08,-534.91"/>
</g>
<!-- EffectBundlePlan&#45;&gt;ReleasePlan -->
<g id="edge17" class="edge">
<title>EffectBundlePlan&#45;&gt;ReleasePlan</title>
<path fill="none" stroke="#59687e" stroke-width="1.3" d="M1166.19,-480.19C1166.19,-494.78 1166.19,-508.82 1166.19,-508.82 1166.19,-508.82 1386.98,-508.82 1386.98,-508.82"/>
<polygon fill="#59687e" stroke="#59687e" stroke-width="1.3" points="1386.98,-511.62 1394.98,-508.82 1386.98,-506.02 1386.98,-511.62"/>
</g>
<!-- CommitReceipt -->
<g id="node13" class="node">
<title>CommitReceipt</title>
<path fill="#fff7e6" stroke="#e0ad4e" stroke-width="1.4" d="M2069.19,-661.28C2069.19,-661.28 1896.09,-661.28 1896.09,-661.28 1890.09,-661.28 1884.09,-655.28 1884.09,-649.28 1884.09,-649.28 1884.09,-626.72 1884.09,-626.72 1884.09,-620.72 1890.09,-614.72 1896.09,-614.72 1896.09,-614.72 2069.19,-614.72 2069.19,-614.72 2075.19,-614.72 2081.19,-620.72 2081.19,-626.72 2081.19,-626.72 2081.19,-649.28 2081.19,-649.28 2081.19,-655.28 2075.19,-661.28 2069.19,-661.28"/>
<text xml:space="preserve" text-anchor="middle" x="1982.64" y="-642.2" font-family="Noto Sans CJK KR" font-size="14.00" fill="#182033">CommitPlan → CommitReceipt</text>
<text xml:space="preserve" text-anchor="middle" x="1982.64" y="-625.4" font-family="Noto Sans CJK KR" font-size="14.00" fill="#182033">state + outbox atomic</text>
</g>
<!-- ReleasePlan&#45;&gt;CommitReceipt -->
<g id="edge19" class="edge">
<title>ReleasePlan&#45;&gt;CommitReceipt</title>
<path fill="none" stroke="#59687e" stroke-width="1.3" d="M1653.19,-566.3C1653.19,-592.94 1653.19,-626.36 1653.19,-626.36 1653.19,-626.36 1873.82,-626.36 1873.82,-626.36"/>
<polygon fill="#59687e" stroke="#59687e" stroke-width="1.3" points="1873.82,-629.16 1881.82,-626.36 1873.82,-623.56 1873.82,-629.16"/>
<text xml:space="preserve" text-anchor="middle" x="1777.62" y="-579.2" font-family="Noto Sans CJK KR" font-size="14.00" fill="#46566e">IRuntimeCommitter.Commit</text>
</g>
<!-- CommitReceipt&#45;&gt;SkillRuntime -->
<g id="edge20" class="edge">
<title>CommitReceipt&#45;&gt;SkillRuntime</title>
<path fill="none" stroke="#59687e" stroke-width="1.3" d="M1883.41,-638C1883.41,-638 1162.56,-638 1162.56,-638"/>
<polygon fill="#59687e" stroke="#59687e" stroke-width="1.3" points="1162.56,-635.2 1154.56,-638 1162.56,-640.8 1162.56,-635.2"/>
<text xml:space="preserve" text-anchor="middle" x="1534.28" y="-642.2" font-family="Noto Sans CJK KR" font-size="14.00" fill="#46566e">committed mutation</text>
</g>
<!-- SkillResult -->
<g id="node17" class="node">
<title>SkillResult</title>
<path fill="#f0f3f9" stroke="#99a8bd" stroke-width="1.4" d="M1622.8,-765.68C1622.8,-765.68 1445.75,-765.68 1445.75,-765.68 1439.75,-765.68 1433.75,-759.68 1433.75,-753.68 1433.75,-753.68 1433.75,-714.32 1433.75,-714.32 1433.75,-708.32 1439.75,-702.32 1445.75,-702.32 1445.75,-702.32 1622.8,-702.32 1622.8,-702.32 1628.8,-702.32 1634.8,-708.32 1634.8,-714.32 1634.8,-714.32 1634.8,-753.68 1634.8,-753.68 1634.8,-759.68 1628.8,-765.68 1622.8,-765.68"/>
<text xml:space="preserve" text-anchor="middle" x="1534.28" y="-746.6" font-family="Noto Sans CJK KR" font-size="14.00" fill="#182033">&lt;&lt;public contract&gt;&gt; SkillResult</text>
<text xml:space="preserve" text-anchor="middle" x="1534.28" y="-729.8" font-family="Noto Sans CJK KR" font-size="14.00" fill="#182033">Succeeded · FailureReason?</text>
<text xml:space="preserve" text-anchor="middle" x="1534.28" y="-713" font-family="Noto Sans CJK KR" font-size="14.00" fill="#182033">Effects</text>
</g>
<!-- CommitReceipt&#45;&gt;SkillResult -->
<g id="edge21" class="edge">
<title>CommitReceipt&#45;&gt;SkillResult</title>
<path fill="none" stroke="#59687e" stroke-width="1.3" d="M1883.39,-649.64C1751.3,-649.64 1534.19,-649.64 1534.19,-649.64 1534.19,-649.64 1534.19,-691.66 1534.19,-691.66"/>
<polygon fill="#59687e" stroke="#59687e" stroke-width="1.3" points="1531.39,-691.66 1534.19,-699.66 1536.99,-691.66 1531.39,-691.66"/>
<text xml:space="preserve" text-anchor="middle" x="1777.62" y="-684.2" font-family="Noto Sans CJK KR" font-size="14.00" fill="#46566e">receipt</text>
</g>
<!-- SkillRequest -->
<g id="node14" class="node">
<title>SkillRequest</title>
<path fill="#eefbf6" stroke="#61b99a" stroke-width="1.4" d="M206.38,-765.68C206.38,-765.68 20,-765.68 20,-765.68 14,-765.68 8,-759.68 8,-753.68 8,-753.68 8,-714.32 8,-714.32 8,-708.32 14,-702.32 20,-702.32 20,-702.32 206.38,-702.32 206.38,-702.32 212.38,-702.32 218.38,-708.32 218.38,-714.32 218.38,-714.32 218.38,-753.68 218.38,-753.68 218.38,-759.68 212.38,-765.68 206.38,-765.68"/>
<text xml:space="preserve" text-anchor="middle" x="113.19" y="-746.6" font-family="Noto Sans CJK KR" font-size="14.00" fill="#182033">&lt;&lt;public contract&gt;&gt; SkillRequest</text>
<text xml:space="preserve" text-anchor="middle" x="113.19" y="-729.8" font-family="Noto Sans CJK KR" font-size="14.00" fill="#182033">CasterId · SkillId · TargetId?</text>
<text xml:space="preserve" text-anchor="middle" x="113.19" y="-713" font-family="Noto Sans CJK KR" font-size="14.00" fill="#182033">RequestedTick · RootSeed</text>
</g>
<!-- SkillRequest&#45;&gt;SkillExecution -->
<g id="edge9" class="edge">
<title>SkillRequest&#45;&gt;SkillExecution</title>
<path fill="none" stroke="#59687e" stroke-width="1.3" d="M218.97,-708.52C334.16,-708.52 502.19,-708.52 502.19,-708.52 502.19,-708.52 502.19,-573.75 502.19,-573.75"/>
<polygon fill="#59687e" stroke="#59687e" stroke-width="1.3" points="504.99,-573.75 502.19,-565.75 499.39,-573.76 504.99,-573.75"/>
<text xml:space="preserve" text-anchor="middle" x="329.47" y="-614.2" font-family="Noto Sans CJK KR" font-size="14.00" fill="#46566e">request after accepted decision</text>
</g>
<!-- SkillValidator -->
<g id="node15" class="node">
<title>SkillValidator</title>
<path fill="#f3eefc" stroke="#ab8fe0" stroke-width="1.4" d="M700.34,-761.28C700.34,-761.28 452.56,-761.28 452.56,-761.28 446.56,-761.28 440.56,-755.28 440.56,-749.28 440.56,-749.28 440.56,-726.72 440.56,-726.72 440.56,-720.72 446.56,-714.72 452.56,-714.72 452.56,-714.72 700.34,-714.72 700.34,-714.72 706.34,-714.72 712.34,-720.72 712.34,-726.72 712.34,-726.72 712.34,-749.28 712.34,-749.28 712.34,-755.28 706.34,-761.28 700.34,-761.28"/>
<text xml:space="preserve" text-anchor="middle" x="576.45" y="-742.2" font-family="Noto Sans CJK KR" font-size="14.00" fill="#182033">&lt;&lt;public interface&gt;&gt; ISkillRequestValidator</text>
<text xml:space="preserve" text-anchor="middle" x="576.45" y="-725.4" font-family="Noto Sans CJK KR" font-size="14.00" fill="#182033">Validate(SkillRequest)</text>
</g>
<!-- SkillRequest&#45;&gt;SkillValidator -->
<g id="edge8" class="edge">
<title>SkillRequest&#45;&gt;SkillValidator</title>
<path fill="none" stroke="#59687e" stroke-width="1.3" d="M218.89,-738C218.89,-738 430,-738 430,-738"/>
<polygon fill="#59687e" stroke="#59687e" stroke-width="1.3" points="430,-740.8 438,-738 430,-735.2 430,-740.8"/>
<text xml:space="preserve" text-anchor="middle" x="329.47" y="-742.2" font-family="Noto Sans CJK KR" font-size="14.00" fill="#46566e">Validate</text>
</g>
<!-- SkillDecision -->
<g id="node16" class="node">
<title>SkillDecision</title>
<path fill="#f3eefc" stroke="#ab8fe0" stroke-width="1.4" d="M1138.54,-761.28C1138.54,-761.28 947.5,-761.28 947.5,-761.28 941.5,-761.28 935.5,-755.28 935.5,-749.28 935.5,-749.28 935.5,-726.72 935.5,-726.72 935.5,-720.72 941.5,-714.72 947.5,-714.72 947.5,-714.72 1138.54,-714.72 1138.54,-714.72 1144.54,-714.72 1150.54,-720.72 1150.54,-726.72 1150.54,-726.72 1150.54,-749.28 1150.54,-749.28 1150.54,-755.28 1144.54,-761.28 1138.54,-761.28"/>
<text xml:space="preserve" text-anchor="middle" x="1043.02" y="-742.2" font-family="Noto Sans CJK KR" font-size="14.00" fill="#182033">&lt;&lt;public contract&gt;&gt; SkillDecision</text>
<text xml:space="preserve" text-anchor="middle" x="1043.02" y="-725.4" font-family="Noto Sans CJK KR" font-size="14.00" fill="#182033">CanExecute · FailureReason?</text>
</g>
<!-- SkillValidator&#45;&gt;SkillDecision -->
<g id="edge10" class="edge">
<title>SkillValidator&#45;&gt;SkillDecision</title>
<path fill="none" stroke="#59687e" stroke-width="1.3" d="M712.97,-745.76C712.97,-745.76 924.98,-745.76 924.98,-745.76"/>
<polygon fill="#59687e" stroke="#59687e" stroke-width="1.3" points="924.98,-748.56 932.98,-745.76 924.98,-742.96 924.98,-748.56"/>
<text xml:space="preserve" text-anchor="middle" x="808.67" y="-743.2" font-family="Noto Sans CJK KR" font-size="14.00" fill="#46566e">returns</text>
</g>
<!-- SkillDecision&#45;&gt;SkillExecution -->
<g id="edge11" class="edge">
<title>SkillDecision&#45;&gt;SkillExecution</title>
<path fill="none" stroke="#59687e" stroke-width="1.3" d="M934.87,-730.24C925.33,-730.24 919.19,-730.24 919.19,-730.24 919.19,-730.24 919.19,-547.76 919.19,-547.76 919.19,-547.76 680.98,-547.76 680.98,-547.76"/>
<polygon fill="#59687e" stroke="#59687e" stroke-width="1.3" points="680.98,-544.96 672.98,-547.76 680.98,-550.56 680.98,-544.96"/>
<text xml:space="preserve" text-anchor="middle" x="808.67" y="-685.2" font-family="Noto Sans CJK KR" font-size="14.00" fill="#46566e">accepted · internal Begin</text>
</g>
<!-- SkillDecision&#45;&gt;SkillResult -->
<g id="edge12" class="edge">
<title>SkillDecision&#45;&gt;SkillResult</title>
<path fill="none" stroke="#59687e" stroke-width="1.3" d="M1151.13,-738C1151.13,-738 1423.16,-738 1423.16,-738"/>
<polygon fill="#59687e" stroke="#59687e" stroke-width="1.3" points="1423.16,-740.8 1431.16,-738 1423.16,-735.2 1423.16,-740.8"/>
<text xml:space="preserve" text-anchor="middle" x="1289.22" y="-742.2" font-family="Noto Sans CJK KR" font-size="14.00" fill="#46566e">rejected</text>
</g>
<!-- SkillTrace -->
<g id="node18" class="node">
<title>SkillTrace</title>
<path fill="#f0f3f9" stroke="#99a8bd" stroke-width="1.4" d="M2062.72,-765.68C2062.72,-765.68 1902.55,-765.68 1902.55,-765.68 1896.55,-765.68 1890.55,-759.68 1890.55,-753.68 1890.55,-753.68 1890.55,-714.32 1890.55,-714.32 1890.55,-708.32 1896.55,-702.32 1902.55,-702.32 1902.55,-702.32 2062.72,-702.32 2062.72,-702.32 2068.72,-702.32 2074.72,-708.32 2074.72,-714.32 2074.72,-714.32 2074.72,-753.68 2074.72,-753.68 2074.72,-759.68 2068.72,-765.68 2062.72,-765.68"/>
<text xml:space="preserve" text-anchor="middle" x="1982.64" y="-746.6" font-family="Noto Sans CJK KR" font-size="14.00" fill="#182033">DebugTrace / outbox</text>
<text xml:space="preserve" text-anchor="middle" x="1982.64" y="-729.8" font-family="Noto Sans CJK KR" font-size="14.00" fill="#182033">separate calculation evidence</text>
<text xml:space="preserve" text-anchor="middle" x="1982.64" y="-713" font-family="Noto Sans CJK KR" font-size="14.00" fill="#182033">and committed facts</text>
</g>
<!-- SkillResult&#45;&gt;SkillTrace -->
<g id="edge22" class="edge">
<title>SkillResult&#45;&gt;SkillTrace</title>
<path fill="none" stroke="#59687e" stroke-width="1.3" d="M1635.46,-734C1635.46,-734 1880.25,-734 1880.25,-734"/>
<polygon fill="#59687e" stroke="#59687e" stroke-width="1.3" points="1880.25,-736.8 1888.25,-734 1880.25,-731.2 1880.25,-736.8"/>
<text xml:space="preserve" text-anchor="middle" x="1777.62" y="-742.2" font-family="Noto Sans CJK KR" font-size="14.00" fill="#46566e">correlates, does not own</text>
</g>
</g>
</svg>
