<?xml version="1.0" encoding="UTF-8" standalone="no"?>
<!DOCTYPE svg PUBLIC "-//W3C//DTD SVG 1.1//EN"
 "http://www.w3.org/Graphics/SVG/1.1/DTD/svg11.dtd">
<!-- Generated by graphviz version 2.42.4 (0)
 -->
<!-- Title: G Pages: 1 -->
<svg width="994pt" height="613pt"
 viewBox="8.64 8.64 985.64 604.64" xmlns="http://www.w3.org/2000/svg" xmlns:xlink="http://www.w3.org/1999/xlink">
<g id="graph0" class="graph" transform="scale(1 1) rotate(0) translate(26.64 586.64)">
<title>G</title>
<polygon fill="#ffffff" stroke="transparent" points="-18,18 -18,-578 959,-578 959,18 -18,18"/>
<g id="clust1" class="cluster">
<title>cluster_definition</title>
<path fill="#ffffff" stroke="#dfe5ee" stroke-dasharray="5,2" d="M521.5,-91C521.5,-91 921,-91 921,-91 927,-91 933,-97 933,-103 933,-103 933,-461 933,-461 933,-467 927,-473 921,-473 921,-473 521.5,-473 521.5,-473 515.5,-473 509.5,-467 509.5,-461 509.5,-461 509.5,-103 509.5,-103 509.5,-97 515.5,-91 521.5,-91"/>
<text text-anchor="middle" x="721.25" y="-454.6" font-family="Noto Sans CJK KR" font-size="18.00" fill="#607086">Definition Data: 패치와 밸런싱 대상</text>
</g>
<g id="clust2" class="cluster">
<title>cluster_runtime</title>
<path fill="#ffffff" stroke="#dfe5ee" stroke-dasharray="5,2" d="M20,-473C20,-473 645,-473 645,-473 651,-473 657,-479 657,-485 657,-485 657,-540 657,-540 657,-546 651,-552 645,-552 645,-552 20,-552 20,-552 14,-552 8,-546 8,-540 8,-540 8,-485 8,-485 8,-479 14,-473 20,-473"/>
<text text-anchor="middle" x="332.5" y="-533.6" font-family="Noto Sans CJK KR" font-size="18.00" fill="#607086">Availability State + Transient Execution</text>
</g>
<g id="clust3" class="cluster">
<title>cluster_log</title>
<path fill="#ffffff" stroke="#dfe5ee" stroke-dasharray="5,2" d="M226,-8C226,-8 901.5,-8 901.5,-8 907.5,-8 913.5,-14 913.5,-20 913.5,-20 913.5,-75 913.5,-75 913.5,-81 907.5,-87 901.5,-87 901.5,-87 226,-87 226,-87 220,-87 214,-81 214,-75 214,-75 214,-20 214,-20 214,-14 220,-8 226,-8"/>
<text text-anchor="middle" x="563.75" y="-68.6" font-family="Noto Sans CJK KR" font-size="18.00" fill="#607086">Execution Log: 디버그와 리플레이</text>
</g>
<!-- SkillDef -->
<g id="node1" class="node">
<title>SkillDef</title>
<path fill="#fff7e6" stroke="#e0ad4e" stroke-width="1.4" d="M620.5,-289C620.5,-289 521.5,-289 521.5,-289 515.5,-289 509.5,-283 509.5,-277 509.5,-277 509.5,-259 509.5,-259 509.5,-253 515.5,-247 521.5,-247 521.5,-247 620.5,-247 620.5,-247 626.5,-247 632.5,-253 632.5,-259 632.5,-259 632.5,-277 632.5,-277 632.5,-283 626.5,-289 620.5,-289"/>
<text text-anchor="middle" x="571" y="-271.8" font-family="Noto Sans CJK KR" font-size="14.00" fill="#182033">SkillDefinition</text>
<text text-anchor="middle" x="571" y="-256.8" font-family="Noto Sans CJK KR" font-size="14.00" fill="#182033">id, tags, display</text>
</g>
<!-- CostDef -->
<g id="node2" class="node">
<title>CostDef</title>
<path fill="#fff0f3" stroke="#e07b91" stroke-width="1.4" d="M921,-133C921,-133 762,-133 762,-133 756,-133 750,-127 750,-121 750,-121 750,-103 750,-103 750,-97 756,-91 762,-91 762,-91 921,-91 921,-91 927,-91 933,-97 933,-103 933,-103 933,-121 933,-121 933,-127 927,-133 921,-133"/>
<text text-anchor="middle" x="841.5" y="-115.8" font-family="Noto Sans CJK KR" font-size="14.00" fill="#182033">CostDefinition</text>
<text text-anchor="middle" x="841.5" y="-100.8" font-family="Noto Sans CJK KR" font-size="14.00" fill="#182033">resource, amount, timing</text>
</g>
<!-- SkillDef&#45;&gt;CostDef -->
<g id="edge1" class="edge">
<title>SkillDef&#45;&gt;CostDef</title>
<path fill="none" stroke="#59687e" stroke-width="1.3" d="M571,-246.96C571,-204.38 571,-112 571,-112 571,-112 741.92,-112 741.92,-112"/>
<polygon fill="#59687e" stroke="#59687e" stroke-width="1.3" points="741.92,-114.8 749.92,-112 741.92,-109.2 741.92,-114.8"/>
<text text-anchor="middle" x="703.5" y="-138.8" font-family="Noto Sans CJK KR" font-size="14.00" fill="#46566e">has</text>
</g>
<!-- CooldownDef -->
<g id="node3" class="node">
<title>CooldownDef</title>
<path fill="#fff0f3" stroke="#e07b91" stroke-width="1.4" d="M919,-211C919,-211 764,-211 764,-211 758,-211 752,-205 752,-199 752,-199 752,-181 752,-181 752,-175 758,-169 764,-169 764,-169 919,-169 919,-169 925,-169 931,-175 931,-181 931,-181 931,-199 931,-199 931,-205 925,-211 919,-211"/>
<text text-anchor="middle" x="841.5" y="-193.8" font-family="Noto Sans CJK KR" font-size="14.00" fill="#182033">CooldownDefinition</text>
<text text-anchor="middle" x="841.5" y="-178.8" font-family="Noto Sans CJK KR" font-size="14.00" fill="#182033">duration, group, charges</text>
</g>
<!-- SkillDef&#45;&gt;CooldownDef -->
<g id="edge2" class="edge">
<title>SkillDef&#45;&gt;CooldownDef</title>
<path fill="none" stroke="#59687e" stroke-width="1.3" d="M632.67,-257.5C691.76,-257.5 772,-257.5 772,-257.5 772,-257.5 772,-219.36 772,-219.36"/>
<polygon fill="#59687e" stroke="#59687e" stroke-width="1.3" points="774.8,-219.36 772,-211.36 769.2,-219.36 774.8,-219.36"/>
<text text-anchor="middle" x="703.5" y="-208.8" font-family="Noto Sans CJK KR" font-size="14.00" fill="#46566e">has</text>
</g>
<!-- TargetDef -->
<g id="node4" class="node">
<title>TargetDef</title>
<path fill="#e9fbff" stroke="#54b7cf" stroke-width="1.4" d="M889,-289C889,-289 794,-289 794,-289 788,-289 782,-283 782,-277 782,-277 782,-259 782,-259 782,-253 788,-247 794,-247 794,-247 889,-247 889,-247 895,-247 901,-253 901,-259 901,-259 901,-277 901,-277 901,-283 895,-289 889,-289"/>
<text text-anchor="middle" x="841.5" y="-271.8" font-family="Noto Sans CJK KR" font-size="14.00" fill="#182033">TargetingSpec</text>
<text text-anchor="middle" x="841.5" y="-256.8" font-family="Noto Sans CJK KR" font-size="14.00" fill="#182033">type, range, los</text>
</g>
<!-- SkillDef&#45;&gt;TargetDef -->
<g id="edge3" class="edge">
<title>SkillDef&#45;&gt;TargetDef</title>
<path fill="none" stroke="#59687e" stroke-width="1.3" d="M632.72,-268C632.72,-268 773.91,-268 773.91,-268"/>
<polygon fill="#59687e" stroke="#59687e" stroke-width="1.3" points="773.91,-270.8 781.91,-268 773.91,-265.2 773.91,-270.8"/>
<text text-anchor="middle" x="703.5" y="-271.8" font-family="Noto Sans CJK KR" font-size="14.00" fill="#46566e">has</text>
</g>
<!-- TimelineDef -->
<g id="node5" class="node">
<title>TimelineDef</title>
<path fill="#e9fbff" stroke="#54b7cf" stroke-width="1.4" d="M920.5,-367C920.5,-367 762.5,-367 762.5,-367 756.5,-367 750.5,-361 750.5,-355 750.5,-355 750.5,-337 750.5,-337 750.5,-331 756.5,-325 762.5,-325 762.5,-325 920.5,-325 920.5,-325 926.5,-325 932.5,-331 932.5,-337 932.5,-337 932.5,-355 932.5,-355 932.5,-361 926.5,-367 920.5,-367"/>
<text text-anchor="middle" x="841.5" y="-349.8" font-family="Noto Sans CJK KR" font-size="14.00" fill="#182033">TimelineDefinition</text>
<text text-anchor="middle" x="841.5" y="-334.8" font-family="Noto Sans CJK KR" font-size="14.00" fill="#182033">phases, markers, cancels</text>
</g>
<!-- SkillDef&#45;&gt;TimelineDef -->
<g id="edge4" class="edge">
<title>SkillDef&#45;&gt;TimelineDef</title>
<path fill="none" stroke="#59687e" stroke-width="1.3" d="M632.75,-278.5C688.55,-278.5 762,-278.5 762,-278.5 762,-278.5 762,-316.64 762,-316.64"/>
<polygon fill="#59687e" stroke="#59687e" stroke-width="1.3" points="759.2,-316.64 762,-324.64 764.8,-316.64 759.2,-316.64"/>
<text text-anchor="middle" x="703.5" y="-338.8" font-family="Noto Sans CJK KR" font-size="14.00" fill="#46566e">has</text>
</g>
<!-- BundleRef -->
<g id="node6" class="node">
<title>BundleRef</title>
<path fill="#fff7e6" stroke="#e0ad4e" stroke-width="1.4" d="M895.5,-445C895.5,-445 787.5,-445 787.5,-445 781.5,-445 775.5,-439 775.5,-433 775.5,-433 775.5,-415 775.5,-415 775.5,-409 781.5,-403 787.5,-403 787.5,-403 895.5,-403 895.5,-403 901.5,-403 907.5,-409 907.5,-415 907.5,-415 907.5,-433 907.5,-433 907.5,-439 901.5,-445 895.5,-445"/>
<text text-anchor="middle" x="841.5" y="-427.8" font-family="Noto Sans CJK KR" font-size="14.00" fill="#182033">EffectBundleRef</text>
<text text-anchor="middle" x="841.5" y="-412.8" font-family="Noto Sans CJK KR" font-size="14.00" fill="#182033">effect ids + policy</text>
</g>
<!-- SkillDef&#45;&gt;BundleRef -->
<g id="edge5" class="edge">
<title>SkillDef&#45;&gt;BundleRef</title>
<path fill="none" stroke="#59687e" stroke-width="1.3" d="M571,-289.04C571,-331.62 571,-424 571,-424 571,-424 767.33,-424 767.33,-424"/>
<polygon fill="#59687e" stroke="#59687e" stroke-width="1.3" points="767.33,-426.8 775.33,-424 767.33,-421.2 767.33,-426.8"/>
<text text-anchor="middle" x="703.5" y="-410.8" font-family="Noto Sans CJK KR" font-size="14.00" fill="#46566e">has</text>
</g>
<!-- SkillBook -->
<g id="node7" class="node">
<title>SkillBook</title>
<path fill="#eaf0ff" stroke="#8292f7" stroke-width="1.4" d="M117,-524C117,-524 20,-524 20,-524 14,-524 8,-518 8,-512 8,-512 8,-494 8,-494 8,-488 14,-482 20,-482 20,-482 117,-482 117,-482 123,-482 129,-488 129,-494 129,-494 129,-512 129,-512 129,-518 123,-524 117,-524"/>
<text text-anchor="middle" x="68.5" y="-506.8" font-family="Noto Sans CJK KR" font-size="14.00" fill="#182033">SkillBook</text>
<text text-anchor="middle" x="68.5" y="-491.8" font-family="Noto Sans CJK KR" font-size="14.00" fill="#182033">learned skill ids</text>
</g>
<!-- SkillRuntime -->
<g id="node8" class="node">
<title>SkillRuntime</title>
<path fill="#eaf0ff" stroke="#8292f7" stroke-width="1.4" d="M344,-524C344,-524 226,-524 226,-524 220,-524 214,-518 214,-512 214,-512 214,-494 214,-494 214,-488 220,-482 226,-482 226,-482 344,-482 344,-482 350,-482 356,-488 356,-494 356,-494 356,-512 356,-512 356,-518 350,-524 344,-524"/>
<text text-anchor="middle" x="285" y="-506.8" font-family="Noto Sans CJK KR" font-size="14.00" fill="#182033">SkillRuntime</text>
<text text-anchor="middle" x="285" y="-491.8" font-family="Noto Sans CJK KR" font-size="14.00" fill="#182033">cooldown, charges</text>
</g>
<!-- SkillBook&#45;&gt;SkillRuntime -->
<g id="edge6" class="edge">
<title>SkillBook&#45;&gt;SkillRuntime</title>
<path fill="none" stroke="#59687e" stroke-width="1.3" d="M129.1,-503C129.1,-503 205.68,-503 205.68,-503"/>
<polygon fill="#59687e" stroke="#59687e" stroke-width="1.3" points="205.68,-505.8 213.68,-503 205.68,-500.2 205.68,-505.8"/>
<text text-anchor="middle" x="171.5" y="-512.8" font-family="Noto Sans CJK KR" font-size="14.00" fill="#46566e">owns</text>
</g>
<!-- SkillRuntime&#45;&gt;SkillDef -->
<g id="edge7" class="edge">
<title>SkillRuntime&#45;&gt;SkillDef</title>
<path fill="none" stroke="#59687e" stroke-width="1.3" d="M262,-481.96C262,-425.52 262,-275 262,-275 262,-275 501.21,-275 501.21,-275"/>
<polygon fill="#59687e" stroke="#59687e" stroke-width="1.3" points="501.21,-277.8 509.21,-275 501.21,-272.2 501.21,-277.8"/>
<text text-anchor="middle" x="420.5" y="-327.8" font-family="Noto Sans CJK KR" font-size="14.00" fill="#46566e">definition id</text>
</g>
<!-- CastState -->
<g id="node9" class="node">
<title>CastState</title>
<path fill="#eaf0ff" stroke="#8292f7" stroke-width="1.4" d="M645,-524C645,-524 497,-524 497,-524 491,-524 485,-518 485,-512 485,-512 485,-494 485,-494 485,-488 491,-482 497,-482 497,-482 645,-482 645,-482 651,-482 657,-488 657,-494 657,-494 657,-512 657,-512 657,-518 651,-524 645,-524"/>
<text text-anchor="middle" x="571" y="-506.8" font-family="Noto Sans CJK KR" font-size="14.00" fill="#182033">SkillExecution</text>
<text text-anchor="middle" x="571" y="-491.8" font-family="Noto Sans CJK KR" font-size="14.00" fill="#182033">phase, elapsed, marker</text>
</g>
<!-- SkillRuntime&#45;&gt;CastState -->
<g id="edge8" class="edge">
<title>SkillRuntime&#45;&gt;CastState</title>
<path fill="none" stroke="#59687e" stroke-width="1.3" d="M356.06,-503C356.06,-503 477,-503 477,-503"/>
<polygon fill="#59687e" stroke="#59687e" stroke-width="1.3" points="477,-505.8 485,-503 477,-500.2 477,-505.8"/>
<text text-anchor="middle" x="420.5" y="-512.8" font-family="Noto Sans CJK KR" font-size="14.00" fill="#46566e">separate axis</text>
</g>
<!-- SkillRequest -->
<g id="node10" class="node">
<title>SkillRequest</title>
<path fill="#eefbf6" stroke="#61b99a" stroke-width="1.4" d="M344,-59C344,-59 226,-59 226,-59 220,-59 214,-53 214,-47 214,-47 214,-29 214,-29 214,-23 220,-17 226,-17 226,-17 344,-17 344,-17 350,-17 356,-23 356,-29 356,-29 356,-47 356,-47 356,-53 350,-59 344,-59"/>
<text text-anchor="middle" x="285" y="-41.8" font-family="Noto Sans CJK KR" font-size="14.00" fill="#182033">SkillRequest</text>
<text text-anchor="middle" x="285" y="-26.8" font-family="Noto Sans CJK KR" font-size="14.00" fill="#182033">caster, target, seed</text>
</g>
<!-- SkillRequest&#45;&gt;SkillDef -->
<g id="edge9" class="edge">
<title>SkillRequest&#45;&gt;SkillDef</title>
<path fill="none" stroke="#59687e" stroke-width="1.3" d="M309,-59.38C309,-115.2 309,-261 309,-261 309,-261 501.24,-261 501.24,-261"/>
<polygon fill="#59687e" stroke="#59687e" stroke-width="1.3" points="501.24,-263.8 509.24,-261 501.24,-258.2 501.24,-263.8"/>
<text text-anchor="middle" x="420.5" y="-215.8" font-family="Noto Sans CJK KR" font-size="14.00" fill="#46566e">lookup</text>
</g>
<!-- SkillResult -->
<g id="node11" class="node">
<title>SkillResult</title>
<path fill="#f0f3f9" stroke="#99a8bd" stroke-width="1.4" d="M634,-59C634,-59 508,-59 508,-59 502,-59 496,-53 496,-47 496,-47 496,-29 496,-29 496,-23 502,-17 508,-17 508,-17 634,-17 634,-17 640,-17 646,-23 646,-29 646,-29 646,-47 646,-47 646,-53 640,-59 634,-59"/>
<text text-anchor="middle" x="571" y="-41.8" font-family="Noto Sans CJK KR" font-size="14.00" fill="#182033">SkillResult</text>
<text text-anchor="middle" x="571" y="-26.8" font-family="Noto Sans CJK KR" font-size="14.00" fill="#182033">status, effectResults</text>
</g>
<!-- SkillRequest&#45;&gt;SkillResult -->
<g id="edge10" class="edge">
<title>SkillRequest&#45;&gt;SkillResult</title>
<path fill="none" stroke="#59687e" stroke-width="1.3" d="M356.06,-38C356.06,-38 487.8,-38 487.8,-38"/>
<polygon fill="#59687e" stroke="#59687e" stroke-width="1.3" points="487.8,-40.8 495.8,-38 487.8,-35.2 487.8,-40.8"/>
<text text-anchor="middle" x="420.5" y="-47.8" font-family="Noto Sans CJK KR" font-size="14.00" fill="#46566e">produces</text>
</g>
<!-- SkillTrace -->
<g id="node12" class="node">
<title>SkillTrace</title>
<path fill="#f0f3f9" stroke="#99a8bd" stroke-width="1.4" d="M901.5,-55C901.5,-55 781.5,-55 781.5,-55 775.5,-55 769.5,-49 769.5,-43 769.5,-43 769.5,-25 769.5,-25 769.5,-19 775.5,-13 781.5,-13 781.5,-13 901.5,-13 901.5,-13 907.5,-13 913.5,-19 913.5,-25 913.5,-25 913.5,-43 913.5,-43 913.5,-49 907.5,-55 901.5,-55"/>
<text text-anchor="middle" x="841.5" y="-37.8" font-family="Noto Sans CJK KR" font-size="14.00" fill="#182033">SkillTrace</text>
<text text-anchor="middle" x="841.5" y="-22.8" font-family="Noto Sans CJK KR" font-size="14.00" fill="#182033">steps, costs, events</text>
</g>
<!-- SkillResult&#45;&gt;SkillTrace -->
<g id="edge11" class="edge">
<title>SkillResult&#45;&gt;SkillTrace</title>
<path fill="none" stroke="#59687e" stroke-width="1.3" d="M646.35,-36C646.35,-36 761.35,-36 761.35,-36"/>
<polygon fill="#59687e" stroke="#59687e" stroke-width="1.3" points="761.35,-38.8 769.35,-36 761.35,-33.2 761.35,-38.8"/>
<text text-anchor="middle" x="703.5" y="-47.8" font-family="Noto Sans CJK KR" font-size="14.00" fill="#46566e">debug</text>
</g>
</g>
</svg>
