<?xml version="1.0" encoding="UTF-8" standalone="no"?>
<!DOCTYPE svg PUBLIC "-//W3C//DTD SVG 1.1//EN"
 "http://www.w3.org/Graphics/SVG/1.1/DTD/svg11.dtd">
<!-- Generated by graphviz version 15.1.0 (20260618.0150)
 -->
<!-- Title: G Pages: 1 -->
<svg width="2662pt" height="2165pt"
 viewBox="12.00 12.00 2651.00 2154.00" xmlns="http://www.w3.org/2000/svg" xmlns:xlink="http://www.w3.org/1999/xlink">
<g id="graph0" class="graph" transform="scale(1.33333 1.33333) rotate(0) translate(26.64 1597.48)">
<title>G</title>
<polygon fill="#ffffff" stroke="none" points="-18,18 -18,-1588.84 1961.27,-1588.84 1961.27,18 -18,18"/>
<!-- DamageRequest -->
<g id="node1" class="node">
<title>DamageRequest</title>
<path fill="#ffffff" stroke="none" stroke-width="1.4" d="M138,-1570.84C138,-1570.84 12,-1570.84 12,-1570.84 6,-1570.84 0,-1564.84 0,-1558.84 0,-1558.84 0,-1245.34 0,-1245.34 0,-1239.34 6,-1233.34 12,-1233.34 12,-1233.34 138,-1233.34 138,-1233.34 144,-1233.34 150,-1239.34 150,-1245.34 150,-1245.34 150,-1558.84 150,-1558.84 150,-1564.84 144,-1570.84 138,-1570.84"/>
<polygon fill="#eefbf6" stroke="none" points="1,-1533.59 1,-1569.84 149,-1569.84 149,-1533.59 1,-1533.59"/>
<text xml:space="preserve" text-anchor="start" x="18" y="-1547.64" font-family="Noto Sans KR" font-weight="bold" font-size="16.00" fill="#182033">DamageRequest</text>
<text xml:space="preserve" text-anchor="start" x="9" y="-1511.34" font-family="Noto Sans KR" font-size="14.00" fill="#182033">+ AttackerId: EntityId</text>
<text xml:space="preserve" text-anchor="start" x="9" y="-1478.09" font-family="Noto Sans KR" font-size="14.00" fill="#182033">+ DefenderId: EntityId</text>
<text xml:space="preserve" text-anchor="start" x="9" y="-1444.84" font-family="Noto Sans KR" font-size="14.00" fill="#182033">+ Source: SourceRef</text>
<text xml:space="preserve" text-anchor="start" x="9" y="-1411.59" font-family="Noto Sans KR" font-size="14.00" fill="#182033">+ FormulaId</text>
<text xml:space="preserve" text-anchor="start" x="9" y="-1378.34" font-family="Noto Sans KR" font-size="14.00" fill="#182033">+ DamageType</text>
<text xml:space="preserve" text-anchor="start" x="9" y="-1345.09" font-family="Noto Sans KR" font-size="14.00" fill="#182033">+ BaseValue</text>
<text xml:space="preserve" text-anchor="start" x="9" y="-1311.84" font-family="Noto Sans KR" font-size="14.00" fill="#182033">+ CoefficientBps</text>
<text xml:space="preserve" text-anchor="start" x="9" y="-1278.59" font-family="Noto Sans KR" font-size="14.00" fill="#182033">+ Tags</text>
<text xml:space="preserve" text-anchor="start" x="9" y="-1245.34" font-family="Noto Sans KR" font-size="14.00" fill="#182033">+ Seed</text>
<polygon fill="none" stroke="#61b99a" points="0,-1233.34 0,-1570.84 150,-1570.84 150,-1233.34 0,-1233.34"/>
</g>
<!-- DamagePipeline -->
<g id="node3" class="node">
<title>DamagePipeline</title>
<path fill="#ffffff" stroke="none" stroke-width="1.4" d="M263.88,-1164.09C263.88,-1164.09 140.12,-1164.09 140.12,-1164.09 134.12,-1164.09 128.12,-1158.09 128.12,-1152.09 128.12,-1152.09 128.12,-971.59 128.12,-971.59 128.12,-965.59 134.12,-959.59 140.12,-959.59 140.12,-959.59 263.88,-959.59 263.88,-959.59 269.88,-959.59 275.88,-965.59 275.88,-971.59 275.88,-971.59 275.88,-1152.09 275.88,-1152.09 275.88,-1158.09 269.88,-1164.09 263.88,-1164.09"/>
<polygon fill="#eaf0ff" stroke="none" points="129.12,-1126.84 129.12,-1163.09 274.88,-1163.09 274.88,-1126.84 129.12,-1126.84"/>
<text xml:space="preserve" text-anchor="start" x="145" y="-1140.89" font-family="Noto Sans KR" font-weight="bold" font-size="16.00" fill="#182033">DamagePipeline</text>
<text xml:space="preserve" text-anchor="start" x="137.12" y="-1104.59" font-family="Noto Sans KR" font-size="14.00" fill="#182033">+ Validate()</text>
<text xml:space="preserve" text-anchor="start" x="137.12" y="-1071.34" font-family="Noto Sans KR" font-size="14.00" fill="#182033">+ ResolveHit()</text>
<text xml:space="preserve" text-anchor="start" x="137.12" y="-1038.09" font-family="Noto Sans KR" font-size="14.00" fill="#182033">+ CalculateFormula()</text>
<text xml:space="preserve" text-anchor="start" x="137.12" y="-1004.84" font-family="Noto Sans KR" font-size="14.00" fill="#182033">+ ResolveCritical()</text>
<text xml:space="preserve" text-anchor="start" x="137.12" y="-971.59" font-family="Noto Sans KR" font-size="14.00" fill="#182033">+ BuildResult()</text>
<polygon fill="none" stroke="#8292f7" points="128.12,-959.59 128.12,-1164.09 275.88,-1164.09 275.88,-959.59 128.12,-959.59"/>
</g>
<!-- DamageRequest&#45;&gt;DamagePipeline -->
<g id="edge1" class="edge">
<title>DamageRequest&#45;&gt;DamagePipeline</title>
<path fill="none" stroke="#59687e" stroke-width="1.3" d="M137.94,-1233.45C145.64,-1212.94 153.35,-1192.41 160.62,-1173.05"/>
<polygon fill="#59687e" stroke="#59687e" stroke-width="1.3" points="163.16,-1174.26 163.35,-1165.78 157.91,-1172.29 163.16,-1174.26"/>
</g>
<!-- CombatContext -->
<g id="node2" class="node">
<title>CombatContext</title>
<path fill="#ffffff" stroke="none" stroke-width="1.4" d="M446.75,-1537.59C446.75,-1537.59 211.25,-1537.59 211.25,-1537.59 205.25,-1537.59 199.25,-1531.59 199.25,-1525.59 199.25,-1525.59 199.25,-1278.59 199.25,-1278.59 199.25,-1272.59 205.25,-1266.59 211.25,-1266.59 211.25,-1266.59 446.75,-1266.59 446.75,-1266.59 452.75,-1266.59 458.75,-1272.59 458.75,-1278.59 458.75,-1278.59 458.75,-1525.59 458.75,-1525.59 458.75,-1531.59 452.75,-1537.59 446.75,-1537.59"/>
<polygon fill="#e9fbff" stroke="none" points="200.25,-1500.34 200.25,-1536.59 457.75,-1536.59 457.75,-1500.34 200.25,-1500.34"/>
<text xml:space="preserve" text-anchor="start" x="273.88" y="-1514.39" font-family="Noto Sans KR" font-weight="bold" font-size="16.00" fill="#182033">CombatContext</text>
<text xml:space="preserve" text-anchor="start" x="208.25" y="-1478.09" font-family="Noto Sans KR" font-size="14.00" fill="#182033">+ Distance</text>
<text xml:space="preserve" text-anchor="start" x="208.25" y="-1444.84" font-family="Noto Sans KR" font-size="14.00" fill="#182033">+ Facing</text>
<text xml:space="preserve" text-anchor="start" x="208.25" y="-1411.59" font-family="Noto Sans KR" font-size="14.00" fill="#182033">+ TerrainTags</text>
<text xml:space="preserve" text-anchor="start" x="208.25" y="-1378.34" font-family="Noto Sans KR" font-size="14.00" fill="#182033">+ StatusTags</text>
<text xml:space="preserve" text-anchor="start" x="208.25" y="-1345.09" font-family="Noto Sans KR" font-size="14.00" fill="#182033">+ AvailableShield: resource snapshot</text>
<text xml:space="preserve" text-anchor="start" x="208.25" y="-1311.84" font-family="Noto Sans KR" font-size="14.00" fill="#182033">+ AvailableTargetHp: resource snapshot</text>
<text xml:space="preserve" text-anchor="start" x="208.25" y="-1278.59" font-family="Noto Sans KR" font-size="14.00" fill="#182033">+ Difficulty</text>
<polygon fill="none" stroke="#54b7cf" points="199.25,-1266.59 199.25,-1537.59 458.75,-1537.59 458.75,-1266.59 199.25,-1266.59"/>
</g>
<!-- CombatContext&#45;&gt;DamagePipeline -->
<g id="edge2" class="edge">
<title>CombatContext&#45;&gt;DamagePipeline</title>
<path fill="none" stroke="#59687e" stroke-width="1.3" d="M278.62,-1266.92C266.95,-1235.83 254.66,-1203.09 243.42,-1173.16"/>
<polygon fill="#59687e" stroke="#59687e" stroke-width="1.3" points="246.09,-1172.31 240.66,-1165.8 240.85,-1174.28 246.09,-1172.31"/>
</g>
<!-- ICombatResolver -->
<g id="node4" class="node">
<title>ICombatResolver</title>
<path fill="#eaf0ff" stroke="#8292f7" stroke-width="1.4" d="M889.77,-1435.89C889.77,-1435.89 520.23,-1435.89 520.23,-1435.89 514.23,-1435.89 508.23,-1429.89 508.23,-1423.89 508.23,-1423.89 508.23,-1380.3 508.23,-1380.3 508.23,-1374.3 514.23,-1368.3 520.23,-1368.3 520.23,-1368.3 889.77,-1368.3 889.77,-1368.3 895.77,-1368.3 901.77,-1374.3 901.77,-1380.3 901.77,-1380.3 901.77,-1423.89 901.77,-1423.89 901.77,-1429.89 895.77,-1435.89 889.77,-1435.89"/>
<text xml:space="preserve" text-anchor="middle" x="705" y="-1414.67" font-family="Noto Sans KR" font-size="14.00" fill="#182033">&lt;&lt;interface&gt;&gt; ICombatResolver</text>
<text xml:space="preserve" text-anchor="middle" x="705" y="-1397.42" font-family="Noto Sans KR" font-size="14.00" fill="#182033">+ Resolve(DamageRequest, CombatContext): DamageResult</text>
<text xml:space="preserve" text-anchor="middle" x="705" y="-1380.17" font-family="Noto Sans KR" font-size="14.00" fill="#182033">pure calculation</text>
</g>
<!-- DamagePipeline&#45;&gt;ICombatResolver -->
<g id="edge3" class="edge">
<title>DamagePipeline&#45;&gt;ICombatResolver</title>
<path fill="none" stroke="#59687e" stroke-width="1.3" stroke-dasharray="5,2" d="M275.83,-1107.64C359.08,-1158.15 483,-1233.34 483,-1233.34 483,-1233.34 587.47,-1312.28 653.08,-1361.85"/>
<polygon fill="none" stroke="#59687e" stroke-width="1.3" points="651.23,-1363.97 659.3,-1366.56 654.61,-1359.5 651.23,-1363.97"/>
<text xml:space="preserve" text-anchor="middle" x="473.39" y="-1194.04" font-family="Noto Sans KR" font-size="14.00" fill="#46566e">implements</text>
</g>
<!-- HitResolver -->
<g id="node5" class="node">
<title>HitResolver</title>
<path fill="#ffffff" stroke="none" stroke-width="1.4" d="M250.38,-906.59C250.38,-906.59 153.62,-906.59 153.62,-906.59 147.62,-906.59 141.62,-900.59 141.62,-894.59 141.62,-894.59 141.62,-747.34 141.62,-747.34 141.62,-741.34 147.62,-735.34 153.62,-735.34 153.62,-735.34 250.38,-735.34 250.38,-735.34 256.38,-735.34 262.38,-741.34 262.38,-747.34 262.38,-747.34 262.38,-894.59 262.38,-894.59 262.38,-900.59 256.38,-906.59 250.38,-906.59"/>
<polygon fill="#fff7e6" stroke="none" points="142.62,-869.34 142.62,-905.59 261.38,-905.59 261.38,-869.34 142.62,-869.34"/>
<text xml:space="preserve" text-anchor="start" x="150.62" y="-883.39" font-family="Noto Sans KR" font-weight="bold" font-size="16.00" fill="#182033">1 · HitResolver</text>
<text xml:space="preserve" text-anchor="start" x="150.62" y="-847.09" font-family="Noto Sans KR" font-size="14.00" fill="#182033">+ Accuracy</text>
<text xml:space="preserve" text-anchor="start" x="150.62" y="-813.84" font-family="Noto Sans KR" font-size="14.00" fill="#182033">+ Evasion</text>
<text xml:space="preserve" text-anchor="start" x="150.62" y="-780.59" font-family="Noto Sans KR" font-size="14.00" fill="#182033">+ Block</text>
<text xml:space="preserve" text-anchor="start" x="150.62" y="-747.34" font-family="Noto Sans KR" font-size="14.00" fill="#182033">+ Invulnerable</text>
<polygon fill="none" stroke="#e0ad4e" points="141.62,-735.34 141.62,-906.59 262.38,-906.59 262.38,-735.34 141.62,-735.34"/>
</g>
<!-- DamagePipeline&#45;&gt;HitResolver -->
<g id="edge4" class="edge">
<title>DamagePipeline&#45;&gt;HitResolver</title>
<path fill="none" stroke="#59687e" stroke-width="1.3" d="M202,-959.88C202,-945.4 202,-930.54 202,-916.19"/>
<polygon fill="#59687e" stroke="#59687e" stroke-width="1.3" points="204.8,-916.32 202,-908.32 199.2,-916.32 204.8,-916.32"/>
</g>
<!-- NonHitBranch -->
<g id="node16" class="node">
<title>NonHitBranch</title>
<polygon fill="#fff7e6" stroke="#e0ad4e" stroke-width="1.4" points="1126.27,-314.51 891.73,-314.51 891.73,-264.17 1132.27,-264.17 1132.27,-308.51 1126.27,-314.51"/>
<polyline fill="none" stroke="#e0ad4e" stroke-width="1.4" points="1126.27,-314.51 1126.27,-308.51"/>
<polyline fill="none" stroke="#e0ad4e" stroke-width="1.4" points="1132.27,-308.51 1126.27,-308.51"/>
<text xml:space="preserve" text-anchor="middle" x="1012" y="-293.29" font-family="Noto Sans KR" font-size="14.00" fill="#182033">Non&#45;damaging branch</text>
<text xml:space="preserve" text-anchor="middle" x="1012" y="-276.04" font-family="Noto Sans KR" font-size="14.00" fill="#182033">Miss / Blocked / Immune / Rejected</text>
</g>
<!-- DamagePipeline&#45;&gt;NonHitBranch -->
<g id="edge13" class="edge">
<title>DamagePipeline&#45;&gt;NonHitBranch</title>
<path fill="none" stroke="#59687e" stroke-width="1.3" stroke-dasharray="5,2" d="M275.73,-1043.89C450.04,-1003.82 873,-906.59 873,-906.59 873,-906.59 873,-735.34 873,-735.34 873,-735.34 672,-682.34 672,-682.34 672,-682.34 672,-511.09 672,-511.09 672,-511.09 872.95,-380.62 965.88,-320.29"/>
<polygon fill="#59687e" stroke="#59687e" stroke-width="1.3" points="967.15,-322.8 972.34,-316.09 964.1,-318.1 967.15,-322.8"/>
</g>
<!-- DamageFormula -->
<g id="node7" class="node">
<title>DamageFormula</title>
<path fill="#ffffff" stroke="none" stroke-width="1.4" d="M591.88,-889.97C591.88,-889.97 372.12,-889.97 372.12,-889.97 366.12,-889.97 360.12,-883.97 360.12,-877.97 360.12,-877.97 360.12,-763.97 360.12,-763.97 360.12,-757.97 366.12,-751.97 372.12,-751.97 372.12,-751.97 591.88,-751.97 591.88,-751.97 597.88,-751.97 603.88,-757.97 603.88,-763.97 603.88,-763.97 603.88,-877.97 603.88,-877.97 603.88,-883.97 597.88,-889.97 591.88,-889.97"/>
<polygon fill="#f3eefc" stroke="none" points="361.12,-852.72 361.12,-888.97 602.88,-888.97 602.88,-852.72 361.12,-852.72"/>
<text xml:space="preserve" text-anchor="start" x="411.88" y="-866.76" font-family="Noto Sans KR" font-weight="bold" font-size="16.00" fill="#182033">2 · DamageFormula</text>
<text xml:space="preserve" text-anchor="start" x="369.12" y="-830.47" font-family="Noto Sans KR" font-size="14.00" fill="#182033">+ BaseValue + StatValue * Coefficient</text>
<text xml:space="preserve" text-anchor="start" x="369.12" y="-797.22" font-family="Noto Sans KR" font-size="14.00" fill="#182033">+ OffensiveBonus</text>
<text xml:space="preserve" text-anchor="start" x="369.12" y="-763.97" font-family="Noto Sans KR" font-size="14.00" fill="#182033">+ FormulaSubtotal</text>
<polygon fill="none" stroke="#ab8fe0" points="360.12,-751.97 360.12,-889.97 603.88,-889.97 603.88,-751.97 360.12,-751.97"/>
</g>
<!-- HitResolver&#45;&gt;DamageFormula -->
<g id="edge5" class="edge">
<title>HitResolver&#45;&gt;DamageFormula</title>
<path fill="none" stroke="#59687e" stroke-width="1.3" d="M262.16,-820.97C280.22,-820.97 295.33,-820.97 295.33,-820.97 295.33,-820.96 324.72,-820.96 350.52,-820.96"/>
<polygon fill="#59687e" stroke="#59687e" stroke-width="1.3" points="350.19,-823.76 358.19,-820.96 350.19,-818.16 350.19,-823.76"/>
</g>
<!-- CriticalResolver -->
<g id="node6" class="node">
<title>CriticalResolver</title>
<path fill="#ffffff" stroke="none" stroke-width="1.4" d="M836.88,-889.97C836.88,-889.97 713.12,-889.97 713.12,-889.97 707.12,-889.97 701.12,-883.97 701.12,-877.97 701.12,-877.97 701.12,-763.97 701.12,-763.97 701.12,-757.97 707.12,-751.97 713.12,-751.97 713.12,-751.97 836.88,-751.97 836.88,-751.97 842.88,-751.97 848.88,-757.97 848.88,-763.97 848.88,-763.97 848.88,-877.97 848.88,-877.97 848.88,-883.97 842.88,-889.97 836.88,-889.97"/>
<polygon fill="#fff7e6" stroke="none" points="702.12,-852.72 702.12,-888.97 847.88,-888.97 847.88,-852.72 702.12,-852.72"/>
<text xml:space="preserve" text-anchor="start" x="710.12" y="-866.76" font-family="Noto Sans KR" font-weight="bold" font-size="16.00" fill="#182033">3 · CriticalResolver</text>
<text xml:space="preserve" text-anchor="start" x="710.12" y="-830.47" font-family="Noto Sans KR" font-size="14.00" fill="#182033">+ CritChance</text>
<text xml:space="preserve" text-anchor="start" x="710.12" y="-797.22" font-family="Noto Sans KR" font-size="14.00" fill="#182033">+ CritMultiplier</text>
<text xml:space="preserve" text-anchor="start" x="710.12" y="-763.97" font-family="Noto Sans KR" font-size="14.00" fill="#182033">+ CritResist</text>
<polygon fill="none" stroke="#e0ad4e" points="701.12,-751.97 701.12,-889.97 848.88,-889.97 848.88,-751.97 701.12,-751.97"/>
</g>
<!-- DefenseResolver -->
<g id="node8" class="node">
<title>DefenseResolver</title>
<path fill="#ffffff" stroke="none" stroke-width="1.4" d="M841,-682.34C841,-682.34 709,-682.34 709,-682.34 703,-682.34 697,-676.34 697,-670.34 697,-670.34 697,-523.09 697,-523.09 697,-517.09 703,-511.09 709,-511.09 709,-511.09 841,-511.09 841,-511.09 847,-511.09 853,-517.09 853,-523.09 853,-523.09 853,-670.34 853,-670.34 853,-676.34 847,-682.34 841,-682.34"/>
<polygon fill="#fff0f3" stroke="none" points="698,-645.09 698,-681.34 852,-681.34 852,-645.09 698,-645.09"/>
<text xml:space="preserve" text-anchor="start" x="706" y="-659.14" font-family="Noto Sans KR" font-weight="bold" font-size="16.00" fill="#182033">4 · DefenseResolver</text>
<text xml:space="preserve" text-anchor="start" x="706" y="-622.84" font-family="Noto Sans KR" font-size="14.00" fill="#182033">+ Armor</text>
<text xml:space="preserve" text-anchor="start" x="706" y="-589.59" font-family="Noto Sans KR" font-size="14.00" fill="#182033">+ Guard</text>
<text xml:space="preserve" text-anchor="start" x="706" y="-556.34" font-family="Noto Sans KR" font-size="14.00" fill="#182033">+ FlatReduction</text>
<text xml:space="preserve" text-anchor="start" x="706" y="-523.09" font-family="Noto Sans KR" font-size="14.00" fill="#182033">+ PercentReduction</text>
<polygon fill="none" stroke="#e07b91" points="697,-511.09 697,-682.34 853,-682.34 853,-511.09 697,-511.09"/>
</g>
<!-- CriticalResolver&#45;&gt;DefenseResolver -->
<g id="edge7" class="edge">
<title>CriticalResolver&#45;&gt;DefenseResolver</title>
<path fill="none" stroke="#59687e" stroke-width="1.3" d="M775,-752.08C775,-733.1 775,-712.12 775,-691.92"/>
<polygon fill="#59687e" stroke="#59687e" stroke-width="1.3" points="777.8,-692.04 775,-684.04 772.2,-692.04 777.8,-692.04"/>
</g>
<!-- DamageFormula&#45;&gt;CriticalResolver -->
<g id="edge6" class="edge">
<title>DamageFormula&#45;&gt;CriticalResolver</title>
<path fill="none" stroke="#59687e" stroke-width="1.3" d="M603.81,-820.97C632.73,-820.97 677.33,-820.97 677.33,-820.97 677.33,-820.97 682.99,-820.97 691.58,-820.97"/>
<polygon fill="#59687e" stroke="#59687e" stroke-width="1.3" points="691.51,-823.77 699.51,-820.97 691.51,-818.17 691.51,-823.77"/>
</g>
<!-- BlockPolicy -->
<g id="node9" class="node">
<title>BlockPolicy</title>
<path fill="#fff7e6" stroke="#e0ad4e" stroke-width="1.4" d="M1103.77,-630.51C1103.77,-630.51 962.23,-630.51 962.23,-630.51 956.23,-630.51 950.23,-624.51 950.23,-618.51 950.23,-618.51 950.23,-574.92 950.23,-574.92 950.23,-568.92 956.23,-562.92 962.23,-562.92 962.23,-562.92 1103.77,-562.92 1103.77,-562.92 1109.77,-562.92 1115.77,-568.92 1115.77,-574.92 1115.77,-574.92 1115.77,-618.51 1115.77,-618.51 1115.77,-624.51 1109.77,-630.51 1103.77,-630.51"/>
<text xml:space="preserve" text-anchor="middle" x="1033" y="-609.29" font-family="Noto Sans KR" font-size="14.00" fill="#182033">5 · BlockPolicy</text>
<text xml:space="preserve" text-anchor="middle" x="1033" y="-592.04" font-family="Noto Sans KR" font-size="14.00" fill="#182033">reduction · guard cost</text>
<text xml:space="preserve" text-anchor="middle" x="1033" y="-574.79" font-family="Noto Sans KR" font-size="14.00" fill="#182033">event · project&#45;specific</text>
</g>
<!-- DefenseResolver&#45;&gt;BlockPolicy -->
<g id="edge8" class="edge">
<title>DefenseResolver&#45;&gt;BlockPolicy</title>
<path fill="none" stroke="#59687e" stroke-width="1.3" d="M852.75,-596.72C857.85,-596.72 861,-596.72 861,-596.72 861,-596.72 916.69,-596.72 939.93,-596.72"/>
<polygon fill="#59687e" stroke="#59687e" stroke-width="1.3" points="939.89,-599.52 947.89,-596.72 939.89,-593.92 939.89,-599.52"/>
</g>
<!-- ResistanceResolver -->
<g id="node10" class="node">
<title>ResistanceResolver</title>
<path fill="#ffffff" stroke="none" stroke-width="1.4" d="M1374.62,-682.34C1374.62,-682.34 1225.38,-682.34 1225.38,-682.34 1219.38,-682.34 1213.38,-676.34 1213.38,-670.34 1213.38,-670.34 1213.38,-523.09 1213.38,-523.09 1213.38,-517.09 1219.38,-511.09 1225.38,-511.09 1225.38,-511.09 1374.62,-511.09 1374.62,-511.09 1380.62,-511.09 1386.62,-517.09 1386.62,-523.09 1386.62,-523.09 1386.62,-670.34 1386.62,-670.34 1386.62,-676.34 1380.62,-682.34 1374.62,-682.34"/>
<polygon fill="#fff0f3" stroke="none" points="1214.38,-645.09 1214.38,-681.34 1385.62,-681.34 1385.62,-645.09 1214.38,-645.09"/>
<text xml:space="preserve" text-anchor="start" x="1222.38" y="-659.14" font-family="Noto Sans KR" font-weight="bold" font-size="16.00" fill="#182033">6 · ResistanceResolver</text>
<text xml:space="preserve" text-anchor="start" x="1222.38" y="-622.84" font-family="Noto Sans KR" font-size="14.00" fill="#182033">+ Fire / Ice / Poison</text>
<text xml:space="preserve" text-anchor="start" x="1222.38" y="-589.59" font-family="Noto Sans KR" font-size="14.00" fill="#182033">+ Penetration</text>
<text xml:space="preserve" text-anchor="start" x="1222.38" y="-556.34" font-family="Noto Sans KR" font-size="14.00" fill="#182033">+ Vulnerability</text>
<text xml:space="preserve" text-anchor="start" x="1222.38" y="-523.09" font-family="Noto Sans KR" font-size="14.00" fill="#182033">+ Cap</text>
<polygon fill="none" stroke="#e07b91" points="1213.38,-511.09 1213.38,-682.34 1386.62,-682.34 1386.62,-511.09 1213.38,-511.09"/>
</g>
<!-- BlockPolicy&#45;&gt;ResistanceResolver -->
<g id="edge9" class="edge">
<title>BlockPolicy&#45;&gt;ResistanceResolver</title>
<path fill="none" stroke="#59687e" stroke-width="1.3" d="M1116.43,-596.72C1119.93,-596.72 1122,-596.72 1122,-596.72 1122,-596.72 1180.19,-596.72 1203.82,-596.72"/>
<polygon fill="#59687e" stroke="#59687e" stroke-width="1.3" points="1203.6,-599.52 1211.6,-596.72 1203.6,-593.92 1203.6,-599.52"/>
</g>
<!-- ShieldResolver -->
<g id="node11" class="node">
<title>ShieldResolver</title>
<path fill="#ffffff" stroke="none" stroke-width="1.4" d="M1616,-665.72C1616,-665.72 1496,-665.72 1496,-665.72 1490,-665.72 1484,-659.72 1484,-653.72 1484,-653.72 1484,-539.72 1484,-539.72 1484,-533.72 1490,-527.72 1496,-527.72 1496,-527.72 1616,-527.72 1616,-527.72 1622,-527.72 1628,-533.72 1628,-539.72 1628,-539.72 1628,-653.72 1628,-653.72 1628,-659.72 1622,-665.72 1616,-665.72"/>
<polygon fill="#f0f3f9" stroke="none" points="1485,-628.47 1485,-664.72 1627,-664.72 1627,-628.47 1485,-628.47"/>
<text xml:space="preserve" text-anchor="start" x="1493" y="-642.51" font-family="Noto Sans KR" font-weight="bold" font-size="16.00" fill="#182033">7 · ShieldResolver</text>
<text xml:space="preserve" text-anchor="start" x="1493" y="-606.22" font-family="Noto Sans KR" font-size="14.00" fill="#182033">+ Barrier</text>
<text xml:space="preserve" text-anchor="start" x="1493" y="-572.97" font-family="Noto Sans KR" font-size="14.00" fill="#182033">+ Absorb</text>
<text xml:space="preserve" text-anchor="start" x="1493" y="-539.72" font-family="Noto Sans KR" font-size="14.00" fill="#182033">+ DamageRedirect</text>
<polygon fill="none" stroke="#99a8bd" points="1484,-527.72 1484,-665.72 1628,-665.72 1628,-527.72 1484,-527.72"/>
</g>
<!-- ResistanceResolver&#45;&gt;ShieldResolver -->
<g id="edge10" class="edge">
<title>ResistanceResolver&#45;&gt;ShieldResolver</title>
<path fill="none" stroke="#59687e" stroke-width="1.3" d="M1386.54,-596.72C1396.91,-596.72 1470.67,-596.72 1470.67,-596.72 1470.67,-596.72 1472.04,-596.72 1474.44,-596.72"/>
<polygon fill="#59687e" stroke="#59687e" stroke-width="1.3" points="1474.41,-599.52 1482.41,-596.72 1474.41,-593.92 1474.41,-599.52"/>
</g>
<!-- DamageResult -->
<g id="node13" class="node">
<title>DamageResult</title>
<path fill="#ffffff" stroke="none" stroke-width="1.4" d="M1689.5,-458.09C1689.5,-458.09 1422.5,-458.09 1422.5,-458.09 1416.5,-458.09 1410.5,-452.09 1410.5,-446.09 1410.5,-446.09 1410.5,-132.59 1410.5,-132.59 1410.5,-126.59 1416.5,-120.59 1422.5,-120.59 1422.5,-120.59 1689.5,-120.59 1689.5,-120.59 1695.5,-120.59 1701.5,-126.59 1701.5,-132.59 1701.5,-132.59 1701.5,-446.09 1701.5,-446.09 1701.5,-452.09 1695.5,-458.09 1689.5,-458.09"/>
<polygon fill="#eefbf6" stroke="none" points="1411.5,-420.84 1411.5,-457.09 1700.5,-457.09 1700.5,-420.84 1411.5,-420.84"/>
<text xml:space="preserve" text-anchor="start" x="1506.12" y="-434.89" font-family="Noto Sans KR" font-weight="bold" font-size="16.00" fill="#182033">DamageResult</text>
<text xml:space="preserve" text-anchor="start" x="1419.5" y="-398.59" font-family="Noto Sans KR" font-size="14.00" fill="#182033">+ Outcome: HitOutcome</text>
<text xml:space="preserve" text-anchor="start" x="1419.5" y="-365.34" font-family="Noto Sans KR" font-size="14.00" fill="#182033">+ Critical</text>
<text xml:space="preserve" text-anchor="start" x="1419.5" y="-332.09" font-family="Noto Sans KR" font-size="14.00" fill="#182033">+ RawDamage (post&#45;critical, pre&#45;mitigation)</text>
<text xml:space="preserve" text-anchor="start" x="1419.5" y="-298.84" font-family="Noto Sans KR" font-size="14.00" fill="#182033">+ ResolvedDamage</text>
<text xml:space="preserve" text-anchor="start" x="1419.5" y="-265.59" font-family="Noto Sans KR" font-size="14.00" fill="#182033">+ ShieldAbsorbed</text>
<text xml:space="preserve" text-anchor="start" x="1419.5" y="-232.34" font-family="Noto Sans KR" font-size="14.00" fill="#182033">+ FinalHpDamage</text>
<text xml:space="preserve" text-anchor="start" x="1419.5" y="-199.09" font-family="Noto Sans KR" font-size="14.00" fill="#182033">+ Overkill</text>
<text xml:space="preserve" text-anchor="start" x="1419.5" y="-167.79" font-family="Noto Sans KR" font-weight="bold" font-size="14.00" fill="#182033">Invariant:</text>
<text xml:space="preserve" text-anchor="start" x="1477.25" y="-167.79" font-family="Noto Sans KR" font-size="14.00" fill="#182033"> ResolvedDamage =</text>
<text xml:space="preserve" text-anchor="start" x="1419.5" y="-132.59" font-family="Noto Sans KR" font-size="14.00" fill="#182033">ShieldAbsorbed + FinalHpDamage + Overkill</text>
<polygon fill="none" stroke="#61b99a" points="1410.5,-120.59 1410.5,-458.09 1701.5,-458.09 1701.5,-120.59 1410.5,-120.59"/>
</g>
<!-- ShieldResolver&#45;&gt;DamageResult -->
<g id="edge11" class="edge">
<title>ShieldResolver&#45;&gt;DamageResult</title>
<path fill="none" stroke="#59687e" stroke-width="1.3" d="M1556,-527.94C1556,-509.66 1556,-488.99 1556,-467.66"/>
<polygon fill="#59687e" stroke="#59687e" stroke-width="1.3" points="1558.8,-467.79 1556,-459.79 1553.2,-467.79 1558.8,-467.79"/>
</g>
<!-- HitOutcome -->
<g id="node12" class="node">
<title>HitOutcome</title>
<path fill="#fff7e6" stroke="#e0ad4e" stroke-width="1.4" d="M1931.27,-323.14C1931.27,-323.14 1810.73,-323.14 1810.73,-323.14 1804.73,-323.14 1798.73,-317.14 1798.73,-311.14 1798.73,-311.14 1798.73,-267.55 1798.73,-267.55 1798.73,-261.55 1804.73,-255.55 1810.73,-255.55 1810.73,-255.55 1931.27,-255.55 1931.27,-255.55 1937.27,-255.55 1943.27,-261.55 1943.27,-267.55 1943.27,-267.55 1943.27,-311.14 1943.27,-311.14 1943.27,-317.14 1937.27,-323.14 1931.27,-323.14"/>
<text xml:space="preserve" text-anchor="middle" x="1871" y="-301.92" font-family="Noto Sans KR" font-size="14.00" fill="#182033">HitOutcome</text>
<text xml:space="preserve" text-anchor="middle" x="1871" y="-284.67" font-family="Noto Sans KR" font-size="14.00" fill="#182033">Hit · Miss · Blocked</text>
<text xml:space="preserve" text-anchor="middle" x="1871" y="-267.42" font-family="Noto Sans KR" font-size="14.00" fill="#182033">Immune · Rejected</text>
</g>
<!-- HitOutcome&#45;&gt;DamageResult -->
<g id="edge12" class="edge">
<title>HitOutcome&#45;&gt;DamageResult</title>
<path fill="none" stroke="#59687e" stroke-width="1.3" stroke-dasharray="5,2" d="M1798.07,-289.34C1780.16,-289.34 1766,-289.34 1766,-289.34 1766,-289.34 1738.16,-289.34 1711.16,-289.34"/>
<polygon fill="#59687e" stroke="#59687e" stroke-width="1.3" points="1711.26,-286.54 1703.26,-289.34 1711.26,-292.14 1711.26,-286.54"/>
</g>
<!-- DamageCommit -->
<g id="node14" class="node">
<title>DamageCommit</title>
<path fill="#eefbf6" stroke="#61b99a" stroke-width="1.4" d="M1537.89,-67.59C1537.89,-67.59 1286.11,-67.59 1286.11,-67.59 1280.11,-67.59 1274.11,-61.59 1274.11,-55.59 1274.11,-55.59 1274.11,-12 1274.11,-12 1274.11,-6 1280.11,0 1286.11,0 1286.11,0 1537.89,0 1537.89,0 1543.89,0 1549.89,-6 1549.89,-12 1549.89,-12 1549.89,-55.59 1549.89,-55.59 1549.89,-61.59 1543.89,-67.59 1537.89,-67.59"/>
<text xml:space="preserve" text-anchor="middle" x="1412" y="-46.37" font-family="Noto Sans KR" font-size="14.00" fill="#182033">RuntimeCommitter</text>
<text xml:space="preserve" text-anchor="middle" x="1412" y="-29.12" font-family="Noto Sans KR" font-size="14.00" fill="#182033">+ Commit(CommitPlan): CommitReceipt</text>
<text xml:space="preserve" text-anchor="middle" x="1412" y="-11.87" font-family="Noto Sans KR" font-size="14.00" fill="#182033">Shield · HP · outbox atomic</text>
</g>
<!-- DamageResult&#45;&gt;DamageCommit -->
<g id="edge15" class="edge">
<title>DamageResult&#45;&gt;DamageCommit</title>
<path fill="none" stroke="#59687e" stroke-width="1.3" d="M1460.75,-120.63C1451.66,-104.62 1443.12,-89.58 1435.8,-76.71"/>
<polygon fill="#59687e" stroke="#59687e" stroke-width="1.3" points="1438.3,-75.44 1431.92,-69.86 1433.43,-78.2 1438.3,-75.44"/>
</g>
<!-- CombatLogBuilder -->
<g id="node15" class="node">
<title>CombatLogBuilder</title>
<path fill="#ffffff" stroke="#bac7db" stroke-width="1.4" d="M1789.52,-58.97C1789.52,-58.97 1610.48,-58.97 1610.48,-58.97 1604.48,-58.97 1598.48,-52.97 1598.48,-46.97 1598.48,-46.97 1598.48,-20.62 1598.48,-20.62 1598.48,-14.62 1604.48,-8.62 1610.48,-8.62 1610.48,-8.62 1789.52,-8.62 1789.52,-8.62 1795.52,-8.62 1801.52,-14.62 1801.52,-20.62 1801.52,-20.62 1801.52,-46.97 1801.52,-46.97 1801.52,-52.97 1795.52,-58.97 1789.52,-58.97"/>
<text xml:space="preserve" text-anchor="middle" x="1700" y="-37.75" font-family="Noto Sans KR" font-size="14.00" fill="#182033">CombatLogBuilder</text>
<text xml:space="preserve" text-anchor="middle" x="1700" y="-20.5" font-family="Noto Sans KR" font-size="14.00" fill="#182033">+ BuildHumanReadableLog()</text>
</g>
<!-- DamageResult&#45;&gt;CombatLogBuilder -->
<g id="edge16" class="edge">
<title>DamageResult&#45;&gt;CombatLogBuilder</title>
<path fill="none" stroke="#59687e" stroke-width="1.3" stroke-dasharray="5,2" d="M1651.25,-120.63C1662.51,-100.81 1672.92,-82.47 1681.21,-67.89"/>
<polygon fill="#59687e" stroke="#59687e" stroke-width="1.3" points="1683.59,-69.36 1685.11,-61.02 1678.72,-66.59 1683.59,-69.36"/>
</g>
<!-- NonHitBranch&#45;&gt;DamageResult -->
<g id="edge14" class="edge">
<title>NonHitBranch&#45;&gt;DamageResult</title>
<path fill="none" stroke="#59687e" stroke-width="1.3" stroke-dasharray="5,2" d="M1132.95,-289.34C1166.21,-289.34 1193.33,-289.34 1193.33,-289.34 1193.33,-289.34 1374.67,-289.34 1374.67,-289.34 1374.67,-289.34 1385.11,-289.34 1400.99,-289.34"/>
<polygon fill="#59687e" stroke="#59687e" stroke-width="1.3" points="1400.96,-292.14 1408.96,-289.34 1400.96,-286.54 1400.96,-292.14"/>
</g>
</g>
</svg>
