<?xml version="1.0" encoding="UTF-8" standalone="no"?>
<!DOCTYPE svg PUBLIC "-//W3C//DTD SVG 1.1//EN"
 "http://www.w3.org/Graphics/SVG/1.1/DTD/svg11.dtd">
<!-- Generated by graphviz version 2.42.4 (0)
 -->
<!-- Title: G Pages: 1 -->
<svg width="1878pt" height="687pt"
 viewBox="8.64 8.64 1869.64 678.64" xmlns="http://www.w3.org/2000/svg" xmlns:xlink="http://www.w3.org/1999/xlink">
<g id="graph0" class="graph" transform="scale(1 1) rotate(0) translate(26.64 660.64)">
<title>G</title>
<polygon fill="#ffffff" stroke="transparent" points="-18,18 -18,-652 1843,-652 1843,18 -18,18"/>
<!-- DamageRequest -->
<g id="node1" class="node">
<title>DamageRequest</title>
<path fill="#ffffff" stroke="transparent" stroke-width="1.4" d="M135,-586.5C135,-586.5 12,-586.5 12,-586.5 6,-586.5 0,-580.5 0,-574.5 0,-574.5 0,-345.5 0,-345.5 0,-339.5 6,-333.5 12,-333.5 12,-333.5 135,-333.5 135,-333.5 141,-333.5 147,-339.5 147,-345.5 147,-345.5 147,-574.5 147,-574.5 147,-580.5 141,-586.5 135,-586.5"/>
<polygon fill="#eefbf6" stroke="transparent" points="1.5,-551 1.5,-585 146.5,-585 146.5,-551 1.5,-551"/>
<text text-anchor="start" x="9.5" y="-565.2" font-family="Noto Sans CJK KR" font-weight="bold" font-size="16.00" fill="#182033">DamageRequest</text>
<text text-anchor="start" x="9.5" y="-531.8" font-family="Noto Sans CJK KR" font-size="14.00" fill="#182033">+ attacker: EntityId</text>
<text text-anchor="start" x="9.5" y="-500.8" font-family="Noto Sans CJK KR" font-size="14.00" fill="#182033">+ defender: EntityId</text>
<text text-anchor="start" x="9.5" y="-469.8" font-family="Noto Sans CJK KR" font-size="14.00" fill="#182033">+ sourceId</text>
<text text-anchor="start" x="9.5" y="-438.8" font-family="Noto Sans CJK KR" font-size="14.00" fill="#182033">+ damageType</text>
<text text-anchor="start" x="9.5" y="-407.8" font-family="Noto Sans CJK KR" font-size="14.00" fill="#182033">+ baseValue</text>
<text text-anchor="start" x="9.5" y="-376.8" font-family="Noto Sans CJK KR" font-size="14.00" fill="#182033">+ tags</text>
<text text-anchor="start" x="9.5" y="-345.8" font-family="Noto Sans CJK KR" font-size="14.00" fill="#182033">+ seed</text>
<polygon fill="none" stroke="#61b99a" points="0,-333.5 0,-586.5 147,-586.5 147,-333.5 0,-333.5"/>
</g>
<!-- DamagePipeline -->
<g id="node3" class="node">
<title>DamagePipeline</title>
<path fill="#ffffff" stroke="transparent" stroke-width="1.4" d="M381,-426.5C381,-426.5 258,-426.5 258,-426.5 252,-426.5 246,-420.5 246,-414.5 246,-414.5 246,-247.5 246,-247.5 246,-241.5 252,-235.5 258,-235.5 258,-235.5 381,-235.5 381,-235.5 387,-235.5 393,-241.5 393,-247.5 393,-247.5 393,-414.5 393,-414.5 393,-420.5 387,-426.5 381,-426.5"/>
<polygon fill="#eaf0ff" stroke="transparent" points="247.5,-391 247.5,-425 392.5,-425 392.5,-391 247.5,-391"/>
<text text-anchor="start" x="255.5" y="-405.2" font-family="Noto Sans CJK KR" font-weight="bold" font-size="16.00" fill="#182033">DamagePipeline</text>
<text text-anchor="start" x="255.5" y="-371.8" font-family="Noto Sans CJK KR" font-size="14.00" fill="#182033">+ validate()</text>
<text text-anchor="start" x="255.5" y="-340.8" font-family="Noto Sans CJK KR" font-size="14.00" fill="#182033">+ resolveHit()</text>
<text text-anchor="start" x="255.5" y="-309.8" font-family="Noto Sans CJK KR" font-size="14.00" fill="#182033">+ resolveCritical()</text>
<text text-anchor="start" x="255.5" y="-278.8" font-family="Noto Sans CJK KR" font-size="14.00" fill="#182033">+ calculate()</text>
<text text-anchor="start" x="255.5" y="-247.8" font-family="Noto Sans CJK KR" font-size="14.00" fill="#182033">+ buildResult()</text>
<polygon fill="none" stroke="#8292f7" points="246,-235.5 246,-426.5 393,-426.5 393,-235.5 246,-235.5"/>
</g>
<!-- DamageRequest&#45;&gt;DamagePipeline -->
<g id="edge1" class="edge">
<title>DamageRequest&#45;&gt;DamagePipeline</title>
<path fill="none" stroke="#59687e" stroke-width="1.3" d="M147.31,-380C147.31,-380 237.74,-380 237.74,-380"/>
<polygon fill="#59687e" stroke="#59687e" stroke-width="1.3" points="237.74,-382.8 245.74,-380 237.74,-377.2 237.74,-382.8"/>
<text text-anchor="middle" x="196.5" y="-463.8" font-family="Noto Sans CJK KR" font-size="14.00" fill="#46566e">input</text>
</g>
<!-- CombatContext -->
<g id="node2" class="node">
<title>CombatContext</title>
<path fill="#ffffff" stroke="transparent" stroke-width="1.4" d="M132.5,-297.5C132.5,-297.5 14.5,-297.5 14.5,-297.5 8.5,-297.5 2.5,-291.5 2.5,-285.5 2.5,-285.5 2.5,-118.5 2.5,-118.5 2.5,-112.5 8.5,-106.5 14.5,-106.5 14.5,-106.5 132.5,-106.5 132.5,-106.5 138.5,-106.5 144.5,-112.5 144.5,-118.5 144.5,-118.5 144.5,-285.5 144.5,-285.5 144.5,-291.5 138.5,-297.5 132.5,-297.5"/>
<polygon fill="#e9fbff" stroke="transparent" points="3.5,-262 3.5,-296 143.5,-296 143.5,-262 3.5,-262"/>
<text text-anchor="start" x="11.5" y="-276.2" font-family="Noto Sans CJK KR" font-weight="bold" font-size="16.00" fill="#182033">CombatContext</text>
<text text-anchor="start" x="11.5" y="-242.8" font-family="Noto Sans CJK KR" font-size="14.00" fill="#182033">+ distance</text>
<text text-anchor="start" x="11.5" y="-211.8" font-family="Noto Sans CJK KR" font-size="14.00" fill="#182033">+ facing</text>
<text text-anchor="start" x="11.5" y="-180.8" font-family="Noto Sans CJK KR" font-size="14.00" fill="#182033">+ terrainTags</text>
<text text-anchor="start" x="11.5" y="-149.8" font-family="Noto Sans CJK KR" font-size="14.00" fill="#182033">+ statusTags</text>
<text text-anchor="start" x="11.5" y="-118.8" font-family="Noto Sans CJK KR" font-size="14.00" fill="#182033">+ difficulty</text>
<polygon fill="none" stroke="#54b7cf" points="2.5,-106.5 2.5,-297.5 144.5,-297.5 144.5,-106.5 2.5,-106.5"/>
</g>
<!-- CombatContext&#45;&gt;DamagePipeline -->
<g id="edge2" class="edge">
<title>CombatContext&#45;&gt;DamagePipeline</title>
<path fill="none" stroke="#59687e" stroke-width="1.3" d="M144.65,-266.5C144.65,-266.5 237.94,-266.5 237.94,-266.5"/>
<polygon fill="#59687e" stroke="#59687e" stroke-width="1.3" points="237.94,-269.3 245.94,-266.5 237.94,-263.7 237.94,-269.3"/>
<text text-anchor="middle" x="196.5" y="-205.8" font-family="Noto Sans CJK KR" font-size="14.00" fill="#46566e">context</text>
</g>
<!-- HitResolver -->
<g id="node4" class="node">
<title>HitResolver</title>
<path fill="#ffffff" stroke="transparent" stroke-width="1.4" d="M569,-634C569,-634 483,-634 483,-634 477,-634 471,-628 471,-622 471,-622 471,-486 471,-486 471,-480 477,-474 483,-474 483,-474 569,-474 569,-474 575,-474 581,-480 581,-486 581,-486 581,-622 581,-622 581,-628 575,-634 569,-634"/>
<polygon fill="#fff7e6" stroke="transparent" points="472,-599 472,-633 580,-633 580,-599 472,-599"/>
<text text-anchor="start" x="480.5" y="-613.2" font-family="Noto Sans CJK KR" font-weight="bold" font-size="16.00" fill="#182033">HitResolver</text>
<text text-anchor="start" x="480" y="-579.8" font-family="Noto Sans CJK KR" font-size="14.00" fill="#182033">+ accuracy</text>
<text text-anchor="start" x="480" y="-548.8" font-family="Noto Sans CJK KR" font-size="14.00" fill="#182033">+ evasion</text>
<text text-anchor="start" x="480" y="-517.8" font-family="Noto Sans CJK KR" font-size="14.00" fill="#182033">+ block</text>
<text text-anchor="start" x="480" y="-486.8" font-family="Noto Sans CJK KR" font-size="14.00" fill="#182033">+ invulnerable</text>
<polygon fill="none" stroke="#e0ad4e" points="471,-474 471,-634 581,-634 581,-474 471,-474"/>
</g>
<!-- DamagePipeline&#45;&gt;HitResolver -->
<g id="edge3" class="edge">
<title>DamagePipeline&#45;&gt;HitResolver</title>
<path fill="none" stroke="#59687e" stroke-width="1.3" d="M320,-426.54C320,-477.68 320,-530.25 320,-530.25 320,-530.25 462.8,-530.25 462.8,-530.25"/>
<polygon fill="#59687e" stroke="#59687e" stroke-width="1.3" points="462.8,-533.05 470.8,-530.25 462.8,-527.45 462.8,-533.05"/>
<text text-anchor="middle" x="422" y="-557.8" font-family="Noto Sans CJK KR" font-size="14.00" fill="#46566e">1</text>
</g>
<!-- CriticalResolver -->
<g id="node5" class="node">
<title>CriticalResolver</title>
<path fill="#ffffff" stroke="transparent" stroke-width="1.4" d="M585,-437.5C585,-437.5 467,-437.5 467,-437.5 461,-437.5 455,-431.5 455,-425.5 455,-425.5 455,-320.5 455,-320.5 455,-314.5 461,-308.5 467,-308.5 467,-308.5 585,-308.5 585,-308.5 591,-308.5 597,-314.5 597,-320.5 597,-320.5 597,-425.5 597,-425.5 597,-431.5 591,-437.5 585,-437.5"/>
<polygon fill="#fff7e6" stroke="transparent" points="456,-402 456,-436 596,-436 596,-402 456,-402"/>
<text text-anchor="start" x="464" y="-416.2" font-family="Noto Sans CJK KR" font-weight="bold" font-size="16.00" fill="#182033">CriticalResolver</text>
<text text-anchor="start" x="464" y="-382.8" font-family="Noto Sans CJK KR" font-size="14.00" fill="#182033">+ critChance</text>
<text text-anchor="start" x="464" y="-351.8" font-family="Noto Sans CJK KR" font-size="14.00" fill="#182033">+ critMultiplier</text>
<text text-anchor="start" x="464" y="-320.8" font-family="Noto Sans CJK KR" font-size="14.00" fill="#182033">+ critResist</text>
<polygon fill="none" stroke="#e0ad4e" points="455,-308.5 455,-437.5 597,-437.5 597,-308.5 455,-308.5"/>
</g>
<!-- DamagePipeline&#45;&gt;CriticalResolver -->
<g id="edge4" class="edge">
<title>DamagePipeline&#45;&gt;CriticalResolver</title>
<path fill="none" stroke="#59687e" stroke-width="1.3" d="M393.18,-367.5C393.18,-367.5 446.78,-367.5 446.78,-367.5"/>
<polygon fill="#59687e" stroke="#59687e" stroke-width="1.3" points="446.78,-370.3 454.78,-367.5 446.78,-364.7 446.78,-370.3"/>
<text text-anchor="middle" x="422" y="-376.8" font-family="Noto Sans CJK KR" font-size="14.00" fill="#46566e">2</text>
</g>
<!-- DamageFormula -->
<g id="node6" class="node">
<title>DamageFormula</title>
<path fill="#ffffff" stroke="transparent" stroke-width="1.4" d="M589,-272.5C589,-272.5 463,-272.5 463,-272.5 457,-272.5 451,-266.5 451,-260.5 451,-260.5 451,-155.5 451,-155.5 451,-149.5 457,-143.5 463,-143.5 463,-143.5 589,-143.5 589,-143.5 595,-143.5 601,-149.5 601,-155.5 601,-155.5 601,-260.5 601,-260.5 601,-266.5 595,-272.5 589,-272.5"/>
<polygon fill="#f3eefc" stroke="transparent" points="452,-237 452,-271 600,-271 600,-237 452,-237"/>
<text text-anchor="start" x="460" y="-251.2" font-family="Noto Sans CJK KR" font-weight="bold" font-size="16.00" fill="#182033">DamageFormula</text>
<text text-anchor="start" x="460" y="-217.8" font-family="Noto Sans CJK KR" font-size="14.00" fill="#182033">+ base + stat * coef</text>
<text text-anchor="start" x="460" y="-186.8" font-family="Noto Sans CJK KR" font-size="14.00" fill="#182033">+ offensive bonus</text>
<text text-anchor="start" x="460" y="-155.8" font-family="Noto Sans CJK KR" font-size="14.00" fill="#182033">+ formula subtotal</text>
<polygon fill="none" stroke="#ab8fe0" points="451,-143.5 451,-272.5 601,-272.5 601,-143.5 451,-143.5"/>
</g>
<!-- DamagePipeline&#45;&gt;DamageFormula -->
<g id="edge5" class="edge">
<title>DamagePipeline&#45;&gt;DamageFormula</title>
<path fill="none" stroke="#59687e" stroke-width="1.3" d="M393.18,-254C393.18,-254 442.96,-254 442.96,-254"/>
<polygon fill="#59687e" stroke="#59687e" stroke-width="1.3" points="442.96,-256.8 450.96,-254 442.96,-251.2 442.96,-256.8"/>
<text text-anchor="middle" x="422" y="-252.8" font-family="Noto Sans CJK KR" font-size="14.00" fill="#46566e">3</text>
</g>
<!-- DamageResult -->
<g id="node10" class="node">
<title>DamageResult</title>
<path fill="#ffffff" stroke="transparent" stroke-width="1.4" d="M1534,-222C1534,-222 1425,-222 1425,-222 1419,-222 1413,-216 1413,-210 1413,-210 1413,-12 1413,-12 1413,-6 1419,0 1425,0 1425,0 1534,0 1534,0 1540,0 1546,-6 1546,-12 1546,-12 1546,-210 1546,-210 1546,-216 1540,-222 1534,-222"/>
<polygon fill="#eefbf6" stroke="transparent" points="1414.5,-187 1414.5,-221 1545.5,-221 1545.5,-187 1414.5,-187"/>
<text text-anchor="start" x="1422.5" y="-201.2" font-family="Noto Sans CJK KR" font-weight="bold" font-size="16.00" fill="#182033">DamageResult</text>
<text text-anchor="start" x="1422.5" y="-167.8" font-family="Noto Sans CJK KR" font-size="14.00" fill="#182033">+ hit</text>
<text text-anchor="start" x="1422.5" y="-136.8" font-family="Noto Sans CJK KR" font-size="14.00" fill="#182033">+ critical</text>
<text text-anchor="start" x="1422.5" y="-105.8" font-family="Noto Sans CJK KR" font-size="14.00" fill="#182033">+ finalHpDamage</text>
<text text-anchor="start" x="1422.5" y="-74.8" font-family="Noto Sans CJK KR" font-size="14.00" fill="#182033">+ shieldAbsorbed</text>
<text text-anchor="start" x="1422.5" y="-43.8" font-family="Noto Sans CJK KR" font-size="14.00" fill="#182033">+ failureReason?</text>
<text text-anchor="start" x="1422.5" y="-12.8" font-family="Noto Sans CJK KR" font-size="14.00" fill="#182033">+ debugTrace</text>
<polygon fill="none" stroke="#61b99a" points="1413,0 1413,-222 1546,-222 1546,0 1413,0"/>
</g>
<!-- DamagePipeline&#45;&gt;DamageResult -->
<g id="edge10" class="edge">
<title>DamagePipeline&#45;&gt;DamageResult</title>
<path fill="none" stroke="#59687e" stroke-width="1.3" stroke-dasharray="5,2" d="M393.42,-302.25C649.04,-302.25 1480,-302.25 1480,-302.25 1480,-302.25 1480,-230.25 1480,-230.25"/>
<polygon fill="#59687e" stroke="#59687e" stroke-width="1.3" points="1482.8,-230.25 1480,-222.25 1477.2,-230.25 1482.8,-230.25"/>
<text text-anchor="middle" x="880.5" y="-84.8" font-family="Noto Sans CJK KR" font-size="14.00" fill="#46566e">miss / immune</text>
</g>
<!-- DefenseResolver -->
<g id="node7" class="node">
<title>DefenseResolver</title>
<path fill="#ffffff" stroke="transparent" stroke-width="1.4" d="M796,-296C796,-296 671,-296 671,-296 665,-296 659,-290 659,-284 659,-284 659,-148 659,-148 659,-142 665,-136 671,-136 671,-136 796,-136 796,-136 802,-136 808,-142 808,-148 808,-148 808,-284 808,-284 808,-290 802,-296 796,-296"/>
<polygon fill="#fff0f3" stroke="transparent" points="660.5,-261 660.5,-295 807.5,-295 807.5,-261 660.5,-261"/>
<text text-anchor="start" x="668.5" y="-275.2" font-family="Noto Sans CJK KR" font-weight="bold" font-size="16.00" fill="#182033">DefenseResolver</text>
<text text-anchor="start" x="668.5" y="-241.8" font-family="Noto Sans CJK KR" font-size="14.00" fill="#182033">+ armor</text>
<text text-anchor="start" x="668.5" y="-210.8" font-family="Noto Sans CJK KR" font-size="14.00" fill="#182033">+ guard</text>
<text text-anchor="start" x="668.5" y="-179.8" font-family="Noto Sans CJK KR" font-size="14.00" fill="#182033">+ flatReduction</text>
<text text-anchor="start" x="668.5" y="-148.8" font-family="Noto Sans CJK KR" font-size="14.00" fill="#182033">+ percentReduction</text>
<polygon fill="none" stroke="#e07b91" points="659,-136 659,-296 808,-296 808,-136 659,-136"/>
</g>
<!-- DamageFormula&#45;&gt;DefenseResolver -->
<g id="edge6" class="edge">
<title>DamageFormula&#45;&gt;DefenseResolver</title>
<path fill="none" stroke="#59687e" stroke-width="1.3" d="M601.21,-208C601.21,-208 650.9,-208 650.9,-208"/>
<polygon fill="#59687e" stroke="#59687e" stroke-width="1.3" points="650.9,-210.8 658.9,-208 650.9,-205.2 650.9,-210.8"/>
<text text-anchor="middle" x="630" y="-215.8" font-family="Noto Sans CJK KR" font-size="14.00" fill="#46566e">4</text>
</g>
<!-- ResistanceResolver -->
<g id="node8" class="node">
<title>ResistanceResolver</title>
<path fill="#ffffff" stroke="transparent" stroke-width="1.4" d="M1110,-296C1110,-296 965,-296 965,-296 959,-296 953,-290 953,-284 953,-284 953,-148 953,-148 953,-142 959,-136 965,-136 965,-136 1110,-136 1110,-136 1116,-136 1122,-142 1122,-148 1122,-148 1122,-284 1122,-284 1122,-290 1116,-296 1110,-296"/>
<polygon fill="#fff0f3" stroke="transparent" points="954.5,-261 954.5,-295 1121.5,-295 1121.5,-261 954.5,-261"/>
<text text-anchor="start" x="962.5" y="-275.2" font-family="Noto Sans CJK KR" font-weight="bold" font-size="16.00" fill="#182033">ResistanceResolver</text>
<text text-anchor="start" x="962.5" y="-241.8" font-family="Noto Sans CJK KR" font-size="14.00" fill="#182033">+ fire / ice / poison</text>
<text text-anchor="start" x="962.5" y="-210.8" font-family="Noto Sans CJK KR" font-size="14.00" fill="#182033">+ penetration</text>
<text text-anchor="start" x="962.5" y="-179.8" font-family="Noto Sans CJK KR" font-size="14.00" fill="#182033">+ vulnerability</text>
<text text-anchor="start" x="962.5" y="-148.8" font-family="Noto Sans CJK KR" font-size="14.00" fill="#182033">+ cap</text>
<polygon fill="none" stroke="#e07b91" points="953,-136 953,-296 1122,-296 1122,-136 953,-136"/>
</g>
<!-- DefenseResolver&#45;&gt;ResistanceResolver -->
<g id="edge7" class="edge">
<title>DefenseResolver&#45;&gt;ResistanceResolver</title>
<path fill="none" stroke="#59687e" stroke-width="1.3" d="M808.26,-216C808.26,-216 944.83,-216 944.83,-216"/>
<polygon fill="#59687e" stroke="#59687e" stroke-width="1.3" points="944.83,-218.8 952.83,-216 944.83,-213.2 944.83,-218.8"/>
<text text-anchor="middle" x="880.5" y="-219.8" font-family="Noto Sans CJK KR" font-size="14.00" fill="#46566e">5</text>
</g>
<!-- ShieldResolver -->
<g id="node9" class="node">
<title>ShieldResolver</title>
<path fill="#ffffff" stroke="transparent" stroke-width="1.4" d="M1304,-272.5C1304,-272.5 1192,-272.5 1192,-272.5 1186,-272.5 1180,-266.5 1180,-260.5 1180,-260.5 1180,-155.5 1180,-155.5 1180,-149.5 1186,-143.5 1192,-143.5 1192,-143.5 1304,-143.5 1304,-143.5 1310,-143.5 1316,-149.5 1316,-155.5 1316,-155.5 1316,-260.5 1316,-260.5 1316,-266.5 1310,-272.5 1304,-272.5"/>
<polygon fill="#f0f3f9" stroke="transparent" points="1181,-237 1181,-271 1315,-271 1315,-237 1181,-237"/>
<text text-anchor="start" x="1189" y="-251.2" font-family="Noto Sans CJK KR" font-weight="bold" font-size="16.00" fill="#182033">ShieldResolver</text>
<text text-anchor="start" x="1189" y="-217.8" font-family="Noto Sans CJK KR" font-size="14.00" fill="#182033">+ barrier</text>
<text text-anchor="start" x="1189" y="-186.8" font-family="Noto Sans CJK KR" font-size="14.00" fill="#182033">+ absorb</text>
<text text-anchor="start" x="1189" y="-155.8" font-family="Noto Sans CJK KR" font-size="14.00" fill="#182033">+ damageRedirect</text>
<polygon fill="none" stroke="#99a8bd" points="1180,-143.5 1180,-272.5 1316,-272.5 1316,-143.5 1180,-143.5"/>
</g>
<!-- ResistanceResolver&#45;&gt;ShieldResolver -->
<g id="edge8" class="edge">
<title>ResistanceResolver&#45;&gt;ShieldResolver</title>
<path fill="none" stroke="#59687e" stroke-width="1.3" d="M1122.21,-208C1122.21,-208 1171.94,-208 1171.94,-208"/>
<polygon fill="#59687e" stroke="#59687e" stroke-width="1.3" points="1171.94,-210.8 1179.94,-208 1171.94,-205.2 1171.94,-210.8"/>
<text text-anchor="middle" x="1151" y="-215.8" font-family="Noto Sans CJK KR" font-size="14.00" fill="#46566e">6</text>
</g>
<!-- ShieldResolver&#45;&gt;DamageResult -->
<g id="edge9" class="edge">
<title>ShieldResolver&#45;&gt;DamageResult</title>
<path fill="none" stroke="#59687e" stroke-width="1.3" d="M1316.21,-182.75C1316.21,-182.75 1404.98,-182.75 1404.98,-182.75"/>
<polygon fill="#59687e" stroke="#59687e" stroke-width="1.3" points="1404.98,-185.55 1412.98,-182.75 1404.98,-179.95 1404.98,-185.55"/>
<text text-anchor="middle" x="1364.5" y="-174.8" font-family="Noto Sans CJK KR" font-size="14.00" fill="#46566e">returns</text>
</g>
<!-- CombatLogBuilder -->
<g id="node11" class="node">
<title>CombatLogBuilder</title>
<path fill="#ffffff" stroke="#bac7db" stroke-width="1.4" d="M1813,-132C1813,-132 1629,-132 1629,-132 1623,-132 1617,-126 1617,-120 1617,-120 1617,-102 1617,-102 1617,-96 1623,-90 1629,-90 1629,-90 1813,-90 1813,-90 1819,-90 1825,-96 1825,-102 1825,-102 1825,-120 1825,-120 1825,-126 1819,-132 1813,-132"/>
<text text-anchor="middle" x="1721" y="-114.8" font-family="Noto Sans CJK KR" font-size="14.00" fill="#182033">CombatLogBuilder</text>
<text text-anchor="middle" x="1721" y="-99.8" font-family="Noto Sans CJK KR" font-size="14.00" fill="#182033">+ buildHumanReadableLog()</text>
</g>
<!-- DamageResult&#45;&gt;CombatLogBuilder -->
<g id="edge11" class="edge">
<title>DamageResult&#45;&gt;CombatLogBuilder</title>
<path fill="none" stroke="#59687e" stroke-width="1.3" d="M1546.13,-111C1546.13,-111 1608.99,-111 1608.99,-111"/>
<polygon fill="#59687e" stroke="#59687e" stroke-width="1.3" points="1608.99,-113.8 1616.99,-111 1608.99,-108.2 1608.99,-113.8"/>
<text text-anchor="middle" x="1581.5" y="-114.8" font-family="Noto Sans CJK KR" font-size="14.00" fill="#46566e">log</text>
</g>
</g>
</svg>
