<?xml version="1.0" encoding="UTF-8" standalone="no"?>
<!DOCTYPE svg PUBLIC "-//W3C//DTD SVG 1.1//EN"
 "http://www.w3.org/Graphics/SVG/1.1/DTD/svg11.dtd">
<!-- Generated by graphviz version 15.0.0 (20260523.1842)
 -->
<!-- Title: G Pages: 1 -->
<svg width="3026pt" height="849pt"
 viewBox="9.00 9.00 3017.00 840.00" xmlns="http://www.w3.org/2000/svg" xmlns:xlink="http://www.w3.org/1999/xlink">
<g id="graph0" class="graph" transform="scale(1 1) rotate(0) translate(26.64 822.04)">
<title>G</title>
<polygon fill="#ffffff" stroke="none" points="-18,18 -18,-813.4 2990.81,-813.4 2990.81,18 -18,18"/>
<!-- DamageRequest -->
<g id="node1" class="node">
<title>DamageRequest</title>
<path fill="#ffffff" stroke="none" stroke-width="1.4" d="M242.8,-795.4C242.8,-795.4 120.4,-795.4 120.4,-795.4 114.4,-795.4 108.4,-789.4 108.4,-783.4 108.4,-783.4 108.4,-475 108.4,-475 108.4,-469 114.4,-463 120.4,-463 120.4,-463 242.8,-463 242.8,-463 248.8,-463 254.8,-469 254.8,-475 254.8,-475 254.8,-783.4 254.8,-783.4 254.8,-789.4 248.8,-795.4 242.8,-795.4"/>
<polygon fill="#eefbf6" stroke="none" points="109.4,-759.2 109.4,-794.4 253.8,-794.4 253.8,-759.2 109.4,-759.2"/>
<text xml:space="preserve" text-anchor="start" x="126.05" y="-773" font-family="Noto Sans CJK KR" font-weight="bold" font-size="16.00" fill="#182033">DamageRequest</text>
<text xml:space="preserve" text-anchor="start" x="117.4" y="-737.2" font-family="Noto Sans CJK KR" font-size="14.00" fill="#182033">+ AttackerId: EntityId</text>
<text xml:space="preserve" text-anchor="start" x="117.4" y="-704.4" font-family="Noto Sans CJK KR" font-size="14.00" fill="#182033">+ DefenderId: EntityId</text>
<text xml:space="preserve" text-anchor="start" x="117.4" y="-671.6" font-family="Noto Sans CJK KR" font-size="14.00" fill="#182033">+ Source: SourceRef</text>
<text xml:space="preserve" text-anchor="start" x="117.4" y="-638.8" font-family="Noto Sans CJK KR" font-size="14.00" fill="#182033">+ FormulaId</text>
<text xml:space="preserve" text-anchor="start" x="117.4" y="-606" font-family="Noto Sans CJK KR" font-size="14.00" fill="#182033">+ DamageType</text>
<text xml:space="preserve" text-anchor="start" x="117.4" y="-573.2" font-family="Noto Sans CJK KR" font-size="14.00" fill="#182033">+ BaseValue</text>
<text xml:space="preserve" text-anchor="start" x="117.4" y="-540.4" font-family="Noto Sans CJK KR" font-size="14.00" fill="#182033">+ CoefficientBps</text>
<text xml:space="preserve" text-anchor="start" x="117.4" y="-507.6" font-family="Noto Sans CJK KR" font-size="14.00" fill="#182033">+ Tags</text>
<text xml:space="preserve" text-anchor="start" x="117.4" y="-474.8" font-family="Noto Sans CJK KR" font-size="14.00" fill="#182033">+ Seed</text>
<polygon fill="none" stroke="#61b99a" points="108.4,-463 108.4,-795.4 254.8,-795.4 254.8,-463 108.4,-463"/>
</g>
<!-- DamagePipeline -->
<g id="node3" class="node">
<title>DamagePipeline</title>
<path fill="#ffffff" stroke="none" stroke-width="1.4" d="M630.81,-393.8C630.81,-393.8 515.79,-393.8 515.79,-393.8 509.79,-393.8 503.79,-387.8 503.79,-381.8 503.79,-381.8 503.79,-204.6 503.79,-204.6 503.79,-198.6 509.79,-192.6 515.79,-192.6 515.79,-192.6 630.81,-192.6 630.81,-192.6 636.81,-192.6 642.81,-198.6 642.81,-204.6 642.81,-204.6 642.81,-381.8 642.81,-381.8 642.81,-387.8 636.81,-393.8 630.81,-393.8"/>
<polygon fill="#eaf0ff" stroke="none" points="504.79,-357.6 504.79,-392.8 641.81,-392.8 641.81,-357.6 504.79,-357.6"/>
<text xml:space="preserve" text-anchor="start" x="517.76" y="-371.4" font-family="Noto Sans CJK KR" font-weight="bold" font-size="16.00" fill="#182033">DamagePipeline</text>
<text xml:space="preserve" text-anchor="start" x="512.79" y="-335.6" font-family="Noto Sans CJK KR" font-size="14.00" fill="#182033">+ Validate()</text>
<text xml:space="preserve" text-anchor="start" x="512.79" y="-302.8" font-family="Noto Sans CJK KR" font-size="14.00" fill="#182033">+ ResolveHit()</text>
<text xml:space="preserve" text-anchor="start" x="512.79" y="-270" font-family="Noto Sans CJK KR" font-size="14.00" fill="#182033">+ CalculateFormula()</text>
<text xml:space="preserve" text-anchor="start" x="512.79" y="-237.2" font-family="Noto Sans CJK KR" font-size="14.00" fill="#182033">+ ResolveCritical()</text>
<text xml:space="preserve" text-anchor="start" x="512.79" y="-204.4" font-family="Noto Sans CJK KR" font-size="14.00" fill="#182033">+ BuildResult()</text>
<polygon fill="none" stroke="#8292f7" points="503.79,-192.6 503.79,-393.8 642.81,-393.8 642.81,-192.6 503.79,-192.6"/>
</g>
<!-- DamageRequest&#45;&gt;DamagePipeline -->
<g id="edge1" class="edge">
<title>DamageRequest&#45;&gt;DamagePipeline</title>
<path fill="none" stroke="#59687e" stroke-width="1.3" d="M254.72,-514.2C367.95,-514.2 572.81,-514.2 572.81,-514.2 572.81,-514.2 572.81,-403.64 572.81,-403.64"/>
<polygon fill="#59687e" stroke="#59687e" stroke-width="1.3" points="575.61,-403.64 572.81,-395.64 570.01,-403.64 575.61,-403.64"/>
<text xml:space="preserve" text-anchor="middle" x="433.5" y="-633.4" font-family="Noto Sans CJK KR" font-size="14.00" fill="#46566e">input</text>
</g>
<!-- CombatContext -->
<g id="node2" class="node">
<title>CombatContext</title>
<path fill="#ffffff" stroke="none" stroke-width="1.4" d="M291.98,-426.6C291.98,-426.6 71.22,-426.6 71.22,-426.6 65.22,-426.6 59.22,-420.6 59.22,-414.6 59.22,-414.6 59.22,-171.8 59.22,-171.8 59.22,-165.8 65.22,-159.8 71.22,-159.8 71.22,-159.8 291.98,-159.8 291.98,-159.8 297.98,-159.8 303.98,-165.8 303.98,-171.8 303.98,-171.8 303.98,-414.6 303.98,-414.6 303.98,-420.6 297.98,-426.6 291.98,-426.6"/>
<polygon fill="#e9fbff" stroke="none" points="60.22,-390.4 60.22,-425.6 302.98,-425.6 302.98,-390.4 60.22,-390.4"/>
<text xml:space="preserve" text-anchor="start" x="126.94" y="-404.2" font-family="Noto Sans CJK KR" font-weight="bold" font-size="16.00" fill="#182033">CombatContext</text>
<text xml:space="preserve" text-anchor="start" x="68.22" y="-368.4" font-family="Noto Sans CJK KR" font-size="14.00" fill="#182033">+ Distance</text>
<text xml:space="preserve" text-anchor="start" x="68.22" y="-335.6" font-family="Noto Sans CJK KR" font-size="14.00" fill="#182033">+ Facing</text>
<text xml:space="preserve" text-anchor="start" x="68.22" y="-302.8" font-family="Noto Sans CJK KR" font-size="14.00" fill="#182033">+ TerrainTags</text>
<text xml:space="preserve" text-anchor="start" x="68.22" y="-270" font-family="Noto Sans CJK KR" font-size="14.00" fill="#182033">+ StatusTags</text>
<text xml:space="preserve" text-anchor="start" x="68.22" y="-237.2" font-family="Noto Sans CJK KR" font-size="14.00" fill="#182033">+ AvailableShield: resource snapshot</text>
<text xml:space="preserve" text-anchor="start" x="68.22" y="-204.4" font-family="Noto Sans CJK KR" font-size="14.00" fill="#182033">+ AvailableTargetHp: resource snapshot</text>
<text xml:space="preserve" text-anchor="start" x="68.22" y="-171.6" font-family="Noto Sans CJK KR" font-size="14.00" fill="#182033">+ Difficulty</text>
<polygon fill="none" stroke="#54b7cf" points="59.22,-159.8 59.22,-426.6 303.98,-426.6 303.98,-159.8 59.22,-159.8"/>
</g>
<!-- CombatContext&#45;&gt;DamagePipeline -->
<g id="edge2" class="edge">
<title>CombatContext&#45;&gt;DamagePipeline</title>
<path fill="none" stroke="#59687e" stroke-width="1.3" d="M303.93,-293.2C303.93,-293.2 494.03,-293.2 494.03,-293.2"/>
<polygon fill="#59687e" stroke="#59687e" stroke-width="1.3" points="494.03,-296 502.03,-293.2 494.03,-290.4 494.03,-296"/>
<text xml:space="preserve" text-anchor="middle" x="433.5" y="-297.4" font-family="Noto Sans CJK KR" font-size="14.00" fill="#46566e">context</text>
</g>
<!-- HitResolver -->
<g id="node5" class="node">
<title>HitResolver</title>
<path fill="#ffffff" stroke="none" stroke-width="1.4" d="M856.44,-565.4C856.44,-565.4 780.3,-565.4 780.3,-565.4 774.3,-565.4 768.3,-559.4 768.3,-553.4 768.3,-553.4 768.3,-409 768.3,-409 768.3,-403 774.3,-397 780.3,-397 780.3,-397 856.44,-397 856.44,-397 862.44,-397 868.44,-403 868.44,-409 868.44,-409 868.44,-553.4 868.44,-553.4 868.44,-559.4 862.44,-565.4 856.44,-565.4"/>
<polygon fill="#fff7e6" stroke="none" points="769.3,-529.2 769.3,-564.4 867.44,-564.4 867.44,-529.2 769.3,-529.2"/>
<text xml:space="preserve" text-anchor="start" x="777.5" y="-543" font-family="Noto Sans CJK KR" font-weight="bold" font-size="16.00" fill="#182033">HitResolver</text>
<text xml:space="preserve" text-anchor="start" x="777.3" y="-507.2" font-family="Noto Sans CJK KR" font-size="14.00" fill="#182033">+ Accuracy</text>
<text xml:space="preserve" text-anchor="start" x="777.3" y="-474.4" font-family="Noto Sans CJK KR" font-size="14.00" fill="#182033">+ Evasion</text>
<text xml:space="preserve" text-anchor="start" x="777.3" y="-441.6" font-family="Noto Sans CJK KR" font-size="14.00" fill="#182033">+ Block</text>
<text xml:space="preserve" text-anchor="start" x="777.3" y="-408.8" font-family="Noto Sans CJK KR" font-size="14.00" fill="#182033">+ Invulnerable</text>
<polygon fill="none" stroke="#e0ad4e" points="768.3,-397 768.3,-565.4 868.44,-565.4 868.44,-397 768.3,-397"/>
</g>
<!-- DamagePipeline&#45;&gt;HitResolver -->
<g id="edge4" class="edge">
<title>DamagePipeline&#45;&gt;HitResolver</title>
<path fill="none" stroke="#59687e" stroke-width="1.3" d="M642.67,-377.2C715.27,-377.2 818.81,-377.2 818.81,-377.2 818.81,-377.2 818.81,-387.28 818.81,-387.28"/>
<polygon fill="#59687e" stroke="#59687e" stroke-width="1.3" points="816.01,-387.28 818.81,-395.28 821.61,-387.28 816.01,-387.28"/>
<text xml:space="preserve" text-anchor="middle" x="671.31" y="-485.4" font-family="Noto Sans CJK KR" font-size="14.00" fill="#46566e">1</text>
</g>
<!-- DamageFormula -->
<g id="node7" class="node">
<title>DamageFormula</title>
<path fill="#ffffff" stroke="none" stroke-width="1.4" d="M924.93,-361C924.93,-361 711.81,-361 711.81,-361 705.81,-361 699.81,-355 699.81,-349 699.81,-349 699.81,-237.4 699.81,-237.4 699.81,-231.4 705.81,-225.4 711.81,-225.4 711.81,-225.4 924.93,-225.4 924.93,-225.4 930.93,-225.4 936.93,-231.4 936.93,-237.4 936.93,-237.4 936.93,-349 936.93,-349 936.93,-355 930.93,-361 924.93,-361"/>
<polygon fill="#f3eefc" stroke="none" points="700.81,-324.8 700.81,-360 935.93,-360 935.93,-324.8 700.81,-324.8"/>
<text xml:space="preserve" text-anchor="start" x="760.6" y="-338.6" font-family="Noto Sans CJK KR" font-weight="bold" font-size="16.00" fill="#182033">DamageFormula</text>
<text xml:space="preserve" text-anchor="start" x="708.81" y="-302.8" font-family="Noto Sans CJK KR" font-size="14.00" fill="#182033">+ BaseValue + StatValue * Coefficient</text>
<text xml:space="preserve" text-anchor="start" x="708.81" y="-270" font-family="Noto Sans CJK KR" font-size="14.00" fill="#182033">+ OffensiveBonus</text>
<text xml:space="preserve" text-anchor="start" x="708.81" y="-237.2" font-family="Noto Sans CJK KR" font-size="14.00" fill="#182033">+ FormulaSubtotal</text>
<polygon fill="none" stroke="#ab8fe0" points="699.81,-225.4 699.81,-361 936.93,-361 936.93,-225.4 699.81,-225.4"/>
</g>
<!-- DamagePipeline&#45;&gt;DamageFormula -->
<g id="edge5" class="edge">
<title>DamagePipeline&#45;&gt;DamageFormula</title>
<path fill="none" stroke="#59687e" stroke-width="1.3" d="M642.55,-293.2C642.55,-293.2 690.16,-293.2 690.16,-293.2"/>
<polygon fill="#59687e" stroke="#59687e" stroke-width="1.3" points="690.16,-296 698.16,-293.2 690.16,-290.4 690.16,-296"/>
<text xml:space="preserve" text-anchor="middle" x="671.31" y="-297.4" font-family="Noto Sans CJK KR" font-size="14.00" fill="#46566e">2</text>
</g>
<!-- DamageResult -->
<g id="node13" class="node">
<title>DamageResult</title>
<path fill="#ffffff" stroke="none" stroke-width="1.4" d="M2523.15,-332.4C2523.15,-332.4 2269.96,-332.4 2269.96,-332.4 2263.96,-332.4 2257.96,-326.4 2257.96,-320.4 2257.96,-320.4 2257.96,-12 2257.96,-12 2257.96,-6 2263.96,0 2269.96,0 2269.96,0 2523.15,0 2523.15,0 2529.15,0 2535.15,-6 2535.15,-12 2535.15,-12 2535.15,-320.4 2535.15,-320.4 2535.15,-326.4 2529.15,-332.4 2523.15,-332.4"/>
<polygon fill="#eefbf6" stroke="none" points="2258.96,-296.2 2258.96,-331.4 2534.15,-331.4 2534.15,-296.2 2258.96,-296.2"/>
<text xml:space="preserve" text-anchor="start" x="2346.78" y="-310" font-family="Noto Sans CJK KR" font-weight="bold" font-size="16.00" fill="#182033">DamageResult</text>
<text xml:space="preserve" text-anchor="start" x="2266.96" y="-274.2" font-family="Noto Sans CJK KR" font-size="14.00" fill="#182033">+ Outcome: HitOutcome</text>
<text xml:space="preserve" text-anchor="start" x="2266.96" y="-241.4" font-family="Noto Sans CJK KR" font-size="14.00" fill="#182033">+ Critical</text>
<text xml:space="preserve" text-anchor="start" x="2266.96" y="-208.6" font-family="Noto Sans CJK KR" font-size="14.00" fill="#182033">+ RawDamage (post&#45;critical, pre&#45;mitigation)</text>
<text xml:space="preserve" text-anchor="start" x="2266.96" y="-175.8" font-family="Noto Sans CJK KR" font-size="14.00" fill="#182033">+ ResolvedDamage</text>
<text xml:space="preserve" text-anchor="start" x="2266.96" y="-143" font-family="Noto Sans CJK KR" font-size="14.00" fill="#182033">+ ShieldAbsorbed</text>
<text xml:space="preserve" text-anchor="start" x="2266.96" y="-110.2" font-family="Noto Sans CJK KR" font-size="14.00" fill="#182033">+ FinalHpDamage</text>
<text xml:space="preserve" text-anchor="start" x="2266.96" y="-77.4" font-family="Noto Sans CJK KR" font-size="14.00" fill="#182033">+ Overkill</text>
<text xml:space="preserve" text-anchor="start" x="2266.96" y="-47" font-family="Noto Sans CJK KR" font-weight="bold" font-size="14.00" fill="#182033">Invariant:</text>
<text xml:space="preserve" text-anchor="start" x="2328.4" y="-47" font-family="Noto Sans CJK KR" font-size="14.00" fill="#182033"> ResolvedDamage =</text>
<text xml:space="preserve" text-anchor="start" x="2266.96" y="-11.8" font-family="Noto Sans CJK KR" font-size="14.00" fill="#182033">ShieldAbsorbed + FinalHpDamage + Overkill</text>
<polygon fill="none" stroke="#61b99a" points="2257.96,0 2257.96,-332.4 2535.15,-332.4 2535.15,0 2257.96,0"/>
</g>
<!-- DamagePipeline&#45;&gt;DamageResult -->
<g id="edge13" class="edge">
<title>DamagePipeline&#45;&gt;DamageResult</title>
<path fill="none" stroke="#59687e" stroke-width="1.3" stroke-dasharray="5,2" d="M642.55,-206.8C642.55,-206.8 2248,-206.8 2248,-206.8"/>
<polygon fill="#59687e" stroke="#59687e" stroke-width="1.3" points="2248,-209.6 2256,-206.8 2248,-204 2248,-209.6"/>
<text xml:space="preserve" text-anchor="middle" x="1437.82" y="-170.4" font-family="Noto Sans CJK KR" font-size="14.00" fill="#46566e">Miss / Blocked / Immune / Rejected</text>
</g>
<!-- ICombatResolver -->
<g id="node4" class="node">
<title>ICombatResolver</title>
<path fill="#eaf0ff" stroke="#8292f7" stroke-width="1.4" d="M351.2,-123.88C351.2,-123.88 12,-123.88 12,-123.88 6,-123.88 0,-117.88 0,-111.88 0,-111.88 0,-72.52 0,-72.52 0,-66.52 6,-60.52 12,-60.52 12,-60.52 351.2,-60.52 351.2,-60.52 357.2,-60.52 363.2,-66.52 363.2,-72.52 363.2,-72.52 363.2,-111.88 363.2,-111.88 363.2,-117.88 357.2,-123.88 351.2,-123.88"/>
<text xml:space="preserve" text-anchor="middle" x="181.6" y="-104.8" font-family="Noto Sans CJK KR" font-size="14.00" fill="#182033">&lt;&lt;interface&gt;&gt; ICombatResolver</text>
<text xml:space="preserve" text-anchor="middle" x="181.6" y="-88" font-family="Noto Sans CJK KR" font-size="14.00" fill="#182033">+ Resolve(DamageRequest, CombatContext): DamageResult</text>
<text xml:space="preserve" text-anchor="middle" x="181.6" y="-71.2" font-family="Noto Sans CJK KR" font-size="14.00" fill="#182033">pure calculation</text>
</g>
<!-- ICombatResolver&#45;&gt;DamagePipeline -->
<g id="edge3" class="edge">
<title>ICombatResolver&#45;&gt;DamagePipeline</title>
<path fill="none" stroke="#59687e" stroke-width="1.3" d="M363.75,-117.38C465.82,-117.38 572.81,-117.38 572.81,-117.38 572.81,-117.38 572.81,-182.74 572.81,-182.74"/>
<polygon fill="none" stroke="#59687e" stroke-width="1.3" points="570.01,-182.74 572.81,-190.74 575.61,-182.74 570.01,-182.74"/>
<text xml:space="preserve" text-anchor="middle" x="433.5" y="-96.4" font-family="Noto Sans CJK KR" font-size="14.00" fill="#46566e">implemented by</text>
</g>
<!-- CriticalResolver -->
<g id="node6" class="node">
<title>CriticalResolver</title>
<path fill="#ffffff" stroke="none" stroke-width="1.4" d="M1111.88,-365C1111.88,-365 1005.93,-365 1005.93,-365 999.93,-365 993.93,-359 993.93,-353 993.93,-353 993.93,-241.4 993.93,-241.4 993.93,-235.4 999.93,-229.4 1005.93,-229.4 1005.93,-229.4 1111.88,-229.4 1111.88,-229.4 1117.88,-229.4 1123.88,-235.4 1123.88,-241.4 1123.88,-241.4 1123.88,-353 1123.88,-353 1123.88,-359 1117.88,-365 1111.88,-365"/>
<polygon fill="#fff7e6" stroke="none" points="994.93,-328.8 994.93,-364 1122.88,-364 1122.88,-328.8 994.93,-328.8"/>
<text xml:space="preserve" text-anchor="start" x="1002.93" y="-342.6" font-family="Noto Sans CJK KR" font-weight="bold" font-size="16.00" fill="#182033">CriticalResolver</text>
<text xml:space="preserve" text-anchor="start" x="1002.93" y="-306.8" font-family="Noto Sans CJK KR" font-size="14.00" fill="#182033">+ CritChance</text>
<text xml:space="preserve" text-anchor="start" x="1002.93" y="-274" font-family="Noto Sans CJK KR" font-size="14.00" fill="#182033">+ CritMultiplier</text>
<text xml:space="preserve" text-anchor="start" x="1002.93" y="-241.2" font-family="Noto Sans CJK KR" font-size="14.00" fill="#182033">+ CritResist</text>
<polygon fill="none" stroke="#e0ad4e" points="993.93,-229.4 993.93,-365 1123.88,-365 1123.88,-229.4 993.93,-229.4"/>
</g>
<!-- DefenseResolver -->
<g id="node8" class="node">
<title>DefenseResolver</title>
<path fill="#ffffff" stroke="none" stroke-width="1.4" d="M1299.72,-389.4C1299.72,-389.4 1192.88,-389.4 1192.88,-389.4 1186.88,-389.4 1180.88,-383.4 1180.88,-377.4 1180.88,-377.4 1180.88,-233 1180.88,-233 1180.88,-227 1186.88,-221 1192.88,-221 1192.88,-221 1299.72,-221 1299.72,-221 1305.72,-221 1311.72,-227 1311.72,-233 1311.72,-233 1311.72,-377.4 1311.72,-377.4 1311.72,-383.4 1305.72,-389.4 1299.72,-389.4"/>
<polygon fill="#fff0f3" stroke="none" points="1181.88,-353.2 1181.88,-388.4 1310.72,-388.4 1310.72,-353.2 1181.88,-353.2"/>
<text xml:space="preserve" text-anchor="start" x="1189.88" y="-367" font-family="Noto Sans CJK KR" font-weight="bold" font-size="16.00" fill="#182033">DefenseResolver</text>
<text xml:space="preserve" text-anchor="start" x="1189.88" y="-331.2" font-family="Noto Sans CJK KR" font-size="14.00" fill="#182033">+ Armor</text>
<text xml:space="preserve" text-anchor="start" x="1189.88" y="-298.4" font-family="Noto Sans CJK KR" font-size="14.00" fill="#182033">+ Guard</text>
<text xml:space="preserve" text-anchor="start" x="1189.88" y="-265.6" font-family="Noto Sans CJK KR" font-size="14.00" fill="#182033">+ FlatReduction</text>
<text xml:space="preserve" text-anchor="start" x="1189.88" y="-232.8" font-family="Noto Sans CJK KR" font-size="14.00" fill="#182033">+ PercentReduction</text>
<polygon fill="none" stroke="#e07b91" points="1180.88,-221 1180.88,-389.4 1311.72,-389.4 1311.72,-221 1180.88,-221"/>
</g>
<!-- CriticalResolver&#45;&gt;DefenseResolver -->
<g id="edge7" class="edge">
<title>CriticalResolver&#45;&gt;DefenseResolver</title>
<path fill="none" stroke="#59687e" stroke-width="1.3" d="M1123.66,-297.2C1123.66,-297.2 1170.94,-297.2 1170.94,-297.2"/>
<polygon fill="#59687e" stroke="#59687e" stroke-width="1.3" points="1170.94,-300 1178.94,-297.2 1170.94,-294.4 1170.94,-300"/>
<text xml:space="preserve" text-anchor="middle" x="1152.38" y="-305.4" font-family="Noto Sans CJK KR" font-size="14.00" fill="#46566e">4</text>
</g>
<!-- DamageFormula&#45;&gt;CriticalResolver -->
<g id="edge6" class="edge">
<title>DamageFormula&#45;&gt;CriticalResolver</title>
<path fill="none" stroke="#59687e" stroke-width="1.3" d="M936.88,-295.2C936.88,-295.2 984.04,-295.2 984.04,-295.2"/>
<polygon fill="#59687e" stroke="#59687e" stroke-width="1.3" points="984.04,-298 992.04,-295.2 984.04,-292.4 984.04,-298"/>
<text xml:space="preserve" text-anchor="middle" x="965.43" y="-299.4" font-family="Noto Sans CJK KR" font-size="14.00" fill="#46566e">3</text>
</g>
<!-- BlockPolicy -->
<g id="node9" class="node">
<title>BlockPolicy</title>
<path fill="#fff7e6" stroke="#e0ad4e" stroke-width="1.4" d="M1741.18,-336.88C1741.18,-336.88 1575.91,-336.88 1575.91,-336.88 1569.91,-336.88 1563.91,-330.88 1563.91,-324.88 1563.91,-324.88 1563.91,-285.52 1563.91,-285.52 1563.91,-279.52 1569.91,-273.52 1575.91,-273.52 1575.91,-273.52 1741.18,-273.52 1741.18,-273.52 1747.18,-273.52 1753.18,-279.52 1753.18,-285.52 1753.18,-285.52 1753.18,-324.88 1753.18,-324.88 1753.18,-330.88 1747.18,-336.88 1741.18,-336.88"/>
<text xml:space="preserve" text-anchor="middle" x="1658.55" y="-317.8" font-family="Noto Sans CJK KR" font-size="14.00" fill="#182033">BlockPolicy</text>
<text xml:space="preserve" text-anchor="middle" x="1658.55" y="-301" font-family="Noto Sans CJK KR" font-size="14.00" fill="#182033">reduction · guard cost · event</text>
<text xml:space="preserve" text-anchor="middle" x="1658.55" y="-284.2" font-family="Noto Sans CJK KR" font-size="14.00" fill="#182033">project&#45;specific</text>
</g>
<!-- DefenseResolver&#45;&gt;BlockPolicy -->
<g id="edge8" class="edge">
<title>DefenseResolver&#45;&gt;BlockPolicy</title>
<path fill="none" stroke="#59687e" stroke-width="1.3" d="M1311.62,-305.2C1311.62,-305.2 1553.27,-305.2 1553.27,-305.2"/>
<polygon fill="#59687e" stroke="#59687e" stroke-width="1.3" points="1553.27,-308 1561.27,-305.2 1553.27,-302.4 1553.27,-308"/>
<text xml:space="preserve" text-anchor="middle" x="1437.82" y="-309.4" font-family="Noto Sans CJK KR" font-size="14.00" fill="#46566e">5</text>
</g>
<!-- ResistanceResolver -->
<g id="node10" class="node">
<title>ResistanceResolver</title>
<path fill="#ffffff" stroke="none" stroke-width="1.4" d="M1947.7,-389.4C1947.7,-389.4 1822.18,-389.4 1822.18,-389.4 1816.18,-389.4 1810.18,-383.4 1810.18,-377.4 1810.18,-377.4 1810.18,-233 1810.18,-233 1810.18,-227 1816.18,-221 1822.18,-221 1822.18,-221 1947.7,-221 1947.7,-221 1953.7,-221 1959.7,-227 1959.7,-233 1959.7,-233 1959.7,-377.4 1959.7,-377.4 1959.7,-383.4 1953.7,-389.4 1947.7,-389.4"/>
<polygon fill="#fff0f3" stroke="none" points="1811.18,-353.2 1811.18,-388.4 1958.7,-388.4 1958.7,-353.2 1811.18,-353.2"/>
<text xml:space="preserve" text-anchor="start" x="1819.18" y="-367" font-family="Noto Sans CJK KR" font-weight="bold" font-size="16.00" fill="#182033">ResistanceResolver</text>
<text xml:space="preserve" text-anchor="start" x="1819.18" y="-331.2" font-family="Noto Sans CJK KR" font-size="14.00" fill="#182033">+ Fire / Ice / Poison</text>
<text xml:space="preserve" text-anchor="start" x="1819.18" y="-298.4" font-family="Noto Sans CJK KR" font-size="14.00" fill="#182033">+ Penetration</text>
<text xml:space="preserve" text-anchor="start" x="1819.18" y="-265.6" font-family="Noto Sans CJK KR" font-size="14.00" fill="#182033">+ Vulnerability</text>
<text xml:space="preserve" text-anchor="start" x="1819.18" y="-232.8" font-family="Noto Sans CJK KR" font-size="14.00" fill="#182033">+ Cap</text>
<polygon fill="none" stroke="#e07b91" points="1810.18,-221 1810.18,-389.4 1959.7,-389.4 1959.7,-221 1810.18,-221"/>
</g>
<!-- BlockPolicy&#45;&gt;ResistanceResolver -->
<g id="edge9" class="edge">
<title>BlockPolicy&#45;&gt;ResistanceResolver</title>
<path fill="none" stroke="#59687e" stroke-width="1.3" d="M1753.57,-305.2C1753.57,-305.2 1800.49,-305.2 1800.49,-305.2"/>
<polygon fill="#59687e" stroke="#59687e" stroke-width="1.3" points="1800.49,-308 1808.49,-305.2 1800.49,-302.4 1800.49,-308"/>
<text xml:space="preserve" text-anchor="middle" x="1781.68" y="-309.4" font-family="Noto Sans CJK KR" font-size="14.00" fill="#46566e">6</text>
</g>
<!-- ShieldResolver -->
<g id="node11" class="node">
<title>ShieldResolver</title>
<path fill="#ffffff" stroke="none" stroke-width="1.4" d="M2136.4,-365C2136.4,-365 2036.94,-365 2036.94,-365 2030.94,-365 2024.94,-359 2024.94,-353 2024.94,-353 2024.94,-241.4 2024.94,-241.4 2024.94,-235.4 2030.94,-229.4 2036.94,-229.4 2036.94,-229.4 2136.4,-229.4 2136.4,-229.4 2142.4,-229.4 2148.4,-235.4 2148.4,-241.4 2148.4,-241.4 2148.4,-353 2148.4,-353 2148.4,-359 2142.4,-365 2136.4,-365"/>
<polygon fill="#f0f3f9" stroke="none" points="2025.94,-328.8 2025.94,-364 2147.4,-364 2147.4,-328.8 2025.94,-328.8"/>
<text xml:space="preserve" text-anchor="start" x="2035.56" y="-342.6" font-family="Noto Sans CJK KR" font-weight="bold" font-size="16.00" fill="#182033">ShieldResolver</text>
<text xml:space="preserve" text-anchor="start" x="2033.94" y="-306.8" font-family="Noto Sans CJK KR" font-size="14.00" fill="#182033">+ Barrier</text>
<text xml:space="preserve" text-anchor="start" x="2033.94" y="-274" font-family="Noto Sans CJK KR" font-size="14.00" fill="#182033">+ Absorb</text>
<text xml:space="preserve" text-anchor="start" x="2033.94" y="-241.2" font-family="Noto Sans CJK KR" font-size="14.00" fill="#182033">+ DamageRedirect</text>
<polygon fill="none" stroke="#99a8bd" points="2024.94,-229.4 2024.94,-365 2148.4,-365 2148.4,-229.4 2024.94,-229.4"/>
</g>
<!-- ResistanceResolver&#45;&gt;ShieldResolver -->
<g id="edge10" class="edge">
<title>ResistanceResolver&#45;&gt;ShieldResolver</title>
<path fill="none" stroke="#59687e" stroke-width="1.3" d="M1959.48,-297.2C1959.48,-297.2 2015.01,-297.2 2015.01,-297.2"/>
<polygon fill="#59687e" stroke="#59687e" stroke-width="1.3" points="2015.01,-300 2023.01,-297.2 2015.01,-294.4 2015.01,-300"/>
<text xml:space="preserve" text-anchor="middle" x="1988.2" y="-305.4" font-family="Noto Sans CJK KR" font-size="14.00" fill="#46566e">7</text>
</g>
<!-- ShieldResolver&#45;&gt;DamageResult -->
<g id="edge11" class="edge">
<title>ShieldResolver&#45;&gt;DamageResult</title>
<path fill="none" stroke="#59687e" stroke-width="1.3" d="M2148.26,-280.9C2148.26,-280.9 2248.21,-280.9 2248.21,-280.9"/>
<polygon fill="#59687e" stroke="#59687e" stroke-width="1.3" points="2248.21,-283.7 2256.21,-280.9 2248.21,-278.1 2248.21,-283.7"/>
<text xml:space="preserve" text-anchor="middle" x="2207.3" y="-265.4" font-family="Noto Sans CJK KR" font-size="14.00" fill="#46566e">returns</text>
</g>
<!-- HitOutcome -->
<g id="node12" class="node">
<title>HitOutcome</title>
<path fill="#fff7e6" stroke="#e0ad4e" stroke-width="1.4" d="M2144.64,-110.88C2144.64,-110.88 2028.7,-110.88 2028.7,-110.88 2022.7,-110.88 2016.7,-104.88 2016.7,-98.88 2016.7,-98.88 2016.7,-59.52 2016.7,-59.52 2016.7,-53.52 2022.7,-47.52 2028.7,-47.52 2028.7,-47.52 2144.64,-47.52 2144.64,-47.52 2150.64,-47.52 2156.64,-53.52 2156.64,-59.52 2156.64,-59.52 2156.64,-98.88 2156.64,-98.88 2156.64,-104.88 2150.64,-110.88 2144.64,-110.88"/>
<text xml:space="preserve" text-anchor="middle" x="2086.67" y="-91.8" font-family="Noto Sans CJK KR" font-size="14.00" fill="#182033">HitOutcome</text>
<text xml:space="preserve" text-anchor="middle" x="2086.67" y="-75" font-family="Noto Sans CJK KR" font-size="14.00" fill="#182033">Hit · Miss · Blocked</text>
<text xml:space="preserve" text-anchor="middle" x="2086.67" y="-58.2" font-family="Noto Sans CJK KR" font-size="14.00" fill="#182033">Immune · Rejected</text>
</g>
<!-- HitOutcome&#45;&gt;DamageResult -->
<g id="edge12" class="edge">
<title>HitOutcome&#45;&gt;DamageResult</title>
<path fill="none" stroke="#59687e" stroke-width="1.3" d="M2156.99,-79.2C2156.99,-79.2 2248.1,-79.2 2248.1,-79.2"/>
<polygon fill="#59687e" stroke="#59687e" stroke-width="1.3" points="2248.1,-82 2256.1,-79.2 2248.1,-76.4 2248.1,-82"/>
<text xml:space="preserve" text-anchor="middle" x="2207.3" y="-83.4" font-family="Noto Sans CJK KR" font-size="14.00" fill="#46566e">classifies</text>
</g>
<!-- DamageCommit -->
<g id="node14" class="node">
<title>DamageCommit</title>
<path fill="#eefbf6" stroke="#61b99a" stroke-width="1.4" d="M2960.81,-243.88C2960.81,-243.88 2700.17,-243.88 2700.17,-243.88 2694.17,-243.88 2688.17,-237.88 2688.17,-231.88 2688.17,-231.88 2688.17,-192.52 2688.17,-192.52 2688.17,-186.52 2694.17,-180.52 2700.17,-180.52 2700.17,-180.52 2960.81,-180.52 2960.81,-180.52 2966.81,-180.52 2972.81,-186.52 2972.81,-192.52 2972.81,-192.52 2972.81,-231.88 2972.81,-231.88 2972.81,-237.88 2966.81,-243.88 2960.81,-243.88"/>
<text xml:space="preserve" text-anchor="middle" x="2830.49" y="-224.8" font-family="Noto Sans CJK KR" font-size="14.00" fill="#182033">IDamageCommitService / RuntimeCommitter</text>
<text xml:space="preserve" text-anchor="middle" x="2830.49" y="-208" font-family="Noto Sans CJK KR" font-size="14.00" fill="#182033">+ Commit(defenderId, result): AppliedDamage</text>
<text xml:space="preserve" text-anchor="middle" x="2830.49" y="-191.2" font-family="Noto Sans CJK KR" font-size="14.00" fill="#182033">Shield · HP · outbox atomic</text>
</g>
<!-- DamageResult&#45;&gt;DamageCommit -->
<g id="edge14" class="edge">
<title>DamageResult&#45;&gt;DamageCommit</title>
<path fill="none" stroke="#59687e" stroke-width="1.3" d="M2535.04,-212.2C2535.04,-212.2 2677.75,-212.2 2677.75,-212.2"/>
<polygon fill="#59687e" stroke="#59687e" stroke-width="1.3" points="2677.75,-215 2685.75,-212.2 2677.75,-209.4 2677.75,-215"/>
<text xml:space="preserve" text-anchor="middle" x="2611.66" y="-216.4" font-family="Noto Sans CJK KR" font-size="14.00" fill="#46566e">commit separately</text>
</g>
<!-- CombatLogBuilder -->
<g id="node15" class="node">
<title>CombatLogBuilder</title>
<path fill="#ffffff" stroke="#bac7db" stroke-width="1.4" d="M2912.41,-144.48C2912.41,-144.48 2748.56,-144.48 2748.56,-144.48 2742.56,-144.48 2736.56,-138.48 2736.56,-132.48 2736.56,-132.48 2736.56,-109.92 2736.56,-109.92 2736.56,-103.92 2742.56,-97.92 2748.56,-97.92 2748.56,-97.92 2912.41,-97.92 2912.41,-97.92 2918.41,-97.92 2924.41,-103.92 2924.41,-109.92 2924.41,-109.92 2924.41,-132.48 2924.41,-132.48 2924.41,-138.48 2918.41,-144.48 2912.41,-144.48"/>
<text xml:space="preserve" text-anchor="middle" x="2830.49" y="-125.4" font-family="Noto Sans CJK KR" font-size="14.00" fill="#182033">CombatLogBuilder</text>
<text xml:space="preserve" text-anchor="middle" x="2830.49" y="-108.6" font-family="Noto Sans CJK KR" font-size="14.00" fill="#182033">+ BuildHumanReadableLog()</text>
</g>
<!-- DamageResult&#45;&gt;CombatLogBuilder -->
<g id="edge15" class="edge">
<title>DamageResult&#45;&gt;CombatLogBuilder</title>
<path fill="none" stroke="#59687e" stroke-width="1.3" d="M2535.04,-121.2C2535.04,-121.2 2726.14,-121.2 2726.14,-121.2"/>
<polygon fill="#59687e" stroke="#59687e" stroke-width="1.3" points="2726.14,-124 2734.14,-121.2 2726.14,-118.4 2726.14,-124"/>
<text xml:space="preserve" text-anchor="middle" x="2611.66" y="-125.4" font-family="Noto Sans CJK KR" font-size="14.00" fill="#46566e">log</text>
</g>
</g>
</svg>
