<?xml version="1.0" encoding="UTF-8" standalone="no"?>
<!DOCTYPE svg PUBLIC "-//W3C//DTD SVG 1.1//EN"
 "http://www.w3.org/Graphics/SVG/1.1/DTD/svg11.dtd">
<!-- Generated by graphviz version 15.0.0 (20260523.1842)
 -->
<!-- Title: G Pages: 1 -->
<svg width="1837pt" height="718pt"
 viewBox="9.00 9.00 1828.00 710.00" xmlns="http://www.w3.org/2000/svg" xmlns:xlink="http://www.w3.org/1999/xlink">
<g id="graph0" class="graph" transform="scale(1 1) rotate(0) translate(26.64 691.84)">
<title>G</title>
<polygon fill="#ffffff" stroke="none" points="-18,18 -18,-683.2 1801.84,-683.2 1801.84,18 -18,18"/>
<!-- DamageRequest -->
<g id="node1" class="node">
<title>DamageRequest</title>
<path fill="#ffffff" stroke="none" stroke-width="1.4" d="M134.41,-665.2C134.41,-665.2 12,-665.2 12,-665.2 6,-665.2 0,-659.2 0,-653.2 0,-653.2 0,-344.8 0,-344.8 0,-338.8 6,-332.8 12,-332.8 12,-332.8 134.41,-332.8 134.41,-332.8 140.41,-332.8 146.41,-338.8 146.41,-344.8 146.41,-344.8 146.41,-653.2 146.41,-653.2 146.41,-659.2 140.41,-665.2 134.41,-665.2"/>
<polygon fill="#eefbf6" stroke="none" points="1,-629 1,-664.2 145.41,-664.2 145.41,-629 1,-629"/>
<text xml:space="preserve" text-anchor="start" x="17.66" y="-642.8" font-family="Noto Sans CJK KR" font-weight="bold" font-size="16.00" fill="#182033">DamageRequest</text>
<text xml:space="preserve" text-anchor="start" x="9" y="-607" font-family="Noto Sans CJK KR" font-size="14.00" fill="#182033">+ AttackerId: EntityId</text>
<text xml:space="preserve" text-anchor="start" x="9" y="-574.2" font-family="Noto Sans CJK KR" font-size="14.00" fill="#182033">+ DefenderId: EntityId</text>
<text xml:space="preserve" text-anchor="start" x="9" y="-541.4" font-family="Noto Sans CJK KR" font-size="14.00" fill="#182033">+ Source: SourceRef</text>
<text xml:space="preserve" text-anchor="start" x="9" y="-508.6" font-family="Noto Sans CJK KR" font-size="14.00" fill="#182033">+ FormulaId</text>
<text xml:space="preserve" text-anchor="start" x="9" y="-475.8" font-family="Noto Sans CJK KR" font-size="14.00" fill="#182033">+ DamageType</text>
<text xml:space="preserve" text-anchor="start" x="9" y="-443" font-family="Noto Sans CJK KR" font-size="14.00" fill="#182033">+ BaseValue</text>
<text xml:space="preserve" text-anchor="start" x="9" y="-410.2" font-family="Noto Sans CJK KR" font-size="14.00" fill="#182033">+ CoefficientBps</text>
<text xml:space="preserve" text-anchor="start" x="9" y="-377.4" font-family="Noto Sans CJK KR" font-size="14.00" fill="#182033">+ Tags</text>
<text xml:space="preserve" text-anchor="start" x="9" y="-344.6" font-family="Noto Sans CJK KR" font-size="14.00" fill="#182033">+ Seed</text>
<polygon fill="none" stroke="#61b99a" points="0,-332.8 0,-665.2 146.41,-665.2 146.41,-332.8 0,-332.8"/>
</g>
<!-- DamagePipeline -->
<g id="node3" class="node">
<title>DamagePipeline</title>
<path fill="#ffffff" stroke="none" stroke-width="1.4" d="M354.71,-447.6C354.71,-447.6 249.61,-447.6 249.61,-447.6 243.61,-447.6 237.61,-441.6 237.61,-435.6 237.61,-435.6 237.61,-258.4 237.61,-258.4 237.61,-252.4 243.61,-246.4 249.61,-246.4 249.61,-246.4 354.71,-246.4 354.71,-246.4 360.71,-246.4 366.71,-252.4 366.71,-258.4 366.71,-258.4 366.71,-435.6 366.71,-435.6 366.71,-441.6 360.71,-447.6 354.71,-447.6"/>
<polygon fill="#eaf0ff" stroke="none" points="238.61,-411.4 238.61,-446.6 365.71,-446.6 365.71,-411.4 238.61,-411.4"/>
<text xml:space="preserve" text-anchor="start" x="246.61" y="-425.2" font-family="Noto Sans CJK KR" font-weight="bold" font-size="16.00" fill="#182033">DamagePipeline</text>
<text xml:space="preserve" text-anchor="start" x="246.61" y="-389.4" font-family="Noto Sans CJK KR" font-size="14.00" fill="#182033">+ Validate()</text>
<text xml:space="preserve" text-anchor="start" x="246.61" y="-356.6" font-family="Noto Sans CJK KR" font-size="14.00" fill="#182033">+ ResolveHit()</text>
<text xml:space="preserve" text-anchor="start" x="246.61" y="-323.8" font-family="Noto Sans CJK KR" font-size="14.00" fill="#182033">+ ResolveCritical()</text>
<text xml:space="preserve" text-anchor="start" x="246.61" y="-291" font-family="Noto Sans CJK KR" font-size="14.00" fill="#182033">+ Calculate()</text>
<text xml:space="preserve" text-anchor="start" x="246.61" y="-258.2" font-family="Noto Sans CJK KR" font-size="14.00" fill="#182033">+ BuildResult()</text>
<polygon fill="none" stroke="#8292f7" points="237.61,-246.4 237.61,-447.6 366.71,-447.6 366.71,-246.4 237.61,-246.4"/>
</g>
<!-- DamageRequest&#45;&gt;DamagePipeline -->
<g id="edge1" class="edge">
<title>DamageRequest&#45;&gt;DamagePipeline</title>
<path fill="none" stroke="#59687e" stroke-width="1.3" d="M146.28,-390.2C146.28,-390.2 227.92,-390.2 227.92,-390.2"/>
<polygon fill="#59687e" stroke="#59687e" stroke-width="1.3" points="227.92,-393 235.92,-390.2 227.92,-387.4 227.92,-393"/>
<text xml:space="preserve" text-anchor="middle" x="192.01" y="-503.2" font-family="Noto Sans CJK KR" font-size="14.00" fill="#46566e">input</text>
</g>
<!-- CombatContext -->
<g id="node2" class="node">
<title>CombatContext</title>
<path fill="#ffffff" stroke="none" stroke-width="1.4" d="M124.86,-296.6C124.86,-296.6 21.54,-296.6 21.54,-296.6 15.54,-296.6 9.54,-290.6 9.54,-284.6 9.54,-284.6 9.54,-107.4 9.54,-107.4 9.54,-101.4 15.54,-95.4 21.54,-95.4 21.54,-95.4 124.86,-95.4 124.86,-95.4 130.86,-95.4 136.86,-101.4 136.86,-107.4 136.86,-107.4 136.86,-284.6 136.86,-284.6 136.86,-290.6 130.86,-296.6 124.86,-296.6"/>
<polygon fill="#e9fbff" stroke="none" points="10.54,-260.4 10.54,-295.6 135.86,-295.6 135.86,-260.4 10.54,-260.4"/>
<text xml:space="preserve" text-anchor="start" x="18.54" y="-274.2" font-family="Noto Sans CJK KR" font-weight="bold" font-size="16.00" fill="#182033">CombatContext</text>
<text xml:space="preserve" text-anchor="start" x="18.54" y="-238.4" font-family="Noto Sans CJK KR" font-size="14.00" fill="#182033">+ Distance</text>
<text xml:space="preserve" text-anchor="start" x="18.54" y="-205.6" font-family="Noto Sans CJK KR" font-size="14.00" fill="#182033">+ Facing</text>
<text xml:space="preserve" text-anchor="start" x="18.54" y="-172.8" font-family="Noto Sans CJK KR" font-size="14.00" fill="#182033">+ TerrainTags</text>
<text xml:space="preserve" text-anchor="start" x="18.54" y="-140" font-family="Noto Sans CJK KR" font-size="14.00" fill="#182033">+ StatusTags</text>
<text xml:space="preserve" text-anchor="start" x="18.54" y="-107.2" font-family="Noto Sans CJK KR" font-size="14.00" fill="#182033">+ Difficulty</text>
<polygon fill="none" stroke="#54b7cf" points="9.54,-95.4 9.54,-296.6 136.86,-296.6 136.86,-95.4 9.54,-95.4"/>
</g>
<!-- CombatContext&#45;&gt;DamagePipeline -->
<g id="edge2" class="edge">
<title>CombatContext&#45;&gt;DamagePipeline</title>
<path fill="none" stroke="#59687e" stroke-width="1.3" d="M136.68,-271.5C136.68,-271.5 227.8,-271.5 227.8,-271.5"/>
<polygon fill="#59687e" stroke="#59687e" stroke-width="1.3" points="227.8,-274.3 235.8,-271.5 227.8,-268.7 227.8,-274.3"/>
<text xml:space="preserve" text-anchor="middle" x="192.01" y="-200.2" font-family="Noto Sans CJK KR" font-size="14.00" fill="#46566e">context</text>
</g>
<!-- HitResolver -->
<g id="node4" class="node">
<title>HitResolver</title>
<path fill="#ffffff" stroke="none" stroke-width="1.4" d="M580.33,-662.2C580.33,-662.2 504.19,-662.2 504.19,-662.2 498.19,-662.2 492.19,-656.2 492.19,-650.2 492.19,-650.2 492.19,-505.8 492.19,-505.8 492.19,-499.8 498.19,-493.8 504.19,-493.8 504.19,-493.8 580.33,-493.8 580.33,-493.8 586.33,-493.8 592.33,-499.8 592.33,-505.8 592.33,-505.8 592.33,-650.2 592.33,-650.2 592.33,-656.2 586.33,-662.2 580.33,-662.2"/>
<polygon fill="#fff7e6" stroke="none" points="493.19,-626 493.19,-661.2 591.33,-661.2 591.33,-626 493.19,-626"/>
<text xml:space="preserve" text-anchor="start" x="501.39" y="-639.8" font-family="Noto Sans CJK KR" font-weight="bold" font-size="16.00" fill="#182033">HitResolver</text>
<text xml:space="preserve" text-anchor="start" x="501.19" y="-604" font-family="Noto Sans CJK KR" font-size="14.00" fill="#182033">+ Accuracy</text>
<text xml:space="preserve" text-anchor="start" x="501.19" y="-571.2" font-family="Noto Sans CJK KR" font-size="14.00" fill="#182033">+ Evasion</text>
<text xml:space="preserve" text-anchor="start" x="501.19" y="-538.4" font-family="Noto Sans CJK KR" font-size="14.00" fill="#182033">+ Block</text>
<text xml:space="preserve" text-anchor="start" x="501.19" y="-505.6" font-family="Noto Sans CJK KR" font-size="14.00" fill="#182033">+ Invulnerable</text>
<polygon fill="none" stroke="#e0ad4e" points="492.19,-493.8 492.19,-662.2 592.33,-662.2 592.33,-493.8 492.19,-493.8"/>
</g>
<!-- DamagePipeline&#45;&gt;HitResolver -->
<g id="edge3" class="edge">
<title>DamagePipeline&#45;&gt;HitResolver</title>
<path fill="none" stroke="#59687e" stroke-width="1.3" d="M301.84,-447.31C301.84,-509.65 301.84,-578 301.84,-578 301.84,-578 482.48,-578 482.48,-578"/>
<polygon fill="#59687e" stroke="#59687e" stroke-width="1.3" points="482.48,-580.8 490.48,-578 482.48,-575.2 482.48,-580.8"/>
<text xml:space="preserve" text-anchor="middle" x="395.21" y="-582.2" font-family="Noto Sans CJK KR" font-size="14.00" fill="#46566e">1</text>
</g>
<!-- CriticalResolver -->
<g id="node5" class="node">
<title>CriticalResolver</title>
<path fill="#ffffff" stroke="none" stroke-width="1.4" d="M595.24,-457.8C595.24,-457.8 489.29,-457.8 489.29,-457.8 483.29,-457.8 477.29,-451.8 477.29,-445.8 477.29,-445.8 477.29,-334.2 477.29,-334.2 477.29,-328.2 483.29,-322.2 489.29,-322.2 489.29,-322.2 595.24,-322.2 595.24,-322.2 601.24,-322.2 607.24,-328.2 607.24,-334.2 607.24,-334.2 607.24,-445.8 607.24,-445.8 607.24,-451.8 601.24,-457.8 595.24,-457.8"/>
<polygon fill="#fff7e6" stroke="none" points="478.29,-421.6 478.29,-456.8 606.24,-456.8 606.24,-421.6 478.29,-421.6"/>
<text xml:space="preserve" text-anchor="start" x="486.29" y="-435.4" font-family="Noto Sans CJK KR" font-weight="bold" font-size="16.00" fill="#182033">CriticalResolver</text>
<text xml:space="preserve" text-anchor="start" x="486.29" y="-399.6" font-family="Noto Sans CJK KR" font-size="14.00" fill="#182033">+ CritChance</text>
<text xml:space="preserve" text-anchor="start" x="486.29" y="-366.8" font-family="Noto Sans CJK KR" font-size="14.00" fill="#182033">+ CritMultiplier</text>
<text xml:space="preserve" text-anchor="start" x="486.29" y="-334" font-family="Noto Sans CJK KR" font-size="14.00" fill="#182033">+ CritResist</text>
<polygon fill="none" stroke="#e0ad4e" points="477.29,-322.2 477.29,-457.8 607.24,-457.8 607.24,-322.2 477.29,-322.2"/>
</g>
<!-- DamagePipeline&#45;&gt;CriticalResolver -->
<g id="edge4" class="edge">
<title>DamagePipeline&#45;&gt;CriticalResolver</title>
<path fill="none" stroke="#59687e" stroke-width="1.3" d="M366.5,-384.9C366.5,-384.9 467.36,-384.9 467.36,-384.9"/>
<polygon fill="#59687e" stroke="#59687e" stroke-width="1.3" points="467.36,-387.7 475.36,-384.9 467.36,-382.1 467.36,-387.7"/>
<text xml:space="preserve" text-anchor="middle" x="395.21" y="-394.2" font-family="Noto Sans CJK KR" font-size="14.00" fill="#46566e">2</text>
</g>
<!-- DamageFormula -->
<g id="node6" class="node">
<title>DamageFormula</title>
<path fill="#ffffff" stroke="none" stroke-width="1.4" d="M648.82,-285.8C648.82,-285.8 435.71,-285.8 435.71,-285.8 429.71,-285.8 423.71,-279.8 423.71,-273.8 423.71,-273.8 423.71,-162.2 423.71,-162.2 423.71,-156.2 429.71,-150.2 435.71,-150.2 435.71,-150.2 648.82,-150.2 648.82,-150.2 654.82,-150.2 660.82,-156.2 660.82,-162.2 660.82,-162.2 660.82,-273.8 660.82,-273.8 660.82,-279.8 654.82,-285.8 648.82,-285.8"/>
<polygon fill="#f3eefc" stroke="none" points="424.71,-249.6 424.71,-284.8 659.82,-284.8 659.82,-249.6 424.71,-249.6"/>
<text xml:space="preserve" text-anchor="start" x="484.5" y="-263.4" font-family="Noto Sans CJK KR" font-weight="bold" font-size="16.00" fill="#182033">DamageFormula</text>
<text xml:space="preserve" text-anchor="start" x="432.71" y="-227.6" font-family="Noto Sans CJK KR" font-size="14.00" fill="#182033">+ BaseValue + StatValue * Coefficient</text>
<text xml:space="preserve" text-anchor="start" x="432.71" y="-194.8" font-family="Noto Sans CJK KR" font-size="14.00" fill="#182033">+ OffensiveBonus</text>
<text xml:space="preserve" text-anchor="start" x="432.71" y="-162" font-family="Noto Sans CJK KR" font-size="14.00" fill="#182033">+ FormulaSubtotal</text>
<polygon fill="none" stroke="#ab8fe0" points="423.71,-150.2 423.71,-285.8 660.82,-285.8 660.82,-150.2 423.71,-150.2"/>
</g>
<!-- DamagePipeline&#45;&gt;DamageFormula -->
<g id="edge5" class="edge">
<title>DamagePipeline&#45;&gt;DamageFormula</title>
<path fill="none" stroke="#59687e" stroke-width="1.3" d="M366.5,-266.1C366.5,-266.1 414,-266.1 414,-266.1"/>
<polygon fill="#59687e" stroke="#59687e" stroke-width="1.3" points="414,-268.9 422,-266.1 414,-263.3 414,-268.9"/>
<text xml:space="preserve" text-anchor="middle" x="395.21" y="-265.2" font-family="Noto Sans CJK KR" font-size="14.00" fill="#46566e">3</text>
</g>
<!-- DamageResult -->
<g id="node10" class="node">
<title>DamageResult</title>
<path fill="#ffffff" stroke="none" stroke-width="1.4" d="M1516.1,-234C1516.1,-234 1411.96,-234 1411.96,-234 1405.96,-234 1399.96,-228 1399.96,-222 1399.96,-222 1399.96,-12 1399.96,-12 1399.96,-6 1405.96,0 1411.96,0 1411.96,0 1516.1,0 1516.1,0 1522.1,0 1528.1,-6 1528.1,-12 1528.1,-12 1528.1,-222 1528.1,-222 1528.1,-228 1522.1,-234 1516.1,-234"/>
<polygon fill="#eefbf6" stroke="none" points="1400.96,-197.8 1400.96,-233 1527.1,-233 1527.1,-197.8 1400.96,-197.8"/>
<text xml:space="preserve" text-anchor="start" x="1414.26" y="-211.6" font-family="Noto Sans CJK KR" font-weight="bold" font-size="16.00" fill="#182033">DamageResult</text>
<text xml:space="preserve" text-anchor="start" x="1408.96" y="-175.8" font-family="Noto Sans CJK KR" font-size="14.00" fill="#182033">+ Hit</text>
<text xml:space="preserve" text-anchor="start" x="1408.96" y="-143" font-family="Noto Sans CJK KR" font-size="14.00" fill="#182033">+ Critical</text>
<text xml:space="preserve" text-anchor="start" x="1408.96" y="-110.2" font-family="Noto Sans CJK KR" font-size="14.00" fill="#182033">+ RawDamage</text>
<text xml:space="preserve" text-anchor="start" x="1408.96" y="-77.4" font-family="Noto Sans CJK KR" font-size="14.00" fill="#182033">+ ResolvedDamage</text>
<text xml:space="preserve" text-anchor="start" x="1408.96" y="-44.6" font-family="Noto Sans CJK KR" font-size="14.00" fill="#182033">+ ShieldAbsorbed</text>
<text xml:space="preserve" text-anchor="start" x="1408.96" y="-11.8" font-family="Noto Sans CJK KR" font-size="14.00" fill="#182033">+ FinalHpDamage</text>
<polygon fill="none" stroke="#61b99a" points="1399.96,0 1399.96,-234 1528.1,-234 1528.1,0 1399.96,0"/>
</g>
<!-- DamagePipeline&#45;&gt;DamageResult -->
<g id="edge10" class="edge">
<title>DamagePipeline&#45;&gt;DamageResult</title>
<path fill="none" stroke="#59687e" stroke-width="1.3" stroke-dasharray="5,2" d="M366.69,-316.2C610.78,-316.2 1463.84,-316.2 1463.84,-316.2 1463.84,-316.2 1463.84,-243.71 1463.84,-243.71"/>
<polygon fill="#59687e" stroke="#59687e" stroke-width="1.3" points="1466.64,-243.71 1463.84,-235.71 1461.04,-243.71 1466.64,-243.71"/>
<text xml:space="preserve" text-anchor="middle" x="914.89" y="-91.2" font-family="Noto Sans CJK KR" font-size="14.00" fill="#46566e">miss / immune</text>
</g>
<!-- DefenseResolver -->
<g id="node7" class="node">
<title>DefenseResolver</title>
<path fill="#ffffff" stroke="none" stroke-width="1.4" d="M836.66,-310.2C836.66,-310.2 729.82,-310.2 729.82,-310.2 723.82,-310.2 717.82,-304.2 717.82,-298.2 717.82,-298.2 717.82,-153.8 717.82,-153.8 717.82,-147.8 723.82,-141.8 729.82,-141.8 729.82,-141.8 836.66,-141.8 836.66,-141.8 842.66,-141.8 848.66,-147.8 848.66,-153.8 848.66,-153.8 848.66,-298.2 848.66,-298.2 848.66,-304.2 842.66,-310.2 836.66,-310.2"/>
<polygon fill="#fff0f3" stroke="none" points="718.82,-274 718.82,-309.2 847.66,-309.2 847.66,-274 718.82,-274"/>
<text xml:space="preserve" text-anchor="start" x="726.82" y="-287.8" font-family="Noto Sans CJK KR" font-weight="bold" font-size="16.00" fill="#182033">DefenseResolver</text>
<text xml:space="preserve" text-anchor="start" x="726.82" y="-252" font-family="Noto Sans CJK KR" font-size="14.00" fill="#182033">+ Armor</text>
<text xml:space="preserve" text-anchor="start" x="726.82" y="-219.2" font-family="Noto Sans CJK KR" font-size="14.00" fill="#182033">+ Guard</text>
<text xml:space="preserve" text-anchor="start" x="726.82" y="-186.4" font-family="Noto Sans CJK KR" font-size="14.00" fill="#182033">+ FlatReduction</text>
<text xml:space="preserve" text-anchor="start" x="726.82" y="-153.6" font-family="Noto Sans CJK KR" font-size="14.00" fill="#182033">+ PercentReduction</text>
<polygon fill="none" stroke="#e07b91" points="717.82,-141.8 717.82,-310.2 848.66,-310.2 848.66,-141.8 717.82,-141.8"/>
</g>
<!-- DamageFormula&#45;&gt;DefenseResolver -->
<g id="edge6" class="edge">
<title>DamageFormula&#45;&gt;DefenseResolver</title>
<path fill="none" stroke="#59687e" stroke-width="1.3" d="M660.63,-218C660.63,-218 708.04,-218 708.04,-218"/>
<polygon fill="#59687e" stroke="#59687e" stroke-width="1.3" points="708.04,-220.8 716.04,-218 708.04,-215.2 708.04,-220.8"/>
<text xml:space="preserve" text-anchor="middle" x="689.32" y="-226.2" font-family="Noto Sans CJK KR" font-size="14.00" fill="#46566e">4</text>
</g>
<!-- ResistanceResolver -->
<g id="node8" class="node">
<title>ResistanceResolver</title>
<path fill="#ffffff" stroke="none" stroke-width="1.4" d="M1118.63,-310.2C1118.63,-310.2 993.11,-310.2 993.11,-310.2 987.11,-310.2 981.11,-304.2 981.11,-298.2 981.11,-298.2 981.11,-153.8 981.11,-153.8 981.11,-147.8 987.11,-141.8 993.11,-141.8 993.11,-141.8 1118.63,-141.8 1118.63,-141.8 1124.63,-141.8 1130.63,-147.8 1130.63,-153.8 1130.63,-153.8 1130.63,-298.2 1130.63,-298.2 1130.63,-304.2 1124.63,-310.2 1118.63,-310.2"/>
<polygon fill="#fff0f3" stroke="none" points="982.11,-274 982.11,-309.2 1129.63,-309.2 1129.63,-274 982.11,-274"/>
<text xml:space="preserve" text-anchor="start" x="990.11" y="-287.8" font-family="Noto Sans CJK KR" font-weight="bold" font-size="16.00" fill="#182033">ResistanceResolver</text>
<text xml:space="preserve" text-anchor="start" x="990.11" y="-252" font-family="Noto Sans CJK KR" font-size="14.00" fill="#182033">+ Fire / Ice / Poison</text>
<text xml:space="preserve" text-anchor="start" x="990.11" y="-219.2" font-family="Noto Sans CJK KR" font-size="14.00" fill="#182033">+ Penetration</text>
<text xml:space="preserve" text-anchor="start" x="990.11" y="-186.4" font-family="Noto Sans CJK KR" font-size="14.00" fill="#182033">+ Vulnerability</text>
<text xml:space="preserve" text-anchor="start" x="990.11" y="-153.6" font-family="Noto Sans CJK KR" font-size="14.00" fill="#182033">+ Cap</text>
<polygon fill="none" stroke="#e07b91" points="981.11,-141.8 981.11,-310.2 1130.63,-310.2 1130.63,-141.8 981.11,-141.8"/>
</g>
<!-- DefenseResolver&#45;&gt;ResistanceResolver -->
<g id="edge7" class="edge">
<title>DefenseResolver&#45;&gt;ResistanceResolver</title>
<path fill="none" stroke="#59687e" stroke-width="1.3" d="M848.54,-226C848.54,-226 971.5,-226 971.5,-226"/>
<polygon fill="#59687e" stroke="#59687e" stroke-width="1.3" points="971.5,-228.8 979.5,-226 971.5,-223.2 971.5,-228.8"/>
<text xml:space="preserve" text-anchor="middle" x="914.89" y="-230.2" font-family="Noto Sans CJK KR" font-size="14.00" fill="#46566e">5</text>
</g>
<!-- ShieldResolver -->
<g id="node9" class="node">
<title>ShieldResolver</title>
<path fill="#ffffff" stroke="none" stroke-width="1.4" d="M1299.08,-285.8C1299.08,-285.8 1199.63,-285.8 1199.63,-285.8 1193.63,-285.8 1187.63,-279.8 1187.63,-273.8 1187.63,-273.8 1187.63,-162.2 1187.63,-162.2 1187.63,-156.2 1193.63,-150.2 1199.63,-150.2 1199.63,-150.2 1299.08,-150.2 1299.08,-150.2 1305.08,-150.2 1311.08,-156.2 1311.08,-162.2 1311.08,-162.2 1311.08,-273.8 1311.08,-273.8 1311.08,-279.8 1305.08,-285.8 1299.08,-285.8"/>
<polygon fill="#f0f3f9" stroke="none" points="1188.63,-249.6 1188.63,-284.8 1310.08,-284.8 1310.08,-249.6 1188.63,-249.6"/>
<text xml:space="preserve" text-anchor="start" x="1198.25" y="-263.4" font-family="Noto Sans CJK KR" font-weight="bold" font-size="16.00" fill="#182033">ShieldResolver</text>
<text xml:space="preserve" text-anchor="start" x="1196.63" y="-227.6" font-family="Noto Sans CJK KR" font-size="14.00" fill="#182033">+ Barrier</text>
<text xml:space="preserve" text-anchor="start" x="1196.63" y="-194.8" font-family="Noto Sans CJK KR" font-size="14.00" fill="#182033">+ Absorb</text>
<text xml:space="preserve" text-anchor="start" x="1196.63" y="-162" font-family="Noto Sans CJK KR" font-size="14.00" fill="#182033">+ DamageRedirect</text>
<polygon fill="none" stroke="#99a8bd" points="1187.63,-150.2 1187.63,-285.8 1311.08,-285.8 1311.08,-150.2 1187.63,-150.2"/>
</g>
<!-- ResistanceResolver&#45;&gt;ShieldResolver -->
<g id="edge8" class="edge">
<title>ResistanceResolver&#45;&gt;ShieldResolver</title>
<path fill="none" stroke="#59687e" stroke-width="1.3" d="M1130.4,-218C1130.4,-218 1177.76,-218 1177.76,-218"/>
<polygon fill="#59687e" stroke="#59687e" stroke-width="1.3" points="1177.76,-220.8 1185.76,-218 1177.76,-215.2 1177.76,-220.8"/>
<text xml:space="preserve" text-anchor="middle" x="1159.13" y="-226.2" font-family="Noto Sans CJK KR" font-size="14.00" fill="#46566e">6</text>
</g>
<!-- ShieldResolver&#45;&gt;DamageResult -->
<g id="edge9" class="edge">
<title>ShieldResolver&#45;&gt;DamageResult</title>
<path fill="none" stroke="#59687e" stroke-width="1.3" d="M1310.87,-192.1C1310.87,-192.1 1390.3,-192.1 1390.3,-192.1"/>
<polygon fill="#59687e" stroke="#59687e" stroke-width="1.3" points="1390.3,-194.9 1398.3,-192.1 1390.3,-189.3 1390.3,-194.9"/>
<text xml:space="preserve" text-anchor="middle" x="1355.52" y="-182.2" font-family="Noto Sans CJK KR" font-size="14.00" fill="#46566e">returns</text>
</g>
<!-- CombatLogBuilder -->
<g id="node11" class="node">
<title>CombatLogBuilder</title>
<path fill="#ffffff" stroke="#bac7db" stroke-width="1.4" d="M1771.84,-140.28C1771.84,-140.28 1607.99,-140.28 1607.99,-140.28 1601.99,-140.28 1595.99,-134.28 1595.99,-128.28 1595.99,-128.28 1595.99,-105.72 1595.99,-105.72 1595.99,-99.72 1601.99,-93.72 1607.99,-93.72 1607.99,-93.72 1771.84,-93.72 1771.84,-93.72 1777.84,-93.72 1783.84,-99.72 1783.84,-105.72 1783.84,-105.72 1783.84,-128.28 1783.84,-128.28 1783.84,-134.28 1777.84,-140.28 1771.84,-140.28"/>
<text xml:space="preserve" text-anchor="middle" x="1689.91" y="-121.2" font-family="Noto Sans CJK KR" font-size="14.00" fill="#182033">CombatLogBuilder</text>
<text xml:space="preserve" text-anchor="middle" x="1689.91" y="-104.4" font-family="Noto Sans CJK KR" font-size="14.00" fill="#182033">+ BuildHumanReadableLog()</text>
</g>
<!-- DamageResult&#45;&gt;CombatLogBuilder -->
<g id="edge11" class="edge">
<title>DamageResult&#45;&gt;CombatLogBuilder</title>
<path fill="none" stroke="#59687e" stroke-width="1.3" d="M1527.85,-117C1527.85,-117 1585.5,-117 1585.5,-117"/>
<polygon fill="#59687e" stroke="#59687e" stroke-width="1.3" points="1585.5,-119.8 1593.5,-117 1585.5,-114.2 1585.5,-119.8"/>
<text xml:space="preserve" text-anchor="middle" x="1562.05" y="-121.2" font-family="Noto Sans CJK KR" font-size="14.00" fill="#46566e">log</text>
</g>
</g>
</svg>
