<?xml version="1.0" encoding="UTF-8" standalone="no"?>
<!DOCTYPE svg PUBLIC "-//W3C//DTD SVG 1.1//EN"
 "http://www.w3.org/Graphics/SVG/1.1/DTD/svg11.dtd">
<!-- Generated by graphviz version 15.0.0 (20260523.1842)
 -->
<!-- Title: G Pages: 1 -->
<svg width="464pt" height="1401pt"
 viewBox="9.00 9.00 455.00 1392.00" xmlns="http://www.w3.org/2000/svg" xmlns:xlink="http://www.w3.org/1999/xlink">
<g id="graph0" class="graph" transform="scale(1 1) rotate(0) translate(26.64 1373.88)">
<title>G</title>
<polygon fill="#ffffff" stroke="none" points="-18,18 -18,-1365.24 428.65,-1365.24 428.65,18 -18,18"/>
<!-- start -->
<g id="node1" class="node">
<title>start</title>
<ellipse fill="#182033" stroke="#182033" stroke-width="1.4" cx="227.52" cy="-1337.16" rx="10.08" ry="10.08"/>
</g>
<!-- validate -->
<g id="node2" class="node">
<title>validate</title>
<path fill="#ffffff" stroke="#bac7db" stroke-width="1.4" d="M328.2,-1276.08C328.2,-1276.08 126.84,-1276.08 126.84,-1276.08 120.84,-1276.08 114.84,-1270.08 114.84,-1264.08 114.84,-1264.08 114.84,-1241.52 114.84,-1241.52 114.84,-1235.52 120.84,-1229.52 126.84,-1229.52 126.84,-1229.52 328.2,-1229.52 328.2,-1229.52 334.2,-1229.52 340.2,-1235.52 340.2,-1241.52 340.2,-1241.52 340.2,-1264.08 340.2,-1264.08 340.2,-1270.08 334.2,-1276.08 328.2,-1276.08"/>
<text xml:space="preserve" text-anchor="middle" x="227.52" y="-1257" font-family="Noto Sans CJK KR" font-size="14.00" fill="#182033">Validate Target&#13;</text>
<text xml:space="preserve" text-anchor="middle" x="227.52" y="-1240.2" font-family="Noto Sans CJK KR" font-size="14.00" fill="#182033">can receive damage? alive? hittable?</text>
</g>
<!-- start&#45;&gt;validate -->
<g id="edge1" class="edge">
<title>start&#45;&gt;validate</title>
<path fill="none" stroke="#59687e" stroke-width="1.3" d="M227.52,-1326.39C227.52,-1316.49 227.52,-1300.62 227.52,-1286.24"/>
<polygon fill="#59687e" stroke="#59687e" stroke-width="1.3" points="230.32,-1286.59 227.52,-1278.59 224.72,-1286.59 230.32,-1286.59"/>
</g>
<!-- hit -->
<g id="node3" class="node">
<title>hit</title>
<path fill="#ffffff" stroke="#bac7db" stroke-width="1.4" d="M332.89,-1178.52C332.89,-1178.52 122.15,-1178.52 122.15,-1178.52 116.15,-1178.52 110.15,-1172.52 110.15,-1166.52 110.15,-1166.52 110.15,-1143.96 110.15,-1143.96 110.15,-1137.96 116.15,-1131.96 122.15,-1131.96 122.15,-1131.96 332.89,-1131.96 332.89,-1131.96 338.89,-1131.96 344.89,-1137.96 344.89,-1143.96 344.89,-1143.96 344.89,-1166.52 344.89,-1166.52 344.89,-1172.52 338.89,-1178.52 332.89,-1178.52"/>
<text xml:space="preserve" text-anchor="middle" x="227.52" y="-1159.44" font-family="Noto Sans CJK KR" font-size="14.00" fill="#182033">Resolve Hit&#13;</text>
<text xml:space="preserve" text-anchor="middle" x="227.52" y="-1142.64" font-family="Noto Sans CJK KR" font-size="14.00" fill="#182033">accuracy, evasion, block, invulnerable</text>
</g>
<!-- validate&#45;&gt;hit -->
<g id="edge2" class="edge">
<title>validate&#45;&gt;hit</title>
<path fill="none" stroke="#59687e" stroke-width="1.3" d="M227.52,-1229.15C227.52,-1217.1 227.52,-1202.07 227.52,-1188.79"/>
<polygon fill="#59687e" stroke="#59687e" stroke-width="1.3" points="230.32,-1189.02 227.52,-1181.02 224.72,-1189.02 230.32,-1189.02"/>
</g>
<!-- hitFail -->
<g id="node4" class="node">
<title>hitFail</title>
<path fill="#ffffff" stroke="#bac7db" stroke-width="1.4" d="M216.28,-1076.76C216.28,-1076.76 159.13,-1055.4 159.13,-1055.4 153.51,-1053.3 153.51,-1049.1 159.13,-1047 159.13,-1047 216.28,-1025.64 216.28,-1025.64 221.9,-1023.54 233.14,-1023.54 238.76,-1025.64 238.76,-1025.64 295.91,-1047 295.91,-1047 301.53,-1049.1 301.53,-1053.3 295.91,-1055.4 295.91,-1055.4 238.76,-1076.76 238.76,-1076.76 233.14,-1078.86 221.9,-1078.86 216.28,-1076.76"/>
<text xml:space="preserve" text-anchor="middle" x="227.52" y="-1047" font-family="Noto Sans CJK KR" font-size="14.00" fill="#182033">Hit failed?</text>
</g>
<!-- hit&#45;&gt;hitFail -->
<g id="edge3" class="edge">
<title>hit&#45;&gt;hitFail</title>
<path fill="none" stroke="#59687e" stroke-width="1.3" d="M227.52,-1131.34C227.52,-1119.52 227.52,-1104.77 227.52,-1091.22"/>
<polygon fill="#59687e" stroke="#59687e" stroke-width="1.3" points="230.32,-1091.59 227.52,-1083.59 224.72,-1091.59 230.32,-1091.59"/>
</g>
<!-- crit -->
<g id="node5" class="node">
<title>crit</title>
<path fill="#ffffff" stroke="#bac7db" stroke-width="1.4" d="M232.49,-954.64C232.49,-954.64 76.55,-954.64 76.55,-954.64 70.55,-954.64 64.55,-948.64 64.55,-942.64 64.55,-942.64 64.55,-920.08 64.55,-920.08 64.55,-914.08 70.55,-908.08 76.55,-908.08 76.55,-908.08 232.49,-908.08 232.49,-908.08 238.49,-908.08 244.49,-914.08 244.49,-920.08 244.49,-920.08 244.49,-942.64 244.49,-942.64 244.49,-948.64 238.49,-954.64 232.49,-954.64"/>
<text xml:space="preserve" text-anchor="middle" x="154.52" y="-935.56" font-family="Noto Sans CJK KR" font-size="14.00" fill="#182033">Resolve Critical&#13;</text>
<text xml:space="preserve" text-anchor="middle" x="154.52" y="-918.76" font-family="Noto Sans CJK KR" font-size="14.00" fill="#182033">chance, multiplier, crit resist</text>
</g>
<!-- hitFail&#45;&gt;crit -->
<g id="edge5" class="edge">
<title>hitFail&#45;&gt;crit</title>
<path fill="none" stroke="#59687e" stroke-width="1.3" d="M212.75,-1026.35C201.5,-1008.19 185.92,-983.04 173.7,-963.33"/>
<polygon fill="#59687e" stroke="#59687e" stroke-width="1.3" points="176.16,-961.97 169.56,-956.64 171.4,-964.92 176.16,-961.97"/>
<text xml:space="preserve" text-anchor="middle" x="200.21" y="-983.84" font-family="Noto Sans CJK KR" font-size="14.00" fill="#46566e">no</text>
</g>
<!-- miss -->
<g id="node13" class="node">
<title>miss</title>
<path fill="#ffffff" stroke="#bac7db" stroke-width="1.4" d="M398.65,-883.08C398.65,-883.08 210.39,-883.08 210.39,-883.08 204.39,-883.08 198.39,-877.08 198.39,-871.08 198.39,-871.08 198.39,-848.52 198.39,-848.52 198.39,-842.52 204.39,-836.52 210.39,-836.52 210.39,-836.52 398.65,-836.52 398.65,-836.52 404.65,-836.52 410.65,-842.52 410.65,-848.52 410.65,-848.52 410.65,-871.08 410.65,-871.08 410.65,-877.08 404.65,-883.08 398.65,-883.08"/>
<text xml:space="preserve" text-anchor="middle" x="304.52" y="-864" font-family="Noto Sans CJK KR" font-size="14.00" fill="#182033">Build Miss / Block DamageResult</text>
<text xml:space="preserve" text-anchor="middle" x="304.52" y="-847.2" font-family="Noto Sans CJK KR" font-size="14.00" fill="#182033">FinalHpDamage = 0</text>
</g>
<!-- hitFail&#45;&gt;miss -->
<g id="edge4" class="edge">
<title>hitFail&#45;&gt;miss</title>
<path fill="none" stroke="#59687e" stroke-width="1.3" d="M237.9,-1024.66C251.83,-990.4 276.55,-929.6 291.64,-892.47"/>
<polygon fill="#59687e" stroke="#59687e" stroke-width="1.3" points="294.1,-893.86 294.52,-885.4 288.91,-891.75 294.1,-893.86"/>
<text xml:space="preserve" text-anchor="middle" x="263.95" y="-983.84" font-family="Noto Sans CJK KR" font-size="14.00" fill="#46566e">yes</text>
</g>
<!-- base -->
<g id="node6" class="node">
<title>base</title>
<path fill="#ffffff" stroke="#bac7db" stroke-width="1.4" d="M234.13,-811.52C234.13,-811.52 62.91,-811.52 62.91,-811.52 56.91,-811.52 50.91,-805.52 50.91,-799.52 50.91,-799.52 50.91,-776.96 50.91,-776.96 50.91,-770.96 56.91,-764.96 62.91,-764.96 62.91,-764.96 234.13,-764.96 234.13,-764.96 240.13,-764.96 246.13,-770.96 246.13,-776.96 246.13,-776.96 246.13,-799.52 246.13,-799.52 246.13,-805.52 240.13,-811.52 234.13,-811.52"/>
<text xml:space="preserve" text-anchor="middle" x="148.52" y="-792.44" font-family="Noto Sans CJK KR" font-size="14.00" fill="#182033">Calculate Base Damage&#13;</text>
<text xml:space="preserve" text-anchor="middle" x="148.52" y="-775.64" font-family="Noto Sans CJK KR" font-size="14.00" fill="#182033">base + scalingStat × coefficient</text>
</g>
<!-- crit&#45;&gt;base -->
<g id="edge6" class="edge">
<title>crit&#45;&gt;base</title>
<path fill="none" stroke="#59687e" stroke-width="1.3" d="M153.56,-907.69C152.57,-884.44 151.02,-848.06 149.9,-821.75"/>
<polygon fill="#59687e" stroke="#59687e" stroke-width="1.3" points="152.7,-821.7 149.57,-813.82 147.11,-821.93 152.7,-821.7"/>
</g>
<!-- off -->
<g id="node7" class="node">
<title>off</title>
<path fill="#ffffff" stroke="#bac7db" stroke-width="1.4" d="M241.04,-713.96C241.04,-713.96 12,-713.96 12,-713.96 6,-713.96 0,-707.96 0,-701.96 0,-701.96 0,-679.4 0,-679.4 0,-673.4 6,-667.4 12,-667.4 12,-667.4 241.04,-667.4 241.04,-667.4 247.04,-667.4 253.04,-673.4 253.04,-679.4 253.04,-679.4 253.04,-701.96 253.04,-701.96 253.04,-707.96 247.04,-713.96 241.04,-713.96"/>
<text xml:space="preserve" text-anchor="middle" x="126.52" y="-694.88" font-family="Noto Sans CJK KR" font-size="14.00" fill="#182033">Apply Offensive Modifiers&#13;</text>
<text xml:space="preserve" text-anchor="middle" x="126.52" y="-678.08" font-family="Noto Sans CJK KR" font-size="14.00" fill="#182033">source tags, damage bonus, critical bonus</text>
</g>
<!-- base&#45;&gt;off -->
<g id="edge7" class="edge">
<title>base&#45;&gt;off</title>
<path fill="none" stroke="#59687e" stroke-width="1.3" d="M143.31,-764.59C140.5,-752.42 137,-737.21 133.92,-723.84"/>
<polygon fill="#59687e" stroke="#59687e" stroke-width="1.3" points="136.74,-723.58 132.21,-716.41 131.28,-724.84 136.74,-723.58"/>
</g>
<!-- def -->
<g id="node8" class="node">
<title>def</title>
<path fill="#ffffff" stroke="#bac7db" stroke-width="1.4" d="M215.56,-616.4C215.56,-616.4 37.48,-616.4 37.48,-616.4 31.48,-616.4 25.48,-610.4 25.48,-604.4 25.48,-604.4 25.48,-581.84 25.48,-581.84 25.48,-575.84 31.48,-569.84 37.48,-569.84 37.48,-569.84 215.56,-569.84 215.56,-569.84 221.56,-569.84 227.56,-575.84 227.56,-581.84 227.56,-581.84 227.56,-604.4 227.56,-604.4 227.56,-610.4 221.56,-616.4 215.56,-616.4"/>
<text xml:space="preserve" text-anchor="middle" x="126.52" y="-597.32" font-family="Noto Sans CJK KR" font-size="14.00" fill="#182033">Apply Defensive Modifiers&#13;</text>
<text xml:space="preserve" text-anchor="middle" x="126.52" y="-580.52" font-family="Noto Sans CJK KR" font-size="14.00" fill="#182033">armor, defense, guard, reduction</text>
</g>
<!-- off&#45;&gt;def -->
<g id="edge8" class="edge">
<title>off&#45;&gt;def</title>
<path fill="none" stroke="#59687e" stroke-width="1.3" d="M126.52,-667.03C126.52,-654.98 126.52,-639.95 126.52,-626.67"/>
<polygon fill="#59687e" stroke="#59687e" stroke-width="1.3" points="129.32,-626.9 126.52,-618.9 123.72,-626.9 129.32,-626.9"/>
</g>
<!-- resist -->
<g id="node9" class="node">
<title>resist</title>
<path fill="#ffffff" stroke="#bac7db" stroke-width="1.4" d="M215.58,-518.84C215.58,-518.84 39.46,-518.84 39.46,-518.84 33.46,-518.84 27.46,-512.84 27.46,-506.84 27.46,-506.84 27.46,-484.28 27.46,-484.28 27.46,-478.28 33.46,-472.28 39.46,-472.28 39.46,-472.28 215.58,-472.28 215.58,-472.28 221.58,-472.28 227.58,-478.28 227.58,-484.28 227.58,-484.28 227.58,-506.84 227.58,-506.84 227.58,-512.84 221.58,-518.84 215.58,-518.84"/>
<text xml:space="preserve" text-anchor="middle" x="127.52" y="-499.76" font-family="Noto Sans CJK KR" font-size="14.00" fill="#182033">Apply Resistance / Penetration&#13;</text>
<text xml:space="preserve" text-anchor="middle" x="127.52" y="-482.96" font-family="Noto Sans CJK KR" font-size="14.00" fill="#182033">resistance cap, pierce, weakness</text>
</g>
<!-- def&#45;&gt;resist -->
<g id="edge9" class="edge">
<title>def&#45;&gt;resist</title>
<path fill="none" stroke="#59687e" stroke-width="1.3" d="M126.76,-569.47C126.88,-557.42 127.04,-542.39 127.18,-529.11"/>
<polygon fill="#59687e" stroke="#59687e" stroke-width="1.3" points="129.98,-529.37 127.26,-521.34 124.38,-529.31 129.98,-529.37"/>
</g>
<!-- shield -->
<g id="node10" class="node">
<title>shield</title>
<path fill="#ffffff" stroke="#bac7db" stroke-width="1.4" d="M210.31,-421.28C210.31,-421.28 56.73,-421.28 56.73,-421.28 50.73,-421.28 44.73,-415.28 44.73,-409.28 44.73,-409.28 44.73,-386.72 44.73,-386.72 44.73,-380.72 50.73,-374.72 56.73,-374.72 56.73,-374.72 210.31,-374.72 210.31,-374.72 216.31,-374.72 222.31,-380.72 222.31,-386.72 222.31,-386.72 222.31,-409.28 222.31,-409.28 222.31,-415.28 216.31,-421.28 210.31,-421.28"/>
<text xml:space="preserve" text-anchor="middle" x="133.52" y="-402.2" font-family="Noto Sans CJK KR" font-size="14.00" fill="#182033">Apply Shield / Absorb&#13;</text>
<text xml:space="preserve" text-anchor="middle" x="133.52" y="-385.4" font-family="Noto Sans CJK KR" font-size="14.00" fill="#182033">barrier first, redirect, absorb</text>
</g>
<!-- resist&#45;&gt;shield -->
<g id="edge10" class="edge">
<title>resist&#45;&gt;shield</title>
<path fill="none" stroke="#59687e" stroke-width="1.3" d="M128.94,-471.91C129.7,-459.86 130.64,-444.83 131.48,-431.55"/>
<polygon fill="#59687e" stroke="#59687e" stroke-width="1.3" points="134.26,-431.94 131.96,-423.78 128.67,-431.59 134.26,-431.94"/>
</g>
<!-- round -->
<g id="node11" class="node">
<title>round</title>
<path fill="#ffffff" stroke="#bac7db" stroke-width="1.4" d="M241.89,-323.72C241.89,-323.72 43.15,-323.72 43.15,-323.72 37.15,-323.72 31.15,-317.72 31.15,-311.72 31.15,-311.72 31.15,-289.16 31.15,-289.16 31.15,-283.16 37.15,-277.16 43.15,-277.16 43.15,-277.16 241.89,-277.16 241.89,-277.16 247.89,-277.16 253.89,-283.16 253.89,-289.16 253.89,-289.16 253.89,-311.72 253.89,-311.72 253.89,-317.72 247.89,-323.72 241.89,-323.72"/>
<text xml:space="preserve" text-anchor="middle" x="142.52" y="-304.64" font-family="Noto Sans CJK KR" font-size="14.00" fill="#182033">Clamp / Round&#13;</text>
<text xml:space="preserve" text-anchor="middle" x="142.52" y="-287.84" font-family="Noto Sans CJK KR" font-size="14.00" fill="#182033">minimum, maximum, integer policy</text>
</g>
<!-- shield&#45;&gt;round -->
<g id="edge11" class="edge">
<title>shield&#45;&gt;round</title>
<path fill="none" stroke="#59687e" stroke-width="1.3" d="M135.65,-374.35C136.79,-362.3 138.2,-347.27 139.45,-333.99"/>
<polygon fill="#59687e" stroke="#59687e" stroke-width="1.3" points="142.22,-334.44 140.19,-326.21 136.65,-333.92 142.22,-334.44"/>
</g>
<!-- result -->
<g id="node12" class="node">
<title>result</title>
<path fill="#ffffff" stroke="#bac7db" stroke-width="1.4" d="M234.94,-226.16C234.94,-226.16 96.1,-226.16 96.1,-226.16 90.1,-226.16 84.1,-220.16 84.1,-214.16 84.1,-214.16 84.1,-191.6 84.1,-191.6 84.1,-185.6 90.1,-179.6 96.1,-179.6 96.1,-179.6 234.94,-179.6 234.94,-179.6 240.94,-179.6 246.94,-185.6 246.94,-191.6 246.94,-191.6 246.94,-214.16 246.94,-214.16 246.94,-220.16 240.94,-226.16 234.94,-226.16"/>
<text xml:space="preserve" text-anchor="middle" x="165.52" y="-207.08" font-family="Noto Sans CJK KR" font-size="14.00" fill="#182033">Build DamageResult</text>
<text xml:space="preserve" text-anchor="middle" x="165.52" y="-190.28" font-family="Noto Sans CJK KR" font-size="14.00" fill="#182033">six canonical result fields</text>
</g>
<!-- round&#45;&gt;result -->
<g id="edge12" class="edge">
<title>round&#45;&gt;result</title>
<path fill="none" stroke="#59687e" stroke-width="1.3" d="M147.97,-276.79C150.9,-264.62 154.56,-249.41 157.78,-236.04"/>
<polygon fill="#59687e" stroke="#59687e" stroke-width="1.3" points="160.42,-237.04 159.57,-228.61 154.97,-235.73 160.42,-237.04"/>
</g>
<!-- trace -->
<g id="node14" class="node">
<title>trace</title>
<path fill="#ffffff" stroke="#bac7db" stroke-width="1.4" d="M330.63,-128.6C330.63,-128.6 142.41,-128.6 142.41,-128.6 136.41,-128.6 130.41,-122.6 130.41,-116.6 130.41,-116.6 130.41,-94.04 130.41,-94.04 130.41,-88.04 136.41,-82.04 142.41,-82.04 142.41,-82.04 330.63,-82.04 330.63,-82.04 336.63,-82.04 342.63,-88.04 342.63,-94.04 342.63,-94.04 342.63,-116.6 342.63,-116.6 342.63,-122.6 336.63,-128.6 330.63,-128.6"/>
<text xml:space="preserve" text-anchor="middle" x="236.52" y="-109.52" font-family="Noto Sans CJK KR" font-size="14.00" fill="#182033">Build CombatLog / DebugTrace</text>
<text xml:space="preserve" text-anchor="middle" x="236.52" y="-92.72" font-family="Noto Sans CJK KR" font-size="14.00" fill="#182033">formula steps · stat reads · events</text>
</g>
<!-- result&#45;&gt;trace -->
<g id="edge13" class="edge">
<title>result&#45;&gt;trace</title>
<path fill="none" stroke="#59687e" stroke-width="1.3" d="M182.35,-179.23C191.74,-166.59 203.57,-150.67 213.78,-136.93"/>
<polygon fill="#59687e" stroke="#59687e" stroke-width="1.3" points="215.87,-138.81 218.4,-130.71 211.38,-135.47 215.87,-138.81"/>
</g>
<!-- miss&#45;&gt;trace -->
<g id="edge15" class="edge">
<title>miss&#45;&gt;trace</title>
<path fill="none" stroke="#59687e" stroke-width="1.3" d="M305.29,-835.89C306.45,-801.35 308.52,-739.96 308.52,-739.96 308.52,-739.96 308.52,-739.96 308.52,-201.88 308.52,-201.88 280.41,-164.57 259.32,-136.58"/>
<polygon fill="#59687e" stroke="#59687e" stroke-width="1.3" points="261.82,-135.24 254.77,-130.54 257.34,-138.61 261.82,-135.24"/>
</g>
<!-- end -->
<g id="node15" class="node">
<title>end</title>
<ellipse fill="#ffffff" stroke="#182033" stroke-width="1.4" cx="236.52" cy="-15.52" rx="11.52" ry="11.52"/>
<ellipse fill="none" stroke="#182033" stroke-width="1.4" cx="236.52" cy="-15.52" rx="15.52" ry="15.52"/>
</g>
<!-- trace&#45;&gt;end -->
<g id="edge14" class="edge">
<title>trace&#45;&gt;end</title>
<path fill="none" stroke="#59687e" stroke-width="1.3" d="M236.52,-81.71C236.52,-69.4 236.52,-54.15 236.52,-41.5"/>
<polygon fill="#59687e" stroke="#59687e" stroke-width="1.3" points="239.32,-41.57 236.52,-33.57 233.72,-41.57 239.32,-41.57"/>
</g>
</g>
</svg>
