<?xml version="1.0" encoding="UTF-8" standalone="no"?>
<!DOCTYPE svg PUBLIC "-//W3C//DTD SVG 1.1//EN"
 "http://www.w3.org/Graphics/SVG/1.1/DTD/svg11.dtd">
<!-- Generated by graphviz version 15.1.0 (20260618.0150)
 -->
<!-- Title: G Pages: 1 -->
<svg width="728pt" height="2966pt"
 viewBox="12.00 12.00 716.00 2955.00" xmlns="http://www.w3.org/2000/svg" xmlns:xlink="http://www.w3.org/1999/xlink">
<g id="graph0" class="graph" transform="scale(1.33333 1.33333) rotate(0) translate(26.64 2197.97)">
<title>G</title>
<polygon fill="#ffffff" stroke="none" points="-18,18 -18,-2189.33 510.55,-2189.33 510.55,18 -18,18"/>
<!-- start -->
<g id="node1" class="node">
<title>start</title>
<ellipse fill="#182033" stroke="#182033" stroke-width="1.4" cx="263.4" cy="-2119.57" rx="10.08" ry="10.08"/>
</g>
<!-- validate -->
<g id="node2" class="node">
<title>validate</title>
<path fill="#ffffff" stroke="#bac7db" stroke-width="1.4" d="M330.67,-2014.8C330.67,-2014.8 196.12,-2014.8 196.12,-2014.8 190.12,-2014.8 184.12,-2008.8 184.12,-2002.8 184.12,-2002.8 184.12,-1957.77 184.12,-1957.77 184.12,-1951.77 190.12,-1945.77 196.12,-1945.77 196.12,-1945.77 330.67,-1945.77 330.67,-1945.77 336.67,-1945.77 342.67,-1951.77 342.67,-1957.77 342.67,-1957.77 342.67,-2002.8 342.67,-2002.8 342.67,-2008.8 336.67,-2014.8 330.67,-2014.8"/>
<text xml:space="preserve" text-anchor="middle" x="263.4" y="-1992.86" font-family="Noto Sans KR" font-size="14.00" fill="#182033">Validate Target</text>
<text xml:space="preserve" text-anchor="middle" x="263.4" y="-1975.61" font-family="Noto Sans KR" font-size="14.00" fill="#182033">can receive damage?</text>
<text xml:space="preserve" text-anchor="middle" x="263.4" y="-1958.36" font-family="Noto Sans KR" font-size="14.00" fill="#182033">alive? hittable?</text>
</g>
<!-- start&#45;&gt;validate -->
<g id="edge1" class="edge">
<title>start&#45;&gt;validate</title>
<path fill="none" stroke="#59687e" stroke-width="1.3" d="M263.4,-2109.13C263.4,-2092.04 263.4,-2054.97 263.4,-2025.13"/>
<polygon fill="#59687e" stroke="#59687e" stroke-width="1.3" points="266.2,-2025.29 263.4,-2017.29 260.6,-2025.29 266.2,-2025.29"/>
</g>
<!-- hit -->
<g id="node3" class="node">
<title>hit</title>
<path fill="#ffffff" stroke="#bac7db" stroke-width="1.4" d="M329.17,-1892.77C329.17,-1892.77 197.62,-1892.77 197.62,-1892.77 191.62,-1892.77 185.62,-1886.77 185.62,-1880.77 185.62,-1880.77 185.62,-1835.74 185.62,-1835.74 185.62,-1829.74 191.62,-1823.74 197.62,-1823.74 197.62,-1823.74 329.17,-1823.74 329.17,-1823.74 335.17,-1823.74 341.17,-1829.74 341.17,-1835.74 341.17,-1835.74 341.17,-1880.77 341.17,-1880.77 341.17,-1886.77 335.17,-1892.77 329.17,-1892.77"/>
<text xml:space="preserve" text-anchor="middle" x="263.4" y="-1870.83" font-family="Noto Sans KR" font-size="14.00" fill="#182033">Resolve HitOutcome</text>
<text xml:space="preserve" text-anchor="middle" x="263.4" y="-1853.58" font-family="Noto Sans KR" font-size="14.00" fill="#182033">Hit · Miss · Blocked</text>
<text xml:space="preserve" text-anchor="middle" x="263.4" y="-1836.33" font-family="Noto Sans KR" font-size="14.00" fill="#182033">Immune · Rejected</text>
</g>
<!-- validate&#45;&gt;hit -->
<g id="edge2" class="edge">
<title>validate&#45;&gt;hit</title>
<path fill="none" stroke="#59687e" stroke-width="1.3" d="M263.4,-1945.21C263.4,-1932.16 263.4,-1917.08 263.4,-1903.23"/>
<polygon fill="#59687e" stroke="#59687e" stroke-width="1.3" points="266.2,-1903.38 263.4,-1895.38 260.6,-1903.38 266.2,-1903.38"/>
</g>
<!-- damaging -->
<g id="node4" class="node">
<title>damaging</title>
<path fill="#ffffff" stroke="#bac7db" stroke-width="1.4" d="M253.36,-1764.17C253.36,-1764.17 220.64,-1742.78 220.64,-1742.78 215.62,-1739.49 215.62,-1732.93 220.64,-1729.64 220.64,-1729.64 253.36,-1708.25 253.36,-1708.25 258.38,-1704.96 268.42,-1704.96 273.44,-1708.25 273.44,-1708.25 306.16,-1729.64 306.16,-1729.64 311.18,-1732.93 311.18,-1739.49 306.16,-1742.78 306.16,-1742.78 273.44,-1764.17 273.44,-1764.17 268.42,-1767.46 258.38,-1767.46 253.36,-1764.17"/>
<text xml:space="preserve" text-anchor="middle" x="263.4" y="-1731.54" font-family="Noto Sans KR" font-size="14.00" fill="#182033">Hit?</text>
</g>
<!-- hit&#45;&gt;damaging -->
<g id="edge3" class="edge">
<title>hit&#45;&gt;damaging</title>
<path fill="none" stroke="#59687e" stroke-width="1.3" d="M263.4,-1823.18C263.4,-1810.12 263.4,-1795.04 263.4,-1781.2"/>
<polygon fill="#59687e" stroke="#59687e" stroke-width="1.3" points="266.2,-1781.34 263.4,-1773.34 260.6,-1781.34 266.2,-1781.34"/>
</g>
<!-- blockedVariant -->
<g id="node5" class="node">
<title>blockedVariant</title>
<polygon fill="#fff7e6" stroke="#e0ad4e" stroke-width="1.4" points="486.55,-2171.33 318.25,-2171.33 318.25,-2067.8 492.55,-2067.8 492.55,-2165.33 486.55,-2171.33"/>
<polyline fill="none" stroke="#e0ad4e" stroke-width="1.4" points="486.55,-2171.33 486.55,-2165.33"/>
<polyline fill="none" stroke="#e0ad4e" stroke-width="1.4" points="492.55,-2165.33 486.55,-2165.33"/>
<text xml:space="preserve" text-anchor="middle" x="405.4" y="-2149.39" font-family="Noto Sans KR" font-size="14.00" fill="#182033">Policy extension</text>
<text xml:space="preserve" text-anchor="middle" x="405.4" y="-2132.14" font-family="Noto Sans KR" font-size="14.00" fill="#182033">Optional project variant</text>
<text xml:space="preserve" text-anchor="middle" x="405.4" y="-2114.89" font-family="Noto Sans KR" font-size="14.00" fill="#182033">Hit or Blocked?</text>
<text xml:space="preserve" text-anchor="middle" x="405.4" y="-2097.64" font-family="Noto Sans KR" font-size="14.00" fill="#182033">BlockPolicy may keep</text>
<text xml:space="preserve" text-anchor="middle" x="405.4" y="-2080.39" font-family="Noto Sans KR" font-size="14.00" fill="#182033">Blocked damaging</text>
</g>
<!-- damaging&#45;&gt;blockedVariant -->
<g id="edge4" class="edge">
<title>damaging&#45;&gt;blockedVariant</title>
<path fill="none" stroke="#59687e" stroke-width="1.3" stroke-dasharray="5,2" d="M285.59,-1756.41C315.05,-1781.91 363.4,-1823.74 363.4,-1823.74 363.4,-1823.74 386.05,-1982.74 398.08,-2067.21"/>
</g>
<!-- base -->
<g id="node6" class="node">
<title>base</title>
<path fill="#ffffff" stroke="#bac7db" stroke-width="1.4" d="M273.3,-1632.43C273.3,-1632.43 73.5,-1632.43 73.5,-1632.43 67.5,-1632.43 61.5,-1626.43 61.5,-1620.43 61.5,-1620.43 61.5,-1592.65 61.5,-1592.65 61.5,-1586.65 67.5,-1580.65 73.5,-1580.65 73.5,-1580.65 273.3,-1580.65 273.3,-1580.65 279.3,-1580.65 285.3,-1586.65 285.3,-1592.65 285.3,-1592.65 285.3,-1620.43 285.3,-1620.43 285.3,-1626.43 279.3,-1632.43 273.3,-1632.43"/>
<text xml:space="preserve" text-anchor="middle" x="173.4" y="-1610.49" font-family="Noto Sans KR" font-size="14.00" fill="#182033">Calculate Base Damage</text>
<text xml:space="preserve" text-anchor="middle" x="173.4" y="-1593.24" font-family="Noto Sans KR" font-size="14.00" fill="#182033">base + scalingStat × coefficient</text>
</g>
<!-- damaging&#45;&gt;base -->
<g id="edge6" class="edge">
<title>damaging:sw&#45;&gt;base:n</title>
<path fill="none" stroke="#59687e" stroke-width="1.3" d="M242.38,-1714.19C242.38,-1714.19 196.84,-1660.21 179.77,-1639.97"/>
<polygon fill="#59687e" stroke="#59687e" stroke-width="1.3" points="181.97,-1638.24 174.67,-1633.93 177.69,-1641.85 181.97,-1638.24"/>
<text xml:space="preserve" text-anchor="middle" x="218.01" y="-1662.38" font-family="Noto Sans KR" font-size="14.00" fill="#46566e">yes</text>
</g>
<!-- nonHit -->
<g id="node16" class="node">
<title>nonHit</title>
<path fill="#ffffff" stroke="#bac7db" stroke-width="1.4" d="M480.17,-1554.65C480.17,-1554.65 228.62,-1554.65 228.62,-1554.65 222.62,-1554.65 216.62,-1548.65 216.62,-1542.65 216.62,-1542.65 216.62,-1463.12 216.62,-1463.12 216.62,-1457.12 222.62,-1451.12 228.62,-1451.12 228.62,-1451.12 480.17,-1451.12 480.17,-1451.12 486.17,-1451.12 492.17,-1457.12 492.17,-1463.12 492.17,-1463.12 492.17,-1542.65 492.17,-1542.65 492.17,-1548.65 486.17,-1554.65 480.17,-1554.65"/>
<text xml:space="preserve" text-anchor="middle" x="354.4" y="-1532.71" font-family="Noto Sans KR" font-size="14.00" fill="#182033">Other branch</text>
<text xml:space="preserve" text-anchor="middle" x="354.4" y="-1515.46" font-family="Noto Sans KR" font-size="14.00" fill="#182033">Build non&#45;damaging DamageResult</text>
<text xml:space="preserve" text-anchor="middle" x="354.4" y="-1498.21" font-family="Noto Sans KR" font-size="14.00" fill="#182033">Miss · Immune · Rejected</text>
<text xml:space="preserve" text-anchor="middle" x="354.4" y="-1480.96" font-family="Noto Sans KR" font-size="14.00" fill="#182033">Blocked also returns zero in compact C#</text>
<text xml:space="preserve" text-anchor="middle" x="354.4" y="-1463.71" font-family="Noto Sans KR" font-size="14.00" fill="#182033">all damage fields = 0</text>
</g>
<!-- damaging&#45;&gt;nonHit -->
<g id="edge5" class="edge">
<title>damaging:se&#45;&gt;nonHit:n</title>
<path fill="none" stroke="#59687e" stroke-width="1.3" d="M284.42,-1714.19C284.42,-1714.19 335.63,-1597.43 350.44,-1563.68"/>
<polygon fill="#59687e" stroke="#59687e" stroke-width="1.3" points="352.96,-1564.9 353.61,-1556.45 347.83,-1562.65 352.96,-1564.9"/>
<text xml:space="preserve" text-anchor="middle" x="315.87" y="-1662.38" font-family="Noto Sans KR" font-size="14.00" fill="#46566e">no</text>
</g>
<!-- off -->
<g id="node7" class="node">
<title>off</title>
<path fill="#ffffff" stroke="#bac7db" stroke-width="1.4" d="M260.17,-1425.12C260.17,-1425.12 86.62,-1425.12 86.62,-1425.12 80.62,-1425.12 74.62,-1419.12 74.62,-1413.12 74.62,-1413.12 74.62,-1368.09 74.62,-1368.09 74.62,-1362.09 80.62,-1356.09 86.62,-1356.09 86.62,-1356.09 260.17,-1356.09 260.17,-1356.09 266.17,-1356.09 272.17,-1362.09 272.17,-1368.09 272.17,-1368.09 272.17,-1413.12 272.17,-1413.12 272.17,-1419.12 266.17,-1425.12 260.17,-1425.12"/>
<text xml:space="preserve" text-anchor="middle" x="173.4" y="-1403.18" font-family="Noto Sans KR" font-size="14.00" fill="#182033">Apply Offensive Modifiers</text>
<text xml:space="preserve" text-anchor="middle" x="173.4" y="-1385.93" font-family="Noto Sans KR" font-size="14.00" fill="#182033">source tags, damage bonus</text>
<text xml:space="preserve" text-anchor="middle" x="173.4" y="-1368.68" font-family="Noto Sans KR" font-size="14.00" fill="#182033">formula subtotal</text>
</g>
<!-- base&#45;&gt;off -->
<g id="edge7" class="edge">
<title>base&#45;&gt;off</title>
<path fill="none" stroke="#59687e" stroke-width="1.3" d="M173.4,-1580.16C173.4,-1544.53 173.4,-1479.16 173.4,-1435.54"/>
<polygon fill="#59687e" stroke="#59687e" stroke-width="1.3" points="176.2,-1435.73 173.4,-1427.73 170.6,-1435.73 176.2,-1435.73"/>
</g>
<!-- crit -->
<g id="node8" class="node">
<title>crit</title>
<path fill="#ffffff" stroke="#bac7db" stroke-width="1.4" d="M272.17,-1303.09C272.17,-1303.09 74.62,-1303.09 74.62,-1303.09 68.62,-1303.09 62.62,-1297.09 62.62,-1291.09 62.62,-1291.09 62.62,-1246.06 62.62,-1246.06 62.62,-1240.06 68.62,-1234.06 74.62,-1234.06 74.62,-1234.06 272.17,-1234.06 272.17,-1234.06 278.17,-1234.06 284.17,-1240.06 284.17,-1246.06 284.17,-1246.06 284.17,-1291.09 284.17,-1291.09 284.17,-1297.09 278.17,-1303.09 272.17,-1303.09"/>
<text xml:space="preserve" text-anchor="middle" x="173.4" y="-1281.15" font-family="Noto Sans KR" font-size="14.00" fill="#182033">Resolve Critical → RawDamage</text>
<text xml:space="preserve" text-anchor="middle" x="173.4" y="-1263.9" font-family="Noto Sans KR" font-size="14.00" fill="#182033">chance · multiplier · crit resist</text>
<text xml:space="preserve" text-anchor="middle" x="173.4" y="-1246.65" font-family="Noto Sans KR" font-size="14.00" fill="#182033">post&#45;critical · pre&#45;mitigation</text>
</g>
<!-- off&#45;&gt;crit -->
<g id="edge8" class="edge">
<title>off&#45;&gt;crit</title>
<path fill="none" stroke="#59687e" stroke-width="1.3" d="M173.4,-1355.53C173.4,-1342.48 173.4,-1327.4 173.4,-1313.55"/>
<polygon fill="#59687e" stroke="#59687e" stroke-width="1.3" points="176.2,-1313.7 173.4,-1305.7 170.6,-1313.7 176.2,-1313.7"/>
</g>
<!-- def -->
<g id="node9" class="node">
<title>def</title>
<path fill="#ffffff" stroke="#bac7db" stroke-width="1.4" d="M252.55,-1181.06C252.55,-1181.06 90.25,-1181.06 90.25,-1181.06 84.25,-1181.06 78.25,-1175.06 78.25,-1169.06 78.25,-1169.06 78.25,-1124.03 78.25,-1124.03 78.25,-1118.03 84.25,-1112.03 90.25,-1112.03 90.25,-1112.03 252.55,-1112.03 252.55,-1112.03 258.55,-1112.03 264.55,-1118.03 264.55,-1124.03 264.55,-1124.03 264.55,-1169.06 264.55,-1169.06 264.55,-1175.06 258.55,-1181.06 252.55,-1181.06"/>
<text xml:space="preserve" text-anchor="middle" x="171.4" y="-1159.12" font-family="Noto Sans KR" font-size="14.00" fill="#182033">Apply Defensive Modifiers</text>
<text xml:space="preserve" text-anchor="middle" x="171.4" y="-1141.87" font-family="Noto Sans KR" font-size="14.00" fill="#182033">armor · defense</text>
<text xml:space="preserve" text-anchor="middle" x="171.4" y="-1124.62" font-family="Noto Sans KR" font-size="14.00" fill="#182033">guard · reduction</text>
</g>
<!-- crit&#45;&gt;def -->
<g id="edge9" class="edge">
<title>crit&#45;&gt;def</title>
<path fill="none" stroke="#59687e" stroke-width="1.3" d="M172.83,-1233.5C172.61,-1220.45 172.36,-1205.37 172.13,-1191.52"/>
<polygon fill="#59687e" stroke="#59687e" stroke-width="1.3" points="174.93,-1191.62 172,-1183.67 169.34,-1191.72 174.93,-1191.62"/>
</g>
<!-- resist -->
<g id="node10" class="node">
<title>resist</title>
<path fill="#ffffff" stroke="#bac7db" stroke-width="1.4" d="M259.92,-1059.03C259.92,-1059.03 66.87,-1059.03 66.87,-1059.03 60.87,-1059.03 54.87,-1053.03 54.87,-1047.03 54.87,-1047.03 54.87,-1002 54.87,-1002 54.87,-996 60.87,-990 66.87,-990 66.87,-990 259.92,-990 259.92,-990 265.92,-990 271.92,-996 271.92,-1002 271.92,-1002 271.92,-1047.03 271.92,-1047.03 271.92,-1053.03 265.92,-1059.03 259.92,-1059.03"/>
<text xml:space="preserve" text-anchor="middle" x="163.4" y="-1037.09" font-family="Noto Sans KR" font-size="14.00" fill="#182033">Apply Resistance / Penetration</text>
<text xml:space="preserve" text-anchor="middle" x="163.4" y="-1019.84" font-family="Noto Sans KR" font-size="14.00" fill="#182033">resistance cap · pierce</text>
<text xml:space="preserve" text-anchor="middle" x="163.4" y="-1002.59" font-family="Noto Sans KR" font-size="14.00" fill="#182033">weakness</text>
</g>
<!-- def&#45;&gt;resist -->
<g id="edge10" class="edge">
<title>def&#45;&gt;resist</title>
<path fill="none" stroke="#59687e" stroke-width="1.3" d="M169.13,-1111.47C168.26,-1098.42 167.25,-1083.34 166.33,-1069.49"/>
<polygon fill="#59687e" stroke="#59687e" stroke-width="1.3" points="169.13,-1069.43 165.81,-1061.64 163.55,-1069.81 169.13,-1069.43"/>
</g>
<!-- shield -->
<g id="node12" class="node">
<title>shield</title>
<path fill="#ffffff" stroke="#bac7db" stroke-width="1.4" d="M272.8,-937C272.8,-937 28,-937 28,-937 22,-937 16,-931 16,-925 16,-925 16,-845.47 16,-845.47 16,-839.47 22,-833.47 28,-833.47 28,-833.47 272.8,-833.47 272.8,-833.47 278.8,-833.47 284.8,-839.47 284.8,-845.47 284.8,-845.47 284.8,-925 284.8,-925 284.8,-931 278.8,-937 272.8,-937"/>
<text xml:space="preserve" text-anchor="middle" x="150.4" y="-915.06" font-family="Noto Sans KR" font-size="14.00" fill="#182033">Calculate ShieldAbsorbed</text>
<text xml:space="preserve" text-anchor="middle" x="150.4" y="-897.81" font-family="Noto Sans KR" font-size="14.00" fill="#182033">min(AvailableShield,</text>
<text xml:space="preserve" text-anchor="middle" x="150.4" y="-880.56" font-family="Noto Sans KR" font-size="14.00" fill="#182033">ResolvedDamage)</text>
<text xml:space="preserve" text-anchor="middle" x="150.4" y="-863.31" font-family="Noto Sans KR" font-size="14.00" fill="#182033">PostShieldDamage = ResolvedDamage</text>
<text xml:space="preserve" text-anchor="middle" x="150.4" y="-846.06" font-family="Noto Sans KR" font-size="14.00" fill="#182033">&#45; ShieldAbsorbed</text>
</g>
<!-- resist&#45;&gt;shield -->
<g id="edge11" class="edge">
<title>resist&#45;&gt;shield</title>
<path fill="none" stroke="#59687e" stroke-width="1.3" d="M160.19,-989.58C158.98,-976.87 157.58,-962.01 156.21,-947.58"/>
<polygon fill="#59687e" stroke="#59687e" stroke-width="1.3" points="159,-947.35 155.46,-939.65 153.43,-947.88 159,-947.35"/>
</g>
<!-- round -->
<g id="node11" class="node">
<title>round</title>
<path fill="#ffffff" stroke="#bac7db" stroke-width="1.4" d="M262.17,-536.41C262.17,-536.41 40.62,-536.41 40.62,-536.41 34.62,-536.41 28.62,-530.41 28.62,-524.41 28.62,-524.41 28.62,-479.38 28.62,-479.38 28.62,-473.38 34.62,-467.38 40.62,-467.38 40.62,-467.38 262.17,-467.38 262.17,-467.38 268.17,-467.38 274.17,-473.38 274.17,-479.38 274.17,-479.38 274.17,-524.41 274.17,-524.41 274.17,-530.41 268.17,-536.41 262.17,-536.41"/>
<text xml:space="preserve" text-anchor="middle" x="151.4" y="-514.47" font-family="Noto Sans KR" font-size="14.00" fill="#182033">Validate Clamp / Round Policy</text>
<text xml:space="preserve" text-anchor="middle" x="151.4" y="-497.22" font-family="Noto Sans KR" font-size="14.00" fill="#182033">stage&#45;boundary rounding recorded</text>
<text xml:space="preserve" text-anchor="middle" x="151.4" y="-479.97" font-family="Noto Sans KR" font-size="14.00" fill="#182033">HP / overkill clamps verified</text>
</g>
<!-- result -->
<g id="node15" class="node">
<title>result</title>
<path fill="#ffffff" stroke="#bac7db" stroke-width="1.4" d="M274.05,-414.38C274.05,-414.38 48.75,-414.38 48.75,-414.38 42.75,-414.38 36.75,-408.38 36.75,-402.38 36.75,-402.38 36.75,-305.6 36.75,-305.6 36.75,-299.6 42.75,-293.6 48.75,-293.6 48.75,-293.6 274.05,-293.6 274.05,-293.6 280.05,-293.6 286.05,-299.6 286.05,-305.6 286.05,-305.6 286.05,-402.38 286.05,-402.38 286.05,-408.38 280.05,-414.38 274.05,-414.38"/>
<text xml:space="preserve" text-anchor="middle" x="161.4" y="-392.44" font-family="Noto Sans KR" font-size="14.00" fill="#182033">Build DamageResult</text>
<text xml:space="preserve" text-anchor="middle" x="161.4" y="-375.19" font-family="Noto Sans KR" font-size="14.00" fill="#182033">Outcome · Critical · RawDamage</text>
<text xml:space="preserve" text-anchor="middle" x="161.4" y="-357.94" font-family="Noto Sans KR" font-size="14.00" fill="#182033">ResolvedDamage · ShieldAbsorbed</text>
<text xml:space="preserve" text-anchor="middle" x="161.4" y="-340.69" font-family="Noto Sans KR" font-size="14.00" fill="#182033">FinalHpDamage · Overkill</text>
<text xml:space="preserve" text-anchor="middle" x="161.4" y="-323.44" font-family="Noto Sans KR" font-size="14.00" fill="#182033">ResolvedDamage = ShieldAbsorbed</text>
<text xml:space="preserve" text-anchor="middle" x="161.4" y="-306.19" font-family="Noto Sans KR" font-size="14.00" fill="#182033">+ FinalHpDamage + Overkill</text>
</g>
<!-- round&#45;&gt;result -->
<g id="edge15" class="edge">
<title>round&#45;&gt;result</title>
<path fill="none" stroke="#59687e" stroke-width="1.3" d="M153.74,-466.69C154.61,-454.04 155.63,-439.21 156.63,-424.56"/>
<polygon fill="#59687e" stroke="#59687e" stroke-width="1.3" points="159.4,-425.12 157.15,-416.95 153.81,-424.74 159.4,-425.12"/>
</g>
<!-- hpCap -->
<g id="node13" class="node">
<title>hpCap</title>
<path fill="#ffffff" stroke="#bac7db" stroke-width="1.4" d="M274.8,-780.47C274.8,-780.47 12,-780.47 12,-780.47 6,-780.47 0,-774.47 0,-768.47 0,-768.47 0,-723.44 0,-723.44 0,-717.44 6,-711.44 12,-711.44 12,-711.44 274.8,-711.44 274.8,-711.44 280.8,-711.44 286.8,-717.44 286.8,-723.44 286.8,-723.44 286.8,-768.47 286.8,-768.47 286.8,-774.47 280.8,-780.47 274.8,-780.47"/>
<text xml:space="preserve" text-anchor="middle" x="143.4" y="-758.53" font-family="Noto Sans KR" font-size="14.00" fill="#182033">Cap FinalHpDamage by available HP</text>
<text xml:space="preserve" text-anchor="middle" x="143.4" y="-741.28" font-family="Noto Sans KR" font-size="14.00" fill="#182033">FinalHpDamage = min(AvailableTargetHp,</text>
<text xml:space="preserve" text-anchor="middle" x="143.4" y="-724.03" font-family="Noto Sans KR" font-size="14.00" fill="#182033">PostShieldDamage)</text>
</g>
<!-- shield&#45;&gt;hpCap -->
<g id="edge12" class="edge">
<title>shield&#45;&gt;hpCap</title>
<path fill="none" stroke="#59687e" stroke-width="1.3" d="M147.79,-833.12C147.09,-819.27 146.33,-804.4 145.64,-790.97"/>
<polygon fill="#59687e" stroke="#59687e" stroke-width="1.3" points="148.44,-790.84 145.24,-783 142.85,-791.13 148.44,-790.84"/>
</g>
<!-- overkill -->
<g id="node14" class="node">
<title>overkill</title>
<path fill="#ffffff" stroke="#bac7db" stroke-width="1.4" d="M237.05,-658.44C237.05,-658.44 53.75,-658.44 53.75,-658.44 47.75,-658.44 41.75,-652.44 41.75,-646.44 41.75,-646.44 41.75,-601.41 41.75,-601.41 41.75,-595.41 47.75,-589.41 53.75,-589.41 53.75,-589.41 237.05,-589.41 237.05,-589.41 243.05,-589.41 249.05,-595.41 249.05,-601.41 249.05,-601.41 249.05,-646.44 249.05,-646.44 249.05,-652.44 243.05,-658.44 237.05,-658.44"/>
<text xml:space="preserve" text-anchor="middle" x="145.4" y="-636.5" font-family="Noto Sans KR" font-size="14.00" fill="#182033">Assign remainder to Overkill</text>
<text xml:space="preserve" text-anchor="middle" x="145.4" y="-619.25" font-family="Noto Sans KR" font-size="14.00" fill="#182033">Overkill = PostShieldDamage</text>
<text xml:space="preserve" text-anchor="middle" x="145.4" y="-602" font-family="Noto Sans KR" font-size="14.00" fill="#182033">&#45; FinalHpDamage</text>
</g>
<!-- hpCap&#45;&gt;overkill -->
<g id="edge13" class="edge">
<title>hpCap&#45;&gt;overkill</title>
<path fill="none" stroke="#59687e" stroke-width="1.3" d="M143.97,-710.88C144.19,-697.83 144.44,-682.75 144.67,-668.9"/>
<polygon fill="#59687e" stroke="#59687e" stroke-width="1.3" points="147.46,-669.1 144.8,-661.05 141.87,-669 147.46,-669.1"/>
</g>
<!-- overkill&#45;&gt;round -->
<g id="edge14" class="edge">
<title>overkill&#45;&gt;round</title>
<path fill="none" stroke="#59687e" stroke-width="1.3" d="M147.1,-588.85C147.76,-575.8 148.51,-560.72 149.2,-546.87"/>
<polygon fill="#59687e" stroke="#59687e" stroke-width="1.3" points="151.99,-547.15 149.59,-539.02 146.4,-546.87 151.99,-547.15"/>
</g>
<!-- trace -->
<g id="node17" class="node">
<title>trace</title>
<path fill="#ffffff" stroke="#bac7db" stroke-width="1.4" d="M389.17,-240.6C389.17,-240.6 125.62,-240.6 125.62,-240.6 119.62,-240.6 113.62,-234.6 113.62,-228.6 113.62,-228.6 113.62,-200.82 113.62,-200.82 113.62,-194.82 119.62,-188.82 125.62,-188.82 125.62,-188.82 389.17,-188.82 389.17,-188.82 395.17,-188.82 401.17,-194.82 401.17,-200.82 401.17,-200.82 401.17,-228.6 401.17,-228.6 401.17,-234.6 395.17,-240.6 389.17,-240.6"/>
<text xml:space="preserve" text-anchor="middle" x="257.4" y="-218.66" font-family="Noto Sans KR" font-size="14.00" fill="#182033">Build CombatLog / DebugTrace</text>
<text xml:space="preserve" text-anchor="middle" x="257.4" y="-201.41" font-family="Noto Sans KR" font-size="14.00" fill="#182033">formula steps · stat reads · RNG decisions</text>
</g>
<!-- result&#45;&gt;trace -->
<g id="edge16" class="edge">
<title>result&#45;&gt;trace</title>
<path fill="none" stroke="#59687e" stroke-width="1.3" d="M203.23,-293.18C213.77,-278.1 224.72,-262.44 233.99,-249.18"/>
<polygon fill="#59687e" stroke="#59687e" stroke-width="1.3" points="236.11,-251.04 238.4,-242.88 231.52,-247.83 236.11,-251.04"/>
</g>
<!-- nonHit&#45;&gt;trace -->
<g id="edge19" class="edge">
<title>nonHit&#45;&gt;trace</title>
<path fill="none" stroke="#59687e" stroke-width="1.3" d="M354.4,-1450.81C354.4,-1400.17 354.4,-1330.09 354.4,-1330.09 354.4,-1330.09 354.4,-1330.09 354.4,-352.99 354.4,-352.99 309.82,-289.9 281.11,-249.26"/>
<polygon fill="#59687e" stroke="#59687e" stroke-width="1.3" points="283.46,-247.73 276.55,-242.82 278.88,-250.97 283.46,-247.73"/>
</g>
<!-- boundary -->
<g id="node18" class="node">
<title>boundary</title>
<polygon fill="#eefbf6" stroke="#61b99a" stroke-width="1.4" points="370.42,-135.82 138.37,-135.82 138.37,-84.04 376.42,-84.04 376.42,-129.82 370.42,-135.82"/>
<polyline fill="none" stroke="#61b99a" stroke-width="1.4" points="370.42,-135.82 370.42,-129.82"/>
<polyline fill="none" stroke="#61b99a" stroke-width="1.4" points="376.42,-129.82 370.42,-129.82"/>
<text xml:space="preserve" text-anchor="middle" x="257.4" y="-113.88" font-family="Noto Sans KR" font-size="14.00" fill="#182033">Pure resolve ends here</text>
<text xml:space="preserve" text-anchor="middle" x="257.4" y="-96.63" font-family="Noto Sans KR" font-size="14.00" fill="#182033">no HP/Shield mutation · no event</text>
</g>
<!-- trace&#45;&gt;boundary -->
<g id="edge17" class="edge">
<title>trace&#45;&gt;boundary</title>
<path fill="none" stroke="#59687e" stroke-width="1.3" d="M257.4,-188.3C257.4,-175.58 257.4,-159.97 257.4,-146.11"/>
<polygon fill="#59687e" stroke="#59687e" stroke-width="1.3" points="260.2,-146.37 257.4,-138.37 254.6,-146.37 260.2,-146.37"/>
</g>
<!-- end -->
<g id="node19" class="node">
<title>end</title>
<ellipse fill="#ffffff" stroke="#182033" stroke-width="1.4" cx="257.4" cy="-15.52" rx="11.52" ry="11.52"/>
<ellipse fill="none" stroke="#182033" stroke-width="1.4" cx="257.4" cy="-15.52" rx="15.52" ry="15.52"/>
</g>
<!-- boundary&#45;&gt;end -->
<g id="edge18" class="edge">
<title>boundary&#45;&gt;end</title>
<path fill="none" stroke="#59687e" stroke-width="1.3" d="M257.4,-83.68C257.4,-70.52 257.4,-54.49 257.4,-41.39"/>
<polygon fill="#59687e" stroke="#59687e" stroke-width="1.3" points="260.2,-41.59 257.4,-33.59 254.6,-41.59 260.2,-41.59"/>
</g>
</g>
</svg>
