<?xml version="1.0" encoding="UTF-8" standalone="no"?>
<!DOCTYPE svg PUBLIC "-//W3C//DTD SVG 1.1//EN"
 "http://www.w3.org/Graphics/SVG/1.1/DTD/svg11.dtd">
<!-- Generated by graphviz version 2.42.4 (0)
 -->
<!-- Title: G Pages: 1 -->
<svg width="485pt" height="1245pt"
 viewBox="8.64 8.64 476.64 1236.64" xmlns="http://www.w3.org/2000/svg" xmlns:xlink="http://www.w3.org/1999/xlink">
<g id="graph0" class="graph" transform="scale(1 1) rotate(0) translate(26.64 1218.64)">
<title>G</title>
<polygon fill="#ffffff" stroke="transparent" points="-18,18 -18,-1210 450,-1210 450,18 -18,18"/>
<!-- start -->
<g id="node1" class="node">
<title>start</title>
<ellipse fill="#182033" stroke="#182033" stroke-width="1.4" cx="260.5" cy="-1182" rx="10" ry="10"/>
</g>
<!-- validate -->
<g id="node2" class="node">
<title>validate</title>
<path fill="#ffffff" stroke="#bac7db" stroke-width="1.4" d="M377,-1121C377,-1121 144,-1121 144,-1121 138,-1121 132,-1115 132,-1109 132,-1109 132,-1091 132,-1091 132,-1085 138,-1079 144,-1079 144,-1079 377,-1079 377,-1079 383,-1079 389,-1085 389,-1091 389,-1091 389,-1109 389,-1109 389,-1115 383,-1121 377,-1121"/>
<text text-anchor="middle" x="260.5" y="-1103.8" font-family="Noto Sans CJK KR" font-size="14.00" fill="#182033">Validate Target</text>
<text text-anchor="middle" x="260.5" y="-1088.8" font-family="Noto Sans CJK KR" font-size="14.00" fill="#182033">can receive damage? alive? hittable?</text>
</g>
<!-- start&#45;&gt;validate -->
<g id="edge1" class="edge">
<title>start&#45;&gt;validate</title>
<path fill="none" stroke="#59687e" stroke-width="1.3" d="M260.5,-1171.82C260.5,-1161.43 260.5,-1144.01 260.5,-1129.04"/>
<polygon fill="#59687e" stroke="#59687e" stroke-width="1.3" points="263.3,-1129.04 260.5,-1121.04 257.7,-1129.04 263.3,-1129.04"/>
</g>
<!-- hit -->
<g id="node3" class="node">
<title>hit</title>
<path fill="#ffffff" stroke="#bac7db" stroke-width="1.4" d="M382,-1028C382,-1028 139,-1028 139,-1028 133,-1028 127,-1022 127,-1016 127,-1016 127,-998 127,-998 127,-992 133,-986 139,-986 139,-986 382,-986 382,-986 388,-986 394,-992 394,-998 394,-998 394,-1016 394,-1016 394,-1022 388,-1028 382,-1028"/>
<text text-anchor="middle" x="260.5" y="-1010.8" font-family="Noto Sans CJK KR" font-size="14.00" fill="#182033">Resolve Hit</text>
<text text-anchor="middle" x="260.5" y="-995.8" font-family="Noto Sans CJK KR" font-size="14.00" fill="#182033">accuracy, evasion, block, invulnerable</text>
</g>
<!-- validate&#45;&gt;hit -->
<g id="edge2" class="edge">
<title>validate&#45;&gt;hit</title>
<path fill="none" stroke="#59687e" stroke-width="1.3" d="M260.5,-1078.8C260.5,-1066.32 260.5,-1050.1 260.5,-1036.34"/>
<polygon fill="#59687e" stroke="#59687e" stroke-width="1.3" points="263.3,-1036.14 260.5,-1028.14 257.7,-1036.14 263.3,-1036.14"/>
</g>
<!-- hitFail -->
<g id="node4" class="node">
<title>hitFail</title>
<path fill="#ffffff" stroke="#bac7db" stroke-width="1.4" d="M249.04,-931.44C249.04,-931.44 184.96,-911.56 184.96,-911.56 179.23,-909.78 179.23,-906.22 184.96,-904.44 184.96,-904.44 249.04,-884.56 249.04,-884.56 254.77,-882.78 266.23,-882.78 271.96,-884.56 271.96,-884.56 336.04,-904.44 336.04,-904.44 341.77,-906.22 341.77,-909.78 336.04,-911.56 336.04,-911.56 271.96,-931.44 271.96,-931.44 266.23,-933.22 254.77,-933.22 249.04,-931.44"/>
<text text-anchor="middle" x="260.5" y="-904.3" font-family="Noto Sans CJK KR" font-size="14.00" fill="#182033">Hit failed?</text>
</g>
<!-- hit&#45;&gt;hitFail -->
<g id="edge3" class="edge">
<title>hit&#45;&gt;hitFail</title>
<path fill="none" stroke="#59687e" stroke-width="1.3" d="M260.5,-985.9C260.5,-973.66 260.5,-957.68 260.5,-943.46"/>
<polygon fill="#59687e" stroke="#59687e" stroke-width="1.3" points="263.3,-943.34 260.5,-935.34 257.7,-943.34 263.3,-943.34"/>
</g>
<!-- crit -->
<g id="node5" class="node">
<title>crit</title>
<path fill="#ffffff" stroke="#bac7db" stroke-width="1.4" d="M270.5,-816C270.5,-816 92.5,-816 92.5,-816 86.5,-816 80.5,-810 80.5,-804 80.5,-804 80.5,-786 80.5,-786 80.5,-780 86.5,-774 92.5,-774 92.5,-774 270.5,-774 270.5,-774 276.5,-774 282.5,-780 282.5,-786 282.5,-786 282.5,-804 282.5,-804 282.5,-810 276.5,-816 270.5,-816"/>
<text text-anchor="middle" x="181.5" y="-798.8" font-family="Noto Sans CJK KR" font-size="14.00" fill="#182033">Resolve Critical</text>
<text text-anchor="middle" x="181.5" y="-783.8" font-family="Noto Sans CJK KR" font-size="14.00" fill="#182033">chance, multiplier, crit resist</text>
</g>
<!-- hitFail&#45;&gt;crit -->
<g id="edge5" class="edge">
<title>hitFail&#45;&gt;crit</title>
<path fill="none" stroke="#59687e" stroke-width="1.3" d="M245.27,-885.6C232.51,-867.68 214.25,-842.01 200.53,-822.74"/>
<polygon fill="#59687e" stroke="#59687e" stroke-width="1.3" points="202.81,-821.11 195.89,-816.21 198.24,-824.36 202.81,-821.11"/>
<text text-anchor="middle" x="232" y="-844.8" font-family="Noto Sans CJK KR" font-size="14.00" fill="#46566e">no</text>
</g>
<!-- miss -->
<g id="node13" class="node">
<title>miss</title>
<path fill="#ffffff" stroke="#bac7db" stroke-width="1.4" d="M420,-749C420,-749 267,-749 267,-749 261,-749 255,-743 255,-737 255,-737 255,-719 255,-719 255,-713 261,-707 267,-707 267,-707 420,-707 420,-707 426,-707 432,-713 432,-719 432,-719 432,-737 432,-737 432,-743 426,-749 420,-749"/>
<text text-anchor="middle" x="343.5" y="-731.8" font-family="Noto Sans CJK KR" font-size="14.00" fill="#182033">Build Miss / Block Result</text>
<text text-anchor="middle" x="343.5" y="-716.8" font-family="Noto Sans CJK KR" font-size="14.00" fill="#182033">finalHpDamage = 0</text>
</g>
<!-- hitFail&#45;&gt;miss -->
<g id="edge4" class="edge">
<title>hitFail&#45;&gt;miss</title>
<path fill="none" stroke="#59687e" stroke-width="1.3" d="M271.18,-884.09C286.4,-851.45 314.3,-791.61 330.64,-756.58"/>
<polygon fill="#59687e" stroke="#59687e" stroke-width="1.3" points="333.3,-757.51 334.14,-749.07 328.22,-755.14 333.3,-757.51"/>
<text text-anchor="middle" x="301.5" y="-844.8" font-family="Noto Sans CJK KR" font-size="14.00" fill="#46566e">yes</text>
</g>
<!-- base -->
<g id="node6" class="node">
<title>base</title>
<path fill="#ffffff" stroke="#bac7db" stroke-width="1.4" d="M273,-682C273,-682 72,-682 72,-682 66,-682 60,-676 60,-670 60,-670 60,-652 60,-652 60,-646 66,-640 72,-640 72,-640 273,-640 273,-640 279,-640 285,-646 285,-652 285,-652 285,-670 285,-670 285,-676 279,-682 273,-682"/>
<text text-anchor="middle" x="172.5" y="-664.8" font-family="Noto Sans CJK KR" font-size="14.00" fill="#182033">Calculate Base Damage</text>
<text text-anchor="middle" x="172.5" y="-649.8" font-family="Noto Sans CJK KR" font-size="14.00" fill="#182033">base + scalingStat × coefficient</text>
</g>
<!-- crit&#45;&gt;base -->
<g id="edge6" class="edge">
<title>crit&#45;&gt;base</title>
<path fill="none" stroke="#59687e" stroke-width="1.3" d="M180.13,-773.95C178.61,-751.66 176.15,-715.49 174.43,-690.32"/>
<polygon fill="#59687e" stroke="#59687e" stroke-width="1.3" points="177.22,-690.03 173.88,-682.24 171.63,-690.41 177.22,-690.03"/>
</g>
<!-- off -->
<g id="node7" class="node">
<title>off</title>
<path fill="#ffffff" stroke="#bac7db" stroke-width="1.4" d="M281,-589C281,-589 12,-589 12,-589 6,-589 0,-583 0,-577 0,-577 0,-559 0,-559 0,-553 6,-547 12,-547 12,-547 281,-547 281,-547 287,-547 293,-553 293,-559 293,-559 293,-577 293,-577 293,-583 287,-589 281,-589"/>
<text text-anchor="middle" x="146.5" y="-571.8" font-family="Noto Sans CJK KR" font-size="14.00" fill="#182033">Apply Offensive Modifiers</text>
<text text-anchor="middle" x="146.5" y="-556.8" font-family="Noto Sans CJK KR" font-size="14.00" fill="#182033">source tags, damage bonus, critical bonus</text>
</g>
<!-- base&#45;&gt;off -->
<g id="edge7" class="edge">
<title>base&#45;&gt;off</title>
<path fill="none" stroke="#59687e" stroke-width="1.3" d="M166.73,-639.8C163.13,-627.2 158.44,-610.79 154.48,-596.95"/>
<polygon fill="#59687e" stroke="#59687e" stroke-width="1.3" points="157.14,-596.06 152.25,-589.14 151.76,-597.6 157.14,-596.06"/>
</g>
<!-- def -->
<g id="node8" class="node">
<title>def</title>
<path fill="#ffffff" stroke="#bac7db" stroke-width="1.4" d="M250.5,-496C250.5,-496 42.5,-496 42.5,-496 36.5,-496 30.5,-490 30.5,-484 30.5,-484 30.5,-466 30.5,-466 30.5,-460 36.5,-454 42.5,-454 42.5,-454 250.5,-454 250.5,-454 256.5,-454 262.5,-460 262.5,-466 262.5,-466 262.5,-484 262.5,-484 262.5,-490 256.5,-496 250.5,-496"/>
<text text-anchor="middle" x="146.5" y="-478.8" font-family="Noto Sans CJK KR" font-size="14.00" fill="#182033">Apply Defensive Modifiers</text>
<text text-anchor="middle" x="146.5" y="-463.8" font-family="Noto Sans CJK KR" font-size="14.00" fill="#182033">armor, defense, guard, reduction</text>
</g>
<!-- off&#45;&gt;def -->
<g id="edge8" class="edge">
<title>off&#45;&gt;def</title>
<path fill="none" stroke="#59687e" stroke-width="1.3" d="M146.5,-546.8C146.5,-534.32 146.5,-518.1 146.5,-504.34"/>
<polygon fill="#59687e" stroke="#59687e" stroke-width="1.3" points="149.3,-504.14 146.5,-496.14 143.7,-504.14 149.3,-504.14"/>
</g>
<!-- resist -->
<g id="node9" class="node">
<title>resist</title>
<path fill="#ffffff" stroke="#bac7db" stroke-width="1.4" d="M251,-403C251,-403 46,-403 46,-403 40,-403 34,-397 34,-391 34,-391 34,-373 34,-373 34,-367 40,-361 46,-361 46,-361 251,-361 251,-361 257,-361 263,-367 263,-373 263,-373 263,-391 263,-391 263,-397 257,-403 251,-403"/>
<text text-anchor="middle" x="148.5" y="-385.8" font-family="Noto Sans CJK KR" font-size="14.00" fill="#182033">Apply Resistance / Penetration</text>
<text text-anchor="middle" x="148.5" y="-370.8" font-family="Noto Sans CJK KR" font-size="14.00" fill="#182033">resistance cap, pierce, weakness</text>
</g>
<!-- def&#45;&gt;resist -->
<g id="edge9" class="edge">
<title>def&#45;&gt;resist</title>
<path fill="none" stroke="#59687e" stroke-width="1.3" d="M146.94,-453.8C147.22,-441.32 147.57,-425.1 147.88,-411.34"/>
<polygon fill="#59687e" stroke="#59687e" stroke-width="1.3" points="150.68,-411.2 148.06,-403.14 145.08,-411.08 150.68,-411.2"/>
</g>
<!-- shield -->
<g id="node10" class="node">
<title>shield</title>
<path fill="#ffffff" stroke="#bac7db" stroke-width="1.4" d="M245.5,-310C245.5,-310 67.5,-310 67.5,-310 61.5,-310 55.5,-304 55.5,-298 55.5,-298 55.5,-280 55.5,-280 55.5,-274 61.5,-268 67.5,-268 67.5,-268 245.5,-268 245.5,-268 251.5,-268 257.5,-274 257.5,-280 257.5,-280 257.5,-298 257.5,-298 257.5,-304 251.5,-310 245.5,-310"/>
<text text-anchor="middle" x="156.5" y="-292.8" font-family="Noto Sans CJK KR" font-size="14.00" fill="#182033">Apply Shield / Absorb</text>
<text text-anchor="middle" x="156.5" y="-277.8" font-family="Noto Sans CJK KR" font-size="14.00" fill="#182033">barrier first, redirect, absorb</text>
</g>
<!-- resist&#45;&gt;shield -->
<g id="edge10" class="edge">
<title>resist&#45;&gt;shield</title>
<path fill="none" stroke="#59687e" stroke-width="1.3" d="M150.28,-360.8C151.37,-348.32 152.8,-332.1 154.01,-318.34"/>
<polygon fill="#59687e" stroke="#59687e" stroke-width="1.3" points="156.82,-318.35 154.73,-310.14 151.24,-317.86 156.82,-318.35"/>
</g>
<!-- round -->
<g id="node11" class="node">
<title>round</title>
<path fill="#ffffff" stroke="#bac7db" stroke-width="1.4" d="M281,-217C281,-217 56,-217 56,-217 50,-217 44,-211 44,-205 44,-205 44,-187 44,-187 44,-181 50,-175 56,-175 56,-175 281,-175 281,-175 287,-175 293,-181 293,-187 293,-187 293,-205 293,-205 293,-211 287,-217 281,-217"/>
<text text-anchor="middle" x="168.5" y="-199.8" font-family="Noto Sans CJK KR" font-size="14.00" fill="#182033">Clamp / Round</text>
<text text-anchor="middle" x="168.5" y="-184.8" font-family="Noto Sans CJK KR" font-size="14.00" fill="#182033">minimum, maximum, integer policy</text>
</g>
<!-- shield&#45;&gt;round -->
<g id="edge11" class="edge">
<title>shield&#45;&gt;round</title>
<path fill="none" stroke="#59687e" stroke-width="1.3" d="M159.16,-267.8C160.81,-255.32 162.95,-239.1 164.76,-225.34"/>
<polygon fill="#59687e" stroke="#59687e" stroke-width="1.3" points="167.57,-225.44 165.84,-217.14 162.02,-224.7 167.57,-225.44"/>
</g>
<!-- result -->
<g id="node12" class="node">
<title>result</title>
<path fill="#ffffff" stroke="#bac7db" stroke-width="1.4" d="M276.5,-124C276.5,-124 94.5,-124 94.5,-124 88.5,-124 82.5,-118 82.5,-112 82.5,-112 82.5,-94 82.5,-94 82.5,-88 88.5,-82 94.5,-82 94.5,-82 276.5,-82 276.5,-82 282.5,-82 288.5,-88 288.5,-94 288.5,-94 288.5,-112 288.5,-112 288.5,-118 282.5,-124 276.5,-124"/>
<text text-anchor="middle" x="185.5" y="-106.8" font-family="Noto Sans CJK KR" font-size="14.00" fill="#182033">Build DamageResult</text>
<text text-anchor="middle" x="185.5" y="-91.8" font-family="Noto Sans CJK KR" font-size="14.00" fill="#182033">finalHpDamage, logs, events</text>
</g>
<!-- round&#45;&gt;result -->
<g id="edge12" class="edge">
<title>round&#45;&gt;result</title>
<path fill="none" stroke="#59687e" stroke-width="1.3" d="M172.27,-174.8C174.61,-162.32 177.64,-146.1 180.21,-132.34"/>
<polygon fill="#59687e" stroke="#59687e" stroke-width="1.3" points="183.02,-132.52 181.74,-124.14 177.52,-131.49 183.02,-132.52"/>
</g>
<!-- end -->
<g id="node14" class="node">
<title>end</title>
<ellipse fill="#ffffff" stroke="#182033" stroke-width="1.4" cx="266.5" cy="-15.5" rx="11.5" ry="11.5"/>
<ellipse fill="none" stroke="#182033" stroke-width="1.4" cx="266.5" cy="-15.5" rx="15.5" ry="15.5"/>
</g>
<!-- result&#45;&gt;end -->
<g id="edge13" class="edge">
<title>result&#45;&gt;end</title>
<path fill="none" stroke="#59687e" stroke-width="1.3" d="M204.7,-81.74C218.65,-67.01 237.33,-47.29 250.48,-33.41"/>
<polygon fill="#59687e" stroke="#59687e" stroke-width="1.3" points="252.63,-35.21 256.1,-27.48 248.57,-31.36 252.63,-35.21"/>
</g>
<!-- miss&#45;&gt;end -->
<g id="edge14" class="edge">
<title>miss&#45;&gt;end</title>
<path fill="none" stroke="#59687e" stroke-width="1.3" d="M344.39,-706.98C345.83,-674.76 348.5,-615 348.5,-615 348.5,-615 348.5,-615 348.5,-102 348.5,-102 306.39,-58.09 282.52,-33.21"/>
<polygon fill="#59687e" stroke="#59687e" stroke-width="1.3" points="284.44,-31.16 276.89,-27.33 280.4,-35.04 284.44,-31.16"/>
</g>
</g>
</svg>
