<?xml version="1.0" encoding="UTF-8" standalone="no"?>
<!DOCTYPE svg PUBLIC "-//W3C//DTD SVG 1.1//EN"
 "http://www.w3.org/Graphics/SVG/1.1/DTD/svg11.dtd">
<!-- Generated by graphviz version 15.0.0 (20260523.1842)
 -->
<!-- Title: G Pages: 1 -->
<svg width="807pt" height="1861pt"
 viewBox="9.00 9.00 799.00 1853.00" xmlns="http://www.w3.org/2000/svg" xmlns:xlink="http://www.w3.org/1999/xlink">
<g id="graph0" class="graph" transform="scale(1 1) rotate(0) translate(26.64 1834.56)">
<title>G</title>
<polygon fill="#ffffff" stroke="none" points="-18,18 -18,-1825.92 772.14,-1825.92 772.14,18 -18,18"/>
<!-- start -->
<g id="node1" class="node">
<title>start</title>
<ellipse fill="#182033" stroke="#182033" stroke-width="1.4" cx="448.15" cy="-1797.84" rx="10.08" ry="10.08"/>
</g>
<!-- validate -->
<g id="node2" class="node">
<title>validate</title>
<path fill="#ffffff" stroke="#bac7db" stroke-width="1.4" d="M548.83,-1736.76C548.83,-1736.76 347.47,-1736.76 347.47,-1736.76 341.47,-1736.76 335.47,-1730.76 335.47,-1724.76 335.47,-1724.76 335.47,-1702.2 335.47,-1702.2 335.47,-1696.2 341.47,-1690.2 347.47,-1690.2 347.47,-1690.2 548.83,-1690.2 548.83,-1690.2 554.83,-1690.2 560.83,-1696.2 560.83,-1702.2 560.83,-1702.2 560.83,-1724.76 560.83,-1724.76 560.83,-1730.76 554.83,-1736.76 548.83,-1736.76"/>
<text xml:space="preserve" text-anchor="middle" x="448.15" y="-1717.68" font-family="Noto Sans CJK KR" font-size="14.00" fill="#182033">Validate Target</text>
<text xml:space="preserve" text-anchor="middle" x="448.15" y="-1700.88" font-family="Noto Sans CJK KR" font-size="14.00" fill="#182033">can receive damage? alive? hittable?</text>
</g>
<!-- start&#45;&gt;validate -->
<g id="edge1" class="edge">
<title>start&#45;&gt;validate</title>
<path fill="none" stroke="#59687e" stroke-width="1.3" d="M448.15,-1787.07C448.15,-1777.17 448.15,-1761.3 448.15,-1746.92"/>
<polygon fill="#59687e" stroke="#59687e" stroke-width="1.3" points="450.95,-1747.27 448.15,-1739.27 445.35,-1747.27 450.95,-1747.27"/>
</g>
<!-- hit -->
<g id="node3" class="node">
<title>hit</title>
<path fill="#ffffff" stroke="#bac7db" stroke-width="1.4" d="M567.93,-1639.2C567.93,-1639.2 328.37,-1639.2 328.37,-1639.2 322.37,-1639.2 316.37,-1633.2 316.37,-1627.2 316.37,-1627.2 316.37,-1604.64 316.37,-1604.64 316.37,-1598.64 322.37,-1592.64 328.37,-1592.64 328.37,-1592.64 567.93,-1592.64 567.93,-1592.64 573.93,-1592.64 579.93,-1598.64 579.93,-1604.64 579.93,-1604.64 579.93,-1627.2 579.93,-1627.2 579.93,-1633.2 573.93,-1639.2 567.93,-1639.2"/>
<text xml:space="preserve" text-anchor="middle" x="448.15" y="-1620.12" font-family="Noto Sans CJK KR" font-size="14.00" fill="#182033">Resolve HitOutcome</text>
<text xml:space="preserve" text-anchor="middle" x="448.15" y="-1603.32" font-family="Noto Sans CJK KR" font-size="14.00" fill="#182033">Hit · Miss · Blocked · Immune · Rejected</text>
</g>
<!-- validate&#45;&gt;hit -->
<g id="edge2" class="edge">
<title>validate&#45;&gt;hit</title>
<path fill="none" stroke="#59687e" stroke-width="1.3" d="M448.15,-1689.83C448.15,-1677.78 448.15,-1662.75 448.15,-1649.47"/>
<polygon fill="#59687e" stroke="#59687e" stroke-width="1.3" points="450.95,-1649.7 448.15,-1641.7 445.35,-1649.7 450.95,-1649.7"/>
</g>
<!-- damaging -->
<g id="node4" class="node">
<title>damaging</title>
<path fill="#ffffff" stroke="#bac7db" stroke-width="1.4" d="M438.19,-1534.94C438.19,-1534.94 413.84,-1518.58 413.84,-1518.58 408.86,-1515.23 408.86,-1508.53 413.84,-1505.18 413.84,-1505.18 438.19,-1488.82 438.19,-1488.82 443.17,-1485.47 453.13,-1485.47 458.11,-1488.82 458.11,-1488.82 482.45,-1505.18 482.45,-1505.18 487.43,-1508.53 487.43,-1515.23 482.45,-1518.58 482.45,-1518.58 458.11,-1534.94 458.11,-1534.94 453.13,-1538.29 443.17,-1538.29 438.19,-1534.94"/>
<text xml:space="preserve" text-anchor="middle" x="448.15" y="-1507.68" font-family="Noto Sans CJK KR" font-size="14.00" fill="#182033">Hit?</text>
</g>
<!-- hit&#45;&gt;damaging -->
<g id="edge3" class="edge">
<title>hit&#45;&gt;damaging</title>
<path fill="none" stroke="#59687e" stroke-width="1.3" d="M448.15,-1592.02C448.15,-1580.2 448.15,-1565.45 448.15,-1551.9"/>
<polygon fill="#59687e" stroke="#59687e" stroke-width="1.3" points="450.95,-1552.27 448.15,-1544.27 445.35,-1552.27 450.95,-1552.27"/>
</g>
<!-- blockedVariant -->
<g id="node5" class="node">
<title>blockedVariant</title>
<polygon fill="#fff7e6" stroke="#e0ad4e" stroke-width="1.4" points="570.04,-1415.32 320.26,-1415.32 320.26,-1351.96 576.04,-1351.96 576.04,-1409.32 570.04,-1415.32"/>
<polyline fill="none" stroke="#e0ad4e" stroke-width="1.4" points="570.04,-1415.32 570.04,-1409.32"/>
<polyline fill="none" stroke="#e0ad4e" stroke-width="1.4" points="576.04,-1409.32 570.04,-1409.32"/>
<text xml:space="preserve" text-anchor="middle" x="448.15" y="-1396.24" font-family="Noto Sans CJK KR" font-size="14.00" fill="#182033">Optional project variant</text>
<text xml:space="preserve" text-anchor="middle" x="448.15" y="-1379.44" font-family="Noto Sans CJK KR" font-size="14.00" fill="#182033">Hit or Blocked?</text>
<text xml:space="preserve" text-anchor="middle" x="448.15" y="-1362.64" font-family="Noto Sans CJK KR" font-size="14.00" fill="#182033">BlockPolicy may keep Blocked damaging</text>
</g>
<!-- damaging&#45;&gt;blockedVariant -->
<g id="edge4" class="edge">
<title>damaging&#45;&gt;blockedVariant</title>
<path fill="none" stroke="#59687e" stroke-width="1.3" stroke-dasharray="5,2" d="M448.15,-1481.28C448.15,-1464.68 448.15,-1443.72 448.15,-1425.57"/>
<polygon fill="#59687e" stroke="#59687e" stroke-width="1.3" points="450.95,-1425.78 448.15,-1417.78 445.35,-1425.78 450.95,-1425.78"/>
<text xml:space="preserve" text-anchor="middle" x="494.22" y="-1444.52" font-family="Noto Sans CJK KR" font-size="14.00" fill="#46566e">policy extension</text>
</g>
<!-- base -->
<g id="node6" class="node">
<title>base</title>
<path fill="#ffffff" stroke="#bac7db" stroke-width="1.4" d="M272.76,-1406.92C272.76,-1406.92 101.54,-1406.92 101.54,-1406.92 95.54,-1406.92 89.54,-1400.92 89.54,-1394.92 89.54,-1394.92 89.54,-1372.36 89.54,-1372.36 89.54,-1366.36 95.54,-1360.36 101.54,-1360.36 101.54,-1360.36 272.76,-1360.36 272.76,-1360.36 278.76,-1360.36 284.76,-1366.36 284.76,-1372.36 284.76,-1372.36 284.76,-1394.92 284.76,-1394.92 284.76,-1400.92 278.76,-1406.92 272.76,-1406.92"/>
<text xml:space="preserve" text-anchor="middle" x="187.15" y="-1387.84" font-family="Noto Sans CJK KR" font-size="14.00" fill="#182033">Calculate Base Damage</text>
<text xml:space="preserve" text-anchor="middle" x="187.15" y="-1371.04" font-family="Noto Sans CJK KR" font-size="14.00" fill="#182033">base + scalingStat × coefficient</text>
</g>
<!-- damaging&#45;&gt;base -->
<g id="edge6" class="edge">
<title>damaging:sw&#45;&gt;base:n</title>
<path fill="none" stroke="#59687e" stroke-width="1.3" d="M429.87,-1492.6C429.87,-1492.6 240.7,-1426.6 196.37,-1411.14"/>
<polygon fill="#59687e" stroke="#59687e" stroke-width="1.3" points="197.48,-1408.56 189.01,-1408.57 195.64,-1413.85 197.48,-1408.56"/>
</g>
<!-- nonHit -->
<g id="node16" class="node">
<title>nonHit</title>
<path fill="#ffffff" stroke="#bac7db" stroke-width="1.4" d="M742.14,-1326.96C742.14,-1326.96 518.16,-1326.96 518.16,-1326.96 512.16,-1326.96 506.16,-1320.96 506.16,-1314.96 506.16,-1314.96 506.16,-1242 506.16,-1242 506.16,-1236 512.16,-1230 518.16,-1230 518.16,-1230 742.14,-1230 742.14,-1230 748.14,-1230 754.14,-1236 754.14,-1242 754.14,-1242 754.14,-1314.96 754.14,-1314.96 754.14,-1320.96 748.14,-1326.96 742.14,-1326.96"/>
<text xml:space="preserve" text-anchor="middle" x="630.15" y="-1307.88" font-family="Noto Sans CJK KR" font-size="14.00" fill="#182033">Other branch</text>
<text xml:space="preserve" text-anchor="middle" x="630.15" y="-1291.08" font-family="Noto Sans CJK KR" font-size="14.00" fill="#182033">Build non&#45;damaging DamageResult</text>
<text xml:space="preserve" text-anchor="middle" x="630.15" y="-1274.28" font-family="Noto Sans CJK KR" font-size="14.00" fill="#182033">Miss · Immune · Rejected</text>
<text xml:space="preserve" text-anchor="middle" x="630.15" y="-1257.48" font-family="Noto Sans CJK KR" font-size="14.00" fill="#182033">Blocked also returns zero in compact C#</text>
<text xml:space="preserve" text-anchor="middle" x="630.15" y="-1240.68" font-family="Noto Sans CJK KR" font-size="14.00" fill="#182033">all damage fields = 0</text>
</g>
<!-- damaging&#45;&gt;nonHit -->
<g id="edge5" class="edge">
<title>damaging:se&#45;&gt;nonHit:n</title>
<path fill="none" stroke="#59687e" stroke-width="1.3" d="M466.43,-1492.6C466.43,-1492.6 549.15,-1457.12 549.15,-1457.12 549.15,-1457.12 594.15,-1415.32 594.15,-1415.32 594.15,-1415.32 617.23,-1358.66 626.43,-1336.08"/>
<polygon fill="#59687e" stroke="#59687e" stroke-width="1.3" points="628.98,-1337.25 629.41,-1328.78 623.79,-1335.13 628.98,-1337.25"/>
</g>
<!-- off -->
<g id="node7" class="node">
<title>off</title>
<path fill="#ffffff" stroke="#bac7db" stroke-width="1.4" d="M261.44,-1205C261.44,-1205 112.86,-1205 112.86,-1205 106.86,-1205 100.86,-1199 100.86,-1193 100.86,-1193 100.86,-1153.64 100.86,-1153.64 100.86,-1147.64 106.86,-1141.64 112.86,-1141.64 112.86,-1141.64 261.44,-1141.64 261.44,-1141.64 267.44,-1141.64 273.44,-1147.64 273.44,-1153.64 273.44,-1153.64 273.44,-1193 273.44,-1193 273.44,-1199 267.44,-1205 261.44,-1205"/>
<text xml:space="preserve" text-anchor="middle" x="187.15" y="-1185.92" font-family="Noto Sans CJK KR" font-size="14.00" fill="#182033">Apply Offensive Modifiers</text>
<text xml:space="preserve" text-anchor="middle" x="187.15" y="-1169.12" font-family="Noto Sans CJK KR" font-size="14.00" fill="#182033">source tags, damage bonus</text>
<text xml:space="preserve" text-anchor="middle" x="187.15" y="-1152.32" font-family="Noto Sans CJK KR" font-size="14.00" fill="#182033">formula subtotal</text>
</g>
<!-- base&#45;&gt;off -->
<g id="edge7" class="edge">
<title>base&#45;&gt;off</title>
<path fill="none" stroke="#59687e" stroke-width="1.3" d="M187.15,-1359.95C187.15,-1325.29 187.15,-1258.64 187.15,-1215.35"/>
<polygon fill="#59687e" stroke="#59687e" stroke-width="1.3" points="189.95,-1215.39 187.15,-1207.39 184.35,-1215.39 189.95,-1215.39"/>
</g>
<!-- crit -->
<g id="node8" class="node">
<title>crit</title>
<path fill="#ffffff" stroke="#bac7db" stroke-width="1.4" d="M275.43,-1090.64C275.43,-1090.64 98.87,-1090.64 98.87,-1090.64 92.87,-1090.64 86.87,-1084.64 86.87,-1078.64 86.87,-1078.64 86.87,-1039.28 86.87,-1039.28 86.87,-1033.28 92.87,-1027.28 98.87,-1027.28 98.87,-1027.28 275.43,-1027.28 275.43,-1027.28 281.43,-1027.28 287.43,-1033.28 287.43,-1039.28 287.43,-1039.28 287.43,-1078.64 287.43,-1078.64 287.43,-1084.64 281.43,-1090.64 275.43,-1090.64"/>
<text xml:space="preserve" text-anchor="middle" x="187.15" y="-1071.56" font-family="Noto Sans CJK KR" font-size="14.00" fill="#182033">Resolve Critical → RawDamage</text>
<text xml:space="preserve" text-anchor="middle" x="187.15" y="-1054.76" font-family="Noto Sans CJK KR" font-size="14.00" fill="#182033">chance, multiplier, crit resist</text>
<text xml:space="preserve" text-anchor="middle" x="187.15" y="-1037.96" font-family="Noto Sans CJK KR" font-size="14.00" fill="#182033">post&#45;critical · pre&#45;mitigation</text>
</g>
<!-- off&#45;&gt;crit -->
<g id="edge8" class="edge">
<title>off&#45;&gt;crit</title>
<path fill="none" stroke="#59687e" stroke-width="1.3" d="M187.15,-1141.02C187.15,-1128.6 187.15,-1114.15 187.15,-1100.92"/>
<polygon fill="#59687e" stroke="#59687e" stroke-width="1.3" points="189.95,-1101.06 187.15,-1093.06 184.35,-1101.06 189.95,-1101.06"/>
</g>
<!-- def -->
<g id="node9" class="node">
<title>def</title>
<path fill="#ffffff" stroke="#bac7db" stroke-width="1.4" d="M276.19,-976.28C276.19,-976.28 98.11,-976.28 98.11,-976.28 92.11,-976.28 86.11,-970.28 86.11,-964.28 86.11,-964.28 86.11,-941.72 86.11,-941.72 86.11,-935.72 92.11,-929.72 98.11,-929.72 98.11,-929.72 276.19,-929.72 276.19,-929.72 282.19,-929.72 288.19,-935.72 288.19,-941.72 288.19,-941.72 288.19,-964.28 288.19,-964.28 288.19,-970.28 282.19,-976.28 276.19,-976.28"/>
<text xml:space="preserve" text-anchor="middle" x="187.15" y="-957.2" font-family="Noto Sans CJK KR" font-size="14.00" fill="#182033">Apply Defensive Modifiers</text>
<text xml:space="preserve" text-anchor="middle" x="187.15" y="-940.4" font-family="Noto Sans CJK KR" font-size="14.00" fill="#182033">armor, defense, guard, reduction</text>
</g>
<!-- crit&#45;&gt;def -->
<g id="edge9" class="edge">
<title>crit&#45;&gt;def</title>
<path fill="none" stroke="#59687e" stroke-width="1.3" d="M187.15,-1026.77C187.15,-1014.12 187.15,-999.51 187.15,-986.71"/>
<polygon fill="#59687e" stroke="#59687e" stroke-width="1.3" points="189.95,-986.87 187.15,-978.87 184.35,-986.87 189.95,-986.87"/>
</g>
<!-- resist -->
<g id="node10" class="node">
<title>resist</title>
<path fill="#ffffff" stroke="#bac7db" stroke-width="1.4" d="M275.21,-878.72C275.21,-878.72 99.09,-878.72 99.09,-878.72 93.09,-878.72 87.09,-872.72 87.09,-866.72 87.09,-866.72 87.09,-844.16 87.09,-844.16 87.09,-838.16 93.09,-832.16 99.09,-832.16 99.09,-832.16 275.21,-832.16 275.21,-832.16 281.21,-832.16 287.21,-838.16 287.21,-844.16 287.21,-844.16 287.21,-866.72 287.21,-866.72 287.21,-872.72 281.21,-878.72 275.21,-878.72"/>
<text xml:space="preserve" text-anchor="middle" x="187.15" y="-859.64" font-family="Noto Sans CJK KR" font-size="14.00" fill="#182033">Apply Resistance / Penetration</text>
<text xml:space="preserve" text-anchor="middle" x="187.15" y="-842.84" font-family="Noto Sans CJK KR" font-size="14.00" fill="#182033">resistance cap, pierce, weakness</text>
</g>
<!-- def&#45;&gt;resist -->
<g id="edge10" class="edge">
<title>def&#45;&gt;resist</title>
<path fill="none" stroke="#59687e" stroke-width="1.3" d="M187.15,-929.35C187.15,-917.3 187.15,-902.27 187.15,-888.99"/>
<polygon fill="#59687e" stroke="#59687e" stroke-width="1.3" points="189.95,-889.22 187.15,-881.22 184.35,-889.22 189.95,-889.22"/>
</g>
<!-- shield -->
<g id="node12" class="node">
<title>shield</title>
<path fill="#ffffff" stroke="#bac7db" stroke-width="1.4" d="M346.26,-781.16C346.26,-781.16 28.04,-781.16 28.04,-781.16 22.04,-781.16 16.04,-775.16 16.04,-769.16 16.04,-769.16 16.04,-729.8 16.04,-729.8 16.04,-723.8 22.04,-717.8 28.04,-717.8 28.04,-717.8 346.26,-717.8 346.26,-717.8 352.26,-717.8 358.26,-723.8 358.26,-729.8 358.26,-729.8 358.26,-769.16 358.26,-769.16 358.26,-775.16 352.26,-781.16 346.26,-781.16"/>
<text xml:space="preserve" text-anchor="middle" x="187.15" y="-762.08" font-family="Noto Sans CJK KR" font-size="14.00" fill="#182033">Calculate ShieldAbsorbed</text>
<text xml:space="preserve" text-anchor="middle" x="187.15" y="-745.28" font-family="Noto Sans CJK KR" font-size="14.00" fill="#182033">min(AvailableShield, ResolvedDamage)</text>
<text xml:space="preserve" text-anchor="middle" x="187.15" y="-728.48" font-family="Noto Sans CJK KR" font-size="14.00" fill="#182033">PostShieldDamage = ResolvedDamage &#45; ShieldAbsorbed</text>
</g>
<!-- resist&#45;&gt;shield -->
<g id="edge11" class="edge">
<title>resist&#45;&gt;shield</title>
<path fill="none" stroke="#59687e" stroke-width="1.3" d="M187.15,-831.63C187.15,-819.79 187.15,-804.98 187.15,-791.26"/>
<polygon fill="#59687e" stroke="#59687e" stroke-width="1.3" points="189.95,-791.49 187.15,-783.49 184.35,-791.49 189.95,-791.49"/>
</g>
<!-- round -->
<g id="node11" class="node">
<title>round</title>
<path fill="#ffffff" stroke="#bac7db" stroke-width="1.4" d="M329.64,-471.68C329.64,-471.68 140.66,-471.68 140.66,-471.68 134.66,-471.68 128.66,-465.68 128.66,-459.68 128.66,-459.68 128.66,-420.32 128.66,-420.32 128.66,-414.32 134.66,-408.32 140.66,-408.32 140.66,-408.32 329.64,-408.32 329.64,-408.32 335.64,-408.32 341.64,-414.32 341.64,-420.32 341.64,-420.32 341.64,-459.68 341.64,-459.68 341.64,-465.68 335.64,-471.68 329.64,-471.68"/>
<text xml:space="preserve" text-anchor="middle" x="235.15" y="-452.6" font-family="Noto Sans CJK KR" font-size="14.00" fill="#182033">Validate Clamp / Round Policy</text>
<text xml:space="preserve" text-anchor="middle" x="235.15" y="-435.8" font-family="Noto Sans CJK KR" font-size="14.00" fill="#182033">stage&#45;boundary rounding recorded</text>
<text xml:space="preserve" text-anchor="middle" x="235.15" y="-419" font-family="Noto Sans CJK KR" font-size="14.00" fill="#182033">HP / overkill clamps verified</text>
</g>
<!-- result -->
<g id="node15" class="node">
<title>result</title>
<path fill="#ffffff" stroke="#bac7db" stroke-width="1.4" d="M563.64,-357.32C563.64,-357.32 194.65,-357.32 194.65,-357.32 188.65,-357.32 182.65,-351.32 182.65,-345.32 182.65,-345.32 182.65,-289.16 182.65,-289.16 182.65,-283.16 188.65,-277.16 194.65,-277.16 194.65,-277.16 563.64,-277.16 563.64,-277.16 569.64,-277.16 575.64,-283.16 575.64,-289.16 575.64,-289.16 575.64,-345.32 575.64,-345.32 575.64,-351.32 569.64,-357.32 563.64,-357.32"/>
<text xml:space="preserve" text-anchor="middle" x="379.15" y="-338.24" font-family="Noto Sans CJK KR" font-size="14.00" fill="#182033">Build DamageResult</text>
<text xml:space="preserve" text-anchor="middle" x="379.15" y="-321.44" font-family="Noto Sans CJK KR" font-size="14.00" fill="#182033">Outcome · Critical · RawDamage</text>
<text xml:space="preserve" text-anchor="middle" x="379.15" y="-304.64" font-family="Noto Sans CJK KR" font-size="14.00" fill="#182033">ResolvedDamage · ShieldAbsorbed · FinalHpDamage · Overkill</text>
<text xml:space="preserve" text-anchor="middle" x="379.15" y="-287.84" font-family="Noto Sans CJK KR" font-size="14.00" fill="#182033">ResolvedDamage = ShieldAbsorbed + FinalHpDamage + Overkill</text>
</g>
<!-- round&#45;&gt;result -->
<g id="edge15" class="edge">
<title>round&#45;&gt;result</title>
<path fill="none" stroke="#59687e" stroke-width="1.3" d="M272.23,-407.9C288.13,-394.57 307.02,-378.73 324.47,-364.1"/>
<polygon fill="#59687e" stroke="#59687e" stroke-width="1.3" points="326.01,-366.46 330.34,-359.17 322.41,-362.17 326.01,-366.46"/>
</g>
<!-- hpCap -->
<g id="node13" class="node">
<title>hpCap</title>
<path fill="#ffffff" stroke="#bac7db" stroke-width="1.4" d="M368.3,-666.8C368.3,-666.8 12,-666.8 12,-666.8 6,-666.8 0,-660.8 0,-654.8 0,-654.8 0,-632.24 0,-632.24 0,-626.24 6,-620.24 12,-620.24 12,-620.24 368.3,-620.24 368.3,-620.24 374.3,-620.24 380.3,-626.24 380.3,-632.24 380.3,-632.24 380.3,-654.8 380.3,-654.8 380.3,-660.8 374.3,-666.8 368.3,-666.8"/>
<text xml:space="preserve" text-anchor="middle" x="190.15" y="-647.72" font-family="Noto Sans CJK KR" font-size="14.00" fill="#182033">Cap FinalHpDamage by available HP</text>
<text xml:space="preserve" text-anchor="middle" x="190.15" y="-630.92" font-family="Noto Sans CJK KR" font-size="14.00" fill="#182033">FinalHpDamage = min(AvailableTargetHp, PostShieldDamage)</text>
</g>
<!-- shield&#45;&gt;hpCap -->
<g id="edge12" class="edge">
<title>shield&#45;&gt;hpCap</title>
<path fill="none" stroke="#59687e" stroke-width="1.3" d="M188.05,-717.29C188.41,-704.64 188.84,-690.03 189.2,-677.23"/>
<polygon fill="#59687e" stroke="#59687e" stroke-width="1.3" points="192,-677.47 189.43,-669.39 186.4,-677.31 192,-677.47"/>
</g>
<!-- overkill -->
<g id="node14" class="node">
<title>overkill</title>
<path fill="#ffffff" stroke="#bac7db" stroke-width="1.4" d="M333.37,-569.24C333.37,-569.24 64.92,-569.24 64.92,-569.24 58.92,-569.24 52.92,-563.24 52.92,-557.24 52.92,-557.24 52.92,-534.68 52.92,-534.68 52.92,-528.68 58.92,-522.68 64.92,-522.68 64.92,-522.68 333.37,-522.68 333.37,-522.68 339.37,-522.68 345.37,-528.68 345.37,-534.68 345.37,-534.68 345.37,-557.24 345.37,-557.24 345.37,-563.24 339.37,-569.24 333.37,-569.24"/>
<text xml:space="preserve" text-anchor="middle" x="199.15" y="-550.16" font-family="Noto Sans CJK KR" font-size="14.00" fill="#182033">Assign remainder to Overkill</text>
<text xml:space="preserve" text-anchor="middle" x="199.15" y="-533.36" font-family="Noto Sans CJK KR" font-size="14.00" fill="#182033">Overkill = PostShieldDamage &#45; FinalHpDamage</text>
</g>
<!-- hpCap&#45;&gt;overkill -->
<g id="edge13" class="edge">
<title>hpCap&#45;&gt;overkill</title>
<path fill="none" stroke="#59687e" stroke-width="1.3" d="M192.28,-619.87C193.42,-607.82 194.83,-592.79 196.08,-579.51"/>
<polygon fill="#59687e" stroke="#59687e" stroke-width="1.3" points="198.85,-579.96 196.82,-571.73 193.28,-579.44 198.85,-579.96"/>
</g>
<!-- overkill&#45;&gt;round -->
<g id="edge14" class="edge">
<title>overkill&#45;&gt;round</title>
<path fill="none" stroke="#59687e" stroke-width="1.3" d="M207.05,-522.15C211.19,-510.2 216.38,-495.21 221.16,-481.38"/>
<polygon fill="#59687e" stroke="#59687e" stroke-width="1.3" points="223.78,-482.38 223.76,-473.9 218.49,-480.55 223.78,-482.38"/>
</g>
<!-- trace -->
<g id="node17" class="node">
<title>trace</title>
<path fill="#ffffff" stroke="#bac7db" stroke-width="1.4" d="M685.96,-226.16C685.96,-226.16 448.34,-226.16 448.34,-226.16 442.34,-226.16 436.34,-220.16 436.34,-214.16 436.34,-214.16 436.34,-191.6 436.34,-191.6 436.34,-185.6 442.34,-179.6 448.34,-179.6 448.34,-179.6 685.96,-179.6 685.96,-179.6 691.96,-179.6 697.96,-185.6 697.96,-191.6 697.96,-191.6 697.96,-214.16 697.96,-214.16 697.96,-220.16 691.96,-226.16 685.96,-226.16"/>
<text xml:space="preserve" text-anchor="middle" x="567.15" y="-207.08" font-family="Noto Sans CJK KR" font-size="14.00" fill="#182033">Build CombatLog / DebugTrace</text>
<text xml:space="preserve" text-anchor="middle" x="567.15" y="-190.28" font-family="Noto Sans CJK KR" font-size="14.00" fill="#182033">formula steps · stat reads · RNG decisions</text>
</g>
<!-- result&#45;&gt;trace -->
<g id="edge16" class="edge">
<title>result&#45;&gt;trace</title>
<path fill="none" stroke="#59687e" stroke-width="1.3" d="M445.7,-276.47C470.42,-261.69 497.93,-245.25 520.5,-231.76"/>
<polygon fill="#59687e" stroke="#59687e" stroke-width="1.3" points="521.78,-234.26 527.21,-227.75 518.9,-229.45 521.78,-234.26"/>
</g>
<!-- nonHit&#45;&gt;trace -->
<g id="edge19" class="edge">
<title>nonHit&#45;&gt;trace</title>
<path fill="none" stroke="#59687e" stroke-width="1.3" d="M630.15,-1229.66C630.15,-1182.25 630.15,-1116.64 630.15,-1116.64 630.15,-1116.64 630.15,-1116.64 630.15,-316.24 630.15,-316.24 603.32,-268.38 584.67,-235.14"/>
<polygon fill="#59687e" stroke="#59687e" stroke-width="1.3" points="587.22,-233.94 580.86,-228.33 582.33,-236.68 587.22,-233.94"/>
</g>
<!-- boundary -->
<g id="node18" class="node">
<title>boundary</title>
<polygon fill="#eefbf6" stroke="#61b99a" stroke-width="1.4" points="666.31,-128.6 461.99,-128.6 461.99,-82.04 672.31,-82.04 672.31,-122.6 666.31,-128.6"/>
<polyline fill="none" stroke="#61b99a" stroke-width="1.4" points="666.31,-128.6 666.31,-122.6"/>
<polyline fill="none" stroke="#61b99a" stroke-width="1.4" points="672.31,-122.6 666.31,-122.6"/>
<text xml:space="preserve" text-anchor="middle" x="567.15" y="-109.52" font-family="Noto Sans CJK KR" font-size="14.00" fill="#182033">Pure resolve ends here</text>
<text xml:space="preserve" text-anchor="middle" x="567.15" y="-92.72" font-family="Noto Sans CJK KR" font-size="14.00" fill="#182033">no HP/Shield mutation · no event</text>
</g>
<!-- trace&#45;&gt;boundary -->
<g id="edge17" class="edge">
<title>trace&#45;&gt;boundary</title>
<path fill="none" stroke="#59687e" stroke-width="1.3" d="M567.15,-179.23C567.15,-167.18 567.15,-152.15 567.15,-138.87"/>
<polygon fill="#59687e" stroke="#59687e" stroke-width="1.3" points="569.95,-139.1 567.15,-131.1 564.35,-139.1 569.95,-139.1"/>
</g>
<!-- end -->
<g id="node19" class="node">
<title>end</title>
<ellipse fill="#ffffff" stroke="#182033" stroke-width="1.4" cx="567.15" cy="-15.52" rx="11.52" ry="11.52"/>
<ellipse fill="none" stroke="#182033" stroke-width="1.4" cx="567.15" cy="-15.52" rx="15.52" ry="15.52"/>
</g>
<!-- boundary&#45;&gt;end -->
<g id="edge18" class="edge">
<title>boundary&#45;&gt;end</title>
<path fill="none" stroke="#59687e" stroke-width="1.3" d="M567.15,-81.71C567.15,-69.4 567.15,-54.15 567.15,-41.5"/>
<polygon fill="#59687e" stroke="#59687e" stroke-width="1.3" points="569.95,-41.57 567.15,-33.57 564.35,-41.57 569.95,-41.57"/>
</g>
</g>
</svg>
