<?xml version="1.0" encoding="UTF-8" standalone="no"?>
<!DOCTYPE svg PUBLIC "-//W3C//DTD SVG 1.1//EN"
 "http://www.w3.org/Graphics/SVG/1.1/DTD/svg11.dtd">
<!-- Generated by graphviz version 15.0.0 (20260523.1842)
 -->
<!-- Title: G Pages: 1 -->
<svg width="592pt" height="1123pt"
 viewBox="9.00 9.00 584.00 1114.00" xmlns="http://www.w3.org/2000/svg" xmlns:xlink="http://www.w3.org/1999/xlink">
<g id="graph0" class="graph" transform="scale(1 1) rotate(0) translate(26.64 1096.2)">
<title>G</title>
<polygon fill="#ffffff" stroke="none" points="-18,18 -18,-1087.56 556.88,-1087.56 556.88,18 -18,18"/>
<!-- start -->
<g id="node1" class="node">
<title>start</title>
<ellipse fill="#182033" stroke="#182033" stroke-width="1.4" cx="368.94" cy="-1060.2" rx="9.36" ry="9.36"/>
</g>
<!-- dmg -->
<g id="node2" class="node">
<title>dmg</title>
<path fill="#eefbf6" stroke="#5ac39b" stroke-width="1.4" d="M431.64,-1001.84C431.64,-1001.84 306.24,-1001.84 306.24,-1001.84 300.24,-1001.84 294.24,-995.84 294.24,-989.84 294.24,-989.84 294.24,-965.84 294.24,-965.84 294.24,-959.84 300.24,-953.84 306.24,-953.84 306.24,-953.84 431.64,-953.84 431.64,-953.84 437.64,-953.84 443.64,-959.84 443.64,-965.84 443.64,-965.84 443.64,-989.84 443.64,-989.84 443.64,-995.84 437.64,-1001.84 431.64,-1001.84"/>
<text xml:space="preserve" text-anchor="middle" x="368.94" y="-982.04" font-family="Noto Sans CJK KR" font-size="14.00" fill="#182033">DamageEffect</text>
<text xml:space="preserve" text-anchor="middle" x="368.94" y="-965.24" font-family="Noto Sans CJK KR" font-size="14.00" fill="#182033">Build DamageRequest</text>
</g>
<!-- start&#45;&gt;dmg -->
<g id="edge1" class="edge">
<title>start&#45;&gt;dmg</title>
<path fill="none" stroke="#59687e" stroke-width="1.3" d="M368.94,-1050.29C368.94,-1041.09 368.94,-1026.14 368.94,-1012.3"/>
<polygon fill="#59687e" stroke="#59687e" stroke-width="1.3" points="371.74,-1012.48 368.94,-1004.48 366.14,-1012.48 371.74,-1012.48"/>
</g>
<!-- req -->
<g id="node3" class="node">
<title>req</title>
<path fill="#f8fafc" stroke="#bac7db" stroke-width="1.4" d="M473.81,-904.84C473.81,-904.84 264.07,-904.84 264.07,-904.84 258.07,-904.84 252.07,-898.84 252.07,-892.84 252.07,-892.84 252.07,-835.24 252.07,-835.24 252.07,-829.24 258.07,-823.24 264.07,-823.24 264.07,-823.24 473.81,-823.24 473.81,-823.24 479.81,-823.24 485.81,-829.24 485.81,-835.24 485.81,-835.24 485.81,-892.84 485.81,-892.84 485.81,-898.84 479.81,-904.84 473.81,-904.84"/>
<text xml:space="preserve" text-anchor="middle" x="368.94" y="-885.04" font-family="Noto Sans CJK KR" font-size="14.00" fill="#182033">DamageRequest</text>
<text xml:space="preserve" text-anchor="middle" x="368.94" y="-868.24" font-family="Noto Sans CJK KR" font-size="14.00" fill="#182033">AttackerId · DefenderId · FormulaId</text>
<text xml:space="preserve" text-anchor="middle" x="368.94" y="-851.44" font-family="Noto Sans CJK KR" font-size="14.00" fill="#182033">Source · DamageType · BaseValue</text>
<text xml:space="preserve" text-anchor="middle" x="368.94" y="-834.64" font-family="Noto Sans CJK KR" font-size="14.00" fill="#182033">CoefficientBps · Tags · Seed</text>
</g>
<!-- dmg&#45;&gt;req -->
<g id="edge2" class="edge">
<title>dmg&#45;&gt;req</title>
<path fill="none" stroke="#59687e" stroke-width="1.3" d="M368.94,-953.4C368.94,-942.17 368.94,-928.26 368.94,-914.83"/>
<polygon fill="#59687e" stroke="#59687e" stroke-width="1.3" points="371.74,-915.15 368.94,-907.15 366.14,-915.15 371.74,-915.15"/>
</g>
<!-- resolver -->
<g id="node4" class="node">
<title>resolver</title>
<path fill="#eaf0ff" stroke="#8292f7" stroke-width="1.4" d="M415.89,-774.24C415.89,-774.24 321.99,-774.24 321.99,-774.24 315.99,-774.24 309.99,-768.24 309.99,-762.24 309.99,-762.24 309.99,-738.24 309.99,-738.24 309.99,-732.24 315.99,-726.24 321.99,-726.24 321.99,-726.24 415.89,-726.24 415.89,-726.24 421.89,-726.24 427.89,-732.24 427.89,-738.24 427.89,-738.24 427.89,-762.24 427.89,-762.24 427.89,-768.24 421.89,-774.24 415.89,-774.24"/>
<text xml:space="preserve" text-anchor="middle" x="368.94" y="-754.44" font-family="Noto Sans CJK KR" font-size="14.00" fill="#182033">CombatResolver</text>
<text xml:space="preserve" text-anchor="middle" x="368.94" y="-737.64" font-family="Noto Sans CJK KR" font-size="14.00" fill="#182033">Resolve(request)</text>
</g>
<!-- req&#45;&gt;resolver -->
<g id="edge3" class="edge">
<title>req&#45;&gt;resolver</title>
<path fill="none" stroke="#59687e" stroke-width="1.3" d="M368.94,-822.68C368.94,-810.07 368.94,-796.32 368.94,-784.28"/>
<polygon fill="#59687e" stroke="#59687e" stroke-width="1.3" points="371.74,-784.59 368.94,-776.59 366.14,-784.59 371.74,-784.59"/>
</g>
<!-- stat -->
<g id="node5" class="node">
<title>stat</title>
<path fill="#fff8e7" stroke="#e4ad4f" stroke-width="1.4" d="M215.88,-661.44C215.88,-661.44 12,-661.44 12,-661.44 6,-661.44 0,-655.44 0,-649.44 0,-649.44 0,-625.44 0,-625.44 0,-619.44 6,-613.44 12,-613.44 12,-613.44 215.88,-613.44 215.88,-613.44 221.88,-613.44 227.88,-619.44 227.88,-625.44 227.88,-625.44 227.88,-649.44 227.88,-649.44 227.88,-655.44 221.88,-661.44 215.88,-661.44"/>
<text xml:space="preserve" text-anchor="middle" x="113.94" y="-641.64" font-family="Noto Sans CJK KR" font-size="14.00" fill="#182033">StatSystem</text>
<text xml:space="preserve" text-anchor="middle" x="113.94" y="-624.84" font-family="Noto Sans CJK KR" font-size="14.00" fill="#182033">Read attacker / defender final values</text>
</g>
<!-- resolver&#45;&gt;stat -->
<g id="edge10" class="edge">
<title>resolver&#45;&gt;stat</title>
<path fill="none" stroke="#59687e" stroke-width="1.3" stroke-dasharray="5,2" d="M314.55,-725.61C274.35,-708.14 219.5,-684.31 177.32,-665.98"/>
<polygon fill="#59687e" stroke="#59687e" stroke-width="1.3" points="178.5,-663.44 170.05,-662.82 176.27,-668.58 178.5,-663.44"/>
<text xml:space="preserve" text-anchor="middle" x="282.95" y="-689.64" font-family="Noto Sans CJK KR" font-size="14.00" fill="#46566e">stat reads</text>
</g>
<!-- status -->
<g id="node6" class="node">
<title>status</title>
<path fill="#f4efff" stroke="#a884e8" stroke-width="1.4" d="M466.06,-661.44C466.06,-661.44 271.82,-661.44 271.82,-661.44 265.82,-661.44 259.82,-655.44 259.82,-649.44 259.82,-649.44 259.82,-625.44 259.82,-625.44 259.82,-619.44 265.82,-613.44 271.82,-613.44 271.82,-613.44 466.06,-613.44 466.06,-613.44 472.06,-613.44 478.06,-619.44 478.06,-625.44 478.06,-625.44 478.06,-649.44 478.06,-649.44 478.06,-655.44 472.06,-661.44 466.06,-661.44"/>
<text xml:space="preserve" text-anchor="middle" x="368.94" y="-641.64" font-family="Noto Sans CJK KR" font-size="14.00" fill="#182033">Status Query</text>
<text xml:space="preserve" text-anchor="middle" x="368.94" y="-624.84" font-family="Noto Sans CJK KR" font-size="14.00" fill="#182033">Read immunity / vulnerability tags</text>
</g>
<!-- resolver&#45;&gt;status -->
<g id="edge11" class="edge">
<title>resolver&#45;&gt;status</title>
<path fill="none" stroke="#59687e" stroke-width="1.3" stroke-dasharray="5,2" d="M368.94,-725.74C368.94,-710.02 368.94,-689.11 368.94,-671.69"/>
<polygon fill="#59687e" stroke="#59687e" stroke-width="1.3" points="371.74,-671.87 368.94,-663.87 366.14,-671.87 371.74,-671.87"/>
<text xml:space="preserve" text-anchor="middle" x="411.9" y="-689.64" font-family="Noto Sans CJK KR" font-size="14.00" fill="#46566e">status/tag reads</text>
</g>
<!-- pipe -->
<g id="node7" class="node">
<title>pipe</title>
<path fill="#ffffff" stroke="#bac7db" stroke-width="1.4" d="M526.88,-548.64C526.88,-548.64 211,-548.64 211,-548.64 205,-548.64 199,-542.64 199,-536.64 199,-536.64 199,-512.64 199,-512.64 199,-506.64 205,-500.64 211,-500.64 211,-500.64 526.88,-500.64 526.88,-500.64 532.88,-500.64 538.88,-506.64 538.88,-512.64 538.88,-512.64 538.88,-536.64 538.88,-536.64 538.88,-542.64 532.88,-548.64 526.88,-548.64"/>
<text xml:space="preserve" text-anchor="middle" x="368.94" y="-528.84" font-family="Noto Sans CJK KR" font-size="14.00" fill="#182033">DamagePipeline</text>
<text xml:space="preserve" text-anchor="middle" x="368.94" y="-512.04" font-family="Noto Sans CJK KR" font-size="14.00" fill="#182033">hit → critical → formula → defense → resistance → shield</text>
</g>
<!-- resolver&#45;&gt;pipe -->
<g id="edge4" class="edge">
<title>resolver&#45;&gt;pipe</title>
<path fill="none" stroke="#59687e" stroke-width="1.3" d="M428.35,-726.94C455.45,-712.95 483.74,-691.72 493.94,-661.44 500.75,-641.22 503.78,-632.37 493.94,-613.44 480.65,-587.86 456.11,-568.18 432.28,-553.99"/>
<polygon fill="#59687e" stroke="#59687e" stroke-width="1.3" points="433.94,-551.72 425.6,-550.18 431.16,-556.58 433.94,-551.72"/>
</g>
<!-- stat&#45;&gt;pipe -->
<g id="edge12" class="edge">
<title>stat&#45;&gt;pipe</title>
<path fill="none" stroke="#59687e" stroke-width="1.3" stroke-dasharray="5,2" d="M168.33,-612.81C208.53,-595.34 263.38,-571.51 305.56,-553.18"/>
<polygon fill="#59687e" stroke="#59687e" stroke-width="1.3" points="306.61,-555.78 312.83,-550.02 304.37,-550.64 306.61,-555.78"/>
<text xml:space="preserve" text-anchor="middle" x="274.59" y="-576.84" font-family="Noto Sans CJK KR" font-size="14.00" fill="#46566e">values</text>
</g>
<!-- status&#45;&gt;pipe -->
<g id="edge13" class="edge">
<title>status&#45;&gt;pipe</title>
<path fill="none" stroke="#59687e" stroke-width="1.3" stroke-dasharray="5,2" d="M368.94,-612.94C368.94,-597.22 368.94,-576.31 368.94,-558.89"/>
<polygon fill="#59687e" stroke="#59687e" stroke-width="1.3" points="371.74,-559.07 368.94,-551.07 366.14,-559.07 371.74,-559.07"/>
<text xml:space="preserve" text-anchor="middle" x="380.22" y="-576.84" font-family="Noto Sans CJK KR" font-size="14.00" fill="#46566e">tags</text>
</g>
<!-- result -->
<g id="node8" class="node">
<title>result</title>
<path fill="#eefbf6" stroke="#5ac39b" stroke-width="1.4" d="M523.2,-451.64C523.2,-451.64 214.67,-451.64 214.67,-451.64 208.67,-451.64 202.67,-445.64 202.67,-439.64 202.67,-439.64 202.67,-398.84 202.67,-398.84 202.67,-392.84 208.67,-386.84 214.67,-386.84 214.67,-386.84 523.2,-386.84 523.2,-386.84 529.2,-386.84 535.2,-392.84 535.2,-398.84 535.2,-398.84 535.2,-439.64 535.2,-439.64 535.2,-445.64 529.2,-451.64 523.2,-451.64"/>
<text xml:space="preserve" text-anchor="middle" x="368.94" y="-431.84" font-family="Noto Sans CJK KR" font-size="14.00" fill="#182033">DamageResult</text>
<text xml:space="preserve" text-anchor="middle" x="368.94" y="-415.04" font-family="Noto Sans CJK KR" font-size="14.00" fill="#182033">Hit · Critical · RawDamage</text>
<text xml:space="preserve" text-anchor="middle" x="368.94" y="-398.24" font-family="Noto Sans CJK KR" font-size="14.00" fill="#182033">ResolvedDamage · ShieldAbsorbed · FinalHpDamage</text>
</g>
<!-- pipe&#45;&gt;result -->
<g id="edge5" class="edge">
<title>pipe&#45;&gt;result</title>
<path fill="none" stroke="#59687e" stroke-width="1.3" d="M368.94,-500.18C368.94,-488.88 368.94,-474.98 368.94,-461.96"/>
<polygon fill="#59687e" stroke="#59687e" stroke-width="1.3" points="371.74,-462.2 368.94,-454.2 366.14,-462.2 371.74,-462.2"/>
</g>
<!-- resource -->
<g id="node9" class="node">
<title>resource</title>
<path fill="#fff1f2" stroke="#e07b91" stroke-width="1.4" d="M381.48,-337.84C381.48,-337.84 202.4,-337.84 202.4,-337.84 196.4,-337.84 190.4,-331.84 190.4,-325.84 190.4,-325.84 190.4,-301.84 190.4,-301.84 190.4,-295.84 196.4,-289.84 202.4,-289.84 202.4,-289.84 381.48,-289.84 381.48,-289.84 387.48,-289.84 393.48,-295.84 393.48,-301.84 393.48,-301.84 393.48,-325.84 393.48,-325.84 393.48,-331.84 387.48,-337.84 381.48,-337.84"/>
<text xml:space="preserve" text-anchor="middle" x="291.94" y="-318.04" font-family="Noto Sans CJK KR" font-size="14.00" fill="#182033">ResourceController</text>
<text xml:space="preserve" text-anchor="middle" x="291.94" y="-301.24" font-family="Noto Sans CJK KR" font-size="14.00" fill="#182033">Apply HP loss by project policy</text>
</g>
<!-- result&#45;&gt;resource -->
<g id="edge6" class="edge">
<title>result&#45;&gt;resource</title>
<path fill="none" stroke="#59687e" stroke-width="1.3" d="M345.21,-386.37C335.62,-373.5 324.59,-358.69 315.07,-345.9"/>
<polygon fill="#59687e" stroke="#59687e" stroke-width="1.3" points="317.56,-344.55 310.53,-339.81 313.06,-347.9 317.56,-344.55"/>
</g>
<!-- trace -->
<g id="node11" class="node">
<title>trace</title>
<path fill="#f8fafc" stroke="#bac7db" stroke-width="1.4" d="M450.93,-128.04C450.93,-128.04 276.95,-128.04 276.95,-128.04 270.95,-128.04 264.95,-122.04 264.95,-116.04 264.95,-116.04 264.95,-92.04 264.95,-92.04 264.95,-86.04 270.95,-80.04 276.95,-80.04 276.95,-80.04 450.93,-80.04 450.93,-80.04 456.93,-80.04 462.93,-86.04 462.93,-92.04 462.93,-92.04 462.93,-116.04 462.93,-116.04 462.93,-122.04 456.93,-128.04 450.93,-128.04"/>
<text xml:space="preserve" text-anchor="middle" x="363.94" y="-108.24" font-family="Noto Sans CJK KR" font-size="14.00" fill="#182033">DebugTrace</text>
<text xml:space="preserve" text-anchor="middle" x="363.94" y="-91.44" font-family="Noto Sans CJK KR" font-size="14.00" fill="#182033">Append calculation breakdown</text>
</g>
<!-- result&#45;&gt;trace -->
<g id="edge14" class="edge">
<title>result&#45;&gt;trace</title>
<path fill="none" stroke="#59687e" stroke-width="1.3" stroke-dasharray="5,2" d="M389.37,-386.3C397.37,-372.05 405.65,-354.7 409.94,-337.84 427.56,-268.57 433.98,-245.35 412.94,-177.04 408.46,-162.48 399.91,-148.23 391.2,-136.3"/>
<polygon fill="#59687e" stroke="#59687e" stroke-width="1.3" points="393.46,-134.65 386.38,-130 389.01,-138.05 393.46,-134.65"/>
<text xml:space="preserve" text-anchor="middle" x="464.06" y="-253.24" font-family="Noto Sans CJK KR" font-size="14.00" fill="#46566e">formula steps</text>
</g>
<!-- event -->
<g id="node10" class="node">
<title>event</title>
<path fill="#f8fafc" stroke="#bac7db" stroke-width="1.4" d="M385.09,-225.04C385.09,-225.04 180.78,-225.04 180.78,-225.04 174.78,-225.04 168.78,-219.04 168.78,-213.04 168.78,-213.04 168.78,-189.04 168.78,-189.04 168.78,-183.04 174.78,-177.04 180.78,-177.04 180.78,-177.04 385.09,-177.04 385.09,-177.04 391.09,-177.04 397.09,-183.04 397.09,-189.04 397.09,-189.04 397.09,-213.04 397.09,-213.04 397.09,-219.04 391.09,-225.04 385.09,-225.04"/>
<text xml:space="preserve" text-anchor="middle" x="282.94" y="-205.24" font-family="Noto Sans CJK KR" font-size="14.00" fill="#182033">EventBus after commit</text>
<text xml:space="preserve" text-anchor="middle" x="282.94" y="-188.44" font-family="Noto Sans CJK KR" font-size="14.00" fill="#182033">DamageCommitted / EntityDefeated</text>
</g>
<!-- resource&#45;&gt;event -->
<g id="edge7" class="edge">
<title>resource&#45;&gt;event</title>
<path fill="none" stroke="#59687e" stroke-width="1.3" d="M290.03,-289.34C288.75,-273.62 287.06,-252.71 285.64,-235.29"/>
<polygon fill="#59687e" stroke="#59687e" stroke-width="1.3" points="288.44,-235.21 285,-227.47 282.86,-235.67 288.44,-235.21"/>
</g>
<!-- event&#45;&gt;trace -->
<g id="edge8" class="edge">
<title>event&#45;&gt;trace</title>
<path fill="none" stroke="#59687e" stroke-width="1.3" d="M302.96,-176.56C313.38,-164.34 326.25,-149.24 337.48,-136.08"/>
<polygon fill="#59687e" stroke="#59687e" stroke-width="1.3" points="339.53,-137.98 342.59,-130.08 335.27,-134.35 339.53,-137.98"/>
</g>
<!-- end -->
<g id="node12" class="node">
<title>end</title>
<ellipse fill="#ffffff" stroke="#182033" stroke-width="1.4" cx="363.94" cy="-15.52" rx="11.52" ry="11.52"/>
<ellipse fill="none" stroke="#182033" stroke-width="1.4" cx="363.94" cy="-15.52" rx="15.52" ry="15.52"/>
</g>
<!-- trace&#45;&gt;end -->
<g id="edge9" class="edge">
<title>trace&#45;&gt;end</title>
<path fill="none" stroke="#59687e" stroke-width="1.3" d="M363.94,-79.4C363.94,-67.63 363.94,-53.41 363.94,-41.48"/>
<polygon fill="#59687e" stroke="#59687e" stroke-width="1.3" points="366.74,-41.66 363.94,-33.66 361.14,-41.66 366.74,-41.66"/>
</g>
</g>
</svg>
