<?xml version="1.0" encoding="UTF-8" standalone="no"?>
<!DOCTYPE svg PUBLIC "-//W3C//DTD SVG 1.1//EN"
 "http://www.w3.org/Graphics/SVG/1.1/DTD/svg11.dtd">
<!-- Generated by graphviz version 2.42.4 (0)
 -->
<!-- Title: G Pages: 1 -->
<svg width="662pt" height="1031pt"
 viewBox="8.64 8.64 653.14 1022.64" xmlns="http://www.w3.org/2000/svg" xmlns:xlink="http://www.w3.org/1999/xlink">
<g id="graph0" class="graph" transform="scale(1 1) rotate(0) translate(26.64 1004.64)">
<title>G</title>
<polygon fill="#ffffff" stroke="transparent" points="-18,18 -18,-996 626.5,-996 626.5,18 -18,18"/>
<!-- start -->
<g id="node1" class="node">
<title>start</title>
<ellipse fill="#182033" stroke="#182033" stroke-width="1.4" cx="411.5" cy="-968.5" rx="9.5" ry="9.5"/>
</g>
<!-- dmg -->
<g id="node2" class="node">
<title>dmg</title>
<path fill="#eefbf6" stroke="#5ac39b" stroke-width="1.4" d="M483.5,-910C483.5,-910 339.5,-910 339.5,-910 333.5,-910 327.5,-904 327.5,-898 327.5,-898 327.5,-878 327.5,-878 327.5,-872 333.5,-866 339.5,-866 339.5,-866 483.5,-866 483.5,-866 489.5,-866 495.5,-872 495.5,-878 495.5,-878 495.5,-898 495.5,-898 495.5,-904 489.5,-910 483.5,-910"/>
<text text-anchor="middle" x="411.5" y="-891.8" font-family="Noto Sans CJK KR" font-size="14.00" fill="#182033">DamageEffect</text>
<text text-anchor="middle" x="411.5" y="-876.8" font-family="Noto Sans CJK KR" font-size="14.00" fill="#182033">build DamageRequest</text>
</g>
<!-- start&#45;&gt;dmg -->
<g id="edge1" class="edge">
<title>start&#45;&gt;dmg</title>
<path fill="none" stroke="#59687e" stroke-width="1.3" d="M411.5,-958.8C411.5,-949.06 411.5,-932.74 411.5,-918.33"/>
<polygon fill="#59687e" stroke="#59687e" stroke-width="1.3" points="414.3,-918.13 411.5,-910.13 408.7,-918.13 414.3,-918.13"/>
</g>
<!-- req -->
<g id="node3" class="node">
<title>req</title>
<path fill="#f8fafc" stroke="#bac7db" stroke-width="1.4" d="M580.5,-817C580.5,-817 242.5,-817 242.5,-817 236.5,-817 230.5,-811 230.5,-805 230.5,-805 230.5,-785 230.5,-785 230.5,-779 236.5,-773 242.5,-773 242.5,-773 580.5,-773 580.5,-773 586.5,-773 592.5,-779 592.5,-785 592.5,-785 592.5,-805 592.5,-805 592.5,-811 586.5,-817 580.5,-817"/>
<text text-anchor="middle" x="411.5" y="-798.8" font-family="Noto Sans CJK KR" font-size="14.00" fill="#182033">DamageRequest</text>
<text text-anchor="middle" x="411.5" y="-783.8" font-family="Noto Sans CJK KR" font-size="14.00" fill="#182033">attacker · defender · sourceId · damageType · seed</text>
</g>
<!-- dmg&#45;&gt;req -->
<g id="edge2" class="edge">
<title>dmg&#45;&gt;req</title>
<path fill="none" stroke="#59687e" stroke-width="1.3" d="M411.5,-865.89C411.5,-853.92 411.5,-838.75 411.5,-825.6"/>
<polygon fill="#59687e" stroke="#59687e" stroke-width="1.3" points="414.3,-825.31 411.5,-817.31 408.7,-825.31 414.3,-825.31"/>
</g>
<!-- resolver -->
<g id="node4" class="node">
<title>resolver</title>
<path fill="#eaf0ff" stroke="#8292f7" stroke-width="1.4" d="M465,-724C465,-724 358,-724 358,-724 352,-724 346,-718 346,-712 346,-712 346,-692 346,-692 346,-686 352,-680 358,-680 358,-680 465,-680 465,-680 471,-680 477,-686 477,-692 477,-692 477,-712 477,-712 477,-718 471,-724 465,-724"/>
<text text-anchor="middle" x="411.5" y="-705.8" font-family="Noto Sans CJK KR" font-size="14.00" fill="#182033">CombatResolver</text>
<text text-anchor="middle" x="411.5" y="-690.8" font-family="Noto Sans CJK KR" font-size="14.00" fill="#182033">resolve(request)</text>
</g>
<!-- req&#45;&gt;resolver -->
<g id="edge3" class="edge">
<title>req&#45;&gt;resolver</title>
<path fill="none" stroke="#59687e" stroke-width="1.3" d="M411.5,-772.89C411.5,-760.92 411.5,-745.75 411.5,-732.6"/>
<polygon fill="#59687e" stroke="#59687e" stroke-width="1.3" points="414.3,-732.31 411.5,-724.31 408.7,-732.31 414.3,-732.31"/>
</g>
<!-- stat -->
<g id="node5" class="node">
<title>stat</title>
<path fill="#fff8e7" stroke="#e4ad4f" stroke-width="1.4" d="M245,-617C245,-617 12,-617 12,-617 6,-617 0,-611 0,-605 0,-605 0,-585 0,-585 0,-579 6,-573 12,-573 12,-573 245,-573 245,-573 251,-573 257,-579 257,-585 257,-585 257,-605 257,-605 257,-611 251,-617 245,-617"/>
<text text-anchor="middle" x="128.5" y="-598.8" font-family="Noto Sans CJK KR" font-size="14.00" fill="#182033">StatSystem</text>
<text text-anchor="middle" x="128.5" y="-583.8" font-family="Noto Sans CJK KR" font-size="14.00" fill="#182033">read attacker / defender final values</text>
</g>
<!-- resolver&#45;&gt;stat -->
<g id="edge10" class="edge">
<title>resolver&#45;&gt;stat</title>
<path fill="none" stroke="#59687e" stroke-width="1.3" stroke-dasharray="5,2" d="M354.57,-679.88C307.84,-662.54 241.68,-637.99 193,-619.93"/>
<polygon fill="#59687e" stroke="#59687e" stroke-width="1.3" points="193.81,-617.25 185.34,-617.09 191.86,-622.5 193.81,-617.25"/>
<text text-anchor="middle" x="319.5" y="-644.8" font-family="Noto Sans CJK KR" font-size="14.00" fill="#46566e">stat reads</text>
</g>
<!-- status -->
<g id="node6" class="node">
<title>status</title>
<path fill="#f4efff" stroke="#a884e8" stroke-width="1.4" d="M521.5,-617C521.5,-617 301.5,-617 301.5,-617 295.5,-617 289.5,-611 289.5,-605 289.5,-605 289.5,-585 289.5,-585 289.5,-579 295.5,-573 301.5,-573 301.5,-573 521.5,-573 521.5,-573 527.5,-573 533.5,-579 533.5,-585 533.5,-585 533.5,-605 533.5,-605 533.5,-611 527.5,-617 521.5,-617"/>
<text text-anchor="middle" x="411.5" y="-598.8" font-family="Noto Sans CJK KR" font-size="14.00" fill="#182033">Status Query</text>
<text text-anchor="middle" x="411.5" y="-583.8" font-family="Noto Sans CJK KR" font-size="14.00" fill="#182033">read immunity / vulnerability tags</text>
</g>
<!-- resolver&#45;&gt;status -->
<g id="edge11" class="edge">
<title>resolver&#45;&gt;status</title>
<path fill="none" stroke="#59687e" stroke-width="1.3" stroke-dasharray="5,2" d="M411.5,-679.75C411.5,-664.1 411.5,-642.61 411.5,-625.32"/>
<polygon fill="#59687e" stroke="#59687e" stroke-width="1.3" points="414.3,-625.22 411.5,-617.22 408.7,-625.22 414.3,-625.22"/>
<text text-anchor="middle" x="465" y="-644.8" font-family="Noto Sans CJK KR" font-size="14.00" fill="#46566e">status/tag reads</text>
</g>
<!-- pipe -->
<g id="node7" class="node">
<title>pipe</title>
<path fill="#ffffff" stroke="#bac7db" stroke-width="1.4" d="M596.5,-510C596.5,-510 226.5,-510 226.5,-510 220.5,-510 214.5,-504 214.5,-498 214.5,-498 214.5,-478 214.5,-478 214.5,-472 220.5,-466 226.5,-466 226.5,-466 596.5,-466 596.5,-466 602.5,-466 608.5,-472 608.5,-478 608.5,-478 608.5,-498 608.5,-498 608.5,-504 602.5,-510 596.5,-510"/>
<text text-anchor="middle" x="411.5" y="-491.8" font-family="Noto Sans CJK KR" font-size="14.00" fill="#182033">DamagePipeline</text>
<text text-anchor="middle" x="411.5" y="-476.8" font-family="Noto Sans CJK KR" font-size="14.00" fill="#182033">hit → critical → formula → defense → resistance → shield</text>
</g>
<!-- resolver&#45;&gt;pipe -->
<g id="edge4" class="edge">
<title>resolver&#45;&gt;pipe</title>
<path fill="none" stroke="#59687e" stroke-width="1.3" d="M477.12,-683.87C494.47,-677.17 512.3,-668.09 526.5,-656 541.82,-642.95 544.2,-636.41 549.5,-617 554.65,-598.13 559.08,-590.05 549.5,-573 534.43,-546.18 506.94,-526.92 480.44,-513.67"/>
<polygon fill="#59687e" stroke="#59687e" stroke-width="1.3" points="481.42,-511.04 473,-510.09 478.99,-516.08 481.42,-511.04"/>
</g>
<!-- stat&#45;&gt;pipe -->
<g id="edge12" class="edge">
<title>stat&#45;&gt;pipe</title>
<path fill="none" stroke="#59687e" stroke-width="1.3" stroke-dasharray="5,2" d="M185.43,-572.88C232.16,-555.54 298.32,-530.99 347,-512.93"/>
<polygon fill="#59687e" stroke="#59687e" stroke-width="1.3" points="348.14,-515.5 354.66,-510.09 346.19,-510.25 348.14,-515.5"/>
<text text-anchor="middle" x="308.5" y="-537.8" font-family="Noto Sans CJK KR" font-size="14.00" fill="#46566e">values</text>
</g>
<!-- status&#45;&gt;pipe -->
<g id="edge13" class="edge">
<title>status&#45;&gt;pipe</title>
<path fill="none" stroke="#59687e" stroke-width="1.3" stroke-dasharray="5,2" d="M411.5,-572.75C411.5,-557.1 411.5,-535.61 411.5,-518.32"/>
<polygon fill="#59687e" stroke="#59687e" stroke-width="1.3" points="414.3,-518.22 411.5,-510.22 408.7,-518.22 414.3,-518.22"/>
<text text-anchor="middle" x="426" y="-537.8" font-family="Noto Sans CJK KR" font-size="14.00" fill="#46566e">tags</text>
</g>
<!-- result -->
<g id="node8" class="node">
<title>result</title>
<path fill="#eefbf6" stroke="#5ac39b" stroke-width="1.4" d="M565.5,-417C565.5,-417 257.5,-417 257.5,-417 251.5,-417 245.5,-411 245.5,-405 245.5,-405 245.5,-385 245.5,-385 245.5,-379 251.5,-373 257.5,-373 257.5,-373 565.5,-373 565.5,-373 571.5,-373 577.5,-379 577.5,-385 577.5,-385 577.5,-405 577.5,-405 577.5,-411 571.5,-417 565.5,-417"/>
<text text-anchor="middle" x="411.5" y="-398.8" font-family="Noto Sans CJK KR" font-size="14.00" fill="#182033">DamageResult</text>
<text text-anchor="middle" x="411.5" y="-383.8" font-family="Noto Sans CJK KR" font-size="14.00" fill="#182033">finalHpDamage · shieldAbsorbed · debugTrace</text>
</g>
<!-- pipe&#45;&gt;result -->
<g id="edge5" class="edge">
<title>pipe&#45;&gt;result</title>
<path fill="none" stroke="#59687e" stroke-width="1.3" d="M411.5,-465.89C411.5,-453.92 411.5,-438.75 411.5,-425.6"/>
<polygon fill="#59687e" stroke="#59687e" stroke-width="1.3" points="414.3,-425.31 411.5,-417.31 408.7,-425.31 414.3,-425.31"/>
</g>
<!-- resource -->
<g id="node9" class="node">
<title>resource</title>
<path fill="#fff1f2" stroke="#e07b91" stroke-width="1.4" d="M428,-324C428,-324 229,-324 229,-324 223,-324 217,-318 217,-312 217,-312 217,-292 217,-292 217,-286 223,-280 229,-280 229,-280 428,-280 428,-280 434,-280 440,-286 440,-292 440,-292 440,-312 440,-312 440,-318 434,-324 428,-324"/>
<text text-anchor="middle" x="328.5" y="-305.8" font-family="Noto Sans CJK KR" font-size="14.00" fill="#182033">ResourceController</text>
<text text-anchor="middle" x="328.5" y="-290.8" font-family="Noto Sans CJK KR" font-size="14.00" fill="#182033">apply HP loss by project policy</text>
</g>
<!-- result&#45;&gt;resource -->
<g id="edge6" class="edge">
<title>result&#45;&gt;resource</title>
<path fill="none" stroke="#59687e" stroke-width="1.3" d="M392.25,-372.89C380.7,-360.24 365.9,-344 353.46,-330.37"/>
<polygon fill="#59687e" stroke="#59687e" stroke-width="1.3" points="355.39,-328.33 347.93,-324.31 351.26,-332.1 355.39,-328.33"/>
</g>
<!-- trace -->
<g id="node11" class="node">
<title>trace</title>
<path fill="#f8fafc" stroke="#bac7db" stroke-width="1.4" d="M503,-124C503,-124 300,-124 300,-124 294,-124 288,-118 288,-112 288,-112 288,-92 288,-92 288,-86 294,-80 300,-80 300,-80 503,-80 503,-80 509,-80 515,-86 515,-92 515,-92 515,-112 515,-112 515,-118 509,-124 503,-124"/>
<text text-anchor="middle" x="401.5" y="-105.8" font-family="Noto Sans CJK KR" font-size="14.00" fill="#182033">DebugTrace</text>
<text text-anchor="middle" x="401.5" y="-90.8" font-family="Noto Sans CJK KR" font-size="14.00" fill="#182033">append calculation breakdown</text>
</g>
<!-- result&#45;&gt;trace -->
<g id="edge14" class="edge">
<title>result&#45;&gt;trace</title>
<path fill="none" stroke="#59687e" stroke-width="1.3" stroke-dasharray="5,2" d="M428.81,-372.72C438.49,-359.53 449.75,-341.75 455.5,-324 476.2,-260.09 486.07,-235.91 462.5,-173 456.43,-156.8 444.74,-141.89 433.19,-130.02"/>
<polygon fill="#59687e" stroke="#59687e" stroke-width="1.3" points="434.86,-127.74 427.2,-124.11 430.93,-131.72 434.86,-127.74"/>
<text text-anchor="middle" x="520" y="-244.8" font-family="Noto Sans CJK KR" font-size="14.00" fill="#46566e">formula steps</text>
</g>
<!-- event -->
<g id="node10" class="node">
<title>event</title>
<path fill="#f8fafc" stroke="#bac7db" stroke-width="1.4" d="M434,-217C434,-217 183,-217 183,-217 177,-217 171,-211 171,-205 171,-205 171,-185 171,-185 171,-179 177,-173 183,-173 183,-173 434,-173 434,-173 440,-173 446,-179 446,-185 446,-185 446,-205 446,-205 446,-211 440,-217 434,-217"/>
<text text-anchor="middle" x="308.5" y="-198.8" font-family="Noto Sans CJK KR" font-size="14.00" fill="#182033">EventBus after commit</text>
<text text-anchor="middle" x="308.5" y="-183.8" font-family="Noto Sans CJK KR" font-size="14.00" fill="#182033">DamageCommitted / EntityDefeated</text>
</g>
<!-- resource&#45;&gt;event -->
<g id="edge7" class="edge">
<title>resource&#45;&gt;event</title>
<path fill="none" stroke="#59687e" stroke-width="1.3" d="M324.45,-279.75C321.47,-264.1 317.38,-242.61 314.09,-225.32"/>
<polygon fill="#59687e" stroke="#59687e" stroke-width="1.3" points="316.79,-224.55 312.54,-217.22 311.29,-225.6 316.79,-224.55"/>
</g>
<!-- event&#45;&gt;trace -->
<g id="edge8" class="edge">
<title>event&#45;&gt;trace</title>
<path fill="none" stroke="#59687e" stroke-width="1.3" d="M330.07,-172.89C343.12,-160.12 359.9,-143.71 373.91,-130"/>
<polygon fill="#59687e" stroke="#59687e" stroke-width="1.3" points="375.97,-131.9 379.72,-124.31 372.05,-127.9 375.97,-131.9"/>
</g>
<!-- end -->
<g id="node12" class="node">
<title>end</title>
<ellipse fill="#ffffff" stroke="#182033" stroke-width="1.4" cx="401.5" cy="-15.5" rx="11.5" ry="11.5"/>
<ellipse fill="none" stroke="#182033" stroke-width="1.4" cx="401.5" cy="-15.5" rx="15.5" ry="15.5"/>
</g>
<!-- trace&#45;&gt;end -->
<g id="edge9" class="edge">
<title>trace&#45;&gt;end</title>
<path fill="none" stroke="#59687e" stroke-width="1.3" d="M401.5,-79.68C401.5,-67.36 401.5,-51.87 401.5,-39.32"/>
<polygon fill="#59687e" stroke="#59687e" stroke-width="1.3" points="404.3,-39.16 401.5,-31.16 398.7,-39.16 404.3,-39.16"/>
</g>
</g>
</svg>
