<?xml version="1.0" encoding="UTF-8" standalone="no"?>
<!DOCTYPE svg PUBLIC "-//W3C//DTD SVG 1.1//EN"
 "http://www.w3.org/Graphics/SVG/1.1/DTD/svg11.dtd">
<!-- Generated by graphviz version 15.0.0 (20260523.1842)
 -->
<!-- Title: G Pages: 1 -->
<svg width="597pt" height="1174pt"
 viewBox="9.00 9.00 588.00 1166.00" xmlns="http://www.w3.org/2000/svg" xmlns:xlink="http://www.w3.org/1999/xlink">
<g id="graph0" class="graph" transform="scale(1 1) rotate(0) translate(26.64 1147.6)">
<title>G</title>
<polygon fill="#ffffff" stroke="none" points="-18,18 -18,-1138.96 561.47,-1138.96 561.47,18 -18,18"/>
<!-- start -->
<g id="node1" class="node">
<title>start</title>
<ellipse fill="#182033" stroke="#182033" stroke-width="1.4" cx="196.59" cy="-1111.6" rx="9.36" ry="9.36"/>
</g>
<!-- dmg -->
<g id="node2" class="node">
<title>dmg</title>
<path fill="#eefbf6" stroke="#5ac39b" stroke-width="1.4" d="M259.29,-1053.24C259.29,-1053.24 133.89,-1053.24 133.89,-1053.24 127.89,-1053.24 121.89,-1047.24 121.89,-1041.24 121.89,-1041.24 121.89,-1017.24 121.89,-1017.24 121.89,-1011.24 127.89,-1005.24 133.89,-1005.24 133.89,-1005.24 259.29,-1005.24 259.29,-1005.24 265.29,-1005.24 271.29,-1011.24 271.29,-1017.24 271.29,-1017.24 271.29,-1041.24 271.29,-1041.24 271.29,-1047.24 265.29,-1053.24 259.29,-1053.24"/>
<text xml:space="preserve" text-anchor="middle" x="196.59" y="-1033.44" font-family="Noto Sans CJK KR" font-size="14.00" fill="#182033">DamageEffect</text>
<text xml:space="preserve" text-anchor="middle" x="196.59" y="-1016.64" font-family="Noto Sans CJK KR" font-size="14.00" fill="#182033">Build DamageRequest</text>
</g>
<!-- start&#45;&gt;dmg -->
<g id="edge1" class="edge">
<title>start&#45;&gt;dmg</title>
<path fill="none" stroke="#59687e" stroke-width="1.3" d="M196.59,-1101.69C196.59,-1092.49 196.59,-1077.54 196.59,-1063.7"/>
<polygon fill="#59687e" stroke="#59687e" stroke-width="1.3" points="199.39,-1063.88 196.59,-1055.88 193.79,-1063.88 199.39,-1063.88"/>
</g>
<!-- req -->
<g id="node3" class="node">
<title>req</title>
<path fill="#f8fafc" stroke="#bac7db" stroke-width="1.4" d="M301.46,-956.24C301.46,-956.24 91.72,-956.24 91.72,-956.24 85.72,-956.24 79.72,-950.24 79.72,-944.24 79.72,-944.24 79.72,-886.64 79.72,-886.64 79.72,-880.64 85.72,-874.64 91.72,-874.64 91.72,-874.64 301.46,-874.64 301.46,-874.64 307.46,-874.64 313.46,-880.64 313.46,-886.64 313.46,-886.64 313.46,-944.24 313.46,-944.24 313.46,-950.24 307.46,-956.24 301.46,-956.24"/>
<text xml:space="preserve" text-anchor="middle" x="196.59" y="-936.44" font-family="Noto Sans CJK KR" font-size="14.00" fill="#182033">DamageRequest</text>
<text xml:space="preserve" text-anchor="middle" x="196.59" y="-919.64" font-family="Noto Sans CJK KR" font-size="14.00" fill="#182033">AttackerId · DefenderId · FormulaId</text>
<text xml:space="preserve" text-anchor="middle" x="196.59" y="-902.84" font-family="Noto Sans CJK KR" font-size="14.00" fill="#182033">Source · DamageType · BaseValue</text>
<text xml:space="preserve" text-anchor="middle" x="196.59" y="-886.04" font-family="Noto Sans CJK KR" font-size="14.00" fill="#182033">CoefficientBps · Tags · Seed</text>
</g>
<!-- dmg&#45;&gt;req -->
<g id="edge2" class="edge">
<title>dmg&#45;&gt;req</title>
<path fill="none" stroke="#59687e" stroke-width="1.3" d="M196.59,-1004.8C196.59,-993.57 196.59,-979.66 196.59,-966.23"/>
<polygon fill="#59687e" stroke="#59687e" stroke-width="1.3" points="199.39,-966.55 196.59,-958.55 193.79,-966.55 199.39,-966.55"/>
</g>
<!-- snapshot -->
<g id="node4" class="node">
<title>snapshot</title>
<path fill="#fff8e7" stroke="#e4ad4f" stroke-width="1.4" d="M325.19,-825.64C325.19,-825.64 68,-825.64 68,-825.64 62,-825.64 56,-819.64 56,-813.64 56,-813.64 56,-772.84 56,-772.84 56,-766.84 62,-760.84 68,-760.84 68,-760.84 325.19,-760.84 325.19,-760.84 331.19,-760.84 337.19,-766.84 337.19,-772.84 337.19,-772.84 337.19,-813.64 337.19,-813.64 337.19,-819.64 331.19,-825.64 325.19,-825.64"/>
<text xml:space="preserve" text-anchor="middle" x="196.59" y="-805.84" font-family="Noto Sans CJK KR" font-size="14.00" fill="#182033">CombatContext snapshot</text>
<text xml:space="preserve" text-anchor="middle" x="196.59" y="-789.04" font-family="Noto Sans CJK KR" font-size="14.00" fill="#182033">attacker/defender stats · status tags · versions</text>
<text xml:space="preserve" text-anchor="middle" x="196.59" y="-772.24" font-family="Noto Sans CJK KR" font-size="14.00" fill="#182033">AvailableShield · AvailableTargetHp</text>
</g>
<!-- req&#45;&gt;snapshot -->
<g id="edge3" class="edge">
<title>req&#45;&gt;snapshot</title>
<path fill="none" stroke="#59687e" stroke-width="1.3" d="M196.59,-874.08C196.59,-861.81 196.59,-848.31 196.59,-835.95"/>
<polygon fill="#59687e" stroke="#59687e" stroke-width="1.3" points="199.39,-836.3 196.59,-828.3 193.79,-836.3 199.39,-836.3"/>
</g>
<!-- resolver -->
<g id="node5" class="node">
<title>resolver</title>
<path fill="#eaf0ff" stroke="#8292f7" stroke-width="1.4" d="M267.64,-711.84C267.64,-711.84 125.54,-711.84 125.54,-711.84 119.54,-711.84 113.54,-705.84 113.54,-699.84 113.54,-699.84 113.54,-659.04 113.54,-659.04 113.54,-653.04 119.54,-647.04 125.54,-647.04 125.54,-647.04 267.64,-647.04 267.64,-647.04 273.64,-647.04 279.64,-653.04 279.64,-659.04 279.64,-659.04 279.64,-699.84 279.64,-699.84 279.64,-705.84 273.64,-711.84 267.64,-711.84"/>
<text xml:space="preserve" text-anchor="middle" x="196.59" y="-692.04" font-family="Noto Sans CJK KR" font-size="14.00" fill="#182033">ICombatResolver</text>
<text xml:space="preserve" text-anchor="middle" x="196.59" y="-675.24" font-family="Noto Sans CJK KR" font-size="14.00" fill="#182033">Resolve(request, context)</text>
<text xml:space="preserve" text-anchor="middle" x="196.59" y="-658.44" font-family="Noto Sans CJK KR" font-size="14.00" fill="#182033">pure calculation</text>
</g>
<!-- snapshot&#45;&gt;resolver -->
<g id="edge4" class="edge">
<title>snapshot&#45;&gt;resolver</title>
<path fill="none" stroke="#59687e" stroke-width="1.3" d="M196.59,-760.2C196.59,-748.39 196.59,-734.83 196.59,-722.28"/>
<polygon fill="#59687e" stroke="#59687e" stroke-width="1.3" points="199.39,-722.45 196.59,-714.45 193.79,-722.45 199.39,-722.45"/>
</g>
<!-- pipe -->
<g id="node6" class="node">
<title>pipe</title>
<path fill="#ffffff" stroke="#bac7db" stroke-width="1.4" d="M319.93,-598.04C319.93,-598.04 73.25,-598.04 73.25,-598.04 67.25,-598.04 61.25,-592.04 61.25,-586.04 61.25,-586.04 61.25,-545.24 61.25,-545.24 61.25,-539.24 67.25,-533.24 73.25,-533.24 73.25,-533.24 319.93,-533.24 319.93,-533.24 325.93,-533.24 331.93,-539.24 331.93,-545.24 331.93,-545.24 331.93,-586.04 331.93,-586.04 331.93,-592.04 325.93,-598.04 319.93,-598.04"/>
<text xml:space="preserve" text-anchor="middle" x="196.59" y="-578.24" font-family="Noto Sans CJK KR" font-size="14.00" fill="#182033">DamagePipeline</text>
<text xml:space="preserve" text-anchor="middle" x="196.59" y="-561.44" font-family="Noto Sans CJK KR" font-size="14.00" fill="#182033">HitOutcome → formula → critical → defense</text>
<text xml:space="preserve" text-anchor="middle" x="196.59" y="-544.64" font-family="Noto Sans CJK KR" font-size="14.00" fill="#182033">resistance → shield → clamp/round</text>
</g>
<!-- resolver&#45;&gt;pipe -->
<g id="edge5" class="edge">
<title>resolver&#45;&gt;pipe</title>
<path fill="none" stroke="#59687e" stroke-width="1.3" d="M196.59,-646.4C196.59,-634.59 196.59,-621.03 196.59,-608.48"/>
<polygon fill="#59687e" stroke="#59687e" stroke-width="1.3" points="199.39,-608.65 196.59,-600.65 193.79,-608.65 199.39,-608.65"/>
</g>
<!-- result -->
<g id="node7" class="node">
<title>result</title>
<path fill="#eefbf6" stroke="#5ac39b" stroke-width="1.4" d="M381.19,-484.24C381.19,-484.24 12,-484.24 12,-484.24 6,-484.24 0,-478.24 0,-472.24 0,-472.24 0,-431.44 0,-431.44 0,-425.44 6,-419.44 12,-419.44 12,-419.44 381.19,-419.44 381.19,-419.44 387.19,-419.44 393.19,-425.44 393.19,-431.44 393.19,-431.44 393.19,-472.24 393.19,-472.24 393.19,-478.24 387.19,-484.24 381.19,-484.24"/>
<text xml:space="preserve" text-anchor="middle" x="196.59" y="-464.44" font-family="Noto Sans CJK KR" font-size="14.00" fill="#182033">DamageResult</text>
<text xml:space="preserve" text-anchor="middle" x="196.59" y="-447.64" font-family="Noto Sans CJK KR" font-size="14.00" fill="#182033">Outcome · Critical · RawDamage (pre&#45;mitigation)</text>
<text xml:space="preserve" text-anchor="middle" x="196.59" y="-430.84" font-family="Noto Sans CJK KR" font-size="14.00" fill="#182033">ResolvedDamage · ShieldAbsorbed · FinalHpDamage · Overkill</text>
</g>
<!-- pipe&#45;&gt;result -->
<g id="edge6" class="edge">
<title>pipe&#45;&gt;result</title>
<path fill="none" stroke="#59687e" stroke-width="1.3" d="M196.59,-532.6C196.59,-520.79 196.59,-507.23 196.59,-494.68"/>
<polygon fill="#59687e" stroke="#59687e" stroke-width="1.3" points="199.39,-494.85 196.59,-486.85 193.79,-494.85 199.39,-494.85"/>
</g>
<!-- trace -->
<g id="node8" class="node">
<title>trace</title>
<path fill="#f8fafc" stroke="#bac7db" stroke-width="1.4" d="M192.86,-346.24C192.86,-346.24 38.32,-346.24 38.32,-346.24 32.32,-346.24 26.32,-340.24 26.32,-334.24 26.32,-334.24 26.32,-310.24 26.32,-310.24 26.32,-304.24 32.32,-298.24 38.32,-298.24 38.32,-298.24 192.86,-298.24 192.86,-298.24 198.86,-298.24 204.86,-304.24 204.86,-310.24 204.86,-310.24 204.86,-334.24 204.86,-334.24 204.86,-340.24 198.86,-346.24 192.86,-346.24"/>
<text xml:space="preserve" text-anchor="middle" x="115.59" y="-326.44" font-family="Noto Sans CJK KR" font-size="14.00" fill="#182033">DebugTrace</text>
<text xml:space="preserve" text-anchor="middle" x="115.59" y="-309.64" font-family="Noto Sans CJK KR" font-size="14.00" fill="#182033">calculation breakdown only</text>
</g>
<!-- result&#45;&gt;trace -->
<g id="edge11" class="edge">
<title>result&#45;&gt;trace</title>
<path fill="none" stroke="#59687e" stroke-width="1.3" stroke-dasharray="5,2" d="M176.36,-418.97C163.95,-399.42 148.12,-374.49 135.73,-354.97"/>
<polygon fill="#59687e" stroke="#59687e" stroke-width="1.3" points="138.18,-353.6 131.53,-348.35 133.46,-356.61 138.18,-353.6"/>
<text xml:space="preserve" text-anchor="middle" x="181.55" y="-382.84" font-family="Noto Sans CJK KR" font-size="14.00" fill="#46566e">explain</text>
</g>
<!-- commit -->
<g id="node9" class="node">
<title>commit</title>
<path fill="#fff1f2" stroke="#e07b91" stroke-width="1.4" d="M506.59,-354.64C506.59,-354.64 248.6,-354.64 248.6,-354.64 242.6,-354.64 236.6,-348.64 236.6,-342.64 236.6,-342.64 236.6,-301.84 236.6,-301.84 236.6,-295.84 242.6,-289.84 248.6,-289.84 248.6,-289.84 506.59,-289.84 506.59,-289.84 512.59,-289.84 518.59,-295.84 518.59,-301.84 518.59,-301.84 518.59,-342.64 518.59,-342.64 518.59,-348.64 512.59,-354.64 506.59,-354.64"/>
<text xml:space="preserve" text-anchor="middle" x="377.59" y="-334.84" font-family="Noto Sans CJK KR" font-size="14.00" fill="#182033">IDamageCommitService / RuntimeCommitter</text>
<text xml:space="preserve" text-anchor="middle" x="377.59" y="-318.04" font-family="Noto Sans CJK KR" font-size="14.00" fill="#182033">version 재검사 · Shield/HP + outbox</text>
<text xml:space="preserve" text-anchor="middle" x="377.59" y="-301.24" font-family="Noto Sans CJK KR" font-size="14.00" fill="#182033">원자적 commit</text>
</g>
<!-- result&#45;&gt;commit -->
<g id="edge7" class="edge">
<title>result&#45;&gt;commit</title>
<path fill="none" stroke="#59687e" stroke-width="1.3" d="M241.8,-418.97C266.85,-401.31 298.14,-379.25 324.37,-360.76"/>
<polygon fill="#59687e" stroke="#59687e" stroke-width="1.3" points="325.8,-363.18 330.73,-356.28 322.57,-358.6 325.8,-363.18"/>
</g>
<!-- event -->
<g id="node10" class="node">
<title>event</title>
<path fill="#e9fbff" stroke="#54b7cf" stroke-width="1.4" d="M321.75,-225.04C321.75,-225.04 117.44,-225.04 117.44,-225.04 111.44,-225.04 105.44,-219.04 105.44,-213.04 105.44,-213.04 105.44,-189.04 105.44,-189.04 105.44,-183.04 111.44,-177.04 117.44,-177.04 117.44,-177.04 321.75,-177.04 321.75,-177.04 327.75,-177.04 333.75,-183.04 333.75,-189.04 333.75,-189.04 333.75,-213.04 333.75,-213.04 333.75,-219.04 327.75,-225.04 321.75,-225.04"/>
<text xml:space="preserve" text-anchor="middle" x="219.59" y="-205.24" font-family="Noto Sans CJK KR" font-size="14.00" fill="#182033">Committed facts dispatch</text>
<text xml:space="preserve" text-anchor="middle" x="219.59" y="-188.44" font-family="Noto Sans CJK KR" font-size="14.00" fill="#182033">DamageCommitted / EntityDefeated</text>
</g>
<!-- commit&#45;&gt;event -->
<g id="edge8" class="edge">
<title>commit&#45;&gt;event</title>
<path fill="none" stroke="#59687e" stroke-width="1.3" d="M335.25,-289.3C311.38,-271.28 281.76,-248.94 258.47,-231.37"/>
<polygon fill="#59687e" stroke="#59687e" stroke-width="1.3" points="260.16,-229.14 252.09,-226.56 256.79,-233.61 260.16,-229.14"/>
</g>
<!-- reject -->
<g id="node12" class="node">
<title>reject</title>
<polygon fill="#fff0f3" stroke="#e07b91" stroke-width="1.4" points="525.66,-225.04 365.53,-225.04 365.53,-177.04 531.66,-177.04 531.66,-219.04 525.66,-225.04"/>
<polyline fill="none" stroke="#e07b91" stroke-width="1.4" points="525.66,-225.04 525.66,-219.04"/>
<polyline fill="none" stroke="#e07b91" stroke-width="1.4" points="531.66,-219.04 525.66,-219.04"/>
<text xml:space="preserve" text-anchor="middle" x="448.59" y="-205.24" font-family="Noto Sans CJK KR" font-size="14.00" fill="#182033">commit 실패</text>
<text xml:space="preserve" text-anchor="middle" x="448.59" y="-188.44" font-family="Noto Sans CJK KR" font-size="14.00" fill="#182033">mutation 없음 · event 없음</text>
</g>
<!-- commit&#45;&gt;reject -->
<g id="edge12" class="edge">
<title>commit&#45;&gt;reject</title>
<path fill="none" stroke="#dc2626" stroke-width="1.3" stroke-dasharray="5,2" d="M396.62,-289.3C406.83,-272.15 419.38,-251.08 429.59,-233.94"/>
<polygon fill="#dc2626" stroke="#dc2626" stroke-width="1.3" points="432,-235.37 433.69,-227.06 427.19,-232.5 432,-235.37"/>
<text xml:space="preserve" text-anchor="middle" x="481.46" y="-253.24" font-family="Noto Sans CJK KR" font-size="14.00" fill="#dc2626">version / invariant fail</text>
</g>
<!-- reaction -->
<g id="node11" class="node">
<title>reaction</title>
<path fill="#f4efff" stroke="#a884e8" stroke-width="1.4" d="M297.47,-128.04C297.47,-128.04 141.72,-128.04 141.72,-128.04 135.72,-128.04 129.72,-122.04 129.72,-116.04 129.72,-116.04 129.72,-92.04 129.72,-92.04 129.72,-86.04 135.72,-80.04 141.72,-80.04 141.72,-80.04 297.47,-80.04 297.47,-80.04 303.47,-80.04 309.47,-86.04 309.47,-92.04 309.47,-92.04 309.47,-116.04 309.47,-116.04 309.47,-122.04 303.47,-128.04 297.47,-128.04"/>
<text xml:space="preserve" text-anchor="middle" x="219.59" y="-108.24" font-family="Noto Sans CJK KR" font-size="14.00" fill="#182033">ReactionQueue</text>
<text xml:space="preserve" text-anchor="middle" x="219.59" y="-91.44" font-family="Noto Sans CJK KR" font-size="14.00" fill="#182033">흡혈 · Burn · 반사 command</text>
</g>
<!-- event&#45;&gt;reaction -->
<g id="edge9" class="edge">
<title>event&#45;&gt;reaction</title>
<path fill="none" stroke="#59687e" stroke-width="1.3" d="M219.59,-176.56C219.59,-165.02 219.59,-150.93 219.59,-138.31"/>
<polygon fill="#59687e" stroke="#59687e" stroke-width="1.3" points="222.39,-138.55 219.59,-130.55 216.79,-138.55 222.39,-138.55"/>
</g>
<!-- end -->
<g id="node13" class="node">
<title>end</title>
<ellipse fill="#ffffff" stroke="#182033" stroke-width="1.4" cx="219.59" cy="-15.52" rx="11.52" ry="11.52"/>
<ellipse fill="none" stroke="#182033" stroke-width="1.4" cx="219.59" cy="-15.52" rx="15.52" ry="15.52"/>
</g>
<!-- reaction&#45;&gt;end -->
<g id="edge10" class="edge">
<title>reaction&#45;&gt;end</title>
<path fill="none" stroke="#59687e" stroke-width="1.3" d="M219.59,-79.4C219.59,-67.63 219.59,-53.41 219.59,-41.48"/>
<polygon fill="#59687e" stroke="#59687e" stroke-width="1.3" points="222.39,-41.66 219.59,-33.66 216.79,-41.66 222.39,-41.66"/>
</g>
</g>
</svg>
