<?xml version="1.0" encoding="UTF-8" standalone="no"?>
<!DOCTYPE svg PUBLIC "-//W3C//DTD SVG 1.1//EN"
 "http://www.w3.org/Graphics/SVG/1.1/DTD/svg11.dtd">
<!-- Generated by graphviz version 15.1.0 (20260618.0150)
 -->
<!-- Title: G Pages: 1 -->
<svg width="748pt" height="1850pt"
 viewBox="12.00 12.00 737.00 1839.00" xmlns="http://www.w3.org/2000/svg" xmlns:xlink="http://www.w3.org/1999/xlink">
<g id="graph0" class="graph" transform="scale(1.33333 1.33333) rotate(0) translate(26.64 1360.92)">
<title>G</title>
<polygon fill="#ffffff" stroke="none" points="-18,18 -18,-1352.28 526.05,-1352.28 526.05,18 -18,18"/>
<!-- start -->
<g id="node1" class="node">
<title>start</title>
<ellipse fill="#182033" stroke="#182033" stroke-width="1.4" cx="136.28" cy="-1324.92" rx="9.36" ry="9.36"/>
</g>
<!-- dmg -->
<g id="node2" class="node">
<title>dmg</title>
<path fill="#eefbf6" stroke="#5ac39b" stroke-width="1.4" d="M207.68,-1264.56C207.68,-1264.56 64.88,-1264.56 64.88,-1264.56 58.88,-1264.56 52.88,-1258.56 52.88,-1252.56 52.88,-1252.56 52.88,-1224.78 52.88,-1224.78 52.88,-1218.78 58.88,-1212.78 64.88,-1212.78 64.88,-1212.78 207.68,-1212.78 207.68,-1212.78 213.68,-1212.78 219.68,-1218.78 219.68,-1224.78 219.68,-1224.78 219.68,-1252.56 219.68,-1252.56 219.68,-1258.56 213.68,-1264.56 207.68,-1264.56"/>
<text xml:space="preserve" text-anchor="middle" x="136.28" y="-1242.62" font-family="Noto Sans KR" font-size="14.00" fill="#182033">DamageEffect</text>
<text xml:space="preserve" text-anchor="middle" x="136.28" y="-1225.37" font-family="Noto Sans KR" font-size="14.00" fill="#182033">Build DamageRequest</text>
</g>
<!-- start&#45;&gt;dmg -->
<g id="edge1" class="edge">
<title>start&#45;&gt;dmg</title>
<path fill="none" stroke="#59687e" stroke-width="1.3" d="M136.28,-1314.9C136.28,-1305.32 136.28,-1289.54 136.28,-1274.91"/>
<polygon fill="#59687e" stroke="#59687e" stroke-width="1.3" points="139.08,-1275.02 136.28,-1267.02 133.48,-1275.02 139.08,-1275.02"/>
</g>
<!-- req -->
<g id="node3" class="node">
<title>req</title>
<path fill="#f8fafc" stroke="#bac7db" stroke-width="1.4" d="M249.3,-1161.78C249.3,-1161.78 23.25,-1161.78 23.25,-1161.78 17.25,-1161.78 11.25,-1155.78 11.25,-1149.78 11.25,-1149.78 11.25,-1087.5 11.25,-1087.5 11.25,-1081.5 17.25,-1075.5 23.25,-1075.5 23.25,-1075.5 249.3,-1075.5 249.3,-1075.5 255.3,-1075.5 261.3,-1081.5 261.3,-1087.5 261.3,-1087.5 261.3,-1149.78 261.3,-1149.78 261.3,-1155.78 255.3,-1161.78 249.3,-1161.78"/>
<text xml:space="preserve" text-anchor="middle" x="136.28" y="-1139.84" font-family="Noto Sans KR" font-size="14.00" fill="#182033">DamageRequest</text>
<text xml:space="preserve" text-anchor="middle" x="136.28" y="-1122.59" font-family="Noto Sans KR" font-size="14.00" fill="#182033">AttackerId · DefenderId · FormulaId</text>
<text xml:space="preserve" text-anchor="middle" x="136.28" y="-1105.34" font-family="Noto Sans KR" font-size="14.00" fill="#182033">Source · DamageType · BaseValue</text>
<text xml:space="preserve" text-anchor="middle" x="136.28" y="-1088.09" font-family="Noto Sans KR" font-size="14.00" fill="#182033">CoefficientBps · Tags · Seed</text>
</g>
<!-- dmg&#45;&gt;req -->
<g id="edge2" class="edge">
<title>dmg&#45;&gt;req</title>
<path fill="none" stroke="#59687e" stroke-width="1.3" d="M136.28,-1212.35C136.28,-1200.46 136.28,-1185.83 136.28,-1171.73"/>
<polygon fill="#59687e" stroke="#59687e" stroke-width="1.3" points="139.08,-1172.07 136.28,-1164.07 133.48,-1172.07 139.08,-1172.07"/>
</g>
<!-- snapshot -->
<g id="node4" class="node">
<title>snapshot</title>
<path fill="#fff8e7" stroke="#e4ad4f" stroke-width="1.4" d="M248.93,-1024.5C248.93,-1024.5 23.63,-1024.5 23.63,-1024.5 17.63,-1024.5 11.63,-1018.5 11.63,-1012.5 11.63,-1012.5 11.63,-950.22 11.63,-950.22 11.63,-944.22 17.63,-938.22 23.63,-938.22 23.63,-938.22 248.93,-938.22 248.93,-938.22 254.93,-938.22 260.93,-944.22 260.93,-950.22 260.93,-950.22 260.93,-1012.5 260.93,-1012.5 260.93,-1018.5 254.93,-1024.5 248.93,-1024.5"/>
<text xml:space="preserve" text-anchor="middle" x="136.28" y="-1002.56" font-family="Noto Sans KR" font-size="14.00" fill="#182033">CombatContext snapshot</text>
<text xml:space="preserve" text-anchor="middle" x="136.28" y="-985.31" font-family="Noto Sans KR" font-size="14.00" fill="#182033">attacker / defender stats</text>
<text xml:space="preserve" text-anchor="middle" x="136.28" y="-968.06" font-family="Noto Sans KR" font-size="14.00" fill="#182033">status tags · versions</text>
<text xml:space="preserve" text-anchor="middle" x="136.28" y="-950.81" font-family="Noto Sans KR" font-size="14.00" fill="#182033">AvailableShield · AvailableTargetHp</text>
</g>
<!-- req&#45;&gt;snapshot -->
<g id="edge3" class="edge">
<title>req&#45;&gt;snapshot</title>
<path fill="none" stroke="#59687e" stroke-width="1.3" d="M136.28,-1074.84C136.28,-1062.13 136.28,-1048.06 136.28,-1034.82"/>
<polygon fill="#59687e" stroke="#59687e" stroke-width="1.3" points="139.08,-1034.85 136.28,-1026.85 133.48,-1034.85 139.08,-1034.85"/>
</g>
<!-- resolver -->
<g id="node5" class="node">
<title>resolver</title>
<path fill="#eaf0ff" stroke="#8292f7" stroke-width="1.4" d="M216.68,-887.22C216.68,-887.22 55.88,-887.22 55.88,-887.22 49.88,-887.22 43.88,-881.22 43.88,-875.22 43.88,-875.22 43.88,-830.19 43.88,-830.19 43.88,-824.19 49.88,-818.19 55.88,-818.19 55.88,-818.19 216.68,-818.19 216.68,-818.19 222.68,-818.19 228.68,-824.19 228.68,-830.19 228.68,-830.19 228.68,-875.22 228.68,-875.22 228.68,-881.22 222.68,-887.22 216.68,-887.22"/>
<text xml:space="preserve" text-anchor="middle" x="136.28" y="-865.28" font-family="Noto Sans KR" font-size="14.00" fill="#182033">ICombatResolver</text>
<text xml:space="preserve" text-anchor="middle" x="136.28" y="-848.03" font-family="Noto Sans KR" font-size="14.00" fill="#182033">Resolve(request, context)</text>
<text xml:space="preserve" text-anchor="middle" x="136.28" y="-830.78" font-family="Noto Sans KR" font-size="14.00" fill="#182033">pure calculation</text>
</g>
<!-- snapshot&#45;&gt;resolver -->
<g id="edge4" class="edge">
<title>snapshot&#45;&gt;resolver</title>
<path fill="none" stroke="#59687e" stroke-width="1.3" d="M136.28,-937.83C136.28,-924.78 136.28,-910.39 136.28,-897.27"/>
<polygon fill="#59687e" stroke="#59687e" stroke-width="1.3" points="139.08,-897.49 136.28,-889.49 133.48,-897.49 139.08,-897.49"/>
</g>
<!-- pipe -->
<g id="node6" class="node">
<title>pipe</title>
<path fill="#ffffff" stroke="#bac7db" stroke-width="1.4" d="M241.8,-767.19C241.8,-767.19 30.75,-767.19 30.75,-767.19 24.75,-767.19 18.75,-761.19 18.75,-755.19 18.75,-755.19 18.75,-692.91 18.75,-692.91 18.75,-686.91 24.75,-680.91 30.75,-680.91 30.75,-680.91 241.8,-680.91 241.8,-680.91 247.8,-680.91 253.8,-686.91 253.8,-692.91 253.8,-692.91 253.8,-755.19 253.8,-755.19 253.8,-761.19 247.8,-767.19 241.8,-767.19"/>
<text xml:space="preserve" text-anchor="middle" x="136.28" y="-745.25" font-family="Noto Sans KR" font-size="14.00" fill="#182033">DamagePipeline</text>
<text xml:space="preserve" text-anchor="middle" x="136.28" y="-728" font-family="Noto Sans KR" font-size="14.00" fill="#182033">HitOutcome → formula → critical</text>
<text xml:space="preserve" text-anchor="middle" x="136.28" y="-710.75" font-family="Noto Sans KR" font-size="14.00" fill="#182033">defense → resistance → shield</text>
<text xml:space="preserve" text-anchor="middle" x="136.28" y="-693.5" font-family="Noto Sans KR" font-size="14.00" fill="#182033">clamp / round</text>
</g>
<!-- resolver&#45;&gt;pipe -->
<g id="edge5" class="edge">
<title>resolver&#45;&gt;pipe</title>
<path fill="none" stroke="#59687e" stroke-width="1.3" d="M136.28,-817.76C136.28,-805.38 136.28,-791.07 136.28,-777.46"/>
<polygon fill="#59687e" stroke="#59687e" stroke-width="1.3" points="139.08,-777.67 136.28,-769.67 133.48,-777.67 139.08,-777.67"/>
</g>
<!-- result -->
<g id="node7" class="node">
<title>result</title>
<path fill="#eefbf6" stroke="#5ac39b" stroke-width="1.4" d="M248.93,-629.91C248.93,-629.91 23.63,-629.91 23.63,-629.91 17.63,-629.91 11.63,-623.91 11.63,-617.91 11.63,-617.91 11.63,-538.38 11.63,-538.38 11.63,-532.38 17.63,-526.38 23.63,-526.38 23.63,-526.38 248.93,-526.38 248.93,-526.38 254.93,-526.38 260.93,-532.38 260.93,-538.38 260.93,-538.38 260.93,-617.91 260.93,-617.91 260.93,-623.91 254.93,-629.91 248.93,-629.91"/>
<text xml:space="preserve" text-anchor="middle" x="136.28" y="-607.97" font-family="Noto Sans KR" font-size="14.00" fill="#182033">DamageResult</text>
<text xml:space="preserve" text-anchor="middle" x="136.28" y="-590.72" font-family="Noto Sans KR" font-size="14.00" fill="#182033">Outcome · Critical</text>
<text xml:space="preserve" text-anchor="middle" x="136.28" y="-573.47" font-family="Noto Sans KR" font-size="14.00" fill="#182033">RawDamage (pre&#45;mitigation)</text>
<text xml:space="preserve" text-anchor="middle" x="136.28" y="-556.22" font-family="Noto Sans KR" font-size="14.00" fill="#182033">ResolvedDamage · ShieldAbsorbed</text>
<text xml:space="preserve" text-anchor="middle" x="136.28" y="-538.97" font-family="Noto Sans KR" font-size="14.00" fill="#182033">FinalHpDamage · Overkill</text>
</g>
<!-- pipe&#45;&gt;result -->
<g id="edge6" class="edge">
<title>pipe&#45;&gt;result</title>
<path fill="none" stroke="#59687e" stroke-width="1.3" d="M136.28,-680.26C136.28,-667.66 136.28,-653.63 136.28,-640.12"/>
<polygon fill="#59687e" stroke="#59687e" stroke-width="1.3" points="139.08,-640.37 136.28,-632.37 133.48,-640.37 139.08,-640.37"/>
</g>
<!-- trace -->
<g id="node8" class="node">
<title>trace</title>
<path fill="#f8fafc" stroke="#bac7db" stroke-width="1.4" d="M188.55,-433.25C188.55,-433.25 12,-433.25 12,-433.25 6,-433.25 0,-427.25 0,-421.25 0,-421.25 0,-393.47 0,-393.47 0,-387.47 6,-381.47 12,-381.47 12,-381.47 188.55,-381.47 188.55,-381.47 194.55,-381.47 200.55,-387.47 200.55,-393.47 200.55,-393.47 200.55,-421.25 200.55,-421.25 200.55,-427.25 194.55,-433.25 188.55,-433.25"/>
<text xml:space="preserve" text-anchor="middle" x="100.28" y="-411.31" font-family="Noto Sans KR" font-size="14.00" fill="#182033">DebugTrace</text>
<text xml:space="preserve" text-anchor="middle" x="100.28" y="-394.06" font-family="Noto Sans KR" font-size="14.00" fill="#182033">calculation breakdown only</text>
</g>
<!-- result&#45;&gt;trace -->
<g id="edge11" class="edge">
<title>result&#45;&gt;trace</title>
<path fill="none" stroke="#59687e" stroke-width="1.3" stroke-dasharray="5,2" d="M125.38,-526.05C119.69,-499.39 112.88,-467.45 107.79,-443.58"/>
<polygon fill="#59687e" stroke="#59687e" stroke-width="1.3" points="110.54,-443.05 106.13,-435.81 105.06,-444.22 110.54,-443.05"/>
<text xml:space="preserve" text-anchor="middle" x="141.85" y="-488.08" font-family="Noto Sans KR" font-size="14.00" fill="#46566e">explain</text>
</g>
<!-- commit -->
<g id="node9" class="node">
<title>commit</title>
<path fill="#fff1f2" stroke="#e07b91" stroke-width="1.4" d="M419.93,-459.13C419.93,-459.13 254.63,-459.13 254.63,-459.13 248.63,-459.13 242.63,-453.13 242.63,-447.13 242.63,-447.13 242.63,-367.6 242.63,-367.6 242.63,-361.6 248.63,-355.6 254.63,-355.6 254.63,-355.6 419.93,-355.6 419.93,-355.6 425.93,-355.6 431.93,-361.6 431.93,-367.6 431.93,-367.6 431.93,-447.13 431.93,-447.13 431.93,-453.13 425.93,-459.13 419.93,-459.13"/>
<text xml:space="preserve" text-anchor="middle" x="337.28" y="-437.19" font-family="Noto Sans KR" font-size="14.00" fill="#182033">IDamageCommitService /</text>
<text xml:space="preserve" text-anchor="middle" x="337.28" y="-419.94" font-family="Noto Sans KR" font-size="14.00" fill="#182033">RuntimeCommitter</text>
<text xml:space="preserve" text-anchor="middle" x="337.28" y="-402.69" font-family="Noto Sans KR" font-size="14.00" fill="#182033">version 재검사</text>
<text xml:space="preserve" text-anchor="middle" x="337.28" y="-385.44" font-family="Noto Sans KR" font-size="14.00" fill="#182033">Shield / HP + outbox</text>
<text xml:space="preserve" text-anchor="middle" x="337.28" y="-368.19" font-family="Noto Sans KR" font-size="14.00" fill="#182033">원자적 commit</text>
</g>
<!-- result&#45;&gt;commit -->
<g id="edge7" class="edge">
<title>result&#45;&gt;commit</title>
<path fill="none" stroke="#59687e" stroke-width="1.3" d="M197.4,-525.82C219.91,-506.92 245.55,-485.38 268.68,-465.96"/>
<polygon fill="#59687e" stroke="#59687e" stroke-width="1.3" points="270.26,-468.29 274.59,-461 266.66,-464 270.26,-468.29"/>
</g>
<!-- event -->
<g id="node10" class="node">
<title>event</title>
<path fill="#e9fbff" stroke="#54b7cf" stroke-width="1.4" d="M262.18,-271.1C262.18,-271.1 98.38,-271.1 98.38,-271.1 92.38,-271.1 86.38,-265.1 86.38,-259.1 86.38,-259.1 86.38,-214.07 86.38,-214.07 86.38,-208.07 92.38,-202.07 98.38,-202.07 98.38,-202.07 262.18,-202.07 262.18,-202.07 268.18,-202.07 274.18,-208.07 274.18,-214.07 274.18,-214.07 274.18,-259.1 274.18,-259.1 274.18,-265.1 268.18,-271.1 262.18,-271.1"/>
<text xml:space="preserve" text-anchor="middle" x="180.28" y="-249.16" font-family="Noto Sans KR" font-size="14.00" fill="#182033">Committed facts dispatch</text>
<text xml:space="preserve" text-anchor="middle" x="180.28" y="-231.91" font-family="Noto Sans KR" font-size="14.00" fill="#182033">DamageCommitted</text>
<text xml:space="preserve" text-anchor="middle" x="180.28" y="-214.66" font-family="Noto Sans KR" font-size="14.00" fill="#182033">EntityDefeated</text>
</g>
<!-- commit&#45;&gt;event -->
<g id="edge8" class="edge">
<title>commit&#45;&gt;event</title>
<path fill="none" stroke="#59687e" stroke-width="1.3" d="M289.74,-355.27C267.02,-330.84 240.18,-301.98 218.76,-278.96"/>
<polygon fill="#59687e" stroke="#59687e" stroke-width="1.3" points="220.85,-277.09 213.35,-273.14 216.75,-280.91 220.85,-277.09"/>
</g>
<!-- reject -->
<g id="node12" class="node">
<title>reject</title>
<polygon fill="#fff0f3" stroke="#e07b91" stroke-width="1.4" points="502.05,-262.47 316.5,-262.47 316.5,-210.69 508.05,-210.69 508.05,-256.47 502.05,-262.47"/>
<polyline fill="none" stroke="#e07b91" stroke-width="1.4" points="502.05,-262.47 502.05,-256.47"/>
<polyline fill="none" stroke="#e07b91" stroke-width="1.4" points="508.05,-256.47 502.05,-256.47"/>
<text xml:space="preserve" text-anchor="middle" x="412.28" y="-240.53" font-family="Noto Sans KR" font-size="14.00" fill="#182033">commit 실패</text>
<text xml:space="preserve" text-anchor="middle" x="412.28" y="-223.28" font-family="Noto Sans KR" font-size="14.00" fill="#182033">mutation 없음 · event 없음</text>
</g>
<!-- commit&#45;&gt;reject -->
<g id="edge12" class="edge">
<title>commit&#45;&gt;reject</title>
<path fill="none" stroke="#dc2626" stroke-width="1.3" stroke-dasharray="5,2" d="M359.98,-355.27C371.93,-328.37 386.27,-296.1 396.91,-272.16"/>
<polygon fill="#dc2626" stroke="#dc2626" stroke-width="1.3" points="399.45,-273.35 400.14,-264.9 394.33,-271.07 399.45,-273.35"/>
<text xml:space="preserve" text-anchor="middle" x="423.75" y="-317.3" font-family="Noto Sans KR" font-size="14.00" fill="#dc2626">version /</text>
<text xml:space="preserve" text-anchor="middle" x="423.75" y="-300.05" font-family="Noto Sans KR" font-size="14.00" fill="#dc2626">invariant fail</text>
</g>
<!-- reaction -->
<g id="node11" class="node">
<title>reaction</title>
<path fill="#f4efff" stroke="#a884e8" stroke-width="1.4" d="M230.68,-151.07C230.68,-151.07 129.88,-151.07 129.88,-151.07 123.88,-151.07 117.88,-145.07 117.88,-139.07 117.88,-139.07 117.88,-94.04 117.88,-94.04 117.88,-88.04 123.88,-82.04 129.88,-82.04 129.88,-82.04 230.68,-82.04 230.68,-82.04 236.68,-82.04 242.68,-88.04 242.68,-94.04 242.68,-94.04 242.68,-139.07 242.68,-139.07 242.68,-145.07 236.68,-151.07 230.68,-151.07"/>
<text xml:space="preserve" text-anchor="middle" x="180.28" y="-129.13" font-family="Noto Sans KR" font-size="14.00" fill="#182033">ReactionQueue</text>
<text xml:space="preserve" text-anchor="middle" x="180.28" y="-111.88" font-family="Noto Sans KR" font-size="14.00" fill="#182033">흡혈 · Burn</text>
<text xml:space="preserve" text-anchor="middle" x="180.28" y="-94.63" font-family="Noto Sans KR" font-size="14.00" fill="#182033">반사 command</text>
</g>
<!-- event&#45;&gt;reaction -->
<g id="edge9" class="edge">
<title>event&#45;&gt;reaction</title>
<path fill="none" stroke="#59687e" stroke-width="1.3" d="M180.28,-201.45C180.28,-188.97 180.28,-174.67 180.28,-161.46"/>
<polygon fill="#59687e" stroke="#59687e" stroke-width="1.3" points="183.08,-161.59 180.28,-153.59 177.48,-161.59 183.08,-161.59"/>
</g>
<!-- end -->
<g id="node13" class="node">
<title>end</title>
<ellipse fill="#ffffff" stroke="#182033" stroke-width="1.4" cx="180.28" cy="-15.52" rx="11.52" ry="11.52"/>
<ellipse fill="none" stroke="#182033" stroke-width="1.4" cx="180.28" cy="-15.52" rx="15.52" ry="15.52"/>
</g>
<!-- reaction&#45;&gt;end -->
<g id="edge10" class="edge">
<title>reaction&#45;&gt;end</title>
<path fill="none" stroke="#59687e" stroke-width="1.3" d="M180.28,-81.47C180.28,-68.32 180.28,-53.55 180.28,-41.42"/>
<polygon fill="#59687e" stroke="#59687e" stroke-width="1.3" points="183.08,-41.52 180.28,-33.52 177.48,-41.52 183.08,-41.52"/>
</g>
</g>
</svg>
