<?xml version="1.0" encoding="UTF-8" standalone="no"?>
<!DOCTYPE svg PUBLIC "-//W3C//DTD SVG 1.1//EN"
 "http://www.w3.org/Graphics/SVG/1.1/DTD/svg11.dtd">
<!-- Generated by graphviz version 15.0.0 (20260523.1842)
 -->
<!-- Title: G Pages: 1 -->
<svg width="1058pt" height="474pt"
 viewBox="9.00 9.00 1050.00 466.00" xmlns="http://www.w3.org/2000/svg" xmlns:xlink="http://www.w3.org/1999/xlink">
<g id="graph0" class="graph" transform="scale(1 1) rotate(0) translate(26.64 447.64)">
<title>G</title>
<polygon fill="#ffffff" stroke="none" points="-18,18 -18,-439 1022.99,-439 1022.99,18 -18,18"/>
<g id="clust1" class="cluster">
<title>cluster_def</title>
<path fill="#ffffff" stroke="#dbe3ef" d="M20,-8C20,-8 165.48,-8 165.48,-8 171.48,-8 177.48,-14 177.48,-20 177.48,-20 177.48,-351 177.48,-351 177.48,-357 171.48,-363 165.48,-363 165.48,-363 20,-363 20,-363 14,-363 8,-357 8,-351 8,-351 8,-20 8,-20 8,-14 14,-8 20,-8"/>
<text xml:space="preserve" text-anchor="middle" x="92.74" y="-346.4" font-family="Noto Sans CJK KR" font-size="14.00">Definition Data</text>
</g>
<g id="clust2" class="cluster">
<title>cluster_runtime</title>
<path fill="#ffffff" stroke="#dbe3ef" d="M282.62,-208C282.62,-208 984.99,-208 984.99,-208 990.99,-208 996.99,-214 996.99,-220 996.99,-220 996.99,-401 996.99,-401 996.99,-407 990.99,-413 984.99,-413 984.99,-413 282.62,-413 282.62,-413 276.62,-413 270.62,-407 270.62,-401 270.62,-401 270.62,-220 270.62,-220 270.62,-214 276.62,-208 282.62,-208"/>
<text xml:space="preserve" text-anchor="middle" x="633.81" y="-396.4" font-family="Noto Sans CJK KR" font-size="14.00">Runtime Data</text>
</g>
<!-- DamageTypeDefinition -->
<g id="node1" class="node">
<title>DamageTypeDefinition</title>
<path fill="#ffffff" stroke="#bac7db" stroke-width="1.4" d="M157.29,-338.08C157.29,-338.08 28.18,-338.08 28.18,-338.08 22.18,-338.08 16.18,-332.08 16.18,-326.08 16.18,-326.08 16.18,-269.92 16.18,-269.92 16.18,-263.92 22.18,-257.92 28.18,-257.92 28.18,-257.92 157.29,-257.92 157.29,-257.92 163.29,-257.92 169.29,-263.92 169.29,-269.92 169.29,-269.92 169.29,-326.08 169.29,-326.08 169.29,-332.08 163.29,-338.08 157.29,-338.08"/>
<text xml:space="preserve" text-anchor="middle" x="92.74" y="-319" font-family="Noto Sans CJK KR" font-size="14.00" fill="#182033">DamageTypeDefinition&#13;</text>
<text xml:space="preserve" text-anchor="middle" x="92.74" y="-302.2" font-family="Noto Sans CJK KR" font-size="14.00" fill="#182033">&#45; id&#13;</text>
<text xml:space="preserve" text-anchor="middle" x="92.74" y="-285.4" font-family="Noto Sans CJK KR" font-size="14.00" fill="#182033">&#45; tags&#13;</text>
<text xml:space="preserve" text-anchor="middle" x="92.74" y="-268.6" font-family="Noto Sans CJK KR" font-size="14.00" fill="#182033">&#45; defaultResistanceStat</text>
</g>
<!-- DamageRequest -->
<g id="node4" class="node">
<title>DamageRequest</title>
<path fill="#ffffff" stroke="#bac7db" stroke-width="1.4" d="M392.3,-388.48C392.3,-388.48 282.62,-388.48 282.62,-388.48 276.62,-388.48 270.62,-382.48 270.62,-376.48 270.62,-376.48 270.62,-219.52 270.62,-219.52 270.62,-213.52 276.62,-207.52 282.62,-207.52 282.62,-207.52 392.3,-207.52 392.3,-207.52 398.3,-207.52 404.3,-213.52 404.3,-219.52 404.3,-219.52 404.3,-376.48 404.3,-376.48 404.3,-382.48 398.3,-388.48 392.3,-388.48"/>
<text xml:space="preserve" text-anchor="middle" x="337.46" y="-369.4" font-family="Noto Sans CJK KR" font-size="14.00" fill="#182033">DamageRequest</text>
<text xml:space="preserve" text-anchor="middle" x="337.46" y="-352.6" font-family="Noto Sans CJK KR" font-size="14.00" fill="#182033">&#45; AttackerId</text>
<text xml:space="preserve" text-anchor="middle" x="337.46" y="-335.8" font-family="Noto Sans CJK KR" font-size="14.00" fill="#182033">&#45; DefenderId</text>
<text xml:space="preserve" text-anchor="middle" x="337.46" y="-319" font-family="Noto Sans CJK KR" font-size="14.00" fill="#182033">&#45; Source: SourceRef</text>
<text xml:space="preserve" text-anchor="middle" x="337.46" y="-302.2" font-family="Noto Sans CJK KR" font-size="14.00" fill="#182033">&#45; FormulaId</text>
<text xml:space="preserve" text-anchor="middle" x="337.46" y="-285.4" font-family="Noto Sans CJK KR" font-size="14.00" fill="#182033">&#45; DamageType</text>
<text xml:space="preserve" text-anchor="middle" x="337.46" y="-268.6" font-family="Noto Sans CJK KR" font-size="14.00" fill="#182033">&#45; BaseValue</text>
<text xml:space="preserve" text-anchor="middle" x="337.46" y="-251.8" font-family="Noto Sans CJK KR" font-size="14.00" fill="#182033">&#45; CoefficientBps</text>
<text xml:space="preserve" text-anchor="middle" x="337.46" y="-235" font-family="Noto Sans CJK KR" font-size="14.00" fill="#182033">&#45; Tags</text>
<text xml:space="preserve" text-anchor="middle" x="337.46" y="-218.2" font-family="Noto Sans CJK KR" font-size="14.00" fill="#182033">&#45; Seed</text>
</g>
<!-- DamageTypeDefinition&#45;&gt;DamageRequest -->
<g id="edge1" class="edge">
<title>DamageTypeDefinition&#45;&gt;DamageRequest</title>
<path fill="none" stroke="#59687e" stroke-width="1.3" d="M169.83,-298C169.83,-298 260.28,-298 260.28,-298"/>
<polygon fill="#59687e" stroke="#59687e" stroke-width="1.3" points="260.28,-300.8 268.28,-298 260.28,-295.2 260.28,-300.8"/>
<text xml:space="preserve" text-anchor="middle" x="224.05" y="-302.2" font-family="Noto Sans CJK KR" font-size="14.00" fill="#46566e">type ref</text>
</g>
<!-- CombatFormulaDefinition -->
<g id="node2" class="node">
<title>CombatFormulaDefinition</title>
<path fill="#ffffff" stroke="#bac7db" stroke-width="1.4" d="M165.48,-221.48C165.48,-221.48 20,-221.48 20,-221.48 14,-221.48 8,-215.48 8,-209.48 8,-209.48 8,-136.52 8,-136.52 8,-130.52 14,-124.52 20,-124.52 20,-124.52 165.48,-124.52 165.48,-124.52 171.48,-124.52 177.48,-130.52 177.48,-136.52 177.48,-136.52 177.48,-209.48 177.48,-209.48 177.48,-215.48 171.48,-221.48 165.48,-221.48"/>
<text xml:space="preserve" text-anchor="middle" x="92.74" y="-202.4" font-family="Noto Sans CJK KR" font-size="14.00" fill="#182033">CombatFormulaDefinition&#13;</text>
<text xml:space="preserve" text-anchor="middle" x="92.74" y="-185.6" font-family="Noto Sans CJK KR" font-size="14.00" fill="#182033">&#45; order&#13;</text>
<text xml:space="preserve" text-anchor="middle" x="92.74" y="-168.8" font-family="Noto Sans CJK KR" font-size="14.00" fill="#182033">&#45; roundingPolicy&#13;</text>
<text xml:space="preserve" text-anchor="middle" x="92.74" y="-152" font-family="Noto Sans CJK KR" font-size="14.00" fill="#182033">&#45; minDamage&#13;</text>
<text xml:space="preserve" text-anchor="middle" x="92.74" y="-135.2" font-family="Noto Sans CJK KR" font-size="14.00" fill="#182033">&#45; clampRule</text>
</g>
<!-- DamageResult -->
<g id="node6" class="node">
<title>DamageResult</title>
<path fill="#ffffff" stroke="#bac7db" stroke-width="1.4" d="M831.01,-338.28C831.01,-338.28 727.95,-338.28 727.95,-338.28 721.95,-338.28 715.95,-332.28 715.95,-326.28 715.95,-326.28 715.95,-219.72 715.95,-219.72 715.95,-213.72 721.95,-207.72 727.95,-207.72 727.95,-207.72 831.01,-207.72 831.01,-207.72 837.01,-207.72 843.01,-213.72 843.01,-219.72 843.01,-219.72 843.01,-326.28 843.01,-326.28 843.01,-332.28 837.01,-338.28 831.01,-338.28"/>
<text xml:space="preserve" text-anchor="middle" x="779.48" y="-319.2" font-family="Noto Sans CJK KR" font-size="14.00" fill="#182033">DamageResult</text>
<text xml:space="preserve" text-anchor="middle" x="779.48" y="-302.4" font-family="Noto Sans CJK KR" font-size="14.00" fill="#182033">&#45; Hit</text>
<text xml:space="preserve" text-anchor="middle" x="779.48" y="-285.6" font-family="Noto Sans CJK KR" font-size="14.00" fill="#182033">&#45; Critical</text>
<text xml:space="preserve" text-anchor="middle" x="779.48" y="-268.8" font-family="Noto Sans CJK KR" font-size="14.00" fill="#182033">&#45; RawDamage</text>
<text xml:space="preserve" text-anchor="middle" x="779.48" y="-252" font-family="Noto Sans CJK KR" font-size="14.00" fill="#182033">&#45; ResolvedDamage</text>
<text xml:space="preserve" text-anchor="middle" x="779.48" y="-235.2" font-family="Noto Sans CJK KR" font-size="14.00" fill="#182033">&#45; ShieldAbsorbed</text>
<text xml:space="preserve" text-anchor="middle" x="779.48" y="-218.4" font-family="Noto Sans CJK KR" font-size="14.00" fill="#182033">&#45; FinalHpDamage</text>
</g>
<!-- CombatFormulaDefinition&#45;&gt;DamageResult -->
<g id="edge2" class="edge">
<title>CombatFormulaDefinition&#45;&gt;DamageResult</title>
<path fill="none" stroke="#59687e" stroke-width="1.3" d="M178.01,-166.02C357.52,-166.02 757.99,-166.02 757.99,-166.02 757.99,-166.02 757.99,-197.11 757.99,-197.11"/>
<polygon fill="#59687e" stroke="#59687e" stroke-width="1.3" points="755.19,-197.11 757.99,-205.11 760.79,-197.11 755.19,-197.11"/>
<text xml:space="preserve" text-anchor="middle" x="479.25" y="-157.2" font-family="Noto Sans CJK KR" font-size="14.00" fill="#46566e">calculation policy</text>
</g>
<!-- ResistanceTable -->
<g id="node3" class="node">
<title>ResistanceTable</title>
<path fill="#ffffff" stroke="#bac7db" stroke-width="1.4" d="M139.61,-88.08C139.61,-88.08 45.87,-88.08 45.87,-88.08 39.87,-88.08 33.87,-82.08 33.87,-76.08 33.87,-76.08 33.87,-19.92 33.87,-19.92 33.87,-13.92 39.87,-7.92 45.87,-7.92 45.87,-7.92 139.61,-7.92 139.61,-7.92 145.61,-7.92 151.61,-13.92 151.61,-19.92 151.61,-19.92 151.61,-76.08 151.61,-76.08 151.61,-82.08 145.61,-88.08 139.61,-88.08"/>
<text xml:space="preserve" text-anchor="middle" x="92.74" y="-69" font-family="Noto Sans CJK KR" font-size="14.00" fill="#182033">ResistanceTable&#13;</text>
<text xml:space="preserve" text-anchor="middle" x="92.74" y="-52.2" font-family="Noto Sans CJK KR" font-size="14.00" fill="#182033">&#45; type&#13;</text>
<text xml:space="preserve" text-anchor="middle" x="92.74" y="-35.4" font-family="Noto Sans CJK KR" font-size="14.00" fill="#182033">&#45; cap&#13;</text>
<text xml:space="preserve" text-anchor="middle" x="92.74" y="-18.6" font-family="Noto Sans CJK KR" font-size="14.00" fill="#182033">&#45; penetrationRule</text>
</g>
<!-- ResistanceTable&#45;&gt;DamageResult -->
<g id="edge3" class="edge">
<title>ResistanceTable&#45;&gt;DamageResult</title>
<path fill="none" stroke="#59687e" stroke-width="1.3" d="M152.21,-48C322.7,-48 800.99,-48 800.99,-48 800.99,-48 800.99,-197.35 800.99,-197.35"/>
<polygon fill="#59687e" stroke="#59687e" stroke-width="1.3" points="798.19,-197.35 800.99,-205.35 803.79,-197.35 798.19,-197.35"/>
<text xml:space="preserve" text-anchor="middle" x="479.25" y="-67.2" font-family="Noto Sans CJK KR" font-size="14.00" fill="#46566e">mitigation policy</text>
</g>
<!-- CombatContext -->
<g id="node5" class="node">
<title>CombatContext</title>
<path fill="#ffffff" stroke="#bac7db" stroke-width="1.4" d="M652.95,-328.08C652.95,-328.08 566.2,-328.08 566.2,-328.08 560.2,-328.08 554.2,-322.08 554.2,-316.08 554.2,-316.08 554.2,-259.92 554.2,-259.92 554.2,-253.92 560.2,-247.92 566.2,-247.92 566.2,-247.92 652.95,-247.92 652.95,-247.92 658.95,-247.92 664.95,-253.92 664.95,-259.92 664.95,-259.92 664.95,-316.08 664.95,-316.08 664.95,-322.08 658.95,-328.08 652.95,-328.08"/>
<text xml:space="preserve" text-anchor="middle" x="609.58" y="-309" font-family="Noto Sans CJK KR" font-size="14.00" fill="#182033">CombatContext&#13;</text>
<text xml:space="preserve" text-anchor="middle" x="609.58" y="-292.2" font-family="Noto Sans CJK KR" font-size="14.00" fill="#182033">&#45; position&#13;</text>
<text xml:space="preserve" text-anchor="middle" x="609.58" y="-275.4" font-family="Noto Sans CJK KR" font-size="14.00" fill="#182033">&#45; tags&#13;</text>
<text xml:space="preserve" text-anchor="middle" x="609.58" y="-258.6" font-family="Noto Sans CJK KR" font-size="14.00" fill="#182033">&#45; randomStream</text>
</g>
<!-- DamageRequest&#45;&gt;CombatContext -->
<g id="edge4" class="edge">
<title>DamageRequest&#45;&gt;CombatContext</title>
<path fill="none" stroke="#59687e" stroke-width="1.3" d="M404.72,-288C404.72,-288 543.66,-288 543.66,-288"/>
<polygon fill="#59687e" stroke="#59687e" stroke-width="1.3" points="543.66,-290.8 551.66,-288 543.66,-285.2 543.66,-290.8"/>
</g>
<!-- CombatContext&#45;&gt;DamageResult -->
<g id="edge5" class="edge">
<title>CombatContext&#45;&gt;DamageResult</title>
<path fill="none" stroke="#59687e" stroke-width="1.3" d="M665.21,-288C665.21,-288 705.5,-288 705.5,-288"/>
<polygon fill="#59687e" stroke="#59687e" stroke-width="1.3" points="705.5,-290.8 713.5,-288 705.5,-285.2 705.5,-290.8"/>
</g>
<!-- CombatLog -->
<g id="node7" class="node">
<title>CombatLog</title>
<path fill="#ffffff" stroke="#bac7db" stroke-width="1.4" d="M984.99,-313.08C984.99,-313.08 906.01,-313.08 906.01,-313.08 900.01,-313.08 894.01,-307.08 894.01,-301.08 894.01,-301.08 894.01,-244.92 894.01,-244.92 894.01,-238.92 900.01,-232.92 906.01,-232.92 906.01,-232.92 984.99,-232.92 984.99,-232.92 990.99,-232.92 996.99,-238.92 996.99,-244.92 996.99,-244.92 996.99,-301.08 996.99,-301.08 996.99,-307.08 990.99,-313.08 984.99,-313.08"/>
<text xml:space="preserve" text-anchor="middle" x="945.5" y="-294" font-family="Noto Sans CJK KR" font-size="14.00" fill="#182033">CombatLog&#13;</text>
<text xml:space="preserve" text-anchor="middle" x="945.5" y="-277.2" font-family="Noto Sans CJK KR" font-size="14.00" fill="#182033">&#45; formulaSteps&#13;</text>
<text xml:space="preserve" text-anchor="middle" x="945.5" y="-260.4" font-family="Noto Sans CJK KR" font-size="14.00" fill="#182033">&#45; statReads&#13;</text>
<text xml:space="preserve" text-anchor="middle" x="945.5" y="-243.6" font-family="Noto Sans CJK KR" font-size="14.00" fill="#182033">&#45; eventIds</text>
</g>
<!-- DamageResult&#45;&gt;CombatLog -->
<g id="edge6" class="edge">
<title>DamageResult&#45;&gt;CombatLog</title>
<path fill="none" stroke="#59687e" stroke-width="1.3" d="M843.67,-273C843.67,-273 883.59,-273 883.59,-273"/>
<polygon fill="#59687e" stroke="#59687e" stroke-width="1.3" points="883.59,-275.8 891.59,-273 883.59,-270.2 883.59,-275.8"/>
</g>
</g>
</svg>
