<?xml version="1.0" encoding="UTF-8" standalone="no"?>
<!DOCTYPE svg PUBLIC "-//W3C//DTD SVG 1.1//EN"
 "http://www.w3.org/Graphics/SVG/1.1/DTD/svg11.dtd">
<!-- Generated by graphviz version 15.0.0 (20260523.1842)
 -->
<!-- Title: G Pages: 1 -->
<svg width="1745pt" height="474pt"
 viewBox="9.00 9.00 1736.00 466.00" xmlns="http://www.w3.org/2000/svg" xmlns:xlink="http://www.w3.org/1999/xlink">
<g id="graph0" class="graph" transform="scale(1 1) rotate(0) translate(26.64 447.64)">
<title>G</title>
<polygon fill="#ffffff" stroke="none" points="-18,18 -18,-439 1709.28,-439 1709.28,18 -18,18"/>
<g id="clust1" class="cluster">
<title>cluster_def</title>
<path fill="#ffffff" stroke="#dbe3ef" d="M20,-8C20,-8 165.48,-8 165.48,-8 171.48,-8 177.48,-14 177.48,-20 177.48,-20 177.48,-351 177.48,-351 177.48,-357 171.48,-363 165.48,-363 165.48,-363 20,-363 20,-363 14,-363 8,-357 8,-351 8,-351 8,-20 8,-20 8,-14 14,-8 20,-8"/>
<text xml:space="preserve" text-anchor="middle" x="92.74" y="-346.4" font-family="Noto Sans CJK KR" font-size="14.00">Definition Data</text>
</g>
<g id="clust2" class="cluster">
<title>cluster_runtime</title>
<path fill="#ffffff" stroke="#dbe3ef" d="M282.62,-208C282.62,-208 1371.74,-208 1371.74,-208 1377.74,-208 1383.74,-214 1383.74,-220 1383.74,-220 1383.74,-401 1383.74,-401 1383.74,-407 1377.74,-413 1371.74,-413 1371.74,-413 282.62,-413 282.62,-413 276.62,-413 270.62,-407 270.62,-401 270.62,-401 270.62,-220 270.62,-220 270.62,-214 276.62,-208 282.62,-208"/>
<text xml:space="preserve" text-anchor="middle" x="827.18" y="-396.4" font-family="Noto Sans CJK KR" font-size="14.00">Resolve Data (immutable)</text>
</g>
<g id="clust3" class="cluster">
<title>cluster_commit</title>
<path fill="#ffffff" stroke="#dbe3ef" d="M1264.37,-103C1264.37,-103 1671.28,-103 1671.28,-103 1677.28,-103 1683.28,-109 1683.28,-115 1683.28,-115 1683.28,-196 1683.28,-196 1683.28,-202 1677.28,-208 1671.28,-208 1671.28,-208 1264.37,-208 1264.37,-208 1258.37,-208 1252.37,-202 1252.37,-196 1252.37,-196 1252.37,-115 1252.37,-115 1252.37,-109 1258.37,-103 1264.37,-103"/>
<text xml:space="preserve" text-anchor="middle" x="1467.82" y="-191.4" font-family="Noto Sans CJK KR" font-size="14.00">Commit Data</text>
</g>
<!-- DamageTypeDefinition -->
<g id="node1" class="node">
<title>DamageTypeDefinition</title>
<path fill="#ffffff" stroke="#bac7db" stroke-width="1.4" d="M157.29,-338.08C157.29,-338.08 28.18,-338.08 28.18,-338.08 22.18,-338.08 16.18,-332.08 16.18,-326.08 16.18,-326.08 16.18,-269.92 16.18,-269.92 16.18,-263.92 22.18,-257.92 28.18,-257.92 28.18,-257.92 157.29,-257.92 157.29,-257.92 163.29,-257.92 169.29,-263.92 169.29,-269.92 169.29,-269.92 169.29,-326.08 169.29,-326.08 169.29,-332.08 163.29,-338.08 157.29,-338.08"/>
<text xml:space="preserve" text-anchor="middle" x="92.74" y="-319" font-family="Noto Sans CJK KR" font-size="14.00" fill="#182033">DamageTypeDefinition</text>
<text xml:space="preserve" text-anchor="middle" x="92.74" y="-302.2" font-family="Noto Sans CJK KR" font-size="14.00" fill="#182033">&#45; id</text>
<text xml:space="preserve" text-anchor="middle" x="92.74" y="-285.4" font-family="Noto Sans CJK KR" font-size="14.00" fill="#182033">&#45; tags</text>
<text xml:space="preserve" text-anchor="middle" x="92.74" y="-268.6" font-family="Noto Sans CJK KR" font-size="14.00" fill="#182033">&#45; defaultResistanceStat</text>
</g>
<!-- DamageRequest -->
<g id="node4" class="node">
<title>DamageRequest</title>
<path fill="#ffffff" stroke="#bac7db" stroke-width="1.4" d="M392.3,-388.48C392.3,-388.48 282.62,-388.48 282.62,-388.48 276.62,-388.48 270.62,-382.48 270.62,-376.48 270.62,-376.48 270.62,-219.52 270.62,-219.52 270.62,-213.52 276.62,-207.52 282.62,-207.52 282.62,-207.52 392.3,-207.52 392.3,-207.52 398.3,-207.52 404.3,-213.52 404.3,-219.52 404.3,-219.52 404.3,-376.48 404.3,-376.48 404.3,-382.48 398.3,-388.48 392.3,-388.48"/>
<text xml:space="preserve" text-anchor="middle" x="337.46" y="-369.4" font-family="Noto Sans CJK KR" font-size="14.00" fill="#182033">DamageRequest</text>
<text xml:space="preserve" text-anchor="middle" x="337.46" y="-352.6" font-family="Noto Sans CJK KR" font-size="14.00" fill="#182033">&#45; AttackerId</text>
<text xml:space="preserve" text-anchor="middle" x="337.46" y="-335.8" font-family="Noto Sans CJK KR" font-size="14.00" fill="#182033">&#45; DefenderId</text>
<text xml:space="preserve" text-anchor="middle" x="337.46" y="-319" font-family="Noto Sans CJK KR" font-size="14.00" fill="#182033">&#45; Source: SourceRef</text>
<text xml:space="preserve" text-anchor="middle" x="337.46" y="-302.2" font-family="Noto Sans CJK KR" font-size="14.00" fill="#182033">&#45; FormulaId</text>
<text xml:space="preserve" text-anchor="middle" x="337.46" y="-285.4" font-family="Noto Sans CJK KR" font-size="14.00" fill="#182033">&#45; DamageType</text>
<text xml:space="preserve" text-anchor="middle" x="337.46" y="-268.6" font-family="Noto Sans CJK KR" font-size="14.00" fill="#182033">&#45; BaseValue</text>
<text xml:space="preserve" text-anchor="middle" x="337.46" y="-251.8" font-family="Noto Sans CJK KR" font-size="14.00" fill="#182033">&#45; CoefficientBps</text>
<text xml:space="preserve" text-anchor="middle" x="337.46" y="-235" font-family="Noto Sans CJK KR" font-size="14.00" fill="#182033">&#45; Tags</text>
<text xml:space="preserve" text-anchor="middle" x="337.46" y="-218.2" font-family="Noto Sans CJK KR" font-size="14.00" fill="#182033">&#45; Seed</text>
</g>
<!-- DamageTypeDefinition&#45;&gt;DamageRequest -->
<g id="edge1" class="edge">
<title>DamageTypeDefinition&#45;&gt;DamageRequest</title>
<path fill="none" stroke="#59687e" stroke-width="1.3" d="M169.83,-298C169.83,-298 260.28,-298 260.28,-298"/>
<polygon fill="#59687e" stroke="#59687e" stroke-width="1.3" points="260.28,-300.8 268.28,-298 260.28,-295.2 260.28,-300.8"/>
<text xml:space="preserve" text-anchor="middle" x="224.05" y="-302.2" font-family="Noto Sans CJK KR" font-size="14.00" fill="#46566e">type ref</text>
</g>
<!-- CombatFormulaDefinition -->
<g id="node2" class="node">
<title>CombatFormulaDefinition</title>
<path fill="#ffffff" stroke="#bac7db" stroke-width="1.4" d="M165.48,-221.48C165.48,-221.48 20,-221.48 20,-221.48 14,-221.48 8,-215.48 8,-209.48 8,-209.48 8,-136.52 8,-136.52 8,-130.52 14,-124.52 20,-124.52 20,-124.52 165.48,-124.52 165.48,-124.52 171.48,-124.52 177.48,-130.52 177.48,-136.52 177.48,-136.52 177.48,-209.48 177.48,-209.48 177.48,-215.48 171.48,-221.48 165.48,-221.48"/>
<text xml:space="preserve" text-anchor="middle" x="92.74" y="-202.4" font-family="Noto Sans CJK KR" font-size="14.00" fill="#182033">CombatFormulaDefinition</text>
<text xml:space="preserve" text-anchor="middle" x="92.74" y="-185.6" font-family="Noto Sans CJK KR" font-size="14.00" fill="#182033">&#45; order</text>
<text xml:space="preserve" text-anchor="middle" x="92.74" y="-168.8" font-family="Noto Sans CJK KR" font-size="14.00" fill="#182033">&#45; roundingPolicy</text>
<text xml:space="preserve" text-anchor="middle" x="92.74" y="-152" font-family="Noto Sans CJK KR" font-size="14.00" fill="#182033">&#45; minDamage</text>
<text xml:space="preserve" text-anchor="middle" x="92.74" y="-135.2" font-family="Noto Sans CJK KR" font-size="14.00" fill="#182033">&#45; clampRule</text>
</g>
<!-- DamageResult -->
<g id="node6" class="node">
<title>DamageResult</title>
<path fill="#ffffff" stroke="#bac7db" stroke-width="1.4" d="M1056.64,-388.48C1056.64,-388.48 856.63,-388.48 856.63,-388.48 850.63,-388.48 844.63,-382.48 844.63,-376.48 844.63,-376.48 844.63,-219.52 844.63,-219.52 844.63,-213.52 850.63,-207.52 856.63,-207.52 856.63,-207.52 1056.64,-207.52 1056.64,-207.52 1062.64,-207.52 1068.64,-213.52 1068.64,-219.52 1068.64,-219.52 1068.64,-376.48 1068.64,-376.48 1068.64,-382.48 1062.64,-388.48 1056.64,-388.48"/>
<text xml:space="preserve" text-anchor="middle" x="956.63" y="-369.4" font-family="Noto Sans CJK KR" font-size="14.00" fill="#182033">DamageResult</text>
<text xml:space="preserve" text-anchor="middle" x="956.63" y="-352.6" font-family="Noto Sans CJK KR" font-size="14.00" fill="#182033">&#45; Outcome: HitOutcome</text>
<text xml:space="preserve" text-anchor="middle" x="956.63" y="-335.8" font-family="Noto Sans CJK KR" font-size="14.00" fill="#182033">&#45; Critical</text>
<text xml:space="preserve" text-anchor="middle" x="956.63" y="-319" font-family="Noto Sans CJK KR" font-size="14.00" fill="#182033">&#45; RawDamage</text>
<text xml:space="preserve" text-anchor="middle" x="956.63" y="-302.2" font-family="Noto Sans CJK KR" font-size="14.00" fill="#182033">&#45; ResolvedDamage</text>
<text xml:space="preserve" text-anchor="middle" x="956.63" y="-285.4" font-family="Noto Sans CJK KR" font-size="14.00" fill="#182033">&#45; ShieldAbsorbed</text>
<text xml:space="preserve" text-anchor="middle" x="956.63" y="-268.6" font-family="Noto Sans CJK KR" font-size="14.00" fill="#182033">&#45; FinalHpDamage</text>
<text xml:space="preserve" text-anchor="middle" x="956.63" y="-251.8" font-family="Noto Sans CJK KR" font-size="14.00" fill="#182033">&#45; Overkill</text>
<text xml:space="preserve" text-anchor="middle" x="956.63" y="-235" font-family="Noto Sans CJK KR" font-size="14.00" fill="#182033">ResolvedDamage = ShieldAbsorbed</text>
<text xml:space="preserve" text-anchor="middle" x="956.63" y="-218.2" font-family="Noto Sans CJK KR" font-size="14.00" fill="#182033">+ FinalHpDamage + Overkill</text>
</g>
<!-- CombatFormulaDefinition&#45;&gt;DamageResult -->
<g id="edge2" class="edge">
<title>CombatFormulaDefinition&#45;&gt;DamageResult</title>
<path fill="none" stroke="#59687e" stroke-width="1.3" d="M177.96,-195.3C402.69,-195.3 994.28,-195.3 994.28,-195.3 994.28,-195.3 994.28,-197.11 994.28,-197.11"/>
<polygon fill="#59687e" stroke="#59687e" stroke-width="1.3" points="991.48,-197.11 994.28,-205.11 997.08,-197.11 991.48,-197.11"/>
<text xml:space="preserve" text-anchor="middle" x="479.25" y="-157.2" font-family="Noto Sans CJK KR" font-size="14.00" fill="#46566e">calculation policy</text>
</g>
<!-- ResistanceTable -->
<g id="node3" class="node">
<title>ResistanceTable</title>
<path fill="#ffffff" stroke="#bac7db" stroke-width="1.4" d="M139.61,-88.08C139.61,-88.08 45.87,-88.08 45.87,-88.08 39.87,-88.08 33.87,-82.08 33.87,-76.08 33.87,-76.08 33.87,-19.92 33.87,-19.92 33.87,-13.92 39.87,-7.92 45.87,-7.92 45.87,-7.92 139.61,-7.92 139.61,-7.92 145.61,-7.92 151.61,-13.92 151.61,-19.92 151.61,-19.92 151.61,-76.08 151.61,-76.08 151.61,-82.08 145.61,-88.08 139.61,-88.08"/>
<text xml:space="preserve" text-anchor="middle" x="92.74" y="-69" font-family="Noto Sans CJK KR" font-size="14.00" fill="#182033">ResistanceTable</text>
<text xml:space="preserve" text-anchor="middle" x="92.74" y="-52.2" font-family="Noto Sans CJK KR" font-size="14.00" fill="#182033">&#45; type</text>
<text xml:space="preserve" text-anchor="middle" x="92.74" y="-35.4" font-family="Noto Sans CJK KR" font-size="14.00" fill="#182033">&#45; cap</text>
<text xml:space="preserve" text-anchor="middle" x="92.74" y="-18.6" font-family="Noto Sans CJK KR" font-size="14.00" fill="#182033">&#45; penetrationRule</text>
</g>
<!-- ResistanceTable&#45;&gt;DamageResult -->
<g id="edge3" class="edge">
<title>ResistanceTable&#45;&gt;DamageResult</title>
<path fill="none" stroke="#59687e" stroke-width="1.3" d="M152.18,-48C341.7,-48 919.28,-48 919.28,-48 919.28,-48 919.28,-197.07 919.28,-197.07"/>
<polygon fill="#59687e" stroke="#59687e" stroke-width="1.3" points="916.48,-197.07 919.28,-205.07 922.08,-197.07 916.48,-197.07"/>
<text xml:space="preserve" text-anchor="middle" x="479.25" y="-67.2" font-family="Noto Sans CJK KR" font-size="14.00" fill="#46566e">mitigation policy</text>
</g>
<!-- CombatContext -->
<g id="node5" class="node">
<title>CombatContext</title>
<path fill="#ffffff" stroke="#bac7db" stroke-width="1.4" d="M781.63,-363.28C781.63,-363.28 566.2,-363.28 566.2,-363.28 560.2,-363.28 554.2,-357.28 554.2,-351.28 554.2,-351.28 554.2,-244.72 554.2,-244.72 554.2,-238.72 560.2,-232.72 566.2,-232.72 566.2,-232.72 781.63,-232.72 781.63,-232.72 787.63,-232.72 793.63,-238.72 793.63,-244.72 793.63,-244.72 793.63,-351.28 793.63,-351.28 793.63,-357.28 787.63,-363.28 781.63,-363.28"/>
<text xml:space="preserve" text-anchor="middle" x="673.92" y="-344.2" font-family="Noto Sans CJK KR" font-size="14.00" fill="#182033">CombatContext</text>
<text xml:space="preserve" text-anchor="middle" x="673.92" y="-327.4" font-family="Noto Sans CJK KR" font-size="14.00" fill="#182033">&#45; frozen stats</text>
<text xml:space="preserve" text-anchor="middle" x="673.92" y="-310.6" font-family="Noto Sans CJK KR" font-size="14.00" fill="#182033">&#45; status tags</text>
<text xml:space="preserve" text-anchor="middle" x="673.92" y="-293.8" font-family="Noto Sans CJK KR" font-size="14.00" fill="#182033">&#45; random stream</text>
<text xml:space="preserve" text-anchor="middle" x="673.92" y="-277" font-family="Noto Sans CJK KR" font-size="14.00" fill="#182033">&#45; resource snapshot</text>
<text xml:space="preserve" text-anchor="middle" x="673.92" y="-260.2" font-family="Noto Sans CJK KR" font-size="14.00" fill="#182033"> &#160;AvailableShield · AvailableTargetHp</text>
<text xml:space="preserve" text-anchor="middle" x="673.92" y="-243.4" font-family="Noto Sans CJK KR" font-size="14.00" fill="#182033">&#45; resource versions</text>
</g>
<!-- DamageRequest&#45;&gt;CombatContext -->
<g id="edge4" class="edge">
<title>DamageRequest&#45;&gt;CombatContext</title>
<path fill="none" stroke="#59687e" stroke-width="1.3" d="M404.74,-298C404.74,-298 543.68,-298 543.68,-298"/>
<polygon fill="#59687e" stroke="#59687e" stroke-width="1.3" points="543.68,-300.8 551.68,-298 543.68,-295.2 543.68,-300.8"/>
</g>
<!-- CombatContext&#45;&gt;DamageResult -->
<g id="edge5" class="edge">
<title>CombatContext&#45;&gt;DamageResult</title>
<path fill="none" stroke="#59687e" stroke-width="1.3" d="M794.22,-298C794.22,-298 834.1,-298 834.1,-298"/>
<polygon fill="#59687e" stroke="#59687e" stroke-width="1.3" points="834.1,-300.8 842.1,-298 834.1,-295.2 834.1,-300.8"/>
</g>
<!-- DebugTrace -->
<g id="node7" class="node">
<title>DebugTrace</title>
<path fill="#ffffff" stroke="#bac7db" stroke-width="1.4" d="M1371.74,-338.08C1371.74,-338.08 1282.26,-338.08 1282.26,-338.08 1276.26,-338.08 1270.26,-332.08 1270.26,-326.08 1270.26,-326.08 1270.26,-269.92 1270.26,-269.92 1270.26,-263.92 1276.26,-257.92 1282.26,-257.92 1282.26,-257.92 1371.74,-257.92 1371.74,-257.92 1377.74,-257.92 1383.74,-263.92 1383.74,-269.92 1383.74,-269.92 1383.74,-326.08 1383.74,-326.08 1383.74,-332.08 1377.74,-338.08 1371.74,-338.08"/>
<text xml:space="preserve" text-anchor="middle" x="1327" y="-319" font-family="Noto Sans CJK KR" font-size="14.00" fill="#182033">DebugTrace</text>
<text xml:space="preserve" text-anchor="middle" x="1327" y="-302.2" font-family="Noto Sans CJK KR" font-size="14.00" fill="#182033">&#45; formulaSteps</text>
<text xml:space="preserve" text-anchor="middle" x="1327" y="-285.4" font-family="Noto Sans CJK KR" font-size="14.00" fill="#182033">&#45; statReads</text>
<text xml:space="preserve" text-anchor="middle" x="1327" y="-268.6" font-family="Noto Sans CJK KR" font-size="14.00" fill="#182033">&#45; RNG decisions</text>
</g>
<!-- DamageResult&#45;&gt;DebugTrace -->
<g id="edge6" class="edge">
<title>DamageResult&#45;&gt;DebugTrace</title>
<path fill="none" stroke="#59687e" stroke-width="1.3" d="M1069.26,-298C1069.26,-298 1259.65,-298 1259.65,-298"/>
<polygon fill="#59687e" stroke="#59687e" stroke-width="1.3" points="1259.65,-300.8 1267.65,-298 1259.65,-295.2 1259.65,-300.8"/>
</g>
<!-- AppliedDamage -->
<g id="node8" class="node">
<title>AppliedDamage</title>
<path fill="#ffffff" stroke="#bac7db" stroke-width="1.4" d="M1389.63,-183.08C1389.63,-183.08 1264.37,-183.08 1264.37,-183.08 1258.37,-183.08 1252.37,-177.08 1252.37,-171.08 1252.37,-171.08 1252.37,-114.92 1252.37,-114.92 1252.37,-108.92 1258.37,-102.92 1264.37,-102.92 1264.37,-102.92 1389.63,-102.92 1389.63,-102.92 1395.63,-102.92 1401.63,-108.92 1401.63,-114.92 1401.63,-114.92 1401.63,-171.08 1401.63,-171.08 1401.63,-177.08 1395.63,-183.08 1389.63,-183.08"/>
<text xml:space="preserve" text-anchor="middle" x="1327" y="-164" font-family="Noto Sans CJK KR" font-size="14.00" fill="#182033">AppliedDamage</text>
<text xml:space="preserve" text-anchor="middle" x="1327" y="-147.2" font-family="Noto Sans CJK KR" font-size="14.00" fill="#182033">&#45; committed Shield/HP</text>
<text xml:space="preserve" text-anchor="middle" x="1327" y="-130.4" font-family="Noto Sans CJK KR" font-size="14.00" fill="#182033">&#45; resulting versions</text>
<text xml:space="preserve" text-anchor="middle" x="1327" y="-113.6" font-family="Noto Sans CJK KR" font-size="14.00" fill="#182033">&#45; event ids</text>
</g>
<!-- DamageResult&#45;&gt;AppliedDamage -->
<g id="edge7" class="edge">
<title>DamageResult&#45;&gt;AppliedDamage</title>
<path fill="none" stroke="#59687e" stroke-width="1.3" d="M1069.21,-232.72C1155.99,-232.72 1261.28,-232.72 1261.28,-232.72 1261.28,-232.72 1261.28,-193.63 1261.28,-193.63"/>
<polygon fill="#59687e" stroke="#59687e" stroke-width="1.3" points="1264.08,-193.63 1261.28,-185.63 1258.48,-193.63 1264.08,-193.63"/>
<text xml:space="preserve" text-anchor="middle" x="1160.5" y="-213.2" font-family="Noto Sans CJK KR" font-size="14.00" fill="#46566e">separate atomic commit</text>
</g>
<!-- Outbox -->
<g id="node9" class="node">
<title>Outbox</title>
<path fill="#ffffff" stroke="#bac7db" stroke-width="1.4" d="M1671.28,-174.68C1671.28,-174.68 1557.32,-174.68 1557.32,-174.68 1551.32,-174.68 1545.32,-168.68 1545.32,-162.68 1545.32,-162.68 1545.32,-123.32 1545.32,-123.32 1545.32,-117.32 1551.32,-111.32 1557.32,-111.32 1557.32,-111.32 1671.28,-111.32 1671.28,-111.32 1677.28,-111.32 1683.28,-117.32 1683.28,-123.32 1683.28,-123.32 1683.28,-162.68 1683.28,-162.68 1683.28,-168.68 1677.28,-174.68 1671.28,-174.68"/>
<text xml:space="preserve" text-anchor="middle" x="1614.3" y="-155.6" font-family="Noto Sans CJK KR" font-size="14.00" fill="#182033">Outbox</text>
<text xml:space="preserve" text-anchor="middle" x="1614.3" y="-138.8" font-family="Noto Sans CJK KR" font-size="14.00" fill="#182033">&#45; DamageCommitted</text>
<text xml:space="preserve" text-anchor="middle" x="1614.3" y="-122" font-family="Noto Sans CJK KR" font-size="14.00" fill="#182033">&#45; EntityDefeated?</text>
</g>
<!-- AppliedDamage&#45;&gt;Outbox -->
<g id="edge8" class="edge">
<title>AppliedDamage&#45;&gt;Outbox</title>
<path fill="none" stroke="#59687e" stroke-width="1.3" d="M1402.11,-143C1402.11,-143 1535.08,-143 1535.08,-143"/>
<polygon fill="#59687e" stroke="#59687e" stroke-width="1.3" points="1535.08,-145.8 1543.08,-143 1535.08,-140.2 1535.08,-145.8"/>
<text xml:space="preserve" text-anchor="middle" x="1473.47" y="-147.2" font-family="Noto Sans CJK KR" font-size="14.00" fill="#46566e">same transaction</text>
</g>
</g>
</svg>
