<?xml version="1.0" encoding="UTF-8" standalone="no"?>
<!DOCTYPE svg PUBLIC "-//W3C//DTD SVG 1.1//EN"
 "http://www.w3.org/Graphics/SVG/1.1/DTD/svg11.dtd">
<!-- Generated by graphviz version 2.42.4 (0)
 -->
<!-- Title: G Pages: 1 -->
<svg width="1125pt" height="396pt"
 viewBox="8.64 8.64 1116.64 387.64" xmlns="http://www.w3.org/2000/svg" xmlns:xlink="http://www.w3.org/1999/xlink">
<g id="graph0" class="graph" transform="scale(1 1) rotate(0) translate(26.64 369.64)">
<title>G</title>
<polygon fill="#ffffff" stroke="transparent" points="-18,18 -18,-361 1090,-361 1090,18 -18,18"/>
<g id="clust1" class="cluster">
<title>cluster_def</title>
<path fill="#ffffff" stroke="#dbe3ef" d="M20,-8C20,-8 185,-8 185,-8 191,-8 197,-14 197,-20 197,-20 197,-323 197,-323 197,-329 191,-335 185,-335 185,-335 20,-335 20,-335 14,-335 8,-329 8,-323 8,-323 8,-20 8,-20 8,-14 14,-8 20,-8"/>
<text text-anchor="middle" x="102.5" y="-319.8" font-family="Noto Sans CJK KR" font-size="14.00">Definition Data</text>
</g>
<g id="clust2" class="cluster">
<title>cluster_runtime</title>
<path fill="#ffffff" stroke="#dbe3ef" d="M309,-215C309,-215 1052,-215 1052,-215 1058,-215 1064,-221 1064,-227 1064,-227 1064,-314 1064,-314 1064,-320 1058,-326 1052,-326 1052,-326 309,-326 309,-326 303,-326 297,-320 297,-314 297,-314 297,-227 297,-227 297,-221 303,-215 309,-215"/>
<text text-anchor="middle" x="680.5" y="-310.8" font-family="Noto Sans CJK KR" font-size="14.00">Runtime Data</text>
</g>
<!-- DamageTypeDefinition -->
<g id="node1" class="node">
<title>DamageTypeDefinition</title>
<path fill="#ffffff" stroke="#bac7db" stroke-width="1.4" d="M175.5,-312C175.5,-312 29.5,-312 29.5,-312 23.5,-312 17.5,-306 17.5,-300 17.5,-300 17.5,-252 17.5,-252 17.5,-246 23.5,-240 29.5,-240 29.5,-240 175.5,-240 175.5,-240 181.5,-240 187.5,-246 187.5,-252 187.5,-252 187.5,-300 187.5,-300 187.5,-306 181.5,-312 175.5,-312"/>
<text text-anchor="middle" x="102.5" y="-294.8" font-family="Noto Sans CJK KR" font-size="14.00" fill="#182033">DamageTypeDefinition</text>
<text text-anchor="middle" x="102.5" y="-279.8" font-family="Noto Sans CJK KR" font-size="14.00" fill="#182033">&#45; id</text>
<text text-anchor="middle" x="102.5" y="-264.8" font-family="Noto Sans CJK KR" font-size="14.00" fill="#182033">&#45; tags</text>
<text text-anchor="middle" x="102.5" y="-249.8" font-family="Noto Sans CJK KR" font-size="14.00" fill="#182033">&#45; defaultResistanceStat</text>
</g>
<!-- DamageRequest -->
<g id="node4" class="node">
<title>DamageRequest</title>
<path fill="#ffffff" stroke="#bac7db" stroke-width="1.4" d="M412,-302.5C412,-302.5 309,-302.5 309,-302.5 303,-302.5 297,-296.5 297,-290.5 297,-290.5 297,-227.5 297,-227.5 297,-221.5 303,-215.5 309,-215.5 309,-215.5 412,-215.5 412,-215.5 418,-215.5 424,-221.5 424,-227.5 424,-227.5 424,-290.5 424,-290.5 424,-296.5 418,-302.5 412,-302.5"/>
<text text-anchor="middle" x="360.5" y="-285.3" font-family="Noto Sans CJK KR" font-size="14.00" fill="#182033">DamageRequest</text>
<text text-anchor="middle" x="360.5" y="-270.3" font-family="Noto Sans CJK KR" font-size="14.00" fill="#182033">&#45; attacker</text>
<text text-anchor="middle" x="360.5" y="-255.3" font-family="Noto Sans CJK KR" font-size="14.00" fill="#182033">&#45; defender</text>
<text text-anchor="middle" x="360.5" y="-240.3" font-family="Noto Sans CJK KR" font-size="14.00" fill="#182033">&#45; baseValue</text>
<text text-anchor="middle" x="360.5" y="-225.3" font-family="Noto Sans CJK KR" font-size="14.00" fill="#182033">&#45; sourceId</text>
</g>
<!-- DamageTypeDefinition&#45;&gt;DamageRequest -->
<g id="edge1" class="edge">
<title>DamageTypeDefinition&#45;&gt;DamageRequest</title>
<path fill="none" stroke="#59687e" stroke-width="1.3" d="M187.69,-271.25C187.69,-271.25 288.65,-271.25 288.65,-271.25"/>
<polygon fill="#59687e" stroke="#59687e" stroke-width="1.3" points="288.65,-274.05 296.65,-271.25 288.65,-268.45 288.65,-274.05"/>
<text text-anchor="middle" x="247" y="-270.8" font-family="Noto Sans CJK KR" font-size="14.00" fill="#46566e">type ref</text>
</g>
<!-- CombatFormulaDefinition -->
<g id="node2" class="node">
<title>CombatFormulaDefinition</title>
<path fill="#ffffff" stroke="#bac7db" stroke-width="1.4" d="M185,-203.5C185,-203.5 20,-203.5 20,-203.5 14,-203.5 8,-197.5 8,-191.5 8,-191.5 8,-128.5 8,-128.5 8,-122.5 14,-116.5 20,-116.5 20,-116.5 185,-116.5 185,-116.5 191,-116.5 197,-122.5 197,-128.5 197,-128.5 197,-191.5 197,-191.5 197,-197.5 191,-203.5 185,-203.5"/>
<text text-anchor="middle" x="102.5" y="-186.3" font-family="Noto Sans CJK KR" font-size="14.00" fill="#182033">CombatFormulaDefinition</text>
<text text-anchor="middle" x="102.5" y="-171.3" font-family="Noto Sans CJK KR" font-size="14.00" fill="#182033">&#45; order</text>
<text text-anchor="middle" x="102.5" y="-156.3" font-family="Noto Sans CJK KR" font-size="14.00" fill="#182033">&#45; roundingPolicy</text>
<text text-anchor="middle" x="102.5" y="-141.3" font-family="Noto Sans CJK KR" font-size="14.00" fill="#182033">&#45; minDamage</text>
<text text-anchor="middle" x="102.5" y="-126.3" font-family="Noto Sans CJK KR" font-size="14.00" fill="#182033">&#45; clampRule</text>
</g>
<!-- DamageResult -->
<g id="node6" class="node">
<title>DamageResult</title>
<path fill="#ffffff" stroke="#bac7db" stroke-width="1.4" d="M885,-302.5C885,-302.5 779,-302.5 779,-302.5 773,-302.5 767,-296.5 767,-290.5 767,-290.5 767,-227.5 767,-227.5 767,-221.5 773,-215.5 779,-215.5 779,-215.5 885,-215.5 885,-215.5 891,-215.5 897,-221.5 897,-227.5 897,-227.5 897,-290.5 897,-290.5 897,-296.5 891,-302.5 885,-302.5"/>
<text text-anchor="middle" x="832" y="-285.3" font-family="Noto Sans CJK KR" font-size="14.00" fill="#182033">DamageResult</text>
<text text-anchor="middle" x="832" y="-270.3" font-family="Noto Sans CJK KR" font-size="14.00" fill="#182033">&#45; finalDamage</text>
<text text-anchor="middle" x="832" y="-255.3" font-family="Noto Sans CJK KR" font-size="14.00" fill="#182033">&#45; hit</text>
<text text-anchor="middle" x="832" y="-240.3" font-family="Noto Sans CJK KR" font-size="14.00" fill="#182033">&#45; critical</text>
<text text-anchor="middle" x="832" y="-225.3" font-family="Noto Sans CJK KR" font-size="14.00" fill="#182033">&#45; shieldAbsorbed</text>
</g>
<!-- CombatFormulaDefinition&#45;&gt;DamageResult -->
<g id="edge2" class="edge">
<title>CombatFormulaDefinition&#45;&gt;DamageResult</title>
<path fill="none" stroke="#59687e" stroke-width="1.3" d="M197.32,-160C390.38,-160 811,-160 811,-160 811,-160 811,-207.29 811,-207.29"/>
<polygon fill="#59687e" stroke="#59687e" stroke-width="1.3" points="808.2,-207.29 811,-215.29 813.8,-207.29 808.2,-207.29"/>
<text text-anchor="middle" x="506.5" y="-163.8" font-family="Noto Sans CJK KR" font-size="14.00" fill="#46566e">calculation policy</text>
</g>
<!-- ResistanceTable -->
<g id="node3" class="node">
<title>ResistanceTable</title>
<path fill="#ffffff" stroke="#bac7db" stroke-width="1.4" d="M156.5,-80C156.5,-80 48.5,-80 48.5,-80 42.5,-80 36.5,-74 36.5,-68 36.5,-68 36.5,-20 36.5,-20 36.5,-14 42.5,-8 48.5,-8 48.5,-8 156.5,-8 156.5,-8 162.5,-8 168.5,-14 168.5,-20 168.5,-20 168.5,-68 168.5,-68 168.5,-74 162.5,-80 156.5,-80"/>
<text text-anchor="middle" x="102.5" y="-62.8" font-family="Noto Sans CJK KR" font-size="14.00" fill="#182033">ResistanceTable</text>
<text text-anchor="middle" x="102.5" y="-47.8" font-family="Noto Sans CJK KR" font-size="14.00" fill="#182033">&#45; type</text>
<text text-anchor="middle" x="102.5" y="-32.8" font-family="Noto Sans CJK KR" font-size="14.00" fill="#182033">&#45; cap</text>
<text text-anchor="middle" x="102.5" y="-17.8" font-family="Noto Sans CJK KR" font-size="14.00" fill="#182033">&#45; penetrationRule</text>
</g>
<!-- ResistanceTable&#45;&gt;DamageResult -->
<g id="edge3" class="edge">
<title>ResistanceTable&#45;&gt;DamageResult</title>
<path fill="none" stroke="#59687e" stroke-width="1.3" d="M168.53,-44C351.91,-44 854,-44 854,-44 854,-44 854,-207.49 854,-207.49"/>
<polygon fill="#59687e" stroke="#59687e" stroke-width="1.3" points="851.2,-207.49 854,-215.49 856.8,-207.49 851.2,-207.49"/>
<text text-anchor="middle" x="506.5" y="-68.8" font-family="Noto Sans CJK KR" font-size="14.00" fill="#46566e">mitigation policy</text>
</g>
<!-- CombatContext -->
<g id="node5" class="node">
<title>CombatContext</title>
<path fill="#ffffff" stroke="#bac7db" stroke-width="1.4" d="M704,-295C704,-295 601,-295 601,-295 595,-295 589,-289 589,-283 589,-283 589,-235 589,-235 589,-229 595,-223 601,-223 601,-223 704,-223 704,-223 710,-223 716,-229 716,-235 716,-235 716,-283 716,-283 716,-289 710,-295 704,-295"/>
<text text-anchor="middle" x="652.5" y="-277.8" font-family="Noto Sans CJK KR" font-size="14.00" fill="#182033">CombatContext</text>
<text text-anchor="middle" x="652.5" y="-262.8" font-family="Noto Sans CJK KR" font-size="14.00" fill="#182033">&#45; position</text>
<text text-anchor="middle" x="652.5" y="-247.8" font-family="Noto Sans CJK KR" font-size="14.00" fill="#182033">&#45; tags</text>
<text text-anchor="middle" x="652.5" y="-232.8" font-family="Noto Sans CJK KR" font-size="14.00" fill="#182033">&#45; randomStream</text>
</g>
<!-- DamageRequest&#45;&gt;CombatContext -->
<g id="edge4" class="edge">
<title>DamageRequest&#45;&gt;CombatContext</title>
<path fill="none" stroke="#59687e" stroke-width="1.3" d="M424.22,-259C424.22,-259 580.92,-259 580.92,-259"/>
<polygon fill="#59687e" stroke="#59687e" stroke-width="1.3" points="580.92,-261.8 588.92,-259 580.92,-256.2 580.92,-261.8"/>
</g>
<!-- CombatContext&#45;&gt;DamageResult -->
<g id="edge5" class="edge">
<title>CombatContext&#45;&gt;DamageResult</title>
<path fill="none" stroke="#59687e" stroke-width="1.3" d="M716.04,-259C716.04,-259 758.73,-259 758.73,-259"/>
<polygon fill="#59687e" stroke="#59687e" stroke-width="1.3" points="758.73,-261.8 766.73,-259 758.73,-256.2 758.73,-261.8"/>
</g>
<!-- CombatLog -->
<g id="node7" class="node">
<title>CombatLog</title>
<path fill="#ffffff" stroke="#bac7db" stroke-width="1.4" d="M1052,-295C1052,-295 960,-295 960,-295 954,-295 948,-289 948,-283 948,-283 948,-235 948,-235 948,-229 954,-223 960,-223 960,-223 1052,-223 1052,-223 1058,-223 1064,-229 1064,-235 1064,-235 1064,-283 1064,-283 1064,-289 1058,-295 1052,-295"/>
<text text-anchor="middle" x="1006" y="-277.8" font-family="Noto Sans CJK KR" font-size="14.00" fill="#182033">CombatLog</text>
<text text-anchor="middle" x="1006" y="-262.8" font-family="Noto Sans CJK KR" font-size="14.00" fill="#182033">&#45; formulaSteps</text>
<text text-anchor="middle" x="1006" y="-247.8" font-family="Noto Sans CJK KR" font-size="14.00" fill="#182033">&#45; statReads</text>
<text text-anchor="middle" x="1006" y="-232.8" font-family="Noto Sans CJK KR" font-size="14.00" fill="#182033">&#45; eventIds</text>
</g>
<!-- DamageResult&#45;&gt;CombatLog -->
<g id="edge6" class="edge">
<title>DamageResult&#45;&gt;CombatLog</title>
<path fill="none" stroke="#59687e" stroke-width="1.3" d="M897.29,-259C897.29,-259 939.79,-259 939.79,-259"/>
<polygon fill="#59687e" stroke="#59687e" stroke-width="1.3" points="939.79,-261.8 947.79,-259 939.79,-256.2 939.79,-261.8"/>
</g>
</g>
</svg>
