<?xml version="1.0" encoding="UTF-8" standalone="no"?>
<!DOCTYPE svg PUBLIC "-//W3C//DTD SVG 1.1//EN"
 "http://www.w3.org/Graphics/SVG/1.1/DTD/svg11.dtd">
<!-- Generated by graphviz version 15.1.0 (20260618.0150)
 -->
<!-- Title: G Pages: 1 -->
<svg width="2552pt" height="659pt"
 viewBox="12.00 12.00 2541.00 648.00" xmlns="http://www.w3.org/2000/svg" xmlns:xlink="http://www.w3.org/1999/xlink">
<g id="graph0" class="graph" transform="scale(1.33333 1.33333) rotate(0) translate(26.64 467.64)">
<title>G</title>
<polygon fill="#ffffff" stroke="none" points="-18,18 -18,-459 1878.96,-459 1878.96,18 -18,18"/>
<g id="clust1" class="cluster">
<title>cluster_def</title>
<path fill="#ffffff" stroke="#dbe3ef" d="M20,-8C20,-8 178.91,-8 178.91,-8 184.91,-8 190.91,-14 190.91,-20 190.91,-20 190.91,-369 190.91,-369 190.91,-375 184.91,-381 178.91,-381 178.91,-381 20,-381 20,-381 14,-381 8,-375 8,-369 8,-369 8,-20 8,-20 8,-14 14,-8 20,-8"/>
<text xml:space="preserve" text-anchor="middle" x="99.45" y="-363.7" font-family="Noto Sans KR" font-size="14.00">Definition Data</text>
</g>
<g id="clust2" class="cluster">
<title>cluster_runtime</title>
<path fill="#ffffff" stroke="#dbe3ef" d="M304.66,-222C304.66,-222 1491.05,-222 1491.05,-222 1497.05,-222 1503.05,-228 1503.05,-234 1503.05,-234 1503.05,-421 1503.05,-421 1503.05,-427 1497.05,-433 1491.05,-433 1491.05,-433 304.66,-433 304.66,-433 298.66,-433 292.66,-427 292.66,-421 292.66,-421 292.66,-234 292.66,-234 292.66,-228 298.66,-222 304.66,-222"/>
<text xml:space="preserve" text-anchor="middle" x="897.85" y="-415.7" font-family="Noto Sans KR" font-size="14.00">Resolve Data (immutable)</text>
</g>
<g id="clust3" class="cluster">
<title>cluster_commit</title>
<path fill="#ffffff" stroke="#dbe3ef" d="M1362.14,-115C1362.14,-115 1840.96,-115 1840.96,-115 1846.96,-115 1852.96,-121 1852.96,-127 1852.96,-127 1852.96,-210 1852.96,-210 1852.96,-216 1846.96,-222 1840.96,-222 1840.96,-222 1362.14,-222 1362.14,-222 1356.14,-222 1350.14,-216 1350.14,-210 1350.14,-210 1350.14,-127 1350.14,-127 1350.14,-121 1356.14,-115 1362.14,-115"/>
<text xml:space="preserve" text-anchor="middle" x="1601.55" y="-204.7" font-family="Noto Sans KR" font-size="14.00">Commit Data</text>
</g>
<!-- DamageTypeDefinition -->
<g id="node1" class="node">
<title>DamageTypeDefinition</title>
<path fill="#ffffff" stroke="#bac7db" stroke-width="1.4" d="M168.41,-355.98C168.41,-355.98 30.5,-355.98 30.5,-355.98 24.5,-355.98 18.5,-349.98 18.5,-343.98 18.5,-343.98 18.5,-286.02 18.5,-286.02 18.5,-280.02 24.5,-274.02 30.5,-274.02 30.5,-274.02 168.41,-274.02 168.41,-274.02 174.41,-274.02 180.41,-280.02 180.41,-286.02 180.41,-286.02 180.41,-343.98 180.41,-343.98 180.41,-349.98 174.41,-355.98 168.41,-355.98"/>
<text xml:space="preserve" text-anchor="middle" x="99.45" y="-336.2" font-family="Noto Sans KR" font-size="14.00" fill="#182033">DamageTypeDefinition</text>
<text xml:space="preserve" text-anchor="middle" x="99.45" y="-318.95" font-family="Noto Sans KR" font-size="14.00" fill="#182033">&#45; id</text>
<text xml:space="preserve" text-anchor="middle" x="99.45" y="-301.7" font-family="Noto Sans KR" font-size="14.00" fill="#182033">&#45; tags</text>
<text xml:space="preserve" text-anchor="middle" x="99.45" y="-284.45" font-family="Noto Sans KR" font-size="14.00" fill="#182033">&#45; defaultResistanceStat</text>
</g>
<!-- DamageRequest -->
<g id="node4" class="node">
<title>DamageRequest</title>
<path fill="#ffffff" stroke="#bac7db" stroke-width="1.4" d="M420.82,-407.73C420.82,-407.73 304.66,-407.73 304.66,-407.73 298.66,-407.73 292.66,-401.73 292.66,-395.73 292.66,-395.73 292.66,-234.27 292.66,-234.27 292.66,-228.27 298.66,-222.27 304.66,-222.27 304.66,-222.27 420.82,-222.27 420.82,-222.27 426.82,-222.27 432.82,-228.27 432.82,-234.27 432.82,-234.27 432.82,-395.73 432.82,-395.73 432.82,-401.73 426.82,-407.73 420.82,-407.73"/>
<text xml:space="preserve" text-anchor="middle" x="362.74" y="-387.95" font-family="Noto Sans KR" font-size="14.00" fill="#182033">DamageRequest</text>
<text xml:space="preserve" text-anchor="middle" x="362.74" y="-370.7" font-family="Noto Sans KR" font-size="14.00" fill="#182033">&#45; AttackerId</text>
<text xml:space="preserve" text-anchor="middle" x="362.74" y="-353.45" font-family="Noto Sans KR" font-size="14.00" fill="#182033">&#45; DefenderId</text>
<text xml:space="preserve" text-anchor="middle" x="362.74" y="-336.2" font-family="Noto Sans KR" font-size="14.00" fill="#182033">&#45; Source: SourceRef</text>
<text xml:space="preserve" text-anchor="middle" x="362.74" y="-318.95" font-family="Noto Sans KR" font-size="14.00" fill="#182033">&#45; FormulaId</text>
<text xml:space="preserve" text-anchor="middle" x="362.74" y="-301.7" font-family="Noto Sans KR" font-size="14.00" fill="#182033">&#45; DamageType</text>
<text xml:space="preserve" text-anchor="middle" x="362.74" y="-284.45" font-family="Noto Sans KR" font-size="14.00" fill="#182033">&#45; BaseValue</text>
<text xml:space="preserve" text-anchor="middle" x="362.74" y="-267.2" font-family="Noto Sans KR" font-size="14.00" fill="#182033">&#45; CoefficientBps</text>
<text xml:space="preserve" text-anchor="middle" x="362.74" y="-249.95" font-family="Noto Sans KR" font-size="14.00" fill="#182033">&#45; Tags</text>
<text xml:space="preserve" text-anchor="middle" x="362.74" y="-232.7" font-family="Noto Sans KR" font-size="14.00" fill="#182033">&#45; Seed</text>
</g>
<!-- DamageTypeDefinition&#45;&gt;DamageRequest -->
<g id="edge1" class="edge">
<title>DamageTypeDefinition&#45;&gt;DamageRequest</title>
<path fill="none" stroke="#59687e" stroke-width="1.3" d="M180.98,-315C213.19,-315 250.18,-315 282.28,-315"/>
<polygon fill="#59687e" stroke="#59687e" stroke-width="1.3" points="282.11,-317.8 290.11,-315 282.11,-312.2 282.11,-317.8"/>
<text xml:space="preserve" text-anchor="middle" x="241.78" y="-318.95" font-family="Noto Sans KR" font-size="14.00" fill="#46566e">type ref</text>
</g>
<!-- CombatFormulaDefinition -->
<g id="node2" class="node">
<title>CombatFormulaDefinition</title>
<path fill="#ffffff" stroke="#bac7db" stroke-width="1.4" d="M178.91,-231.6C178.91,-231.6 20,-231.6 20,-231.6 14,-231.6 8,-225.6 8,-219.6 8,-219.6 8,-144.4 8,-144.4 8,-138.4 14,-132.4 20,-132.4 20,-132.4 178.91,-132.4 178.91,-132.4 184.91,-132.4 190.91,-138.4 190.91,-144.4 190.91,-144.4 190.91,-219.6 190.91,-219.6 190.91,-225.6 184.91,-231.6 178.91,-231.6"/>
<text xml:space="preserve" text-anchor="middle" x="99.45" y="-211.82" font-family="Noto Sans KR" font-size="14.00" fill="#182033">CombatFormulaDefinition</text>
<text xml:space="preserve" text-anchor="middle" x="99.45" y="-194.57" font-family="Noto Sans KR" font-size="14.00" fill="#182033">&#45; order</text>
<text xml:space="preserve" text-anchor="middle" x="99.45" y="-177.32" font-family="Noto Sans KR" font-size="14.00" fill="#182033">&#45; roundingPolicy</text>
<text xml:space="preserve" text-anchor="middle" x="99.45" y="-160.07" font-family="Noto Sans KR" font-size="14.00" fill="#182033">&#45; minDamage</text>
<text xml:space="preserve" text-anchor="middle" x="99.45" y="-142.82" font-family="Noto Sans KR" font-size="14.00" fill="#182033">&#45; clampRule</text>
</g>
<!-- DamageResult -->
<g id="node6" class="node">
<title>DamageResult</title>
<path fill="#ffffff" stroke="#bac7db" stroke-width="1.4" d="M1130.64,-407.73C1130.64,-407.73 913.98,-407.73 913.98,-407.73 907.98,-407.73 901.98,-401.73 901.98,-395.73 901.98,-395.73 901.98,-234.27 901.98,-234.27 901.98,-228.27 907.98,-222.27 913.98,-222.27 913.98,-222.27 1130.64,-222.27 1130.64,-222.27 1136.64,-222.27 1142.64,-228.27 1142.64,-234.27 1142.64,-234.27 1142.64,-395.73 1142.64,-395.73 1142.64,-401.73 1136.64,-407.73 1130.64,-407.73"/>
<text xml:space="preserve" text-anchor="middle" x="1022.31" y="-387.95" font-family="Noto Sans KR" font-size="14.00" fill="#182033">DamageResult</text>
<text xml:space="preserve" text-anchor="middle" x="1022.31" y="-370.7" font-family="Noto Sans KR" font-size="14.00" fill="#182033">&#45; Outcome: HitOutcome</text>
<text xml:space="preserve" text-anchor="middle" x="1022.31" y="-353.45" font-family="Noto Sans KR" font-size="14.00" fill="#182033">&#45; Critical</text>
<text xml:space="preserve" text-anchor="middle" x="1022.31" y="-336.2" font-family="Noto Sans KR" font-size="14.00" fill="#182033">&#45; RawDamage</text>
<text xml:space="preserve" text-anchor="middle" x="1022.31" y="-318.95" font-family="Noto Sans KR" font-size="14.00" fill="#182033">&#45; ResolvedDamage</text>
<text xml:space="preserve" text-anchor="middle" x="1022.31" y="-301.7" font-family="Noto Sans KR" font-size="14.00" fill="#182033">&#45; ShieldAbsorbed</text>
<text xml:space="preserve" text-anchor="middle" x="1022.31" y="-284.45" font-family="Noto Sans KR" font-size="14.00" fill="#182033">&#45; FinalHpDamage</text>
<text xml:space="preserve" text-anchor="middle" x="1022.31" y="-267.2" font-family="Noto Sans KR" font-size="14.00" fill="#182033">&#45; Overkill</text>
<text xml:space="preserve" text-anchor="middle" x="1022.31" y="-249.95" font-family="Noto Sans KR" font-size="14.00" fill="#182033">ResolvedDamage = ShieldAbsorbed</text>
<text xml:space="preserve" text-anchor="middle" x="1022.31" y="-232.7" font-family="Noto Sans KR" font-size="14.00" fill="#182033">+ FinalHpDamage + Overkill</text>
</g>
<!-- CombatFormulaDefinition&#45;&gt;DamageResult -->
<g id="edge2" class="edge">
<title>CombatFormulaDefinition&#45;&gt;DamageResult</title>
<path fill="none" stroke="#59687e" stroke-width="1.3" d="M191.28,-187.19C289.68,-192.82 432.82,-201 432.82,-201 432.82,-201 844.98,-227 844.98,-227 844.98,-227 865.77,-237.38 893.08,-251"/>
<polygon fill="#59687e" stroke="#59687e" stroke-width="1.3" points="891.57,-253.38 899.98,-254.45 894.07,-248.37 891.57,-253.38"/>
<text xml:space="preserve" text-anchor="middle" x="515.57" y="-213.53" font-family="Noto Sans KR" font-size="14.00" fill="#46566e">calculation policy</text>
</g>
<!-- ResistanceTable -->
<g id="node3" class="node">
<title>ResistanceTable</title>
<path fill="#ffffff" stroke="#bac7db" stroke-width="1.4" d="M151.53,-89.98C151.53,-89.98 47.37,-89.98 47.37,-89.98 41.37,-89.98 35.37,-83.98 35.37,-77.98 35.37,-77.98 35.37,-20.02 35.37,-20.02 35.37,-14.02 41.37,-8.02 47.37,-8.02 47.37,-8.02 151.53,-8.02 151.53,-8.02 157.53,-8.02 163.53,-14.02 163.53,-20.02 163.53,-20.02 163.53,-77.98 163.53,-77.98 163.53,-83.98 157.53,-89.98 151.53,-89.98"/>
<text xml:space="preserve" text-anchor="middle" x="99.45" y="-70.2" font-family="Noto Sans KR" font-size="14.00" fill="#182033">ResistanceTable</text>
<text xml:space="preserve" text-anchor="middle" x="99.45" y="-52.95" font-family="Noto Sans KR" font-size="14.00" fill="#182033">&#45; type</text>
<text xml:space="preserve" text-anchor="middle" x="99.45" y="-35.7" font-family="Noto Sans KR" font-size="14.00" fill="#182033">&#45; cap</text>
<text xml:space="preserve" text-anchor="middle" x="99.45" y="-18.45" font-family="Noto Sans KR" font-size="14.00" fill="#182033">&#45; penetrationRule</text>
</g>
<!-- ResistanceTable&#45;&gt;DamageResult -->
<g id="edge3" class="edge">
<title>ResistanceTable&#45;&gt;DamageResult</title>
<path fill="none" stroke="#59687e" stroke-width="1.3" d="M163.93,-62.04C343.98,-99.04 844.98,-202 844.98,-202 844.98,-202 865.95,-215.44 893.43,-233.05"/>
<polygon fill="#59687e" stroke="#59687e" stroke-width="1.3" points="891.84,-235.36 900.09,-237.31 894.86,-230.64 891.84,-235.36"/>
<text xml:space="preserve" text-anchor="middle" x="515.57" y="-148.68" font-family="Noto Sans KR" font-size="14.00" fill="#46566e">mitigation policy</text>
</g>
<!-- CombatContext -->
<g id="node5" class="node">
<title>CombatContext</title>
<path fill="#ffffff" stroke="#bac7db" stroke-width="1.4" d="M832.98,-381.86C832.98,-381.86 610.32,-381.86 610.32,-381.86 604.32,-381.86 598.32,-375.86 598.32,-369.86 598.32,-369.86 598.32,-260.14 598.32,-260.14 598.32,-254.14 604.32,-248.14 610.32,-248.14 610.32,-248.14 832.98,-248.14 832.98,-248.14 838.98,-248.14 844.98,-254.14 844.98,-260.14 844.98,-260.14 844.98,-369.86 844.98,-369.86 844.98,-375.86 838.98,-381.86 832.98,-381.86"/>
<text xml:space="preserve" text-anchor="middle" x="721.65" y="-362.07" font-family="Noto Sans KR" font-size="14.00" fill="#182033">CombatContext</text>
<text xml:space="preserve" text-anchor="middle" x="721.65" y="-344.82" font-family="Noto Sans KR" font-size="14.00" fill="#182033">&#45; frozen stats</text>
<text xml:space="preserve" text-anchor="middle" x="721.65" y="-327.57" font-family="Noto Sans KR" font-size="14.00" fill="#182033">&#45; status tags</text>
<text xml:space="preserve" text-anchor="middle" x="721.65" y="-310.32" font-family="Noto Sans KR" font-size="14.00" fill="#182033">&#45; random stream</text>
<text xml:space="preserve" text-anchor="middle" x="721.65" y="-293.07" font-family="Noto Sans KR" font-size="14.00" fill="#182033">&#45; resource snapshot</text>
<text xml:space="preserve" text-anchor="middle" x="721.65" y="-275.82" font-family="Noto Sans KR" font-size="14.00" fill="#182033"> &#160;AvailableShield · AvailableTargetHp</text>
<text xml:space="preserve" text-anchor="middle" x="721.65" y="-258.57" font-family="Noto Sans KR" font-size="14.00" fill="#182033">&#45; resource versions</text>
</g>
<!-- DamageRequest&#45;&gt;CombatContext -->
<g id="edge4" class="edge">
<title>DamageRequest&#45;&gt;CombatContext</title>
<path fill="none" stroke="#59687e" stroke-width="1.3" d="M433.4,-315C477.33,-315 535.47,-315 587.96,-315"/>
<polygon fill="#59687e" stroke="#59687e" stroke-width="1.3" points="587.72,-317.8 595.72,-315 587.72,-312.2 587.72,-317.8"/>
</g>
<!-- CombatContext&#45;&gt;DamageResult -->
<g id="edge5" class="edge">
<title>CombatContext&#45;&gt;DamageResult</title>
<path fill="none" stroke="#59687e" stroke-width="1.3" d="M845.42,-315C860.74,-315 876.45,-315 891.87,-315"/>
<polygon fill="#59687e" stroke="#59687e" stroke-width="1.3" points="891.46,-317.8 899.46,-315 891.46,-312.2 891.46,-317.8"/>
</g>
<!-- DebugTrace -->
<g id="node7" class="node">
<title>DebugTrace</title>
<path fill="#ffffff" stroke="#bac7db" stroke-width="1.4" d="M1491.05,-355.98C1491.05,-355.98 1398.89,-355.98 1398.89,-355.98 1392.89,-355.98 1386.89,-349.98 1386.89,-343.98 1386.89,-343.98 1386.89,-286.02 1386.89,-286.02 1386.89,-280.02 1392.89,-274.02 1398.89,-274.02 1398.89,-274.02 1491.05,-274.02 1491.05,-274.02 1497.05,-274.02 1503.05,-280.02 1503.05,-286.02 1503.05,-286.02 1503.05,-343.98 1503.05,-343.98 1503.05,-349.98 1497.05,-355.98 1491.05,-355.98"/>
<text xml:space="preserve" text-anchor="middle" x="1444.97" y="-336.2" font-family="Noto Sans KR" font-size="14.00" fill="#182033">DebugTrace</text>
<text xml:space="preserve" text-anchor="middle" x="1444.97" y="-318.95" font-family="Noto Sans KR" font-size="14.00" fill="#182033">&#45; formulaSteps</text>
<text xml:space="preserve" text-anchor="middle" x="1444.97" y="-301.7" font-family="Noto Sans KR" font-size="14.00" fill="#182033">&#45; statReads</text>
<text xml:space="preserve" text-anchor="middle" x="1444.97" y="-284.45" font-family="Noto Sans KR" font-size="14.00" fill="#182033">&#45; RNG decisions</text>
</g>
<!-- DamageResult&#45;&gt;DebugTrace -->
<g id="edge6" class="edge">
<title>DamageResult&#45;&gt;DebugTrace</title>
<path fill="none" stroke="#59687e" stroke-width="1.3" d="M1143.29,-315C1218.9,-315 1313.74,-315 1376.46,-315"/>
<polygon fill="#59687e" stroke="#59687e" stroke-width="1.3" points="1376.28,-317.8 1384.28,-315 1376.28,-312.2 1376.28,-317.8"/>
</g>
<!-- CommitReceipt -->
<g id="node8" class="node">
<title>CommitReceipt</title>
<path fill="#ffffff" stroke="#bac7db" stroke-width="1.4" d="M1527.8,-196.98C1527.8,-196.98 1362.14,-196.98 1362.14,-196.98 1356.14,-196.98 1350.14,-190.98 1350.14,-184.98 1350.14,-184.98 1350.14,-127.02 1350.14,-127.02 1350.14,-121.02 1356.14,-115.02 1362.14,-115.02 1362.14,-115.02 1527.8,-115.02 1527.8,-115.02 1533.8,-115.02 1539.8,-121.02 1539.8,-127.02 1539.8,-127.02 1539.8,-184.98 1539.8,-184.98 1539.8,-190.98 1533.8,-196.98 1527.8,-196.98"/>
<text xml:space="preserve" text-anchor="middle" x="1444.97" y="-177.2" font-family="Noto Sans KR" font-size="14.00" fill="#182033">CommitReceipt</text>
<text xml:space="preserve" text-anchor="middle" x="1444.97" y="-159.95" font-family="Noto Sans KR" font-size="14.00" fill="#182033">&#45; commit status</text>
<text xml:space="preserve" text-anchor="middle" x="1444.97" y="-142.7" font-family="Noto Sans KR" font-size="14.00" fill="#182033">&#45; committed state snapshot</text>
<text xml:space="preserve" text-anchor="middle" x="1444.97" y="-125.45" font-family="Noto Sans KR" font-size="14.00" fill="#182033">&#45; ordered outbox events</text>
</g>
<!-- DamageResult&#45;&gt;CommitReceipt -->
<g id="edge7" class="edge">
<title>DamageResult&#45;&gt;CommitReceipt</title>
<path fill="none" stroke="#59687e" stroke-width="1.3" d="M1143.29,-269.65C1205.54,-246.12 1280.83,-217.66 1340.49,-195.11"/>
<polygon fill="#59687e" stroke="#59687e" stroke-width="1.3" points="1341.22,-197.83 1347.72,-192.38 1339.24,-192.59 1341.22,-197.83"/>
<text xml:space="preserve" text-anchor="middle" x="1246.39" y="-262.98" font-family="Noto Sans KR" font-size="14.00" fill="#46566e">separate atomic commit</text>
</g>
<!-- Outbox -->
<g id="node9" class="node">
<title>Outbox</title>
<path fill="#ffffff" stroke="#bac7db" stroke-width="1.4" d="M1840.96,-189.35C1840.96,-189.35 1714.3,-189.35 1714.3,-189.35 1708.3,-189.35 1702.3,-183.35 1702.3,-177.35 1702.3,-177.35 1702.3,-136.65 1702.3,-136.65 1702.3,-130.65 1708.3,-124.65 1714.3,-124.65 1714.3,-124.65 1840.96,-124.65 1840.96,-124.65 1846.96,-124.65 1852.96,-130.65 1852.96,-136.65 1852.96,-136.65 1852.96,-177.35 1852.96,-177.35 1852.96,-183.35 1846.96,-189.35 1840.96,-189.35"/>
<text xml:space="preserve" text-anchor="middle" x="1777.63" y="-169.57" font-family="Noto Sans KR" font-size="14.00" fill="#182033">Outbox</text>
<text xml:space="preserve" text-anchor="middle" x="1777.63" y="-152.32" font-family="Noto Sans KR" font-size="14.00" fill="#182033">&#45; DamageCommitted</text>
<text xml:space="preserve" text-anchor="middle" x="1777.63" y="-135.07" font-family="Noto Sans KR" font-size="14.00" fill="#182033">&#45; EntityDefeated?</text>
</g>
<!-- CommitReceipt&#45;&gt;Outbox -->
<g id="edge8" class="edge">
<title>CommitReceipt&#45;&gt;Outbox</title>
<path fill="none" stroke="#59687e" stroke-width="1.3" d="M1540.28,-156.29C1588.04,-156.43 1645.56,-156.6 1691.9,-156.74"/>
<polygon fill="#59687e" stroke="#59687e" stroke-width="1.3" points="1691.64,-159.54 1699.65,-156.77 1691.66,-153.94 1691.64,-159.54"/>
<text xml:space="preserve" text-anchor="middle" x="1621.05" y="-160.63" font-family="Noto Sans KR" font-size="14.00" fill="#46566e">same transaction</text>
</g>
</g>
</svg>
