<?xml version="1.0" encoding="UTF-8" standalone="no"?>
<!DOCTYPE svg PUBLIC "-//W3C//DTD SVG 1.1//EN"
 "http://www.w3.org/Graphics/SVG/1.1/DTD/svg11.dtd">
<!-- Generated by graphviz version 15.1.0 (20260618.0150)
 -->
<!-- Title: G Pages: 1 -->
<svg width="919pt" height="1520pt"
 viewBox="12.00 12.00 907.00 1508.00" xmlns="http://www.w3.org/2000/svg" xmlns:xlink="http://www.w3.org/1999/xlink">
<g id="graph0" class="graph" transform="scale(1.33333 1.33333) rotate(0) translate(26.64 1113.03)">
<title>G</title>
<polygon fill="#ffffff" stroke="none" points="-18,18 -18,-1104.39 653.84,-1104.39 653.84,18 -18,18"/>
<!-- StatusDefinition -->
<g id="node1" class="node">
<title>StatusDefinition</title>
<path fill="#ffffff" stroke="none" stroke-width="1.4" d="M392.58,-916.75C392.58,-916.75 287.58,-916.75 287.58,-916.75 281.58,-916.75 275.58,-910.75 275.58,-904.75 275.58,-904.75 275.58,-657.75 275.58,-657.75 275.58,-651.75 281.58,-645.75 287.58,-645.75 287.58,-645.75 392.58,-645.75 392.58,-645.75 398.58,-645.75 404.58,-651.75 404.58,-657.75 404.58,-657.75 404.58,-904.75 404.58,-904.75 404.58,-910.75 398.58,-916.75 392.58,-916.75"/>
<polygon fill="#fff7e6" stroke="none" points="276.58,-879.5 276.58,-915.75 403.58,-915.75 403.58,-879.5 276.58,-879.5"/>
<text xml:space="preserve" text-anchor="start" x="284.58" y="-893.55" font-family="Noto Sans KR" font-weight="bold" font-size="16.00" fill="#182033">StatusDefinition</text>
<text xml:space="preserve" text-anchor="start" x="284.58" y="-857.25" font-family="Noto Sans KR" font-size="14.00" fill="#182033">+ StatusId</text>
<text xml:space="preserve" text-anchor="start" x="284.58" y="-824" font-family="Noto Sans KR" font-size="14.00" fill="#182033">+ Tags</text>
<text xml:space="preserve" text-anchor="start" x="284.58" y="-790.75" font-family="Noto Sans KR" font-size="14.00" fill="#182033">+ DurationRule</text>
<text xml:space="preserve" text-anchor="start" x="284.58" y="-757.5" font-family="Noto Sans KR" font-size="14.00" fill="#182033">+ StackingRule</text>
<text xml:space="preserve" text-anchor="start" x="284.58" y="-724.25" font-family="Noto Sans KR" font-size="14.00" fill="#182033">+ TickRule?</text>
<text xml:space="preserve" text-anchor="start" x="284.58" y="-691" font-family="Noto Sans KR" font-size="14.00" fill="#182033">+ Modifiers[]</text>
<text xml:space="preserve" text-anchor="start" x="284.58" y="-657.75" font-family="Noto Sans KR" font-size="14.00" fill="#182033">+ PeriodicEffects[]</text>
<polygon fill="none" stroke="#e0ad4e" points="275.58,-645.75 275.58,-916.75 404.58,-916.75 404.58,-645.75 275.58,-645.75"/>
</g>
<!-- StackPolicy -->
<g id="node4" class="node">
<title>StackPolicy</title>
<path fill="#ffffff" stroke="#bac7db" stroke-width="1.4" d="M614.09,-1086.39C614.09,-1086.39 491.42,-1086.39 491.42,-1086.39 485.42,-1086.39 479.42,-1080.39 479.42,-1074.39 479.42,-1074.39 479.42,-1012.11 479.42,-1012.11 479.42,-1006.11 485.42,-1000.11 491.42,-1000.11 491.42,-1000.11 614.09,-1000.11 614.09,-1000.11 620.09,-1000.11 626.09,-1006.11 626.09,-1012.11 626.09,-1012.11 626.09,-1074.39 626.09,-1074.39 626.09,-1080.39 620.09,-1086.39 614.09,-1086.39"/>
<text xml:space="preserve" text-anchor="middle" x="552.75" y="-1064.45" font-family="Noto Sans KR" font-size="14.00" fill="#182033">StackPolicy</text>
<text xml:space="preserve" text-anchor="middle" x="552.75" y="-1047.2" font-family="Noto Sans KR" font-size="14.00" fill="#182033">refresh / add</text>
<text xml:space="preserve" text-anchor="middle" x="552.75" y="-1029.95" font-family="Noto Sans KR" font-size="14.00" fill="#182033">replace</text>
<text xml:space="preserve" text-anchor="middle" x="552.75" y="-1012.7" font-family="Noto Sans KR" font-size="14.00" fill="#182033">independent stacks</text>
</g>
<!-- StatusDefinition&#45;&gt;StackPolicy -->
<g id="edge1" class="edge">
<title>StatusDefinition&#45;&gt;StackPolicy</title>
<path fill="none" stroke="#59687e" stroke-width="1.3" d="M404.44,-878.31C436.89,-928.03 469.67,-978.25 469.67,-978.25 469.67,-978.25 477.76,-984.66 488.87,-993.45"/>
<polygon fill="#59687e" stroke="#59687e" stroke-width="1.3" points="487,-995.54 495.01,-998.31 490.47,-991.15 487,-995.54"/>
</g>
<!-- DurationPolicy -->
<g id="node5" class="node">
<title>DurationPolicy</title>
<path fill="#ffffff" stroke="#bac7db" stroke-width="1.4" d="M601.34,-955.39C601.34,-955.39 504.17,-955.39 504.17,-955.39 498.17,-955.39 492.17,-949.39 492.17,-943.39 492.17,-943.39 492.17,-881.11 492.17,-881.11 492.17,-875.11 498.17,-869.11 504.17,-869.11 504.17,-869.11 601.34,-869.11 601.34,-869.11 607.34,-869.11 613.34,-875.11 613.34,-881.11 613.34,-881.11 613.34,-943.39 613.34,-943.39 613.34,-949.39 607.34,-955.39 601.34,-955.39"/>
<text xml:space="preserve" text-anchor="middle" x="552.75" y="-933.45" font-family="Noto Sans KR" font-size="14.00" fill="#182033">DurationPolicy</text>
<text xml:space="preserve" text-anchor="middle" x="552.75" y="-916.2" font-family="Noto Sans KR" font-size="14.00" fill="#182033">refresh / extend</text>
<text xml:space="preserve" text-anchor="middle" x="552.75" y="-898.95" font-family="Noto Sans KR" font-size="14.00" fill="#182033">fixed</text>
<text xml:space="preserve" text-anchor="middle" x="552.75" y="-881.7" font-family="Noto Sans KR" font-size="14.00" fill="#182033">expire rule</text>
</g>
<!-- StatusDefinition&#45;&gt;DurationPolicy -->
<g id="edge2" class="edge">
<title>StatusDefinition&#45;&gt;DurationPolicy</title>
<path fill="none" stroke="#59687e" stroke-width="1.3" d="M404.58,-820.73C429.4,-836.16 457.91,-853.9 483.2,-869.62"/>
<polygon fill="#59687e" stroke="#59687e" stroke-width="1.3" points="481.7,-871.98 489.97,-873.83 484.65,-867.23 481.7,-871.98"/>
</g>
<!-- TickPolicy -->
<g id="node6" class="node">
<title>TickPolicy</title>
<path fill="#ffffff" stroke="#bac7db" stroke-width="1.4" d="M608.09,-824.39C608.09,-824.39 497.42,-824.39 497.42,-824.39 491.42,-824.39 485.42,-818.39 485.42,-812.39 485.42,-812.39 485.42,-750.11 485.42,-750.11 485.42,-744.11 491.42,-738.11 497.42,-738.11 497.42,-738.11 608.09,-738.11 608.09,-738.11 614.09,-738.11 620.09,-744.11 620.09,-750.11 620.09,-750.11 620.09,-812.39 620.09,-812.39 620.09,-818.39 614.09,-824.39 608.09,-824.39"/>
<text xml:space="preserve" text-anchor="middle" x="552.75" y="-802.45" font-family="Noto Sans KR" font-size="14.00" fill="#182033">TickPolicy</text>
<text xml:space="preserve" text-anchor="middle" x="552.75" y="-785.2" font-family="Noto Sans KR" font-size="14.00" fill="#182033">Interval</text>
<text xml:space="preserve" text-anchor="middle" x="552.75" y="-767.95" font-family="Noto Sans KR" font-size="14.00" fill="#182033">StartPolicy</text>
<text xml:space="preserve" text-anchor="middle" x="552.75" y="-750.7" font-family="Noto Sans KR" font-size="14.00" fill="#182033">MaxCatchUpTicks</text>
</g>
<!-- StatusDefinition&#45;&gt;TickPolicy -->
<g id="edge3" class="edge">
<title>StatusDefinition&#45;&gt;TickPolicy</title>
<path fill="none" stroke="#59687e" stroke-width="1.3" d="M404.58,-781.25C426.73,-781.25 451.84,-781.25 474.96,-781.25"/>
<polygon fill="#59687e" stroke="#59687e" stroke-width="1.3" points="474.77,-784.05 482.77,-781.25 474.77,-778.45 474.77,-784.05"/>
</g>
<!-- StatusModifierProvider -->
<g id="node7" class="node">
<title>StatusModifierProvider</title>
<path fill="#ffffff" stroke="#bac7db" stroke-width="1.4" d="M623.84,-693.39C623.84,-693.39 481.67,-693.39 481.67,-693.39 475.67,-693.39 469.67,-687.39 469.67,-681.39 469.67,-681.39 469.67,-619.11 469.67,-619.11 469.67,-613.11 475.67,-607.11 481.67,-607.11 481.67,-607.11 623.84,-607.11 623.84,-607.11 629.84,-607.11 635.84,-613.11 635.84,-619.11 635.84,-619.11 635.84,-681.39 635.84,-681.39 635.84,-687.39 629.84,-693.39 623.84,-693.39"/>
<text xml:space="preserve" text-anchor="middle" x="552.75" y="-671.45" font-family="Noto Sans KR" font-size="14.00" fill="#182033">StatusModifierProvider</text>
<text xml:space="preserve" text-anchor="middle" x="552.75" y="-654.2" font-family="Noto Sans KR" font-size="14.00" fill="#182033">create StatModifier</text>
<text xml:space="preserve" text-anchor="middle" x="552.75" y="-636.95" font-family="Noto Sans KR" font-size="14.00" fill="#182033">modifier source =</text>
<text xml:space="preserve" text-anchor="middle" x="552.75" y="-619.7" font-family="Noto Sans KR" font-size="14.00" fill="#182033">statusInstanceId</text>
</g>
<!-- StatusDefinition&#45;&gt;StatusModifierProvider -->
<g id="edge4" class="edge">
<title>StatusDefinition&#45;&gt;StatusModifierProvider</title>
<path fill="none" stroke="#59687e" stroke-width="1.3" d="M404.58,-741.77C426.16,-728.35 450.54,-713.19 473.15,-699.13"/>
<polygon fill="#59687e" stroke="#59687e" stroke-width="1.3" points="474.41,-701.64 479.73,-695.04 471.46,-696.88 474.41,-701.64"/>
</g>
<!-- StatusEffectHook -->
<g id="node8" class="node">
<title>StatusEffectHook</title>
<path fill="#ffffff" stroke="#bac7db" stroke-width="1.4" d="M606.21,-562.39C606.21,-562.39 499.29,-562.39 499.29,-562.39 493.29,-562.39 487.29,-556.39 487.29,-550.39 487.29,-550.39 487.29,-488.11 487.29,-488.11 487.29,-482.11 493.29,-476.11 499.29,-476.11 499.29,-476.11 606.21,-476.11 606.21,-476.11 612.21,-476.11 618.21,-482.11 618.21,-488.11 618.21,-488.11 618.21,-550.39 618.21,-550.39 618.21,-556.39 612.21,-562.39 606.21,-562.39"/>
<text xml:space="preserve" text-anchor="middle" x="552.75" y="-540.45" font-family="Noto Sans KR" font-size="14.00" fill="#182033">StatusEffectHook</text>
<text xml:space="preserve" text-anchor="middle" x="552.75" y="-523.2" font-family="Noto Sans KR" font-size="14.00" fill="#182033">execute periodic</text>
<text xml:space="preserve" text-anchor="middle" x="552.75" y="-505.95" font-family="Noto Sans KR" font-size="14.00" fill="#182033">effects</text>
<text xml:space="preserve" text-anchor="middle" x="552.75" y="-488.7" font-family="Noto Sans KR" font-size="14.00" fill="#182033">react to events</text>
</g>
<!-- StatusDefinition&#45;&gt;StatusEffectHook -->
<g id="edge5" class="edge">
<title>StatusDefinition&#45;&gt;StatusEffectHook</title>
<path fill="none" stroke="#59687e" stroke-width="1.3" d="M404.44,-684.19C436.89,-634.47 469.67,-584.25 469.67,-584.25 469.67,-584.25 477.76,-577.84 488.87,-569.05"/>
<polygon fill="#59687e" stroke="#59687e" stroke-width="1.3" points="490.47,-571.35 495.01,-564.19 487,-566.96 490.47,-571.35"/>
</g>
<!-- StatusInstance -->
<g id="node2" class="node">
<title>StatusInstance</title>
<path fill="#ffffff" stroke="none" stroke-width="1.4" d="M398.58,-601.12C398.58,-601.12 281.58,-601.12 281.58,-601.12 275.58,-601.12 269.58,-595.12 269.58,-589.12 269.58,-589.12 269.58,-375.38 269.58,-375.38 269.58,-369.38 275.58,-363.38 281.58,-363.38 281.58,-363.38 398.58,-363.38 398.58,-363.38 404.58,-363.38 410.58,-369.38 410.58,-375.38 410.58,-375.38 410.58,-589.12 410.58,-589.12 410.58,-595.12 404.58,-601.12 398.58,-601.12"/>
<polygon fill="#eefbf6" stroke="none" points="270.58,-563.88 270.58,-600.12 409.58,-600.12 409.58,-563.88 270.58,-563.88"/>
<text xml:space="preserve" text-anchor="start" x="289.46" y="-577.92" font-family="Noto Sans KR" font-weight="bold" font-size="16.00" fill="#182033">StatusInstance</text>
<text xml:space="preserve" text-anchor="start" x="278.58" y="-541.62" font-family="Noto Sans KR" font-size="14.00" fill="#182033">+ InstanceId</text>
<text xml:space="preserve" text-anchor="start" x="278.58" y="-508.38" font-family="Noto Sans KR" font-size="14.00" fill="#182033">+ TargetId: EntityId</text>
<text xml:space="preserve" text-anchor="start" x="278.58" y="-475.12" font-family="Noto Sans KR" font-size="14.00" fill="#182033">+ Source: SourceRef</text>
<text xml:space="preserve" text-anchor="start" x="278.58" y="-441.88" font-family="Noto Sans KR" font-size="14.00" fill="#182033">+ ExpiresAt</text>
<text xml:space="preserve" text-anchor="start" x="278.58" y="-408.62" font-family="Noto Sans KR" font-size="14.00" fill="#182033">+ StackCount</text>
<text xml:space="preserve" text-anchor="start" x="278.58" y="-375.38" font-family="Noto Sans KR" font-size="14.00" fill="#182033">+ NextTickAt</text>
<polygon fill="none" stroke="#61b99a" points="269.58,-363.38 269.58,-601.12 410.58,-601.12 410.58,-363.38 269.58,-363.38"/>
</g>
<!-- StatusController -->
<g id="node3" class="node">
<title>StatusController</title>
<path fill="#ffffff" stroke="none" stroke-width="1.4" d="M119.25,-485.5C119.25,-485.5 12,-485.5 12,-485.5 6,-485.5 0,-479.5 0,-473.5 0,-473.5 0,-293 0,-293 0,-287 6,-281 12,-281 12,-281 119.25,-281 119.25,-281 125.25,-281 131.25,-287 131.25,-293 131.25,-293 131.25,-473.5 131.25,-473.5 131.25,-479.5 125.25,-485.5 119.25,-485.5"/>
<polygon fill="#eaf0ff" stroke="none" points="1,-448.25 1,-484.5 130.25,-484.5 130.25,-448.25 1,-448.25"/>
<text xml:space="preserve" text-anchor="start" x="9" y="-462.3" font-family="Noto Sans KR" font-weight="bold" font-size="16.00" fill="#182033">StatusController</text>
<text xml:space="preserve" text-anchor="start" x="9" y="-426" font-family="Noto Sans KR" font-size="14.00" fill="#182033">+ Apply()</text>
<text xml:space="preserve" text-anchor="start" x="9" y="-392.75" font-family="Noto Sans KR" font-size="14.00" fill="#182033">+ Refresh()</text>
<text xml:space="preserve" text-anchor="start" x="9" y="-359.5" font-family="Noto Sans KR" font-size="14.00" fill="#182033">+ Remove()</text>
<text xml:space="preserve" text-anchor="start" x="9" y="-326.25" font-family="Noto Sans KR" font-size="14.00" fill="#182033">+ Tick()</text>
<text xml:space="preserve" text-anchor="start" x="9" y="-293" font-family="Noto Sans KR" font-size="14.00" fill="#182033">+ QueryByTag()</text>
<polygon fill="none" stroke="#8292f7" points="0,-281 0,-485.5 131.25,-485.5 131.25,-281 0,-281"/>
</g>
<!-- StatusController&#45;&gt;StatusDefinition -->
<g id="edge6" class="edge">
<title>StatusController&#45;&gt;StatusDefinition</title>
<path fill="none" stroke="#59687e" stroke-width="1.3" d="M131.19,-477.57C173.07,-538.74 227.58,-618.37 270.27,-680.73"/>
<polygon fill="#59687e" stroke="#59687e" stroke-width="1.3" points="267.74,-681.99 274.57,-687.01 272.36,-678.83 267.74,-681.99"/>
<text xml:space="preserve" text-anchor="middle" x="199.37" y="-633.55" font-family="Noto Sans KR" font-size="14.00" fill="#46566e">lookup</text>
</g>
<!-- StatusController&#45;&gt;StatusInstance -->
<g id="edge7" class="edge">
<title>StatusController&#45;&gt;StatusInstance</title>
<path fill="none" stroke="#59687e" stroke-width="1.3" d="M131.19,-406.71C169.96,-420.8 219.56,-438.82 260.58,-453.73"/>
<polygon fill="#59687e" stroke="#59687e" stroke-width="1.3" points="259.41,-456.28 267.89,-456.38 261.32,-451.02 259.41,-456.28"/>
<text xml:space="preserve" text-anchor="middle" x="199.37" y="-448.48" font-family="Noto Sans KR" font-size="14.00" fill="#46566e">owns 0..*</text>
</g>
<!-- DispelPolicy -->
<g id="node9" class="node">
<title>DispelPolicy</title>
<path fill="#ffffff" stroke="#bac7db" stroke-width="1.4" d="M400.67,-318.76C400.67,-318.76 279.5,-318.76 279.5,-318.76 273.5,-318.76 267.5,-312.76 267.5,-306.76 267.5,-306.76 267.5,-261.74 267.5,-261.74 267.5,-255.74 273.5,-249.74 279.5,-249.74 279.5,-249.74 400.67,-249.74 400.67,-249.74 406.67,-249.74 412.67,-255.74 412.67,-261.74 412.67,-261.74 412.67,-306.76 412.67,-306.76 412.67,-312.76 406.67,-318.76 400.67,-318.76"/>
<text xml:space="preserve" text-anchor="middle" x="340.08" y="-296.82" font-family="Noto Sans KR" font-size="14.00" fill="#182033">DispelPolicy</text>
<text xml:space="preserve" text-anchor="middle" x="340.08" y="-279.57" font-family="Noto Sans KR" font-size="14.00" fill="#182033">cleanse / immunity</text>
<text xml:space="preserve" text-anchor="middle" x="340.08" y="-262.32" font-family="Noto Sans KR" font-size="14.00" fill="#182033">tag&#45;based remove</text>
</g>
<!-- StatusController&#45;&gt;DispelPolicy -->
<g id="edge8" class="edge">
<title>StatusController&#45;&gt;DispelPolicy</title>
<path fill="none" stroke="#59687e" stroke-width="1.3" d="M131.19,-359.79C169.01,-346.05 217.11,-328.57 257.53,-313.88"/>
<polygon fill="#59687e" stroke="#59687e" stroke-width="1.3" points="258.41,-316.54 264.97,-311.18 256.5,-311.28 258.41,-316.54"/>
<text xml:space="preserve" text-anchor="middle" x="199.37" y="-352.35" font-family="Noto Sans KR" font-size="14.00" fill="#46566e">remove rules</text>
</g>
<!-- StatusResult -->
<g id="node10" class="node">
<title>StatusResult</title>
<path fill="#ffffff" stroke="none" stroke-width="1.4" d="M386.96,-204.5C386.96,-204.5 293.21,-204.5 293.21,-204.5 287.21,-204.5 281.21,-198.5 281.21,-192.5 281.21,-192.5 281.21,-12 281.21,-12 281.21,-6 287.21,0 293.21,0 293.21,0 386.96,0 386.96,0 392.96,0 398.96,-6 398.96,-12 398.96,-12 398.96,-192.5 398.96,-192.5 398.96,-198.5 392.96,-204.5 386.96,-204.5"/>
<polygon fill="#f0f3f9" stroke="none" points="282.21,-167.25 282.21,-203.5 397.96,-203.5 397.96,-167.25 282.21,-167.25"/>
<text xml:space="preserve" text-anchor="start" x="297.33" y="-181.3" font-family="Noto Sans KR" font-weight="bold" font-size="16.00" fill="#182033">StatusResult</text>
<text xml:space="preserve" text-anchor="start" x="290.21" y="-145" font-family="Noto Sans KR" font-size="14.00" fill="#182033">+ Applied</text>
<text xml:space="preserve" text-anchor="start" x="290.21" y="-111.75" font-family="Noto Sans KR" font-size="14.00" fill="#182033">+ Refreshed</text>
<text xml:space="preserve" text-anchor="start" x="290.21" y="-78.5" font-family="Noto Sans KR" font-size="14.00" fill="#182033">+ StackChanged</text>
<text xml:space="preserve" text-anchor="start" x="290.21" y="-45.25" font-family="Noto Sans KR" font-size="14.00" fill="#182033">+ Immune</text>
<text xml:space="preserve" text-anchor="start" x="290.21" y="-12" font-family="Noto Sans KR" font-size="14.00" fill="#182033">+ Removed</text>
<polygon fill="none" stroke="#99a8bd" points="281.21,0 281.21,-204.5 398.96,-204.5 398.96,0 281.21,0"/>
</g>
<!-- StatusController&#45;&gt;StatusResult -->
<g id="edge9" class="edge">
<title>StatusController&#45;&gt;StatusResult</title>
<path fill="none" stroke="#59687e" stroke-width="1.3" d="M131.19,-316.66C174.51,-271.98 231.34,-213.37 274.64,-168.72"/>
<polygon fill="#59687e" stroke="#59687e" stroke-width="1.3" points="276.54,-170.78 280.09,-163.09 272.52,-166.88 276.54,-170.78"/>
<text xml:space="preserve" text-anchor="middle" x="199.37" y="-288.29" font-family="Noto Sans KR" font-size="14.00" fill="#46566e">returns</text>
</g>
</g>
</svg>
