<?xml version="1.0" encoding="UTF-8" standalone="no"?>
<!DOCTYPE svg PUBLIC "-//W3C//DTD SVG 1.1//EN"
 "http://www.w3.org/Graphics/SVG/1.1/DTD/svg11.dtd">
<!-- Generated by graphviz version 15.0.0 (20260523.1842)
 -->
<!-- Title: G Pages: 1 -->
<svg width="647pt" height="1023pt"
 viewBox="9.00 9.00 639.00 1014.00" xmlns="http://www.w3.org/2000/svg" xmlns:xlink="http://www.w3.org/1999/xlink">
<g id="graph0" class="graph" transform="scale(1 1) rotate(0) translate(26.64 995.92)">
<title>G</title>
<polygon fill="#ffffff" stroke="none" points="-18,18 -18,-987.28 612.18,-987.28 612.18,18 -18,18"/>
<!-- StatusDefinition -->
<g id="node1" class="node">
<title>StatusDefinition</title>
<path fill="#ffffff" stroke="none" stroke-width="1.4" d="M375.29,-873C375.29,-873 270.16,-873 270.16,-873 264.16,-873 258.16,-867 258.16,-861 258.16,-861 258.16,-618.2 258.16,-618.2 258.16,-612.2 264.16,-606.2 270.16,-606.2 270.16,-606.2 375.29,-606.2 375.29,-606.2 381.29,-606.2 387.29,-612.2 387.29,-618.2 387.29,-618.2 387.29,-861 387.29,-861 387.29,-867 381.29,-873 375.29,-873"/>
<polygon fill="#fff7e6" stroke="none" points="259.16,-836.8 259.16,-872 386.29,-872 386.29,-836.8 259.16,-836.8"/>
<text xml:space="preserve" text-anchor="start" x="267.16" y="-850.6" font-family="Noto Sans CJK KR" font-weight="bold" font-size="16.00" fill="#182033">StatusDefinition</text>
<text xml:space="preserve" text-anchor="start" x="267.16" y="-814.8" font-family="Noto Sans CJK KR" font-size="14.00" fill="#182033">+ StatusId</text>
<text xml:space="preserve" text-anchor="start" x="267.16" y="-782" font-family="Noto Sans CJK KR" font-size="14.00" fill="#182033">+ Tags</text>
<text xml:space="preserve" text-anchor="start" x="267.16" y="-749.2" font-family="Noto Sans CJK KR" font-size="14.00" fill="#182033">+ DurationRule</text>
<text xml:space="preserve" text-anchor="start" x="267.16" y="-716.4" font-family="Noto Sans CJK KR" font-size="14.00" fill="#182033">+ StackingRule</text>
<text xml:space="preserve" text-anchor="start" x="267.16" y="-683.6" font-family="Noto Sans CJK KR" font-size="14.00" fill="#182033">+ TickRule?</text>
<text xml:space="preserve" text-anchor="start" x="267.16" y="-650.8" font-family="Noto Sans CJK KR" font-size="14.00" fill="#182033">+ Modifiers[]</text>
<text xml:space="preserve" text-anchor="start" x="267.16" y="-618" font-family="Noto Sans CJK KR" font-size="14.00" fill="#182033">+ PeriodicEffects[]</text>
<polygon fill="none" stroke="#e0ad4e" points="258.16,-606.2 258.16,-873 387.29,-873 387.29,-606.2 258.16,-606.2"/>
</g>
<!-- StackPolicy -->
<g id="node4" class="node">
<title>StackPolicy</title>
<path fill="#ffffff" stroke="#bac7db" stroke-width="1.4" d="M576.35,-969.28C576.35,-969.28 458.93,-969.28 458.93,-969.28 452.93,-969.28 446.93,-963.28 446.93,-957.28 446.93,-957.28 446.93,-917.92 446.93,-917.92 446.93,-911.92 452.93,-905.92 458.93,-905.92 458.93,-905.92 576.35,-905.92 576.35,-905.92 582.35,-905.92 588.35,-911.92 588.35,-917.92 588.35,-917.92 588.35,-957.28 588.35,-957.28 588.35,-963.28 582.35,-969.28 576.35,-969.28"/>
<text xml:space="preserve" text-anchor="middle" x="517.64" y="-950.2" font-family="Noto Sans CJK KR" font-size="14.00" fill="#182033">StackPolicy&#13;</text>
<text xml:space="preserve" text-anchor="middle" x="517.64" y="-933.4" font-family="Noto Sans CJK KR" font-size="14.00" fill="#182033">refresh / add / replace&#13;</text>
<text xml:space="preserve" text-anchor="middle" x="517.64" y="-916.6" font-family="Noto Sans CJK KR" font-size="14.00" fill="#182033">independent stacks</text>
</g>
<!-- StatusDefinition&#45;&gt;StackPolicy -->
<g id="edge1" class="edge">
<title>StatusDefinition&#45;&gt;StackPolicy</title>
<path fill="none" stroke="#59687e" stroke-width="1.3" d="M323.18,-872.77C323.18,-908.58 323.18,-937.6 323.18,-937.6 323.18,-937.6 436.37,-937.6 436.37,-937.6"/>
<polygon fill="#59687e" stroke="#59687e" stroke-width="1.3" points="436.37,-940.4 444.37,-937.6 436.37,-934.8 436.37,-940.4"/>
</g>
<!-- DurationPolicy -->
<g id="node5" class="node">
<title>DurationPolicy</title>
<path fill="#ffffff" stroke="#bac7db" stroke-width="1.4" d="M579.08,-870.28C579.08,-870.28 456.2,-870.28 456.2,-870.28 450.2,-870.28 444.2,-864.28 444.2,-858.28 444.2,-858.28 444.2,-818.92 444.2,-818.92 444.2,-812.92 450.2,-806.92 456.2,-806.92 456.2,-806.92 579.08,-806.92 579.08,-806.92 585.08,-806.92 591.08,-812.92 591.08,-818.92 591.08,-818.92 591.08,-858.28 591.08,-858.28 591.08,-864.28 585.08,-870.28 579.08,-870.28"/>
<text xml:space="preserve" text-anchor="middle" x="517.64" y="-851.2" font-family="Noto Sans CJK KR" font-size="14.00" fill="#182033">DurationPolicy&#13;</text>
<text xml:space="preserve" text-anchor="middle" x="517.64" y="-834.4" font-family="Noto Sans CJK KR" font-size="14.00" fill="#182033">refresh / extend / fixed&#13;</text>
<text xml:space="preserve" text-anchor="middle" x="517.64" y="-817.6" font-family="Noto Sans CJK KR" font-size="14.00" fill="#182033">expire rule</text>
</g>
<!-- StatusDefinition&#45;&gt;DurationPolicy -->
<g id="edge2" class="edge">
<title>StatusDefinition&#45;&gt;DurationPolicy</title>
<path fill="none" stroke="#59687e" stroke-width="1.3" d="M387.09,-838.6C387.09,-838.6 433.58,-838.6 433.58,-838.6"/>
<polygon fill="#59687e" stroke="#59687e" stroke-width="1.3" points="433.58,-841.4 441.58,-838.6 433.58,-835.8 433.58,-841.4"/>
</g>
<!-- TickPolicy -->
<g id="node6" class="node">
<title>TickPolicy</title>
<path fill="#ffffff" stroke="#bac7db" stroke-width="1.4" d="M574.04,-771.28C574.04,-771.28 461.24,-771.28 461.24,-771.28 455.24,-771.28 449.24,-765.28 449.24,-759.28 449.24,-759.28 449.24,-719.92 449.24,-719.92 449.24,-713.92 455.24,-707.92 461.24,-707.92 461.24,-707.92 574.04,-707.92 574.04,-707.92 580.04,-707.92 586.04,-713.92 586.04,-719.92 586.04,-719.92 586.04,-759.28 586.04,-759.28 586.04,-765.28 580.04,-771.28 574.04,-771.28"/>
<text xml:space="preserve" text-anchor="middle" x="517.64" y="-752.2" font-family="Noto Sans CJK KR" font-size="14.00" fill="#182033">TickPolicy</text>
<text xml:space="preserve" text-anchor="middle" x="517.64" y="-735.4" font-family="Noto Sans CJK KR" font-size="14.00" fill="#182033">Interval / StartPolicy</text>
<text xml:space="preserve" text-anchor="middle" x="517.64" y="-718.6" font-family="Noto Sans CJK KR" font-size="14.00" fill="#182033">MaxCatchUpTicks</text>
</g>
<!-- StatusDefinition&#45;&gt;TickPolicy -->
<g id="edge3" class="edge">
<title>StatusDefinition&#45;&gt;TickPolicy</title>
<path fill="none" stroke="#59687e" stroke-width="1.3" d="M387.09,-739.6C387.09,-739.6 438.68,-739.6 438.68,-739.6"/>
<polygon fill="#59687e" stroke="#59687e" stroke-width="1.3" points="438.68,-742.4 446.68,-739.6 438.68,-736.8 438.68,-742.4"/>
</g>
<!-- StatusModifierProvider -->
<g id="node7" class="node">
<title>StatusModifierProvider</title>
<path fill="#ffffff" stroke="#bac7db" stroke-width="1.4" d="M581.82,-671.68C581.82,-671.68 453.46,-671.68 453.46,-671.68 447.46,-671.68 441.46,-665.68 441.46,-659.68 441.46,-659.68 441.46,-603.52 441.46,-603.52 441.46,-597.52 447.46,-591.52 453.46,-591.52 453.46,-591.52 581.82,-591.52 581.82,-591.52 587.82,-591.52 593.82,-597.52 593.82,-603.52 593.82,-603.52 593.82,-659.68 593.82,-659.68 593.82,-665.68 587.82,-671.68 581.82,-671.68"/>
<text xml:space="preserve" text-anchor="middle" x="517.64" y="-652.6" font-family="Noto Sans CJK KR" font-size="14.00" fill="#182033">StatusModifierProvider&#13;</text>
<text xml:space="preserve" text-anchor="middle" x="517.64" y="-635.8" font-family="Noto Sans CJK KR" font-size="14.00" fill="#182033">create StatModifier&#13;</text>
<text xml:space="preserve" text-anchor="middle" x="517.64" y="-619" font-family="Noto Sans CJK KR" font-size="14.00" fill="#182033">modifier source&#13;</text>
<text xml:space="preserve" text-anchor="middle" x="517.64" y="-602.2" font-family="Noto Sans CJK KR" font-size="14.00" fill="#182033">= statusInstanceId</text>
</g>
<!-- StatusDefinition&#45;&gt;StatusModifierProvider -->
<g id="edge4" class="edge">
<title>StatusDefinition&#45;&gt;StatusModifierProvider</title>
<path fill="none" stroke="#59687e" stroke-width="1.3" d="M387.09,-649.85C387.09,-649.85 430.84,-649.85 430.84,-649.85"/>
<polygon fill="#59687e" stroke="#59687e" stroke-width="1.3" points="430.84,-652.65 438.84,-649.85 430.84,-647.05 430.84,-652.65"/>
</g>
<!-- StatusEffectHook -->
<g id="node8" class="node">
<title>StatusEffectHook</title>
<path fill="#ffffff" stroke="#bac7db" stroke-width="1.4" d="M582.18,-555.28C582.18,-555.28 453.1,-555.28 453.1,-555.28 447.1,-555.28 441.1,-549.28 441.1,-543.28 441.1,-543.28 441.1,-503.92 441.1,-503.92 441.1,-497.92 447.1,-491.92 453.1,-491.92 453.1,-491.92 582.18,-491.92 582.18,-491.92 588.18,-491.92 594.18,-497.92 594.18,-503.92 594.18,-503.92 594.18,-543.28 594.18,-543.28 594.18,-549.28 588.18,-555.28 582.18,-555.28"/>
<text xml:space="preserve" text-anchor="middle" x="517.64" y="-536.2" font-family="Noto Sans CJK KR" font-size="14.00" fill="#182033">StatusEffectHook&#13;</text>
<text xml:space="preserve" text-anchor="middle" x="517.64" y="-519.4" font-family="Noto Sans CJK KR" font-size="14.00" fill="#182033">execute periodic effects&#13;</text>
<text xml:space="preserve" text-anchor="middle" x="517.64" y="-502.6" font-family="Noto Sans CJK KR" font-size="14.00" fill="#182033">react to events</text>
</g>
<!-- StatusDefinition&#45;&gt;StatusEffectHook -->
<g id="edge5" class="edge">
<title>StatusDefinition&#45;&gt;StatusEffectHook</title>
<path fill="none" stroke="#59687e" stroke-width="1.3" d="M387.19,-628.03C402.85,-628.03 415.18,-628.03 415.18,-628.03 415.18,-628.03 415.18,-523.6 415.18,-523.6 415.18,-523.6 430.54,-523.6 430.54,-523.6"/>
<polygon fill="#59687e" stroke="#59687e" stroke-width="1.3" points="430.54,-526.4 438.54,-523.6 430.54,-520.8 430.54,-526.4"/>
</g>
<!-- StatusInstance -->
<g id="node2" class="node">
<title>StatusInstance</title>
<path fill="#ffffff" stroke="none" stroke-width="1.4" d="M378.1,-570.6C378.1,-570.6 267.35,-570.6 267.35,-570.6 261.35,-570.6 255.35,-564.6 255.35,-558.6 255.35,-558.6 255.35,-348.6 255.35,-348.6 255.35,-342.6 261.35,-336.6 267.35,-336.6 267.35,-336.6 378.1,-336.6 378.1,-336.6 384.1,-336.6 390.1,-342.6 390.1,-348.6 390.1,-348.6 390.1,-558.6 390.1,-558.6 390.1,-564.6 384.1,-570.6 378.1,-570.6"/>
<polygon fill="#eefbf6" stroke="none" points="256.35,-534.4 256.35,-569.6 389.1,-569.6 389.1,-534.4 256.35,-534.4"/>
<text xml:space="preserve" text-anchor="start" x="272.49" y="-548.2" font-family="Noto Sans CJK KR" font-weight="bold" font-size="16.00" fill="#182033">StatusInstance</text>
<text xml:space="preserve" text-anchor="start" x="264.35" y="-512.4" font-family="Noto Sans CJK KR" font-size="14.00" fill="#182033">+ InstanceId</text>
<text xml:space="preserve" text-anchor="start" x="264.35" y="-479.6" font-family="Noto Sans CJK KR" font-size="14.00" fill="#182033">+ TargetId: EntityId</text>
<text xml:space="preserve" text-anchor="start" x="264.35" y="-446.8" font-family="Noto Sans CJK KR" font-size="14.00" fill="#182033">+ Source: SourceRef</text>
<text xml:space="preserve" text-anchor="start" x="264.35" y="-414" font-family="Noto Sans CJK KR" font-size="14.00" fill="#182033">+ ExpiresAt</text>
<text xml:space="preserve" text-anchor="start" x="264.35" y="-381.2" font-family="Noto Sans CJK KR" font-size="14.00" fill="#182033">+ StackCount</text>
<text xml:space="preserve" text-anchor="start" x="264.35" y="-348.4" font-family="Noto Sans CJK KR" font-size="14.00" fill="#182033">+ NextTickAt</text>
<polygon fill="none" stroke="#61b99a" points="255.35,-336.6 255.35,-570.6 390.1,-570.6 390.1,-336.6 255.35,-336.6"/>
</g>
<!-- StatusController -->
<g id="node3" class="node">
<title>StatusController</title>
<path fill="#ffffff" stroke="none" stroke-width="1.4" d="M120.66,-461.2C120.66,-461.2 12,-461.2 12,-461.2 6,-461.2 0,-455.2 0,-449.2 0,-449.2 0,-272 0,-272 0,-266 6,-260 12,-260 12,-260 120.66,-260 120.66,-260 126.66,-260 132.66,-266 132.66,-272 132.66,-272 132.66,-449.2 132.66,-449.2 132.66,-455.2 126.66,-461.2 120.66,-461.2"/>
<polygon fill="#eaf0ff" stroke="none" points="1,-425 1,-460.2 131.66,-460.2 131.66,-425 1,-425"/>
<text xml:space="preserve" text-anchor="start" x="9" y="-438.8" font-family="Noto Sans CJK KR" font-weight="bold" font-size="16.00" fill="#182033">StatusController</text>
<text xml:space="preserve" text-anchor="start" x="9" y="-403" font-family="Noto Sans CJK KR" font-size="14.00" fill="#182033">+ Apply()</text>
<text xml:space="preserve" text-anchor="start" x="9" y="-370.2" font-family="Noto Sans CJK KR" font-size="14.00" fill="#182033">+ Refresh()</text>
<text xml:space="preserve" text-anchor="start" x="9" y="-337.4" font-family="Noto Sans CJK KR" font-size="14.00" fill="#182033">+ Remove()</text>
<text xml:space="preserve" text-anchor="start" x="9" y="-304.6" font-family="Noto Sans CJK KR" font-size="14.00" fill="#182033">+ Tick()</text>
<text xml:space="preserve" text-anchor="start" x="9" y="-271.8" font-family="Noto Sans CJK KR" font-size="14.00" fill="#182033">+ QueryByTag()</text>
<polygon fill="none" stroke="#8292f7" points="0,-260 0,-461.2 132.66,-461.2 132.66,-260 0,-260"/>
</g>
<!-- StatusController&#45;&gt;StatusDefinition -->
<g id="edge6" class="edge">
<title>StatusController&#45;&gt;StatusDefinition</title>
<path fill="none" stroke="#59687e" stroke-width="1.3" d="M66.18,-461.17C66.18,-573.45 66.18,-739.6 66.18,-739.6 66.18,-739.6 248.35,-739.6 248.35,-739.6"/>
<polygon fill="#59687e" stroke="#59687e" stroke-width="1.3" points="248.35,-742.4 256.35,-739.6 248.35,-736.8 248.35,-742.4"/>
<text xml:space="preserve" text-anchor="middle" x="194" y="-629.8" font-family="Noto Sans CJK KR" font-size="14.00" fill="#46566e">lookup</text>
</g>
<!-- StatusController&#45;&gt;StatusInstance -->
<g id="edge7" class="edge">
<title>StatusController&#45;&gt;StatusInstance</title>
<path fill="none" stroke="#59687e" stroke-width="1.3" d="M132.36,-398.9C132.36,-398.9 245.61,-398.9 245.61,-398.9"/>
<polygon fill="#59687e" stroke="#59687e" stroke-width="1.3" points="245.61,-401.7 253.61,-398.9 245.61,-396.1 245.61,-401.7"/>
<text xml:space="preserve" text-anchor="middle" x="194" y="-457.8" font-family="Noto Sans CJK KR" font-size="14.00" fill="#46566e">owns 0..*</text>
</g>
<!-- DispelPolicy -->
<g id="node9" class="node">
<title>DispelPolicy</title>
<path fill="#ffffff" stroke="#bac7db" stroke-width="1.4" d="M374.07,-300.28C374.07,-300.28 271.38,-300.28 271.38,-300.28 265.38,-300.28 259.38,-294.28 259.38,-288.28 259.38,-288.28 259.38,-248.92 259.38,-248.92 259.38,-242.92 265.38,-236.92 271.38,-236.92 271.38,-236.92 374.07,-236.92 374.07,-236.92 380.07,-236.92 386.07,-242.92 386.07,-248.92 386.07,-248.92 386.07,-288.28 386.07,-288.28 386.07,-294.28 380.07,-300.28 374.07,-300.28"/>
<text xml:space="preserve" text-anchor="middle" x="322.73" y="-281.2" font-family="Noto Sans CJK KR" font-size="14.00" fill="#182033">DispelPolicy&#13;</text>
<text xml:space="preserve" text-anchor="middle" x="322.73" y="-264.4" font-family="Noto Sans CJK KR" font-size="14.00" fill="#182033">cleanse / immunity&#13;</text>
<text xml:space="preserve" text-anchor="middle" x="322.73" y="-247.6" font-family="Noto Sans CJK KR" font-size="14.00" fill="#182033">tag based remove</text>
</g>
<!-- StatusController&#45;&gt;DispelPolicy -->
<g id="edge8" class="edge">
<title>StatusController&#45;&gt;DispelPolicy</title>
<path fill="none" stroke="#59687e" stroke-width="1.3" d="M132.36,-280.14C132.36,-280.14 248.72,-280.14 248.72,-280.14"/>
<polygon fill="#59687e" stroke="#59687e" stroke-width="1.3" points="248.72,-282.94 256.72,-280.14 248.72,-277.34 248.72,-282.94"/>
<text xml:space="preserve" text-anchor="middle" x="194" y="-272.8" font-family="Noto Sans CJK KR" font-size="14.00" fill="#46566e">remove rules</text>
</g>
<!-- StatusResult -->
<g id="node10" class="node">
<title>StatusResult</title>
<path fill="#ffffff" stroke="none" stroke-width="1.4" d="M365.86,-201.2C365.86,-201.2 279.59,-201.2 279.59,-201.2 273.59,-201.2 267.59,-195.2 267.59,-189.2 267.59,-189.2 267.59,-12 267.59,-12 267.59,-6 273.59,0 279.59,0 279.59,0 365.86,0 365.86,0 371.86,0 377.86,-6 377.86,-12 377.86,-12 377.86,-189.2 377.86,-189.2 377.86,-195.2 371.86,-201.2 365.86,-201.2"/>
<polygon fill="#f0f3f9" stroke="none" points="268.59,-165 268.59,-200.2 376.86,-200.2 376.86,-165 268.59,-165"/>
<text xml:space="preserve" text-anchor="start" x="279.61" y="-178.8" font-family="Noto Sans CJK KR" font-weight="bold" font-size="16.00" fill="#182033">StatusResult</text>
<text xml:space="preserve" text-anchor="start" x="276.59" y="-143" font-family="Noto Sans CJK KR" font-size="14.00" fill="#182033">+ Applied</text>
<text xml:space="preserve" text-anchor="start" x="276.59" y="-110.2" font-family="Noto Sans CJK KR" font-size="14.00" fill="#182033">+ Refreshed</text>
<text xml:space="preserve" text-anchor="start" x="276.59" y="-77.4" font-family="Noto Sans CJK KR" font-size="14.00" fill="#182033">+ StackChanged</text>
<text xml:space="preserve" text-anchor="start" x="276.59" y="-44.6" font-family="Noto Sans CJK KR" font-size="14.00" fill="#182033">+ Immune</text>
<text xml:space="preserve" text-anchor="start" x="276.59" y="-11.8" font-family="Noto Sans CJK KR" font-size="14.00" fill="#182033">+ Removed</text>
<polygon fill="none" stroke="#99a8bd" points="267.59,0 267.59,-201.2 377.86,-201.2 377.86,0 267.59,0"/>
</g>
<!-- StatusController&#45;&gt;StatusResult -->
<g id="edge9" class="edge">
<title>StatusController&#45;&gt;StatusResult</title>
<path fill="none" stroke="#59687e" stroke-width="1.3" d="M66.18,-260.08C66.18,-186.91 66.18,-100.6 66.18,-100.6 66.18,-100.6 257.72,-100.6 257.72,-100.6"/>
<polygon fill="#59687e" stroke="#59687e" stroke-width="1.3" points="257.72,-103.4 265.72,-100.6 257.72,-97.8 257.72,-103.4"/>
<text xml:space="preserve" text-anchor="middle" x="194" y="-104.8" font-family="Noto Sans CJK KR" font-size="14.00" fill="#46566e">returns</text>
</g>
</g>
</svg>
