<?xml version="1.0" encoding="UTF-8" standalone="no"?>
<!DOCTYPE svg PUBLIC "-//W3C//DTD SVG 1.1//EN"
 "http://www.w3.org/Graphics/SVG/1.1/DTD/svg11.dtd">
<!-- Generated by graphviz version 15.1.0 (20260618.0150)
 -->
<!-- Title: G Pages: 1 -->
<svg width="974pt" height="1520pt"
 viewBox="12.00 12.00 963.00 1508.00" xmlns="http://www.w3.org/2000/svg" xmlns:xlink="http://www.w3.org/1999/xlink">
<g id="graph0" class="graph" transform="scale(1.33333 1.33333) rotate(0) translate(26.64 1113.03)">
<title>G</title>
<polygon fill="#ffffff" stroke="none" points="-18,18 -18,-1104.39 695.42,-1104.39 695.42,18 -18,18"/>
<!-- StatusDefinition -->
<g id="node1" class="node">
<title>StatusDefinition</title>
<path fill="#ffffff" stroke="none" stroke-width="1.4" d="M413.38,-916.75C413.38,-916.75 308.38,-916.75 308.38,-916.75 302.38,-916.75 296.38,-910.75 296.38,-904.75 296.38,-904.75 296.38,-657.75 296.38,-657.75 296.38,-651.75 302.38,-645.75 308.38,-645.75 308.38,-645.75 413.38,-645.75 413.38,-645.75 419.38,-645.75 425.38,-651.75 425.38,-657.75 425.38,-657.75 425.38,-904.75 425.38,-904.75 425.38,-910.75 419.38,-916.75 413.38,-916.75"/>
<polygon fill="#fff7e6" stroke="none" points="297.38,-879.5 297.38,-915.75 424.38,-915.75 424.38,-879.5 297.38,-879.5"/>
<text xml:space="preserve" text-anchor="start" x="305.38" y="-893.55" font-family="Noto Sans KR" font-weight="bold" font-size="16.00" fill="#182033">StatusDefinition</text>
<text xml:space="preserve" text-anchor="start" x="305.38" y="-857.25" font-family="Noto Sans KR" font-size="14.00" fill="#182033">+ StatusId</text>
<text xml:space="preserve" text-anchor="start" x="305.38" y="-824" font-family="Noto Sans KR" font-size="14.00" fill="#182033">+ Tags</text>
<text xml:space="preserve" text-anchor="start" x="305.38" y="-790.75" font-family="Noto Sans KR" font-size="14.00" fill="#182033">+ DurationRule</text>
<text xml:space="preserve" text-anchor="start" x="305.38" y="-757.5" font-family="Noto Sans KR" font-size="14.00" fill="#182033">+ StackingRule</text>
<text xml:space="preserve" text-anchor="start" x="305.38" y="-724.25" font-family="Noto Sans KR" font-size="14.00" fill="#182033">+ TickRule?</text>
<text xml:space="preserve" text-anchor="start" x="305.38" y="-691" font-family="Noto Sans KR" font-size="14.00" fill="#182033">+ Modifiers[]</text>
<text xml:space="preserve" text-anchor="start" x="305.38" y="-657.75" font-family="Noto Sans KR" font-size="14.00" fill="#182033">+ PeriodicEffects[]</text>
<polygon fill="none" stroke="#e0ad4e" points="296.38,-645.75 296.38,-916.75 425.38,-916.75 425.38,-645.75 296.38,-645.75"/>
</g>
<!-- StackPolicy -->
<g id="node4" class="node">
<title>StackPolicy</title>
<path fill="#ffffff" stroke="#bac7db" stroke-width="1.4" d="M655.67,-1086.39C655.67,-1086.39 533,-1086.39 533,-1086.39 527,-1086.39 521,-1080.39 521,-1074.39 521,-1074.39 521,-1012.11 521,-1012.11 521,-1006.11 527,-1000.11 533,-1000.11 533,-1000.11 655.67,-1000.11 655.67,-1000.11 661.67,-1000.11 667.67,-1006.11 667.67,-1012.11 667.67,-1012.11 667.67,-1074.39 667.67,-1074.39 667.67,-1080.39 661.67,-1086.39 655.67,-1086.39"/>
<text xml:space="preserve" text-anchor="middle" x="594.33" y="-1064.45" font-family="Noto Sans KR" font-size="14.00" fill="#182033">StackPolicy</text>
<text xml:space="preserve" text-anchor="middle" x="594.33" y="-1047.2" font-family="Noto Sans KR" font-size="14.00" fill="#182033">refresh / add</text>
<text xml:space="preserve" text-anchor="middle" x="594.33" y="-1029.95" font-family="Noto Sans KR" font-size="14.00" fill="#182033">replace</text>
<text xml:space="preserve" text-anchor="middle" x="594.33" y="-1012.7" font-family="Noto Sans KR" font-size="14.00" fill="#182033">independent stacks</text>
</g>
<!-- StatusDefinition&#45;&gt;StackPolicy -->
<g id="edge1" class="edge">
<title>StatusDefinition&#45;&gt;StackPolicy</title>
<path fill="none" stroke="#59687e" stroke-width="1.3" d="M425.22,-864.8C465.94,-918.49 511.25,-978.25 511.25,-978.25 511.25,-978.25 519.34,-984.66 530.45,-993.45"/>
<polygon fill="#59687e" stroke="#59687e" stroke-width="1.3" points="528.58,-995.54 536.59,-998.31 532.05,-991.15 528.58,-995.54"/>
</g>
<!-- DurationPolicy -->
<g id="node5" class="node">
<title>DurationPolicy</title>
<path fill="#ffffff" stroke="#bac7db" stroke-width="1.4" d="M642.92,-955.39C642.92,-955.39 545.75,-955.39 545.75,-955.39 539.75,-955.39 533.75,-949.39 533.75,-943.39 533.75,-943.39 533.75,-881.11 533.75,-881.11 533.75,-875.11 539.75,-869.11 545.75,-869.11 545.75,-869.11 642.92,-869.11 642.92,-869.11 648.92,-869.11 654.92,-875.11 654.92,-881.11 654.92,-881.11 654.92,-943.39 654.92,-943.39 654.92,-949.39 648.92,-955.39 642.92,-955.39"/>
<text xml:space="preserve" text-anchor="middle" x="594.33" y="-933.45" font-family="Noto Sans KR" font-size="14.00" fill="#182033">DurationPolicy</text>
<text xml:space="preserve" text-anchor="middle" x="594.33" y="-916.2" font-family="Noto Sans KR" font-size="14.00" fill="#182033">refresh / extend</text>
<text xml:space="preserve" text-anchor="middle" x="594.33" y="-898.95" font-family="Noto Sans KR" font-size="14.00" fill="#182033">fixed</text>
<text xml:space="preserve" text-anchor="middle" x="594.33" y="-881.7" font-family="Noto Sans KR" font-size="14.00" fill="#182033">expire rule</text>
</g>
<!-- StatusDefinition&#45;&gt;DurationPolicy -->
<g id="edge2" class="edge">
<title>StatusDefinition&#45;&gt;DurationPolicy</title>
<path fill="none" stroke="#59687e" stroke-width="1.3" d="M425.12,-817.05C456.09,-834.57 493.41,-855.69 525.02,-873.59"/>
<polygon fill="#59687e" stroke="#59687e" stroke-width="1.3" points="523.3,-875.83 531.64,-877.33 526.06,-870.95 523.3,-875.83"/>
</g>
<!-- TickPolicy -->
<g id="node6" class="node">
<title>TickPolicy</title>
<path fill="#ffffff" stroke="#bac7db" stroke-width="1.4" d="M649.67,-824.39C649.67,-824.39 539,-824.39 539,-824.39 533,-824.39 527,-818.39 527,-812.39 527,-812.39 527,-750.11 527,-750.11 527,-744.11 533,-738.11 539,-738.11 539,-738.11 649.67,-738.11 649.67,-738.11 655.67,-738.11 661.67,-744.11 661.67,-750.11 661.67,-750.11 661.67,-812.39 661.67,-812.39 661.67,-818.39 655.67,-824.39 649.67,-824.39"/>
<text xml:space="preserve" text-anchor="middle" x="594.33" y="-802.45" font-family="Noto Sans KR" font-size="14.00" fill="#182033">TickPolicy</text>
<text xml:space="preserve" text-anchor="middle" x="594.33" y="-785.2" font-family="Noto Sans KR" font-size="14.00" fill="#182033">Interval</text>
<text xml:space="preserve" text-anchor="middle" x="594.33" y="-767.95" font-family="Noto Sans KR" font-size="14.00" fill="#182033">StartPolicy</text>
<text xml:space="preserve" text-anchor="middle" x="594.33" y="-750.7" font-family="Noto Sans KR" font-size="14.00" fill="#182033">MaxCatchUpTicks</text>
</g>
<!-- StatusDefinition&#45;&gt;TickPolicy -->
<g id="edge3" class="edge">
<title>StatusDefinition&#45;&gt;TickPolicy</title>
<path fill="none" stroke="#59687e" stroke-width="1.3" d="M425.12,-781.25C453.38,-781.25 486.94,-781.25 516.62,-781.25"/>
<polygon fill="#59687e" stroke="#59687e" stroke-width="1.3" points="516.56,-784.05 524.56,-781.25 516.56,-778.45 516.56,-784.05"/>
</g>
<!-- StatusModifierProvider -->
<g id="node7" class="node">
<title>StatusModifierProvider</title>
<path fill="#ffffff" stroke="#bac7db" stroke-width="1.4" d="M665.42,-693.39C665.42,-693.39 523.25,-693.39 523.25,-693.39 517.25,-693.39 511.25,-687.39 511.25,-681.39 511.25,-681.39 511.25,-619.11 511.25,-619.11 511.25,-613.11 517.25,-607.11 523.25,-607.11 523.25,-607.11 665.42,-607.11 665.42,-607.11 671.42,-607.11 677.42,-613.11 677.42,-619.11 677.42,-619.11 677.42,-681.39 677.42,-681.39 677.42,-687.39 671.42,-693.39 665.42,-693.39"/>
<text xml:space="preserve" text-anchor="middle" x="594.33" y="-671.45" font-family="Noto Sans KR" font-size="14.00" fill="#182033">StatusModifierProvider</text>
<text xml:space="preserve" text-anchor="middle" x="594.33" y="-654.2" font-family="Noto Sans KR" font-size="14.00" fill="#182033">create StatModifier</text>
<text xml:space="preserve" text-anchor="middle" x="594.33" y="-636.95" font-family="Noto Sans KR" font-size="14.00" fill="#182033">modifier source =</text>
<text xml:space="preserve" text-anchor="middle" x="594.33" y="-619.7" font-family="Noto Sans KR" font-size="14.00" fill="#182033">statusInstanceId</text>
</g>
<!-- StatusDefinition&#45;&gt;StatusModifierProvider -->
<g id="edge4" class="edge">
<title>StatusDefinition&#45;&gt;StatusModifierProvider</title>
<path fill="none" stroke="#59687e" stroke-width="1.3" d="M425.12,-745.45C450.6,-731.04 480.37,-714.18 507.73,-698.7"/>
<polygon fill="#59687e" stroke="#59687e" stroke-width="1.3" points="508.85,-701.29 514.43,-694.91 506.09,-696.41 508.85,-701.29"/>
</g>
<!-- StatusEffectHook -->
<g id="node8" class="node">
<title>StatusEffectHook</title>
<path fill="#ffffff" stroke="#bac7db" stroke-width="1.4" d="M647.79,-562.39C647.79,-562.39 540.87,-562.39 540.87,-562.39 534.87,-562.39 528.87,-556.39 528.87,-550.39 528.87,-550.39 528.87,-488.11 528.87,-488.11 528.87,-482.11 534.87,-476.11 540.87,-476.11 540.87,-476.11 647.79,-476.11 647.79,-476.11 653.79,-476.11 659.79,-482.11 659.79,-488.11 659.79,-488.11 659.79,-550.39 659.79,-550.39 659.79,-556.39 653.79,-562.39 647.79,-562.39"/>
<text xml:space="preserve" text-anchor="middle" x="594.33" y="-540.45" font-family="Noto Sans KR" font-size="14.00" fill="#182033">StatusEffectHook</text>
<text xml:space="preserve" text-anchor="middle" x="594.33" y="-523.2" font-family="Noto Sans KR" font-size="14.00" fill="#182033">execute periodic</text>
<text xml:space="preserve" text-anchor="middle" x="594.33" y="-505.95" font-family="Noto Sans KR" font-size="14.00" fill="#182033">effects</text>
<text xml:space="preserve" text-anchor="middle" x="594.33" y="-488.7" font-family="Noto Sans KR" font-size="14.00" fill="#182033">react to events</text>
</g>
<!-- StatusDefinition&#45;&gt;StatusEffectHook -->
<g id="edge5" class="edge">
<title>StatusDefinition&#45;&gt;StatusEffectHook</title>
<path fill="none" stroke="#59687e" stroke-width="1.3" d="M425.22,-697.7C465.94,-644.01 511.25,-584.25 511.25,-584.25 511.25,-584.25 519.34,-577.84 530.45,-569.05"/>
<polygon fill="#59687e" stroke="#59687e" stroke-width="1.3" points="532.05,-571.35 536.59,-564.19 528.58,-566.96 532.05,-571.35"/>
</g>
<!-- StatusInstance -->
<g id="node2" class="node">
<title>StatusInstance</title>
<path fill="#ffffff" stroke="none" stroke-width="1.4" d="M419.38,-601.12C419.38,-601.12 302.38,-601.12 302.38,-601.12 296.38,-601.12 290.38,-595.12 290.38,-589.12 290.38,-589.12 290.38,-375.38 290.38,-375.38 290.38,-369.38 296.38,-363.38 302.38,-363.38 302.38,-363.38 419.38,-363.38 419.38,-363.38 425.38,-363.38 431.38,-369.38 431.38,-375.38 431.38,-375.38 431.38,-589.12 431.38,-589.12 431.38,-595.12 425.38,-601.12 419.38,-601.12"/>
<polygon fill="#eefbf6" stroke="none" points="291.38,-563.88 291.38,-600.12 430.38,-600.12 430.38,-563.88 291.38,-563.88"/>
<text xml:space="preserve" text-anchor="start" x="310.25" y="-577.92" font-family="Noto Sans KR" font-weight="bold" font-size="16.00" fill="#182033">StatusInstance</text>
<text xml:space="preserve" text-anchor="start" x="299.38" y="-541.62" font-family="Noto Sans KR" font-size="14.00" fill="#182033">+ InstanceId</text>
<text xml:space="preserve" text-anchor="start" x="299.38" y="-508.38" font-family="Noto Sans KR" font-size="14.00" fill="#182033">+ TargetId: EntityId</text>
<text xml:space="preserve" text-anchor="start" x="299.38" y="-475.12" font-family="Noto Sans KR" font-size="14.00" fill="#182033">+ Source: SourceRef</text>
<text xml:space="preserve" text-anchor="start" x="299.38" y="-441.88" font-family="Noto Sans KR" font-size="14.00" fill="#182033">+ ExpiresAt</text>
<text xml:space="preserve" text-anchor="start" x="299.38" y="-408.62" font-family="Noto Sans KR" font-size="14.00" fill="#182033">+ StackCount</text>
<text xml:space="preserve" text-anchor="start" x="299.38" y="-375.38" font-family="Noto Sans KR" font-size="14.00" fill="#182033">+ NextTickAt</text>
<polygon fill="none" stroke="#61b99a" points="290.38,-363.38 290.38,-601.12 431.38,-601.12 431.38,-363.38 290.38,-363.38"/>
</g>
<!-- StatusController -->
<g id="node3" class="node">
<title>StatusController</title>
<path fill="#ffffff" stroke="none" stroke-width="1.4" d="M119.25,-485.5C119.25,-485.5 12,-485.5 12,-485.5 6,-485.5 0,-479.5 0,-473.5 0,-473.5 0,-293 0,-293 0,-287 6,-281 12,-281 12,-281 119.25,-281 119.25,-281 125.25,-281 131.25,-287 131.25,-293 131.25,-293 131.25,-473.5 131.25,-473.5 131.25,-479.5 125.25,-485.5 119.25,-485.5"/>
<polygon fill="#eaf0ff" stroke="none" points="1,-448.25 1,-484.5 130.25,-484.5 130.25,-448.25 1,-448.25"/>
<text xml:space="preserve" text-anchor="start" x="9" y="-462.3" font-family="Noto Sans KR" font-weight="bold" font-size="16.00" fill="#182033">StatusController</text>
<text xml:space="preserve" text-anchor="start" x="9" y="-426" font-family="Noto Sans KR" font-size="14.00" fill="#182033">+ Apply()</text>
<text xml:space="preserve" text-anchor="start" x="9" y="-392.75" font-family="Noto Sans KR" font-size="14.00" fill="#182033">+ Refresh()</text>
<text xml:space="preserve" text-anchor="start" x="9" y="-359.5" font-family="Noto Sans KR" font-size="14.00" fill="#182033">+ Remove()</text>
<text xml:space="preserve" text-anchor="start" x="9" y="-326.25" font-family="Noto Sans KR" font-size="14.00" fill="#182033">+ Tick()</text>
<text xml:space="preserve" text-anchor="start" x="9" y="-293" font-family="Noto Sans KR" font-size="14.00" fill="#182033">+ QueryByTag()</text>
<polygon fill="none" stroke="#8292f7" points="0,-281 0,-485.5 131.25,-485.5 131.25,-281 0,-281"/>
</g>
<!-- StatusController&#45;&gt;StatusDefinition -->
<g id="edge6" class="edge">
<title>StatusController&#45;&gt;StatusDefinition</title>
<path fill="none" stroke="#59687e" stroke-width="1.3" d="M130.98,-470.59C178.21,-534.69 242.27,-621.64 290.61,-687.25"/>
<polygon fill="#59687e" stroke="#59687e" stroke-width="1.3" points="288.26,-688.77 295.26,-693.55 292.77,-685.45 288.26,-688.77"/>
<text xml:space="preserve" text-anchor="middle" x="199.38" y="-610.03" font-family="Noto Sans KR" font-size="14.00" fill="#46566e">lookup</text>
</g>
<!-- StatusController&#45;&gt;StatusInstance -->
<g id="edge7" class="edge">
<title>StatusController&#45;&gt;StatusInstance</title>
<path fill="none" stroke="#59687e" stroke-width="1.3" d="M130.98,-404.98C175.24,-419.92 234.28,-439.85 281.31,-455.73"/>
<polygon fill="#59687e" stroke="#59687e" stroke-width="1.3" points="280.21,-458.31 288.69,-458.22 282,-453.01 280.21,-458.31"/>
<text xml:space="preserve" text-anchor="middle" x="199.38" y="-442.63" font-family="Noto Sans KR" font-size="14.00" fill="#46566e">owns 0..*</text>
</g>
<!-- DispelPolicy -->
<g id="node9" class="node">
<title>DispelPolicy</title>
<path fill="#ffffff" stroke="#bac7db" stroke-width="1.4" d="M421.46,-318.76C421.46,-318.76 300.29,-318.76 300.29,-318.76 294.29,-318.76 288.29,-312.76 288.29,-306.76 288.29,-306.76 288.29,-261.74 288.29,-261.74 288.29,-255.74 294.29,-249.74 300.29,-249.74 300.29,-249.74 421.46,-249.74 421.46,-249.74 427.46,-249.74 433.46,-255.74 433.46,-261.74 433.46,-261.74 433.46,-306.76 433.46,-306.76 433.46,-312.76 427.46,-318.76 421.46,-318.76"/>
<text xml:space="preserve" text-anchor="middle" x="360.88" y="-296.82" font-family="Noto Sans KR" font-size="14.00" fill="#182033">DispelPolicy</text>
<text xml:space="preserve" text-anchor="middle" x="360.88" y="-279.57" font-family="Noto Sans KR" font-size="14.00" fill="#182033">cleanse / immunity</text>
<text xml:space="preserve" text-anchor="middle" x="360.88" y="-262.32" font-family="Noto Sans KR" font-size="14.00" fill="#182033">tag&#45;based remove</text>
</g>
<!-- StatusController&#45;&gt;DispelPolicy -->
<g id="edge8" class="edge">
<title>StatusController&#45;&gt;DispelPolicy</title>
<path fill="none" stroke="#59687e" stroke-width="1.3" d="M130.98,-361.52C174.37,-346.88 231.97,-327.43 278.53,-311.71"/>
<polygon fill="#59687e" stroke="#59687e" stroke-width="1.3" points="279.14,-314.46 285.82,-309.25 277.35,-309.16 279.14,-314.46"/>
<text xml:space="preserve" text-anchor="middle" x="199.38" y="-355.18" font-family="Noto Sans KR" font-size="14.00" fill="#46566e">remove rules</text>
</g>
<!-- StatusResult -->
<g id="node10" class="node">
<title>StatusResult</title>
<path fill="#ffffff" stroke="none" stroke-width="1.4" d="M442.25,-204.5C442.25,-204.5 279.5,-204.5 279.5,-204.5 273.5,-204.5 267.5,-198.5 267.5,-192.5 267.5,-192.5 267.5,-12 267.5,-12 267.5,-6 273.5,0 279.5,0 279.5,0 442.25,0 442.25,0 448.25,0 454.25,-6 454.25,-12 454.25,-12 454.25,-192.5 454.25,-192.5 454.25,-198.5 448.25,-204.5 442.25,-204.5"/>
<polygon fill="#f0f3f9" stroke="none" points="268.5,-167.25 268.5,-203.5 453.25,-203.5 453.25,-167.25 268.5,-167.25"/>
<text xml:space="preserve" text-anchor="start" x="276.5" y="-181.3" font-family="Noto Sans KR" font-weight="bold" font-size="16.00" fill="#182033">Conceptual StatusResult</text>
<text xml:space="preserve" text-anchor="start" x="276.5" y="-145" font-family="Noto Sans KR" font-size="14.00" fill="#182033">+ Applied</text>
<text xml:space="preserve" text-anchor="start" x="276.5" y="-111.75" font-family="Noto Sans KR" font-size="14.00" fill="#182033">+ Refreshed</text>
<text xml:space="preserve" text-anchor="start" x="276.5" y="-78.5" font-family="Noto Sans KR" font-size="14.00" fill="#182033">+ StackChanged</text>
<text xml:space="preserve" text-anchor="start" x="276.5" y="-45.25" font-family="Noto Sans KR" font-size="14.00" fill="#182033">+ Immune</text>
<text xml:space="preserve" text-anchor="start" x="276.5" y="-12" font-family="Noto Sans KR" font-size="14.00" fill="#182033">+ Removed</text>
<polygon fill="none" stroke="#99a8bd" points="267.5,0 267.5,-204.5 454.25,-204.5 454.25,0 267.5,0"/>
</g>
<!-- StatusController&#45;&gt;StatusResult -->
<g id="edge9" class="edge">
<title>StatusController&#45;&gt;StatusResult</title>
<path fill="none" stroke="#59687e" stroke-width="1.3" d="M130.98,-321.58C168.91,-285.24 217.7,-238.48 260.49,-197.49"/>
<polygon fill="#59687e" stroke="#59687e" stroke-width="1.3" points="262.31,-199.61 266.15,-192.06 258.44,-195.57 262.31,-199.61"/>
<text xml:space="preserve" text-anchor="middle" x="199.38" y="-296.31" font-family="Noto Sans KR" font-size="14.00" fill="#46566e">returns</text>
</g>
</g>
</svg>
