<?xml version="1.0" encoding="UTF-8" standalone="no"?>
<!DOCTYPE svg PUBLIC "-//W3C//DTD SVG 1.1//EN"
 "http://www.w3.org/Graphics/SVG/1.1/DTD/svg11.dtd">
<!-- Generated by graphviz version 2.42.4 (0)
 -->
<!-- Title: G Pages: 1 -->
<svg width="714pt" height="973pt"
 viewBox="8.64 8.64 705.64 964.64" xmlns="http://www.w3.org/2000/svg" xmlns:xlink="http://www.w3.org/1999/xlink">
<g id="graph0" class="graph" transform="scale(1 1) rotate(0) translate(26.64 946.64)">
<title>G</title>
<polygon fill="#ffffff" stroke="transparent" points="-18,18 -18,-938 679,-938 679,18 -18,18"/>
<!-- StatusDefinition -->
<g id="node1" class="node">
<title>StatusDefinition</title>
<path fill="#ffffff" stroke="transparent" stroke-width="1.4" d="M420.5,-832C420.5,-832 298.5,-832 298.5,-832 292.5,-832 286.5,-826 286.5,-820 286.5,-820 286.5,-591 286.5,-591 286.5,-585 292.5,-579 298.5,-579 298.5,-579 420.5,-579 420.5,-579 426.5,-579 432.5,-585 432.5,-591 432.5,-591 432.5,-820 432.5,-820 432.5,-826 426.5,-832 420.5,-832"/>
<polygon fill="#fff7e6" stroke="transparent" points="287.5,-796.5 287.5,-830.5 431.5,-830.5 431.5,-796.5 287.5,-796.5"/>
<text text-anchor="start" x="295.5" y="-810.7" font-family="Noto Sans CJK KR" font-weight="bold" font-size="16.00" fill="#182033">StatusDefinition</text>
<text text-anchor="start" x="295.5" y="-777.3" font-family="Noto Sans CJK KR" font-size="14.00" fill="#182033">+ statusId</text>
<text text-anchor="start" x="295.5" y="-746.3" font-family="Noto Sans CJK KR" font-size="14.00" fill="#182033">+ tags</text>
<text text-anchor="start" x="295.5" y="-715.3" font-family="Noto Sans CJK KR" font-size="14.00" fill="#182033">+ durationRule</text>
<text text-anchor="start" x="295.5" y="-684.3" font-family="Noto Sans CJK KR" font-size="14.00" fill="#182033">+ stackingRule</text>
<text text-anchor="start" x="295.5" y="-653.3" font-family="Noto Sans CJK KR" font-size="14.00" fill="#182033">+ tickRule?</text>
<text text-anchor="start" x="295.5" y="-622.3" font-family="Noto Sans CJK KR" font-size="14.00" fill="#182033">+ modifiers[]</text>
<text text-anchor="start" x="295.5" y="-591.3" font-family="Noto Sans CJK KR" font-size="14.00" fill="#182033">+ periodicEffects[]</text>
<polygon fill="none" stroke="#e0ad4e" points="286.5,-579 286.5,-832 432.5,-832 432.5,-579 286.5,-579"/>
</g>
<!-- StackPolicy -->
<g id="node4" class="node">
<title>StackPolicy</title>
<path fill="#ffffff" stroke="#bac7db" stroke-width="1.4" d="M643,-920C643,-920 505,-920 505,-920 499,-920 493,-914 493,-908 493,-908 493,-875 493,-875 493,-869 499,-863 505,-863 505,-863 643,-863 643,-863 649,-863 655,-869 655,-875 655,-875 655,-908 655,-908 655,-914 649,-920 643,-920"/>
<text text-anchor="middle" x="574" y="-902.8" font-family="Noto Sans CJK KR" font-size="14.00" fill="#182033">StackPolicy</text>
<text text-anchor="middle" x="574" y="-887.8" font-family="Noto Sans CJK KR" font-size="14.00" fill="#182033">refresh / add / replace</text>
<text text-anchor="middle" x="574" y="-872.8" font-family="Noto Sans CJK KR" font-size="14.00" fill="#182033">independent stacks</text>
</g>
<!-- StatusDefinition&#45;&gt;StackPolicy -->
<g id="edge1" class="edge">
<title>StatusDefinition&#45;&gt;StackPolicy</title>
<path fill="none" stroke="#59687e" stroke-width="1.3" d="M360,-832.14C360,-865.07 360,-891.5 360,-891.5 360,-891.5 484.79,-891.5 484.79,-891.5"/>
<polygon fill="#59687e" stroke="#59687e" stroke-width="1.3" points="484.79,-894.3 492.79,-891.5 484.79,-888.7 484.79,-894.3"/>
</g>
<!-- DurationPolicy -->
<g id="node5" class="node">
<title>DurationPolicy</title>
<path fill="#ffffff" stroke="#bac7db" stroke-width="1.4" d="M644,-827C644,-827 504,-827 504,-827 498,-827 492,-821 492,-815 492,-815 492,-782 492,-782 492,-776 498,-770 504,-770 504,-770 644,-770 644,-770 650,-770 656,-776 656,-782 656,-782 656,-815 656,-815 656,-821 650,-827 644,-827"/>
<text text-anchor="middle" x="574" y="-809.8" font-family="Noto Sans CJK KR" font-size="14.00" fill="#182033">DurationPolicy</text>
<text text-anchor="middle" x="574" y="-794.8" font-family="Noto Sans CJK KR" font-size="14.00" fill="#182033">refresh / extend / fixed</text>
<text text-anchor="middle" x="574" y="-779.8" font-family="Noto Sans CJK KR" font-size="14.00" fill="#182033">expire rule</text>
</g>
<!-- StatusDefinition&#45;&gt;DurationPolicy -->
<g id="edge2" class="edge">
<title>StatusDefinition&#45;&gt;DurationPolicy</title>
<path fill="none" stroke="#59687e" stroke-width="1.3" d="M432.72,-798.5C432.72,-798.5 483.91,-798.5 483.91,-798.5"/>
<polygon fill="#59687e" stroke="#59687e" stroke-width="1.3" points="483.91,-801.3 491.91,-798.5 483.91,-795.7 483.91,-801.3"/>
</g>
<!-- TickPolicy -->
<g id="node6" class="node">
<title>TickPolicy</title>
<path fill="#ffffff" stroke="#bac7db" stroke-width="1.4" d="M632.5,-734C632.5,-734 515.5,-734 515.5,-734 509.5,-734 503.5,-728 503.5,-722 503.5,-722 503.5,-689 503.5,-689 503.5,-683 509.5,-677 515.5,-677 515.5,-677 632.5,-677 632.5,-677 638.5,-677 644.5,-683 644.5,-689 644.5,-689 644.5,-722 644.5,-722 644.5,-728 638.5,-734 632.5,-734"/>
<text text-anchor="middle" x="574" y="-716.8" font-family="Noto Sans CJK KR" font-size="14.00" fill="#182033">TickPolicy</text>
<text text-anchor="middle" x="574" y="-701.8" font-family="Noto Sans CJK KR" font-size="14.00" fill="#182033">interval / turn start</text>
<text text-anchor="middle" x="574" y="-686.8" font-family="Noto Sans CJK KR" font-size="14.00" fill="#182033">turn end</text>
</g>
<!-- StatusDefinition&#45;&gt;TickPolicy -->
<g id="edge3" class="edge">
<title>StatusDefinition&#45;&gt;TickPolicy</title>
<path fill="none" stroke="#59687e" stroke-width="1.3" d="M432.72,-705.5C432.72,-705.5 495.29,-705.5 495.29,-705.5"/>
<polygon fill="#59687e" stroke="#59687e" stroke-width="1.3" points="495.29,-708.3 503.29,-705.5 495.29,-702.7 495.29,-708.3"/>
</g>
<!-- StatusModifierProvider -->
<g id="node7" class="node">
<title>StatusModifierProvider</title>
<path fill="#ffffff" stroke="#bac7db" stroke-width="1.4" d="M647.5,-640.5C647.5,-640.5 500.5,-640.5 500.5,-640.5 494.5,-640.5 488.5,-634.5 488.5,-628.5 488.5,-628.5 488.5,-580.5 488.5,-580.5 488.5,-574.5 494.5,-568.5 500.5,-568.5 500.5,-568.5 647.5,-568.5 647.5,-568.5 653.5,-568.5 659.5,-574.5 659.5,-580.5 659.5,-580.5 659.5,-628.5 659.5,-628.5 659.5,-634.5 653.5,-640.5 647.5,-640.5"/>
<text text-anchor="middle" x="574" y="-623.3" font-family="Noto Sans CJK KR" font-size="14.00" fill="#182033">StatusModifierProvider</text>
<text text-anchor="middle" x="574" y="-608.3" font-family="Noto Sans CJK KR" font-size="14.00" fill="#182033">create StatModifier</text>
<text text-anchor="middle" x="574" y="-593.3" font-family="Noto Sans CJK KR" font-size="14.00" fill="#182033">modifier source</text>
<text text-anchor="middle" x="574" y="-578.3" font-family="Noto Sans CJK KR" font-size="14.00" fill="#182033">= statusInstanceId</text>
</g>
<!-- StatusDefinition&#45;&gt;StatusModifierProvider -->
<g id="edge4" class="edge">
<title>StatusDefinition&#45;&gt;StatusModifierProvider</title>
<path fill="none" stroke="#59687e" stroke-width="1.3" d="M432.72,-620C432.72,-620 480.17,-620 480.17,-620"/>
<polygon fill="#59687e" stroke="#59687e" stroke-width="1.3" points="480.17,-622.8 488.17,-620 480.17,-617.2 480.17,-622.8"/>
</g>
<!-- StatusEffectHook -->
<g id="node8" class="node">
<title>StatusEffectHook</title>
<path fill="#ffffff" stroke="#bac7db" stroke-width="1.4" d="M649,-532C649,-532 499,-532 499,-532 493,-532 487,-526 487,-520 487,-520 487,-487 487,-487 487,-481 493,-475 499,-475 499,-475 649,-475 649,-475 655,-475 661,-481 661,-487 661,-487 661,-520 661,-520 661,-526 655,-532 649,-532"/>
<text text-anchor="middle" x="574" y="-514.8" font-family="Noto Sans CJK KR" font-size="14.00" fill="#182033">StatusEffectHook</text>
<text text-anchor="middle" x="574" y="-499.8" font-family="Noto Sans CJK KR" font-size="14.00" fill="#182033">execute periodic effects</text>
<text text-anchor="middle" x="574" y="-484.8" font-family="Noto Sans CJK KR" font-size="14.00" fill="#182033">react to events</text>
</g>
<!-- StatusDefinition&#45;&gt;StatusEffectHook -->
<g id="edge5" class="edge">
<title>StatusDefinition&#45;&gt;StatusEffectHook</title>
<path fill="none" stroke="#59687e" stroke-width="1.3" d="M432.63,-599.5C449.19,-599.5 462,-599.5 462,-599.5 462,-599.5 462,-503.5 462,-503.5 462,-503.5 478.86,-503.5 478.86,-503.5"/>
<polygon fill="#59687e" stroke="#59687e" stroke-width="1.3" points="478.86,-506.3 486.86,-503.5 478.86,-500.7 478.86,-506.3"/>
</g>
<!-- StatusInstance -->
<g id="node2" class="node">
<title>StatusInstance</title>
<path fill="#ffffff" stroke="transparent" stroke-width="1.4" d="M424,-542.5C424,-542.5 295,-542.5 295,-542.5 289,-542.5 283,-536.5 283,-530.5 283,-530.5 283,-332.5 283,-332.5 283,-326.5 289,-320.5 295,-320.5 295,-320.5 424,-320.5 424,-320.5 430,-320.5 436,-326.5 436,-332.5 436,-332.5 436,-530.5 436,-530.5 436,-536.5 430,-542.5 424,-542.5"/>
<polygon fill="#eefbf6" stroke="transparent" points="284.5,-507.5 284.5,-541.5 435.5,-541.5 435.5,-507.5 284.5,-507.5"/>
<text text-anchor="start" x="301" y="-521.7" font-family="Noto Sans CJK KR" font-weight="bold" font-size="16.00" fill="#182033">StatusInstance</text>
<text text-anchor="start" x="292.5" y="-488.3" font-family="Noto Sans CJK KR" font-size="14.00" fill="#182033">+ instanceId</text>
<text text-anchor="start" x="292.5" y="-457.3" font-family="Noto Sans CJK KR" font-size="14.00" fill="#182033">+ target</text>
<text text-anchor="start" x="292.5" y="-426.3" font-family="Noto Sans CJK KR" font-size="14.00" fill="#182033">+ appliedBySourceId</text>
<text text-anchor="start" x="292.5" y="-395.3" font-family="Noto Sans CJK KR" font-size="14.00" fill="#182033">+ remainingTime</text>
<text text-anchor="start" x="292.5" y="-364.3" font-family="Noto Sans CJK KR" font-size="14.00" fill="#182033">+ stackCount</text>
<text text-anchor="start" x="292.5" y="-333.3" font-family="Noto Sans CJK KR" font-size="14.00" fill="#182033">+ nextTickTime</text>
<polygon fill="none" stroke="#61b99a" points="283,-320.5 283,-542.5 436,-542.5 436,-320.5 283,-320.5"/>
</g>
<!-- StatusController -->
<g id="node3" class="node">
<title>StatusController</title>
<path fill="#ffffff" stroke="transparent" stroke-width="1.4" d="M137,-439C137,-439 12,-439 12,-439 6,-439 0,-433 0,-427 0,-427 0,-260 0,-260 0,-254 6,-248 12,-248 12,-248 137,-248 137,-248 143,-248 149,-254 149,-260 149,-260 149,-427 149,-427 149,-433 143,-439 137,-439"/>
<polygon fill="#eaf0ff" stroke="transparent" points="1.5,-403.5 1.5,-437.5 148.5,-437.5 148.5,-403.5 1.5,-403.5"/>
<text text-anchor="start" x="9.5" y="-417.7" font-family="Noto Sans CJK KR" font-weight="bold" font-size="16.00" fill="#182033">StatusController</text>
<text text-anchor="start" x="9.5" y="-384.3" font-family="Noto Sans CJK KR" font-size="14.00" fill="#182033">+ apply()</text>
<text text-anchor="start" x="9.5" y="-353.3" font-family="Noto Sans CJK KR" font-size="14.00" fill="#182033">+ refresh()</text>
<text text-anchor="start" x="9.5" y="-322.3" font-family="Noto Sans CJK KR" font-size="14.00" fill="#182033">+ remove()</text>
<text text-anchor="start" x="9.5" y="-291.3" font-family="Noto Sans CJK KR" font-size="14.00" fill="#182033">+ tick()</text>
<text text-anchor="start" x="9.5" y="-260.3" font-family="Noto Sans CJK KR" font-size="14.00" fill="#182033">+ queryByTag()</text>
<polygon fill="none" stroke="#8292f7" points="0,-248 0,-439 149,-439 149,-248 0,-248"/>
</g>
<!-- StatusController&#45;&gt;StatusDefinition -->
<g id="edge6" class="edge">
<title>StatusController&#45;&gt;StatusDefinition</title>
<path fill="none" stroke="#59687e" stroke-width="1.3" d="M75,-439.08C75,-546.33 75,-705.5 75,-705.5 75,-705.5 278.23,-705.5 278.23,-705.5"/>
<polygon fill="#59687e" stroke="#59687e" stroke-width="1.3" points="278.23,-708.3 286.23,-705.5 278.23,-702.7 278.23,-708.3"/>
<text text-anchor="middle" x="216" y="-600.3" font-family="Noto Sans CJK KR" font-size="14.00" fill="#46566e">lookup</text>
</g>
<!-- StatusController&#45;&gt;StatusInstance -->
<g id="edge7" class="edge">
<title>StatusController&#45;&gt;StatusInstance</title>
<path fill="none" stroke="#59687e" stroke-width="1.3" d="M149.01,-379.75C149.01,-379.75 274.95,-379.75 274.95,-379.75"/>
<polygon fill="#59687e" stroke="#59687e" stroke-width="1.3" points="274.95,-382.55 282.95,-379.75 274.95,-376.95 274.95,-382.55"/>
<text text-anchor="middle" x="216" y="-435.3" font-family="Noto Sans CJK KR" font-size="14.00" fill="#46566e">owns 0..*</text>
</g>
<!-- DispelPolicy -->
<g id="node9" class="node">
<title>DispelPolicy</title>
<path fill="#ffffff" stroke="#bac7db" stroke-width="1.4" d="M419.5,-284C419.5,-284 299.5,-284 299.5,-284 293.5,-284 287.5,-278 287.5,-272 287.5,-272 287.5,-239 287.5,-239 287.5,-233 293.5,-227 299.5,-227 299.5,-227 419.5,-227 419.5,-227 425.5,-227 431.5,-233 431.5,-239 431.5,-239 431.5,-272 431.5,-272 431.5,-278 425.5,-284 419.5,-284"/>
<text text-anchor="middle" x="359.5" y="-266.8" font-family="Noto Sans CJK KR" font-size="14.00" fill="#182033">DispelPolicy</text>
<text text-anchor="middle" x="359.5" y="-251.8" font-family="Noto Sans CJK KR" font-size="14.00" fill="#182033">cleanse / immunity</text>
<text text-anchor="middle" x="359.5" y="-236.8" font-family="Noto Sans CJK KR" font-size="14.00" fill="#182033">tag based remove</text>
</g>
<!-- StatusController&#45;&gt;DispelPolicy -->
<g id="edge8" class="edge">
<title>StatusController&#45;&gt;DispelPolicy</title>
<path fill="none" stroke="#59687e" stroke-width="1.3" d="M149.01,-266C149.01,-266 279.39,-266 279.39,-266"/>
<polygon fill="#59687e" stroke="#59687e" stroke-width="1.3" points="279.39,-268.8 287.39,-266 279.39,-263.2 279.39,-268.8"/>
<text text-anchor="middle" x="216" y="-259.3" font-family="Noto Sans CJK KR" font-size="14.00" fill="#46566e">remove rules</text>
</g>
<!-- StatusResult -->
<g id="node10" class="node">
<title>StatusResult</title>
<path fill="#ffffff" stroke="transparent" stroke-width="1.4" d="M408,-191C408,-191 311,-191 311,-191 305,-191 299,-185 299,-179 299,-179 299,-12 299,-12 299,-6 305,0 311,0 311,0 408,0 408,0 414,0 420,-6 420,-12 420,-12 420,-179 420,-179 420,-185 414,-191 408,-191"/>
<polygon fill="#f0f3f9" stroke="transparent" points="300.5,-155.5 300.5,-189.5 419.5,-189.5 419.5,-155.5 300.5,-155.5"/>
<text text-anchor="start" x="309.5" y="-169.7" font-family="Noto Sans CJK KR" font-weight="bold" font-size="16.00" fill="#182033">StatusResult</text>
<text text-anchor="start" x="308.5" y="-136.3" font-family="Noto Sans CJK KR" font-size="14.00" fill="#182033">+ applied</text>
<text text-anchor="start" x="308.5" y="-105.3" font-family="Noto Sans CJK KR" font-size="14.00" fill="#182033">+ refreshed</text>
<text text-anchor="start" x="308.5" y="-74.3" font-family="Noto Sans CJK KR" font-size="14.00" fill="#182033">+ stackChanged</text>
<text text-anchor="start" x="308.5" y="-43.3" font-family="Noto Sans CJK KR" font-size="14.00" fill="#182033">+ immune</text>
<text text-anchor="start" x="308.5" y="-12.3" font-family="Noto Sans CJK KR" font-size="14.00" fill="#182033">+ removed</text>
<polygon fill="none" stroke="#99a8bd" points="299,0 299,-191 420,-191 420,0 299,0"/>
</g>
<!-- StatusController&#45;&gt;StatusResult -->
<g id="edge9" class="edge">
<title>StatusController&#45;&gt;StatusResult</title>
<path fill="none" stroke="#59687e" stroke-width="1.3" d="M75,-247.97C75,-178.11 75,-95.5 75,-95.5 75,-95.5 290.82,-95.5 290.82,-95.5"/>
<polygon fill="#59687e" stroke="#59687e" stroke-width="1.3" points="290.82,-98.3 298.82,-95.5 290.82,-92.7 290.82,-98.3"/>
<text text-anchor="middle" x="216" y="-99.3" font-family="Noto Sans CJK KR" font-size="14.00" fill="#46566e">returns</text>
</g>
</g>
</svg>
