<?xml version="1.0" encoding="UTF-8" standalone="no"?>
<!DOCTYPE svg PUBLIC "-//W3C//DTD SVG 1.1//EN"
 "http://www.w3.org/Graphics/SVG/1.1/DTD/svg11.dtd">
<!-- Generated by graphviz version 15.1.0 (20260618.0150)
 -->
<!-- Title: G Pages: 1 -->
<svg width="1298pt" height="1129pt"
 viewBox="12.00 12.00 1287.00 1118.00" xmlns="http://www.w3.org/2000/svg" xmlns:xlink="http://www.w3.org/1999/xlink">
<g id="graph0" class="graph" transform="scale(1.33333 1.33333) rotate(0) translate(26.64 820.43)">
<title>G</title>
<polygon fill="#ffffff" stroke="none" points="-18,18 -18,-811.79 938.3,-811.79 938.3,18 -18,18"/>
<!-- Requested -->
<g id="node1" class="node">
<title>Requested</title>
<ellipse fill="#eefbf6" stroke="#bac7db" stroke-width="1.4" cx="554.46" cy="-728.79" rx="65" ry="65"/>
<text xml:space="preserve" text-anchor="middle" x="554.46" y="-724.11" font-family="Noto Sans KR" font-size="14.00" fill="#182033">Requested</text>
</g>
<!-- Rejected -->
<g id="node2" class="node">
<title>Rejected</title>
<path fill="#ffffff" stroke="#bac7db" stroke-width="1.4" d="M908.3,-754.68C908.3,-754.68 800.62,-754.68 800.62,-754.68 794.62,-754.68 788.62,-748.68 788.62,-742.68 788.62,-742.68 788.62,-714.9 788.62,-714.9 788.62,-708.9 794.62,-702.9 800.62,-702.9 800.62,-702.9 908.3,-702.9 908.3,-702.9 914.3,-702.9 920.3,-708.9 920.3,-714.9 920.3,-714.9 920.3,-742.68 920.3,-742.68 920.3,-748.68 914.3,-754.68 908.3,-754.68"/>
<text xml:space="preserve" text-anchor="middle" x="854.46" y="-732.74" font-family="Noto Sans KR" font-size="14.00" fill="#182033">Rejected</text>
<text xml:space="preserve" text-anchor="middle" x="854.46" y="-715.49" font-family="Noto Sans KR" font-size="14.00" fill="#182033">Invalid / Immune</text>
</g>
<!-- Requested&#45;&gt;Rejected -->
<g id="edge1" class="edge">
<title>Requested:e&#45;&gt;Rejected:w</title>
<path fill="none" stroke="#59687e" stroke-width="1.3" d="M619.46,-728.79C619.46,-728.79 651.17,-761.79 651.17,-761.79 651.17,-761.79 756.92,-761.79 756.92,-761.79 756.92,-761.79 771.56,-746.54 780.95,-736.78"/>
<polygon fill="#59687e" stroke="#59687e" stroke-width="1.3" points="783.74,-737.92 787.26,-730.21 779.7,-734.04 783.74,-737.92"/>
<text xml:space="preserve" text-anchor="middle" x="704.04" y="-765.74" font-family="Noto Sans KR" font-size="14.00" fill="#46566e">immune / invalid</text>
</g>
<!-- Applied -->
<g id="node3" class="node">
<title>Applied</title>
<path fill="#ffffff" stroke="#bac7db" stroke-width="1.4" d="M607.42,-586.54C607.42,-586.54 473.5,-586.54 473.5,-586.54 467.5,-586.54 461.5,-580.54 461.5,-574.54 461.5,-574.54 461.5,-546.76 461.5,-546.76 461.5,-540.76 467.5,-534.76 473.5,-534.76 473.5,-534.76 607.42,-534.76 607.42,-534.76 613.42,-534.76 619.42,-540.76 619.42,-546.76 619.42,-546.76 619.42,-574.54 619.42,-574.54 619.42,-580.54 613.42,-586.54 607.42,-586.54"/>
<text xml:space="preserve" text-anchor="middle" x="540.46" y="-564.6" font-family="Noto Sans KR" font-size="14.00" fill="#182033">Applied</text>
<text xml:space="preserve" text-anchor="middle" x="540.46" y="-547.35" font-family="Noto Sans KR" font-size="14.00" fill="#182033">create StatusInstance</text>
</g>
<!-- Requested&#45;&gt;Applied -->
<g id="edge2" class="edge">
<title>Requested&#45;&gt;Applied</title>
<path fill="none" stroke="#59687e" stroke-width="1.3" d="M549.05,-663.56C547.14,-640.96 545.07,-616.39 543.44,-597.04"/>
<polygon fill="#59687e" stroke="#59687e" stroke-width="1.3" points="546.24,-596.86 542.77,-589.12 540.66,-597.33 546.24,-596.86"/>
<text xml:space="preserve" text-anchor="middle" x="560.83" y="-620.49" font-family="Noto Sans KR" font-size="14.00" fill="#46566e">valid</text>
</g>
<!-- Removed -->
<g id="node9" class="node">
<title>Removed</title>
<ellipse fill="#ffffff" stroke="#bac7db" stroke-width="1.4" cx="689.46" cy="-99.23" rx="95.23" ry="95.23"/>
<ellipse fill="none" stroke="#bac7db" stroke-width="1.4" cx="689.46" cy="-99.23" rx="99.23" ry="99.23"/>
<text xml:space="preserve" text-anchor="middle" x="689.46" y="-111.8" font-family="Noto Sans KR" font-size="14.00" fill="#182033">Removed</text>
<text xml:space="preserve" text-anchor="middle" x="689.46" y="-94.55" font-family="Noto Sans KR" font-size="14.00" fill="#182033">remove modifiers</text>
<text xml:space="preserve" text-anchor="middle" x="689.46" y="-77.3" font-family="Noto Sans KR" font-size="14.00" fill="#182033">cancel ticks</text>
</g>
<!-- Rejected&#45;&gt;Removed -->
<g id="edge12" class="edge">
<title>Rejected&#45;&gt;Removed</title>
<path fill="none" stroke="#59687e" stroke-width="1.3" d="M854.61,-702.56C854.89,-656.08 855.46,-561.65 855.46,-561.65 855.46,-561.65 855.46,-561.65 855.46,-292.97 855.46,-292.97 805.53,-235 760.44,-182.64"/>
<polygon fill="#59687e" stroke="#59687e" stroke-width="1.3" points="762.74,-181.02 755.4,-176.79 758.5,-184.68 762.74,-181.02"/>
<text xml:space="preserve" text-anchor="middle" x="887.71" y="-426.95" font-family="Noto Sans KR" font-size="14.00" fill="#46566e">result only</text>
</g>
<!-- Active -->
<g id="node4" class="node">
<title>Active</title>
<path fill="#ffffff" stroke="#bac7db" stroke-width="1.4" d="M581.92,-457.51C581.92,-457.51 457,-457.51 457,-457.51 451,-457.51 445,-451.51 445,-445.51 445,-445.51 445,-417.73 445,-417.73 445,-411.73 451,-405.73 457,-405.73 457,-405.73 581.92,-405.73 581.92,-405.73 587.92,-405.73 593.92,-411.73 593.92,-417.73 593.92,-417.73 593.92,-445.51 593.92,-445.51 593.92,-451.51 587.92,-457.51 581.92,-457.51"/>
<text xml:space="preserve" text-anchor="middle" x="519.46" y="-435.57" font-family="Noto Sans KR" font-size="14.00" fill="#182033">Active</text>
<text xml:space="preserve" text-anchor="middle" x="519.46" y="-418.32" font-family="Noto Sans KR" font-size="14.00" fill="#182033">modifiers registered</text>
</g>
<!-- Applied&#45;&gt;Active -->
<g id="edge3" class="edge">
<title>Applied&#45;&gt;Active</title>
<path fill="none" stroke="#59687e" stroke-width="1.3" d="M536.26,-534.25C533.1,-515.12 528.73,-488.68 525.24,-467.56"/>
<polygon fill="#59687e" stroke="#59687e" stroke-width="1.3" points="528.04,-467.36 523.97,-459.92 522.52,-468.27 528.04,-467.36"/>
<text xml:space="preserve" text-anchor="middle" x="584.84" y="-491.46" font-family="Noto Sans KR" font-size="14.00" fill="#46566e">register modifiers</text>
</g>
<!-- Ticking -->
<g id="node5" class="node">
<title>Ticking</title>
<path fill="#ffffff" stroke="#bac7db" stroke-width="1.4" d="M166.92,-328.48C166.92,-328.48 12,-328.48 12,-328.48 6,-328.48 0,-322.48 0,-316.48 0,-316.48 0,-271.45 0,-271.45 0,-265.45 6,-259.45 12,-259.45 12,-259.45 166.92,-259.45 166.92,-259.45 172.92,-259.45 178.92,-265.45 178.92,-271.45 178.92,-271.45 178.92,-316.48 178.92,-316.48 178.92,-322.48 172.92,-328.48 166.92,-328.48"/>
<text xml:space="preserve" text-anchor="middle" x="89.46" y="-306.54" font-family="Noto Sans KR" font-size="14.00" fill="#182033">Tick due → Ticking</text>
<text xml:space="preserve" text-anchor="middle" x="89.46" y="-289.29" font-family="Noto Sans KR" font-size="14.00" fill="#182033">periodic effects</text>
<text xml:space="preserve" text-anchor="middle" x="89.46" y="-272.04" font-family="Noto Sans KR" font-size="14.00" fill="#182033">return Active if still active</text>
</g>
<!-- Active&#45;&gt;Ticking -->
<g id="edge4" class="edge">
<title>Active:e&#45;&gt;Ticking:n</title>
<path fill="none" stroke="#54b7cf" stroke-width="1.3" d="M594.92,-431.62C594.92,-431.62 593.92,-405.73 593.92,-405.73 593.92,-405.73 194.46,-375.73 194.46,-375.73 194.46,-375.73 123.8,-343.94 98.41,-332.51"/>
<polygon fill="#54b7cf" stroke="#54b7cf" stroke-width="1.3" points="99.7,-330.02 91.25,-329.29 97.4,-335.13 99.7,-330.02"/>
</g>
<!-- Refreshed -->
<g id="node6" class="node">
<title>Refreshed</title>
<path fill="#ffffff" stroke="#bac7db" stroke-width="1.4" d="M410.04,-328.48C410.04,-328.48 252.88,-328.48 252.88,-328.48 246.88,-328.48 240.88,-322.48 240.88,-316.48 240.88,-316.48 240.88,-271.45 240.88,-271.45 240.88,-265.45 246.88,-259.45 252.88,-259.45 252.88,-259.45 410.04,-259.45 410.04,-259.45 416.04,-259.45 422.04,-265.45 422.04,-271.45 422.04,-271.45 422.04,-316.48 422.04,-316.48 422.04,-322.48 416.04,-328.48 410.04,-328.48"/>
<text xml:space="preserve" text-anchor="middle" x="331.46" y="-306.54" font-family="Noto Sans KR" font-size="14.00" fill="#182033">Reapply → Refreshed</text>
<text xml:space="preserve" text-anchor="middle" x="331.46" y="-289.29" font-family="Noto Sans KR" font-size="14.00" fill="#182033">Duration / Stack changed</text>
<text xml:space="preserve" text-anchor="middle" x="331.46" y="-272.04" font-family="Noto Sans KR" font-size="14.00" fill="#182033">return Active after refresh</text>
</g>
<!-- Active&#45;&gt;Refreshed -->
<g id="edge6" class="edge">
<title>Active:w&#45;&gt;Refreshed:n</title>
<path fill="none" stroke="#ab8fe0" stroke-width="1.3" d="M444,-431.62C444,-431.62 372.46,-375.73 372.46,-375.73 372.46,-375.73 349.4,-349.15 337.87,-335.86"/>
<polygon fill="#ab8fe0" stroke="#ab8fe0" stroke-width="1.3" points="340.11,-334.18 332.75,-329.97 335.88,-337.85 340.11,-334.18"/>
</g>
<!-- Expired -->
<g id="node7" class="node">
<title>Expired</title>
<path fill="#ffffff" stroke="#bac7db" stroke-width="1.4" d="M543.3,-311.97C543.3,-311.97 495.63,-311.97 495.63,-311.97 489.63,-311.97 483.63,-305.97 483.63,-299.97 483.63,-299.97 483.63,-287.97 483.63,-287.97 483.63,-281.97 489.63,-275.97 495.63,-275.97 495.63,-275.97 543.3,-275.97 543.3,-275.97 549.3,-275.97 555.3,-281.97 555.3,-287.97 555.3,-287.97 555.3,-299.97 555.3,-299.97 555.3,-305.97 549.3,-311.97 543.3,-311.97"/>
<text xml:space="preserve" text-anchor="middle" x="519.46" y="-289.29" font-family="Noto Sans KR" font-size="14.00" fill="#182033">Expired</text>
</g>
<!-- Active&#45;&gt;Expired -->
<g id="edge8" class="edge">
<title>Active&#45;&gt;Expired</title>
<path fill="none" stroke="#59687e" stroke-width="1.3" d="M519.46,-405.11C519.46,-381.57 519.46,-346.72 519.46,-322.55"/>
<polygon fill="#59687e" stroke="#59687e" stroke-width="1.3" points="522.26,-322.56 519.46,-314.56 516.66,-322.56 522.26,-322.56"/>
<text xml:space="preserve" text-anchor="middle" x="560.34" y="-362.43" font-family="Noto Sans KR" font-size="14.00" fill="#46566e">duration &lt;= 0</text>
</g>
<!-- Dispelled -->
<g id="node8" class="node">
<title>Dispelled</title>
<path fill="#ffffff" stroke="#bac7db" stroke-width="1.4" d="M749.67,-311.97C749.67,-311.97 629.25,-311.97 629.25,-311.97 623.25,-311.97 617.25,-305.97 617.25,-299.97 617.25,-299.97 617.25,-287.97 617.25,-287.97 617.25,-281.97 623.25,-275.97 629.25,-275.97 629.25,-275.97 749.67,-275.97 749.67,-275.97 755.67,-275.97 761.67,-281.97 761.67,-287.97 761.67,-287.97 761.67,-299.97 761.67,-299.97 761.67,-305.97 755.67,-311.97 749.67,-311.97"/>
<text xml:space="preserve" text-anchor="middle" x="689.46" y="-289.29" font-family="Noto Sans KR" font-size="14.00" fill="#182033">Dispelled / Cleanse</text>
</g>
<!-- Active&#45;&gt;Dispelled -->
<g id="edge9" class="edge">
<title>Active&#45;&gt;Dispelled</title>
<path fill="none" stroke="#59687e" stroke-width="1.3" d="M563.16,-405.11C587.71,-390.77 613.46,-375.73 613.46,-375.73 613.46,-375.73 643.98,-343.3 666.34,-319.54"/>
<polygon fill="#59687e" stroke="#59687e" stroke-width="1.3" points="668.18,-321.67 671.62,-313.92 664.1,-317.83 668.18,-321.67"/>
<text xml:space="preserve" text-anchor="middle" x="651.62" y="-362.43" font-family="Noto Sans KR" font-size="14.00" fill="#46566e">cleanse</text>
</g>
<!-- Ticking&#45;&gt;Active -->
<g id="edge5" class="edge">
<title>Ticking:e&#45;&gt;Active:e</title>
<path fill="none" stroke="#54b7cf" stroke-width="1.3" stroke-dasharray="5,2" d="M179.92,-293.97C179.92,-293.97 209.46,-328.48 209.46,-328.48 209.46,-328.48 343.46,-375.73 343.46,-375.73 343.46,-375.73 593.92,-405.73 593.92,-405.73 593.92,-405.73 594.25,-414.39 594.54,-421.69"/>
<polygon fill="#54b7cf" stroke="#54b7cf" stroke-width="1.3" points="591.74,-421.77 594.84,-429.66 597.33,-421.55 591.74,-421.77"/>
</g>
<!-- Refreshed&#45;&gt;Active -->
<g id="edge7" class="edge">
<title>Refreshed:w&#45;&gt;Active:w</title>
<path fill="none" stroke="#ab8fe0" stroke-width="1.3" stroke-dasharray="5,2" d="M239.88,-293.97C239.88,-293.97 240.88,-328.48 240.88,-328.48 240.88,-328.48 374.46,-358.48 374.46,-358.48 374.46,-358.48 419.93,-406.3 437.33,-424.61"/>
<polygon fill="#ab8fe0" stroke="#ab8fe0" stroke-width="1.3" points="435.1,-426.33 442.64,-430.2 439.16,-422.47 435.1,-426.33"/>
</g>
<!-- Expired&#45;&gt;Removed -->
<g id="edge10" class="edge">
<title>Expired&#45;&gt;Removed</title>
<path fill="none" stroke="#59687e" stroke-width="1.3" d="M534.85,-275.52C553.62,-254.24 586.66,-216.78 617.39,-181.94"/>
<polygon fill="#59687e" stroke="#59687e" stroke-width="1.3" points="619.41,-183.88 622.6,-176.02 615.21,-180.17 619.41,-183.88"/>
</g>
<!-- Dispelled&#45;&gt;Removed -->
<g id="edge11" class="edge">
<title>Dispelled&#45;&gt;Removed</title>
<path fill="none" stroke="#59687e" stroke-width="1.3" d="M689.46,-275.52C689.46,-259.59 689.46,-234.6 689.46,-208.43"/>
<polygon fill="#59687e" stroke="#59687e" stroke-width="1.3" points="692.26,-208.72 689.46,-200.72 686.66,-208.72 692.26,-208.72"/>
</g>
</g>
</svg>
