<?xml version="1.0" encoding="UTF-8" standalone="no"?>
<!DOCTYPE svg PUBLIC "-//W3C//DTD SVG 1.1//EN"
 "http://www.w3.org/Graphics/SVG/1.1/DTD/svg11.dtd">
<!-- Generated by graphviz version 2.42.4 (0)
 -->
<!-- Title: G Pages: 1 -->
<svg width="1395pt" height="418pt"
 viewBox="8.64 8.64 1386.42 409.39" xmlns="http://www.w3.org/2000/svg" xmlns:xlink="http://www.w3.org/1999/xlink">
<g id="graph0" class="graph" transform="scale(1 1) rotate(0) translate(26.64 391.39)">
<title>G</title>
<polygon fill="#ffffff" stroke="transparent" points="-18,18 -18,-382.75 1359.78,-382.75 1359.78,18 -18,18"/>
<!-- Requested -->
<g id="node1" class="node">
<title>Requested</title>
<ellipse fill="#eefbf6" stroke="#bac7db" stroke-width="1.4" cx="63.64" cy="-294.75" rx="63.78" ry="63.78"/>
<text text-anchor="middle" x="63.64" y="-291.05" font-family="Noto Sans CJK KR" font-size="14.00" fill="#182033">Requested</text>
</g>
<!-- Rejected -->
<g id="node2" class="node">
<title>Rejected</title>
<path fill="#ffffff" stroke="#bac7db" stroke-width="1.4" d="M587.28,-364.75C587.28,-364.75 482.28,-364.75 482.28,-364.75 476.28,-364.75 470.28,-358.75 470.28,-352.75 470.28,-352.75 470.28,-334.75 470.28,-334.75 470.28,-328.75 476.28,-322.75 482.28,-322.75 482.28,-322.75 587.28,-322.75 587.28,-322.75 593.28,-322.75 599.28,-328.75 599.28,-334.75 599.28,-334.75 599.28,-352.75 599.28,-352.75 599.28,-358.75 593.28,-364.75 587.28,-364.75"/>
<text text-anchor="middle" x="534.78" y="-347.55" font-family="Noto Sans CJK KR" font-size="14.00" fill="#182033">Rejected</text>
<text text-anchor="middle" x="534.78" y="-332.55" font-family="Noto Sans CJK KR" font-size="14.00" fill="#182033">Invalid / Immune</text>
</g>
<!-- Requested&#45;&gt;Rejected -->
<g id="edge1" class="edge">
<title>Requested&#45;&gt;Rejected</title>
<path fill="none" stroke="#59687e" stroke-width="1.3" d="M107.96,-340.57C107.96,-340.57 462.11,-340.57 462.11,-340.57"/>
<polygon fill="#59687e" stroke="#59687e" stroke-width="1.3" points="462.11,-343.37 470.11,-340.57 462.11,-337.77 462.11,-343.37"/>
<text text-anchor="middle" x="206.78" y="-336.55" font-family="Noto Sans CJK KR" font-size="14.00" fill="#46566e">immune / invalid</text>
</g>
<!-- Applied -->
<g id="node3" class="node">
<title>Applied</title>
<path fill="#ffffff" stroke="#bac7db" stroke-width="1.4" d="M433.28,-271.75C433.28,-271.75 298.28,-271.75 298.28,-271.75 292.28,-271.75 286.28,-265.75 286.28,-259.75 286.28,-259.75 286.28,-241.75 286.28,-241.75 286.28,-235.75 292.28,-229.75 298.28,-229.75 298.28,-229.75 433.28,-229.75 433.28,-229.75 439.28,-229.75 445.28,-235.75 445.28,-241.75 445.28,-241.75 445.28,-259.75 445.28,-259.75 445.28,-265.75 439.28,-271.75 433.28,-271.75"/>
<text text-anchor="middle" x="365.78" y="-254.55" font-family="Noto Sans CJK KR" font-size="14.00" fill="#182033">Applied</text>
<text text-anchor="middle" x="365.78" y="-239.55" font-family="Noto Sans CJK KR" font-size="14.00" fill="#182033">create StatusInstance</text>
</g>
<!-- Requested&#45;&gt;Applied -->
<g id="edge2" class="edge">
<title>Requested&#45;&gt;Applied</title>
<path fill="none" stroke="#59687e" stroke-width="1.3" d="M110.52,-251.43C110.52,-251.43 278.12,-251.43 278.12,-251.43"/>
<polygon fill="#59687e" stroke="#59687e" stroke-width="1.3" points="278.12,-254.23 286.12,-251.43 278.12,-248.63 278.12,-254.23"/>
<text text-anchor="middle" x="206.78" y="-270.55" font-family="Noto Sans CJK KR" font-size="14.00" fill="#46566e">valid</text>
</g>
<!-- Removed -->
<g id="node9" class="node">
<title>Removed</title>
<ellipse fill="#ffffff" stroke="#bac7db" stroke-width="1.4" cx="1243.03" cy="-98.75" rx="94.52" ry="94.52"/>
<ellipse fill="none" stroke="#bac7db" stroke-width="1.4" cx="1243.03" cy="-98.75" rx="98.51" ry="98.51"/>
<text text-anchor="middle" x="1243.03" y="-110.05" font-family="Noto Sans CJK KR" font-size="14.00" fill="#182033">Removed</text>
<text text-anchor="middle" x="1243.03" y="-95.05" font-family="Noto Sans CJK KR" font-size="14.00" fill="#182033">remove modifiers</text>
<text text-anchor="middle" x="1243.03" y="-80.05" font-family="Noto Sans CJK KR" font-size="14.00" fill="#182033">cancel ticks</text>
</g>
<!-- Rejected&#45;&gt;Removed -->
<g id="edge12" class="edge">
<title>Rejected&#45;&gt;Removed</title>
<path fill="none" stroke="#59687e" stroke-width="1.3" d="M599.58,-343.75C774.6,-343.75 1243.78,-343.75 1243.78,-343.75 1243.78,-343.75 1243.78,-205.7 1243.78,-205.7"/>
<polygon fill="#59687e" stroke="#59687e" stroke-width="1.3" points="1246.58,-205.7 1243.78,-197.7 1240.98,-205.7 1246.58,-205.7"/>
<text text-anchor="middle" x="841.78" y="-353.55" font-family="Noto Sans CJK KR" font-size="14.00" fill="#46566e">result only</text>
</g>
<!-- Active -->
<g id="node4" class="node">
<title>Active</title>
<path fill="#ffffff" stroke="#bac7db" stroke-width="1.4" d="M762.28,-202.75C762.28,-202.75 636.28,-202.75 636.28,-202.75 630.28,-202.75 624.28,-196.75 624.28,-190.75 624.28,-190.75 624.28,-172.75 624.28,-172.75 624.28,-166.75 630.28,-160.75 636.28,-160.75 636.28,-160.75 762.28,-160.75 762.28,-160.75 768.28,-160.75 774.28,-166.75 774.28,-172.75 774.28,-172.75 774.28,-190.75 774.28,-190.75 774.28,-196.75 768.28,-202.75 762.28,-202.75"/>
<text text-anchor="middle" x="699.28" y="-185.55" font-family="Noto Sans CJK KR" font-size="14.00" fill="#182033">Active</text>
<text text-anchor="middle" x="699.28" y="-170.55" font-family="Noto Sans CJK KR" font-size="14.00" fill="#182033">modifiers registered</text>
</g>
<!-- Applied&#45;&gt;Active -->
<g id="edge3" class="edge">
<title>Applied&#45;&gt;Active</title>
<path fill="none" stroke="#59687e" stroke-width="1.3" d="M445.49,-236.75C533.16,-236.75 661.78,-236.75 661.78,-236.75 661.78,-236.75 661.78,-210.86 661.78,-210.86"/>
<polygon fill="#59687e" stroke="#59687e" stroke-width="1.3" points="664.58,-210.86 661.78,-202.86 658.98,-210.86 664.58,-210.86"/>
<text text-anchor="middle" x="534.78" y="-208.55" font-family="Noto Sans CJK KR" font-size="14.00" fill="#46566e">register modifiers</text>
</g>
<!-- Ticking -->
<g id="node5" class="node">
<title>Ticking</title>
<path fill="#ffffff" stroke="#bac7db" stroke-width="1.4" d="M1049.28,-285.75C1049.28,-285.75 953.28,-285.75 953.28,-285.75 947.28,-285.75 941.28,-279.75 941.28,-273.75 941.28,-273.75 941.28,-255.75 941.28,-255.75 941.28,-249.75 947.28,-243.75 953.28,-243.75 953.28,-243.75 1049.28,-243.75 1049.28,-243.75 1055.28,-243.75 1061.28,-249.75 1061.28,-255.75 1061.28,-255.75 1061.28,-273.75 1061.28,-273.75 1061.28,-279.75 1055.28,-285.75 1049.28,-285.75"/>
<text text-anchor="middle" x="1001.28" y="-268.55" font-family="Noto Sans CJK KR" font-size="14.00" fill="#182033">Ticking</text>
<text text-anchor="middle" x="1001.28" y="-253.55" font-family="Noto Sans CJK KR" font-size="14.00" fill="#182033">periodic effects</text>
</g>
<!-- Active&#45;&gt;Ticking -->
<g id="edge4" class="edge">
<title>Active&#45;&gt;Ticking</title>
<path fill="none" stroke="#59687e" stroke-width="1.3" d="M699.78,-202.95C699.78,-226.85 699.78,-262.42 699.78,-262.42 699.78,-262.42 932.99,-262.42 932.99,-262.42"/>
<polygon fill="#59687e" stroke="#59687e" stroke-width="1.3" points="932.99,-265.22 940.99,-262.42 932.99,-259.62 932.99,-265.22"/>
<text text-anchor="middle" x="841.78" y="-297.55" font-family="Noto Sans CJK KR" font-size="14.00" fill="#46566e">tick due</text>
</g>
<!-- Refreshed -->
<g id="node6" class="node">
<title>Refreshed</title>
<path fill="#ffffff" stroke="#bac7db" stroke-width="1.4" d="M1081.28,-198.75C1081.28,-198.75 921.28,-198.75 921.28,-198.75 915.28,-198.75 909.28,-192.75 909.28,-186.75 909.28,-186.75 909.28,-168.75 909.28,-168.75 909.28,-162.75 915.28,-156.75 921.28,-156.75 921.28,-156.75 1081.28,-156.75 1081.28,-156.75 1087.28,-156.75 1093.28,-162.75 1093.28,-168.75 1093.28,-168.75 1093.28,-186.75 1093.28,-186.75 1093.28,-192.75 1087.28,-198.75 1081.28,-198.75"/>
<text text-anchor="middle" x="1001.28" y="-181.55" font-family="Noto Sans CJK KR" font-size="14.00" fill="#182033">Refreshed</text>
<text text-anchor="middle" x="1001.28" y="-166.55" font-family="Noto Sans CJK KR" font-size="14.00" fill="#182033">Duration / Stack changed</text>
</g>
<!-- Active&#45;&gt;Refreshed -->
<g id="edge6" class="edge">
<title>Active&#45;&gt;Refreshed</title>
<path fill="none" stroke="#59687e" stroke-width="1.3" d="M774.32,-173.42C774.32,-173.42 901.08,-173.42 901.08,-173.42"/>
<polygon fill="#59687e" stroke="#59687e" stroke-width="1.3" points="901.08,-176.22 909.08,-173.42 901.08,-170.62 901.08,-176.22"/>
<text text-anchor="middle" x="841.78" y="-185.55" font-family="Noto Sans CJK KR" font-size="14.00" fill="#46566e">reapply</text>
</g>
<!-- Expired -->
<g id="node7" class="node">
<title>Expired</title>
<path fill="#ffffff" stroke="#bac7db" stroke-width="1.4" d="M1023.78,-116.75C1023.78,-116.75 978.78,-116.75 978.78,-116.75 972.78,-116.75 966.78,-110.75 966.78,-104.75 966.78,-104.75 966.78,-92.75 966.78,-92.75 966.78,-86.75 972.78,-80.75 978.78,-80.75 978.78,-80.75 1023.78,-80.75 1023.78,-80.75 1029.78,-80.75 1035.78,-86.75 1035.78,-92.75 1035.78,-92.75 1035.78,-104.75 1035.78,-104.75 1035.78,-110.75 1029.78,-116.75 1023.78,-116.75"/>
<text text-anchor="middle" x="1001.28" y="-95.05" font-family="Noto Sans CJK KR" font-size="14.00" fill="#182033">Expired</text>
</g>
<!-- Active&#45;&gt;Expired -->
<g id="edge8" class="edge">
<title>Active&#45;&gt;Expired</title>
<path fill="none" stroke="#59687e" stroke-width="1.3" d="M724.78,-160.38C724.78,-135.79 724.78,-98.75 724.78,-98.75 724.78,-98.75 958.54,-98.75 958.54,-98.75"/>
<polygon fill="#59687e" stroke="#59687e" stroke-width="1.3" points="958.54,-101.55 966.54,-98.75 958.54,-95.95 958.54,-101.55"/>
<text text-anchor="middle" x="841.78" y="-86.55" font-family="Noto Sans CJK KR" font-size="14.00" fill="#46566e">duration &lt;= 0</text>
</g>
<!-- Dispelled -->
<g id="node8" class="node">
<title>Dispelled</title>
<path fill="#ffffff" stroke="#bac7db" stroke-width="1.4" d="M1061.28,-44.75C1061.28,-44.75 941.28,-44.75 941.28,-44.75 935.28,-44.75 929.28,-38.75 929.28,-32.75 929.28,-32.75 929.28,-20.75 929.28,-20.75 929.28,-14.75 935.28,-8.75 941.28,-8.75 941.28,-8.75 1061.28,-8.75 1061.28,-8.75 1067.28,-8.75 1073.28,-14.75 1073.28,-20.75 1073.28,-20.75 1073.28,-32.75 1073.28,-32.75 1073.28,-38.75 1067.28,-44.75 1061.28,-44.75"/>
<text text-anchor="middle" x="1001.28" y="-23.05" font-family="Noto Sans CJK KR" font-size="14.00" fill="#182033">Dispelled / Cleanse</text>
</g>
<!-- Active&#45;&gt;Dispelled -->
<g id="edge9" class="edge">
<title>Active&#45;&gt;Dispelled</title>
<path fill="none" stroke="#59687e" stroke-width="1.3" d="M674.78,-160.53C674.78,-118.07 674.78,-26.75 674.78,-26.75 674.78,-26.75 921.22,-26.75 921.22,-26.75"/>
<polygon fill="#59687e" stroke="#59687e" stroke-width="1.3" points="921.22,-29.55 929.22,-26.75 921.22,-23.95 921.22,-29.55"/>
<text text-anchor="middle" x="841.78" y="-30.55" font-family="Noto Sans CJK KR" font-size="14.00" fill="#46566e">cleanse</text>
</g>
<!-- Ticking&#45;&gt;Active -->
<g id="edge5" class="edge">
<title>Ticking&#45;&gt;Active</title>
<path fill="none" stroke="#59687e" stroke-width="1.3" d="M941.26,-253.09C863.22,-253.09 736.78,-253.09 736.78,-253.09 736.78,-253.09 736.78,-210.77 736.78,-210.77"/>
<polygon fill="#59687e" stroke="#59687e" stroke-width="1.3" points="739.58,-210.77 736.78,-202.77 733.98,-210.77 739.58,-210.77"/>
<text text-anchor="middle" x="841.78" y="-241.55" font-family="Noto Sans CJK KR" font-size="14.00" fill="#46566e">still active</text>
</g>
<!-- Refreshed&#45;&gt;Active -->
<g id="edge7" class="edge">
<title>Refreshed&#45;&gt;Active</title>
<path fill="none" stroke="#59687e" stroke-width="1.3" d="M909.03,-186.09C909.03,-186.09 782.76,-186.09 782.76,-186.09"/>
<polygon fill="#59687e" stroke="#59687e" stroke-width="1.3" points="782.76,-183.29 774.76,-186.09 782.76,-188.89 782.76,-183.29"/>
</g>
<!-- Expired&#45;&gt;Removed -->
<g id="edge10" class="edge">
<title>Expired&#45;&gt;Removed</title>
<path fill="none" stroke="#59687e" stroke-width="1.3" d="M1035.92,-98.75C1035.92,-98.75 1136.21,-98.75 1136.21,-98.75"/>
<polygon fill="#59687e" stroke="#59687e" stroke-width="1.3" points="1136.21,-101.55 1144.21,-98.75 1136.21,-95.95 1136.21,-101.55"/>
</g>
<!-- Dispelled&#45;&gt;Removed -->
<g id="edge11" class="edge">
<title>Dispelled&#45;&gt;Removed</title>
<path fill="none" stroke="#59687e" stroke-width="1.3" d="M1073.49,-26.75C1073.49,-26.75 1167.33,-26.75 1167.33,-26.75"/>
<polygon fill="#59687e" stroke="#59687e" stroke-width="1.3" points="1167.33,-29.55 1175.33,-26.75 1167.33,-23.95 1167.33,-29.55"/>
</g>
</g>
</svg>
