<?xml version="1.0" encoding="UTF-8" standalone="no"?>
<!DOCTYPE svg PUBLIC "-//W3C//DTD SVG 1.1//EN"
 "http://www.w3.org/Graphics/SVG/1.1/DTD/svg11.dtd">
<!-- Generated by graphviz version 2.42.4 (0)
 -->
<!-- Title: G Pages: 1 -->
<svg width="576pt" height="1222pt"
 viewBox="8.64 8.64 567.64 1213.64" xmlns="http://www.w3.org/2000/svg" xmlns:xlink="http://www.w3.org/1999/xlink">
<g id="graph0" class="graph" transform="scale(1 1) rotate(0) translate(26.64 1195.64)">
<title>G</title>
<polygon fill="#ffffff" stroke="transparent" points="-18,18 -18,-1187 541,-1187 541,18 -18,18"/>
<!-- start -->
<g id="node1" class="node">
<title>start</title>
<ellipse fill="#182033" stroke="#182033" stroke-width="1.4" cx="168" cy="-1159.5" rx="9.5" ry="9.5"/>
</g>
<!-- effect -->
<g id="node2" class="node">
<title>effect</title>
<path fill="#eefbf6" stroke="#5ac39b" stroke-width="1.4" d="M252.5,-1103C252.5,-1103 83.5,-1103 83.5,-1103 77.5,-1103 71.5,-1097 71.5,-1091 71.5,-1091 71.5,-1071 71.5,-1071 71.5,-1065 77.5,-1059 83.5,-1059 83.5,-1059 252.5,-1059 252.5,-1059 258.5,-1059 264.5,-1065 264.5,-1071 264.5,-1071 264.5,-1091 264.5,-1091 264.5,-1097 258.5,-1103 252.5,-1103"/>
<text text-anchor="middle" x="168" y="-1084.8" font-family="Noto Sans CJK KR" font-size="14.00" fill="#182033">ApplyStatusEffect</text>
<text text-anchor="middle" x="168" y="-1069.8" font-family="Noto Sans CJK KR" font-size="14.00" fill="#182033">build ApplyStatusRequest</text>
</g>
<!-- start&#45;&gt;effect -->
<g id="edge1" class="edge">
<title>start&#45;&gt;effect</title>
<path fill="none" stroke="#59687e" stroke-width="1.3" d="M168,-1149.72C168,-1140.36 168,-1125.03 168,-1111.32"/>
<polygon fill="#59687e" stroke="#59687e" stroke-width="1.3" points="170.8,-1111.06 168,-1103.06 165.2,-1111.06 170.8,-1111.06"/>
</g>
<!-- system -->
<g id="node3" class="node">
<title>system</title>
<path fill="#eaf0ff" stroke="#8292f7" stroke-width="1.4" d="M271.5,-1012C271.5,-1012 64.5,-1012 64.5,-1012 58.5,-1012 52.5,-1006 52.5,-1000 52.5,-1000 52.5,-980 52.5,-980 52.5,-974 58.5,-968 64.5,-968 64.5,-968 271.5,-968 271.5,-968 277.5,-968 283.5,-974 283.5,-980 283.5,-980 283.5,-1000 283.5,-1000 283.5,-1006 277.5,-1012 271.5,-1012"/>
<text text-anchor="middle" x="168" y="-993.8" font-family="Noto Sans CJK KR" font-size="14.00" fill="#182033">StatusSystem</text>
<text text-anchor="middle" x="168" y="-978.8" font-family="Noto Sans CJK KR" font-size="14.00" fill="#182033">apply(statusId, target, sourceId)</text>
</g>
<!-- effect&#45;&gt;system -->
<g id="edge2" class="edge">
<title>effect&#45;&gt;system</title>
<path fill="none" stroke="#59687e" stroke-width="1.3" d="M168,-1058.91C168,-1047.46 168,-1033.13 168,-1020.59"/>
<polygon fill="#59687e" stroke="#59687e" stroke-width="1.3" points="170.8,-1020.25 168,-1012.25 165.2,-1020.25 170.8,-1020.25"/>
</g>
<!-- controller -->
<g id="node4" class="node">
<title>controller</title>
<path fill="#ffffff" stroke="#bac7db" stroke-width="1.4" d="M234.5,-921C234.5,-921 101.5,-921 101.5,-921 95.5,-921 89.5,-915 89.5,-909 89.5,-909 89.5,-889 89.5,-889 89.5,-883 95.5,-877 101.5,-877 101.5,-877 234.5,-877 234.5,-877 240.5,-877 246.5,-883 246.5,-889 246.5,-889 246.5,-909 246.5,-909 246.5,-915 240.5,-921 234.5,-921"/>
<text text-anchor="middle" x="168" y="-902.8" font-family="Noto Sans CJK KR" font-size="14.00" fill="#182033">StatusController</text>
<text text-anchor="middle" x="168" y="-887.8" font-family="Noto Sans CJK KR" font-size="14.00" fill="#182033">find target controller</text>
</g>
<!-- system&#45;&gt;controller -->
<g id="edge3" class="edge">
<title>system&#45;&gt;controller</title>
<path fill="none" stroke="#59687e" stroke-width="1.3" d="M168,-967.91C168,-956.46 168,-942.13 168,-929.59"/>
<polygon fill="#59687e" stroke="#59687e" stroke-width="1.3" points="170.8,-929.25 168,-921.25 165.2,-929.25 170.8,-929.25"/>
</g>
<!-- immune -->
<g id="node5" class="node">
<title>immune</title>
<path fill="#ffffff" stroke="#bac7db" stroke-width="1.4" d="M156.17,-827.96C156.17,-827.96 11.83,-803.04 11.83,-803.04 5.91,-802.02 5.91,-799.98 11.83,-798.96 11.83,-798.96 156.17,-774.04 156.17,-774.04 162.09,-773.02 173.91,-773.02 179.83,-774.04 179.83,-774.04 324.17,-798.96 324.17,-798.96 330.09,-799.98 330.09,-802.02 324.17,-803.04 324.17,-803.04 179.83,-827.96 179.83,-827.96 173.91,-828.98 162.09,-828.98 156.17,-827.96"/>
<text text-anchor="middle" x="168" y="-797.3" font-family="Noto Sans CJK KR" font-size="14.00" fill="#182033">Immune or protected?</text>
</g>
<!-- controller&#45;&gt;immune -->
<g id="edge4" class="edge">
<title>controller&#45;&gt;immune</title>
<path fill="none" stroke="#59687e" stroke-width="1.3" d="M168,-876.69C168,-865.46 168,-851.36 168,-838.44"/>
<polygon fill="#59687e" stroke="#59687e" stroke-width="1.3" points="170.8,-838.17 168,-830.17 165.2,-838.17 170.8,-838.17"/>
</g>
<!-- rejected -->
<g id="node6" class="node">
<title>rejected</title>
<path fill="#fff1f2" stroke="#e07b91" stroke-width="1.4" d="M189,-644C189,-644 71,-644 71,-644 65,-644 59,-638 59,-632 59,-632 59,-612 59,-612 59,-606 65,-600 71,-600 71,-600 189,-600 189,-600 195,-600 201,-606 201,-612 201,-612 201,-632 201,-632 201,-638 195,-644 189,-644"/>
<text text-anchor="middle" x="130" y="-625.8" font-family="Noto Sans CJK KR" font-size="14.00" fill="#182033">StatusResult</text>
<text text-anchor="middle" x="130" y="-610.8" font-family="Noto Sans CJK KR" font-size="14.00" fill="#182033">immune / rejected</text>
</g>
<!-- immune&#45;&gt;rejected -->
<g id="edge5" class="edge">
<title>immune&#45;&gt;rejected</title>
<path fill="none" stroke="#59687e" stroke-width="1.3" d="M162.15,-772.73C155.14,-740.1 143.46,-685.69 136.27,-652.22"/>
<polygon fill="#59687e" stroke="#59687e" stroke-width="1.3" points="138.97,-651.42 134.55,-644.19 133.49,-652.6 138.97,-651.42"/>
<text text-anchor="middle" x="168" y="-737.8" font-family="Noto Sans CJK KR" font-size="14.00" fill="#46566e">yes</text>
</g>
<!-- stack -->
<g id="node7" class="node">
<title>stack</title>
<path fill="#fff8e7" stroke="#e4ad4f" stroke-width="1.4" d="M416.5,-711C416.5,-711 205.5,-711 205.5,-711 199.5,-711 193.5,-705 193.5,-699 193.5,-699 193.5,-679 193.5,-679 193.5,-673 199.5,-667 205.5,-667 205.5,-667 416.5,-667 416.5,-667 422.5,-667 428.5,-673 428.5,-679 428.5,-679 428.5,-699 428.5,-699 428.5,-705 422.5,-711 416.5,-711"/>
<text text-anchor="middle" x="311" y="-692.8" font-family="Noto Sans CJK KR" font-size="14.00" fill="#182033">StackPolicy</text>
<text text-anchor="middle" x="311" y="-677.8" font-family="Noto Sans CJK KR" font-size="14.00" fill="#182033">add stack / replace / refresh only</text>
</g>
<!-- immune&#45;&gt;stack -->
<g id="edge7" class="edge">
<title>immune&#45;&gt;stack</title>
<path fill="none" stroke="#59687e" stroke-width="1.3" d="M197.98,-776.94C221.03,-759.2 252.91,-734.69 276.93,-716.21"/>
<polygon fill="#59687e" stroke="#59687e" stroke-width="1.3" points="278.85,-718.26 283.48,-711.17 275.44,-713.82 278.85,-718.26"/>
<text text-anchor="middle" x="261.5" y="-737.8" font-family="Noto Sans CJK KR" font-size="14.00" fill="#46566e">no</text>
</g>
<!-- end -->
<g id="node14" class="node">
<title>end</title>
<ellipse fill="#ffffff" stroke="#182033" stroke-width="1.4" cx="131" cy="-15.5" rx="11.5" ry="11.5"/>
<ellipse fill="none" stroke="#182033" stroke-width="1.4" cx="131" cy="-15.5" rx="15.5" ry="15.5"/>
</g>
<!-- rejected&#45;&gt;end -->
<g id="edge6" class="edge">
<title>rejected&#45;&gt;end</title>
<path fill="none" stroke="#59687e" stroke-width="1.3" d="M124.5,-599.89C119.21,-577.68 112,-541.63 112,-510 112,-510 112,-510 112,-99 112,-77.97 117.93,-54.68 123.17,-38.23"/>
<polygon fill="#59687e" stroke="#59687e" stroke-width="1.3" points="125.94,-38.77 125.81,-30.29 120.63,-37 125.94,-38.77"/>
</g>
<!-- duration -->
<g id="node8" class="node">
<title>duration</title>
<path fill="#fff8e7" stroke="#e4ad4f" stroke-width="1.4" d="M389,-577C389,-577 245,-577 245,-577 239,-577 233,-571 233,-565 233,-565 233,-545 233,-545 233,-539 239,-533 245,-533 245,-533 389,-533 389,-533 395,-533 401,-539 401,-545 401,-545 401,-565 401,-565 401,-571 395,-577 389,-577"/>
<text text-anchor="middle" x="317" y="-558.8" font-family="Noto Sans CJK KR" font-size="14.00" fill="#182033">DurationPolicy</text>
<text text-anchor="middle" x="317" y="-543.8" font-family="Noto Sans CJK KR" font-size="14.00" fill="#182033">refresh / extend / fixed</text>
</g>
<!-- stack&#45;&gt;duration -->
<g id="edge8" class="edge">
<title>stack&#45;&gt;duration</title>
<path fill="none" stroke="#59687e" stroke-width="1.3" d="M311.96,-666.79C312.97,-644.76 314.54,-610.11 315.66,-585.43"/>
<polygon fill="#59687e" stroke="#59687e" stroke-width="1.3" points="318.47,-585.27 316.04,-577.16 312.88,-585.02 318.47,-585.27"/>
</g>
<!-- instance -->
<g id="node9" class="node">
<title>instance</title>
<path fill="#eefbf6" stroke="#5ac39b" stroke-width="1.4" d="M472,-486C472,-486 186,-486 186,-486 180,-486 174,-480 174,-474 174,-474 174,-454 174,-454 174,-448 180,-442 186,-442 186,-442 472,-442 472,-442 478,-442 484,-448 484,-454 484,-454 484,-474 484,-474 484,-480 478,-486 472,-486"/>
<text text-anchor="middle" x="329" y="-467.8" font-family="Noto Sans CJK KR" font-size="14.00" fill="#182033">StatusInstance</text>
<text text-anchor="middle" x="329" y="-452.8" font-family="Noto Sans CJK KR" font-size="14.00" fill="#182033">remainingTime · stackCount · nextTickTime</text>
</g>
<!-- duration&#45;&gt;instance -->
<g id="edge9" class="edge">
<title>duration&#45;&gt;instance</title>
<path fill="none" stroke="#59687e" stroke-width="1.3" d="M319.84,-532.91C321.4,-521.35 323.36,-506.86 325.06,-494.23"/>
<polygon fill="#59687e" stroke="#59687e" stroke-width="1.3" points="327.84,-494.55 326.13,-486.25 322.29,-493.8 327.84,-494.55"/>
</g>
<!-- modifier -->
<g id="node10" class="node">
<title>modifier</title>
<path fill="#f4efff" stroke="#a884e8" stroke-width="1.4" d="M445.5,-395C445.5,-395 224.5,-395 224.5,-395 218.5,-395 212.5,-389 212.5,-383 212.5,-383 212.5,-363 212.5,-363 212.5,-357 218.5,-351 224.5,-351 224.5,-351 445.5,-351 445.5,-351 451.5,-351 457.5,-357 457.5,-363 457.5,-363 457.5,-383 457.5,-383 457.5,-389 451.5,-395 445.5,-395"/>
<text text-anchor="middle" x="335" y="-376.8" font-family="Noto Sans CJK KR" font-size="14.00" fill="#182033">StatusModifierProvider</text>
<text text-anchor="middle" x="335" y="-361.8" font-family="Noto Sans CJK KR" font-size="14.00" fill="#182033">register sourceId=statusInstanceId</text>
</g>
<!-- instance&#45;&gt;modifier -->
<g id="edge10" class="edge">
<title>instance&#45;&gt;modifier</title>
<path fill="none" stroke="#59687e" stroke-width="1.3" d="M330.42,-441.91C331.19,-430.46 332.16,-416.13 333.01,-403.59"/>
<polygon fill="#59687e" stroke="#59687e" stroke-width="1.3" points="335.82,-403.42 333.57,-395.25 330.24,-403.04 335.82,-403.42"/>
</g>
<!-- tick -->
<g id="node11" class="node">
<title>tick</title>
<path fill="#f4efff" stroke="#a884e8" stroke-width="1.4" d="M414.5,-304C414.5,-304 259.5,-304 259.5,-304 253.5,-304 247.5,-298 247.5,-292 247.5,-292 247.5,-272 247.5,-272 247.5,-266 253.5,-260 259.5,-260 259.5,-260 414.5,-260 414.5,-260 420.5,-260 426.5,-266 426.5,-272 426.5,-272 426.5,-292 426.5,-292 426.5,-298 420.5,-304 414.5,-304"/>
<text text-anchor="middle" x="337" y="-285.8" font-family="Noto Sans CJK KR" font-size="14.00" fill="#182033">TickPolicy</text>
<text text-anchor="middle" x="337" y="-270.8" font-family="Noto Sans CJK KR" font-size="14.00" fill="#182033">schedule periodic effect</text>
</g>
<!-- modifier&#45;&gt;tick -->
<g id="edge11" class="edge">
<title>modifier&#45;&gt;tick</title>
<path fill="none" stroke="#59687e" stroke-width="1.3" d="M335.47,-350.91C335.73,-339.46 336.05,-325.13 336.34,-312.59"/>
<polygon fill="#59687e" stroke="#59687e" stroke-width="1.3" points="339.14,-312.31 336.52,-304.25 333.54,-312.18 339.14,-312.31"/>
</g>
<!-- event -->
<g id="node12" class="node">
<title>event</title>
<path fill="#f8fafc" stroke="#bac7db" stroke-width="1.4" d="M463.5,-213C463.5,-213 216.5,-213 216.5,-213 210.5,-213 204.5,-207 204.5,-201 204.5,-201 204.5,-181 204.5,-181 204.5,-175 210.5,-169 216.5,-169 216.5,-169 463.5,-169 463.5,-169 469.5,-169 475.5,-175 475.5,-181 475.5,-181 475.5,-201 475.5,-201 475.5,-207 469.5,-213 463.5,-213"/>
<text text-anchor="middle" x="340" y="-194.8" font-family="Noto Sans CJK KR" font-size="14.00" fill="#182033">EventBus</text>
<text text-anchor="middle" x="340" y="-179.8" font-family="Noto Sans CJK KR" font-size="14.00" fill="#182033">OnStatusApplied / OnStatusRefreshed</text>
</g>
<!-- tick&#45;&gt;event -->
<g id="edge12" class="edge">
<title>tick&#45;&gt;event</title>
<path fill="none" stroke="#59687e" stroke-width="1.3" d="M337.71,-259.91C338.1,-248.46 338.58,-234.13 339,-221.59"/>
<polygon fill="#59687e" stroke="#59687e" stroke-width="1.3" points="341.81,-221.34 339.28,-213.25 336.22,-221.15 341.81,-221.34"/>
</g>
<!-- result -->
<g id="node13" class="node">
<title>result</title>
<path fill="#eefbf6" stroke="#5ac39b" stroke-width="1.4" d="M511,-122C511,-122 173,-122 173,-122 167,-122 161,-116 161,-110 161,-110 161,-90 161,-90 161,-84 167,-78 173,-78 173,-78 511,-78 511,-78 517,-78 523,-84 523,-90 523,-90 523,-110 523,-110 523,-116 517,-122 511,-122"/>
<text text-anchor="middle" x="342" y="-103.8" font-family="Noto Sans CJK KR" font-size="14.00" fill="#182033">StatusResult</text>
<text text-anchor="middle" x="342" y="-88.8" font-family="Noto Sans CJK KR" font-size="14.00" fill="#182033">applied · refreshed · stackChanged · tickScheduled</text>
</g>
<!-- event&#45;&gt;result -->
<g id="edge13" class="edge">
<title>event&#45;&gt;result</title>
<path fill="none" stroke="#59687e" stroke-width="1.3" d="M340.47,-168.91C340.73,-157.46 341.05,-143.13 341.34,-130.59"/>
<polygon fill="#59687e" stroke="#59687e" stroke-width="1.3" points="344.14,-130.31 341.52,-122.25 338.54,-130.18 344.14,-130.31"/>
</g>
<!-- result&#45;&gt;end -->
<g id="edge14" class="edge">
<title>result&#45;&gt;end</title>
<path fill="none" stroke="#59687e" stroke-width="1.3" d="M288.21,-77.97C244.5,-60.88 185.05,-37.63 153.25,-25.2"/>
<polygon fill="#59687e" stroke="#59687e" stroke-width="1.3" points="153.88,-22.44 145.41,-22.14 151.84,-27.66 153.88,-22.44"/>
</g>
</g>
</svg>
