<?xml version="1.0" encoding="UTF-8" standalone="no"?>
<!DOCTYPE svg PUBLIC "-//W3C//DTD SVG 1.1//EN"
 "http://www.w3.org/Graphics/SVG/1.1/DTD/svg11.dtd">
<!-- Generated by graphviz version 15.1.0 (20260618.0150)
 -->
<!-- Title: G Pages: 1 -->
<svg width="812pt" height="2282pt"
 viewBox="12.00 12.00 801.00 2270.00" xmlns="http://www.w3.org/2000/svg" xmlns:xlink="http://www.w3.org/1999/xlink">
<g id="graph0" class="graph" transform="scale(1.33333 1.33333) rotate(0) translate(26.64 1684.6)">
<title>G</title>
<polygon fill="#ffffff" stroke="none" points="-18,18 -18,-1675.96 573.95,-1675.96 573.95,18 -18,18"/>
<!-- start -->
<g id="node1" class="node">
<title>start</title>
<ellipse fill="#182033" stroke="#182033" stroke-width="1.4" cx="166.8" cy="-1648.6" rx="9.36" ry="9.36"/>
</g>
<!-- effect -->
<g id="node2" class="node">
<title>effect</title>
<path fill="#eefbf6" stroke="#5ac39b" stroke-width="1.4" d="M249.08,-1588.24C249.08,-1588.24 84.53,-1588.24 84.53,-1588.24 78.53,-1588.24 72.53,-1582.24 72.53,-1576.24 72.53,-1576.24 72.53,-1531.21 72.53,-1531.21 72.53,-1525.21 78.53,-1519.21 84.53,-1519.21 84.53,-1519.21 249.08,-1519.21 249.08,-1519.21 255.08,-1519.21 261.08,-1525.21 261.08,-1531.21 261.08,-1531.21 261.08,-1576.24 261.08,-1576.24 261.08,-1582.24 255.08,-1588.24 249.08,-1588.24"/>
<text xml:space="preserve" text-anchor="middle" x="166.8" y="-1566.3" font-family="Noto Sans KR" font-size="14.00" fill="#182033">ApplyStatusEffect /</text>
<text xml:space="preserve" text-anchor="middle" x="166.8" y="-1549.05" font-family="Noto Sans KR" font-size="14.00" fill="#182033">ReactionCommand</text>
<text xml:space="preserve" text-anchor="middle" x="166.8" y="-1531.8" font-family="Noto Sans KR" font-size="14.00" fill="#182033">Build ApplyStatusRequest</text>
</g>
<!-- start&#45;&gt;effect -->
<g id="edge1" class="edge">
<title>start&#45;&gt;effect</title>
<path fill="none" stroke="#59687e" stroke-width="1.3" d="M166.8,-1638.69C166.8,-1629.31 166.8,-1613.81 166.8,-1598.67"/>
<polygon fill="#59687e" stroke="#59687e" stroke-width="1.3" points="169.6,-1598.81 166.8,-1590.81 164,-1598.81 169.6,-1598.81"/>
</g>
<!-- system -->
<g id="node3" class="node">
<title>system</title>
<path fill="#eaf0ff" stroke="#8292f7" stroke-width="1.4" d="M252.45,-1468.21C252.45,-1468.21 81.15,-1468.21 81.15,-1468.21 75.15,-1468.21 69.15,-1462.21 69.15,-1456.21 69.15,-1456.21 69.15,-1428.43 69.15,-1428.43 69.15,-1422.43 75.15,-1416.43 81.15,-1416.43 81.15,-1416.43 252.45,-1416.43 252.45,-1416.43 258.45,-1416.43 264.45,-1422.43 264.45,-1428.43 264.45,-1428.43 264.45,-1456.21 264.45,-1456.21 264.45,-1462.21 258.45,-1468.21 252.45,-1468.21"/>
<text xml:space="preserve" text-anchor="middle" x="166.8" y="-1446.27" font-family="Noto Sans KR" font-size="14.00" fill="#182033">StatusSystem</text>
<text xml:space="preserve" text-anchor="middle" x="166.8" y="-1429.02" font-family="Noto Sans KR" font-size="14.00" fill="#182033">read target status snapshot</text>
</g>
<!-- effect&#45;&gt;system -->
<g id="edge2" class="edge">
<title>effect&#45;&gt;system</title>
<path fill="none" stroke="#59687e" stroke-width="1.3" d="M166.8,-1518.71C166.8,-1505.94 166.8,-1491.4 166.8,-1478.53"/>
<polygon fill="#59687e" stroke="#59687e" stroke-width="1.3" points="169.6,-1478.59 166.8,-1470.59 164,-1478.59 169.6,-1478.59"/>
</g>
<!-- immune -->
<g id="node4" class="node">
<title>immune</title>
<path fill="#ffffff" stroke="#bac7db" stroke-width="1.4" d="M155.05,-1363C155.05,-1363 11.75,-1333.33 11.75,-1333.33 5.88,-1332.12 5.88,-1329.68 11.75,-1328.47 11.75,-1328.47 155.05,-1298.8 155.05,-1298.8 160.92,-1297.59 172.68,-1297.59 178.55,-1298.8 178.55,-1298.8 321.85,-1328.47 321.85,-1328.47 327.72,-1329.68 327.72,-1332.12 321.85,-1333.33 321.85,-1333.33 178.55,-1363 178.55,-1363 172.68,-1364.21 160.92,-1364.21 155.05,-1363"/>
<text xml:space="preserve" text-anchor="middle" x="166.8" y="-1326.22" font-family="Noto Sans KR" font-size="14.00" fill="#182033">immune or protected?</text>
</g>
<!-- system&#45;&gt;immune -->
<g id="edge3" class="edge">
<title>system&#45;&gt;immune</title>
<path fill="none" stroke="#59687e" stroke-width="1.3" d="M166.8,-1415.94C166.8,-1403.95 166.8,-1389.3 166.8,-1375.6"/>
<polygon fill="#59687e" stroke="#59687e" stroke-width="1.3" points="169.6,-1375.81 166.8,-1367.81 164,-1375.81 169.6,-1375.81"/>
</g>
<!-- rejected -->
<g id="node5" class="node">
<title>rejected</title>
<path fill="#fff1f2" stroke="#e07b91" stroke-width="1.4" d="M209.08,-1152.34C209.08,-1152.34 50.53,-1152.34 50.53,-1152.34 44.53,-1152.34 38.53,-1146.34 38.53,-1140.34 38.53,-1140.34 38.53,-1095.31 38.53,-1095.31 38.53,-1089.31 44.53,-1083.31 50.53,-1083.31 50.53,-1083.31 209.08,-1083.31 209.08,-1083.31 215.08,-1083.31 221.08,-1089.31 221.08,-1095.31 221.08,-1095.31 221.08,-1140.34 221.08,-1140.34 221.08,-1146.34 215.08,-1152.34 209.08,-1152.34"/>
<text xml:space="preserve" text-anchor="middle" x="129.8" y="-1130.4" font-family="Noto Sans KR" font-size="14.00" fill="#182033">Conceptual StatusResult</text>
<text xml:space="preserve" text-anchor="middle" x="129.8" y="-1113.15" font-family="Noto Sans KR" font-size="14.00" fill="#182033">immune / rejected</text>
<text xml:space="preserve" text-anchor="middle" x="129.8" y="-1095.9" font-family="Noto Sans KR" font-size="14.00" fill="#182033">no mutation · no outbox</text>
</g>
<!-- immune&#45;&gt;rejected -->
<g id="edge4" class="edge">
<title>immune&#45;&gt;rejected</title>
<path fill="none" stroke="#59687e" stroke-width="1.3" d="M161.02,-1296.92C154.69,-1260.79 144.5,-1202.68 137.49,-1162.72"/>
<polygon fill="#59687e" stroke="#59687e" stroke-width="1.3" points="140.26,-1162.31 136.13,-1154.91 134.75,-1163.27 140.26,-1162.31"/>
<text xml:space="preserve" text-anchor="middle" x="166.14" y="-1258.07" font-family="Noto Sans KR" font-size="14.00" fill="#46566e">yes</text>
</g>
<!-- stack -->
<g id="node6" class="node">
<title>stack</title>
<path fill="#fff8e7" stroke="#e4ad4f" stroke-width="1.4" d="M387.33,-1229.12C387.33,-1229.12 212.28,-1229.12 212.28,-1229.12 206.28,-1229.12 200.28,-1223.12 200.28,-1217.12 200.28,-1217.12 200.28,-1189.34 200.28,-1189.34 200.28,-1183.34 206.28,-1177.34 212.28,-1177.34 212.28,-1177.34 387.33,-1177.34 387.33,-1177.34 393.33,-1177.34 399.33,-1183.34 399.33,-1189.34 399.33,-1189.34 399.33,-1217.12 399.33,-1217.12 399.33,-1223.12 393.33,-1229.12 387.33,-1229.12"/>
<text xml:space="preserve" text-anchor="middle" x="299.8" y="-1207.18" font-family="Noto Sans KR" font-size="14.00" fill="#182033">StackPolicy</text>
<text xml:space="preserve" text-anchor="middle" x="299.8" y="-1189.93" font-family="Noto Sans KR" font-size="14.00" fill="#182033">add · replace · refresh&#45;only</text>
</g>
<!-- immune&#45;&gt;stack -->
<g id="edge6" class="edge">
<title>immune&#45;&gt;stack</title>
<path fill="none" stroke="#59687e" stroke-width="1.3" d="M196.32,-1302.01C216.94,-1282.52 244.53,-1256.45 266.04,-1236.13"/>
<polygon fill="#59687e" stroke="#59687e" stroke-width="1.3" points="267.75,-1238.36 271.65,-1230.83 263.91,-1234.29 267.75,-1238.36"/>
<text xml:space="preserve" text-anchor="middle" x="253.46" y="-1258.07" font-family="Noto Sans KR" font-size="14.00" fill="#46566e">no</text>
</g>
<!-- end -->
<g id="node16" class="node">
<title>end</title>
<ellipse fill="#ffffff" stroke="#182033" stroke-width="1.4" cx="294.8" cy="-15.52" rx="11.52" ry="11.52"/>
<ellipse fill="none" stroke="#182033" stroke-width="1.4" cx="294.8" cy="-15.52" rx="15.52" ry="15.52"/>
</g>
<!-- rejected&#45;&gt;end -->
<g id="edge5" class="edge">
<title>rejected&#45;&gt;end</title>
<path fill="none" stroke="#59687e" stroke-width="1.3" d="M127.78,-1082.68C125.41,-1042.6 121.8,-981.53 121.8,-981.53 121.8,-981.53 121.8,-981.53 121.8,-115.55 121.8,-115.55 164.8,-82.04 164.8,-82.04 164.8,-82.04 234.96,-46.68 272.19,-27.91"/>
<polygon fill="#59687e" stroke="#59687e" stroke-width="1.3" points="273.25,-30.52 279.13,-24.42 270.73,-25.52 273.25,-30.52"/>
</g>
<!-- duration -->
<g id="node7" class="node">
<title>duration</title>
<path fill="#fff8e7" stroke="#e4ad4f" stroke-width="1.4" d="M373.33,-1058.31C373.33,-1058.31 228.28,-1058.31 228.28,-1058.31 222.28,-1058.31 216.28,-1052.31 216.28,-1046.31 216.28,-1046.31 216.28,-1018.53 216.28,-1018.53 216.28,-1012.53 222.28,-1006.53 228.28,-1006.53 228.28,-1006.53 373.33,-1006.53 373.33,-1006.53 379.33,-1006.53 385.33,-1012.53 385.33,-1018.53 385.33,-1018.53 385.33,-1046.31 385.33,-1046.31 385.33,-1052.31 379.33,-1058.31 373.33,-1058.31"/>
<text xml:space="preserve" text-anchor="middle" x="300.8" y="-1036.37" font-family="Noto Sans KR" font-size="14.00" fill="#182033">DurationPolicy</text>
<text xml:space="preserve" text-anchor="middle" x="300.8" y="-1019.12" font-family="Noto Sans KR" font-size="14.00" fill="#182033">refresh · extend · fixed</text>
</g>
<!-- stack&#45;&gt;duration -->
<g id="edge7" class="edge">
<title>stack&#45;&gt;duration</title>
<path fill="none" stroke="#59687e" stroke-width="1.3" d="M299.95,-1176.96C300.12,-1148.24 300.4,-1101.17 300.59,-1068.81"/>
<polygon fill="#59687e" stroke="#59687e" stroke-width="1.3" points="303.39,-1068.85 300.64,-1060.83 297.79,-1068.82 303.39,-1068.85"/>
</g>
<!-- instance -->
<g id="node8" class="node">
<title>instance</title>
<path fill="#eefbf6" stroke="#5ac39b" stroke-width="1.4" d="M405.45,-955.53C405.45,-955.53 198.15,-955.53 198.15,-955.53 192.15,-955.53 186.15,-949.53 186.15,-943.53 186.15,-943.53 186.15,-898.5 186.15,-898.5 186.15,-892.5 192.15,-886.5 198.15,-886.5 198.15,-886.5 405.45,-886.5 405.45,-886.5 411.45,-886.5 417.45,-892.5 417.45,-898.5 417.45,-898.5 417.45,-943.53 417.45,-943.53 417.45,-949.53 411.45,-955.53 405.45,-955.53"/>
<text xml:space="preserve" text-anchor="middle" x="301.8" y="-933.59" font-family="Noto Sans KR" font-size="14.00" fill="#182033">Prepare StatusInstance mutation</text>
<text xml:space="preserve" text-anchor="middle" x="301.8" y="-916.34" font-family="Noto Sans KR" font-size="14.00" fill="#182033">expireTick · stackCount</text>
<text xml:space="preserve" text-anchor="middle" x="301.8" y="-899.09" font-family="Noto Sans KR" font-size="14.00" fill="#182033">nextTickAt</text>
</g>
<!-- duration&#45;&gt;instance -->
<g id="edge8" class="edge">
<title>duration&#45;&gt;instance</title>
<path fill="none" stroke="#59687e" stroke-width="1.3" d="M301.03,-1006.05C301.14,-994.06 301.28,-979.4 301.4,-965.71"/>
<polygon fill="#59687e" stroke="#59687e" stroke-width="1.3" points="304.2,-965.95 301.47,-957.92 298.6,-965.9 304.2,-965.95"/>
</g>
<!-- modifier -->
<g id="node9" class="node">
<title>modifier</title>
<path fill="#f4efff" stroke="#a884e8" stroke-width="1.4" d="M388.2,-835.5C388.2,-835.5 215.4,-835.5 215.4,-835.5 209.4,-835.5 203.4,-829.5 203.4,-823.5 203.4,-823.5 203.4,-778.47 203.4,-778.47 203.4,-772.47 209.4,-766.47 215.4,-766.47 215.4,-766.47 388.2,-766.47 388.2,-766.47 394.2,-766.47 400.2,-772.47 400.2,-778.47 400.2,-778.47 400.2,-823.5 400.2,-823.5 400.2,-829.5 394.2,-835.5 388.2,-835.5"/>
<text xml:space="preserve" text-anchor="middle" x="301.8" y="-813.56" font-family="Noto Sans KR" font-size="14.00" fill="#182033">Prepare Modifier mutations</text>
<text xml:space="preserve" text-anchor="middle" x="301.8" y="-796.31" font-family="Noto Sans KR" font-size="14.00" fill="#182033">sourceId =</text>
<text xml:space="preserve" text-anchor="middle" x="301.8" y="-779.06" font-family="Noto Sans KR" font-size="14.00" fill="#182033">StatusInstanceId</text>
</g>
<!-- instance&#45;&gt;modifier -->
<g id="edge9" class="edge">
<title>instance&#45;&gt;modifier</title>
<path fill="none" stroke="#59687e" stroke-width="1.3" d="M301.8,-885.88C301.8,-873.4 301.8,-859.1 301.8,-845.89"/>
<polygon fill="#59687e" stroke="#59687e" stroke-width="1.3" points="304.6,-846.02 301.8,-838.02 299,-846.02 304.6,-846.02"/>
</g>
<!-- tick -->
<g id="node10" class="node">
<title>tick</title>
<path fill="#f4efff" stroke="#a884e8" stroke-width="1.4" d="M387.45,-715.47C387.45,-715.47 216.15,-715.47 216.15,-715.47 210.15,-715.47 204.15,-709.47 204.15,-703.47 204.15,-703.47 204.15,-675.69 204.15,-675.69 204.15,-669.69 210.15,-663.69 216.15,-663.69 216.15,-663.69 387.45,-663.69 387.45,-663.69 393.45,-663.69 399.45,-669.69 399.45,-675.69 399.45,-675.69 399.45,-703.47 399.45,-703.47 399.45,-709.47 393.45,-715.47 387.45,-715.47"/>
<text xml:space="preserve" text-anchor="middle" x="301.8" y="-693.53" font-family="Noto Sans KR" font-size="14.00" fill="#182033">Prepare periodic schedule</text>
<text xml:space="preserve" text-anchor="middle" x="301.8" y="-676.28" font-family="Noto Sans KR" font-size="14.00" fill="#182033">MaxCatchUpTicks included</text>
</g>
<!-- modifier&#45;&gt;tick -->
<g id="edge10" class="edge">
<title>modifier&#45;&gt;tick</title>
<path fill="none" stroke="#59687e" stroke-width="1.3" d="M301.8,-765.97C301.8,-753.2 301.8,-738.66 301.8,-725.79"/>
<polygon fill="#59687e" stroke="#59687e" stroke-width="1.3" points="304.6,-725.85 301.8,-717.85 299,-725.85 304.6,-725.85"/>
</g>
<!-- plan -->
<g id="node11" class="node">
<title>plan</title>
<path fill="#e9fbff" stroke="#54b7cf" stroke-width="1.4" d="M381.08,-612.69C381.08,-612.69 222.53,-612.69 222.53,-612.69 216.53,-612.69 210.53,-606.69 210.53,-600.69 210.53,-600.69 210.53,-555.66 210.53,-555.66 210.53,-549.66 216.53,-543.66 222.53,-543.66 222.53,-543.66 381.08,-543.66 381.08,-543.66 387.08,-543.66 393.08,-549.66 393.08,-555.66 393.08,-555.66 393.08,-600.69 393.08,-600.69 393.08,-606.69 387.08,-612.69 381.08,-612.69"/>
<text xml:space="preserve" text-anchor="middle" x="301.8" y="-590.75" font-family="Noto Sans KR" font-size="14.00" fill="#182033">StatusCommitPlan</text>
<text xml:space="preserve" text-anchor="middle" x="301.8" y="-573.5" font-family="Noto Sans KR" font-size="14.00" fill="#182033">instance + modifier + tick</text>
<text xml:space="preserve" text-anchor="middle" x="301.8" y="-556.25" font-family="Noto Sans KR" font-size="14.00" fill="#182033">+ planned outbox</text>
</g>
<!-- tick&#45;&gt;plan -->
<g id="edge11" class="edge">
<title>tick&#45;&gt;plan</title>
<path fill="none" stroke="#59687e" stroke-width="1.3" d="M301.8,-663.21C301.8,-651.22 301.8,-636.56 301.8,-622.87"/>
<polygon fill="#59687e" stroke="#59687e" stroke-width="1.3" points="304.6,-623.08 301.8,-615.08 299,-623.08 304.6,-623.08"/>
</g>
<!-- commit -->
<g id="node12" class="node">
<title>commit</title>
<path fill="#eefbf6" stroke="#5ac39b" stroke-width="1.4" d="M370.95,-492.66C370.95,-492.66 232.65,-492.66 232.65,-492.66 226.65,-492.66 220.65,-486.66 220.65,-480.66 220.65,-480.66 220.65,-435.63 220.65,-435.63 220.65,-429.63 226.65,-423.63 232.65,-423.63 232.65,-423.63 370.95,-423.63 370.95,-423.63 376.95,-423.63 382.95,-429.63 382.95,-435.63 382.95,-435.63 382.95,-480.66 382.95,-480.66 382.95,-486.66 376.95,-492.66 370.95,-492.66"/>
<text xml:space="preserve" text-anchor="middle" x="301.8" y="-470.72" font-family="Noto Sans KR" font-size="14.00" fill="#182033">RuntimeCommitter /</text>
<text xml:space="preserve" text-anchor="middle" x="301.8" y="-453.47" font-family="Noto Sans KR" font-size="14.00" fill="#182033">Status commit</text>
<text xml:space="preserve" text-anchor="middle" x="301.8" y="-436.22" font-family="Noto Sans KR" font-size="14.00" fill="#182033">state + outbox atomic</text>
</g>
<!-- plan&#45;&gt;commit -->
<g id="edge12" class="edge">
<title>plan&#45;&gt;commit</title>
<path fill="none" stroke="#59687e" stroke-width="1.3" d="M301.8,-543.04C301.8,-530.56 301.8,-516.26 301.8,-503.05"/>
<polygon fill="#59687e" stroke="#59687e" stroke-width="1.3" points="304.6,-503.18 301.8,-495.18 299,-503.18 304.6,-503.18"/>
</g>
<!-- event -->
<g id="node13" class="node">
<title>event</title>
<path fill="#f8fafc" stroke="#bac7db" stroke-width="1.4" d="M381.7,-356.38C381.7,-356.38 217.9,-356.38 217.9,-356.38 211.9,-356.38 205.9,-350.38 205.9,-344.38 205.9,-344.38 205.9,-299.35 205.9,-299.35 205.9,-293.35 211.9,-287.35 217.9,-287.35 217.9,-287.35 381.7,-287.35 381.7,-287.35 387.7,-287.35 393.7,-293.35 393.7,-299.35 393.7,-299.35 393.7,-344.38 393.7,-344.38 393.7,-350.38 387.7,-356.38 381.7,-356.38"/>
<text xml:space="preserve" text-anchor="middle" x="299.8" y="-334.44" font-family="Noto Sans KR" font-size="14.00" fill="#182033">Committed facts dispatch</text>
<text xml:space="preserve" text-anchor="middle" x="299.8" y="-317.19" font-family="Noto Sans KR" font-size="14.00" fill="#182033">StatusApplied</text>
<text xml:space="preserve" text-anchor="middle" x="299.8" y="-299.94" font-family="Noto Sans KR" font-size="14.00" fill="#182033">StatusRefreshed</text>
</g>
<!-- commit&#45;&gt;event -->
<g id="edge15" class="edge">
<title>commit&#45;&gt;event</title>
<path fill="none" stroke="#59687e" stroke-width="1.3" d="M301.3,-423.26C301.04,-406.09 300.73,-385.03 300.45,-366.64"/>
<polygon fill="#59687e" stroke="#59687e" stroke-width="1.3" points="303.25,-366.66 300.33,-358.71 297.65,-366.75 303.25,-366.66"/>
<text xml:space="preserve" text-anchor="middle" x="324.54" y="-385.33" font-family="Noto Sans KR" font-size="14.00" fill="#46566e">success</text>
</g>
<!-- failed -->
<g id="node15" class="node">
<title>failed</title>
<path fill="#fff1f2" stroke="#e07b91" stroke-width="1.4" d="M543.95,-262.35C543.95,-262.35 387.65,-262.35 387.65,-262.35 381.65,-262.35 375.65,-256.35 375.65,-250.35 375.65,-250.35 375.65,-188.07 375.65,-188.07 375.65,-182.07 381.65,-176.07 387.65,-176.07 387.65,-176.07 543.95,-176.07 543.95,-176.07 549.95,-176.07 555.95,-182.07 555.95,-188.07 555.95,-188.07 555.95,-250.35 555.95,-250.35 555.95,-256.35 549.95,-262.35 543.95,-262.35"/>
<text xml:space="preserve" text-anchor="middle" x="465.8" y="-240.41" font-family="Noto Sans KR" font-size="14.00" fill="#182033">Conceptual StatusResult</text>
<text xml:space="preserve" text-anchor="middle" x="465.8" y="-223.16" font-family="Noto Sans KR" font-size="14.00" fill="#182033">version / invariant failed</text>
<text xml:space="preserve" text-anchor="middle" x="465.8" y="-205.91" font-family="Noto Sans KR" font-size="14.00" fill="#182033">no partial state</text>
<text xml:space="preserve" text-anchor="middle" x="465.8" y="-188.66" font-family="Noto Sans KR" font-size="14.00" fill="#182033">no event</text>
</g>
<!-- commit&#45;&gt;failed -->
<g id="edge13" class="edge">
<title>commit&#45;&gt;failed</title>
<path fill="none" stroke="#dc2626" stroke-width="1.3" stroke-dasharray="5,2" d="M340.06,-423.03C372.84,-393.8 414.8,-356.38 414.8,-356.38 414.8,-356.38 431.98,-310.51 446.4,-272.01"/>
<polygon fill="#dc2626" stroke="#dc2626" stroke-width="1.3" points="448.93,-273.24 449.11,-264.76 443.68,-271.27 448.93,-273.24"/>
<text xml:space="preserve" text-anchor="middle" x="395.59" y="-385.33" font-family="Noto Sans KR" font-size="14.00" fill="#dc2626">fail</text>
</g>
<!-- result -->
<g id="node14" class="node">
<title>result</title>
<path fill="#eefbf6" stroke="#5ac39b" stroke-width="1.4" d="M392.08,-151.07C392.08,-151.07 197.53,-151.07 197.53,-151.07 191.53,-151.07 185.53,-145.07 185.53,-139.07 185.53,-139.07 185.53,-94.04 185.53,-94.04 185.53,-88.04 191.53,-82.04 197.53,-82.04 197.53,-82.04 392.08,-82.04 392.08,-82.04 398.08,-82.04 404.08,-88.04 404.08,-94.04 404.08,-94.04 404.08,-139.07 404.08,-139.07 404.08,-145.07 398.08,-151.07 392.08,-151.07"/>
<text xml:space="preserve" text-anchor="middle" x="294.8" y="-129.13" font-family="Noto Sans KR" font-size="14.00" fill="#182033">Conceptual StatusResult</text>
<text xml:space="preserve" text-anchor="middle" x="294.8" y="-111.88" font-family="Noto Sans KR" font-size="14.00" fill="#182033">applied · refreshed</text>
<text xml:space="preserve" text-anchor="middle" x="294.8" y="-94.63" font-family="Noto Sans KR" font-size="14.00" fill="#182033">stackChanged · tickScheduled</text>
</g>
<!-- event&#45;&gt;result -->
<g id="edge16" class="edge">
<title>event&#45;&gt;result</title>
<path fill="none" stroke="#59687e" stroke-width="1.3" d="M298.96,-286.84C298.12,-252.38 296.8,-198.97 295.88,-161.37"/>
<polygon fill="#59687e" stroke="#59687e" stroke-width="1.3" points="298.68,-161.59 295.69,-153.66 293.09,-161.73 298.68,-161.59"/>
</g>
<!-- result&#45;&gt;end -->
<g id="edge17" class="edge">
<title>result&#45;&gt;end</title>
<path fill="none" stroke="#59687e" stroke-width="1.3" d="M294.8,-81.47C294.8,-68.32 294.8,-53.55 294.8,-41.42"/>
<polygon fill="#59687e" stroke="#59687e" stroke-width="1.3" points="297.6,-41.52 294.8,-33.52 292,-41.52 297.6,-41.52"/>
</g>
<!-- failed&#45;&gt;end -->
<g id="edge14" class="edge">
<title>failed&#45;&gt;end</title>
<path fill="none" stroke="#59687e" stroke-width="1.3" d="M452.94,-175.5C440.92,-135.56 424.8,-82.04 424.8,-82.04 424.8,-82.04 354.64,-46.68 317.41,-27.91"/>
<polygon fill="#59687e" stroke="#59687e" stroke-width="1.3" points="318.87,-25.52 310.47,-24.42 316.35,-30.52 318.87,-25.52"/>
</g>
</g>
</svg>
