<?xml version="1.0" encoding="UTF-8" standalone="no"?>
<!DOCTYPE svg PUBLIC "-//W3C//DTD SVG 1.1//EN"
 "http://www.w3.org/Graphics/SVG/1.1/DTD/svg11.dtd">
<!-- Generated by graphviz version 15.0.0 (20260523.1842)
 -->
<!-- Title: G Pages: 1 -->
<svg width="634pt" height="1464pt"
 viewBox="9.00 9.00 625.00 1455.00" xmlns="http://www.w3.org/2000/svg" xmlns:xlink="http://www.w3.org/1999/xlink">
<g id="graph0" class="graph" transform="scale(1 1) rotate(0) translate(26.64 1437)">
<title>G</title>
<polygon fill="#ffffff" stroke="none" points="-18,18 -18,-1428.36 598.52,-1428.36 598.52,18 -18,18"/>
<!-- start -->
<g id="node1" class="node">
<title>start</title>
<ellipse fill="#182033" stroke="#182033" stroke-width="1.4" cx="145.88" cy="-1401" rx="9.36" ry="9.36"/>
</g>
<!-- effect -->
<g id="node2" class="node">
<title>effect</title>
<path fill="#eefbf6" stroke="#5ac39b" stroke-width="1.4" d="M256.6,-1344.64C256.6,-1344.64 35.16,-1344.64 35.16,-1344.64 29.16,-1344.64 23.16,-1338.64 23.16,-1332.64 23.16,-1332.64 23.16,-1308.64 23.16,-1308.64 23.16,-1302.64 29.16,-1296.64 35.16,-1296.64 35.16,-1296.64 256.6,-1296.64 256.6,-1296.64 262.6,-1296.64 268.6,-1302.64 268.6,-1308.64 268.6,-1308.64 268.6,-1332.64 268.6,-1332.64 268.6,-1338.64 262.6,-1344.64 256.6,-1344.64"/>
<text xml:space="preserve" text-anchor="middle" x="145.88" y="-1324.84" font-family="Noto Sans CJK KR" font-size="14.00" fill="#182033">ApplyStatusEffect / ReactionCommand</text>
<text xml:space="preserve" text-anchor="middle" x="145.88" y="-1308.04" font-family="Noto Sans CJK KR" font-size="14.00" fill="#182033">Build ApplyStatusRequest</text>
</g>
<!-- start&#45;&gt;effect -->
<g id="edge1" class="edge">
<title>start&#45;&gt;effect</title>
<path fill="none" stroke="#59687e" stroke-width="1.3" d="M145.88,-1391.01C145.88,-1382.17 145.88,-1368.12 145.88,-1354.98"/>
<polygon fill="#59687e" stroke="#59687e" stroke-width="1.3" points="148.68,-1355.16 145.88,-1347.16 143.08,-1355.16 148.68,-1355.16"/>
</g>
<!-- system -->
<g id="node3" class="node">
<title>system</title>
<path fill="#eaf0ff" stroke="#8292f7" stroke-width="1.4" d="M219.08,-1249.64C219.08,-1249.64 72.69,-1249.64 72.69,-1249.64 66.69,-1249.64 60.69,-1243.64 60.69,-1237.64 60.69,-1237.64 60.69,-1213.64 60.69,-1213.64 60.69,-1207.64 66.69,-1201.64 72.69,-1201.64 72.69,-1201.64 219.08,-1201.64 219.08,-1201.64 225.08,-1201.64 231.08,-1207.64 231.08,-1213.64 231.08,-1213.64 231.08,-1237.64 231.08,-1237.64 231.08,-1243.64 225.08,-1249.64 219.08,-1249.64"/>
<text xml:space="preserve" text-anchor="middle" x="145.88" y="-1229.84" font-family="Noto Sans CJK KR" font-size="14.00" fill="#182033">StatusSystem</text>
<text xml:space="preserve" text-anchor="middle" x="145.88" y="-1213.04" font-family="Noto Sans CJK KR" font-size="14.00" fill="#182033">read target status snapshot</text>
</g>
<!-- effect&#45;&gt;system -->
<g id="edge2" class="edge">
<title>effect&#45;&gt;system</title>
<path fill="none" stroke="#59687e" stroke-width="1.3" d="M145.88,-1296.17C145.88,-1285.16 145.88,-1271.84 145.88,-1259.81"/>
<polygon fill="#59687e" stroke="#59687e" stroke-width="1.3" points="148.68,-1260.07 145.88,-1252.07 143.08,-1260.07 148.68,-1260.07"/>
</g>
<!-- immune -->
<g id="node4" class="node">
<title>immune</title>
<path fill="#ffffff" stroke="#bac7db" stroke-width="1.4" d="M134.15,-1152.13C134.15,-1152.13 11.73,-1125.95 11.73,-1125.95 5.87,-1124.69 5.87,-1122.19 11.73,-1120.93 11.73,-1120.93 134.15,-1094.75 134.15,-1094.75 140.01,-1093.49 151.75,-1093.49 157.62,-1094.75 157.62,-1094.75 280.03,-1120.93 280.03,-1120.93 285.9,-1122.19 285.9,-1124.69 280.03,-1125.95 280.03,-1125.95 157.62,-1152.13 157.62,-1152.13 151.75,-1153.39 140.01,-1153.39 134.15,-1152.13"/>
<text xml:space="preserve" text-anchor="middle" x="145.88" y="-1119.24" font-family="Noto Sans CJK KR" font-size="14.00" fill="#182033">immune or protected?</text>
</g>
<!-- system&#45;&gt;immune -->
<g id="edge3" class="edge">
<title>system&#45;&gt;immune</title>
<path fill="none" stroke="#59687e" stroke-width="1.3" d="M145.88,-1201.15C145.88,-1190.28 145.88,-1177.07 145.88,-1164.69"/>
<polygon fill="#59687e" stroke="#59687e" stroke-width="1.3" points="148.68,-1164.97 145.88,-1156.97 143.08,-1164.97 148.68,-1164.97"/>
</g>
<!-- rejected -->
<g id="node5" class="node">
<title>rejected</title>
<path fill="#fff1f2" stroke="#e07b91" stroke-width="1.4" d="M179.23,-958.44C179.23,-958.44 42.53,-958.44 42.53,-958.44 36.53,-958.44 30.53,-952.44 30.53,-946.44 30.53,-946.44 30.53,-905.64 30.53,-905.64 30.53,-899.64 36.53,-893.64 42.53,-893.64 42.53,-893.64 179.23,-893.64 179.23,-893.64 185.23,-893.64 191.23,-899.64 191.23,-905.64 191.23,-905.64 191.23,-946.44 191.23,-946.44 191.23,-952.44 185.23,-958.44 179.23,-958.44"/>
<text xml:space="preserve" text-anchor="middle" x="110.88" y="-938.64" font-family="Noto Sans CJK KR" font-size="14.00" fill="#182033">StatusResult</text>
<text xml:space="preserve" text-anchor="middle" x="110.88" y="-921.84" font-family="Noto Sans CJK KR" font-size="14.00" fill="#182033">immune / rejected</text>
<text xml:space="preserve" text-anchor="middle" x="110.88" y="-905.04" font-family="Noto Sans CJK KR" font-size="14.00" fill="#182033">no mutation · no outbox</text>
</g>
<!-- immune&#45;&gt;rejected -->
<g id="edge4" class="edge">
<title>immune&#45;&gt;rejected</title>
<path fill="none" stroke="#59687e" stroke-width="1.3" d="M140.57,-1092.76C134.63,-1059.64 124.99,-1005.8 118.31,-968.52"/>
<polygon fill="#59687e" stroke="#59687e" stroke-width="1.3" points="121.11,-968.27 116.94,-960.88 115.6,-969.25 121.11,-968.27"/>
<text xml:space="preserve" text-anchor="middle" x="145.01" y="-1056.64" font-family="Noto Sans CJK KR" font-size="14.00" fill="#46566e">yes</text>
</g>
<!-- stack -->
<g id="node6" class="node">
<title>stack</title>
<path fill="#fff8e7" stroke="#e4ad4f" stroke-width="1.4" d="M338.92,-1029.44C338.92,-1029.44 182.84,-1029.44 182.84,-1029.44 176.84,-1029.44 170.84,-1023.44 170.84,-1017.44 170.84,-1017.44 170.84,-993.44 170.84,-993.44 170.84,-987.44 176.84,-981.44 182.84,-981.44 182.84,-981.44 338.92,-981.44 338.92,-981.44 344.92,-981.44 350.92,-987.44 350.92,-993.44 350.92,-993.44 350.92,-1017.44 350.92,-1017.44 350.92,-1023.44 344.92,-1029.44 338.92,-1029.44"/>
<text xml:space="preserve" text-anchor="middle" x="260.88" y="-1009.64" font-family="Noto Sans CJK KR" font-size="14.00" fill="#182033">StackPolicy</text>
<text xml:space="preserve" text-anchor="middle" x="260.88" y="-992.84" font-family="Noto Sans CJK KR" font-size="14.00" fill="#182033">add · replace · refresh&#45;only</text>
</g>
<!-- immune&#45;&gt;stack -->
<g id="edge6" class="edge">
<title>immune&#45;&gt;stack</title>
<path fill="none" stroke="#59687e" stroke-width="1.3" d="M171.12,-1096.98C188.78,-1079.16 212.46,-1055.29 231.06,-1036.52"/>
<polygon fill="#59687e" stroke="#59687e" stroke-width="1.3" points="232.63,-1038.91 236.27,-1031.26 228.65,-1034.97 232.63,-1038.91"/>
<text xml:space="preserve" text-anchor="middle" x="220.68" y="-1056.64" font-family="Noto Sans CJK KR" font-size="14.00" fill="#46566e">no</text>
</g>
<!-- end -->
<g id="node16" class="node">
<title>end</title>
<ellipse fill="#ffffff" stroke="#182033" stroke-width="1.4" cx="303.88" cy="-15.52" rx="11.52" ry="11.52"/>
<ellipse fill="none" stroke="#182033" stroke-width="1.4" cx="303.88" cy="-15.52" rx="15.52" ry="15.52"/>
</g>
<!-- rejected&#45;&gt;end -->
<g id="edge5" class="edge">
<title>rejected&#45;&gt;end</title>
<path fill="none" stroke="#59687e" stroke-width="1.3" d="M105.35,-893.19C101.44,-867.91 96.88,-831.62 96.88,-799.64 96.88,-799.64 96.88,-799.64 96.88,-101.04 96.88,-23.55 222.76,-15.52 278.2,-15.74"/>
<polygon fill="#59687e" stroke="#59687e" stroke-width="1.3" points="277.98,-18.53 286.02,-15.84 278.05,-12.94 277.98,-18.53"/>
</g>
<!-- duration -->
<g id="node7" class="node">
<title>duration</title>
<path fill="#fff8e7" stroke="#e4ad4f" stroke-width="1.4" d="M338.87,-870.64C338.87,-870.64 206.89,-870.64 206.89,-870.64 200.89,-870.64 194.89,-864.64 194.89,-858.64 194.89,-858.64 194.89,-834.64 194.89,-834.64 194.89,-828.64 200.89,-822.64 206.89,-822.64 206.89,-822.64 338.87,-822.64 338.87,-822.64 344.87,-822.64 350.87,-828.64 350.87,-834.64 350.87,-834.64 350.87,-858.64 350.87,-858.64 350.87,-864.64 344.87,-870.64 338.87,-870.64"/>
<text xml:space="preserve" text-anchor="middle" x="272.88" y="-850.84" font-family="Noto Sans CJK KR" font-size="14.00" fill="#182033">DurationPolicy</text>
<text xml:space="preserve" text-anchor="middle" x="272.88" y="-834.04" font-family="Noto Sans CJK KR" font-size="14.00" fill="#182033">refresh · extend · fixed</text>
</g>
<!-- stack&#45;&gt;duration -->
<g id="edge7" class="edge">
<title>stack&#45;&gt;duration</title>
<path fill="none" stroke="#59687e" stroke-width="1.3" d="M262.68,-980.97C264.71,-954.41 268.04,-910.95 270.34,-880.91"/>
<polygon fill="#59687e" stroke="#59687e" stroke-width="1.3" points="273.1,-881.43 270.92,-873.24 267.52,-881 273.1,-881.43"/>
</g>
<!-- instance -->
<g id="node8" class="node">
<title>instance</title>
<path fill="#eefbf6" stroke="#5ac39b" stroke-width="1.4" d="M391.1,-775.64C391.1,-775.64 176.67,-775.64 176.67,-775.64 170.67,-775.64 164.67,-769.64 164.67,-763.64 164.67,-763.64 164.67,-739.64 164.67,-739.64 164.67,-733.64 170.67,-727.64 176.67,-727.64 176.67,-727.64 391.1,-727.64 391.1,-727.64 397.1,-727.64 403.1,-733.64 403.1,-739.64 403.1,-739.64 403.1,-763.64 403.1,-763.64 403.1,-769.64 397.1,-775.64 391.1,-775.64"/>
<text xml:space="preserve" text-anchor="middle" x="283.88" y="-755.84" font-family="Noto Sans CJK KR" font-size="14.00" fill="#182033">Prepare StatusInstance mutation</text>
<text xml:space="preserve" text-anchor="middle" x="283.88" y="-739.04" font-family="Noto Sans CJK KR" font-size="14.00" fill="#182033">expireTick · stackCount · nextTickAt</text>
</g>
<!-- duration&#45;&gt;instance -->
<g id="edge8" class="edge">
<title>duration&#45;&gt;instance</title>
<path fill="none" stroke="#59687e" stroke-width="1.3" d="M275.66,-822.17C276.96,-811.16 278.54,-797.84 279.96,-785.81"/>
<polygon fill="#59687e" stroke="#59687e" stroke-width="1.3" points="282.72,-786.33 280.88,-778.05 277.16,-785.67 282.72,-786.33"/>
</g>
<!-- modifier -->
<g id="node9" class="node">
<title>modifier</title>
<path fill="#f4efff" stroke="#a884e8" stroke-width="1.4" d="M371.22,-680.64C371.22,-680.64 216.55,-680.64 216.55,-680.64 210.55,-680.64 204.55,-674.64 204.55,-668.64 204.55,-668.64 204.55,-644.64 204.55,-644.64 204.55,-638.64 210.55,-632.64 216.55,-632.64 216.55,-632.64 371.22,-632.64 371.22,-632.64 377.22,-632.64 383.22,-638.64 383.22,-644.64 383.22,-644.64 383.22,-668.64 383.22,-668.64 383.22,-674.64 377.22,-680.64 371.22,-680.64"/>
<text xml:space="preserve" text-anchor="middle" x="293.88" y="-660.84" font-family="Noto Sans CJK KR" font-size="14.00" fill="#182033">Prepare Modifier mutations</text>
<text xml:space="preserve" text-anchor="middle" x="293.88" y="-644.04" font-family="Noto Sans CJK KR" font-size="14.00" fill="#182033">sourceId = StatusInstanceId</text>
</g>
<!-- instance&#45;&gt;modifier -->
<g id="edge9" class="edge">
<title>instance&#45;&gt;modifier</title>
<path fill="none" stroke="#59687e" stroke-width="1.3" d="M286.41,-727.17C287.59,-716.16 289.02,-702.84 290.31,-690.81"/>
<polygon fill="#59687e" stroke="#59687e" stroke-width="1.3" points="293.08,-691.31 291.15,-683.06 287.51,-690.71 293.08,-691.31"/>
</g>
<!-- tick -->
<g id="node10" class="node">
<title>tick</title>
<path fill="#f4efff" stroke="#a884e8" stroke-width="1.4" d="M377.52,-585.64C377.52,-585.64 220.24,-585.64 220.24,-585.64 214.24,-585.64 208.24,-579.64 208.24,-573.64 208.24,-573.64 208.24,-549.64 208.24,-549.64 208.24,-543.64 214.24,-537.64 220.24,-537.64 220.24,-537.64 377.52,-537.64 377.52,-537.64 383.52,-537.64 389.52,-543.64 389.52,-549.64 389.52,-549.64 389.52,-573.64 389.52,-573.64 389.52,-579.64 383.52,-585.64 377.52,-585.64"/>
<text xml:space="preserve" text-anchor="middle" x="298.88" y="-565.84" font-family="Noto Sans CJK KR" font-size="14.00" fill="#182033">Prepare periodic schedule</text>
<text xml:space="preserve" text-anchor="middle" x="298.88" y="-549.04" font-family="Noto Sans CJK KR" font-size="14.00" fill="#182033">MaxCatchUpTicks included</text>
</g>
<!-- modifier&#45;&gt;tick -->
<g id="edge10" class="edge">
<title>modifier&#45;&gt;tick</title>
<path fill="none" stroke="#59687e" stroke-width="1.3" d="M295.14,-632.17C295.74,-621.16 296.45,-607.84 297.1,-595.81"/>
<polygon fill="#59687e" stroke="#59687e" stroke-width="1.3" points="299.88,-596.2 297.51,-588.07 294.29,-595.9 299.88,-596.2"/>
</g>
<!-- plan -->
<g id="node11" class="node">
<title>plan</title>
<path fill="#e9fbff" stroke="#54b7cf" stroke-width="1.4" d="M423.63,-490.64C423.63,-490.64 178.13,-490.64 178.13,-490.64 172.13,-490.64 166.13,-484.64 166.13,-478.64 166.13,-478.64 166.13,-454.64 166.13,-454.64 166.13,-448.64 172.13,-442.64 178.13,-442.64 178.13,-442.64 423.63,-442.64 423.63,-442.64 429.63,-442.64 435.63,-448.64 435.63,-454.64 435.63,-454.64 435.63,-478.64 435.63,-478.64 435.63,-484.64 429.63,-490.64 423.63,-490.64"/>
<text xml:space="preserve" text-anchor="middle" x="300.88" y="-470.84" font-family="Noto Sans CJK KR" font-size="14.00" fill="#182033">StatusCommitPlan</text>
<text xml:space="preserve" text-anchor="middle" x="300.88" y="-454.04" font-family="Noto Sans CJK KR" font-size="14.00" fill="#182033">instance + modifier + tick + planned outbox</text>
</g>
<!-- tick&#45;&gt;plan -->
<g id="edge11" class="edge">
<title>tick&#45;&gt;plan</title>
<path fill="none" stroke="#59687e" stroke-width="1.3" d="M299.39,-537.17C299.62,-526.16 299.91,-512.84 300.17,-500.81"/>
<polygon fill="#59687e" stroke="#59687e" stroke-width="1.3" points="302.96,-501.13 300.33,-493.07 297.36,-501.01 302.96,-501.13"/>
</g>
<!-- commit -->
<g id="node12" class="node">
<title>commit</title>
<path fill="#eefbf6" stroke="#5ac39b" stroke-width="1.4" d="M403.54,-395.64C403.54,-395.64 204.23,-395.64 204.23,-395.64 198.23,-395.64 192.23,-389.64 192.23,-383.64 192.23,-383.64 192.23,-359.64 192.23,-359.64 192.23,-353.64 198.23,-347.64 204.23,-347.64 204.23,-347.64 403.54,-347.64 403.54,-347.64 409.54,-347.64 415.54,-353.64 415.54,-359.64 415.54,-359.64 415.54,-383.64 415.54,-383.64 415.54,-389.64 409.54,-395.64 403.54,-395.64"/>
<text xml:space="preserve" text-anchor="middle" x="303.88" y="-375.84" font-family="Noto Sans CJK KR" font-size="14.00" fill="#182033">RuntimeCommitter / Status commit</text>
<text xml:space="preserve" text-anchor="middle" x="303.88" y="-359.04" font-family="Noto Sans CJK KR" font-size="14.00" fill="#182033">state + outbox atomic</text>
</g>
<!-- plan&#45;&gt;commit -->
<g id="edge12" class="edge">
<title>plan&#45;&gt;commit</title>
<path fill="none" stroke="#59687e" stroke-width="1.3" d="M301.64,-442.17C301.99,-431.16 302.42,-417.84 302.81,-405.81"/>
<polygon fill="#59687e" stroke="#59687e" stroke-width="1.3" points="305.6,-406.15 303.06,-398.07 300.01,-405.97 305.6,-406.15"/>
</g>
<!-- event -->
<g id="node13" class="node">
<title>event</title>
<path fill="#f8fafc" stroke="#bac7db" stroke-width="1.4" d="M394,-284.84C394,-284.84 213.76,-284.84 213.76,-284.84 207.76,-284.84 201.76,-278.84 201.76,-272.84 201.76,-272.84 201.76,-248.84 201.76,-248.84 201.76,-242.84 207.76,-236.84 213.76,-236.84 213.76,-236.84 394,-236.84 394,-236.84 400,-236.84 406,-242.84 406,-248.84 406,-248.84 406,-272.84 406,-272.84 406,-278.84 400,-284.84 394,-284.84"/>
<text xml:space="preserve" text-anchor="middle" x="303.88" y="-265.04" font-family="Noto Sans CJK KR" font-size="14.00" fill="#182033">Committed facts dispatch</text>
<text xml:space="preserve" text-anchor="middle" x="303.88" y="-248.24" font-family="Noto Sans CJK KR" font-size="14.00" fill="#182033">StatusApplied / StatusRefreshed</text>
</g>
<!-- commit&#45;&gt;event -->
<g id="edge15" class="edge">
<title>commit&#45;&gt;event</title>
<path fill="none" stroke="#59687e" stroke-width="1.3" d="M303.88,-347.03C303.88,-331.92 303.88,-312.08 303.88,-295.35"/>
<polygon fill="#59687e" stroke="#59687e" stroke-width="1.3" points="306.68,-295.37 303.88,-287.37 301.08,-295.37 306.68,-295.37"/>
<text xml:space="preserve" text-anchor="middle" x="324.87" y="-312.04" font-family="Noto Sans CJK KR" font-size="14.00" fill="#46566e">success</text>
</g>
<!-- failed -->
<g id="node15" class="node">
<title>failed</title>
<path fill="#fff1f2" stroke="#e07b91" stroke-width="1.4" d="M568.52,-213.84C568.52,-213.84 425.25,-213.84 425.25,-213.84 419.25,-213.84 413.25,-207.84 413.25,-201.84 413.25,-201.84 413.25,-161.04 413.25,-161.04 413.25,-155.04 419.25,-149.04 425.25,-149.04 425.25,-149.04 568.52,-149.04 568.52,-149.04 574.52,-149.04 580.52,-155.04 580.52,-161.04 580.52,-161.04 580.52,-201.84 580.52,-201.84 580.52,-207.84 574.52,-213.84 568.52,-213.84"/>
<text xml:space="preserve" text-anchor="middle" x="496.88" y="-194.04" font-family="Noto Sans CJK KR" font-size="14.00" fill="#182033">StatusResult</text>
<text xml:space="preserve" text-anchor="middle" x="496.88" y="-177.24" font-family="Noto Sans CJK KR" font-size="14.00" fill="#182033">version / invariant failed</text>
<text xml:space="preserve" text-anchor="middle" x="496.88" y="-160.44" font-family="Noto Sans CJK KR" font-size="14.00" fill="#182033">no partial state · no event</text>
</g>
<!-- commit&#45;&gt;failed -->
<g id="edge13" class="edge">
<title>commit&#45;&gt;failed</title>
<path fill="none" stroke="#dc2626" stroke-width="1.3" stroke-dasharray="5,2" d="M342.36,-347.08C366.64,-331.18 397.84,-308.8 421.88,-284.84 440.59,-266.19 458.23,-242.56 471.69,-222.69"/>
<polygon fill="#dc2626" stroke="#dc2626" stroke-width="1.3" points="473.99,-224.28 476.1,-216.07 469.33,-221.18 473.99,-224.28"/>
<text xml:space="preserve" text-anchor="middle" x="403.54" y="-312.04" font-family="Noto Sans CJK KR" font-size="14.00" fill="#dc2626">fail</text>
</g>
<!-- result -->
<g id="node14" class="node">
<title>result</title>
<path fill="#eefbf6" stroke="#5ac39b" stroke-width="1.4" d="M449.96,-126.04C449.96,-126.04 157.8,-126.04 157.8,-126.04 151.8,-126.04 145.8,-120.04 145.8,-114.04 145.8,-114.04 145.8,-90.04 145.8,-90.04 145.8,-84.04 151.8,-78.04 157.8,-78.04 157.8,-78.04 449.96,-78.04 449.96,-78.04 455.96,-78.04 461.96,-84.04 461.96,-90.04 461.96,-90.04 461.96,-114.04 461.96,-114.04 461.96,-120.04 455.96,-126.04 449.96,-126.04"/>
<text xml:space="preserve" text-anchor="middle" x="303.88" y="-106.24" font-family="Noto Sans CJK KR" font-size="14.00" fill="#182033">StatusResult</text>
<text xml:space="preserve" text-anchor="middle" x="303.88" y="-89.44" font-family="Noto Sans CJK KR" font-size="14.00" fill="#182033">applied · refreshed · stackChanged · tickScheduled</text>
</g>
<!-- event&#45;&gt;result -->
<g id="edge16" class="edge">
<title>event&#45;&gt;result</title>
<path fill="none" stroke="#59687e" stroke-width="1.3" d="M303.88,-236.37C303.88,-209.81 303.88,-166.35 303.88,-136.31"/>
<polygon fill="#59687e" stroke="#59687e" stroke-width="1.3" points="306.68,-136.64 303.88,-128.64 301.08,-136.64 306.68,-136.64"/>
</g>
<!-- result&#45;&gt;end -->
<g id="edge17" class="edge">
<title>result&#45;&gt;end</title>
<path fill="none" stroke="#59687e" stroke-width="1.3" d="M303.88,-77.5C303.88,-66.28 303.88,-52.85 303.88,-41.46"/>
<polygon fill="#59687e" stroke="#59687e" stroke-width="1.3" points="306.68,-41.66 303.88,-33.66 301.08,-41.66 306.68,-41.66"/>
</g>
<!-- failed&#45;&gt;end -->
<g id="edge14" class="edge">
<title>failed&#45;&gt;end</title>
<path fill="none" stroke="#59687e" stroke-width="1.3" d="M498.85,-148.75C498.53,-126.52 494.45,-97.42 477.88,-78.04 440.11,-33.85 368.47,-21.39 329.95,-17.89"/>
<polygon fill="#59687e" stroke="#59687e" stroke-width="1.3" points="330.17,-15.1 321.98,-17.27 329.74,-20.68 330.17,-15.1"/>
</g>
</g>
</svg>
