<?xml version="1.0" encoding="UTF-8" standalone="no"?>
<!DOCTYPE svg PUBLIC "-//W3C//DTD SVG 1.1//EN"
 "http://www.w3.org/Graphics/SVG/1.1/DTD/svg11.dtd">
<!-- Generated by graphviz version 15.0.0 (20260523.1842)
 -->
<!-- Title: G Pages: 1 -->
<svg width="525pt" height="1272pt"
 viewBox="9.00 9.00 516.00 1264.00" xmlns="http://www.w3.org/2000/svg" xmlns:xlink="http://www.w3.org/1999/xlink">
<style>.node text { font-size: 90%; }</style>
<g id="graph0" class="graph" transform="scale(1 1) rotate(0) translate(26.64 1245.6)">
<title>G</title>
<polygon fill="#ffffff" stroke="none" points="-18,18 -18,-1236.96 489.74,-1236.96 489.74,18 -18,18"/>
<!-- start -->
<g id="node1" class="node">
<title>start</title>
<ellipse fill="#182033" stroke="#182033" stroke-width="1.4" cx="146.65" cy="-1209.6" rx="9.36" ry="9.36"/>
</g>
<!-- effect -->
<g id="node2" class="node">
<title>effect</title>
<path fill="#eefbf6" stroke="#5ac39b" stroke-width="1.4" d="M220.65,-1153.24C220.65,-1153.24 72.66,-1153.24 72.66,-1153.24 66.66,-1153.24 60.66,-1147.24 60.66,-1141.24 60.66,-1141.24 60.66,-1117.24 60.66,-1117.24 60.66,-1111.24 66.66,-1105.24 72.66,-1105.24 72.66,-1105.24 220.65,-1105.24 220.65,-1105.24 226.65,-1105.24 232.65,-1111.24 232.65,-1117.24 232.65,-1117.24 232.65,-1141.24 232.65,-1141.24 232.65,-1147.24 226.65,-1153.24 220.65,-1153.24"/>
<text xml:space="preserve" text-anchor="middle" x="146.65" y="-1133.44" font-family="Noto Sans CJK KR" font-size="14.00" fill="#182033">ApplyStatusEffect</text>
<text xml:space="preserve" text-anchor="middle" x="146.65" y="-1116.64" font-family="Noto Sans CJK KR" font-size="14.00" fill="#182033">Build ApplyStatusRequest</text>
</g>
<!-- start&#45;&gt;effect -->
<g id="edge1" class="edge">
<title>start&#45;&gt;effect</title>
<path fill="none" stroke="#59687e" stroke-width="1.3" d="M146.65,-1199.61C146.65,-1190.77 146.65,-1176.72 146.65,-1163.58"/>
<polygon fill="#59687e" stroke="#59687e" stroke-width="1.3" points="149.45,-1163.76 146.65,-1155.76 143.85,-1163.76 149.45,-1163.76"/>
</g>
<!-- system -->
<g id="node3" class="node">
<title>system</title>
<path fill="#eaf0ff" stroke="#8292f7" stroke-width="1.4" d="M225.5,-1058.24C225.5,-1058.24 67.81,-1058.24 67.81,-1058.24 61.81,-1058.24 55.81,-1052.24 55.81,-1046.24 55.81,-1046.24 55.81,-1022.24 55.81,-1022.24 55.81,-1016.24 61.81,-1010.24 67.81,-1010.24 67.81,-1010.24 225.5,-1010.24 225.5,-1010.24 231.5,-1010.24 237.5,-1016.24 237.5,-1022.24 237.5,-1022.24 237.5,-1046.24 237.5,-1046.24 237.5,-1052.24 231.5,-1058.24 225.5,-1058.24"/>
<text xml:space="preserve" text-anchor="middle" x="146.65" y="-1038.44" font-family="Noto Sans CJK KR" font-size="14.00" fill="#182033">StatusSystem</text>
<text xml:space="preserve" text-anchor="middle" x="146.65" y="-1021.64" font-family="Noto Sans CJK KR" font-size="14.00" fill="#182033">Apply(ApplyStatusRequest)</text>
</g>
<!-- effect&#45;&gt;system -->
<g id="edge2" class="edge">
<title>effect&#45;&gt;system</title>
<path fill="none" stroke="#59687e" stroke-width="1.3" d="M146.65,-1104.77C146.65,-1093.76 146.65,-1080.44 146.65,-1068.41"/>
<polygon fill="#59687e" stroke="#59687e" stroke-width="1.3" points="149.45,-1068.67 146.65,-1060.67 143.85,-1068.67 149.45,-1068.67"/>
</g>
<!-- controller -->
<g id="node4" class="node">
<title>controller</title>
<path fill="#ffffff" stroke="#bac7db" stroke-width="1.4" d="M204.1,-963.24C204.1,-963.24 89.21,-963.24 89.21,-963.24 83.21,-963.24 77.21,-957.24 77.21,-951.24 77.21,-951.24 77.21,-927.24 77.21,-927.24 77.21,-921.24 83.21,-915.24 89.21,-915.24 89.21,-915.24 204.1,-915.24 204.1,-915.24 210.1,-915.24 216.1,-921.24 216.1,-927.24 216.1,-927.24 216.1,-951.24 216.1,-951.24 216.1,-957.24 210.1,-963.24 204.1,-963.24"/>
<text xml:space="preserve" text-anchor="middle" x="146.65" y="-943.44" font-family="Noto Sans CJK KR" font-size="14.00" fill="#182033">StatusController</text>
<text xml:space="preserve" text-anchor="middle" x="146.65" y="-926.64" font-family="Noto Sans CJK KR" font-size="14.00" fill="#182033">find target controller</text>
</g>
<!-- system&#45;&gt;controller -->
<g id="edge3" class="edge">
<title>system&#45;&gt;controller</title>
<path fill="none" stroke="#59687e" stroke-width="1.3" d="M146.65,-1009.77C146.65,-998.76 146.65,-985.44 146.65,-973.41"/>
<polygon fill="#59687e" stroke="#59687e" stroke-width="1.3" points="149.45,-973.67 146.65,-965.67 143.85,-973.67 149.45,-973.67"/>
</g>
<!-- immune -->
<g id="node5" class="node">
<title>immune</title>
<path fill="#ffffff" stroke="#bac7db" stroke-width="1.4" d="M134.92,-865.74C134.92,-865.74 11.74,-839.54 11.74,-839.54 5.87,-838.29 5.87,-835.79 11.74,-834.54 11.74,-834.54 134.92,-808.34 134.92,-808.34 140.79,-807.09 152.52,-807.09 158.39,-808.34 158.39,-808.34 281.57,-834.54 281.57,-834.54 287.44,-835.79 287.44,-838.29 281.57,-839.54 281.57,-839.54 158.39,-865.74 158.39,-865.74 152.52,-866.99 140.79,-866.99 134.92,-865.74"/>
<text xml:space="preserve" text-anchor="middle" x="146.65" y="-832.84" font-family="Noto Sans CJK KR" font-size="14.00" fill="#182033">Immune or protected?</text>
</g>
<!-- controller&#45;&gt;immune -->
<g id="edge4" class="edge">
<title>controller&#45;&gt;immune</title>
<path fill="none" stroke="#59687e" stroke-width="1.3" d="M146.65,-914.75C146.65,-903.88 146.65,-890.67 146.65,-878.29"/>
<polygon fill="#59687e" stroke="#59687e" stroke-width="1.3" points="149.45,-878.57 146.65,-870.57 143.85,-878.57 149.45,-878.57"/>
</g>
<!-- rejected -->
<g id="node6" class="node">
<title>rejected</title>
<path fill="#fff1f2" stroke="#e07b91" stroke-width="1.4" d="M164.71,-672.04C164.71,-672.04 64.6,-672.04 64.6,-672.04 58.6,-672.04 52.6,-666.04 52.6,-660.04 52.6,-660.04 52.6,-636.04 52.6,-636.04 52.6,-630.04 58.6,-624.04 64.6,-624.04 64.6,-624.04 164.71,-624.04 164.71,-624.04 170.71,-624.04 176.71,-630.04 176.71,-636.04 176.71,-636.04 176.71,-660.04 176.71,-660.04 176.71,-666.04 170.71,-672.04 164.71,-672.04"/>
<text xml:space="preserve" text-anchor="middle" x="114.65" y="-652.24" font-family="Noto Sans CJK KR" font-size="14.00" fill="#182033">StatusResult</text>
<text xml:space="preserve" text-anchor="middle" x="114.65" y="-635.44" font-family="Noto Sans CJK KR" font-size="14.00" fill="#182033">immune / rejected</text>
</g>
<!-- immune&#45;&gt;rejected -->
<g id="edge5" class="edge">
<title>immune&#45;&gt;rejected</title>
<path fill="none" stroke="#59687e" stroke-width="1.3" d="M141.58,-806.41C135.81,-772.67 126.4,-717.66 120.37,-682.43"/>
<polygon fill="#59687e" stroke="#59687e" stroke-width="1.3" points="123.13,-681.96 119.02,-674.55 117.61,-682.91 123.13,-681.96"/>
<text xml:space="preserve" text-anchor="middle" x="146.66" y="-770.24" font-family="Noto Sans CJK KR" font-size="14.00" fill="#46566e">yes</text>
</g>
<!-- stack -->
<g id="node7" class="node">
<title>stack</title>
<path fill="#fff8e7" stroke="#e4ad4f" stroke-width="1.4" d="M362.13,-743.04C362.13,-743.04 181.18,-743.04 181.18,-743.04 175.18,-743.04 169.18,-737.04 169.18,-731.04 169.18,-731.04 169.18,-707.04 169.18,-707.04 169.18,-701.04 175.18,-695.04 181.18,-695.04 181.18,-695.04 362.13,-695.04 362.13,-695.04 368.13,-695.04 374.13,-701.04 374.13,-707.04 374.13,-707.04 374.13,-731.04 374.13,-731.04 374.13,-737.04 368.13,-743.04 362.13,-743.04"/>
<text xml:space="preserve" text-anchor="middle" x="271.65" y="-723.24" font-family="Noto Sans CJK KR" font-size="14.00" fill="#182033">StackPolicy</text>
<text xml:space="preserve" text-anchor="middle" x="271.65" y="-706.44" font-family="Noto Sans CJK KR" font-size="14.00" fill="#182033">add stack / replace / refresh only</text>
</g>
<!-- immune&#45;&gt;stack -->
<g id="edge7" class="edge">
<title>immune&#45;&gt;stack</title>
<path fill="none" stroke="#59687e" stroke-width="1.3" d="M173.47,-811.16C192.64,-793.37 218.54,-769.33 238.92,-750.41"/>
<polygon fill="#59687e" stroke="#59687e" stroke-width="1.3" points="240.76,-752.53 244.72,-745.03 236.95,-748.42 240.76,-752.53"/>
<text xml:space="preserve" text-anchor="middle" x="227.35" y="-770.24" font-family="Noto Sans CJK KR" font-size="14.00" fill="#46566e">no</text>
</g>
<!-- end -->
<g id="node14" class="node">
<title>end</title>
<ellipse fill="#ffffff" stroke="#182033" stroke-width="1.4" cx="125.65" cy="-15.52" rx="11.52" ry="11.52"/>
<ellipse fill="none" stroke="#182033" stroke-width="1.4" cx="125.65" cy="-15.52" rx="15.52" ry="15.52"/>
</g>
<!-- rejected&#45;&gt;end -->
<g id="edge6" class="edge">
<title>rejected&#45;&gt;end</title>
<path fill="none" stroke="#59687e" stroke-width="1.3" d="M112.12,-623.76C109.78,-600.18 106.65,-562.62 106.65,-530.04 106.65,-530.04 106.65,-530.04 106.65,-101.04 106.65,-79.92 112.37,-56.53 117.53,-39.73"/>
<polygon fill="#59687e" stroke="#59687e" stroke-width="1.3" points="120.06,-41 119.86,-32.53 114.74,-39.28 120.06,-41"/>
</g>
<!-- duration -->
<g id="node8" class="node">
<title>duration</title>
<path fill="#fff8e7" stroke="#e4ad4f" stroke-width="1.4" d="M345.54,-601.04C345.54,-601.04 219.77,-601.04 219.77,-601.04 213.77,-601.04 207.77,-595.04 207.77,-589.04 207.77,-589.04 207.77,-565.04 207.77,-565.04 207.77,-559.04 213.77,-553.04 219.77,-553.04 219.77,-553.04 345.54,-553.04 345.54,-553.04 351.54,-553.04 357.54,-559.04 357.54,-565.04 357.54,-565.04 357.54,-589.04 357.54,-589.04 357.54,-595.04 351.54,-601.04 345.54,-601.04"/>
<text xml:space="preserve" text-anchor="middle" x="282.65" y="-581.24" font-family="Noto Sans CJK KR" font-size="14.00" fill="#182033">DurationPolicy</text>
<text xml:space="preserve" text-anchor="middle" x="282.65" y="-564.44" font-family="Noto Sans CJK KR" font-size="14.00" fill="#182033">refresh / extend / fixed</text>
</g>
<!-- stack&#45;&gt;duration -->
<g id="edge8" class="edge">
<title>stack&#45;&gt;duration</title>
<path fill="none" stroke="#59687e" stroke-width="1.3" d="M273.5,-694.61C275.29,-671.79 278.03,-636.9 280.05,-611.23"/>
<polygon fill="#59687e" stroke="#59687e" stroke-width="1.3" points="282.82,-611.71 280.65,-603.51 277.23,-611.27 282.82,-611.71"/>
</g>
<!-- instance -->
<g id="node9" class="node">
<title>instance</title>
<path fill="#eefbf6" stroke="#5ac39b" stroke-width="1.4" d="M400.87,-506.04C400.87,-506.04 186.44,-506.04 186.44,-506.04 180.44,-506.04 174.44,-500.04 174.44,-494.04 174.44,-494.04 174.44,-470.04 174.44,-470.04 174.44,-464.04 180.44,-458.04 186.44,-458.04 186.44,-458.04 400.87,-458.04 400.87,-458.04 406.87,-458.04 412.87,-464.04 412.87,-470.04 412.87,-470.04 412.87,-494.04 412.87,-494.04 412.87,-500.04 406.87,-506.04 400.87,-506.04"/>
<text xml:space="preserve" text-anchor="middle" x="293.65" y="-486.24" font-family="Noto Sans CJK KR" font-size="14.00" fill="#182033">StatusInstance</text>
<text xml:space="preserve" text-anchor="middle" x="293.65" y="-469.44" font-family="Noto Sans CJK KR" font-size="14.00" fill="#182033">expireTick · stackCount · nextTickAt</text>
</g>
<!-- duration&#45;&gt;instance -->
<g id="edge9" class="edge">
<title>duration&#45;&gt;instance</title>
<path fill="none" stroke="#59687e" stroke-width="1.3" d="M285.43,-552.57C286.73,-541.56 288.31,-528.24 289.73,-516.21"/>
<polygon fill="#59687e" stroke="#59687e" stroke-width="1.3" points="292.49,-516.73 290.65,-508.45 286.93,-516.07 292.49,-516.73"/>
</g>
<!-- modifier -->
<g id="node10" class="node">
<title>modifier</title>
<path fill="#f4efff" stroke="#a884e8" stroke-width="1.4" d="M401.59,-411.04C401.59,-411.04 205.72,-411.04 205.72,-411.04 199.72,-411.04 193.72,-405.04 193.72,-399.04 193.72,-399.04 193.72,-375.04 193.72,-375.04 193.72,-369.04 199.72,-363.04 205.72,-363.04 205.72,-363.04 401.59,-363.04 401.59,-363.04 407.59,-363.04 413.59,-369.04 413.59,-375.04 413.59,-375.04 413.59,-399.04 413.59,-399.04 413.59,-405.04 407.59,-411.04 401.59,-411.04"/>
<text xml:space="preserve" text-anchor="middle" x="303.65" y="-391.24" font-family="Noto Sans CJK KR" font-size="14.00" fill="#182033">StatusModifierProvider</text>
<text xml:space="preserve" text-anchor="middle" x="303.65" y="-374.44" font-family="Noto Sans CJK KR" font-size="14.00" fill="#182033">modifierSourceId=statusInstanceId</text>
</g>
<!-- instance&#45;&gt;modifier -->
<g id="edge10" class="edge">
<title>instance&#45;&gt;modifier</title>
<path fill="none" stroke="#59687e" stroke-width="1.3" d="M296.18,-457.57C297.36,-446.56 298.79,-433.24 300.09,-421.21"/>
<polygon fill="#59687e" stroke="#59687e" stroke-width="1.3" points="302.85,-421.71 300.92,-413.46 297.28,-421.11 302.85,-421.71"/>
</g>
<!-- tick -->
<g id="node11" class="node">
<title>tick</title>
<path fill="#f4efff" stroke="#a884e8" stroke-width="1.4" d="M375.03,-316.04C375.03,-316.04 242.28,-316.04 242.28,-316.04 236.28,-316.04 230.28,-310.04 230.28,-304.04 230.28,-304.04 230.28,-280.04 230.28,-280.04 230.28,-274.04 236.28,-268.04 242.28,-268.04 242.28,-268.04 375.03,-268.04 375.03,-268.04 381.03,-268.04 387.03,-274.04 387.03,-280.04 387.03,-280.04 387.03,-304.04 387.03,-304.04 387.03,-310.04 381.03,-316.04 375.03,-316.04"/>
<text xml:space="preserve" text-anchor="middle" x="308.65" y="-296.24" font-family="Noto Sans CJK KR" font-size="14.00" fill="#182033">TickPolicy</text>
<text xml:space="preserve" text-anchor="middle" x="308.65" y="-279.44" font-family="Noto Sans CJK KR" font-size="14.00" fill="#182033">schedule periodic effect</text>
</g>
<!-- modifier&#45;&gt;tick -->
<g id="edge11" class="edge">
<title>modifier&#45;&gt;tick</title>
<path fill="none" stroke="#59687e" stroke-width="1.3" d="M304.92,-362.57C305.51,-351.56 306.22,-338.24 306.87,-326.21"/>
<polygon fill="#59687e" stroke="#59687e" stroke-width="1.3" points="309.65,-326.6 307.29,-318.47 304.06,-326.3 309.65,-326.6"/>
</g>
<!-- event -->
<g id="node12" class="node">
<title>event</title>
<path fill="#f8fafc" stroke="#bac7db" stroke-width="1.4" d="M401.77,-221.04C401.77,-221.04 221.53,-221.04 221.53,-221.04 215.53,-221.04 209.53,-215.04 209.53,-209.04 209.53,-209.04 209.53,-185.04 209.53,-185.04 209.53,-179.04 215.53,-173.04 221.53,-173.04 221.53,-173.04 401.77,-173.04 401.77,-173.04 407.77,-173.04 413.77,-179.04 413.77,-185.04 413.77,-185.04 413.77,-209.04 413.77,-209.04 413.77,-215.04 407.77,-221.04 401.77,-221.04"/>
<text xml:space="preserve" text-anchor="middle" x="311.65" y="-201.24" font-family="Noto Sans CJK KR" font-size="14.00" fill="#182033">EventBus</text>
<text xml:space="preserve" text-anchor="middle" x="311.65" y="-184.44" font-family="Noto Sans CJK KR" font-size="14.00" fill="#182033">StatusApplied / StatusRefreshed</text>
</g>
<!-- tick&#45;&gt;event -->
<g id="edge12" class="edge">
<title>tick&#45;&gt;event</title>
<path fill="none" stroke="#59687e" stroke-width="1.3" d="M309.41,-267.57C309.77,-256.56 310.2,-243.24 310.58,-231.21"/>
<polygon fill="#59687e" stroke="#59687e" stroke-width="1.3" points="313.37,-231.55 310.83,-223.47 307.78,-231.37 313.37,-231.55"/>
</g>
<!-- result -->
<g id="node13" class="node">
<title>result</title>
<path fill="#eefbf6" stroke="#5ac39b" stroke-width="1.4" d="M459.74,-126.04C459.74,-126.04 167.57,-126.04 167.57,-126.04 161.57,-126.04 155.57,-120.04 155.57,-114.04 155.57,-114.04 155.57,-90.04 155.57,-90.04 155.57,-84.04 161.57,-78.04 167.57,-78.04 167.57,-78.04 459.74,-78.04 459.74,-78.04 465.74,-78.04 471.74,-84.04 471.74,-90.04 471.74,-90.04 471.74,-114.04 471.74,-114.04 471.74,-120.04 465.74,-126.04 459.74,-126.04"/>
<text xml:space="preserve" text-anchor="middle" x="313.65" y="-106.24" font-family="Noto Sans CJK KR" font-size="14.00" fill="#182033">StatusResult</text>
<text xml:space="preserve" text-anchor="middle" x="313.65" y="-89.44" font-family="Noto Sans CJK KR" font-size="14.00" fill="#182033">applied · refreshed · stackChanged · tickScheduled</text>
</g>
<!-- event&#45;&gt;result -->
<g id="edge13" class="edge">
<title>event&#45;&gt;result</title>
<path fill="none" stroke="#59687e" stroke-width="1.3" d="M312.16,-172.57C312.4,-161.56 312.68,-148.24 312.94,-136.21"/>
<polygon fill="#59687e" stroke="#59687e" stroke-width="1.3" points="315.73,-136.53 313.11,-128.47 310.14,-136.41 315.73,-136.53"/>
</g>
<!-- result&#45;&gt;end -->
<g id="edge14" class="edge">
<title>result&#45;&gt;end</title>
<path fill="none" stroke="#59687e" stroke-width="1.3" d="M261.04,-77.38C224.11,-60.78 176.54,-39.4 148.74,-26.9"/>
<polygon fill="#59687e" stroke="#59687e" stroke-width="1.3" points="150.02,-24.4 141.57,-23.68 147.72,-29.51 150.02,-24.4"/>
</g>
</g>
</svg>
