<?xml version="1.0" encoding="UTF-8" standalone="no"?>
<!DOCTYPE svg PUBLIC "-//W3C//DTD SVG 1.1//EN"
 "http://www.w3.org/Graphics/SVG/1.1/DTD/svg11.dtd">
<!-- Generated by graphviz version 2.42.4 (0)
 -->
<!-- Title: G Pages: 1 -->
<svg width="421pt" height="911pt"
 viewBox="8.64 8.64 412.64 902.64" xmlns="http://www.w3.org/2000/svg" xmlns:xlink="http://www.w3.org/1999/xlink">
<g id="graph0" class="graph" transform="scale(1 1) rotate(0) translate(26.64 884.64)">
<title>G</title>
<polygon fill="#ffffff" stroke="transparent" points="-18,18 -18,-876 386,-876 386,18 -18,18"/>
<!-- start -->
<g id="node1" class="node">
<title>start</title>
<ellipse fill="#182033" stroke="#182033" stroke-width="1.4" cx="199" cy="-848" rx="10" ry="10"/>
</g>
<!-- due -->
<g id="node2" class="node">
<title>due</title>
<path fill="#ffffff" stroke="#bac7db" stroke-width="1.4" d="M261,-787C261,-787 137,-787 137,-787 131,-787 125,-781 125,-775 125,-775 125,-763 125,-763 125,-757 131,-751 137,-751 137,-751 261,-751 261,-751 267,-751 273,-757 273,-763 273,-763 273,-775 273,-775 273,-781 267,-787 261,-787"/>
<text text-anchor="middle" x="199" y="-765.3" font-family="Noto Sans CJK KR" font-size="14.00" fill="#182033">Tick Timer Reached</text>
</g>
<!-- start&#45;&gt;due -->
<g id="edge1" class="edge">
<title>start&#45;&gt;due</title>
<path fill="none" stroke="#59687e" stroke-width="1.3" d="M199,-837.99C199,-837.99 199,-795.04 199,-795.04"/>
<polygon fill="#59687e" stroke="#59687e" stroke-width="1.3" points="201.8,-795.04 199,-787.04 196.2,-795.04 201.8,-795.04"/>
</g>
<!-- active -->
<g id="node3" class="node">
<title>active</title>
<path fill="#ffffff" stroke="#bac7db" stroke-width="1.4" d="M187.23,-697.66C187.23,-697.66 74.77,-675.34 74.77,-675.34 68.89,-674.17 68.89,-671.83 74.77,-670.66 74.77,-670.66 187.23,-648.34 187.23,-648.34 193.11,-647.17 204.89,-647.17 210.77,-648.34 210.77,-648.34 323.23,-670.66 323.23,-670.66 329.11,-671.83 329.11,-674.17 323.23,-675.34 323.23,-675.34 210.77,-697.66 210.77,-697.66 204.89,-698.83 193.11,-698.83 187.23,-697.66"/>
<text text-anchor="middle" x="199" y="-669.3" font-family="Noto Sans CJK KR" font-size="14.00" fill="#182033">Status still active?</text>
</g>
<!-- due&#45;&gt;active -->
<g id="edge2" class="edge">
<title>due&#45;&gt;active</title>
<path fill="none" stroke="#59687e" stroke-width="1.3" d="M199,-750.94C199,-750.94 199,-708.05 199,-708.05"/>
<polygon fill="#59687e" stroke="#59687e" stroke-width="1.3" points="201.8,-708.05 199,-700.05 196.2,-708.05 201.8,-708.05"/>
</g>
<!-- context -->
<g id="node4" class="node">
<title>context</title>
<path fill="#ffffff" stroke="#bac7db" stroke-width="1.4" d="M202.5,-581C202.5,-581 49.5,-581 49.5,-581 43.5,-581 37.5,-575 37.5,-569 37.5,-569 37.5,-521 37.5,-521 37.5,-515 43.5,-509 49.5,-509 49.5,-509 202.5,-509 202.5,-509 208.5,-509 214.5,-515 214.5,-521 214.5,-521 214.5,-569 214.5,-569 214.5,-575 208.5,-581 202.5,-581"/>
<text text-anchor="middle" x="126" y="-563.8" font-family="Noto Sans CJK KR" font-size="14.00" fill="#182033">Build EffectContext</text>
<text text-anchor="middle" x="126" y="-548.8" font-family="Noto Sans CJK KR" font-size="14.00" fill="#182033">source=statusInstanceId</text>
<text text-anchor="middle" x="126" y="-533.8" font-family="Noto Sans CJK KR" font-size="14.00" fill="#182033">target=owner</text>
<text text-anchor="middle" x="126" y="-518.8" font-family="Noto Sans CJK KR" font-size="14.00" fill="#182033">stackCount included</text>
</g>
<!-- active&#45;&gt;context -->
<g id="edge4" class="edge">
<title>active&#45;&gt;context</title>
<path fill="none" stroke="#59687e" stroke-width="1.3" d="M138.75,-657.81C138.75,-657.81 138.75,-589 138.75,-589"/>
<polygon fill="#59687e" stroke="#59687e" stroke-width="1.3" points="141.55,-589 138.75,-581 135.95,-589 141.55,-589"/>
<text text-anchor="middle" x="187" y="-609.8" font-family="Noto Sans CJK KR" font-size="14.00" fill="#46566e">yes</text>
</g>
<!-- remove -->
<g id="node9" class="node">
<title>remove</title>
<path fill="#ffffff" stroke="#bac7db" stroke-width="1.4" d="M356,-139C356,-139 186,-139 186,-139 180,-139 174,-133 174,-127 174,-127 174,-94 174,-94 174,-88 180,-82 186,-82 186,-82 356,-82 356,-82 362,-82 368,-88 368,-94 368,-94 368,-127 368,-127 368,-133 362,-139 356,-139"/>
<text text-anchor="middle" x="271" y="-121.8" font-family="Noto Sans CJK KR" font-size="14.00" fill="#182033">Remove status</text>
<text text-anchor="middle" x="271" y="-106.8" font-family="Noto Sans CJK KR" font-size="14.00" fill="#182033">remove modifiers</text>
<text text-anchor="middle" x="271" y="-91.8" font-family="Noto Sans CJK KR" font-size="14.00" fill="#182033">publish OnStatusRemoved</text>
</g>
<!-- active&#45;&gt;remove -->
<g id="edge3" class="edge">
<title>active&#45;&gt;remove</title>
<path fill="none" stroke="#59687e" stroke-width="1.3" d="M275.5,-660.99C275.5,-660.99 275.5,-147.05 275.5,-147.05"/>
<polygon fill="#59687e" stroke="#59687e" stroke-width="1.3" points="278.3,-147.05 275.5,-139.05 272.7,-147.05 278.3,-147.05"/>
<text text-anchor="middle" x="279.5" y="-379.8" font-family="Noto Sans CJK KR" font-size="14.00" fill="#46566e">no</text>
</g>
<!-- execute -->
<g id="node5" class="node">
<title>execute</title>
<path fill="#ffffff" stroke="#bac7db" stroke-width="1.4" d="M193,-458C193,-458 53,-458 53,-458 47,-458 41,-452 41,-446 41,-446 41,-428 41,-428 41,-422 47,-416 53,-416 53,-416 193,-416 193,-416 199,-416 205,-422 205,-428 205,-428 205,-446 205,-446 205,-452 199,-458 193,-458"/>
<text text-anchor="middle" x="123" y="-440.8" font-family="Noto Sans CJK KR" font-size="14.00" fill="#182033">Execute PeriodicEffect</text>
<text text-anchor="middle" x="123" y="-425.8" font-family="Noto Sans CJK KR" font-size="14.00" fill="#182033">DoT / HoT / aura pulse</text>
</g>
<!-- context&#45;&gt;execute -->
<g id="edge5" class="edge">
<title>context&#45;&gt;execute</title>
<path fill="none" stroke="#59687e" stroke-width="1.3" d="M123,-508.74C123,-508.74 123,-466.21 123,-466.21"/>
<polygon fill="#59687e" stroke="#59687e" stroke-width="1.3" points="125.8,-466.21 123,-458.21 120.2,-466.21 125.8,-466.21"/>
</g>
<!-- update -->
<g id="node6" class="node">
<title>update</title>
<path fill="#ffffff" stroke="#bac7db" stroke-width="1.4" d="M204,-351C204,-351 32,-351 32,-351 26,-351 20,-345 20,-339 20,-339 20,-321 20,-321 20,-315 26,-309 32,-309 32,-309 204,-309 204,-309 210,-309 216,-315 216,-321 216,-321 216,-339 216,-339 216,-345 210,-351 204,-351"/>
<text text-anchor="middle" x="118" y="-333.8" font-family="Noto Sans CJK KR" font-size="14.00" fill="#182033">Update remaining duration</text>
<text text-anchor="middle" x="118" y="-318.8" font-family="Noto Sans CJK KR" font-size="14.00" fill="#182033">advance nextTickTime</text>
</g>
<!-- execute&#45;&gt;update -->
<g id="edge6" class="edge">
<title>execute&#45;&gt;update</title>
<path fill="none" stroke="#59687e" stroke-width="1.3" d="M123,-415.86C123,-415.86 123,-359.1 123,-359.1"/>
<polygon fill="#59687e" stroke="#59687e" stroke-width="1.3" points="125.8,-359.1 123,-351.1 120.2,-359.1 125.8,-359.1"/>
</g>
<!-- expire -->
<g id="node7" class="node">
<title>expire</title>
<path fill="#ffffff" stroke="#bac7db" stroke-width="1.4" d="M106.69,-253.98C106.69,-253.98 53.31,-235.02 53.31,-235.02 47.65,-233.01 47.65,-228.99 53.31,-226.98 53.31,-226.98 106.69,-208.02 106.69,-208.02 112.35,-206.01 123.65,-206.01 129.31,-208.02 129.31,-208.02 182.69,-226.98 182.69,-226.98 188.35,-228.99 188.35,-233.01 182.69,-235.02 182.69,-235.02 129.31,-253.98 129.31,-253.98 123.65,-255.99 112.35,-255.99 106.69,-253.98"/>
<text text-anchor="middle" x="118" y="-227.3" font-family="Noto Sans CJK KR" font-size="14.00" fill="#182033">Expired?</text>
</g>
<!-- update&#45;&gt;expire -->
<g id="edge7" class="edge">
<title>update&#45;&gt;expire</title>
<path fill="none" stroke="#59687e" stroke-width="1.3" d="M118,-308.52C118,-308.52 118,-266.11 118,-266.11"/>
<polygon fill="#59687e" stroke="#59687e" stroke-width="1.3" points="120.8,-266.11 118,-258.11 115.2,-266.11 120.8,-266.11"/>
</g>
<!-- schedule -->
<g id="node8" class="node">
<title>schedule</title>
<path fill="#ffffff" stroke="#bac7db" stroke-width="1.4" d="M126,-128.5C126,-128.5 12,-128.5 12,-128.5 6,-128.5 0,-122.5 0,-116.5 0,-116.5 0,-104.5 0,-104.5 0,-98.5 6,-92.5 12,-92.5 12,-92.5 126,-92.5 126,-92.5 132,-92.5 138,-98.5 138,-104.5 138,-104.5 138,-116.5 138,-116.5 138,-122.5 132,-128.5 126,-128.5"/>
<text text-anchor="middle" x="69" y="-106.8" font-family="Noto Sans CJK KR" font-size="14.00" fill="#182033">Schedule next tick</text>
</g>
<!-- expire&#45;&gt;schedule -->
<g id="edge8" class="edge">
<title>expire&#45;&gt;schedule</title>
<path fill="none" stroke="#59687e" stroke-width="1.3" d="M90,-213.74C90,-213.74 90,-136.52 90,-136.52"/>
<polygon fill="#59687e" stroke="#59687e" stroke-width="1.3" points="92.8,-136.52 90,-128.52 87.2,-136.52 92.8,-136.52"/>
<text text-anchor="middle" x="102.5" y="-167.8" font-family="Noto Sans CJK KR" font-size="14.00" fill="#46566e">no</text>
</g>
<!-- expire&#45;&gt;remove -->
<g id="edge10" class="edge">
<title>expire&#45;&gt;remove</title>
<path fill="none" stroke="#59687e" stroke-width="1.3" d="M184,-227.26C184,-227.26 184,-147.03 184,-147.03"/>
<polygon fill="#59687e" stroke="#59687e" stroke-width="1.3" points="186.8,-147.03 184,-139.03 181.2,-147.03 186.8,-147.03"/>
<text text-anchor="middle" x="200" y="-167.8" font-family="Noto Sans CJK KR" font-size="14.00" fill="#46566e">yes</text>
</g>
<!-- end -->
<g id="node10" class="node">
<title>end</title>
<ellipse fill="#ffffff" stroke="#182033" stroke-width="1.4" cx="169" cy="-15.5" rx="11.5" ry="11.5"/>
<ellipse fill="none" stroke="#182033" stroke-width="1.4" cx="169" cy="-15.5" rx="15.5" ry="15.5"/>
</g>
<!-- schedule&#45;&gt;end -->
<g id="edge9" class="edge">
<title>schedule&#45;&gt;end</title>
<path fill="none" stroke="#59687e" stroke-width="1.3" d="M138.36,-110C152.81,-110 163.75,-110 163.75,-110 163.75,-110 163.75,-38.27 163.75,-38.27"/>
<polygon fill="#59687e" stroke="#59687e" stroke-width="1.3" points="166.55,-38.27 163.75,-30.27 160.95,-38.27 166.55,-38.27"/>
</g>
<!-- remove&#45;&gt;end -->
<g id="edge11" class="edge">
<title>remove&#45;&gt;end</title>
<path fill="none" stroke="#59687e" stroke-width="1.3" d="M179.25,-82C179.25,-82 179.25,-35.16 179.25,-35.16"/>
<polygon fill="#59687e" stroke="#59687e" stroke-width="1.3" points="182.05,-35.16 179.25,-27.16 176.45,-35.16 182.05,-35.16"/>
</g>
</g>
</svg>
