<?xml version="1.0" encoding="UTF-8" standalone="no"?>
<!DOCTYPE svg PUBLIC "-//W3C//DTD SVG 1.1//EN"
 "http://www.w3.org/Graphics/SVG/1.1/DTD/svg11.dtd">
<!-- Generated by graphviz version 15.0.0 (20260523.1842)
 -->
<!-- Title: G Pages: 1 -->
<svg width="980pt" height="1568pt"
 viewBox="9.00 9.00 972.00 1559.00" xmlns="http://www.w3.org/2000/svg" xmlns:xlink="http://www.w3.org/1999/xlink">
<g id="graph0" class="graph" transform="scale(1 1) rotate(0) translate(26.64 1541)">
<title>G</title>
<polygon fill="#ffffff" stroke="none" points="-18,18 -18,-1532.36 944.97,-1532.36 944.97,18 -18,18"/>
<!-- start -->
<g id="node1" class="node">
<title>start</title>
<ellipse fill="#182033" stroke="#182033" stroke-width="1.4" cx="500.43" cy="-1504.28" rx="10.08" ry="10.08"/>
</g>
<!-- due -->
<g id="node2" class="node">
<title>due</title>
<path fill="#ffffff" stroke="#bac7db" stroke-width="1.4" d="M564.98,-1445.2C564.98,-1445.2 435.87,-1445.2 435.87,-1445.2 429.87,-1445.2 423.87,-1439.2 423.87,-1433.2 423.87,-1433.2 423.87,-1421.2 423.87,-1421.2 423.87,-1415.2 429.87,-1409.2 435.87,-1409.2 435.87,-1409.2 564.98,-1409.2 564.98,-1409.2 570.98,-1409.2 576.98,-1415.2 576.98,-1421.2 576.98,-1421.2 576.98,-1433.2 576.98,-1433.2 576.98,-1439.2 570.98,-1445.2 564.98,-1445.2"/>
<text xml:space="preserve" text-anchor="middle" x="500.43" y="-1423" font-family="Noto Sans CJK KR" font-size="14.00" fill="#182033">Simulation tick reached</text>
</g>
<!-- start&#45;&gt;due -->
<g id="edge1" class="edge">
<title>start&#45;&gt;due</title>
<path fill="none" stroke="#59687e" stroke-width="1.3" d="M500.43,-1493.56C500.43,-1493.56 500.43,-1455.8 500.43,-1455.8"/>
<polygon fill="#59687e" stroke="#59687e" stroke-width="1.3" points="503.23,-1455.8 500.43,-1447.8 497.63,-1455.8 503.23,-1455.8"/>
</g>
<!-- active -->
<g id="node3" class="node">
<title>active</title>
<path fill="#ffffff" stroke="#bac7db" stroke-width="1.4" d="M488.61,-1358.11C488.61,-1358.11 343.57,-1332.53 343.57,-1332.53 337.66,-1331.48 337.66,-1329.4 343.57,-1328.35 343.57,-1328.35 488.61,-1302.77 488.61,-1302.77 494.52,-1301.72 506.33,-1301.72 512.24,-1302.77 512.24,-1302.77 657.28,-1328.35 657.28,-1328.35 663.19,-1329.4 663.19,-1331.48 657.28,-1332.53 657.28,-1332.53 512.24,-1358.11 512.24,-1358.11 506.33,-1359.16 494.52,-1359.16 488.61,-1358.11"/>
<text xml:space="preserve" text-anchor="middle" x="500.43" y="-1326.24" font-family="Noto Sans CJK KR" font-size="14.00" fill="#182033">StatusInstance still active?</text>
</g>
<!-- due&#45;&gt;active -->
<g id="edge2" class="edge">
<title>due&#45;&gt;active</title>
<path fill="none" stroke="#59687e" stroke-width="1.3" d="M500.43,-1408.54C500.43,-1408.54 500.43,-1370.81 500.43,-1370.81"/>
<polygon fill="#59687e" stroke="#59687e" stroke-width="1.3" points="503.23,-1370.81 500.43,-1362.81 497.63,-1370.81 503.23,-1370.81"/>
</g>
<!-- cap -->
<g id="node4" class="node">
<title>cap</title>
<path fill="#ffffff" stroke="#bac7db" stroke-width="1.4" d="M385.03,-1232.11C385.03,-1232.11 267.15,-1193.09 267.15,-1193.09 261.45,-1191.21 261.45,-1187.43 267.15,-1185.55 267.15,-1185.55 385.03,-1146.53 385.03,-1146.53 390.73,-1144.65 402.12,-1144.65 407.82,-1146.53 407.82,-1146.53 525.7,-1185.55 525.7,-1185.55 531.4,-1187.43 531.4,-1191.21 525.7,-1193.09 525.7,-1193.09 407.82,-1232.11 407.82,-1232.11 402.12,-1233.99 390.73,-1233.99 385.03,-1232.11"/>
<text xml:space="preserve" text-anchor="middle" x="396.43" y="-1193.52" font-family="Noto Sans CJK KR" font-size="14.00" fill="#182033">catch&#45;up count below</text>
<text xml:space="preserve" text-anchor="middle" x="396.43" y="-1176.72" font-family="Noto Sans CJK KR" font-size="14.00" fill="#182033">MaxCatchUpTicks?</text>
</g>
<!-- active&#45;&gt;cap -->
<g id="edge6" class="edge">
<title>active&#45;&gt;cap</title>
<path fill="none" stroke="#59687e" stroke-width="1.3" d="M434.43,-1311.7C434.43,-1311.7 434.43,-1233.84 434.43,-1233.84"/>
<polygon fill="#59687e" stroke="#59687e" stroke-width="1.3" points="437.23,-1233.84 434.43,-1225.84 431.63,-1233.84 437.23,-1233.84"/>
<text xml:space="preserve" text-anchor="middle" x="479.76" y="-1264.08" font-family="Noto Sans CJK KR" font-size="14.00" fill="#46566e">yes</text>
</g>
<!-- removePlan -->
<g id="node16" class="node">
<title>removePlan</title>
<path fill="#ffffff" stroke="#bac7db" stroke-width="1.4" d="M837.63,-1118.76C837.63,-1118.76 591.22,-1118.76 591.22,-1118.76 585.22,-1118.76 579.22,-1112.76 579.22,-1106.76 579.22,-1106.76 579.22,-1084.2 579.22,-1084.2 579.22,-1078.2 585.22,-1072.2 591.22,-1072.2 591.22,-1072.2 837.63,-1072.2 837.63,-1072.2 843.63,-1072.2 849.63,-1078.2 849.63,-1084.2 849.63,-1084.2 849.63,-1106.76 849.63,-1106.76 849.63,-1112.76 843.63,-1118.76 837.63,-1118.76"/>
<text xml:space="preserve" text-anchor="middle" x="714.43" y="-1099.68" font-family="Noto Sans CJK KR" font-size="14.00" fill="#182033">Build normal expiry removal plan</text>
<text xml:space="preserve" text-anchor="middle" x="714.43" y="-1082.88" font-family="Noto Sans CJK KR" font-size="14.00" fill="#182033">modifiers + instance + StatusExpired outbox</text>
</g>
<!-- active&#45;&gt;removePlan -->
<g id="edge3" class="edge">
<title>active&#45;&gt;removePlan</title>
<path fill="none" stroke="#59687e" stroke-width="1.3" d="M624.16,-1322.08C624.16,-1322.08 624.16,-1129.31 624.16,-1129.31"/>
<polygon fill="#59687e" stroke="#59687e" stroke-width="1.3" points="626.96,-1129.31 624.16,-1121.31 621.36,-1129.31 626.96,-1129.31"/>
<text xml:space="preserve" text-anchor="middle" x="605.43" y="-1264.08" font-family="Noto Sans CJK KR" font-size="14.00" fill="#46566e">no</text>
</g>
<!-- capExpired -->
<g id="node5" class="node">
<title>capExpired</title>
<path fill="#ffffff" stroke="#bac7db" stroke-width="1.4" d="M188.73,-1043.6C188.73,-1043.6 82.08,-1019.2 82.08,-1019.2 76.23,-1017.86 76.23,-1015.18 82.08,-1013.84 82.08,-1013.84 188.73,-989.44 188.73,-989.44 194.58,-988.1 206.27,-988.1 212.12,-989.44 212.12,-989.44 318.77,-1013.84 318.77,-1013.84 324.62,-1015.18 324.62,-1017.86 318.77,-1019.2 318.77,-1019.2 212.12,-1043.6 212.12,-1043.6 206.27,-1044.94 194.58,-1044.94 188.73,-1043.6"/>
<text xml:space="preserve" text-anchor="middle" x="200.43" y="-1012.32" font-family="Noto Sans CJK KR" font-size="14.00" fill="#182033">ExpiresAt &lt;= now?</text>
</g>
<!-- cap&#45;&gt;capExpired -->
<g id="edge7" class="edge">
<title>cap&#45;&gt;capExpired</title>
<path fill="none" stroke="#59687e" stroke-width="1.3" d="M293.11,-1176.33C293.11,-1176.33 293.11,-1035.67 293.11,-1035.67"/>
<polygon fill="#59687e" stroke="#59687e" stroke-width="1.3" points="295.91,-1035.67 293.11,-1027.67 290.31,-1035.67 295.91,-1035.67"/>
<text xml:space="preserve" text-anchor="middle" x="281.43" y="-1091.28" font-family="Noto Sans CJK KR" font-size="14.00" fill="#46566e">no</text>
</g>
<!-- context -->
<g id="node8" class="node">
<title>context</title>
<path fill="#ffffff" stroke="#bac7db" stroke-width="1.4" d="M647.78,-1048.2C647.78,-1048.2 459.07,-1048.2 459.07,-1048.2 453.07,-1048.2 447.07,-1042.2 447.07,-1036.2 447.07,-1036.2 447.07,-996.84 447.07,-996.84 447.07,-990.84 453.07,-984.84 459.07,-984.84 459.07,-984.84 647.78,-984.84 647.78,-984.84 653.78,-984.84 659.78,-990.84 659.78,-996.84 659.78,-996.84 659.78,-1036.2 659.78,-1036.2 659.78,-1042.2 653.78,-1048.2 647.78,-1048.2"/>
<text xml:space="preserve" text-anchor="middle" x="553.43" y="-1029.12" font-family="Noto Sans CJK KR" font-size="14.00" fill="#182033">Build EffectContext</text>
<text xml:space="preserve" text-anchor="middle" x="553.43" y="-1012.32" font-family="Noto Sans CJK KR" font-size="14.00" fill="#182033">SourceRef + StatusInstanceId</text>
<text xml:space="preserve" text-anchor="middle" x="553.43" y="-995.52" font-family="Noto Sans CJK KR" font-size="14.00" fill="#182033">TargetId = owner · stack included</text>
</g>
<!-- cap&#45;&gt;context -->
<g id="edge12" class="edge">
<title>cap&#45;&gt;context</title>
<path fill="none" stroke="#59687e" stroke-width="1.3" d="M492.08,-1173.99C492.08,-1173.99 492.08,-1058.68 492.08,-1058.68"/>
<polygon fill="#59687e" stroke="#59687e" stroke-width="1.3" points="494.88,-1058.68 492.08,-1050.68 489.28,-1058.68 494.88,-1058.68"/>
<text xml:space="preserve" text-anchor="middle" x="518.76" y="-1091.28" font-family="Noto Sans CJK KR" font-size="14.00" fill="#46566e">yes</text>
</g>
<!-- limitedPlan -->
<g id="node6" class="node">
<title>limitedPlan</title>
<path fill="#ffffff" stroke="#bac7db" stroke-width="1.4" d="M318.27,-920.04C318.27,-920.04 176.58,-920.04 176.58,-920.04 170.58,-920.04 164.58,-914.04 164.58,-908.04 164.58,-908.04 164.58,-868.68 164.58,-868.68 164.58,-862.68 170.58,-856.68 176.58,-856.68 176.58,-856.68 318.27,-856.68 318.27,-856.68 324.27,-856.68 330.27,-862.68 330.27,-868.68 330.27,-868.68 330.27,-908.04 330.27,-908.04 330.27,-914.04 324.27,-920.04 318.27,-920.04"/>
<text xml:space="preserve" text-anchor="middle" x="247.43" y="-900.96" font-family="Noto Sans CJK KR" font-size="14.00" fill="#182033">Build removal plan</text>
<text xml:space="preserve" text-anchor="middle" x="247.43" y="-884.16" font-family="Noto Sans CJK KR" font-size="14.00" fill="#182033">reason = CatchUpLimited</text>
<text xml:space="preserve" text-anchor="middle" x="247.43" y="-867.36" font-family="Noto Sans CJK KR" font-size="14.00" fill="#182033">trace dropped ticks</text>
</g>
<!-- capExpired&#45;&gt;limitedPlan -->
<g id="edge8" class="edge">
<title>capExpired&#45;&gt;limitedPlan</title>
<path fill="none" stroke="#59687e" stroke-width="1.3" d="M247.43,-997.06C247.43,-997.06 247.43,-930.46 247.43,-930.46"/>
<polygon fill="#59687e" stroke="#59687e" stroke-width="1.3" points="250.23,-930.46 247.43,-922.46 244.63,-930.46 250.23,-930.46"/>
<text xml:space="preserve" text-anchor="middle" x="233.76" y="-948.24" font-family="Noto Sans CJK KR" font-size="14.00" fill="#46566e">yes</text>
</g>
<!-- defer -->
<g id="node7" class="node">
<title>defer</title>
<path fill="#ffffff" stroke="#bac7db" stroke-width="1.4" d="M246.85,-832.68C246.85,-832.68 12,-832.68 12,-832.68 6,-832.68 0,-826.68 0,-820.68 0,-820.68 0,-798.12 0,-798.12 0,-792.12 6,-786.12 12,-786.12 12,-786.12 246.85,-786.12 246.85,-786.12 252.85,-786.12 258.85,-792.12 258.85,-798.12 258.85,-798.12 258.85,-820.68 258.85,-820.68 258.85,-826.68 252.85,-832.68 246.85,-832.68"/>
<text xml:space="preserve" text-anchor="middle" x="129.43" y="-813.6" font-family="Noto Sans CJK KR" font-size="14.00" fill="#182033">Leave overdue tick for next advance</text>
<text xml:space="preserve" text-anchor="middle" x="129.43" y="-796.8" font-family="Noto Sans CJK KR" font-size="14.00" fill="#182033">trace deferred count · no domain mutation</text>
</g>
<!-- capExpired&#45;&gt;defer -->
<g id="edge10" class="edge">
<title>capExpired&#45;&gt;defer</title>
<path fill="none" stroke="#59687e" stroke-width="1.3" d="M117.48,-1005.09C117.48,-1005.09 117.48,-843.14 117.48,-843.14"/>
<polygon fill="#59687e" stroke="#59687e" stroke-width="1.3" points="120.28,-843.14 117.48,-835.14 114.68,-843.14 120.28,-843.14"/>
<text xml:space="preserve" text-anchor="middle" x="116.43" y="-948.24" font-family="Noto Sans CJK KR" font-size="14.00" fill="#46566e">no</text>
</g>
<!-- removalCommit -->
<g id="node17" class="node">
<title>removalCommit</title>
<path fill="#eefbf6" stroke="#61b99a" stroke-width="1.4" d="M637.83,-753.72C637.83,-753.72 465.02,-753.72 465.02,-753.72 459.02,-753.72 453.02,-747.72 453.02,-741.72 453.02,-741.72 453.02,-719.16 453.02,-719.16 453.02,-713.16 459.02,-707.16 465.02,-707.16 465.02,-707.16 637.83,-707.16 637.83,-707.16 643.83,-707.16 649.83,-713.16 649.83,-719.16 649.83,-719.16 649.83,-741.72 649.83,-741.72 649.83,-747.72 643.83,-753.72 637.83,-753.72"/>
<text xml:space="preserve" text-anchor="middle" x="551.43" y="-734.64" font-family="Noto Sans CJK KR" font-size="14.00" fill="#182033">RuntimeCommitter.Commit</text>
<text xml:space="preserve" text-anchor="middle" x="551.43" y="-717.84" font-family="Noto Sans CJK KR" font-size="14.00" fill="#182033">status removal + outbox atomic</text>
</g>
<!-- limitedPlan&#45;&gt;removalCommit -->
<g id="edge9" class="edge">
<title>limitedPlan&#45;&gt;removalCommit</title>
<path fill="none" stroke="#59687e" stroke-width="1.3" d="M294.56,-856.31C294.56,-810.04 294.56,-730 294.56,-730 294.56,-730 442.51,-730 442.51,-730"/>
<polygon fill="#59687e" stroke="#59687e" stroke-width="1.3" points="442.51,-732.8 450.51,-730 442.51,-727.2 442.51,-732.8"/>
</g>
<!-- end -->
<g id="node19" class="node">
<title>end</title>
<ellipse fill="#ffffff" stroke="#182033" stroke-width="1.4" cx="571.43" cy="-15.52" rx="11.52" ry="11.52"/>
<ellipse fill="none" stroke="#182033" stroke-width="1.4" cx="571.43" cy="-15.52" rx="15.52" ry="15.52"/>
</g>
<!-- defer&#45;&gt;end -->
<g id="edge11" class="edge">
<title>defer&#45;&gt;end</title>
<path fill="none" stroke="#59687e" stroke-width="1.3" d="M127.83,-785.66C127.83,-653.64 127.83,-16 127.83,-16 127.83,-16 545.41,-16 545.41,-16"/>
<polygon fill="#59687e" stroke="#59687e" stroke-width="1.3" points="545.41,-18.8 553.41,-16 545.41,-13.2 545.41,-18.8"/>
</g>
<!-- resolve -->
<g id="node9" class="node">
<title>resolve</title>
<path fill="#eaf0ff" stroke="#8292f7" stroke-width="1.4" d="M694.35,-911.64C694.35,-911.64 452.5,-911.64 452.5,-911.64 446.5,-911.64 440.5,-905.64 440.5,-899.64 440.5,-899.64 440.5,-877.08 440.5,-877.08 440.5,-871.08 446.5,-865.08 452.5,-865.08 452.5,-865.08 694.35,-865.08 694.35,-865.08 700.35,-865.08 706.35,-871.08 706.35,-877.08 706.35,-877.08 706.35,-899.64 706.35,-899.64 706.35,-905.64 700.35,-911.64 694.35,-911.64"/>
<text xml:space="preserve" text-anchor="middle" x="573.43" y="-892.56" font-family="Noto Sans CJK KR" font-size="14.00" fill="#182033">DamageEffect → ICombatResolver.Resolve</text>
<text xml:space="preserve" text-anchor="middle" x="573.43" y="-875.76" font-family="Noto Sans CJK KR" font-size="14.00" fill="#182033">pure DamageResult · no mutation/event</text>
</g>
<!-- context&#45;&gt;resolve -->
<g id="edge13" class="edge">
<title>context&#45;&gt;resolve</title>
<path fill="none" stroke="#59687e" stroke-width="1.3" d="M553.43,-984.18C553.43,-984.18 553.43,-922.16 553.43,-922.16"/>
<polygon fill="#59687e" stroke="#59687e" stroke-width="1.3" points="556.23,-922.16 553.43,-914.16 550.63,-922.16 556.23,-922.16"/>
</g>
<!-- tickPlan -->
<g id="node10" class="node">
<title>tickPlan</title>
<path fill="#fff7e6" stroke="#e0ad4e" stroke-width="1.4" d="M897.44,-762.12C897.44,-762.12 697.41,-762.12 697.41,-762.12 691.41,-762.12 685.41,-756.12 685.41,-750.12 685.41,-750.12 685.41,-710.76 685.41,-710.76 685.41,-704.76 691.41,-698.76 697.41,-698.76 697.41,-698.76 897.44,-698.76 897.44,-698.76 903.44,-698.76 909.44,-704.76 909.44,-710.76 909.44,-710.76 909.44,-750.12 909.44,-750.12 909.44,-756.12 903.44,-762.12 897.44,-762.12"/>
<text xml:space="preserve" text-anchor="middle" x="797.43" y="-743.04" font-family="Noto Sans CJK KR" font-size="14.00" fill="#182033">Build one Tick CommitPlan</text>
<text xml:space="preserve" text-anchor="middle" x="797.43" y="-726.24" font-family="Noto Sans CJK KR" font-size="14.00" fill="#182033">Shield/HP + NextTickAt or removal</text>
<text xml:space="preserve" text-anchor="middle" x="797.43" y="-709.44" font-family="Noto Sans CJK KR" font-size="14.00" fill="#182033">Damage/Status outbox facts</text>
</g>
<!-- resolve&#45;&gt;tickPlan -->
<g id="edge14" class="edge">
<title>resolve&#45;&gt;tickPlan</title>
<path fill="none" stroke="#59687e" stroke-width="1.3" d="M695.88,-864.72C695.88,-864.72 695.88,-772.71 695.88,-772.71"/>
<polygon fill="#59687e" stroke="#59687e" stroke-width="1.3" points="698.68,-772.71 695.88,-764.71 693.08,-772.71 698.68,-772.71"/>
</g>
<!-- commit -->
<g id="node11" class="node">
<title>commit</title>
<path fill="#eefbf6" stroke="#61b99a" stroke-width="1.4" d="M900.16,-633.96C900.16,-633.96 694.69,-633.96 694.69,-633.96 688.69,-633.96 682.69,-627.96 682.69,-621.96 682.69,-621.96 682.69,-599.4 682.69,-599.4 682.69,-593.4 688.69,-587.4 694.69,-587.4 694.69,-587.4 900.16,-587.4 900.16,-587.4 906.16,-587.4 912.16,-593.4 912.16,-599.4 912.16,-599.4 912.16,-621.96 912.16,-621.96 912.16,-627.96 906.16,-633.96 900.16,-633.96"/>
<text xml:space="preserve" text-anchor="middle" x="797.43" y="-614.88" font-family="Noto Sans CJK KR" font-size="14.00" fill="#182033">RuntimeCommitter.Commit once</text>
<text xml:space="preserve" text-anchor="middle" x="797.43" y="-598.08" font-family="Noto Sans CJK KR" font-size="14.00" fill="#182033">versions · invariants · state + outbox</text>
</g>
<!-- tickPlan&#45;&gt;commit -->
<g id="edge15" class="edge">
<title>tickPlan&#45;&gt;commit</title>
<path fill="none" stroke="#59687e" stroke-width="1.3" d="M797.43,-698.35C797.43,-698.35 797.43,-644.47 797.43,-644.47"/>
<polygon fill="#59687e" stroke="#59687e" stroke-width="1.3" points="800.23,-644.47 797.43,-636.47 794.63,-644.47 800.23,-644.47"/>
</g>
<!-- facts -->
<g id="node12" class="node">
<title>facts</title>
<path fill="#e9fbff" stroke="#54b7cf" stroke-width="1.4" d="M694.87,-522.6C694.87,-522.6 501.98,-522.6 501.98,-522.6 495.98,-522.6 489.98,-516.6 489.98,-510.6 489.98,-510.6 489.98,-471.24 489.98,-471.24 489.98,-465.24 495.98,-459.24 501.98,-459.24 501.98,-459.24 694.87,-459.24 694.87,-459.24 700.87,-459.24 706.87,-465.24 706.87,-471.24 706.87,-471.24 706.87,-510.6 706.87,-510.6 706.87,-516.6 700.87,-522.6 694.87,-522.6"/>
<text xml:space="preserve" text-anchor="middle" x="598.43" y="-503.52" font-family="Noto Sans CJK KR" font-size="14.00" fill="#182033">Committed facts dispatch</text>
<text xml:space="preserve" text-anchor="middle" x="598.43" y="-486.72" font-family="Noto Sans CJK KR" font-size="14.00" fill="#182033">DamageCommitted · StatusTicked</text>
<text xml:space="preserve" text-anchor="middle" x="598.43" y="-469.92" font-family="Noto Sans CJK KR" font-size="14.00" fill="#182033">StatusExpired when terminal</text>
</g>
<!-- commit&#45;&gt;facts -->
<g id="edge18" class="edge">
<title>commit&#45;&gt;facts</title>
<path fill="none" stroke="#59687e" stroke-width="1.3" d="M694.78,-586.73C694.78,-586.73 694.78,-532.96 694.78,-532.96"/>
<polygon fill="#59687e" stroke="#59687e" stroke-width="1.3" points="697.58,-532.96 694.78,-524.96 691.98,-532.96 697.58,-532.96"/>
<text xml:space="preserve" text-anchor="middle" x="714.42" y="-550.8" font-family="Noto Sans CJK KR" font-size="14.00" fill="#46566e">success</text>
</g>
<!-- reject -->
<g id="node18" class="node">
<title>reject</title>
<path fill="#fff0f3" stroke="#e07b91" stroke-width="1.4" d="M914.97,-435.24C914.97,-435.24 699.88,-435.24 699.88,-435.24 693.88,-435.24 687.88,-429.24 687.88,-423.24 687.88,-423.24 687.88,-400.68 687.88,-400.68 687.88,-394.68 693.88,-388.68 699.88,-388.68 699.88,-388.68 914.97,-388.68 914.97,-388.68 920.97,-388.68 926.97,-394.68 926.97,-400.68 926.97,-400.68 926.97,-423.24 926.97,-423.24 926.97,-429.24 920.97,-435.24 914.97,-435.24"/>
<text xml:space="preserve" text-anchor="middle" x="807.43" y="-416.16" font-family="Noto Sans CJK KR" font-size="14.00" fill="#182033">Commit rejected</text>
<text xml:space="preserve" text-anchor="middle" x="807.43" y="-399.36" font-family="Noto Sans CJK KR" font-size="14.00" fill="#182033">no HP/Shield/time mutation · no event</text>
</g>
<!-- commit&#45;&gt;reject -->
<g id="edge16" class="edge">
<title>commit&#45;&gt;reject</title>
<path fill="none" stroke="#dc2626" stroke-width="1.3" stroke-dasharray="5,2" d="M809.52,-586.71C809.52,-586.71 809.52,-445.67 809.52,-445.67"/>
<polygon fill="#dc2626" stroke="#dc2626" stroke-width="1.3" points="812.32,-445.67 809.52,-437.67 806.72,-445.67 812.32,-445.67"/>
<text xml:space="preserve" text-anchor="middle" x="813.75" y="-550.8" font-family="Noto Sans CJK KR" font-size="14.00" fill="#dc2626">fail</text>
</g>
<!-- remains -->
<g id="node13" class="node">
<title>remains</title>
<path fill="#ffffff" stroke="#bac7db" stroke-width="1.4" d="M586.63,-362.46C586.63,-362.46 452.46,-337.14 452.46,-337.14 446.57,-336.03 446.57,-333.81 452.46,-332.7 452.46,-332.7 586.63,-307.38 586.63,-307.38 592.53,-306.27 604.32,-306.27 610.22,-307.38 610.22,-307.38 744.39,-332.7 744.39,-332.7 750.28,-333.81 750.28,-336.03 744.39,-337.14 744.39,-337.14 610.22,-362.46 610.22,-362.46 604.32,-363.57 592.53,-363.57 586.63,-362.46"/>
<text xml:space="preserve" text-anchor="middle" x="598.43" y="-330.72" font-family="Noto Sans CJK KR" font-size="14.00" fill="#182033">Instance remains active?</text>
</g>
<!-- facts&#45;&gt;remains -->
<g id="edge19" class="edge">
<title>facts&#45;&gt;remains</title>
<path fill="none" stroke="#59687e" stroke-width="1.3" d="M588.93,-458.6C588.93,-458.6 588.93,-373.5 588.93,-373.5"/>
<polygon fill="#59687e" stroke="#59687e" stroke-width="1.3" points="591.73,-373.5 588.93,-365.5 586.13,-373.5 591.73,-373.5"/>
</g>
<!-- backlog -->
<g id="node14" class="node">
<title>backlog</title>
<path fill="#ffffff" stroke="#bac7db" stroke-width="1.4" d="M387.67,-237.93C387.67,-237.93 267.4,-213.03 267.4,-213.03 261.53,-211.82 261.53,-209.38 267.4,-208.17 267.4,-208.17 387.67,-183.27 387.67,-183.27 393.55,-182.06 405.3,-182.06 411.18,-183.27 411.18,-183.27 531.45,-208.17 531.45,-208.17 537.32,-209.38 537.32,-211.82 531.45,-213.03 531.45,-213.03 411.18,-237.93 411.18,-237.93 405.3,-239.14 393.55,-239.14 387.67,-237.93"/>
<text xml:space="preserve" text-anchor="middle" x="399.43" y="-206.4" font-family="Noto Sans CJK KR" font-size="14.00" fill="#182033">overdue tick remains?</text>
</g>
<!-- remains&#45;&gt;backlog -->
<g id="edge21" class="edge">
<title>remains&#45;&gt;backlog</title>
<path fill="none" stroke="#59687e" stroke-width="1.3" d="M491.94,-324.75C491.94,-324.75 491.94,-231.59 491.94,-231.59"/>
<polygon fill="#59687e" stroke="#59687e" stroke-width="1.3" points="494.74,-231.59 491.94,-223.59 489.14,-231.59 494.74,-231.59"/>
<text xml:space="preserve" text-anchor="middle" x="509.76" y="-268.56" font-family="Noto Sans CJK KR" font-size="14.00" fill="#46566e">yes</text>
</g>
<!-- remains&#45;&gt;end -->
<g id="edge20" class="edge">
<title>remains&#45;&gt;end</title>
<path fill="none" stroke="#59687e" stroke-width="1.3" d="M576.6,-308.78C576.6,-308.78 576.6,-40.71 576.6,-40.71"/>
<polygon fill="#59687e" stroke="#59687e" stroke-width="1.3" points="579.4,-40.71 576.6,-32.71 573.8,-40.71 579.4,-40.71"/>
<text xml:space="preserve" text-anchor="middle" x="605.43" y="-144.24" font-family="Noto Sans CJK KR" font-size="14.00" fill="#46566e">no</text>
</g>
<!-- backlog&#45;&gt;cap -->
<g id="edge22" class="edge">
<title>backlog&#45;&gt;cap</title>
<path fill="none" stroke="#59687e" stroke-width="1.3" d="M385.48,-238.06C385.48,-238.06 385.48,-1135.73 385.48,-1135.73"/>
<polygon fill="#59687e" stroke="#59687e" stroke-width="1.3" points="382.68,-1135.73 385.48,-1143.73 388.28,-1135.73 382.68,-1135.73"/>
<text xml:space="preserve" text-anchor="middle" x="394.76" y="-662.16" font-family="Noto Sans CJK KR" font-size="14.00" fill="#46566e">yes</text>
</g>
<!-- schedule -->
<g id="node15" class="node">
<title>schedule</title>
<path fill="#ffffff" stroke="#bac7db" stroke-width="1.4" d="M515.06,-116.04C515.06,-116.04 377.79,-116.04 377.79,-116.04 371.79,-116.04 365.79,-110.04 365.79,-104.04 365.79,-104.04 365.79,-92.04 365.79,-92.04 365.79,-86.04 371.79,-80.04 377.79,-80.04 377.79,-80.04 515.06,-80.04 515.06,-80.04 521.06,-80.04 527.06,-86.04 527.06,-92.04 527.06,-92.04 527.06,-104.04 527.06,-104.04 527.06,-110.04 521.06,-116.04 515.06,-116.04"/>
<text xml:space="preserve" text-anchor="middle" x="446.43" y="-93.84" font-family="Noto Sans CJK KR" font-size="14.00" fill="#182033">Keep next tick scheduled</text>
</g>
<!-- backlog&#45;&gt;schedule -->
<g id="edge23" class="edge">
<title>backlog&#45;&gt;schedule</title>
<path fill="none" stroke="#59687e" stroke-width="1.3" d="M446.43,-189.95C446.43,-189.95 446.43,-126.65 446.43,-126.65"/>
<polygon fill="#59687e" stroke="#59687e" stroke-width="1.3" points="449.23,-126.65 446.43,-118.65 443.63,-126.65 449.23,-126.65"/>
<text xml:space="preserve" text-anchor="middle" x="422.43" y="-144.24" font-family="Noto Sans CJK KR" font-size="14.00" fill="#46566e">no</text>
</g>
<!-- schedule&#45;&gt;end -->
<g id="edge24" class="edge">
<title>schedule&#45;&gt;end</title>
<path fill="none" stroke="#59687e" stroke-width="1.3" d="M527.68,-98C549.05,-98 566.25,-98 566.25,-98 566.25,-98 566.25,-40.62 566.25,-40.62"/>
<polygon fill="#59687e" stroke="#59687e" stroke-width="1.3" points="569.05,-40.62 566.25,-32.62 563.45,-40.62 569.05,-40.62"/>
</g>
<!-- removePlan&#45;&gt;removalCommit -->
<g id="edge4" class="edge">
<title>removePlan&#45;&gt;removalCommit</title>
<path fill="none" stroke="#59687e" stroke-width="1.3" d="M777.99,-1071.71C777.99,-1012.09 777.99,-861 777.99,-861 777.99,-861 551.43,-861 551.43,-861 551.43,-861 551.43,-764.35 551.43,-764.35"/>
<polygon fill="#59687e" stroke="#59687e" stroke-width="1.3" points="554.23,-764.35 551.43,-756.35 548.63,-764.35 554.23,-764.35"/>
</g>
<!-- removalCommit&#45;&gt;facts -->
<g id="edge5" class="edge">
<title>removalCommit&#45;&gt;facts</title>
<path fill="none" stroke="#59687e" stroke-width="1.3" d="M569.9,-706.6C569.9,-706.6 569.9,-532.93 569.9,-532.93"/>
<polygon fill="#59687e" stroke="#59687e" stroke-width="1.3" points="572.7,-532.93 569.9,-524.93 567.1,-532.93 572.7,-532.93"/>
</g>
<!-- reject&#45;&gt;end -->
<g id="edge17" class="edge">
<title>reject&#45;&gt;end</title>
<path fill="none" stroke="#59687e" stroke-width="1.3" d="M841.57,-388.08C841.57,-302.48 841.57,-16 841.57,-16 841.57,-16 597.48,-16 597.48,-16"/>
<polygon fill="#59687e" stroke="#59687e" stroke-width="1.3" points="597.48,-13.2 589.48,-16 597.48,-18.8 597.48,-13.2"/>
</g>
</g>
</svg>
