<?xml version="1.0" encoding="UTF-8" standalone="no"?>
<!DOCTYPE svg PUBLIC "-//W3C//DTD SVG 1.1//EN"
 "http://www.w3.org/Graphics/SVG/1.1/DTD/svg11.dtd">
<!-- Generated by graphviz version 15.0.0 (20260523.1842)
 -->
<!-- Title: G Pages: 1 -->
<svg width="823pt" height="1275pt"
 viewBox="9.00 9.00 814.00 1267.00" xmlns="http://www.w3.org/2000/svg" xmlns:xlink="http://www.w3.org/1999/xlink">
<g id="graph0" class="graph" transform="scale(1 1) rotate(0) translate(26.64 1248.6)">
<title>G</title>
<polygon fill="#ffffff" stroke="none" points="-18,18 -18,-1239.96 787.76,-1239.96 787.76,18 -18,18"/>
<!-- start -->
<g id="node1" class="node">
<title>start</title>
<ellipse fill="#182033" stroke="#182033" stroke-width="1.4" cx="598.04" cy="-1211.88" rx="10.08" ry="10.08"/>
</g>
<!-- due -->
<g id="node2" class="node">
<title>due</title>
<path fill="#ffffff" stroke="#bac7db" stroke-width="1.4" d="M667.27,-1150.8C667.27,-1150.8 528.81,-1150.8 528.81,-1150.8 522.81,-1150.8 516.81,-1144.8 516.81,-1138.8 516.81,-1138.8 516.81,-1126.8 516.81,-1126.8 516.81,-1120.8 522.81,-1114.8 528.81,-1114.8 528.81,-1114.8 667.27,-1114.8 667.27,-1114.8 673.27,-1114.8 679.27,-1120.8 679.27,-1126.8 679.27,-1126.8 679.27,-1138.8 679.27,-1138.8 679.27,-1144.8 673.27,-1150.8 667.27,-1150.8"/>
<text xml:space="preserve" text-anchor="middle" x="598.04" y="-1128.6" font-family="Noto Sans CJK KR" font-size="14.00" fill="#182033">Simulation Tick Reached</text>
</g>
<!-- start&#45;&gt;due -->
<g id="edge1" class="edge">
<title>start&#45;&gt;due</title>
<path fill="none" stroke="#59687e" stroke-width="1.3" d="M598.04,-1201.21C598.04,-1201.21 598.04,-1161.43 598.04,-1161.43"/>
<polygon fill="#59687e" stroke="#59687e" stroke-width="1.3" points="600.84,-1161.43 598.04,-1153.43 595.24,-1161.43 600.84,-1161.43"/>
</g>
<!-- active -->
<g id="node3" class="node">
<title>active</title>
<path fill="#ffffff" stroke="#bac7db" stroke-width="1.4" d="M586.38,-1060.96C586.38,-1060.96 487.67,-1036.88 487.67,-1036.88 481.84,-1035.46 481.84,-1032.62 487.67,-1031.2 487.67,-1031.2 586.38,-1007.12 586.38,-1007.12 592.21,-1005.7 603.87,-1005.7 609.7,-1007.12 609.7,-1007.12 708.41,-1031.2 708.41,-1031.2 714.24,-1032.62 714.24,-1035.46 708.41,-1036.88 708.41,-1036.88 609.7,-1060.96 609.7,-1060.96 603.87,-1062.38 592.21,-1062.38 586.38,-1060.96"/>
<text xml:space="preserve" text-anchor="middle" x="598.04" y="-1029.84" font-family="Noto Sans CJK KR" font-size="14.00" fill="#182033">Status still active?</text>
</g>
<!-- due&#45;&gt;active -->
<g id="edge2" class="edge">
<title>due&#45;&gt;active</title>
<path fill="none" stroke="#59687e" stroke-width="1.3" d="M598.04,-1114.22C598.04,-1114.22 598.04,-1074.15 598.04,-1074.15"/>
<polygon fill="#59687e" stroke="#59687e" stroke-width="1.3" points="600.84,-1074.15 598.04,-1066.15 595.24,-1074.15 600.84,-1074.15"/>
</g>
<!-- cap -->
<g id="node4" class="node">
<title>cap</title>
<path fill="#ffffff" stroke="#bac7db" stroke-width="1.4" d="M446.62,-933.78C446.62,-933.78 325.66,-894.62 325.66,-894.62 319.95,-892.77 319.95,-889.07 325.66,-887.22 325.66,-887.22 446.62,-848.06 446.62,-848.06 452.33,-846.21 463.75,-846.21 469.46,-848.06 469.46,-848.06 590.42,-887.22 590.42,-887.22 596.13,-889.07 596.13,-892.77 590.42,-894.62 590.42,-894.62 469.46,-933.78 469.46,-933.78 463.75,-935.63 452.33,-935.63 446.62,-933.78"/>
<text xml:space="preserve" text-anchor="middle" x="458.04" y="-895.12" font-family="Noto Sans CJK KR" font-size="14.00" fill="#182033">Catch&#45;up count below</text>
<text xml:space="preserve" text-anchor="middle" x="458.04" y="-878.32" font-family="Noto Sans CJK KR" font-size="14.00" fill="#182033">MaxCatchUpTicks?</text>
</g>
<!-- active&#45;&gt;cap -->
<g id="edge4" class="edge">
<title>active&#45;&gt;cap</title>
<path fill="none" stroke="#59687e" stroke-width="1.3" d="M538.92,-1018.18C538.92,-1018.18 538.92,-921.91 538.92,-921.91"/>
<polygon fill="#59687e" stroke="#59687e" stroke-width="1.3" points="541.72,-921.91 538.92,-913.91 536.12,-921.91 541.72,-921.91"/>
<text xml:space="preserve" text-anchor="middle" x="586.37" y="-966.68" font-family="Noto Sans CJK KR" font-size="14.00" fill="#46566e">yes</text>
</g>
<!-- remove -->
<g id="node14" class="node">
<title>remove</title>
<path fill="#ffffff" stroke="#bac7db" stroke-width="1.4" d="M757.76,-275.56C757.76,-275.56 638.32,-275.56 638.32,-275.56 632.32,-275.56 626.32,-269.56 626.32,-263.56 626.32,-263.56 626.32,-224.2 626.32,-224.2 626.32,-218.2 632.32,-212.2 638.32,-212.2 638.32,-212.2 757.76,-212.2 757.76,-212.2 763.76,-212.2 769.76,-218.2 769.76,-224.2 769.76,-224.2 769.76,-263.56 769.76,-263.56 769.76,-269.56 763.76,-275.56 757.76,-275.56"/>
<text xml:space="preserve" text-anchor="middle" x="698.04" y="-256.48" font-family="Noto Sans CJK KR" font-size="14.00" fill="#182033">Remove status&#13;</text>
<text xml:space="preserve" text-anchor="middle" x="698.04" y="-239.68" font-family="Noto Sans CJK KR" font-size="14.00" fill="#182033">remove modifiers&#13;</text>
<text xml:space="preserve" text-anchor="middle" x="698.04" y="-222.88" font-family="Noto Sans CJK KR" font-size="14.00" fill="#182033">publish StatusExpired</text>
</g>
<!-- active&#45;&gt;remove -->
<g id="edge3" class="edge">
<title>active&#45;&gt;remove</title>
<path fill="none" stroke="#59687e" stroke-width="1.3" d="M681.31,-1024.05C681.31,-1024.05 681.31,-285.88 681.31,-285.88"/>
<polygon fill="#59687e" stroke="#59687e" stroke-width="1.3" points="684.11,-285.88 681.31,-277.88 678.51,-285.88 684.11,-285.88"/>
<text xml:space="preserve" text-anchor="middle" x="705.04" y="-610.52" font-family="Noto Sans CJK KR" font-size="14.00" fill="#46566e">no</text>
</g>
<!-- capExpired -->
<g id="node5" class="node">
<title>capExpired</title>
<path fill="#ffffff" stroke="#bac7db" stroke-width="1.4" d="M118.34,-270.96C118.34,-270.96 11.7,-246.56 11.7,-246.56 5.85,-245.22 5.85,-242.54 11.7,-241.2 11.7,-241.2 118.34,-216.8 118.34,-216.8 124.19,-215.46 135.89,-215.46 141.74,-216.8 141.74,-216.8 248.38,-241.2 248.38,-241.2 254.23,-242.54 254.23,-245.22 248.38,-246.56 248.38,-246.56 141.74,-270.96 141.74,-270.96 135.89,-272.3 124.19,-272.3 118.34,-270.96"/>
<text xml:space="preserve" text-anchor="middle" x="130.04" y="-239.68" font-family="Noto Sans CJK KR" font-size="14.00" fill="#182033">ExpiresAt &lt;= now?</text>
</g>
<!-- cap&#45;&gt;capExpired -->
<g id="edge5" class="edge">
<title>cap&#45;&gt;capExpired</title>
<path fill="none" stroke="#59687e" stroke-width="1.3" d="M312.27,-891C224.66,-891 130.04,-891 130.04,-891 130.04,-891 130.04,-284.19 130.04,-284.19"/>
<polygon fill="#59687e" stroke="#59687e" stroke-width="1.3" points="132.84,-284.19 130.04,-276.19 127.24,-284.19 132.84,-284.19"/>
<text xml:space="preserve" text-anchor="middle" x="243.04" y="-545.44" font-family="Noto Sans CJK KR" font-size="14.00" fill="#46566e">no</text>
</g>
<!-- context -->
<g id="node8" class="node">
<title>context</title>
<path fill="#ffffff" stroke="#bac7db" stroke-width="1.4" d="M598.64,-777.56C598.64,-777.56 485.44,-777.56 485.44,-777.56 479.44,-777.56 473.44,-771.56 473.44,-765.56 473.44,-765.56 473.44,-709.4 473.44,-709.4 473.44,-703.4 479.44,-697.4 485.44,-697.4 485.44,-697.4 598.64,-697.4 598.64,-697.4 604.64,-697.4 610.64,-703.4 610.64,-709.4 610.64,-709.4 610.64,-765.56 610.64,-765.56 610.64,-771.56 604.64,-777.56 598.64,-777.56"/>
<text xml:space="preserve" text-anchor="middle" x="542.04" y="-758.48" font-family="Noto Sans CJK KR" font-size="14.00" fill="#182033">Build EffectContext</text>
<text xml:space="preserve" text-anchor="middle" x="542.04" y="-741.68" font-family="Noto Sans CJK KR" font-size="14.00" fill="#182033">Source: SourceRef</text>
<text xml:space="preserve" text-anchor="middle" x="542.04" y="-724.88" font-family="Noto Sans CJK KR" font-size="14.00" fill="#182033">TargetId = owner</text>
<text xml:space="preserve" text-anchor="middle" x="542.04" y="-708.08" font-family="Noto Sans CJK KR" font-size="14.00" fill="#182033">StackCount included</text>
</g>
<!-- cap&#45;&gt;context -->
<g id="edge10" class="edge">
<title>cap&#45;&gt;context</title>
<path fill="none" stroke="#59687e" stroke-width="1.3" d="M537.64,-869.58C537.64,-869.58 537.64,-788.18 537.64,-788.18"/>
<polygon fill="#59687e" stroke="#59687e" stroke-width="1.3" points="540.44,-788.18 537.64,-780.18 534.84,-788.18 540.44,-788.18"/>
<text xml:space="preserve" text-anchor="middle" x="524.37" y="-806.76" font-family="Noto Sans CJK KR" font-size="14.00" fill="#46566e">yes</text>
</g>
<!-- limitedRemove -->
<g id="node6" class="node">
<title>limitedRemove</title>
<path fill="#ffffff" stroke="#bac7db" stroke-width="1.4" d="M176.88,-145.4C176.88,-145.4 35.2,-145.4 35.2,-145.4 29.2,-145.4 23.2,-139.4 23.2,-133.4 23.2,-133.4 23.2,-94.04 23.2,-94.04 23.2,-88.04 29.2,-82.04 35.2,-82.04 35.2,-82.04 176.88,-82.04 176.88,-82.04 182.88,-82.04 188.88,-88.04 188.88,-94.04 188.88,-94.04 188.88,-133.4 188.88,-133.4 188.88,-139.4 182.88,-145.4 176.88,-145.4"/>
<text xml:space="preserve" text-anchor="middle" x="106.04" y="-126.32" font-family="Noto Sans CJK KR" font-size="14.00" fill="#182033">Remove status</text>
<text xml:space="preserve" text-anchor="middle" x="106.04" y="-109.52" font-family="Noto Sans CJK KR" font-size="14.00" fill="#182033">reason = CatchUpLimited</text>
<text xml:space="preserve" text-anchor="middle" x="106.04" y="-92.72" font-family="Noto Sans CJK KR" font-size="14.00" fill="#182033">trace dropped ticks</text>
</g>
<!-- capExpired&#45;&gt;limitedRemove -->
<g id="edge6" class="edge">
<title>capExpired&#45;&gt;limitedRemove</title>
<path fill="none" stroke="#59687e" stroke-width="1.3" d="M106.04,-219.09C106.04,-219.09 106.04,-155.78 106.04,-155.78"/>
<polygon fill="#59687e" stroke="#59687e" stroke-width="1.3" points="108.84,-155.78 106.04,-147.78 103.24,-155.78 108.84,-155.78"/>
<text xml:space="preserve" text-anchor="middle" x="131.37" y="-174.6" font-family="Noto Sans CJK KR" font-size="14.00" fill="#46566e">yes</text>
</g>
<!-- defer -->
<g id="node7" class="node">
<title>defer</title>
<path fill="#ffffff" stroke="#bac7db" stroke-width="1.4" d="M340.76,-137C340.76,-137 237.32,-137 237.32,-137 231.32,-137 225.32,-131 225.32,-125 225.32,-125 225.32,-102.44 225.32,-102.44 225.32,-96.44 231.32,-90.44 237.32,-90.44 237.32,-90.44 340.76,-90.44 340.76,-90.44 346.76,-90.44 352.76,-96.44 352.76,-102.44 352.76,-102.44 352.76,-125 352.76,-125 352.76,-131 346.76,-137 340.76,-137"/>
<text xml:space="preserve" text-anchor="middle" x="289.04" y="-117.92" font-family="Noto Sans CJK KR" font-size="14.00" fill="#182033">Leave overdue tick</text>
<text xml:space="preserve" text-anchor="middle" x="289.04" y="-101.12" font-family="Noto Sans CJK KR" font-size="14.00" fill="#182033">for next advance</text>
</g>
<!-- capExpired&#45;&gt;defer -->
<g id="edge8" class="edge">
<title>capExpired&#45;&gt;defer</title>
<path fill="none" stroke="#59687e" stroke-width="1.3" d="M242.7,-239.25C242.7,-239.25 242.7,-147.59 242.7,-147.59"/>
<polygon fill="#59687e" stroke="#59687e" stroke-width="1.3" points="245.5,-147.59 242.7,-139.59 239.9,-147.59 245.5,-147.59"/>
<text xml:space="preserve" text-anchor="middle" x="243.04" y="-174.6" font-family="Noto Sans CJK KR" font-size="14.00" fill="#46566e">no</text>
</g>
<!-- end -->
<g id="node15" class="node">
<title>end</title>
<ellipse fill="#ffffff" stroke="#182033" stroke-width="1.4" cx="366.04" cy="-15.52" rx="11.52" ry="11.52"/>
<ellipse fill="none" stroke="#182033" stroke-width="1.4" cx="366.04" cy="-15.52" rx="15.52" ry="15.52"/>
</g>
<!-- limitedRemove&#45;&gt;end -->
<g id="edge7" class="edge">
<title>limitedRemove&#45;&gt;end</title>
<path fill="none" stroke="#59687e" stroke-width="1.3" d="M189.54,-86C263.54,-86 359.96,-86 359.96,-86 359.96,-86 359.96,-40.43 359.96,-40.43"/>
<polygon fill="#59687e" stroke="#59687e" stroke-width="1.3" points="362.76,-40.43 359.96,-32.43 357.16,-40.43 362.76,-40.43"/>
</g>
<!-- defer&#45;&gt;end -->
<g id="edge9" class="edge">
<title>defer&#45;&gt;end</title>
<path fill="none" stroke="#59687e" stroke-width="1.3" d="M353.19,-120C361.48,-120 367.16,-120 367.16,-120 367.16,-120 367.16,-41.36 367.16,-41.36"/>
<polygon fill="#59687e" stroke="#59687e" stroke-width="1.3" points="369.96,-41.36 367.16,-33.36 364.36,-41.36 369.96,-41.36"/>
</g>
<!-- execute -->
<g id="node9" class="node">
<title>execute</title>
<path fill="#ffffff" stroke="#bac7db" stroke-width="1.4" d="M611.3,-646.4C611.3,-646.4 488.78,-646.4 488.78,-646.4 482.78,-646.4 476.78,-640.4 476.78,-634.4 476.78,-634.4 476.78,-595.04 476.78,-595.04 476.78,-589.04 482.78,-583.04 488.78,-583.04 488.78,-583.04 611.3,-583.04 611.3,-583.04 617.3,-583.04 623.3,-589.04 623.3,-595.04 623.3,-595.04 623.3,-634.4 623.3,-634.4 623.3,-640.4 617.3,-646.4 611.3,-646.4"/>
<text xml:space="preserve" text-anchor="middle" x="550.04" y="-627.32" font-family="Noto Sans CJK KR" font-size="14.00" fill="#182033">Build DamageRequest</text>
<text xml:space="preserve" text-anchor="middle" x="550.04" y="-610.52" font-family="Noto Sans CJK KR" font-size="14.00" fill="#182033">Resolve + Commit</text>
<text xml:space="preserve" text-anchor="middle" x="550.04" y="-593.72" font-family="Noto Sans CJK KR" font-size="14.00" fill="#182033">through Combat</text>
</g>
<!-- context&#45;&gt;execute -->
<g id="edge11" class="edge">
<title>context&#45;&gt;execute</title>
<path fill="none" stroke="#59687e" stroke-width="1.3" d="M543.71,-696.94C543.71,-696.94 543.71,-657.03 543.71,-657.03"/>
<polygon fill="#59687e" stroke="#59687e" stroke-width="1.3" points="546.51,-657.03 543.71,-649.03 540.91,-657.03 546.51,-657.03"/>
</g>
<!-- update -->
<g id="node10" class="node">
<title>update</title>
<path fill="#ffffff" stroke="#bac7db" stroke-width="1.4" d="M630.54,-516.24C630.54,-516.24 483.54,-516.24 483.54,-516.24 477.54,-516.24 471.54,-510.24 471.54,-504.24 471.54,-504.24 471.54,-464.88 471.54,-464.88 471.54,-458.88 477.54,-452.88 483.54,-452.88 483.54,-452.88 630.54,-452.88 630.54,-452.88 636.54,-452.88 642.54,-458.88 642.54,-464.88 642.54,-464.88 642.54,-504.24 642.54,-504.24 642.54,-510.24 636.54,-516.24 630.54,-516.24"/>
<text xml:space="preserve" text-anchor="middle" x="557.04" y="-497.16" font-family="Noto Sans CJK KR" font-size="14.00" fill="#182033">Update remaining duration</text>
<text xml:space="preserve" text-anchor="middle" x="557.04" y="-480.36" font-family="Noto Sans CJK KR" font-size="14.00" fill="#182033">advance NextTickAt</text>
<text xml:space="preserve" text-anchor="middle" x="557.04" y="-463.56" font-family="Noto Sans CJK KR" font-size="14.00" fill="#182033">increment catch&#45;up count</text>
</g>
<!-- execute&#45;&gt;update -->
<g id="edge12" class="edge">
<title>execute&#45;&gt;update</title>
<path fill="none" stroke="#59687e" stroke-width="1.3" d="M550.04,-582.55C550.04,-582.55 550.04,-526.78 550.04,-526.78"/>
<polygon fill="#59687e" stroke="#59687e" stroke-width="1.3" points="552.84,-526.78 550.04,-518.78 547.24,-526.78 552.84,-526.78"/>
</g>
<!-- expire -->
<g id="node11" class="node">
<title>expire</title>
<path fill="#ffffff" stroke="#bac7db" stroke-width="1.4" d="M545.98,-397.22C545.98,-397.22 497.41,-376.78 497.41,-376.78 491.88,-374.45 491.88,-369.79 497.41,-367.46 497.41,-367.46 545.98,-347.02 545.98,-347.02 551.51,-344.69 562.57,-344.69 568.1,-347.02 568.1,-347.02 616.67,-367.46 616.67,-367.46 622.2,-369.79 622.2,-374.45 616.67,-376.78 616.67,-376.78 568.1,-397.22 568.1,-397.22 562.57,-399.55 551.51,-399.55 545.98,-397.22"/>
<text xml:space="preserve" text-anchor="middle" x="557.04" y="-367.92" font-family="Noto Sans CJK KR" font-size="14.00" fill="#182033">Expired?</text>
</g>
<!-- update&#45;&gt;expire -->
<g id="edge13" class="edge">
<title>update&#45;&gt;expire</title>
<path fill="none" stroke="#59687e" stroke-width="1.3" d="M557.04,-452.34C557.04,-452.34 557.04,-412.38 557.04,-412.38"/>
<polygon fill="#59687e" stroke="#59687e" stroke-width="1.3" points="559.84,-412.38 557.04,-404.38 554.24,-412.38 559.84,-412.38"/>
</g>
<!-- backlog -->
<g id="node12" class="node">
<title>backlog</title>
<path fill="#ffffff" stroke="#bac7db" stroke-width="1.4" d="M431.28,-271.26C431.28,-271.26 307.92,-246.26 307.92,-246.26 302.04,-245.07 302.04,-242.69 307.92,-241.5 307.92,-241.5 431.28,-216.5 431.28,-216.5 437.16,-215.31 448.92,-215.31 454.8,-216.5 454.8,-216.5 578.16,-241.5 578.16,-241.5 584.04,-242.69 584.04,-245.07 578.16,-246.26 578.16,-246.26 454.8,-271.26 454.8,-271.26 448.92,-272.45 437.16,-272.45 431.28,-271.26"/>
<text xml:space="preserve" text-anchor="middle" x="443.04" y="-239.68" font-family="Noto Sans CJK KR" font-size="14.00" fill="#182033">Overdue tick remains?</text>
</g>
<!-- expire&#45;&gt;backlog -->
<g id="edge14" class="edge">
<title>expire&#45;&gt;backlog</title>
<path fill="none" stroke="#59687e" stroke-width="1.3" d="M538.14,-349.78C538.14,-349.78 538.14,-264.9 538.14,-264.9"/>
<polygon fill="#59687e" stroke="#59687e" stroke-width="1.3" points="540.94,-264.9 538.14,-256.9 535.34,-264.9 540.94,-264.9"/>
<text xml:space="preserve" text-anchor="middle" x="524.04" y="-304.76" font-family="Noto Sans CJK KR" font-size="14.00" fill="#46566e">no</text>
</g>
<!-- expire&#45;&gt;remove -->
<g id="edge18" class="edge">
<title>expire&#45;&gt;remove</title>
<path fill="none" stroke="#59687e" stroke-width="1.3" d="M629.01,-372C632.83,-372 635.14,-372 635.14,-372 635.14,-372 635.14,-286.18 635.14,-286.18"/>
<polygon fill="#59687e" stroke="#59687e" stroke-width="1.3" points="637.94,-286.18 635.14,-278.18 632.34,-286.18 637.94,-286.18"/>
<text xml:space="preserve" text-anchor="middle" x="643.37" y="-304.76" font-family="Noto Sans CJK KR" font-size="14.00" fill="#46566e">yes</text>
</g>
<!-- backlog&#45;&gt;cap -->
<g id="edge15" class="edge">
<title>backlog&#45;&gt;cap</title>
<path fill="none" stroke="#59687e" stroke-width="1.3" d="M392.89,-263.95C392.89,-263.95 392.89,-855.01 392.89,-855.01"/>
<polygon fill="#59687e" stroke="#59687e" stroke-width="1.3" points="390.09,-855.01 392.89,-863.01 395.69,-855.01 390.09,-855.01"/>
<text xml:space="preserve" text-anchor="middle" x="425.37" y="-545.44" font-family="Noto Sans CJK KR" font-size="14.00" fill="#46566e">yes</text>
</g>
<!-- schedule -->
<g id="node13" class="node">
<title>schedule</title>
<path fill="#ffffff" stroke="#bac7db" stroke-width="1.4" d="M500.83,-131.72C500.83,-131.72 401.25,-131.72 401.25,-131.72 395.25,-131.72 389.25,-125.72 389.25,-119.72 389.25,-119.72 389.25,-107.72 389.25,-107.72 389.25,-101.72 395.25,-95.72 401.25,-95.72 401.25,-95.72 500.83,-95.72 500.83,-95.72 506.83,-95.72 512.83,-101.72 512.83,-107.72 512.83,-107.72 512.83,-119.72 512.83,-119.72 512.83,-125.72 506.83,-131.72 500.83,-131.72"/>
<text xml:space="preserve" text-anchor="middle" x="451.04" y="-109.52" font-family="Noto Sans CJK KR" font-size="14.00" fill="#182033">Schedule next tick</text>
</g>
<!-- backlog&#45;&gt;schedule -->
<g id="edge16" class="edge">
<title>backlog&#45;&gt;schedule</title>
<path fill="none" stroke="#59687e" stroke-width="1.3" d="M451.04,-215.32C451.04,-215.32 451.04,-142.15 451.04,-142.15"/>
<polygon fill="#59687e" stroke="#59687e" stroke-width="1.3" points="453.84,-142.15 451.04,-134.15 448.24,-142.15 453.84,-142.15"/>
<text xml:space="preserve" text-anchor="middle" x="454.04" y="-174.6" font-family="Noto Sans CJK KR" font-size="14.00" fill="#46566e">no</text>
</g>
<!-- schedule&#45;&gt;end -->
<g id="edge17" class="edge">
<title>schedule&#45;&gt;end</title>
<path fill="none" stroke="#59687e" stroke-width="1.3" d="M388.78,-108C380.26,-108 374.36,-108 374.36,-108 374.36,-108 374.36,-39.13 374.36,-39.13"/>
<polygon fill="#59687e" stroke="#59687e" stroke-width="1.3" points="377.16,-39.13 374.36,-31.13 371.56,-39.13 377.16,-39.13"/>
</g>
<!-- remove&#45;&gt;end -->
<g id="edge19" class="edge">
<title>remove&#45;&gt;end</title>
<path fill="none" stroke="#59687e" stroke-width="1.3" d="M698.04,-211.71C698.04,-148.9 698.04,-16 698.04,-16 698.04,-16 392.02,-16 392.02,-16"/>
<polygon fill="#59687e" stroke="#59687e" stroke-width="1.3" points="392.02,-13.2 384.02,-16 392.02,-18.8 392.02,-13.2"/>
</g>
</g>
</svg>
