<?xml version="1.0" encoding="UTF-8" standalone="no"?>
<!DOCTYPE svg PUBLIC "-//W3C//DTD SVG 1.1//EN"
 "http://www.w3.org/Graphics/SVG/1.1/DTD/svg11.dtd">
<!-- Generated by graphviz version 15.1.0 (20260618.0150)
 -->
<!-- Title: G Pages: 1 -->
<svg width="1459pt" height="2460pt"
 viewBox="12.00 12.00 1448.00 2449.00" xmlns="http://www.w3.org/2000/svg" xmlns:xlink="http://www.w3.org/1999/xlink">
<g id="graph0" class="graph" transform="scale(1.33333 1.33333) rotate(0) translate(26.64 1818.63)">
<title>G</title>
<polygon fill="#ffffff" stroke="none" points="-18,18 -18,-1809.99 1059.17,-1809.99 1059.17,18 -18,18"/>
<!-- start -->
<g id="node1" class="node">
<title>start</title>
<ellipse fill="#182033" stroke="#182033" stroke-width="1.4" cx="672.17" cy="-1781.91" rx="10.08" ry="10.08"/>
</g>
<!-- due -->
<g id="node2" class="node">
<title>due</title>
<path fill="#ffffff" stroke="#bac7db" stroke-width="1.4" d="M746.63,-1716.83C746.63,-1716.83 597.71,-1716.83 597.71,-1716.83 591.71,-1716.83 585.71,-1710.83 585.71,-1704.83 585.71,-1704.83 585.71,-1692.83 585.71,-1692.83 585.71,-1686.83 591.71,-1680.83 597.71,-1680.83 597.71,-1680.83 746.63,-1680.83 746.63,-1680.83 752.63,-1680.83 758.63,-1686.83 758.63,-1692.83 758.63,-1692.83 758.63,-1704.83 758.63,-1704.83 758.63,-1710.83 752.63,-1716.83 746.63,-1716.83"/>
<text xml:space="preserve" text-anchor="middle" x="672.17" y="-1694.16" font-family="Noto Sans KR" font-size="14.00" fill="#182033">Simulation tick reached</text>
</g>
<!-- start&#45;&gt;due -->
<g id="edge1" class="edge">
<title>start&#45;&gt;due</title>
<path fill="none" stroke="#59687e" stroke-width="1.3" d="M672.17,-1771.29C672.17,-1760.42 672.17,-1742.24 672.17,-1726.94"/>
<polygon fill="#59687e" stroke="#59687e" stroke-width="1.3" points="674.97,-1727.37 672.17,-1719.37 669.37,-1727.37 674.97,-1727.37"/>
</g>
<!-- active -->
<g id="node3" class="node">
<title>active</title>
<path fill="#ffffff" stroke="#bac7db" stroke-width="1.4" d="M660.37,-1623.65C660.37,-1623.65 496.8,-1593.48 496.8,-1593.48 490.9,-1592.39 490.9,-1590.21 496.8,-1589.12 496.8,-1589.12 660.37,-1558.95 660.37,-1558.95 666.27,-1557.86 678.07,-1557.86 683.97,-1558.95 683.97,-1558.95 847.54,-1589.12 847.54,-1589.12 853.44,-1590.21 853.44,-1592.39 847.54,-1593.48 847.54,-1593.48 683.97,-1623.65 683.97,-1623.65 678.07,-1624.74 666.27,-1624.74 660.37,-1623.65"/>
<text xml:space="preserve" text-anchor="middle" x="672.17" y="-1586.63" font-family="Noto Sans KR" font-size="14.00" fill="#182033">StatusInstance still active?</text>
</g>
<!-- due&#45;&gt;active -->
<g id="edge2" class="edge">
<title>due&#45;&gt;active</title>
<path fill="none" stroke="#59687e" stroke-width="1.3" d="M672.17,-1680.4C672.17,-1668.28 672.17,-1651.56 672.17,-1635.94"/>
<polygon fill="#59687e" stroke="#59687e" stroke-width="1.3" points="674.97,-1636.37 672.17,-1628.37 669.37,-1636.37 674.97,-1636.37"/>
</g>
<!-- cap -->
<g id="node4" class="node">
<title>cap</title>
<path fill="#ffffff" stroke="#bac7db" stroke-width="1.4" d="M383.75,-1481.84C383.75,-1481.84 245.67,-1437.42 245.67,-1437.42 239.96,-1435.58 239.96,-1431.9 245.67,-1430.06 245.67,-1430.06 383.75,-1385.64 383.75,-1385.64 389.46,-1383.8 400.88,-1383.8 406.59,-1385.64 406.59,-1385.64 544.67,-1430.06 544.67,-1430.06 550.38,-1431.9 550.38,-1435.58 544.67,-1437.42 544.67,-1437.42 406.59,-1481.84 406.59,-1481.84 400.88,-1483.68 389.46,-1483.68 383.75,-1481.84"/>
<text xml:space="preserve" text-anchor="middle" x="395.17" y="-1437.69" font-family="Noto Sans KR" font-size="14.00" fill="#182033">catch&#45;up count below</text>
<text xml:space="preserve" text-anchor="middle" x="395.17" y="-1420.44" font-family="Noto Sans KR" font-size="14.00" fill="#182033">MaxCatchUpTicks?</text>
</g>
<!-- active&#45;&gt;cap -->
<g id="edge6" class="edge">
<title>active&#45;&gt;cap</title>
<path fill="none" stroke="#59687e" stroke-width="1.3" d="M664.22,-1557.76C659.02,-1536.45 653.17,-1512.52 653.17,-1512.52 653.17,-1512.52 561.06,-1484.75 486.92,-1462.4"/>
<polygon fill="#59687e" stroke="#59687e" stroke-width="1.3" points="487.86,-1459.76 479.4,-1460.13 486.25,-1465.12 487.86,-1459.76"/>
<text xml:space="preserve" text-anchor="middle" x="667.4" y="-1516.47" font-family="Noto Sans KR" font-size="14.00" fill="#46566e">yes</text>
</g>
<!-- removePlan -->
<g id="node16" class="node">
<title>removePlan</title>
<path fill="#ffffff" stroke="#bac7db" stroke-width="1.4" d="M706.63,-1354.96C706.63,-1354.96 563.71,-1354.96 563.71,-1354.96 557.71,-1354.96 551.71,-1348.96 551.71,-1342.96 551.71,-1342.96 551.71,-1280.68 551.71,-1280.68 551.71,-1274.68 557.71,-1268.68 563.71,-1268.68 563.71,-1268.68 706.63,-1268.68 706.63,-1268.68 712.63,-1268.68 718.63,-1274.68 718.63,-1280.68 718.63,-1280.68 718.63,-1342.96 718.63,-1342.96 718.63,-1348.96 712.63,-1354.96 706.63,-1354.96"/>
<text xml:space="preserve" text-anchor="middle" x="635.17" y="-1333.02" font-family="Noto Sans KR" font-size="14.00" fill="#182033">Build normal expiry</text>
<text xml:space="preserve" text-anchor="middle" x="635.17" y="-1315.77" font-family="Noto Sans KR" font-size="14.00" fill="#182033">removal plan</text>
<text xml:space="preserve" text-anchor="middle" x="635.17" y="-1298.52" font-family="Noto Sans KR" font-size="14.00" fill="#182033">modifiers + instance</text>
<text xml:space="preserve" text-anchor="middle" x="635.17" y="-1281.27" font-family="Noto Sans KR" font-size="14.00" fill="#182033">+ StatusExpired outbox</text>
</g>
<!-- active&#45;&gt;removePlan -->
<g id="edge3" class="edge">
<title>active&#45;&gt;removePlan</title>
<path fill="none" stroke="#59687e" stroke-width="1.3" d="M650.67,-1560.39C639.72,-1545.14 628.67,-1529.77 628.67,-1529.77 628.67,-1529.77 628.67,-1512.52 628.67,-1512.52 628.67,-1512.52 631.54,-1424.29 633.47,-1365.13"/>
<polygon fill="#59687e" stroke="#59687e" stroke-width="1.3" points="636.27,-1365.22 633.73,-1357.14 630.67,-1365.04 636.27,-1365.22"/>
<text xml:space="preserve" text-anchor="middle" x="636.92" y="-1516.47" font-family="Noto Sans KR" font-size="14.00" fill="#46566e">no</text>
</g>
<!-- capExpired -->
<g id="node5" class="node">
<title>capExpired</title>
<path fill="#ffffff" stroke="#bac7db" stroke-width="1.4" d="M124.54,-1238.73C124.54,-1238.73 11.63,-1210.1 11.63,-1210.1 5.82,-1208.62 5.82,-1205.68 11.63,-1204.2 11.63,-1204.2 124.54,-1175.57 124.54,-1175.57 130.35,-1174.09 141.99,-1174.09 147.8,-1175.57 147.8,-1175.57 260.71,-1204.2 260.71,-1204.2 266.52,-1205.68 266.52,-1208.62 260.71,-1210.1 260.71,-1210.1 147.8,-1238.73 147.8,-1238.73 141.99,-1240.21 130.35,-1240.21 124.54,-1238.73"/>
<text xml:space="preserve" text-anchor="middle" x="136.17" y="-1202.48" font-family="Noto Sans KR" font-size="14.00" fill="#182033">ExpiresAt &lt;= now?</text>
</g>
<!-- cap&#45;&gt;capExpired -->
<g id="edge7" class="edge">
<title>cap&#45;&gt;capExpired</title>
<path fill="none" stroke="#59687e" stroke-width="1.3" d="M352.11,-1395.4C302.27,-1352.19 221,-1281.71 173.66,-1240.66"/>
<polygon fill="#59687e" stroke="#59687e" stroke-width="1.3" points="175.73,-1238.75 167.85,-1235.62 172.06,-1242.98 175.73,-1238.75"/>
<text xml:space="preserve" text-anchor="middle" x="312.25" y="-1307.15" font-family="Noto Sans KR" font-size="14.00" fill="#46566e">no</text>
</g>
<!-- context -->
<g id="node8" class="node">
<title>context</title>
<path fill="#ffffff" stroke="#bac7db" stroke-width="1.4" d="M543.88,-1241.67C543.88,-1241.67 336.46,-1241.67 336.46,-1241.67 330.46,-1241.67 324.46,-1235.67 324.46,-1229.67 324.46,-1229.67 324.46,-1184.63 324.46,-1184.63 324.46,-1178.63 330.46,-1172.63 336.46,-1172.63 336.46,-1172.63 543.88,-1172.63 543.88,-1172.63 549.88,-1172.63 555.88,-1178.63 555.88,-1184.63 555.88,-1184.63 555.88,-1229.67 555.88,-1229.67 555.88,-1235.67 549.88,-1241.67 543.88,-1241.67"/>
<text xml:space="preserve" text-anchor="middle" x="440.17" y="-1219.73" font-family="Noto Sans KR" font-size="14.00" fill="#182033">Build EffectContext</text>
<text xml:space="preserve" text-anchor="middle" x="440.17" y="-1202.48" font-family="Noto Sans KR" font-size="14.00" fill="#182033">SourceRef + StatusInstanceId</text>
<text xml:space="preserve" text-anchor="middle" x="440.17" y="-1185.23" font-family="Noto Sans KR" font-size="14.00" fill="#182033">TargetId = owner · stack included</text>
</g>
<!-- cap&#45;&gt;context -->
<g id="edge12" class="edge">
<title>cap&#45;&gt;context</title>
<path fill="none" stroke="#59687e" stroke-width="1.3" d="M404.82,-1384.56C412.73,-1345.11 423.81,-1289.79 431.45,-1251.66"/>
<polygon fill="#59687e" stroke="#59687e" stroke-width="1.3" points="434.1,-1252.69 432.93,-1244.29 428.61,-1251.59 434.1,-1252.69"/>
<text xml:space="preserve" text-anchor="middle" x="437" y="-1307.15" font-family="Noto Sans KR" font-size="14.00" fill="#46566e">yes</text>
</g>
<!-- limitedPlan -->
<g id="node6" class="node">
<title>limitedPlan</title>
<path fill="#ffffff" stroke="#bac7db" stroke-width="1.4" d="M202.5,-1092.75C202.5,-1092.75 43.83,-1092.75 43.83,-1092.75 37.83,-1092.75 31.83,-1086.75 31.83,-1080.75 31.83,-1080.75 31.83,-1035.72 31.83,-1035.72 31.83,-1029.72 37.83,-1023.72 43.83,-1023.72 43.83,-1023.72 202.5,-1023.72 202.5,-1023.72 208.5,-1023.72 214.5,-1029.72 214.5,-1035.72 214.5,-1035.72 214.5,-1080.75 214.5,-1080.75 214.5,-1086.75 208.5,-1092.75 202.5,-1092.75"/>
<text xml:space="preserve" text-anchor="middle" x="123.17" y="-1070.81" font-family="Noto Sans KR" font-size="14.00" fill="#182033">Build removal plan</text>
<text xml:space="preserve" text-anchor="middle" x="123.17" y="-1053.56" font-family="Noto Sans KR" font-size="14.00" fill="#182033">reason = CatchUpLimited</text>
<text xml:space="preserve" text-anchor="middle" x="123.17" y="-1036.31" font-family="Noto Sans KR" font-size="14.00" fill="#182033">trace dropped ticks</text>
</g>
<!-- capExpired&#45;&gt;limitedPlan -->
<g id="edge8" class="edge">
<title>capExpired&#45;&gt;limitedPlan</title>
<path fill="none" stroke="#59687e" stroke-width="1.3" d="M133.22,-1172.81C131.39,-1152.18 129.03,-1125.46 127.05,-1103.12"/>
<polygon fill="#59687e" stroke="#59687e" stroke-width="1.3" points="129.84,-1102.88 126.35,-1095.16 124.27,-1103.38 129.84,-1102.88"/>
<text xml:space="preserve" text-anchor="middle" x="140.57" y="-1132.32" font-family="Noto Sans KR" font-size="14.00" fill="#46566e">yes</text>
</g>
<!-- defer -->
<g id="node7" class="node">
<title>defer</title>
<path fill="#ffffff" stroke="#bac7db" stroke-width="1.4" d="M357.63,-988.09C357.63,-988.09 226.71,-988.09 226.71,-988.09 220.71,-988.09 214.71,-982.09 214.71,-976.09 214.71,-976.09 214.71,-913.81 214.71,-913.81 214.71,-907.81 220.71,-901.81 226.71,-901.81 226.71,-901.81 357.63,-901.81 357.63,-901.81 363.63,-901.81 369.63,-907.81 369.63,-913.81 369.63,-913.81 369.63,-976.09 369.63,-976.09 369.63,-982.09 363.63,-988.09 357.63,-988.09"/>
<text xml:space="preserve" text-anchor="middle" x="292.17" y="-966.15" font-family="Noto Sans KR" font-size="14.00" fill="#182033">Leave overdue tick</text>
<text xml:space="preserve" text-anchor="middle" x="292.17" y="-948.9" font-family="Noto Sans KR" font-size="14.00" fill="#182033">for next advance</text>
<text xml:space="preserve" text-anchor="middle" x="292.17" y="-931.65" font-family="Noto Sans KR" font-size="14.00" fill="#182033">trace deferred count</text>
<text xml:space="preserve" text-anchor="middle" x="292.17" y="-914.4" font-family="Noto Sans KR" font-size="14.00" fill="#182033">no domain mutation</text>
</g>
<!-- capExpired&#45;&gt;defer -->
<g id="edge10" class="edge">
<title>capExpired&#45;&gt;defer</title>
<path fill="none" stroke="#59687e" stroke-width="1.3" d="M163.22,-1178.89C194.04,-1147.85 240.17,-1101.37 240.17,-1101.37 240.17,-1101.37 259.69,-1043.03 274.81,-997.84"/>
<polygon fill="#59687e" stroke="#59687e" stroke-width="1.3" points="277.45,-998.76 277.34,-990.29 272.14,-996.98 277.45,-998.76"/>
<text xml:space="preserve" text-anchor="middle" x="220.13" y="-1132.32" font-family="Noto Sans KR" font-size="14.00" fill="#46566e">no</text>
</g>
<!-- removalCommit -->
<g id="node17" class="node">
<title>removalCommit</title>
<path fill="#eefbf6" stroke="#61b99a" stroke-width="1.4" d="M713.5,-874.81C713.5,-874.81 536.83,-874.81 536.83,-874.81 530.83,-874.81 524.83,-868.81 524.83,-862.81 524.83,-862.81 524.83,-817.78 524.83,-817.78 524.83,-811.78 530.83,-805.78 536.83,-805.78 536.83,-805.78 713.5,-805.78 713.5,-805.78 719.5,-805.78 725.5,-811.78 725.5,-817.78 725.5,-817.78 725.5,-862.81 725.5,-862.81 725.5,-868.81 719.5,-874.81 713.5,-874.81"/>
<text xml:space="preserve" text-anchor="middle" x="625.17" y="-852.87" font-family="Noto Sans KR" font-size="14.00" fill="#182033">RuntimeCommitter.Commit</text>
<text xml:space="preserve" text-anchor="middle" x="625.17" y="-835.62" font-family="Noto Sans KR" font-size="14.00" fill="#182033">status removal</text>
<text xml:space="preserve" text-anchor="middle" x="625.17" y="-818.37" font-family="Noto Sans KR" font-size="14.00" fill="#182033">+ outbox atomic</text>
</g>
<!-- limitedPlan&#45;&gt;removalCommit -->
<g id="edge9" class="edge">
<title>limitedPlan&#45;&gt;removalCommit</title>
<path fill="none" stroke="#59687e" stroke-width="1.3" d="M137.65,-1023.12C157.08,-977.37 189.17,-901.81 189.17,-901.81 189.17,-901.81 385.59,-874.55 514.75,-856.62"/>
<polygon fill="#59687e" stroke="#59687e" stroke-width="1.3" points="514.83,-859.44 522.37,-855.56 514.06,-853.89 514.83,-859.44"/>
</g>
<!-- end -->
<g id="node20" class="node">
<title>end</title>
<ellipse fill="#ffffff" stroke="#182033" stroke-width="1.4" cx="503.17" cy="-15.52" rx="11.52" ry="11.52"/>
<ellipse fill="none" stroke="#182033" stroke-width="1.4" cx="503.17" cy="-15.52" rx="15.52" ry="15.52"/>
</g>
<!-- defer&#45;&gt;end -->
<g id="edge11" class="edge">
<title>defer&#45;&gt;end</title>
<path fill="none" stroke="#59687e" stroke-width="1.3" d="M292.17,-901.41C292.17,-852.48 292.17,-778.78 292.17,-778.78 292.17,-778.78 292.17,-778.78 292.17,-110.93 292.17,-110.93 425.23,-51.39 480.02,-26.88"/>
<polygon fill="#59687e" stroke="#59687e" stroke-width="1.3" points="481.04,-29.49 487.2,-23.66 478.76,-24.38 481.04,-29.49"/>
</g>
<!-- resolve -->
<g id="node9" class="node">
<title>resolve</title>
<path fill="#eaf0ff" stroke="#8292f7" stroke-width="1.4" d="M543.88,-1101.37C543.88,-1101.37 384.46,-1101.37 384.46,-1101.37 378.46,-1101.37 372.46,-1095.37 372.46,-1089.37 372.46,-1089.37 372.46,-1027.09 372.46,-1027.09 372.46,-1021.09 378.46,-1015.09 384.46,-1015.09 384.46,-1015.09 543.88,-1015.09 543.88,-1015.09 549.88,-1015.09 555.88,-1021.09 555.88,-1027.09 555.88,-1027.09 555.88,-1089.37 555.88,-1089.37 555.88,-1095.37 549.88,-1101.37 543.88,-1101.37"/>
<text xml:space="preserve" text-anchor="middle" x="464.17" y="-1079.43" font-family="Noto Sans KR" font-size="14.00" fill="#182033">DamageEffect →</text>
<text xml:space="preserve" text-anchor="middle" x="464.17" y="-1062.18" font-family="Noto Sans KR" font-size="14.00" fill="#182033">ICombatResolver.Resolve</text>
<text xml:space="preserve" text-anchor="middle" x="464.17" y="-1044.93" font-family="Noto Sans KR" font-size="14.00" fill="#182033">pure DamageResult</text>
<text xml:space="preserve" text-anchor="middle" x="464.17" y="-1027.68" font-family="Noto Sans KR" font-size="14.00" fill="#182033">no mutation / event</text>
</g>
<!-- context&#45;&gt;resolve -->
<g id="edge13" class="edge">
<title>context&#45;&gt;resolve</title>
<path fill="none" stroke="#59687e" stroke-width="1.3" d="M445.74,-1172.07C448.68,-1154.08 452.35,-1131.61 455.64,-1111.47"/>
<polygon fill="#59687e" stroke="#59687e" stroke-width="1.3" points="458.37,-1112.09 456.9,-1103.74 452.85,-1111.19 458.37,-1112.09"/>
</g>
<!-- tickPlan -->
<g id="node10" class="node">
<title>tickPlan</title>
<path fill="#fff7e6" stroke="#e0ad4e" stroke-width="1.4" d="M1002.88,-874.81C1002.88,-874.81 789.46,-874.81 789.46,-874.81 783.46,-874.81 777.46,-868.81 777.46,-862.81 777.46,-862.81 777.46,-817.78 777.46,-817.78 777.46,-811.78 783.46,-805.78 789.46,-805.78 789.46,-805.78 1002.88,-805.78 1002.88,-805.78 1008.88,-805.78 1014.88,-811.78 1014.88,-817.78 1014.88,-817.78 1014.88,-862.81 1014.88,-862.81 1014.88,-868.81 1008.88,-874.81 1002.88,-874.81"/>
<text xml:space="preserve" text-anchor="middle" x="896.17" y="-852.87" font-family="Noto Sans KR" font-size="14.00" fill="#182033">Build one Tick CommitPlan</text>
<text xml:space="preserve" text-anchor="middle" x="896.17" y="-835.62" font-family="Noto Sans KR" font-size="14.00" fill="#182033">Shield/HP + NextTickAt or removal</text>
<text xml:space="preserve" text-anchor="middle" x="896.17" y="-818.37" font-family="Noto Sans KR" font-size="14.00" fill="#182033">Damage/Status outbox facts</text>
</g>
<!-- resolve&#45;&gt;tickPlan -->
<g id="edge14" class="edge">
<title>resolve&#45;&gt;tickPlan</title>
<path fill="none" stroke="#59687e" stroke-width="1.3" d="M522.65,-1014.56C585.71,-968.54 677.17,-901.81 677.17,-901.81 677.17,-901.81 719.82,-890.03 767.47,-876.86"/>
<polygon fill="#59687e" stroke="#59687e" stroke-width="1.3" points="768.2,-879.56 775.16,-874.73 766.7,-874.16 768.2,-879.56"/>
</g>
<!-- commit -->
<g id="node11" class="node">
<title>commit</title>
<path fill="#eefbf6" stroke="#61b99a" stroke-width="1.4" d="M1001.38,-750.78C1001.38,-750.78 790.96,-750.78 790.96,-750.78 784.96,-750.78 778.96,-744.78 778.96,-738.78 778.96,-738.78 778.96,-693.75 778.96,-693.75 778.96,-687.75 784.96,-681.75 790.96,-681.75 790.96,-681.75 1001.38,-681.75 1001.38,-681.75 1007.38,-681.75 1013.38,-687.75 1013.38,-693.75 1013.38,-693.75 1013.38,-738.78 1013.38,-738.78 1013.38,-744.78 1007.38,-750.78 1001.38,-750.78"/>
<text xml:space="preserve" text-anchor="middle" x="896.17" y="-728.84" font-family="Noto Sans KR" font-size="14.00" fill="#182033">RuntimeCommitter.Commit once</text>
<text xml:space="preserve" text-anchor="middle" x="896.17" y="-711.59" font-family="Noto Sans KR" font-size="14.00" fill="#182033">versions · invariants</text>
<text xml:space="preserve" text-anchor="middle" x="896.17" y="-694.34" font-family="Noto Sans KR" font-size="14.00" fill="#182033">state + outbox</text>
</g>
<!-- tickPlan&#45;&gt;commit -->
<g id="edge15" class="edge">
<title>tickPlan&#45;&gt;commit</title>
<path fill="none" stroke="#59687e" stroke-width="1.3" d="M896.17,-805.3C896.17,-791.55 896.17,-775.5 896.17,-760.9"/>
<polygon fill="#59687e" stroke="#59687e" stroke-width="1.3" points="898.97,-761.04 896.17,-753.04 893.37,-761.04 898.97,-761.04"/>
</g>
<!-- facts -->
<g id="node12" class="node">
<title>facts</title>
<path fill="#e9fbff" stroke="#54b7cf" stroke-width="1.4" d="M747.13,-610.5C747.13,-610.5 529.21,-610.5 529.21,-610.5 523.21,-610.5 517.21,-604.5 517.21,-598.5 517.21,-598.5 517.21,-553.47 517.21,-553.47 517.21,-547.47 523.21,-541.47 529.21,-541.47 529.21,-541.47 747.13,-541.47 747.13,-541.47 753.13,-541.47 759.13,-547.47 759.13,-553.47 759.13,-553.47 759.13,-598.5 759.13,-598.5 759.13,-604.5 753.13,-610.5 747.13,-610.5"/>
<text xml:space="preserve" text-anchor="middle" x="638.17" y="-588.56" font-family="Noto Sans KR" font-size="14.00" fill="#182033">Committed facts dispatch</text>
<text xml:space="preserve" text-anchor="middle" x="638.17" y="-571.31" font-family="Noto Sans KR" font-size="14.00" fill="#182033">DamageCommitted · StatusTicked</text>
<text xml:space="preserve" text-anchor="middle" x="638.17" y="-554.06" font-family="Noto Sans KR" font-size="14.00" fill="#182033">StatusExpired when terminal</text>
</g>
<!-- commit&#45;&gt;facts -->
<g id="edge18" class="edge">
<title>commit&#45;&gt;facts</title>
<path fill="none" stroke="#59687e" stroke-width="1.3" d="M901.81,-681.12C904.08,-667.39 906.17,-654.75 906.17,-654.75 906.17,-654.75 906.17,-637.5 906.17,-637.5 906.17,-637.5 837.18,-621.92 769.2,-606.57"/>
<polygon fill="#59687e" stroke="#59687e" stroke-width="1.3" points="769.96,-603.87 761.54,-604.84 768.73,-609.34 769.96,-603.87"/>
<text xml:space="preserve" text-anchor="middle" x="929.79" y="-641.45" font-family="Noto Sans KR" font-size="14.00" fill="#46566e">success</text>
</g>
<!-- reject -->
<g id="node18" class="node">
<title>reject</title>
<path fill="#fff0f3" stroke="#e07b91" stroke-width="1.4" d="M994.63,-514.47C994.63,-514.47 803.71,-514.47 803.71,-514.47 797.71,-514.47 791.71,-508.47 791.71,-502.47 791.71,-502.47 791.71,-457.44 791.71,-457.44 791.71,-451.44 797.71,-445.44 803.71,-445.44 803.71,-445.44 994.63,-445.44 994.63,-445.44 1000.63,-445.44 1006.63,-451.44 1006.63,-457.44 1006.63,-457.44 1006.63,-502.47 1006.63,-502.47 1006.63,-508.47 1000.63,-514.47 994.63,-514.47"/>
<text xml:space="preserve" text-anchor="middle" x="899.17" y="-492.53" font-family="Noto Sans KR" font-size="14.00" fill="#182033">Commit rejected</text>
<text xml:space="preserve" text-anchor="middle" x="899.17" y="-475.28" font-family="Noto Sans KR" font-size="14.00" fill="#182033">no HP / Shield / time mutation</text>
<text xml:space="preserve" text-anchor="middle" x="899.17" y="-458.03" font-family="Noto Sans KR" font-size="14.00" fill="#182033">no event</text>
</g>
<!-- commit&#45;&gt;reject -->
<g id="edge16" class="edge">
<title>commit&#45;&gt;reject</title>
<path fill="none" stroke="#dc2626" stroke-width="1.3" stroke-dasharray="5,2" d="M885.59,-681.12C881.34,-667.39 877.42,-654.75 877.42,-654.75 877.42,-654.75 877.42,-637.5 877.42,-637.5 877.42,-637.5 886.65,-571.07 893.08,-524.76"/>
<polygon fill="#dc2626" stroke="#dc2626" stroke-width="1.3" points="895.85,-525.18 894.18,-516.87 890.31,-524.41 895.85,-525.18"/>
<text xml:space="preserve" text-anchor="middle" x="886.79" y="-641.45" font-family="Noto Sans KR" font-size="14.00" fill="#dc2626">fail</text>
</g>
<!-- remains -->
<g id="node13" class="node">
<title>remains</title>
<path fill="#ffffff" stroke="#bac7db" stroke-width="1.4" d="M626.39,-416.15C626.39,-416.15 472.53,-386.2 472.53,-386.2 466.64,-385.06 466.64,-382.76 472.53,-381.62 472.53,-381.62 626.39,-351.67 626.39,-351.67 632.28,-350.53 644.06,-350.53 649.95,-351.67 649.95,-351.67 803.81,-381.62 803.81,-381.62 809.7,-382.76 809.7,-385.06 803.81,-386.2 803.81,-386.2 649.95,-416.15 649.95,-416.15 644.06,-417.29 632.28,-417.29 626.39,-416.15"/>
<text xml:space="preserve" text-anchor="middle" x="638.17" y="-379.23" font-family="Noto Sans KR" font-size="14.00" fill="#182033">Instance remains active?</text>
</g>
<!-- facts&#45;&gt;remains -->
<g id="edge19" class="edge">
<title>facts&#45;&gt;remains</title>
<path fill="none" stroke="#59687e" stroke-width="1.3" d="M638.17,-541C638.17,-509.61 638.17,-462.81 638.17,-428.64"/>
<polygon fill="#59687e" stroke="#59687e" stroke-width="1.3" points="640.97,-428.88 638.17,-420.88 635.37,-428.88 640.97,-428.88"/>
</g>
<!-- backlog -->
<g id="node14" class="node">
<title>backlog</title>
<path fill="#ffffff" stroke="#bac7db" stroke-width="1.4" d="M626.44,-275.61C626.44,-275.61 488.98,-246.12 488.98,-246.12 483.12,-244.86 483.12,-242.34 488.98,-241.08 488.98,-241.08 626.44,-211.59 626.44,-211.59 632.3,-210.33 644.04,-210.33 649.9,-211.59 649.9,-211.59 787.36,-241.08 787.36,-241.08 793.22,-242.34 793.22,-244.86 787.36,-246.12 787.36,-246.12 649.9,-275.61 649.9,-275.61 644.04,-276.87 632.3,-276.87 626.44,-275.61"/>
<text xml:space="preserve" text-anchor="middle" x="638.17" y="-238.92" font-family="Noto Sans KR" font-size="14.00" fill="#182033">overdue tick remains?</text>
</g>
<!-- remains&#45;&gt;backlog -->
<g id="edge21" class="edge">
<title>remains&#45;&gt;backlog</title>
<path fill="none" stroke="#59687e" stroke-width="1.3" d="M638.17,-348.72C638.17,-330.46 638.17,-307.8 638.17,-288.28"/>
<polygon fill="#59687e" stroke="#59687e" stroke-width="1.3" points="640.97,-288.36 638.17,-280.36 635.37,-288.36 640.97,-288.36"/>
<text xml:space="preserve" text-anchor="middle" x="648.29" y="-309.08" font-family="Noto Sans KR" font-size="14.00" fill="#46566e">yes</text>
</g>
<!-- remains&#45;&gt;end -->
<g id="edge20" class="edge">
<title>remains&#45;&gt;end</title>
<path fill="none" stroke="#59687e" stroke-width="1.3" d="M592.9,-357.55C537.56,-326.54 451.17,-278.13 451.17,-278.13 451.17,-278.13 451.17,-86.04 451.17,-86.04 451.17,-86.04 472.83,-57.08 488.19,-36.54"/>
<polygon fill="#59687e" stroke="#59687e" stroke-width="1.3" points="490.38,-38.29 492.93,-30.21 485.9,-34.93 490.38,-38.29"/>
<text xml:space="preserve" text-anchor="middle" x="459.42" y="-168.77" font-family="Noto Sans KR" font-size="14.00" fill="#46566e">no</text>
</g>
<!-- schedule -->
<g id="node15" class="node">
<title>schedule</title>
<path fill="#ffffff" stroke="#bac7db" stroke-width="1.4" d="M837.63,-129.93C837.63,-129.93 682.71,-129.93 682.71,-129.93 676.71,-129.93 670.71,-123.93 670.71,-117.93 670.71,-117.93 670.71,-105.93 670.71,-105.93 670.71,-99.93 676.71,-93.93 682.71,-93.93 682.71,-93.93 837.63,-93.93 837.63,-93.93 843.63,-93.93 849.63,-99.93 849.63,-105.93 849.63,-105.93 849.63,-117.93 849.63,-117.93 849.63,-123.93 843.63,-129.93 837.63,-129.93"/>
<text xml:space="preserve" text-anchor="middle" x="760.17" y="-107.25" font-family="Noto Sans KR" font-size="14.00" fill="#182033">Keep next tick scheduled</text>
</g>
<!-- backlog&#45;&gt;schedule -->
<g id="edge24" class="edge">
<title>backlog&#45;&gt;schedule</title>
<path fill="none" stroke="#59687e" stroke-width="1.3" d="M664.94,-214.14C686.5,-191.24 716.48,-159.37 737.01,-137.55"/>
<polygon fill="#59687e" stroke="#59687e" stroke-width="1.3" points="738.79,-139.74 742.23,-132 734.71,-135.9 738.79,-139.74"/>
<text xml:space="preserve" text-anchor="middle" x="718.35" y="-168.77" font-family="Noto Sans KR" font-size="14.00" fill="#46566e">no</text>
</g>
<!-- continueCatchUp -->
<g id="node19" class="node">
<title>continueCatchUp</title>
<path fill="#f3eefc" stroke="#ab8fe0" stroke-width="1.4" d="M606.88,-137.82C606.88,-137.82 489.46,-137.82 489.46,-137.82 483.46,-137.82 477.46,-131.82 477.46,-125.82 477.46,-125.82 477.46,-98.04 477.46,-98.04 477.46,-92.04 483.46,-86.04 489.46,-86.04 489.46,-86.04 606.88,-86.04 606.88,-86.04 612.88,-86.04 618.88,-92.04 618.88,-98.04 618.88,-98.04 618.88,-125.82 618.88,-125.82 618.88,-131.82 612.88,-137.82 606.88,-137.82"/>
<text xml:space="preserve" text-anchor="middle" x="548.17" y="-115.88" font-family="Noto Sans KR" font-size="14.00" fill="#182033">Continue catch&#45;up</text>
<text xml:space="preserve" text-anchor="middle" x="548.17" y="-98.63" font-family="Noto Sans KR" font-size="14.00" fill="#182033">next overdue tick</text>
</g>
<!-- backlog&#45;&gt;continueCatchUp -->
<g id="edge22" class="edge">
<title>backlog&#45;&gt;continueCatchUp</title>
<path fill="none" stroke="#59687e" stroke-width="1.3" d="M616.56,-213.04C605.33,-197.68 593.92,-182.07 593.92,-182.07 593.92,-182.07 581.95,-163.98 570.26,-146.31"/>
<polygon fill="#59687e" stroke="#59687e" stroke-width="1.3" points="572.78,-145.05 566.03,-139.92 568.11,-148.14 572.78,-145.05"/>
<text xml:space="preserve" text-anchor="middle" x="604.04" y="-168.77" font-family="Noto Sans KR" font-size="14.00" fill="#46566e">yes</text>
</g>
<!-- schedule&#45;&gt;end -->
<g id="edge25" class="edge">
<title>schedule&#45;&gt;end</title>
<path fill="none" stroke="#59687e" stroke-width="1.3" d="M712.13,-93.28C657.12,-73.07 569.19,-40.77 527.12,-25.32"/>
<polygon fill="#59687e" stroke="#59687e" stroke-width="1.3" points="528.25,-22.75 519.77,-22.62 526.31,-28.01 528.25,-22.75"/>
</g>
<!-- removePlan&#45;&gt;removalCommit -->
<g id="edge4" class="edge">
<title>removePlan&#45;&gt;removalCommit</title>
<path fill="none" stroke="#59687e" stroke-width="1.3" d="M634.26,-1268.32C632.37,-1179.53 628.02,-975.14 626.1,-885.17"/>
<polygon fill="#59687e" stroke="#59687e" stroke-width="1.3" points="628.91,-885.19 625.94,-877.25 623.31,-885.31 628.91,-885.19"/>
</g>
<!-- removalCommit&#45;&gt;facts -->
<g id="edge5" class="edge">
<title>removalCommit&#45;&gt;facts</title>
<path fill="none" stroke="#59687e" stroke-width="1.3" d="M626.86,-805.27C629.19,-758.1 633.42,-672.78 636,-620.86"/>
<polygon fill="#59687e" stroke="#59687e" stroke-width="1.3" points="638.79,-621.04 636.39,-612.91 633.2,-620.77 638.79,-621.04"/>
</g>
<!-- reject&#45;&gt;end -->
<g id="edge17" class="edge">
<title>reject&#45;&gt;end</title>
<path fill="none" stroke="#59687e" stroke-width="1.3" d="M905.18,-444.93C913.67,-396.84 928.17,-314.75 928.17,-314.75 928.17,-314.75 928.17,-314.75 928.17,-110.93 928.17,-110.93 875.17,-86.04 875.17,-86.04 875.17,-86.04 612.07,-36.87 528.4,-21.23"/>
<polygon fill="#59687e" stroke="#59687e" stroke-width="1.3" points="528.99,-18.5 520.61,-19.78 527.96,-24 528.99,-18.5"/>
</g>
<!-- continueCatchUp&#45;&gt;cap -->
<g id="edge23" class="edge">
<title>continueCatchUp:e&#45;&gt;cap:e</title>
<path fill="none" stroke="#8292a8" stroke-width="1.3" stroke-dasharray="5,2" d="M619.88,-111.93C619.88,-111.93 645.17,-137.82 645.17,-137.82 645.17,-137.82 739.17,-164.82 739.17,-164.82 739.17,-164.82 825.17,-209.07 825.17,-209.07 825.17,-209.07 967.17,-305.13 967.17,-305.13 967.17,-305.13 1021.17,-445.44 1021.17,-445.44 1021.17,-445.44 1039.17,-681.75 1039.17,-681.75 1039.17,-681.75 1041.17,-805.78 1041.17,-805.78 1041.17,-805.78 1041.17,-874.81 1041.17,-874.81 1041.17,-874.81 582.17,-1241.68 582.17,-1241.68 582.17,-1241.68 526.17,-1268.68 526.17,-1268.68 526.17,-1268.68 526.17,-1354.96 526.17,-1354.96 526.17,-1354.96 558.01,-1381.96 558.01,-1381.96 558.01,-1381.96 558.54,-1409.29 558.83,-1424.24"/>
<polygon fill="#8292a8" stroke="#8292a8" stroke-width="1.3" points="556.02,-1423.83 558.98,-1431.77 561.62,-1423.72 556.02,-1423.83"/>
</g>
</g>
</svg>
