<?xml version="1.0" encoding="UTF-8" standalone="no"?>
<!DOCTYPE svg PUBLIC "-//W3C//DTD SVG 1.1//EN"
 "http://www.w3.org/Graphics/SVG/1.1/DTD/svg11.dtd">
<!-- Generated by graphviz version 15.0.0 (20260523.1842)
 -->
<!-- Title: G Pages: 1 -->
<svg width="830pt" height="1024pt"
 viewBox="9.00 9.00 821.00 1016.00" xmlns="http://www.w3.org/2000/svg" xmlns:xlink="http://www.w3.org/1999/xlink">
<g id="graph0" class="graph" transform="scale(1 1) rotate(0) translate(26.64 997.64)">
<title>G</title>
<polygon fill="#ffffff" stroke="none" points="-18,18 -18,-989 794.71,-989 794.71,18 -18,18"/>
<g id="clust1" class="cluster">
<title>cluster_def</title>
<path fill="#ffffff" stroke="#dbe3ef" d="M20,-411C20,-411 473.04,-411 473.04,-411 479.04,-411 485.04,-417 485.04,-423 485.04,-423 485.04,-951 485.04,-951 485.04,-957 479.04,-963 473.04,-963 473.04,-963 20,-963 20,-963 14,-963 8,-957 8,-951 8,-951 8,-423 8,-423 8,-417 14,-411 20,-411"/>
<text xml:space="preserve" text-anchor="middle" x="246.52" y="-946.4" font-family="Noto Sans CJK KR" font-size="14.00">Status Definition Data</text>
</g>
<g id="clust2" class="cluster">
<title>cluster_runtime</title>
<path fill="#ffffff" stroke="#dbe3ef" d="M239.47,-8C239.47,-8 756.71,-8 756.71,-8 762.71,-8 768.71,-14 768.71,-20 768.71,-20 768.71,-399 768.71,-399 768.71,-405 762.71,-411 756.71,-411 756.71,-411 239.47,-411 239.47,-411 233.47,-411 227.47,-405 227.47,-399 227.47,-399 227.47,-20 227.47,-20 227.47,-14 233.47,-8 239.47,-8"/>
<text xml:space="preserve" text-anchor="middle" x="498.09" y="-394.4" font-family="Noto Sans CJK KR" font-size="14.00">Status Runtime State</text>
</g>
<!-- StatusDefinition -->
<g id="node1" class="node">
<title>StatusDefinition</title>
<path fill="#ffffff" stroke="#bac7db" stroke-width="1.4" d="M107.93,-665.08C107.93,-665.08 20,-665.08 20,-665.08 14,-665.08 8,-659.08 8,-653.08 8,-653.08 8,-596.92 8,-596.92 8,-590.92 14,-584.92 20,-584.92 20,-584.92 107.93,-584.92 107.93,-584.92 113.93,-584.92 119.93,-590.92 119.93,-596.92 119.93,-596.92 119.93,-653.08 119.93,-653.08 119.93,-659.08 113.93,-665.08 107.93,-665.08"/>
<text xml:space="preserve" text-anchor="middle" x="63.97" y="-646" font-family="Noto Sans CJK KR" font-size="14.00" fill="#182033">StatusDefinition</text>
<text xml:space="preserve" text-anchor="middle" x="63.97" y="-629.2" font-family="Noto Sans CJK KR" font-size="14.00" fill="#182033">&#45; id</text>
<text xml:space="preserve" text-anchor="middle" x="63.97" y="-612.4" font-family="Noto Sans CJK KR" font-size="14.00" fill="#182033">&#45; displayName</text>
<text xml:space="preserve" text-anchor="middle" x="63.97" y="-595.6" font-family="Noto Sans CJK KR" font-size="14.00" fill="#182033">&#45; tags</text>
</g>
<!-- DurationRule -->
<g id="node2" class="node">
<title>DurationRule</title>
<path fill="#ffffff" stroke="#bac7db" stroke-width="1.4" d="M458.65,-491.08C458.65,-491.08 376.57,-491.08 376.57,-491.08 370.57,-491.08 364.57,-485.08 364.57,-479.08 364.57,-479.08 364.57,-422.92 364.57,-422.92 364.57,-416.92 370.57,-410.92 376.57,-410.92 376.57,-410.92 458.65,-410.92 458.65,-410.92 464.65,-410.92 470.65,-416.92 470.65,-422.92 470.65,-422.92 470.65,-479.08 470.65,-479.08 470.65,-485.08 464.65,-491.08 458.65,-491.08"/>
<text xml:space="preserve" text-anchor="middle" x="417.61" y="-472" font-family="Noto Sans CJK KR" font-size="14.00" fill="#182033">DurationRule</text>
<text xml:space="preserve" text-anchor="middle" x="417.61" y="-455.2" font-family="Noto Sans CJK KR" font-size="14.00" fill="#182033">&#45; durationTicks</text>
<text xml:space="preserve" text-anchor="middle" x="417.61" y="-438.4" font-family="Noto Sans CJK KR" font-size="14.00" fill="#182033">&#45; clockDomain</text>
<text xml:space="preserve" text-anchor="middle" x="417.61" y="-421.6" font-family="Noto Sans CJK KR" font-size="14.00" fill="#182033">&#45; refreshPolicy</text>
</g>
<!-- StatusDefinition&#45;&gt;DurationRule -->
<g id="edge1" class="edge">
<title>StatusDefinition&#45;&gt;DurationRule</title>
<path fill="none" stroke="#59687e" stroke-width="1.3" d="M63.71,-584.64C63.71,-533.24 63.71,-451 63.71,-451 63.71,-451 354.28,-451 354.28,-451"/>
<polygon fill="#59687e" stroke="#59687e" stroke-width="1.3" points="354.28,-453.8 362.28,-451 354.28,-448.2 354.28,-453.8"/>
</g>
<!-- StackingRule -->
<g id="node3" class="node">
<title>StackingRule</title>
<path fill="#ffffff" stroke="#bac7db" stroke-width="1.4" d="M453.41,-607.08C453.41,-607.08 381.82,-607.08 381.82,-607.08 375.82,-607.08 369.82,-601.08 369.82,-595.08 369.82,-595.08 369.82,-538.92 369.82,-538.92 369.82,-532.92 375.82,-526.92 381.82,-526.92 381.82,-526.92 453.41,-526.92 453.41,-526.92 459.41,-526.92 465.41,-532.92 465.41,-538.92 465.41,-538.92 465.41,-595.08 465.41,-595.08 465.41,-601.08 459.41,-607.08 453.41,-607.08"/>
<text xml:space="preserve" text-anchor="middle" x="417.61" y="-588" font-family="Noto Sans CJK KR" font-size="14.00" fill="#182033">StackingRule</text>
<text xml:space="preserve" text-anchor="middle" x="417.61" y="-571.2" font-family="Noto Sans CJK KR" font-size="14.00" fill="#182033">&#45; type</text>
<text xml:space="preserve" text-anchor="middle" x="417.61" y="-554.4" font-family="Noto Sans CJK KR" font-size="14.00" fill="#182033">&#45; maxStacks</text>
<text xml:space="preserve" text-anchor="middle" x="417.61" y="-537.6" font-family="Noto Sans CJK KR" font-size="14.00" fill="#182033">&#45; onReapply</text>
</g>
<!-- StatusDefinition&#45;&gt;StackingRule -->
<g id="edge2" class="edge">
<title>StatusDefinition&#45;&gt;StackingRule</title>
<path fill="none" stroke="#59687e" stroke-width="1.3" d="M120.39,-599.69C120.39,-599.69 359.37,-599.69 359.37,-599.69"/>
<polygon fill="#59687e" stroke="#59687e" stroke-width="1.3" points="359.37,-602.49 367.37,-599.69 359.37,-596.89 359.37,-602.49"/>
</g>
<!-- TickRule -->
<g id="node4" class="node">
<title>TickRule</title>
<path fill="#ffffff" stroke="#bac7db" stroke-width="1.4" d="M473.04,-723.08C473.04,-723.08 362.19,-723.08 362.19,-723.08 356.19,-723.08 350.19,-717.08 350.19,-711.08 350.19,-711.08 350.19,-654.92 350.19,-654.92 350.19,-648.92 356.19,-642.92 362.19,-642.92 362.19,-642.92 473.04,-642.92 473.04,-642.92 479.04,-642.92 485.04,-648.92 485.04,-654.92 485.04,-654.92 485.04,-711.08 485.04,-711.08 485.04,-717.08 479.04,-723.08 473.04,-723.08"/>
<text xml:space="preserve" text-anchor="middle" x="417.61" y="-704" font-family="Noto Sans CJK KR" font-size="14.00" fill="#182033">TickRule</text>
<text xml:space="preserve" text-anchor="middle" x="417.61" y="-687.2" font-family="Noto Sans CJK KR" font-size="14.00" fill="#182033">&#45; intervalTicks</text>
<text xml:space="preserve" text-anchor="middle" x="417.61" y="-670.4" font-family="Noto Sans CJK KR" font-size="14.00" fill="#182033">&#45; startPolicy</text>
<text xml:space="preserve" text-anchor="middle" x="417.61" y="-653.6" font-family="Noto Sans CJK KR" font-size="14.00" fill="#182033">&#45; MaxCatchUpTicks</text>
</g>
<!-- StatusDefinition&#45;&gt;TickRule -->
<g id="edge3" class="edge">
<title>StatusDefinition&#45;&gt;TickRule</title>
<path fill="none" stroke="#59687e" stroke-width="1.3" d="M120.39,-654C120.39,-654 339.62,-654 339.62,-654"/>
<polygon fill="#59687e" stroke="#59687e" stroke-width="1.3" points="339.62,-656.8 347.62,-654 339.62,-651.2 339.62,-656.8"/>
</g>
<!-- ModifierTemplate -->
<g id="node5" class="node">
<title>ModifierTemplate</title>
<path fill="#ffffff" stroke="#bac7db" stroke-width="1.4" d="M467.01,-839.08C467.01,-839.08 368.22,-839.08 368.22,-839.08 362.22,-839.08 356.22,-833.08 356.22,-827.08 356.22,-827.08 356.22,-770.92 356.22,-770.92 356.22,-764.92 362.22,-758.92 368.22,-758.92 368.22,-758.92 467.01,-758.92 467.01,-758.92 473.01,-758.92 479.01,-764.92 479.01,-770.92 479.01,-770.92 479.01,-827.08 479.01,-827.08 479.01,-833.08 473.01,-839.08 467.01,-839.08"/>
<text xml:space="preserve" text-anchor="middle" x="417.61" y="-820" font-family="Noto Sans CJK KR" font-size="14.00" fill="#182033">ModifierTemplate</text>
<text xml:space="preserve" text-anchor="middle" x="417.61" y="-803.2" font-family="Noto Sans CJK KR" font-size="14.00" fill="#182033">&#45; stat</text>
<text xml:space="preserve" text-anchor="middle" x="417.61" y="-786.4" font-family="Noto Sans CJK KR" font-size="14.00" fill="#182033">&#45; operation</text>
<text xml:space="preserve" text-anchor="middle" x="417.61" y="-769.6" font-family="Noto Sans CJK KR" font-size="14.00" fill="#182033">&#45; value</text>
</g>
<!-- StatusDefinition&#45;&gt;ModifierTemplate -->
<g id="edge4" class="edge">
<title>StatusDefinition&#45;&gt;ModifierTemplate</title>
<path fill="none" stroke="#59687e" stroke-width="1.3" d="M82.71,-665.36C82.71,-716.76 82.71,-799 82.71,-799 82.71,-799 345.83,-799 345.83,-799"/>
<polygon fill="#59687e" stroke="#59687e" stroke-width="1.3" points="345.83,-801.8 353.83,-799 345.83,-796.2 345.83,-801.8"/>
</g>
<!-- PeriodicEffectRef -->
<g id="node6" class="node">
<title>PeriodicEffectRef</title>
<path fill="#ffffff" stroke="#bac7db" stroke-width="1.4" d="M466.22,-938.68C466.22,-938.68 369,-938.68 369,-938.68 363,-938.68 357,-932.68 357,-926.68 357,-926.68 357,-887.32 357,-887.32 357,-881.32 363,-875.32 369,-875.32 369,-875.32 466.22,-875.32 466.22,-875.32 472.22,-875.32 478.22,-881.32 478.22,-887.32 478.22,-887.32 478.22,-926.68 478.22,-926.68 478.22,-932.68 472.22,-938.68 466.22,-938.68"/>
<text xml:space="preserve" text-anchor="middle" x="417.61" y="-919.6" font-family="Noto Sans CJK KR" font-size="14.00" fill="#182033">PeriodicEffectRef</text>
<text xml:space="preserve" text-anchor="middle" x="417.61" y="-902.8" font-family="Noto Sans CJK KR" font-size="14.00" fill="#182033">&#45; effectId</text>
<text xml:space="preserve" text-anchor="middle" x="417.61" y="-886" font-family="Noto Sans CJK KR" font-size="14.00" fill="#182033">&#45; timing</text>
</g>
<!-- StatusDefinition&#45;&gt;PeriodicEffectRef -->
<g id="edge5" class="edge">
<title>StatusDefinition&#45;&gt;PeriodicEffectRef</title>
<path fill="none" stroke="#59687e" stroke-width="1.3" d="M45.71,-665.7C45.71,-743.8 45.71,-907 45.71,-907 45.71,-907 346.65,-907 346.65,-907"/>
<polygon fill="#59687e" stroke="#59687e" stroke-width="1.3" points="346.65,-909.8 354.65,-907 346.65,-904.2 346.65,-909.8"/>
</g>
<!-- StatusInstance -->
<g id="node7" class="node">
<title>StatusInstance</title>
<path fill="#ffffff" stroke="#bac7db" stroke-width="1.4" d="M595.75,-304.48C595.75,-304.48 239.47,-304.48 239.47,-304.48 233.47,-304.48 227.47,-298.48 227.47,-292.48 227.47,-292.48 227.47,-219.52 227.47,-219.52 227.47,-213.52 233.47,-207.52 239.47,-207.52 239.47,-207.52 595.75,-207.52 595.75,-207.52 601.75,-207.52 607.75,-213.52 607.75,-219.52 607.75,-219.52 607.75,-292.48 607.75,-292.48 607.75,-298.48 601.75,-304.48 595.75,-304.48"/>
<text xml:space="preserve" text-anchor="middle" x="417.61" y="-285.4" font-family="Noto Sans CJK KR" font-size="14.00" fill="#182033">StatusInstance</text>
<text xml:space="preserve" text-anchor="middle" x="417.61" y="-268.6" font-family="Noto Sans CJK KR" font-size="14.00" fill="#182033">&#45; instanceId</text>
<text xml:space="preserve" text-anchor="middle" x="417.61" y="-251.8" font-family="Noto Sans CJK KR" font-size="14.00" fill="#182033">&#45; target</text>
<text xml:space="preserve" text-anchor="middle" x="417.61" y="-235" font-family="Noto Sans CJK KR" font-size="14.00" fill="#182033">&#45; Source: SourceRef</text>
<text xml:space="preserve" text-anchor="middle" x="417.61" y="-218.2" font-family="Noto Sans CJK KR" font-size="14.00" fill="#182033">&#45; modifierSourceRef=SourceRef.Status(definitionId, instanceId)</text>
</g>
<!-- StatusDefinition&#45;&gt;StatusInstance -->
<g id="edge6" class="edge">
<title>StatusDefinition&#45;&gt;StatusInstance</title>
<path fill="none" stroke="#59687e" stroke-width="1.3" d="M120.39,-592.31C186.96,-592.31 288.71,-592.31 288.71,-592.31 288.71,-592.31 288.71,-314.87 288.71,-314.87"/>
<polygon fill="#59687e" stroke="#59687e" stroke-width="1.3" points="291.51,-314.87 288.71,-306.87 285.91,-314.87 291.51,-314.87"/>
<text xml:space="preserve" text-anchor="middle" x="173.7" y="-346.2" font-family="Noto Sans CJK KR" font-size="14.00" fill="#46566e">instantiate</text>
</g>
<!-- StackState -->
<g id="node8" class="node">
<title>StackState</title>
<path fill="#ffffff" stroke="#bac7db" stroke-width="1.4" d="M749.72,-71.68C749.72,-71.68 677.74,-71.68 677.74,-71.68 671.74,-71.68 665.74,-65.68 665.74,-59.68 665.74,-59.68 665.74,-20.32 665.74,-20.32 665.74,-14.32 671.74,-8.32 677.74,-8.32 677.74,-8.32 749.72,-8.32 749.72,-8.32 755.72,-8.32 761.72,-14.32 761.72,-20.32 761.72,-20.32 761.72,-59.68 761.72,-59.68 761.72,-65.68 755.72,-71.68 749.72,-71.68"/>
<text xml:space="preserve" text-anchor="middle" x="713.73" y="-52.6" font-family="Noto Sans CJK KR" font-size="14.00" fill="#182033">StackState</text>
<text xml:space="preserve" text-anchor="middle" x="713.73" y="-35.8" font-family="Noto Sans CJK KR" font-size="14.00" fill="#182033">&#45; count</text>
<text xml:space="preserve" text-anchor="middle" x="713.73" y="-19" font-family="Noto Sans CJK KR" font-size="14.00" fill="#182033">&#45; contributors</text>
</g>
<!-- StatusInstance&#45;&gt;StackState -->
<g id="edge7" class="edge">
<title>StatusInstance&#45;&gt;StackState</title>
<path fill="none" stroke="#59687e" stroke-width="1.3" d="M417.71,-206.99C417.71,-143.26 417.71,-40 417.71,-40 417.71,-40 655.21,-40 655.21,-40"/>
<polygon fill="#59687e" stroke="#59687e" stroke-width="1.3" points="655.21,-42.8 663.21,-40 655.21,-37.2 655.21,-42.8"/>
</g>
<!-- DurationState -->
<g id="node9" class="node">
<title>DurationState</title>
<path fill="#ffffff" stroke="#bac7db" stroke-width="1.4" d="M755.94,-188.08C755.94,-188.08 671.53,-188.08 671.53,-188.08 665.53,-188.08 659.53,-182.08 659.53,-176.08 659.53,-176.08 659.53,-119.92 659.53,-119.92 659.53,-113.92 665.53,-107.92 671.53,-107.92 671.53,-107.92 755.94,-107.92 755.94,-107.92 761.94,-107.92 767.94,-113.92 767.94,-119.92 767.94,-119.92 767.94,-176.08 767.94,-176.08 767.94,-182.08 761.94,-188.08 755.94,-188.08"/>
<text xml:space="preserve" text-anchor="middle" x="713.73" y="-169" font-family="Noto Sans CJK KR" font-size="14.00" fill="#182033">DurationState</text>
<text xml:space="preserve" text-anchor="middle" x="713.73" y="-152.2" font-family="Noto Sans CJK KR" font-size="14.00" fill="#182033">&#45; startTick</text>
<text xml:space="preserve" text-anchor="middle" x="713.73" y="-135.4" font-family="Noto Sans CJK KR" font-size="14.00" fill="#182033">&#45; expiresAtTick</text>
<text xml:space="preserve" text-anchor="middle" x="713.73" y="-118.6" font-family="Noto Sans CJK KR" font-size="14.00" fill="#182033">&#45; clockDomain</text>
</g>
<!-- StatusInstance&#45;&gt;DurationState -->
<g id="edge8" class="edge">
<title>StatusInstance&#45;&gt;DurationState</title>
<path fill="none" stroke="#59687e" stroke-width="1.3" d="M608.07,-215.92C665.55,-215.92 713.71,-215.92 713.71,-215.92 713.71,-215.92 713.71,-198.65 713.71,-198.65"/>
<polygon fill="#59687e" stroke="#59687e" stroke-width="1.3" points="716.51,-198.65 713.71,-190.65 710.91,-198.65 716.51,-198.65"/>
</g>
<!-- TickState -->
<g id="node10" class="node">
<title>TickState</title>
<path fill="#ffffff" stroke="#bac7db" stroke-width="1.4" d="M752.44,-287.68C752.44,-287.68 675.03,-287.68 675.03,-287.68 669.03,-287.68 663.03,-281.68 663.03,-275.68 663.03,-275.68 663.03,-236.32 663.03,-236.32 663.03,-230.32 669.03,-224.32 675.03,-224.32 675.03,-224.32 752.44,-224.32 752.44,-224.32 758.44,-224.32 764.44,-230.32 764.44,-236.32 764.44,-236.32 764.44,-275.68 764.44,-275.68 764.44,-281.68 758.44,-287.68 752.44,-287.68"/>
<text xml:space="preserve" text-anchor="middle" x="713.73" y="-268.6" font-family="Noto Sans CJK KR" font-size="14.00" fill="#182033">TickState</text>
<text xml:space="preserve" text-anchor="middle" x="713.73" y="-251.8" font-family="Noto Sans CJK KR" font-size="14.00" fill="#182033">&#45; nextTickAt</text>
<text xml:space="preserve" text-anchor="middle" x="713.73" y="-235" font-family="Noto Sans CJK KR" font-size="14.00" fill="#182033">&#45; elapsedTicks</text>
</g>
<!-- StatusInstance&#45;&gt;TickState -->
<g id="edge9" class="edge">
<title>StatusInstance&#45;&gt;TickState</title>
<path fill="none" stroke="#59687e" stroke-width="1.3" d="M608.08,-256C608.08,-256 652.51,-256 652.51,-256"/>
<polygon fill="#59687e" stroke="#59687e" stroke-width="1.3" points="652.51,-258.8 660.51,-256 652.51,-253.2 652.51,-258.8"/>
</g>
<!-- SnapshotState -->
<g id="node11" class="node">
<title>SnapshotState</title>
<path fill="#ffffff" stroke="#bac7db" stroke-width="1.4" d="M756.71,-386.68C756.71,-386.68 670.75,-386.68 670.75,-386.68 664.75,-386.68 658.75,-380.68 658.75,-374.68 658.75,-374.68 658.75,-335.32 658.75,-335.32 658.75,-329.32 664.75,-323.32 670.75,-323.32 670.75,-323.32 756.71,-323.32 756.71,-323.32 762.71,-323.32 768.71,-329.32 768.71,-335.32 768.71,-335.32 768.71,-374.68 768.71,-374.68 768.71,-380.68 762.71,-386.68 756.71,-386.68"/>
<text xml:space="preserve" text-anchor="middle" x="713.73" y="-367.6" font-family="Noto Sans CJK KR" font-size="14.00" fill="#182033">SnapshotState</text>
<text xml:space="preserve" text-anchor="middle" x="713.73" y="-350.8" font-family="Noto Sans CJK KR" font-size="14.00" fill="#182033">&#45; capturedStats?</text>
<text xml:space="preserve" text-anchor="middle" x="713.73" y="-334" font-family="Noto Sans CJK KR" font-size="14.00" fill="#182033">&#45; seed</text>
</g>
<!-- StatusInstance&#45;&gt;SnapshotState -->
<g id="edge10" class="edge">
<title>StatusInstance&#45;&gt;SnapshotState</title>
<path fill="none" stroke="#59687e" stroke-width="1.3" d="M608.07,-296.08C665.55,-296.08 713.71,-296.08 713.71,-296.08 713.71,-296.08 713.71,-312.81 713.71,-312.81"/>
<polygon fill="#59687e" stroke="#59687e" stroke-width="1.3" points="710.91,-312.81 713.71,-320.81 716.51,-312.81 710.91,-312.81"/>
</g>
</g>
</svg>
