<?xml version="1.0" encoding="UTF-8" standalone="no"?>
<!DOCTYPE svg PUBLIC "-//W3C//DTD SVG 1.1//EN"
 "http://www.w3.org/Graphics/SVG/1.1/DTD/svg11.dtd">
<!-- Generated by graphviz version 2.42.4 (0)
 -->
<!-- Title: G Pages: 1 -->
<svg width="705pt" height="914pt"
 viewBox="8.64 8.64 696.64 905.64" xmlns="http://www.w3.org/2000/svg" xmlns:xlink="http://www.w3.org/1999/xlink">
<g id="graph0" class="graph" transform="scale(1 1) rotate(0) translate(26.64 887.64)">
<title>G</title>
<polygon fill="#ffffff" stroke="transparent" points="-18,18 -18,-879 670,-879 670,18 -18,18"/>
<g id="clust1" class="cluster">
<title>cluster_def</title>
<path fill="#ffffff" stroke="#dbe3ef" d="M20,-368C20,-368 415.5,-368 415.5,-368 421.5,-368 427.5,-374 427.5,-380 427.5,-380 427.5,-841 427.5,-841 427.5,-847 421.5,-853 415.5,-853 415.5,-853 20,-853 20,-853 14,-853 8,-847 8,-841 8,-841 8,-380 8,-380 8,-374 14,-368 20,-368"/>
<text text-anchor="middle" x="217.75" y="-837.8" font-family="Noto Sans CJK KR" font-size="14.00">Status Definition Data</text>
</g>
<g id="clust2" class="cluster">
<title>cluster_runtime</title>
<path fill="#ffffff" stroke="#dbe3ef" d="M265,-8C265,-8 632,-8 632,-8 638,-8 644,-14 644,-20 644,-20 644,-356 644,-356 644,-362 638,-368 632,-368 632,-368 265,-368 265,-368 259,-368 253,-362 253,-356 253,-356 253,-20 253,-20 253,-14 259,-8 265,-8"/>
<text text-anchor="middle" x="448.5" y="-352.8" font-family="Noto Sans CJK KR" font-size="14.00">Status Runtime State</text>
</g>
<!-- StatusDefinition -->
<g id="node1" class="node">
<title>StatusDefinition</title>
<path fill="#ffffff" stroke="#bac7db" stroke-width="1.4" d="M121,-584C121,-584 20,-584 20,-584 14,-584 8,-578 8,-572 8,-572 8,-524 8,-524 8,-518 14,-512 20,-512 20,-512 121,-512 121,-512 127,-512 133,-518 133,-524 133,-524 133,-572 133,-572 133,-578 127,-584 121,-584"/>
<text text-anchor="middle" x="70.5" y="-566.8" font-family="Noto Sans CJK KR" font-size="14.00" fill="#182033">StatusDefinition</text>
<text text-anchor="middle" x="70.5" y="-551.8" font-family="Noto Sans CJK KR" font-size="14.00" fill="#182033">&#45; id</text>
<text text-anchor="middle" x="70.5" y="-536.8" font-family="Noto Sans CJK KR" font-size="14.00" fill="#182033">&#45; displayName</text>
<text text-anchor="middle" x="70.5" y="-521.8" font-family="Noto Sans CJK KR" font-size="14.00" fill="#182033">&#45; tags</text>
</g>
<!-- DurationRule -->
<g id="node2" class="node">
<title>DurationRule</title>
<path fill="#ffffff" stroke="#bac7db" stroke-width="1.4" d="M404,-425.5C404,-425.5 316,-425.5 316,-425.5 310,-425.5 304,-419.5 304,-413.5 304,-413.5 304,-380.5 304,-380.5 304,-374.5 310,-368.5 316,-368.5 316,-368.5 404,-368.5 404,-368.5 410,-368.5 416,-374.5 416,-380.5 416,-380.5 416,-413.5 416,-413.5 416,-419.5 410,-425.5 404,-425.5"/>
<text text-anchor="middle" x="360" y="-408.3" font-family="Noto Sans CJK KR" font-size="14.00" fill="#182033">DurationRule</text>
<text text-anchor="middle" x="360" y="-393.3" font-family="Noto Sans CJK KR" font-size="14.00" fill="#182033">&#45; base</text>
<text text-anchor="middle" x="360" y="-378.3" font-family="Noto Sans CJK KR" font-size="14.00" fill="#182033">&#45; refreshPolicy</text>
</g>
<!-- StatusDefinition&#45;&gt;DurationRule -->
<g id="edge1" class="edge">
<title>StatusDefinition&#45;&gt;DurationRule</title>
<path fill="none" stroke="#59687e" stroke-width="1.3" d="M71,-511.83C71,-467.16 71,-397 71,-397 71,-397 295.94,-397 295.94,-397"/>
<polygon fill="#59687e" stroke="#59687e" stroke-width="1.3" points="295.94,-399.8 303.94,-397 295.94,-394.2 295.94,-399.8"/>
</g>
<!-- StackingRule -->
<g id="node3" class="node">
<title>StackingRule</title>
<path fill="#ffffff" stroke="#bac7db" stroke-width="1.4" d="M401,-534C401,-534 319,-534 319,-534 313,-534 307,-528 307,-522 307,-522 307,-474 307,-474 307,-468 313,-462 319,-462 319,-462 401,-462 401,-462 407,-462 413,-468 413,-474 413,-474 413,-522 413,-522 413,-528 407,-534 401,-534"/>
<text text-anchor="middle" x="360" y="-516.8" font-family="Noto Sans CJK KR" font-size="14.00" fill="#182033">StackingRule</text>
<text text-anchor="middle" x="360" y="-501.8" font-family="Noto Sans CJK KR" font-size="14.00" fill="#182033">&#45; type</text>
<text text-anchor="middle" x="360" y="-486.8" font-family="Noto Sans CJK KR" font-size="14.00" fill="#182033">&#45; maxStacks</text>
<text text-anchor="middle" x="360" y="-471.8" font-family="Noto Sans CJK KR" font-size="14.00" fill="#182033">&#45; onReapply</text>
</g>
<!-- StatusDefinition&#45;&gt;StackingRule -->
<g id="edge2" class="edge">
<title>StatusDefinition&#45;&gt;StackingRule</title>
<path fill="none" stroke="#59687e" stroke-width="1.3" d="M133.32,-526.67C133.32,-526.67 298.53,-526.67 298.53,-526.67"/>
<polygon fill="#59687e" stroke="#59687e" stroke-width="1.3" points="298.53,-529.47 306.53,-526.67 298.53,-523.87 298.53,-529.47"/>
</g>
<!-- TickRule -->
<g id="node4" class="node">
<title>TickRule</title>
<path fill="#ffffff" stroke="#bac7db" stroke-width="1.4" d="M396.5,-627.5C396.5,-627.5 323.5,-627.5 323.5,-627.5 317.5,-627.5 311.5,-621.5 311.5,-615.5 311.5,-615.5 311.5,-582.5 311.5,-582.5 311.5,-576.5 317.5,-570.5 323.5,-570.5 323.5,-570.5 396.5,-570.5 396.5,-570.5 402.5,-570.5 408.5,-576.5 408.5,-582.5 408.5,-582.5 408.5,-615.5 408.5,-615.5 408.5,-621.5 402.5,-627.5 396.5,-627.5"/>
<text text-anchor="middle" x="360" y="-610.3" font-family="Noto Sans CJK KR" font-size="14.00" fill="#182033">TickRule</text>
<text text-anchor="middle" x="360" y="-595.3" font-family="Noto Sans CJK KR" font-size="14.00" fill="#182033">&#45; interval</text>
<text text-anchor="middle" x="360" y="-580.3" font-family="Noto Sans CJK KR" font-size="14.00" fill="#182033">&#45; startPolicy</text>
</g>
<!-- StatusDefinition&#45;&gt;TickRule -->
<g id="edge3" class="edge">
<title>StatusDefinition&#45;&gt;TickRule</title>
<path fill="none" stroke="#59687e" stroke-width="1.3" d="M133.32,-575C133.32,-575 303.18,-575 303.18,-575"/>
<polygon fill="#59687e" stroke="#59687e" stroke-width="1.3" points="303.18,-577.8 311.18,-575 303.18,-572.2 303.18,-577.8"/>
</g>
<!-- ModifierTemplate -->
<g id="node5" class="node">
<title>ModifierTemplate</title>
<path fill="#ffffff" stroke="#bac7db" stroke-width="1.4" d="M415.5,-736C415.5,-736 304.5,-736 304.5,-736 298.5,-736 292.5,-730 292.5,-724 292.5,-724 292.5,-676 292.5,-676 292.5,-670 298.5,-664 304.5,-664 304.5,-664 415.5,-664 415.5,-664 421.5,-664 427.5,-670 427.5,-676 427.5,-676 427.5,-724 427.5,-724 427.5,-730 421.5,-736 415.5,-736"/>
<text text-anchor="middle" x="360" y="-718.8" font-family="Noto Sans CJK KR" font-size="14.00" fill="#182033">ModifierTemplate</text>
<text text-anchor="middle" x="360" y="-703.8" font-family="Noto Sans CJK KR" font-size="14.00" fill="#182033">&#45; stat</text>
<text text-anchor="middle" x="360" y="-688.8" font-family="Noto Sans CJK KR" font-size="14.00" fill="#182033">&#45; operation</text>
<text text-anchor="middle" x="360" y="-673.8" font-family="Noto Sans CJK KR" font-size="14.00" fill="#182033">&#45; value</text>
</g>
<!-- StatusDefinition&#45;&gt;ModifierTemplate -->
<g id="edge4" class="edge">
<title>StatusDefinition&#45;&gt;ModifierTemplate</title>
<path fill="none" stroke="#59687e" stroke-width="1.3" d="M133.24,-579.5C200.89,-579.5 299,-579.5 299,-579.5 299,-579.5 299,-655.85 299,-655.85"/>
<polygon fill="#59687e" stroke="#59687e" stroke-width="1.3" points="296.2,-655.85 299,-663.85 301.8,-655.85 296.2,-655.85"/>
</g>
<!-- PeriodicEffectRef -->
<g id="node6" class="node">
<title>PeriodicEffectRef</title>
<path fill="#ffffff" stroke="#bac7db" stroke-width="1.4" d="M414,-829.5C414,-829.5 306,-829.5 306,-829.5 300,-829.5 294,-823.5 294,-817.5 294,-817.5 294,-784.5 294,-784.5 294,-778.5 300,-772.5 306,-772.5 306,-772.5 414,-772.5 414,-772.5 420,-772.5 426,-778.5 426,-784.5 426,-784.5 426,-817.5 426,-817.5 426,-823.5 420,-829.5 414,-829.5"/>
<text text-anchor="middle" x="360" y="-812.3" font-family="Noto Sans CJK KR" font-size="14.00" fill="#182033">PeriodicEffectRef</text>
<text text-anchor="middle" x="360" y="-797.3" font-family="Noto Sans CJK KR" font-size="14.00" fill="#182033">&#45; effectId</text>
<text text-anchor="middle" x="360" y="-782.3" font-family="Noto Sans CJK KR" font-size="14.00" fill="#182033">&#45; timing</text>
</g>
<!-- StatusDefinition&#45;&gt;PeriodicEffectRef -->
<g id="edge5" class="edge">
<title>StatusDefinition&#45;&gt;PeriodicEffectRef</title>
<path fill="none" stroke="#59687e" stroke-width="1.3" d="M71,-584.25C71,-654.21 71,-801 71,-801 71,-801 285.7,-801 285.7,-801"/>
<polygon fill="#59687e" stroke="#59687e" stroke-width="1.3" points="285.7,-803.8 293.7,-801 285.7,-798.2 285.7,-803.8"/>
</g>
<!-- StatusInstance -->
<g id="node7" class="node">
<title>StatusInstance</title>
<path fill="#ffffff" stroke="#bac7db" stroke-width="1.4" d="M455,-266.5C455,-266.5 265,-266.5 265,-266.5 259,-266.5 253,-260.5 253,-254.5 253,-254.5 253,-191.5 253,-191.5 253,-185.5 259,-179.5 265,-179.5 265,-179.5 455,-179.5 455,-179.5 461,-179.5 467,-185.5 467,-191.5 467,-191.5 467,-254.5 467,-254.5 467,-260.5 461,-266.5 455,-266.5"/>
<text text-anchor="middle" x="360" y="-249.3" font-family="Noto Sans CJK KR" font-size="14.00" fill="#182033">StatusInstance</text>
<text text-anchor="middle" x="360" y="-234.3" font-family="Noto Sans CJK KR" font-size="14.00" fill="#182033">&#45; instanceId</text>
<text text-anchor="middle" x="360" y="-219.3" font-family="Noto Sans CJK KR" font-size="14.00" fill="#182033">&#45; target</text>
<text text-anchor="middle" x="360" y="-204.3" font-family="Noto Sans CJK KR" font-size="14.00" fill="#182033">&#45; appliedBySourceId</text>
<text text-anchor="middle" x="360" y="-189.3" font-family="Noto Sans CJK KR" font-size="14.00" fill="#182033">&#45; modifierSourceId=instanceId</text>
</g>
<!-- StatusDefinition&#45;&gt;StatusInstance -->
<g id="edge6" class="edge">
<title>StatusDefinition&#45;&gt;StatusInstance</title>
<path fill="none" stroke="#59687e" stroke-width="1.3" d="M133.19,-519.33C192.66,-519.33 273,-519.33 273,-519.33 273,-519.33 273,-274.73 273,-274.73"/>
<polygon fill="#59687e" stroke="#59687e" stroke-width="1.3" points="275.8,-274.72 273,-266.73 270.2,-274.73 275.8,-274.72"/>
<text text-anchor="middle" x="193" y="-302.8" font-family="Noto Sans CJK KR" font-size="14.00" fill="#46566e">instantiate</text>
</g>
<!-- StackState -->
<g id="node8" class="node">
<title>StackState</title>
<path fill="#ffffff" stroke="#bac7db" stroke-width="1.4" d="M623,-65.5C623,-65.5 539,-65.5 539,-65.5 533,-65.5 527,-59.5 527,-53.5 527,-53.5 527,-20.5 527,-20.5 527,-14.5 533,-8.5 539,-8.5 539,-8.5 623,-8.5 623,-8.5 629,-8.5 635,-14.5 635,-20.5 635,-20.5 635,-53.5 635,-53.5 635,-59.5 629,-65.5 623,-65.5"/>
<text text-anchor="middle" x="581" y="-48.3" font-family="Noto Sans CJK KR" font-size="14.00" fill="#182033">StackState</text>
<text text-anchor="middle" x="581" y="-33.3" font-family="Noto Sans CJK KR" font-size="14.00" fill="#182033">&#45; count</text>
<text text-anchor="middle" x="581" y="-18.3" font-family="Noto Sans CJK KR" font-size="14.00" fill="#182033">&#45; contributors</text>
</g>
<!-- StatusInstance&#45;&gt;StackState -->
<g id="edge7" class="edge">
<title>StatusInstance&#45;&gt;StackState</title>
<path fill="none" stroke="#59687e" stroke-width="1.3" d="M360,-179.39C360,-124.42 360,-37 360,-37 360,-37 518.94,-37 518.94,-37"/>
<polygon fill="#59687e" stroke="#59687e" stroke-width="1.3" points="518.94,-39.8 526.94,-37 518.94,-34.2 518.94,-39.8"/>
</g>
<!-- DurationState -->
<g id="node9" class="node">
<title>DurationState</title>
<path fill="#ffffff" stroke="#bac7db" stroke-width="1.4" d="M624.5,-158.5C624.5,-158.5 537.5,-158.5 537.5,-158.5 531.5,-158.5 525.5,-152.5 525.5,-146.5 525.5,-146.5 525.5,-113.5 525.5,-113.5 525.5,-107.5 531.5,-101.5 537.5,-101.5 537.5,-101.5 624.5,-101.5 624.5,-101.5 630.5,-101.5 636.5,-107.5 636.5,-113.5 636.5,-113.5 636.5,-146.5 636.5,-146.5 636.5,-152.5 630.5,-158.5 624.5,-158.5"/>
<text text-anchor="middle" x="581" y="-141.3" font-family="Noto Sans CJK KR" font-size="14.00" fill="#182033">DurationState</text>
<text text-anchor="middle" x="581" y="-126.3" font-family="Noto Sans CJK KR" font-size="14.00" fill="#182033">&#45; remaining</text>
<text text-anchor="middle" x="581" y="-111.3" font-family="Noto Sans CJK KR" font-size="14.00" fill="#182033">&#45; startTime</text>
</g>
<!-- StatusInstance&#45;&gt;DurationState -->
<g id="edge8" class="edge">
<title>StatusInstance&#45;&gt;DurationState</title>
<path fill="none" stroke="#59687e" stroke-width="1.3" d="M467.1,-187C502.49,-187 533,-187 533,-187 533,-187 533,-166.83 533,-166.83"/>
<polygon fill="#59687e" stroke="#59687e" stroke-width="1.3" points="535.8,-166.83 533,-158.83 530.2,-166.83 535.8,-166.83"/>
</g>
<!-- TickState -->
<g id="node10" class="node">
<title>TickState</title>
<path fill="#ffffff" stroke="#bac7db" stroke-width="1.4" d="M610.5,-251.5C610.5,-251.5 551.5,-251.5 551.5,-251.5 545.5,-251.5 539.5,-245.5 539.5,-239.5 539.5,-239.5 539.5,-206.5 539.5,-206.5 539.5,-200.5 545.5,-194.5 551.5,-194.5 551.5,-194.5 610.5,-194.5 610.5,-194.5 616.5,-194.5 622.5,-200.5 622.5,-206.5 622.5,-206.5 622.5,-239.5 622.5,-239.5 622.5,-245.5 616.5,-251.5 610.5,-251.5"/>
<text text-anchor="middle" x="581" y="-234.3" font-family="Noto Sans CJK KR" font-size="14.00" fill="#182033">TickState</text>
<text text-anchor="middle" x="581" y="-219.3" font-family="Noto Sans CJK KR" font-size="14.00" fill="#182033">&#45; nextTick</text>
<text text-anchor="middle" x="581" y="-204.3" font-family="Noto Sans CJK KR" font-size="14.00" fill="#182033">&#45; elapsed</text>
</g>
<!-- StatusInstance&#45;&gt;TickState -->
<g id="edge9" class="edge">
<title>StatusInstance&#45;&gt;TickState</title>
<path fill="none" stroke="#59687e" stroke-width="1.3" d="M467.26,-223C467.26,-223 531.31,-223 531.31,-223"/>
<polygon fill="#59687e" stroke="#59687e" stroke-width="1.3" points="531.31,-225.8 539.31,-223 531.31,-220.2 531.31,-225.8"/>
</g>
<!-- SnapshotState -->
<g id="node11" class="node">
<title>SnapshotState</title>
<path fill="#ffffff" stroke="#bac7db" stroke-width="1.4" d="M632,-344.5C632,-344.5 530,-344.5 530,-344.5 524,-344.5 518,-338.5 518,-332.5 518,-332.5 518,-299.5 518,-299.5 518,-293.5 524,-287.5 530,-287.5 530,-287.5 632,-287.5 632,-287.5 638,-287.5 644,-293.5 644,-299.5 644,-299.5 644,-332.5 644,-332.5 644,-338.5 638,-344.5 632,-344.5"/>
<text text-anchor="middle" x="581" y="-327.3" font-family="Noto Sans CJK KR" font-size="14.00" fill="#182033">SnapshotState</text>
<text text-anchor="middle" x="581" y="-312.3" font-family="Noto Sans CJK KR" font-size="14.00" fill="#182033">&#45; capturedStats?</text>
<text text-anchor="middle" x="581" y="-297.3" font-family="Noto Sans CJK KR" font-size="14.00" fill="#182033">&#45; seed</text>
</g>
<!-- StatusInstance&#45;&gt;SnapshotState -->
<g id="edge10" class="edge">
<title>StatusInstance&#45;&gt;SnapshotState</title>
<path fill="none" stroke="#59687e" stroke-width="1.3" d="M467.15,-259C497.28,-259 522,-259 522,-259 522,-259 522,-279.17 522,-279.17"/>
<polygon fill="#59687e" stroke="#59687e" stroke-width="1.3" points="519.2,-279.17 522,-287.17 524.8,-279.17 519.2,-279.17"/>
</g>
</g>
</svg>
