<?xml version="1.0" encoding="UTF-8" standalone="no"?>
<!DOCTYPE svg PUBLIC "-//W3C//DTD SVG 1.1//EN"
 "http://www.w3.org/Graphics/SVG/1.1/DTD/svg11.dtd">
<!-- Generated by graphviz version 15.1.0 (20260618.0150)
 -->
<!-- Title: G Pages: 1 -->
<svg width="1735pt" height="868pt"
 viewBox="12.00 12.00 1724.00 857.00" xmlns="http://www.w3.org/2000/svg" xmlns:xlink="http://www.w3.org/1999/xlink">
<g id="graph0" class="graph" transform="scale(1.33333 1.33333) rotate(0) translate(26.64 624.51)">
<title>G</title>
<polygon fill="#ffffff" stroke="none" points="-18,18 -18,-615.87 1266,-615.87 1266,18 -18,18"/>
<g id="clust1" class="cluster">
<title>cluster_def</title>
<path fill="#ffffff" stroke="#dbe3ef" d="M20,-333.06C20,-333.06 820,-333.06 820,-333.06 826,-333.06 832,-339.06 832,-345.06 832,-345.06 832,-577.87 832,-577.87 832,-583.87 826,-589.87 820,-589.87 820,-589.87 20,-589.87 20,-589.87 14,-589.87 8,-583.87 8,-577.87 8,-577.87 8,-345.06 8,-345.06 8,-339.06 14,-333.06 20,-333.06"/>
<text xml:space="preserve" text-anchor="middle" x="420" y="-572.57" font-family="Noto Sans KR" font-size="14.00">Status Definition Data</text>
</g>
<g id="clust2" class="cluster">
<title>cluster_runtime</title>
<path fill="#ffffff" stroke="#dbe3ef" d="M646,-8C646,-8 1228,-8 1228,-8 1234,-8 1240,-14 1240,-20 1240,-20 1240,-287.31 1240,-287.31 1240,-293.31 1234,-299.31 1228,-299.31 1228,-299.31 646,-299.31 646,-299.31 640,-299.31 634,-293.31 634,-287.31 634,-287.31 634,-20 634,-20 634,-14 640,-8 646,-8"/>
<text xml:space="preserve" text-anchor="middle" x="937" y="-282.01" font-family="Noto Sans KR" font-size="14.00">Status Runtime State</text>
</g>
<!-- StatusDefinition -->
<g id="node1" class="node">
<title>StatusDefinition</title>
<path fill="#ffffff" stroke="#bac7db" stroke-width="1.4" d="M542.46,-564.62C542.46,-564.62 441.54,-564.62 441.54,-564.62 435.54,-564.62 429.54,-558.62 429.54,-552.62 429.54,-552.62 429.54,-490.34 429.54,-490.34 429.54,-484.34 435.54,-478.34 441.54,-478.34 441.54,-478.34 542.46,-478.34 542.46,-478.34 548.46,-478.34 554.46,-484.34 554.46,-490.34 554.46,-490.34 554.46,-552.62 554.46,-552.62 554.46,-558.62 548.46,-564.62 542.46,-564.62"/>
<text xml:space="preserve" text-anchor="middle" x="492" y="-542.68" font-family="Noto Sans KR" font-size="14.00" fill="#182033">StatusDefinition</text>
<text xml:space="preserve" text-anchor="middle" x="492" y="-525.43" font-family="Noto Sans KR" font-size="14.00" fill="#182033">&#45; id</text>
<text xml:space="preserve" text-anchor="middle" x="492" y="-508.18" font-family="Noto Sans KR" font-size="14.00" fill="#182033">&#45; displayName</text>
<text xml:space="preserve" text-anchor="middle" x="492" y="-490.93" font-family="Noto Sans KR" font-size="14.00" fill="#182033">&#45; tags</text>
</g>
<!-- DurationRule -->
<g id="node2" class="node">
<title>DurationRule</title>
<path fill="#ffffff" stroke="#bac7db" stroke-width="1.4" d="M113.71,-419.34C113.71,-419.34 20.29,-419.34 20.29,-419.34 14.29,-419.34 8.29,-413.34 8.29,-407.34 8.29,-407.34 8.29,-345.06 8.29,-345.06 8.29,-339.06 14.29,-333.06 20.29,-333.06 20.29,-333.06 113.71,-333.06 113.71,-333.06 119.71,-333.06 125.71,-339.06 125.71,-345.06 125.71,-345.06 125.71,-407.34 125.71,-407.34 125.71,-413.34 119.71,-419.34 113.71,-419.34"/>
<text xml:space="preserve" text-anchor="middle" x="67" y="-397.4" font-family="Noto Sans KR" font-size="14.00" fill="#182033">DurationRule</text>
<text xml:space="preserve" text-anchor="middle" x="67" y="-380.15" font-family="Noto Sans KR" font-size="14.00" fill="#182033">&#45; durationTicks</text>
<text xml:space="preserve" text-anchor="middle" x="67" y="-362.9" font-family="Noto Sans KR" font-size="14.00" fill="#182033">&#45; clockDomain</text>
<text xml:space="preserve" text-anchor="middle" x="67" y="-345.65" font-family="Noto Sans KR" font-size="14.00" fill="#182033">&#45; refreshPolicy</text>
</g>
<!-- StatusDefinition&#45;&gt;DurationRule -->
<g id="edge1" class="edge">
<title>StatusDefinition&#45;&gt;DurationRule</title>
<path fill="none" stroke="#59687e" stroke-width="1.3" d="M428.87,-501.81C330.05,-472.59 150,-419.34 150,-419.34 150,-419.34 143.73,-416.15 134.63,-411.54"/>
<polygon fill="#59687e" stroke="#59687e" stroke-width="1.3" points="136.15,-409.17 127.75,-408.04 133.61,-414.16 136.15,-409.17"/>
</g>
<!-- StackingRule -->
<g id="node3" class="node">
<title>StackingRule</title>
<path fill="#ffffff" stroke="#bac7db" stroke-width="1.4" d="M268.08,-419.34C268.08,-419.34 185.91,-419.34 185.91,-419.34 179.91,-419.34 173.91,-413.34 173.91,-407.34 173.91,-407.34 173.91,-345.06 173.91,-345.06 173.91,-339.06 179.91,-333.06 185.91,-333.06 185.91,-333.06 268.08,-333.06 268.08,-333.06 274.08,-333.06 280.08,-339.06 280.08,-345.06 280.08,-345.06 280.08,-407.34 280.08,-407.34 280.08,-413.34 274.08,-419.34 268.08,-419.34"/>
<text xml:space="preserve" text-anchor="middle" x="227" y="-397.4" font-family="Noto Sans KR" font-size="14.00" fill="#182033">StackingRule</text>
<text xml:space="preserve" text-anchor="middle" x="227" y="-380.15" font-family="Noto Sans KR" font-size="14.00" fill="#182033">&#45; type</text>
<text xml:space="preserve" text-anchor="middle" x="227" y="-362.9" font-family="Noto Sans KR" font-size="14.00" fill="#182033">&#45; maxStacks</text>
<text xml:space="preserve" text-anchor="middle" x="227" y="-345.65" font-family="Noto Sans KR" font-size="14.00" fill="#182033">&#45; onReapply</text>
</g>
<!-- StatusDefinition&#45;&gt;StackingRule -->
<g id="edge2" class="edge">
<title>StatusDefinition&#45;&gt;StackingRule</title>
<path fill="none" stroke="#59687e" stroke-width="1.3" d="M428.88,-486.52C374.26,-457.14 304,-419.34 304,-419.34 304,-419.34 297.91,-416.01 289.17,-411.22"/>
<polygon fill="#59687e" stroke="#59687e" stroke-width="1.3" points="290.57,-408.8 282.21,-407.41 287.88,-413.71 290.57,-408.8"/>
</g>
<!-- TickRule -->
<g id="node4" class="node">
<title>TickRule</title>
<path fill="#ffffff" stroke="#bac7db" stroke-width="1.4" d="M458.08,-419.34C458.08,-419.34 339.92,-419.34 339.92,-419.34 333.92,-419.34 327.92,-413.34 327.92,-407.34 327.92,-407.34 327.92,-345.06 327.92,-345.06 327.92,-339.06 333.92,-333.06 339.92,-333.06 339.92,-333.06 458.08,-333.06 458.08,-333.06 464.08,-333.06 470.08,-339.06 470.08,-345.06 470.08,-345.06 470.08,-407.34 470.08,-407.34 470.08,-413.34 464.08,-419.34 458.08,-419.34"/>
<text xml:space="preserve" text-anchor="middle" x="399" y="-397.4" font-family="Noto Sans KR" font-size="14.00" fill="#182033">TickRule</text>
<text xml:space="preserve" text-anchor="middle" x="399" y="-380.15" font-family="Noto Sans KR" font-size="14.00" fill="#182033">&#45; intervalTicks</text>
<text xml:space="preserve" text-anchor="middle" x="399" y="-362.9" font-family="Noto Sans KR" font-size="14.00" fill="#182033">&#45; startPolicy</text>
<text xml:space="preserve" text-anchor="middle" x="399" y="-345.65" font-family="Noto Sans KR" font-size="14.00" fill="#182033">&#45; MaxCatchUpTicks</text>
</g>
<!-- StatusDefinition&#45;&gt;TickRule -->
<g id="edge3" class="edge">
<title>StatusDefinition&#45;&gt;TickRule</title>
<path fill="none" stroke="#59687e" stroke-width="1.3" d="M464.35,-477.88C454.23,-462.28 442.67,-444.48 432.12,-428.22"/>
<polygon fill="#59687e" stroke="#59687e" stroke-width="1.3" points="434.48,-426.72 427.78,-421.53 429.78,-429.77 434.48,-426.72"/>
</g>
<!-- ModifierTemplate -->
<g id="node5" class="node">
<title>ModifierTemplate</title>
<path fill="#ffffff" stroke="#bac7db" stroke-width="1.4" d="M641.71,-419.34C641.71,-419.34 530.29,-419.34 530.29,-419.34 524.29,-419.34 518.29,-413.34 518.29,-407.34 518.29,-407.34 518.29,-345.06 518.29,-345.06 518.29,-339.06 524.29,-333.06 530.29,-333.06 530.29,-333.06 641.71,-333.06 641.71,-333.06 647.71,-333.06 653.71,-339.06 653.71,-345.06 653.71,-345.06 653.71,-407.34 653.71,-407.34 653.71,-413.34 647.71,-419.34 641.71,-419.34"/>
<text xml:space="preserve" text-anchor="middle" x="586" y="-397.4" font-family="Noto Sans KR" font-size="14.00" fill="#182033">ModifierTemplate</text>
<text xml:space="preserve" text-anchor="middle" x="586" y="-380.15" font-family="Noto Sans KR" font-size="14.00" fill="#182033">&#45; stat</text>
<text xml:space="preserve" text-anchor="middle" x="586" y="-362.9" font-family="Noto Sans KR" font-size="14.00" fill="#182033">&#45; operation</text>
<text xml:space="preserve" text-anchor="middle" x="586" y="-345.65" font-family="Noto Sans KR" font-size="14.00" fill="#182033">&#45; value</text>
</g>
<!-- StatusDefinition&#45;&gt;ModifierTemplate -->
<g id="edge4" class="edge">
<title>StatusDefinition&#45;&gt;ModifierTemplate</title>
<path fill="none" stroke="#59687e" stroke-width="1.3" d="M519.95,-477.88C530.27,-462.14 542.07,-444.15 552.82,-427.78"/>
<polygon fill="#59687e" stroke="#59687e" stroke-width="1.3" points="554.87,-429.75 556.92,-421.53 550.19,-426.68 554.87,-429.75"/>
</g>
<!-- PeriodicEffectRef -->
<g id="node6" class="node">
<title>PeriodicEffectRef</title>
<path fill="#ffffff" stroke="#bac7db" stroke-width="1.4" d="M820.09,-410.72C820.09,-410.72 713.91,-410.72 713.91,-410.72 707.91,-410.72 701.91,-404.72 701.91,-398.72 701.91,-398.72 701.91,-353.69 701.91,-353.69 701.91,-347.69 707.91,-341.69 713.91,-341.69 713.91,-341.69 820.09,-341.69 820.09,-341.69 826.09,-341.69 832.09,-347.69 832.09,-353.69 832.09,-353.69 832.09,-398.72 832.09,-398.72 832.09,-404.72 826.09,-410.72 820.09,-410.72"/>
<text xml:space="preserve" text-anchor="middle" x="767" y="-388.78" font-family="Noto Sans KR" font-size="14.00" fill="#182033">PeriodicEffectRef</text>
<text xml:space="preserve" text-anchor="middle" x="767" y="-371.53" font-family="Noto Sans KR" font-size="14.00" fill="#182033">&#45; effectId</text>
<text xml:space="preserve" text-anchor="middle" x="767" y="-354.28" font-family="Noto Sans KR" font-size="14.00" fill="#182033">&#45; timing</text>
</g>
<!-- StatusDefinition&#45;&gt;PeriodicEffectRef -->
<g id="edge5" class="edge">
<title>StatusDefinition&#45;&gt;PeriodicEffectRef</title>
<path fill="none" stroke="#59687e" stroke-width="1.3" d="M555.09,-487.61C596.04,-466.28 649.58,-438.38 692.6,-415.96"/>
<polygon fill="#59687e" stroke="#59687e" stroke-width="1.3" points="693.79,-418.5 699.59,-412.32 691.2,-413.54 693.79,-418.5"/>
</g>
<!-- Instantiation -->
<g id="node12" class="node">
<title>Instantiation</title>
<path fill="#eefbf6" stroke="#61b99a" stroke-width="1.4" d="M967.89,-399.21C967.89,-399.21 892.11,-399.21 892.11,-399.21 886.11,-399.21 880.11,-393.21 880.11,-387.21 880.11,-387.21 880.11,-365.19 880.11,-365.19 880.11,-359.19 886.11,-353.19 892.11,-353.19 892.11,-353.19 967.89,-353.19 967.89,-353.19 973.89,-353.19 979.89,-359.19 979.89,-365.19 979.89,-365.19 979.89,-387.21 979.89,-387.21 979.89,-393.21 973.89,-399.21 967.89,-399.21"/>
<text xml:space="preserve" text-anchor="middle" x="930" y="-380.15" font-family="Noto Sans KR" font-size="14.00" fill="#182033">Instantiate</text>
<text xml:space="preserve" text-anchor="middle" x="930" y="-362.9" font-family="Noto Sans KR" font-size="14.00" fill="#182033">runtime state</text>
</g>
<!-- StatusDefinition&#45;&gt;Instantiation -->
<g id="edge6" class="edge">
<title>StatusDefinition&#45;&gt;Instantiation</title>
<path fill="none" stroke="#59687e" stroke-width="1.3" d="M554.93,-502.4C656.18,-473.31 844,-419.34 844,-419.34 844,-419.34 863.37,-409.85 883.73,-399.87"/>
</g>
<!-- StatusInstance -->
<g id="node7" class="node">
<title>StatusInstance</title>
<path fill="#ffffff" stroke="#bac7db" stroke-width="1.4" d="M1047.96,-274.06C1047.96,-274.06 812.04,-274.06 812.04,-274.06 806.04,-274.06 800.04,-268.06 800.04,-262.06 800.04,-262.06 800.04,-165.28 800.04,-165.28 800.04,-159.28 806.04,-153.28 812.04,-153.28 812.04,-153.28 1047.96,-153.28 1047.96,-153.28 1053.96,-153.28 1059.96,-159.28 1059.96,-165.28 1059.96,-165.28 1059.96,-262.06 1059.96,-262.06 1059.96,-268.06 1053.96,-274.06 1047.96,-274.06"/>
<text xml:space="preserve" text-anchor="middle" x="930" y="-252.12" font-family="Noto Sans KR" font-size="14.00" fill="#182033">StatusInstance</text>
<text xml:space="preserve" text-anchor="middle" x="930" y="-234.87" font-family="Noto Sans KR" font-size="14.00" fill="#182033">&#45; instanceId</text>
<text xml:space="preserve" text-anchor="middle" x="930" y="-217.62" font-family="Noto Sans KR" font-size="14.00" fill="#182033">&#45; target</text>
<text xml:space="preserve" text-anchor="middle" x="930" y="-200.37" font-family="Noto Sans KR" font-size="14.00" fill="#182033">&#45; Source: SourceRef</text>
<text xml:space="preserve" text-anchor="middle" x="930" y="-183.12" font-family="Noto Sans KR" font-size="14.00" fill="#182033">&#45; modifierSourceRef=SourceRef.Status</text>
<text xml:space="preserve" text-anchor="middle" x="930" y="-165.87" font-family="Noto Sans KR" font-size="14.00" fill="#182033"> &#160;(definitionId, instanceId)</text>
</g>
<!-- StackState -->
<g id="node8" class="node">
<title>StackState</title>
<path fill="#ffffff" stroke="#bac7db" stroke-width="1.4" d="M731.59,-85.66C731.59,-85.66 646.41,-85.66 646.41,-85.66 640.41,-85.66 634.41,-79.66 634.41,-73.66 634.41,-73.66 634.41,-28.62 634.41,-28.62 634.41,-22.62 640.41,-16.62 646.41,-16.62 646.41,-16.62 731.59,-16.62 731.59,-16.62 737.59,-16.62 743.59,-22.62 743.59,-28.62 743.59,-28.62 743.59,-73.66 743.59,-73.66 743.59,-79.66 737.59,-85.66 731.59,-85.66"/>
<text xml:space="preserve" text-anchor="middle" x="689" y="-63.72" font-family="Noto Sans KR" font-size="14.00" fill="#182033">StackState</text>
<text xml:space="preserve" text-anchor="middle" x="689" y="-46.47" font-family="Noto Sans KR" font-size="14.00" fill="#182033">&#45; count</text>
<text xml:space="preserve" text-anchor="middle" x="689" y="-29.21" font-family="Noto Sans KR" font-size="14.00" fill="#182033">&#45; contributors</text>
</g>
<!-- StatusInstance&#45;&gt;StackState -->
<g id="edge8" class="edge">
<title>StatusInstance&#45;&gt;StackState</title>
<path fill="none" stroke="#59687e" stroke-width="1.3" d="M839.92,-152.67C809.25,-132.24 775.78,-109.94 748.16,-91.55"/>
<polygon fill="#59687e" stroke="#59687e" stroke-width="1.3" points="750.01,-89.42 741.8,-87.31 746.91,-94.08 750.01,-89.42"/>
</g>
<!-- DurationState -->
<g id="node9" class="node">
<title>DurationState</title>
<path fill="#ffffff" stroke="#bac7db" stroke-width="1.4" d="M894.59,-94.28C894.59,-94.28 803.41,-94.28 803.41,-94.28 797.41,-94.28 791.41,-88.28 791.41,-82.28 791.41,-82.28 791.41,-20 791.41,-20 791.41,-14 797.41,-8 803.41,-8 803.41,-8 894.59,-8 894.59,-8 900.59,-8 906.59,-14 906.59,-20 906.59,-20 906.59,-82.28 906.59,-82.28 906.59,-88.28 900.59,-94.28 894.59,-94.28"/>
<text xml:space="preserve" text-anchor="middle" x="849" y="-72.34" font-family="Noto Sans KR" font-size="14.00" fill="#182033">DurationState</text>
<text xml:space="preserve" text-anchor="middle" x="849" y="-55.09" font-family="Noto Sans KR" font-size="14.00" fill="#182033">&#45; startTick</text>
<text xml:space="preserve" text-anchor="middle" x="849" y="-37.84" font-family="Noto Sans KR" font-size="14.00" fill="#182033">&#45; expiresAtTick</text>
<text xml:space="preserve" text-anchor="middle" x="849" y="-20.59" font-family="Noto Sans KR" font-size="14.00" fill="#182033">&#45; clockDomain</text>
</g>
<!-- StatusInstance&#45;&gt;DurationState -->
<g id="edge9" class="edge">
<title>StatusInstance&#45;&gt;DurationState</title>
<path fill="none" stroke="#59687e" stroke-width="1.3" d="M899.84,-152.89C891.64,-136.65 882.84,-119.2 874.9,-103.47"/>
<polygon fill="#59687e" stroke="#59687e" stroke-width="1.3" points="877.58,-102.56 871.47,-96.68 872.58,-105.08 877.58,-102.56"/>
</g>
<!-- TickState -->
<g id="node10" class="node">
<title>TickState</title>
<path fill="#ffffff" stroke="#bac7db" stroke-width="1.4" d="M1055.84,-85.66C1055.84,-85.66 966.16,-85.66 966.16,-85.66 960.16,-85.66 954.16,-79.66 954.16,-73.66 954.16,-73.66 954.16,-28.62 954.16,-28.62 954.16,-22.62 960.16,-16.62 966.16,-16.62 966.16,-16.62 1055.84,-16.62 1055.84,-16.62 1061.84,-16.62 1067.84,-22.62 1067.84,-28.62 1067.84,-28.62 1067.84,-73.66 1067.84,-73.66 1067.84,-79.66 1061.84,-85.66 1055.84,-85.66"/>
<text xml:space="preserve" text-anchor="middle" x="1011" y="-63.72" font-family="Noto Sans KR" font-size="14.00" fill="#182033">TickState</text>
<text xml:space="preserve" text-anchor="middle" x="1011" y="-46.47" font-family="Noto Sans KR" font-size="14.00" fill="#182033">&#45; nextTickAt</text>
<text xml:space="preserve" text-anchor="middle" x="1011" y="-29.21" font-family="Noto Sans KR" font-size="14.00" fill="#182033">&#45; elapsedTicks</text>
</g>
<!-- StatusInstance&#45;&gt;TickState -->
<g id="edge10" class="edge">
<title>StatusInstance&#45;&gt;TickState</title>
<path fill="none" stroke="#59687e" stroke-width="1.3" d="M960.16,-152.89C969.9,-133.59 980.5,-112.59 989.48,-94.78"/>
<polygon fill="#59687e" stroke="#59687e" stroke-width="1.3" points="991.76,-96.48 992.87,-88.08 986.76,-93.96 991.76,-96.48"/>
</g>
<!-- SnapshotState -->
<g id="node11" class="node">
<title>SnapshotState</title>
<path fill="#ffffff" stroke="#bac7db" stroke-width="1.4" d="M1228.46,-85.66C1228.46,-85.66 1127.54,-85.66 1127.54,-85.66 1121.54,-85.66 1115.54,-79.66 1115.54,-73.66 1115.54,-73.66 1115.54,-28.62 1115.54,-28.62 1115.54,-22.62 1121.54,-16.62 1127.54,-16.62 1127.54,-16.62 1228.46,-16.62 1228.46,-16.62 1234.46,-16.62 1240.46,-22.62 1240.46,-28.62 1240.46,-28.62 1240.46,-73.66 1240.46,-73.66 1240.46,-79.66 1234.46,-85.66 1228.46,-85.66"/>
<text xml:space="preserve" text-anchor="middle" x="1178" y="-63.72" font-family="Noto Sans KR" font-size="14.00" fill="#182033">SnapshotState</text>
<text xml:space="preserve" text-anchor="middle" x="1178" y="-46.47" font-family="Noto Sans KR" font-size="14.00" fill="#182033">&#45; capturedStats?</text>
<text xml:space="preserve" text-anchor="middle" x="1178" y="-29.21" font-family="Noto Sans KR" font-size="14.00" fill="#182033">&#45; seed</text>
</g>
<!-- StatusInstance&#45;&gt;SnapshotState -->
<g id="edge11" class="edge">
<title>StatusInstance&#45;&gt;SnapshotState</title>
<path fill="none" stroke="#59687e" stroke-width="1.3" d="M1022.7,-152.67C1054.25,-132.24 1088.7,-109.94 1117.12,-91.55"/>
<polygon fill="#59687e" stroke="#59687e" stroke-width="1.3" points="1118.5,-93.99 1123.7,-87.29 1115.46,-89.29 1118.5,-93.99"/>
</g>
<!-- Instantiation&#45;&gt;StatusInstance -->
<g id="edge7" class="edge">
<title>Instantiation&#45;&gt;StatusInstance</title>
<path fill="none" stroke="#59687e" stroke-width="1.3" d="M930,-352.54C930,-334.69 930,-308.8 930,-284.26"/>
<polygon fill="#59687e" stroke="#59687e" stroke-width="1.3" points="932.8,-284.55 930,-276.55 927.2,-284.55 932.8,-284.55"/>
</g>
</g>
</svg>
