<?xml version="1.0" encoding="UTF-8" standalone="no"?>
<!DOCTYPE svg PUBLIC "-//W3C//DTD SVG 1.1//EN"
 "http://www.w3.org/Graphics/SVG/1.1/DTD/svg11.dtd">
<!-- Generated by graphviz version 15.0.0 (20260523.1842)
 -->
<!-- Title: G Pages: 1 -->
<svg width="642pt" height="974pt"
 viewBox="9.00 9.00 634.00 966.00" xmlns="http://www.w3.org/2000/svg" xmlns:xlink="http://www.w3.org/1999/xlink">
<g id="graph0" class="graph" transform="scale(1 1) rotate(0) translate(26.64 947.64)">
<title>G</title>
<polygon fill="#ffffff" stroke="none" points="-18,18 -18,-939 606.92,-939 606.92,18 -18,18"/>
<g id="clust1" class="cluster">
<title>cluster_def</title>
<path fill="#ffffff" stroke="#dbe3ef" d="M20,-393C20,-393 373.11,-393 373.11,-393 379.11,-393 385.11,-399 385.11,-405 385.11,-405 385.11,-901 385.11,-901 385.11,-907 379.11,-913 373.11,-913 373.11,-913 20,-913 20,-913 14,-913 8,-907 8,-901 8,-901 8,-405 8,-405 8,-399 14,-393 20,-393"/>
<text xml:space="preserve" text-anchor="middle" x="196.56" y="-896.4" font-family="Noto Sans CJK KR" font-size="14.00">Status Definition Data</text>
</g>
<g id="clust2" class="cluster">
<title>cluster_runtime</title>
<path fill="#ffffff" stroke="#dbe3ef" d="M239.47,-8C239.47,-8 568.92,-8 568.92,-8 574.92,-8 580.92,-14 580.92,-20 580.92,-20 580.92,-381 580.92,-381 580.92,-387 574.92,-393 568.92,-393 568.92,-393 239.47,-393 239.47,-393 233.47,-393 227.47,-387 227.47,-381 227.47,-381 227.47,-20 227.47,-20 227.47,-14 233.47,-8 239.47,-8"/>
<text xml:space="preserve" text-anchor="middle" x="404.2" y="-376.4" font-family="Noto Sans CJK KR" font-size="14.00">Status Runtime State</text>
</g>
<!-- StatusDefinition -->
<g id="node1" class="node">
<title>StatusDefinition</title>
<path fill="#ffffff" stroke="#bac7db" stroke-width="1.4" d="M107.93,-627.08C107.93,-627.08 20,-627.08 20,-627.08 14,-627.08 8,-621.08 8,-615.08 8,-615.08 8,-558.92 8,-558.92 8,-552.92 14,-546.92 20,-546.92 20,-546.92 107.93,-546.92 107.93,-546.92 113.93,-546.92 119.93,-552.92 119.93,-558.92 119.93,-558.92 119.93,-615.08 119.93,-615.08 119.93,-621.08 113.93,-627.08 107.93,-627.08"/>
<text xml:space="preserve" text-anchor="middle" x="63.97" y="-608" font-family="Noto Sans CJK KR" font-size="14.00" fill="#182033">StatusDefinition&#13;</text>
<text xml:space="preserve" text-anchor="middle" x="63.97" y="-591.2" font-family="Noto Sans CJK KR" font-size="14.00" fill="#182033">&#45; id&#13;</text>
<text xml:space="preserve" text-anchor="middle" x="63.97" y="-574.4" font-family="Noto Sans CJK KR" font-size="14.00" fill="#182033">&#45; displayName&#13;</text>
<text xml:space="preserve" text-anchor="middle" x="63.97" y="-557.6" font-family="Noto Sans CJK KR" font-size="14.00" fill="#182033">&#45; tags</text>
</g>
<!-- DurationRule -->
<g id="node2" class="node">
<title>DurationRule</title>
<path fill="#ffffff" stroke="#bac7db" stroke-width="1.4" d="M363.2,-456.68C363.2,-456.68 284.24,-456.68 284.24,-456.68 278.24,-456.68 272.24,-450.68 272.24,-444.68 272.24,-444.68 272.24,-405.32 272.24,-405.32 272.24,-399.32 278.24,-393.32 284.24,-393.32 284.24,-393.32 363.2,-393.32 363.2,-393.32 369.2,-393.32 375.2,-399.32 375.2,-405.32 375.2,-405.32 375.2,-444.68 375.2,-444.68 375.2,-450.68 369.2,-456.68 363.2,-456.68"/>
<text xml:space="preserve" text-anchor="middle" x="323.72" y="-437.6" font-family="Noto Sans CJK KR" font-size="14.00" fill="#182033">DurationRule&#13;</text>
<text xml:space="preserve" text-anchor="middle" x="323.72" y="-420.8" font-family="Noto Sans CJK KR" font-size="14.00" fill="#182033">&#45; base&#13;</text>
<text xml:space="preserve" text-anchor="middle" x="323.72" y="-404" font-family="Noto Sans CJK KR" font-size="14.00" fill="#182033">&#45; refreshPolicy</text>
</g>
<!-- StatusDefinition&#45;&gt;DurationRule -->
<g id="edge1" class="edge">
<title>StatusDefinition&#45;&gt;DurationRule</title>
<path fill="none" stroke="#59687e" stroke-width="1.3" d="M63.92,-546.54C63.92,-498.56 63.92,-425 63.92,-425 63.92,-425 261.8,-425 261.8,-425"/>
<polygon fill="#59687e" stroke="#59687e" stroke-width="1.3" points="261.8,-427.8 269.8,-425 261.8,-422.2 261.8,-427.8"/>
</g>
<!-- StackingRule -->
<g id="node3" class="node">
<title>StackingRule</title>
<path fill="#ffffff" stroke="#bac7db" stroke-width="1.4" d="M359.51,-573.08C359.51,-573.08 287.92,-573.08 287.92,-573.08 281.92,-573.08 275.92,-567.08 275.92,-561.08 275.92,-561.08 275.92,-504.92 275.92,-504.92 275.92,-498.92 281.92,-492.92 287.92,-492.92 287.92,-492.92 359.51,-492.92 359.51,-492.92 365.51,-492.92 371.51,-498.92 371.51,-504.92 371.51,-504.92 371.51,-561.08 371.51,-561.08 371.51,-567.08 365.51,-573.08 359.51,-573.08"/>
<text xml:space="preserve" text-anchor="middle" x="323.72" y="-554" font-family="Noto Sans CJK KR" font-size="14.00" fill="#182033">StackingRule&#13;</text>
<text xml:space="preserve" text-anchor="middle" x="323.72" y="-537.2" font-family="Noto Sans CJK KR" font-size="14.00" fill="#182033">&#45; type&#13;</text>
<text xml:space="preserve" text-anchor="middle" x="323.72" y="-520.4" font-family="Noto Sans CJK KR" font-size="14.00" fill="#182033">&#45; maxStacks&#13;</text>
<text xml:space="preserve" text-anchor="middle" x="323.72" y="-503.6" font-family="Noto Sans CJK KR" font-size="14.00" fill="#182033">&#45; onReapply</text>
</g>
<!-- StatusDefinition&#45;&gt;StackingRule -->
<g id="edge2" class="edge">
<title>StatusDefinition&#45;&gt;StackingRule</title>
<path fill="none" stroke="#59687e" stroke-width="1.3" d="M120.33,-564.36C120.33,-564.36 265.35,-564.36 265.35,-564.36"/>
<polygon fill="#59687e" stroke="#59687e" stroke-width="1.3" points="265.35,-567.16 273.35,-564.36 265.35,-561.56 265.35,-567.16"/>
</g>
<!-- TickRule -->
<g id="node4" class="node">
<title>TickRule</title>
<path fill="#ffffff" stroke="#bac7db" stroke-width="1.4" d="M355.82,-672.68C355.82,-672.68 291.62,-672.68 291.62,-672.68 285.62,-672.68 279.62,-666.68 279.62,-660.68 279.62,-660.68 279.62,-621.32 279.62,-621.32 279.62,-615.32 285.62,-609.32 291.62,-609.32 291.62,-609.32 355.82,-609.32 355.82,-609.32 361.82,-609.32 367.82,-615.32 367.82,-621.32 367.82,-621.32 367.82,-660.68 367.82,-660.68 367.82,-666.68 361.82,-672.68 355.82,-672.68"/>
<text xml:space="preserve" text-anchor="middle" x="323.72" y="-653.6" font-family="Noto Sans CJK KR" font-size="14.00" fill="#182033">TickRule&#13;</text>
<text xml:space="preserve" text-anchor="middle" x="323.72" y="-636.8" font-family="Noto Sans CJK KR" font-size="14.00" fill="#182033">&#45; interval&#13;</text>
<text xml:space="preserve" text-anchor="middle" x="323.72" y="-620" font-family="Noto Sans CJK KR" font-size="14.00" fill="#182033">&#45; startPolicy</text>
</g>
<!-- StatusDefinition&#45;&gt;TickRule -->
<g id="edge3" class="edge">
<title>StatusDefinition&#45;&gt;TickRule</title>
<path fill="none" stroke="#59687e" stroke-width="1.3" d="M120.33,-615.24C120.33,-615.24 269.13,-615.24 269.13,-615.24"/>
<polygon fill="#59687e" stroke="#59687e" stroke-width="1.3" points="269.13,-618.04 277.13,-615.24 269.13,-612.44 269.13,-618.04"/>
</g>
<!-- ModifierTemplate -->
<g id="node5" class="node">
<title>ModifierTemplate</title>
<path fill="#ffffff" stroke="#bac7db" stroke-width="1.4" d="M373.11,-789.08C373.11,-789.08 274.32,-789.08 274.32,-789.08 268.32,-789.08 262.32,-783.08 262.32,-777.08 262.32,-777.08 262.32,-720.92 262.32,-720.92 262.32,-714.92 268.32,-708.92 274.32,-708.92 274.32,-708.92 373.11,-708.92 373.11,-708.92 379.11,-708.92 385.11,-714.92 385.11,-720.92 385.11,-720.92 385.11,-777.08 385.11,-777.08 385.11,-783.08 379.11,-789.08 373.11,-789.08"/>
<text xml:space="preserve" text-anchor="middle" x="323.72" y="-770" font-family="Noto Sans CJK KR" font-size="14.00" fill="#182033">ModifierTemplate&#13;</text>
<text xml:space="preserve" text-anchor="middle" x="323.72" y="-753.2" font-family="Noto Sans CJK KR" font-size="14.00" fill="#182033">&#45; stat&#13;</text>
<text xml:space="preserve" text-anchor="middle" x="323.72" y="-736.4" font-family="Noto Sans CJK KR" font-size="14.00" fill="#182033">&#45; operation&#13;</text>
<text xml:space="preserve" text-anchor="middle" x="323.72" y="-719.6" font-family="Noto Sans CJK KR" font-size="14.00" fill="#182033">&#45; value</text>
</g>
<!-- StatusDefinition&#45;&gt;ModifierTemplate -->
<g id="edge4" class="edge">
<title>StatusDefinition&#45;&gt;ModifierTemplate</title>
<path fill="none" stroke="#59687e" stroke-width="1.3" d="M120.5,-621.16C180.55,-621.16 266.92,-621.16 266.92,-621.16 266.92,-621.16 266.92,-698.58 266.92,-698.58"/>
<polygon fill="#59687e" stroke="#59687e" stroke-width="1.3" points="264.12,-698.58 266.92,-706.58 269.72,-698.58 264.12,-698.58"/>
</g>
<!-- PeriodicEffectRef -->
<g id="node6" class="node">
<title>PeriodicEffectRef</title>
<path fill="#ffffff" stroke="#bac7db" stroke-width="1.4" d="M372.33,-888.68C372.33,-888.68 275.11,-888.68 275.11,-888.68 269.11,-888.68 263.11,-882.68 263.11,-876.68 263.11,-876.68 263.11,-837.32 263.11,-837.32 263.11,-831.32 269.11,-825.32 275.11,-825.32 275.11,-825.32 372.33,-825.32 372.33,-825.32 378.33,-825.32 384.33,-831.32 384.33,-837.32 384.33,-837.32 384.33,-876.68 384.33,-876.68 384.33,-882.68 378.33,-888.68 372.33,-888.68"/>
<text xml:space="preserve" text-anchor="middle" x="323.72" y="-869.6" font-family="Noto Sans CJK KR" font-size="14.00" fill="#182033">PeriodicEffectRef&#13;</text>
<text xml:space="preserve" text-anchor="middle" x="323.72" y="-852.8" font-family="Noto Sans CJK KR" font-size="14.00" fill="#182033">&#45; effectId&#13;</text>
<text xml:space="preserve" text-anchor="middle" x="323.72" y="-836" font-family="Noto Sans CJK KR" font-size="14.00" fill="#182033">&#45; timing</text>
</g>
<!-- StatusDefinition&#45;&gt;PeriodicEffectRef -->
<g id="edge5" class="edge">
<title>StatusDefinition&#45;&gt;PeriodicEffectRef</title>
<path fill="none" stroke="#59687e" stroke-width="1.3" d="M63.92,-627.71C63.92,-703.14 63.92,-857 63.92,-857 63.92,-857 252.51,-857 252.51,-857"/>
<polygon fill="#59687e" stroke="#59687e" stroke-width="1.3" points="252.51,-859.8 260.51,-857 252.51,-854.2 252.51,-859.8"/>
</g>
<!-- StatusInstance -->
<g id="node7" class="node">
<title>StatusInstance</title>
<path fill="#ffffff" stroke="#bac7db" stroke-width="1.4" d="M407.96,-286.48C407.96,-286.48 239.47,-286.48 239.47,-286.48 233.47,-286.48 227.47,-280.48 227.47,-274.48 227.47,-274.48 227.47,-201.52 227.47,-201.52 227.47,-195.52 233.47,-189.52 239.47,-189.52 239.47,-189.52 407.96,-189.52 407.96,-189.52 413.96,-189.52 419.96,-195.52 419.96,-201.52 419.96,-201.52 419.96,-274.48 419.96,-274.48 419.96,-280.48 413.96,-286.48 407.96,-286.48"/>
<text xml:space="preserve" text-anchor="middle" x="323.72" y="-267.4" font-family="Noto Sans CJK KR" font-size="14.00" fill="#182033">StatusInstance</text>
<text xml:space="preserve" text-anchor="middle" x="323.72" y="-250.6" font-family="Noto Sans CJK KR" font-size="14.00" fill="#182033">&#45; instanceId</text>
<text xml:space="preserve" text-anchor="middle" x="323.72" y="-233.8" font-family="Noto Sans CJK KR" font-size="14.00" fill="#182033">&#45; target</text>
<text xml:space="preserve" text-anchor="middle" x="323.72" y="-217" font-family="Noto Sans CJK KR" font-size="14.00" fill="#182033">&#45; Source: SourceRef</text>
<text xml:space="preserve" text-anchor="middle" x="323.72" y="-200.2" font-family="Noto Sans CJK KR" font-size="14.00" fill="#182033">&#45; modifierSourceId=instanceId</text>
</g>
<!-- StatusDefinition&#45;&gt;StatusInstance -->
<g id="edge6" class="edge">
<title>StatusDefinition&#45;&gt;StatusInstance</title>
<path fill="none" stroke="#59687e" stroke-width="1.3" d="M120.23,-555.64C173.35,-555.64 244.92,-555.64 244.92,-555.64 244.92,-555.64 244.92,-296.9 244.92,-296.9"/>
<polygon fill="#59687e" stroke="#59687e" stroke-width="1.3" points="247.72,-296.9 244.92,-288.9 242.12,-296.9 247.72,-296.9"/>
<text xml:space="preserve" text-anchor="middle" x="173.7" y="-324.2" font-family="Noto Sans CJK KR" font-size="14.00" fill="#46566e">instantiate</text>
</g>
<!-- StackState -->
<g id="node8" class="node">
<title>StackState</title>
<path fill="#ffffff" stroke="#bac7db" stroke-width="1.4" d="M561.93,-71.68C561.93,-71.68 489.95,-71.68 489.95,-71.68 483.95,-71.68 477.95,-65.68 477.95,-59.68 477.95,-59.68 477.95,-20.32 477.95,-20.32 477.95,-14.32 483.95,-8.32 489.95,-8.32 489.95,-8.32 561.93,-8.32 561.93,-8.32 567.93,-8.32 573.93,-14.32 573.93,-20.32 573.93,-20.32 573.93,-59.68 573.93,-59.68 573.93,-65.68 567.93,-71.68 561.93,-71.68"/>
<text xml:space="preserve" text-anchor="middle" x="525.94" y="-52.6" font-family="Noto Sans CJK KR" font-size="14.00" fill="#182033">StackState&#13;</text>
<text xml:space="preserve" text-anchor="middle" x="525.94" y="-35.8" font-family="Noto Sans CJK KR" font-size="14.00" fill="#182033">&#45; count&#13;</text>
<text xml:space="preserve" text-anchor="middle" x="525.94" y="-19" font-family="Noto Sans CJK KR" font-size="14.00" fill="#182033">&#45; contributors</text>
</g>
<!-- StatusInstance&#45;&gt;StackState -->
<g id="edge7" class="edge">
<title>StatusInstance&#45;&gt;StackState</title>
<path fill="none" stroke="#59687e" stroke-width="1.3" d="M323.92,-189.06C323.92,-130.42 323.92,-40 323.92,-40 323.92,-40 467.33,-40 467.33,-40"/>
<polygon fill="#59687e" stroke="#59687e" stroke-width="1.3" points="467.33,-42.8 475.33,-40 467.33,-37.2 467.33,-42.8"/>
</g>
<!-- DurationState -->
<g id="node9" class="node">
<title>DurationState</title>
<path fill="#ffffff" stroke="#bac7db" stroke-width="1.4" d="M562.9,-170.68C562.9,-170.68 488.98,-170.68 488.98,-170.68 482.98,-170.68 476.98,-164.68 476.98,-158.68 476.98,-158.68 476.98,-119.32 476.98,-119.32 476.98,-113.32 482.98,-107.32 488.98,-107.32 488.98,-107.32 562.9,-107.32 562.9,-107.32 568.9,-107.32 574.9,-113.32 574.9,-119.32 574.9,-119.32 574.9,-158.68 574.9,-158.68 574.9,-164.68 568.9,-170.68 562.9,-170.68"/>
<text xml:space="preserve" text-anchor="middle" x="525.94" y="-151.6" font-family="Noto Sans CJK KR" font-size="14.00" fill="#182033">DurationState&#13;</text>
<text xml:space="preserve" text-anchor="middle" x="525.94" y="-134.8" font-family="Noto Sans CJK KR" font-size="14.00" fill="#182033">&#45; remaining&#13;</text>
<text xml:space="preserve" text-anchor="middle" x="525.94" y="-118" font-family="Noto Sans CJK KR" font-size="14.00" fill="#182033">&#45; startTime</text>
</g>
<!-- StatusInstance&#45;&gt;DurationState -->
<g id="edge8" class="edge">
<title>StatusInstance&#45;&gt;DurationState</title>
<path fill="none" stroke="#59687e" stroke-width="1.3" d="M420.42,-197.92C452.38,-197.92 479.92,-197.92 479.92,-197.92 479.92,-197.92 479.92,-181.19 479.92,-181.19"/>
<polygon fill="#59687e" stroke="#59687e" stroke-width="1.3" points="482.72,-181.19 479.92,-173.19 477.12,-181.19 482.72,-181.19"/>
</g>
<!-- TickState -->
<g id="node10" class="node">
<title>TickState</title>
<path fill="#ffffff" stroke="#bac7db" stroke-width="1.4" d="M552.98,-269.68C552.98,-269.68 498.9,-269.68 498.9,-269.68 492.9,-269.68 486.9,-263.68 486.9,-257.68 486.9,-257.68 486.9,-218.32 486.9,-218.32 486.9,-212.32 492.9,-206.32 498.9,-206.32 498.9,-206.32 552.98,-206.32 552.98,-206.32 558.98,-206.32 564.98,-212.32 564.98,-218.32 564.98,-218.32 564.98,-257.68 564.98,-257.68 564.98,-263.68 558.98,-269.68 552.98,-269.68"/>
<text xml:space="preserve" text-anchor="middle" x="525.94" y="-250.6" font-family="Noto Sans CJK KR" font-size="14.00" fill="#182033">TickState&#13;</text>
<text xml:space="preserve" text-anchor="middle" x="525.94" y="-233.8" font-family="Noto Sans CJK KR" font-size="14.00" fill="#182033">&#45; nextTick&#13;</text>
<text xml:space="preserve" text-anchor="middle" x="525.94" y="-217" font-family="Noto Sans CJK KR" font-size="14.00" fill="#182033">&#45; elapsed</text>
</g>
<!-- StatusInstance&#45;&gt;TickState -->
<g id="edge9" class="edge">
<title>StatusInstance&#45;&gt;TickState</title>
<path fill="none" stroke="#59687e" stroke-width="1.3" d="M420.39,-238C420.39,-238 476.44,-238 476.44,-238"/>
<polygon fill="#59687e" stroke="#59687e" stroke-width="1.3" points="476.44,-240.8 484.44,-238 476.44,-235.2 476.44,-240.8"/>
</g>
<!-- SnapshotState -->
<g id="node11" class="node">
<title>SnapshotState</title>
<path fill="#ffffff" stroke="#bac7db" stroke-width="1.4" d="M568.92,-368.68C568.92,-368.68 482.96,-368.68 482.96,-368.68 476.96,-368.68 470.96,-362.68 470.96,-356.68 470.96,-356.68 470.96,-317.32 470.96,-317.32 470.96,-311.32 476.96,-305.32 482.96,-305.32 482.96,-305.32 568.92,-305.32 568.92,-305.32 574.92,-305.32 580.92,-311.32 580.92,-317.32 580.92,-317.32 580.92,-356.68 580.92,-356.68 580.92,-362.68 574.92,-368.68 568.92,-368.68"/>
<text xml:space="preserve" text-anchor="middle" x="525.94" y="-349.6" font-family="Noto Sans CJK KR" font-size="14.00" fill="#182033">SnapshotState&#13;</text>
<text xml:space="preserve" text-anchor="middle" x="525.94" y="-332.8" font-family="Noto Sans CJK KR" font-size="14.00" fill="#182033">&#45; capturedStats?&#13;</text>
<text xml:space="preserve" text-anchor="middle" x="525.94" y="-316" font-family="Noto Sans CJK KR" font-size="14.00" fill="#182033">&#45; seed</text>
</g>
<!-- StatusInstance&#45;&gt;SnapshotState -->
<g id="edge10" class="edge">
<title>StatusInstance&#45;&gt;SnapshotState</title>
<path fill="none" stroke="#59687e" stroke-width="1.3" d="M420.6,-278.08C454.34,-278.08 483.92,-278.08 483.92,-278.08 483.92,-278.08 483.92,-294.81 483.92,-294.81"/>
<polygon fill="#59687e" stroke="#59687e" stroke-width="1.3" points="481.12,-294.81 483.92,-302.81 486.72,-294.81 481.12,-294.81"/>
</g>
</g>
</svg>
