<?xml version="1.0" encoding="UTF-8" standalone="no"?>
<!DOCTYPE svg PUBLIC "-//W3C//DTD SVG 1.1//EN"
 "http://www.w3.org/Graphics/SVG/1.1/DTD/svg11.dtd">
<!-- Generated by graphviz version 15.0.0 (20260523.1842)
 -->
<!-- Title: G Pages: 1 -->
<svg width="809pt" height="506pt"
 viewBox="9.00 9.00 800.00 498.00" xmlns="http://www.w3.org/2000/svg" xmlns:xlink="http://www.w3.org/1999/xlink">
<g id="graph0" class="graph" transform="scale(1 1) rotate(0) translate(30.24 476)">
<title>G</title>
<polygon fill="#ffffff" stroke="none" points="-21.6,21.6 -21.6,-467.36 769.89,-467.36 769.89,21.6 -21.6,21.6"/>
<!-- Core -->
<g id="node1" class="node">
<title>Core</title>
<polygon fill="#eefbf6" stroke="#bac7db" stroke-width="1.5" points="464.14,-445.76 303.46,-445.76 303.46,-441.76 299.46,-441.76 299.46,-437.76 303.46,-437.76 303.46,-387.52 299.46,-387.52 299.46,-383.52 303.46,-383.52 303.46,-379.52 464.14,-379.52 464.14,-445.76"/>
<polyline fill="none" stroke="#bac7db" stroke-width="1.5" points="303.46,-441.76 307.46,-441.76 307.46,-437.76 303.46,-437.76"/>
<polyline fill="none" stroke="#bac7db" stroke-width="1.5" points="303.46,-387.52 307.46,-387.52 307.46,-383.52 303.46,-383.52"/>
<text xml:space="preserve" text-anchor="middle" x="383.8" y="-425.24" font-family="Noto Sans CJK KR" font-size="14.00" fill="#182033">Core Runtime</text>
<text xml:space="preserve" text-anchor="middle" x="383.8" y="-408.44" font-family="Noto Sans CJK KR" font-size="14.00" fill="#182033">Entity · Tag · SourceId</text>
<text xml:space="preserve" text-anchor="middle" x="383.8" y="-391.64" font-family="Noto Sans CJK KR" font-size="14.00" fill="#182033">Event · Time · Random</text>
</g>
<!-- Stat -->
<g id="node2" class="node">
<title>Stat</title>
<polygon fill="#eaf0ff" stroke="#bac7db" stroke-width="1.5" points="460.05,-324.52 307.54,-324.52 307.54,-320.52 303.54,-320.52 303.54,-316.52 307.54,-316.52 307.54,-266.28 303.54,-266.28 303.54,-262.28 307.54,-262.28 307.54,-258.28 460.05,-258.28 460.05,-324.52"/>
<polyline fill="none" stroke="#bac7db" stroke-width="1.5" points="307.54,-320.52 311.54,-320.52 311.54,-316.52 307.54,-316.52"/>
<polyline fill="none" stroke="#bac7db" stroke-width="1.5" points="307.54,-266.28 311.54,-266.28 311.54,-262.28 307.54,-262.28"/>
<text xml:space="preserve" text-anchor="middle" x="383.8" y="-304" font-family="Noto Sans CJK KR" font-size="14.00" fill="#182033">Stat System</text>
<text xml:space="preserve" text-anchor="middle" x="383.8" y="-287.2" font-family="Noto Sans CJK KR" font-size="14.00" fill="#182033">Final Value · Modifier</text>
<text xml:space="preserve" text-anchor="middle" x="383.8" y="-270.4" font-family="Noto Sans CJK KR" font-size="14.00" fill="#182033">Resource · Debug</text>
</g>
<!-- Core&#45;&gt;Stat -->
<g id="edge1" class="edge">
<title>Core&#45;&gt;Stat</title>
<path fill="none" stroke="#59687e" stroke-width="1.4" d="M383.8,-379.06C383.8,-365.39 383.8,-349.31 383.8,-334.74"/>
<polygon fill="#59687e" stroke="#59687e" stroke-width="1.4" points="386.6,-335.06 383.8,-327.06 381,-335.06 386.6,-335.06"/>
</g>
<!-- Effect -->
<g id="node3" class="node">
<title>Effect</title>
<polygon fill="#fff7e6" stroke="#bac7db" stroke-width="1.5" points="716.29,-324.52 539.31,-324.52 539.31,-320.52 535.31,-320.52 535.31,-316.52 539.31,-316.52 539.31,-266.28 535.31,-266.28 535.31,-262.28 539.31,-262.28 539.31,-258.28 716.29,-258.28 716.29,-324.52"/>
<polyline fill="none" stroke="#bac7db" stroke-width="1.5" points="539.31,-320.52 543.31,-320.52 543.31,-316.52 539.31,-316.52"/>
<polyline fill="none" stroke="#bac7db" stroke-width="1.5" points="539.31,-266.28 543.31,-266.28 543.31,-262.28 539.31,-262.28"/>
<text xml:space="preserve" text-anchor="middle" x="627.8" y="-304" font-family="Noto Sans CJK KR" font-size="14.00" fill="#182033">Effect System</text>
<text xml:space="preserve" text-anchor="middle" x="627.8" y="-287.2" font-family="Noto Sans CJK KR" font-size="14.00" fill="#182033">Target · Value · Operation</text>
<text xml:space="preserve" text-anchor="middle" x="627.8" y="-270.4" font-family="Noto Sans CJK KR" font-size="14.00" fill="#182033">EffectResult</text>
</g>
<!-- Core&#45;&gt;Effect -->
<g id="edge2" class="edge">
<title>Core&#45;&gt;Effect</title>
<path fill="none" stroke="#59687e" stroke-width="1.4" d="M450.79,-378.9C482.13,-363.59 519.59,-345.28 551.96,-329.46"/>
<polygon fill="#59687e" stroke="#59687e" stroke-width="1.4" points="553.09,-332.03 559.04,-326 550.63,-326.99 553.09,-332.03"/>
</g>
<!-- Skill -->
<g id="node4" class="node">
<title>Skill</title>
<polygon fill="#f3eefc" stroke="#bac7db" stroke-width="1.5" points="185.59,-324.52 0,-324.52 0,-320.52 -4,-320.52 -4,-316.52 0,-316.52 0,-266.28 -4,-266.28 -4,-262.28 0,-262.28 0,-258.28 185.59,-258.28 185.59,-324.52"/>
<polyline fill="none" stroke="#bac7db" stroke-width="1.5" points="0,-320.52 4,-320.52 4,-316.52 0,-316.52"/>
<polyline fill="none" stroke="#bac7db" stroke-width="1.5" points="0,-266.28 4,-266.28 4,-262.28 0,-262.28"/>
<text xml:space="preserve" text-anchor="middle" x="92.8" y="-304" font-family="Noto Sans CJK KR" font-size="14.00" fill="#182033">Skill / Action</text>
<text xml:space="preserve" text-anchor="middle" x="92.8" y="-287.2" font-family="Noto Sans CJK KR" font-size="14.00" fill="#182033">Cost · Cooldown · Timeline</text>
<text xml:space="preserve" text-anchor="middle" x="92.8" y="-270.4" font-family="Noto Sans CJK KR" font-size="14.00" fill="#182033">EffectBundle</text>
</g>
<!-- Core&#45;&gt;Skill -->
<g id="edge3" class="edge">
<title>Core&#45;&gt;Skill</title>
<path fill="none" stroke="#59687e" stroke-width="1.4" d="M302.75,-385.25C274.92,-375.63 243.75,-364.22 215.8,-352.52 199.24,-345.59 181.75,-337.51 165.31,-329.58"/>
<polygon fill="#59687e" stroke="#59687e" stroke-width="1.4" points="166.63,-327.1 158.21,-326.12 164.18,-332.14 166.63,-327.1"/>
</g>
<!-- Combat -->
<g id="node5" class="node">
<title>Combat</title>
<polygon fill="#fff0f3" stroke="#bac7db" stroke-width="1.5" points="437.92,-187.48 289.68,-187.48 289.68,-183.48 285.68,-183.48 285.68,-179.48 289.68,-179.48 289.68,-129.24 285.68,-129.24 285.68,-125.24 289.68,-125.24 289.68,-121.24 437.92,-121.24 437.92,-187.48"/>
<polyline fill="none" stroke="#bac7db" stroke-width="1.5" points="289.68,-183.48 293.68,-183.48 293.68,-179.48 289.68,-179.48"/>
<polyline fill="none" stroke="#bac7db" stroke-width="1.5" points="289.68,-129.24 293.68,-129.24 293.68,-125.24 289.68,-125.24"/>
<text xml:space="preserve" text-anchor="middle" x="363.8" y="-166.96" font-family="Noto Sans CJK KR" font-size="14.00" fill="#182033">Combat Resolution</text>
<text xml:space="preserve" text-anchor="middle" x="363.8" y="-150.16" font-family="Noto Sans CJK KR" font-size="14.00" fill="#182033">Hit · Critical · Armor</text>
<text xml:space="preserve" text-anchor="middle" x="363.8" y="-133.36" font-family="Noto Sans CJK KR" font-size="14.00" fill="#182033">Resistance · Shield</text>
</g>
<!-- Core&#45;&gt;Combat -->
<g id="edge4" class="edge">
<title>Core&#45;&gt;Combat</title>
<path fill="none" stroke="#59687e" stroke-width="1.4" d="M332.73,-378.81C315.07,-364.49 297.32,-346.02 287.8,-324.52 275.87,-297.6 278.59,-286.24 287.8,-258.28 295.39,-235.2 310.37,-213.06 325.04,-195.26"/>
<polygon fill="#59687e" stroke="#59687e" stroke-width="1.4" points="326.86,-197.44 329.91,-189.53 322.6,-193.81 326.86,-197.44"/>
</g>
<!-- Status -->
<g id="node6" class="node">
<title>Status</title>
<polygon fill="#e9fbff" stroke="#bac7db" stroke-width="1.5" points="645.62,-187.48 477.97,-187.48 477.97,-183.48 473.97,-183.48 473.97,-179.48 477.97,-179.48 477.97,-129.24 473.97,-129.24 473.97,-125.24 477.97,-125.24 477.97,-121.24 645.62,-121.24 645.62,-187.48"/>
<polyline fill="none" stroke="#bac7db" stroke-width="1.5" points="477.97,-183.48 481.97,-183.48 481.97,-179.48 477.97,-179.48"/>
<polyline fill="none" stroke="#bac7db" stroke-width="1.5" points="477.97,-129.24 481.97,-129.24 481.97,-125.24 477.97,-125.24"/>
<text xml:space="preserve" text-anchor="middle" x="561.8" y="-166.96" font-family="Noto Sans CJK KR" font-size="14.00" fill="#182033">Status System</text>
<text xml:space="preserve" text-anchor="middle" x="561.8" y="-150.16" font-family="Noto Sans CJK KR" font-size="14.00" fill="#182033">Duration · Stack · Tick</text>
<text xml:space="preserve" text-anchor="middle" x="561.8" y="-133.36" font-family="Noto Sans CJK KR" font-size="14.00" fill="#182033">Modifier · PeriodicEffect</text>
</g>
<!-- Core&#45;&gt;Status -->
<g id="edge5" class="edge">
<title>Core&#45;&gt;Status</title>
<path fill="none" stroke="#59687e" stroke-width="1.4" d="M464.7,-403.07C557.99,-391.32 702.77,-366.72 735.8,-324.52 753.94,-301.34 750.38,-283.85 735.8,-258.28 717.92,-226.93 686.32,-204.16 654.92,-188.13"/>
<polygon fill="#59687e" stroke="#59687e" stroke-width="1.4" points="656.4,-185.74 647.98,-184.73 653.93,-190.77 656.4,-185.74"/>
</g>
<!-- Stat&#45;&gt;Effect -->
<g id="edge6" class="edge">
<title>Stat&#45;&gt;Effect</title>
<path fill="none" stroke="#59687e" stroke-width="1.4" d="M460.52,-291.4C483.19,-291.4 505.87,-291.4 528.54,-291.4"/>
<polygon fill="#59687e" stroke="#59687e" stroke-width="1.4" points="528.49,-294.2 536.49,-291.4 528.49,-288.6 528.49,-294.2"/>
</g>
<!-- Effect&#45;&gt;Combat -->
<g id="edge8" class="edge">
<title>Effect&#45;&gt;Combat</title>
<path fill="none" stroke="#59687e" stroke-width="1.4" d="M569.7,-257.69C544.94,-244 515.63,-228.14 488.8,-214.48 474.31,-207.11 458.74,-199.5 443.68,-192.29"/>
<polygon fill="#59687e" stroke="#59687e" stroke-width="1.4" points="445.22,-189.93 436.79,-189.01 442.81,-194.98 445.22,-189.93"/>
</g>
<!-- Effect&#45;&gt;Status -->
<g id="edge9" class="edge">
<title>Effect&#45;&gt;Status</title>
<path fill="none" stroke="#59687e" stroke-width="1.4" d="M602.62,-257.67C596.93,-249.35 591.25,-240.22 586.8,-231.28 581.53,-220.71 577,-208.78 573.31,-197.57"/>
<polygon fill="#59687e" stroke="#59687e" stroke-width="1.4" points="575.99,-196.75 570.91,-189.96 570.65,-198.44 575.99,-196.75"/>
</g>
<!-- Fireball -->
<g id="node7" class="node">
<title>Fireball</title>
<polygon fill="#ffffff" stroke="#bac7db" stroke-width="1.5" points="563.31,-66.24 406.29,-66.24 406.29,0 569.31,0 569.31,-60.24 563.31,-66.24"/>
<polyline fill="none" stroke="#bac7db" stroke-width="1.5" points="563.31,-66.24 563.31,-60.24"/>
<polyline fill="none" stroke="#bac7db" stroke-width="1.5" points="569.31,-60.24 563.31,-60.24"/>
<text xml:space="preserve" text-anchor="middle" x="487.8" y="-45.72" font-family="Noto Sans CJK KR" font-size="14.00" fill="#182033">Fireball Vertical Slice</text>
<text xml:space="preserve" text-anchor="middle" x="487.8" y="-28.92" font-family="Noto Sans CJK KR" font-size="14.00" fill="#182033">Skill → Effect → Combat</text>
<text xml:space="preserve" text-anchor="middle" x="487.8" y="-12.12" font-family="Noto Sans CJK KR" font-size="14.00" fill="#182033">Status → EventLog</text>
</g>
<!-- Effect&#45;&gt;Fireball -->
<g id="edge14" class="edge">
<title>Effect&#45;&gt;Fireball</title>
<path fill="none" stroke="#59687e" stroke-width="1.4" stroke-dasharray="1,5" d="M648.57,-257.77C668.56,-221.82 692.16,-163.5 665.8,-121.24 646.4,-90.16 612.34,-69.86 579.18,-56.75"/>
<polygon fill="#59687e" stroke="#59687e" stroke-width="1.4" points="580.31,-54.19 571.84,-53.99 578.34,-59.43 580.31,-54.19"/>
</g>
<!-- Skill&#45;&gt;Effect -->
<g id="edge7" class="edge">
<title>Skill&#45;&gt;Effect</title>
<path fill="none" stroke="#59687e" stroke-width="1.4" d="M186.33,-323.81C223.63,-335.14 267.27,-346.42 307.8,-352.02 374.71,-361.27 393.25,-363.66 459.8,-352.02 487.27,-347.21 516.18,-338.3 542.12,-328.76"/>
<polygon fill="#59687e" stroke="#59687e" stroke-width="1.4" points="543.05,-331.4 549.56,-325.97 541.08,-326.16 543.05,-331.4"/>
</g>
<!-- Skill&#45;&gt;Fireball -->
<g id="edge13" class="edge">
<title>Skill&#45;&gt;Fireball</title>
<path fill="none" stroke="#59687e" stroke-width="1.4" stroke-dasharray="1,5" d="M120.16,-257.54C152.62,-220.28 209.91,-159.75 269.8,-121.24 308.68,-96.24 355.89,-76.29 396.43,-61.82"/>
<polygon fill="#59687e" stroke="#59687e" stroke-width="1.4" points="397.15,-64.54 403.78,-59.25 395.3,-59.25 397.15,-64.54"/>
</g>
<!-- Combat&#45;&gt;Stat -->
<g id="edge10" class="edge">
<title>Combat&#45;&gt;Stat</title>
<path fill="none" stroke="#59687e" stroke-width="1.4" stroke-dasharray="5,2" d="M362.05,-188.06C361.89,-201.52 362.41,-217.23 364.71,-231.28 365.62,-236.87 366.96,-242.66 368.52,-248.32"/>
<polygon fill="#59687e" stroke="#59687e" stroke-width="1.4" points="365.74,-248.79 370.7,-255.66 371.11,-247.19 365.74,-248.79"/>
<text xml:space="preserve" text-anchor="middle" x="376.75" y="-218.68" font-family="Noto Sans CJK KR" font-size="14.00">read</text>
</g>
<!-- Combat&#45;&gt;Fireball -->
<g id="edge15" class="edge">
<title>Combat&#45;&gt;Fireball</title>
<path fill="none" stroke="#59687e" stroke-width="1.4" stroke-dasharray="1,5" d="M397.68,-120.78C412.85,-106.19 430.88,-88.86 446.8,-73.54"/>
<polygon fill="#59687e" stroke="#59687e" stroke-width="1.4" points="448.6,-75.7 452.43,-68.13 444.72,-71.66 448.6,-75.7"/>
</g>
<!-- Status&#45;&gt;Stat -->
<g id="edge11" class="edge">
<title>Status&#45;&gt;Stat</title>
<path fill="none" stroke="#59687e" stroke-width="1.4" stroke-dasharray="5,2" d="M518.49,-188.22C493.27,-207.35 461.34,-231.57 434.9,-251.63"/>
<polygon fill="#59687e" stroke="#59687e" stroke-width="1.4" points="433.25,-249.36 428.57,-256.43 436.64,-253.83 433.25,-249.36"/>
<text xml:space="preserve" text-anchor="middle" x="507.56" y="-218.68" font-family="Noto Sans CJK KR" font-size="14.00">modifier</text>
</g>
<!-- Status&#45;&gt;Effect -->
<g id="edge12" class="edge">
<title>Status&#45;&gt;Effect</title>
<path fill="none" stroke="#59687e" stroke-width="1.4" stroke-dasharray="5,2" d="M577.85,-188.22C586.76,-206.44 597.93,-229.28 607.44,-248.75"/>
<polygon fill="#59687e" stroke="#59687e" stroke-width="1.4" points="604.86,-249.85 610.89,-255.81 609.89,-247.39 604.86,-249.85"/>
<text xml:space="preserve" text-anchor="middle" x="621.68" y="-218.68" font-family="Noto Sans CJK KR" font-size="14.00">periodic</text>
</g>
<!-- Status&#45;&gt;Fireball -->
<g id="edge16" class="edge">
<title>Status&#45;&gt;Fireball</title>
<path fill="none" stroke="#59687e" stroke-width="1.4" stroke-dasharray="1,5" d="M541.58,-120.78C532.85,-106.71 522.54,-90.1 513.29,-75.2"/>
<polygon fill="#59687e" stroke="#59687e" stroke-width="1.4" points="515.71,-73.78 509.11,-68.46 510.95,-76.74 515.71,-73.78"/>
</g>
</g>
</svg>
