<?xml version="1.0" encoding="UTF-8" standalone="no"?>
<!DOCTYPE svg PUBLIC "-//W3C//DTD SVG 1.1//EN"
 "http://www.w3.org/Graphics/SVG/1.1/DTD/svg11.dtd">
<!-- Generated by graphviz version 15.1.0 (20260618.0150)
 -->
<!-- Title: G Pages: 1 -->
<svg width="1087pt" height="2073pt"
 viewBox="12.00 12.00 1076.00 2061.00" xmlns="http://www.w3.org/2000/svg" xmlns:xlink="http://www.w3.org/1999/xlink">
<g id="graph0" class="graph" transform="scale(1.33333 1.33333) rotate(0) translate(30.24 1524.39)">
<title>G</title>
<polygon fill="#ffffff" stroke="none" points="-21.6,21.6 -21.6,-1515.75 776.51,-1515.75 776.51,21.6 -21.6,21.6"/>
<!-- Core&#45;&gt;Legend -->
<!-- Effect&#45;&gt;Stat -->
<g id="edge12" class="edge">
<title>Effect:e&#45;&gt;Stat:n</title>
<path fill="none" stroke="#8292a8" stroke-width="1.4" stroke-dasharray="5,2" d="M443.68,-1172.17C443.68,-1172.17 442.68,-1138.38 442.68,-1138.38 442.68,-1138.38 279.77,-1099.38 279.77,-1099.38 279.77,-1099.38 156.44,-1043.99 121.75,-1028.41"/>
<polygon fill="#8292a8" stroke="#8292a8" stroke-width="1.4" points="123.15,-1025.97 114.7,-1025.25 120.85,-1031.08 123.15,-1025.97"/>
</g>
<!-- Effect&#45;&gt;DamageRequestMessage -->
<g id="edge4" class="edge">
<title>Effect&#45;&gt;DamageRequestMessage</title>
<path fill="none" stroke="#59687e" stroke-width="1.4" d="M349.77,-1137.86C349.77,-1128.52 349.77,-1118.48 349.77,-1109.55"/>
<polygon fill="#59687e" stroke="#59687e" stroke-width="1.4" points="352.57,-1109.79 349.77,-1101.79 346.97,-1109.79 352.57,-1109.79"/>
</g>
<!-- Skill&#45;&gt;PrepareBundle -->
<g id="edge2" class="edge">
<title>Skill&#45;&gt;PrepareBundle</title>
<path fill="none" stroke="#59687e" stroke-width="1.4" d="M349.77,-1319.45C349.77,-1310.11 349.77,-1300.07 349.77,-1291.14"/>
<polygon fill="#59687e" stroke="#59687e" stroke-width="1.4" points="352.57,-1291.38 349.77,-1283.38 346.97,-1291.38 352.57,-1291.38"/>
</g>
<!-- Combat&#45;&gt;Stat -->
<g id="edge13" class="edge">
<title>Combat:w&#45;&gt;Stat:e</title>
<path fill="none" stroke="#8292a8" stroke-width="1.4" stroke-dasharray="5,2" d="M274.88,-990.58C274.88,-990.58 251.56,-990.58 236.98,-990.58"/>
<polygon fill="#8292a8" stroke="#8292a8" stroke-width="1.4" points="235.66,-987.79 227.66,-990.59 235.66,-993.39 235.66,-987.79"/>
</g>
<!-- Combat&#45;&gt;DamageResultPlan -->
<g id="edge6" class="edge">
<title>Combat&#45;&gt;DamageResultPlan</title>
<path fill="none" stroke="#59687e" stroke-width="1.4" d="M349.77,-956.27C349.77,-946.93 349.77,-936.89 349.77,-927.96"/>
<polygon fill="#59687e" stroke="#59687e" stroke-width="1.4" points="352.57,-928.2 349.77,-920.2 346.97,-928.2 352.57,-928.2"/>
</g>
<!-- Status&#45;&gt;Modifier -->
<g id="edge14" class="edge">
<title>Status:w&#45;&gt;Modifier:e</title>
<path fill="none" stroke="#59687e" stroke-width="1.4" d="M264,-445.82C264,-445.82 239.79,-445.82 225.03,-445.82"/>
<polygon fill="#59687e" stroke="#59687e" stroke-width="1.4" points="224.03,-443.02 216.03,-445.82 224.03,-448.62 224.03,-443.02"/>
</g>
<!-- Status&#45;&gt;Periodic -->
<g id="edge17" class="edge">
<title>Status:w&#45;&gt;Periodic:e</title>
<path fill="none" stroke="#59687e" stroke-width="1.4" d="M262.64,-445.82C262.64,-445.82 263.64,-479.61 263.64,-479.61 263.64,-479.61 435.54,-479.61 435.54,-479.61 435.54,-479.61 624.79,-470.99 624.79,-470.99 624.79,-470.99 625.07,-463.88 625.34,-457.22"/>
<polygon fill="#59687e" stroke="#59687e" stroke-width="1.4" points="628.19,-456.04 625.71,-447.93 622.59,-455.81 628.19,-456.04"/>
</g>
<!-- Status&#45;&gt;CoreConsumers -->
<!-- Commit&#45;&gt;Observation -->
<g id="edge16" class="edge">
<title>Commit:e&#45;&gt;Observation:w</title>
<path fill="none" stroke="#59687e" stroke-width="1.4" d="M446.79,-808.99C446.79,-808.99 549.13,-808.99 583.51,-808.99"/>
<polygon fill="#59687e" stroke="#59687e" stroke-width="1.4" points="584.51,-811.8 592.51,-809 584.51,-806.2 584.51,-811.8"/>
</g>
<!-- Commit&#45;&gt;CommittedFacts -->
<g id="edge8" class="edge">
<title>Commit&#45;&gt;CommittedFacts</title>
<path fill="none" stroke="#59687e" stroke-width="1.4" d="M349.77,-774.68C349.77,-765.34 349.77,-755.3 349.77,-746.37"/>
<polygon fill="#59687e" stroke="#59687e" stroke-width="1.4" points="352.57,-746.61 349.77,-738.61 346.97,-746.61 352.57,-746.61"/>
</g>
<!-- Reaction&#45;&gt;ApplyStatusCommand -->
<g id="edge10" class="edge">
<title>Reaction&#45;&gt;ApplyStatusCommand</title>
<path fill="none" stroke="#59687e" stroke-width="1.4" d="M349.77,-593.09C349.77,-583.75 349.77,-573.71 349.77,-564.78"/>
<polygon fill="#59687e" stroke="#59687e" stroke-width="1.4" points="352.57,-565.02 349.77,-557.02 346.97,-565.02 352.57,-565.02"/>
</g>
<!-- Modifier&#45;&gt;Stat -->
<g id="edge15" class="edge">
<title>Modifier:n&#45;&gt;Stat:s</title>
<path fill="none" stroke="#59687e" stroke-width="1.4" d="M160.77,-471.99C160.77,-471.99 120.49,-878.78 113.73,-947.11"/>
<polygon fill="#59687e" stroke="#59687e" stroke-width="1.4" points="110.98,-946.44 112.98,-954.68 116.55,-947 110.98,-946.44"/>
</g>
<!-- Periodic&#45;&gt;Effect -->
<g id="edge18" class="edge">
<title>Periodic:w&#45;&gt;Effect:w</title>
<path fill="none" stroke="#59687e" stroke-width="1.4" d="M483.75,-445.82C483.75,-445.82 471.77,-842.79 471.77,-842.79 471.77,-842.79 448.77,-1024.38 448.77,-1024.38 448.77,-1024.38 419.77,-1099.38 419.77,-1099.38 419.77,-1099.38 256.86,-1138.38 256.86,-1138.38 256.86,-1138.38 256.45,-1152.25 256.16,-1162.22"/>
<polygon fill="#59687e" stroke="#59687e" stroke-width="1.4" points="253.36,-1161.98 255.92,-1170.06 258.96,-1162.14 253.36,-1161.98"/>
</g>
<!-- CoreConsumers&#45;&gt;SharedContractDependency -->
<g id="edge20" class="edge">
<title>CoreConsumers&#45;&gt;SharedContractDependency</title>
<path fill="none" stroke="#8292a8" stroke-width="1.4" stroke-dasharray="5,2" d="M349.77,-322.36C349.77,-313.39 349.77,-303.19 349.77,-294"/>
<polygon fill="#8292a8" stroke="#8292a8" stroke-width="1.4" points="352.57,-294.27 349.77,-286.27 346.97,-294.28 352.57,-294.27"/>
</g>
<!-- Fireball&#45;&gt;Skill -->
<g id="edge1" class="edge">
<title>Fireball&#45;&gt;Skill</title>
<path fill="none" stroke="#a78b53" stroke-width="1.4" stroke-dasharray="1,5" d="M349.77,-1425.97C349.77,-1413.9 349.77,-1400.27 349.77,-1388.19"/>
</g>
<!-- PrepareBundle&#45;&gt;Effect -->
<g id="edge3" class="edge">
<title>PrepareBundle&#45;&gt;Effect</title>
<path fill="none" stroke="#59687e" stroke-width="1.4" d="M349.77,-1244.85C349.77,-1236.69 349.77,-1226.51 349.77,-1216.42"/>
<polygon fill="#59687e" stroke="#59687e" stroke-width="1.4" points="352.57,-1216.55 349.77,-1208.55 346.97,-1216.55 352.57,-1216.55"/>
</g>
<!-- DamageRequestMessage&#45;&gt;Combat -->
<g id="edge5" class="edge">
<title>DamageRequestMessage&#45;&gt;Combat</title>
<path fill="none" stroke="#59687e" stroke-width="1.4" d="M349.77,-1063.26C349.77,-1055.1 349.77,-1044.92 349.77,-1034.83"/>
<polygon fill="#59687e" stroke="#59687e" stroke-width="1.4" points="352.57,-1034.96 349.77,-1026.96 346.97,-1034.96 352.57,-1034.96"/>
</g>
<!-- DamageResultPlan&#45;&gt;Commit -->
<g id="edge7" class="edge">
<title>DamageResultPlan&#45;&gt;Commit</title>
<path fill="none" stroke="#59687e" stroke-width="1.4" d="M349.77,-881.67C349.77,-873.51 349.77,-863.33 349.77,-853.24"/>
<polygon fill="#59687e" stroke="#59687e" stroke-width="1.4" points="352.57,-853.37 349.77,-845.37 346.97,-853.37 352.57,-853.37"/>
</g>
<!-- CommittedFacts&#45;&gt;Reaction -->
<g id="edge9" class="edge">
<title>CommittedFacts&#45;&gt;Reaction</title>
<path fill="none" stroke="#59687e" stroke-width="1.4" d="M349.77,-700.08C349.77,-691.92 349.77,-681.74 349.77,-671.65"/>
<polygon fill="#59687e" stroke="#59687e" stroke-width="1.4" points="352.57,-671.78 349.77,-663.78 346.97,-671.78 352.57,-671.78"/>
</g>
<!-- ApplyStatusCommand&#45;&gt;Status -->
<g id="edge11" class="edge">
<title>ApplyStatusCommand&#45;&gt;Status</title>
<path fill="none" stroke="#59687e" stroke-width="1.4" d="M349.77,-518.49C349.77,-510.33 349.77,-500.15 349.77,-490.06"/>
<polygon fill="#59687e" stroke="#59687e" stroke-width="1.4" points="352.57,-490.19 349.77,-482.19 346.97,-490.19 352.57,-490.19"/>
</g>
<!-- SharedContractDependency&#45;&gt;Core -->
<g id="edge21" class="edge">
<title>SharedContractDependency&#45;&gt;Core</title>
<path fill="none" stroke="#8292a8" stroke-width="1.4" stroke-dasharray="5,2" d="M349.77,-247.56C349.77,-239.4 349.77,-229.22 349.77,-219.13"/>
<polygon fill="#8292a8" stroke="#8292a8" stroke-width="1.4" points="352.57,-219.26 349.77,-211.26 346.97,-219.26 352.57,-219.26"/>
</g>
<!-- Core -->
<g id="node1" class="node">
<title>Core</title>
<polygon fill="#eefbf6" stroke="#bac7db" stroke-width="1.5" points="456.91,-208.68 242.62,-208.68 242.62,-204.68 238.62,-204.68 238.62,-200.68 242.62,-200.68 242.62,-149.09 238.62,-149.09 238.62,-145.09 242.62,-145.09 242.62,-141.09 456.91,-141.09 456.91,-208.68"/>
<polyline fill="none" stroke="#bac7db" stroke-width="1.5" points="242.62,-204.68 246.62,-204.68 246.62,-200.68 242.62,-200.68"/>
<polyline fill="none" stroke="#bac7db" stroke-width="1.5" points="242.62,-149.09 246.62,-149.09 246.62,-145.09 242.62,-145.09"/>
<text xml:space="preserve" text-anchor="middle" x="349.77" y="-187.46" font-family="Noto Sans KR" font-size="14.00" fill="#182033">Core Runtime Foundation</text>
<text xml:space="preserve" text-anchor="middle" x="349.77" y="-170.21" font-family="Noto Sans KR" font-size="14.00" fill="#182033">shared identity · event · time</text>
<text xml:space="preserve" text-anchor="middle" x="349.77" y="-152.96" font-family="Noto Sans KR" font-size="14.00" fill="#182033">contracts used by every system</text>
</g>
<!-- Stat -->
<g id="node2" class="node">
<title>Stat</title>
<polygon fill="#eaf0ff" stroke="#bac7db" stroke-width="1.5" points="225.54,-1024.38 0,-1024.38 0,-1020.38 -4,-1020.38 -4,-1016.38 0,-1016.38 0,-964.79 -4,-964.79 -4,-960.79 0,-960.79 0,-956.79 225.54,-956.79 225.54,-1024.38"/>
<polyline fill="none" stroke="#bac7db" stroke-width="1.5" points="0,-1020.38 4,-1020.38 4,-1016.38 0,-1016.38"/>
<polyline fill="none" stroke="#bac7db" stroke-width="1.5" points="0,-964.79 4,-964.79 4,-960.79 0,-960.79"/>
<text xml:space="preserve" text-anchor="middle" x="112.77" y="-1003.16" font-family="Noto Sans KR" font-size="14.00" fill="#182033">Stat System</text>
<text xml:space="preserve" text-anchor="middle" x="112.77" y="-985.91" font-family="Noto Sans KR" font-size="14.00" fill="#182033">read provider for Effect · Combat</text>
<text xml:space="preserve" text-anchor="middle" x="112.77" y="-968.66" font-family="Noto Sans KR" font-size="14.00" fill="#182033">modifier plans from Status</text>
</g>
<!-- Effect -->
<g id="node3" class="node">
<title>Effect</title>
<polygon fill="#fff7e6" stroke="#bac7db" stroke-width="1.5" points="442.29,-1205.97 257.25,-1205.97 257.25,-1201.97 253.25,-1201.97 253.25,-1197.97 257.25,-1197.97 257.25,-1146.38 253.25,-1146.38 253.25,-1142.38 257.25,-1142.38 257.25,-1138.38 442.29,-1138.38 442.29,-1205.97"/>
<polyline fill="none" stroke="#bac7db" stroke-width="1.5" points="257.25,-1201.97 261.25,-1201.97 261.25,-1197.97 257.25,-1197.97"/>
<polyline fill="none" stroke="#bac7db" stroke-width="1.5" points="257.25,-1146.38 261.25,-1146.38 261.25,-1142.38 257.25,-1142.38"/>
<text xml:space="preserve" text-anchor="middle" x="349.77" y="-1184.75" font-family="Noto Sans KR" font-size="14.00" fill="#182033">Effect System</text>
<text xml:space="preserve" text-anchor="middle" x="349.77" y="-1167.5" font-family="Noto Sans KR" font-size="14.00" fill="#182033">Target · Value · Operation</text>
<text xml:space="preserve" text-anchor="middle" x="349.77" y="-1150.25" font-family="Noto Sans KR" font-size="14.00" fill="#182033">EffectResult</text>
</g>
<!-- Skill -->
<g id="node4" class="node">
<title>Skill</title>
<polygon fill="#f3eefc" stroke="#bac7db" stroke-width="1.5" points="448.66,-1387.56 250.88,-1387.56 250.88,-1383.56 246.88,-1383.56 246.88,-1379.56 250.88,-1379.56 250.88,-1327.97 246.88,-1327.97 246.88,-1323.97 250.88,-1323.97 250.88,-1319.97 448.66,-1319.97 448.66,-1387.56"/>
<polyline fill="none" stroke="#bac7db" stroke-width="1.5" points="250.88,-1383.56 254.88,-1383.56 254.88,-1379.56 250.88,-1379.56"/>
<polyline fill="none" stroke="#bac7db" stroke-width="1.5" points="250.88,-1327.97 254.88,-1327.97 254.88,-1323.97 250.88,-1323.97"/>
<text xml:space="preserve" text-anchor="middle" x="349.77" y="-1366.34" font-family="Noto Sans KR" font-size="14.00" fill="#182033">Skill / Action</text>
<text xml:space="preserve" text-anchor="middle" x="349.77" y="-1349.09" font-family="Noto Sans KR" font-size="14.00" fill="#182033">Cost · Cooldown · Timeline</text>
<text xml:space="preserve" text-anchor="middle" x="349.77" y="-1331.84" font-family="Noto Sans KR" font-size="14.00" fill="#182033">EffectBundle</text>
</g>
<!-- Combat -->
<g id="node5" class="node">
<title>Combat</title>
<polygon fill="#fff0f3" stroke="#bac7db" stroke-width="1.5" points="424.66,-1024.38 274.88,-1024.38 274.88,-1020.38 270.88,-1020.38 270.88,-1016.38 274.88,-1016.38 274.88,-964.79 270.88,-964.79 270.88,-960.79 274.88,-960.79 274.88,-956.79 424.66,-956.79 424.66,-1024.38"/>
<polyline fill="none" stroke="#bac7db" stroke-width="1.5" points="274.88,-1020.38 278.88,-1020.38 278.88,-1016.38 274.88,-1016.38"/>
<polyline fill="none" stroke="#bac7db" stroke-width="1.5" points="274.88,-964.79 278.88,-964.79 278.88,-960.79 274.88,-960.79"/>
<text xml:space="preserve" text-anchor="middle" x="349.77" y="-1003.16" font-family="Noto Sans KR" font-size="14.00" fill="#182033">Combat Resolution</text>
<text xml:space="preserve" text-anchor="middle" x="349.77" y="-985.91" font-family="Noto Sans KR" font-size="14.00" fill="#182033">Hit · Critical · Armor</text>
<text xml:space="preserve" text-anchor="middle" x="349.77" y="-968.66" font-family="Noto Sans KR" font-size="14.00" fill="#182033">Resistance · Shield</text>
</g>
<!-- Status -->
<g id="node6" class="node">
<title>Status</title>
<polygon fill="#e9fbff" stroke="#bac7db" stroke-width="1.5" points="435.54,-479.61 264,-479.61 264,-475.61 260,-475.61 260,-471.61 264,-471.61 264,-420.02 260,-420.02 260,-416.02 264,-416.02 264,-412.02 435.54,-412.02 435.54,-479.61"/>
<polyline fill="none" stroke="#bac7db" stroke-width="1.5" points="264,-475.61 268,-475.61 268,-471.61 264,-471.61"/>
<polyline fill="none" stroke="#bac7db" stroke-width="1.5" points="264,-420.02 268,-420.02 268,-416.02 264,-416.02"/>
<text xml:space="preserve" text-anchor="middle" x="349.77" y="-458.39" font-family="Noto Sans KR" font-size="14.00" fill="#182033">Status System</text>
<text xml:space="preserve" text-anchor="middle" x="349.77" y="-441.14" font-family="Noto Sans KR" font-size="14.00" fill="#182033">Duration · Stack · Tick</text>
<text xml:space="preserve" text-anchor="middle" x="349.77" y="-423.89" font-family="Noto Sans KR" font-size="14.00" fill="#182033">Modifier · PeriodicEffect</text>
</g>
<!-- Commit -->
<g id="node7" class="node">
<title>Commit</title>
<polygon fill="#eefbf6" stroke="#bac7db" stroke-width="1.5" points="446.79,-842.79 252.75,-842.79 252.75,-838.79 248.75,-838.79 248.75,-834.79 252.75,-834.79 252.75,-783.2 248.75,-783.2 248.75,-779.2 252.75,-779.2 252.75,-775.2 446.79,-775.2 446.79,-842.79"/>
<polyline fill="none" stroke="#bac7db" stroke-width="1.5" points="252.75,-838.79 256.75,-838.79 256.75,-834.79 252.75,-834.79"/>
<polyline fill="none" stroke="#bac7db" stroke-width="1.5" points="252.75,-783.2 256.75,-783.2 256.75,-779.2 252.75,-779.2"/>
<text xml:space="preserve" text-anchor="middle" x="349.77" y="-821.57" font-family="Noto Sans KR" font-size="14.00" fill="#182033">RuntimeCommitter</text>
<text xml:space="preserve" text-anchor="middle" x="349.77" y="-804.32" font-family="Noto Sans KR" font-size="14.00" fill="#182033">Skill / Effect / Damage plans</text>
<text xml:space="preserve" text-anchor="middle" x="349.77" y="-787.07" font-family="Noto Sans KR" font-size="14.00" fill="#182033">state + outbox atomic</text>
</g>
<!-- Reaction -->
<g id="node8" class="node">
<title>Reaction</title>
<polygon fill="#f3eefc" stroke="#bac7db" stroke-width="1.5" points="420.91,-661.2 278.62,-661.2 278.62,-657.2 274.62,-657.2 274.62,-653.2 278.62,-653.2 278.62,-601.61 274.62,-601.61 274.62,-597.61 278.62,-597.61 278.62,-593.61 420.91,-593.61 420.91,-661.2"/>
<polyline fill="none" stroke="#bac7db" stroke-width="1.5" points="278.62,-657.2 282.62,-657.2 282.62,-653.2 278.62,-653.2"/>
<polyline fill="none" stroke="#bac7db" stroke-width="1.5" points="278.62,-601.61 282.62,-601.61 282.62,-597.61 278.62,-597.61"/>
<text xml:space="preserve" text-anchor="middle" x="349.77" y="-639.98" font-family="Noto Sans KR" font-size="14.00" fill="#182033">ReactionQueue</text>
<text xml:space="preserve" text-anchor="middle" x="349.77" y="-622.73" font-family="Noto Sans KR" font-size="14.00" fill="#182033">priority · stable key</text>
<text xml:space="preserve" text-anchor="middle" x="349.77" y="-605.48" font-family="Noto Sans KR" font-size="14.00" fill="#182033">depth / budget</text>
</g>
<!-- Observation -->
<g id="node9" class="node">
<title>Observation</title>
<polygon fill="#f0f3f9" stroke="#bac7db" stroke-width="1.5" points="754.91,-842.79 594.62,-842.79 594.62,-838.79 590.62,-838.79 590.62,-834.79 594.62,-834.79 594.62,-783.2 590.62,-783.2 590.62,-779.2 594.62,-779.2 594.62,-775.2 754.91,-775.2 754.91,-842.79"/>
<polyline fill="none" stroke="#bac7db" stroke-width="1.5" points="594.62,-838.79 598.62,-838.79 598.62,-834.79 594.62,-834.79"/>
<polyline fill="none" stroke="#bac7db" stroke-width="1.5" points="594.62,-783.2 598.62,-783.2 598.62,-779.2 594.62,-779.2"/>
<text xml:space="preserve" text-anchor="middle" x="674.77" y="-821.57" font-family="Noto Sans KR" font-size="14.00" fill="#182033">Outbox Observation</text>
<text xml:space="preserve" text-anchor="middle" x="674.77" y="-804.32" font-family="Noto Sans KR" font-size="14.00" fill="#182033">UI · log · analytics</text>
<text xml:space="preserve" text-anchor="middle" x="674.77" y="-787.07" font-family="Noto Sans KR" font-size="14.00" fill="#182033">reads committed facts</text>
</g>
<!-- Modifier -->
<g id="node10" class="node">
<title>Modifier</title>
<path fill="#eaf0ff" stroke="#bac7db" stroke-width="1.5" d="M201.91,-470.99C201.91,-470.99 119.62,-470.99 119.62,-470.99 113.62,-470.99 107.62,-464.99 107.62,-458.99 107.62,-458.99 107.62,-432.65 107.62,-432.65 107.62,-426.65 113.62,-420.65 119.62,-420.65 119.62,-420.65 201.91,-420.65 201.91,-420.65 207.91,-420.65 213.91,-426.65 213.91,-432.65 213.91,-432.65 213.91,-458.99 213.91,-458.99 213.91,-464.99 207.91,-470.99 201.91,-470.99"/>
<text xml:space="preserve" text-anchor="middle" x="160.77" y="-449.77" font-family="Noto Sans KR" font-size="14.00" fill="#182033">modifier plan</text>
<text xml:space="preserve" text-anchor="middle" x="160.77" y="-432.52" font-family="Noto Sans KR" font-size="14.00" fill="#182033">to Stat</text>
</g>
<!-- Periodic -->
<g id="node11" class="node">
<title>Periodic</title>
<path fill="#fff7e6" stroke="#bac7db" stroke-width="1.5" d="M612.79,-470.99C612.79,-470.99 496.75,-470.99 496.75,-470.99 490.75,-470.99 484.75,-464.99 484.75,-458.99 484.75,-458.99 484.75,-432.65 484.75,-432.65 484.75,-426.65 490.75,-420.65 496.75,-420.65 496.75,-420.65 612.79,-420.65 612.79,-420.65 618.79,-420.65 624.79,-426.65 624.79,-432.65 624.79,-432.65 624.79,-458.99 624.79,-458.99 624.79,-464.99 618.79,-470.99 612.79,-470.99"/>
<text xml:space="preserve" text-anchor="middle" x="554.77" y="-449.77" font-family="Noto Sans KR" font-size="14.00" fill="#182033">PeriodicEffect</text>
<text xml:space="preserve" text-anchor="middle" x="554.77" y="-432.52" font-family="Noto Sans KR" font-size="14.00" fill="#182033">command to Effect</text>
</g>
<!-- CoreConsumers -->
<g id="node12" class="node">
<title>CoreConsumers</title>
<path fill="#f7f9fc" stroke="#bac7db" stroke-width="1.5" d="M529.66,-373.02C529.66,-373.02 169.88,-373.02 169.88,-373.02 163.88,-373.02 157.87,-367.02 157.87,-361.02 157.87,-361.02 157.87,-334.68 157.87,-334.68 157.87,-328.68 163.87,-322.68 169.87,-322.68 169.87,-322.68 529.66,-322.68 529.66,-322.68 535.66,-322.68 541.66,-328.68 541.66,-334.68 541.66,-334.68 541.66,-361.02 541.66,-361.02 541.66,-367.02 535.66,-373.02 529.66,-373.02"/>
<text xml:space="preserve" text-anchor="middle" x="349.77" y="-351.8" font-family="Noto Sans KR" font-size="14.00" fill="#182033">Skill · Effect · Stat · Combat · Status · RuntimeCommitter</text>
<text xml:space="preserve" text-anchor="middle" x="349.77" y="-334.55" font-family="Noto Sans KR" font-size="14.00" fill="#182033">read shared contracts</text>
</g>
<!-- Legend -->
<g id="node13" class="node">
<title>Legend</title>
<polygon fill="#ffffff" stroke="#bac7db" stroke-width="1.5" points="497.04,-102.09 196.5,-102.09 196.5,0 503.04,0 503.04,-96.09 497.04,-102.09"/>
<polyline fill="none" stroke="#bac7db" stroke-width="1.5" points="497.04,-102.09 497.04,-96.09"/>
<polyline fill="none" stroke="#bac7db" stroke-width="1.5" points="503.04,-96.09 497.04,-96.09"/>
<text xml:space="preserve" text-anchor="middle" x="349.77" y="-80.87" font-family="Noto Sans KR" font-size="14.00" fill="#182033">Line meaning</text>
<text xml:space="preserve" text-anchor="middle" x="349.77" y="-63.62" font-family="Noto Sans KR" font-size="14.00" fill="#182033">solid arrow: command / plan / committed fact</text>
<text xml:space="preserve" text-anchor="middle" x="349.77" y="-46.37" font-family="Noto Sans KR" font-size="14.00" fill="#182033">dashed arrow: read&#45;only dependency / query</text>
<text xml:space="preserve" text-anchor="middle" x="349.77" y="-29.12" font-family="Noto Sans KR" font-size="14.00" fill="#182033">dotted line: case&#45;study participation</text>
<text xml:space="preserve" text-anchor="middle" x="349.77" y="-11.87" font-family="Noto Sans KR" font-size="14.00" fill="#182033">query arrow: consumer → provider</text>
</g>
<!-- Fireball -->
<g id="node14" class="node">
<title>Fireball</title>
<polygon fill="#ffffff" stroke="#bac7db" stroke-width="1.5" points="456.16,-1494.15 237.38,-1494.15 237.38,-1426.56 462.16,-1426.56 462.16,-1488.15 456.16,-1494.15"/>
<polyline fill="none" stroke="#bac7db" stroke-width="1.5" points="456.16,-1494.15 456.16,-1488.15"/>
<polyline fill="none" stroke="#bac7db" stroke-width="1.5" points="462.16,-1488.15 456.16,-1488.15"/>
<text xml:space="preserve" text-anchor="middle" x="349.77" y="-1472.93" font-family="Noto Sans KR" font-size="14.00" fill="#182033">Fireball Vertical Slice</text>
<text xml:space="preserve" text-anchor="middle" x="349.77" y="-1455.68" font-family="Noto Sans KR" font-size="14.00" fill="#182033">Skill · Effect · Combat · Commit</text>
<text xml:space="preserve" text-anchor="middle" x="349.77" y="-1438.43" font-family="Noto Sans KR" font-size="14.00" fill="#182033">Reaction · Status participate</text>
</g>
<!-- PrepareBundle -->
<g id="node15" class="node">
<title>PrepareBundle</title>
<path fill="#ffffff" stroke="#8292a8" d="M380.16,-1280.97C380.16,-1280.97 319.38,-1280.97 319.38,-1280.97 313.38,-1280.97 307.38,-1274.97 307.38,-1268.97 307.38,-1268.97 307.38,-1256.97 307.38,-1256.97 307.38,-1250.97 313.38,-1244.97 319.38,-1244.97 319.38,-1244.97 380.16,-1244.97 380.16,-1244.97 386.16,-1244.97 392.16,-1250.97 392.16,-1256.97 392.16,-1256.97 392.16,-1268.97 392.16,-1268.97 392.16,-1274.97 386.16,-1280.97 380.16,-1280.97"/>
<text xml:space="preserve" text-anchor="middle" x="349.77" y="-1259.85" font-family="Noto Sans KR" font-size="10.00" fill="#46566e">prepare bundle</text>
</g>
<!-- DamageRequestMessage -->
<g id="node16" class="node">
<title>DamageRequestMessage</title>
<path fill="#ffffff" stroke="#8292a8" d="M382.78,-1099.38C382.78,-1099.38 316.75,-1099.38 316.75,-1099.38 310.75,-1099.38 304.75,-1093.38 304.75,-1087.38 304.75,-1087.38 304.75,-1075.38 304.75,-1075.38 304.75,-1069.38 310.75,-1063.38 316.75,-1063.38 316.75,-1063.38 382.78,-1063.38 382.78,-1063.38 388.78,-1063.38 394.78,-1069.38 394.78,-1075.38 394.78,-1075.38 394.78,-1087.38 394.78,-1087.38 394.78,-1093.38 388.78,-1099.38 382.78,-1099.38"/>
<text xml:space="preserve" text-anchor="middle" x="349.77" y="-1078.25" font-family="Noto Sans KR" font-size="10.00" fill="#46566e">DamageRequest</text>
</g>
<!-- DamageResultPlan -->
<g id="node17" class="node">
<title>DamageResultPlan</title>
<path fill="#ffffff" stroke="#8292a8" d="M395.16,-917.79C395.16,-917.79 304.38,-917.79 304.38,-917.79 298.38,-917.79 292.38,-911.79 292.38,-905.79 292.38,-905.79 292.38,-893.79 292.38,-893.79 292.38,-887.79 298.38,-881.79 304.38,-881.79 304.38,-881.79 395.16,-881.79 395.16,-881.79 401.16,-881.79 407.16,-887.79 407.16,-893.79 407.16,-893.79 407.16,-905.79 407.16,-905.79 407.16,-911.79 401.16,-917.79 395.16,-917.79"/>
<text xml:space="preserve" text-anchor="middle" x="349.77" y="-896.66" font-family="Noto Sans KR" font-size="10.00" fill="#46566e">DamageResult + plans</text>
</g>
<!-- CommittedFacts -->
<g id="node18" class="node">
<title>CommittedFacts</title>
<path fill="#ffffff" stroke="#8292a8" d="M381.28,-736.2C381.28,-736.2 318.25,-736.2 318.25,-736.2 312.25,-736.2 306.25,-730.2 306.25,-724.2 306.25,-724.2 306.25,-712.2 306.25,-712.2 306.25,-706.2 312.25,-700.2 318.25,-700.2 318.25,-700.2 381.28,-700.2 381.28,-700.2 387.28,-700.2 393.28,-706.2 393.28,-712.2 393.28,-712.2 393.28,-724.2 393.28,-724.2 393.28,-730.2 387.28,-736.2 381.28,-736.2"/>
<text xml:space="preserve" text-anchor="middle" x="349.77" y="-715.07" font-family="Noto Sans KR" font-size="10.00" fill="#46566e">committed facts</text>
</g>
<!-- ApplyStatusCommand -->
<g id="node19" class="node">
<title>ApplyStatusCommand</title>
<path fill="#ffffff" stroke="#8292a8" d="M396.28,-554.61C396.28,-554.61 303.25,-554.61 303.25,-554.61 297.25,-554.61 291.25,-548.61 291.25,-542.61 291.25,-542.61 291.25,-530.61 291.25,-530.61 291.25,-524.61 297.25,-518.61 303.25,-518.61 303.25,-518.61 396.28,-518.61 396.28,-518.61 402.28,-518.61 408.28,-524.61 408.28,-530.61 408.28,-530.61 408.28,-542.61 408.28,-542.61 408.28,-548.61 402.28,-554.61 396.28,-554.61"/>
<text xml:space="preserve" text-anchor="middle" x="349.77" y="-533.49" font-family="Noto Sans KR" font-size="10.00" fill="#46566e">ApplyStatus command</text>
</g>
<!-- SharedContractDependency -->
<g id="node20" class="node">
<title>SharedContractDependency</title>
<path fill="#ffffff" stroke="#8292a8" d="M380.16,-283.68C380.16,-283.68 319.38,-283.68 319.38,-283.68 313.38,-283.68 307.38,-277.68 307.38,-271.68 307.38,-271.68 307.38,-259.68 307.38,-259.68 307.38,-253.68 313.38,-247.68 319.38,-247.68 319.38,-247.68 380.16,-247.68 380.16,-247.68 386.16,-247.68 392.16,-253.68 392.16,-259.68 392.16,-259.68 392.16,-271.68 392.16,-271.68 392.16,-277.68 386.16,-283.68 380.16,-283.68"/>
<text xml:space="preserve" text-anchor="middle" x="349.77" y="-268.93" font-family="Noto Sans KR" font-size="10.00" fill="#46566e">shared contract</text>
<text xml:space="preserve" text-anchor="middle" x="349.77" y="-256.18" font-family="Noto Sans KR" font-size="10.00" fill="#46566e">dependency</text>
</g>
</g>
</svg>
