<?xml version="1.0" encoding="UTF-8" standalone="no"?>
<!DOCTYPE svg PUBLIC "-//W3C//DTD SVG 1.1//EN"
 "http://www.w3.org/Graphics/SVG/1.1/DTD/svg11.dtd">
<!-- Generated by graphviz version 15.0.0 (20260523.1842)
 -->
<!-- Title: G Pages: 1 -->
<svg width="799pt" height="1293pt"
 viewBox="9.00 9.00 791.00 1285.00" xmlns="http://www.w3.org/2000/svg" xmlns:xlink="http://www.w3.org/1999/xlink">
<g id="graph0" class="graph" transform="scale(1 1) rotate(0) translate(30.24 1263.24)">
<title>G</title>
<polygon fill="#ffffff" stroke="none" points="-21.6,21.6 -21.6,-1254.6 760.49,-1254.6 760.49,21.6 -21.6,21.6"/>
<!-- Core&#45;&gt;Legend -->
<!-- Effect&#45;&gt;Stat -->
<g id="edge7" class="edge">
<title>Effect:e&#45;&gt;Stat:n</title>
<path fill="none" stroke="#8292a8" stroke-width="1.4" stroke-dasharray="5,2" d="M461.81,-949.6C461.81,-949.6 460.81,-916.48 460.81,-916.48 460.81,-916.48 173.94,-862.33 116.79,-851.54"/>
<polygon fill="#8292a8" stroke="#8292a8" stroke-width="1.4" points="117.42,-848.81 109.04,-850.07 116.38,-854.31 117.42,-848.81"/>
</g>
<!-- Effect&#45;&gt;Combat -->
<g id="edge3" class="edge">
<title>Effect&#45;&gt;Combat</title>
<path fill="none" stroke="#59687e" stroke-width="1.4" d="M371.95,-915.87C371.95,-899.06 371.95,-878.38 371.95,-860.32"/>
<polygon fill="#59687e" stroke="#59687e" stroke-width="1.4" points="374.75,-860.44 371.95,-852.44 369.15,-860.44 374.75,-860.44"/>
<text xml:space="preserve" text-anchor="middle" x="417.83" y="-878.88" font-family="Noto Sans CJK KR" font-size="14.00" fill="#46566e">DamageRequest</text>
</g>
<!-- Skill&#45;&gt;Effect -->
<g id="edge2" class="edge">
<title>Skill&#45;&gt;Effect</title>
<path fill="none" stroke="#59687e" stroke-width="1.4" d="M371.95,-1048.91C371.95,-1032.1 371.95,-1011.42 371.95,-993.36"/>
<polygon fill="#59687e" stroke="#59687e" stroke-width="1.4" points="374.75,-993.48 371.95,-985.48 369.15,-993.48 374.75,-993.48"/>
<text xml:space="preserve" text-anchor="middle" x="413.74" y="-1011.92" font-family="Noto Sans CJK KR" font-size="14.00" fill="#46566e">prepare bundle</text>
</g>
<!-- Combat&#45;&gt;Stat -->
<g id="edge8" class="edge">
<title>Combat:w&#45;&gt;Stat:e</title>
<path fill="none" stroke="#8292a8" stroke-width="1.4" stroke-dasharray="5,2" d="M297.83,-816.56C297.83,-816.56 248.13,-816.56 225.22,-816.56"/>
<polygon fill="#8292a8" stroke="#8292a8" stroke-width="1.4" points="224.03,-813.76 216.03,-816.56 224.03,-819.36 224.03,-813.76"/>
</g>
<!-- Combat&#45;&gt;Commit -->
<g id="edge4" class="edge">
<title>Combat&#45;&gt;Commit</title>
<path fill="none" stroke="#59687e" stroke-width="1.4" d="M369.75,-783C368.88,-770.17 368.08,-758.44 368.08,-758.44 368.08,-758.44 368.08,-741.64 368.08,-741.64 368.08,-741.64 368.5,-735.45 369.07,-727.14"/>
<polygon fill="#59687e" stroke="#59687e" stroke-width="1.4" points="371.86,-727.37 369.6,-719.2 366.27,-726.99 371.86,-727.37"/>
<text xml:space="preserve" text-anchor="middle" x="431.52" y="-745.84" font-family="Noto Sans CJK KR" font-size="14.00" fill="#46566e">DamageResult + plans</text>
</g>
<!-- Status&#45;&gt;Modifier -->
<g id="edge9" class="edge">
<title>Status:w&#45;&gt;Modifier:e</title>
<path fill="none" stroke="#59687e" stroke-width="1.4" d="M288.13,-417.44C288.13,-417.44 236.83,-417.44 213.59,-417.44"/>
<polygon fill="#59687e" stroke="#59687e" stroke-width="1.4" points="212.5,-414.64 204.5,-417.44 212.5,-420.24 212.5,-414.64"/>
</g>
<!-- Status&#45;&gt;Periodic -->
<g id="edge12" class="edge">
<title>Status:w&#45;&gt;Periodic:e</title>
<path fill="none" stroke="#59687e" stroke-width="1.4" d="M286.77,-417.44C286.77,-417.44 287.77,-450.56 287.77,-450.56 287.77,-450.56 455.78,-450.56 455.78,-450.56 455.78,-450.56 669.12,-442.16 669.12,-442.16 669.12,-442.16 669.39,-435.39 669.65,-428.93"/>
<polygon fill="#59687e" stroke="#59687e" stroke-width="1.4" points="672.51,-427.66 670.03,-419.56 666.91,-427.44 672.51,-427.66"/>
</g>
<!-- Status&#45;&gt;CoreConsumers -->
<!-- Commit&#45;&gt;Reaction -->
<g id="edge5" class="edge">
<title>Commit&#45;&gt;Reaction</title>
<path fill="none" stroke="#59687e" stroke-width="1.4" d="M371.95,-649.79C371.95,-632.98 371.95,-612.3 371.95,-594.24"/>
<polygon fill="#59687e" stroke="#59687e" stroke-width="1.4" points="374.75,-594.36 371.95,-586.36 369.15,-594.36 374.75,-594.36"/>
<text xml:space="preserve" text-anchor="middle" x="416.85" y="-612.8" font-family="Noto Sans CJK KR" font-size="14.00" fill="#46566e">committed facts</text>
</g>
<!-- Commit&#45;&gt;Observation -->
<g id="edge11" class="edge">
<title>Commit:e&#45;&gt;Observation:w</title>
<path fill="none" stroke="#59687e" stroke-width="1.4" d="M464.53,-683.52C464.53,-683.52 550.17,-683.52 581.61,-683.52"/>
<polygon fill="#59687e" stroke="#59687e" stroke-width="1.4" points="582.89,-686.32 590.89,-683.52 582.89,-680.72 582.89,-686.32"/>
</g>
<!-- Reaction&#45;&gt;Status -->
<g id="edge6" class="edge">
<title>Reaction&#45;&gt;Status</title>
<path fill="none" stroke="#59687e" stroke-width="1.4" d="M371.95,-516.75C371.95,-499.94 371.95,-479.26 371.95,-461.2"/>
<polygon fill="#59687e" stroke="#59687e" stroke-width="1.4" points="374.75,-461.32 371.95,-453.32 369.15,-461.32 374.75,-461.32"/>
<text xml:space="preserve" text-anchor="middle" x="435.92" y="-479.76" font-family="Noto Sans CJK KR" font-size="14.00" fill="#46566e">ApplyStatus command</text>
</g>
<!-- Modifier&#45;&gt;Stat -->
<g id="edge10" class="edge">
<title>Modifier:n&#45;&gt;Stat:s</title>
<path fill="none" stroke="#59687e" stroke-width="1.4" d="M152.95,-443.16C152.95,-443.16 115.82,-717.83 108.28,-773.62"/>
<polygon fill="#59687e" stroke="#59687e" stroke-width="1.4" points="105.53,-773.04 107.24,-781.34 111.08,-773.79 105.53,-773.04"/>
</g>
<!-- Periodic&#45;&gt;Effect -->
<g id="edge13" class="edge">
<title>Periodic:w&#45;&gt;Effect:w</title>
<path fill="none" stroke="#59687e" stroke-width="1.4" d="M537.79,-417.44C537.79,-417.44 500.95,-758.44 500.95,-758.44 500.95,-758.44 473.95,-891.48 473.95,-891.48 473.95,-891.48 283.09,-916.48 283.09,-916.48 283.09,-916.48 282.68,-930.07 282.39,-939.84"/>
<polygon fill="#59687e" stroke="#59687e" stroke-width="1.4" points="279.6,-939.4 282.16,-947.48 285.2,-939.57 279.6,-939.4"/>
</g>
<!-- CoreConsumers&#45;&gt;Core -->
<g id="edge15" class="edge">
<title>CoreConsumers&#45;&gt;Core</title>
<path fill="none" stroke="#8292a8" stroke-width="1.4" stroke-dasharray="5,2" d="M371.95,-283.37C371.95,-267.47 371.95,-246.23 371.95,-227.56"/>
<polygon fill="#8292a8" stroke="#8292a8" stroke-width="1.4" points="374.75,-227.62 371.95,-219.62 369.15,-227.62 374.75,-227.62"/>
<text xml:space="preserve" text-anchor="middle" x="449.69" y="-246.28" font-family="Noto Sans CJK KR" font-size="14.00" fill="#46566e">shared contract dependency</text>
</g>
<!-- Fireball&#45;&gt;Skill -->
<g id="edge1" class="edge">
<title>Fireball&#45;&gt;Skill</title>
<path fill="none" stroke="#a78b53" stroke-width="1.4" stroke-dasharray="1,5" d="M371.95,-1166.17C371.95,-1150.59 371.95,-1132.02 371.95,-1116.44"/>
</g>
<!-- Core -->
<g id="node1" class="node">
<title>Core</title>
<polygon fill="#eefbf6" stroke="#bac7db" stroke-width="1.5" points="470.56,-217.08 273.35,-217.08 273.35,-213.08 269.35,-213.08 269.35,-209.08 273.35,-209.08 273.35,-158.84 269.35,-158.84 269.35,-154.84 273.35,-154.84 273.35,-150.84 470.56,-150.84 470.56,-217.08"/>
<polyline fill="none" stroke="#bac7db" stroke-width="1.5" points="273.35,-213.08 277.35,-213.08 277.35,-209.08 273.35,-209.08"/>
<polyline fill="none" stroke="#bac7db" stroke-width="1.5" points="273.35,-158.84 277.35,-158.84 277.35,-154.84 273.35,-154.84"/>
<text xml:space="preserve" text-anchor="middle" x="371.95" y="-196.56" font-family="Noto Sans CJK KR" font-size="14.00" fill="#182033">Core Runtime Foundation</text>
<text xml:space="preserve" text-anchor="middle" x="371.95" y="-179.76" font-family="Noto Sans CJK KR" font-size="14.00" fill="#182033">shared identity · event · time</text>
<text xml:space="preserve" text-anchor="middle" x="371.95" y="-162.96" font-family="Noto Sans CJK KR" font-size="14.00" fill="#182033">contracts used by every system</text>
</g>
<!-- Stat -->
<g id="node2" class="node">
<title>Stat</title>
<polygon fill="#eaf0ff" stroke="#bac7db" stroke-width="1.5" points="213.91,-849.68 0,-849.68 0,-845.68 -4,-845.68 -4,-841.68 0,-841.68 0,-791.44 -4,-791.44 -4,-787.44 0,-787.44 0,-783.44 213.91,-783.44 213.91,-849.68"/>
<polyline fill="none" stroke="#bac7db" stroke-width="1.5" points="0,-845.68 4,-845.68 4,-841.68 0,-841.68"/>
<polyline fill="none" stroke="#bac7db" stroke-width="1.5" points="0,-791.44 4,-791.44 4,-787.44 0,-787.44"/>
<text xml:space="preserve" text-anchor="middle" x="106.95" y="-829.16" font-family="Noto Sans CJK KR" font-size="14.00" fill="#182033">Stat System</text>
<text xml:space="preserve" text-anchor="middle" x="106.95" y="-812.36" font-family="Noto Sans CJK KR" font-size="14.00" fill="#182033">read provider for Effect · Combat</text>
<text xml:space="preserve" text-anchor="middle" x="106.95" y="-795.56" font-family="Noto Sans CJK KR" font-size="14.00" fill="#182033">modifier plans from Status</text>
</g>
<!-- Effect -->
<g id="node3" class="node">
<title>Effect</title>
<polygon fill="#fff7e6" stroke="#bac7db" stroke-width="1.5" points="460.44,-982.72 283.46,-982.72 283.46,-978.72 279.46,-978.72 279.46,-974.72 283.46,-974.72 283.46,-924.48 279.46,-924.48 279.46,-920.48 283.46,-920.48 283.46,-916.48 460.44,-916.48 460.44,-982.72"/>
<polyline fill="none" stroke="#bac7db" stroke-width="1.5" points="283.46,-978.72 287.46,-978.72 287.46,-974.72 283.46,-974.72"/>
<polyline fill="none" stroke="#bac7db" stroke-width="1.5" points="283.46,-924.48 287.46,-924.48 287.46,-920.48 283.46,-920.48"/>
<text xml:space="preserve" text-anchor="middle" x="371.95" y="-962.2" font-family="Noto Sans CJK KR" font-size="14.00" fill="#182033">Effect System</text>
<text xml:space="preserve" text-anchor="middle" x="371.95" y="-945.4" font-family="Noto Sans CJK KR" font-size="14.00" fill="#182033">Target · Value · Operation</text>
<text xml:space="preserve" text-anchor="middle" x="371.95" y="-928.6" font-family="Noto Sans CJK KR" font-size="14.00" fill="#182033">EffectResult</text>
</g>
<!-- Skill -->
<g id="node4" class="node">
<title>Skill</title>
<polygon fill="#f3eefc" stroke="#bac7db" stroke-width="1.5" points="464.75,-1115.76 279.16,-1115.76 279.16,-1111.76 275.16,-1111.76 275.16,-1107.76 279.16,-1107.76 279.16,-1057.52 275.16,-1057.52 275.16,-1053.52 279.16,-1053.52 279.16,-1049.52 464.75,-1049.52 464.75,-1115.76"/>
<polyline fill="none" stroke="#bac7db" stroke-width="1.5" points="279.16,-1111.76 283.16,-1111.76 283.16,-1107.76 279.16,-1107.76"/>
<polyline fill="none" stroke="#bac7db" stroke-width="1.5" points="279.16,-1057.52 283.16,-1057.52 283.16,-1053.52 279.16,-1053.52"/>
<text xml:space="preserve" text-anchor="middle" x="371.95" y="-1095.24" font-family="Noto Sans CJK KR" font-size="14.00" fill="#182033">Skill / Action</text>
<text xml:space="preserve" text-anchor="middle" x="371.95" y="-1078.44" font-family="Noto Sans CJK KR" font-size="14.00" fill="#182033">Cost · Cooldown · Timeline</text>
<text xml:space="preserve" text-anchor="middle" x="371.95" y="-1061.64" font-family="Noto Sans CJK KR" font-size="14.00" fill="#182033">EffectBundle</text>
</g>
<!-- Combat -->
<g id="node5" class="node">
<title>Combat</title>
<polygon fill="#fff0f3" stroke="#bac7db" stroke-width="1.5" points="446.07,-849.68 297.83,-849.68 297.83,-845.68 293.83,-845.68 293.83,-841.68 297.83,-841.68 297.83,-791.44 293.83,-791.44 293.83,-787.44 297.83,-787.44 297.83,-783.44 446.07,-783.44 446.07,-849.68"/>
<polyline fill="none" stroke="#bac7db" stroke-width="1.5" points="297.83,-845.68 301.83,-845.68 301.83,-841.68 297.83,-841.68"/>
<polyline fill="none" stroke="#bac7db" stroke-width="1.5" points="297.83,-791.44 301.83,-791.44 301.83,-787.44 297.83,-787.44"/>
<text xml:space="preserve" text-anchor="middle" x="371.95" y="-829.16" font-family="Noto Sans CJK KR" font-size="14.00" fill="#182033">Combat Resolution</text>
<text xml:space="preserve" text-anchor="middle" x="371.95" y="-812.36" font-family="Noto Sans CJK KR" font-size="14.00" fill="#182033">Hit · Critical · Armor</text>
<text xml:space="preserve" text-anchor="middle" x="371.95" y="-795.56" font-family="Noto Sans CJK KR" font-size="14.00" fill="#182033">Resistance · Shield</text>
</g>
<!-- Status -->
<g id="node6" class="node">
<title>Status</title>
<polygon fill="#e9fbff" stroke="#bac7db" stroke-width="1.5" points="455.78,-450.56 288.13,-450.56 288.13,-446.56 284.13,-446.56 284.13,-442.56 288.13,-442.56 288.13,-392.32 284.13,-392.32 284.13,-388.32 288.13,-388.32 288.13,-384.32 455.78,-384.32 455.78,-450.56"/>
<polyline fill="none" stroke="#bac7db" stroke-width="1.5" points="288.13,-446.56 292.13,-446.56 292.13,-442.56 288.13,-442.56"/>
<polyline fill="none" stroke="#bac7db" stroke-width="1.5" points="288.13,-392.32 292.13,-392.32 292.13,-388.32 288.13,-388.32"/>
<text xml:space="preserve" text-anchor="middle" x="371.95" y="-430.04" font-family="Noto Sans CJK KR" font-size="14.00" fill="#182033">Status System</text>
<text xml:space="preserve" text-anchor="middle" x="371.95" y="-413.24" font-family="Noto Sans CJK KR" font-size="14.00" fill="#182033">Duration · Stack · Tick</text>
<text xml:space="preserve" text-anchor="middle" x="371.95" y="-396.44" font-family="Noto Sans CJK KR" font-size="14.00" fill="#182033">Modifier · PeriodicEffect</text>
</g>
<!-- Commit -->
<g id="node7" class="node">
<title>Commit</title>
<polygon fill="#eefbf6" stroke="#bac7db" stroke-width="1.5" points="464.53,-716.64 279.37,-716.64 279.37,-712.64 275.37,-712.64 275.37,-708.64 279.37,-708.64 279.37,-658.4 275.37,-658.4 275.37,-654.4 279.37,-654.4 279.37,-650.4 464.53,-650.4 464.53,-716.64"/>
<polyline fill="none" stroke="#bac7db" stroke-width="1.5" points="279.37,-712.64 283.37,-712.64 283.37,-708.64 279.37,-708.64"/>
<polyline fill="none" stroke="#bac7db" stroke-width="1.5" points="279.37,-658.4 283.37,-658.4 283.37,-654.4 279.37,-654.4"/>
<text xml:space="preserve" text-anchor="middle" x="371.95" y="-696.12" font-family="Noto Sans CJK KR" font-size="14.00" fill="#182033">RuntimeCommitter</text>
<text xml:space="preserve" text-anchor="middle" x="371.95" y="-679.32" font-family="Noto Sans CJK KR" font-size="14.00" fill="#182033">Skill / Effect / Damage plans</text>
<text xml:space="preserve" text-anchor="middle" x="371.95" y="-662.52" font-family="Noto Sans CJK KR" font-size="14.00" fill="#182033">state + outbox atomic</text>
</g>
<!-- Reaction -->
<g id="node8" class="node">
<title>Reaction</title>
<polygon fill="#f3eefc" stroke="#bac7db" stroke-width="1.5" points="439.65,-583.6 304.25,-583.6 304.25,-579.6 300.25,-579.6 300.25,-575.6 304.25,-575.6 304.25,-525.36 300.25,-525.36 300.25,-521.36 304.25,-521.36 304.25,-517.36 439.65,-517.36 439.65,-583.6"/>
<polyline fill="none" stroke="#bac7db" stroke-width="1.5" points="304.25,-579.6 308.25,-579.6 308.25,-575.6 304.25,-575.6"/>
<polyline fill="none" stroke="#bac7db" stroke-width="1.5" points="304.25,-525.36 308.25,-525.36 308.25,-521.36 304.25,-521.36"/>
<text xml:space="preserve" text-anchor="middle" x="371.95" y="-563.08" font-family="Noto Sans CJK KR" font-size="14.00" fill="#182033">ReactionQueue</text>
<text xml:space="preserve" text-anchor="middle" x="371.95" y="-546.28" font-family="Noto Sans CJK KR" font-size="14.00" fill="#182033">priority · stable key</text>
<text xml:space="preserve" text-anchor="middle" x="371.95" y="-529.48" font-family="Noto Sans CJK KR" font-size="14.00" fill="#182033">depth / budget</text>
</g>
<!-- Observation -->
<g id="node9" class="node">
<title>Observation</title>
<polygon fill="#f0f3f9" stroke="#bac7db" stroke-width="1.5" points="738.89,-716.64 593.01,-716.64 593.01,-712.64 589.01,-712.64 589.01,-708.64 593.01,-708.64 593.01,-658.4 589.01,-658.4 589.01,-654.4 593.01,-654.4 593.01,-650.4 738.89,-650.4 738.89,-716.64"/>
<polyline fill="none" stroke="#bac7db" stroke-width="1.5" points="593.01,-712.64 597.01,-712.64 597.01,-708.64 593.01,-708.64"/>
<polyline fill="none" stroke="#bac7db" stroke-width="1.5" points="593.01,-658.4 597.01,-658.4 597.01,-654.4 593.01,-654.4"/>
<text xml:space="preserve" text-anchor="middle" x="665.95" y="-696.12" font-family="Noto Sans CJK KR" font-size="14.00" fill="#182033">Outbox Observation</text>
<text xml:space="preserve" text-anchor="middle" x="665.95" y="-679.32" font-family="Noto Sans CJK KR" font-size="14.00" fill="#182033">UI · log · analytics</text>
<text xml:space="preserve" text-anchor="middle" x="665.95" y="-662.52" font-family="Noto Sans CJK KR" font-size="14.00" fill="#182033">reads committed facts</text>
</g>
<!-- Modifier -->
<g id="node10" class="node">
<title>Modifier</title>
<path fill="#eaf0ff" stroke="#bac7db" stroke-width="1.5" d="M190.38,-442.16C190.38,-442.16 115.53,-442.16 115.53,-442.16 109.53,-442.16 103.53,-436.16 103.53,-430.16 103.53,-430.16 103.53,-404.72 103.53,-404.72 103.53,-398.72 109.53,-392.72 115.53,-392.72 115.53,-392.72 190.38,-392.72 190.38,-392.72 196.38,-392.72 202.38,-398.72 202.38,-404.72 202.38,-404.72 202.38,-430.16 202.38,-430.16 202.38,-436.16 196.38,-442.16 190.38,-442.16"/>
<text xml:space="preserve" text-anchor="middle" x="152.95" y="-421.64" font-family="Noto Sans CJK KR" font-size="14.00" fill="#182033">modifier plan</text>
<text xml:space="preserve" text-anchor="middle" x="152.95" y="-404.84" font-family="Noto Sans CJK KR" font-size="14.00" fill="#182033">to Stat</text>
</g>
<!-- Periodic -->
<g id="node11" class="node">
<title>Periodic</title>
<path fill="#fff7e6" stroke="#bac7db" stroke-width="1.5" d="M657.12,-442.16C657.12,-442.16 550.79,-442.16 550.79,-442.16 544.79,-442.16 538.79,-436.16 538.79,-430.16 538.79,-430.16 538.79,-404.72 538.79,-404.72 538.79,-398.72 544.79,-392.72 550.79,-392.72 550.79,-392.72 657.12,-392.72 657.12,-392.72 663.12,-392.72 669.12,-398.72 669.12,-404.72 669.12,-404.72 669.12,-430.16 669.12,-430.16 669.12,-436.16 663.12,-442.16 657.12,-442.16"/>
<text xml:space="preserve" text-anchor="middle" x="603.95" y="-421.64" font-family="Noto Sans CJK KR" font-size="14.00" fill="#182033">PeriodicEffect</text>
<text xml:space="preserve" text-anchor="middle" x="603.95" y="-404.84" font-family="Noto Sans CJK KR" font-size="14.00" fill="#182033">command to Effect</text>
</g>
<!-- CoreConsumers -->
<g id="node12" class="node">
<title>CoreConsumers</title>
<path fill="#f7f9fc" stroke="#bac7db" stroke-width="1.5" d="M541.41,-333.32C541.41,-333.32 202.5,-333.32 202.5,-333.32 196.5,-333.32 190.5,-327.32 190.5,-321.32 190.5,-321.32 190.5,-295.88 190.5,-295.88 190.5,-289.88 196.5,-283.88 202.5,-283.88 202.5,-283.88 541.41,-283.88 541.41,-283.88 547.41,-283.88 553.41,-289.88 553.41,-295.88 553.41,-295.88 553.41,-321.32 553.41,-321.32 553.41,-327.32 547.41,-333.32 541.41,-333.32"/>
<text xml:space="preserve" text-anchor="middle" x="371.95" y="-312.8" font-family="Noto Sans CJK KR" font-size="14.00" fill="#182033">Skill · Effect · Stat · Combat · Status · RuntimeCommitter</text>
<text xml:space="preserve" text-anchor="middle" x="371.95" y="-296" font-family="Noto Sans CJK KR" font-size="14.00" fill="#182033">read shared contracts</text>
</g>
<!-- Legend -->
<g id="node13" class="node">
<title>Legend</title>
<polygon fill="#ffffff" stroke="#bac7db" stroke-width="1.5" points="505.58,-99.84 232.33,-99.84 232.33,0 511.58,0 511.58,-93.84 505.58,-99.84"/>
<polyline fill="none" stroke="#bac7db" stroke-width="1.5" points="505.58,-99.84 505.58,-93.84"/>
<polyline fill="none" stroke="#bac7db" stroke-width="1.5" points="511.58,-93.84 505.58,-93.84"/>
<text xml:space="preserve" text-anchor="middle" x="371.95" y="-79.32" font-family="Noto Sans CJK KR" font-size="14.00" fill="#182033">Line meaning</text>
<text xml:space="preserve" text-anchor="middle" x="371.95" y="-62.52" font-family="Noto Sans CJK KR" font-size="14.00" fill="#182033">solid arrow: command / plan / committed fact</text>
<text xml:space="preserve" text-anchor="middle" x="371.95" y="-45.72" font-family="Noto Sans CJK KR" font-size="14.00" fill="#182033">dashed arrow: read&#45;only dependency / query</text>
<text xml:space="preserve" text-anchor="middle" x="371.95" y="-28.92" font-family="Noto Sans CJK KR" font-size="14.00" fill="#182033">dotted line: case&#45;study participation</text>
<text xml:space="preserve" text-anchor="middle" x="371.95" y="-12.12" font-family="Noto Sans CJK KR" font-size="14.00" fill="#182033">query arrow: consumer → provider</text>
</g>
<!-- Fireball -->
<g id="node14" class="node">
<title>Fireball</title>
<polygon fill="#ffffff" stroke="#bac7db" stroke-width="1.5" points="473.91,-1233 264,-1233 264,-1166.76 479.91,-1166.76 479.91,-1227 473.91,-1233"/>
<polyline fill="none" stroke="#bac7db" stroke-width="1.5" points="473.91,-1233 473.91,-1227"/>
<polyline fill="none" stroke="#bac7db" stroke-width="1.5" points="479.91,-1227 473.91,-1227"/>
<text xml:space="preserve" text-anchor="middle" x="371.95" y="-1212.48" font-family="Noto Sans CJK KR" font-size="14.00" fill="#182033">Fireball Vertical Slice</text>
<text xml:space="preserve" text-anchor="middle" x="371.95" y="-1195.68" font-family="Noto Sans CJK KR" font-size="14.00" fill="#182033">Skill · Effect · Combat · Commit</text>
<text xml:space="preserve" text-anchor="middle" x="371.95" y="-1178.88" font-family="Noto Sans CJK KR" font-size="14.00" fill="#182033">Reaction · Status participate</text>
</g>
</g>
</svg>
