<?xml version="1.0" encoding="UTF-8" standalone="no"?>
<!DOCTYPE svg PUBLIC "-//W3C//DTD SVG 1.1//EN"
 "http://www.w3.org/Graphics/SVG/1.1/DTD/svg11.dtd">
<!-- Generated by graphviz version 2.42.4 (0)
 -->
<!-- Title: G Pages: 1 -->
<svg width="862pt" height="483pt"
 viewBox="8.64 8.64 853.34 474.84" xmlns="http://www.w3.org/2000/svg" xmlns:xlink="http://www.w3.org/1999/xlink">
<g id="graph0" class="graph" transform="scale(1 1) rotate(0) translate(30.24 453.24)">
<title>G</title>
<polygon fill="#ffffff" stroke="transparent" points="-21.6,21.6 -21.6,-444.6 823.1,-444.6 823.1,21.6 -21.6,21.6"/>
<!-- Core -->
<g id="node1" class="node">
<title>Core</title>
<polygon fill="#eefbf6" stroke="#bac7db" stroke-width="1.5" points="493,-423 317,-423 317,-419 313,-419 313,-415 317,-415 317,-370 313,-370 313,-366 317,-366 317,-362 493,-362 493,-423"/>
<polyline fill="none" stroke="#bac7db" stroke-width="1.5" points="317,-419 321,-419 321,-415 317,-415 "/>
<polyline fill="none" stroke="#bac7db" stroke-width="1.5" points="317,-370 321,-370 321,-366 317,-366 "/>
<text text-anchor="middle" x="405" y="-403.8" font-family="Noto Sans CJK KR" font-size="14.00" fill="#182033">Core Runtime</text>
<text text-anchor="middle" x="405" y="-388.8" font-family="Noto Sans CJK KR" font-size="14.00" fill="#182033">Entity · Tag · SourceId</text>
<text text-anchor="middle" x="405" y="-373.8" font-family="Noto Sans CJK KR" font-size="14.00" fill="#182033">Event · Time · Random</text>
</g>
<!-- Stat -->
<g id="node2" class="node">
<title>Stat</title>
<polygon fill="#eaf0ff" stroke="#bac7db" stroke-width="1.5" points="485.5,-307 324.5,-307 324.5,-303 320.5,-303 320.5,-299 324.5,-299 324.5,-254 320.5,-254 320.5,-250 324.5,-250 324.5,-246 485.5,-246 485.5,-307"/>
<polyline fill="none" stroke="#bac7db" stroke-width="1.5" points="324.5,-303 328.5,-303 328.5,-299 324.5,-299 "/>
<polyline fill="none" stroke="#bac7db" stroke-width="1.5" points="324.5,-254 328.5,-254 328.5,-250 324.5,-250 "/>
<text text-anchor="middle" x="405" y="-287.8" font-family="Noto Sans CJK KR" font-size="14.00" fill="#182033">Stat System</text>
<text text-anchor="middle" x="405" y="-272.8" font-family="Noto Sans CJK KR" font-size="14.00" fill="#182033">Final Value · Modifier</text>
<text text-anchor="middle" x="405" y="-257.8" font-family="Noto Sans CJK KR" font-size="14.00" fill="#182033">Resource · Debug</text>
</g>
<!-- Core&#45;&gt;Stat -->
<g id="edge1" class="edge">
<title>Core&#45;&gt;Stat</title>
<path fill="none" stroke="#59687e" stroke-width="1.4" d="M405,-361.85C405,-347.6 405,-330.36 405,-315.19"/>
<polygon fill="#59687e" stroke="#59687e" stroke-width="1.4" points="407.8,-315.01 405,-307.01 402.2,-315.01 407.8,-315.01"/>
</g>
<!-- Effect -->
<g id="node3" class="node">
<title>Effect</title>
<polygon fill="#fff7e6" stroke="#bac7db" stroke-width="1.5" points="801.5,-307 608.5,-307 608.5,-303 604.5,-303 604.5,-299 608.5,-299 608.5,-254 604.5,-254 604.5,-250 608.5,-250 608.5,-246 801.5,-246 801.5,-307"/>
<polyline fill="none" stroke="#bac7db" stroke-width="1.5" points="608.5,-303 612.5,-303 612.5,-299 608.5,-299 "/>
<polyline fill="none" stroke="#bac7db" stroke-width="1.5" points="608.5,-254 612.5,-254 612.5,-250 608.5,-250 "/>
<text text-anchor="middle" x="705" y="-287.8" font-family="Noto Sans CJK KR" font-size="14.00" fill="#182033">Effect System</text>
<text text-anchor="middle" x="705" y="-272.8" font-family="Noto Sans CJK KR" font-size="14.00" fill="#182033">Target · Value · Operation</text>
<text text-anchor="middle" x="705" y="-257.8" font-family="Noto Sans CJK KR" font-size="14.00" fill="#182033">EffectResult</text>
</g>
<!-- Core&#45;&gt;Effect -->
<g id="edge2" class="edge">
<title>Core&#45;&gt;Effect</title>
<path fill="none" stroke="#59687e" stroke-width="1.4" d="M493.13,-364.51C520.24,-355.69 550.04,-345.45 577,-335 596.15,-327.58 616.57,-318.81 635.35,-310.38"/>
<polygon fill="#59687e" stroke="#59687e" stroke-width="1.4" points="636.59,-312.89 642.73,-307.05 634.29,-307.79 636.59,-312.89"/>
</g>
<!-- Skill -->
<g id="node4" class="node">
<title>Skill</title>
<polygon fill="#f3eefc" stroke="#bac7db" stroke-width="1.5" points="202,-307 0,-307 0,-303 -4,-303 -4,-299 0,-299 0,-254 -4,-254 -4,-250 0,-250 0,-246 202,-246 202,-307"/>
<polyline fill="none" stroke="#bac7db" stroke-width="1.5" points="0,-303 4,-303 4,-299 0,-299 "/>
<polyline fill="none" stroke="#bac7db" stroke-width="1.5" points="0,-254 4,-254 4,-250 0,-250 "/>
<text text-anchor="middle" x="101" y="-287.8" font-family="Noto Sans CJK KR" font-size="14.00" fill="#182033">Skill / Action</text>
<text text-anchor="middle" x="101" y="-272.8" font-family="Noto Sans CJK KR" font-size="14.00" fill="#182033">Cost · Cooldown · Timeline</text>
<text text-anchor="middle" x="101" y="-257.8" font-family="Noto Sans CJK KR" font-size="14.00" fill="#182033">EffectBundle</text>
</g>
<!-- Core&#45;&gt;Skill -->
<g id="edge3" class="edge">
<title>Core&#45;&gt;Skill</title>
<path fill="none" stroke="#59687e" stroke-width="1.4" d="M316.85,-364.55C289.46,-355.69 259.3,-345.42 232,-335 212.54,-327.57 191.77,-318.84 172.64,-310.45"/>
<polygon fill="#59687e" stroke="#59687e" stroke-width="1.4" points="173.56,-307.8 165.11,-307.14 171.3,-312.93 173.56,-307.8"/>
</g>
<!-- Combat -->
<g id="node5" class="node">
<title>Combat</title>
<polygon fill="#fff0f3" stroke="#bac7db" stroke-width="1.5" points="468.5,-177 311.5,-177 311.5,-173 307.5,-173 307.5,-169 311.5,-169 311.5,-124 307.5,-124 307.5,-120 311.5,-120 311.5,-116 468.5,-116 468.5,-177"/>
<polyline fill="none" stroke="#bac7db" stroke-width="1.5" points="311.5,-173 315.5,-173 315.5,-169 311.5,-169 "/>
<polyline fill="none" stroke="#bac7db" stroke-width="1.5" points="311.5,-124 315.5,-124 315.5,-120 311.5,-120 "/>
<text text-anchor="middle" x="390" y="-157.8" font-family="Noto Sans CJK KR" font-size="14.00" fill="#182033">Combat Resolution</text>
<text text-anchor="middle" x="390" y="-142.8" font-family="Noto Sans CJK KR" font-size="14.00" fill="#182033">Hit · Critical · Armor</text>
<text text-anchor="middle" x="390" y="-127.8" font-family="Noto Sans CJK KR" font-size="14.00" fill="#182033">Resistance · Shield</text>
</g>
<!-- Core&#45;&gt;Combat -->
<g id="edge4" class="edge">
<title>Core&#45;&gt;Combat</title>
<path fill="none" stroke="#59687e" stroke-width="1.4" d="M354,-361.95C334.93,-347.96 315.38,-329.37 305,-307 293.58,-282.41 295.55,-271.41 305,-246 313.83,-222.24 331.26,-200.39 348.04,-183.33"/>
<polygon fill="#59687e" stroke="#59687e" stroke-width="1.4" points="350.45,-184.88 354.18,-177.27 346.52,-180.9 350.45,-184.88"/>
</g>
<!-- Status -->
<g id="node6" class="node">
<title>Status</title>
<polygon fill="#e9fbff" stroke="#bac7db" stroke-width="1.5" points="689.5,-177 508.5,-177 508.5,-173 504.5,-173 504.5,-169 508.5,-169 508.5,-124 504.5,-124 504.5,-120 508.5,-120 508.5,-116 689.5,-116 689.5,-177"/>
<polyline fill="none" stroke="#bac7db" stroke-width="1.5" points="508.5,-173 512.5,-173 512.5,-169 508.5,-169 "/>
<polyline fill="none" stroke="#bac7db" stroke-width="1.5" points="508.5,-124 512.5,-124 512.5,-120 508.5,-120 "/>
<text text-anchor="middle" x="599" y="-157.8" font-family="Noto Sans CJK KR" font-size="14.00" fill="#182033">Status System</text>
<text text-anchor="middle" x="599" y="-142.8" font-family="Noto Sans CJK KR" font-size="14.00" fill="#182033">Duration · Stack · Tick</text>
<text text-anchor="middle" x="599" y="-127.8" font-family="Noto Sans CJK KR" font-size="14.00" fill="#182033">Modifier · PeriodicEffect</text>
</g>
<!-- Core&#45;&gt;Status -->
<g id="edge5" class="edge">
<title>Core&#45;&gt;Status</title>
<path fill="none" stroke="#59687e" stroke-width="1.4" d="M446.73,-361.9C466.17,-346.85 488.75,-327.44 506,-307 538.1,-268.97 565.47,-218.4 582.04,-184.49"/>
<polygon fill="#59687e" stroke="#59687e" stroke-width="1.4" points="584.66,-185.52 585.61,-177.1 579.61,-183.08 584.66,-185.52"/>
</g>
<!-- Stat&#45;&gt;Effect -->
<g id="edge6" class="edge">
<title>Stat&#45;&gt;Effect</title>
<path fill="none" stroke="#59687e" stroke-width="1.4" d="M485.57,-276.5C523.71,-276.5 561.86,-276.5 600,-276.5"/>
<polygon fill="#59687e" stroke="#59687e" stroke-width="1.4" points="600.14,-279.3 608.14,-276.5 600.14,-273.7 600.14,-279.3"/>
</g>
<!-- Effect&#45;&gt;Combat -->
<g id="edge8" class="edge">
<title>Effect&#45;&gt;Combat</title>
<path fill="none" stroke="#59687e" stroke-width="1.4" d="M632.34,-245.97C583.95,-226.31 520.33,-200.46 470.42,-180.18"/>
<polygon fill="#59687e" stroke="#59687e" stroke-width="1.4" points="471.31,-177.52 462.84,-177.1 469.2,-182.71 471.31,-177.52"/>
</g>
<!-- Effect&#45;&gt;Status -->
<g id="edge9" class="edge">
<title>Effect&#45;&gt;Status</title>
<path fill="none" stroke="#59687e" stroke-width="1.4" d="M680.42,-245.81C664.96,-227.15 644.94,-202.97 628.61,-183.26"/>
<polygon fill="#59687e" stroke="#59687e" stroke-width="1.4" points="630.71,-181.4 623.45,-177.03 626.4,-184.97 630.71,-181.4"/>
</g>
<!-- Fireball -->
<g id="node9" class="node">
<title>Fireball</title>
<polygon fill="#ffffff" stroke="#bac7db" stroke-width="1.5" points="604,-61 430,-61 430,0 610,0 610,-55 604,-61"/>
<polyline fill="none" stroke="#bac7db" stroke-width="1.5" points="604,-61 604,-55 "/>
<polyline fill="none" stroke="#bac7db" stroke-width="1.5" points="610,-55 604,-55 "/>
<text text-anchor="middle" x="520" y="-41.8" font-family="Noto Sans CJK KR" font-size="14.00" fill="#182033">Fireball Vertical Slice</text>
<text text-anchor="middle" x="520" y="-26.8" font-family="Noto Sans CJK KR" font-size="14.00" fill="#182033">Skill → Effect → Combat</text>
<text text-anchor="middle" x="520" y="-11.8" font-family="Noto Sans CJK KR" font-size="14.00" fill="#182033">Status → EventLog</text>
</g>
<!-- Effect&#45;&gt;Fireball -->
<g id="edge18" class="edge">
<title>Effect&#45;&gt;Fireball</title>
<path fill="none" stroke="#59687e" stroke-width="1.4" stroke-dasharray="1,5" d="M726.3,-245.73C731.1,-237.46 735.51,-228.21 738,-219 747.99,-182.07 732.18,-140.77 710,-116 685.6,-88.74 650.74,-69.83 617.54,-56.91"/>
<polygon fill="#59687e" stroke="#59687e" stroke-width="1.4" points="618.51,-54.29 610.03,-54.09 616.53,-59.53 618.51,-54.29"/>
</g>
<!-- Skill&#45;&gt;Effect -->
<g id="edge7" class="edge">
<title>Skill&#45;&gt;Effect</title>
<path fill="none" stroke="#59687e" stroke-width="1.4" d="M196.98,-307.05C236.23,-318.05 282.36,-329.07 325,-334.5 427.73,-347.58 456.27,-353.84 558,-334.5 583.9,-329.57 611.07,-320.17 634.91,-310.35"/>
<polygon fill="#59687e" stroke="#59687e" stroke-width="1.4" points="636.23,-312.83 642.52,-307.15 634.06,-307.67 636.23,-312.83"/>
</g>
<!-- Skill&#45;&gt;Fireball -->
<g id="edge17" class="edge">
<title>Skill&#45;&gt;Fireball</title>
<path fill="none" stroke="#59687e" stroke-width="1.4" stroke-dasharray="1,5" d="M129.98,-245.75C165.46,-210.74 228.65,-152.72 292,-116 332.48,-92.53 380.66,-73.54 422.27,-59.56"/>
<polygon fill="#59687e" stroke="#59687e" stroke-width="1.4" points="423.25,-62.18 429.96,-57 421.49,-56.87 423.25,-62.18"/>
</g>
<!-- Combat&#45;&gt;Stat -->
<g id="edge10" class="edge">
<title>Combat&#45;&gt;Stat</title>
<path fill="none" stroke="#59687e" stroke-width="1.4" stroke-dasharray="5,2" d="M384.75,-177.23C383.29,-190.14 382.66,-205.39 385,-219 386.08,-225.27 387.78,-231.77 389.75,-238.04"/>
<polygon fill="#59687e" stroke="#59687e" stroke-width="1.4" points="387.16,-239.11 392.36,-245.81 392.47,-237.33 387.16,-239.11"/>
<text text-anchor="middle" x="400.5" y="-207.8" font-family="Noto Sans CJK KR" font-size="14.00">read</text>
</g>
<!-- Combat&#45;&gt;Fireball -->
<g id="edge19" class="edge">
<title>Combat&#45;&gt;Fireball</title>
<path fill="none" stroke="#59687e" stroke-width="1.4" stroke-dasharray="1,5" d="M423.82,-115.85C440.97,-100.8 461.92,-82.43 479.88,-66.68"/>
<polygon fill="#59687e" stroke="#59687e" stroke-width="1.4" points="482.18,-68.39 486.35,-61.01 478.49,-64.18 482.18,-68.39"/>
</g>
<!-- Status&#45;&gt;Stat -->
<g id="edge11" class="edge">
<title>Status&#45;&gt;Stat</title>
<path fill="none" stroke="#59687e" stroke-width="1.4" stroke-dasharray="5,2" d="M508.48,-176.65C491.84,-184.15 475.25,-193.23 461,-204 448.37,-213.55 437.04,-226.61 427.92,-238.95"/>
<polygon fill="#59687e" stroke="#59687e" stroke-width="1.4" points="425.46,-237.57 423.09,-245.71 430.02,-240.83 425.46,-237.57"/>
<text text-anchor="middle" x="488.5" y="-207.8" font-family="Noto Sans CJK KR" font-size="14.00">modifier</text>
</g>
<!-- Status&#45;&gt;Effect -->
<g id="edge12" class="edge">
<title>Status&#45;&gt;Effect</title>
<path fill="none" stroke="#59687e" stroke-width="1.4" stroke-dasharray="5,2" d="M636.46,-177.03C645.7,-185.23 655.18,-194.51 663,-204 671.72,-214.58 679.76,-227.18 686.43,-238.84"/>
<polygon fill="#59687e" stroke="#59687e" stroke-width="1.4" points="684.05,-240.33 690.39,-245.95 688.94,-237.6 684.05,-240.33"/>
<text text-anchor="middle" x="700.5" y="-207.8" font-family="Noto Sans CJK KR" font-size="14.00">periodic</text>
</g>
<!-- Status&#45;&gt;Fireball -->
<g id="edge20" class="edge">
<title>Status&#45;&gt;Fireball</title>
<path fill="none" stroke="#59687e" stroke-width="1.4" stroke-dasharray="1,5" d="M578.45,-115.85C568.3,-101.2 555.96,-83.4 545.24,-67.93"/>
<polygon fill="#59687e" stroke="#59687e" stroke-width="1.4" points="547.31,-65.99 540.45,-61.01 542.7,-69.18 547.31,-65.99"/>
</g>
<!-- Equipment -->
<g id="node7" class="node">
<title>Equipment</title>
<polygon fill="#f8fafc" stroke="#bac7db" stroke-width="1.5" stroke-dasharray="5,2" points="771,-423 585,-423 585,-419 581,-419 581,-415 585,-415 585,-370 581,-370 581,-366 585,-366 585,-362 771,-362 771,-423"/>
<polyline fill="none" stroke="#bac7db" stroke-width="1.5" stroke-dasharray="5,2" points="585,-419 589,-419 589,-415 585,-415 "/>
<polyline fill="none" stroke="#bac7db" stroke-width="1.5" stroke-dasharray="5,2" points="585,-370 589,-370 589,-366 585,-366 "/>
<text text-anchor="middle" x="678" y="-403.8" font-family="Noto Sans CJK KR" font-size="14.00" fill="#182033">Future: Equipment / Item</text>
<text text-anchor="middle" x="678" y="-388.8" font-family="Noto Sans CJK KR" font-size="14.00" fill="#182033">Modifier Provider</text>
<text text-anchor="middle" x="678" y="-373.8" font-family="Noto Sans CJK KR" font-size="14.00" fill="#182033">TriggeredEffect</text>
</g>
<!-- Equipment&#45;&gt;Stat -->
<g id="edge13" class="edge">
<title>Equipment&#45;&gt;Stat</title>
<path fill="none" stroke="#59687e" stroke-width="1.4" stroke-dasharray="5,2" d="M607.34,-361.99C569.42,-346.16 522.59,-326.61 483.54,-310.3"/>
<polygon fill="#59687e" stroke="#59687e" stroke-width="1.4" points="484.3,-307.58 475.84,-307.08 482.14,-312.75 484.3,-307.58"/>
</g>
<!-- Equipment&#45;&gt;Effect -->
<g id="edge14" class="edge">
<title>Equipment&#45;&gt;Effect</title>
<path fill="none" stroke="#59687e" stroke-width="1.4" stroke-dasharray="5,2" d="M685.02,-361.85C688.4,-347.6 692.48,-330.36 696.07,-315.19"/>
<polygon fill="#59687e" stroke="#59687e" stroke-width="1.4" points="698.89,-315.44 698.01,-307.01 693.44,-314.15 698.89,-315.44"/>
</g>
<!-- Progression -->
<g id="node8" class="node">
<title>Progression</title>
<polygon fill="#f8fafc" stroke="#bac7db" stroke-width="1.5" stroke-dasharray="5,2" points="242,-423 30,-423 30,-419 26,-419 26,-415 30,-415 30,-370 26,-370 26,-366 30,-366 30,-362 242,-362 242,-423"/>
<polyline fill="none" stroke="#bac7db" stroke-width="1.5" stroke-dasharray="5,2" points="30,-419 34,-419 34,-415 30,-415 "/>
<polyline fill="none" stroke="#bac7db" stroke-width="1.5" stroke-dasharray="5,2" points="30,-370 34,-370 34,-366 30,-366 "/>
<text text-anchor="middle" x="136" y="-403.8" font-family="Noto Sans CJK KR" font-size="14.00" fill="#182033">Future: Progression / Reward</text>
<text text-anchor="middle" x="136" y="-388.8" font-family="Noto Sans CJK KR" font-size="14.00" fill="#182033">Unlock · Talent</text>
<text text-anchor="middle" x="136" y="-373.8" font-family="Noto Sans CJK KR" font-size="14.00" fill="#182033">SkillMutation</text>
</g>
<!-- Progression&#45;&gt;Stat -->
<g id="edge16" class="edge">
<title>Progression&#45;&gt;Stat</title>
<path fill="none" stroke="#59687e" stroke-width="1.4" stroke-dasharray="5,2" d="M205.62,-361.99C242.99,-346.16 289.13,-326.61 327.61,-310.3"/>
<polygon fill="#59687e" stroke="#59687e" stroke-width="1.4" points="328.93,-312.78 335.2,-307.08 326.74,-307.62 328.93,-312.78"/>
</g>
<!-- Progression&#45;&gt;Skill -->
<g id="edge15" class="edge">
<title>Progression&#45;&gt;Skill</title>
<path fill="none" stroke="#59687e" stroke-width="1.4" stroke-dasharray="5,2" d="M126.9,-361.85C122.48,-347.46 117.13,-330.04 112.44,-314.77"/>
<polygon fill="#59687e" stroke="#59687e" stroke-width="1.4" points="115.08,-313.83 110.06,-307.01 109.73,-315.48 115.08,-313.83"/>
</g>
</g>
</svg>
