<?xml version="1.0" encoding="UTF-8" standalone="no"?>
<!DOCTYPE svg PUBLIC "-//W3C//DTD SVG 1.1//EN"
 "http://www.w3.org/Graphics/SVG/1.1/DTD/svg11.dtd">
<!-- Generated by graphviz version 2.42.4 (0)
 -->
<!-- Title: G Pages: 1 -->
<svg width="1419pt" height="385pt"
 viewBox="8.64 8.64 1410.60 376.10" xmlns="http://www.w3.org/2000/svg" xmlns:xlink="http://www.w3.org/1999/xlink">
<g id="graph0" class="graph" transform="scale(1 1) rotate(0) translate(33.12 351.62)">
<title>G</title>
<polygon fill="#ffffff" stroke="transparent" points="-24.48,24.48 -24.48,-342.98 1377.48,-342.98 1377.48,24.48 -24.48,24.48"/>
<!-- Input -->
<g id="node1" class="node">
<title>Input</title>
<polygon fill="#f7f8fb" stroke="#b8c5d8" stroke-width="1.4" points="162,-183.5 0,-183.5 0,-179.5 -4,-179.5 -4,-175.5 0,-175.5 0,-143.5 -4,-143.5 -4,-139.5 0,-139.5 0,-135.5 162,-135.5 162,-183.5"/>
<polyline fill="none" stroke="#b8c5d8" stroke-width="1.4" points="0,-179.5 4,-179.5 4,-175.5 0,-175.5 "/>
<polyline fill="none" stroke="#b8c5d8" stroke-width="1.4" points="0,-143.5 4,-143.5 4,-139.5 0,-139.5 "/>
<text text-anchor="middle" x="81" y="-163.3" font-family="Noto Sans CJK KR" font-size="14.00" fill="#182033">Input Adapters</text>
<text text-anchor="middle" x="81" y="-148.3" font-family="Noto Sans CJK KR" font-size="14.00" fill="#182033">Player · AI · Network</text>
</g>
<!-- Contracts -->
<g id="node5" class="node">
<title>Contracts</title>
<path fill="#eefbf6" stroke="#b8c5d8" stroke-width="1.4" d="M527,-191C527,-191 295,-191 295,-191 289,-191 283,-185 283,-179 283,-179 283,-140 283,-140 283,-134 289,-128 295,-128 295,-128 527,-128 527,-128 533,-128 539,-134 539,-140 539,-140 539,-179 539,-179 539,-185 533,-191 527,-191"/>
<text text-anchor="middle" x="411" y="-170.8" font-family="Noto Sans CJK KR" font-size="14.00" fill="#182033">Contract Boundary</text>
<text text-anchor="middle" x="411" y="-155.8" font-family="Noto Sans CJK KR" font-size="14.00" fill="#182033">CommandEnvelope · DomainEvent</text>
<text text-anchor="middle" x="411" y="-140.8" font-family="Noto Sans CJK KR" font-size="14.00" fill="#182033">Versioned Document</text>
</g>
<!-- Input&#45;&gt;Contracts -->
<g id="edge1" class="edge">
<title>Input&#45;&gt;Contracts</title>
<path fill="none" stroke="#59687e" stroke-width="1.35" d="M162.15,-159.5C162.15,-159.5 275.37,-159.5 275.37,-159.5"/>
<polygon fill="#59687e" stroke="#59687e" stroke-width="1.35" points="275.37,-162.13 282.87,-159.5 275.37,-156.88 275.37,-162.13"/>
<text text-anchor="middle" x="222.5" y="-163.3" font-family="Noto Sans CJK KR" font-size="14.00">command</text>
</g>
<!-- Storage -->
<g id="node2" class="node">
<title>Storage</title>
<polygon fill="#f7f8fb" stroke="#b8c5d8" stroke-width="1.4" points="1353,-318.5 1112,-318.5 1112,-314.5 1108,-314.5 1108,-310.5 1112,-310.5 1112,-278.5 1108,-278.5 1108,-274.5 1112,-274.5 1112,-270.5 1353,-270.5 1353,-318.5"/>
<polyline fill="none" stroke="#b8c5d8" stroke-width="1.4" points="1112,-314.5 1116,-314.5 1116,-310.5 1112,-310.5 "/>
<polyline fill="none" stroke="#b8c5d8" stroke-width="1.4" points="1112,-278.5 1116,-278.5 1116,-274.5 1112,-274.5 "/>
<text text-anchor="middle" x="1232.5" y="-298.3" font-family="Noto Sans CJK KR" font-size="14.00" fill="#182033">Persistence Adapters</text>
<text text-anchor="middle" x="1232.5" y="-283.3" font-family="Noto Sans CJK KR" font-size="14.00" fill="#182033">DB Transaction · Durable Outbox</text>
</g>
<!-- Kernel -->
<g id="node6" class="node">
<title>Kernel</title>
<polygon fill="#eaf0ff" stroke="#b8c5d8" stroke-width="2" points="923,-191 696,-191 696,-187 692,-187 692,-183 696,-183 696,-136 692,-136 692,-132 696,-132 696,-128 923,-128 923,-191"/>
<polyline fill="none" stroke="#b8c5d8" stroke-width="2" points="696,-187 700,-187 700,-183 696,-183 "/>
<polyline fill="none" stroke="#b8c5d8" stroke-width="2" points="696,-136 700,-136 700,-132 696,-132 "/>
<text text-anchor="middle" x="809.5" y="-170.8" font-family="Noto Sans CJK KR" font-size="14.00" fill="#182033">Phase 3 Runtime Kernel</text>
<text text-anchor="middle" x="809.5" y="-155.8" font-family="Noto Sans CJK KR" font-size="14.00" fill="#182033">Resolve · Commit · Reaction</text>
<text text-anchor="middle" x="809.5" y="-140.8" font-family="Noto Sans CJK KR" font-size="14.00" fill="#182033">Status Tick · Cache · Migration</text>
</g>
<!-- Storage&#45;&gt;Kernel -->
<g id="edge4" class="edge">
<title>Storage&#45;&gt;Kernel</title>
<path fill="none" stroke="#59687e" stroke-width="1.35" stroke-dasharray="5,2" d="M1111.81,-302.5C975.37,-302.5 772,-302.5 772,-302.5 772,-302.5 772,-198.74 772,-198.74"/>
<polygon fill="#59687e" stroke="#59687e" stroke-width="1.35" points="774.63,-198.74 772,-191.24 769.38,-198.74 774.63,-198.74"/>
<text text-anchor="middle" x="1017.5" y="-246.3" font-family="Noto Sans CJK KR" font-size="14.00">snapshot / versions</text>
</g>
<!-- Engine -->
<g id="node3" class="node">
<title>Engine</title>
<polygon fill="#f7f8fb" stroke="#b8c5d8" stroke-width="1.4" points="1350,-233.5 1115,-233.5 1115,-229.5 1111,-229.5 1111,-225.5 1115,-225.5 1115,-193.5 1111,-193.5 1111,-189.5 1115,-189.5 1115,-185.5 1350,-185.5 1350,-233.5"/>
<polyline fill="none" stroke="#b8c5d8" stroke-width="1.4" points="1115,-229.5 1119,-229.5 1119,-225.5 1115,-225.5 "/>
<polyline fill="none" stroke="#b8c5d8" stroke-width="1.4" points="1115,-193.5 1119,-193.5 1119,-189.5 1115,-189.5 "/>
<text text-anchor="middle" x="1232.5" y="-213.3" font-family="Noto Sans CJK KR" font-size="14.00" fill="#182033">Engine Adapters</text>
<text text-anchor="middle" x="1232.5" y="-198.3" font-family="Noto Sans CJK KR" font-size="14.00" fill="#182033">Animation · Physics · Resources</text>
</g>
<!-- Telemetry -->
<g id="node4" class="node">
<title>Telemetry</title>
<polygon fill="#f7f8fb" stroke="#b8c5d8" stroke-width="1.4" points="1339,-150.5 1126,-150.5 1126,-146.5 1122,-146.5 1122,-142.5 1126,-142.5 1126,-110.5 1122,-110.5 1122,-106.5 1126,-106.5 1126,-102.5 1339,-102.5 1339,-150.5"/>
<polyline fill="none" stroke="#b8c5d8" stroke-width="1.4" points="1126,-146.5 1130,-146.5 1130,-142.5 1126,-142.5 "/>
<polyline fill="none" stroke="#b8c5d8" stroke-width="1.4" points="1126,-110.5 1130,-110.5 1130,-106.5 1126,-106.5 "/>
<text text-anchor="middle" x="1232.5" y="-130.3" font-family="Noto Sans CJK KR" font-size="14.00" fill="#182033">Observation Adapters</text>
<text text-anchor="middle" x="1232.5" y="-115.3" font-family="Noto Sans CJK KR" font-size="14.00" fill="#182033">UI · Audio · Trace · Analytics</text>
</g>
<!-- Contracts&#45;&gt;Kernel -->
<g id="edge2" class="edge">
<title>Contracts&#45;&gt;Kernel</title>
<path fill="none" stroke="#59687e" stroke-width="1.35" d="M539.01,-159.5C539.01,-159.5 688.27,-159.5 688.27,-159.5"/>
<polygon fill="#59687e" stroke="#59687e" stroke-width="1.35" points="688.27,-162.13 695.77,-159.5 688.26,-156.88 688.27,-162.13"/>
<text text-anchor="middle" x="617.5" y="-163.3" font-family="Noto Sans CJK KR" font-size="14.00">validated intent</text>
</g>
<!-- Kernel&#45;&gt;Storage -->
<g id="edge3" class="edge">
<title>Kernel&#45;&gt;Storage</title>
<path fill="none" stroke="#59687e" stroke-width="1.35" d="M848,-191.22C848,-228.84 848,-286.5 848,-286.5 848,-286.5 1104.4,-286.5 1104.4,-286.5"/>
<polygon fill="#59687e" stroke="#59687e" stroke-width="1.35" points="1104.4,-289.13 1111.9,-286.5 1104.4,-283.88 1104.4,-289.13"/>
<text text-anchor="middle" x="1017.5" y="-301.3" font-family="Noto Sans CJK KR" font-size="14.00">atomic plan / outbox</text>
</g>
<!-- Kernel&#45;&gt;Engine -->
<g id="edge5" class="edge">
<title>Kernel&#45;&gt;Engine</title>
<path fill="none" stroke="#59687e" stroke-width="1.35" d="M923.28,-168C1012.27,-168 1121,-168 1121,-168 1121,-168 1121,-177.86 1121,-177.86"/>
<polygon fill="#59687e" stroke="#59687e" stroke-width="1.35" points="1118.38,-177.86 1121,-185.36 1123.63,-177.86 1118.38,-177.86"/>
<text text-anchor="middle" x="1017.5" y="-191.3" font-family="Noto Sans CJK KR" font-size="14.00">committed result</text>
</g>
<!-- Kernel&#45;&gt;Telemetry -->
<g id="edge6" class="edge">
<title>Kernel&#45;&gt;Telemetry</title>
<path fill="none" stroke="#59687e" stroke-width="1.35" d="M923.13,-139.25C923.13,-139.25 1118.38,-139.25 1118.38,-139.25"/>
<polygon fill="#59687e" stroke="#59687e" stroke-width="1.35" points="1118.38,-141.88 1125.88,-139.25 1118.38,-136.63 1118.38,-141.88"/>
<text text-anchor="middle" x="1017.5" y="-136.3" font-family="Noto Sans CJK KR" font-size="14.00">observation events</text>
</g>
<!-- Replay -->
<g id="node7" class="node">
<title>Replay</title>
<polygon fill="#fff7e6" stroke="#b8c5d8" stroke-width="1.4" points="1313.5,-63 1145.5,-63 1145.5,0 1319.5,0 1319.5,-57 1313.5,-63"/>
<polyline fill="none" stroke="#b8c5d8" stroke-width="1.4" points="1313.5,-63 1313.5,-57 "/>
<polyline fill="none" stroke="#b8c5d8" stroke-width="1.4" points="1319.5,-57 1313.5,-57 "/>
<text text-anchor="middle" x="1232.5" y="-42.8" font-family="Noto Sans CJK KR" font-size="14.00" fill="#182033">Replay Fixture</text>
<text text-anchor="middle" x="1232.5" y="-27.8" font-family="Noto Sans CJK KR" font-size="14.00" fill="#182033">Input + Versions + Seed</text>
<text text-anchor="middle" x="1232.5" y="-12.8" font-family="Noto Sans CJK KR" font-size="14.00" fill="#182033">Expected Hash</text>
</g>
<!-- Kernel&#45;&gt;Replay -->
<g id="edge8" class="edge">
<title>Kernel&#45;&gt;Replay</title>
<path fill="none" stroke="#59687e" stroke-width="1.35" stroke-dasharray="5,2" d="M772,-127.73C772,-86.84 772,-21 772,-21 772,-21 1137.84,-21 1137.84,-21"/>
<polygon fill="#59687e" stroke="#59687e" stroke-width="1.35" points="1137.84,-23.63 1145.34,-21 1137.84,-18.38 1137.84,-23.63"/>
<text text-anchor="middle" x="1017.5" y="-81.3" font-family="Noto Sans CJK KR" font-size="14.00">trace + hash</text>
</g>
<!-- Replay&#45;&gt;Kernel -->
<g id="edge7" class="edge">
<title>Replay&#45;&gt;Kernel</title>
<path fill="none" stroke="#59687e" stroke-width="1.35" d="M1145.25,-42C1031.81,-42 848,-42 848,-42 848,-42 848,-120.2 848,-120.2"/>
<polygon fill="#59687e" stroke="#59687e" stroke-width="1.35" points="845.38,-120.2 848,-127.7 850.63,-120.2 845.38,-120.2"/>
<text text-anchor="middle" x="1017.5" y="-26.3" font-family="Noto Sans CJK KR" font-size="14.00">deterministic test</text>
</g>
</g>
</svg>
