<?xml version="1.0" encoding="UTF-8" standalone="no"?>
<!DOCTYPE svg PUBLIC "-//W3C//DTD SVG 1.1//EN"
 "http://www.w3.org/Graphics/SVG/1.1/DTD/svg11.dtd">
<!-- Generated by graphviz version 15.1.0 (20260618.0150)
 -->
<!-- Title: G Pages: 1 -->
<svg width="2195pt" height="730pt"
 viewBox="12.00 12.00 2184.00 719.00" xmlns="http://www.w3.org/2000/svg" xmlns:xlink="http://www.w3.org/1999/xlink">
<g id="graph0" class="graph" transform="scale(1.33333 1.33333) rotate(0) translate(33.12 514.73)">
<title>G</title>
<polygon fill="#ffffff" stroke="none" points="-24.48,24.48 -24.48,-506.09 1604.58,-506.09 1604.58,24.48 -24.48,24.48"/>
<!-- Input -->
<g id="node1" class="node">
<title>Input</title>
<polygon fill="#f7f8fb" stroke="#b8c5d8" stroke-width="1.4" points="154.92,-346.61 0,-346.61 0,-342.61 -4,-342.61 -4,-338.61 0,-338.61 0,-301.39 -4,-301.39 -4,-297.39 0,-297.39 0,-293.39 154.92,-293.39 154.92,-346.61"/>
<polyline fill="none" stroke="#b8c5d8" stroke-width="1.4" points="0,-342.61 4,-342.61 4,-338.61 0,-338.61"/>
<polyline fill="none" stroke="#b8c5d8" stroke-width="1.4" points="0,-301.39 4,-301.39 4,-297.39 0,-297.39"/>
<text xml:space="preserve" text-anchor="middle" x="77.46" y="-323.95" font-family="Noto Sans KR" font-size="14.00" fill="#182033">Input Adapters</text>
<text xml:space="preserve" text-anchor="middle" x="77.46" y="-306.7" font-family="Noto Sans KR" font-size="14.00" fill="#182033">Player · AI · Network</text>
</g>
<!-- Contracts -->
<g id="node5" class="node">
<title>Contracts</title>
<path fill="#eefbf6" stroke="#b8c5d8" stroke-width="1.4" d="M511.34,-355.24C511.34,-355.24 287.42,-355.24 287.42,-355.24 281.42,-355.24 275.42,-349.24 275.42,-343.24 275.42,-343.24 275.42,-296.76 275.42,-296.76 275.42,-290.76 281.42,-284.76 287.42,-284.76 287.42,-284.76 511.34,-284.76 511.34,-284.76 517.34,-284.76 523.34,-290.76 523.34,-296.76 523.34,-296.76 523.34,-343.24 523.34,-343.24 523.34,-349.24 517.34,-355.24 511.34,-355.24"/>
<text xml:space="preserve" text-anchor="middle" x="399.38" y="-332.57" font-family="Noto Sans KR" font-size="14.00" fill="#182033">Contract Boundary</text>
<text xml:space="preserve" text-anchor="middle" x="399.38" y="-315.32" font-family="Noto Sans KR" font-size="14.00" fill="#182033">CommandEnvelope · DomainEvent</text>
<text xml:space="preserve" text-anchor="middle" x="399.38" y="-298.07" font-family="Noto Sans KR" font-size="14.00" fill="#182033">Versioned Document</text>
</g>
<!-- Input&#45;&gt;Contracts -->
<g id="edge1" class="edge">
<title>Input&#45;&gt;Contracts</title>
<path fill="none" stroke="#59687e" stroke-width="1.35" d="M155.5,-320C188.48,-320 227.96,-320 265.41,-320"/>
<polygon fill="#59687e" stroke="#59687e" stroke-width="1.35" points="265.34,-322.63 272.84,-320 265.34,-317.38 265.34,-322.63"/>
<text xml:space="preserve" text-anchor="middle" x="215.17" y="-323.95" font-family="Noto Sans KR" font-size="14.00" fill="#46566e">command</text>
</g>
<!-- Storage -->
<g id="node2" class="node">
<title>Storage</title>
<polygon fill="#f7f8fb" stroke="#b8c5d8" stroke-width="1.4" points="1580.1,-298.61 1350.18,-298.61 1350.18,-294.61 1346.18,-294.61 1346.18,-290.61 1350.18,-290.61 1350.18,-253.39 1346.18,-253.39 1346.18,-249.39 1350.18,-249.39 1350.18,-245.39 1580.1,-245.39 1580.1,-298.61"/>
<polyline fill="none" stroke="#b8c5d8" stroke-width="1.4" points="1350.18,-294.61 1354.18,-294.61 1354.18,-290.61 1350.18,-290.61"/>
<polyline fill="none" stroke="#b8c5d8" stroke-width="1.4" points="1350.18,-253.39 1354.18,-253.39 1354.18,-249.39 1350.18,-249.39"/>
<text xml:space="preserve" text-anchor="middle" x="1465.14" y="-275.95" font-family="Noto Sans KR" font-size="14.00" fill="#182033">Persistence Adapters</text>
<text xml:space="preserve" text-anchor="middle" x="1465.14" y="-258.7" font-family="Noto Sans KR" font-size="14.00" fill="#182033">DB Transaction · Durable Outbox</text>
</g>
<!-- SnapshotRead -->
<g id="node9" class="node">
<title>SnapshotRead</title>
<path fill="#ffffff" stroke="#8292a8" d="M1219.49,-117C1219.49,-117 1139.96,-117 1139.96,-117 1133.96,-117 1127.96,-111 1127.96,-105 1127.96,-105 1127.96,-93 1127.96,-93 1127.96,-87 1133.96,-81 1139.96,-81 1139.96,-81 1219.49,-81 1219.49,-81 1225.49,-81 1231.49,-87 1231.49,-93 1231.49,-93 1231.49,-105 1231.49,-105 1231.49,-111 1225.49,-117 1219.49,-117"/>
<text xml:space="preserve" text-anchor="middle" x="1179.72" y="-95.88" font-family="Noto Sans KR" font-size="10.00" fill="#182033">snapshot / versions</text>
</g>
<!-- Storage&#45;&gt;SnapshotRead -->
<g id="edge5" class="edge">
<title>Storage&#45;&gt;SnapshotRead</title>
<path fill="none" stroke="#59687e" stroke-width="1.35" stroke-dasharray="5,2" d="M1400.83,-244.78C1374.6,-233.5 1350.18,-223 1350.18,-223 1350.18,-223 1293.18,-140 1293.18,-140 1293.18,-140 1267.15,-130.51 1240.13,-120.66"/>
<polygon fill="#59687e" stroke="#59687e" stroke-width="1.35" points="1241.22,-118.26 1233.28,-118.16 1239.42,-123.2 1241.22,-118.26"/>
</g>
<!-- Engine -->
<g id="node3" class="node">
<title>Engine</title>
<polygon fill="#f7f8fb" stroke="#b8c5d8" stroke-width="1.4" points="1293.18,-481.61 1066.26,-481.61 1066.26,-477.61 1062.26,-477.61 1062.26,-473.61 1066.26,-473.61 1066.26,-436.39 1062.26,-436.39 1062.26,-432.39 1066.26,-432.39 1066.26,-428.39 1293.18,-428.39 1293.18,-481.61"/>
<polyline fill="none" stroke="#b8c5d8" stroke-width="1.4" points="1066.26,-477.61 1070.26,-477.61 1070.26,-473.61 1066.26,-473.61"/>
<polyline fill="none" stroke="#b8c5d8" stroke-width="1.4" points="1066.26,-436.39 1070.26,-436.39 1070.26,-432.39 1066.26,-432.39"/>
<text xml:space="preserve" text-anchor="middle" x="1179.72" y="-458.95" font-family="Noto Sans KR" font-size="14.00" fill="#182033">Engine Adapters</text>
<text xml:space="preserve" text-anchor="middle" x="1179.72" y="-441.7" font-family="Noto Sans KR" font-size="14.00" fill="#182033">Animation · Physics · Resources</text>
</g>
<!-- Telemetry -->
<g id="node4" class="node">
<title>Telemetry</title>
<polygon fill="#f7f8fb" stroke="#b8c5d8" stroke-width="1.4" points="1282.68,-383.61 1076.76,-383.61 1076.76,-379.61 1072.76,-379.61 1072.76,-375.61 1076.76,-375.61 1076.76,-338.39 1072.76,-338.39 1072.76,-334.39 1076.76,-334.39 1076.76,-330.39 1282.68,-330.39 1282.68,-383.61"/>
<polyline fill="none" stroke="#b8c5d8" stroke-width="1.4" points="1076.76,-379.61 1080.76,-379.61 1080.76,-375.61 1076.76,-375.61"/>
<polyline fill="none" stroke="#b8c5d8" stroke-width="1.4" points="1076.76,-338.39 1080.76,-338.39 1080.76,-334.39 1076.76,-334.39"/>
<text xml:space="preserve" text-anchor="middle" x="1179.72" y="-360.95" font-family="Noto Sans KR" font-size="14.00" fill="#182033">Observation Adapters</text>
<text xml:space="preserve" text-anchor="middle" x="1179.72" y="-343.7" font-family="Noto Sans KR" font-size="14.00" fill="#182033">UI · Audio · Trace · Analytics</text>
</g>
<!-- Kernel -->
<g id="node6" class="node">
<title>Kernel</title>
<polygon fill="#eaf0ff" stroke="#b8c5d8" stroke-width="2" points="893.26,-355.24 676.09,-355.24 676.09,-351.24 672.09,-351.24 672.09,-347.24 676.09,-347.24 676.09,-292.76 672.09,-292.76 672.09,-288.76 676.09,-288.76 676.09,-284.76 893.26,-284.76 893.26,-355.24"/>
<polyline fill="none" stroke="#b8c5d8" stroke-width="2" points="676.09,-351.24 680.09,-351.24 680.09,-347.24 676.09,-347.24"/>
<polyline fill="none" stroke="#b8c5d8" stroke-width="2" points="676.09,-292.76 680.09,-292.76 680.09,-288.76 676.09,-288.76"/>
<text xml:space="preserve" text-anchor="middle" x="784.68" y="-332.57" font-family="Noto Sans KR" font-size="14.00" fill="#182033">Runtime Kernel</text>
<text xml:space="preserve" text-anchor="middle" x="784.68" y="-315.32" font-family="Noto Sans KR" font-size="14.00" fill="#182033">Resolve · Commit · Reaction</text>
<text xml:space="preserve" text-anchor="middle" x="784.68" y="-298.07" font-family="Noto Sans KR" font-size="14.00" fill="#182033">Status Tick · Cache · Migration</text>
</g>
<!-- Contracts&#45;&gt;Kernel -->
<g id="edge2" class="edge">
<title>Contracts&#45;&gt;Kernel</title>
<path fill="none" stroke="#59687e" stroke-width="1.35" d="M524.03,-320C569.48,-320 620.79,-320 665.72,-320"/>
<polygon fill="#59687e" stroke="#59687e" stroke-width="1.35" points="665.66,-322.63 673.16,-320 665.66,-317.38 665.66,-322.63"/>
<text xml:space="preserve" text-anchor="middle" x="599.72" y="-323.95" font-family="Noto Sans KR" font-size="14.00" fill="#46566e">validated intent</text>
</g>
<!-- Kernel&#45;&gt;Engine -->
<g id="edge7" class="edge">
<title>Kernel&#45;&gt;Engine</title>
<path fill="none" stroke="#59687e" stroke-width="1.35" d="M881.68,-356.11C903.94,-364.48 921.26,-371 921.26,-371 921.26,-371 1012.39,-400.73 1086.22,-424.82"/>
<polygon fill="#59687e" stroke="#59687e" stroke-width="1.35" points="1085.24,-427.26 1093.19,-427.09 1086.87,-422.27 1085.24,-427.26"/>
<text xml:space="preserve" text-anchor="middle" x="979.76" y="-411.92" font-family="Noto Sans KR" font-size="14.00" fill="#46566e">committed result</text>
</g>
<!-- Kernel&#45;&gt;Telemetry -->
<g id="edge8" class="edge">
<title>Kernel&#45;&gt;Telemetry</title>
<path fill="none" stroke="#59687e" stroke-width="1.35" d="M894.12,-330.21C947.92,-335.27 1012.84,-341.38 1067.08,-346.49"/>
<polygon fill="#59687e" stroke="#59687e" stroke-width="1.35" points="1066.63,-349.08 1074.34,-347.17 1067.12,-343.86 1066.63,-349.08"/>
<text xml:space="preserve" text-anchor="middle" x="979.76" y="-346.85" font-family="Noto Sans KR" font-size="14.00" fill="#46566e">observation events</text>
</g>
<!-- PersistWrite -->
<g id="node8" class="node">
<title>PersistWrite</title>
<path fill="#ffffff" stroke="#8292a8" d="M1223.24,-285C1223.24,-285 1136.21,-285 1136.21,-285 1130.21,-285 1124.21,-279 1124.21,-273 1124.21,-273 1124.21,-261 1124.21,-261 1124.21,-255 1130.21,-249 1136.21,-249 1136.21,-249 1223.24,-249 1223.24,-249 1229.24,-249 1235.24,-255 1235.24,-261 1235.24,-261 1235.24,-273 1235.24,-273 1235.24,-279 1229.24,-285 1223.24,-285"/>
<text xml:space="preserve" text-anchor="middle" x="1179.72" y="-263.88" font-family="Noto Sans KR" font-size="10.00" fill="#182033">atomic state / outbox</text>
</g>
<!-- Kernel&#45;&gt;PersistWrite -->
<g id="edge3" class="edge">
<title>Kernel&#45;&gt;PersistWrite</title>
<path fill="none" stroke="#59687e" stroke-width="1.35" d="M894.12,-305.38C964.86,-295.84 1054.81,-283.71 1114.44,-275.67"/>
<polygon fill="#59687e" stroke="#59687e" stroke-width="1.35" points="1114.64,-278.29 1121.72,-274.69 1113.94,-273.09 1114.64,-278.29"/>
</g>
<!-- ReplayTrace -->
<g id="node11" class="node">
<title>ReplayTrace</title>
<path fill="#ffffff" stroke="#8292a8" d="M1202.61,-198C1202.61,-198 1156.83,-198 1156.83,-198 1150.83,-198 1144.83,-192 1144.83,-186 1144.83,-186 1144.83,-174 1144.83,-174 1144.83,-168 1150.83,-162 1156.83,-162 1156.83,-162 1202.61,-162 1202.61,-162 1208.61,-162 1214.61,-168 1214.61,-174 1214.61,-174 1214.61,-186 1214.61,-186 1214.61,-192 1208.61,-198 1202.61,-198"/>
<text xml:space="preserve" text-anchor="middle" x="1179.72" y="-176.88" font-family="Noto Sans KR" font-size="10.00" fill="#182033">trace + hash</text>
</g>
<!-- Kernel&#45;&gt;ReplayTrace -->
<g id="edge11" class="edge">
<title>Kernel&#45;&gt;ReplayTrace</title>
<path fill="none" stroke="#59687e" stroke-width="1.35" stroke-dasharray="5,2" d="M887.15,-283.86C967.85,-255.11 1076.71,-216.33 1135.96,-195.23"/>
<polygon fill="#59687e" stroke="#59687e" stroke-width="1.35" points="1136.57,-197.8 1142.75,-192.81 1134.81,-192.85 1136.57,-197.8"/>
</g>
<!-- Replay -->
<g id="node7" class="node">
<title>Replay</title>
<polygon fill="#fff7e6" stroke="#b8c5d8" stroke-width="1.4" points="1543.73,-200.24 1380.56,-200.24 1380.56,-129.76 1549.73,-129.76 1549.73,-194.24 1543.73,-200.24"/>
<polyline fill="none" stroke="#b8c5d8" stroke-width="1.4" points="1543.73,-200.24 1543.73,-194.24"/>
<polyline fill="none" stroke="#b8c5d8" stroke-width="1.4" points="1549.73,-194.24 1543.73,-194.24"/>
<text xml:space="preserve" text-anchor="middle" x="1465.14" y="-177.57" font-family="Noto Sans KR" font-size="14.00" fill="#182033">Replay Fixture</text>
<text xml:space="preserve" text-anchor="middle" x="1465.14" y="-160.32" font-family="Noto Sans KR" font-size="14.00" fill="#182033">Input + Versions + Seed</text>
<text xml:space="preserve" text-anchor="middle" x="1465.14" y="-143.07" font-family="Noto Sans KR" font-size="14.00" fill="#182033">Expected Hash</text>
</g>
<!-- ReplayInput -->
<g id="node10" class="node">
<title>ReplayInput</title>
<path fill="#ffffff" stroke="#8292a8" d="M1214.24,-36C1214.24,-36 1145.21,-36 1145.21,-36 1139.21,-36 1133.21,-30 1133.21,-24 1133.21,-24 1133.21,-12 1133.21,-12 1133.21,-6 1139.21,0 1145.21,0 1145.21,0 1214.24,0 1214.24,0 1220.24,0 1226.24,-6 1226.24,-12 1226.24,-12 1226.24,-24 1226.24,-24 1226.24,-30 1220.24,-36 1214.24,-36"/>
<text xml:space="preserve" text-anchor="middle" x="1179.72" y="-14.88" font-family="Noto Sans KR" font-size="10.00" fill="#182033">deterministic test</text>
</g>
<!-- Replay&#45;&gt;ReplayInput -->
<g id="edge9" class="edge">
<title>Replay&#45;&gt;ReplayInput</title>
<path fill="none" stroke="#59687e" stroke-width="1.35" d="M1411.28,-129.25C1370.92,-101.96 1322.18,-69 1322.18,-69 1322.18,-69 1275.31,-52.1 1235.53,-37.76"/>
<polygon fill="#59687e" stroke="#59687e" stroke-width="1.35" points="1236.52,-35.33 1228.57,-35.25 1234.74,-40.26 1236.52,-35.33"/>
</g>
<!-- PersistWrite&#45;&gt;Storage -->
<g id="edge4" class="edge">
<title>PersistWrite&#45;&gt;Storage</title>
<path fill="none" stroke="#59687e" stroke-width="1.35" d="M1235.7,-267.97C1265.53,-268.5 1303.69,-269.17 1340.24,-269.81"/>
<polygon fill="#59687e" stroke="#59687e" stroke-width="1.35" points="1339.91,-272.43 1347.45,-269.94 1340,-267.18 1339.91,-272.43"/>
</g>
<!-- SnapshotRead&#45;&gt;Kernel -->
<g id="edge6" class="edge">
<title>SnapshotRead&#45;&gt;Kernel</title>
<path fill="none" stroke="#59687e" stroke-width="1.35" stroke-dasharray="5,2" d="M1128.08,-117.46C1098.23,-128.34 1066.26,-140 1066.26,-140 1066.26,-140 921.26,-222 921.26,-222 921.26,-222 880.07,-251.77 843.1,-278.49"/>
<polygon fill="#59687e" stroke="#59687e" stroke-width="1.35" points="841.97,-276.07 837.43,-282.59 845.05,-280.32 841.97,-276.07"/>
</g>
<!-- ReplayInput&#45;&gt;Kernel -->
<g id="edge10" class="edge">
<title>ReplayInput&#45;&gt;Kernel</title>
<path fill="none" stroke="#59687e" stroke-width="1.35" d="M1132.98,-34.68C1101.84,-46.03 1066.26,-59 1066.26,-59 1066.26,-59 921.26,-147 921.26,-147 921.26,-147 859.69,-225.56 819.53,-276.8"/>
<polygon fill="#59687e" stroke="#59687e" stroke-width="1.35" points="817.59,-275.02 815.03,-282.55 821.72,-278.26 817.59,-275.02"/>
</g>
<!-- ReplayTrace&#45;&gt;Replay -->
<g id="edge12" class="edge">
<title>ReplayTrace&#45;&gt;Replay</title>
<path fill="none" stroke="#59687e" stroke-width="1.35" stroke-dasharray="5,2" d="M1214.91,-178.19C1253.24,-176.16 1317.04,-172.79 1370.49,-169.96"/>
<polygon fill="#59687e" stroke="#59687e" stroke-width="1.35" points="1370.61,-172.58 1377.96,-169.56 1370.33,-167.34 1370.61,-172.58"/>
</g>
</g>
</svg>
