<?xml version="1.0" encoding="UTF-8" standalone="no"?>
<!DOCTYPE svg PUBLIC "-//W3C//DTD SVG 1.1//EN"
 "http://www.w3.org/Graphics/SVG/1.1/DTD/svg11.dtd">
<!-- Generated by graphviz version 15.0.0 (20260523.1842)
 -->
<!-- Title: G Pages: 1 -->
<svg width="1296pt" height="403pt"
 viewBox="9.00 9.00 1287.00 394.00" xmlns="http://www.w3.org/2000/svg" xmlns:xlink="http://www.w3.org/1999/xlink">
<g id="graph0" class="graph" transform="scale(1 1) rotate(0) translate(33.12 369.84)">
<title>G</title>
<polygon fill="#ffffff" stroke="none" points="-24.48,24.48 -24.48,-361.2 1254,-361.2 1254,24.48 -24.48,24.48"/>
<!-- Input -->
<g id="node1" class="node">
<title>Input</title>
<polygon fill="#f7f8fb" stroke="#b8c5d8" stroke-width="1.4" points="153.44,-195.72 0,-195.72 0,-191.72 -4,-191.72 -4,-187.72 0,-187.72 0,-151.4 -4,-151.4 -4,-147.4 0,-147.4 0,-143.4 153.44,-143.4 153.44,-195.72"/>
<polyline fill="none" stroke="#b8c5d8" stroke-width="1.4" points="0,-191.72 4,-191.72 4,-187.72 0,-187.72"/>
<polyline fill="none" stroke="#b8c5d8" stroke-width="1.4" points="0,-151.4 4,-151.4 4,-147.4 0,-147.4"/>
<text xml:space="preserve" text-anchor="middle" x="76.72" y="-173.76" font-family="Noto Sans CJK KR" font-size="14.00" fill="#182033">Input Adapters</text>
<text xml:space="preserve" text-anchor="middle" x="76.72" y="-156.96" font-family="Noto Sans CJK KR" font-size="14.00" fill="#182033">Player · AI · Network</text>
</g>
<!-- Contracts -->
<g id="node5" class="node">
<title>Contracts</title>
<path fill="#eefbf6" stroke="#b8c5d8" stroke-width="1.4" d="M479.53,-204.12C479.53,-204.12 274.65,-204.12 274.65,-204.12 268.65,-204.12 262.65,-198.12 262.65,-192.12 262.65,-192.12 262.65,-147 262.65,-147 262.65,-141 268.65,-135 274.65,-135 274.65,-135 479.53,-135 479.53,-135 485.53,-135 491.53,-141 491.53,-147 491.53,-147 491.53,-192.12 491.53,-192.12 491.53,-198.12 485.53,-204.12 479.53,-204.12"/>
<text xml:space="preserve" text-anchor="middle" x="377.09" y="-182.16" font-family="Noto Sans CJK KR" font-size="14.00" fill="#182033">Contract Boundary</text>
<text xml:space="preserve" text-anchor="middle" x="377.09" y="-165.36" font-family="Noto Sans CJK KR" font-size="14.00" fill="#182033">CommandEnvelope · DomainEvent</text>
<text xml:space="preserve" text-anchor="middle" x="377.09" y="-148.56" font-family="Noto Sans CJK KR" font-size="14.00" fill="#182033">Versioned Document</text>
</g>
<!-- Input&#45;&gt;Contracts -->
<g id="edge1" class="edge">
<title>Input&#45;&gt;Contracts</title>
<path fill="none" stroke="#59687e" stroke-width="1.35" d="M154.07,-169.56C154.07,-169.56 252.49,-169.56 252.49,-169.56"/>
<polygon fill="#59687e" stroke="#59687e" stroke-width="1.35" points="252.49,-172.19 259.99,-169.56 252.49,-166.94 252.49,-172.19"/>
<text xml:space="preserve" text-anchor="middle" x="208.05" y="-173.76" font-family="Noto Sans CJK KR" font-size="14.00">command</text>
</g>
<!-- Storage -->
<g id="node2" class="node">
<title>Storage</title>
<polygon fill="#f7f8fb" stroke="#b8c5d8" stroke-width="1.4" points="1229.52,-336.72 1009.98,-336.72 1009.98,-332.72 1005.98,-332.72 1005.98,-328.72 1009.98,-328.72 1009.98,-292.4 1005.98,-292.4 1005.98,-288.4 1009.98,-288.4 1009.98,-284.4 1229.52,-284.4 1229.52,-336.72"/>
<polyline fill="none" stroke="#b8c5d8" stroke-width="1.4" points="1009.98,-332.72 1013.98,-332.72 1013.98,-328.72 1009.98,-328.72"/>
<polyline fill="none" stroke="#b8c5d8" stroke-width="1.4" points="1009.98,-292.4 1013.98,-292.4 1013.98,-288.4 1009.98,-288.4"/>
<text xml:space="preserve" text-anchor="middle" x="1119.75" y="-314.76" font-family="Noto Sans CJK KR" font-size="14.00" fill="#182033">Persistence Adapters</text>
<text xml:space="preserve" text-anchor="middle" x="1119.75" y="-297.96" font-family="Noto Sans CJK KR" font-size="14.00" fill="#182033">DB Transaction · Durable Outbox</text>
</g>
<!-- Kernel -->
<g id="node6" class="node">
<title>Kernel</title>
<polygon fill="#eaf0ff" stroke="#b8c5d8" stroke-width="2" points="840.5,-204.12 632.22,-204.12 632.22,-200.12 628.22,-200.12 628.22,-196.12 632.22,-196.12 632.22,-143 628.22,-143 628.22,-139 632.22,-139 632.22,-135 840.5,-135 840.5,-204.12"/>
<polyline fill="none" stroke="#b8c5d8" stroke-width="2" points="632.22,-200.12 636.22,-200.12 636.22,-196.12 632.22,-196.12"/>
<polyline fill="none" stroke="#b8c5d8" stroke-width="2" points="632.22,-143 636.22,-143 636.22,-139 632.22,-139"/>
<text xml:space="preserve" text-anchor="middle" x="736.36" y="-182.16" font-family="Noto Sans CJK KR" font-size="14.00" fill="#182033">Runtime Kernel</text>
<text xml:space="preserve" text-anchor="middle" x="736.36" y="-165.36" font-family="Noto Sans CJK KR" font-size="14.00" fill="#182033">Resolve · Commit · Reaction</text>
<text xml:space="preserve" text-anchor="middle" x="736.36" y="-148.56" font-family="Noto Sans CJK KR" font-size="14.00" fill="#182033">Status Tick · Cache · Migration</text>
</g>
<!-- Storage&#45;&gt;Kernel -->
<g id="edge4" class="edge">
<title>Storage&#45;&gt;Kernel</title>
<path fill="none" stroke="#59687e" stroke-width="1.35" stroke-dasharray="5,2" d="M1009.57,-301.84C907.55,-301.84 771.52,-301.84 771.52,-301.84 771.52,-301.84 771.52,-214.55 771.52,-214.55"/>
<polygon fill="#59687e" stroke="#59687e" stroke-width="1.35" points="774.14,-214.55 771.52,-207.05 768.89,-214.55 774.14,-214.55"/>
<text xml:space="preserve" text-anchor="middle" x="925.24" y="-259.76" font-family="Noto Sans CJK KR" font-size="14.00">snapshot / versions</text>
</g>
<!-- Engine -->
<g id="node3" class="node">
<title>Engine</title>
<polygon fill="#f7f8fb" stroke="#b8c5d8" stroke-width="1.4" points="1226.81,-247.72 1012.69,-247.72 1012.69,-243.72 1008.69,-243.72 1008.69,-239.72 1012.69,-239.72 1012.69,-203.4 1008.69,-203.4 1008.69,-199.4 1012.69,-199.4 1012.69,-195.4 1226.81,-195.4 1226.81,-247.72"/>
<polyline fill="none" stroke="#b8c5d8" stroke-width="1.4" points="1012.69,-243.72 1016.69,-243.72 1016.69,-239.72 1012.69,-239.72"/>
<polyline fill="none" stroke="#b8c5d8" stroke-width="1.4" points="1012.69,-203.4 1016.69,-203.4 1016.69,-199.4 1012.69,-199.4"/>
<text xml:space="preserve" text-anchor="middle" x="1119.75" y="-225.76" font-family="Noto Sans CJK KR" font-size="14.00" fill="#182033">Engine Adapters</text>
<text xml:space="preserve" text-anchor="middle" x="1119.75" y="-208.96" font-family="Noto Sans CJK KR" font-size="14.00" fill="#182033">Animation · Physics · Resources</text>
</g>
<!-- Telemetry -->
<g id="node4" class="node">
<title>Telemetry</title>
<polygon fill="#f7f8fb" stroke="#b8c5d8" stroke-width="1.4" points="1221.35,-160.72 1018.15,-160.72 1018.15,-156.72 1014.15,-156.72 1014.15,-152.72 1018.15,-152.72 1018.15,-116.4 1014.15,-116.4 1014.15,-112.4 1018.15,-112.4 1018.15,-108.4 1221.35,-108.4 1221.35,-160.72"/>
<polyline fill="none" stroke="#b8c5d8" stroke-width="1.4" points="1018.15,-156.72 1022.15,-156.72 1022.15,-152.72 1018.15,-152.72"/>
<polyline fill="none" stroke="#b8c5d8" stroke-width="1.4" points="1018.15,-116.4 1022.15,-116.4 1022.15,-112.4 1018.15,-112.4"/>
<text xml:space="preserve" text-anchor="middle" x="1119.75" y="-138.76" font-family="Noto Sans CJK KR" font-size="14.00" fill="#182033">Observation Adapters</text>
<text xml:space="preserve" text-anchor="middle" x="1119.75" y="-121.96" font-family="Noto Sans CJK KR" font-size="14.00" fill="#182033">UI · Audio · Trace · Analytics</text>
</g>
<!-- Contracts&#45;&gt;Kernel -->
<g id="edge2" class="edge">
<title>Contracts&#45;&gt;Kernel</title>
<path fill="none" stroke="#59687e" stroke-width="1.35" d="M491.75,-169.56C491.75,-169.56 621.77,-169.56 621.77,-169.56"/>
<polygon fill="#59687e" stroke="#59687e" stroke-width="1.35" points="621.77,-172.19 629.27,-169.56 621.77,-166.94 621.77,-172.19"/>
<text xml:space="preserve" text-anchor="middle" x="561.88" y="-173.76" font-family="Noto Sans CJK KR" font-size="14.00">validated intent</text>
</g>
<!-- Kernel&#45;&gt;Storage -->
<g id="edge3" class="edge">
<title>Kernel&#45;&gt;Storage</title>
<path fill="none" stroke="#59687e" stroke-width="1.35" d="M701.52,-205.04C701.52,-249.32 701.52,-319.28 701.52,-319.28 701.52,-319.28 999.77,-319.28 999.77,-319.28"/>
<polygon fill="#59687e" stroke="#59687e" stroke-width="1.35" points="999.77,-321.91 1007.27,-319.28 999.77,-316.66 999.77,-321.91"/>
<text xml:space="preserve" text-anchor="middle" x="925.24" y="-316.76" font-family="Noto Sans CJK KR" font-size="14.00">atomic plan / outbox</text>
</g>
<!-- Kernel&#45;&gt;Engine -->
<g id="edge5" class="edge">
<title>Kernel&#45;&gt;Engine</title>
<path fill="none" stroke="#59687e" stroke-width="1.35" d="M841.38,-199.76C841.38,-199.76 1002.7,-199.76 1002.7,-199.76"/>
<polygon fill="#59687e" stroke="#59687e" stroke-width="1.35" points="1002.7,-202.39 1010.2,-199.76 1002.7,-197.14 1002.7,-202.39"/>
<text xml:space="preserve" text-anchor="middle" x="925.24" y="-202.76" font-family="Noto Sans CJK KR" font-size="14.00">committed result</text>
</g>
<!-- Kernel&#45;&gt;Telemetry -->
<g id="edge6" class="edge">
<title>Kernel&#45;&gt;Telemetry</title>
<path fill="none" stroke="#59687e" stroke-width="1.35" d="M841.38,-147.86C841.38,-147.86 1008.02,-147.86 1008.02,-147.86"/>
<polygon fill="#59687e" stroke="#59687e" stroke-width="1.35" points="1008.02,-150.49 1015.52,-147.86 1008.02,-145.24 1008.02,-150.49"/>
<text xml:space="preserve" text-anchor="middle" x="925.24" y="-145.76" font-family="Noto Sans CJK KR" font-size="14.00">observation events</text>
</g>
<!-- Replay -->
<g id="node7" class="node">
<title>Replay</title>
<polygon fill="#fff7e6" stroke="#b8c5d8" stroke-width="1.4" points="1194.87,-69.12 1038.62,-69.12 1038.62,0 1200.87,0 1200.87,-63.12 1194.87,-69.12"/>
<polyline fill="none" stroke="#b8c5d8" stroke-width="1.4" points="1194.87,-69.12 1194.87,-63.12"/>
<polyline fill="none" stroke="#b8c5d8" stroke-width="1.4" points="1200.87,-63.12 1194.87,-63.12"/>
<text xml:space="preserve" text-anchor="middle" x="1119.75" y="-47.16" font-family="Noto Sans CJK KR" font-size="14.00" fill="#182033">Replay Fixture</text>
<text xml:space="preserve" text-anchor="middle" x="1119.75" y="-30.36" font-family="Noto Sans CJK KR" font-size="14.00" fill="#182033">Input + Versions + Seed</text>
<text xml:space="preserve" text-anchor="middle" x="1119.75" y="-13.56" font-family="Noto Sans CJK KR" font-size="14.00" fill="#182033">Expected Hash</text>
</g>
<!-- Kernel&#45;&gt;Replay -->
<g id="edge8" class="edge">
<title>Kernel&#45;&gt;Replay</title>
<path fill="none" stroke="#59687e" stroke-width="1.35" stroke-dasharray="5,2" d="M771.52,-134.18C771.52,-97.69 771.52,-46.08 771.52,-46.08 771.52,-46.08 1028.56,-46.08 1028.56,-46.08"/>
<polygon fill="#59687e" stroke="#59687e" stroke-width="1.35" points="1028.56,-48.71 1036.06,-46.08 1028.56,-43.46 1028.56,-48.71"/>
<text xml:space="preserve" text-anchor="middle" x="925.24" y="-88.76" font-family="Noto Sans CJK KR" font-size="14.00">trace + hash</text>
</g>
<!-- Replay&#45;&gt;Kernel -->
<g id="edge7" class="edge">
<title>Replay&#45;&gt;Kernel</title>
<path fill="none" stroke="#59687e" stroke-width="1.35" d="M1038.12,-23.04C916.41,-23.04 701.52,-23.04 701.52,-23.04 701.52,-23.04 701.52,-124.55 701.52,-124.55"/>
<polygon fill="#59687e" stroke="#59687e" stroke-width="1.35" points="698.89,-124.55 701.52,-132.05 704.14,-124.55 698.89,-124.55"/>
<text xml:space="preserve" text-anchor="middle" x="925.24" y="-31.76" font-family="Noto Sans CJK KR" font-size="14.00">deterministic test</text>
</g>
</g>
</svg>
