<?xml version="1.0" encoding="UTF-8" standalone="no"?>
<!DOCTYPE svg PUBLIC "-//W3C//DTD SVG 1.1//EN"
 "http://www.w3.org/Graphics/SVG/1.1/DTD/svg11.dtd">
<!-- Generated by graphviz version 15.0.0 (20260523.1842)
 -->
<!-- Title: G Pages: 1 -->
<svg width="636pt" height="1094pt"
 viewBox="9.00 9.00 627.00 1086.00" xmlns="http://www.w3.org/2000/svg" xmlns:xlink="http://www.w3.org/1999/xlink">
<g id="graph0" class="graph" transform="scale(1 1) rotate(0) translate(33.12 1061.08)">
<title>G</title>
<polygon fill="#ffffff" stroke="none" points="-24.48,24.48 -24.48,-1052.44 594.06,-1052.44 594.06,24.48 -24.48,24.48"/>
<!-- Command -->
<g id="node1" class="node">
<title>Command</title>
<path fill="#f3eefc" stroke="#b8c5d8" stroke-width="1.4" d="M458.93,-1027.96C458.93,-1027.96 320.02,-1027.96 320.02,-1027.96 314.02,-1027.96 308.02,-1021.96 308.02,-1015.96 308.02,-1015.96 308.02,-989.08 308.02,-989.08 308.02,-983.08 314.02,-977.08 320.02,-977.08 320.02,-977.08 458.93,-977.08 458.93,-977.08 464.93,-977.08 470.93,-983.08 470.93,-989.08 470.93,-989.08 470.93,-1015.96 470.93,-1015.96 470.93,-1021.96 464.93,-1027.96 458.93,-1027.96"/>
<text xml:space="preserve" text-anchor="middle" x="389.47" y="-1006.72" font-family="Noto Sans CJK KR" font-size="14.00" fill="#182033">1. CommandEnvelope</text>
<text xml:space="preserve" text-anchor="middle" x="389.47" y="-989.92" font-family="Noto Sans CJK KR" font-size="14.00" fill="#182033">identity · tick · versions</text>
</g>
<!-- Snapshot -->
<g id="node2" class="node">
<title>Snapshot</title>
<path fill="#eefbf6" stroke="#b8c5d8" stroke-width="1.4" d="M483.61,-936.08C483.61,-936.08 295.33,-936.08 295.33,-936.08 289.33,-936.08 283.33,-930.08 283.33,-924.08 283.33,-924.08 283.33,-897.2 283.33,-897.2 283.33,-891.2 289.33,-885.2 295.33,-885.2 295.33,-885.2 483.61,-885.2 483.61,-885.2 489.61,-885.2 495.61,-891.2 495.61,-897.2 495.61,-897.2 495.61,-924.08 495.61,-924.08 495.61,-930.08 489.61,-936.08 483.61,-936.08"/>
<text xml:space="preserve" text-anchor="middle" x="389.47" y="-914.84" font-family="Noto Sans CJK KR" font-size="14.00" fill="#182033">2. Frozen Snapshot</text>
<text xml:space="preserve" text-anchor="middle" x="389.47" y="-898.04" font-family="Noto Sans CJK KR" font-size="14.00" fill="#182033">entity versions · resources · stats</text>
</g>
<!-- Command&#45;&gt;Snapshot -->
<g id="edge1" class="edge">
<title>Command&#45;&gt;Snapshot</title>
<path fill="none" stroke="#59687e" stroke-width="1.35" d="M389.47,-976.44C389.47,-976.44 389.47,-946.01 389.47,-946.01"/>
<polygon fill="#59687e" stroke="#59687e" stroke-width="1.35" points="392.1,-946.01 389.47,-938.51 386.85,-946.01 392.1,-946.01"/>
</g>
<!-- Resolve -->
<g id="node3" class="node">
<title>Resolve</title>
<path fill="#eaf0ff" stroke="#b8c5d8" stroke-width="1.4" d="M465,-844.2C465,-844.2 313.94,-844.2 313.94,-844.2 307.94,-844.2 301.94,-838.2 301.94,-832.2 301.94,-832.2 301.94,-788.52 301.94,-788.52 301.94,-782.52 307.94,-776.52 313.94,-776.52 313.94,-776.52 465,-776.52 465,-776.52 471,-776.52 477,-782.52 477,-788.52 477,-788.52 477,-832.2 477,-832.2 477,-838.2 471,-844.2 465,-844.2"/>
<text xml:space="preserve" text-anchor="middle" x="389.47" y="-822.96" font-family="Noto Sans CJK KR" font-size="14.00" fill="#182033">3. Pure Resolve</text>
<text xml:space="preserve" text-anchor="middle" x="389.47" y="-806.16" font-family="Noto Sans CJK KR" font-size="14.00" fill="#182033">keyed RNG · integer BPS</text>
<text xml:space="preserve" text-anchor="middle" x="389.47" y="-789.36" font-family="Noto Sans CJK KR" font-size="14.00" fill="#182033">immutable outcome + plan</text>
</g>
<!-- Snapshot&#45;&gt;Resolve -->
<g id="edge2" class="edge">
<title>Snapshot&#45;&gt;Resolve</title>
<path fill="none" stroke="#59687e" stroke-width="1.35" d="M389.47,-884.55C389.47,-884.55 389.47,-854.17 389.47,-854.17"/>
<polygon fill="#59687e" stroke="#59687e" stroke-width="1.35" points="392.1,-854.17 389.47,-846.67 386.85,-854.17 392.1,-854.17"/>
</g>
<!-- Preconditions -->
<g id="node4" class="node">
<title>Preconditions</title>
<path fill="#fff7e6" stroke="#b8c5d8" stroke-width="1.4" d="M378.34,-731.05C378.34,-731.05 273.88,-689.11 273.88,-689.11 268.32,-686.88 268.32,-682.4 273.88,-680.17 273.88,-680.17 378.34,-638.23 378.34,-638.23 383.9,-636 395.04,-636 400.61,-638.23 400.61,-638.23 505.06,-680.17 505.06,-680.17 510.63,-682.4 510.63,-686.88 505.06,-689.11 505.06,-689.11 400.61,-731.05 400.61,-731.05 395.04,-733.28 383.9,-733.28 378.34,-731.05"/>
<text xml:space="preserve" text-anchor="middle" x="389.47" y="-688.84" font-family="Noto Sans CJK KR" font-size="14.00" fill="#182033">4. Version +</text>
<text xml:space="preserve" text-anchor="middle" x="389.47" y="-672.04" font-family="Noto Sans CJK KR" font-size="14.00" fill="#182033">idempotency OK?</text>
</g>
<!-- Resolve&#45;&gt;Preconditions -->
<g id="edge3" class="edge">
<title>Resolve&#45;&gt;Preconditions</title>
<path fill="none" stroke="#59687e" stroke-width="1.35" d="M389.47,-776.01C389.47,-776.01 389.47,-745.48 389.47,-745.48"/>
<polygon fill="#59687e" stroke="#59687e" stroke-width="1.35" points="392.1,-745.48 389.47,-737.98 386.85,-745.48 392.1,-745.48"/>
</g>
<!-- Working -->
<g id="node5" class="node">
<title>Working</title>
<path fill="#fff7e6" stroke="#b8c5d8" stroke-width="1.4" d="M349,-576.96C349,-576.96 243.95,-576.96 243.95,-576.96 237.95,-576.96 231.95,-570.96 231.95,-564.96 231.95,-564.96 231.95,-538.08 231.95,-538.08 231.95,-532.08 237.95,-526.08 243.95,-526.08 243.95,-526.08 349,-526.08 349,-526.08 355,-526.08 361,-532.08 361,-538.08 361,-538.08 361,-564.96 361,-564.96 361,-570.96 355,-576.96 349,-576.96"/>
<text xml:space="preserve" text-anchor="middle" x="296.47" y="-555.72" font-family="Noto Sans CJK KR" font-size="14.00" fill="#182033">5. Working Copy</text>
<text xml:space="preserve" text-anchor="middle" x="296.47" y="-538.92" font-family="Noto Sans CJK KR" font-size="14.00" fill="#182033">ordered operations</text>
</g>
<!-- Preconditions&#45;&gt;Working -->
<g id="edge4" class="edge">
<title>Preconditions&#45;&gt;Working</title>
<path fill="none" stroke="#59687e" stroke-width="1.35" d="M311.87,-664.42C311.87,-664.42 311.87,-586.97 311.87,-586.97"/>
<polygon fill="#59687e" stroke="#59687e" stroke-width="1.35" points="314.5,-586.97 311.87,-579.47 309.25,-586.97 314.5,-586.97"/>
<text xml:space="preserve" text-anchor="middle" x="370.8" y="-601.16" font-family="Noto Sans CJK KR" font-size="14.00">yes</text>
</g>
<!-- Reject -->
<g id="node11" class="node">
<title>Reject</title>
<polygon fill="#fff0f3" stroke="#b8c5d8" stroke-width="1.4" points="563.58,-576.96 393.36,-576.96 393.36,-526.08 569.58,-526.08 569.58,-570.96 563.58,-576.96"/>
<polyline fill="none" stroke="#b8c5d8" stroke-width="1.4" points="563.58,-576.96 563.58,-570.96"/>
<polyline fill="none" stroke="#b8c5d8" stroke-width="1.4" points="569.58,-570.96 563.58,-570.96"/>
<text xml:space="preserve" text-anchor="middle" x="481.47" y="-555.72" font-family="Noto Sans CJK KR" font-size="14.00" fill="#182033">Reject without mutation</text>
<text xml:space="preserve" text-anchor="middle" x="481.47" y="-538.92" font-family="Noto Sans CJK KR" font-size="14.00" fill="#182033">DomainError + retryability</text>
</g>
<!-- Preconditions&#45;&gt;Reject -->
<g id="edge5" class="edge">
<title>Preconditions&#45;&gt;Reject</title>
<path fill="none" stroke="#59687e" stroke-width="1.35" d="M454.78,-659.29C454.78,-659.29 454.78,-586.77 454.78,-586.77"/>
<polygon fill="#59687e" stroke="#59687e" stroke-width="1.35" points="457.41,-586.77 454.78,-579.27 452.16,-586.77 457.41,-586.77"/>
<text xml:space="preserve" text-anchor="middle" x="488.47" y="-601.16" font-family="Noto Sans CJK KR" font-size="14.00">no</text>
</g>
<!-- Validate -->
<g id="node6" class="node">
<title>Validate</title>
<path fill="#fff0f3" stroke="#b8c5d8" stroke-width="1.4" d="M285.46,-480.31C285.46,-480.31 190.09,-438.97 190.09,-438.97 184.58,-436.59 184.58,-431.81 190.09,-429.43 190.09,-429.43 285.46,-388.09 285.46,-388.09 290.97,-385.71 301.98,-385.71 307.48,-388.09 307.48,-388.09 402.86,-429.43 402.86,-429.43 408.36,-431.81 408.36,-436.59 402.86,-438.97 402.86,-438.97 307.48,-480.31 307.48,-480.31 301.98,-482.69 290.97,-482.69 285.46,-480.31"/>
<text xml:space="preserve" text-anchor="middle" x="296.47" y="-438.4" font-family="Noto Sans CJK KR" font-size="14.00" fill="#182033">6. All resource</text>
<text xml:space="preserve" text-anchor="middle" x="296.47" y="-421.6" font-family="Noto Sans CJK KR" font-size="14.00" fill="#182033">invariants valid?</text>
</g>
<!-- Working&#45;&gt;Validate -->
<g id="edge6" class="edge">
<title>Working&#45;&gt;Validate</title>
<path fill="none" stroke="#59687e" stroke-width="1.35" d="M296.47,-525.48C296.47,-525.48 296.47,-495.21 296.47,-495.21"/>
<polygon fill="#59687e" stroke="#59687e" stroke-width="1.35" points="299.1,-495.21 296.47,-487.71 293.85,-495.21 299.1,-495.21"/>
</g>
<!-- Commit -->
<g id="node7" class="node">
<title>Commit</title>
<path fill="#eefbf6" stroke="#b8c5d8" stroke-width="1.4" d="M277.83,-326.52C277.83,-326.52 69.11,-326.52 69.11,-326.52 63.11,-326.52 57.11,-320.52 57.11,-314.52 57.11,-314.52 57.11,-287.64 57.11,-287.64 57.11,-281.64 63.11,-275.64 69.11,-275.64 69.11,-275.64 277.83,-275.64 277.83,-275.64 283.83,-275.64 289.83,-281.64 289.83,-287.64 289.83,-287.64 289.83,-314.52 289.83,-314.52 289.83,-320.52 283.83,-326.52 277.83,-326.52"/>
<text xml:space="preserve" text-anchor="middle" x="173.47" y="-305.28" font-family="Noto Sans CJK KR" font-size="14.00" fill="#182033">7. Atomic Commit</text>
<text xml:space="preserve" text-anchor="middle" x="173.47" y="-288.48" font-family="Noto Sans CJK KR" font-size="14.00" fill="#182033">state + outbox + processed command</text>
</g>
<!-- Validate&#45;&gt;Commit -->
<g id="edge7" class="edge">
<title>Validate&#45;&gt;Commit</title>
<path fill="none" stroke="#59687e" stroke-width="1.35" d="M234.46,-409.47C234.46,-409.47 234.46,-336.58 234.46,-336.58"/>
<polygon fill="#59687e" stroke="#59687e" stroke-width="1.35" points="237.08,-336.58 234.46,-329.08 231.83,-336.58 237.08,-336.58"/>
<text xml:space="preserve" text-anchor="middle" x="277.8" y="-350.72" font-family="Noto Sans CJK KR" font-size="14.00">yes</text>
</g>
<!-- Rollback -->
<g id="node12" class="node">
<title>Rollback</title>
<polygon fill="#fff0f3" stroke="#b8c5d8" stroke-width="1.4" points="508.89,-326.52 322.06,-326.52 322.06,-275.64 514.89,-275.64 514.89,-320.52 508.89,-326.52"/>
<polyline fill="none" stroke="#b8c5d8" stroke-width="1.4" points="508.89,-326.52 508.89,-320.52"/>
<polyline fill="none" stroke="#b8c5d8" stroke-width="1.4" points="514.89,-320.52 508.89,-320.52"/>
<text xml:space="preserve" text-anchor="middle" x="418.47" y="-305.28" font-family="Noto Sans CJK KR" font-size="14.00" fill="#182033">Discard working copy</text>
<text xml:space="preserve" text-anchor="middle" x="418.47" y="-288.48" font-family="Noto Sans CJK KR" font-size="14.00" fill="#182033">No partial mutation / no event</text>
</g>
<!-- Validate&#45;&gt;Rollback -->
<g id="edge8" class="edge">
<title>Validate&#45;&gt;Rollback</title>
<path fill="none" stroke="#59687e" stroke-width="1.35" d="M367.96,-413.69C367.96,-413.69 367.96,-336.41 367.96,-336.41"/>
<polygon fill="#59687e" stroke="#59687e" stroke-width="1.35" points="370.59,-336.41 367.96,-328.91 365.34,-336.41 370.59,-336.41"/>
<text xml:space="preserve" text-anchor="middle" x="425.47" y="-350.72" font-family="Noto Sans CJK KR" font-size="14.00">no</text>
</g>
<!-- Outbox -->
<g id="node8" class="node">
<title>Outbox</title>
<path fill="#e9fbff" stroke="#b8c5d8" stroke-width="1.4" d="M280.26,-234.64C280.26,-234.64 66.68,-234.64 66.68,-234.64 60.68,-234.64 54.68,-228.64 54.68,-222.64 54.68,-222.64 54.68,-195.76 54.68,-195.76 54.68,-189.76 60.68,-183.76 66.68,-183.76 66.68,-183.76 280.26,-183.76 280.26,-183.76 286.26,-183.76 292.26,-189.76 292.26,-195.76 292.26,-195.76 292.26,-222.64 292.26,-222.64 292.26,-228.64 286.26,-234.64 280.26,-234.64"/>
<text xml:space="preserve" text-anchor="middle" x="173.47" y="-213.4" font-family="Noto Sans CJK KR" font-size="14.00" fill="#182033">8. Committed Facts Dispatch</text>
<text xml:space="preserve" text-anchor="middle" x="173.47" y="-196.6" font-family="Noto Sans CJK KR" font-size="14.00" fill="#182033">SkillCommitted · DamageCommitted</text>
</g>
<!-- Commit&#45;&gt;Outbox -->
<g id="edge9" class="edge">
<title>Commit&#45;&gt;Outbox</title>
<path fill="none" stroke="#59687e" stroke-width="1.35" d="M173.47,-275C173.47,-275 173.47,-244.57 173.47,-244.57"/>
<polygon fill="#59687e" stroke="#59687e" stroke-width="1.35" points="176.1,-244.57 173.47,-237.07 170.85,-244.57 176.1,-244.57"/>
</g>
<!-- Queue -->
<g id="node9" class="node">
<title>Queue</title>
<path fill="#f3eefc" stroke="#b8c5d8" stroke-width="1.4" d="M176.95,-142.76C176.95,-142.76 12,-142.76 12,-142.76 6,-142.76 0,-136.76 0,-130.76 0,-130.76 0,-103.88 0,-103.88 0,-97.88 6,-91.88 12,-91.88 12,-91.88 176.95,-91.88 176.95,-91.88 182.95,-91.88 188.95,-97.88 188.95,-103.88 188.95,-103.88 188.95,-130.76 188.95,-130.76 188.95,-136.76 182.95,-142.76 176.95,-142.76"/>
<text xml:space="preserve" text-anchor="middle" x="94.47" y="-121.52" font-family="Noto Sans CJK KR" font-size="14.00" fill="#182033">9. Bounded ReactionQueue</text>
<text xml:space="preserve" text-anchor="middle" x="94.47" y="-104.72" font-family="Noto Sans CJK KR" font-size="14.00" fill="#182033">priority · stable key · budget</text>
</g>
<!-- Outbox&#45;&gt;Queue -->
<g id="edge10" class="edge">
<title>Outbox&#45;&gt;Queue</title>
<path fill="none" stroke="#59687e" stroke-width="1.35" d="M121.82,-183.12C121.82,-183.12 121.82,-152.69 121.82,-152.69"/>
<polygon fill="#59687e" stroke="#59687e" stroke-width="1.35" points="124.44,-152.69 121.82,-145.19 119.19,-152.69 124.44,-152.69"/>
</g>
<!-- Status -->
<g id="node10" class="node">
<title>Status</title>
<path fill="#e9fbff" stroke="#b8c5d8" stroke-width="1.4" d="M266.8,-50.88C266.8,-50.88 80.15,-50.88 80.15,-50.88 74.15,-50.88 68.15,-44.88 68.15,-38.88 68.15,-38.88 68.15,-12 68.15,-12 68.15,-6 74.15,0 80.15,0 80.15,0 266.8,0 266.8,0 272.8,0 278.8,-6 278.8,-12 278.8,-12 278.8,-38.88 278.8,-38.88 278.8,-44.88 272.8,-50.88 266.8,-50.88"/>
<text xml:space="preserve" text-anchor="middle" x="173.47" y="-29.64" font-family="Noto Sans CJK KR" font-size="14.00" fill="#182033">10. Status Commit / Tick</text>
<text xml:space="preserve" text-anchor="middle" x="173.47" y="-12.84" font-family="Noto Sans CJK KR" font-size="14.00" fill="#182033">tick&#45;before&#45;expire · catch&#45;up cap</text>
</g>
<!-- Queue&#45;&gt;Status -->
<g id="edge11" class="edge">
<title>Queue&#45;&gt;Status</title>
<path fill="none" stroke="#59687e" stroke-width="1.35" d="M128.55,-91.24C128.55,-91.24 128.55,-60.81 128.55,-60.81"/>
<polygon fill="#59687e" stroke="#59687e" stroke-width="1.35" points="131.17,-60.81 128.55,-53.31 125.92,-60.81 131.17,-60.81"/>
</g>
<!-- Status&#45;&gt;Outbox -->
<g id="edge12" class="edge">
<title>Status&#45;&gt;Outbox</title>
<path fill="none" stroke="#59687e" stroke-width="1.35" stroke-dasharray="5,2" d="M233.87,-51.38C233.87,-51.38 233.87,-173.55 233.87,-173.55"/>
<polygon fill="#59687e" stroke="#59687e" stroke-width="1.35" points="231.25,-173.55 233.87,-181.05 236.5,-173.55 231.25,-173.55"/>
<text xml:space="preserve" text-anchor="middle" x="310.79" y="-113.12" font-family="Noto Sans CJK KR" font-size="14.00">new committed facts</text>
</g>
</g>
</svg>
