<?xml version="1.0" encoding="UTF-8" standalone="no"?>
<!DOCTYPE svg PUBLIC "-//W3C//DTD SVG 1.1//EN"
 "http://www.w3.org/Graphics/SVG/1.1/DTD/svg11.dtd">
<!-- Generated by graphviz version 2.42.4 (0)
 -->
<!-- Title: G Pages: 1 -->
<svg width="687pt" height="1054pt"
 viewBox="8.64 8.64 678.60 1045.60" xmlns="http://www.w3.org/2000/svg" xmlns:xlink="http://www.w3.org/1999/xlink">
<g id="graph0" class="graph" transform="scale(1 1) rotate(0) translate(33.12 1021.12)">
<title>G</title>
<polygon fill="#ffffff" stroke="transparent" points="-24.48,24.48 -24.48,-1012.48 645.48,-1012.48 645.48,24.48 -24.48,24.48"/>
<!-- Command -->
<g id="node1" class="node">
<title>Command</title>
<path fill="#f3eefc" stroke="#b8c5d8" stroke-width="1.4" d="M500.5,-988C500.5,-988 344.5,-988 344.5,-988 338.5,-988 332.5,-982 332.5,-976 332.5,-976 332.5,-952 332.5,-952 332.5,-946 338.5,-940 344.5,-940 344.5,-940 500.5,-940 500.5,-940 506.5,-940 512.5,-946 512.5,-952 512.5,-952 512.5,-976 512.5,-976 512.5,-982 506.5,-988 500.5,-988"/>
<text text-anchor="middle" x="422.5" y="-967.8" font-family="Noto Sans CJK KR" font-size="14.00" fill="#182033">1. CommandEnvelope</text>
<text text-anchor="middle" x="422.5" y="-952.8" font-family="Noto Sans CJK KR" font-size="14.00" fill="#182033">identity · tick · versions</text>
</g>
<!-- Snapshot -->
<g id="node2" class="node">
<title>Snapshot</title>
<path fill="#eefbf6" stroke="#b8c5d8" stroke-width="1.4" d="M530,-899C530,-899 315,-899 315,-899 309,-899 303,-893 303,-887 303,-887 303,-863 303,-863 303,-857 309,-851 315,-851 315,-851 530,-851 530,-851 536,-851 542,-857 542,-863 542,-863 542,-887 542,-887 542,-893 536,-899 530,-899"/>
<text text-anchor="middle" x="422.5" y="-878.8" font-family="Noto Sans CJK KR" font-size="14.00" fill="#182033">2. Frozen Snapshot</text>
<text text-anchor="middle" x="422.5" y="-863.8" font-family="Noto Sans CJK KR" font-size="14.00" fill="#182033">entity versions · resources · stats</text>
</g>
<!-- Command&#45;&gt;Snapshot -->
<g id="edge1" class="edge">
<title>Command&#45;&gt;Snapshot</title>
<path fill="none" stroke="#59687e" stroke-width="1.35" d="M422.5,-939.68C422.5,-939.68 422.5,-906.79 422.5,-906.79"/>
<polygon fill="#59687e" stroke="#59687e" stroke-width="1.35" points="425.13,-906.79 422.5,-899.29 419.88,-906.79 425.13,-906.79"/>
</g>
<!-- Resolve -->
<g id="node3" class="node">
<title>Resolve</title>
<path fill="#eaf0ff" stroke="#b8c5d8" stroke-width="1.4" d="M510,-810C510,-810 335,-810 335,-810 329,-810 323,-804 323,-798 323,-798 323,-759 323,-759 323,-753 329,-747 335,-747 335,-747 510,-747 510,-747 516,-747 522,-753 522,-759 522,-759 522,-798 522,-798 522,-804 516,-810 510,-810"/>
<text text-anchor="middle" x="422.5" y="-789.8" font-family="Noto Sans CJK KR" font-size="14.00" fill="#182033">3. Pure Resolve</text>
<text text-anchor="middle" x="422.5" y="-774.8" font-family="Noto Sans CJK KR" font-size="14.00" fill="#182033">keyed RNG · integer BPS</text>
<text text-anchor="middle" x="422.5" y="-759.8" font-family="Noto Sans CJK KR" font-size="14.00" fill="#182033">immutable outcome + plan</text>
</g>
<!-- Snapshot&#45;&gt;Resolve -->
<g id="edge2" class="edge">
<title>Snapshot&#45;&gt;Resolve</title>
<path fill="none" stroke="#59687e" stroke-width="1.35" d="M422.5,-850.65C422.5,-850.65 422.5,-817.65 422.5,-817.65"/>
<polygon fill="#59687e" stroke="#59687e" stroke-width="1.35" points="425.13,-817.65 422.5,-810.15 419.88,-817.65 425.13,-817.65"/>
</g>
<!-- Preconditions -->
<g id="node4" class="node">
<title>Preconditions</title>
<path fill="#fff7e6" stroke="#b8c5d8" stroke-width="1.4" d="M411.15,-702.11C411.15,-702.11 293.85,-661.89 293.85,-661.89 288.18,-659.95 288.18,-656.05 293.85,-654.11 293.85,-654.11 411.15,-613.89 411.15,-613.89 416.82,-611.95 428.18,-611.95 433.85,-613.89 433.85,-613.89 551.15,-654.11 551.15,-654.11 556.82,-656.05 556.82,-659.95 551.15,-661.89 551.15,-661.89 433.85,-702.11 433.85,-702.11 428.18,-704.05 416.82,-704.05 411.15,-702.11"/>
<text text-anchor="middle" x="422.5" y="-661.8" font-family="Noto Sans CJK KR" font-size="14.00" fill="#182033">4. Version +</text>
<text text-anchor="middle" x="422.5" y="-646.8" font-family="Noto Sans CJK KR" font-size="14.00" fill="#182033">idempotency OK?</text>
</g>
<!-- Resolve&#45;&gt;Preconditions -->
<g id="edge3" class="edge">
<title>Resolve&#45;&gt;Preconditions</title>
<path fill="none" stroke="#59687e" stroke-width="1.35" d="M422.5,-746.84C422.5,-746.84 422.5,-713.75 422.5,-713.75"/>
<polygon fill="#59687e" stroke="#59687e" stroke-width="1.35" points="425.13,-713.75 422.5,-706.25 419.88,-713.75 425.13,-713.75"/>
</g>
<!-- Working -->
<g id="node5" class="node">
<title>Working</title>
<path fill="#fff7e6" stroke="#b8c5d8" stroke-width="1.4" d="M384,-555C384,-555 259,-555 259,-555 253,-555 247,-549 247,-543 247,-543 247,-519 247,-519 247,-513 253,-507 259,-507 259,-507 384,-507 384,-507 390,-507 396,-513 396,-519 396,-519 396,-543 396,-543 396,-549 390,-555 384,-555"/>
<text text-anchor="middle" x="321.5" y="-534.8" font-family="Noto Sans CJK KR" font-size="14.00" fill="#182033">5. Working Copy</text>
<text text-anchor="middle" x="321.5" y="-519.8" font-family="Noto Sans CJK KR" font-size="14.00" fill="#182033">ordered operations</text>
</g>
<!-- Preconditions&#45;&gt;Working -->
<g id="edge4" class="edge">
<title>Preconditions&#45;&gt;Working</title>
<path fill="none" stroke="#59687e" stroke-width="1.35" d="M339.25,-638.43C339.25,-638.43 339.25,-562.65 339.25,-562.65"/>
<polygon fill="#59687e" stroke="#59687e" stroke-width="1.35" points="341.88,-562.65 339.25,-555.15 336.63,-562.65 341.88,-562.65"/>
<text text-anchor="middle" x="404.5" y="-578.8" font-family="Noto Sans CJK KR" font-size="14.00">yes</text>
</g>
<!-- Reject -->
<g id="node11" class="node">
<title>Reject</title>
<polygon fill="#fff0f3" stroke="#b8c5d8" stroke-width="1.4" points="615,-555 428,-555 428,-507 621,-507 621,-549 615,-555"/>
<polyline fill="none" stroke="#b8c5d8" stroke-width="1.4" points="615,-555 615,-549 "/>
<polyline fill="none" stroke="#b8c5d8" stroke-width="1.4" points="621,-549 615,-549 "/>
<text text-anchor="middle" x="524.5" y="-534.8" font-family="Noto Sans CJK KR" font-size="14.00" fill="#182033">Reject without mutation</text>
<text text-anchor="middle" x="524.5" y="-519.8" font-family="Noto Sans CJK KR" font-size="14.00" fill="#182033">DomainError + retryability</text>
</g>
<!-- Preconditions&#45;&gt;Reject -->
<g id="edge5" class="edge">
<title>Preconditions&#45;&gt;Reject</title>
<path fill="none" stroke="#59687e" stroke-width="1.35" d="M495.25,-634.71C495.25,-634.71 495.25,-562.51 495.25,-562.51"/>
<polygon fill="#59687e" stroke="#59687e" stroke-width="1.35" points="497.88,-562.51 495.25,-555.01 492.63,-562.51 497.88,-562.51"/>
<text text-anchor="middle" x="533" y="-578.8" font-family="Noto Sans CJK KR" font-size="14.00">no</text>
</g>
<!-- Validate -->
<g id="node6" class="node">
<title>Validate</title>
<path fill="#fff0f3" stroke="#b8c5d8" stroke-width="1.4" d="M310.24,-461.84C310.24,-461.84 202.76,-422.16 202.76,-422.16 197.13,-420.08 197.13,-415.92 202.76,-413.84 202.76,-413.84 310.24,-374.16 310.24,-374.16 315.87,-372.08 327.13,-372.08 332.76,-374.16 332.76,-374.16 440.24,-413.84 440.24,-413.84 445.87,-415.92 445.87,-420.08 440.24,-422.16 440.24,-422.16 332.76,-461.84 332.76,-461.84 327.13,-463.92 315.87,-463.92 310.24,-461.84"/>
<text text-anchor="middle" x="321.5" y="-421.8" font-family="Noto Sans CJK KR" font-size="14.00" fill="#182033">6. All resource</text>
<text text-anchor="middle" x="321.5" y="-406.8" font-family="Noto Sans CJK KR" font-size="14.00" fill="#182033">invariants valid?</text>
</g>
<!-- Working&#45;&gt;Validate -->
<g id="edge6" class="edge">
<title>Working&#45;&gt;Validate</title>
<path fill="none" stroke="#59687e" stroke-width="1.35" d="M321.5,-506.76C321.5,-506.76 321.5,-473.88 321.5,-473.88"/>
<polygon fill="#59687e" stroke="#59687e" stroke-width="1.35" points="324.13,-473.88 321.5,-466.38 318.88,-473.88 324.13,-473.88"/>
</g>
<!-- Commit -->
<g id="node7" class="node">
<title>Commit</title>
<path fill="#eefbf6" stroke="#b8c5d8" stroke-width="1.4" d="M300.5,-315C300.5,-315 80.5,-315 80.5,-315 74.5,-315 68.5,-309 68.5,-303 68.5,-303 68.5,-279 68.5,-279 68.5,-273 74.5,-267 80.5,-267 80.5,-267 300.5,-267 300.5,-267 306.5,-267 312.5,-273 312.5,-279 312.5,-279 312.5,-303 312.5,-303 312.5,-309 306.5,-315 300.5,-315"/>
<text text-anchor="middle" x="190.5" y="-294.8" font-family="Noto Sans CJK KR" font-size="14.00" fill="#182033">7. Atomic Commit</text>
<text text-anchor="middle" x="190.5" y="-279.8" font-family="Noto Sans CJK KR" font-size="14.00" fill="#182033">state swap + processed command</text>
</g>
<!-- Validate&#45;&gt;Commit -->
<g id="edge7" class="edge">
<title>Validate&#45;&gt;Commit</title>
<path fill="none" stroke="#59687e" stroke-width="1.35" d="M252,-395.59C252,-395.59 252,-322.85 252,-322.85"/>
<polygon fill="#59687e" stroke="#59687e" stroke-width="1.35" points="254.63,-322.85 252,-315.35 249.38,-322.85 254.63,-322.85"/>
<text text-anchor="middle" x="303.5" y="-338.8" font-family="Noto Sans CJK KR" font-size="14.00">yes</text>
</g>
<!-- Rollback -->
<g id="node12" class="node">
<title>Rollback</title>
<polygon fill="#fff0f3" stroke="#b8c5d8" stroke-width="1.4" points="556,-315 345,-315 345,-267 562,-267 562,-309 556,-315"/>
<polyline fill="none" stroke="#b8c5d8" stroke-width="1.4" points="556,-315 556,-309 "/>
<polyline fill="none" stroke="#b8c5d8" stroke-width="1.4" points="562,-309 556,-309 "/>
<text text-anchor="middle" x="453.5" y="-294.8" font-family="Noto Sans CJK KR" font-size="14.00" fill="#182033">Discard working copy</text>
<text text-anchor="middle" x="453.5" y="-279.8" font-family="Noto Sans CJK KR" font-size="14.00" fill="#182033">No partial mutation / no event</text>
</g>
<!-- Validate&#45;&gt;Rollback -->
<g id="edge8" class="edge">
<title>Validate&#45;&gt;Rollback</title>
<path fill="none" stroke="#59687e" stroke-width="1.35" d="M398.25,-398.16C398.25,-398.16 398.25,-322.54 398.25,-322.54"/>
<polygon fill="#59687e" stroke="#59687e" stroke-width="1.35" points="400.88,-322.54 398.25,-315.04 395.63,-322.54 400.88,-322.54"/>
<text text-anchor="middle" x="462" y="-338.8" font-family="Noto Sans CJK KR" font-size="14.00">no</text>
</g>
<!-- Outbox -->
<g id="node8" class="node">
<title>Outbox</title>
<path fill="#e9fbff" stroke="#b8c5d8" stroke-width="1.4" d="M311.5,-226C311.5,-226 69.5,-226 69.5,-226 63.5,-226 57.5,-220 57.5,-214 57.5,-214 57.5,-190 57.5,-190 57.5,-184 63.5,-178 69.5,-178 69.5,-178 311.5,-178 311.5,-178 317.5,-178 323.5,-184 323.5,-190 323.5,-190 323.5,-214 323.5,-214 323.5,-220 317.5,-226 311.5,-226"/>
<text text-anchor="middle" x="190.5" y="-205.8" font-family="Noto Sans CJK KR" font-size="14.00" fill="#182033">8. Post&#45;commit Outbox</text>
<text text-anchor="middle" x="190.5" y="-190.8" font-family="Noto Sans CJK KR" font-size="14.00" fill="#182033">SkillCommitted · DamageCommitted</text>
</g>
<!-- Commit&#45;&gt;Outbox -->
<g id="edge9" class="edge">
<title>Commit&#45;&gt;Outbox</title>
<path fill="none" stroke="#59687e" stroke-width="1.35" d="M190.5,-266.68C190.5,-266.68 190.5,-233.79 190.5,-233.79"/>
<polygon fill="#59687e" stroke="#59687e" stroke-width="1.35" points="193.13,-233.79 190.5,-226.29 187.88,-233.79 193.13,-233.79"/>
</g>
<!-- Queue -->
<g id="node9" class="node">
<title>Queue</title>
<path fill="#f3eefc" stroke="#b8c5d8" stroke-width="1.4" d="M199,-137C199,-137 12,-137 12,-137 6,-137 0,-131 0,-125 0,-125 0,-101 0,-101 0,-95 6,-89 12,-89 12,-89 199,-89 199,-89 205,-89 211,-95 211,-101 211,-101 211,-125 211,-125 211,-131 205,-137 199,-137"/>
<text text-anchor="middle" x="105.5" y="-116.8" font-family="Noto Sans CJK KR" font-size="14.00" fill="#182033">9. Bounded ReactionQueue</text>
<text text-anchor="middle" x="105.5" y="-101.8" font-family="Noto Sans CJK KR" font-size="14.00" fill="#182033">priority · stable key · budget</text>
</g>
<!-- Outbox&#45;&gt;Queue -->
<g id="edge10" class="edge">
<title>Outbox&#45;&gt;Queue</title>
<path fill="none" stroke="#59687e" stroke-width="1.35" d="M134.25,-177.68C134.25,-177.68 134.25,-144.79 134.25,-144.79"/>
<polygon fill="#59687e" stroke="#59687e" stroke-width="1.35" points="136.88,-144.79 134.25,-137.29 131.63,-144.79 136.88,-144.79"/>
</g>
<!-- Status -->
<g id="node10" class="node">
<title>Status</title>
<path fill="#e9fbff" stroke="#b8c5d8" stroke-width="1.4" d="M297,-48C297,-48 84,-48 84,-48 78,-48 72,-42 72,-36 72,-36 72,-12 72,-12 72,-6 78,0 84,0 84,0 297,0 297,0 303,0 309,-6 309,-12 309,-12 309,-36 309,-36 309,-42 303,-48 297,-48"/>
<text text-anchor="middle" x="190.5" y="-27.8" font-family="Noto Sans CJK KR" font-size="14.00" fill="#182033">10. Status Commit / Tick</text>
<text text-anchor="middle" x="190.5" y="-12.8" font-family="Noto Sans CJK KR" font-size="14.00" fill="#182033">tick&#45;before&#45;expire · catch&#45;up cap</text>
</g>
<!-- Queue&#45;&gt;Status -->
<g id="edge11" class="edge">
<title>Queue&#45;&gt;Status</title>
<path fill="none" stroke="#59687e" stroke-width="1.35" d="M141.5,-88.68C141.5,-88.68 141.5,-55.79 141.5,-55.79"/>
<polygon fill="#59687e" stroke="#59687e" stroke-width="1.35" points="144.13,-55.79 141.5,-48.29 138.88,-55.79 144.13,-55.79"/>
</g>
<!-- Status&#45;&gt;Outbox -->
<g id="edge12" class="edge">
<title>Status&#45;&gt;Outbox</title>
<path fill="none" stroke="#59687e" stroke-width="1.35" stroke-dasharray="5,2" d="M260,-48.01C260,-48.01 260,-170.31 260,-170.31"/>
<polygon fill="#59687e" stroke="#59687e" stroke-width="1.35" points="257.38,-170.31 260,-177.81 262.63,-170.31 257.38,-170.31"/>
<text text-anchor="middle" x="343.5" y="-109.3" font-family="Noto Sans CJK KR" font-size="14.00">new committed facts</text>
</g>
</g>
</svg>
