<?xml version="1.0" encoding="UTF-8" standalone="no"?>
<!DOCTYPE svg PUBLIC "-//W3C//DTD SVG 1.1//EN"
 "http://www.w3.org/Graphics/SVG/1.1/DTD/svg11.dtd">
<!-- Generated by graphviz version 15.1.0 (20260618.0150)
 -->
<!-- Title: G Pages: 1 -->
<svg width="830pt" height="1547pt"
 viewBox="12.00 12.00 818.00 1536.00" xmlns="http://www.w3.org/2000/svg" xmlns:xlink="http://www.w3.org/1999/xlink">
<g id="graph0" class="graph" transform="scale(1.33333 1.33333) rotate(0) translate(33.12 1127.23)">
<title>G</title>
<polygon fill="#ffffff" stroke="none" points="-24.48,24.48 -24.48,-1118.59 580.72,-1118.59 580.72,24.48 -24.48,24.48"/>
<!-- Command -->
<g id="node1" class="node">
<title>Command</title>
<path fill="#f3eefc" stroke="#b8c5d8" stroke-width="1.4" d="M438.62,-1094.11C438.62,-1094.11 291.14,-1094.11 291.14,-1094.11 285.14,-1094.11 279.14,-1088.11 279.14,-1082.11 279.14,-1082.11 279.14,-1054.33 279.14,-1054.33 279.14,-1048.33 285.14,-1042.33 291.14,-1042.33 291.14,-1042.33 438.62,-1042.33 438.62,-1042.33 444.62,-1042.33 450.62,-1048.33 450.62,-1054.33 450.62,-1054.33 450.62,-1082.11 450.62,-1082.11 450.62,-1088.11 444.62,-1094.11 438.62,-1094.11"/>
<text xml:space="preserve" text-anchor="middle" x="364.88" y="-1072.17" font-family="Noto Sans KR" font-size="14.00" fill="#182033">1. CommandEnvelope</text>
<text xml:space="preserve" text-anchor="middle" x="364.88" y="-1054.92" font-family="Noto Sans KR" font-size="14.00" fill="#182033">identity · tick · versions</text>
</g>
<!-- Snapshot -->
<g id="node2" class="node">
<title>Snapshot</title>
<path fill="#eefbf6" stroke="#b8c5d8" stroke-width="1.4" d="M467.12,-995.33C467.12,-995.33 262.64,-995.33 262.64,-995.33 256.64,-995.33 250.64,-989.33 250.64,-983.33 250.64,-983.33 250.64,-955.55 250.64,-955.55 250.64,-949.55 256.64,-943.55 262.64,-943.55 262.64,-943.55 467.12,-943.55 467.12,-943.55 473.12,-943.55 479.12,-949.55 479.12,-955.55 479.12,-955.55 479.12,-983.33 479.12,-983.33 479.12,-989.33 473.12,-995.33 467.12,-995.33"/>
<text xml:space="preserve" text-anchor="middle" x="364.88" y="-973.39" font-family="Noto Sans KR" font-size="14.00" fill="#182033">2. Frozen Snapshot</text>
<text xml:space="preserve" text-anchor="middle" x="364.88" y="-956.14" font-family="Noto Sans KR" font-size="14.00" fill="#182033">entity versions · resources · stats</text>
</g>
<!-- Command&#45;&gt;Snapshot -->
<g id="edge1" class="edge">
<title>Command&#45;&gt;Snapshot</title>
<path fill="none" stroke="#59687e" stroke-width="1.35" d="M364.88,-1041.79C364.88,-1030.57 364.88,-1017.2 364.88,-1005.08"/>
<polygon fill="#59687e" stroke="#59687e" stroke-width="1.35" points="367.5,-1005.24 364.88,-997.74 362.25,-1005.24 367.5,-1005.24"/>
</g>
<!-- Resolve -->
<g id="node3" class="node">
<title>Resolve</title>
<path fill="#eaf0ff" stroke="#b8c5d8" stroke-width="1.4" d="M449.87,-896.55C449.87,-896.55 279.89,-896.55 279.89,-896.55 273.89,-896.55 267.89,-890.55 267.89,-884.55 267.89,-884.55 267.89,-839.52 267.89,-839.52 267.89,-833.52 273.89,-827.52 279.89,-827.52 279.89,-827.52 449.87,-827.52 449.87,-827.52 455.87,-827.52 461.87,-833.52 461.87,-839.52 461.87,-839.52 461.87,-884.55 461.87,-884.55 461.87,-890.55 455.87,-896.55 449.87,-896.55"/>
<text xml:space="preserve" text-anchor="middle" x="364.88" y="-874.61" font-family="Noto Sans KR" font-size="14.00" fill="#182033">3. Pure Resolve</text>
<text xml:space="preserve" text-anchor="middle" x="364.88" y="-857.36" font-family="Noto Sans KR" font-size="14.00" fill="#182033">keyed RNG · integer BPS</text>
<text xml:space="preserve" text-anchor="middle" x="364.88" y="-840.11" font-family="Noto Sans KR" font-size="14.00" fill="#182033">immutable outcome + plan</text>
</g>
<!-- Snapshot&#45;&gt;Resolve -->
<g id="edge2" class="edge">
<title>Snapshot&#45;&gt;Resolve</title>
<path fill="none" stroke="#59687e" stroke-width="1.35" d="M364.88,-942.92C364.88,-931.95 364.88,-918.81 364.88,-906.39"/>
<polygon fill="#59687e" stroke="#59687e" stroke-width="1.35" points="367.5,-906.62 364.88,-899.12 362.25,-906.62 367.5,-906.62"/>
</g>
<!-- Preconditions -->
<g id="node4" class="node">
<title>Preconditions</title>
<path fill="#fff7e6" stroke="#b8c5d8" stroke-width="1.4" d="M353.69,-776.19C353.69,-776.19 242.09,-733.07 242.09,-733.07 236.5,-730.9 236.5,-726.58 242.09,-724.41 242.09,-724.41 353.69,-681.29 353.69,-681.29 359.28,-679.12 370.48,-679.12 376.07,-681.29 376.07,-681.29 487.67,-724.41 487.67,-724.41 493.26,-726.58 493.26,-730.9 487.67,-733.07 487.67,-733.07 376.07,-776.19 376.07,-776.19 370.48,-778.36 359.28,-778.36 353.69,-776.19"/>
<text xml:space="preserve" text-anchor="middle" x="364.88" y="-732.69" font-family="Noto Sans KR" font-size="14.00" fill="#182033">4. Version +</text>
<text xml:space="preserve" text-anchor="middle" x="364.88" y="-715.44" font-family="Noto Sans KR" font-size="14.00" fill="#182033">idempotency OK?</text>
</g>
<!-- Resolve&#45;&gt;Preconditions -->
<g id="edge3" class="edge">
<title>Resolve&#45;&gt;Preconditions</title>
<path fill="none" stroke="#59687e" stroke-width="1.35" d="M364.88,-826.88C364.88,-815.74 364.88,-803.01 364.88,-790.52"/>
<polygon fill="#59687e" stroke="#59687e" stroke-width="1.35" points="367.5,-790.59 364.88,-783.09 362.25,-790.59 367.5,-790.59"/>
</g>
<!-- Working -->
<g id="node5" class="node">
<title>Working</title>
<path fill="#fff7e6" stroke="#b8c5d8" stroke-width="1.4" d="M324.37,-613.71C324.37,-613.71 205.39,-613.71 205.39,-613.71 199.39,-613.71 193.39,-607.71 193.39,-601.71 193.39,-601.71 193.39,-573.93 193.39,-573.93 193.39,-567.93 199.39,-561.93 205.39,-561.93 205.39,-561.93 324.37,-561.93 324.37,-561.93 330.37,-561.93 336.37,-567.93 336.37,-573.93 336.37,-573.93 336.37,-601.71 336.37,-601.71 336.37,-607.71 330.37,-613.71 324.37,-613.71"/>
<text xml:space="preserve" text-anchor="middle" x="264.88" y="-591.77" font-family="Noto Sans KR" font-size="14.00" fill="#182033">5. Working Copy</text>
<text xml:space="preserve" text-anchor="middle" x="264.88" y="-574.52" font-family="Noto Sans KR" font-size="14.00" fill="#182033">ordered operations</text>
</g>
<!-- Preconditions&#45;&gt;Working -->
<g id="edge4" class="edge">
<title>Preconditions&#45;&gt;Working</title>
<path fill="none" stroke="#59687e" stroke-width="1.35" d="M335.95,-687.56C320.88,-666.62 302.68,-641.33 288.47,-621.59"/>
<polygon fill="#59687e" stroke="#59687e" stroke-width="1.35" points="290.74,-620.26 284.23,-615.71 286.48,-623.33 290.74,-620.26"/>
<text xml:space="preserve" text-anchor="middle" x="319.02" y="-640.66" font-family="Noto Sans KR" font-size="14.00">yes</text>
</g>
<!-- Reject -->
<g id="node11" class="node">
<title>Reject</title>
<polygon fill="#fff0f3" stroke="#b8c5d8" stroke-width="1.4" points="550.24,-613.71 373.51,-613.71 373.51,-561.93 556.24,-561.93 556.24,-607.71 550.24,-613.71"/>
<polyline fill="none" stroke="#b8c5d8" stroke-width="1.4" points="550.24,-613.71 550.24,-607.71"/>
<polyline fill="none" stroke="#b8c5d8" stroke-width="1.4" points="556.24,-607.71 550.24,-607.71"/>
<text xml:space="preserve" text-anchor="middle" x="464.88" y="-591.77" font-family="Noto Sans KR" font-size="14.00" fill="#182033">Reject without mutation</text>
<text xml:space="preserve" text-anchor="middle" x="464.88" y="-574.52" font-family="Noto Sans KR" font-size="14.00" fill="#182033">DomainError + retryability</text>
</g>
<!-- Preconditions&#45;&gt;Reject -->
<g id="edge5" class="edge">
<title>Preconditions&#45;&gt;Reject</title>
<path fill="none" stroke="#59687e" stroke-width="1.35" d="M393.8,-687.56C408.88,-666.62 427.08,-641.33 441.29,-621.59"/>
<polygon fill="#59687e" stroke="#59687e" stroke-width="1.35" points="443.27,-623.33 445.53,-615.71 439.01,-620.26 443.27,-623.33"/>
<text xml:space="preserve" text-anchor="middle" x="437.93" y="-640.66" font-family="Noto Sans KR" font-size="14.00">no</text>
</g>
<!-- Validate -->
<g id="node6" class="node">
<title>Validate</title>
<path fill="#fff0f3" stroke="#b8c5d8" stroke-width="1.4" d="M253.82,-510.27C253.82,-510.27 153.21,-467.81 153.21,-467.81 147.68,-465.48 147.68,-460.82 153.21,-458.49 153.21,-458.49 253.82,-416.03 253.82,-416.03 259.35,-413.7 270.41,-413.7 275.94,-416.03 275.94,-416.03 376.55,-458.49 376.55,-458.49 382.08,-460.82 382.08,-465.48 376.55,-467.81 376.55,-467.81 275.94,-510.27 275.94,-510.27 270.41,-512.6 259.35,-512.6 253.82,-510.27"/>
<text xml:space="preserve" text-anchor="middle" x="264.88" y="-467.1" font-family="Noto Sans KR" font-size="14.00" fill="#182033">6. All resource</text>
<text xml:space="preserve" text-anchor="middle" x="264.88" y="-449.85" font-family="Noto Sans KR" font-size="14.00" fill="#182033">invariants valid?</text>
</g>
<!-- Working&#45;&gt;Validate -->
<g id="edge6" class="edge">
<title>Working&#45;&gt;Validate</title>
<path fill="none" stroke="#59687e" stroke-width="1.35" d="M264.88,-561.4C264.88,-550.73 264.88,-537.82 264.88,-524.94"/>
<polygon fill="#59687e" stroke="#59687e" stroke-width="1.35" points="267.5,-525.14 264.88,-517.64 262.25,-525.14 267.5,-525.14"/>
</g>
<!-- Commit -->
<g id="node7" class="node">
<title>Commit</title>
<path fill="#eefbf6" stroke="#b8c5d8" stroke-width="1.4" d="M245.62,-348.12C245.62,-348.12 14.14,-348.12 14.14,-348.12 8.14,-348.12 2.14,-342.12 2.14,-336.12 2.14,-336.12 2.14,-308.34 2.14,-308.34 2.14,-302.34 8.14,-296.34 14.14,-296.34 14.14,-296.34 245.62,-296.34 245.62,-296.34 251.62,-296.34 257.62,-302.34 257.62,-308.34 257.62,-308.34 257.62,-336.12 257.62,-336.12 257.62,-342.12 251.62,-348.12 245.62,-348.12"/>
<text xml:space="preserve" text-anchor="middle" x="129.88" y="-326.18" font-family="Noto Sans KR" font-size="14.00" fill="#182033">7. Atomic Commit</text>
<text xml:space="preserve" text-anchor="middle" x="129.88" y="-308.93" font-family="Noto Sans KR" font-size="14.00" fill="#182033">state + outbox + processed command</text>
</g>
<!-- Validate&#45;&gt;Commit -->
<g id="edge7" class="edge">
<title>Validate&#45;&gt;Commit</title>
<path fill="none" stroke="#59687e" stroke-width="1.35" d="M229.41,-425.65C208.12,-403.74 181.3,-376.14 160.86,-355.11"/>
<polygon fill="#59687e" stroke="#59687e" stroke-width="1.35" points="163,-353.55 155.89,-350 159.24,-357.21 163,-353.55"/>
<text xml:space="preserve" text-anchor="middle" x="199.42" y="-375.07" font-family="Noto Sans KR" font-size="14.00">yes</text>
</g>
<!-- Rollback -->
<g id="node12" class="node">
<title>Rollback</title>
<polygon fill="#fff0f3" stroke="#b8c5d8" stroke-width="1.4" points="499.49,-348.12 294.26,-348.12 294.26,-296.34 505.49,-296.34 505.49,-342.12 499.49,-348.12"/>
<polyline fill="none" stroke="#b8c5d8" stroke-width="1.4" points="499.49,-348.12 499.49,-342.12"/>
<polyline fill="none" stroke="#b8c5d8" stroke-width="1.4" points="505.49,-342.12 499.49,-342.12"/>
<text xml:space="preserve" text-anchor="middle" x="399.88" y="-326.18" font-family="Noto Sans KR" font-size="14.00" fill="#182033">Discard working copy</text>
<text xml:space="preserve" text-anchor="middle" x="399.88" y="-308.93" font-family="Noto Sans KR" font-size="14.00" fill="#182033">No partial mutation / no event</text>
</g>
<!-- Validate&#45;&gt;Rollback -->
<g id="edge8" class="edge">
<title>Validate&#45;&gt;Rollback</title>
<path fill="none" stroke="#59687e" stroke-width="1.35" d="M300.35,-425.65C321.64,-403.74 348.46,-376.14 368.89,-355.11"/>
<polygon fill="#59687e" stroke="#59687e" stroke-width="1.35" points="370.52,-357.21 373.87,-350 366.76,-353.55 370.52,-357.21"/>
<text xml:space="preserve" text-anchor="middle" x="360.61" y="-375.07" font-family="Noto Sans KR" font-size="14.00">no</text>
</g>
<!-- Outbox -->
<g id="node8" class="node">
<title>Outbox</title>
<path fill="#e9fbff" stroke="#b8c5d8" stroke-width="1.4" d="M247.12,-249.34C247.12,-249.34 12.64,-249.34 12.64,-249.34 6.64,-249.34 0.64,-243.34 0.64,-237.34 0.64,-237.34 0.64,-209.56 0.64,-209.56 0.64,-203.56 6.64,-197.56 12.64,-197.56 12.64,-197.56 247.12,-197.56 247.12,-197.56 253.12,-197.56 259.12,-203.56 259.12,-209.56 259.12,-209.56 259.12,-237.34 259.12,-237.34 259.12,-243.34 253.12,-249.34 247.12,-249.34"/>
<text xml:space="preserve" text-anchor="middle" x="129.88" y="-227.4" font-family="Noto Sans KR" font-size="14.00" fill="#182033">8. Committed Facts Dispatch</text>
<text xml:space="preserve" text-anchor="middle" x="129.88" y="-210.15" font-family="Noto Sans KR" font-size="14.00" fill="#182033">SkillCommitted · DamageCommitted</text>
</g>
<!-- Commit&#45;&gt;Outbox -->
<g id="edge9" class="edge">
<title>Commit&#45;&gt;Outbox</title>
<path fill="none" stroke="#59687e" stroke-width="1.35" d="M129.88,-295.8C129.88,-284.58 129.88,-271.21 129.88,-259.09"/>
<polygon fill="#59687e" stroke="#59687e" stroke-width="1.35" points="132.5,-259.25 129.88,-251.75 127.25,-259.25 132.5,-259.25"/>
</g>
<!-- Queue -->
<g id="node9" class="node">
<title>Queue</title>
<path fill="#f3eefc" stroke="#b8c5d8" stroke-width="1.4" d="M218.62,-150.56C218.62,-150.56 41.14,-150.56 41.14,-150.56 35.14,-150.56 29.14,-144.56 29.14,-138.56 29.14,-138.56 29.14,-110.78 29.14,-110.78 29.14,-104.78 35.14,-98.78 41.14,-98.78 41.14,-98.78 218.62,-98.78 218.62,-98.78 224.62,-98.78 230.62,-104.78 230.62,-110.78 230.62,-110.78 230.62,-138.56 230.62,-138.56 230.62,-144.56 224.62,-150.56 218.62,-150.56"/>
<text xml:space="preserve" text-anchor="middle" x="129.88" y="-128.62" font-family="Noto Sans KR" font-size="14.00" fill="#182033">9. Bounded ReactionQueue</text>
<text xml:space="preserve" text-anchor="middle" x="129.88" y="-111.37" font-family="Noto Sans KR" font-size="14.00" fill="#182033">priority · stable key · budget</text>
</g>
<!-- Outbox&#45;&gt;Queue -->
<g id="edge10" class="edge">
<title>Outbox&#45;&gt;Queue</title>
<path fill="none" stroke="#59687e" stroke-width="1.35" d="M129.88,-197.02C129.88,-185.8 129.88,-172.43 129.88,-160.31"/>
<polygon fill="#59687e" stroke="#59687e" stroke-width="1.35" points="132.5,-160.47 129.88,-152.97 127.25,-160.47 132.5,-160.47"/>
</g>
<!-- Status -->
<g id="node10" class="node">
<title>Status</title>
<path fill="#e9fbff" stroke="#b8c5d8" stroke-width="1.4" d="M230.99,-51.78C230.99,-51.78 28.76,-51.78 28.76,-51.78 22.76,-51.78 16.76,-45.78 16.76,-39.78 16.76,-39.78 16.76,-12 16.76,-12 16.76,-6 22.76,0 28.76,0 28.76,0 230.99,0 230.99,0 236.99,0 242.99,-6 242.99,-12 242.99,-12 242.99,-39.78 242.99,-39.78 242.99,-45.78 236.99,-51.78 230.99,-51.78"/>
<text xml:space="preserve" text-anchor="middle" x="129.88" y="-29.84" font-family="Noto Sans KR" font-size="14.00" fill="#182033">10. Status Commit / Tick</text>
<text xml:space="preserve" text-anchor="middle" x="129.88" y="-12.59" font-family="Noto Sans KR" font-size="14.00" fill="#182033">tick&#45;before&#45;expire · catch&#45;up cap</text>
</g>
<!-- Queue&#45;&gt;Status -->
<g id="edge11" class="edge">
<title>Queue&#45;&gt;Status</title>
<path fill="none" stroke="#59687e" stroke-width="1.35" d="M129.88,-98.24C129.88,-87.02 129.88,-73.65 129.88,-61.53"/>
<polygon fill="#59687e" stroke="#59687e" stroke-width="1.35" points="132.5,-61.69 129.88,-54.19 127.25,-61.69 132.5,-61.69"/>
</g>
<!-- Status&#45;&gt;Outbox -->
<g id="edge12" class="edge">
<title>Status:w&#45;&gt;Outbox:w</title>
<path fill="none" stroke="#7c3aed" stroke-width="1.35" stroke-dasharray="5,2" d="M15.76,-25.89C15.76,-25.89 16.76,-51.78 16.76,-51.78 16.76,-51.78 157.88,-74.78 157.88,-74.78 157.88,-74.78 248.88,-98.78 248.88,-98.78 248.88,-98.78 248.88,-150.56 248.88,-150.56 248.88,-150.56 157.88,-174.56 157.88,-174.56 157.88,-174.56 0.64,-197.56 0.64,-197.56 0.64,-197.56 0.29,-206.69 0,-214.1"/>
<polygon fill="#7c3aed" stroke="#7c3aed" stroke-width="1.35" points="-2.62,-213.81 -0.28,-221.41 2.63,-214.02 -2.62,-213.81"/>
<text xml:space="preserve" text-anchor="middle" x="313.75" y="-120" font-family="Noto Sans KR" font-size="14.00" fill="#6d28d9">new committed facts</text>
</g>
</g>
</svg>
