<?xml version="1.0" encoding="UTF-8" standalone="no"?>
<!DOCTYPE svg PUBLIC "-//W3C//DTD SVG 1.1//EN"
 "http://www.w3.org/Graphics/SVG/1.1/DTD/svg11.dtd">
<!-- Generated by graphviz version 15.1.0 (20260618.0150)
 -->
<!-- Title: G Pages: 1 -->
<svg width="2151pt" height="505pt"
 viewBox="12.00 12.00 2140.00 493.00" xmlns="http://www.w3.org/2000/svg" xmlns:xlink="http://www.w3.org/1999/xlink">
<g id="graph0" class="graph" transform="scale(1.33333 1.33333) rotate(0) translate(33.12 345.59)">
<title>G</title>
<polygon fill="#ffffff" stroke="none" points="-24.48,24.48 -24.48,-336.95 1571.67,-336.95 1571.67,24.48 -24.48,24.48"/>
<!-- Input -->
<g id="node1" class="node">
<title>Input</title>
<path fill="#f3eefc" stroke="#b8c5d8" stroke-width="1.4" d="M166.92,-312.47C166.92,-312.47 30,-312.47 30,-312.47 24,-312.47 18,-306.47 18,-300.47 18,-300.47 18,-254 18,-254 18,-248 24,-242 30,-242 30,-242 166.92,-242 166.92,-242 172.92,-242 178.92,-248 178.92,-254 178.92,-254 178.92,-300.47 178.92,-300.47 178.92,-306.47 172.92,-312.47 166.92,-312.47"/>
<text xml:space="preserve" text-anchor="middle" x="98.46" y="-289.81" font-family="Noto Sans KR" font-size="14.00" fill="#182033">Input</text>
<text xml:space="preserve" text-anchor="middle" x="98.46" y="-272.56" font-family="Noto Sans KR" font-size="14.00" fill="#182033">command · snapshot</text>
<text xml:space="preserve" text-anchor="middle" x="98.46" y="-255.31" font-family="Noto Sans KR" font-size="14.00" fill="#182033">root seed</text>
</g>
<!-- Runtime -->
<g id="node4" class="node">
<title>Runtime</title>
<polygon fill="#eaf0ff" stroke="#b8c5d8" stroke-width="2" points="515.84,-182.85 249.92,-182.85 249.92,-178.85 245.92,-178.85 245.92,-174.85 249.92,-174.85 249.92,-137.62 245.92,-137.62 245.92,-133.62 249.92,-133.62 249.92,-129.62 515.84,-129.62 515.84,-182.85"/>
<polyline fill="none" stroke="#b8c5d8" stroke-width="2" points="249.92,-178.85 253.92,-178.85 253.92,-174.85 249.92,-174.85"/>
<polyline fill="none" stroke="#b8c5d8" stroke-width="2" points="249.92,-137.62 253.92,-137.62 253.92,-133.62 249.92,-133.62"/>
<text xml:space="preserve" text-anchor="middle" x="382.88" y="-160.19" font-family="Noto Sans KR" font-size="14.00" fill="#182033">Deterministic Runtime</text>
<text xml:space="preserve" text-anchor="middle" x="382.88" y="-142.94" font-family="Noto Sans KR" font-size="14.00" fill="#182033">Resolve → Commit → Reaction → Tick</text>
</g>
<!-- Input&#45;&gt;Runtime -->
<g id="edge1" class="edge">
<title>Input&#45;&gt;Runtime</title>
<path fill="none" stroke="#59687e" stroke-width="1.35" d="M179.26,-243.05C220.07,-225.56 269.38,-204.43 309.14,-187.4"/>
<polygon fill="#59687e" stroke="#59687e" stroke-width="1.35" points="309.73,-190 315.59,-184.63 307.67,-185.18 309.73,-190"/>
</g>
<!-- Versions -->
<g id="node2" class="node">
<title>Versions</title>
<path fill="#fff7e6" stroke="#b8c5d8" stroke-width="1.4" d="M182.3,-200.1C182.3,-200.1 14.63,-200.1 14.63,-200.1 8.63,-200.1 2.63,-194.1 2.63,-188.1 2.63,-188.1 2.63,-124.38 2.63,-124.38 2.63,-118.38 8.63,-112.38 14.63,-112.38 14.63,-112.38 182.3,-112.38 182.3,-112.38 188.3,-112.38 194.3,-118.38 194.3,-124.38 194.3,-124.38 194.3,-188.1 194.3,-188.1 194.3,-194.1 188.3,-200.1 182.3,-200.1"/>
<text xml:space="preserve" text-anchor="middle" x="98.46" y="-177.44" font-family="Noto Sans KR" font-size="14.00" fill="#182033">Version Envelope</text>
<text xml:space="preserve" text-anchor="middle" x="98.46" y="-160.19" font-family="Noto Sans KR" font-size="14.00" fill="#182033">runtime · contract · replay</text>
<text xml:space="preserve" text-anchor="middle" x="98.46" y="-142.94" font-family="Noto Sans KR" font-size="14.00" fill="#182033">RNG · numeric · data</text>
<text xml:space="preserve" text-anchor="middle" x="98.46" y="-125.69" font-family="Noto Sans KR" font-size="14.00" fill="#182033">definition · formula</text>
</g>
<!-- Versions&#45;&gt;Runtime -->
<g id="edge2" class="edge">
<title>Versions&#45;&gt;Runtime</title>
<path fill="none" stroke="#59687e" stroke-width="1.35" d="M194.68,-156.24C209.14,-156.24 224.31,-156.24 239.51,-156.24"/>
<polygon fill="#59687e" stroke="#59687e" stroke-width="1.35" points="239.42,-158.86 246.92,-156.24 239.42,-153.61 239.42,-158.86"/>
</g>
<!-- Ordering -->
<g id="node3" class="node">
<title>Ordering</title>
<path fill="#eefbf6" stroke="#b8c5d8" stroke-width="1.4" d="M184.92,-70.47C184.92,-70.47 12,-70.47 12,-70.47 6,-70.47 0,-64.47 0,-58.47 0,-58.47 0,-12 0,-12 0,-6 6,0 12,0 12,0 184.92,0 184.92,0 190.92,0 196.92,-6 196.92,-12 196.92,-12 196.92,-58.47 196.92,-58.47 196.92,-64.47 190.92,-70.47 184.92,-70.47"/>
<text xml:space="preserve" text-anchor="middle" x="98.46" y="-47.81" font-family="Noto Sans KR" font-size="14.00" fill="#182033">Stable Semantics</text>
<text xml:space="preserve" text-anchor="middle" x="98.46" y="-30.56" font-family="Noto Sans KR" font-size="14.00" fill="#182033">canonical JSON · stable IDs</text>
<text xml:space="preserve" text-anchor="middle" x="98.46" y="-13.31" font-family="Noto Sans KR" font-size="14.00" fill="#182033">operation order · tick order</text>
</g>
<!-- Ordering&#45;&gt;Runtime -->
<g id="edge3" class="edge">
<title>Ordering&#45;&gt;Runtime</title>
<path fill="none" stroke="#59687e" stroke-width="1.35" d="M183.05,-71.05C223.12,-88.22 270.67,-108.59 309.21,-125.1"/>
<polygon fill="#59687e" stroke="#59687e" stroke-width="1.35" points="307.99,-127.43 315.92,-127.98 310.06,-122.61 307.99,-127.43"/>
</g>
<!-- Outputs -->
<g id="node5" class="node">
<title>Outputs</title>
<path fill="#e9fbff" stroke="#b8c5d8" stroke-width="1.4" d="M748.51,-191.47C748.51,-191.47 580.84,-191.47 580.84,-191.47 574.84,-191.47 568.84,-185.47 568.84,-179.47 568.84,-179.47 568.84,-133 568.84,-133 568.84,-127 574.84,-121 580.84,-121 580.84,-121 748.51,-121 748.51,-121 754.51,-121 760.51,-127 760.51,-133 760.51,-133 760.51,-179.47 760.51,-179.47 760.51,-185.47 754.51,-191.47 748.51,-191.47"/>
<text xml:space="preserve" text-anchor="middle" x="664.68" y="-168.81" font-family="Noto Sans KR" font-size="14.00" fill="#182033">Outputs</text>
<text xml:space="preserve" text-anchor="middle" x="664.68" y="-151.56" font-family="Noto Sans KR" font-size="14.00" fill="#182033">final state · domain events</text>
<text xml:space="preserve" text-anchor="middle" x="664.68" y="-134.31" font-family="Noto Sans KR" font-size="14.00" fill="#182033">decisions · trace</text>
</g>
<!-- Runtime&#45;&gt;Outputs -->
<g id="edge4" class="edge">
<title>Runtime&#45;&gt;Outputs</title>
<path fill="none" stroke="#59687e" stroke-width="1.35" d="M516.81,-156.24C530.9,-156.24 545.09,-156.24 558.8,-156.24"/>
<polygon fill="#59687e" stroke="#59687e" stroke-width="1.35" points="558.66,-158.86 566.16,-156.24 558.66,-153.61 558.66,-158.86"/>
</g>
<!-- Hashes -->
<g id="node6" class="node">
<title>Hashes</title>
<polygon fill="#fff7e6" stroke="#b8c5d8" stroke-width="1.4" points="978.93,-191.47 813.51,-191.47 813.51,-121 984.93,-121 984.93,-185.47 978.93,-191.47"/>
<polyline fill="none" stroke="#b8c5d8" stroke-width="1.4" points="978.93,-191.47 978.93,-185.47"/>
<polyline fill="none" stroke="#b8c5d8" stroke-width="1.4" points="984.93,-185.47 978.93,-185.47"/>
<text xml:space="preserve" text-anchor="middle" x="899.22" y="-168.81" font-family="Noto Sans KR" font-size="14.00" fill="#182033">Verification</text>
<text xml:space="preserve" text-anchor="middle" x="899.22" y="-151.56" font-family="Noto Sans KR" font-size="14.00" fill="#182033">traceHash · replayHash</text>
<text xml:space="preserve" text-anchor="middle" x="899.22" y="-134.31" font-family="Noto Sans KR" font-size="14.00" fill="#182033">golden fixture</text>
</g>
<!-- Outputs&#45;&gt;Hashes -->
<g id="edge5" class="edge">
<title>Outputs&#45;&gt;Hashes</title>
<path fill="none" stroke="#59687e" stroke-width="1.35" d="M760.93,-156.24C775.03,-156.24 789.55,-156.24 803.63,-156.24"/>
<polygon fill="#59687e" stroke="#59687e" stroke-width="1.35" points="803.27,-158.86 810.77,-156.24 803.27,-153.61 803.27,-158.86"/>
</g>
<!-- Match -->
<g id="node7" class="node">
<title>Match</title>
<path fill="#eefbf6" stroke="#b8c5d8" stroke-width="1.4" d="M1131.9,-204.02C1131.9,-204.02 1048.63,-161.67 1048.63,-161.67 1043.28,-158.95 1043.28,-153.52 1048.63,-150.8 1048.63,-150.8 1131.9,-108.45 1131.9,-108.45 1137.25,-105.73 1147.95,-105.73 1153.3,-108.45 1153.3,-108.45 1236.57,-150.8 1236.57,-150.8 1241.92,-153.52 1241.92,-158.95 1236.57,-161.67 1236.57,-161.67 1153.3,-204.02 1153.3,-204.02 1147.95,-206.74 1137.25,-206.74 1131.9,-204.02"/>
<text xml:space="preserve" text-anchor="middle" x="1142.6" y="-160.19" font-family="Noto Sans KR" font-size="14.00" fill="#182033">Hashes and</text>
<text xml:space="preserve" text-anchor="middle" x="1142.6" y="-142.94" font-family="Noto Sans KR" font-size="14.00" fill="#182033">state match?</text>
</g>
<!-- Hashes&#45;&gt;Match -->
<g id="edge6" class="edge">
<title>Hashes&#45;&gt;Match</title>
<path fill="none" stroke="#59687e" stroke-width="1.35" d="M985.32,-156.24C998.91,-156.24 1013.15,-156.24 1027.28,-156.24"/>
<polygon fill="#59687e" stroke="#59687e" stroke-width="1.35" points="1026.99,-158.86 1034.49,-156.24 1026.99,-153.61 1026.99,-158.86"/>
</g>
<!-- Pass -->
<g id="node8" class="node">
<title>Pass</title>
<path fill="#eefbf6" stroke="#b8c5d8" stroke-width="1.4" d="M1485.32,-218.24C1485.32,-218.24 1381.4,-218.24 1381.4,-218.24 1375.4,-218.24 1369.4,-212.24 1369.4,-206.24 1369.4,-206.24 1369.4,-194.24 1369.4,-194.24 1369.4,-188.24 1375.4,-182.24 1381.4,-182.24 1381.4,-182.24 1485.32,-182.24 1485.32,-182.24 1491.32,-182.24 1497.32,-188.24 1497.32,-194.24 1497.32,-194.24 1497.32,-206.24 1497.32,-206.24 1497.32,-212.24 1491.32,-218.24 1485.32,-218.24"/>
<text xml:space="preserve" text-anchor="middle" x="1433.36" y="-195.56" font-family="Noto Sans KR" font-size="14.00" fill="#182033">Replay accepted</text>
</g>
<!-- Match&#45;&gt;Pass -->
<g id="edge7" class="edge">
<title>Match&#45;&gt;Pass</title>
<path fill="none" stroke="#59687e" stroke-width="1.35" d="M1224.42,-168.55C1266.83,-175.01 1318.38,-182.87 1359.55,-189.14"/>
<polygon fill="#59687e" stroke="#59687e" stroke-width="1.35" points="1359.14,-191.73 1366.95,-190.27 1359.93,-186.54 1359.14,-191.73"/>
<text xml:space="preserve" text-anchor="middle" x="1283.4" y="-182.19" font-family="Noto Sans KR" font-size="14.00">yes</text>
</g>
<!-- Fail -->
<g id="node9" class="node">
<title>Fail</title>
<path fill="#fff0f3" stroke="#b8c5d8" stroke-width="1.4" d="M1535.19,-139.84C1535.19,-139.84 1331.52,-139.84 1331.52,-139.84 1325.52,-139.84 1319.52,-133.84 1319.52,-127.84 1319.52,-127.84 1319.52,-98.62 1319.52,-98.62 1319.52,-92.62 1325.52,-86.62 1331.52,-86.62 1331.52,-86.62 1535.19,-86.62 1535.19,-86.62 1541.19,-86.62 1547.19,-92.62 1547.19,-98.62 1547.19,-98.62 1547.19,-127.84 1547.19,-127.84 1547.19,-133.84 1541.19,-139.84 1535.19,-139.84"/>
<text xml:space="preserve" text-anchor="middle" x="1433.36" y="-117.19" font-family="Noto Sans KR" font-size="14.00" fill="#182033">Regression detected</text>
<text xml:space="preserve" text-anchor="middle" x="1433.36" y="-99.94" font-family="Noto Sans KR" font-size="14.00" fill="#182033">inspect first divergent trace stage</text>
</g>
<!-- Match&#45;&gt;Fail -->
<g id="edge8" class="edge">
<title>Match&#45;&gt;Fail</title>
<path fill="none" stroke="#59687e" stroke-width="1.35" d="M1217.82,-140.71C1235.91,-137.22 1255.25,-133.74 1273.27,-130.99 1285.09,-129.18 1297.43,-127.48 1309.79,-125.9"/>
<polygon fill="#59687e" stroke="#59687e" stroke-width="1.35" points="1310.09,-128.5 1317.2,-124.97 1309.43,-123.3 1310.09,-128.5"/>
<text xml:space="preserve" text-anchor="middle" x="1283.4" y="-134.94" font-family="Noto Sans KR" font-size="14.00">no</text>
</g>
</g>
</svg>
