<?xml version="1.0" encoding="UTF-8" standalone="no"?>
<!DOCTYPE svg PUBLIC "-//W3C//DTD SVG 1.1//EN"
 "http://www.w3.org/Graphics/SVG/1.1/DTD/svg11.dtd">
<!-- Generated by graphviz version 2.42.4 (0)
 -->
<!-- Title: G Pages: 1 -->
<svg width="1668pt" height="341pt"
 viewBox="8.64 8.64 1659.60 332.60" xmlns="http://www.w3.org/2000/svg" xmlns:xlink="http://www.w3.org/1999/xlink">
<g id="graph0" class="graph" transform="scale(1 1) rotate(0) translate(33.12 308.12)">
<title>G</title>
<polygon fill="#ffffff" stroke="transparent" points="-24.48,24.48 -24.48,-299.48 1626.48,-299.48 1626.48,24.48 -24.48,24.48"/>
<!-- Input -->
<g id="node1" class="node">
<title>Input</title>
<path fill="#f3eefc" stroke="#b8c5d8" stroke-width="1.4" d="M173.5,-275C173.5,-275 30.5,-275 30.5,-275 24.5,-275 18.5,-269 18.5,-263 18.5,-263 18.5,-224 18.5,-224 18.5,-218 24.5,-212 30.5,-212 30.5,-212 173.5,-212 173.5,-212 179.5,-212 185.5,-218 185.5,-224 185.5,-224 185.5,-263 185.5,-263 185.5,-269 179.5,-275 173.5,-275"/>
<text text-anchor="middle" x="102" y="-254.8" font-family="Noto Sans CJK KR" font-size="14.00" fill="#182033">Input</text>
<text text-anchor="middle" x="102" y="-239.8" font-family="Noto Sans CJK KR" font-size="14.00" fill="#182033">command · snapshot</text>
<text text-anchor="middle" x="102" y="-224.8" font-family="Noto Sans CJK KR" font-size="14.00" fill="#182033">root seed</text>
</g>
<!-- Runtime -->
<g id="node4" class="node">
<title>Runtime</title>
<polygon fill="#eaf0ff" stroke="#b8c5d8" stroke-width="2" points="530,-161.5 257,-161.5 257,-157.5 253,-157.5 253,-153.5 257,-153.5 257,-121.5 253,-121.5 253,-117.5 257,-117.5 257,-113.5 530,-113.5 530,-161.5"/>
<polyline fill="none" stroke="#b8c5d8" stroke-width="2" points="257,-157.5 261,-157.5 261,-153.5 257,-153.5 "/>
<polyline fill="none" stroke="#b8c5d8" stroke-width="2" points="257,-121.5 261,-121.5 261,-117.5 257,-117.5 "/>
<text text-anchor="middle" x="393.5" y="-141.3" font-family="Noto Sans CJK KR" font-size="14.00" fill="#182033">Deterministic Runtime</text>
<text text-anchor="middle" x="393.5" y="-126.3" font-family="Noto Sans CJK KR" font-size="14.00" fill="#182033">Resolve → Commit → Reaction → Tick</text>
</g>
<!-- Input&#45;&gt;Runtime -->
<g id="edge1" class="edge">
<title>Input&#45;&gt;Runtime</title>
<path fill="none" stroke="#59687e" stroke-width="1.35" d="M185.57,-213.27C227.82,-197.8 278.8,-179.13 319.59,-164.2"/>
<polygon fill="#59687e" stroke="#59687e" stroke-width="1.35" points="320.68,-166.59 326.82,-161.55 318.88,-161.66 320.68,-166.59"/>
</g>
<!-- Versions -->
<g id="node2" class="node">
<title>Versions</title>
<path fill="#fff7e6" stroke="#b8c5d8" stroke-width="1.4" d="M190,-176.5C190,-176.5 14,-176.5 14,-176.5 8,-176.5 2,-170.5 2,-164.5 2,-164.5 2,-110.5 2,-110.5 2,-104.5 8,-98.5 14,-98.5 14,-98.5 190,-98.5 190,-98.5 196,-98.5 202,-104.5 202,-110.5 202,-110.5 202,-164.5 202,-164.5 202,-170.5 196,-176.5 190,-176.5"/>
<text text-anchor="middle" x="102" y="-156.3" font-family="Noto Sans CJK KR" font-size="14.00" fill="#182033">Version Envelope</text>
<text text-anchor="middle" x="102" y="-141.3" font-family="Noto Sans CJK KR" font-size="14.00" fill="#182033">runtime · contract · replay</text>
<text text-anchor="middle" x="102" y="-126.3" font-family="Noto Sans CJK KR" font-size="14.00" fill="#182033">RNG · numeric · data</text>
<text text-anchor="middle" x="102" y="-111.3" font-family="Noto Sans CJK KR" font-size="14.00" fill="#182033">definition · formula</text>
</g>
<!-- Versions&#45;&gt;Runtime -->
<g id="edge2" class="edge">
<title>Versions&#45;&gt;Runtime</title>
<path fill="none" stroke="#59687e" stroke-width="1.35" d="M202.22,-137.5C217.35,-137.5 233.2,-137.5 249.04,-137.5"/>
<polygon fill="#59687e" stroke="#59687e" stroke-width="1.35" points="249.31,-140.13 256.81,-137.5 249.31,-134.88 249.31,-140.13"/>
</g>
<!-- Ordering -->
<g id="node3" class="node">
<title>Ordering</title>
<path fill="#eefbf6" stroke="#b8c5d8" stroke-width="1.4" d="M192,-63C192,-63 12,-63 12,-63 6,-63 0,-57 0,-51 0,-51 0,-12 0,-12 0,-6 6,0 12,0 12,0 192,0 192,0 198,0 204,-6 204,-12 204,-12 204,-51 204,-51 204,-57 198,-63 192,-63"/>
<text text-anchor="middle" x="102" y="-42.8" font-family="Noto Sans CJK KR" font-size="14.00" fill="#182033">Stable Semantics</text>
<text text-anchor="middle" x="102" y="-27.8" font-family="Noto Sans CJK KR" font-size="14.00" fill="#182033">canonical JSON · stable IDs</text>
<text text-anchor="middle" x="102" y="-12.8" font-family="Noto Sans CJK KR" font-size="14.00" fill="#182033">operation order · tick order</text>
</g>
<!-- Ordering&#45;&gt;Runtime -->
<g id="edge3" class="edge">
<title>Ordering&#45;&gt;Runtime</title>
<path fill="none" stroke="#59687e" stroke-width="1.35" d="M189.08,-63.02C230.5,-78.18 279.64,-96.18 319.24,-110.68"/>
<polygon fill="#59687e" stroke="#59687e" stroke-width="1.35" points="318.58,-113.23 326.53,-113.34 320.38,-108.3 318.58,-113.23"/>
</g>
<!-- Outputs -->
<g id="node5" class="node">
<title>Outputs</title>
<path fill="#e9fbff" stroke="#b8c5d8" stroke-width="1.4" d="M770,-169C770,-169 595,-169 595,-169 589,-169 583,-163 583,-157 583,-157 583,-118 583,-118 583,-112 589,-106 595,-106 595,-106 770,-106 770,-106 776,-106 782,-112 782,-118 782,-118 782,-157 782,-157 782,-163 776,-169 770,-169"/>
<text text-anchor="middle" x="682.5" y="-148.8" font-family="Noto Sans CJK KR" font-size="14.00" fill="#182033">Outputs</text>
<text text-anchor="middle" x="682.5" y="-133.8" font-family="Noto Sans CJK KR" font-size="14.00" fill="#182033">final state · domain events</text>
<text text-anchor="middle" x="682.5" y="-118.8" font-family="Noto Sans CJK KR" font-size="14.00" fill="#182033">decisions · trace</text>
</g>
<!-- Runtime&#45;&gt;Outputs -->
<g id="edge4" class="edge">
<title>Runtime&#45;&gt;Outputs</title>
<path fill="none" stroke="#59687e" stroke-width="1.35" d="M530.02,-137.5C545.22,-137.5 560.54,-137.5 575.3,-137.5"/>
<polygon fill="#59687e" stroke="#59687e" stroke-width="1.35" points="575.46,-140.13 582.96,-137.5 575.46,-134.88 575.46,-140.13"/>
</g>
<!-- Hashes -->
<g id="node6" class="node">
<title>Hashes</title>
<polygon fill="#fff7e6" stroke="#b8c5d8" stroke-width="1.4" points="1011,-169 835,-169 835,-106 1017,-106 1017,-163 1011,-169"/>
<polyline fill="none" stroke="#b8c5d8" stroke-width="1.4" points="1011,-169 1011,-163 "/>
<polyline fill="none" stroke="#b8c5d8" stroke-width="1.4" points="1017,-163 1011,-163 "/>
<text text-anchor="middle" x="926" y="-148.8" font-family="Noto Sans CJK KR" font-size="14.00" fill="#182033">Verification</text>
<text text-anchor="middle" x="926" y="-133.8" font-family="Noto Sans CJK KR" font-size="14.00" fill="#182033">traceHash · replayHash</text>
<text text-anchor="middle" x="926" y="-118.8" font-family="Noto Sans CJK KR" font-size="14.00" fill="#182033">golden fixture</text>
</g>
<!-- Outputs&#45;&gt;Hashes -->
<g id="edge5" class="edge">
<title>Outputs&#45;&gt;Hashes</title>
<path fill="none" stroke="#59687e" stroke-width="1.35" d="M782.08,-137.5C796.96,-137.5 812.31,-137.5 827.17,-137.5"/>
<polygon fill="#59687e" stroke="#59687e" stroke-width="1.35" points="827.4,-140.13 834.9,-137.5 827.4,-134.88 827.4,-140.13"/>
</g>
<!-- Match -->
<g id="node7" class="node">
<title>Match</title>
<path fill="#eefbf6" stroke="#b8c5d8" stroke-width="1.4" d="M1168.02,-180.66C1168.02,-180.66 1080.98,-142.34 1080.98,-142.34 1075.49,-139.92 1075.49,-135.08 1080.98,-132.66 1080.98,-132.66 1168.02,-94.34 1168.02,-94.34 1173.51,-91.92 1184.49,-91.92 1189.98,-94.34 1189.98,-94.34 1277.02,-132.66 1277.02,-132.66 1282.51,-135.08 1282.51,-139.92 1277.02,-142.34 1277.02,-142.34 1189.98,-180.66 1189.98,-180.66 1184.49,-183.08 1173.51,-183.08 1168.02,-180.66"/>
<text text-anchor="middle" x="1179" y="-141.3" font-family="Noto Sans CJK KR" font-size="14.00" fill="#182033">Hashes and</text>
<text text-anchor="middle" x="1179" y="-126.3" font-family="Noto Sans CJK KR" font-size="14.00" fill="#182033">state match?</text>
</g>
<!-- Hashes&#45;&gt;Match -->
<g id="edge6" class="edge">
<title>Hashes&#45;&gt;Match</title>
<path fill="none" stroke="#59687e" stroke-width="1.35" d="M1017.26,-137.5C1031.74,-137.5 1046.91,-137.5 1061.89,-137.5"/>
<polygon fill="#59687e" stroke="#59687e" stroke-width="1.35" points="1062.2,-140.13 1069.7,-137.5 1062.2,-134.88 1062.2,-140.13"/>
</g>
<!-- Pass -->
<g id="node8" class="node">
<title>Pass</title>
<path fill="#eefbf6" stroke="#b8c5d8" stroke-width="1.4" d="M1537,-194.5C1537,-194.5 1427,-194.5 1427,-194.5 1421,-194.5 1415,-188.5 1415,-182.5 1415,-182.5 1415,-170.5 1415,-170.5 1415,-164.5 1421,-158.5 1427,-158.5 1427,-158.5 1537,-158.5 1537,-158.5 1543,-158.5 1549,-164.5 1549,-170.5 1549,-170.5 1549,-182.5 1549,-182.5 1549,-188.5 1543,-194.5 1537,-194.5"/>
<text text-anchor="middle" x="1482" y="-172.8" font-family="Noto Sans CJK KR" font-size="14.00" fill="#182033">Replay accepted</text>
</g>
<!-- Match&#45;&gt;Pass -->
<g id="edge7" class="edge">
<title>Match&#45;&gt;Pass</title>
<path fill="none" stroke="#59687e" stroke-width="1.35" d="M1263.85,-148.36C1308.81,-154.19 1363.72,-161.3 1407.07,-166.92"/>
<polygon fill="#59687e" stroke="#59687e" stroke-width="1.35" points="1406.98,-169.56 1414.75,-167.92 1407.65,-164.35 1406.98,-169.56"/>
<text text-anchor="middle" x="1325" y="-160.3" font-family="Noto Sans CJK KR" font-size="14.00">yes</text>
</g>
<!-- Fail -->
<g id="node9" class="node">
<title>Fail</title>
<path fill="#fff0f3" stroke="#b8c5d8" stroke-width="1.4" d="M1590,-123.5C1590,-123.5 1374,-123.5 1374,-123.5 1368,-123.5 1362,-117.5 1362,-111.5 1362,-111.5 1362,-87.5 1362,-87.5 1362,-81.5 1368,-75.5 1374,-75.5 1374,-75.5 1590,-75.5 1590,-75.5 1596,-75.5 1602,-81.5 1602,-87.5 1602,-87.5 1602,-111.5 1602,-111.5 1602,-117.5 1596,-123.5 1590,-123.5"/>
<text text-anchor="middle" x="1482" y="-103.3" font-family="Noto Sans CJK KR" font-size="14.00" fill="#182033">Regression detected</text>
<text text-anchor="middle" x="1482" y="-88.3" font-family="Noto Sans CJK KR" font-size="14.00" fill="#182033">inspect first divergent trace stage</text>
</g>
<!-- Match&#45;&gt;Fail -->
<g id="edge8" class="edge">
<title>Match&#45;&gt;Fail</title>
<path fill="none" stroke="#59687e" stroke-width="1.35" d="M1261.09,-125.64C1278.53,-123.19 1296.87,-120.69 1314,-118.5 1327.07,-116.83 1340.72,-115.16 1354.34,-113.54"/>
<polygon fill="#59687e" stroke="#59687e" stroke-width="1.35" points="1354.76,-116.13 1361.9,-112.64 1354.14,-110.92 1354.76,-116.13"/>
<text text-anchor="middle" x="1325" y="-122.3" font-family="Noto Sans CJK KR" font-size="14.00">no</text>
</g>
</g>
</svg>
