<?xml version="1.0" encoding="UTF-8" standalone="no"?>
<!DOCTYPE svg PUBLIC "-//W3C//DTD SVG 1.1//EN"
 "http://www.w3.org/Graphics/SVG/1.1/DTD/svg11.dtd">
<!-- Generated by graphviz version 15.1.0 (20260618.0150)
 -->
<!-- Title: G Pages: 1 -->
<svg width="2199pt" height="529pt"
 viewBox="12.00 12.00 2188.00 517.00" xmlns="http://www.w3.org/2000/svg" xmlns:xlink="http://www.w3.org/1999/xlink">
<g id="graph0" class="graph" transform="scale(1.33333 1.33333) rotate(0) translate(33.12 363.59)">
<title>G</title>
<polygon fill="#ffffff" stroke="none" points="-24.48,24.48 -24.48,-354.95 1607.67,-354.95 1607.67,24.48 -24.48,24.48"/>
<!-- Input -->
<g id="node1" class="node">
<title>Input</title>
<path fill="#f3eefc" stroke="#b8c5d8" stroke-width="1.4" d="M184.92,-330.47C184.92,-330.47 48,-330.47 48,-330.47 42,-330.47 36,-324.47 36,-318.47 36,-318.47 36,-272 36,-272 36,-266 42,-260 48,-260 48,-260 184.92,-260 184.92,-260 190.92,-260 196.92,-266 196.92,-272 196.92,-272 196.92,-318.47 196.92,-318.47 196.92,-324.47 190.92,-330.47 184.92,-330.47"/>
<text xml:space="preserve" text-anchor="middle" x="116.46" y="-307.81" font-family="Noto Sans KR" font-size="14.00" fill="#182033">Input</text>
<text xml:space="preserve" text-anchor="middle" x="116.46" y="-290.56" font-family="Noto Sans KR" font-size="14.00" fill="#182033">command · snapshot</text>
<text xml:space="preserve" text-anchor="middle" x="116.46" y="-273.31" font-family="Noto Sans KR" font-size="14.00" fill="#182033">root seed</text>
</g>
<!-- Runtime -->
<g id="node4" class="node">
<title>Runtime</title>
<polygon fill="#eaf0ff" stroke="#b8c5d8" stroke-width="2" points="551.84,-191.85 285.92,-191.85 285.92,-187.85 281.92,-187.85 281.92,-183.85 285.92,-183.85 285.92,-146.62 281.92,-146.62 281.92,-142.62 285.92,-142.62 285.92,-138.62 551.84,-138.62 551.84,-191.85"/>
<polyline fill="none" stroke="#b8c5d8" stroke-width="2" points="285.92,-187.85 289.92,-187.85 289.92,-183.85 285.92,-183.85"/>
<polyline fill="none" stroke="#b8c5d8" stroke-width="2" points="285.92,-146.62 289.92,-146.62 289.92,-142.62 285.92,-142.62"/>
<text xml:space="preserve" text-anchor="middle" x="418.88" y="-169.19" font-family="Noto Sans KR" font-size="14.00" fill="#182033">Deterministic Runtime</text>
<text xml:space="preserve" text-anchor="middle" x="418.88" y="-151.94" font-family="Noto Sans KR" font-size="14.00" fill="#182033">Resolve → Commit → Reaction → Tick</text>
</g>
<!-- Input&#45;&gt;Runtime -->
<g id="edge1" class="edge">
<title>Input&#45;&gt;Runtime</title>
<path fill="none" stroke="#59687e" stroke-width="1.35" d="M197.57,-260.57C243.53,-240.68 300.76,-215.92 345.38,-196.61"/>
<polygon fill="#59687e" stroke="#59687e" stroke-width="1.35" points="346.41,-199.02 352.25,-193.64 344.32,-194.2 346.41,-199.02"/>
</g>
<!-- Versions -->
<g id="node2" class="node">
<title>Versions</title>
<path fill="#fff7e6" stroke="#b8c5d8" stroke-width="1.4" d="M220.92,-217.72C220.92,-217.72 12,-217.72 12,-217.72 6,-217.72 0,-211.72 0,-205.72 0,-205.72 0,-124.75 0,-124.75 0,-118.75 6,-112.75 12,-112.75 12,-112.75 220.92,-112.75 220.92,-112.75 226.92,-112.75 232.92,-118.75 232.92,-124.75 232.92,-124.75 232.92,-205.72 232.92,-205.72 232.92,-211.72 226.92,-217.72 220.92,-217.72"/>
<text xml:space="preserve" text-anchor="middle" x="116.46" y="-195.06" font-family="Noto Sans KR" font-size="14.00" fill="#182033">Version Envelope</text>
<text xml:space="preserve" text-anchor="middle" x="116.46" y="-177.81" font-family="Noto Sans KR" font-size="14.00" fill="#182033">runtime · contract · replay</text>
<text xml:space="preserve" text-anchor="middle" x="116.46" y="-160.56" font-family="Noto Sans KR" font-size="14.00" fill="#182033">RNG algorithm · RNG key schema</text>
<text xml:space="preserve" text-anchor="middle" x="116.46" y="-143.31" font-family="Noto Sans KR" font-size="14.00" fill="#182033">clock domain · numeric · data</text>
<text xml:space="preserve" text-anchor="middle" x="116.46" y="-126.06" font-family="Noto Sans KR" font-size="14.00" fill="#182033">definition · formula</text>
</g>
<!-- Versions&#45;&gt;Runtime -->
<g id="edge2" class="edge">
<title>Versions&#45;&gt;Runtime</title>
<path fill="none" stroke="#59687e" stroke-width="1.35" d="M233.61,-165.24C247.43,-165.24 261.65,-165.24 275.77,-165.24"/>
<polygon fill="#59687e" stroke="#59687e" stroke-width="1.35" points="275.49,-167.86 282.99,-165.24 275.49,-162.61 275.49,-167.86"/>
</g>
<!-- Ordering -->
<g id="node3" class="node">
<title>Ordering</title>
<path fill="#eefbf6" stroke="#b8c5d8" stroke-width="1.4" d="M202.92,-70.47C202.92,-70.47 30,-70.47 30,-70.47 24,-70.47 18,-64.47 18,-58.47 18,-58.47 18,-12 18,-12 18,-6 24,0 30,0 30,0 202.92,0 202.92,0 208.92,0 214.92,-6 214.92,-12 214.92,-12 214.92,-58.47 214.92,-58.47 214.92,-64.47 208.92,-70.47 202.92,-70.47"/>
<text xml:space="preserve" text-anchor="middle" x="116.46" y="-47.81" font-family="Noto Sans KR" font-size="14.00" fill="#182033">Stable Semantics</text>
<text xml:space="preserve" text-anchor="middle" x="116.46" y="-30.56" font-family="Noto Sans KR" font-size="14.00" fill="#182033">canonical JSON · stable IDs</text>
<text xml:space="preserve" text-anchor="middle" x="116.46" y="-13.31" font-family="Noto Sans KR" font-size="14.00" fill="#182033">operation order · tick order</text>
</g>
<!-- Ordering&#45;&gt;Runtime -->
<g id="edge3" class="edge">
<title>Ordering&#45;&gt;Runtime</title>
<path fill="none" stroke="#59687e" stroke-width="1.35" d="M200.35,-71.1C245.94,-90.83 301.96,-115.07 345.73,-134.02"/>
<polygon fill="#59687e" stroke="#59687e" stroke-width="1.35" points="344.52,-136.35 352.44,-136.92 346.6,-131.53 344.52,-136.35"/>
</g>
<!-- Outputs -->
<g id="node5" class="node">
<title>Outputs</title>
<path fill="#e9fbff" stroke="#b8c5d8" stroke-width="1.4" d="M784.51,-200.47C784.51,-200.47 616.84,-200.47 616.84,-200.47 610.84,-200.47 604.84,-194.47 604.84,-188.47 604.84,-188.47 604.84,-142 604.84,-142 604.84,-136 610.84,-130 616.84,-130 616.84,-130 784.51,-130 784.51,-130 790.51,-130 796.51,-136 796.51,-142 796.51,-142 796.51,-188.47 796.51,-188.47 796.51,-194.47 790.51,-200.47 784.51,-200.47"/>
<text xml:space="preserve" text-anchor="middle" x="700.68" y="-177.81" font-family="Noto Sans KR" font-size="14.00" fill="#182033">Outputs</text>
<text xml:space="preserve" text-anchor="middle" x="700.68" y="-160.56" font-family="Noto Sans KR" font-size="14.00" fill="#182033">final state · domain events</text>
<text xml:space="preserve" text-anchor="middle" x="700.68" y="-143.31" font-family="Noto Sans KR" font-size="14.00" fill="#182033">decisions · trace</text>
</g>
<!-- Runtime&#45;&gt;Outputs -->
<g id="edge4" class="edge">
<title>Runtime&#45;&gt;Outputs</title>
<path fill="none" stroke="#59687e" stroke-width="1.35" d="M552.81,-165.24C566.9,-165.24 581.09,-165.24 594.8,-165.24"/>
<polygon fill="#59687e" stroke="#59687e" stroke-width="1.35" points="594.66,-167.86 602.16,-165.24 594.66,-162.61 594.66,-167.86"/>
</g>
<!-- Hashes -->
<g id="node6" class="node">
<title>Hashes</title>
<polygon fill="#fff7e6" stroke="#b8c5d8" stroke-width="1.4" points="1014.93,-200.47 849.51,-200.47 849.51,-130 1020.93,-130 1020.93,-194.47 1014.93,-200.47"/>
<polyline fill="none" stroke="#b8c5d8" stroke-width="1.4" points="1014.93,-200.47 1014.93,-194.47"/>
<polyline fill="none" stroke="#b8c5d8" stroke-width="1.4" points="1020.93,-194.47 1014.93,-194.47"/>
<text xml:space="preserve" text-anchor="middle" x="935.22" y="-177.81" font-family="Noto Sans KR" font-size="14.00" fill="#182033">Verification</text>
<text xml:space="preserve" text-anchor="middle" x="935.22" y="-160.56" font-family="Noto Sans KR" font-size="14.00" fill="#182033">traceHash · replayHash</text>
<text xml:space="preserve" text-anchor="middle" x="935.22" y="-143.31" font-family="Noto Sans KR" font-size="14.00" fill="#182033">golden fixture</text>
</g>
<!-- Outputs&#45;&gt;Hashes -->
<g id="edge5" class="edge">
<title>Outputs&#45;&gt;Hashes</title>
<path fill="none" stroke="#59687e" stroke-width="1.35" d="M796.93,-165.24C811.03,-165.24 825.55,-165.24 839.63,-165.24"/>
<polygon fill="#59687e" stroke="#59687e" stroke-width="1.35" points="839.27,-167.86 846.77,-165.24 839.27,-162.61 839.27,-167.86"/>
</g>
<!-- Match -->
<g id="node7" class="node">
<title>Match</title>
<path fill="#eefbf6" stroke="#b8c5d8" stroke-width="1.4" d="M1167.9,-213.02C1167.9,-213.02 1084.63,-170.67 1084.63,-170.67 1079.28,-167.95 1079.28,-162.52 1084.63,-159.8 1084.63,-159.8 1167.9,-117.45 1167.9,-117.45 1173.25,-114.73 1183.95,-114.73 1189.3,-117.45 1189.3,-117.45 1272.57,-159.8 1272.57,-159.8 1277.92,-162.52 1277.92,-167.95 1272.57,-170.67 1272.57,-170.67 1189.3,-213.02 1189.3,-213.02 1183.95,-215.74 1173.25,-215.74 1167.9,-213.02"/>
<text xml:space="preserve" text-anchor="middle" x="1178.6" y="-169.19" font-family="Noto Sans KR" font-size="14.00" fill="#182033">Hashes and</text>
<text xml:space="preserve" text-anchor="middle" x="1178.6" y="-151.94" font-family="Noto Sans KR" font-size="14.00" fill="#182033">state match?</text>
</g>
<!-- Hashes&#45;&gt;Match -->
<g id="edge6" class="edge">
<title>Hashes&#45;&gt;Match</title>
<path fill="none" stroke="#59687e" stroke-width="1.35" d="M1021.32,-165.24C1034.91,-165.24 1049.15,-165.24 1063.28,-165.24"/>
<polygon fill="#59687e" stroke="#59687e" stroke-width="1.35" points="1062.99,-167.86 1070.49,-165.24 1062.99,-162.61 1062.99,-167.86"/>
</g>
<!-- Pass -->
<g id="node8" class="node">
<title>Pass</title>
<path fill="#eefbf6" stroke="#b8c5d8" stroke-width="1.4" d="M1521.32,-227.24C1521.32,-227.24 1417.4,-227.24 1417.4,-227.24 1411.4,-227.24 1405.4,-221.24 1405.4,-215.24 1405.4,-215.24 1405.4,-203.24 1405.4,-203.24 1405.4,-197.24 1411.4,-191.24 1417.4,-191.24 1417.4,-191.24 1521.32,-191.24 1521.32,-191.24 1527.32,-191.24 1533.32,-197.24 1533.32,-203.24 1533.32,-203.24 1533.32,-215.24 1533.32,-215.24 1533.32,-221.24 1527.32,-227.24 1521.32,-227.24"/>
<text xml:space="preserve" text-anchor="middle" x="1469.36" y="-204.56" font-family="Noto Sans KR" font-size="14.00" fill="#182033">Replay accepted</text>
</g>
<!-- Match&#45;&gt;Pass -->
<g id="edge7" class="edge">
<title>Match&#45;&gt;Pass</title>
<path fill="none" stroke="#59687e" stroke-width="1.35" d="M1260.42,-177.55C1302.83,-184.01 1354.38,-191.87 1395.55,-198.14"/>
<polygon fill="#59687e" stroke="#59687e" stroke-width="1.35" points="1395.14,-200.73 1402.95,-199.27 1395.93,-195.54 1395.14,-200.73"/>
<text xml:space="preserve" text-anchor="middle" x="1319.4" y="-191.19" font-family="Noto Sans KR" font-size="14.00">yes</text>
</g>
<!-- Fail -->
<g id="node9" class="node">
<title>Fail</title>
<path fill="#fff0f3" stroke="#b8c5d8" stroke-width="1.4" d="M1571.19,-148.84C1571.19,-148.84 1367.52,-148.84 1367.52,-148.84 1361.52,-148.84 1355.52,-142.84 1355.52,-136.84 1355.52,-136.84 1355.52,-107.62 1355.52,-107.62 1355.52,-101.62 1361.52,-95.62 1367.52,-95.62 1367.52,-95.62 1571.19,-95.62 1571.19,-95.62 1577.19,-95.62 1583.19,-101.62 1583.19,-107.62 1583.19,-107.62 1583.19,-136.84 1583.19,-136.84 1583.19,-142.84 1577.19,-148.84 1571.19,-148.84"/>
<text xml:space="preserve" text-anchor="middle" x="1469.36" y="-126.19" font-family="Noto Sans KR" font-size="14.00" fill="#182033">Regression detected</text>
<text xml:space="preserve" text-anchor="middle" x="1469.36" y="-108.94" font-family="Noto Sans KR" font-size="14.00" fill="#182033">inspect first divergent trace stage</text>
</g>
<!-- Match&#45;&gt;Fail -->
<g id="edge8" class="edge">
<title>Match&#45;&gt;Fail</title>
<path fill="none" stroke="#59687e" stroke-width="1.35" d="M1253.82,-149.71C1271.91,-146.22 1291.25,-142.74 1309.27,-139.99 1321.09,-138.18 1333.43,-136.48 1345.79,-134.9"/>
<polygon fill="#59687e" stroke="#59687e" stroke-width="1.35" points="1346.09,-137.5 1353.2,-133.97 1345.43,-132.3 1346.09,-137.5"/>
<text xml:space="preserve" text-anchor="middle" x="1319.4" y="-143.94" font-family="Noto Sans KR" font-size="14.00">no</text>
</g>
</g>
</svg>
